<?xml version="1.0" standalone="no"?>
<!DOCTYPE svg PUBLIC "-//W3C//DTD SVG 20010904//EN"
 "http://www.w3.org/TR/2001/REC-SVG-20010904/DTD/svg10.dtd">
<svg version="1.0" xmlns="http://www.w3.org/2000/svg"
 width="700.000000pt" height="700.000000pt" viewBox="0 0 700.000000 700.000000"
 preserveAspectRatio="xMidYMid meet">
<metadata>
Created by potrace 1.14, written by Peter Selinger 2001-2017
</metadata>
<g transform="translate(0.000000,700.000000) scale(0.100000,-0.100000)"
fill="#000000" stroke="none">
<path d="M3299 6616 c-2 -2 -41 -7 -87 -10 -114 -10 -159 -15 -217 -26 -27 -5
-66 -12 -85 -14 -19 -3 -44 -8 -55 -10 -181 -39 -235 -53 -329 -82 -457 -143
-905 -393 -1206 -674 -9 -8 -36 -33 -61 -56 -282 -262 -530 -621 -673 -976
-63 -158 -133 -400 -151 -523 -4 -22 -10 -67 -15 -100 -32 -212 -31 -485 5
-695 45 -270 164 -574 327 -837 42 -67 81 -128 87 -135 6 -7 47 -60 93 -118
226 -289 544 -566 883 -767 99 -60 395 -213 410 -213 3 0 25 -8 48 -19 126
-56 456 -161 557 -177 19 -3 38 -8 41 -9 8 -6 235 -43 299 -50 30 -3 72 -8 92
-11 l37 -6 0 -268 c0 -167 4 -284 11 -310 14 -54 84 -125 136 -139 69 -19 111
-13 226 34 461 189 1042 536 1498 894 221 174 555 489 707 667 59 69 171 208
193 240 206 295 282 429 400 709 4 11 13 36 20 55 7 19 16 44 21 55 26 61 93
338 105 435 24 211 24 529 -1 655 -3 11 -7 37 -10 58 -18 132 -70 333 -121
476 -49 134 -59 159 -137 311 -219 432 -574 823 -1003 1103 -438 287 -936 461
-1494 523 -60 6 -545 15 -551 10z m-974 -2408 c68 -17 136 -58 191 -112 209
-209 153 -562 -109 -691 -84 -41 -144 -54 -225 -49 -308 21 -494 339 -363 621
32 67 136 183 165 183 9 0 16 4 16 9 0 9 116 48 160 54 37 4 120 -3 165 -15z
m1320 -4 c187 -59 309 -231 304 -429 -8 -316 -339 -512 -629 -373 -25 12 -52
28 -60 36 -52 47 -110 108 -110 115 0 5 -9 21 -20 36 -42 60 -59 225 -33 316
69 236 318 373 548 299z m1310 -1 c226 -73 350 -312 282 -543 -76 -258 -388
-383 -624 -249 -72 40 -88 55 -139 122 -105 141 -111 361 -14 495 50 70 63 83
123 123 109 73 246 92 372 52z"/>
</g>
</svg>
