<svg width="24" height="25" viewBox="0 0 24 25" fill="none" xmlns="http://www.w3.org/2000/svg">
<path d="M3.81915 6.51611C3.77755 7.49756 3.75 8.71431 3.75 10.2169C3.75 13.1109 3.8522 14.9447 3.96017 16.0787C4.13142 17.8773 5.39775 19.4274 7.3158 19.7758C8.63485 20.0154 10.8012 20.25 14.25 20.25C16.0053 20.25 17.4284 20.1892 18.5767 20.0979C18.5667 20.2179 18.5567 20.3306 18.5466 20.4364C18.4345 21.6143 17.6271 22.58 16.4161 22.7999C15.2078 23.0193 13.1349 23.2499 9.75 23.2499C6.3651 23.2499 4.29214 23.0193 3.08388 22.7999C1.87296 22.58 1.06555 21.6143 0.953415 20.4364C0.851155 19.3624 0.75 17.5781 0.75 14.7168C0.75 11.8555 0.851155 10.0713 0.953415 8.99721C1.06561 7.81881 1.87477 6.85326 3.0852 6.63351C3.30149 6.59426 3.5453 6.55466 3.81915 6.51611Z" fill="#171A2F"/>
<path d="M12.8613 3.10362C12.1106 2.24242 10.9914 1.74911 9.8229 1.84923C8.8694 1.93093 8.1376 2.03331 7.5852 2.13359C6.37475 2.35333 5.5656 3.31886 5.4534 4.49728C5.35115 5.5713 5.25 7.35555 5.25 10.2169C5.25 13.0782 5.35115 14.8624 5.4534 15.9365C5.56555 17.1143 6.37295 18.08 7.5839 18.2999C8.79215 18.5194 10.8651 18.75 14.25 18.75C17.6349 18.75 19.7078 18.5194 20.9161 18.2999C22.1271 18.08 22.9345 17.1143 23.0466 15.9365C23.1488 14.8624 23.25 13.0782 23.25 10.2169C23.25 9.2308 23.238 8.37285 23.2181 7.62805C23.1649 5.6388 21.5113 4.14163 19.5681 4.14163H14.3348C13.9735 4.14163 13.6299 3.98533 13.3925 3.71302L12.8613 3.10362Z" fill="#171A2F"/>
</svg>
