<svg width="24" height="23" viewBox="0 0 24 23" fill="none" xmlns="http://www.w3.org/2000/svg">
<path fill-rule="evenodd" clip-rule="evenodd" d="M20.5532 4.42985C20.859 4.15045 20.859 3.69745 20.5532 3.41805C20.2475 3.13865 19.7517 3.13865 19.4459 3.41805L11.9997 10.2217L4.55351 3.41806C4.24772 3.13866 3.75193 3.13866 3.44614 3.41806C3.14035 3.69746 3.14035 4.15047 3.44614 4.42987L10.8923 11.2335L3.44614 18.0371C3.14035 18.3165 3.14035 18.7695 3.44614 19.0489C3.75193 19.3283 4.24771 19.3283 4.5535 19.0489L11.9997 12.2453L19.4459 19.0489C19.7517 19.3283 20.2475 19.3283 20.5532 19.0489C20.859 18.7695 20.859 18.3165 20.5532 18.0371L13.107 11.2335L20.5532 4.42985Z" fill="#171A2F"/>
</svg>
