<svg width="24" height="24" viewBox="0 0 24 24" fill="none" xmlns="http://www.w3.org/2000/svg">
<path fill-rule="evenodd" clip-rule="evenodd" d="M8.99988 20.7499C9.41409 20.7499 9.74988 21.0857 9.74988 21.4999C9.74988 21.9142 9.41409 22.2499 8.99988 22.2499H8.39988H8.36688C7.27473 22.2499 6.40923 22.2499 5.71161 22.193C4.99822 22.1347 4.3946 22.0131 3.84342 21.7322C2.94965 21.2768 2.223 20.5502 1.7676 19.6564C1.48676 19.1052 1.36515 18.5016 1.30687 17.7882C1.24987 17.0906 1.24987 16.2251 1.24988 15.133V15.1329V15.0999V8.89994V8.86694V8.86691C1.24987 7.77478 1.24987 6.90929 1.30687 6.21167C1.36515 5.49828 1.48676 4.89466 1.7676 4.34348C2.223 3.44971 2.94965 2.72306 3.84342 2.26766C4.3946 1.98682 4.99822 1.86521 5.71161 1.80693C6.40923 1.74993 7.27472 1.74993 8.36686 1.74994H8.39988H8.49988C8.91409 1.74994 9.24988 2.08573 9.24988 2.49994C9.24988 2.91415 8.91409 3.24994 8.49988 3.24994H8.39988C7.2674 3.24994 6.46314 3.25052 5.83376 3.30194C5.21313 3.35265 4.82888 3.44903 4.52441 3.60417C3.91288 3.91576 3.4157 4.41294 3.10411 5.02447C2.94897 5.32894 2.85259 5.71319 2.80188 6.33382C2.75046 6.9632 2.74988 7.76746 2.74988 8.89994L2.74988 15.0999C2.74988 16.2324 2.75046 17.0367 2.80188 17.6661C2.85259 18.2867 2.94897 18.6709 3.10411 18.9754C3.4157 19.5869 3.91288 20.0841 4.52441 20.3957C4.82888 20.5508 5.21313 20.6472 5.83376 20.6979C6.46314 20.7494 7.2674 20.7499 8.39988 20.7499H8.99988ZM15.4695 18.5304C15.1767 18.2375 15.1767 17.7626 15.4695 17.4697L20.1892 12.75H7.99988C7.58566 12.75 7.24988 12.4142 7.24988 12C7.24988 11.5858 7.58566 11.25 7.99988 11.25H20.1892L15.4695 6.53037C15.1767 6.23747 15.1767 5.7626 15.4695 5.46971C15.7624 5.17681 16.2373 5.17681 16.5302 5.46971L22.5302 11.4697L23.0605 12L22.5302 12.5304L16.5302 18.5304C16.2373 18.8233 15.7624 18.8233 15.4695 18.5304Z" fill="#0057FF"/>
</svg>
