<svg width="25" height="24" viewBox="0 0 25 24" fill="none" xmlns="http://www.w3.org/2000/svg">
<path fill-rule="evenodd" clip-rule="evenodd" d="M9.85718 20.7499C10.2714 20.7499 10.6072 21.0857 10.6072 21.4999C10.6072 21.9141 10.2714 22.2499 9.85718 22.2499H9.25718H9.22418C8.13203 22.2499 7.26653 22.2499 6.56891 22.1929C5.85552 22.1346 5.2519 22.013 4.70072 21.7322C3.80695 21.2768 3.0803 20.5501 2.6249 19.6563C2.34406 19.1052 2.22245 18.5015 2.16417 17.7881C2.10717 17.0905 2.10717 16.225 2.10718 15.1329V15.1329V15.0999V8.89988V8.86688V8.86685C2.10717 7.77471 2.10717 6.90923 2.16417 6.21161C2.22245 5.49822 2.34406 4.8946 2.6249 4.34342C3.0803 3.44965 3.80695 2.723 4.70072 2.2676C5.2519 1.98676 5.85552 1.86515 6.56891 1.80687C7.26653 1.74987 8.13202 1.74987 9.22416 1.74988H9.25718H9.35718C9.77139 1.74988 10.1072 2.08566 10.1072 2.49988C10.1072 2.91409 9.77139 3.24988 9.35718 3.24988H9.25718C8.1247 3.24988 7.32044 3.25046 6.69106 3.30188C6.07043 3.35259 5.68618 3.44897 5.38171 3.60411C4.77018 3.91569 4.273 4.41288 3.96141 5.02441C3.80627 5.32888 3.70989 5.71313 3.65918 6.33376C3.60776 6.96314 3.60718 7.7674 3.60718 8.89988L3.60718 15.0999C3.60718 16.2324 3.60776 17.0366 3.65918 17.666C3.70989 18.2866 3.80627 18.6709 3.96141 18.9753C4.27299 19.5869 4.77018 20.0841 5.38171 20.3956C5.68618 20.5508 6.07043 20.6472 6.69106 20.6979C7.32044 20.7493 8.1247 20.7499 9.25718 20.7499H9.85718ZM16.3268 18.5303C16.034 18.2374 16.034 17.7625 16.3268 17.4696L21.0465 12.75H8.85718C8.44296 12.75 8.10718 12.4142 8.10718 12C8.10718 11.5858 8.44296 11.25 8.85718 11.25H21.0465L16.3268 6.5303C16.034 6.23741 16.034 5.76254 16.3268 5.46964C16.6197 5.17675 17.0946 5.17675 17.3875 5.46964L23.3875 11.4696L23.9178 12L23.3875 12.5303L17.3875 18.5303C17.0946 18.8232 16.6197 18.8232 16.3268 18.5303Z" fill="#75A4FF"/>
</svg>
