<svg width="168" height="80" viewBox="0 0 168 80" fill="none" xmlns="http://www.w3.org/2000/svg">
<g filter="url(#filter0_f_0_1)">
<circle cx="128.922" cy="29.445" r="10.8513" fill="#0057FF"/>
</g>
<path d="M146.308 76.0639C144.146 73.7111 143.065 70.6589 143.065 66.9072C143.065 63.1556 144.146 60.1192 146.308 57.7983C148.502 55.4455 151.236 54.2692 154.511 54.2692C156.578 54.2692 158.469 54.8732 160.186 56.0814C160.917 56.5901 161.569 57.1783 162.142 57.846H162.38V45.6848H167.388V79.0684H162.38V75.9685H162.142C161.601 76.6362 160.949 77.2403 160.186 77.7808C158.501 78.9571 156.609 79.5453 154.511 79.5453C151.236 79.5453 148.502 78.3848 146.308 76.0639ZM150.219 60.8982C148.947 62.2971 148.311 64.3001 148.311 66.9072C148.311 69.5143 148.947 71.5174 150.219 72.9163C151.491 74.3152 153.239 75.0147 155.465 75.0147C157.563 75.0147 159.232 74.3152 160.472 72.9163C161.744 71.4856 162.38 69.4825 162.38 66.9072C162.38 64.3319 161.744 62.3448 160.472 60.9459C159.232 59.5152 157.563 58.7998 155.465 58.7998C153.239 58.7998 151.491 59.4993 150.219 60.8982Z" fill="#232429"/>
<path d="M118.977 75.9207C116.593 73.4726 115.401 70.468 115.401 66.9071C115.401 63.3462 116.593 60.3576 118.977 57.9412C121.394 55.4931 124.335 54.269 127.8 54.269C131.266 54.269 134.191 55.4931 136.575 57.9412C138.992 60.3576 140.2 63.3462 140.2 66.9071V68.5763H120.408C120.79 70.5793 121.664 72.1531 123.031 73.2977C124.398 74.4423 125.988 75.0146 127.8 75.0146C130.026 75.0146 131.806 74.4582 133.142 73.3454C133.746 72.9003 134.27 72.3439 134.715 71.6762H139.961C139.294 73.2341 138.451 74.5535 137.434 75.6345C134.827 78.2416 131.616 79.5452 127.8 79.5452C124.335 79.5452 121.394 78.337 118.977 75.9207ZM120.647 64.5226H134.954C134.668 62.9329 133.905 61.5816 132.665 60.4689C131.457 59.3561 129.835 58.7997 127.8 58.7997C126.083 58.7997 124.557 59.3243 123.222 60.3735C121.887 61.3909 121.028 62.7739 120.647 64.5226Z" fill="#232429"/>
<path d="M88.7031 59.2767V54.7461H91.5646V45.6848H107.779V50.2154H96.5721V54.7461H111.118V79.0684H106.11V59.2767H96.5721V79.0684H91.5646V59.2767H88.7031Z" fill="#232429"/>
<path d="M80.2803 50.3108C79.708 49.7385 79.4219 49.0391 79.4219 48.2124C79.4219 47.3858 79.708 46.6863 80.2803 46.114C80.8526 45.5099 81.5521 45.2079 82.3787 45.2079C83.2053 45.2079 83.9048 45.5099 84.4771 46.114C85.0812 46.6863 85.3832 47.3858 85.3832 48.2124C85.3832 49.0391 85.0812 49.7385 84.4771 50.3108C83.9048 50.8831 83.2053 51.1692 82.3787 51.1692C81.5521 51.1692 80.8526 50.8831 80.2803 50.3108ZM79.8988 79.0684V54.7461H84.9063V79.0684H79.8988Z" fill="#232429"/>
<path d="M61.3162 79.0682V54.7459H66.3237V58.3227H66.5622C66.9119 57.655 67.4206 57.0192 68.0883 56.4151C69.5508 55.1433 71.2676 54.5074 73.2389 54.5074H76.1003V59.2765H73.0004C71.061 59.2765 69.4554 59.8965 68.1836 61.1365C66.9437 62.3446 66.3237 63.9502 66.3237 65.9532V79.0682H61.3162Z" fill="#232429"/>
<path d="M35.798 75.9207C33.4135 73.4726 32.2212 70.468 32.2212 66.9071C32.2212 63.3462 33.4135 60.3576 35.798 57.9412C38.2143 55.4931 41.1553 54.269 44.6208 54.269C48.0863 54.269 51.0114 55.4931 53.3959 57.9412C55.8123 60.3576 57.0204 63.3462 57.0204 66.9071V68.5763H37.2287C37.6103 70.5793 38.4846 72.1531 39.8517 73.2977C41.2189 74.4423 42.8086 75.0146 44.6208 75.0146C46.8464 75.0146 48.6268 74.4582 49.9622 73.3454C50.5663 72.9003 51.0909 72.3439 51.536 71.6762H56.782C56.1143 73.2341 55.2718 74.5535 54.2544 75.6345C51.6473 78.2416 48.4361 79.5452 44.6208 79.5452C41.1553 79.5452 38.2143 78.337 35.798 75.9207ZM37.4672 64.5226H51.7744C51.4883 62.9329 50.7252 61.5816 49.4853 60.4689C48.2771 59.3561 46.6556 58.7997 44.6208 58.7997C42.9039 58.7997 41.3778 59.3243 40.0425 60.3735C38.7071 61.3909 37.8487 62.7739 37.4672 64.5226Z" fill="#232429"/>
<path d="M1.00049 45.6848H6.72339L13.877 73.8224H19.123L26.0382 45.6848H31.5226L23.1767 79.0684H9.58484L1.00049 45.6848Z" fill="#232429"/>
<path d="M76.5645 30.8013H82.2874C82.5099 31.9141 82.9709 32.9156 83.6704 33.8059C85.1965 35.7771 87.5175 36.7627 90.6333 36.7627C93.145 36.7627 95.0049 36.3176 96.2131 35.4273C97.4212 34.5053 98.0253 33.2813 98.0253 31.7552C98.0253 30.547 97.4689 29.5773 96.3561 28.846C95.2752 28.1147 93.7173 27.4789 91.6825 26.9384C87.7082 25.921 85.0375 25.0784 83.6704 24.4108C79.8869 22.6621 77.9952 20.0232 77.9952 16.4941C77.9952 13.7916 79.1398 11.4547 81.4289 9.48353C83.7181 7.48051 86.7067 6.479 90.3948 6.479C95.2911 6.479 98.9315 8.11639 101.316 11.3912C102.333 12.7901 103.065 14.4116 103.51 16.2556H97.7869C97.5643 15.3654 97.1669 14.5705 96.5946 13.8711C95.2593 12.2814 93.1927 11.4865 90.3948 11.4865C88.2328 11.4865 86.5795 11.9317 85.435 12.8219C84.2904 13.7121 83.7181 14.8567 83.7181 16.2556C83.7181 18.354 85.8324 19.9755 90.061 21.1201C90.4107 21.2155 91.0784 21.4062 92.064 21.6924C93.0496 21.9467 93.7491 22.1534 94.1624 22.3124C94.6075 22.4395 95.2752 22.6621 96.1654 22.98C97.0874 23.2662 97.771 23.5364 98.2161 23.7908C98.6612 24.0451 99.2335 24.379 99.933 24.7923C100.632 25.1738 101.157 25.5871 101.507 26.0322C101.888 26.4456 102.27 26.9225 102.651 27.463C103.065 28.0035 103.351 28.6235 103.51 29.3229C103.669 29.9906 103.748 30.7218 103.748 31.5167C103.748 34.3781 102.556 36.8104 100.171 38.8134C97.8187 40.7846 94.6393 41.7702 90.6333 41.7702C85.2919 41.7702 81.3653 39.9421 78.8536 36.2858C77.709 34.7279 76.946 32.8997 76.5645 30.8013Z" fill="#232429"/>
<path d="M34.3616 40.8163V7.43274H43.4228L52.4841 28.1783H53.6764L62.7376 7.43274H71.5604V40.8163H66.076V17.4478L66.5529 12.9172H66.076L57.2532 33.1858H48.6688L39.846 12.9172H39.3691L39.846 17.4478V40.8163H34.3616Z" fill="#232429"/>
<path d="M1.95435 30.8013H7.67725C7.8998 31.9141 8.36081 32.9156 9.06028 33.8059C10.5864 35.7771 12.9073 36.7627 16.0231 36.7627C18.5349 36.7627 20.3948 36.3176 21.603 35.4273C22.8111 34.5053 23.4152 33.2813 23.4152 31.7552C23.4152 30.547 22.8588 29.5773 21.746 28.846C20.6651 28.1147 19.1072 27.4789 17.0723 26.9384C13.0981 25.921 10.4274 25.0784 9.06028 24.4108C5.27681 22.6621 3.38507 20.0232 3.38507 16.4941C3.38507 13.7916 4.52965 11.4547 6.81881 9.48353C9.10797 7.48051 12.0966 6.479 15.7847 6.479C20.6809 6.479 24.3213 8.11639 26.7059 11.3912C27.7233 12.7901 28.4546 14.4116 28.8997 16.2556H23.1768C22.9542 15.3654 22.5568 14.5705 21.9845 13.8711C20.6492 12.2814 18.5826 11.4865 15.7847 11.4865C13.6227 11.4865 11.9694 11.9317 10.8248 12.8219C9.68026 13.7121 9.10797 14.8567 9.10797 16.2556C9.10797 18.354 11.2223 19.9755 15.4509 21.1201C15.8006 21.2155 16.4683 21.4062 17.4539 21.6924C18.4395 21.9467 19.1389 22.1534 19.5523 22.3124C19.9974 22.4395 20.6651 22.6621 21.5553 22.98C22.4773 23.2662 23.1609 23.5364 23.606 23.7908C24.0511 24.0451 24.6234 24.379 25.3229 24.7923C26.0223 25.1738 26.5469 25.5871 26.8967 26.0322C27.2782 26.4456 27.6597 26.9225 28.0412 27.463C28.4546 28.0035 28.7407 28.6235 28.8997 29.3229C29.0586 29.9906 29.1381 30.7218 29.1381 31.5167C29.1381 34.3781 27.9459 36.8104 25.5613 38.8134C23.2086 40.7846 20.0292 41.7702 16.0231 41.7702C10.6818 41.7702 6.75522 39.9421 4.24351 36.2858C3.09893 34.7279 2.33587 32.8997 1.95435 30.8013Z" fill="#232429"/>
<path fill-rule="evenodd" clip-rule="evenodd" d="M117.941 21.858C117.941 11.014 127.656 2.48364 139.302 2.48364C150.948 2.48364 160.664 11.014 160.664 21.858C160.664 27.9394 156.991 33.1124 152.725 36.9943C148.434 40.8995 143.307 43.7199 139.856 45.1001C139.397 45.2837 138.876 45.2277 138.467 44.9504C138.057 44.6732 137.812 44.2109 137.812 43.7163V40.1843C132.979 39.8322 128.285 37.8002 124.687 34.8015C120.727 31.5017 117.941 26.8929 117.941 21.858ZM130.36 24.8387C132.007 24.8387 133.341 23.5042 133.341 21.858C133.341 20.2119 132.007 18.8774 130.36 18.8774C128.714 18.8774 127.38 20.2119 127.38 21.858C127.38 23.5042 128.714 24.8387 130.36 24.8387ZM139.302 24.8387C140.949 24.8387 142.283 23.5042 142.283 21.858C142.283 20.2119 140.949 18.8774 139.302 18.8774C137.656 18.8774 136.322 20.2119 136.322 21.858C136.322 23.5042 137.656 24.8387 139.302 24.8387ZM151.225 21.858C151.225 23.5042 149.891 24.8387 148.244 24.8387C146.598 24.8387 145.264 23.5042 145.264 21.858C145.264 20.2119 146.598 18.8774 148.244 18.8774C149.891 18.8774 151.225 20.2119 151.225 21.858Z" fill="#0057FF"/>
<g filter="url(#filter1_f_0_1)">
<circle cx="155.091" cy="12.9172" r="10.8513" fill="white"/>
</g>
<defs>
<filter id="filter0_f_0_1" x="93.9565" y="-5.52042" width="69.9307" height="69.9307" filterUnits="userSpaceOnUse" color-interpolation-filters="sRGB">
<feFlood flood-opacity="0" result="BackgroundImageFix"/>
<feBlend mode="normal" in="SourceGraphic" in2="BackgroundImageFix" result="shape"/>
<feGaussianBlur stdDeviation="12.057" result="effect1_foregroundBlur_0_1"/>
</filter>
<filter id="filter1_f_0_1" x="132.182" y="-9.99111" width="45.8167" height="45.8167" filterUnits="userSpaceOnUse" color-interpolation-filters="sRGB">
<feFlood flood-opacity="0" result="BackgroundImageFix"/>
<feBlend mode="normal" in="SourceGraphic" in2="BackgroundImageFix" result="shape"/>
<feGaussianBlur stdDeviation="6.02851" result="effect1_foregroundBlur_0_1"/>
</filter>
</defs>
</svg>
