<svg width="167" height="80" viewBox="0 0 167 80" fill="none" xmlns="http://www.w3.org/2000/svg">
<g filter="url(#filter0_f_0_1)">
<circle cx="127.922" cy="29.4451" r="10.8513" fill="#FF2C52"/>
</g>
<path d="M145.308 76.0641C143.146 73.7114 142.065 70.6592 142.065 66.9075C142.065 63.1558 143.146 60.1195 145.308 57.7985C147.502 55.4458 150.236 54.2694 153.511 54.2694C155.578 54.2694 157.469 54.8735 159.186 56.0817C159.917 56.5904 160.569 57.1786 161.142 57.8462H161.38V45.6851H166.388V79.0686H161.38V75.9687H161.142C160.601 76.6364 159.949 77.2405 159.186 77.781C157.501 78.9574 155.609 79.5456 153.511 79.5456C150.236 79.5456 147.502 78.3851 145.308 76.0641ZM149.219 60.8984C147.947 62.2974 147.311 64.3004 147.311 66.9075C147.311 69.5146 147.947 71.5176 149.219 72.9165C150.491 74.3155 152.239 75.0149 154.465 75.0149C156.563 75.0149 158.232 74.3155 159.472 72.9165C160.744 71.4858 161.38 69.4828 161.38 66.9075C161.38 64.3322 160.744 62.3451 159.472 60.9461C158.232 59.5154 156.563 58.8 154.465 58.8C152.239 58.8 150.491 59.4995 149.219 60.8984Z" fill="#232429"/>
<path d="M117.977 75.9207C115.593 73.4726 114.401 70.468 114.401 66.9071C114.401 63.3462 115.593 60.3576 117.977 57.9412C120.394 55.4931 123.335 54.269 126.8 54.269C130.266 54.269 133.191 55.4931 135.575 57.9412C137.992 60.3576 139.2 63.3462 139.2 66.9071V68.5763H119.408C119.79 70.5793 120.664 72.1531 122.031 73.2977C123.398 74.4423 124.988 75.0146 126.8 75.0146C129.026 75.0146 130.806 74.4582 132.142 73.3454C132.746 72.9003 133.27 72.3439 133.715 71.6762H138.961C138.294 73.2341 137.451 74.5535 136.434 75.6345C133.827 78.2416 130.616 79.5452 126.8 79.5452C123.335 79.5452 120.394 78.337 117.977 75.9207ZM119.647 64.5226H133.954C133.668 62.9329 132.905 61.5816 131.665 60.4689C130.457 59.3561 128.835 58.7997 126.8 58.7997C125.083 58.7997 123.557 59.3243 122.222 60.3735C120.887 61.3909 120.028 62.7739 119.647 64.5226Z" fill="#232429"/>
<path d="M87.7031 59.2769V54.7463H90.5646V45.6851H106.779V50.2157H95.5721V54.7463H110.118V79.0686H105.11V59.2769H95.5721V79.0686H90.5646V59.2769H87.7031Z" fill="#232429"/>
<path d="M79.2803 50.3109C78.708 49.7386 78.4219 49.0392 78.4219 48.2125C78.4219 47.3859 78.708 46.6864 79.2803 46.1141C79.8526 45.51 80.5521 45.208 81.3787 45.208C82.2053 45.208 82.9048 45.51 83.4771 46.1141C84.0812 46.6864 84.3832 47.3859 84.3832 48.2125C84.3832 49.0392 84.0812 49.7386 83.4771 50.3109C82.9048 50.8832 82.2053 51.1694 81.3787 51.1694C80.5521 51.1694 79.8526 50.8832 79.2803 50.3109ZM78.8988 79.0685V54.7462H83.9063V79.0685H78.8988Z" fill="#232429"/>
<path d="M60.3162 79.0686V54.7463H65.3237V58.3231H65.5622C65.9119 57.6554 66.4206 57.0195 67.0883 56.4154C68.5508 55.1437 70.2676 54.5078 72.2389 54.5078H75.1003V59.2769H72.0004C70.061 59.2769 68.4554 59.8969 67.1836 61.1368C65.9437 62.345 65.3237 63.9506 65.3237 65.9536V79.0686H60.3162Z" fill="#232429"/>
<path d="M34.798 75.9207C32.4135 73.4726 31.2212 70.468 31.2212 66.9071C31.2212 63.3462 32.4135 60.3576 34.798 57.9412C37.2143 55.4931 40.1553 54.269 43.6208 54.269C47.0863 54.269 50.0114 55.4931 52.3959 57.9412C54.8123 60.3576 56.0204 63.3462 56.0204 66.9071V68.5763H36.2287C36.6103 70.5793 37.4846 72.1531 38.8517 73.2977C40.2189 74.4423 41.8086 75.0146 43.6208 75.0146C45.8464 75.0146 47.6268 74.4582 48.9622 73.3454C49.5663 72.9003 50.0909 72.3439 50.536 71.6762H55.782C55.1143 73.2341 54.2718 74.5535 53.2544 75.6345C50.6473 78.2416 47.4361 79.5452 43.6208 79.5452C40.1553 79.5452 37.2143 78.337 34.798 75.9207ZM36.4672 64.5226H50.7744C50.4883 62.9329 49.7252 61.5816 48.4853 60.4689C47.2771 59.3561 45.6556 58.7997 43.6208 58.7997C41.9039 58.7997 40.3778 59.3243 39.0425 60.3735C37.7071 61.3909 36.8487 62.7739 36.4672 64.5226Z" fill="#232429"/>
<path d="M0.000488281 45.6851H5.72339L12.877 73.8227H18.123L25.0382 45.6851H30.5226L22.1767 79.0686H8.58484L0.000488281 45.6851Z" fill="#232429"/>
<path d="M75.5645 30.8013H81.2874C81.5099 31.9141 81.9709 32.9156 82.6704 33.8059C84.1965 35.7771 86.5175 36.7627 89.6333 36.7627C92.145 36.7627 94.0049 36.3176 95.2131 35.4273C96.4212 34.5053 97.0253 33.2813 97.0253 31.7552C97.0253 30.547 96.4689 29.5773 95.3561 28.846C94.2752 28.1147 92.7173 27.4789 90.6825 26.9384C86.7082 25.921 84.0375 25.0784 82.6704 24.4108C78.8869 22.6621 76.9952 20.0232 76.9952 16.4941C76.9952 13.7916 78.1398 11.4547 80.4289 9.48353C82.7181 7.48051 85.7067 6.479 89.3948 6.479C94.2911 6.479 97.9315 8.11639 100.316 11.3912C101.333 12.7901 102.065 14.4116 102.51 16.2556H96.7869C96.5643 15.3654 96.1669 14.5705 95.5946 13.8711C94.2593 12.2814 92.1927 11.4865 89.3948 11.4865C87.2328 11.4865 85.5795 11.9317 84.435 12.8219C83.2904 13.7121 82.7181 14.8567 82.7181 16.2556C82.7181 18.354 84.8324 19.9755 89.061 21.1201C89.4107 21.2155 90.0784 21.4062 91.064 21.6924C92.0496 21.9467 92.7491 22.1534 93.1624 22.3124C93.6075 22.4395 94.2752 22.6621 95.1654 22.98C96.0874 23.2662 96.771 23.5364 97.2161 23.7908C97.6612 24.0451 98.2335 24.379 98.933 24.7923C99.6324 25.1738 100.157 25.5871 100.507 26.0322C100.888 26.4456 101.27 26.9225 101.651 27.463C102.065 28.0035 102.351 28.6235 102.51 29.3229C102.669 29.9906 102.748 30.7218 102.748 31.5167C102.748 34.3781 101.556 36.8104 99.1714 38.8134C96.8187 40.7846 93.6393 41.7702 89.6333 41.7702C84.2919 41.7702 80.3653 39.9421 77.8536 36.2858C76.709 34.7279 75.946 32.8997 75.5645 30.8013Z" fill="#232429"/>
<path d="M33.3616 40.8167V7.43311H42.4228L51.4841 28.1786H52.6764L61.7376 7.43311H70.5604V40.8167H65.076V17.4482L65.5529 12.9176H65.076L56.2532 33.1862H47.6688L38.846 12.9176H38.3691L38.846 17.4482V40.8167H33.3616Z" fill="#232429"/>
<path d="M0.954346 30.8013H6.67725C6.8998 31.9141 7.36081 32.9156 8.06028 33.8059C9.58639 35.7771 11.9073 36.7627 15.0231 36.7627C17.5349 36.7627 19.3948 36.3176 20.603 35.4273C21.8111 34.5053 22.4152 33.2813 22.4152 31.7552C22.4152 30.547 21.8588 29.5773 20.746 28.846C19.6651 28.1147 18.1072 27.4789 16.0723 26.9384C12.0981 25.921 9.42742 25.0784 8.06028 24.4108C4.27681 22.6621 2.38507 20.0232 2.38507 16.4941C2.38507 13.7916 3.52965 11.4547 5.81881 9.48353C8.10797 7.48051 11.0966 6.479 14.7847 6.479C19.6809 6.479 23.3213 8.11639 25.7059 11.3912C26.7233 12.7901 27.4546 14.4116 27.8997 16.2556H22.1768C21.9542 15.3654 21.5568 14.5705 20.9845 13.8711C19.6492 12.2814 17.5826 11.4865 14.7847 11.4865C12.6227 11.4865 10.9694 11.9317 9.82484 12.8219C8.68026 13.7121 8.10797 14.8567 8.10797 16.2556C8.10797 18.354 10.2223 19.9755 14.4509 21.1201C14.8006 21.2155 15.4683 21.4062 16.4539 21.6924C17.4395 21.9467 18.1389 22.1534 18.5523 22.3124C18.9974 22.4395 19.6651 22.6621 20.5553 22.98C21.4773 23.2662 22.1609 23.5364 22.606 23.7908C23.0511 24.0451 23.6234 24.379 24.3229 24.7923C25.0223 25.1738 25.5469 25.5871 25.8967 26.0322C26.2782 26.4456 26.6597 26.9225 27.0412 27.463C27.4546 28.0035 27.7407 28.6235 27.8997 29.3229C28.0586 29.9906 28.1381 30.7218 28.1381 31.5167C28.1381 34.3781 26.9459 36.8104 24.5613 38.8134C22.2086 40.7846 19.0292 41.7702 15.0231 41.7702C9.68177 41.7702 5.75522 39.9421 3.24351 36.2858C2.09893 34.7279 1.33587 32.8997 0.954346 30.8013Z" fill="#232429"/>
<path fill-rule="evenodd" clip-rule="evenodd" d="M116.941 21.8588C116.941 11.0148 126.656 2.48438 138.302 2.48438C149.948 2.48438 159.664 11.0148 159.664 21.8588C159.664 27.9402 155.991 33.1131 151.725 36.9951C147.434 40.9002 142.307 43.7206 138.856 45.1008C138.397 45.2845 137.876 45.2284 137.467 44.9512C137.057 44.6739 136.812 44.2116 136.812 43.7171V40.1851C131.979 39.833 127.285 37.8009 123.687 34.8022C119.727 31.5024 116.941 26.8936 116.941 21.8588ZM129.36 24.8395C131.007 24.8395 132.341 23.505 132.341 21.8588C132.341 20.2126 131.007 18.8781 129.36 18.8781C127.714 18.8781 126.38 20.2126 126.38 21.8588C126.38 23.505 127.714 24.8395 129.36 24.8395ZM138.302 24.8395C139.949 24.8395 141.283 23.505 141.283 21.8588C141.283 20.2126 139.949 18.8781 138.302 18.8781C136.656 18.8781 135.322 20.2126 135.322 21.8588C135.322 23.505 136.656 24.8395 138.302 24.8395ZM150.225 21.8588C150.225 23.505 148.891 24.8395 147.244 24.8395C145.598 24.8395 144.264 23.505 144.264 21.8588C144.264 20.2126 145.598 18.8781 147.244 18.8781C148.891 18.8781 150.225 20.2126 150.225 21.8588Z" fill="#FF2C52"/>
<g filter="url(#filter1_f_0_1)">
<circle cx="154.091" cy="12.9172" r="10.8513" fill="white"/>
</g>
<defs>
<filter id="filter0_f_0_1" x="92.9565" y="-5.5203" width="69.9307" height="69.9307" filterUnits="userSpaceOnUse" color-interpolation-filters="sRGB">
<feFlood flood-opacity="0" result="BackgroundImageFix"/>
<feBlend mode="normal" in="SourceGraphic" in2="BackgroundImageFix" result="shape"/>
<feGaussianBlur stdDeviation="12.057" result="effect1_foregroundBlur_0_1"/>
</filter>
<filter id="filter1_f_0_1" x="131.182" y="-9.99111" width="45.8167" height="45.8167" filterUnits="userSpaceOnUse" color-interpolation-filters="sRGB">
<feFlood flood-opacity="0" result="BackgroundImageFix"/>
<feBlend mode="normal" in="SourceGraphic" in2="BackgroundImageFix" result="shape"/>
<feGaussianBlur stdDeviation="6.02851" result="effect1_foregroundBlur_0_1"/>
</filter>
</defs>
</svg>
