<svg width="166" height="80" viewBox="0 0 166 80" fill="none" xmlns="http://www.w3.org/2000/svg">
<path d="M144.97 75.8871C142.813 73.5399 141.734 70.4948 141.734 66.7518C141.734 63.0088 142.813 59.9796 144.97 57.664C147.158 55.3168 149.886 54.1431 153.153 54.1431C155.215 54.1431 157.102 54.7458 158.815 55.9512C159.545 56.4587 160.195 57.0455 160.766 57.7116H161.004V45.5787H166V78.8847H161.004V75.792H160.766C160.227 76.4581 159.577 77.0608 158.815 77.6C157.134 78.7737 155.247 79.3605 153.153 79.3605C149.886 79.3605 147.158 78.2027 144.97 75.8871ZM148.871 60.7567C147.602 62.1524 146.968 64.1508 146.968 66.7518C146.968 69.3528 147.602 71.3512 148.871 72.7469C150.14 74.1425 151.884 74.8404 154.105 74.8404C156.198 74.8404 157.864 74.1425 159.101 72.7469C160.37 71.3195 161.004 69.3211 161.004 66.7518C161.004 64.1825 160.37 62.2 159.101 60.8043C157.864 59.3769 156.198 58.6632 154.105 58.6632C151.884 58.6632 150.14 59.3611 148.871 60.7567Z" fill="#232429"/>
<path d="M117.703 75.7444C115.324 73.3019 114.134 70.3044 114.134 66.7517C114.134 63.1991 115.324 60.2174 117.703 57.8067C120.114 55.3643 123.048 54.1431 126.505 54.1431C129.963 54.1431 132.881 55.3643 135.26 57.8067C137.671 60.2174 138.876 63.1991 138.876 66.7517V68.417H119.13C119.511 70.4154 120.383 71.9855 121.747 73.1275C123.111 74.2694 124.697 74.8403 126.505 74.8403C128.726 74.8403 130.502 74.2852 131.834 73.175C132.437 72.731 132.96 72.1759 133.404 71.5097H138.638C137.972 73.064 137.131 74.3804 136.116 75.4589C133.515 78.0599 130.312 79.3604 126.505 79.3604C123.048 79.3604 120.114 78.1551 117.703 75.7444ZM119.368 64.3728H133.642C133.357 62.7868 132.595 61.4387 131.358 60.3285C130.153 59.2183 128.535 58.6632 126.505 58.6632C124.792 58.6632 123.27 59.1865 121.937 60.2333C120.605 61.2483 119.749 62.6282 119.368 64.3728Z" fill="#232429"/>
<path d="M87.4991 59.139V54.6189H90.3539V45.5787H106.531V50.0988H95.3498V54.6189H109.862V78.8847H104.866V59.139H95.3498V78.8847H90.3539V59.139H87.4991Z" fill="#232429"/>
<path d="M79.0954 50.194C78.5244 49.623 78.2389 48.9252 78.2389 48.1004C78.2389 47.2757 78.5244 46.5779 79.0954 46.0069C79.6663 45.4042 80.3641 45.1029 81.1889 45.1029C82.0136 45.1029 82.7114 45.4042 83.2824 46.0069C83.8851 46.5779 84.1864 47.2757 84.1864 48.1004C84.1864 48.9252 83.8851 49.623 83.2824 50.194C82.7114 50.7649 82.0136 51.0504 81.1889 51.0504C80.3641 51.0504 79.6663 50.7649 79.0954 50.194ZM78.7147 78.8846V54.6189H83.7106V78.8846H78.7147Z" fill="#232429"/>
<path d="M60.1755 78.8846V54.6189H65.1714V58.1874H65.4093C65.7582 57.5213 66.2657 56.8869 66.9318 56.2842C68.3909 55.0154 70.1038 54.381 72.0704 54.381H74.9252V59.139H71.8326C69.8976 59.139 68.2958 59.7575 67.027 60.9946C65.7899 62.1999 65.1714 63.8018 65.1714 65.8002V78.8846H60.1755Z" fill="#232429"/>
<path d="M34.717 75.7444C32.338 73.3019 31.1485 70.3044 31.1485 66.7517C31.1485 63.1991 32.338 60.2174 34.717 57.8067C37.1277 55.3643 40.0618 54.1431 43.5193 54.1431C46.9768 54.1431 49.895 55.3643 52.274 57.8067C54.6847 60.2174 55.8901 63.1991 55.8901 66.7517V68.417H36.1444C36.525 70.4154 37.3973 71.9855 38.7613 73.1275C40.1252 74.2694 41.7112 74.8403 43.5193 74.8403C45.7397 74.8403 47.516 74.2852 48.8482 73.175C49.4509 72.731 49.9743 72.1759 50.4184 71.5097H55.6522C54.986 73.064 54.1455 74.3804 53.1304 75.4589C50.5294 78.0599 47.3257 79.3604 43.5193 79.3604C40.0618 79.3604 37.1277 78.1551 34.717 75.7444ZM36.3823 64.3728H50.6563C50.3708 62.7868 49.6095 61.4387 48.3724 60.3285C47.1671 59.2183 45.5494 58.6632 43.5193 58.6632C41.8064 58.6632 40.2838 59.1865 38.9516 60.2333C37.6194 61.2483 36.7629 62.6282 36.3823 64.3728Z" fill="#232429"/>
<path d="M0 45.5787H5.70959L12.8466 73.6509H18.0804L24.9795 45.5787H30.4511L22.1247 78.8847H8.56438L0 45.5787Z" fill="#232429"/>
<path d="M75.3879 30.7299H81.0975C81.3195 31.8401 81.7795 32.8392 82.4773 33.7274C83.9999 35.694 86.3154 36.6774 89.424 36.6774C91.9299 36.6774 93.7855 36.2333 94.9908 35.3451C96.1962 34.4252 96.7989 33.204 96.7989 31.6815C96.7989 30.4761 96.2438 29.5087 95.1336 28.7791C94.0551 28.0495 92.5008 27.4151 90.4707 26.8759C86.5058 25.8609 83.8413 25.0203 82.4773 24.3542C78.7026 22.6096 76.8153 19.9768 76.8153 16.4559C76.8153 13.7597 77.9572 11.4283 80.2411 9.46165C82.5249 7.46329 85.5066 6.46411 89.1861 6.46411C94.071 6.46411 97.7029 8.09769 100.082 11.3648C101.097 12.7605 101.826 14.3782 102.271 16.218H96.561C96.3389 15.3298 95.9424 14.5368 95.3715 13.839C94.0392 12.253 91.9774 11.46 89.1861 11.46C87.0291 11.46 85.3797 11.9041 84.2378 12.7922C83.0959 13.6804 82.5249 14.8223 82.5249 16.218C82.5249 18.3115 84.6343 19.9292 88.853 21.0711C89.2019 21.1663 89.8681 21.3566 90.8514 21.6421C91.8347 21.8959 92.5325 22.102 92.9449 22.2606C93.389 22.3875 94.0551 22.6096 94.9433 22.9268C95.8631 23.2122 96.5451 23.4819 96.9892 23.7356C97.4333 23.9894 98.0042 24.3224 98.7021 24.7348C99.3999 25.1154 99.9233 25.5278 100.272 25.9719C100.653 26.3842 101.033 26.86 101.414 27.3993C101.826 27.9385 102.112 28.5571 102.271 29.2549C102.429 29.921 102.508 30.6506 102.508 31.4436C102.508 34.2984 101.319 36.7249 98.94 38.7233C96.5927 40.6899 93.4207 41.6732 89.424 41.6732C84.095 41.6732 80.1776 39.8494 77.6717 36.2016C76.5298 34.6473 75.7685 32.8234 75.3879 30.7299Z" fill="#232429"/>
<path d="M33.2841 40.7216V7.41565H42.3243L51.3645 28.1129H52.554L61.5942 7.41565H70.3964V40.7216H64.9248V17.4074L65.4006 12.8873H64.9248L56.1225 33.1088H47.5581L38.7558 12.8873H38.28L38.7558 17.4074V40.7216H33.2841Z" fill="#232429"/>
<path d="M0.951515 30.7299H6.66111C6.88314 31.8401 7.34308 32.8392 8.04092 33.7274C9.56348 35.694 11.879 36.6774 14.9876 36.6774C17.4935 36.6774 19.3491 36.2333 20.5544 35.3451C21.7598 34.4252 22.3625 33.204 22.3625 31.6815C22.3625 30.4761 21.8074 29.5087 20.6972 28.7791C19.6187 28.0495 18.0644 27.4151 16.0344 26.8759C12.0694 25.8609 9.40488 25.0203 8.04092 24.3542C4.26625 22.6096 2.37891 19.9768 2.37891 16.4559C2.37891 13.7597 3.52083 11.4283 5.80467 9.46165C8.0885 7.46329 11.0702 6.46411 14.7497 6.46411C19.6346 6.46411 23.2665 8.09769 25.6455 11.3648C26.6605 12.7605 27.3901 14.3782 27.8342 16.218H22.1246C21.9025 15.3298 21.506 14.5368 20.9351 13.839C19.6028 12.253 17.541 11.46 14.7497 11.46C12.5927 11.46 10.9433 11.9041 9.80138 12.7922C8.65946 13.6804 8.0885 14.8223 8.0885 16.218C8.0885 18.3115 10.1979 19.9292 14.4166 21.0711C14.7656 21.1663 15.4317 21.3566 16.415 21.6421C17.3983 21.8959 18.0961 22.102 18.5085 22.2606C18.9526 22.3875 19.6187 22.6096 20.5069 22.9268C21.4267 23.2122 22.1087 23.4819 22.5528 23.7356C22.9969 23.9894 23.5678 24.3224 24.2657 24.7348C24.9635 25.1154 25.4869 25.5278 25.8358 25.9719C26.2165 26.3842 26.5971 26.86 26.9777 27.3993C27.3901 27.9385 27.6756 28.5571 27.8342 29.2549C27.9928 29.921 28.0721 30.6506 28.0721 31.4436C28.0721 34.2984 26.8826 36.7249 24.5036 38.7233C22.1563 40.6899 18.9843 41.6732 14.9876 41.6732C9.65864 41.6732 5.74123 39.8494 3.23535 36.2016C2.09343 34.6473 1.33215 32.8234 0.951515 30.7299Z" fill="#232429"/>
<g filter="url(#filter0_f_620_1557)">
<circle cx="128.71" cy="30.0725" r="10.8261" fill="#0057FF"/>
</g>
<path fill-rule="evenodd" clip-rule="evenodd" d="M116.669 21.8074C116.669 10.9886 126.362 2.47803 137.981 2.47803C149.6 2.47803 159.293 10.9886 159.293 21.8074C159.293 27.8746 155.628 33.0355 151.372 36.9085C147.091 40.8045 141.976 43.6183 138.533 44.9954C138.075 45.1786 137.556 45.1227 137.147 44.8461C136.739 44.5695 136.494 44.1082 136.494 43.6148V40.091C131.672 39.7398 126.989 37.7124 123.399 34.7207C119.449 31.4286 116.669 26.8305 116.669 21.8074ZM129.06 24.7811C130.702 24.7811 132.033 23.4497 132.033 21.8074C132.033 20.165 130.702 18.8336 129.06 18.8336C127.417 18.8336 126.086 20.165 126.086 21.8074C126.086 23.4497 127.417 24.7811 129.06 24.7811ZM137.981 24.7811C139.623 24.7811 140.955 23.4497 140.955 21.8074C140.955 20.165 139.623 18.8336 137.981 18.8336C136.338 18.8336 135.007 20.165 135.007 21.8074C135.007 23.4497 136.338 24.7811 137.981 24.7811ZM149.876 21.8074C149.876 23.4497 148.544 24.7811 146.902 24.7811C145.26 24.7811 143.928 23.4497 143.928 21.8074C143.928 20.165 145.26 18.8336 146.902 18.8336C148.544 18.8336 149.876 20.165 149.876 21.8074Z" fill="#0057FF"/>
<mask id="mask0_620_1557" style="mask-type:alpha" maskUnits="userSpaceOnUse" x="114" y="0" width="48" height="48">
<path fill-rule="evenodd" clip-rule="evenodd" d="M116.669 21.8074C116.669 10.9886 126.362 2.47803 137.981 2.47803C149.6 2.47803 159.293 10.9886 159.293 21.8074C159.293 27.8746 155.628 33.0355 151.372 36.9085C147.091 40.8045 141.976 43.6183 138.533 44.9954C138.075 45.1786 137.556 45.1227 137.147 44.8461C136.739 44.5695 136.494 44.1082 136.494 43.6148V40.091C131.672 39.7398 126.989 37.7124 123.399 34.7207C119.449 31.4286 116.669 26.8305 116.669 21.8074ZM129.06 24.7811C130.702 24.7811 132.033 23.4497 132.033 21.8074C132.033 20.165 130.702 18.8336 129.06 18.8336C127.417 18.8336 126.086 20.165 126.086 21.8074C126.086 23.4497 127.417 24.7811 129.06 24.7811ZM137.981 24.7811C139.623 24.7811 140.955 23.4497 140.955 21.8074C140.955 20.165 139.623 18.8336 137.981 18.8336C136.338 18.8336 135.007 20.165 135.007 21.8074C135.007 23.4497 136.338 24.7811 137.981 24.7811ZM149.876 21.8074C149.876 23.4497 148.544 24.7811 146.902 24.7811C145.26 24.7811 143.928 23.4497 143.928 21.8074C143.928 20.165 145.26 18.8336 146.902 18.8336C148.544 18.8336 149.876 20.165 149.876 21.8074Z" fill="#0057FF"/>
</mask>
<g mask="url(#mask0_620_1557)">
<g filter="url(#filter1_f_620_1557)">
<path d="M160.071 13.0428C160.071 16.4905 161.982 19.751 159.471 21.7336C157.628 23.1893 155.299 24.0581 152.768 24.0581C146.789 24.0581 141.942 19.2111 141.942 13.232C141.942 9.69382 143.723 6.12479 146.406 4.04613C148.257 2.61212 147.029 4.25399 150.586 4.74285C151.771 7.11428 154.56 5.19207 156.514 7.11428C158.511 9.07817 158.886 10.6714 160.071 13.0428Z" fill="white"/>
</g>
</g>
<defs>
<filter id="filter0_f_620_1557" x="102.232" y="3.59503" width="52.955" height="52.9551" filterUnits="userSpaceOnUse" color-interpolation-filters="sRGB">
<feFlood flood-opacity="0" result="BackgroundImageFix"/>
<feBlend mode="normal" in="SourceGraphic" in2="BackgroundImageFix" result="shape"/>
<feGaussianBlur stdDeviation="7.82571" result="effect1_foregroundBlur_620_1557"/>
</filter>
<filter id="filter1_f_620_1557" x="129.913" y="-8.55755" width="42.8836" height="44.6446" filterUnits="userSpaceOnUse" color-interpolation-filters="sRGB">
<feFlood flood-opacity="0" result="BackgroundImageFix"/>
<feBlend mode="normal" in="SourceGraphic" in2="BackgroundImageFix" result="shape"/>
<feGaussianBlur stdDeviation="6.01449" result="effect1_foregroundBlur_620_1557"/>
</filter>
</defs>
</svg>
