<svg width="149" height="132" viewBox="0 0 149 132" fill="none" xmlns="http://www.w3.org/2000/svg">
<path d="M145.019 53.8629L147.826 71.3783" stroke="#303850" stroke-width="3.92584" stroke-linecap="round" stroke-linejoin="round"/>
<path d="M60.4717 42.4581L71.1298 109.013" stroke="#303850" stroke-width="3.92584" stroke-linecap="round" stroke-linejoin="round"/>
<path d="M107.35 87.4565C107.541 94.3121 113.254 99.7 120.113 99.491C126.969 99.282 132.374 93.5547 132.184 86.698C132.169 86.1714 132.122 85.6456 132.04 85.1259L130.576 75.9796" stroke="#303850" stroke-width="3.92584" stroke-linecap="round" stroke-linejoin="round"/>
<path fill-rule="evenodd" clip-rule="evenodd" d="M70.5661 105.514L147.266 67.8737L145.579 57.3673L61.0369 45.9583L70.5661 105.514Z" fill="#0057FF"/>
<path fill-rule="evenodd" clip-rule="evenodd" d="M70.5661 105.514L147.266 67.8737L145.579 57.3673L61.0369 45.9583L70.5661 105.514Z" stroke="#303850" stroke-width="3.92584" stroke-linecap="round" stroke-linejoin="round"/>
<path d="M107.248 36.6179L107.314 30.9042C107.332 29.3573 106.14 28.067 104.597 27.9652L89.3323 26.9708L81.8236 13.6755C81.0635 12.3278 79.3828 11.8107 77.9926 12.4959L64.2531 19.2575L51.1057 11.476C49.7941 10.6967 48.1019 11.0595 47.2202 12.308L38.6791 25.0125L23.3808 24.8454C21.8335 24.8331 20.5406 26.0281 20.4314 27.5716L19.3976 42.8348L6.07639 50.3787C4.72737 51.1414 4.20442 52.8242 4.88596 54.2121L11.6119 67.9311L3.79123 81.0961C2.9868 82.4414 3.38426 84.177 4.69051 85.0341L17.2953 93.532L17.0857 108.828C17.0691 110.375 18.2608 111.664 19.8033 111.768L35.0681 112.76L42.5507 126.073C43.3087 127.423 44.9945 127.943 46.3869 127.256L60.1254 120.493L73.2738 128.276C74.6051 129.063 76.3249 128.671 77.1903 127.383L85.7505 114.699L101.049 114.866C102.596 114.881 103.89 113.685 103.998 112.14L104.198 109.244" stroke="#303850" stroke-width="5.88875" stroke-linecap="round" stroke-linejoin="round"/>
</svg>
