<svg width="132" height="132" viewBox="0 0 132 132" fill="none" xmlns="http://www.w3.org/2000/svg">
<path d="M47.707 7.19551C48.711 6.20983 50.3104 6.2095 51.3147 7.19493C56.3338 12.1198 59.7691 17.2629 61.6223 20.3906C62.513 21.8937 61.6462 23.7151 59.9187 23.9753C57.4651 24.3449 53.8137 24.7455 49.4997 24.7491C45.191 24.7527 41.544 24.3591 39.091 23.9939C37.3604 23.7364 36.4911 21.9126 37.3838 20.4078C39.2411 17.2763 42.6828 12.1279 47.707 7.19551Z" fill="#303850"/>
<path d="M80.7066 23.0537C81.7107 24.0393 83.3101 24.0396 84.3144 23.0542C89.3331 18.1294 92.7687 12.9862 94.6219 9.85858C95.5124 8.35549 94.6458 6.53408 92.918 6.27385C90.4647 5.90427 86.8133 5.5036 82.4994 5.50002C78.1907 5.49645 74.5433 5.89008 72.0903 6.25523C70.36 6.51279 69.4908 8.33657 70.3831 9.84131C72.2408 12.9728 75.6821 18.1213 80.7066 23.0537Z" fill="#303850"/>
<path fill-rule="evenodd" clip-rule="evenodd" d="M66 31.625C86.4124 31.625 100.695 32.2116 109.657 32.769C118.556 33.3223 125.792 39.9245 126.635 48.9962C127.281 55.9416 127.875 66.055 127.875 79.75C127.875 93.4453 127.281 103.558 126.635 110.504C125.792 119.576 118.556 126.178 109.657 126.731C100.695 127.288 86.4124 127.875 66 127.875C45.5876 127.875 31.3049 127.288 22.3428 126.731C13.444 126.178 6.20755 119.576 5.36462 110.504C4.71922 103.558 4.125 93.4453 4.125 79.75C4.125 66.0547 4.71922 55.9416 5.36462 48.9962C6.20758 39.9245 13.444 33.3223 22.3428 32.769C31.3049 32.2116 45.5876 31.625 66 31.625ZM50.8764 59.125C50.8764 64.4407 46.5671 68.75 41.2514 68.75C35.9356 68.75 31.6264 64.4407 31.6264 59.125C31.6264 53.8093 35.9356 49.5 41.2514 49.5C46.5671 49.5 50.8764 53.8093 50.8764 59.125ZM26.6142 76.777C27.119 74.2995 28.9003 72.3759 31.4061 72.0379C33.5368 71.7508 36.6748 71.5 41.1378 71.5C45.6068 71.5 48.7888 71.7514 50.9674 72.0393C53.5441 72.3797 55.3971 74.3504 55.913 76.898C56.5241 79.9161 57.2734 84.3263 57.5938 89.0502C57.7695 91.6405 55.9312 93.8649 53.3536 94.1754C52.6199 94.2637 51.8017 94.3522 50.9058 94.4353L48.6502 108.739C48.3288 110.779 46.8685 112.419 44.8115 112.601C43.8265 112.688 42.608 112.75 41.137 112.75C39.671 112.75 38.4761 112.688 37.5218 112.601C35.5526 112.423 34.1756 110.858 33.8503 108.907L31.4386 94.435C30.5894 94.355 29.8133 94.27 29.1151 94.1848C26.553 93.8726 24.7329 91.6589 24.9064 89.0835C25.2299 84.2837 25.9973 79.8047 26.6142 76.777ZM90.7486 68.75C85.4329 68.75 81.1236 64.4407 81.1236 59.125C81.1236 53.8093 85.4329 49.5 90.7486 49.5C96.0644 49.5 100.374 53.8093 100.374 59.125C100.374 64.4407 96.0644 68.75 90.7486 68.75ZM100.594 72.0379C103.1 72.3759 104.881 74.2995 105.386 76.777C106.003 79.8047 106.77 84.2837 107.094 89.0835C107.267 91.6589 105.447 93.8726 102.885 94.1848C102.187 94.27 101.411 94.355 100.561 94.435L98.1497 108.907C97.8244 110.858 96.4475 112.423 94.4782 112.601C93.5239 112.688 92.329 112.75 90.863 112.75C89.392 112.75 88.1735 112.688 87.1885 112.601C85.1315 112.419 83.6712 110.779 83.3498 108.739L81.0942 94.4353C80.1983 94.3522 79.3801 94.2637 78.6464 94.1754C76.0688 93.8649 74.2305 91.6405 74.4062 89.0502C74.7266 84.3263 75.4759 79.9161 76.087 76.898C76.6029 74.3504 78.4559 72.3797 81.0326 72.0393C83.2112 71.7514 86.3932 71.5 90.8622 71.5C95.3252 71.5 98.4632 71.7508 100.594 72.0379Z" fill="#303850"/>
</svg>
