<svg width="24" height="24" viewBox="0 0 24 24" fill="none" xmlns="http://www.w3.org/2000/svg">
<g clip-path="url(#clip0_69_567)">
<path d="M8.25 12C8.25 12.95 8.29235 13.8708 8.3717 14.75H15.6283C15.7076 13.8708 15.75 12.95 15.75 12C15.75 11.0501 15.7075 10.1292 15.6278 9.25H8.37225C8.29255 10.1292 8.25 11.0501 8.25 12Z" fill="#171A2F"/>
<path d="M6.8664 9.25C6.7901 10.1367 6.75 11.0572 6.75 12C6.75 12.9428 6.7899 13.8633 6.8659 14.75H1.08853C0.867425 13.8699 0.75 12.9486 0.75 12C0.75 11.0513 0.867425 10.1301 1.08853 9.25H6.8664Z" fill="#171A2F"/>
<path d="M8.54941 7.75H15.4506C15.2284 6.2363 14.8923 4.88683 14.476 3.77842C14.0867 2.74176 13.6415 1.9547 13.1859 1.44033C12.7291 0.924675 12.3264 0.75 12 0.75C11.6736 0.75 11.2709 0.924675 10.8142 1.44033C10.3585 1.9547 9.91336 2.74176 9.52401 3.77842C9.10771 4.88683 8.77161 6.2363 8.54941 7.75Z" fill="#171A2F"/>
<path d="M17.1336 9.25C17.2099 10.1367 17.25 11.0572 17.25 12C17.25 12.9428 17.2101 13.8633 17.1341 14.75H22.9115C23.1326 13.8699 23.25 12.9486 23.25 12C23.25 11.0513 23.1326 10.1301 22.9115 9.25H17.1336Z" fill="#171A2F"/>
<path d="M22.4195 7.75001H16.9658C16.7309 6.05601 16.3588 4.52525 15.8802 3.25102C15.5749 2.43824 15.2189 1.70988 14.8137 1.10474C18.2733 1.9956 21.0888 4.49085 22.4195 7.75001Z" fill="#171A2F"/>
<path d="M7.03421 7.75001H1.58047C2.91121 4.49085 5.72666 1.9956 9.18631 1.10474C8.78106 1.70988 8.42506 2.43824 8.11976 3.25102C7.64116 4.52525 7.26906 6.05601 7.03421 7.75001Z" fill="#171A2F"/>
<path d="M7.03306 16.25H1.58047C2.9105 19.5075 5.72366 22.0018 9.18081 22.8939C8.77576 22.2888 8.42036 21.5608 8.11576 20.7486C7.63796 19.4744 7.26701 17.9438 7.03306 16.25Z" fill="#171A2F"/>
<path d="M14.4798 20.222C14.8954 19.1135 15.2305 17.7639 15.4519 16.25H8.54816C8.76956 17.7639 9.10461 19.1135 9.52026 20.222C9.90901 21.2585 10.3538 22.0453 10.8096 22.5595C11.2662 23.0745 11.6702 23.25 12 23.25C12.3298 23.25 12.7338 23.0745 13.1904 22.5595C13.6463 22.0453 14.091 21.2585 14.4798 20.222Z" fill="#171A2F"/>
<path d="M15.8843 20.7486C16.3621 19.4744 16.733 17.9438 16.967 16.25H22.4196C21.0895 19.5075 18.2764 22.0018 14.8192 22.8939C15.2243 22.2888 15.5797 21.5608 15.8843 20.7486Z" fill="#171A2F"/>
</g>
<defs>
<clipPath id="clip0_69_567">
<rect width="24" height="24" fill="white"/>
</clipPath>
</defs>
</svg>
