<svg width="24" height="24" viewBox="0 0 24 24" fill="none" xmlns="http://www.w3.org/2000/svg">
<g clip-path="url(#clip0_69_594)">
<path d="M18.8398 1.81748C18.5033 1.43695 18.0086 1.21927 17.4878 1.27739C16.8132 1.35267 15.7293 1.63521 15.2657 2.6728C15.0346 3.19018 15.2253 3.74277 15.4222 4.1512C15.6294 4.5807 15.8135 5.0664 15.9676 5.58985C14.8222 4.25382 13.1761 2.64469 11.2761 1.60895C10.7715 1.33389 10.1341 1.28779 9.6216 1.63284C9.1249 1.96725 8.50495 2.55625 8.3 3.49047C8.14025 4.21851 8.6192 4.84218 9.1019 5.2346C10.0524 6.0074 10.8882 6.98315 11.6061 8.0649C9.7667 7.5026 7.86005 7.5185 6.08585 8.3803C4.92621 8.9436 4.48648 10.3637 5.14816 11.4758C5.2544 11.6544 5.3628 11.8207 5.4691 11.9732C6.04185 12.7953 7.0926 12.8627 7.9474 12.6415C8.81195 12.4178 9.58335 12.4605 10.2174 12.7168C10.8498 12.9725 11.3625 13.4472 11.703 14.1195C12.0416 14.7881 11.7886 15.6178 11.1485 16.0781C10.8929 16.2619 10.6139 16.4288 10.3332 16.5387C8.9849 16.9355 7.5557 16.0013 7.0285 14.4187C6.896 14.0209 6.6718 13.6249 6.36315 13.3426C6.0501 13.0563 5.6401 12.8804 5.16438 12.9644C4.94401 13.0033 4.73622 13.053 4.54334 13.1086C3.45078 13.4233 2.87257 14.5182 3.02374 15.6041C3.41391 18.4068 4.83401 20.3933 6.85135 21.6564C7.8533 22.2837 9.013 22.5801 10.1672 22.6754C12.9532 22.9053 15.5746 22.5588 17.1775 22.2591C18.2835 22.0522 19.3324 21.5302 20.0343 20.6105C21.033 19.3018 22.3339 16.9485 22.4102 13.513C22.5236 8.40815 20.6884 3.90743 18.8398 1.81748Z" fill="#171A2F"/>
</g>
<defs>
<clipPath id="clip0_69_594">
<rect width="24" height="24" fill="white"/>
</clipPath>
</defs>
</svg>
