<svg width="24" height="24" viewBox="0 0 24 24" fill="none" xmlns="http://www.w3.org/2000/svg">
<g clip-path="url(#clip0_69_585)">
<g clip-path="url(#clip1_69_585)">
<path fill-rule="evenodd" clip-rule="evenodd" d="M17.4646 11C17.4646 12.2709 17.0998 13.4566 16.4693 14.4581C16.5612 14.5345 16.6529 14.6104 16.7443 14.6862C17.3472 15.186 17.941 15.6782 18.5267 16.2253C19.1056 16.766 19.1774 17.5842 18.6299 18.1567C18.5532 18.2369 18.4696 18.3224 18.3783 18.4137C18.287 18.505 18.2014 18.5887 18.1212 18.6654C17.5488 19.2128 16.7305 19.1411 16.1898 18.5622C15.6427 17.9765 15.1505 17.3828 14.6508 16.7798C14.575 16.6883 14.499 16.5967 14.4226 16.5048C13.4211 17.1353 12.2354 17.5 10.9646 17.5C7.37475 17.5 4.4646 14.5898 4.4646 11C4.4646 7.41015 7.37475 4.5 10.9646 4.5C14.5544 4.5 17.4646 7.41015 17.4646 11ZM7.2146 11C7.2146 8.92895 8.89355 7.25 10.9646 7.25C13.0356 7.25 14.7146 8.92895 14.7146 11C14.7146 13.071 13.0356 14.75 10.9646 14.75C8.89355 14.75 7.2146 13.071 7.2146 11Z" fill="#171A2F"/>
<path d="M6.9266 0.750589C7.61665 0.729599 8.19305 1.27197 8.21405 1.962C8.235 2.65204 7.69265 3.22844 7.0026 3.24943L3.84724 3.34541C3.55643 3.36872 3.33348 3.59169 3.31015 3.8824L3.21403 7.03805C3.19302 7.7281 2.61659 8.27045 1.92656 8.24945C1.23652 8.2284 0.694171 7.652 0.715191 6.96195L0.812006 3.78355C0.812371 3.77161 0.812901 3.75967 0.813611 3.74774C0.906321 2.1817 2.14685 0.941429 3.7128 0.848864C3.72471 0.848159 3.73663 0.847624 3.74855 0.847264L6.9266 0.750589Z" fill="#171A2F"/>
<path d="M20.7152 16.9619C20.7362 16.2719 21.3126 15.7295 22.0026 15.7506C22.6927 15.7716 23.235 16.348 23.214 17.038L23.1172 20.2164C23.1168 20.2284 23.1163 20.2403 23.1156 20.2523C23.0229 21.8183 21.7824 23.0586 20.2164 23.1511C20.2045 23.1518 20.1926 23.1524 20.1806 23.1527L17.0026 23.2494C16.3126 23.2704 15.7362 22.728 15.7152 22.038C15.6942 21.348 16.2365 20.7716 16.9266 20.7506L20.082 20.6546C20.3728 20.6313 20.5957 20.4083 20.619 20.1176L20.7152 16.9619Z" fill="#171A2F"/>
<path d="M17.0026 0.750589C16.3126 0.729599 15.7362 1.27197 15.7152 1.962C15.6942 2.65204 16.2366 3.22844 16.9266 3.24943L20.082 3.34541C20.3728 3.36872 20.5957 3.59169 20.6191 3.8824L20.7152 7.03805C20.7362 7.7281 21.3126 8.27045 22.0027 8.24945C22.6927 8.2284 23.235 7.652 23.214 6.96195L23.1172 3.78355C23.1169 3.77161 23.1163 3.75967 23.1156 3.74774C23.0229 2.1817 21.7824 0.941429 20.2164 0.848864C20.2045 0.848159 20.1926 0.847624 20.1807 0.847264L17.0026 0.750589Z" fill="#171A2F"/>
<path d="M3.21406 16.9619C3.19304 16.2719 2.61662 15.7295 1.92658 15.7506C1.23655 15.7716 0.694201 16.348 0.715221 17.038L0.812031 20.2164C0.812396 20.2284 0.812931 20.2403 0.813636 20.2523C0.906351 21.8183 2.14687 23.0586 3.71283 23.1511C3.72474 23.1518 3.73666 23.1524 3.74858 23.1527L6.92666 23.2494C7.61666 23.2704 8.19306 22.728 8.21406 22.038C8.23506 21.348 7.69271 20.7716 7.00266 20.7506L3.84727 20.6546C3.55647 20.6313 3.33352 20.4083 3.31018 20.1176L3.21406 16.9619Z" fill="#171A2F"/>
</g>
</g>
<defs>
<clipPath id="clip0_69_585">
<rect width="24" height="24" fill="white"/>
</clipPath>
<clipPath id="clip1_69_585">
<rect width="24" height="24" fill="white" transform="translate(-0.0354004)"/>
</clipPath>
</defs>
</svg>
