<svg width="36" height="36" viewBox="0 0 36 36" fill="none" xmlns="http://www.w3.org/2000/svg">
<rect x="0.5" y="0.5" width="35" height="35" rx="17.5" fill="white"/>
<rect x="0.5" y="0.5" width="35" height="35" rx="17.5" stroke="#0057FF"/>
<path fill-rule="evenodd" clip-rule="evenodd" d="M10.5 18C10.5 17.5858 10.8358 17.25 11.25 17.25H24.75C25.1642 17.25 25.5 17.5858 25.5 18C25.5 18.4142 25.1642 18.75 24.75 18.75H11.25C10.8358 18.75 10.5 18.4142 10.5 18Z" fill="#0057FF"/>
<path fill-rule="evenodd" clip-rule="evenodd" d="M10.5 13.5C10.5 13.0858 10.8358 12.75 11.25 12.75H24.75C25.1642 12.75 25.5 13.0858 25.5 13.5C25.5 13.9142 25.1642 14.25 24.75 14.25H11.25C10.8358 14.25 10.5 13.9142 10.5 13.5Z" fill="#0057FF"/>
<path fill-rule="evenodd" clip-rule="evenodd" d="M10.5 22.5C10.5 22.0858 10.8358 21.75 11.25 21.75H24.75C25.1642 21.75 25.5 22.0858 25.5 22.5C25.5 22.9142 25.1642 23.25 24.75 23.25H11.25C10.8358 23.25 10.5 22.9142 10.5 22.5Z" fill="#0057FF"/>
</svg>
