<svg width="24" height="24" viewBox="0 0 24 24" fill="none" xmlns="http://www.w3.org/2000/svg">
<path fill-rule="evenodd" clip-rule="evenodd" d="M12 17.25C8.2685 17.25 5.66485 17.1556 4.03931 17.0666C2.44572 16.9794 1.11448 15.8219 0.95254 14.1784C0.84415 13.0784 0.75 11.5366 0.75 9.5C0.75 7.46335 0.84415 5.92165 0.952545 4.82162C1.11448 3.17808 2.44572 2.02066 4.03931 1.93341C5.66485 1.8444 8.2685 1.75 12 1.75C15.7315 1.75 18.3351 1.8444 19.9607 1.93341C21.5543 2.02066 22.8855 3.17808 23.0474 4.82162C23.1558 5.92165 23.25 7.46335 23.25 9.5C23.25 11.5366 23.1558 13.0784 23.0474 14.1784C22.8855 15.8219 21.5543 16.9794 19.9607 17.0666C18.3351 17.1556 15.7315 17.25 12 17.25ZM12 4.75C12.4142 4.75 12.75 5.0858 12.75 5.5V5.9586C13.1468 6.0288 13.4853 6.1455 13.7506 6.26155C13.9974 6.3695 14.2398 6.4951 14.455 6.65855C14.777 6.9045 14.842 7.38875 14.5956 7.71065C14.345 8.03805 13.8776 8.10155 13.5488 7.8539C13.1107 7.5352 12.5388 7.39285 12 7.39285C11.6405 7.39285 11.2907 7.50495 11.0469 7.67085C10.7976 7.8404 10.75 7.99405 10.75 8.07115C10.75 8.25145 10.8282 8.34825 10.9836 8.4328C11.2915 8.60035 11.6542 8.6698 12.0017 8.73635C12.0697 8.74935 12.1371 8.76225 12.2035 8.77575C12.6631 8.8693 13.2582 8.9904 13.7336 9.2491C14.3645 9.5925 14.75 10.2043 14.75 10.9283C14.75 11.6675 14.2976 12.2282 13.7969 12.5688C13.4894 12.778 13.1293 12.9316 12.75 13.0199V13.5003C12.75 13.9145 12.4142 14.2503 12 14.2503C11.5858 14.2503 11.25 13.9145 11.25 13.5003V13.0408C10.6546 12.9355 10.0289 12.711 9.54425 12.3402C9.2153 12.0885 9.1527 11.6178 9.40445 11.2888C9.655 10.9614 10.1226 10.8979 10.4513 11.1455C10.8851 11.4611 11.4731 11.6068 12 11.6068C12.3579 11.6068 12.7093 11.4945 12.9532 11.3286C13.2025 11.159 13.25 11.0054 13.25 10.9283C13.25 10.748 13.1719 10.6512 13.0166 10.5667C12.7086 10.3991 12.3461 10.3297 11.9985 10.2632C11.9304 10.2501 11.863 10.2372 11.7966 10.2237C11.337 10.1301 10.7419 10.009 10.2666 9.7503C9.63555 9.40695 9.25005 8.7951 9.25005 8.07115C9.25005 7.3319 9.70245 6.77125 10.2032 6.4306C10.5107 6.22145 10.8708 6.06785 11.25 5.9795V5.5C11.25 5.0858 11.5858 4.75 12 4.75ZM18.5 8.5C17.9477 8.5 17.5 8.9477 17.5 9.5C17.5 10.0523 17.9477 10.5 18.5 10.5H19C19.5523 10.5 20 10.0523 20 9.5C20 8.9477 19.5523 8.5 19 8.5H18.5ZM4 9.5C4 8.9477 4.44772 8.5 5 8.5H5.5C6.0523 8.5 6.5 8.9477 6.5 9.5C6.5 10.0523 6.0523 10.5 5.5 10.5H5C4.44772 10.5 4 10.0523 4 9.5ZM3.62082 18.0315C3.84619 17.684 4.31063 17.5849 4.65816 17.8102C4.91311 17.9756 5.22295 18.0807 5.56795 18.0996C6.9475 18.1749 9.05735 18.2498 12.0001 18.2498C14.9428 18.2498 17.0527 18.1749 18.4322 18.0996C18.7773 18.0807 19.087 17.9756 19.342 17.8102C19.6895 17.5849 20.154 17.684 20.3794 18.0315C20.6048 18.379 20.5057 18.8435 20.1581 19.0688C19.6796 19.3791 19.1159 19.5644 18.5141 19.5973C17.1053 19.6743 14.9681 19.7498 12.0001 19.7498C9.03205 19.7498 6.8948 19.6743 5.4861 19.5973C4.8843 19.5644 4.32053 19.3791 3.84202 19.0688C3.49448 18.8435 3.39545 18.379 3.62082 18.0315ZM5.81765 20.8601C5.9894 20.4832 6.4342 20.3169 6.8111 20.4886C7.01215 20.5802 7.23945 20.6374 7.48605 20.65C8.54355 20.7036 10.0312 20.7505 12.0002 20.7505C13.9692 20.7505 15.4568 20.7036 16.5143 20.65C16.761 20.6374 16.9882 20.5802 17.1893 20.4886C17.5662 20.3169 18.011 20.4832 18.1827 20.8601C18.3544 21.2371 18.188 21.6819 17.8111 21.8536C17.4357 22.0246 17.0229 22.1261 16.5903 22.1481C15.5059 22.2031 13.9929 22.2505 12.0002 22.2505C10.0075 22.2505 8.4944 22.2031 7.4101 22.1481C6.9774 22.1261 6.56465 22.0246 6.18925 21.8536C5.8123 21.6819 5.64595 21.2371 5.81765 20.8601Z" fill="white"/>
</svg>
