<svg width="24" height="25" viewBox="0 0 24 25" fill="none" xmlns="http://www.w3.org/2000/svg">
<path fill-rule="evenodd" clip-rule="evenodd" d="M1.25 11.9412C1.25 6.48404 6.13922 2.19119 12 2.19119C17.8608 2.19119 22.75 6.48404 22.75 11.9412C22.75 15.0016 20.9016 17.6048 18.7548 19.5584C16.5952 21.5236 14.015 22.943 12.2785 23.6376C12.0475 23.73 11.7856 23.7018 11.5795 23.5622C11.3734 23.4227 11.25 23.1901 11.25 22.9412V21.1637C8.81784 20.9866 6.45576 19.9639 4.64486 18.4549C2.65218 16.7943 1.25 14.4749 1.25 11.9412ZM7.5 13.4412C8.32843 13.4412 9 12.7696 9 11.9412C9 11.1128 8.32843 10.4412 7.5 10.4412C6.67157 10.4412 6 11.1128 6 11.9412C6 12.7696 6.67157 13.4412 7.5 13.4412ZM12 13.4412C12.8284 13.4412 13.5 12.7696 13.5 11.9412C13.5 11.1128 12.8284 10.4412 12 10.4412C11.1716 10.4412 10.5 11.1128 10.5 11.9412C10.5 12.7696 11.1716 13.4412 12 13.4412ZM18 11.9412C18 12.7696 17.3284 13.4412 16.5 13.4412C15.6716 13.4412 15 12.7696 15 11.9412C15 11.1128 15.6716 10.4412 16.5 10.4412C17.3284 10.4412 18 11.1128 18 11.9412Z" fill="#0057FF"/>
</svg>
