<svg width="144" height="143" viewBox="0 0 144 143" fill="none" xmlns="http://www.w3.org/2000/svg">
<circle cx="72" cy="71.5" r="62.5" fill="#FF2C52"/>
<path fill-rule="evenodd" clip-rule="evenodd" d="M68.8132 40.9375H68.9167H75.0833H75.1868C79.4163 40.9375 82.7322 40.9375 85.3973 41.1552C88.111 41.3769 90.353 41.8359 92.3822 42.8699C95.7182 44.5696 98.4304 47.2818 100.13 50.6178C101.164 52.647 101.623 54.8889 101.845 57.6027C102.063 60.2678 102.063 63.5838 102.062 67.8133V67.9167V74.0833V74.1867C102.063 78.4162 102.063 81.7322 101.845 84.3973C101.623 87.111 101.164 89.353 100.13 91.3822C98.4304 94.7182 95.7182 97.4304 92.3822 99.1301C90.353 100.164 88.111 100.623 85.3973 100.845C82.7322 101.063 79.4162 101.063 75.1867 101.062H75.0833H68.9167H68.8133C64.5838 101.063 61.2678 101.063 58.6027 100.845C55.8889 100.623 53.647 100.164 51.6178 99.1301C48.2818 97.4304 45.5696 94.7182 43.8699 91.3822C42.8359 89.353 42.3769 87.111 42.1552 84.3973C41.9375 81.7322 41.9375 78.4163 41.9375 74.1868V74.0833V67.9167V67.8132C41.9375 63.5837 41.9375 60.2678 42.1552 57.6027C42.3769 54.8889 42.8359 52.647 43.8699 50.6178C45.5696 47.2818 48.2818 44.5696 51.6178 42.8699C53.647 41.8359 55.8889 41.3769 58.6027 41.1552C61.2678 40.9375 64.5837 40.9375 68.8132 40.9375ZM58.9793 45.7649C56.5516 45.9632 54.9861 46.3444 53.7175 46.9908C51.2518 48.2471 49.2471 50.2518 47.9908 52.7175C47.3444 53.9861 46.9632 55.5516 46.7649 57.9793C46.5643 60.4341 46.5625 63.5614 46.5625 67.9167V74.0833C46.5625 78.4386 46.5643 81.5659 46.7649 84.0207C46.9632 86.4484 47.3444 88.0139 47.9908 89.2825C49.2471 91.7482 51.2518 93.7529 53.7175 95.0092C54.9861 95.6556 56.5516 96.0368 58.9793 96.2351C61.4341 96.4357 64.5614 96.4375 68.9167 96.4375H75.0833C79.4386 96.4375 82.5659 96.4357 85.0207 96.2351C87.4484 96.0368 89.0139 95.6556 90.2825 95.0092C92.7482 93.7529 94.7529 91.7482 96.0092 89.2825C96.6556 88.0139 97.0368 86.4484 97.2351 84.0207C97.4357 81.5659 97.4375 78.4386 97.4375 74.0833V67.9167C97.4375 63.5614 97.4357 60.4341 97.2351 57.9793C97.0368 55.5516 96.6556 53.9861 96.0092 52.7175C94.7529 50.2518 92.7482 48.2471 90.2825 46.9908C89.0139 46.3444 87.4484 45.9632 85.0207 45.7649C82.5659 45.5643 79.4386 45.5625 75.0833 45.5625H68.9167C64.5614 45.5625 61.4341 45.5643 58.9793 45.7649ZM73.7218 77.1772L76.0846 57.0934C76.3723 54.6484 74.4619 52.5001 72 52.5001C69.5381 52.5001 67.6277 54.6484 67.9154 57.0934L70.2782 77.1772C70.3809 78.0503 71.1209 78.7083 72 78.7083C72.8791 78.7083 73.6191 78.0503 73.7218 77.1772ZM72 89.5C73.7029 89.5 75.0833 88.1195 75.0833 86.4167C75.0833 84.7138 73.7029 83.3333 72 83.3333C70.2971 83.3333 68.9167 84.7138 68.9167 86.4167C68.9167 88.1195 70.2971 89.5 72 89.5Z" fill="white"/>
<circle cx="72" cy="71.5" r="70" stroke="#FF2C52" stroke-width="3" stroke-dasharray="6 6"/>
</svg>
