<svg width="24" height="24" viewBox="0 0 24 24" fill="none" xmlns="http://www.w3.org/2000/svg">
<path fill-rule="evenodd" clip-rule="evenodd" d="M9.54035 3.24233C10.5538 1.21545 13.4463 1.21545 14.4597 3.24233L22.2236 18.7702C23.1379 20.5987 21.8083 22.75 19.764 22.75H4.23609C2.19179 22.75 0.862179 20.5987 1.77642 18.7702L9.54035 3.24233ZM12.5586 15.0034L13.3249 8.48973C13.4182 7.69675 12.7986 7 12.0002 7C11.2017 7 10.5822 7.69675 10.6754 8.48973L11.4418 15.0034C11.4751 15.2866 11.7151 15.5 12.0002 15.5C12.2853 15.5 12.5253 15.2866 12.5586 15.0034ZM13.0002 18C13.0002 18.5523 12.5525 19 12.0002 19C11.4479 19 11.0002 18.5523 11.0002 18C11.0002 17.4477 11.4479 17 12.0002 17C12.5525 17 13.0002 17.4477 13.0002 18Z" fill="#1070FF"/>
</svg>
