<svg width="25" height="24" viewBox="0 0 25 24" fill="none" xmlns="http://www.w3.org/2000/svg">
<path fill-rule="evenodd" clip-rule="evenodd" d="M11.0016 2.25H11.0352H13.0352H13.0687C14.4404 2.25 15.5159 2.24999 16.3802 2.32061C17.2604 2.39252 17.9875 2.54138 18.6456 2.87671C19.7275 3.42798 20.6072 4.30762 21.1584 5.38955C21.4938 6.04769 21.6426 6.77479 21.7145 7.65494C21.7852 8.51926 21.7852 9.59466 21.7852 10.9663V10.9664V10.9664V11V13V13.0336V13.0336V13.0337C21.7852 14.4053 21.7852 15.4807 21.7145 16.3451C21.6426 17.2252 21.4938 17.9523 21.1584 18.6104C20.6072 19.6924 19.7275 20.572 18.6456 21.1233C17.9875 21.4586 17.2604 21.6075 16.3802 21.6794C15.5159 21.75 14.4405 21.75 13.0688 21.75H13.0688H13.0687H13.0352H11.0352H11.0016H11.0015H11.0015C9.62982 21.75 8.55442 21.75 7.69009 21.6794C6.80995 21.6075 6.08284 21.4586 5.42471 21.1233C4.34278 20.572 3.46314 19.6924 2.91187 18.6104C2.57653 17.9523 2.42768 17.2252 2.35577 16.3451C2.28515 15.4807 2.28515 14.4053 2.28516 13.0336V13V11V10.9664C2.28515 9.59472 2.28515 8.51929 2.35577 7.65494C2.42768 6.77479 2.57653 6.04769 2.91187 5.38955C3.46314 4.30762 4.34278 3.42798 5.42471 2.87671C6.08284 2.54138 6.80995 2.39252 7.69009 2.32061C8.55444 2.24999 9.62988 2.25 11.0016 2.25ZM12.5935 14.0034L13.3598 7.48973C13.4531 6.69675 12.8335 6 12.0351 6C11.2367 6 10.6171 6.69675 10.7104 7.48973L11.4767 14.0034C11.51 14.2866 11.75 14.5 12.0351 14.5C12.3202 14.5 12.5602 14.2866 12.5935 14.0034ZM13.0351 17C13.0351 17.5523 12.5874 18 12.0351 18C11.4828 18 11.0351 17.5523 11.0351 17C11.0351 16.4477 11.4828 16 12.0351 16C12.5874 16 13.0351 16.4477 13.0351 17Z" fill="#0057FF"/>
</svg>
