<svg width="24" height="24" viewBox="0 0 24 24" fill="none" xmlns="http://www.w3.org/2000/svg">
<path d="M12.546 4.75339C12.5156 4.998 12.5 5.24715 12.5 5.5C12.5 8.8137 15.1863 11.5 18.5 11.5C19.8832 11.5 21.1571 11.0319 22.1719 10.2456C22.1994 10.8611 22.2214 11.5445 22.235 12.2985C22.2086 12.3085 22.1825 12.3201 22.1568 12.3334C21.8204 12.5066 19.8786 13.4966 17.6346 14.4416C16.5122 14.9142 15.3251 15.3709 14.2321 15.7083C13.1235 16.0505 12.1725 16.2502 11.5001 16.2502C10.8277 16.2502 9.87681 16.0504 8.76816 15.7083C7.67526 15.371 6.48826 14.9143 5.36586 14.4417C3.12192 13.4968 1.18011 12.5067 0.843453 12.3334C0.817638 12.3201 0.791413 12.3085 0.764893 12.2985C0.802573 10.2077 0.905683 8.65945 1.00627 7.59585C1.14187 6.16215 2.27276 5.0926 3.68963 4.9886C5.22386 4.87595 7.77261 4.75 11.5 4.75C11.8596 4.75 12.2082 4.75117 12.546 4.75339Z" fill="#5C607C"/>
<path d="M11.5 23.25C7.77265 23.25 5.2239 23.1241 3.68967 23.0114C2.2728 22.9074 1.14191 21.8379 1.00631 20.4042C0.88014 19.0701 0.75 16.9734 0.75 14L0.750005 13.9668C1.57386 14.3772 3.0935 15.1124 4.78379 15.8242C5.93105 16.3073 7.16795 16.7843 8.32585 17.1416C9.4681 17.4941 10.595 17.7502 11.5001 17.7502C12.4053 17.7502 13.5322 17.4941 14.6745 17.1416C15.8325 16.7842 17.0694 16.3072 18.2167 15.8241C19.9067 15.1124 21.4261 14.3773 22.25 13.9669V14C22.25 16.9734 22.1199 19.0701 21.9937 20.4042C21.8581 21.8379 20.7272 22.9074 19.3103 23.0114C17.7761 23.1241 15.2273 23.25 11.5 23.25Z" fill="#5C607C"/>
<path d="M18.5 1C20.9853 1 23 3.01472 23 5.5C23 7.9853 20.9853 10 18.5 10C16.0147 10 14 7.9853 14 5.5C14 3.01472 16.0147 1 18.5 1Z" fill="#5C607C"/>
</svg>
