<svg width="18" height="18" viewBox="0 0 18 18" fill="none" xmlns="http://www.w3.org/2000/svg">
<path fill-rule="evenodd" clip-rule="evenodd" d="M8.25 1.5C4.52208 1.5 1.5 4.52208 1.5 8.25C1.5 11.978 4.52208 15 8.25 15C9.84375 15 11.3085 14.4476 12.4633 13.5239L15.2197 16.2803C15.5126 16.5732 15.9874 16.5732 16.2803 16.2803C16.5732 15.9874 16.5732 15.5126 16.2803 15.2197L13.5239 12.4633C14.4476 11.3085 15 9.84375 15 8.25C15 4.52208 11.978 1.5 8.25 1.5ZM3 8.25C3 5.35051 5.35051 3 8.25 3C11.1495 3 13.5 5.35051 13.5 8.25C13.5 11.1495 11.1495 13.5 8.25 13.5C5.35051 13.5 3 11.1495 3 8.25Z" fill="#67748E"/>
</svg>
