<svg width="16" height="16" viewBox="0 0 16 16" fill="none" xmlns="http://www.w3.org/2000/svg">
<path fill-rule="evenodd" clip-rule="evenodd" d="M6.80618 12.5681C6.88444 13.6418 7.68878 14.4733 8.76058 14.574C9.31864 14.6265 9.97258 14.6666 10.6666 14.6666C11.3608 14.6666 12.0147 14.6265 12.5728 14.574C13.6446 14.4733 14.4489 13.6418 14.5272 12.5681C14.6005 11.5621 14.6666 10.0786 14.6666 7.99992C14.6666 5.92125 14.6005 4.43781 14.5272 3.43174C14.4489 2.35805 13.6446 1.52652 12.5728 1.42583C12.0147 1.3734 11.3608 1.33325 10.6666 1.33325C9.97258 1.33325 9.31864 1.3734 8.76058 1.42583C7.68878 1.52652 6.88444 2.35805 6.80618 3.43174C6.74091 4.32677 6.68138 5.59961 6.66898 7.33325H9.99998C10.3682 7.33325 10.6666 7.63172 10.6666 7.99992C10.6666 8.36812 10.3682 8.66659 9.99998 8.66659H6.66898C6.68138 10.4003 6.74091 11.6731 6.80618 12.5681Z" fill="#FF7ECC"/>
<path fill-rule="evenodd" clip-rule="evenodd" d="M4.80475 9.86193C5.0651 10.1223 5.0651 10.5444 4.80475 10.8047C4.5444 11.0651 4.12229 11.0651 3.86194 10.8047L1.5286 8.4714C1.26826 8.21107 1.26826 7.78893 1.5286 7.5286L3.86194 5.19526C4.12229 4.93491 4.5444 4.93491 4.80475 5.19526C5.0651 5.45561 5.0651 5.87772 4.80475 6.13807L3.60948 7.33333H6.66668V8.66667H3.60948L4.80475 9.86193Z" fill="#FF7ECC"/>
</svg>
