<svg width="16" height="15" viewBox="0 0 16 15" fill="none" xmlns="http://www.w3.org/2000/svg">
<path d="M9.42659 2.00861L9.76961 3.06434C10.1043 4.09439 11.0642 4.7918 12.1473 4.7918H13.2573C14.7104 4.7918 15.3146 6.65122 14.139 7.50532L13.2409 8.1578C12.3647 8.79441 11.9981 9.92283 12.3328 10.9529L12.6758 12.0086C13.1248 13.3906 11.5431 14.5398 10.3675 13.6857L9.46946 13.0332C8.59325 12.3966 7.40676 12.3966 6.53054 13.0332L5.63248 13.6857C4.45691 14.5398 2.87519 13.3906 3.32422 12.0086L3.66724 10.9529C4.00193 9.92283 3.63529 8.79441 2.75907 8.1578L1.86101 7.50532C0.685441 6.65122 1.28961 4.7918 2.74269 4.7918H3.85275C4.93581 4.7918 5.8957 4.09439 6.23039 3.06434L6.57341 2.00861C7.02244 0.626645 8.97756 0.626645 9.42659 2.00861Z" fill="white" stroke="#2AABEE"/>
</svg>
