<svg width="24" height="25" viewBox="0 0 24 25" fill="none" xmlns="http://www.w3.org/2000/svg">
<path fill-rule="evenodd" clip-rule="evenodd" d="M1.25 12.5C1.25 6.56294 6.06294 1.75 12 1.75C17.9371 1.75 22.75 6.56294 22.75 12.5C22.75 18.4371 17.9371 23.25 12 23.25C6.06294 23.25 1.25 18.4371 1.25 12.5ZM15.9697 17.5303C16.2626 17.8232 16.7374 17.8232 17.0303 17.5303C17.3232 17.2374 17.3232 16.7626 17.0303 16.4697L12.75 12.1893V7.5C12.75 7.08579 12.4142 6.75 12 6.75C11.5858 6.75 11.25 7.08579 11.25 7.5V12.5C11.25 12.6989 11.329 12.8897 11.4697 13.0303L15.9697 17.5303Z" fill="#FFB800"/>
</svg>
