<svg width="144" height="144" viewBox="0 0 144 144" fill="none" xmlns="http://www.w3.org/2000/svg">
<circle cx="72" cy="72" r="62.5" fill="#0057FF"/>
<path fill-rule="evenodd" clip-rule="evenodd" d="M43.979 71.5001C43.979 55.7485 56.7482 42.9792 72.4998 42.9792H81.7498C83.027 42.9792 84.0623 41.9439 84.0623 40.6667C84.0623 39.3896 83.027 38.3542 81.7498 38.3542H72.4998C54.1939 38.3542 39.354 53.1941 39.354 71.5001C39.354 89.806 54.1939 104.646 72.4998 104.646C90.8058 104.646 105.646 89.806 105.646 71.5001V69.9584C105.646 68.6813 104.61 67.6459 103.333 67.6459C102.056 67.6459 101.021 68.6813 101.021 69.9584V71.5001C101.021 87.2517 88.2515 100.021 72.4998 100.021C56.7482 100.021 43.979 87.2517 43.979 71.5001ZM101.885 54.6353C102.788 53.7322 102.788 52.268 101.885 51.3649C100.982 50.4618 99.5177 50.4618 98.6147 51.3649L72.3945 77.5851L61.6893 68.2181C60.7281 67.3771 59.2672 67.4745 58.4262 68.4356C57.5852 69.3968 57.6826 70.8577 58.6437 71.6987L70.977 82.4904C71.8933 83.2921 73.2742 83.2461 74.135 82.3853L101.885 54.6353Z" fill="white"/>
<circle cx="72" cy="72" r="70" stroke="#0057FF" stroke-width="3" stroke-dasharray="6 6"/>
</svg>
