<svg width="24" height="24" viewBox="0 0 24 24" fill="none" xmlns="http://www.w3.org/2000/svg">
<rect width="24" height="24" rx="12" fill="white"/>
<path fill-rule="evenodd" clip-rule="evenodd" d="M19.404 12.1773C19.404 11.6242 19.3543 11.0924 19.2622 10.5818H11.916V13.599H16.1138C15.933 14.574 15.3834 15.4001 14.5573 15.9532V17.9103H17.0782C18.5531 16.5524 19.404 14.5528 19.404 12.1773Z" fill="#4285F4"/>
<path fill-rule="evenodd" clip-rule="evenodd" d="M11.916 19.8C14.022 19.8 15.7876 19.1015 17.0782 17.9103L14.5574 15.9532C13.8589 16.4212 12.9655 16.6977 11.916 16.6977C9.88446 16.6977 8.16492 15.3256 7.55156 13.482H4.94565V15.5029C6.2291 18.0521 8.86692 19.8 11.916 19.8Z" fill="#34A853"/>
<path fill-rule="evenodd" clip-rule="evenodd" d="M7.55154 13.482C7.39554 13.014 7.30691 12.5141 7.30691 12C7.30691 11.4859 7.39554 10.986 7.55154 10.518V8.4971H4.94563C4.41736 9.5501 4.116 10.7414 4.116 12C4.116 13.2586 4.41736 14.4499 4.94563 15.5029L7.55154 13.482Z" fill="#FBBC05"/>
<path fill-rule="evenodd" clip-rule="evenodd" d="M11.916 7.30228C13.0612 7.30228 14.0894 7.69583 14.8977 8.46874L17.1349 6.23156C15.7841 4.97292 14.0185 4.20001 11.916 4.20001C8.86692 4.20001 6.2291 5.94792 4.94565 8.4971L7.55156 10.518C8.16492 8.67437 9.88447 7.30228 11.916 7.30228Z" fill="#EA4335"/>
</svg>
