<svg width="24" height="24" viewBox="0 0 24 24" fill="none" xmlns="http://www.w3.org/2000/svg">
<g clip-path="url(#clip0_69_1237)">
<path d="M0 -1.19995H24V25.6H0V-1.19995Z" fill="#D0103A"/>
<path d="M0 -1.19995H16.4V25.6H0V-1.19995Z" fill="#FEDF00"/>
<path d="M0 -1.19995H7.6V25.6H0V-1.19995Z" fill="#0018A8"/>
<path d="M11.2648 8.32227C11.5535 8.32227 11.6735 8.56977 11.9623 8.56977C12.1385 8.56977 12.2435 8.51352 12.401 8.42352C12.5098 8.36352 12.5773 8.32977 12.701 8.32977C12.8285 8.32977 12.9073 8.36727 12.9748 8.47977C13.0123 8.53977 13.0423 8.66352 13.0235 8.73102C13.0012 8.83815 12.9673 8.94252 12.9223 9.04227C12.896 9.10227 12.8735 9.13602 12.8735 9.19977C12.8735 9.35352 13.0835 9.40602 13.226 9.40977C13.256 9.40977 13.5148 9.40977 13.676 9.25227C13.5898 9.24852 13.4923 9.17727 13.4923 9.09102C13.4923 8.99352 13.5598 8.92977 13.6535 8.89977C13.6723 8.89602 13.7023 8.91102 13.7173 8.89977C13.7435 8.88852 13.7323 8.86227 13.7548 8.84727C13.7998 8.80977 13.8298 8.78727 13.8898 8.78727C13.9273 8.78727 13.9498 8.79102 13.9835 8.81352C13.9985 8.82852 14.006 8.84352 14.021 8.84352C14.066 8.84352 14.0885 8.81352 14.1335 8.81352C14.1636 8.81397 14.1932 8.82171 14.2198 8.83602C14.2423 8.84727 14.2423 8.89227 14.2723 8.89227C14.2873 8.89227 14.3623 8.85852 14.4035 8.85852C14.486 8.85852 14.531 8.88852 14.5835 8.95227C14.5985 8.97102 14.606 9.00477 14.621 9.00477C14.6578 9.00789 14.6933 9.01971 14.7246 9.0393C14.7559 9.05886 14.7821 9.08559 14.801 9.11727C14.8123 9.13227 14.8273 9.16977 14.8423 9.17352C14.8648 9.18477 14.8798 9.18102 14.906 9.19977C14.9367 9.21909 14.9623 9.24555 14.9806 9.2769C14.9989 9.30822 15.0093 9.34353 15.011 9.37977C15.011 9.40602 14.9998 9.43977 14.9923 9.46227C14.9248 9.70602 14.756 9.78477 14.5873 9.99852C14.5123 10.0885 14.456 10.1598 14.456 10.276C14.456 10.3023 14.4935 10.3548 14.5048 10.3773C14.4973 10.3248 14.5235 10.2573 14.5798 10.2535C14.6171 10.2533 14.6531 10.2671 14.6809 10.292C14.7086 10.317 14.726 10.3514 14.7298 10.3885C14.7307 10.4116 14.7268 10.4345 14.7185 10.456C14.764 10.4276 14.8152 10.4096 14.8685 10.4035H14.9398C15.0635 10.4035 15.2023 10.4748 15.2885 10.546C15.3788 10.6235 15.4503 10.7205 15.4977 10.8296C15.5451 10.9387 15.5672 11.0572 15.5623 11.176C15.5323 11.371 15.551 11.731 15.0448 11.8735C15.1385 11.911 15.2023 11.986 15.2023 12.0685C15.2033 12.091 15.1998 12.1134 15.192 12.1345C15.1842 12.1556 15.1722 12.175 15.1569 12.1914C15.1415 12.2078 15.123 12.221 15.1025 12.2302C15.0819 12.2393 15.0597 12.2443 15.0373 12.2448C15.0128 12.2463 14.9884 12.2424 14.9657 12.2333C14.943 12.2242 14.9226 12.2102 14.906 12.1923C14.801 12.2973 14.7823 12.406 14.7823 12.556C14.7823 12.646 14.7973 12.6985 14.8348 12.781C14.8723 12.8635 14.9023 12.9123 14.9735 12.9723C15.011 12.916 15.0523 12.8748 15.1235 12.8748C15.1873 12.8748 15.2435 12.8973 15.2698 12.9573C15.2773 12.976 15.2698 12.991 15.281 13.0098C15.2923 13.0323 15.311 13.036 15.3223 13.0585C15.341 13.096 15.3223 13.126 15.341 13.1598C15.3523 13.186 15.3748 13.1898 15.386 13.2123C15.401 13.2498 15.4048 13.2723 15.4048 13.3135C15.4048 13.426 15.3035 13.5085 15.191 13.5085C15.1535 13.5085 15.1385 13.4935 15.1048 13.4973C15.1685 13.561 15.2173 13.591 15.266 13.666C15.3426 13.78 15.3819 13.915 15.3785 14.0523C15.3815 14.1991 15.3453 14.3441 15.2735 14.4723C15.2176 14.601 15.1266 14.7114 15.011 14.791C14.8341 14.9198 14.6279 15.0023 14.411 15.031C14.275 15.0588 14.1371 15.0763 13.9985 15.0835L13.4698 15.1135C13.1998 15.1285 13.0123 15.1698 12.821 15.361C12.911 15.4248 12.971 15.4923 12.971 15.601C12.971 15.7135 12.9035 15.7998 12.7948 15.8335C12.7685 15.841 12.7498 15.8335 12.7235 15.8485C12.6973 15.8635 12.6973 15.8973 12.671 15.9123C12.6288 15.9399 12.5788 15.9531 12.5285 15.9498C12.4841 15.9529 12.4394 15.9462 12.3979 15.93C12.3564 15.9138 12.319 15.8885 12.2885 15.856C12.206 15.9235 12.176 15.9835 12.0823 16.0398C12.0523 16.0548 12.0373 16.0773 12.0035 16.0773C11.9473 16.0773 11.921 16.0398 11.876 16.0098C11.8148 15.9671 11.7593 15.9167 11.711 15.8598C11.6248 15.9085 11.576 15.9498 11.4748 15.9498C11.4221 15.9526 11.3699 15.9395 11.3248 15.9123C11.3023 15.8935 11.2948 15.8673 11.2685 15.8523C11.2423 15.8335 11.2198 15.841 11.1898 15.826C11.0773 15.7773 11.0023 15.6948 11.0023 15.571C11.0023 15.4623 11.0698 15.3948 11.1673 15.346C10.9798 15.1585 10.7923 15.1285 10.5298 15.1135L10.0048 15.0835C9.83977 15.0723 9.74977 15.0573 9.59227 15.031C9.46852 15.0123 9.39727 15.0048 9.28477 14.9523C8.90227 14.7723 8.65477 14.5285 8.60977 14.1085C8.60227 14.071 8.60227 14.0523 8.60227 14.0148C8.60227 13.7973 8.68852 13.6623 8.84227 13.5085C8.80477 13.4973 8.77852 13.5085 8.73727 13.4973C8.64352 13.4598 8.57227 13.396 8.57227 13.291C8.57227 13.2535 8.57227 13.2273 8.59102 13.1935C8.60602 13.171 8.62852 13.1673 8.63602 13.141C8.64352 13.1035 8.63602 13.081 8.65102 13.0473C8.66227 13.0285 8.68102 13.0248 8.68852 13.0023C8.72602 12.931 8.76352 12.8748 8.84227 12.8748C8.90977 12.8748 8.95477 12.9123 8.98477 12.9685C9.05227 12.9385 9.06727 12.8898 9.10477 12.8298C9.15019 12.7558 9.17848 12.6727 9.18757 12.5863C9.19666 12.5 9.18631 12.4128 9.15727 12.331C9.14227 12.2748 9.13477 12.2373 9.08977 12.1923C9.05227 12.2298 9.01477 12.2448 8.96227 12.2448C8.85352 12.2448 8.77477 12.151 8.77477 12.046C8.77363 12.0092 8.7838 11.9729 8.8039 11.9421C8.82403 11.9113 8.85313 11.8873 8.88727 11.8735C8.82727 11.821 8.77477 11.8173 8.71102 11.776C8.61352 11.716 8.57977 11.6485 8.51602 11.551C8.47102 11.491 8.45977 11.446 8.44102 11.3748C8.40826 11.281 8.39548 11.1813 8.40352 11.0823C8.42602 10.8948 8.45977 10.7823 8.57602 10.636C8.64352 10.5498 8.68852 10.4973 8.79352 10.4523C8.87977 10.4148 8.93227 10.3885 9.02602 10.3885L9.10102 10.3923C9.13774 10.3947 9.17356 10.4049 9.20602 10.4223C9.22102 10.4298 9.24727 10.456 9.24727 10.4373C9.24727 10.4185 9.23602 10.4073 9.23602 10.3885C9.23602 10.3135 9.29227 10.2385 9.37102 10.2385C9.42727 10.2385 9.44977 10.291 9.47977 10.3398C9.49477 10.3098 9.50602 10.2873 9.50602 10.2535C9.50602 10.126 9.43477 10.0585 9.35602 9.95727C9.17977 9.73977 8.96227 9.63852 8.96227 9.35727C8.96227 9.27477 8.99977 9.21852 9.07477 9.17352C9.09352 9.16227 9.12352 9.17352 9.14227 9.16227C9.16102 9.15102 9.15727 9.12477 9.16852 9.10977C9.18727 9.08352 9.20602 9.07227 9.22852 9.04977C9.26602 9.01227 9.30352 9.02727 9.34477 8.99352C9.36727 8.97852 9.37477 8.95602 9.38977 8.94102C9.43852 8.88102 9.48352 8.85102 9.56227 8.85102C9.59977 8.85102 9.62227 8.85102 9.65602 8.86602L9.69352 8.88477C9.70477 8.87727 9.72352 8.85477 9.74977 8.84352C9.77449 8.82819 9.80317 8.82036 9.83227 8.82102C9.87352 8.82102 9.89977 8.84352 9.94477 8.84352C9.95602 8.84352 9.95977 8.82852 9.97477 8.82102C10.0123 8.79477 10.031 8.78352 10.076 8.78352C10.121 8.78352 10.1435 8.79477 10.181 8.82102C10.2185 8.83977 10.2185 8.86977 10.256 8.88852C10.2748 8.89977 10.2935 8.89602 10.3123 8.90352C10.4098 8.93727 10.481 9.00102 10.481 9.10227C10.481 9.15852 10.4698 9.19602 10.4285 9.23352C10.3948 9.25977 10.3648 9.25602 10.3235 9.27102C10.4428 9.36729 10.5944 9.41427 10.7473 9.40227C10.9048 9.40227 11.096 9.33852 11.096 9.18102C11.096 9.10602 11.0585 9.06852 11.0285 9.00102C10.9775 8.90244 10.9505 8.79324 10.9498 8.68227C10.9498 8.57727 10.961 8.51352 11.021 8.43102C11.081 8.34477 11.156 8.32227 11.2648 8.32227Z" fill="#C7B37F"/>
<path d="M10.2152 9.1618C10.2217 9.18304 10.2332 9.20236 10.2489 9.21805C10.2646 9.23377 10.284 9.24535 10.3052 9.2518C10.3352 9.26305 10.4065 9.2593 10.4477 9.1993C10.4852 9.1543 10.4852 9.0943 10.4702 9.0493C10.4578 9.016 10.4355 8.98723 10.4065 8.9668L10.2152 9.1618Z" stroke="#703D29" stroke-width="0.0875" stroke-linejoin="round"/>
<path d="M15.0383 12.0534C14.9933 11.9446 14.8771 11.9934 14.8733 12.0534C14.8546 12.1921 14.9746 12.2334 15.0608 12.2109C15.0808 12.2055 15.0994 12.1961 15.1156 12.1832C15.1317 12.1703 15.145 12.1542 15.1546 12.1359C15.1771 12.0984 15.1846 12.0459 15.1696 11.9971C15.1633 11.9755 15.1532 11.9551 15.1396 11.9371C15.1261 11.9194 15.1096 11.9041 15.0908 11.8921C15.0571 11.8696 15.0196 11.8696 14.9633 11.8696C14.7571 11.8696 14.5733 12.1134 14.5133 12.3721C14.4908 12.4546 14.4646 12.6459 14.5021 12.8221C14.5333 12.9818 14.6101 13.1291 14.7233 13.2459C14.8291 13.3454 14.956 13.4198 15.0946 13.4634C15.1435 13.4775 15.1951 13.4788 15.2446 13.4671C15.3646 13.4409 15.4208 13.3246 15.3571 13.2046C15.3083 13.1109 15.1583 13.0546 15.0871 13.1821C15.0833 13.1934 15.0721 13.2159 15.0721 13.2384C15.0721 13.2721 15.0871 13.3134 15.1096 13.3284C15.1658 13.3621 15.2521 13.3509 15.2483 13.2534" stroke="#703D29" stroke-width="0.0875" stroke-linecap="round"/>
<path d="M14.3927 13.4743C14.4569 13.401 14.5442 13.352 14.6402 13.3356C14.7527 13.3206 14.8502 13.3543 14.9477 13.4106C15.0696 13.4664 15.1727 13.5563 15.2446 13.6694C15.3165 13.7825 15.354 13.9141 15.3527 14.0481C15.3527 14.1831 15.3152 14.3293 15.2777 14.4006C15.2477 14.4643 15.1652 14.7381 14.704 14.9256C14.4377 15.0381 14.029 15.0606 13.7402 15.0756C13.3502 15.0868 12.9902 15.1018 12.784 15.3606" stroke="#703D29" stroke-width="0.1"/>
<path d="M14.4907 13.913C14.4795 13.8755 14.4907 13.8343 14.5207 13.7893C14.5657 13.7293 14.6595 13.7105 14.7457 13.7518C14.7828 13.7718 14.8149 13.8 14.8395 13.8343L14.8807 13.8943C14.907 13.9355 14.9182 13.9693 14.9182 13.988C15.012 14.2505 14.8657 14.5318 14.6745 14.648C14.5245 14.738 14.3482 14.7755 14.1345 14.798C14.0407 14.813 13.9845 14.8093 13.8907 14.8168H13.5307C13.4408 14.8121 13.3506 14.8121 13.2607 14.8168C13.152 14.828 13.0732 14.8318 12.9757 14.8468C12.9157 14.8543 12.8482 14.8655 12.7732 14.8843C12.7507 14.8843 12.7282 14.8918 12.7057 14.8993L12.6607 14.9105C12.5257 14.9518 12.3982 15.0005 12.2932 15.068C12.2632 15.0868 12.2257 15.1055 12.1995 15.1318L12.1507 15.1768C12.0757 15.2518 12.0045 15.3268 11.9857 15.428V15.488C11.9857 15.5555 12.0382 15.6493 12.1882 15.6755M12.3945 9.30053C12.4245 9.35303 12.4432 9.38679 12.4245 9.44679C12.402 9.51054 12.357 9.55179 12.2895 9.55179C12.1395 9.55179 12.0532 9.37179 12.1207 9.25929C12.2407 9.06054 12.4695 9.17304 12.6832 9.27054C12.672 9.22179 12.6532 9.20304 12.657 9.13929C12.6607 8.98179 12.777 8.91429 12.8257 8.76429C12.852 8.67804 12.8632 8.60304 12.7995 8.53929C12.7432 8.49054 12.6795 8.49054 12.6082 8.51679C12.4657 8.57304 12.2895 8.73804 11.9857 8.74179C11.6782 8.73804 11.5057 8.57304 11.3595 8.51679C11.2845 8.49054 11.2245 8.49054 11.1682 8.54304C11.1045 8.60304 11.1157 8.67803 11.142 8.76803C11.1907 8.91053 11.307 8.98178 11.3107 9.14303C11.3107 9.20303 11.2957 9.21804 11.2845 9.27054C11.4982 9.17304 11.7345 9.04929 11.847 9.25929C11.9107 9.37929 11.8282 9.54804 11.6782 9.54804C11.6107 9.54804 11.5657 9.51054 11.5432 9.44679C11.5282 9.39054 11.5432 9.34179 11.5732 9.29679" stroke="#703D29" stroke-width="0.0875"/>
<path d="M11.7982 9.19531C11.8291 9.2152 11.8538 9.24325 11.8697 9.27634C11.8856 9.30943 11.892 9.3463 11.8882 9.38281C11.8807 9.47656 11.8582 9.49906 11.7832 9.55156M11.8732 9.40906C11.8695 9.46531 11.847 9.50281 11.787 9.52531" stroke="#703D29" stroke-width="0.0875" stroke-linecap="round"/>
<path d="M10.3765 8.948L10.4027 8.96675L10.4327 8.99675L10.4515 9.03425L10.459 9.06425V9.1355L10.4515 9.1655L10.4327 9.188L10.4102 9.2105L10.3765 9.22925L10.339 9.23675L10.3015 9.24425L10.264 9.2255L10.2302 9.203L10.2115 9.173L10.1965 9.1355V9.1205L10.3765 8.948Z" fill="#C7B37F"/>
<path d="M10.3208 9.09472C10.3095 9.03097 10.2383 9.01972 10.2083 9.05722C10.167 9.11347 10.197 9.20722 10.2833 9.23347C10.3101 9.2389 10.3379 9.23689 10.3637 9.22762C10.3895 9.21838 10.4122 9.20224 10.4295 9.18097C10.467 9.13222 10.4633 9.07597 10.4483 9.03097C10.4362 8.99743 10.4139 8.96854 10.3845 8.94847C10.2833 8.87347 10.1183 8.88847 10.062 9.02347C9.99452 9.18847 10.1445 9.31597 10.287 9.40972C10.4595 9.52972 10.662 9.55222 10.812 9.55222C11.157 9.54847 11.4195 9.38347 11.5883 9.28972C11.6258 9.26722 11.667 9.27097 11.6895 9.29722C11.7007 9.3124 11.7058 9.33127 11.7037 9.35005C11.7016 9.36883 11.6925 9.38611 11.6783 9.39847" stroke="#703D29" stroke-width="0.0875" stroke-linecap="round"/>
<path d="M9.30046 13.7446L9.22546 13.7709L9.15046 13.8309L9.11296 13.8796L9.07171 13.9546L9.05296 14.0109L9.03796 14.0784L9.03046 14.1309M9.74296 13.7521L9.73921 13.8196L9.72796 13.8646L9.69046 13.9471L9.64171 14.0146L9.58546 14.0596L9.54421 14.0784L9.48421 14.0934" stroke="#703D29" stroke-width="0.0875"/>
<path d="M11.9893 15.541C11.978 15.6048 11.918 15.676 11.7905 15.6985L11.768 15.706" stroke="#703D29" stroke-width="0.1"/>
<path d="M15.1575 13.5571C15.2254 13.6226 15.2791 13.7013 15.3153 13.7884C15.3514 13.8755 15.3692 13.9691 15.3675 14.0634C15.3675 14.1984 15.33 14.3446 15.2925 14.4159C15.2625 14.4796 15.18 14.7534 14.7188 14.9409C14.4083 15.0397 14.0845 15.0902 13.7588 15.0909C13.3725 15.1021 13.0163 15.1171 12.8063 15.3646" stroke="#703D29" stroke-width="0.1125"/>
<path d="M14.5312 13.8078C14.5613 13.7703 14.6625 13.7178 14.7487 13.7665C14.7833 13.784 14.813 13.8098 14.835 13.8415" stroke="#703D29" stroke-width="0.075"/>
<path d="M15.0598 13.4669L15.1123 13.4857C15.1612 13.5003 15.2133 13.5003 15.2623 13.4857C15.3673 13.4557 15.4348 13.3582 15.3823 13.2269C15.3662 13.1958 15.3431 13.1688 15.3148 13.1482" stroke="#703D29" stroke-width="0.1125"/>
<path d="M9.01151 10.6925C8.93651 10.7338 8.88776 10.745 8.83151 10.8087C8.78807 10.8891 8.75531 10.9749 8.73401 11.0637M10.459 9.125C10.459 9.1925 10.414 9.23 10.3465 9.245" stroke="#703D29" stroke-width="0.0875" stroke-linecap="round"/>
<path d="M14.891 10.4001C14.9859 10.4021 15.0794 10.4229 15.1661 10.4615C15.2528 10.5 15.331 10.5555 15.396 10.6247C15.4609 10.6938 15.5114 10.7753 15.5445 10.8642C15.5775 10.9532 15.5925 11.0478 15.5885 11.1426C15.5885 11.7426 15.2172 11.8364 15.071 11.8776" stroke="#703D29" stroke-width="0.075"/>
<path d="M14.9402 10.3993C15.244 10.3881 15.559 10.6131 15.574 11.1756C15.5852 11.6143 15.274 11.8131 15.124 11.8506" stroke="#703D29" stroke-width="0.0875"/>
<path d="M14.7673 12.5145L14.771 12.4545L14.7935 12.3608L14.8198 12.2858L14.8535 12.2258L14.891 12.177M15.1835 12.0495V12.1058L15.1648 12.1433L15.1385 12.1845L15.1085 12.207L15.0635 12.2258H15.0223L14.9923 12.222M14.456 10.242L14.4673 10.1783L14.4973 10.1183L14.5348 10.062L14.5948 9.97953L14.6473 9.92703L14.7223 9.84453L14.7973 9.77328L14.8385 9.72453L14.8948 9.65328L14.9473 9.57828L14.9773 9.51453L14.996 9.43203L14.9998 9.33078L14.9923 9.30078M14.531 14.1083L14.591 14.0933L14.636 14.0708L14.6623 14.0445L14.681 14.0145L14.6923 13.9695V13.9358M8.75977 13.482H8.86102L8.92102 13.4595M9.10852 12.0908L9.10102 12.1433L9.08602 12.1658L9.07102 12.1883L9.04477 12.207L9.01852 12.2183L8.98102 12.222H8.95852M9.32977 11.6408L9.31852 11.7195L9.29977 11.757L9.26977 11.802L9.22477 11.8358L9.17977 11.8583L9.09352 11.877M9.66727 10.3883L9.64852 10.437L9.62977 10.4745L9.59977 10.512L9.56227 10.5495L9.51727 10.5683L9.47602 10.5795L9.45352 10.5758M9.46477 10.3433V10.3808" stroke="#703D29" stroke-width="0.075"/>
<path d="M9.53694 11.6001C9.51414 11.6223 9.48747 11.6401 9.45819 11.6526M15.1019 13.3326L15.1207 13.3401C15.1732 13.3701 15.2782 13.3326 15.2482 13.2501" stroke="#703D29" stroke-width="0.075" stroke-linecap="round"/>
<path d="M14.9182 12.184C14.9557 12.2328 15.0269 12.2478 15.0832 12.2328C15.1031 12.2274 15.1218 12.2179 15.1379 12.205C15.1541 12.1921 15.1673 12.176 15.1769 12.1578C15.1994 12.1203 15.2069 12.0678 15.1919 12.019C15.1846 11.9971 15.1731 11.9767 15.1582 11.959C15.1448 11.938 15.1284 11.919 15.1094 11.9028L15.0944 11.8953M15.3344 13.1703C15.3365 13.1616 15.3377 13.1529 15.3382 13.144C15.3385 13.1229 15.3343 13.1019 15.3259 13.0825C15.3175 13.0632 15.305 13.0458 15.2894 13.0315L15.2594 13.0015M15.2744 13.0203C15.2744 12.9528 15.2182 12.9003 15.1469 12.889M14.9894 12.994L14.9407 12.9565C14.838 12.8481 14.7804 12.7046 14.7794 12.5553C14.7794 12.3978 14.8394 12.2403 14.9144 12.1803M12.7957 15.349L12.8632 15.289L12.9082 15.2515L12.9944 15.199L13.0769 15.1615L13.1369 15.1428L13.2494 15.1203L13.3844 15.0978M12.2782 15.8253C12.2076 15.9277 12.1085 16.0072 11.9932 16.054C11.8787 16.0059 11.7799 15.9267 11.7082 15.8253" stroke="#703D29" stroke-width="0.075"/>
<path d="M11.7907 15.6724C11.7762 15.7307 11.7479 15.7847 11.7082 15.8299" stroke="#703D29" stroke-width="0.075" stroke-linecap="round"/>
<path d="M11.8017 15.5933L11.7867 15.6758M11.7005 15.837L11.663 15.8745L11.5992 15.9083L11.5242 15.9308M11.3142 9.26327C11.3255 9.23327 11.333 9.21077 11.333 9.16577C11.3292 9.00827 11.213 8.93702 11.1642 8.79077M11.1642 8.79077C11.138 8.70452 11.1267 8.62952 11.1905 8.56577C11.243 8.51327 11.3105 8.51327 11.378 8.54327C11.528 8.59952 11.7005 8.76077 12.0042 8.76827C11.7005 8.76077 11.5242 8.59952 11.3817 8.54327C11.3067 8.51327 11.2392 8.50577 11.183 8.56202C11.1192 8.62202 11.138 8.70452 11.1642 8.79077ZM11.1642 8.79077C11.213 8.93702 11.3217 9.00827 11.3255 9.16577C11.3255 9.21077 11.3142 9.23327 11.3067 9.26327M12.0005 8.74952C12.3005 8.73452 12.5592 8.53202 12.6417 8.51327C12.7167 8.49827 12.7542 8.50577 12.8105 8.55452C12.758 8.50577 12.698 8.50952 12.623 8.53577C12.4805 8.59202 12.308 8.75327 12.0005 8.76077M14.9855 12.9945C14.9132 12.9404 14.8547 12.8702 14.8143 12.7894C14.774 12.7087 14.753 12.6198 14.753 12.5295C14.753 12.3758 14.8167 12.2145 14.888 12.1545M12.263 15.8145C12.2142 15.8895 12.1017 16.002 11.978 16.047C11.8629 15.9979 11.7641 15.9173 11.693 15.8145" stroke="#703D29" stroke-width="0.075"/>
<path d="M11.502 9.33867L11.5882 9.28992C11.6257 9.26742 11.6745 9.27117 11.697 9.29742C11.7195 9.32367 11.7232 9.37242 11.6895 9.40242" stroke="#703D29" stroke-width="0.075" stroke-linecap="round"/>
<path d="M11.051 9.5488C11.2573 9.5038 11.426 9.4138 11.5535 9.34255M12.761 15.5C12.7798 15.5113 12.791 15.5375 12.791 15.5375C12.7948 15.545 12.8023 15.5563 12.8023 15.5675C12.8135 15.6238 12.776 15.6575 12.7273 15.665C12.6635 15.6725 12.6148 15.635 12.596 15.59M11.0398 9.53755C11.246 9.4963 11.4148 9.40255 11.5423 9.3313M15.2023 13.34C15.1648 13.355 15.1423 13.3513 15.0898 13.3325L15.0223 13.295C14.8855 13.2171 14.7756 13.0994 14.7073 12.9575C14.6786 12.9031 14.6572 12.8451 14.6435 12.785C14.6316 12.7449 14.6252 12.7032 14.6248 12.6613C14.6207 12.4561 14.6825 12.255 14.801 12.0875C14.8423 12.0275 14.8798 11.9938 14.9585 11.99M9.56979 10.5163C9.60201 10.5417 9.6279 10.5742 9.64545 10.6113C9.66303 10.6484 9.67179 10.689 9.67104 10.73C9.67104 10.8463 9.57354 11.0375 9.33354 11.105C9.25392 11.1268 9.16896 11.116 9.09729 11.075" stroke="#703D29" stroke-width="0.075"/>
<path d="M9.61146 10.9099C9.65271 10.9399 9.67146 10.9737 9.67146 11.0337C9.67146 11.0712 9.64521 11.1237 9.60021 11.1724C9.55803 11.2183 9.50712 11.2551 9.45042 11.2809C9.39375 11.3067 9.33246 11.3208 9.27021 11.3224C9.19521 11.3224 9.12021 11.3074 9.04521 11.2587C8.97375 11.2117 8.92284 11.1393 8.90271 11.0562" stroke="#703D29" stroke-width="0.075"/>
<path d="M9.60752 11.1609C9.65627 11.2059 9.67127 11.2622 9.67127 11.3334C9.67127 11.4347 9.63002 11.5134 9.53252 11.5959C9.51002 11.6184 9.48752 11.6334 9.45752 11.6522M14.3138 10.8234V10.9547M14.3025 10.7897V10.9772M14.3138 10.3847V10.6322M14.3025 10.3322V10.6659M14.2313 13.7409C14.1925 13.8202 14.139 13.8915 14.0738 13.9509C14.0113 14.015 13.9375 14.0671 13.8563 14.1047C13.7781 14.1437 13.6948 14.1715 13.6088 14.1872C13.5252 14.2072 13.4397 14.2186 13.3538 14.2209C13.26 14.2209 13.2075 14.2209 13.1138 14.2134C13.0163 14.2059 12.9638 14.1909 12.8625 14.1834C12.78 14.1759 12.735 14.1684 12.6525 14.1722C12.5119 14.1671 12.3717 14.1901 12.24 14.2397C12.1425 14.2772 12.0263 14.3522 12.0038 14.3822C11.9324 14.3214 11.8513 14.2732 11.7638 14.2397C11.7024 14.2145 11.6382 14.1969 11.5725 14.1872C11.4863 14.1722 11.4413 14.1722 11.355 14.1722C11.2725 14.1722 11.2275 14.1759 11.145 14.1834C11.0475 14.1947 10.995 14.2059 10.8938 14.2134C10.8 14.2209 10.7475 14.2247 10.6538 14.2209C10.4802 14.2191 10.309 14.1807 10.1513 14.1084C10.0597 14.0656 9.97796 14.0044 9.91127 13.9284M11.49 15.9309L11.5575 15.9234M12.6938 15.8334L12.7613 15.8297L12.825 15.8034L12.87 15.7734L12.9338 15.6984L12.945 15.6759L12.9563 15.6122V15.5822M14.7188 10.4559C14.745 10.3584 14.7113 10.2534 14.6138 10.2572M9.66377 12.0009C9.64322 12.0738 9.59648 12.1366 9.53252 12.1772M9.66752 10.4259C9.65702 10.4591 9.63956 10.4897 9.61628 10.5155C9.593 10.5414 9.56444 10.562 9.53252 10.5759C9.46127 10.6059 9.38252 10.5759 9.33752 10.5459" stroke="#703D29" stroke-width="0.075"/>
<path d="M9.14301 10.7894C9.19926 10.8194 9.25925 10.7744 9.248 10.6994C9.24272 10.6777 9.2309 10.6581 9.21413 10.6434C9.19736 10.6286 9.17645 10.6194 9.15425 10.6169" stroke="#703D29" stroke-width="0.075" stroke-linecap="round"/>
<path d="M9.38314 13.947C9.39439 13.9583 9.39814 13.9733 9.41314 13.977C9.43939 13.9845 9.45814 13.992 9.48439 13.9583C9.51439 13.917 9.49564 13.8533 9.46564 13.812C9.43804 13.7835 9.4021 13.7646 9.36301 13.7579C9.32392 13.7511 9.28372 13.7569 9.24814 13.7745C9.21814 13.7933 9.18439 13.812 9.15064 13.857L9.10939 13.917C9.08314 13.9583 9.07189 13.992 9.06814 14.007C8.99314 14.2283 9.08314 14.457 9.22189 14.5958" stroke="#703D29" stroke-width="0.075"/>
<path d="M12.758 15.4919L12.7842 15.5219L12.7917 15.5557C12.803 15.6119 12.7655 15.6457 12.7167 15.6532C12.6567 15.6607 12.6117 15.6232 12.593 15.5782" stroke="#703D29" stroke-width="0.075" stroke-linecap="round"/>
<path d="M14.6032 9.00439C14.667 9.0139 14.7254 9.04531 14.7685 9.09319C14.8116 9.1411 14.8367 9.20251 14.8395 9.26689C14.8395 9.43189 14.7832 9.49189 14.697 9.61189C14.6032 9.73939 14.2957 9.97189 14.2957 10.2381C14.2957 10.3994 14.3407 10.5006 14.457 10.5531C14.532 10.5906 14.6182 10.5531 14.6595 10.5156C14.757 10.4256 14.7157 10.2719 14.6145 10.2531C14.4945 10.2306 14.4682 10.4256 14.5882 10.4144M15.2595 13.0019C15.2534 12.9704 15.2367 12.942 15.2121 12.9215C15.1875 12.901 15.1565 12.8897 15.1245 12.8894C15.0877 12.8894 15.0524 12.904 15.0264 12.93C15.0004 12.9561 14.9857 12.9913 14.9857 13.0281C14.9857 13.0656 15.0007 13.1031 15.0232 13.1256" stroke="#703D29" stroke-width="0.075"/>
<path d="M14.3965 10.5161C14.3643 10.5415 14.3384 10.574 14.3208 10.6111C14.3032 10.6482 14.2945 10.6889 14.2952 10.7299C14.2952 10.8461 14.3927 11.0374 14.6327 11.1049C14.7227 11.1311 14.8127 11.1274 14.8652 11.0936M9.01523 10.7074C8.94263 10.7305 8.87945 10.7766 8.83523 10.8386C8.74589 10.9802 8.71622 11.1515 8.75273 11.3149C8.76767 11.3898 8.79695 11.4611 8.83898 11.5249C8.84999 11.5411 8.86253 11.5561 8.87648 11.5699L8.92148 11.6074M11.3215 15.0574C11.5052 15.1361 11.6365 15.1961 11.749 15.3761C11.7794 15.4325 11.7949 15.4958 11.794 15.5599C11.794 15.6611 11.7565 15.7736 11.6702 15.8449C11.6363 15.8749 11.5963 15.8972 11.5529 15.9101C11.5095 15.9231 11.4638 15.9264 11.419 15.9199C11.3477 15.9124 11.2802 15.8599 11.269 15.8224M9.52523 11.6036C9.62648 11.6861 9.67148 11.7611 9.67148 11.8849C9.67376 11.9408 9.66104 11.9964 9.63467 12.0459C9.6083 12.0953 9.56924 12.1368 9.52148 12.1661" stroke="#703D29" stroke-width="0.075"/>
<path d="M9.43127 12.0642C9.58127 12.2555 9.66752 12.368 9.67127 12.593C9.67502 12.8067 9.60752 12.953 9.48377 13.1067" stroke="#703D29" stroke-width="0.075" stroke-linecap="round"/>
<path d="M12.368 9.54866C12.3954 9.5282 12.4152 9.49916 12.4242 9.46616C12.443 9.40991 12.443 9.36116 12.4167 9.31616C12.4542 9.36866 12.4542 9.40991 12.443 9.46616C12.4392 9.50366 12.413 9.52241 12.383 9.55241M14.3142 12.7812V13.3887L14.3105 13.4824C14.3072 13.5038 14.3035 13.525 14.2992 13.5462" stroke="#703D29" stroke-width="0.075"/>
<path d="M14.303 12.7241V13.4703L14.2842 13.5678M14.303 11.9553V12.5028M14.3142 12.0003V12.4428M14.3142 11.4378V11.7678M14.303 11.3966V11.8091M14.3142 11.0966V11.2278M14.303 11.0703V11.2578M14.2355 13.7028L14.2205 13.7291C14.1832 13.8094 14.131 13.8819 14.0667 13.9428C14.0028 14.0059 13.9278 14.0568 13.8455 14.0928C13.7685 14.1316 13.6864 14.1593 13.6017 14.1753C13.5005 14.1978 13.4442 14.2053 13.343 14.2091C13.2492 14.2091 13.1967 14.2091 13.1067 14.2016C13.0055 14.1941 12.953 14.1828 12.8517 14.1716C12.7692 14.1641 12.7242 14.1603 12.6417 14.1603C12.5592 14.1603 12.5105 14.1603 12.428 14.1753C12.361 14.1848 12.2955 14.2024 12.233 14.2278C12.1317 14.2691 12.0192 14.3403 11.993 14.3703C11.9705 14.3403 11.8542 14.2691 11.7567 14.2278C11.6941 14.2024 11.6286 14.1848 11.5617 14.1753C11.4792 14.1603 11.4305 14.1603 11.3442 14.1603C11.2617 14.1603 11.2167 14.1641 11.1342 14.1716C11.0367 14.1828 10.9842 14.1941 10.883 14.2016C10.7892 14.2091 10.7367 14.2128 10.6467 14.2091C10.4719 14.2077 10.2994 14.1694 10.1405 14.0966C10.0592 14.0591 9.98543 14.007 9.92297 13.9428C9.88877 13.9105 9.85742 13.8754 9.82922 13.8378M9.75422 13.7178C9.76037 13.7693 9.75587 13.8215 9.74105 13.8711C9.7262 13.9208 9.70133 13.9669 9.66797 14.0066C9.63797 14.0403 9.57047 14.1041 9.48047 14.1041C9.34172 14.1041 9.30047 14.0103 9.29297 13.9841" stroke="#703D29" stroke-width="0.075"/>
<path d="M9.58549 13.658C9.61174 13.6842 9.63424 13.7142 9.65674 13.7517C9.69424 13.8192 9.67924 13.9317 9.65299 13.9842C9.64951 13.9894 9.64576 13.9944 9.64174 13.9992M8.88049 14.6742C8.96674 14.7642 9.09424 14.8617 9.28924 14.9405C9.55549 15.053 9.96799 15.0755 10.253 15.0905C10.628 15.1017 10.9767 15.1167 11.1905 15.353M11.8392 15.203C11.9081 15.2558 11.9602 15.3274 11.9892 15.4092M11.7155 15.8405C11.7073 15.8497 11.6985 15.8585 11.6892 15.8667C11.6558 15.8962 11.6163 15.9182 11.5737 15.9311C11.5309 15.944 11.486 15.9477 11.4417 15.9417C11.3667 15.9342 11.2992 15.8817 11.2805 15.8442M11.078 15.7355L11.0892 15.7505C11.1391 15.8039 11.2076 15.8361 11.2805 15.8405M12.293 15.8405C12.2198 15.942 12.1198 16.0212 12.0042 16.0692C11.8897 16.0211 11.7909 15.9419 11.7192 15.8405L11.708 15.8217M12.293 15.8367L12.3192 15.863C12.3531 15.893 12.3932 15.9152 12.4366 15.9282C12.48 15.9411 12.5257 15.9445 12.5705 15.938C12.6009 15.9344 12.6301 15.9242 12.6561 15.908C12.682 15.8918 12.704 15.87 12.7205 15.8442L12.7392 15.818" stroke="#703D29" stroke-width="0.075"/>
<path d="M12.7127 15.8223L12.6865 15.8673L12.6452 15.9048L12.5815 15.931H12.5215" stroke="#703D29" stroke-width="0.075"/>
<path d="M12.8623 15.3987C12.9008 15.427 12.9317 15.4644 12.9523 15.5075C12.9635 15.5338 12.9673 15.5637 12.971 15.5937C12.9725 15.6224 12.9683 15.6511 12.9586 15.6781C12.949 15.7051 12.9341 15.73 12.9148 15.7513C12.8889 15.7792 12.8576 15.8016 12.8228 15.817C12.788 15.8325 12.7504 15.8407 12.7123 15.8412C12.7073 15.8414 12.7023 15.8414 12.6973 15.8412M12.7048 15.8337C12.6683 15.8348 12.632 15.8279 12.5983 15.8137C12.5647 15.7995 12.5345 15.7782 12.5098 15.7513M14.8985 13.205C14.8254 13.1357 14.7645 13.0546 14.7185 12.965C14.6901 12.9117 14.6687 12.855 14.6548 12.7962C14.6428 12.7561 14.6365 12.7144 14.636 12.6725C14.6319 12.4679 14.6922 12.2672 14.8085 12.0987C14.8348 12.0687 14.861 12.0313 14.8873 12.0163M14.8385 9.17C14.9323 9.1775 15.0185 9.2825 15.0185 9.38375C15.0185 9.52625 14.9698 9.59 14.8535 9.7325C14.756 9.8525 14.456 10.07 14.4673 10.2762C14.4673 10.3137 14.486 10.3512 14.5085 10.3812M14.3885 10.5125C14.4103 10.5342 14.4356 10.552 14.4635 10.565C14.4895 10.5753 14.5175 10.5796 14.5454 10.5776C14.5733 10.5757 14.6004 10.5675 14.6248 10.5538M13.8373 8.9375C13.8736 8.96135 13.9023 8.99522 13.9198 9.035C13.9873 9.20375 13.8373 9.33125 13.6948 9.425C13.6009 9.48779 13.4948 9.52997 13.3835 9.54875" stroke="#703D29" stroke-width="0.075"/>
<path d="M13.673 9.25995C13.6507 9.25932 13.6289 9.25398 13.6088 9.24429C13.5888 9.2346 13.571 9.22077 13.5567 9.2037C13.5458 9.1929 13.5369 9.18018 13.5305 9.1662M12.968 9.34995C12.9509 9.34011 12.9357 9.32742 12.923 9.31245C12.8855 9.27495 12.8667 9.2262 12.893 9.14745C12.9155 9.0762 13.0317 8.87745 13.0355 8.7387C13.043 8.5287 12.9605 8.4012 12.8367 8.3562" stroke="#703D29" stroke-width="0.075"/>
<path d="M13.0244 8.69385L13.0207 8.76885L12.9982 8.85135L12.9607 8.96385L12.9232 9.0351L12.8932 9.10635L12.8782 9.1551L12.8707 9.1926L12.8744 9.22635M14.2994 13.9626L14.3219 13.9926C14.3482 14.0301 14.4419 14.1051 14.5282 14.1051C14.6669 14.1051 14.7007 14.0076 14.7044 13.9851C14.7232 13.8763 14.6857 13.8501 14.6294 13.8163C14.6294 13.8163 14.5994 13.8013 14.5582 13.8088" stroke="#703D29" stroke-width="0.075" stroke-linecap="round"/>
<path d="M8.88724 13.4892C8.84185 13.5019 8.79388 13.5019 8.74849 13.4892C8.63974 13.4555 8.55349 13.3542 8.59849 13.2267M9.10099 12.0342C9.11224 12.0455 9.11599 12.0605 9.11599 12.0717C9.13099 12.2142 9.01099 12.2517 8.92849 12.2292C8.88214 12.2144 8.84236 12.1839 8.81599 12.143C8.79991 12.117 8.79088 12.0873 8.78974 12.0567M9.61474 11.1717C9.63724 11.1905 9.65224 11.2092 9.66349 11.2355M9.62224 10.9167C9.64099 10.9317 9.65599 10.9505 9.66349 10.9655" stroke="#703D29" stroke-width="0.075"/>
<path d="M9.67125 11.0936C9.65652 11.1268 9.63624 11.1572 9.61125 11.1836C9.5691 11.2294 9.51816 11.2663 9.46146 11.292C9.40479 11.3178 9.3435 11.3319 9.28125 11.3336C9.20625 11.3336 9.13125 11.3186 9.05625 11.2698C8.98176 11.221 8.92824 11.1461 8.90625 11.0598" stroke="#703D29" stroke-width="0.075" stroke-linecap="round"/>
<path d="M9.57776 10.5232C9.61874 10.5567 9.64985 10.6008 9.66776 10.6507" stroke="#703D29" stroke-width="0.075"/>
<path d="M9.66729 10.8196C9.63354 10.9321 9.53604 11.0671 9.34479 11.1158C9.25479 11.1383 9.13479 11.1083 9.09729 11.0783" stroke="#703D29" stroke-width="0.075" stroke-linecap="round"/>
<path d="M9 10.7971C9.01125 10.8946 9.075 10.9696 9.2025 10.9696C9.37875 10.9733 9.4875 10.7183 9.33 10.5383" stroke="#703D29" stroke-width="0.075"/>
<path d="M8.60272 11.6556C8.62897 11.6893 8.65897 11.7193 8.69272 11.7456C8.75842 11.8018 8.83501 11.844 8.91772 11.8693M9.11272 11.8881C9.27022 11.8693 9.36022 11.7493 9.33772 11.6143C9.32647 11.5093 9.23272 11.4268 9.16522 11.4231" stroke="#703D29" stroke-width="0.075" stroke-linecap="round"/>
<path d="M9.36798 10.2537C9.43923 10.2537 9.48048 10.3137 9.47673 10.3662" stroke="#703D29" stroke-width="0.075"/>
<path d="M9.35272 9.3125C9.38779 9.40568 9.45406 9.48386 9.54022 9.53375M14.9477 10.6962C15.0115 10.7825 14.9702 10.9587 14.7977 10.9587C14.7639 10.9591 14.7305 10.9507 14.7009 10.9342C14.6713 10.9178 14.6466 10.8939 14.629 10.865" stroke="#703D29" stroke-width="0.075" stroke-linecap="round"/>
<path d="M14.3145 9.54102V10.1373" stroke="#703D29" stroke-width="0.075"/>
<path d="M9.14274 10.7857C9.19524 10.8232 9.26649 10.7595 9.23649 10.6882C9.21774 10.6432 9.15399 10.5907 9.06024 10.6545C8.95524 10.7257 8.98524 10.947 9.18024 10.9507C9.35649 10.9507 9.46524 10.6957 9.30774 10.5157C9.15774 10.3432 8.88399 10.3807 8.70774 10.5232C8.57196 10.6358 8.47707 10.79 8.43774 10.962C8.41398 11.0758 8.41398 11.1932 8.43774 11.307C8.45661 11.4072 8.4948 11.5027 8.55024 11.5882L8.59899 11.652C8.62899 11.682 8.63649 11.697 8.67399 11.727C8.78163 11.8211 8.92107 11.8707 9.06399 11.8657C9.23649 11.8582 9.33774 11.7382 9.31899 11.592C9.30399 11.4495 9.16149 11.3782 9.06774 11.4457C9.00399 11.4907 8.98149 11.6295 9.09399 11.6632C9.15399 11.682 9.21024 11.5995 9.16899 11.5507M14.0252 8.85824C14.1265 8.80574 14.2052 8.81324 14.2615 8.89574C14.3155 8.97464 14.337 9.07136 14.3215 9.16574C14.307 9.25229 14.2601 9.33005 14.1902 9.38324" stroke="#703D29" stroke-width="0.075" stroke-linecap="round"/>
<path d="M14.2687 8.89981C14.385 8.82481 14.5125 8.85856 14.58 8.95981C14.6287 9.03481 14.6437 9.09481 14.64 9.18856C14.6364 9.25942 14.6149 9.32824 14.5776 9.38857C14.5402 9.4489 14.4881 9.49879 14.4262 9.53356" stroke="#703D29" stroke-width="0.075" stroke-linecap="round"/>
<path d="M14.8122 9.16968C14.9097 9.17718 14.9847 9.26343 14.9847 9.36093C14.9847 9.50343 14.9472 9.56718 14.8347 9.70968C14.7334 9.83343 14.4372 10.0472 14.4447 10.2572C14.4447 10.3359 14.5122 10.4072 14.5684 10.4147" stroke="#703D29" stroke-width="0.075"/>
<path d="M14.8273 10.7856C14.7711 10.8231 14.7036 10.7631 14.7336 10.6956C14.7523 10.6506 14.8161 10.5906 14.9098 10.6543C15.0111 10.7256 14.9848 10.9468 14.7861 10.9506C14.6098 10.9506 14.4861 10.7031 14.6586 10.5156C14.8086 10.3431 15.0973 10.3768 15.2773 10.5193C15.3523 10.5793 15.5061 10.7443 15.5398 10.9693C15.5773 11.2318 15.5736 11.5543 15.2998 11.7568C15.1873 11.8356 15.0373 11.8731 14.9023 11.8693C14.7298 11.8618 14.6286 11.7381 14.6473 11.5918C14.6661 11.4493 14.7973 11.3893 14.8986 11.4456C15.0036 11.5018 14.9848 11.6481 14.8723 11.6631C14.8086 11.6706 14.7561 11.5993 14.7973 11.5506" stroke="#703D29" stroke-width="0.075" stroke-linecap="round"/>
<path d="M14.734 10.696C14.764 10.5647 14.8728 10.5535 14.9665 10.5535C15.2103 10.5572 15.3828 10.8535 15.3865 11.1347C15.3865 11.491 15.2365 11.7047 14.974 11.716C14.9028 11.716 14.7865 11.686 14.7865 11.6035" stroke="#703D29" stroke-width="0.075"/>
<path d="M14.888 10.6355C15.1468 10.6955 15.2368 10.928 15.2368 11.153C15.2368 11.3367 15.218 11.588 14.8618 11.6742" stroke="#703D29" stroke-width="0.075" stroke-linecap="square"/>
<path d="M15.3152 13.1483C15.3193 13.1229 15.3167 13.0968 15.3076 13.0728C15.2986 13.0488 15.2833 13.0275 15.2634 13.0113C15.2435 12.995 15.2196 12.9843 15.1942 12.9801C15.1688 12.976 15.1428 12.9787 15.1188 12.9879C15.0948 12.997 15.0735 13.0123 15.0573 13.0323C15.0411 13.0522 15.0305 13.0761 15.0264 13.1015C15.0224 13.1269 15.0251 13.1529 15.0343 13.1769C15.0435 13.2009 15.0589 13.2221 15.0789 13.2383" stroke="#703D29" stroke-width="0.075"/>
<path d="M14.79 12.9265C14.8425 13.0015 14.9025 13.0803 15.0262 13.1515M14.9775 13.5453C14.8575 13.4628 14.6212 13.3578 14.415 13.4628C14.3774 13.4771 14.3432 13.4992 14.3148 13.5276C14.2864 13.556 14.2643 13.5902 14.25 13.6278C14.2302 13.688 14.226 13.7523 14.2378 13.8146C14.2496 13.8769 14.277 13.9352 14.3175 13.984C14.3512 14.0215 14.4187 14.0815 14.505 14.0853C14.6475 14.0853 14.6812 13.9878 14.685 13.9653C14.7 13.8603 14.64 13.819 14.61 13.8115C14.5837 13.8003 14.505 13.804 14.49 13.8603C14.4825 13.879 14.4825 13.909 14.4975 13.9353" stroke="#703D29" stroke-width="0.075" stroke-linecap="round"/>
<path d="M12.7687 15.5142C12.8062 15.5967 12.7612 15.6342 12.7087 15.6417C12.6262 15.653 12.585 15.5892 12.5812 15.5292C12.5797 15.5069 12.5827 15.4846 12.5901 15.4635C12.5975 15.4424 12.609 15.4231 12.6241 15.4066C12.6392 15.3901 12.6575 15.3768 12.6778 15.3676C12.6981 15.3584 12.7202 15.3534 12.7425 15.353C12.8287 15.353 12.8962 15.4092 12.93 15.4842C12.9412 15.5105 12.9487 15.5405 12.9487 15.5742C12.9518 15.6303 12.9329 15.6854 12.8962 15.728C12.8707 15.7566 12.8395 15.7797 12.8047 15.7958C12.7698 15.8119 12.7321 15.8207 12.6937 15.8217C12.5362 15.8255 12.4125 15.6792 12.4125 15.5292C12.4125 15.2405 12.84 15.0792 13.0125 15.0417C13.2323 14.9877 13.4574 14.9575 13.6837 14.9517C13.815 14.948 13.9162 14.9517 14.0625 14.933C14.1937 14.9217 14.265 14.9142 14.4 14.8842C14.5759 14.8473 14.7389 14.7645 14.8725 14.6442C14.9812 14.543 15.0412 14.4755 15.0937 14.3367C15.1229 14.2513 15.1337 14.1607 15.1253 14.0709C15.1169 13.981 15.0895 13.894 15.045 13.8155C15.0037 13.7468 14.9476 13.6883 14.8808 13.6441C14.8139 13.6 14.7381 13.5714 14.6587 13.5605C14.52 13.5417 14.3962 13.6017 14.3212 13.7405C14.2837 13.808 14.2987 13.9205 14.325 13.973C14.3434 14.0051 14.3695 14.0322 14.4009 14.0518C14.4323 14.0714 14.468 14.083 14.505 14.0855C14.6475 14.0855 14.6812 13.988 14.685 13.9655C14.7 13.8605 14.64 13.8192 14.61 13.808C14.5837 13.8005 14.505 13.8042 14.49 13.8605C14.4825 13.8792 14.4825 13.9092 14.4975 13.9355" stroke="#703D29" stroke-width="0.075" stroke-linecap="round"/>
<path d="M12.6448 15.0571C12.4648 15.1359 12.3298 15.1959 12.2173 15.3759C12.1867 15.4322 12.1712 15.4955 12.1723 15.5596C12.1723 15.6609 12.2135 15.7734 12.296 15.8446C12.3299 15.8747 12.37 15.8969 12.4134 15.9099C12.4568 15.9228 12.5025 15.9262 12.5473 15.9196C12.6223 15.9121 12.686 15.8596 12.6973 15.8221" stroke="#703D29" stroke-width="0.075" stroke-linecap="round"/>
<path d="M14.4411 11.6035C14.3548 11.6335 14.2948 11.761 14.2948 11.8848C14.2925 11.9407 14.3053 11.9963 14.3316 12.0458C14.358 12.0952 14.3971 12.1367 14.4448 12.166" stroke="#703D29" stroke-width="0.075"/>
<path d="M14.5357 12.0642C14.3857 12.2555 14.2995 12.368 14.2957 12.593C14.2957 12.8067 14.3595 12.953 14.487 13.1067" stroke="#703D29" stroke-width="0.075" stroke-linecap="round"/>
<path d="M13.7215 8.89956L13.7327 8.88081C13.7965 8.79081 13.909 8.76456 13.9915 8.82456C14.089 8.89956 14.1152 9.02706 14.089 9.16206C14.0702 9.24456 14.014 9.31581 13.939 9.36831" stroke="#703D29" stroke-width="0.075"/>
<path d="M9.94156 8.85402C9.84406 8.80902 9.76531 8.81652 9.70531 8.89152C9.67615 8.92938 9.65566 8.97321 9.64528 9.01986C9.6349 9.06651 9.63493 9.11487 9.64531 9.16152C9.66781 9.26277 9.69781 9.30402 9.77656 9.37902" stroke="#703D29" stroke-width="0.075" stroke-linecap="round"/>
<path d="M9.69745 8.89914C9.67339 8.88174 9.646 8.86947 9.61702 8.86305C9.58801 8.85663 9.55801 8.85621 9.52885 8.86185C9.49969 8.86746 9.472 8.87901 9.44746 8.89575C9.42292 8.91246 9.40207 8.93406 9.3862 8.95914C9.33958 9.0258 9.31831 9.10695 9.3262 9.18789C9.3337 9.34539 9.4312 9.47289 9.5437 9.53289" stroke="#703D29" stroke-width="0.075"/>
<path d="M9.36447 9.00439C9.30345 9.01159 9.24708 9.0406 9.20574 9.08608C9.1644 9.13156 9.14088 9.19042 9.13947 9.25189C9.13947 9.42064 9.17697 9.48814 9.27072 9.61189C9.36447 9.73939 9.67197 9.97189 9.67197 10.2381C9.67197 10.3994 9.62697 10.5006 9.51072 10.5531C9.43572 10.5906 9.34947 10.5531 9.30822 10.5156C9.21072 10.4256 9.25197 10.2719 9.35322 10.2531C9.47697 10.2306 9.49947 10.4256 9.37947 10.4144" stroke="#703D29" stroke-width="0.075"/>
<path d="M9.15002 9.16968C9.05627 9.17718 8.96252 9.25593 8.96252 9.35718C8.96252 9.49968 9.01877 9.56718 9.13502 9.70968C9.23252 9.83343 9.51377 10.0472 9.50627 10.2534C9.50627 10.3284 9.45002 10.4259 9.39752 10.4147" stroke="#703D29" stroke-width="0.075"/>
<path d="M8.92564 12.0534C8.97439 11.9446 9.09064 11.9934 9.09814 12.0534C9.11314 12.1921 8.99314 12.2334 8.90689 12.2109C8.88694 12.2055 8.86831 12.1961 8.85217 12.1832C8.83606 12.1703 8.82277 12.1542 8.81314 12.1359C8.80153 12.1149 8.79421 12.0919 8.79163 12.068C8.78908 12.0442 8.79127 12.0201 8.79814 11.9971C8.80552 11.9752 8.81695 11.9548 8.83189 11.9371C8.84422 11.9197 8.85943 11.9045 8.87689 11.8921C8.91439 11.8696 8.94814 11.8696 9.00439 11.8696C9.21064 11.8696 9.39439 12.1134 9.45439 12.3721C9.47689 12.4546 9.50314 12.6459 9.46564 12.8221C9.43555 12.9814 9.36001 13.1286 9.24814 13.2459C9.14119 13.3458 9.01297 13.4202 8.87314 13.4634C8.82574 13.4785 8.77501 13.4798 8.72689 13.4671C8.62189 13.4334 8.55439 13.3359 8.60689 13.2046C8.65189 13.1071 8.80939 13.0546 8.88064 13.1821C8.88814 13.1934 8.89564 13.2159 8.89564 13.2384C8.89564 13.2721 8.88064 13.3134 8.85814 13.3284C8.80564 13.3621 8.71939 13.3509 8.72314 13.2534" stroke="#703D29" stroke-width="0.075" stroke-linecap="round"/>
<path d="M8.7672 13.339C8.8047 13.354 8.8272 13.3503 8.87595 13.3315L8.94345 13.294C9.04095 13.2378 9.15345 13.1515 9.25845 12.9528C9.28683 12.8995 9.30828 12.8428 9.3222 12.784C9.33345 12.7465 9.34095 12.7015 9.3447 12.6603C9.3477 12.4547 9.28461 12.2536 9.1647 12.0865C9.12345 12.0265 9.0897 11.9928 9.0072 11.989M8.65095 13.1515C8.64618 13.1261 8.64822 13.0999 8.65686 13.0756C8.66547 13.0513 8.68041 13.0297 8.70009 13.0129C8.7198 12.9962 8.74356 12.985 8.769 12.9805C8.79441 12.976 8.82057 12.9783 8.84484 12.9871C8.86911 12.996 8.89059 13.0111 8.90709 13.0309C8.92362 13.0508 8.9346 13.0747 8.93889 13.1001C8.94321 13.1256 8.94069 13.1517 8.9316 13.1759C8.92251 13.2001 8.90721 13.2214 8.8872 13.2378" stroke="#703D29" stroke-width="0.075"/>
<path d="M8.70819 13.0017C8.71437 12.9696 8.73168 12.9407 8.75706 12.9201C8.78244 12.8995 8.81427 12.8886 8.84694 12.8892C8.88309 12.8901 8.91744 12.9052 8.94264 12.9311C8.96787 12.957 8.98197 12.9918 8.98194 13.0279C8.98224 13.064 8.96883 13.0988 8.94444 13.1254" stroke="#703D29" stroke-width="0.075"/>
<path d="M8.97772 12.998C9.0499 12.9438 9.10849 12.8736 9.14884 12.7929C9.18922 12.7122 9.21022 12.6232 9.21022 12.533C9.21022 12.3792 9.15022 12.218 9.07522 12.158" stroke="#703D29" stroke-width="0.075"/>
<path d="M9.1765 12.9265C9.11929 13.0213 9.03772 13.099 8.94025 13.1515" stroke="#703D29" stroke-width="0.075" stroke-linecap="round"/>
<path d="M9.54799 13.4634C9.51049 13.3809 9.44299 13.3434 9.33049 13.3322C9.21799 13.3209 9.12424 13.3509 9.02299 13.4034C8.9014 13.4596 8.79856 13.5496 8.72674 13.6626C8.65492 13.7756 8.61718 13.907 8.61799 14.0409C8.61946 14.1634 8.64496 14.2845 8.69299 14.3972C8.72674 14.4572 8.80549 14.7347 9.26674 14.9222C9.57874 15.0194 9.9037 15.0687 10.2305 15.0684C10.6205 15.0834 10.9805 15.0984 11.1905 15.3534" stroke="#703D29" stroke-width="0.075"/>
<path d="M8.98944 13.5453C9.11319 13.4628 9.34569 13.3578 9.55569 13.4628C9.59214 13.4783 9.62514 13.5008 9.65283 13.5292C9.68049 13.5575 9.7023 13.591 9.71694 13.6278C9.73674 13.688 9.74094 13.7523 9.72912 13.8146C9.71733 13.8769 9.68991 13.9352 9.64944 13.984C9.61569 14.0215 9.54819 14.0815 9.46194 14.0853C9.31944 14.0853 9.28569 13.9878 9.28194 13.9653C9.26694 13.8603 9.32694 13.819 9.35694 13.8078C9.38319 13.8003 9.46194 13.804 9.47694 13.8603C9.48444 13.879 9.48444 13.909 9.46944 13.9353" stroke="#703D29" stroke-width="0.075" stroke-linecap="round"/>
<path d="M9.47618 13.9128C9.48743 13.8753 9.48368 13.8303 9.44618 13.789C9.41768 13.7595 9.38039 13.7398 9.33986 13.7331C9.29936 13.7263 9.25772 13.7328 9.22118 13.7515C9.19493 13.7703 9.16118 13.789 9.13118 13.834C9.11618 13.849 9.09368 13.8753 9.08618 13.894C9.05993 13.9353 9.04868 13.969 9.04868 13.9878C8.95493 14.2503 9.10493 14.5278 9.29243 14.6478C9.45743 14.7528 9.62243 14.7828 9.83243 14.7978C9.92618 14.809 9.98243 14.809 10.0762 14.8165H10.4362C10.5261 14.8119 10.6162 14.8119 10.7062 14.8165C10.8187 14.8278 10.8974 14.8315 10.9912 14.8465C11.0512 14.854 11.1224 14.8653 11.1937 14.884C11.2162 14.884 11.2387 14.8915 11.2612 14.899L11.3062 14.9103C11.4412 14.9515 11.5687 15.0003 11.6737 15.0678C11.7037 15.0865 11.7412 15.1053 11.7674 15.1315L11.8162 15.1765C11.8912 15.2515 11.9662 15.3265 11.9812 15.4278V15.4878C11.9812 15.5553 11.9287 15.649 11.7824 15.6753" stroke="#703D29" stroke-width="0.075"/>
<path d="M11.1976 15.5142C11.1601 15.5967 11.2051 15.6342 11.2576 15.6417C11.3401 15.653 11.3814 15.5892 11.3889 15.5292C11.3905 15.5066 11.3873 15.484 11.3797 15.4626C11.3721 15.4413 11.3602 15.4217 11.3447 15.4052C11.3293 15.3887 11.3105 15.3755 11.2897 15.3665C11.269 15.3575 11.2465 15.3529 11.2239 15.353C11.1832 15.3539 11.1436 15.3668 11.1103 15.3902C11.0769 15.4136 11.0512 15.4463 11.0364 15.4842C11.0248 15.5129 11.0185 15.5434 11.0176 15.5742C11.0146 15.6303 11.0335 15.6854 11.0701 15.728C11.0957 15.7566 11.1269 15.7797 11.1617 15.7958C11.1965 15.8119 11.2343 15.8207 11.2726 15.8217C11.4301 15.8255 11.5539 15.6792 11.5539 15.5292C11.5539 15.2405 11.1264 15.0792 10.9539 15.0417C10.734 14.9877 10.509 14.9575 10.2826 14.9517C10.1514 14.948 10.0501 14.9517 9.90389 14.933C9.77264 14.9217 9.70139 14.9142 9.56639 14.8842C9.39182 14.8466 9.23021 14.7639 9.09764 14.6442C8.97281 14.5518 8.88599 14.4169 8.85353 14.2651C8.8211 14.1131 8.84522 13.9546 8.92139 13.8192C8.96225 13.7499 9.01817 13.6906 9.08501 13.6458C9.15188 13.601 9.22799 13.5718 9.30764 13.5605C9.45014 13.5417 9.57014 13.6017 9.64514 13.7405C9.68264 13.808 9.66764 13.9205 9.64139 13.973C9.62297 14.0051 9.5969 14.0322 9.56549 14.0518C9.53411 14.0714 9.49835 14.083 9.46139 14.0855C9.31889 14.0855 9.28514 13.988 9.28139 13.9655C9.26639 13.8605 9.32639 13.8192 9.35639 13.808C9.38264 13.8005 9.46139 13.8042 9.47639 13.8605C9.48389 13.8792 9.48389 13.9092 9.46889 13.9355" stroke="#703D29" stroke-width="0.075"/>
<path d="M10.2487 8.89956L10.2337 8.88081C10.17 8.79081 10.0575 8.76456 9.97499 8.82456C9.87749 8.89956 9.85124 9.02706 9.88124 9.16206C9.90236 9.24777 9.95621 9.32181 10.0312 9.36831" stroke="#703D29" stroke-width="0.075" stroke-linecap="round"/>
<path d="M13.7552 9.18444C13.6052 9.34944 13.4515 9.40194 13.2265 9.40944C13.1515 9.40944 13.0202 9.38694 12.9415 9.33069C12.8927 9.29319 12.8365 9.23319 12.8702 9.12444C12.8927 9.05319 13.009 8.85444 13.0127 8.71569C13.024 8.50569 12.9415 8.38944 12.814 8.34444C12.5815 8.26194 12.3265 8.49444 12.1765 8.54694C12.0977 8.57319 12.0565 8.57694 11.9852 8.57694C11.9102 8.57694 11.8727 8.57319 11.7902 8.54694C11.6402 8.49444 11.389 8.26194 11.1527 8.34444C11.0252 8.38944 10.9465 8.50569 10.954 8.71944C10.9577 8.85444 11.074 9.05694 11.0965 9.12444C11.134 9.23319 11.0777 9.29319 11.0252 9.33069C10.9502 9.38694 10.8115 9.40944 10.744 9.40569C10.519 9.40194 10.3652 9.34944 10.2152 9.18444" stroke="#703D29" stroke-width="0.075"/>
<path d="M11.1492 14.989C11.1792 15.0003 11.1567 14.9815 11.348 15.064C11.5226 15.1246 11.6719 15.2422 11.7717 15.3978C11.8156 15.4819 11.8276 15.5792 11.8055 15.6715" stroke="#703D29" stroke-width="0.075" stroke-linecap="round"/>
<path d="M11.1644 15.7998C11.2016 15.8193 11.2425 15.8308 11.2844 15.8336C11.4419 15.8373 11.5657 15.6911 11.5657 15.5411C11.5657 15.4361 11.5094 15.3461 11.4307 15.2786" stroke="#703D29" stroke-width="0.075"/>
<path d="M11.1982 15.5141C11.1607 15.6003 11.2132 15.6453 11.2657 15.6528C11.3482 15.6603 11.3932 15.6003 11.4007 15.5403C11.403 15.509 11.3965 15.4776 11.3819 15.4498C11.3673 15.422 11.3453 15.3988 11.3182 15.3828" stroke="#703D29" stroke-width="0.075" stroke-linecap="round"/>
<path d="M14.6292 9.00439C14.7492 9.00439 14.8542 9.13939 14.8542 9.27439C14.8542 9.43564 14.7717 9.53314 14.708 9.60439C14.6592 9.66439 14.6067 9.71689 14.543 9.78064" stroke="#703D29" stroke-width="0.075"/>
<path d="M14.4862 8.87694C14.5271 8.89935 14.5628 8.93001 14.5913 8.96694C14.64 9.04194 14.655 9.10569 14.6513 9.19944C14.6438 9.35694 14.5313 9.46569 14.4263 9.53694M14.25 8.87694L14.2725 8.90319C14.3438 8.98569 14.3475 9.10569 14.3325 9.17319C14.3241 9.21495 14.3071 9.25455 14.2825 9.28941C14.258 9.32427 14.2265 9.35364 14.19 9.37569M14.0025 8.83569C14.1 8.91069 14.13 9.03819 14.0962 9.17319C14.0737 9.26694 14.0138 9.32319 13.9388 9.36819M14.355 10.9094C14.3662 10.9469 14.3887 10.9582 14.4112 10.9844C14.4756 11.0482 14.5559 11.0935 14.6438 11.1157C14.7338 11.1419 14.8162 11.1232 14.88 11.0819M8.7675 13.1069C8.8125 13.1069 8.86125 13.1407 8.89125 13.1932C8.895 13.2007 8.90625 13.2232 8.90625 13.2494C8.90625 13.2832 8.89125 13.3169 8.86875 13.3319C8.8125 13.3694 8.71875 13.3507 8.71875 13.2569" stroke="#703D29" stroke-width="0.075" stroke-linecap="round"/>
<path d="M9.0565 11.873C9.244 11.9105 9.42025 12.1318 9.4765 12.3718C9.499 12.458 9.52525 12.6455 9.48775 12.8218C9.45622 12.9832 9.37798 13.1319 9.26275 13.2493C9.2386 13.2752 9.21223 13.2991 9.184 13.3205L9.1465 13.3468M8.8465 12.893C8.9215 12.893 8.989 12.9643 8.989 13.043C8.9893 13.0791 8.97589 13.114 8.9515 13.1405" stroke="#703D29" stroke-width="0.075"/>
<path d="M8.79724 12.9758C8.87599 12.9758 8.95099 13.0508 8.95099 13.1333C8.95102 13.1548 8.94634 13.176 8.93728 13.1954C8.92819 13.2149 8.91496 13.2321 8.89849 13.2458" stroke="#703D29" stroke-width="0.075"/>
<path d="M9.52568 12.1814C9.59579 12.2647 9.64469 12.3638 9.66818 12.4701M9.66818 12.7889C9.6557 12.841 9.63683 12.8914 9.61193 12.9389C9.5771 13.0048 9.53147 13.0644 9.47693 13.1151" stroke="#703D29" stroke-width="0.075" stroke-linecap="round"/>
<path d="M9.53674 11.6106C9.60424 11.6668 9.64924 11.7231 9.66799 11.7906" stroke="#703D29" stroke-width="0.075"/>
<path d="M9.67172 11.4304C9.64691 11.4991 9.6026 11.5591 9.54422 11.6029M9.19922 10.9579L9.28172 10.9354L9.33047 10.8979L9.36047 10.8567L9.38672 10.7892L9.39797 10.7329" stroke="#703D29" stroke-width="0.075" stroke-linecap="round"/>
<path d="M9.03777 10.6731C9.01152 10.6806 8.97777 10.6881 8.94402 10.7031C8.89122 10.7286 8.84601 10.7673 8.81277 10.8156C8.72382 10.9573 8.69418 11.1284 8.73027 11.2918C8.74521 11.3667 8.77449 11.438 8.81652 11.5018L8.85402 11.5543C8.90652 11.6031 8.95152 11.6293 9.02652 11.6181" stroke="#703D29" stroke-width="0.075"/>
<path d="M9.4875 10.3169C9.47625 10.3656 9.45 10.4256 9.375 10.4181" stroke="#703D29" stroke-width="0.075" stroke-linecap="round"/>
<path d="M9.21411 10.6436C9.13911 10.5723 8.98911 10.5536 8.83536 10.6511L8.77536 10.6998C8.7555 10.7176 8.73789 10.7378 8.72286 10.7598C8.68308 10.8171 8.65272 10.8804 8.63286 10.9473C8.60661 11.0598 8.60661 11.1573 8.61036 11.1836C8.61036 11.2211 8.61786 11.2548 8.62161 11.2848C8.64411 11.3898 8.67411 11.4648 8.70786 11.5173C8.74161 11.5736 8.82036 11.7048 8.99661 11.7198C9.06411 11.7236 9.17661 11.6936 9.18411 11.6073" stroke="#703D29" stroke-width="0.075"/>
<path d="M13.6422 9.08722C13.6534 9.02722 13.7284 9.01597 13.7547 9.04972C13.7997 9.10972 13.7697 9.20722 13.6797 9.23347C13.6534 9.23818 13.6263 9.23581 13.6013 9.2266C13.5762 9.21736 13.5541 9.20161 13.5372 9.18097C13.4997 9.13222 13.5034 9.07597 13.5184 9.03097C13.5259 9.00097 13.5522 8.97472 13.5822 8.94847C13.6834 8.87347 13.8484 8.88847 13.9047 9.02347C13.9722 9.18847 13.8222 9.31597 13.6797 9.40972C13.5072 9.52972 13.3047 9.55222 13.1547 9.54847C12.8097 9.54847 12.5509 9.38347 12.3784 9.28597C12.3409 9.26722 12.2997 9.27097 12.2772 9.29722C12.266 9.3124 12.2609 9.33127 12.263 9.35005C12.2651 9.36883 12.2742 9.38611 12.2884 9.39847" stroke="#703D29" stroke-width="0.075" stroke-linecap="round"/>
<path d="M13.7098 9.03125C13.7473 9.03125 13.7548 9.04625 13.766 9.06125C13.811 9.1175 13.7773 9.215 13.691 9.245M14.3585 11.1762C14.2273 11.3187 14.351 11.5625 14.4485 11.6188C14.4823 11.645 14.4973 11.63 14.5235 11.645" stroke="#703D29" stroke-width="0.075" stroke-linecap="round"/>
<path d="M14.3665 10.9018C14.3253 10.9318 14.3103 10.9656 14.3065 11.0256C14.3045 11.0529 14.3081 11.0803 14.3171 11.1061C14.3261 11.1319 14.3404 11.1555 14.359 11.1756C14.4542 11.2632 14.5784 11.3126 14.7078 11.3143C14.7828 11.3143 14.8578 11.2993 14.9328 11.2506C15.0042 11.2036 15.0551 11.1312 15.0753 11.0481M14.2953 13.3656L14.2878 13.4593C14.28 13.5509 14.2545 13.64 14.2128 13.7218C14.1739 13.8011 14.1205 13.8724 14.0553 13.9318C13.9913 13.9949 13.9163 14.0458 13.834 14.0818C13.7572 14.1219 13.6752 14.1509 13.5903 14.1681C13.4273 14.2006 13.2604 14.2081 13.0953 14.1906C12.994 14.1831 12.9415 14.1718 12.8403 14.1606C12.7578 14.1568 12.7128 14.1493 12.6303 14.1493C12.4906 14.146 12.3517 14.1702 12.2215 14.2206C12.1203 14.2581 12.0078 14.3331 11.9815 14.3631C11.959 14.3293 11.8428 14.2581 11.7453 14.2206C11.6828 14.1939 11.6173 14.175 11.5503 14.1643C11.4678 14.1493 11.419 14.1493 11.3328 14.1493C11.2503 14.1493 11.2053 14.1568 11.1228 14.1643C11.0253 14.1718 10.9728 14.1868 10.8715 14.1906C10.7778 14.1981 10.7253 14.2018 10.6353 14.1981C10.5469 14.1975 10.4589 14.1874 10.3728 14.1681C10.288 14.1521 10.206 14.1243 10.129 14.0856C10.0477 14.048 9.97403 13.9959 9.91151 13.9318C9.84587 13.8713 9.79241 13.7987 9.75401 13.7181C9.71279 13.6374 9.68732 13.5496 9.67901 13.4593C9.67151 13.4218 9.67151 13.3656 9.67151 13.3656V9.5481H14.2915V13.3656H14.2953Z" stroke="#703D29" stroke-width="0.075"/>
<path d="M9.3 13.9096C9.3 13.8847 9.30987 13.8609 9.32745 13.8433C9.34503 13.8257 9.36888 13.8158 9.39375 13.8158C9.41862 13.8158 9.44247 13.8257 9.46005 13.8433C9.47763 13.8609 9.4875 13.8847 9.4875 13.9096C9.4875 13.9344 9.47763 13.9583 9.46005 13.9759C9.44247 13.9935 9.41862 14.0033 9.39375 14.0033C9.36888 14.0033 9.34503 13.9935 9.32745 13.9759C9.30987 13.9583 9.3 13.9344 9.3 13.9096ZM8.71875 13.2496C8.71875 13.2008 8.74875 13.1633 8.78625 13.1633C8.82375 13.1633 8.85 13.2008 8.85 13.2496C8.85 13.2946 8.82 13.3321 8.78625 13.3321C8.74875 13.3321 8.71875 13.2946 8.71875 13.2496Z" fill="#C7B37F" stroke="#C7B37F" stroke-width="0.0375"/>
<path d="M9.04926 11.5842C9.04926 11.5467 9.07926 11.5167 9.11301 11.5167C9.15051 11.5167 9.17676 11.5467 9.17676 11.5842C9.17676 11.6217 9.15051 11.6517 9.11301 11.6517C9.07551 11.6517 9.04926 11.6217 9.04926 11.5842ZM10.2005 9.12418C10.2005 9.08668 10.2193 9.04918 10.253 9.04918C10.2868 9.04543 10.3168 9.07168 10.3205 9.10918C10.3205 9.14668 10.3018 9.18418 10.268 9.18418C10.2343 9.18793 10.208 9.16168 10.2005 9.12418Z" fill="#C7B37F"/>
<path d="M8.97443 11.9751C8.95943 11.9788 8.95193 11.9826 8.94443 11.9938C8.93318 12.0051 8.92943 12.0088 8.92193 12.0276L8.91443 12.0726M9.09068 13.0738L9.12818 13.0363L9.15068 12.9988L9.16943 12.9613L9.19568 12.9126M9.14693 13.4376L9.09068 13.4638L9.04943 13.4863C9.03275 13.4956 9.01649 13.5056 9.00068 13.5163L8.95568 13.5538M9.51818 12.1326L9.48818 12.1026L9.45068 12.0726L9.41693 12.0426" stroke="#C7B37F" stroke-width="0.075" stroke-linecap="round"/>
<path d="M9.53252 11.6375L9.48752 11.6562C9.46943 11.6628 9.45047 11.6666 9.43127 11.6675" stroke="#C7B37F" stroke-width="0.075"/>
<path d="M8.90271 11.0145C8.91021 11.037 8.91021 11.052 8.92146 11.0707C8.92896 11.097 8.94021 11.112 8.95521 11.1345C8.97957 11.1752 9.0129 11.2099 9.05271 11.2357L9.10896 11.2657M9.07146 11.0482L9.12021 11.0707C9.15573 11.086 9.19404 11.0937 9.23271 11.0932L9.30021 11.0895M9.57021 9.56323L9.49521 9.51823C9.46146 9.49948 9.44646 9.48448 9.42021 9.46198C9.405 9.44704 9.39117 9.43072 9.37896 9.41323L9.34896 9.36448M9.63021 9.19198L9.65271 9.25573C9.66615 9.28333 9.68388 9.30865 9.70521 9.33073C9.74271 9.36823 9.76896 9.37948 9.81021 9.41323M9.86271 9.18823C9.87396 9.21448 9.87396 9.22573 9.88896 9.24823C9.89646 9.26698 9.90396 9.27823 9.91896 9.29323L9.96771 9.34198C9.99396 9.36448 10.0127 9.36823 10.0427 9.38323" stroke="#C7B37F" stroke-width="0.075" stroke-linecap="round"/>
<path d="M12.4986 8.88439C12.4986 8.82064 12.4349 8.81689 12.4086 8.81689C12.3411 8.81689 12.3224 8.85814 12.2361 8.90314C12.1618 8.95273 12.0742 8.97886 11.9849 8.97814C11.8955 8.97862 11.8081 8.95252 11.7336 8.90314C11.6474 8.85814 11.6324 8.81689 11.5611 8.81689C11.5498 8.81737 11.5387 8.82007 11.5284 8.82487C11.5181 8.82964 11.5088 8.83642 11.5012 8.84476C11.4935 8.85313 11.4876 8.86291 11.4837 8.87356C11.4798 8.88424 11.4781 8.89555 11.4786 8.90689V8.94064L11.4899 8.94814C11.4899 8.91814 11.4936 8.90314 11.5086 8.88439C11.516 8.87545 11.5251 8.86816 11.5354 8.863C11.5457 8.85784 11.5571 8.8549 11.5686 8.85439C11.6361 8.85439 11.6624 8.89939 11.7486 8.94439C11.8611 9.00439 11.9061 9.01564 11.9999 9.01939C12.0905 9.02062 12.1793 8.99449 12.2549 8.94439C12.3411 8.89939 12.3674 8.85064 12.4349 8.85064C12.4574 8.85064 12.4724 8.86564 12.4836 8.88814V8.92189L12.4911 8.92564C12.4911 8.91439 12.4986 8.91064 12.4986 8.88814V8.88439Z" fill="#703D29" stroke="#703D29" stroke-width="0.025"/>
<path d="M9.91526 14.2246C9.93401 14.2058 9.94901 14.2133 9.95276 14.2021C9.95276 14.1946 9.95276 14.1946 9.94151 14.1908L9.90776 14.1833L9.87776 14.1683C9.87401 14.1683 9.86276 14.1608 9.85901 14.1683C9.85526 14.1833 9.89651 14.1833 9.88151 14.2208C9.87455 14.2377 9.86435 14.253 9.85151 14.2658L9.75401 14.3783L9.74651 14.3821V14.2208L9.75026 14.1533C9.75776 14.1383 9.78026 14.1533 9.78401 14.1383C9.78401 14.1346 9.78401 14.1308 9.77276 14.1271C9.76526 14.1271 9.75401 14.1271 9.73151 14.1158L9.69401 14.0971C9.68651 14.0971 9.67526 14.0896 9.67151 14.0971L9.67526 14.1083C9.69026 14.1158 9.69401 14.1233 9.69401 14.1458V14.4233C9.69401 14.4421 9.69776 14.4458 9.70151 14.4496C9.70526 14.4496 9.70901 14.4496 9.71651 14.4383L9.91526 14.2246Z" fill="#703D29"/>
<path d="M10.0315 14.2699C10.0427 14.2287 10.069 14.2549 10.069 14.2399C10.0727 14.2324 10.069 14.2324 10.0615 14.2287L10.0127 14.2137C9.99775 14.2137 9.98275 14.2024 9.96775 14.1987C9.96775 14.1987 9.9565 14.1949 9.95275 14.1987C9.949 14.2174 9.994 14.2174 9.98275 14.2549L9.919 14.4612C9.90775 14.4987 9.8815 14.4837 9.87775 14.4987V14.5024L9.92275 14.5174L9.98275 14.5362H9.994C10.0015 14.5212 9.949 14.5249 9.96775 14.4724L10.0315 14.2699ZM10.1702 14.3074C10.1777 14.2849 10.189 14.2887 10.204 14.2924C10.2415 14.3037 10.2565 14.3412 10.2415 14.3862C10.234 14.4087 10.2265 14.4312 10.1665 14.4162C10.1552 14.4124 10.1402 14.4087 10.144 14.3974L10.1702 14.3112V14.3074ZM10.0652 14.4949C10.0465 14.5474 10.0202 14.5249 10.0165 14.5399C10.0165 14.5474 10.024 14.5474 10.0277 14.5512L10.0877 14.5662L10.1177 14.5774H10.1327C10.1365 14.5587 10.0952 14.5662 10.1065 14.5212L10.129 14.4462C10.1327 14.4312 10.1327 14.4274 10.1515 14.4349C10.174 14.4387 10.1777 14.4462 10.1815 14.4649L10.1927 14.5399C10.2002 14.5737 10.204 14.6037 10.2302 14.6149C10.249 14.6149 10.2752 14.6149 10.2827 14.5999L10.2752 14.5924H10.264C10.264 14.5924 10.2527 14.5924 10.2527 14.5812L10.2265 14.4462C10.2265 14.4387 10.2415 14.4387 10.2565 14.4349C10.2658 14.4299 10.274 14.423 10.2805 14.4146C10.2869 14.4062 10.2915 14.3965 10.294 14.3862C10.2977 14.3674 10.309 14.3037 10.2265 14.2774L10.1477 14.2587L10.1027 14.2437H10.0915C10.0877 14.2624 10.1327 14.2587 10.1177 14.3074L10.0615 14.4949H10.0652ZM10.3802 14.5887C10.3652 14.6412 10.3277 14.6074 10.324 14.6262C10.324 14.6337 10.3277 14.6374 10.3352 14.6374L10.3915 14.6487L10.444 14.6637C10.4552 14.6637 10.4627 14.6712 10.4665 14.6599C10.4665 14.6487 10.4177 14.6487 10.429 14.5924L10.4777 14.3974C10.4777 14.3749 10.4852 14.3749 10.5002 14.3787L10.5377 14.3862C10.579 14.3974 10.5565 14.4424 10.5752 14.4462C10.5827 14.4462 10.5827 14.4312 10.5827 14.4237L10.5865 14.3862V14.3712L10.4627 14.3449L10.3427 14.3149C10.339 14.3149 10.3352 14.3149 10.3352 14.3224L10.3165 14.3787C10.3127 14.3824 10.309 14.3937 10.3165 14.3937C10.3352 14.3974 10.3352 14.3374 10.3802 14.3487L10.414 14.3562C10.429 14.3599 10.4327 14.3637 10.429 14.3862L10.3802 14.5887ZM10.8565 14.4649C10.8715 14.4424 10.8865 14.4462 10.8902 14.4387C10.8902 14.4312 10.8827 14.4312 10.8752 14.4274H10.8415L10.8077 14.4162C10.804 14.4162 10.7927 14.4124 10.7927 14.4199C10.789 14.4349 10.8302 14.4274 10.8227 14.4687C10.8227 14.4762 10.819 14.4912 10.8002 14.5174L10.7252 14.6412L10.714 14.6487V14.6412L10.6877 14.4912C10.6827 14.469 10.6814 14.4462 10.684 14.4237C10.684 14.4049 10.7102 14.4162 10.7102 14.4049C10.7102 14.3974 10.7102 14.3974 10.6952 14.3937L10.654 14.3899C10.639 14.3899 10.6277 14.3824 10.6165 14.3787C10.609 14.3787 10.5977 14.3749 10.594 14.3824L10.5977 14.3899C10.6165 14.3974 10.6202 14.4049 10.624 14.4237L10.6727 14.6974C10.6765 14.7162 10.6802 14.7237 10.684 14.7237C10.6877 14.7237 10.6915 14.7237 10.699 14.7124L10.8565 14.4649ZM10.879 14.7199C10.879 14.7312 10.879 14.7312 10.8865 14.7387C10.909 14.7462 10.924 14.7612 10.9502 14.7649C11.0027 14.7724 11.0477 14.7387 11.0552 14.6824C11.0665 14.6262 11.044 14.6037 11.0027 14.5737C10.954 14.5399 10.9352 14.5324 10.939 14.4987C10.9427 14.4724 10.9652 14.4612 10.9915 14.4612C11.059 14.4724 11.0515 14.5587 11.059 14.5587C11.0702 14.5587 11.0702 14.5549 11.0702 14.5437L11.0777 14.4837V14.4687H11.0552C11.0402 14.4687 11.029 14.4499 10.9952 14.4424C10.9502 14.4349 10.909 14.4687 10.9015 14.5174C10.894 14.5624 10.9165 14.5849 10.9465 14.6074C11.0065 14.6487 11.029 14.6599 11.0215 14.6974C11.0177 14.7349 10.9877 14.7499 10.9577 14.7462C10.9127 14.7387 10.8977 14.6937 10.8902 14.6487C10.8902 14.6412 10.8902 14.6374 10.8827 14.6374C10.8752 14.6374 10.8752 14.6487 10.8752 14.6562V14.7199H10.879ZM11.4715 14.5512C11.4827 14.5249 11.5015 14.5287 11.5015 14.5174C11.5015 14.5099 11.4977 14.5137 11.4865 14.5099H11.4527L11.419 14.5062C11.4152 14.5062 11.404 14.5062 11.404 14.5137C11.404 14.5287 11.4415 14.5137 11.4415 14.5549C11.4415 14.5624 11.4377 14.5774 11.4227 14.6074L11.3552 14.7387L11.3515 14.7499L11.3477 14.7387L11.3065 14.5887C11.2997 14.5694 11.2959 14.5491 11.2952 14.5287C11.2952 14.5099 11.3215 14.5174 11.3215 14.5062C11.3215 14.4987 11.3215 14.4987 11.3065 14.4987H11.2615L11.224 14.4912C11.2165 14.4912 11.2052 14.4874 11.2015 14.4949L11.209 14.5024C11.224 14.5099 11.2315 14.5137 11.2352 14.5324L11.314 14.7987L11.329 14.8249C11.3327 14.8249 11.3365 14.8249 11.3402 14.8099L11.4715 14.5474V14.5512Z" fill="#703D29"/>
<path d="M11.5352 14.7685C11.5352 14.8135 11.4977 14.806 11.4977 14.8248C11.4977 14.8323 11.5015 14.8285 11.509 14.8285H11.5915L11.6065 14.8248C11.6065 14.8023 11.554 14.8323 11.554 14.7498V14.5923L11.5577 14.5885L11.5652 14.5923L11.7565 14.8285L11.7677 14.8323L11.7752 14.821V14.5698C11.7752 14.521 11.8127 14.5323 11.8127 14.521C11.8127 14.521 11.8127 14.5135 11.8015 14.5135H11.7152C11.7077 14.5135 11.7077 14.5173 11.7077 14.521C11.7077 14.536 11.7565 14.5285 11.7565 14.5698V14.7198L11.7527 14.7348L11.7377 14.7235L11.5802 14.5248C11.5727 14.5135 11.5765 14.5135 11.5652 14.5135H11.4977L11.4902 14.5173C11.4902 14.5398 11.5352 14.5098 11.5352 14.596V14.7685ZM11.9252 14.5623C11.9252 14.521 11.9552 14.536 11.9552 14.521C11.9552 14.5173 11.9552 14.5135 11.9402 14.5135H11.8427C11.8427 14.5135 11.8315 14.5135 11.8315 14.521C11.8315 14.536 11.8727 14.521 11.8727 14.566V14.7798C11.8727 14.821 11.8427 14.8098 11.8427 14.8248C11.8427 14.8248 11.8427 14.8323 11.8502 14.8323H11.9552C11.9627 14.8323 11.9665 14.8323 11.9665 14.8248C11.9665 14.8098 11.9215 14.8323 11.9215 14.776L11.9252 14.5623ZM12.094 14.7685C12.094 14.8248 12.049 14.806 12.049 14.821C12.049 14.8285 12.0565 14.8285 12.064 14.8285H12.1765C12.1877 14.8285 12.1952 14.8285 12.1952 14.8173C12.1952 14.806 12.1427 14.8173 12.1427 14.7648V14.5623C12.1427 14.5398 12.1427 14.5398 12.1615 14.5398H12.199C12.244 14.536 12.229 14.5848 12.2477 14.5848C12.2552 14.5848 12.2515 14.5698 12.2515 14.5623L12.2477 14.5248C12.2477 14.5173 12.2477 14.5098 12.2402 14.5098L12.1165 14.5135H11.9927L11.9852 14.5248L11.9815 14.5848L11.9852 14.5998C12.004 14.5998 11.9927 14.5398 12.0377 14.5398H12.0715C12.0865 14.5398 12.0902 14.5398 12.094 14.5623V14.7723V14.7685ZM12.3302 14.686H12.3152L12.319 14.6673L12.3452 14.5848V14.5773L12.3527 14.581L12.3902 14.6598L12.3977 14.6748C12.3977 14.6823 12.3902 14.6823 12.3827 14.6823H12.3302V14.686ZM12.3977 14.7048C12.409 14.7048 12.409 14.7048 12.4277 14.7423L12.4352 14.7723C12.4352 14.7985 12.409 14.7948 12.409 14.8098C12.409 14.8135 12.4165 14.8135 12.424 14.8098H12.469L12.5177 14.806C12.529 14.806 12.5327 14.806 12.5327 14.7985C12.5327 14.7835 12.5102 14.7985 12.4952 14.7723L12.3677 14.5098L12.3565 14.4948C12.349 14.4948 12.349 14.5023 12.3452 14.5098L12.2627 14.7873C12.2552 14.8135 12.2327 14.8135 12.2365 14.8248H12.3227C12.3302 14.821 12.3415 14.8248 12.3415 14.8135C12.3415 14.8023 12.2965 14.8135 12.2927 14.7798L12.3002 14.7423C12.3077 14.7123 12.3152 14.7123 12.3227 14.7123L12.4015 14.7048H12.3977ZM12.709 14.5173C12.7052 14.4873 12.709 14.4873 12.754 14.4798C12.829 14.4723 12.8065 14.5285 12.829 14.5248C12.8365 14.5248 12.829 14.5098 12.829 14.5023L12.8252 14.461C12.8252 14.4573 12.8215 14.4535 12.814 14.4535C12.7765 14.4535 12.7502 14.461 12.724 14.4648L12.619 14.4798C12.6115 14.4798 12.6077 14.4798 12.6077 14.4873C12.6115 14.506 12.6565 14.4873 12.6602 14.5248L12.6865 14.731C12.694 14.7873 12.6602 14.7685 12.664 14.7873C12.664 14.7873 12.664 14.791 12.6715 14.7873L12.724 14.7835L12.769 14.7798C12.7802 14.7798 12.7877 14.7798 12.7877 14.7685C12.7877 14.7573 12.7427 14.7723 12.7352 14.7235L12.7277 14.6598C12.724 14.6335 12.724 14.626 12.739 14.6223H12.769C12.8102 14.6148 12.8065 14.6635 12.8177 14.6598C12.829 14.6598 12.8252 14.6448 12.8215 14.641L12.8102 14.5623C12.8102 14.551 12.8027 14.551 12.8027 14.551C12.7915 14.551 12.799 14.5923 12.7652 14.596L12.739 14.5998C12.7202 14.6035 12.7202 14.5998 12.7165 14.581L12.709 14.5173ZM12.859 14.6223C12.874 14.7085 12.9377 14.761 13.0165 14.746C13.144 14.7198 13.1477 14.611 13.1365 14.5473C13.1177 14.4535 13.0502 14.4085 12.9715 14.4235C12.8777 14.4423 12.8402 14.5248 12.859 14.6223ZM12.9002 14.5848C12.889 14.5248 12.9002 14.4573 12.964 14.446C13.0165 14.4348 13.0765 14.476 13.0915 14.5735C13.1027 14.6485 13.0915 14.7085 13.024 14.7235C12.9527 14.7385 12.9115 14.6485 12.9002 14.5885V14.5848ZM13.2115 14.431C13.2077 14.4048 13.219 14.401 13.234 14.3973C13.2715 14.3898 13.3015 14.416 13.3127 14.4573C13.3202 14.4835 13.324 14.5098 13.264 14.5248C13.2527 14.5248 13.2377 14.5285 13.234 14.5173L13.2152 14.431H13.2115ZM13.2115 14.6448C13.2265 14.6973 13.1927 14.6935 13.1927 14.7048C13.1965 14.716 13.204 14.7123 13.2077 14.7085C13.2302 14.7085 13.2452 14.6973 13.2677 14.6935L13.3052 14.686C13.3127 14.686 13.3127 14.6823 13.3127 14.6785C13.3127 14.6635 13.2752 14.6898 13.264 14.641L13.2452 14.566C13.2452 14.551 13.2377 14.551 13.2602 14.5473C13.279 14.5398 13.2865 14.5435 13.3015 14.5585L13.3502 14.6185C13.369 14.641 13.3877 14.6673 13.4177 14.6598C13.4365 14.656 13.4552 14.641 13.4552 14.626L13.4477 14.6223L13.4365 14.626C13.4365 14.626 13.4252 14.6298 13.4215 14.626L13.3315 14.5173L13.3502 14.4948C13.3577 14.4798 13.3652 14.461 13.3577 14.4348C13.354 14.416 13.3315 14.356 13.2452 14.3748L13.1665 14.3973L13.1215 14.4048C13.114 14.4048 13.1102 14.4085 13.114 14.4123C13.114 14.431 13.1552 14.4048 13.1665 14.4498L13.2115 14.6448ZM13.5377 14.5698C13.549 14.6223 13.5002 14.6148 13.504 14.6298C13.504 14.641 13.5152 14.6373 13.5227 14.6373L13.5752 14.6185L13.6315 14.6073C13.6427 14.6073 13.6502 14.6073 13.6465 14.5923C13.6465 14.581 13.5977 14.6073 13.5827 14.5548L13.534 14.356C13.5265 14.3373 13.534 14.3335 13.5452 14.3298L13.5827 14.3223C13.624 14.3073 13.624 14.3598 13.639 14.356C13.6502 14.356 13.639 14.3373 13.639 14.3298L13.624 14.2923C13.624 14.2923 13.624 14.281 13.6165 14.2848L13.4965 14.3185L13.3765 14.3448V14.356L13.3802 14.416C13.3802 14.4235 13.3802 14.431 13.3915 14.431C13.4102 14.4273 13.3802 14.371 13.429 14.3598L13.459 14.3523C13.474 14.3485 13.4815 14.3523 13.4852 14.371L13.5377 14.5698ZM13.744 14.296C13.7327 14.2585 13.7665 14.2623 13.759 14.2473H13.7477L13.6952 14.2623L13.6502 14.2735C13.6502 14.2735 13.639 14.2735 13.639 14.281C13.6427 14.296 13.684 14.2735 13.6952 14.311L13.7552 14.521C13.7627 14.5585 13.7327 14.5585 13.7365 14.5698C13.7365 14.5735 13.7365 14.5773 13.744 14.5735L13.7852 14.5623L13.8452 14.5473C13.8565 14.5473 13.8565 14.5435 13.8565 14.536C13.8527 14.5248 13.8152 14.5548 13.8002 14.5023L13.744 14.296ZM13.8302 14.3973C13.8565 14.4835 13.9277 14.5248 14.0065 14.4985C14.1265 14.4573 14.119 14.3448 14.0965 14.2848C14.0665 14.1948 13.9915 14.161 13.9165 14.1835C13.8265 14.2173 13.7965 14.3035 13.8302 14.3973ZM13.8677 14.3598C13.8452 14.296 13.8452 14.2285 13.909 14.2098C13.9577 14.191 14.0215 14.2248 14.0552 14.3185C14.0777 14.386 14.074 14.4535 14.0102 14.476C13.9427 14.4985 13.8902 14.4198 13.8677 14.356V14.3598ZM14.1527 14.1535C14.1452 14.1273 14.1527 14.1235 14.1677 14.116C14.2052 14.1048 14.2427 14.1273 14.2577 14.1685C14.2652 14.191 14.2727 14.2173 14.2165 14.2398C14.2052 14.2398 14.1902 14.2473 14.1865 14.2398L14.1527 14.1535ZM14.1827 14.3635C14.2052 14.416 14.1677 14.416 14.1752 14.4273C14.1752 14.4385 14.1827 14.431 14.1902 14.431L14.2465 14.4048L14.2802 14.3973C14.2877 14.3935 14.2877 14.3898 14.2877 14.386C14.2802 14.371 14.2502 14.401 14.2352 14.356L14.2052 14.2848C14.1977 14.2698 14.1977 14.266 14.2165 14.2585C14.2352 14.251 14.2427 14.2548 14.2577 14.2698L14.3177 14.3223C14.3365 14.341 14.359 14.3635 14.3927 14.3523C14.404 14.3448 14.4265 14.326 14.419 14.3148L14.4115 14.311L14.404 14.3185H14.3852L14.2802 14.2248L14.2952 14.1985C14.2993 14.1891 14.3015 14.1789 14.3015 14.1685C14.3015 14.1582 14.2993 14.148 14.2952 14.1385C14.2915 14.116 14.2577 14.0635 14.179 14.0935L14.104 14.1273L14.059 14.1423L14.0515 14.1498C14.059 14.1648 14.0927 14.1348 14.1115 14.1798L14.1865 14.3673L14.1827 14.3635Z" fill="#703D29"/>
<path d="M9.90466 9.78369H11.8751V11.7517H9.90466V9.78369Z" fill="#D52B1E"/>
<path d="M10.8286 11.3317C10.8286 11.3317 10.8286 11.4037 10.8094 11.4589C10.7854 11.5237 10.7854 11.5237 10.7638 11.5549C10.7404 11.5929 10.7094 11.6256 10.6726 11.6509C10.6246 11.6797 10.5766 11.6941 10.5286 11.6893C10.399 11.6797 10.3366 11.5357 10.3078 11.4205C10.2766 11.2981 10.1878 11.2285 10.1278 11.2765C10.0942 11.3005 10.0942 11.3437 10.1206 11.3869C10.1464 11.4181 10.1805 11.4414 10.219 11.4541L10.1494 11.5429C10.1494 11.5429 9.99815 11.5237 9.96935 11.3653C9.95735 11.3053 9.98615 11.1949 10.087 11.1613C10.2142 11.1181 10.2934 11.2093 10.3342 11.2861C10.387 11.3917 10.411 11.5837 10.5598 11.5549C10.6414 11.5381 10.6798 11.4205 10.6798 11.3653L10.7374 11.3029L10.8262 11.3317H10.8286Z" fill="white"/>
<path d="M10.9507 11.3317C10.9507 11.3317 10.9507 11.4037 10.9699 11.4589C10.9939 11.5237 10.9939 11.5237 11.0155 11.5549C11.0388 11.5929 11.0699 11.6256 11.1067 11.6509C11.1547 11.6797 11.2027 11.6941 11.2507 11.6893C11.3803 11.6797 11.4427 11.5357 11.4715 11.4205C11.5027 11.2981 11.5915 11.2285 11.6515 11.2765C11.6851 11.3005 11.6851 11.3437 11.6587 11.3869C11.6329 11.4181 11.5988 11.4414 11.5603 11.4541L11.6299 11.5429C11.6299 11.5429 11.7811 11.5237 11.8099 11.3653C11.8219 11.3053 11.7931 11.1949 11.6923 11.1613C11.5651 11.1181 11.4859 11.2093 11.4451 11.2861C11.3923 11.3917 11.3683 11.5837 11.2195 11.5549C11.1379 11.5381 11.0995 11.4205 11.0995 11.3653L11.0419 11.3029L10.9531 11.3317H10.9507Z" fill="white"/>
<path d="M11.0657 10.4962L11.3249 10.2154C11.3249 10.2154 11.3633 10.1842 11.3633 10.1338L11.3105 10.1434L11.2985 10.1146L11.2961 10.0882L11.3681 10.0714V10.0402L11.3753 10.009L11.2985 10.0138L11.3057 9.98021L11.3177 9.95621L11.3633 9.94661H11.4089C11.4521 9.86501 11.6297 9.79301 11.7545 9.92261C11.8457 10.0186 11.8265 10.1914 11.7065 10.2394C11.6797 10.2513 11.65 10.2552 11.621 10.2505C11.592 10.2458 11.565 10.2328 11.5433 10.213L11.5913 10.117C11.6561 10.1578 11.7113 10.1098 11.7065 10.0594C11.7017 9.99461 11.6585 9.95621 11.6033 9.95141C11.5481 9.94661 11.5073 9.97541 11.4833 10.0234C11.4689 10.0546 11.4761 10.0762 11.4713 10.1098C11.4665 10.1458 11.4713 10.165 11.4593 10.201C11.4476 10.2342 11.4278 10.2639 11.4017 10.2874L11.1377 10.5754L10.1057 11.689L10.0289 11.617L11.0657 10.4962Z" fill="#FEDF00"/>
<path d="M10.3079 10.5921C10.3079 10.5921 10.3727 10.9137 10.5935 11.3961C10.7063 11.3553 10.7711 11.3289 10.8911 11.3289C11.0087 11.3289 11.0735 11.3529 11.1863 11.3961C11.3091 11.1388 11.4049 10.8693 11.4719 10.5921L10.8911 9.84814L10.3055 10.5921H10.3079Z" fill="white"/>
<path d="M10.9468 10.0977L11.35 10.6185C11.35 10.6185 11.2972 10.8705 11.134 11.2497C11.0692 11.2353 11.014 11.2233 10.9468 11.2185V10.0977ZM10.834 10.0977L10.4308 10.6185C10.4308 10.6185 10.4836 10.8705 10.6468 11.2497C10.7116 11.2353 10.7668 11.2233 10.834 11.2185V10.0977Z" fill="#FEDF00"/>
<path d="M12.0867 9.78125H14.0592V11.75H12.0867V9.78125Z" fill="#FEDF00"/>
<path d="M12.3644 9.78125H12.6569V11.75H12.3644V9.78125ZM12.9269 9.78125H13.2194V11.75H12.9269V9.78125ZM13.4894 9.78125H13.7857V11.75H13.4894V9.78125Z" fill="#D52B1E"/>
<path d="M9.911 13.4559C9.91475 13.4934 9.92975 13.5534 9.9635 13.6171C10.001 13.6734 9.986 13.6696 10.0648 13.7596C10.1085 13.8038 10.1592 13.8405 10.2148 13.8684C10.392 13.9447 10.5847 13.9781 10.7773 13.9659C10.8785 13.9621 10.9573 13.9509 11.0248 13.9396C11.1615 13.9215 11.2994 13.9139 11.4373 13.9171C11.4935 13.9171 11.5498 13.9284 11.6135 13.9396C11.7448 13.9659 11.876 14.0146 11.876 14.0146V11.9634H9.9035V13.3621L9.911 13.4521V13.4559Z" fill="#FEDF00"/>
<path d="M10.1403 13.816L10.234 13.8722L10.3615 13.9172V11.9597H10.1403V13.816ZM11.2353 13.906V11.9597H11.0178V13.9397L11.2353 13.9135V13.906ZM11.674 11.9597H11.4565V13.9135C11.5278 13.921 11.599 13.936 11.674 13.951V11.9635V11.9597ZM10.7965 11.9597V13.9622C10.7965 13.9622 10.654 13.9697 10.579 13.9622V11.9597H10.7965Z" fill="#D52B1E" stroke="#D52B1E" stroke-width="0.0375"/>
<path d="M14.0523 13.4573C14.0438 13.5127 14.0259 13.5662 13.9995 13.6157C13.9635 13.6709 13.9755 13.6709 13.8963 13.7597C13.8105 13.8444 13.7022 13.9027 13.5843 13.9277C13.4545 13.9619 13.3199 13.9749 13.1859 13.9661C13.0827 13.9613 13.0059 13.9493 12.9387 13.9421C12.8475 13.9277 12.7779 13.9205 12.6747 13.9181C12.6251 13.9157 12.5755 13.9157 12.5259 13.9181C12.3762 13.9351 12.2288 13.9689 12.0867 14.0189V11.9597H14.0595V13.3637L14.0523 13.4549V13.4573Z" fill="#FEDF00"/>
<path d="M12.5904 12.1276L12.576 12.1324L12.5568 12.1516C12.5472 12.1612 12.54 12.1636 12.528 12.1708L12.5136 12.1828C12.5064 12.19 12.5136 12.1972 12.5064 12.2068C12.504 12.2164 12.4992 12.2212 12.492 12.2308C12.4824 12.2404 12.4752 12.2428 12.468 12.2548L12.4392 12.2788L12.432 12.2812H12.4176C12.408 12.286 12.4056 12.2956 12.3984 12.3004L12.4056 12.3148L12.4248 12.3484C12.4296 12.3556 12.4296 12.3652 12.4368 12.3676C12.4488 12.3724 12.4584 12.3724 12.468 12.37C12.4872 12.3748 12.4992 12.3748 12.516 12.382L12.552 12.4012C12.564 12.4084 12.5712 12.4108 12.5832 12.4132H12.6264V12.4204L12.6744 12.4444C12.6733 12.4475 12.6725 12.4507 12.672 12.454C12.6696 12.4612 12.6672 12.4708 12.6696 12.4732C12.684 12.5188 12.6984 12.5452 12.7056 12.55C12.72 12.5548 12.7248 12.5716 12.732 12.586L12.7248 12.5932C12.7104 12.6076 12.696 12.6172 12.684 12.6364C12.6672 12.6652 12.6552 12.6652 12.6768 12.7036L12.7128 12.7612C12.7224 12.778 12.7272 12.79 12.732 12.8092C12.7368 12.826 12.7392 12.838 12.7392 12.8572L12.7632 12.8644L12.78 12.85L12.7944 12.8212V12.7972C12.7896 12.7948 12.7872 12.7876 12.7896 12.7804C12.7896 12.7708 12.8016 12.7732 12.8064 12.766C12.8136 12.754 12.7968 12.7468 12.7896 12.7396C12.7752 12.7228 12.756 12.718 12.7512 12.694C12.7512 12.6892 12.7512 12.6844 12.7608 12.6772L12.8088 12.634C12.8136 12.6364 12.8232 12.6388 12.8328 12.6364L12.864 12.646C12.8784 12.6508 12.8856 12.646 12.8928 12.646H12.9024L12.9048 12.6604C12.9072 12.6844 12.9024 12.7324 12.9096 12.7444L12.9168 12.7588L12.9216 12.7732V12.8212L12.9168 12.862C12.9168 12.8716 12.912 12.8788 12.9048 12.886C12.9 12.8956 12.8904 12.8956 12.8808 12.9028V12.9268L12.9072 12.9388L12.9384 12.946L12.9552 12.9388L12.9576 12.9244L12.9696 12.9124C12.9792 12.9076 12.9888 12.9124 12.9912 12.91C12.996 12.9028 12.9912 12.9004 12.9912 12.8908C12.9912 12.8764 12.9864 12.8668 12.984 12.8524C12.9806 12.8302 12.9798 12.8076 12.9816 12.7852C12.9816 12.7708 12.9816 12.7612 12.9864 12.7492C12.9888 12.7252 12.996 12.7156 13.0008 12.6964C13.008 12.6724 13.008 12.658 13.0104 12.6364C13.0914 12.6486 13.1739 12.6437 13.2528 12.622C13.272 12.6388 13.2936 12.6508 13.3176 12.6604V12.6844C13.3176 12.6916 13.3176 12.694 13.3224 12.7012L13.3296 12.7084C13.3368 12.7084 13.3416 12.7084 13.3464 12.7036C13.3512 12.6988 13.3512 12.694 13.3512 12.6868V12.67H13.3944V12.6964C13.3968 12.7036 13.4016 12.706 13.4064 12.706C13.4087 12.7071 13.4111 12.7076 13.4136 12.7076C13.4161 12.7076 13.4186 12.7071 13.4208 12.706C13.428 12.7012 13.4256 12.6916 13.428 12.682V12.6652L13.452 12.6556C13.4527 12.6628 13.4527 12.67 13.452 12.6772L13.4448 12.6988C13.44 12.7132 13.4328 12.718 13.4256 12.7324C13.416 12.7468 13.4136 12.7564 13.4016 12.7684L13.3872 12.7852L13.3728 12.8068L13.3512 12.8308C13.3344 12.8452 13.3224 12.8356 13.3032 12.8524L13.296 12.8764L13.3296 12.8908L13.3608 12.8956L13.3704 12.8908C13.3704 12.8836 13.3704 12.8764 13.3776 12.8716C13.3824 12.8644 13.3872 12.8644 13.3944 12.862C13.404 12.862 13.4136 12.862 13.4184 12.8572C13.428 12.85 13.428 12.8332 13.4352 12.8212C13.4529 12.7856 13.4774 12.7538 13.5072 12.7276L13.548 12.694C13.5528 12.6844 13.56 12.682 13.56 12.67L13.5552 12.6556L13.5504 12.6316C13.5864 12.6484 13.5744 12.6484 13.5792 12.6652C13.5864 12.6796 13.5792 12.6892 13.5816 12.706C13.584 12.7252 13.5936 12.7324 13.5936 12.7516C13.596 12.7732 13.5912 12.7852 13.5864 12.8068C13.584 12.826 13.584 12.838 13.5744 12.8548C13.5688 12.8688 13.5597 12.8812 13.548 12.8908L13.5336 12.9028L13.5312 12.9268L13.5576 12.9364L13.596 12.946L13.6056 12.9388C13.6104 12.922 13.6056 12.898 13.6152 12.898C13.6248 12.8956 13.632 12.898 13.6344 12.8908V12.874L13.6512 12.766L13.6608 12.7204L13.6704 12.6796C13.6872 12.6316 13.6656 12.6244 13.6464 12.5932C13.6344 12.5764 13.6296 12.5692 13.6296 12.5572V12.4876C13.6289 12.4652 13.6289 12.4428 13.6296 12.4204L13.6392 12.4156C13.668 12.3988 13.68 12.394 13.6968 12.3556C13.7019 12.3443 13.7044 12.332 13.704 12.3196V12.2956L13.6944 12.2716C13.6907 12.2645 13.6858 12.258 13.68 12.2524C13.6632 12.2284 13.6392 12.226 13.6152 12.2164C13.5792 12.2044 13.5552 12.2068 13.5192 12.2044C13.476 12.1996 13.4544 12.1996 13.4136 12.2044C13.3656 12.2044 13.3392 12.214 13.2912 12.2212L13.1736 12.2308C13.1184 12.2308 13.068 12.2188 13.0344 12.2212C12.9768 12.226 12.9744 12.2404 12.8856 12.2476C12.8553 12.2501 12.8249 12.2517 12.7944 12.2524L12.7416 12.2356C12.7632 12.2284 12.768 12.2236 12.7776 12.2116C12.7848 12.202 12.7824 12.1948 12.792 12.1852L12.8088 12.1612C12.8025 12.1564 12.7951 12.1531 12.7872 12.1516H12.7632C12.7532 12.152 12.7434 12.1544 12.7344 12.1588L12.7152 12.1732L12.6624 12.1444C12.6399 12.1329 12.6155 12.1256 12.5904 12.1228V12.1276Z" fill="#D52B1E"/>
<path d="M13.6519 12.4273L13.6327 12.4345C13.6111 12.4441 13.5943 12.4441 13.5703 12.4465C13.5079 12.4513 13.4671 12.4201 13.4023 12.4249C13.3687 12.4273 13.3543 12.4537 13.3183 12.4633C13.3049 12.4662 13.2912 12.4678 13.2775 12.4681L13.2895 12.4441C13.2895 12.4441 13.2607 12.4513 13.2415 12.4513C13.2285 12.4511 13.2157 12.4495 13.2031 12.4465L13.2271 12.4225L13.1959 12.4177C13.1871 12.4134 13.179 12.4077 13.1719 12.4009C13.1856 12.3991 13.1992 12.3967 13.2127 12.3937C13.2487 12.3841 13.2607 12.3649 13.3063 12.3601C13.3327 12.3601 13.3783 12.3601 13.4887 12.3793C13.5607 12.3913 13.5943 12.3841 13.6207 12.3721C13.6399 12.3649 13.6447 12.3481 13.6471 12.3289C13.6495 12.3097 13.6375 12.2953 13.6279 12.2857C13.6255 12.2857 13.6159 12.2785 13.6015 12.2761" stroke="#FEDF00" stroke-width="0.08" stroke-linecap="round"/>
<path d="M12.5954 12.2141C12.5834 12.2141 12.5738 12.2141 12.5642 12.2213C12.5522 12.2285 12.5498 12.2381 12.5402 12.2477C12.5522 12.2501 12.5594 12.2573 12.569 12.2549C12.5786 12.2549 12.581 12.2501 12.5882 12.2429C12.5954 12.2333 12.5978 12.2261 12.5978 12.2141H12.5954Z" fill="#FCD900" stroke="#FEDF00" stroke-width="0.04"/>
<path d="M12.8649 12.531C12.8712 12.5501 12.8792 12.5686 12.8889 12.5862C12.8937 12.6054 12.8889 12.615 12.8937 12.6342V12.6726M13.0569 12.5046L13.0497 12.5358L13.0257 12.6198V12.6366M12.7617 12.5406C12.7833 12.5454 12.7761 12.6198 12.8073 12.6366" stroke="#FEDF00" stroke-width="0.08" stroke-linecap="round"/>
<path d="M13.4426 12.6747L13.4522 12.6675C13.4764 12.6575 13.4985 12.6428 13.517 12.6243" stroke="#FEDF00" stroke-width="0.08"/>
<path d="M13.2586 12.6317C13.3426 12.6101 13.4002 12.5693 13.441 12.5621M13.345 12.5261H13.3642C13.4002 12.5189 13.405 12.5405 13.429 12.5549C13.4746 12.5789 13.4794 12.6101 13.5322 12.6365L13.5418 12.6389L13.561 12.6485" stroke="#FEDF00" stroke-width="0.08" stroke-linecap="round"/>
<path d="M12.4254 12.308H12.4422L12.4614 12.3032C12.4686 12.3032 12.4734 12.3032 12.4782 12.308C12.483 12.308 12.483 12.3104 12.4854 12.3152C12.4854 12.32 12.4902 12.3224 12.4878 12.3272C12.4878 12.332 12.4806 12.3368 12.4734 12.3368C12.4686 12.3368 12.4638 12.3368 12.4614 12.3296C12.4608 12.3281 12.4604 12.3265 12.4604 12.3248C12.4604 12.3231 12.4608 12.3215 12.4614 12.32C12.4581 12.3217 12.4544 12.3226 12.4506 12.3226C12.4469 12.3226 12.4431 12.3217 12.4398 12.32C12.4367 12.3191 12.4338 12.3175 12.4314 12.3155C12.4289 12.3134 12.4269 12.3109 12.4254 12.308Z" fill="#FCD900" stroke="#FEDF00" stroke-width="0.04"/>
<path d="M12.6028 12.5403L12.5548 12.5187C12.5644 12.5139 12.5716 12.5139 12.5788 12.5067C12.586 12.4971 12.586 12.4875 12.5908 12.4755C12.5956 12.4635 12.5956 12.4515 12.6076 12.4419C12.6148 12.4371 12.6268 12.4371 12.634 12.4395C12.6436 12.4395 12.6532 12.4491 12.6556 12.4563C12.6556 12.4707 12.6508 12.4803 12.6484 12.4923C12.6484 12.5067 12.6412 12.5139 12.6436 12.5259C12.6436 12.5355 12.6484 12.5403 12.6532 12.5499L12.6052 12.5403H12.6028ZM12.5788 12.5643C12.5784 12.5615 12.5788 12.5587 12.58 12.5561C12.5812 12.5535 12.5831 12.5514 12.5855 12.5499C12.5879 12.5484 12.5907 12.5477 12.5936 12.5478C12.5964 12.5479 12.5991 12.5488 12.6014 12.5504C12.6037 12.5521 12.6055 12.5544 12.6065 12.557C12.6075 12.5597 12.6077 12.5626 12.6071 12.5653C12.6065 12.5681 12.605 12.5706 12.603 12.5726C12.601 12.5745 12.5984 12.5759 12.5956 12.5763C12.5935 12.5767 12.5914 12.5766 12.5894 12.576C12.5873 12.5755 12.5854 12.5744 12.5838 12.5731C12.5822 12.5717 12.581 12.57 12.5801 12.5681C12.5792 12.5661 12.5788 12.5641 12.5788 12.5619V12.5643ZM12.538 12.1659H12.5332C12.5236 12.1563 12.5236 12.1467 12.5188 12.1371C12.5149 12.128 12.5125 12.1183 12.5116 12.1083V12.0603C12.5116 12.0531 12.5116 12.0459 12.5068 12.0387C12.5068 12.0339 12.4972 12.0315 12.4996 12.0291C12.4996 12.0267 12.5068 12.0291 12.5092 12.0291C12.5188 12.0291 12.5236 12.0315 12.5332 12.0387C12.5404 12.0459 12.5452 12.0531 12.5476 12.0627L12.5572 12.0987L12.5644 12.1179L12.5764 12.1323L12.5596 12.1515L12.538 12.1659ZM12.6244 12.4203L12.6772 12.4443C12.7133 12.4226 12.7425 12.3909 12.7612 12.3531C12.7828 12.3099 12.7852 12.2883 12.7948 12.2475L12.7516 12.2355H12.742C12.73 12.2787 12.7252 12.3003 12.7036 12.3363C12.6844 12.3675 12.6628 12.3915 12.6412 12.4083L12.6244 12.4203ZM12.7444 12.8571L12.7636 12.8259L12.7972 12.7995H12.8068C12.8065 12.8225 12.8025 12.8452 12.7948 12.8667L12.7852 12.8907L12.7732 12.9027C12.7612 12.8835 12.742 12.8715 12.742 12.8547L12.7444 12.8571ZM13.5364 12.9003L13.57 12.9147L13.606 12.9363V12.9483L13.57 12.9531C13.5596 12.9539 13.5492 12.9539 13.5388 12.9531H13.5148L13.5004 12.9435C13.5124 12.9267 13.5196 12.9051 13.534 12.9003H13.5364ZM13.3012 12.8523L13.3348 12.8643L13.3708 12.8883C13.3708 12.8907 13.3732 12.8955 13.3708 12.8979C13.3497 12.9036 13.3278 12.906 13.306 12.9051L13.282 12.9027L13.2652 12.8955C13.2796 12.8787 13.2868 12.8547 13.3012 12.8523ZM12.8836 12.9027L12.9196 12.9147L12.9556 12.9387V12.9507C12.9336 12.9559 12.9109 12.9575 12.8884 12.9555H12.8644L12.85 12.9459C12.862 12.9291 12.8692 12.9075 12.8836 12.9027ZM12.6676 12.1875C12.6532 12.1803 12.6436 12.1635 12.6532 12.1491C12.6556 12.1443 12.6628 12.1443 12.6676 12.1395C12.6724 12.1323 12.67 12.1275 12.6676 12.1203L12.6652 12.0963L12.6604 12.0723C12.6604 12.0579 12.6604 12.0483 12.67 12.0339C12.6748 12.0267 12.6868 12.0195 12.6892 12.0195C12.694 12.0219 12.6892 12.0315 12.6892 12.0387C12.6892 12.0507 12.6916 12.0555 12.6964 12.0675L12.7132 12.0987C12.718 12.1131 12.7228 12.1179 12.7228 12.1323C12.7228 12.1443 12.7228 12.1491 12.718 12.1611C12.7149 12.1687 12.71 12.1753 12.7036 12.1803C12.698 12.185 12.6914 12.1882 12.6844 12.1899C12.6797 12.1913 12.6747 12.1913 12.67 12.1899L12.6676 12.1875Z" fill="#0065BD"/>
<path d="M12.5904 13.0065L12.576 13.0113L12.5568 13.0305C12.5472 13.0401 12.54 13.0425 12.528 13.0497L12.5136 13.0617C12.5064 13.0689 12.5136 13.0761 12.5064 13.0857C12.504 13.0953 12.4992 13.1001 12.492 13.1097C12.4824 13.1193 12.4752 13.1217 12.468 13.1337L12.4392 13.1577L12.432 13.1601H12.4176C12.408 13.1649 12.4056 13.1745 12.3984 13.1793L12.4056 13.1937L12.4248 13.2273C12.4296 13.2345 12.4296 13.2441 12.4368 13.2465C12.4488 13.2513 12.4584 13.2513 12.468 13.2489C12.4872 13.2537 12.4992 13.2537 12.516 13.2609L12.552 13.2801C12.564 13.2873 12.5712 13.2897 12.5832 13.2921H12.6264V13.2993L12.6744 13.3233C12.6733 13.3264 12.6725 13.3296 12.672 13.3329C12.6696 13.3401 12.6672 13.3497 12.6696 13.3521C12.684 13.3977 12.6984 13.4241 12.7056 13.4289C12.72 13.4337 12.7248 13.4505 12.732 13.4649L12.7248 13.4721C12.7104 13.4865 12.696 13.4961 12.684 13.5153C12.6672 13.5441 12.6552 13.5441 12.6768 13.5825L12.7128 13.6401C12.7224 13.6569 12.7272 13.6689 12.732 13.6881C12.7368 13.7049 12.7392 13.7169 12.7392 13.7361L12.7632 13.7433L12.78 13.7289L12.7944 13.7001V13.6761C12.7896 13.6737 12.7872 13.6665 12.7896 13.6593C12.7896 13.6497 12.8016 13.6521 12.8064 13.6449C12.8136 13.6329 12.7968 13.6257 12.7896 13.6185C12.7752 13.6017 12.756 13.5969 12.7512 13.5729C12.7512 13.5681 12.7512 13.5633 12.7608 13.5561L12.8088 13.5129C12.8136 13.5153 12.8232 13.5177 12.8328 13.5153L12.864 13.5249C12.8784 13.5297 12.8856 13.5249 12.8928 13.5249H12.9024L12.9048 13.5393C12.9072 13.5633 12.9024 13.6113 12.9096 13.6233L12.9168 13.6377L12.9216 13.6521V13.7001L12.9168 13.7409C12.9168 13.7505 12.912 13.7577 12.9048 13.7649C12.9 13.7745 12.8904 13.7745 12.8808 13.7817V13.8057L12.9072 13.8177L12.9384 13.8249L12.9552 13.8177L12.9576 13.8033L12.9696 13.7913C12.9792 13.7865 12.9888 13.7913 12.9912 13.7889C12.996 13.7817 12.9912 13.7793 12.9912 13.7697C12.9912 13.7553 12.9864 13.7457 12.984 13.7313C12.9806 13.7091 12.9798 13.6865 12.9816 13.6641C12.9816 13.6497 12.9816 13.6401 12.9864 13.6281C12.9888 13.6041 12.996 13.5945 13.0008 13.5753C13.008 13.5513 13.008 13.5369 13.0104 13.5153C13.0914 13.5275 13.1739 13.5226 13.2528 13.5009C13.272 13.5177 13.2936 13.5297 13.3176 13.5393V13.5633C13.3176 13.5705 13.3176 13.5729 13.3224 13.5801L13.3296 13.5873C13.3368 13.5873 13.3416 13.5873 13.3464 13.5825C13.3512 13.5777 13.3512 13.5729 13.3512 13.5657V13.5489H13.3944V13.5753C13.3968 13.5825 13.4016 13.5849 13.4064 13.5849C13.4087 13.586 13.4111 13.5865 13.4136 13.5865C13.4161 13.5865 13.4186 13.586 13.4208 13.5849C13.428 13.5801 13.4256 13.5705 13.428 13.5609V13.5441L13.452 13.5345C13.4527 13.5417 13.4527 13.5489 13.452 13.5561L13.4448 13.5777C13.44 13.5921 13.4328 13.5969 13.4256 13.6113C13.416 13.6257 13.4136 13.6353 13.4016 13.6473L13.3872 13.6641L13.3728 13.6857L13.3512 13.7097C13.3344 13.7241 13.3224 13.7145 13.3032 13.7313L13.296 13.7553L13.3296 13.7697L13.3608 13.7745L13.3704 13.7697C13.3704 13.7625 13.3704 13.7553 13.3776 13.7505C13.3824 13.7433 13.3872 13.7433 13.3944 13.7409C13.404 13.7409 13.4136 13.7409 13.4184 13.7361C13.428 13.7289 13.428 13.7121 13.4352 13.7001C13.4529 13.6645 13.4774 13.6327 13.5072 13.6065L13.548 13.5729C13.5528 13.5633 13.56 13.5609 13.56 13.5489L13.5552 13.5345L13.5504 13.5105C13.5864 13.5273 13.5744 13.5273 13.5792 13.5441C13.5864 13.5585 13.5792 13.5681 13.5816 13.5849C13.584 13.6041 13.5936 13.6113 13.5936 13.6305C13.596 13.6521 13.5912 13.6641 13.5864 13.6857C13.584 13.7049 13.584 13.7169 13.5744 13.7337C13.5688 13.7477 13.5597 13.7601 13.548 13.7697L13.5336 13.7817L13.5312 13.8057L13.5576 13.8153L13.596 13.8249L13.6056 13.8177C13.6104 13.8009 13.6056 13.7769 13.6152 13.7769C13.6248 13.7745 13.632 13.7769 13.6344 13.7697V13.7529L13.6512 13.6449L13.6608 13.5993L13.6704 13.5585C13.6872 13.5105 13.6656 13.5033 13.6464 13.4721C13.6344 13.4553 13.6296 13.4481 13.6296 13.4361V13.3665C13.6289 13.3441 13.6289 13.3217 13.6296 13.2993L13.6392 13.2945C13.668 13.2777 13.68 13.2729 13.6968 13.2345C13.7019 13.2232 13.7044 13.2109 13.704 13.1985V13.1745L13.6944 13.1505C13.6907 13.1434 13.6858 13.1369 13.68 13.1313C13.6632 13.1073 13.6392 13.1049 13.6152 13.0953C13.5792 13.0833 13.5552 13.0857 13.5192 13.0833C13.476 13.0785 13.4544 13.0785 13.4136 13.0833C13.3656 13.0833 13.3392 13.0929 13.2912 13.1001L13.1736 13.1097C13.1184 13.1097 13.068 13.0977 13.0344 13.1001C12.9768 13.1049 12.9744 13.1193 12.8856 13.1265C12.8553 13.129 12.8249 13.1306 12.7944 13.1313L12.7416 13.1145C12.7632 13.1073 12.768 13.1025 12.7776 13.0905C12.7848 13.0809 12.7824 13.0737 12.792 13.0641L12.8088 13.0401C12.8025 13.0353 12.7951 13.032 12.7872 13.0305H12.7632C12.7532 13.0309 12.7434 13.0333 12.7344 13.0377L12.7152 13.0521L12.6624 13.0233C12.6399 13.0118 12.6155 13.0045 12.5904 13.0017V13.0065Z" fill="#D52B1E"/>
<path d="M13.6519 13.3062L13.6327 13.3134C13.6111 13.323 13.5943 13.323 13.5703 13.3254C13.5079 13.3302 13.4671 13.299 13.4023 13.3038C13.3687 13.3062 13.3543 13.3326 13.3183 13.3422C13.3049 13.3451 13.2912 13.3467 13.2775 13.347L13.2895 13.323C13.2895 13.323 13.2607 13.3302 13.2415 13.3302C13.2285 13.33 13.2157 13.3284 13.2031 13.3254L13.2271 13.3014L13.1959 13.2966C13.1871 13.2923 13.179 13.2866 13.1719 13.2798C13.1856 13.278 13.1992 13.2756 13.2127 13.2726C13.2487 13.263 13.2607 13.2438 13.3063 13.239C13.3327 13.239 13.3783 13.239 13.4887 13.2582C13.5607 13.2702 13.5943 13.263 13.6207 13.251C13.6399 13.2438 13.6447 13.227 13.6471 13.2078C13.6495 13.1886 13.6375 13.1742 13.6279 13.1646C13.6255 13.1646 13.6159 13.1574 13.6015 13.155" stroke="#FEDF00" stroke-width="0.08" stroke-linecap="round"/>
<path d="M12.5954 13.093C12.5834 13.093 12.5738 13.093 12.5642 13.1002C12.5522 13.1074 12.5498 13.117 12.5402 13.1266C12.5522 13.129 12.5594 13.1362 12.569 13.1338C12.5786 13.1338 12.581 13.129 12.5882 13.1218C12.5954 13.1122 12.5978 13.105 12.5978 13.093H12.5954Z" fill="#FCD900" stroke="#FEDF00" stroke-width="0.04"/>
<path d="M12.8649 13.4099C12.8712 13.4291 12.8792 13.4475 12.8889 13.4651C12.8937 13.4843 12.8889 13.4939 12.8937 13.5131V13.5515M13.0569 13.3835L13.0497 13.4147L13.0257 13.4987V13.5155M12.7617 13.4195C12.7833 13.4243 12.7761 13.4987 12.8073 13.5155" stroke="#FEDF00" stroke-width="0.08" stroke-linecap="round"/>
<path d="M13.4426 13.5535L13.4522 13.5463C13.4764 13.5364 13.4985 13.5217 13.517 13.5032" stroke="#FEDF00" stroke-width="0.08"/>
<path d="M13.2586 13.5106C13.3426 13.489 13.4002 13.4482 13.441 13.441M13.345 13.405H13.3642C13.4002 13.3978 13.405 13.4194 13.429 13.4338C13.4746 13.4578 13.4794 13.489 13.5322 13.5154L13.5418 13.5178L13.561 13.5274" stroke="#FEDF00" stroke-width="0.08" stroke-linecap="round"/>
<path d="M12.4254 13.1869H12.4422L12.4614 13.1821C12.4686 13.1821 12.4734 13.1821 12.4782 13.1869C12.483 13.1869 12.483 13.1893 12.4854 13.1941C12.4854 13.1989 12.4902 13.2013 12.4878 13.2061C12.4878 13.2109 12.4806 13.2157 12.4734 13.2157C12.4686 13.2157 12.4638 13.2157 12.4614 13.2085C12.4608 13.207 12.4604 13.2054 12.4604 13.2037C12.4604 13.2021 12.4608 13.2005 12.4614 13.1989C12.4581 13.2006 12.4544 13.2015 12.4506 13.2015C12.4469 13.2015 12.4431 13.2006 12.4398 13.1989C12.4367 13.198 12.4338 13.1965 12.4314 13.1944C12.4289 13.1923 12.4269 13.1898 12.4254 13.1869Z" fill="#FCD900" stroke="#FEDF00" stroke-width="0.04"/>
<path d="M12.6028 13.4192L12.5548 13.3976C12.5644 13.3928 12.5716 13.3928 12.5788 13.3856C12.586 13.376 12.586 13.3664 12.5908 13.3544C12.5956 13.3424 12.5956 13.3304 12.6076 13.3208C12.6148 13.316 12.6268 13.316 12.634 13.3184C12.6436 13.3184 12.6532 13.328 12.6556 13.3352C12.6556 13.3496 12.6508 13.3592 12.6484 13.3712C12.6484 13.3856 12.6412 13.3928 12.6436 13.4048C12.6436 13.4144 12.6484 13.4192 12.6532 13.4288L12.6052 13.4192H12.6028ZM12.5788 13.4432C12.5784 13.4404 12.5788 13.4376 12.58 13.435C12.5812 13.4324 12.5831 13.4303 12.5855 13.4288C12.5879 13.4273 12.5907 13.4266 12.5936 13.4267C12.5964 13.4268 12.5991 13.4277 12.6014 13.4293C12.6037 13.431 12.6055 13.4333 12.6065 13.4359C12.6075 13.4386 12.6077 13.4415 12.6071 13.4442C12.6065 13.447 12.605 13.4495 12.603 13.4515C12.601 13.4534 12.5984 13.4547 12.5956 13.4552C12.5935 13.4556 12.5914 13.4555 12.5894 13.4549C12.5873 13.4544 12.5854 13.4533 12.5838 13.452C12.5822 13.4506 12.581 13.4489 12.5801 13.447C12.5792 13.445 12.5788 13.443 12.5788 13.4408V13.4432ZM12.538 13.0448H12.5332C12.5236 13.0352 12.5236 13.0256 12.5188 13.016C12.5149 13.0069 12.5125 12.9972 12.5116 12.9872V12.9392C12.5116 12.932 12.5116 12.9248 12.5068 12.9176C12.5068 12.9128 12.4972 12.9104 12.4996 12.908C12.4996 12.9056 12.5068 12.908 12.5092 12.908C12.5188 12.908 12.5236 12.9104 12.5332 12.9176C12.5404 12.9248 12.5452 12.932 12.5476 12.9416L12.5572 12.9776L12.5644 12.9968L12.5764 13.0112L12.5596 13.0304L12.538 13.0448ZM12.6244 13.2992L12.6772 13.3232C12.7133 13.3015 12.7425 13.2698 12.7612 13.232C12.7828 13.1888 12.7852 13.1672 12.7948 13.1264L12.7516 13.1144H12.742C12.73 13.1576 12.7252 13.1792 12.7036 13.2152C12.6844 13.2464 12.6628 13.2704 12.6412 13.2872L12.6244 13.2992ZM12.7444 13.736L12.7636 13.7048L12.7972 13.6784H12.8068C12.8065 13.7014 12.8025 13.7241 12.7948 13.7456L12.7852 13.7696L12.7732 13.7816C12.7612 13.7624 12.742 13.7504 12.742 13.7336L12.7444 13.736ZM13.5364 13.7792L13.57 13.7936L13.606 13.8152V13.8272L13.57 13.832C13.5596 13.8328 13.5492 13.8328 13.5388 13.832H13.5148L13.5004 13.8224C13.5124 13.8056 13.5196 13.784 13.534 13.7792H13.5364ZM13.3012 13.7312L13.3348 13.7432L13.3708 13.7672C13.3708 13.7696 13.3732 13.7744 13.3708 13.7768C13.3497 13.7825 13.3278 13.7849 13.306 13.784L13.282 13.7816L13.2652 13.7744C13.2796 13.7576 13.2868 13.7336 13.3012 13.7312ZM12.8836 13.7816L12.9196 13.7936L12.9556 13.8176V13.8296C12.9336 13.8347 12.9109 13.8364 12.8884 13.8344H12.8644L12.85 13.8248C12.862 13.808 12.8692 13.7864 12.8836 13.7816ZM12.6676 13.0664C12.6532 13.0592 12.6436 13.0424 12.6532 13.028C12.6556 13.0232 12.6628 13.0232 12.6676 13.0184C12.6724 13.0112 12.67 13.0064 12.6676 12.9992L12.6652 12.9752L12.6604 12.9512C12.6604 12.9368 12.6604 12.9272 12.67 12.9128C12.6748 12.9056 12.6868 12.8984 12.6892 12.8984C12.694 12.9008 12.6892 12.9104 12.6892 12.9176C12.6892 12.9296 12.6916 12.9344 12.6964 12.9464L12.7132 12.9776C12.718 12.992 12.7228 12.9968 12.7228 13.0112C12.7228 13.0232 12.7228 13.028 12.718 13.04C12.7149 13.0476 12.71 13.0542 12.7036 13.0592C12.698 13.0639 12.6914 13.0671 12.6844 13.0688C12.6797 13.0702 12.6747 13.0702 12.67 13.0688L12.6676 13.0664Z" fill="#0065BD"/>
<path d="M9.9035 9.78125H11.876V11.75H9.9035V9.78125ZM12.086 9.78125H14.0585V11.75H12.086V9.78125ZM9.911 13.4563C9.91475 13.4938 9.92975 13.5537 9.9635 13.6175C10.001 13.6737 9.986 13.67 10.0648 13.76C10.1085 13.8041 10.1592 13.8409 10.2148 13.8688C10.392 13.945 10.5847 13.9785 10.7773 13.9663C10.8785 13.9625 10.9573 13.9512 11.0248 13.94C11.1615 13.9218 11.2994 13.9143 11.4373 13.9175C11.4935 13.9175 11.5498 13.9287 11.6135 13.94C11.7448 13.9662 11.876 14.015 11.876 14.015V11.9637H9.9035V13.3625L9.911 13.4525V13.4563ZM14.051 13.4563C14.0431 13.5127 14.0253 13.5672 13.9985 13.6175C13.961 13.6737 13.976 13.67 13.8973 13.76C13.8534 13.8041 13.8028 13.8408 13.7473 13.8688C13.6985 13.895 13.661 13.9063 13.5823 13.9288C13.4527 13.963 13.3184 13.9756 13.1848 13.9663C13.0835 13.9625 13.0048 13.9475 12.941 13.94C12.8515 13.9279 12.7613 13.9204 12.671 13.9175C12.6223 13.9152 12.5735 13.9152 12.5248 13.9175C12.4685 13.9175 12.4123 13.9287 12.3485 13.94C12.2173 13.9662 12.086 14.015 12.086 14.015V11.96H14.0623V13.3663L14.0548 13.4563H14.051Z" stroke="#703D29" stroke-width="0.0625"/>
</g>
<defs>
<clipPath id="clip0_69_1237">
<rect width="24" height="24" rx="12" fill="white"/>
</clipPath>
</defs>
</svg>
