<svg width="24" height="24" viewBox="0 0 24 24" fill="none" xmlns="http://www.w3.org/2000/svg">
<g clip-path="url(#clip0_69_1011)">
<path fill-rule="evenodd" clip-rule="evenodd" d="M0 0H24V24.4H0V0Z" fill="black"/>
<path fill-rule="evenodd" clip-rule="evenodd" d="M16 0H24V24.4H16V0Z" fill="#009900"/>
<path fill-rule="evenodd" clip-rule="evenodd" d="M8 0H16V24.4H8V0Z" fill="#BF0000"/>
<path fill-rule="evenodd" clip-rule="evenodd" d="M13.0904 13.6394H13.5538C13.5538 13.8181 13.6655 14.0079 13.805 14.114H12.9117C13.0513 13.9912 13.0904 13.8348 13.0904 13.6394Z" fill="white" stroke="#BD6B00" stroke-width="0.0930529"/>
<path fill-rule="evenodd" clip-rule="evenodd" d="M10.1423 10.9989L10.3992 11.278L13.5816 11.2892L13.8384 11.01L13.0233 10.9933L12.6324 10.7141H11.3483L10.9798 10.9989H10.1423Z" fill="white"/>
<path fill-rule="evenodd" clip-rule="evenodd" d="M11.443 10.6747H12.5428C12.688 10.5965 12.7383 10.3453 12.7383 10.2057C12.7383 9.79257 12.4424 9.59156 12.152 9.58043C12.1074 9.58043 12.0571 9.54691 12.0459 9.50785C12.0181 9.41852 12.0236 9.35707 11.9901 9.36266C11.9678 9.36266 11.9734 9.41852 11.951 9.49668C11.9343 9.54132 11.8896 9.58043 11.8394 9.58601C11.482 9.60273 11.2476 9.86514 11.2531 10.2057C11.2587 10.429 11.2866 10.5631 11.443 10.6747Z" fill="white" stroke="#BD6B00" stroke-width="0.0930529"/>
<path fill-rule="evenodd" clip-rule="evenodd" d="M9.63938 14.5886H14.346L13.9273 14.248H10.0525L9.63379 14.5886H9.63938Z" fill="white"/>
<path fill-rule="evenodd" clip-rule="evenodd" d="M11.7993 13.299L11.883 13.5558H12.0784L11.9221 13.299H11.7993ZM11.6876 13.5558L11.7434 13.8126H11.9668L11.883 13.5558H11.6876ZM12.0784 13.5558L12.2347 13.8126H12.5641L12.3073 13.5558H12.0784ZM10.1522 14.1365C10.3253 13.9745 10.4369 13.8405 10.4369 13.6451H10.8613C10.8613 13.7568 10.9004 13.8182 10.9618 13.8126H11.3917V13.5614H11.079V12.1823C11.0679 11.691 11.6708 11.4119 11.9165 11.4119H10.4481V11.3672H13.5356V11.4119H12.0561C12.4971 11.4119 12.9215 11.8306 12.927 12.1823V12.5732H12.8712L12.8656 12.1879C12.8656 11.8027 12.3799 11.4453 11.9891 11.4565C11.6541 11.4621 11.1293 11.7859 11.1349 12.1823V12.3052L11.9332 12.3108L11.9277 12.4503L12.0505 12.5285L12.3017 12.6066V12.8188L12.4804 12.8691V13.0757L12.6926 13.1705V13.3827L12.8321 13.4665L12.8265 13.6842L13.0108 13.8126H12.5753L12.8489 14.1197H12.4413L12.2403 13.8126H11.9779L12.0951 14.1141H11.816L11.7434 13.8126H11.3973V14.1365H10.1578H10.1522ZM11.3917 13.299V13.5558H11.6876L11.6318 13.299H11.3861H11.3917Z" fill="white"/>
<path d="M11.883 13.5558L11.7993 13.299H11.9221L12.0784 13.5558M11.883 13.5558H12.0784M11.883 13.5558L11.9668 13.8126H11.7434M11.883 13.5558H11.6876M12.0784 13.5558L12.2347 13.8126H12.5641L12.3073 13.5558H12.0784ZM11.7434 13.8126L11.6876 13.5558M11.7434 13.8126L11.816 14.1141H12.0951L11.9779 13.8126H12.2403L12.4413 14.1197H12.8489L12.5753 13.8126H13.0108L12.8265 13.6842L12.8321 13.4665L12.6926 13.3827V13.1705L12.4804 13.0757V12.8691L12.3017 12.8188V12.6066L12.0505 12.5285L11.9277 12.4503L11.9332 12.3108L11.1349 12.3052V12.1823C11.1293 11.7859 11.6541 11.4621 11.9891 11.4565C12.3799 11.4453 12.8656 11.8027 12.8656 12.1879L12.8712 12.5732H12.927V12.1823C12.9215 11.8306 12.4971 11.4119 12.0561 11.4119H13.5356V11.3672H10.4481V11.4119H11.9165C11.6708 11.4119 11.0679 11.691 11.079 12.1823V13.5614H11.3917V13.8126H10.9618C10.9004 13.8182 10.8613 13.7568 10.8613 13.6451H10.4369C10.4369 13.8405 10.3253 13.9745 10.1522 14.1365H10.1578H11.3973V13.8126H11.7434ZM11.6876 13.5558H11.3917V13.299H11.3861H11.6318L11.6876 13.5558Z" stroke="#BD6B00" stroke-width="0.0930529"/>
<path fill-rule="evenodd" clip-rule="evenodd" d="M11.4089 12.8535H11.5931V13.2778H11.4089V12.8535Z" stroke="#BD6B00" stroke-width="0.0930529"/>
<path fill-rule="evenodd" clip-rule="evenodd" d="M11.1464 13.3047H11.325V12.9921C11.325 12.8581 11.4478 12.7185 11.5037 12.7129C11.5706 12.7129 11.6656 12.8413 11.6712 12.9809V13.3047H11.861V12.5007H11.1464V13.3047ZM12.5756 13.489H12.7989V13.6676H12.5756V13.489ZM12.4416 13.1931H12.665V13.3661H12.4416V13.1931ZM12.2239 12.8916H12.4472V13.0647H12.2239V12.8916ZM12.0397 12.6403H12.263V12.8134H12.0397V12.6403Z" stroke="#BD6B00" stroke-width="0.0930529"/>
<path fill-rule="evenodd" clip-rule="evenodd" d="M11.8896 13.3057L12.1241 13.3169L12.5317 13.6742V13.462L12.3921 13.3615V13.194L12.1911 13.0824V12.8981L11.9957 12.8311V12.5911L11.9008 12.5073L11.8952 13.3113L11.8896 13.3057Z" stroke="#BD6B00" stroke-width="0.0930529"/>
<path fill-rule="evenodd" clip-rule="evenodd" d="M12.8608 12.7747H12.9167V13.1711H12.8608V12.7747Z" fill="white" stroke="#BD6B00" stroke-width="0.0930529"/>
<path fill-rule="evenodd" clip-rule="evenodd" d="M9.61623 11.446C9.54924 11.3343 9.46549 11.6023 9.18073 11.7977C9.05233 11.8871 8.95741 12.1271 8.95741 12.2834C8.95741 12.3951 8.96859 12.5012 8.95741 12.6073C8.95183 12.6687 8.87925 12.8195 8.92948 12.8585C9.05233 12.9478 9.21424 13.16 9.28682 13.2326C9.35381 13.2884 9.40963 12.9367 9.45432 12.7859C9.51014 12.6184 9.48779 12.4119 9.63299 12.2611C9.73345 12.1495 9.99028 12.049 9.96798 12.0043L9.61623 11.446Z" fill="white" stroke="#BD6B00" stroke-width="0.0930529"/>
<path fill-rule="evenodd" clip-rule="evenodd" d="M9.59953 12.3053C9.57735 12.2526 9.54724 12.2037 9.51019 12.1602C9.47462 12.1161 9.42854 12.0815 9.37621 12.0597C9.32476 12.0444 9.27847 12.0155 9.24219 11.9759C9.22085 11.952 9.20552 11.9233 9.19754 11.8922C9.1912 11.8552 9.1912 11.8175 9.19754 11.7805L9.18078 11.7973C9.05239 11.8866 8.95747 12.1267 8.95747 12.283C8.95575 12.3258 8.95575 12.3686 8.95747 12.4114C8.96864 12.4393 8.97423 12.4673 8.99098 12.484L9.05239 12.5287L9.20313 12.5677C9.25958 12.5931 9.30926 12.6314 9.34828 12.6794C9.38894 12.7225 9.42279 12.7714 9.44879 12.8246L9.45996 12.7799C9.5046 12.6292 9.49902 12.4505 9.60511 12.3053H9.59953Z" fill="#BF0000" stroke="#BD6B00" stroke-width="0.0930529"/>
<path d="M9.19753 11.7739C9.1696 11.9582 9.2757 12.0252 9.37616 12.0586C9.47667 12.0977 9.56042 12.2038 9.59952 12.3043M8.94629 12.388C8.99094 12.5555 9.10261 12.5332 9.20312 12.5667C9.30358 12.6058 9.40968 12.7342 9.45437 12.8347" stroke="#BD6B00" stroke-width="0.0930529"/>
<path fill-rule="evenodd" clip-rule="evenodd" d="M9.52222 11.3333L9.57804 11.2998L10.5663 12.9692L10.5104 13.0027L9.52222 11.3277V11.3333Z" fill="white" stroke="#BD6B00" stroke-width="0.0930529"/>
<path fill-rule="evenodd" clip-rule="evenodd" d="M9.62737 11.267C9.62737 11.2966 9.61561 11.3251 9.59469 11.346C9.57373 11.3669 9.54534 11.3787 9.51573 11.3787C9.48612 11.3787 9.45769 11.3669 9.43677 11.346C9.41581 11.3251 9.40405 11.2966 9.40405 11.267C9.40405 11.2374 9.41581 11.209 9.43677 11.188C9.45769 11.1671 9.48612 11.1554 9.51573 11.1554C9.54534 11.1554 9.57373 11.1671 9.59469 11.188C9.61561 11.209 9.62737 11.2374 9.62737 11.267ZM10.476 9.92704H10.878V10.0164H10.476V9.92704ZM10.476 10.1001H10.878V10.8706H10.476V10.1001ZM10.4537 9.82099H10.9004C10.9115 9.67021 10.7608 9.5083 10.677 9.5083C10.5877 9.51389 10.4481 9.6758 10.4537 9.82099Z" fill="white" stroke="#BD6B00" stroke-width="0.0930529"/>
<path fill-rule="evenodd" clip-rule="evenodd" d="M11.5881 9.73154C11.5043 9.76505 11.4373 9.85997 11.3982 9.97161C11.3592 10.0833 11.3424 10.2117 11.3647 10.3122C11.3647 10.3513 11.3815 10.3736 11.3926 10.3959C11.4038 10.4127 11.415 10.4239 11.4261 10.4239C11.4429 10.4239 11.4596 10.4239 11.4652 10.4071L11.4764 10.3625C11.4708 10.2508 11.4708 10.1503 11.4931 10.0609C11.518 9.96174 11.5773 9.87467 11.6606 9.81528C11.6774 9.80411 11.683 9.7874 11.6886 9.77622C11.6884 9.76148 11.6823 9.74745 11.6718 9.73712C11.6495 9.72036 11.616 9.71482 11.5881 9.73154ZM11.5992 9.75388C11.6215 9.74271 11.6439 9.75388 11.6551 9.75947L11.6606 9.77064C11.6606 9.77622 11.6606 9.78181 11.6439 9.79298C11.5581 9.85586 11.4969 9.94666 11.4708 10.0498C11.4477 10.1523 11.442 10.258 11.4541 10.3625C11.4541 10.3745 11.4501 10.3863 11.4429 10.3959C11.4429 10.3959 11.4429 10.4015 11.4317 10.3959C11.4317 10.3959 11.4206 10.3959 11.4094 10.3792C11.3983 10.3582 11.3908 10.3356 11.387 10.3122C11.3703 10.2117 11.387 10.0889 11.4261 9.97719C11.4652 9.87673 11.5267 9.7874 11.5936 9.75388H11.5992Z" fill="#BD6B00"/>
<path fill-rule="evenodd" clip-rule="evenodd" d="M11.7335 9.83736C11.6498 9.87646 11.594 9.96579 11.566 10.0718C11.5364 10.1791 11.5307 10.2915 11.5493 10.4012C11.5604 10.4738 11.6051 10.5129 11.6386 10.5129C11.6554 10.5185 11.6721 10.5129 11.6833 10.4962C11.6945 10.4794 11.7001 10.4627 11.6945 10.4403C11.6721 10.351 11.6665 10.2505 11.6777 10.1556C11.6945 10.0607 11.7335 9.97692 11.8005 9.92669C11.8173 9.90993 11.8284 9.89876 11.8284 9.88204C11.829 9.87595 11.8282 9.86986 11.8263 9.86411C11.8244 9.85836 11.8213 9.85306 11.8173 9.84853C11.7949 9.83177 11.7615 9.82618 11.7335 9.83736ZM11.7447 9.86529C11.767 9.85411 11.7893 9.8597 11.8005 9.86529L11.8061 9.88204L11.7893 9.90435C11.7519 9.93442 11.7208 9.97159 11.6977 10.0138C11.6747 10.0559 11.6603 10.1022 11.6554 10.15C11.6386 10.2505 11.6498 10.3566 11.6665 10.4403C11.6721 10.4627 11.6665 10.4738 11.6665 10.485L11.6386 10.4906C11.6218 10.4906 11.5828 10.4627 11.5716 10.3957C11.5549 10.3007 11.5604 10.1779 11.5884 10.0774C11.6163 9.97692 11.6721 9.89317 11.7447 9.86529Z" fill="#BD6B00"/>
<path fill-rule="evenodd" clip-rule="evenodd" d="M10.4551 11.4951H10.9018V12.1093H10.4551V11.4951ZM10.483 12.4666H10.9129V12.6006H10.483V12.4666ZM10.4718 12.6955H10.9185V13.1812H10.4718V12.6955ZM10.4383 13.2818H10.9241V13.5553H10.4383V13.2818ZM10.4998 12.3549H10.8906L10.9687 12.2209H10.4327L10.4998 12.3549ZM11.0246 11.8748L11.0301 11.5398H11.2982C11.1829 11.6295 11.0894 11.744 11.0246 11.8748Z" fill="white" stroke="#BD6B00" stroke-width="0.0930529"/>
<path fill-rule="evenodd" clip-rule="evenodd" d="M10.5262 12.0149C10.5262 12.0874 10.61 12.0596 10.61 12.0205V11.7078C10.61 11.652 10.744 11.6631 10.744 11.7022V12.0372C10.744 12.093 10.8389 12.0874 10.8333 12.0372V11.6464C10.8333 11.5236 10.5262 11.5291 10.5262 11.6408V12.0149ZM10.5262 12.7574H10.8445V13.1482H10.5262V12.7574Z" stroke="#BD6B00" stroke-width="0.0930529"/>
<path fill-rule="evenodd" clip-rule="evenodd" d="M10.7275 12.9246H10.8391V12.9804H10.7275V12.9246ZM10.5321 12.9246H10.6438V12.9804H10.5321V12.9246ZM10.6438 12.7571H10.7275V12.9246H10.6438V12.7571ZM10.6438 12.9804H10.7275V13.1535H10.6438V12.9804ZM8.87386 8.79304C8.89621 9.10014 8.7957 9.27323 8.63379 9.2453C8.58915 9.0778 8.68961 8.96054 8.87386 8.79304ZM8.51098 9.47978C8.36579 9.40721 8.47188 8.83773 8.5277 8.59766C8.5668 8.90472 8.63938 9.34022 8.51098 9.47978Z" fill="white"/>
<path d="M10.7275 12.9246H10.8391V12.9804H10.7275M10.7275 12.9246V12.9804M10.7275 12.9246V12.7571H10.6438V12.9246M10.7275 12.9246H10.6438M10.7275 12.9804H10.6438M10.7275 12.9804V13.1535H10.6438V12.9804M10.6438 12.9246H10.5321V12.9804H10.6438M10.6438 12.9246V12.9804M8.87386 8.79304C8.89621 9.10014 8.7957 9.27323 8.63379 9.2453C8.58915 9.0778 8.68961 8.96054 8.87386 8.79304ZM8.51098 9.47978C8.36579 9.40721 8.47188 8.83773 8.5277 8.59766C8.5668 8.90472 8.63938 9.34022 8.51098 9.47978Z" stroke="#BD6B00" stroke-width="0.0930529"/>
<path fill-rule="evenodd" clip-rule="evenodd" d="M8.56181 9.50824C8.80747 9.59199 9.00844 9.32957 9.06989 9.02251C8.86888 9.30164 8.53947 9.30164 8.5674 9.50824H8.56181ZM8.37756 9.79296C8.18772 9.74272 8.2994 9.13973 8.33846 8.89966C8.37756 9.1509 8.51154 9.70921 8.37756 9.79296ZM8.44455 9.77624C8.45572 9.56964 8.66232 9.62546 8.80747 9.51382C8.77954 9.62546 8.69579 9.80413 8.44455 9.77624ZM8.21006 10.0554C8.02022 9.99955 8.1319 9.35191 8.12073 9.08391C8.17655 9.3184 8.35522 9.99397 8.21006 10.0554ZM8.2994 10.0275C8.45572 10.0777 8.66232 9.97162 8.67904 9.78741C8.53947 9.88229 8.32733 9.80971 8.2994 10.0275Z" fill="white" stroke="#BD6B00" stroke-width="0.0930529"/>
<path fill-rule="evenodd" clip-rule="evenodd" d="M8.06467 10.3397C7.886 10.3564 7.96416 9.8037 7.96416 9.29004C8.03115 9.77018 8.21541 10.2113 8.06467 10.3397Z" fill="white" stroke="#BD6B00" stroke-width="0.0930529"/>
<path fill-rule="evenodd" clip-rule="evenodd" d="M8.13257 10.3178C8.25538 10.3736 8.47315 10.2788 8.53455 10.0722C8.31124 10.1671 8.16604 10.0722 8.13257 10.3178ZM9.56183 9.07837C9.52836 9.35196 9.41668 9.50828 9.25477 9.48035C9.21013 9.31286 9.34411 9.20122 9.56183 9.07837ZM9.12638 9.7707C9.39992 9.80976 9.49484 9.6032 9.68468 9.32961C9.42227 9.51945 9.1152 9.55293 9.12638 9.77628V9.7707Z" fill="white" stroke="#BD6B00" stroke-width="0.0930529"/>
<path fill-rule="evenodd" clip-rule="evenodd" d="M9.04224 9.74312C8.89709 9.56449 9.04224 9.33555 9.15392 9.14575C9.13157 9.43047 9.22649 9.59238 9.04224 9.74312ZM8.98642 10.039C8.96408 9.86038 9.2656 9.82128 9.39958 9.7264C9.34935 9.82687 9.2879 10.1005 8.98083 10.039H8.98642Z" fill="white" stroke="#BD6B00" stroke-width="0.0930529"/>
<path fill-rule="evenodd" clip-rule="evenodd" d="M8.91864 10.0378C8.71204 10.0155 8.79579 9.66372 8.94653 9.47388C8.88512 9.74188 9.0582 9.92613 8.91864 10.0378Z" fill="white" stroke="#BD6B00" stroke-width="0.0930529"/>
<path fill-rule="evenodd" clip-rule="evenodd" d="M8.76336 10.3343C8.52888 10.2227 8.67962 9.93236 8.76336 9.75928C8.72989 9.98818 8.91969 10.1613 8.76336 10.3288V10.3343Z" fill="white" stroke="#BD6B00" stroke-width="0.0930529"/>
<path fill-rule="evenodd" clip-rule="evenodd" d="M8.80717 10.3006C8.92998 10.4681 9.17005 10.2559 9.22033 10.0103C9.01373 10.1833 8.8574 10.1554 8.80717 10.3061V10.3006ZM8.27117 11.4339C8.24882 11.1939 8.42749 10.7639 8.2991 10.5295C8.28234 10.496 8.33816 10.4122 8.37726 10.4625C8.43308 10.5462 8.48894 10.7807 8.51683 10.6914C8.53917 10.5964 8.54476 10.4345 8.6285 10.4011C8.68432 10.3843 8.7569 10.3675 8.7346 10.4569C8.71225 10.535 8.66756 10.6467 8.71784 10.6523C8.74573 10.6523 8.82947 10.5406 8.90209 10.4848C8.95791 10.4401 9.04725 10.5183 8.95791 10.5853C8.68991 10.8086 8.42749 10.9147 8.27117 11.4339ZM7.78543 15.0351C7.75192 15.0351 7.71286 15.0183 7.75192 15.0686C8.07019 15.4594 8.15949 15.5711 8.62292 15.5152C9.08631 15.4538 9.19798 15.3254 9.52739 15.1412C9.62277 15.091 9.72714 15.0602 9.83445 15.0506C9.94181 15.0411 10.05 15.0529 10.1527 15.0853C10.242 15.1133 10.2979 15.1133 10.2309 15.0463C10.1639 14.9848 10.0913 14.8955 10.0075 14.8341C9.79926 14.6948 9.54541 14.6408 9.29849 14.6833C8.9635 14.7392 8.67874 14.9569 8.33816 15.0407C8.15575 15.0775 7.96784 15.0775 7.78543 15.0407V15.0351ZM10.4542 15.733C10.51 15.7441 10.5491 15.8558 10.5826 15.7832C10.6273 15.6548 10.5938 15.5599 10.538 15.5655C10.471 15.5822 10.3649 15.733 10.4542 15.733Z" fill="white" stroke="#BD6B00" stroke-width="0.0930529"/>
<path fill-rule="evenodd" clip-rule="evenodd" d="M7.56865 11.2492C7.50166 11.1711 7.51841 11.1487 7.62451 11.1431C7.70267 11.1431 7.85899 11.199 7.9204 11.1487C7.97626 11.1097 7.94833 10.9422 7.97626 10.8696C7.98739 10.8193 8.01532 10.7579 8.0879 10.8584C8.28891 11.1822 8.53457 11.5731 8.6462 11.9527C8.70206 12.1649 8.6462 12.4999 8.4564 12.7232C8.4564 12.5334 8.38941 12.4049 8.30567 12.243C8.19399 12.0365 7.79759 11.4614 7.56865 11.2436V11.2492Z" fill="white"/>
<path fill-rule="evenodd" clip-rule="evenodd" d="M8.39919 12.9478C8.62255 12.9478 8.66161 12.6519 8.66161 12.5681C8.54997 12.5905 8.36013 12.7747 8.39919 12.9478ZM10.3254 15.8454C10.4817 15.8789 10.4761 15.4993 10.3142 15.3374C10.3868 15.583 10.2026 15.8064 10.3198 15.8398L10.3254 15.8454ZM10.2584 15.8398C10.2696 16.0185 9.81174 15.8175 9.7001 15.6723C9.96806 15.7896 10.2472 15.6947 10.2584 15.8398ZM10.063 15.583C10.0797 15.7561 9.67217 15.5998 9.54378 15.4658C9.81732 15.5551 10.0462 15.4378 10.063 15.5775V15.583ZM10.1356 15.6053C10.2975 15.6444 10.2696 15.2481 10.1133 15.114C10.1914 15.3764 10.0128 15.5663 10.1356 15.6053ZM9.96806 15.3653C10.13 15.4044 10.0351 15.0638 9.91783 14.9298C9.94017 15.1754 9.86201 15.3485 9.97365 15.3653H9.96806ZM9.88431 15.3653C9.90107 15.5439 9.58284 15.41 9.46003 15.2369C9.72799 15.3206 9.8676 15.2201 9.88431 15.3653ZM9.80057 15.2257C9.90107 15.1531 9.79498 14.9577 9.59401 14.9689C9.61635 15.0861 9.68334 15.2983 9.80057 15.2257ZM10.5822 16.0464C10.5878 16.2251 10.1356 16.1358 9.99041 15.9459C10.2808 16.0017 10.5655 15.9013 10.5766 16.0464H10.5822ZM8.77329 15.7226C8.79004 15.9013 8.29314 15.7003 8.17029 15.5328C8.43271 15.6221 8.75653 15.5775 8.77329 15.7226ZM9.07476 15.7952C9.18085 15.7226 8.96867 15.5328 8.79563 15.4881C8.81793 15.6053 8.96313 15.8678 9.07476 15.8008V15.7952ZM9.10828 15.9236C9.11945 16.0855 8.57786 15.9962 8.43829 15.8454C8.90168 15.9292 9.09152 15.784 9.10828 15.9236Z" fill="white" stroke="#BD6B00" stroke-width="0.0930529"/>
<path fill-rule="evenodd" clip-rule="evenodd" d="M9.3659 16.0296C9.42176 16.1804 8.90252 16.1413 8.71826 16.0576C9.01415 16.0576 9.32126 15.9235 9.3659 16.0296Z" fill="white" stroke="#BD6B00" stroke-width="0.0930529"/>
<path fill-rule="evenodd" clip-rule="evenodd" d="M9.6051 16.1413C9.66092 16.2753 9.18078 16.2753 8.94629 16.1971C9.25894 16.1971 9.54924 16.0073 9.6051 16.1413ZM9.95681 16.2139C10.0461 16.3758 9.53253 16.387 9.37062 16.3088C9.66092 16.2697 9.88424 16.0854 9.95681 16.2139ZM9.35944 15.9403C9.19753 16.0408 9.20871 15.7393 9.08027 15.5327C9.28128 15.717 9.47108 15.8454 9.35944 15.9403Z" fill="white" stroke="#BD6B00" stroke-width="0.0930529"/>
<path fill-rule="evenodd" clip-rule="evenodd" d="M9.6501 16.0512C9.51612 16.1684 9.40444 15.7553 9.28163 15.5208C9.4826 15.7441 9.77295 15.9507 9.6501 16.0456V16.0512ZM10.0298 16.1628C9.9181 16.2969 9.58311 15.772 9.46026 15.4928C9.64451 15.7106 10.1191 16.0512 10.0298 16.1628ZM9.70596 16.5648C9.6501 16.7658 8.80144 16.375 8.70098 16.1684C9.1923 16.4252 9.71709 16.3694 9.70596 16.5592V16.5648ZM6.98691 12.4444C6.96461 12.4165 6.90875 12.4444 6.91992 12.5059C6.93668 12.5896 7.05953 13.0195 7.27167 13.1647C7.42241 13.2763 8.22079 13.4494 8.57813 13.5276C8.77914 13.5667 8.94105 13.6672 9.07503 13.8235C9.02917 13.6382 8.97322 13.4556 8.90753 13.2763C8.84054 13.1088 8.66188 12.9302 8.47203 12.9246C8.1315 12.9079 7.68483 12.8799 7.35542 12.7404C7.20619 12.6775 7.07691 12.5752 6.98132 12.4444H6.98691Z" fill="white" stroke="#BD6B00" stroke-width="0.0930529"/>
<path fill-rule="evenodd" clip-rule="evenodd" d="M8.95771 14.1474C9.06935 14.2255 9.18661 13.9408 9.05263 13.6672C9.04705 13.9297 8.84045 14.019 8.95771 14.1474Z" fill="white" stroke="#BD6B00" stroke-width="0.0930529"/>
<path fill-rule="evenodd" clip-rule="evenodd" d="M9.06358 14.4096C9.21432 14.4543 9.25897 14.1863 9.16409 13.9741C9.1808 14.203 8.92397 14.3426 9.06358 14.4096Z" fill="white" stroke="#BD6B00" stroke-width="0.0930529"/>
<path fill-rule="evenodd" clip-rule="evenodd" d="M9.18172 14.6215C9.32687 14.6941 9.37715 14.4205 9.27664 14.2251C9.28781 14.4763 9.07009 14.5545 9.18172 14.6159V14.6215Z" fill="white" stroke="#BD6B00" stroke-width="0.0930529"/>
<path fill-rule="evenodd" clip-rule="evenodd" d="M9.12062 14.6392C9.0648 14.8067 8.72981 14.4885 8.67395 14.3154C8.88055 14.522 9.15968 14.4941 9.12062 14.6337V14.6392Z" fill="white" stroke="#BD6B00" stroke-width="0.0930529"/>
<path fill-rule="evenodd" clip-rule="evenodd" d="M8.9692 14.3761C8.90221 14.5436 8.48347 14.097 8.38855 13.8904C8.59515 14.097 9.01389 14.2533 8.9692 14.3706V14.3761Z" fill="white" stroke="#BD6B00" stroke-width="0.0930529"/>
<path fill-rule="evenodd" clip-rule="evenodd" d="M8.88594 14.1144C8.8189 14.3098 8.36669 13.7906 8.23267 13.6063C8.45602 13.8073 8.93617 13.9748 8.88594 14.1144ZM8.86918 13.9245C9.03667 13.8911 8.86359 13.757 8.66258 13.5393C8.65699 13.7682 8.69051 13.9301 8.86918 13.9245Z" fill="white" stroke="#BD6B00" stroke-width="0.0930529"/>
<path fill-rule="evenodd" clip-rule="evenodd" d="M8.59483 13.7903C8.66741 13.7177 8.53338 13.6842 8.36589 13.4944C8.338 13.6228 8.52225 13.8573 8.60042 13.7903H8.59483ZM9.37645 14.6389C9.46579 14.6948 9.52161 14.5106 9.41556 14.3486C9.38763 14.5273 9.29829 14.572 9.37645 14.6389ZM7.467 13.5056C7.28279 13.6172 6.98685 13.1706 6.90869 12.9863C7.0706 13.1985 7.50052 13.3883 7.467 13.5056Z" fill="white" stroke="#BD6B00" stroke-width="0.0930529"/>
<path fill-rule="evenodd" clip-rule="evenodd" d="M7.62907 13.7614C7.52302 13.8731 7.1992 13.566 7.08752 13.4097C7.25502 13.5604 7.67376 13.5772 7.62907 13.7614Z" fill="white" stroke="#BD6B00" stroke-width="0.0930529"/>
<path fill-rule="evenodd" clip-rule="evenodd" d="M7.80175 13.9974C7.76827 14.1537 7.29926 13.802 7.18762 13.6345C7.38859 13.8299 7.83526 13.8131 7.80175 13.9974Z" fill="white" stroke="#BD6B00" stroke-width="0.0930529"/>
<path fill-rule="evenodd" clip-rule="evenodd" d="M7.7305 14.1689C7.65788 14.3084 7.27265 13.9567 7.17773 13.778C7.41781 13.979 7.7919 14.0293 7.73608 14.1689H7.7305ZM7.53507 13.4821C7.65234 13.3537 7.60206 13.2923 7.51273 13.0913C7.46808 13.2979 7.39551 13.3816 7.53507 13.4821ZM7.69698 13.7222C7.9203 13.7334 7.69698 13.4654 7.64116 13.2365C7.66347 13.4933 7.5853 13.6999 7.69698 13.7222Z" fill="white" stroke="#BD6B00" stroke-width="0.0930529"/>
<path fill-rule="evenodd" clip-rule="evenodd" d="M7.83621 13.9348C7.98695 13.9013 7.94785 13.6836 7.82504 13.4211C7.85293 13.7059 7.69661 13.8678 7.83621 13.9348ZM7.78035 14.3647C7.72454 14.5322 7.28904 14.1414 7.22205 13.9851C7.44536 14.1749 7.81946 14.2363 7.78035 14.3647Z" fill="white" stroke="#BD6B00" stroke-width="0.0930529"/>
<path fill-rule="evenodd" clip-rule="evenodd" d="M8.04321 14.6329C7.98181 14.8004 7.52397 14.4542 7.3844 14.2644C7.65799 14.4877 8.07673 14.4654 8.04321 14.6329Z" fill="white" stroke="#BD6B00" stroke-width="0.0930529"/>
<path fill-rule="evenodd" clip-rule="evenodd" d="M8.30976 14.9061C8.23719 15.1462 7.757 14.7609 7.61743 14.5711C7.91891 14.8056 8.34324 14.7386 8.30976 14.9061ZM7.86309 14.2919C7.99153 14.3534 8.04176 13.9904 7.96918 13.728C7.96918 14.0072 7.70677 14.2193 7.8575 14.2863L7.86309 14.2919Z" fill="white" stroke="#BD6B00" stroke-width="0.0930529"/>
<path fill-rule="evenodd" clip-rule="evenodd" d="M8.08207 14.5834C8.2384 14.6281 8.19371 14.2316 8.05414 13.9693C8.03738 14.2316 7.92575 14.4717 8.08207 14.5834ZM8.3612 14.857C8.5287 14.8626 8.41707 14.5164 8.27187 14.321C8.29421 14.5722 8.21605 14.8235 8.3612 14.857ZM8.05414 15.0021C7.99832 15.0915 7.87547 14.9295 7.66333 14.8067C7.85317 14.8626 8.07649 14.9184 8.05414 15.0021ZM7.95364 12.0598C8.12113 11.937 7.99274 11.7136 7.95364 11.5015C7.89782 11.7025 7.76384 11.9705 7.95364 12.0598ZM7.95364 12.3557C7.70239 12.3278 7.74149 12.0151 7.73032 11.8142C7.80848 12.0877 8.0095 12.1324 7.95364 12.3613V12.3557ZM7.98715 12.3166C8.19371 12.3055 8.18258 12.0709 8.19371 11.8365C8.08766 12.0542 7.97039 12.0877 7.98715 12.3166Z" fill="white" stroke="#BD6B00" stroke-width="0.0930529"/>
<path fill-rule="evenodd" clip-rule="evenodd" d="M7.98193 12.6065C7.81444 12.6233 7.73627 12.4614 7.70276 12.2157C7.8535 12.4446 7.98752 12.3721 7.98193 12.6065ZM8.03775 12.5898C8.24435 12.6177 8.20525 12.3776 8.20525 12.199C8.13826 12.3665 7.97076 12.4223 8.03775 12.5898Z" fill="white" stroke="#BD6B00" stroke-width="0.0930529"/>
<path fill-rule="evenodd" clip-rule="evenodd" d="M7.71252 12.4893C7.72924 12.6456 7.82975 12.9136 7.99166 12.8522C8.0531 12.6623 7.8465 12.6232 7.71252 12.4893Z" fill="white" stroke="#BD6B00" stroke-width="0.0930529"/>
<path fill-rule="evenodd" clip-rule="evenodd" d="M8.03763 12.8697C7.97064 12.7357 8.20512 12.6631 8.24981 12.4844C8.2777 12.7413 8.2554 12.9088 8.03763 12.8753V12.8697ZM7.37323 11.2394C7.50166 11.1054 7.38998 10.8821 7.35092 10.6699C7.29506 10.8709 7.21131 11.1389 7.37323 11.2394ZM7.37323 11.4962C7.14991 11.5241 7.09409 11.0663 7.06616 10.8653C7.14432 11.1389 7.40116 11.2562 7.37323 11.5018V11.4962ZM7.41791 11.4962C7.57424 11.4125 7.54072 11.2338 7.58541 11.1054C7.4849 11.2673 7.3844 11.2896 7.41791 11.4962Z" fill="white" stroke="#BD6B00" stroke-width="0.0930529"/>
<path fill-rule="evenodd" clip-rule="evenodd" d="M7.36707 11.7968C7.13817 11.8136 6.9986 11.3055 6.98743 11.1045C7.06 11.3781 7.40058 11.5232 7.37265 11.7968H7.36707ZM7.41734 11.7856C7.64066 11.7354 7.61277 11.5902 7.57925 11.3613C7.50667 11.5958 7.38382 11.5456 7.41734 11.7856Z" fill="white" stroke="#BD6B00" stroke-width="0.0930529"/>
<path fill-rule="evenodd" clip-rule="evenodd" d="M7.36684 12.0873C7.11001 12.1319 7.12676 11.7188 6.92017 11.4229C7.09883 11.6462 7.42266 11.9253 7.36684 12.0873ZM7.42266 12.0705C7.62367 12.0817 7.64601 11.7858 7.63484 11.6629C7.58457 11.7858 7.35567 11.8975 7.42824 12.0761L7.42266 12.0705Z" fill="white" stroke="#BD6B00" stroke-width="0.0930529"/>
<path fill-rule="evenodd" clip-rule="evenodd" d="M6.96448 11.769C7.0594 12.0873 7.19896 12.4055 7.36646 12.3832C7.45021 12.1989 7.20455 12.1766 6.96448 11.769Z" fill="white" stroke="#BD6B00" stroke-width="0.0930529"/>
<path fill-rule="evenodd" clip-rule="evenodd" d="M7.42814 12.333C7.36115 12.1934 7.59563 12.1264 7.64028 11.9478C7.66821 12.2046 7.64586 12.3721 7.42814 12.333ZM7.03174 12.132C7.1713 12.4168 7.23271 12.7462 7.42255 12.6959C7.49513 12.4726 7.21041 12.4279 7.03174 12.132Z" fill="white" stroke="#BD6B00" stroke-width="0.0930529"/>
<path fill-rule="evenodd" clip-rule="evenodd" d="M7.46189 12.6457C7.37814 12.4894 7.61263 12.4392 7.67407 12.2326C7.70196 12.5006 7.67407 12.696 7.46189 12.6402V12.6457ZM7.86387 10.7196C7.99789 10.7531 8.14305 10.6023 8.09281 10.3734C7.93649 10.4069 7.86946 10.5521 7.86387 10.7196ZM7.42283 10.6023C7.434 10.6693 7.51775 10.6749 7.48982 10.58C7.46899 10.5184 7.46899 10.4517 7.48982 10.3902C7.5167 10.3067 7.5167 10.2168 7.48982 10.1333C7.46747 10.0775 7.38931 10.111 7.42283 10.1557C7.4563 10.2059 7.46189 10.312 7.434 10.3622C7.40048 10.4348 7.41166 10.5297 7.42283 10.6023ZM8.70136 11.4956C8.64554 11.5682 8.53944 11.518 8.62319 11.4119C8.69018 11.3281 8.79069 11.2555 8.79069 11.1662C8.80186 11.0545 8.86327 10.887 8.92471 10.8256C8.98612 10.7642 9.05869 10.848 8.9917 10.8926C8.91913 10.9373 8.86885 11.1383 8.87444 11.2165C8.86885 11.3281 8.7628 11.4119 8.70136 11.4956ZM8.53386 11.3672C8.47804 11.4454 8.39988 11.3951 8.44452 11.2723C8.48363 11.1886 8.48921 11.0769 8.53386 11.0155C8.60085 10.9206 8.70135 10.8424 8.7628 10.781C8.82979 10.7251 8.87444 10.781 8.81862 10.8368C8.75016 10.9052 8.68846 10.9799 8.63436 11.0601C8.5562 11.183 8.58972 11.2835 8.53386 11.3672ZM7.65731 10.9652C7.65173 11.0769 7.74106 11.0992 7.73548 10.9429C7.73548 10.7754 7.61263 10.6191 7.67966 10.3678C7.7243 10.245 7.7243 10.0161 7.70196 9.89882C7.67966 9.77601 7.59032 9.85418 7.62938 9.9491C7.6629 10.0607 7.6238 10.2617 7.59591 10.3678C7.51216 10.6693 7.6629 10.8145 7.65173 10.9652H7.65731ZM7.89739 10.3511C7.88622 10.4572 7.79688 10.4628 7.82481 10.3231C7.84715 10.2115 7.84715 10.1222 7.82481 10.0273C7.79129 9.90999 7.80247 9.70902 7.82481 9.62528C7.85274 9.53594 7.93649 9.58617 7.90297 9.65316C7.864 9.75871 7.85816 9.87362 7.88622 9.98257C7.91973 10.0942 7.91415 10.2506 7.89739 10.3567V10.3511ZM7.02643 12.4224C7.07108 12.4727 7.13807 12.4392 7.08225 12.3666C7.02643 12.3108 7.04315 12.2996 7.00967 12.2326C6.97616 12.1544 6.98174 12.1154 6.94268 12.0651C6.90358 12.0093 6.85335 12.0651 6.88682 12.1042C6.93151 12.16 6.92034 12.1935 6.94268 12.2438C6.9985 12.3275 6.98174 12.3722 7.02643 12.4224ZM8.16539 13.7959C8.23364 13.8336 8.29164 13.8874 8.33444 13.9525C8.37724 14.0177 8.40353 14.0924 8.41105 14.17C8.41689 14.309 8.45511 14.4447 8.52269 14.5664C8.41105 14.5384 8.35519 14.3598 8.33847 14.1867C8.32171 14.0081 8.22679 13.9355 8.17098 13.7959H8.16539ZM8.45011 14.1253C8.54503 14.2984 8.67347 14.3654 8.6846 14.4938C8.69577 14.6445 8.70694 14.6501 8.74604 14.7953C8.63436 14.7674 8.60643 14.7562 8.57855 14.5328C8.56179 14.3765 8.43339 14.2705 8.45011 14.1253Z" fill="white" stroke="#BD6B00" stroke-width="0.0930529"/>
<path fill-rule="evenodd" clip-rule="evenodd" d="M11.3873 15.7325C11.4431 15.8329 11.499 15.9837 11.6106 15.9558C11.6106 15.8832 11.4934 15.8273 11.3873 15.7325ZM11.5548 15.7659C11.7613 15.8553 11.9456 15.8329 11.9735 15.9669C11.7725 15.9893 11.6943 15.9111 11.5492 15.7659H11.5548ZM10.6559 15.0569C10.7946 15.1647 10.8929 15.3162 10.935 15.4868C10.98 15.6411 11.0478 15.7879 11.136 15.9223C10.9908 15.8247 10.8857 15.678 10.8401 15.5091C10.801 15.3416 10.7508 15.2132 10.6559 15.0625V15.0569ZM10.829 15.0569C10.9853 15.1797 11.1304 15.3249 11.1751 15.4979C11.2198 15.6599 11.2477 15.7827 11.3538 15.9446C11.1863 15.8385 11.1249 15.6822 11.0746 15.5091C11.0355 15.3416 10.935 15.2188 10.829 15.0625V15.0569ZM11.3426 15.4645C11.3404 15.4505 11.3431 15.4362 11.3502 15.424C11.3574 15.4118 11.3685 15.4024 11.3817 15.3975C11.4294 15.3806 11.4779 15.3657 11.5268 15.3528C11.5827 15.336 11.6162 15.3751 11.6162 15.403V15.5147C11.6162 15.5538 11.605 15.5594 11.5771 15.565C11.538 15.5705 11.4822 15.5761 11.4431 15.604C11.4096 15.6264 11.3761 15.6096 11.3593 15.5761L11.3426 15.4645ZM11.9344 15.4645C11.9344 15.4309 11.9233 15.403 11.9009 15.3975C11.8586 15.3799 11.8127 15.3723 11.7669 15.3751C11.7111 15.3751 11.7055 15.3863 11.7055 15.4086V15.5259C11.7055 15.5705 11.7055 15.5705 11.7279 15.5817C11.7669 15.5817 11.8284 15.5817 11.8674 15.6152C11.8953 15.6319 11.9233 15.6152 11.9288 15.5817L11.9344 15.4645Z" fill="white"/>
<path fill-rule="evenodd" clip-rule="evenodd" d="M14.3862 11.446C14.4532 11.3343 14.5369 11.6023 14.8217 11.7977C14.9501 11.8871 15.045 12.1271 15.045 12.2834C15.045 12.3951 15.0338 12.5012 15.045 12.6073C15.0506 12.6687 15.1231 12.8195 15.0729 12.8585C14.9501 12.9478 14.7882 13.16 14.7156 13.2326C14.6486 13.2884 14.5928 12.9367 14.5481 12.7859C14.4923 12.6184 14.5146 12.4119 14.3694 12.2611C14.2689 12.1495 14.0121 12.049 14.0345 12.0043L14.3862 11.446Z" fill="white" stroke="#BD6B00" stroke-width="0.0930529"/>
<path fill-rule="evenodd" clip-rule="evenodd" d="M14.4029 12.3053C14.4251 12.2526 14.4552 12.2037 14.4923 12.1602C14.5279 12.1161 14.5739 12.0815 14.6262 12.0597C14.6777 12.0444 14.724 12.0155 14.7603 11.9759C14.7816 11.952 14.7969 11.9233 14.8049 11.8922C14.8112 11.8552 14.8112 11.8175 14.8049 11.7805L14.8217 11.7973C14.9501 11.8866 15.045 12.1267 15.045 12.283C15.0467 12.3258 15.0467 12.3686 15.045 12.4114C15.0338 12.4393 15.0282 12.4673 15.0115 12.484L14.9501 12.5287L14.7993 12.5677C14.7429 12.5931 14.6932 12.6314 14.6542 12.6794C14.6135 12.7225 14.5797 12.7714 14.5537 12.8246L14.5425 12.7799C14.4978 12.6292 14.5034 12.4505 14.3973 12.3053H14.4029Z" fill="#BF0000" stroke="#BD6B00" stroke-width="0.0930529"/>
<path d="M14.8048 11.7739C14.8327 11.9582 14.7267 12.0252 14.6262 12.0586C14.5257 12.0977 14.4419 12.2038 14.4028 12.3043M15.0561 12.388C15.0114 12.5555 14.8997 12.5332 14.7993 12.5667C14.6988 12.6058 14.5927 12.7342 14.548 12.8347" stroke="#BD6B00" stroke-width="0.0930529"/>
<path fill-rule="evenodd" clip-rule="evenodd" d="M14.4802 11.3333L14.4244 11.2998L13.4362 12.9692L13.492 13.0027L14.4802 11.3277V11.3333Z" fill="white" stroke="#BD6B00" stroke-width="0.0930529"/>
<path fill-rule="evenodd" clip-rule="evenodd" d="M14.375 11.267C14.375 11.2966 14.3868 11.3251 14.4077 11.346C14.4286 11.3669 14.457 11.3787 14.4866 11.3787C14.5163 11.3787 14.5447 11.3669 14.5656 11.346C14.5866 11.3251 14.5983 11.2966 14.5983 11.267C14.5983 11.2374 14.5866 11.209 14.5656 11.188C14.5447 11.1671 14.5163 11.1554 14.4866 11.1554C14.457 11.1554 14.4286 11.1671 14.4077 11.188C14.3868 11.209 14.375 11.2374 14.375 11.267ZM13.5264 9.92704H13.1244V10.0164H13.5264V9.92704ZM13.5264 10.1001H13.1244V10.8706H13.5264V10.1001ZM13.5487 9.82099H13.102C13.0909 9.67021 13.2416 9.5083 13.3253 9.5083C13.4147 9.51389 13.5543 9.6758 13.5487 9.82099Z" fill="white" stroke="#BD6B00" stroke-width="0.0930529"/>
<path fill-rule="evenodd" clip-rule="evenodd" d="M12.4142 9.73154C12.498 9.76505 12.565 9.85997 12.6041 9.97161C12.6431 10.0833 12.6599 10.2117 12.6376 10.3122C12.6376 10.3513 12.6208 10.3736 12.6097 10.3959C12.5985 10.4127 12.5873 10.4239 12.5761 10.4239C12.5594 10.4239 12.5427 10.4239 12.5371 10.4071L12.5259 10.3625C12.5315 10.2508 12.5315 10.1503 12.5091 10.0609C12.4843 9.96174 12.4249 9.87467 12.3417 9.81528C12.3249 9.80411 12.3193 9.7874 12.3137 9.77622C12.3139 9.76148 12.32 9.74745 12.3305 9.73712C12.3528 9.72036 12.3863 9.71482 12.4142 9.73154ZM12.4031 9.75388C12.3808 9.74271 12.3584 9.75388 12.3472 9.75947L12.3417 9.77064C12.3417 9.77622 12.3417 9.78181 12.3584 9.79298C12.4442 9.85586 12.5054 9.94666 12.5315 10.0498C12.5546 10.1523 12.5603 10.258 12.5482 10.3625C12.5482 10.3745 12.5522 10.3863 12.5594 10.3959C12.5594 10.3959 12.5594 10.4015 12.5706 10.3959C12.5706 10.3959 12.5817 10.3959 12.5929 10.3792C12.6039 10.3582 12.6115 10.3356 12.6152 10.3122C12.632 10.2117 12.6152 10.0889 12.5761 9.97719C12.5371 9.87673 12.4756 9.7874 12.4086 9.75388H12.4031Z" fill="#BD6B00"/>
<path fill-rule="evenodd" clip-rule="evenodd" d="M12.2689 9.83736C12.3527 9.87646 12.4085 9.96579 12.4364 10.0718C12.4661 10.1791 12.4718 10.2915 12.4532 10.4012C12.442 10.4738 12.3973 10.5129 12.3638 10.5129C12.3471 10.5185 12.3303 10.5129 12.3191 10.4962C12.308 10.4794 12.3024 10.4627 12.308 10.4403C12.3303 10.351 12.3359 10.2505 12.3247 10.1556C12.308 10.0607 12.2689 9.97692 12.2019 9.92669C12.1852 9.90993 12.174 9.89876 12.174 9.88204C12.1735 9.87595 12.1742 9.86986 12.1761 9.86411C12.1781 9.85836 12.1811 9.85306 12.1852 9.84853C12.2075 9.83177 12.241 9.82618 12.2689 9.83736ZM12.2577 9.86529C12.2354 9.85411 12.2131 9.8597 12.2019 9.86529L12.1963 9.88204L12.2131 9.90435C12.2506 9.93442 12.2817 9.97159 12.3047 10.0138C12.3277 10.0559 12.3421 10.1022 12.3471 10.15C12.3638 10.2505 12.3527 10.3566 12.3359 10.4403C12.3303 10.4627 12.3359 10.4738 12.3359 10.485L12.3638 10.4906C12.3806 10.4906 12.4196 10.4627 12.4308 10.3957C12.4476 10.3007 12.442 10.1779 12.4141 10.0774C12.3862 9.97692 12.3303 9.89317 12.2577 9.86529Z" fill="#BD6B00"/>
<path fill-rule="evenodd" clip-rule="evenodd" d="M13.5473 11.4951H13.1006V12.1093H13.5473V11.4951ZM13.5194 12.4666H13.0895V12.6006H13.5194V12.4666ZM13.5305 12.6955H13.0839V13.1812H13.5305V12.6955ZM13.5641 13.2818H13.0783V13.5553H13.5641V13.2818ZM13.5026 12.3549H13.1118L13.0336 12.2209H13.5696L13.5026 12.3549ZM12.9778 11.8748L12.9722 11.5398H12.7042C12.8194 11.6295 12.913 11.744 12.9778 11.8748Z" fill="white" stroke="#BD6B00" stroke-width="0.0930529"/>
<path fill-rule="evenodd" clip-rule="evenodd" d="M13.4761 12.0149C13.4761 12.0874 13.3923 12.0596 13.3923 12.0205V11.7078C13.3923 11.652 13.2583 11.6631 13.2583 11.7022V12.0372C13.2583 12.093 13.1634 12.0874 13.169 12.0372V11.6464C13.169 11.5236 13.4761 11.5291 13.4761 11.6408V12.0149ZM13.4761 12.7574H13.1578V13.1482H13.4761V12.7574Z" stroke="#BD6B00" stroke-width="0.0930529"/>
<path fill-rule="evenodd" clip-rule="evenodd" d="M13.2748 12.9246H13.1632V12.9804H13.2748V12.9246ZM13.4703 12.9246H13.3586V12.9804H13.4703V12.9246ZM13.3586 12.7571H13.2748V12.9246H13.3586V12.7571ZM13.3586 12.9804H13.2748V13.1535H13.3586V12.9804ZM15.1285 8.79304C15.1061 9.10014 15.2066 9.27323 15.3686 9.2453C15.4132 9.0778 15.3127 8.96054 15.1285 8.79304ZM15.4914 9.47978C15.6366 9.40721 15.5305 8.83773 15.4746 8.59766C15.4355 8.90472 15.363 9.34022 15.4914 9.47978Z" fill="white"/>
<path d="M13.2748 12.9246H13.1632V12.9804H13.2748M13.2748 12.9246V12.9804M13.2748 12.9246V12.7571H13.3586V12.9246M13.2748 12.9246H13.3586M13.2748 12.9804H13.3586M13.2748 12.9804V13.1535H13.3586V12.9804M13.3586 12.9246H13.4703V12.9804H13.3586M13.3586 12.9246V12.9804M15.1285 8.79304C15.1061 9.10014 15.2066 9.27323 15.3686 9.2453C15.4132 9.0778 15.3127 8.96054 15.1285 8.79304ZM15.4914 9.47978C15.6366 9.40721 15.5305 8.83773 15.4746 8.59766C15.4355 8.90472 15.363 9.34022 15.4914 9.47978Z" stroke="#BD6B00" stroke-width="0.0930529"/>
<path fill-rule="evenodd" clip-rule="evenodd" d="M15.4407 9.50824C15.195 9.59199 14.994 9.32957 14.9326 9.02251C15.1336 9.30164 15.463 9.30164 15.4351 9.50824H15.4407ZM15.6249 9.79296C15.8147 9.74272 15.7031 9.13973 15.664 8.89966C15.6249 9.1509 15.4909 9.70921 15.6249 9.79296ZM15.5579 9.77624C15.5467 9.56964 15.3402 9.62546 15.195 9.51382C15.2229 9.62546 15.3067 9.80413 15.5579 9.77624ZM15.7924 10.0554C15.9822 9.99955 15.8706 9.35191 15.8817 9.08391C15.8259 9.3184 15.6473 9.99397 15.7924 10.0554ZM15.7031 10.0275C15.5467 10.0777 15.3402 9.97162 15.3234 9.78741C15.463 9.88229 15.6752 9.80971 15.7031 10.0275Z" fill="white" stroke="#BD6B00" stroke-width="0.0930529"/>
<path fill-rule="evenodd" clip-rule="evenodd" d="M15.9376 10.3397C16.1163 10.3564 16.0382 9.8037 16.0382 9.29004C15.9712 9.77018 15.7869 10.2113 15.9376 10.3397Z" fill="white" stroke="#BD6B00" stroke-width="0.0930529"/>
<path fill-rule="evenodd" clip-rule="evenodd" d="M15.8699 10.3178C15.7471 10.3736 15.5293 10.2788 15.4679 10.0722C15.6912 10.1671 15.8364 10.0722 15.8699 10.3178ZM14.4406 9.07837C14.4741 9.35196 14.5858 9.50828 14.7477 9.48035C14.7923 9.31286 14.6583 9.20122 14.4406 9.07837ZM14.8761 9.7707C14.6025 9.80976 14.5076 9.6032 14.3177 9.32961C14.5802 9.51945 14.8872 9.55293 14.8761 9.77628V9.7707Z" fill="white" stroke="#BD6B00" stroke-width="0.0930529"/>
<path fill-rule="evenodd" clip-rule="evenodd" d="M14.9601 9.74312C15.1053 9.56449 14.9601 9.33555 14.8484 9.14575C14.8708 9.43047 14.7759 9.59238 14.9601 9.74312ZM15.0159 10.039C15.0383 9.86038 14.7368 9.82128 14.6028 9.7264C14.6531 9.82687 14.7145 10.1005 15.0215 10.039H15.0159Z" fill="white" stroke="#BD6B00" stroke-width="0.0930529"/>
<path fill-rule="evenodd" clip-rule="evenodd" d="M15.0837 10.0378C15.2903 10.0155 15.2065 9.66372 15.0558 9.47388C15.1172 9.74188 14.9441 9.92613 15.0837 10.0378Z" fill="white" stroke="#BD6B00" stroke-width="0.0930529"/>
<path fill-rule="evenodd" clip-rule="evenodd" d="M15.239 10.3343C15.4735 10.2227 15.3228 9.93236 15.239 9.75928C15.2725 9.98818 15.0827 10.1613 15.239 10.3288V10.3343Z" fill="white" stroke="#BD6B00" stroke-width="0.0930529"/>
<path fill-rule="evenodd" clip-rule="evenodd" d="M15.1953 10.3006C15.0725 10.4681 14.8324 10.2559 14.7822 10.0103C14.9888 10.1833 15.1451 10.1554 15.1953 10.3061V10.3006ZM15.7313 11.4339C15.7537 11.1939 15.575 10.7639 15.7034 10.5295C15.7201 10.496 15.6643 10.4122 15.6252 10.4625C15.5694 10.5462 15.5136 10.7807 15.4857 10.6914C15.4633 10.5964 15.4577 10.4345 15.374 10.4011C15.3182 10.3843 15.2456 10.3675 15.2679 10.4569C15.2902 10.535 15.3349 10.6467 15.2846 10.6523C15.2568 10.6523 15.173 10.5406 15.1004 10.4848C15.0446 10.4401 14.9552 10.5183 15.0446 10.5853C15.3126 10.8086 15.575 10.9147 15.7313 11.4339ZM16.217 15.0351C16.2506 15.0351 16.2896 15.0183 16.2506 15.0686C15.9323 15.4594 15.843 15.5711 15.3796 15.5152C14.9162 15.4538 14.8045 15.3254 14.4751 15.1412C14.3798 15.091 14.2754 15.0602 14.168 15.0506C14.0607 15.0411 13.9525 15.0529 13.8498 15.0853C13.7605 15.1133 13.7046 15.1133 13.7716 15.0463C13.8386 14.9848 13.9112 14.8955 13.9949 14.8341C14.2032 14.6948 14.4571 14.6408 14.704 14.6833C15.039 14.7392 15.3237 14.9569 15.6643 15.0407C15.8467 15.0775 16.0346 15.0775 16.217 15.0407V15.0351ZM13.5483 15.733C13.4925 15.7441 13.4534 15.8558 13.4199 15.7832C13.3752 15.6548 13.4087 15.5599 13.4645 15.5655C13.5316 15.5822 13.6376 15.733 13.5483 15.733Z" fill="white" stroke="#BD6B00" stroke-width="0.0930529"/>
<path fill-rule="evenodd" clip-rule="evenodd" d="M16.4337 11.2492C16.5007 11.1711 16.484 11.1487 16.3779 11.1431C16.2997 11.1431 16.1434 11.199 16.082 11.1487C16.0262 11.1097 16.0541 10.9422 16.0262 10.8696C16.015 10.8193 15.9871 10.7579 15.9145 10.8584C15.7135 11.1822 15.4678 11.5731 15.3562 11.9527C15.3003 12.1649 15.3562 12.4999 15.546 12.7232C15.546 12.5334 15.613 12.4049 15.6968 12.243C15.8084 12.0365 16.2048 11.4614 16.4337 11.2436V11.2492Z" fill="white"/>
<path fill-rule="evenodd" clip-rule="evenodd" d="M15.6033 12.9478C15.3799 12.9478 15.3408 12.6519 15.3408 12.5681C15.4525 12.5905 15.6423 12.7747 15.6033 12.9478ZM13.677 15.8454C13.5207 15.8789 13.5263 15.4993 13.6882 15.3374C13.6156 15.583 13.7999 15.8064 13.6826 15.8398L13.677 15.8454ZM13.744 15.8398C13.7329 16.0185 14.1907 15.8175 14.3024 15.6723C14.0344 15.7896 13.7552 15.6947 13.744 15.8398ZM13.9395 15.583C13.9227 15.7561 14.3303 15.5998 14.4587 15.4658C14.1851 15.5551 13.9562 15.4378 13.9395 15.5775V15.583ZM13.8669 15.6053C13.705 15.6444 13.7329 15.2481 13.8892 15.114C13.811 15.3764 13.9897 15.5663 13.8669 15.6053ZM14.0344 15.3653C13.8725 15.4044 13.9674 15.0638 14.0846 14.9298C14.0623 15.1754 14.1404 15.3485 14.0288 15.3653H14.0344ZM14.1181 15.3653C14.1014 15.5439 14.4196 15.41 14.5425 15.2369C14.2745 15.3206 14.1349 15.2201 14.1181 15.3653ZM14.2019 15.2257C14.1014 15.1531 14.2075 14.9577 14.4084 14.9689C14.3861 15.0861 14.3191 15.2983 14.2019 15.2257ZM13.4202 16.0464C13.4146 16.2251 13.8669 16.1358 14.012 15.9459C13.7217 16.0017 13.437 15.9013 13.4258 16.0464H13.4202ZM15.2292 15.7226C15.2124 15.9013 15.7093 15.7003 15.8322 15.5328C15.5697 15.6221 15.2459 15.5775 15.2292 15.7226ZM14.9277 15.7952C14.8216 15.7226 15.0338 15.5328 15.2069 15.4881C15.1845 15.6053 15.0394 15.8678 14.9277 15.8008V15.7952ZM14.8942 15.9236C14.883 16.0855 15.4246 15.9962 15.5642 15.8454C15.1008 15.9292 14.9109 15.784 14.8942 15.9236Z" fill="white" stroke="#BD6B00" stroke-width="0.0930529"/>
<path fill-rule="evenodd" clip-rule="evenodd" d="M14.6365 16.0296C14.5807 16.1804 15.0999 16.1413 15.2841 16.0576C14.9882 16.0576 14.6811 15.9235 14.6365 16.0296Z" fill="white" stroke="#BD6B00" stroke-width="0.0930529"/>
<path fill-rule="evenodd" clip-rule="evenodd" d="M14.3972 16.1413C14.3414 16.2753 14.8215 16.2753 15.056 16.1971C14.7434 16.1971 14.4531 16.0073 14.3972 16.1413ZM14.0455 16.2139C13.9562 16.3758 14.4698 16.387 14.6317 16.3088C14.3414 16.2697 14.1181 16.0854 14.0455 16.2139ZM14.6429 15.9403C14.8048 16.0408 14.7937 15.7393 14.9221 15.5327C14.721 15.717 14.5312 15.8454 14.6429 15.9403Z" fill="white" stroke="#BD6B00" stroke-width="0.0930529"/>
<path fill-rule="evenodd" clip-rule="evenodd" d="M14.3523 16.0512C14.4863 16.1684 14.5979 15.7553 14.7207 15.5208C14.5198 15.7441 14.2294 15.9507 14.3523 16.0456V16.0512ZM13.9726 16.1628C14.0843 16.2969 14.4193 15.772 14.5421 15.4928C14.3579 15.7106 13.8833 16.0512 13.9726 16.1628ZM14.2965 16.5648C14.3523 16.7658 15.2009 16.375 15.3014 16.1684C14.8101 16.4252 14.2853 16.3694 14.2965 16.5592V16.5648ZM17.0155 12.4444C17.0378 12.4165 17.0936 12.4444 17.0824 12.5059C17.0657 12.5896 16.9429 13.0195 16.7307 13.1647C16.58 13.2763 15.7816 13.4494 15.4242 13.5276C15.2232 13.5667 15.0613 13.6672 14.9273 13.8235C14.9732 13.6382 15.0291 13.4556 15.0948 13.2763C15.1618 13.1088 15.3405 12.9302 15.5303 12.9246C15.8709 12.9079 16.3175 12.8799 16.647 12.7404C16.7962 12.6775 16.9255 12.5752 17.021 12.4444H17.0155Z" fill="white" stroke="#BD6B00" stroke-width="0.0930529"/>
<path fill-rule="evenodd" clip-rule="evenodd" d="M15.0447 14.1474C14.933 14.2255 14.8158 13.9408 14.9498 13.6672C14.9553 13.9297 15.1619 14.019 15.0447 14.1474Z" fill="white" stroke="#BD6B00" stroke-width="0.0930529"/>
<path fill-rule="evenodd" clip-rule="evenodd" d="M14.9389 14.4096C14.7881 14.4543 14.7435 14.1863 14.8384 13.9741C14.8216 14.203 15.0785 14.3426 14.9389 14.4096Z" fill="white" stroke="#BD6B00" stroke-width="0.0930529"/>
<path fill-rule="evenodd" clip-rule="evenodd" d="M14.8207 14.6215C14.6755 14.6941 14.6252 14.4205 14.7258 14.2251C14.7146 14.4763 14.9324 14.5545 14.8207 14.6159V14.6215Z" fill="white" stroke="#BD6B00" stroke-width="0.0930529"/>
<path fill-rule="evenodd" clip-rule="evenodd" d="M14.8817 14.6392C14.9376 14.8067 15.2726 14.4885 15.3284 14.3154C15.1218 14.522 14.8427 14.4941 14.8817 14.6337V14.6392Z" fill="white" stroke="#BD6B00" stroke-width="0.0930529"/>
<path fill-rule="evenodd" clip-rule="evenodd" d="M15.0333 14.3761C15.1003 14.5436 15.5191 14.097 15.614 13.8904C15.4074 14.097 14.9887 14.2533 15.0333 14.3706V14.3761Z" fill="white" stroke="#BD6B00" stroke-width="0.0930529"/>
<path fill-rule="evenodd" clip-rule="evenodd" d="M15.1164 14.1144C15.1834 14.3098 15.6356 13.7906 15.7696 13.6063C15.5463 13.8073 15.0661 13.9748 15.1164 14.1144ZM15.1331 13.9245C14.9656 13.8911 15.1387 13.757 15.3397 13.5393C15.3453 13.7682 15.3118 13.9301 15.1331 13.9245Z" fill="white" stroke="#BD6B00" stroke-width="0.0930529"/>
<path fill-rule="evenodd" clip-rule="evenodd" d="M15.4075 13.7903C15.3349 13.7177 15.4689 13.6842 15.6364 13.4944C15.6643 13.6228 15.4801 13.8573 15.4019 13.7903H15.4075ZM14.6259 14.6389C14.5365 14.6948 14.4807 14.5106 14.5868 14.3486C14.6147 14.5273 14.704 14.572 14.6259 14.6389ZM16.5353 13.5056C16.7196 13.6172 17.0155 13.1706 17.0936 12.9863C16.9317 13.1985 16.5018 13.3883 16.5353 13.5056Z" fill="white" stroke="#BD6B00" stroke-width="0.0930529"/>
<path fill-rule="evenodd" clip-rule="evenodd" d="M16.3733 13.7614C16.4794 13.8731 16.8032 13.566 16.9149 13.4097C16.7474 13.5604 16.3286 13.5772 16.3733 13.7614Z" fill="white" stroke="#BD6B00" stroke-width="0.0930529"/>
<path fill-rule="evenodd" clip-rule="evenodd" d="M16.2008 13.9974C16.2342 14.1537 16.7033 13.802 16.8149 13.6345C16.6139 13.8299 16.1672 13.8131 16.2008 13.9974Z" fill="white" stroke="#BD6B00" stroke-width="0.0930529"/>
<path fill-rule="evenodd" clip-rule="evenodd" d="M16.272 14.1689C16.3445 14.3084 16.7298 13.9567 16.8247 13.778C16.5846 13.979 16.2105 14.0293 16.2664 14.1689H16.272ZM16.4673 13.4821C16.3501 13.3537 16.4004 13.2923 16.4897 13.0913C16.5343 13.2979 16.6069 13.3816 16.4673 13.4821ZM16.3054 13.7222C16.0821 13.7334 16.3054 13.4654 16.3612 13.2365C16.3389 13.4933 16.4171 13.6999 16.3054 13.7222Z" fill="white" stroke="#BD6B00" stroke-width="0.0930529"/>
<path fill-rule="evenodd" clip-rule="evenodd" d="M16.1662 13.9348C16.0155 13.9013 16.0546 13.6836 16.1774 13.4211C16.1495 13.7059 16.3058 13.8678 16.1662 13.9348ZM16.2221 14.3647C16.2779 14.5322 16.7134 14.1414 16.7804 13.9851C16.5571 14.1749 16.183 14.2363 16.2221 14.3647Z" fill="white" stroke="#BD6B00" stroke-width="0.0930529"/>
<path fill-rule="evenodd" clip-rule="evenodd" d="M15.959 14.6329C16.0205 14.8004 16.4783 14.4542 16.6179 14.2644C16.3443 14.4877 15.9255 14.4654 15.959 14.6329Z" fill="white" stroke="#BD6B00" stroke-width="0.0930529"/>
<path fill-rule="evenodd" clip-rule="evenodd" d="M15.6927 14.9061C15.7653 15.1462 16.2454 14.7609 16.385 14.5711C16.0835 14.8056 15.6592 14.7386 15.6927 14.9061ZM16.1393 14.2919C16.0109 14.3534 15.9607 13.9904 16.0332 13.728C16.0332 14.0072 16.2957 14.2193 16.1449 14.2863L16.1393 14.2919Z" fill="white" stroke="#BD6B00" stroke-width="0.0930529"/>
<path fill-rule="evenodd" clip-rule="evenodd" d="M15.9202 14.5834C15.7639 14.6281 15.8086 14.2316 15.9482 13.9693C15.9649 14.2316 16.0765 14.4717 15.9202 14.5834ZM15.6411 14.857C15.4736 14.8626 15.5852 14.5164 15.7304 14.321C15.7081 14.5722 15.7862 14.8235 15.6411 14.857ZM15.9482 15.0021C16.004 15.0915 16.1268 14.9295 16.339 14.8067C16.1492 14.8626 15.9258 14.9184 15.9482 15.0021ZM16.0487 12.0598C15.8812 11.937 16.0096 11.7136 16.0487 11.5015C16.1045 11.7025 16.2385 11.9705 16.0487 12.0598ZM16.0487 12.3557C16.2999 12.3278 16.2608 12.0151 16.272 11.8142C16.1938 12.0877 15.9928 12.1324 16.0487 12.3613V12.3557ZM16.0151 12.3166C15.8086 12.3055 15.8198 12.0709 15.8086 11.8365C15.9146 12.0542 16.0319 12.0877 16.0151 12.3166Z" fill="white" stroke="#BD6B00" stroke-width="0.0930529"/>
<path fill-rule="evenodd" clip-rule="evenodd" d="M16.0203 12.6065C16.1878 12.6233 16.266 12.4614 16.2995 12.2157C16.1488 12.4446 16.0147 12.3721 16.0203 12.6065ZM15.9645 12.5898C15.7579 12.6177 15.797 12.3776 15.797 12.199C15.864 12.3665 16.0315 12.4223 15.9645 12.5898Z" fill="white" stroke="#BD6B00" stroke-width="0.0930529"/>
<path fill-rule="evenodd" clip-rule="evenodd" d="M16.2899 12.4893C16.2732 12.6456 16.1727 12.9136 16.0108 12.8522C15.9494 12.6623 16.1559 12.6232 16.2899 12.4893Z" fill="white" stroke="#BD6B00" stroke-width="0.0930529"/>
<path fill-rule="evenodd" clip-rule="evenodd" d="M15.9648 12.8697C16.0318 12.7357 15.7973 12.6631 15.7526 12.4844C15.7247 12.7413 15.747 12.9088 15.9648 12.8753V12.8697ZM16.6292 11.2394C16.5008 11.1054 16.6125 10.8821 16.6516 10.6699C16.7074 10.8709 16.7911 11.1389 16.6292 11.2394ZM16.6292 11.4962C16.8525 11.5241 16.9083 11.0663 16.9363 10.8653C16.8581 11.1389 16.6013 11.2562 16.6292 11.5018V11.4962ZM16.5845 11.4962C16.4282 11.4125 16.4617 11.2338 16.417 11.1054C16.5175 11.2673 16.618 11.2896 16.5845 11.4962Z" fill="white" stroke="#BD6B00" stroke-width="0.0930529"/>
<path fill-rule="evenodd" clip-rule="evenodd" d="M16.6353 11.7968C16.8642 11.8136 17.0037 11.3055 17.0149 11.1045C16.9423 11.3781 16.6018 11.5232 16.6297 11.7968H16.6353ZM16.585 11.7856C16.3617 11.7354 16.3896 11.5902 16.4231 11.3613C16.4957 11.5958 16.6185 11.5456 16.585 11.7856Z" fill="white" stroke="#BD6B00" stroke-width="0.0930529"/>
<path fill-rule="evenodd" clip-rule="evenodd" d="M16.6356 12.0873C16.8924 12.1319 16.8756 11.7188 17.0822 11.4229C16.9036 11.6462 16.5798 11.9253 16.6356 12.0873ZM16.5798 12.0705C16.3787 12.0817 16.3564 11.7858 16.3676 11.6629C16.4178 11.7858 16.6467 11.8975 16.5742 12.0761L16.5798 12.0705Z" fill="white" stroke="#BD6B00" stroke-width="0.0930529"/>
<path fill-rule="evenodd" clip-rule="evenodd" d="M17.0379 11.769C16.9429 12.0873 16.8034 12.4055 16.6359 12.3832C16.5521 12.1989 16.7978 12.1766 17.0379 11.769Z" fill="white" stroke="#BD6B00" stroke-width="0.0930529"/>
<path fill-rule="evenodd" clip-rule="evenodd" d="M16.5743 12.333C16.6413 12.1934 16.4068 12.1264 16.3621 11.9478C16.3342 12.2046 16.3566 12.3721 16.5743 12.333ZM16.9707 12.132C16.8311 12.4168 16.7697 12.7462 16.5799 12.6959C16.5073 12.4726 16.7921 12.4279 16.9707 12.132Z" fill="white" stroke="#BD6B00" stroke-width="0.0930529"/>
<path fill-rule="evenodd" clip-rule="evenodd" d="M16.5405 12.6457C16.6242 12.4894 16.3897 12.4392 16.3283 12.2326C16.3004 12.5006 16.3283 12.696 16.5405 12.6402V12.6457ZM16.1385 10.7196C16.0045 10.7531 15.8593 10.6023 15.9095 10.3734C16.0659 10.4069 16.1329 10.5521 16.1385 10.7196ZM16.5795 10.6023C16.5684 10.6693 16.4846 10.6749 16.5125 10.58C16.5334 10.5184 16.5334 10.4517 16.5125 10.3902C16.4856 10.3067 16.4856 10.2168 16.5125 10.1333C16.5349 10.0775 16.613 10.111 16.5795 10.1557C16.546 10.2059 16.5405 10.312 16.5684 10.3622C16.6019 10.4348 16.5907 10.5297 16.5795 10.6023ZM15.301 11.4956C15.3568 11.5682 15.4629 11.518 15.3792 11.4119C15.3122 11.3281 15.2117 11.2555 15.2117 11.1662C15.2005 11.0545 15.1391 10.887 15.0777 10.8256C15.0162 10.7642 14.9437 10.848 15.0106 10.8926C15.0832 10.9373 15.1335 11.1383 15.1279 11.2165C15.1335 11.3281 15.2396 11.4119 15.301 11.4956ZM15.4685 11.3672C15.5243 11.4454 15.6025 11.3951 15.5578 11.2723C15.5187 11.1886 15.5131 11.0769 15.4685 11.0155C15.4015 10.9206 15.301 10.8424 15.2396 10.781C15.1726 10.7251 15.1279 10.781 15.1837 10.8368C15.2522 10.9052 15.3139 10.9799 15.368 11.0601C15.4461 11.183 15.4127 11.2835 15.4685 11.3672ZM16.345 10.9652C16.3506 11.0769 16.2613 11.0992 16.2669 10.9429C16.2669 10.7754 16.3897 10.6191 16.3227 10.3678C16.278 10.245 16.278 10.0161 16.3004 9.89882C16.3227 9.77601 16.412 9.85418 16.373 9.9491C16.3394 10.0607 16.3785 10.2617 16.4064 10.3678C16.4902 10.6693 16.3394 10.8145 16.3506 10.9652H16.345ZM16.105 10.3511C16.1161 10.4572 16.2055 10.4628 16.1775 10.3231C16.1552 10.2115 16.1552 10.1222 16.1775 10.0273C16.2111 9.90999 16.1999 9.70902 16.1775 9.62528C16.1496 9.53594 16.0659 9.58617 16.0994 9.65316C16.1383 9.75871 16.1442 9.87362 16.1161 9.98257C16.0826 10.0942 16.0882 10.2506 16.105 10.3567V10.3511ZM16.976 12.4224C16.9313 12.4727 16.8643 12.4392 16.9201 12.3666C16.976 12.3108 16.9592 12.2996 16.9927 12.2326C17.0262 12.1544 17.0206 12.1154 17.0597 12.0651C17.0988 12.0093 17.149 12.0651 17.1155 12.1042C17.0708 12.16 17.082 12.1935 17.0597 12.2438C17.0038 12.3275 17.0206 12.3722 16.976 12.4224ZM15.837 13.7959C15.7687 13.8336 15.7107 13.8874 15.6679 13.9525C15.6251 14.0177 15.5988 14.0924 15.5913 14.17C15.5855 14.309 15.5472 14.4447 15.4797 14.5664C15.5913 14.5384 15.6472 14.3598 15.6639 14.1867C15.6806 14.0081 15.7756 13.9355 15.8314 13.7959H15.837ZM15.5522 14.1253C15.4573 14.2984 15.3289 14.3654 15.3177 14.4938C15.3066 14.6445 15.2954 14.6501 15.2563 14.7953C15.368 14.7674 15.3959 14.7562 15.4238 14.5328C15.4406 14.3765 15.569 14.2705 15.5522 14.1253Z" fill="white" stroke="#BD6B00" stroke-width="0.0930529"/>
<path fill-rule="evenodd" clip-rule="evenodd" d="M12.6152 15.7325C12.5593 15.8329 12.5035 15.9837 12.3919 15.9558C12.3919 15.8832 12.5091 15.8273 12.6152 15.7325ZM12.4477 15.7659C12.2411 15.8553 12.0569 15.8329 12.0289 15.9669C12.2299 15.9893 12.3081 15.9111 12.4533 15.7659H12.4477ZM13.3466 15.0569C13.2078 15.1647 13.1095 15.3162 13.0674 15.4868C13.0224 15.6411 12.9547 15.7879 12.8664 15.9223C13.0116 15.8247 13.1167 15.678 13.1623 15.5091C13.2014 15.3416 13.2516 15.2132 13.3466 15.0625V15.0569ZM13.1735 15.0569C13.0172 15.1797 12.872 15.3249 12.8274 15.4979C12.7827 15.6599 12.7547 15.7827 12.6487 15.9446C12.8162 15.8385 12.8776 15.6822 12.9278 15.5091C12.9669 15.3416 13.0674 15.2188 13.1735 15.0625V15.0569ZM12.6599 15.4645C12.662 15.4505 12.6594 15.4362 12.6522 15.424C12.6451 15.4118 12.634 15.4024 12.6208 15.3975C12.573 15.3806 12.5246 15.3657 12.4756 15.3528C12.4198 15.336 12.3863 15.3751 12.3863 15.403V15.5147C12.3863 15.5538 12.3974 15.5594 12.4253 15.565C12.4644 15.5705 12.5202 15.5761 12.5593 15.604C12.5928 15.6264 12.6263 15.6096 12.6431 15.5761L12.6599 15.4645ZM12.068 15.4645C12.068 15.4309 12.0792 15.403 12.1015 15.3975C12.1439 15.3799 12.1897 15.3723 12.2355 15.3751C12.2913 15.3751 12.2969 15.3863 12.2969 15.4086V15.5259C12.2969 15.5705 12.2969 15.5705 12.2746 15.5817C12.2355 15.5817 12.1741 15.5817 12.135 15.6152C12.1071 15.6319 12.0792 15.6152 12.0736 15.5817L12.068 15.4645Z" fill="white"/>
<path fill-rule="evenodd" clip-rule="evenodd" d="M13.5918 17.0349C13.5918 17.1018 13.603 17.1577 13.6476 17.2079C13.3922 17.1308 13.1171 17.1527 12.8772 17.2693C12.7767 17.314 12.6538 17.2135 12.7711 17.1186C12.9386 16.9902 13.3126 17.0627 13.5918 17.0349ZM10.3815 17.0349C10.3863 17.0916 10.3787 17.1488 10.3591 17.2024C10.6048 17.1074 10.8672 17.1912 11.1184 17.2917C11.2859 17.3643 11.3027 17.2358 11.2748 17.1968C11.2439 17.1501 11.2026 17.1112 11.1542 17.0831C11.1058 17.055 11.0515 17.0385 10.9956 17.0349H10.3815ZM10.5936 15.8233C10.521 15.7954 10.4429 15.8233 10.3703 15.9014C10.1302 16.136 9.84546 16.3649 9.61656 16.5491C9.53282 16.6217 9.44907 16.7557 9.8064 16.8841C9.82316 16.8952 10.0856 16.9958 10.2531 16.9958C10.3257 16.9958 10.3257 17.0963 10.3089 17.1242C10.281 17.18 10.3033 17.2024 10.2475 17.2526C10.186 17.3084 10.2475 17.3698 10.3033 17.3252C10.5043 17.1465 10.8393 17.2638 11.1575 17.3643C11.2357 17.3866 11.3697 17.381 11.3697 17.2749C11.3697 17.1633 11.4534 17.0851 11.5037 17.0795C11.6377 17.1018 12.2853 17.1074 12.4808 17.0851C12.5924 17.0683 12.6036 17.247 12.665 17.3084C12.7097 17.3587 12.8716 17.3698 12.9888 17.3196C13.2122 17.2191 13.5472 17.2191 13.6867 17.3196C13.7425 17.3587 13.7928 17.3196 13.7593 17.2805C13.7146 17.2247 13.7202 17.1912 13.6979 17.1465C13.642 17.0349 13.6867 17.0125 13.7425 17.0069C14.3567 16.9232 14.5577 16.7166 14.3679 16.5435C14.1222 16.3314 13.8542 16.1136 13.6197 15.8624C13.5527 15.7954 13.508 15.7675 13.3797 15.8233C12.935 16.0249 12.455 16.1369 11.9671 16.1527C11.4944 16.1222 11.0302 16.0127 10.5936 15.8289V15.8233Z" fill="white"/>
<path fill-rule="evenodd" clip-rule="evenodd" d="M13.4865 15.8557L13.3972 15.8781C12.8947 16.0567 12.4369 16.1795 11.9623 16.1795C11.4989 16.1795 11.0132 16.0456 10.5721 15.8669C10.545 15.8575 10.5155 15.8575 10.4884 15.8669C10.4604 15.8725 10.4325 15.8892 10.4158 15.906C10.2094 16.1123 9.98932 16.3045 9.75697 16.4811C9.71787 16.5089 9.72346 16.5815 9.78486 16.6039C10.2483 16.7714 10.7005 17.0784 11.9958 17.0673C13.3079 17.0561 13.7713 16.7546 14.1844 16.615C14.2124 16.6039 14.2402 16.5871 14.257 16.5592C14.261 16.5525 14.2636 16.5451 14.2645 16.5375C14.2655 16.5298 14.2648 16.522 14.2626 16.5145C14.2554 16.4971 14.2439 16.4817 14.2291 16.4699C13.989 16.2745 13.7378 16.1181 13.5703 15.8892C13.5535 15.8613 13.52 15.8557 13.4865 15.8613V15.8557ZM13.4865 15.8836C13.5144 15.8836 13.5424 15.8836 13.548 15.9004C13.7154 16.1405 13.9779 16.2912 14.2124 16.4866L14.2347 16.5257C14.2362 16.5292 14.237 16.533 14.237 16.5369C14.237 16.5407 14.2362 16.5445 14.2347 16.548C14.2291 16.5648 14.2012 16.5815 14.1788 16.5871C13.7545 16.7323 13.3023 17.0338 12.0014 17.0449C10.7061 17.0561 10.2595 16.749 9.79604 16.5815C9.75139 16.5592 9.75698 16.5145 9.77369 16.5034C10.0082 16.3247 10.2315 16.1237 10.4325 15.9227C10.4498 15.9065 10.471 15.895 10.494 15.8892H10.5609C11.0022 16.081 11.4759 16.1871 11.9567 16.2019C12.4425 16.2019 12.9059 16.0791 13.4084 15.906C13.4353 15.8953 13.4634 15.8878 13.4921 15.8836H13.4865Z" fill="#BD6B00"/>
<path fill-rule="evenodd" clip-rule="evenodd" d="M10.3087 7.4315C10.3087 7.35333 10.4203 7.34775 10.4092 7.45384C10.3924 7.58223 10.6604 7.91723 10.6828 8.12382C10.6995 8.26339 10.599 8.38061 10.5041 8.45877C10.4493 8.49758 10.3851 8.52064 10.3181 8.5256C10.2512 8.53051 10.1843 8.51707 10.1244 8.4867C10.0742 8.44206 10.0295 8.30245 10.0686 8.24663C10.0798 8.22987 10.1412 8.45323 10.2752 8.45323C10.4594 8.45323 10.6102 8.31362 10.6102 8.19081C10.6213 7.97863 10.3142 7.64364 10.3087 7.4315ZM10.8391 7.95633C10.8726 7.93398 10.9172 8.0289 10.8837 8.05121C10.8558 8.06796 10.8 7.97863 10.8391 7.95074V7.95633ZM10.9228 7.7609C10.9061 7.77207 10.8781 7.7609 10.8837 7.74973C10.9374 7.67518 11.0058 7.61247 11.0847 7.56548C11.1071 7.5543 11.1406 7.58782 11.1294 7.60458C11.0724 7.67077 11.002 7.72407 10.9228 7.7609ZM11.6263 7.2026C11.643 7.16908 11.7435 7.13002 11.7715 7.10768C11.7938 7.07975 11.805 7.13002 11.7938 7.14674C11.7771 7.18584 11.6877 7.24166 11.6486 7.24724C11.6319 7.24724 11.6151 7.2249 11.6263 7.20818V7.2026ZM11.8664 7.21931C11.8958 7.1451 11.9438 7.0797 12.006 7.02951C12.0339 7.01276 12.0785 7.02951 12.0674 7.05182C12.0294 7.12569 11.9738 7.18899 11.9055 7.23607C11.8887 7.25283 11.8608 7.23607 11.8664 7.21931ZM11.6598 7.37009C11.643 7.38126 11.6542 7.40915 11.6654 7.41474C11.6989 7.42591 11.7491 7.42591 11.7771 7.41474C11.8105 7.39239 11.7938 7.25283 11.7491 7.3254C11.7156 7.37009 11.6933 7.35892 11.6598 7.37009ZM11.2522 7.68274C11.1797 7.62692 11.2746 7.54872 11.3472 7.60458C11.4979 7.71621 11.1238 8.15171 10.9228 8.35272C10.8837 8.39178 10.8502 8.29686 10.9005 8.24663C11.0458 8.12483 11.172 7.98178 11.2746 7.82231C11.2969 7.79442 11.3136 7.73297 11.2522 7.68274ZM12.1065 7.31423C12.112 7.25841 12.0171 7.31423 12.0171 7.24166C12.0171 7.2026 12.1232 7.17467 12.1679 7.21931C12.2405 7.29752 12.1846 7.42591 12.0562 7.43708C11.9557 7.43708 11.7771 7.58782 11.805 7.61575C11.8329 7.65481 12.1065 7.67715 12.2684 7.65481C12.3688 7.63805 12.3465 7.72739 12.246 7.73856C12.1455 7.74973 12.0674 7.73856 11.978 7.77207C11.8664 7.79996 11.8217 7.93957 11.7603 7.99539C11.7491 8.00656 11.7156 7.95074 11.7268 7.9284C11.7715 7.86141 11.8385 7.7609 11.9166 7.72739C11.9613 7.71067 11.7826 7.70508 11.7268 7.68833C11.6821 7.67715 11.6933 7.61575 11.71 7.58223C11.7324 7.53759 11.8999 7.36451 11.9725 7.37009C12.0339 7.37009 12.1009 7.35333 12.1065 7.31423ZM12.3856 7.3254C12.4191 7.29752 12.4415 7.25283 12.4694 7.2249C12.4861 7.20818 12.5196 7.2249 12.514 7.26959C12.5085 7.30865 12.4582 7.33658 12.4303 7.36451C12.4024 7.38126 12.3744 7.34216 12.3912 7.3254H12.3856ZM12.7485 7.19701C12.7988 7.19701 12.8043 7.28634 12.7597 7.29752C12.7262 7.30865 12.7038 7.2026 12.7485 7.19701ZM12.6313 7.47614C12.6313 7.55989 12.6704 7.5543 12.7429 7.54872C12.8155 7.54872 12.8769 7.54872 12.8769 7.48173C12.8769 7.40915 12.8379 7.34216 12.8211 7.39239C12.8155 7.43708 12.8043 7.51524 12.7764 7.48173C12.7541 7.45384 12.7653 7.44825 12.7206 7.4929C12.6927 7.52083 12.6927 7.48173 12.676 7.45943C12.6648 7.44267 12.6313 7.47056 12.6313 7.48173V7.47614ZM12.1176 7.87812C12.1009 7.98422 12.1176 8.12937 12.1679 8.12937C12.2349 8.12937 12.3688 7.90605 12.4359 7.78325C12.4749 7.71621 12.5363 7.70508 12.5085 7.77766C12.4694 7.88371 12.4749 8.11265 12.5085 8.17964C12.5308 8.21312 12.676 8.14613 12.6983 8.09589C12.7429 8.00097 12.7038 7.82789 12.7206 7.7218C12.7262 7.65481 12.7932 7.63805 12.7876 7.70508C12.7788 7.84448 12.777 7.98422 12.782 8.12382C12.782 8.17964 12.9439 8.2578 12.9663 8.09031C12.9774 7.9898 13.0332 7.88371 12.9663 7.77207C12.9216 7.6995 13.0277 7.70508 13.0835 7.80555C13.1226 7.87258 13.05 7.98422 13.0556 8.06796C13.0556 8.20199 12.9551 8.28015 12.8825 8.28015C12.8155 8.28015 12.7709 8.1964 12.715 8.1964C12.6592 8.1964 12.5922 8.29128 12.5475 8.28573C12.3465 8.27456 12.4526 7.9898 12.3912 7.98422C12.3242 7.98422 12.2516 8.26339 12.1679 8.2578C12.0897 8.24663 12.0004 8.02332 12.0394 7.93398C12.0674 7.84465 12.1232 7.82231 12.1176 7.87812ZM13.0612 7.4315C12.9663 7.37568 13.0612 7.2249 13.1114 7.27517C13.2007 7.38681 13.2901 7.63805 13.3571 7.6604C13.3962 7.67157 13.3906 7.47056 13.4185 7.38122C13.4408 7.30865 13.519 7.33099 13.5079 7.42032C13.5023 7.44825 13.3962 7.77766 13.4073 7.78883C13.4817 7.92815 13.5434 8.07389 13.5916 8.22429C13.6083 8.29132 13.5302 8.24663 13.519 8.23546C13.4687 8.1573 13.385 7.87258 13.385 7.8893L13.2901 8.31921C13.2789 8.37503 13.1952 8.3639 13.2175 8.26339C13.2343 8.18523 13.3459 7.79996 13.3404 7.78325C13.2764 7.64557 13.1807 7.52503 13.0612 7.4315Z" fill="white"/>
<path fill-rule="evenodd" clip-rule="evenodd" d="M13.2292 8.35912C13.2068 8.35912 13.1622 8.41494 13.2962 8.44287C13.4693 8.47634 13.6647 8.41494 13.7205 8.24186C13.7931 8.0353 13.8321 7.83988 13.8712 7.7673C13.9159 7.68355 13.9717 7.68914 13.9271 7.56629C13.8991 7.47141 13.8433 7.4993 13.8321 7.54957C13.8042 7.67797 13.687 8.10788 13.6479 8.18045C13.5809 8.32561 13.4413 8.38147 13.2292 8.35912Z" fill="white"/>
<path fill-rule="evenodd" clip-rule="evenodd" d="M13.5862 7.6776C13.5638 7.6385 13.5192 7.6776 13.5303 7.71666C13.533 7.73246 13.5412 7.74674 13.5535 7.75698C13.5658 7.76723 13.5814 7.77273 13.5973 7.77252C13.6364 7.77252 13.7202 7.77811 13.7202 7.71666C13.7202 7.67202 13.6811 7.63292 13.6588 7.68319C13.6308 7.72784 13.6029 7.72225 13.5862 7.68319V7.6776ZM13.6252 7.51011C13.6141 7.52128 13.6252 7.57151 13.642 7.56593C13.7061 7.56639 13.7694 7.55106 13.8263 7.52128C13.8374 7.51011 13.8318 7.48218 13.8151 7.48218C13.7592 7.48218 13.6699 7.48218 13.6252 7.51011ZM14.1166 7.6385C14.1613 7.57151 14.2729 7.56593 14.2282 7.66085C14.1136 7.89109 13.9963 8.11999 13.8765 8.34759C13.8318 8.42575 13.7983 8.38665 13.8318 8.32524C13.8709 8.24708 14.1054 7.65526 14.1166 7.6385Z" fill="white"/>
<path fill-rule="evenodd" clip-rule="evenodd" d="M13.6876 8.459C13.6765 8.41431 13.6039 8.34732 13.6151 8.47017C13.6262 8.68231 13.9221 8.61532 14.0059 8.54274C14.0896 8.47017 14.0226 8.78282 14.1287 8.81629C14.1845 8.83305 14.2962 8.75489 14.352 8.68231C14.5028 8.48688 14.6033 8.20217 14.7429 8.01233C14.7987 7.93416 14.715 7.87835 14.687 7.93975C14.553 8.15189 14.3967 8.58739 14.2236 8.69907C14.0841 8.7884 14.1287 8.58739 14.1231 8.5204C14.1175 8.47575 14.0617 8.40872 13.9892 8.47017C13.9307 8.51691 13.8573 8.54073 13.7826 8.53716C13.7435 8.53716 13.7044 8.53716 13.6876 8.459Z" fill="white"/>
<path fill-rule="evenodd" clip-rule="evenodd" d="M14.2117 8.06755C14.2117 8.05079 14.1503 8.0452 14.1559 8.10665C14.1559 8.15129 14.2117 8.16247 14.2173 8.16247C14.3011 8.09548 14.2006 8.12895 14.2117 8.06196V8.06755ZM14.0833 8.31321C14.0665 8.31321 14.0498 8.36902 14.0945 8.37461L14.3122 8.36348C14.3345 8.36348 14.3457 8.3132 14.2899 8.31879C14.2229 8.31879 14.1392 8.30203 14.0833 8.31879V8.31321ZM10.6217 7.38639C10.6497 7.38639 10.7111 7.46455 10.7055 7.49248C10.7055 7.50366 10.6385 7.49248 10.6217 7.47573C10.605 7.45897 10.6106 7.38639 10.6217 7.38639ZM10.3258 7.96704C10.27 8.00056 10.337 8.06196 10.3817 8.03403C10.538 7.92798 10.7725 7.82189 10.8283 7.61533C10.845 7.5483 10.9065 7.44225 10.9679 7.41991C11.0237 7.39198 11.113 7.526 11.1689 7.41991C11.2024 7.36409 11.3196 7.45897 11.3475 7.39756C11.381 7.32499 11.3643 7.28593 11.3643 7.20772C11.3643 7.16308 11.3252 7.15191 11.2973 7.22448C11.2861 7.258 11.2973 7.29147 11.2917 7.31382C11.2805 7.32499 11.2582 7.33616 11.2359 7.32499C11.2247 7.31382 11.2359 7.28593 11.2024 7.26917C11.1912 7.26917 11.1689 7.26358 11.1577 7.28034C11.1186 7.35292 11.1019 7.41991 11.0405 7.33616C10.9902 7.28034 10.9623 7.16308 10.9288 7.3194C10.9176 7.37522 10.8339 7.45342 10.7836 7.45342C10.7222 7.45342 10.739 7.28593 10.605 7.31382C10.5324 7.33057 10.538 7.46455 10.5491 7.50924C10.5659 7.58182 10.7725 7.53159 10.7557 7.57623C10.7222 7.72697 10.51 7.87771 10.3258 7.96704ZM9.05844 8.70401C9.05285 8.73194 9.08637 8.79893 9.11984 8.80452C9.15336 8.80452 9.1757 8.73194 9.16453 8.70401C9.15336 8.6873 9.06402 8.6873 9.05844 8.70401ZM9.24269 8.9776C9.22035 8.95526 9.15336 9.0167 9.20917 9.06135C9.2371 9.08928 9.34874 9.12275 9.37667 9.07252C9.42136 9.00553 9.33761 8.76546 9.37667 8.73753C9.4046 8.7096 9.533 8.89385 9.59999 8.90503C9.75077 8.92737 9.71166 8.6482 9.87916 8.67054C9.98525 8.68171 9.99643 8.54769 9.97967 8.45836C9.96849 8.37461 9.83452 8.25739 9.77307 8.20153C9.69491 8.13454 9.65585 8.25739 9.70608 8.29086C9.77307 8.34672 9.89033 8.45277 9.90709 8.5198C9.91268 8.55328 9.82893 8.62027 9.79541 8.60355C9.71725 8.55886 9.65026 8.38019 9.58327 8.34113C9.56093 8.32996 9.50511 8.35789 9.52741 8.41371C9.56093 8.47511 9.69491 8.56445 9.70049 8.63144C9.70608 8.6873 9.64467 8.81011 9.59999 8.81011C9.54975 8.81011 9.43249 8.65937 9.39343 8.58679C9.37109 8.55886 9.30968 8.55886 9.29851 8.60914C9.2949 8.71225 9.30426 8.8154 9.32644 8.9162C9.33761 9.00553 9.27616 9.01112 9.24269 8.9776ZM9.01933 8.49746C8.99703 8.5198 9.06402 8.56445 9.07519 8.55328C9.09754 8.53093 9.19242 8.42488 9.1757 8.38578C9.15894 8.35231 9.03051 8.27415 9.0082 8.31321C8.9691 8.37461 9.13101 8.40812 9.10308 8.42488C9.07188 8.44496 9.04369 8.4694 9.01933 8.49746ZM9.24828 8.02849C9.24828 8.02849 9.29292 8.16805 9.32644 8.10665C9.34874 8.06755 9.24828 8.02849 9.24828 8.02849ZM9.31527 8.2518C9.3041 8.2518 9.25945 8.29086 9.28734 8.30762C9.33202 8.32996 9.44925 8.35231 9.42136 8.26856C9.4046 8.21828 9.59999 8.26856 9.54975 8.13454C9.52955 8.09321 9.49616 8.05982 9.45483 8.03962C9.43249 8.03962 9.37108 8.06755 9.41019 8.08989C9.43807 8.10106 9.52182 8.15129 9.49394 8.18481C9.45483 8.21828 9.43249 8.16805 9.38784 8.17922C9.3655 8.17922 9.38226 8.24621 9.3655 8.26297C9.3655 8.27414 9.32644 8.24063 9.31527 8.24621V8.2518ZM9.62233 7.72138C9.58789 7.74986 9.56424 7.78926 9.55534 7.83306C9.55534 7.84423 9.5721 7.86658 9.58327 7.86099C9.61767 7.83487 9.64148 7.79719 9.65026 7.7549C9.65026 7.73814 9.63909 7.71021 9.62233 7.72138ZM9.77865 7.70463C9.73401 7.64881 9.83452 7.55947 9.87358 7.67674C9.90151 7.74931 10.1806 8.11778 10.2365 8.24063C10.2811 8.32438 10.2365 8.35789 10.1862 8.29645C10.0467 8.11778 9.92939 7.89447 9.77865 7.70463ZM10.069 7.71021C10.1192 7.65439 10.2197 7.54272 10.1918 7.4869C10.1695 7.43108 10.1081 7.43108 10.0969 7.44784C10.0411 7.52041 10.1416 7.50366 10.1248 7.526C10.0969 7.58182 10.069 7.61533 10.0522 7.67115C10.0467 7.68791 10.0578 7.72138 10.069 7.71021ZM14.4127 7.88888C14.3736 7.86099 14.4462 7.72138 14.4965 7.77724C14.6249 7.92798 14.6863 8.42488 14.7254 8.79893C14.7254 8.79893 14.6695 8.84921 14.6695 8.83804C14.6695 8.64261 14.5858 8.03403 14.4127 7.88888ZM11.448 7.40874C11.4034 7.30823 11.5094 7.27476 11.5262 7.34175C11.5988 7.66557 11.7774 7.91122 11.917 8.12895C11.9561 8.19598 11.917 8.24063 11.8221 8.17364C11.7551 8.12895 11.6825 7.95587 11.6546 7.95032C11.5876 7.93915 11.4424 8.22946 11.1466 8.14571C11.0684 8.12337 11.074 7.89447 11.0684 7.79396C11.0684 7.74373 11.1242 7.73814 11.1242 7.79396C11.1242 7.88888 11.1242 8.0843 11.2415 8.09548C11.3419 8.09548 11.5541 7.96145 11.5988 7.84982C11.6435 7.73814 11.4927 7.52041 11.448 7.40315V7.40874Z" fill="white"/>
<path fill-rule="evenodd" clip-rule="evenodd" d="M14.4903 8.76035C14.5126 8.69331 14.8309 8.15735 14.8755 8.04009C14.8979 7.98427 14.9872 8.14059 14.8979 8.22434C14.8197 8.29133 14.5908 8.67101 14.5461 8.80499C14.5238 8.86081 14.4679 8.83292 14.4903 8.76035Z" fill="white"/>
<path fill-rule="evenodd" clip-rule="evenodd" d="M15.032 8.2527C15.0879 8.02939 15.233 8.28622 15.1046 8.40903C14.9148 8.59887 14.8534 8.96179 14.5463 9.01761C14.4681 9.03436 14.3229 8.97855 14.2783 8.94503C14.2615 8.93386 14.2894 8.8557 14.3397 8.8948C14.4123 8.95062 14.5686 8.96737 14.6524 8.90034C14.8348 8.72251 14.9659 8.49878 15.032 8.2527ZM11.8496 8.96179C11.8328 8.97855 11.7938 8.97855 11.7882 9.00085C11.7714 9.07901 11.7882 9.1237 11.7714 9.20186C11.7547 9.28002 11.6989 9.28002 11.7044 9.21862C11.7044 9.14046 11.777 9.02319 11.7267 9.01761C11.6933 9.01202 11.6709 8.96737 11.7044 8.94503C11.7659 8.90593 11.7994 8.91151 11.8384 8.92269C11.8552 8.92827 11.8608 8.95062 11.8496 8.96179Z" fill="white"/>
<path fill-rule="evenodd" clip-rule="evenodd" d="M11.8059 8.84916C11.7277 8.92732 11.6496 8.95521 11.577 9.04454C11.5435 9.07806 11.549 9.12829 11.5267 9.17856C11.51 9.2288 11.4485 9.23438 11.4318 9.2288C11.4039 9.20645 11.4095 9.11712 11.376 9.16181C11.3425 9.21204 11.3257 9.27344 11.2811 9.27344C11.242 9.27344 11.1694 9.1897 11.2085 9.1897C11.3369 9.17298 11.3313 9.07806 11.376 9.06689C11.4318 9.0613 11.4318 9.15063 11.4709 9.13388C11.4932 9.1227 11.51 9.01665 11.5379 8.98872C11.6216 8.89939 11.6887 8.85475 11.778 8.78771C11.817 8.75424 11.8506 8.81564 11.8059 8.85474V8.84916ZM12.1018 9.12829C12.0348 9.13946 12.0459 9.22321 12.0683 9.2288C12.0962 9.24555 12.1465 9.25114 12.1632 9.15622C12.1744 9.11712 12.18 9.35165 12.2637 9.26231C12.3195 9.20645 12.4368 9.27344 12.487 9.20645C12.5261 9.15622 12.5429 9.1227 12.5094 9.05571C12.4982 9.03896 12.4535 9.04454 12.4535 9.09482C12.4535 9.13946 12.4256 9.18969 12.3809 9.18415C12.3586 9.17856 12.3921 9.07806 12.3698 9.05013C12.3646 9.045 12.3575 9.04215 12.3502 9.04215C12.3429 9.04215 12.3359 9.045 12.3307 9.05013C12.314 9.07247 12.3475 9.17298 12.2972 9.18415C12.2302 9.19528 12.2637 9.11712 12.2414 9.10599C12.1465 9.0613 12.1409 9.11712 12.1018 9.1227V9.12829ZM12.6043 8.9608C12.6545 8.94962 12.6378 8.94962 12.7159 8.88822C12.7439 8.86588 12.7495 8.93291 12.7439 8.9608C12.7439 8.9999 12.688 8.97197 12.6713 9.01107C12.6489 9.0613 12.6601 9.17856 12.6489 9.22321C12.6489 9.24555 12.6043 9.24555 12.6043 9.22321C12.5931 9.16739 12.6098 9.11153 12.6043 9.03896C12.6043 9.01666 12.5764 8.97755 12.6043 8.96638V8.9608ZM12.3251 8.82123C12.314 8.87146 12.314 8.91056 12.314 8.94962C12.314 8.97755 12.3698 8.9608 12.3698 8.95521C12.3698 8.91056 12.3809 8.84357 12.3698 8.82681C12.3586 8.82123 12.3307 8.81006 12.3251 8.82123Z" fill="white"/>
<path fill-rule="evenodd" clip-rule="evenodd" d="M11.973 8.30249L11.8948 8.61514L11.7832 8.40295V8.62072L11.5375 8.33038L11.6213 8.64303L11.3979 8.45323L11.5208 8.66537L11.1299 8.41413L11.3756 8.70447L11.0629 8.54815L11.2863 8.73795L10.7838 8.54815L11.2695 8.78822C11.4902 8.68776 11.7306 8.63815 11.973 8.64303C12.2466 8.64303 12.4923 8.69889 12.6709 8.78822L13.1622 8.54815L12.6598 8.73795L12.8831 8.54815L12.576 8.70447L12.8161 8.41413L12.4253 8.66537L12.5481 8.45323L12.3248 8.63744L12.4085 8.33038L12.1684 8.62072V8.40295L12.0568 8.61514L11.973 8.30249Z" fill="white"/>
<path d="M11.5428 15.0888L11.527 15.2253H11.506L11.5008 15.1308C11.4945 15.1021 11.4858 15.0739 11.4745 15.0468C11.468 15.0232 11.4592 15.0004 11.4483 14.9786L11.3958 14.905L11.4378 14.7896C11.4728 14.8253 11.4997 14.8683 11.5165 14.9156C11.5349 14.9696 11.5438 15.0264 11.5428 15.0836M11.9103 14.8631C11.9103 14.8998 11.8998 14.9261 11.884 14.9418C11.8735 14.9576 11.8525 14.9733 11.8158 14.9786L11.8368 15.0573C11.842 15.0921 11.842 15.1275 11.8368 15.1623C11.8357 15.1851 11.8339 15.2078 11.8315 15.2306H11.8105C11.8106 15.2077 11.8088 15.1849 11.8053 15.1623C11.8034 15.1445 11.7999 15.1269 11.7948 15.1098L11.7738 15.0573C11.7633 15.0319 11.7511 15.0073 11.737 14.9838L11.6845 14.8946L11.716 14.7896L11.7685 14.8421C11.7843 14.8526 11.8 14.8578 11.821 14.8578C11.863 14.8578 11.884 14.8368 11.884 14.7896H11.905V14.8631M12.241 15.115L12.2148 15.2253C12.1938 15.2253 12.1833 15.2096 12.1728 15.1886L12.1518 15.1203C12.148 15.0907 12.1462 15.0609 12.1465 15.0311C12.1295 15.0368 12.1119 15.0403 12.094 15.0416C12.0695 15.0427 12.0454 15.0353 12.0258 15.0206C12.0177 15.0143 12.0112 15.0064 12.0067 14.9972C12.0022 14.9882 11.9997 14.9782 11.9995 14.9681C11.9995 14.9208 12.0153 14.8788 12.0363 14.8473C12.0625 14.8106 12.0888 14.7948 12.115 14.7896C12.1413 14.7896 12.157 14.7948 12.1675 14.8106C12.1765 14.8248 12.1819 14.841 12.1833 14.8578V14.9628C12.1833 15.0101 12.1885 15.0415 12.199 15.0625C12.199 15.0783 12.2148 15.094 12.241 15.115ZM12.136 14.9313C12.136 14.8998 12.1203 14.8893 12.094 14.8893C12.0832 14.8877 12.0722 14.8896 12.0625 14.8946C12.052 14.8998 12.052 14.9051 12.052 14.9103C12.052 14.9261 12.0678 14.9366 12.1045 14.9366L12.136 14.9313ZM12.5928 15.0888L12.577 15.2253C12.5508 15.2043 12.5245 15.1728 12.5035 15.1203C12.4747 15.0506 12.4519 14.9786 12.4353 14.905C12.409 15.003 12.3775 15.0993 12.3408 15.1938C12.3291 15.2085 12.3149 15.221 12.2988 15.2306V15.0993C12.3303 15.0626 12.346 15.0416 12.3513 15.0206C12.3689 14.9926 12.383 14.9627 12.3933 14.9313L12.4195 14.7896H12.4405L12.4878 14.9313C12.4983 14.9628 12.514 14.9943 12.535 15.0153L12.5875 15.0888" fill="white"/>
<path d="M13.6159 16.3691C13.6369 16.3901 13.6474 16.4111 13.6527 16.4321L13.6737 16.5161L13.6317 16.5213C13.6173 16.4931 13.5997 16.4667 13.5792 16.4426C13.5609 16.4207 13.5416 16.3997 13.5214 16.3796C13.4924 16.3526 13.4626 16.3263 13.4322 16.3008C13.3983 16.2697 13.3633 16.24 13.3272 16.2116C13.3062 16.2011 13.2957 16.1906 13.2957 16.1853C13.2873 16.1727 13.282 16.1583 13.2799 16.1433C13.2744 16.1156 13.2709 16.0876 13.2694 16.0593L13.4112 16.1748C13.4564 16.2117 13.5002 16.2502 13.5424 16.2903L13.6159 16.3691ZM13.1172 16.0646L13.1067 16.1696H12.9439L12.9597 16.0646H13.1172ZM13.5582 16.5318L13.1592 16.6526L13.0909 16.5476L13.4322 16.4426L13.3954 16.4006C13.3819 16.3871 13.3659 16.3764 13.3482 16.3691C13.3484 16.3788 13.3465 16.3884 13.3429 16.3974C13.3394 16.4065 13.334 16.4146 13.3272 16.4216C13.3132 16.4371 13.2949 16.448 13.2747 16.4531C13.2438 16.4616 13.2111 16.4616 13.1802 16.4531C13.1536 16.45 13.1292 16.4368 13.1119 16.4163C13.0886 16.3823 13.0758 16.3421 13.0752 16.3008C13.0752 16.2483 13.0909 16.2168 13.1224 16.2063C13.1592 16.1958 13.2169 16.2063 13.2799 16.2431C13.3418 16.2718 13.3958 16.3151 13.4374 16.3691L13.5582 16.5318ZM13.2537 16.3218C13.2403 16.315 13.2263 16.3097 13.2117 16.3061C13.2014 16.3032 13.1905 16.3032 13.1802 16.3061C13.1749 16.3067 13.1699 16.3084 13.1654 16.3111C13.1608 16.3138 13.1569 16.3175 13.1539 16.3218C13.1505 16.3264 13.1487 16.3319 13.1487 16.3376C13.1487 16.3432 13.1505 16.3488 13.1539 16.3533L13.1802 16.3638H13.2117L13.2327 16.3481L13.2537 16.3218ZM12.8337 16.2378L12.8074 16.3428L12.6394 16.3271L12.6657 16.2221L12.8284 16.2378M13.2222 16.6421L13.1329 16.6631C13.1034 16.6679 13.0733 16.6679 13.0437 16.6631C13.0162 16.6619 12.9894 16.6547 12.9649 16.6421C12.9492 16.6683 12.9229 16.6946 12.8862 16.7051C12.8595 16.7188 12.8313 16.7294 12.8022 16.7366L12.7392 16.7523L12.6867 16.6473L12.7444 16.6316C12.7677 16.6263 12.7905 16.6193 12.8127 16.6106L12.8599 16.5843L12.8074 16.5581H12.7707C12.7672 16.5572 12.7636 16.5572 12.7602 16.5581C12.7552 16.5621 12.7515 16.5676 12.7497 16.5738H12.7234C12.6972 16.5318 12.6919 16.4951 12.7077 16.4688C12.7234 16.4426 12.7549 16.4268 12.8127 16.4163C12.8571 16.4041 12.9034 16.4005 12.9492 16.4058C12.9912 16.4111 13.0174 16.4268 13.0279 16.4531C13.0384 16.4636 13.0384 16.4793 13.0384 16.4898L13.0174 16.5528H13.0437C13.0541 16.5544 13.0648 16.5544 13.0752 16.5528L13.1644 16.5371L13.2169 16.6421M12.7969 16.7366L12.7129 16.7523C12.6732 16.7605 12.6318 16.753 12.5974 16.7313C12.5552 16.6953 12.5242 16.648 12.5082 16.5948L12.4662 16.4793C12.4583 16.4577 12.4436 16.4393 12.4242 16.4268C12.4095 16.4163 12.3936 16.4075 12.3769 16.4006L12.4084 16.2903C12.4399 16.3061 12.4609 16.3218 12.4819 16.3428L12.5344 16.4321L12.5607 16.5108L12.6184 16.6263C12.6342 16.6421 12.6552 16.6473 12.6709 16.6421L12.7602 16.6316L12.7969 16.7366ZM12.4294 16.3428L12.3769 16.4426L12.2194 16.4058L12.2719 16.3061L12.4294 16.3428ZM12.5239 16.7838L12.1302 16.8206L12.1092 16.7156L12.4347 16.6788C12.4274 16.6627 12.4167 16.6483 12.4032 16.6368C12.3865 16.6251 12.3689 16.6146 12.3507 16.6053L12.3769 16.5003C12.4137 16.5213 12.4399 16.5476 12.4609 16.5686C12.4767 16.5948 12.4924 16.6316 12.5029 16.6788L12.5239 16.7838ZM12.2089 16.8363C12.1703 16.8353 12.1317 16.8318 12.0934 16.8258C12.063 16.8196 12.0332 16.8108 12.0042 16.7996C11.9824 16.8093 11.9595 16.8164 11.9359 16.8206C11.9062 16.8231 11.8764 16.8231 11.8467 16.8206H11.7417C11.7197 16.8207 11.698 16.8153 11.6787 16.8048C11.6629 16.7943 11.6524 16.7786 11.6367 16.7523C11.6147 16.7755 11.5877 16.7934 11.5579 16.8048L11.4687 16.8101H11.3794L11.3899 16.6998H11.4792C11.5212 16.6998 11.5579 16.6998 11.5894 16.6788C11.6089 16.6716 11.6258 16.6588 11.6379 16.6419C11.65 16.6251 11.6569 16.6051 11.6577 16.5843L11.6944 16.5896C11.6922 16.6123 11.6904 16.635 11.6892 16.6578C11.6892 16.6736 11.6892 16.6841 11.7049 16.6946C11.7207 16.7051 11.7364 16.7103 11.7574 16.7103H11.8362C11.8887 16.7103 11.9202 16.7103 11.9412 16.6998C11.9727 16.6893 11.9884 16.6736 11.9937 16.6421L11.9989 16.6211C11.9989 16.6211 12.0147 16.6211 12.0252 16.6106L12.0514 16.6001V16.6211C12.0515 16.6263 12.0515 16.6316 12.0514 16.6368L12.0357 16.6946C12.0699 16.7062 12.105 16.715 12.1407 16.7208C12.1459 16.7103 12.1407 16.6998 12.1354 16.6841L12.1197 16.6526C12.1197 16.6469 12.1215 16.6414 12.1249 16.6368L12.1407 16.6263L12.1932 16.5791L12.2194 16.6316V16.6841L12.2089 16.8363ZM11.6157 16.3796L11.5107 16.4478L11.4424 16.4006L11.3689 16.4531L11.2692 16.4006L11.3637 16.3323L11.4424 16.3743L11.5212 16.3218L11.6157 16.3743M11.4582 16.8048L11.0749 16.7418L11.1169 16.6368L11.4424 16.6893C11.4424 16.6683 11.4424 16.6526 11.4319 16.6368C11.4245 16.622 11.4157 16.608 11.4057 16.5948L11.4897 16.5056C11.5107 16.5371 11.5212 16.5581 11.5264 16.5896C11.5264 16.6158 11.5159 16.6526 11.5002 16.6998L11.4582 16.8048ZM11.1379 16.7523L11.0539 16.7366C11.0067 16.7261 10.9804 16.7051 10.9752 16.6736C10.9647 16.6421 10.9804 16.5948 11.0172 16.5266L11.0802 16.4216C11.0959 16.3953 11.1012 16.3743 11.0959 16.3586C11.0929 16.3455 11.0875 16.3331 11.0802 16.3218L11.1957 16.2378C11.2114 16.2641 11.2114 16.2903 11.2114 16.3113C11.2114 16.3376 11.1957 16.3691 11.1747 16.4058L11.1327 16.4793C11.1092 16.5141 11.0931 16.5535 11.0854 16.5948C11.0854 16.6158 11.0959 16.6263 11.1117 16.6316L11.1957 16.6526L11.1379 16.7576M10.9384 16.3376L10.8072 16.3953L10.7127 16.3061L10.8492 16.2536L10.9384 16.3428M10.8859 16.6893C10.862 16.7181 10.8336 16.7429 10.8019 16.7628C10.7748 16.7797 10.7444 16.7904 10.7127 16.7943L10.5867 16.7891C10.5366 16.7816 10.4874 16.7693 10.4397 16.7523C10.3721 16.7334 10.3106 16.6972 10.2612 16.6473C10.2297 16.6053 10.2297 16.5686 10.2612 16.5318C10.2907 16.4976 10.3263 16.4691 10.3662 16.4478C10.4082 16.4216 10.4712 16.3953 10.5657 16.3638L10.5867 16.3901L10.4397 16.4531C10.4134 16.4688 10.3872 16.4846 10.3714 16.5056C10.3504 16.5266 10.3557 16.5581 10.3819 16.5896C10.4767 16.663 10.5928 16.7036 10.7127 16.7051C10.7757 16.7051 10.8177 16.6893 10.8334 16.6683C10.8492 16.6526 10.8544 16.6368 10.8597 16.6158L10.8702 16.5318L11.0014 16.4531C11.0022 16.4795 11.0004 16.5058 10.9962 16.5318C10.985 16.5633 10.9671 16.592 10.9437 16.6158L10.8807 16.6893" fill="#BF0000"/>
</g>
<defs>
<clipPath id="clip0_69_1011">
<rect width="24" height="24" rx="12" fill="white"/>
</clipPath>
</defs>
</svg>
