<svg width="24" height="24" viewBox="0 0 24 24" fill="none" xmlns="http://www.w3.org/2000/svg">
<g clip-path="url(#clip0_69_1386)">
<g clip-path="url(#clip1_69_1386)">
<mask id="mask0_69_1386" style="mask-type:luminance" maskUnits="userSpaceOnUse" x="-4" y="0" width="32" height="24">
<path d="M28 0H-4V24H28V0Z" fill="white"/>
</mask>
<g mask="url(#mask0_69_1386)">
<path d="M-4 0H28V24H-4V0Z" fill="#012169"/>
<path d="M-4 0L12 12M12 0L-4 12" stroke="white" stroke-width="6.25"/>
<mask id="mask1_69_1386" style="mask-type:luminance" maskUnits="userSpaceOnUse" x="-4" y="0" width="19" height="14">
<path d="M-4 0V6H14.665V12H12L-4 0ZM12 0H4V14H-4V12L12 0Z" fill="white"/>
</mask>
<g mask="url(#mask1_69_1386)">
<path d="M-4 0L12 12M12 0L-4 12" stroke="#C8102E" stroke-width="3.75"/>
</g>
<path d="M4 0V14M-4 6H14.665" stroke="white" stroke-width="9.375"/>
<path d="M4 0V14M-4 6H14.665" stroke="#C8102E" stroke-width="6.25"/>
<path d="M-4 12H12V0H17.335V16H-4V12Z" fill="#012169"/>
<path d="M17.2 9.59058C17.2 14.1106 17.685 15.6656 18.665 16.7156C19.1814 17.2887 19.7696 17.7929 20.415 18.2156C21.0603 17.7928 21.6485 17.2886 22.165 16.7156C23.14 15.6656 23.63 14.1106 23.63 9.59058C22.92 9.91558 22.515 10.0756 21.93 10.0656C21.3979 10.0122 20.8823 9.85058 20.415 9.59058C19.9477 9.85058 19.4321 10.0122 18.9 10.0656C18.315 10.0756 17.91 9.91558 17.2 9.59058Z" fill="white"/>
<path d="M20.5183 11.8541C20.6653 12.2145 21.1553 12.6149 21.2827 12.8151C21.1161 13.0153 21.0867 12.9953 21.1063 13.3556C21.4003 13.0453 21.4003 13.0053 21.5963 13.0553C22.0079 13.4758 21.6747 14.3866 21.3219 14.5868C20.9887 14.7971 21.0475 14.5868 20.5379 14.8471C20.7633 15.0473 21.0377 14.8171 21.2631 14.8772C21.3807 15.0273 21.2043 15.2875 21.3023 15.5478C21.4983 15.5278 21.4787 15.1174 21.5179 14.9672C21.6649 14.4267 22.5371 14.0563 22.5763 13.5558C22.7625 13.4657 22.9389 13.5258 23.1643 13.6559C23.0565 13.1955 22.6841 13.1955 22.5861 13.0553C22.3509 12.685 22.1451 12.2745 21.6453 12.1544C21.2729 12.0843 21.3023 12.1844 21.0573 12.0143C20.9005 11.8942 20.4399 11.674 20.5183 11.8541Z" fill="#FF9900"/>
<path d="M21.5284 12.3445C21.5717 12.3445 21.6068 12.3086 21.6068 12.2644C21.6068 12.2202 21.5717 12.1843 21.5284 12.1843C21.4851 12.1843 21.45 12.2202 21.45 12.2644C21.45 12.3086 21.4851 12.3445 21.5284 12.3445Z" fill="white"/>
<path d="M19.2971 13.3992C19.5403 13.0982 19.6579 12.4687 19.7717 12.2601C20.0228 12.3171 20.0192 12.353 20.322 12.167C19.916 12.0464 19.8814 12.0651 19.8331 11.8647C20.0046 11.2967 20.9489 11.1721 21.2871 11.3972C21.6248 11.6 21.4153 11.645 21.8788 11.9837C21.9467 11.6866 21.6192 11.5464 21.5658 11.3148C21.6408 11.1384 21.9486 11.1762 22.1281 10.9661C22.0192 10.7985 21.673 11.0079 21.5248 11.0426C20.9881 11.1623 20.2599 10.5476 19.8083 10.746C19.6433 10.6199 19.6129 10.4325 19.6202 10.1682C19.272 10.4806 19.446 10.8169 19.3705 10.9709C19.1598 11.3562 18.9007 11.7338 19.0303 12.2412C19.1437 12.6102 19.2166 12.5369 19.1838 12.8377C19.1531 13.0354 19.1778 13.5542 19.2971 13.3992Z" fill="#FF9900"/>
<path d="M19.2505 12.259C19.2302 12.2199 19.1828 12.2049 19.1445 12.2256C19.1062 12.2463 19.0916 12.2947 19.1118 12.3338C19.1321 12.3729 19.1795 12.3879 19.2178 12.3672C19.2561 12.3465 19.2707 12.2981 19.2505 12.259Z" fill="white"/>
<path d="M21.2772 13.607C20.8991 13.5501 20.3106 13.7729 20.0769 13.7813C19.9948 13.5324 20.0267 13.5169 19.7142 13.3485C19.8231 13.7657 19.8567 13.7863 19.7137 13.9322C19.1488 14.076 18.5561 13.3152 18.5699 12.9032C18.5652 12.5032 18.7113 12.663 18.7555 12.0828C18.4714 12.177 18.5232 12.5358 18.3566 12.7022C18.17 12.7279 18.0425 12.4394 17.7736 12.3912C17.6894 12.5731 18.0439 12.7673 18.1497 12.8789C18.5276 13.286 18.3889 14.2403 18.7887 14.5324C18.7684 14.7418 18.6271 14.8653 18.4017 14.9956C18.8437 15.1384 19.0356 14.8124 19.2037 14.7987C19.6357 14.7836 20.0861 14.8147 20.4445 14.439C20.6952 14.149 20.596 14.1232 20.8651 13.9964C21.0467 13.921 21.4688 13.6311 21.2772 13.607Z" fill="#FF9900"/>
<path d="M20.3455 14.2378C20.3232 14.2757 20.3352 14.3249 20.3723 14.3477C20.4094 14.3705 20.4576 14.3582 20.4799 14.3203C20.5022 14.2824 20.4902 14.2332 20.4531 14.2104C20.416 14.1877 20.3678 14.1999 20.3455 14.2378Z" fill="white"/>
<path d="M18 15.7546C18.1722 16.1062 18.3964 16.4298 18.665 16.7146C19.1814 17.2878 19.7696 17.792 20.415 18.2146C21.0602 17.7917 21.6484 17.2876 22.165 16.7146C22.4318 16.4295 22.6543 16.1059 22.825 15.7546H18Z" fill="#99CCFF"/>
<path d="M17.0594 9.40942C17.0594 14.1194 17.5694 15.7394 18.5894 16.8344C19.1285 17.4289 19.7419 17.9516 20.4144 18.3894C21.0854 17.9515 21.6971 17.4289 22.2344 16.8344C23.2544 15.7394 23.7644 14.1194 23.7644 9.40942C23.0244 9.74942 22.5994 9.91442 21.9894 9.90942C21.4394 9.89442 20.8594 9.62442 20.4144 9.40942C19.9644 9.62442 19.3844 9.89442 18.8394 9.90942C18.2244 9.91442 17.8044 9.74942 17.0594 9.40942ZM17.2594 9.65942C17.9594 9.98442 18.3594 10.1394 18.9344 10.1294C19.4547 10.0757 19.9585 9.91578 20.4144 9.65942C20.8344 9.85942 21.3794 10.1194 21.8944 10.1294C22.4694 10.1394 22.8644 9.97942 23.5644 9.65942C23.5644 14.1094 23.0844 15.6394 22.1244 16.6694C21.6198 17.2307 21.0451 17.7248 20.4144 18.1394C19.7818 17.7253 19.2054 17.2312 18.6994 16.6694C17.7394 15.6394 17.2644 14.1044 17.2644 9.65942H17.2594Z" fill="#FDC301"/>
</g>
</g>
</g>
<defs>
<clipPath id="clip0_69_1386">
<rect width="24" height="24" rx="12" fill="white"/>
</clipPath>
<clipPath id="clip1_69_1386">
<rect width="32" height="24" fill="white" transform="translate(-4)"/>
</clipPath>
</defs>
</svg>
