<svg width="24" height="24" viewBox="0 0 24 24" fill="none" xmlns="http://www.w3.org/2000/svg">
<g clip-path="url(#clip0_69_1148)">
<path d="M0 -4H24V28.4H0V-4Z" fill="#FF0000"/>
<path d="M10.2005 6.69922C10.028 6.69922 9.73922 6.75547 9.74297 6.88672C9.25547 6.80797 9.20672 7.00672 9.23672 7.18672C9.28172 7.11547 9.33797 7.07422 9.38297 7.07047C9.44672 7.05922 9.51422 7.08172 9.58547 7.12297C9.65267 7.16512 9.7133 7.21693 9.76547 7.27672C9.59297 7.31797 9.45797 7.29172 9.32297 7.26922C9.24668 7.25296 9.17414 7.22242 9.10922 7.17922C9.05297 7.14172 9.03422 7.10422 8.94797 7.01797C8.84672 6.91297 8.73797 6.94297 8.77172 7.10422C8.85047 7.25422 8.98172 7.32172 9.14672 7.35172C9.22547 7.36297 9.34547 7.38922 9.48047 7.38922C9.61547 7.38922 9.76547 7.37047 9.84797 7.38922C9.79922 7.41922 9.74297 7.47547 9.63047 7.49422C9.51797 7.51672 9.34922 7.42672 9.24422 7.40422C9.25547 7.49047 9.36797 7.57297 9.58547 7.61797C9.94547 7.69297 10.2417 7.75297 10.4405 7.86172C10.5976 7.94935 10.7364 8.0665 10.8492 8.20672C11.0255 8.41297 11.0367 8.57422 11.0442 8.61172C11.0817 8.94172 10.9655 9.12922 10.748 9.18922C10.643 9.21547 10.448 9.16297 10.3805 9.08047C10.3055 8.99797 10.2417 8.85547 10.2605 8.63047C10.2792 8.54797 10.3767 8.31922 10.2942 8.27422C9.9032 8.05933 9.49859 7.87018 9.08297 7.70797C8.98922 7.67047 8.91422 7.79797 8.88422 7.85047C8.60732 7.81186 8.34248 7.71208 8.10896 7.55833C7.87547 7.40461 7.67912 7.20079 7.53422 6.96172C7.37672 6.67672 7.11047 6.96172 7.15547 7.23547C7.22672 7.53547 7.45547 7.75297 7.73297 7.91047C8.01422 8.06422 8.37047 8.21797 8.72672 8.21047C8.92172 8.24797 8.91797 8.49547 8.68922 8.54422C8.23547 8.54422 7.87172 8.53672 7.53047 8.20672C7.27172 7.97047 7.12922 8.25172 7.20047 8.40922C7.32797 8.90047 8.02922 9.03922 8.73797 8.88172C9.01547 8.83672 8.85047 9.12922 8.77547 9.13297C8.47547 9.34672 7.94672 9.55297 7.47797 9.13297C7.26422 8.96797 7.11797 9.10297 7.20047 9.33922C7.40672 9.95797 8.20172 9.82672 8.74547 9.52672C8.88422 9.44797 9.01172 9.62797 8.84297 9.76672C8.16422 10.2392 7.82672 10.2467 7.51922 10.0667C7.13672 9.91297 7.10672 10.3367 7.33172 10.4792C7.58297 10.6292 8.22422 10.5167 8.69672 10.2167C8.89922 10.0667 8.90672 10.303 8.77922 10.3967C8.22047 10.8805 7.99922 11.008 7.41797 10.9292C7.12922 10.9067 7.13297 11.263 7.35797 11.4017C7.66922 11.593 8.27672 11.278 8.74547 10.8842C8.94422 10.7792 8.97797 10.9517 8.88047 11.158C8.67287 11.4517 8.39066 11.6847 8.06297 11.833C7.80047 11.9342 7.55297 11.9192 7.37672 11.8592C7.15922 11.7842 7.13297 12.0092 7.25297 12.2117C7.32422 12.3355 7.62047 12.373 7.94297 12.2605C8.26547 12.148 8.61047 11.878 8.84672 11.5667C9.05297 11.383 9.03047 11.6267 8.93297 11.7992C8.46047 12.5492 8.02547 12.8267 7.45172 12.7817C7.20047 12.7367 7.14047 12.9317 7.30172 13.1192C7.58672 13.3517 7.93922 13.3442 8.25422 13.1117C8.52797 12.8492 9.05672 12.2717 9.33422 11.9642C9.52922 11.8105 9.59297 11.9642 9.53297 12.2792C9.48047 12.4592 9.35297 12.6542 8.99672 12.7892C8.75297 12.928 8.93672 13.1192 9.11672 13.1267C9.21797 13.1267 9.42047 13.0067 9.57797 12.8342C9.78047 12.6017 9.79547 12.448 9.90797 12.088C10.013 11.9155 10.2042 11.998 10.2042 12.178C10.1105 12.538 10.0355 12.6017 9.84797 12.748C9.67172 12.9167 9.97172 12.973 10.073 12.9017C10.3655 12.7067 10.4705 12.4517 10.568 12.2192C10.643 12.0542 10.8455 12.133 10.748 12.4067C10.523 13.0592 10.148 13.3142 9.49922 13.4492C9.43547 13.4605 9.39422 13.498 9.41672 13.573L9.67922 13.8355C9.27797 13.9555 8.95172 14.023 8.54672 14.1355L7.99172 13.768C7.94297 13.648 7.91672 13.4605 7.62422 13.5917C7.42922 13.5017 7.33547 13.5355 7.22672 13.6292C7.38422 13.6292 7.45172 13.6742 7.51547 13.7455C7.59797 13.9592 7.78547 13.9817 7.97672 13.9217C8.10047 14.023 8.16422 14.1055 8.29172 14.2105L7.66547 14.1917C7.44047 13.9555 7.26797 13.9667 7.11047 14.1542C6.98672 14.173 6.93797 14.173 6.85547 14.3192C6.98297 14.2667 7.06547 14.2517 7.12172 14.308C7.35797 14.4467 7.51172 14.4167 7.62797 14.308L8.28422 14.3492C8.20172 14.4242 8.08922 14.4617 8.00297 14.5292C7.66547 14.4317 7.48547 14.5667 7.42547 14.8405C7.37807 14.9502 7.36247 15.071 7.38047 15.1892C7.41047 15.0767 7.46672 14.983 7.56422 14.9267C7.86422 15.0017 7.97672 14.878 7.99547 14.698C8.14547 14.578 8.36297 14.5517 8.50922 14.4317C8.68172 14.4842 8.76422 14.518 8.93672 14.5742C8.99672 14.7617 9.13547 14.833 9.36047 14.7842C9.62297 14.7917 9.57797 14.9042 9.60047 14.9905C9.67547 14.8667 9.67172 14.743 9.50672 14.6305C9.44672 14.4692 9.31172 14.3942 9.13922 14.488C8.97422 14.443 8.93297 14.3755 8.76797 14.3267C9.18047 14.1955 9.47297 14.1655 9.88547 14.0342L10.1742 14.2892C10.2305 14.323 10.283 14.3305 10.3167 14.2892C10.5755 13.9142 10.6917 13.588 10.928 13.3405C11.0217 13.2355 11.138 13.1005 11.2655 13.0667C11.3292 13.048 11.408 13.0592 11.4605 13.1155C11.5092 13.168 11.5505 13.2692 11.5355 13.423C11.5092 13.6367 11.4567 13.708 11.3967 13.8355C11.333 13.9667 11.2617 14.0455 11.183 14.1467C11.033 14.3455 10.8305 14.4617 10.7105 14.5405C10.4705 14.6942 10.373 14.6267 10.1855 14.6155C9.94547 14.6417 9.88547 14.758 10.0805 14.9192C10.2605 15.0167 10.4255 15.028 10.5605 15.0017C10.673 14.9792 10.808 14.833 10.9055 14.7542C11.0105 14.6305 11.1905 14.7767 11.0667 14.923C10.8455 15.1855 10.628 15.358 10.3542 15.3542C10.0655 15.3917 10.1217 15.553 10.3092 15.6317C10.6542 15.7705 10.9617 15.508 11.1192 15.3317C11.2392 15.2005 11.3255 15.1967 11.3067 15.403C11.183 15.7742 11.0217 15.9167 10.7517 15.9355C10.5342 15.913 10.5305 16.0855 10.6917 16.198C11.0517 16.4455 11.3142 16.018 11.438 15.763C11.5242 15.5305 11.6592 15.6392 11.6742 15.8305C11.6742 16.0892 11.5617 16.2955 11.2505 16.558C11.4867 16.9367 11.7642 17.323 12.0005 17.7017L12.7205 9.67672L12.0005 8.41297C11.9255 8.34547 11.6705 8.04547 11.6067 8.00047C11.5805 7.97797 11.5692 7.96297 11.603 7.94797C11.6367 7.93297 11.7155 7.91797 11.7717 7.91047C11.6217 7.75672 11.4867 7.70797 11.198 7.62547C11.2692 7.59547 11.3367 7.61047 11.5467 7.60297C11.4178 7.42981 11.2422 7.29712 11.0405 7.22047C11.198 7.10797 11.228 7.10047 11.3855 6.96922C11.137 6.95002 10.8917 6.9022 10.6542 6.82672C10.5124 6.75931 10.3603 6.71623 10.2042 6.69922H10.2005ZM10.2305 7.01422C10.373 7.01422 10.4592 7.06297 10.4592 7.12297C10.4592 7.18297 10.373 7.23172 10.2305 7.23172C10.088 7.23172 9.99797 7.17547 9.99797 7.11922C9.99797 7.05922 10.088 7.01422 10.2305 7.01422Z" fill="black"/>
<path d="M13.7995 6.69922C13.972 6.69922 14.2608 6.75547 14.257 6.88672C14.7445 6.80797 14.7933 7.00672 14.7633 7.18672C14.7183 7.11547 14.662 7.07422 14.617 7.07047C14.5533 7.05922 14.4858 7.08172 14.4145 7.12297C14.3473 7.16512 14.2867 7.21693 14.2345 7.27672C14.407 7.31797 14.542 7.29172 14.677 7.26922C14.7533 7.25296 14.8259 7.22242 14.8908 7.17922C14.947 7.14172 14.9658 7.10422 15.052 7.01797C15.1533 6.91297 15.262 6.94297 15.2283 7.10422C15.1495 7.25422 15.0183 7.32172 14.8533 7.35172C14.7745 7.36297 14.6545 7.38922 14.5195 7.38922C14.3845 7.38922 14.2345 7.37047 14.152 7.38922C14.2008 7.41922 14.257 7.47547 14.3695 7.49422C14.482 7.51672 14.6508 7.42672 14.7558 7.40422C14.7445 7.49047 14.632 7.57297 14.4145 7.61797C14.0545 7.69297 13.7583 7.75297 13.5595 7.86172C13.4024 7.94935 13.2636 8.0665 13.1508 8.20672C12.9745 8.41297 12.9633 8.57422 12.9558 8.61172C12.9183 8.94172 13.0345 9.12922 13.252 9.18922C13.357 9.21547 13.552 9.16297 13.6195 9.08047C13.6945 8.99797 13.7583 8.85547 13.7395 8.63047C13.7208 8.54797 13.6233 8.31922 13.7058 8.27422C14.0968 8.05933 14.5014 7.87018 14.917 7.70797C15.0108 7.67047 15.0858 7.79797 15.1158 7.85047C15.3927 7.81186 15.6575 7.71208 15.8911 7.55833C16.1245 7.40461 16.3209 7.20079 16.4658 6.96172C16.6233 6.67672 16.8895 6.96172 16.8445 7.23547C16.7733 7.53547 16.5445 7.75297 16.267 7.91047C15.9858 8.06422 15.6295 8.21797 15.2733 8.21047C15.0783 8.24797 15.082 8.49547 15.3108 8.54422C15.7645 8.54422 16.1283 8.53672 16.4695 8.20672C16.7283 7.97047 16.8708 8.25172 16.7995 8.40922C16.672 8.90047 15.9708 9.03922 15.262 8.88172C14.9845 8.83672 15.1495 9.12922 15.2245 9.13297C15.5245 9.34672 16.0533 9.55297 16.522 9.13297C16.7358 8.96797 16.882 9.10297 16.7995 9.33922C16.5933 9.95797 15.7983 9.82672 15.2545 9.52672C15.1158 9.44797 14.9883 9.62797 15.157 9.76672C15.8358 10.2392 16.1733 10.2467 16.4808 10.0667C16.8633 9.91297 16.8933 10.3367 16.6683 10.4792C16.417 10.6292 15.7758 10.5167 15.3033 10.2167C15.1008 10.0667 15.0933 10.303 15.2208 10.3967C15.7795 10.8805 16.0008 11.008 16.582 10.9292C16.8708 10.9067 16.867 11.263 16.642 11.4017C16.3308 11.593 15.7233 11.278 15.2545 10.8842C15.0558 10.7792 15.022 10.9517 15.1195 11.158C15.3271 11.4517 15.6094 11.6847 15.937 11.833C16.1995 11.9342 16.447 11.9192 16.6233 11.8592C16.8408 11.7842 16.867 12.0092 16.747 12.2117C16.6758 12.3355 16.3795 12.373 16.057 12.2605C15.7345 12.148 15.3895 11.878 15.1533 11.5667C14.947 11.383 14.9695 11.6267 15.067 11.7992C15.5395 12.5492 15.9745 12.8267 16.5483 12.7817C16.7995 12.7367 16.8595 12.9317 16.6983 13.1192C16.4133 13.3517 16.0608 13.3442 15.7458 13.1117C15.472 12.8492 14.9433 12.2717 14.6658 11.9642C14.4708 11.8105 14.407 11.9642 14.467 12.2792C14.5195 12.4592 14.647 12.6542 15.0033 12.7892C15.247 12.928 15.0633 13.1192 14.8833 13.1267C14.782 13.1267 14.5795 13.0067 14.422 12.8342C14.2195 12.6017 14.2045 12.448 14.092 12.088C13.987 11.9155 13.7958 11.998 13.7958 12.178C13.8895 12.538 13.9645 12.6017 14.152 12.748C14.3283 12.9167 14.0283 12.973 13.927 12.9017C13.6345 12.7067 13.5295 12.4517 13.432 12.2192C13.357 12.0542 13.1545 12.133 13.252 12.4067C13.477 13.0592 13.852 13.3142 14.5008 13.4492C14.5645 13.4605 14.6058 13.498 14.5833 13.573L14.3208 13.8355C14.722 13.9555 15.0483 14.023 15.4533 14.1355L16.0083 13.768C16.057 13.648 16.0833 13.4605 16.3758 13.5917C16.5708 13.5017 16.6645 13.5355 16.7733 13.6292C16.6158 13.6292 16.5483 13.6742 16.4845 13.7455C16.402 13.9592 16.2145 13.9817 16.0233 13.9217C15.8995 14.023 15.8358 14.1055 15.7083 14.2105L16.3345 14.1917C16.5595 13.9555 16.732 13.9667 16.8895 14.1542C17.0133 14.173 17.062 14.173 17.1445 14.3192C17.017 14.2667 16.9345 14.2517 16.8783 14.308C16.642 14.4467 16.4883 14.4167 16.372 14.308L15.7158 14.3492C15.7983 14.4242 15.9108 14.4617 15.997 14.5292C16.3345 14.4317 16.5145 14.5667 16.5745 14.8405C16.6219 14.9502 16.6375 15.071 16.6195 15.1892C16.5895 15.0767 16.5333 14.983 16.4358 14.9267C16.1358 15.0017 16.0233 14.878 16.0045 14.698C15.8545 14.578 15.637 14.5517 15.4908 14.4317C15.3183 14.4842 15.2358 14.518 15.0633 14.5742C15.0033 14.7617 14.8645 14.833 14.6395 14.7842C14.377 14.7917 14.422 14.9042 14.3995 14.9905C14.3245 14.8667 14.3283 14.743 14.4933 14.6305C14.5533 14.4692 14.6883 14.3942 14.8608 14.488C15.0258 14.443 15.067 14.3755 15.232 14.3267C14.8195 14.1955 14.527 14.1655 14.1145 14.0342L13.8258 14.2892C13.7695 14.323 13.717 14.3305 13.6833 14.2892C13.4245 13.9142 13.3083 13.588 13.072 13.3405C12.9783 13.2355 12.862 13.1005 12.7345 13.0667C12.6708 13.048 12.592 13.0592 12.5395 13.1155C12.4908 13.168 12.4495 13.2692 12.4645 13.423C12.4908 13.6367 12.5433 13.708 12.6033 13.8355C12.667 13.9667 12.7383 14.0455 12.817 14.1467C12.967 14.3455 13.1695 14.4617 13.2895 14.5405C13.5295 14.6942 13.627 14.6267 13.8145 14.6155C14.0545 14.6417 14.1145 14.758 13.9195 14.9192C13.7395 15.0167 13.5745 15.028 13.4395 15.0017C13.327 14.9792 13.192 14.833 13.0945 14.7542C12.9895 14.6305 12.8095 14.7767 12.9333 14.923C13.1545 15.1855 13.372 15.358 13.6458 15.3542C13.9345 15.3917 13.8783 15.553 13.6908 15.6317C13.3458 15.7705 13.0383 15.508 12.8808 15.3317C12.7608 15.2005 12.6745 15.1967 12.6933 15.403C12.817 15.7742 12.9783 15.9167 13.2483 15.9355C13.4658 15.913 13.4695 16.0855 13.3083 16.198C12.9483 16.4455 12.6858 16.018 12.562 15.763C12.4758 15.5305 12.3408 15.6392 12.3258 15.8305C12.3258 16.0892 12.4383 16.2955 12.7495 16.558C12.5133 16.9367 12.2358 17.323 11.9995 17.7017L11.2795 9.67672L11.9995 8.41297C12.0745 8.34547 12.3295 8.04547 12.3933 8.00047C12.4195 7.97797 12.4308 7.96297 12.397 7.94797C12.3633 7.93297 12.2845 7.91797 12.2283 7.91047C12.3783 7.75672 12.5133 7.70797 12.802 7.62547C12.7308 7.59547 12.6633 7.61047 12.4533 7.60297C12.5822 7.42981 12.7578 7.29712 12.9595 7.22047C12.802 7.10797 12.772 7.10047 12.6145 6.96922C12.863 6.95002 13.1083 6.9022 13.3458 6.82672C13.4876 6.75931 13.6397 6.71623 13.7958 6.69922H13.7995ZM13.7695 7.01422C13.627 7.01422 13.5408 7.06297 13.5408 7.12297C13.5408 7.18297 13.627 7.23172 13.7695 7.23172C13.912 7.23172 14.002 7.17547 14.002 7.11922C14.002 7.05922 13.912 7.01422 13.7695 7.01422Z" fill="black"/>
</g>
<defs>
<clipPath id="clip0_69_1148">
<rect width="24" height="24" rx="12" fill="white"/>
</clipPath>
</defs>
</svg>
