<svg width="24" height="24" viewBox="0 0 24 24" fill="none" xmlns="http://www.w3.org/2000/svg">
<g clip-path="url(#clip0_69_1372)">
<path fill-rule="evenodd" clip-rule="evenodd" d="M0 -0.400146H24V12.3349H0V-0.400146Z" fill="#FF0000"/>
<path fill-rule="evenodd" clip-rule="evenodd" d="M0 12.0652H24V27.6002H0V12.0652Z" fill="black"/>
<path fill-rule="evenodd" clip-rule="evenodd" d="M10.8037 7.72587C16.9987 9.34962 13.0162 17.3109 8.12999 13.9959L7.79999 14.5059C10.6762 16.5534 13.5225 14.9034 14.325 12.7659C15.1575 10.5609 14.04 7.45962 10.8525 7.14087L10.8037 7.72587Z" fill="#FFEC00"/>
<path fill-rule="evenodd" clip-rule="evenodd" d="M8.6032 14.5736L9.41695 14.9523L9.03445 15.7698L8.2207 15.3873L8.6032 14.5736ZM14.1907 10.8423H15.0907V11.7423H14.1907V10.8423ZM13.752 9.38355L14.5882 9.06105L14.9145 9.89731L14.0782 10.2236L13.752 9.38355ZM12.777 8.2923L13.4182 7.65855L14.052 8.29605L13.4145 8.9298L12.777 8.2923ZM11.7945 6.7998L12.6345 7.1148L12.3157 7.9548L11.4757 7.6398L11.7945 6.7998ZM14.0782 12.2936L14.9145 12.6273L14.577 13.4598L13.7445 13.1261L14.0782 12.2936ZM11.457 14.9186L12.282 14.5698L12.6382 15.3948L11.8132 15.7473L11.457 14.9186ZM9.9757 15.0236H10.8757V15.9236H9.9757V15.0236ZM11.5245 10.6736L10.7632 10.1111L10.002 10.6586L10.302 9.79605L9.5407 9.23355H10.4595L10.7782 8.38605L11.0707 9.2373L11.997 9.22605L11.262 9.7998L11.5245 10.6773V10.6736Z" fill="#FFEC00"/>
<path fill-rule="evenodd" clip-rule="evenodd" d="M14.8282 15.1587C14.7832 15.1737 14.5957 15.6237 14.4644 15.8412L14.6032 15.8787C15.1132 16.0587 15.3682 16.2237 15.5857 16.5349C15.6359 16.5839 15.702 16.6135 15.7721 16.6183C15.8421 16.6231 15.9116 16.6029 15.9682 16.5612C15.9682 16.5612 16.0732 16.5237 16.2082 16.3737C16.3207 16.2049 16.2907 16.0737 16.1557 15.9574C15.7432 15.6574 15.2969 15.4324 14.8282 15.1587Z" fill="#FFEE00"/>
<path fill-rule="evenodd" clip-rule="evenodd" d="M15.926 16.1482C15.926 16.1915 15.9088 16.233 15.8782 16.2636C15.8476 16.2942 15.8061 16.3113 15.7629 16.3113C15.7196 16.3113 15.6781 16.2942 15.6475 16.2636C15.6169 16.233 15.5997 16.1915 15.5997 16.1482C15.5997 16.1055 15.6168 16.0644 15.647 16.0342C15.6772 16.0039 15.7182 15.987 15.761 15.987C15.8038 15.987 15.8448 16.0039 15.875 16.0342C15.9053 16.0644 15.9222 16.1055 15.9222 16.1482H15.926ZM15.1235 15.6382C15.1235 15.6815 15.1063 15.723 15.0757 15.7536C15.0451 15.7842 15.0036 15.8013 14.9604 15.8013C14.9171 15.8013 14.8756 15.7842 14.845 15.7536C14.8144 15.723 14.7972 15.6815 14.7972 15.6382C14.7972 15.5949 14.8144 15.5535 14.845 15.5229C14.8756 15.4923 14.9171 15.4751 14.9604 15.4751C15.0036 15.4751 15.0451 15.4923 15.0757 15.5229C15.1063 15.5535 15.1235 15.5949 15.1235 15.6382ZM15.5322 15.9007C15.5322 15.944 15.5151 15.9855 15.4845 16.0161C15.4539 16.0467 15.4124 16.0638 15.3691 16.0638C15.3259 16.0638 15.2844 16.0467 15.2538 16.0161C15.2232 15.9855 15.206 15.944 15.206 15.9007C15.206 15.8574 15.2232 15.816 15.2538 15.7854C15.2844 15.7548 15.3259 15.7376 15.3691 15.7376C15.4124 15.7376 15.4539 15.7548 15.4845 15.7854C15.5151 15.816 15.5322 15.8574 15.5322 15.9007Z" fill="black"/>
<path fill-rule="evenodd" clip-rule="evenodd" d="M14.396 15.8075C12.7985 14.8963 11.1223 13.9138 9.52102 13.0025C8.81977 12.5638 8.78602 11.75 9.25852 11.1313C9.30352 11.045 9.36352 11.0638 9.38602 11.1125C9.44227 11.4125 9.61102 11.7238 9.81352 11.9188C11.4756 12.9643 13.122 14.0344 14.7523 15.1288C14.6248 15.3463 14.5273 15.59 14.396 15.8038V15.8075Z" fill="#FFEE00"/>
<path fill-rule="evenodd" clip-rule="evenodd" d="M13.3723 13.6248L14.0398 14.2248L13.4398 14.8923L12.7723 14.2923L13.3723 13.6248Z" fill="#FFEC00"/>
<path d="M14.659 15.249L9.9715 12.4177M14.0815 14.5965L12.5027 13.5727M13.1852 15.174L11.5765 14.244" stroke="black" stroke-width="0.375"/>
</g>
<defs>
<clipPath id="clip0_69_1372">
<rect width="24" height="24" rx="12" fill="white"/>
</clipPath>
</defs>
</svg>
