<svg width="24" height="24" viewBox="0 0 24 24" fill="none" xmlns="http://www.w3.org/2000/svg">
<g clip-path="url(#clip0_69_1415)">
<path d="M0 -2H24V26.4H0V-2Z" fill="#3A7DCE"/>
<path d="M5.91352 11.8554C5.78227 11.5629 5.78227 11.5629 5.78227 11.2704C5.71477 11.2704 5.70727 11.2816 5.66977 11.2704C5.62852 11.2591 5.61352 11.5404 5.48977 11.4879C5.47102 11.4579 5.57977 11.2554 5.46352 11.1691C5.42602 11.1429 5.47102 10.9741 5.45602 10.8991C5.45602 10.8991 5.30602 10.9891 5.19352 10.6816C5.13727 10.5991 5.06227 10.7566 5.06227 10.7566C5.06227 10.7566 5.09602 10.8466 5.03602 10.8691C4.95352 10.8016 4.88977 10.8391 4.78477 10.7416C4.67977 10.6479 4.80727 10.5391 4.60477 10.4604C4.73602 10.0929 4.73602 10.1641 5.06227 10.0179C4.86727 9.86788 4.86727 9.86788 4.73602 9.65038C4.54102 9.57538 4.47352 9.50038 4.27852 9.35788C4.01602 8.98663 3.88477 8.25163 3.88477 7.73788C4.04977 7.56538 4.27852 8.32663 4.60477 8.54788L5.06227 8.76913C5.32477 8.91538 5.38852 9.06163 5.58727 9.20788L6.17227 9.43288C6.43477 9.65038 6.56602 9.94288 6.76102 10.0179C6.97477 10.0179 7.01602 9.87913 7.08352 9.87163C7.46977 9.84913 7.66477 9.79663 7.73977 9.66538C7.81852 9.56038 8.00227 9.72538 8.52727 9.50413L8.46352 9.20788C8.46352 9.20788 8.60227 9.08038 8.78977 9.13288C8.78602 9.00163 8.77102 8.64538 8.95852 8.48038C8.84602 8.34913 9.02602 8.14288 9.03352 8.07913C8.98102 7.75663 9.08602 7.75288 9.10852 7.65538C9.13102 7.56163 9.01852 7.59163 9.04852 7.46038C9.08227 7.32913 9.27352 7.29913 9.29602 7.19038C9.32227 7.08163 9.25477 6.65413 9.24727 6.56038C9.59977 6.45538 9.71227 6.13289 9.83602 6.26788C9.89977 5.82539 9.96727 5.67539 10.361 5.67539C10.4135 5.54039 10.2148 5.42414 10.2935 5.37914C10.4248 5.36039 10.5223 5.37164 10.676 5.59289C10.7248 5.66789 10.736 5.49164 10.7848 5.47289C10.8335 5.45414 10.9498 5.45414 10.9685 5.36789C10.9873 5.27789 11.0135 5.15789 11.081 5.01164C11.1335 4.89164 11.1748 5.06039 11.2235 5.29289C11.501 5.30414 12.1235 5.37164 12.386 5.45414C12.581 5.51039 12.7123 5.39789 12.8998 5.37164C13.0385 5.52914 13.1698 5.40914 13.2448 5.74664C13.346 5.92664 13.5185 5.76164 13.556 5.81414C13.7735 6.49288 14.5235 6.03539 14.5835 6.04664C14.6773 6.04664 14.7935 6.34663 14.8723 6.34288C14.9923 6.32038 14.9585 6.22663 15.0673 6.26413C15.0373 6.51913 15.2773 6.81163 15.2773 7.00288C15.2773 7.00288 15.3335 7.03663 15.3898 6.98038C15.4423 6.92038 15.491 6.77788 15.5398 6.78163C15.6523 6.80038 16.3648 7.00663 16.5073 7.07788C16.571 7.20913 16.631 7.27663 16.7623 7.25413C16.8673 7.33288 16.7923 7.44163 16.8523 7.44538C16.9835 7.37038 17.0285 7.29538 17.1598 7.36663C17.291 7.44163 17.4223 7.58788 17.486 7.73413C17.486 7.80913 17.4185 8.10163 17.486 8.54413C17.5198 8.69038 17.8498 9.75538 17.8498 9.86413C17.8498 10.0141 17.7485 10.0891 17.681 10.2354C17.9435 10.4566 17.681 10.8241 17.5498 11.0454C18.5323 11.2666 18.0748 11.7054 18.8585 11.4841C18.6635 12.0016 18.731 11.9604 18.926 12.4741C18.536 12.7666 18.9185 12.8566 18.6598 13.2241C18.641 13.2504 18.8135 13.5466 19.0535 13.5466C18.9898 14.1316 18.791 13.9141 18.8585 14.7954C18.3448 14.7841 18.551 15.4554 18.206 15.3841C18.2248 15.8041 18.401 15.8416 18.3335 16.2654C18.071 16.3404 18.071 16.3404 17.9435 16.5616L17.7485 16.4866C17.681 16.8541 17.5498 16.9291 17.7485 17.2966C17.7485 17.2966 17.4935 17.3041 17.4185 17.2966C17.4148 17.4241 17.531 17.4579 17.5498 17.5891C17.5423 17.6416 17.1785 17.8741 16.8973 17.8854C16.8223 18.0654 17.0923 18.2604 17.0773 18.3504C16.7698 18.4179 16.6348 18.8379 16.6348 18.8379C16.6348 18.8379 16.7923 18.9129 16.766 18.9879C16.6835 18.9204 16.6348 18.9129 16.5035 18.9129C16.4398 18.9316 16.2785 18.9129 16.1285 19.2016C15.9598 19.2616 15.881 19.2391 15.7535 19.4266C15.6973 19.2504 15.6148 19.4304 15.5173 19.5016C15.416 19.5691 15.2848 19.7454 15.266 19.7379C15.2698 19.6854 15.326 19.5016 15.326 19.5016L14.9623 19.5879C14.936 19.5916 14.9435 19.3741 14.8798 19.3816C14.816 19.3891 14.6398 19.6554 14.5798 19.6629C14.5198 19.6704 14.501 19.5804 14.4485 19.5879C14.396 19.5954 14.2985 19.8691 14.261 19.8766C14.2235 19.8804 14.0735 19.7079 13.9498 19.7341C13.3085 19.9891 13.2035 19.2316 13.106 19.6591C12.971 19.5766 12.9935 19.6216 12.8548 19.6629C12.7685 19.6891 12.761 19.5354 12.6823 19.5354C12.5285 19.5429 12.5323 19.7079 12.4498 19.6591C12.3823 19.3141 11.9623 19.3741 11.9248 19.2279C11.8873 19.0779 12.1048 19.0779 12.1723 18.9729C12.2248 18.8229 12.116 18.7629 12.3335 18.6204C12.6148 18.4066 12.5885 17.8779 12.5173 17.6716C12.5173 17.6716 12.296 17.0079 12.2548 17.0079C12.1235 16.9704 12.1235 17.2516 11.9323 17.3304C11.5385 17.4804 10.8448 16.9591 10.7248 16.9591C10.616 16.9591 10.106 17.0941 10.1248 16.8091C10.0498 17.0866 9.76852 16.8729 9.74976 16.8729C9.48727 16.8729 9.58852 17.1016 9.41227 17.0941C9.33352 17.0641 8.52727 17.0079 8.52727 17.0079V17.1579L7.54852 16.7154C7.15477 16.5654 7.34977 16.2016 6.69727 16.4229V15.9804H6.37102C6.50227 15.0954 6.37102 15.5379 6.30352 14.7279L6.04102 14.8029C5.77852 14.4054 6.40852 14.4804 5.84602 14.2141C5.84602 14.2141 5.85727 13.7754 5.71477 13.9216C5.68852 13.9404 5.78227 14.1391 5.78227 14.1391C5.25727 14.0641 5.12977 13.9216 5.12977 13.3329C5.12977 13.3329 5.55727 13.4004 5.51977 13.3329C5.45977 13.2204 5.38102 12.5079 5.39227 12.4554C5.38852 12.3579 5.79352 12.1179 5.71477 11.8854C5.76727 11.8629 5.91352 11.8591 5.91352 11.8591" fill="white"/>
<path d="M19.2099 13.9999C19.1905 14.047 19.1937 14.0942 19.2131 14.1305C19.2486 14.0688 19.2195 14.0434 19.2131 13.9999H19.2099ZM3.85511 8.57808C3.85511 8.57808 3.75833 8.56359 3.77768 8.66157C3.80993 8.58897 3.85187 8.58171 3.85511 8.57808ZM3.84542 8.34582C3.79058 8.34582 3.72284 8.33859 3.74864 8.43657C3.78089 8.36034 3.84542 8.34945 3.84542 8.34582ZM4.2551 9.66318C4.2551 9.66318 4.33898 9.65592 4.3196 9.7539C4.28735 9.68133 4.2551 9.66681 4.2551 9.66318Z" stroke="white" stroke-width="0.285123" stroke-linejoin="round"/>
</g>
<defs>
<clipPath id="clip0_69_1415">
<rect width="24" height="24" rx="12" fill="white"/>
</clipPath>
</defs>
</svg>
