<svg width="24" height="24" viewBox="0 0 24 24" fill="none" xmlns="http://www.w3.org/2000/svg">
<g clip-path="url(#clip0_69_1433)">
<g clip-path="url(#clip1_69_1433)">
<mask id="mask0_69_1433" style="mask-type:luminance" maskUnits="userSpaceOnUse" x="-4" y="0" width="32" height="24">
<path d="M28 0H-4V24H28V0Z" fill="white"/>
</mask>
<g mask="url(#mask0_69_1433)">
<path d="M-4 0H28V24H-4V0Z" fill="#74ACDF"/>
<path d="M-4 8H28V16H-4V8Z" fill="white"/>
<path d="M11.8469 12.0625L13.2149 15.0385C13.2149 15.0385 13.2389 15.0961 13.2773 15.0817C13.3157 15.0625 13.2917 15.0049 13.2917 15.0049L12.1541 11.9329M12.1205 13.0945C12.1013 13.5457 12.3797 13.7953 12.3461 14.1985C12.3077 14.6065 12.5285 14.8321 12.5861 14.9905C12.6341 15.1489 12.5285 15.2401 12.5717 15.2641C12.6197 15.2881 12.7157 15.1633 12.6869 14.9377C12.6533 14.7169 12.4853 14.6497 12.5237 14.1553C12.5621 13.6609 12.3221 13.5457 12.3797 13.0993" fill="#F6B40E"/>
<path d="M11.8469 12.0625L13.2149 15.0385C13.2149 15.0385 13.2389 15.0961 13.2773 15.0817C13.3157 15.0625 13.2917 15.0049 13.2917 15.0049L12.1541 11.9329M12.1205 13.0945C12.1013 13.5457 12.3797 13.7953 12.3461 14.1985C12.3077 14.6065 12.5285 14.8321 12.5861 14.9905C12.6341 15.1489 12.5285 15.2401 12.5717 15.2641C12.6197 15.2881 12.7157 15.1633 12.6869 14.9377C12.6533 14.7169 12.4853 14.6497 12.5237 14.1553C12.5621 13.6609 12.3221 13.5457 12.3797 13.0993" stroke="#85340A" stroke-width="0.132"/>
<path d="M11.8348 11.9995L11.9598 15.2725C11.9598 15.2725 11.9599 15.3349 12.0009 15.3363C12.0437 15.3332 12.0436 15.2708 12.0436 15.2708L12.1682 11.9973M11.6926 13.0576C11.5022 13.4672 11.6639 13.8043 11.4786 14.164C11.287 14.5262 11.4046 14.8191 11.3972 14.9875C11.381 15.1522 11.2485 15.196 11.2792 15.2348C11.3144 15.2753 11.4508 15.1968 11.5106 14.9773C11.564 14.7604 11.4345 14.6341 11.6592 14.192C11.8838 13.7499 11.7062 13.5516 11.9302 13.1613" fill="#F6B40E"/>
<path d="M11.8348 11.9995L11.9598 15.2725C11.9598 15.2725 11.9599 15.3349 12.0009 15.3363C12.0437 15.3332 12.0436 15.2708 12.0436 15.2708L12.1682 11.9973M11.6926 13.0576C11.5022 13.4672 11.6639 13.8043 11.4786 14.164C11.287 14.5262 11.4046 14.8191 11.3972 14.9875C11.381 15.1522 11.2485 15.196 11.2792 15.2348C11.3144 15.2753 11.4508 15.1968 11.5106 14.9773C11.564 14.7604 11.4345 14.6341 11.6592 14.192C11.8838 13.7499 11.7062 13.5516 11.9302 13.1613" stroke="#85340A" stroke-width="0.132"/>
<path d="M11.8474 11.9353L10.7104 15.007C10.7104 15.007 10.6866 15.0647 10.7239 15.0816C10.7647 15.0952 10.7884 15.0375 10.7884 15.0375L12.1563 12.0609M11.3111 12.8585C10.9785 13.1639 10.9989 13.5373 10.69 13.7987C10.3743 14.06 10.371 14.3757 10.2997 14.5284C10.2216 14.6743 10.0825 14.6641 10.096 14.7117C10.113 14.7626 10.2691 14.7422 10.4083 14.5623C10.5407 14.3825 10.4694 14.2161 10.8461 13.8937C11.2229 13.5713 11.1346 13.3201 11.491 13.0452" fill="#F6B40E"/>
<path d="M11.8474 11.9353L10.7104 15.007C10.7104 15.007 10.6866 15.0647 10.7239 15.0816C10.7647 15.0952 10.7884 15.0375 10.7884 15.0375L12.1563 12.0609M11.3111 12.8585C10.9785 13.1639 10.9989 13.5373 10.69 13.7987C10.3743 14.06 10.371 14.3757 10.2997 14.5284C10.2216 14.6743 10.0825 14.6641 10.096 14.7117C10.113 14.7626 10.2691 14.7422 10.4083 14.5623C10.5407 14.3825 10.4694 14.2161 10.8461 13.8937C11.2229 13.5713 11.1346 13.3201 11.491 13.0452" stroke="#85340A" stroke-width="0.132"/>
<path d="M11.8834 11.8823L9.65745 14.2851C9.65745 14.2851 9.61341 14.3293 9.64141 14.3592C9.67385 14.3874 9.71789 14.3432 9.71789 14.3432L12.1207 12.1166M11.0347 12.53C10.6105 12.685 10.4864 13.0377 10.1011 13.161C9.70941 13.2816 9.58545 13.5719 9.46117 13.6858C9.33317 13.7907 9.20853 13.728 9.20289 13.7772C9.19909 13.8307 9.35109 13.8716 9.54853 13.7587C9.73965 13.6431 9.73745 13.4622 10.2089 13.3085C10.6804 13.1548 10.695 12.889 11.1294 12.7713" fill="#F6B40E"/>
<path d="M11.8834 11.8823L9.65745 14.2851C9.65745 14.2851 9.61341 14.3293 9.64141 14.3592C9.67385 14.3874 9.71789 14.3432 9.71789 14.3432L12.1207 12.1166M11.0347 12.53C10.6105 12.685 10.4864 13.0377 10.1011 13.161C9.70941 13.2816 9.58545 13.5719 9.46117 13.6858C9.33317 13.7907 9.20853 13.728 9.20289 13.7772C9.19909 13.8307 9.35109 13.8716 9.54853 13.7587C9.73965 13.6431 9.73745 13.4622 10.2089 13.3085C10.6804 13.1548 10.695 12.889 11.1294 12.7713" stroke="#85340A" stroke-width="0.132"/>
<path d="M12.2067 13.1719C12.2307 13.6039 12.4755 13.7959 12.4275 14.1943C12.5331 13.8823 12.2787 13.6375 12.2931 13.1767M11.9235 12.0343L12.8595 14.0791L12.0771 11.9719" fill="#85340A"/>
<path d="M11.743 13.1609C11.5999 13.5691 11.7526 13.8402 11.5558 14.1899C11.7727 13.9421 11.6314 13.6185 11.821 13.1983M11.9167 12.0015L11.999 14.2488L12.0825 12.0026" fill="#85340A"/>
<path d="M11.3189 12.9739C11.0304 13.2964 11.0678 13.6052 10.7521 13.853C11.0474 13.707 11.0406 13.354 11.3766 13.0384M11.9231 11.9692L11.139 14.077L12.0758 12.0337" fill="#85340A"/>
<path d="M10.9981 12.6396C10.6082 12.8271 10.5245 13.1267 10.1381 13.2349C10.4667 13.213 10.5955 12.8843 11.0268 12.7213M11.9408 11.9426L10.4098 13.5899L12.0572 12.0606" fill="#85340A"/>
<path d="M11.9376 11.8469L8.96162 13.2149C8.96162 13.2149 8.90402 13.2389 8.91842 13.2773C8.93762 13.3157 8.99522 13.2917 8.99522 13.2917L12.0672 12.1541M10.9056 12.1205C10.4544 12.1013 10.2048 12.3797 9.80162 12.3461C9.39362 12.3077 9.16802 12.5285 9.00962 12.5861C8.85122 12.6341 8.76002 12.5285 8.73602 12.5717C8.71202 12.6197 8.83682 12.7157 9.06242 12.6869C9.28322 12.6533 9.35042 12.4853 9.84482 12.5237C10.3392 12.5621 10.4544 12.3221 10.9008 12.3797" fill="#F6B40E"/>
<path d="M11.9376 11.8469L8.96162 13.2149C8.96162 13.2149 8.90402 13.2389 8.91842 13.2773C8.93762 13.3157 8.99522 13.2917 8.99522 13.2917L12.0672 12.1541M10.9056 12.1205C10.4544 12.1013 10.2048 12.3797 9.80162 12.3461C9.39362 12.3077 9.16802 12.5285 9.00962 12.5861C8.85122 12.6341 8.76002 12.5285 8.73602 12.5717C8.71202 12.6197 8.83682 12.7157 9.06242 12.6869C9.28322 12.6533 9.35042 12.4853 9.84482 12.5237C10.3392 12.5621 10.4544 12.3221 10.9008 12.3797" stroke="#85340A" stroke-width="0.132"/>
<path d="M12.0006 11.8348L8.72762 11.9599C8.72762 11.9599 8.66522 11.96 8.66382 12.0009C8.66686 12.0438 8.72926 12.0437 8.72926 12.0437L12.0028 12.1683M10.9425 11.6927C10.5329 11.5023 10.1958 11.664 9.83614 11.4786C9.4739 11.287 9.18098 11.4047 9.01258 11.3973C8.8479 11.381 8.80406 11.2485 8.76534 11.2793C8.72478 11.3144 8.80334 11.4509 9.02282 11.5106C9.23966 11.5641 9.36602 11.4346 9.8081 11.6593C10.2502 11.8839 10.4485 11.7063 10.8388 11.9303" fill="#F6B40E"/>
<path d="M12.0006 11.8348L8.72762 11.9599C8.72762 11.9599 8.66522 11.96 8.66382 12.0009C8.66686 12.0438 8.72926 12.0437 8.72926 12.0437L12.0028 12.1683M10.9425 11.6927C10.5329 11.5023 10.1958 11.664 9.83614 11.4786C9.4739 11.287 9.18098 11.4047 9.01258 11.3973C8.8479 11.381 8.80406 11.2485 8.76534 11.2793C8.72478 11.3144 8.80334 11.4509 9.02282 11.5106C9.23966 11.5641 9.36602 11.4346 9.8081 11.6593C10.2502 11.8839 10.4485 11.7063 10.8388 11.9303" stroke="#85340A" stroke-width="0.132"/>
<path d="M12.0646 11.8475L8.99291 10.7105C8.99291 10.7105 8.93523 10.6867 8.91827 10.7241C8.90467 10.7648 8.96239 10.7885 8.96239 10.7885L11.939 12.1564M11.1414 11.3113C10.836 10.9786 10.4626 10.999 10.2012 10.6901C9.93987 10.3745 9.62423 10.3711 9.47151 10.2998C9.32555 10.2217 9.33575 10.0826 9.28823 10.0961C9.23731 10.1131 9.25767 10.2693 9.43755 10.4084C9.61743 10.5408 9.78375 10.4695 10.1062 10.8463C10.4286 11.223 10.6798 11.1347 10.9547 11.4911" fill="#F6B40E"/>
<path d="M12.0646 11.8475L8.99291 10.7105C8.99291 10.7105 8.93523 10.6867 8.91827 10.7241C8.90467 10.7648 8.96239 10.7885 8.96239 10.7885L11.939 12.1564M11.1414 11.3113C10.836 10.9786 10.4626 10.999 10.2012 10.6901C9.93987 10.3745 9.62423 10.3711 9.47151 10.2998C9.32555 10.2217 9.33575 10.0826 9.28823 10.0961C9.23731 10.1131 9.25767 10.2693 9.43755 10.4084C9.61743 10.5408 9.78375 10.4695 10.1062 10.8463C10.4286 11.223 10.6798 11.1347 10.9547 11.4911" stroke="#85340A" stroke-width="0.132"/>
<path d="M12.1176 11.8835L9.71487 9.65751C9.71487 9.65751 9.67067 9.61347 9.64071 9.64147C9.61259 9.67391 9.65679 9.71795 9.65679 9.71795L11.8834 12.1208M11.4699 11.0347C11.315 10.6105 10.9623 10.4865 10.839 10.1011C10.7183 9.70947 10.428 9.58551 10.3142 9.46123C10.2092 9.33323 10.2719 9.20859 10.2228 9.20295C10.1693 9.19915 10.1283 9.35115 10.2413 9.54859C10.3568 9.73971 10.5377 9.73751 10.6915 10.209C10.8452 10.6804 11.111 10.695 11.2286 11.1295" fill="#F6B40E"/>
<path d="M12.1176 11.8835L9.71487 9.65751C9.71487 9.65751 9.67067 9.61347 9.64071 9.64147C9.61259 9.67391 9.65679 9.71795 9.65679 9.71795L11.8834 12.1208M11.4699 11.0347C11.315 10.6105 10.9623 10.4865 10.839 10.1011C10.7183 9.70947 10.428 9.58551 10.3142 9.46123C10.2092 9.33323 10.2719 9.20859 10.2228 9.20295C10.1693 9.19915 10.1283 9.35115 10.2413 9.54859C10.3568 9.73971 10.5377 9.73751 10.6915 10.209C10.8452 10.6804 11.111 10.695 11.2286 11.1295" stroke="#85340A" stroke-width="0.132"/>
<path d="M10.8281 12.2065C10.3961 12.2305 10.2041 12.4753 9.80573 12.4273C10.1177 12.5329 10.3625 12.2785 10.8233 12.2929M11.9657 11.9233L9.92092 12.8593L12.0281 12.0769" fill="#85340A"/>
<path d="M10.8392 11.7431C10.4309 11.6 10.1598 11.7527 9.81014 11.5559C10.058 11.7729 10.3815 11.6315 10.8017 11.8211M11.9986 11.9169L9.75122 11.9991L11.9975 12.0826" fill="#85340A"/>
<path d="M11.0262 11.319C10.7037 11.0305 10.3949 11.0679 10.1471 10.7522C10.2931 11.0475 10.6461 11.0407 10.9617 11.3767M12.0309 11.9232L9.9231 11.1392L11.9664 12.0759" fill="#85340A"/>
<path d="M11.3604 10.9983C11.1729 10.6083 10.8732 10.5246 10.7651 10.1382C10.7869 10.4669 11.1157 10.5957 11.2787 11.0269M12.0573 11.9409L10.4101 10.4099L11.9393 12.0573" fill="#85340A"/>
<path d="M12.1531 11.9377L10.7851 8.96168C10.7851 8.96168 10.7611 8.90408 10.7227 8.91848C10.6843 8.93768 10.7083 8.99528 10.7083 8.99528L11.8459 12.0673M11.8795 10.9057C11.8987 10.4545 11.6203 10.2049 11.6539 9.80168C11.6923 9.39368 11.4715 9.16808 11.4139 9.00968C11.3659 8.85128 11.4715 8.76008 11.4283 8.73608C11.3803 8.71208 11.2843 8.83688 11.3131 9.06248C11.3467 9.28328 11.5147 9.35048 11.4763 9.84488C11.4379 10.3393 11.6779 10.4545 11.6203 10.9009" fill="#F6B40E"/>
<path d="M12.1531 11.9377L10.7851 8.96168C10.7851 8.96168 10.7611 8.90408 10.7227 8.91848C10.6843 8.93768 10.7083 8.99528 10.7083 8.99528L11.8459 12.0673M11.8795 10.9057C11.8987 10.4545 11.6203 10.2049 11.6539 9.80168C11.6923 9.39368 11.4715 9.16808 11.4139 9.00968C11.3659 8.85128 11.4715 8.76008 11.4283 8.73608C11.3803 8.71208 11.2843 8.83688 11.3131 9.06248C11.3467 9.28328 11.5147 9.35048 11.4763 9.84488C11.4379 10.3393 11.6779 10.4545 11.6203 10.9009" stroke="#85340A" stroke-width="0.132"/>
<path d="M12.1652 12.0006L12.0402 8.72762C12.0402 8.72762 12.0401 8.66522 11.9991 8.66382C11.9563 8.66686 11.9564 8.72926 11.9564 8.72926L11.8318 12.0028M12.3073 10.9425C12.4978 10.5329 12.3361 10.1958 12.5214 9.83614C12.713 9.4739 12.5954 9.18098 12.6028 9.01258C12.619 8.8479 12.7515 8.80406 12.7208 8.76534C12.6856 8.72478 12.5491 8.80334 12.4894 9.02282C12.436 9.23966 12.5655 9.36602 12.3408 9.8081C12.1161 10.2502 12.2938 10.4485 12.0697 10.8388" fill="#F6B40E"/>
<path d="M12.1652 12.0006L12.0402 8.72762C12.0402 8.72762 12.0401 8.66522 11.9991 8.66382C11.9563 8.66686 11.9564 8.72926 11.9564 8.72926L11.8318 12.0028M12.3073 10.9425C12.4978 10.5329 12.3361 10.1958 12.5214 9.83614C12.713 9.4739 12.5954 9.18098 12.6028 9.01258C12.619 8.8479 12.7515 8.80406 12.7208 8.76534C12.6856 8.72478 12.5491 8.80334 12.4894 9.02282C12.436 9.23966 12.5655 9.36602 12.3408 9.8081C12.1161 10.2502 12.2938 10.4485 12.0697 10.8388" stroke="#85340A" stroke-width="0.132"/>
<path d="M12.1526 12.0647L13.2896 8.99297C13.2896 8.99297 13.3134 8.93529 13.2761 8.91833C13.2353 8.90473 13.2116 8.96245 13.2116 8.96245L11.8438 11.9391M12.6889 11.1415C13.0215 10.836 13.0011 10.4627 13.31 10.2013C13.6257 9.93993 13.629 9.62429 13.7003 9.47157C13.7784 9.32561 13.9176 9.33581 13.904 9.28829C13.887 9.23737 13.7309 9.25773 13.5917 9.43761C13.4593 9.61749 13.5306 9.78381 13.1539 10.1063C12.7771 10.4287 12.8654 10.6799 12.509 10.9548" fill="#F6B40E"/>
<path d="M12.1526 12.0647L13.2896 8.99297C13.2896 8.99297 13.3134 8.93529 13.2761 8.91833C13.2353 8.90473 13.2116 8.96245 13.2116 8.96245L11.8438 11.9391M12.6889 11.1415C13.0215 10.836 13.0011 10.4627 13.31 10.2013C13.6257 9.93993 13.629 9.62429 13.7003 9.47157C13.7784 9.32561 13.9176 9.33581 13.904 9.28829C13.887 9.23737 13.7309 9.25773 13.5917 9.43761C13.4593 9.61749 13.5306 9.78381 13.1539 10.1063C12.7771 10.4287 12.8654 10.6799 12.509 10.9548" stroke="#85340A" stroke-width="0.132"/>
<path d="M12.1166 12.1176L14.3426 9.71487C14.3426 9.71487 14.3866 9.67067 14.3586 9.64071C14.3262 9.61259 14.2821 9.65679 14.2821 9.65679L11.8793 11.8834M12.9654 11.4699C13.3896 11.315 13.5136 10.9623 13.899 10.839C14.2906 10.7183 14.4146 10.428 14.5389 10.3142C14.6669 10.2092 14.7915 10.2719 14.7971 10.2228C14.8009 10.1693 14.6489 10.1283 14.4515 10.2413C14.2604 10.3568 14.2626 10.5377 13.7911 10.6915C13.3197 10.8452 13.3051 11.111 12.8706 11.2286" fill="#F6B40E"/>
<path d="M12.1166 12.1176L14.3426 9.71487C14.3426 9.71487 14.3866 9.67067 14.3586 9.64071C14.3262 9.61259 14.2821 9.65679 14.2821 9.65679L11.8793 11.8834M12.9654 11.4699C13.3896 11.315 13.5136 10.9623 13.899 10.839C14.2906 10.7183 14.4146 10.428 14.5389 10.3142C14.6669 10.2092 14.7915 10.2719 14.7971 10.2228C14.8009 10.1693 14.6489 10.1283 14.4515 10.2413C14.2604 10.3568 14.2626 10.5377 13.7911 10.6915C13.3197 10.8452 13.3051 11.111 12.8706 11.2286" stroke="#85340A" stroke-width="0.132"/>
<path d="M11.7934 10.8281C11.7694 10.3961 11.5246 10.2041 11.5726 9.80566C11.467 10.1177 11.7214 10.3625 11.707 10.8233M12.0766 11.9657L11.1406 9.92086L11.923 12.0281" fill="#85340A"/>
<path d="M12.257 10.8392C12.4001 10.4309 12.2474 10.1598 12.4442 9.81014C12.2272 10.058 12.3686 10.3815 12.179 10.8017M12.0832 11.9986L12.001 9.75122L11.9175 11.9975" fill="#85340A"/>
<path d="M12.6811 11.0262C12.9696 10.7037 12.9322 10.3949 13.2479 10.1471C12.9526 10.2931 12.9594 10.6461 12.6234 10.9617M12.0769 12.0309L12.861 9.9231L11.9242 11.9664" fill="#85340A"/>
<path d="M13.0019 11.3604C13.3918 11.1729 13.4755 10.8733 13.8619 10.7652C13.5333 10.787 13.4045 11.1157 12.9732 11.2788M12.0592 12.0574L13.5902 10.4102L11.9428 11.9394" fill="#85340A"/>
<path d="M12.0624 12.1531L15.0384 10.7851C15.0384 10.7851 15.096 10.7611 15.0816 10.7227C15.0624 10.6843 15.0048 10.7083 15.0048 10.7083L11.9328 11.8459M13.0944 11.8795C13.5456 11.8987 13.7952 11.6203 14.1984 11.6539C14.6064 11.6923 14.832 11.4715 14.9904 11.4139C15.1488 11.3659 15.24 11.4715 15.264 11.4283C15.288 11.3803 15.1632 11.2843 14.9376 11.3131C14.7168 11.3467 14.6496 11.5147 14.1552 11.4763C13.6608 11.4379 13.5456 11.6779 13.0992 11.6203" fill="#F6B40E"/>
<path d="M12.0624 12.1531L15.0384 10.7851C15.0384 10.7851 15.096 10.7611 15.0816 10.7227C15.0624 10.6843 15.0048 10.7083 15.0048 10.7083L11.9328 11.8459M13.0944 11.8795C13.5456 11.8987 13.7952 11.6203 14.1984 11.6539C14.6064 11.6923 14.832 11.4715 14.9904 11.4139C15.1488 11.3659 15.24 11.4715 15.264 11.4283C15.288 11.3803 15.1632 11.2843 14.9376 11.3131C14.7168 11.3467 14.6496 11.5147 14.1552 11.4763C13.6608 11.4379 13.5456 11.6779 13.0992 11.6203" stroke="#85340A" stroke-width="0.132"/>
<path d="M11.9995 12.1652L15.2724 12.0402C15.2724 12.0402 15.3348 12.0401 15.3362 11.9991C15.3332 11.9563 15.2708 11.9564 15.2708 11.9564L11.9973 11.8318M13.0576 12.3073C13.4671 12.4978 13.8042 12.3361 14.1639 12.5214C14.5261 12.713 14.8191 12.5954 14.9875 12.6028C15.1521 12.619 15.196 12.7515 15.2347 12.7208C15.2753 12.6856 15.1967 12.5491 14.9772 12.4894C14.7604 12.436 14.634 12.5655 14.1919 12.3408C13.7499 12.1161 13.5516 12.2938 13.1612 12.0697" fill="#F6B40E"/>
<path d="M11.9995 12.1652L15.2724 12.0402C15.2724 12.0402 15.3348 12.0401 15.3362 11.9991C15.3332 11.9563 15.2708 11.9564 15.2708 11.9564L11.9973 11.8318M13.0576 12.3073C13.4671 12.4978 13.8042 12.3361 14.1639 12.5214C14.5261 12.713 14.8191 12.5954 14.9875 12.6028C15.1521 12.619 15.196 12.7515 15.2347 12.7208C15.2753 12.6856 15.1967 12.5491 14.9772 12.4894C14.7604 12.436 14.634 12.5655 14.1919 12.3408C13.7499 12.1161 13.5516 12.2938 13.1612 12.0697" stroke="#85340A" stroke-width="0.132"/>
<path d="M11.9354 12.1526L15.0071 13.2896C15.0071 13.2896 15.0648 13.3134 15.0817 13.2761C15.0953 13.2353 15.0376 13.2116 15.0376 13.2116L12.061 11.8438M12.8586 12.6889C13.1641 13.0215 13.5374 13.0011 13.7988 13.31C14.0601 13.6257 14.3758 13.629 14.5285 13.7003C14.6745 13.7784 14.6643 13.9175 14.7118 13.904C14.7627 13.887 14.7423 13.7309 14.5625 13.5917C14.3826 13.4593 14.2163 13.5306 13.8938 13.1539C13.5714 12.7771 13.3202 12.8654 13.0453 12.509" fill="#F6B40E"/>
<path d="M11.9354 12.1526L15.0071 13.2896C15.0071 13.2896 15.0648 13.3134 15.0817 13.2761C15.0953 13.2353 15.0376 13.2116 15.0376 13.2116L12.061 11.8438M12.8586 12.6889C13.1641 13.0215 13.5374 13.0011 13.7988 13.31C14.0601 13.6257 14.3758 13.629 14.5285 13.7003C14.6745 13.7784 14.6643 13.9175 14.7118 13.904C14.7627 13.887 14.7423 13.7309 14.5625 13.5917C14.3826 13.4593 14.2163 13.5306 13.8938 13.1539C13.5714 12.7771 13.3202 12.8654 13.0453 12.509" stroke="#85340A" stroke-width="0.132"/>
<path d="M11.8824 12.1167L14.2851 14.3426C14.2851 14.3426 14.3293 14.3867 14.3593 14.3587C14.3874 14.3262 14.3432 14.2822 14.3432 14.2822L12.1166 11.8794M12.5301 12.9654C12.685 13.3896 13.0377 13.5137 13.161 13.899C13.2817 14.2907 13.572 14.4146 13.6858 14.5389C13.7908 14.6669 13.7281 14.7916 13.7772 14.7972C13.8307 14.801 13.8717 14.649 13.7587 14.4516C13.6432 14.2604 13.4623 14.2626 13.3085 13.7912C13.1548 13.3197 12.889 13.3051 12.7714 12.8707" fill="#F6B40E"/>
<path d="M11.8824 12.1167L14.2851 14.3426C14.2851 14.3426 14.3293 14.3867 14.3593 14.3587C14.3874 14.3262 14.3432 14.2822 14.3432 14.2822L12.1166 11.8794M12.5301 12.9654C12.685 13.3896 13.0377 13.5137 13.161 13.899C13.2817 14.2907 13.572 14.4146 13.6858 14.5389C13.7908 14.6669 13.7281 14.7916 13.7772 14.7972C13.8307 14.801 13.8717 14.649 13.7587 14.4516C13.6432 14.2604 13.4623 14.2626 13.3085 13.7912C13.1548 13.3197 12.889 13.3051 12.7714 12.8707" stroke="#85340A" stroke-width="0.132"/>
<path d="M13.1719 11.7934C13.6039 11.7694 13.7959 11.5246 14.1943 11.5726C13.8823 11.467 13.6375 11.7214 13.1767 11.707M12.0343 12.0766L14.0791 11.1406L11.9719 11.923" fill="#85340A"/>
<path d="M13.1608 12.257C13.5691 12.4001 13.8402 12.2474 14.1898 12.4442C13.942 12.2272 13.6185 12.3686 13.1983 12.179M12.0014 12.0832L14.2488 12.001L12.0025 11.9175" fill="#85340A"/>
<path d="M12.9738 12.6812C13.2962 12.9697 13.6051 12.9324 13.8528 13.248C13.7069 12.9527 13.3539 12.9595 13.0383 12.6235M11.9691 12.077L14.0769 12.8611L12.0336 11.9243" fill="#85340A"/>
<path d="M12.6396 13.0019C12.8271 13.3918 13.1267 13.4756 13.2349 13.862C13.213 13.5333 12.8843 13.4045 12.7213 12.9733M11.9426 12.0593L13.5899 13.5902L12.0606 11.9429" fill="#85340A"/>
<path d="M12.0006 13.3355C12.7379 13.3355 13.3356 12.7378 13.3356 12.0005C13.3356 11.2632 12.7379 10.6655 12.0006 10.6655C11.2633 10.6655 10.6656 11.2632 10.6656 12.0005C10.6656 12.7378 11.2633 13.3355 12.0006 13.3355Z" fill="#F6B40E" stroke="#85340A" stroke-width="0.175"/>
<path d="M12.45 11.7156C12.365 11.7156 12.275 11.7556 12.225 11.8356C12.325 11.9306 12.555 11.9356 12.71 11.8256C12.6772 11.7908 12.6377 11.7631 12.5939 11.7442C12.55 11.7253 12.5027 11.7155 12.455 11.7156H12.45ZM12.45 11.7356C12.54 11.7356 12.625 11.7756 12.635 11.8156C12.535 11.9306 12.37 11.9156 12.265 11.8356C12.315 11.7656 12.385 11.7356 12.455 11.7356H12.45Z" fill="#843511"/>
<path d="M12.4699 11.6499C12.3349 11.6499 12.3049 11.6799 12.2449 11.7349C12.1849 11.7849 12.1499 11.7749 12.1449 11.7849C12.1299 11.7949 12.1449 11.8249 12.1599 11.8149C12.1849 11.8049 12.2249 11.7849 12.2849 11.7349C12.3449 11.6849 12.4099 11.6849 12.4699 11.6849C12.6549 11.6849 12.7549 11.8349 12.7749 11.8249C12.7999 11.8149 12.6749 11.6499 12.4699 11.6499Z" fill="#85340A"/>
<path d="M12.8407 11.7148C12.6057 11.5098 12.3057 11.4748 12.1407 11.6298C12.1027 11.6798 12.0769 11.7381 12.0657 11.7998C12.0457 11.9198 12.0807 12.0448 12.1707 12.1748L12.1307 12.1948C12.0507 12.0398 12.0207 11.8798 12.0507 11.7248L12.0807 11.6098C12.3057 11.4248 12.6157 11.4098 12.8407 11.7098V11.7148Z" fill="#85340A"/>
<path d="M12.4494 11.9051C12.4991 11.9051 12.5394 11.8648 12.5394 11.8151C12.5394 11.7654 12.4991 11.7251 12.4494 11.7251C12.3997 11.7251 12.3594 11.7654 12.3594 11.8151C12.3594 11.8648 12.3997 11.9051 12.4494 11.9051Z" fill="#85340A"/>
<path d="M12.7156 11.8747C12.5406 12.0097 12.3656 11.9997 12.2656 11.9397C12.1656 11.8747 12.1656 11.8547 12.1856 11.8547C12.2056 11.8547 12.2256 11.8747 12.3056 11.9197C12.3906 11.9597 12.5106 11.9597 12.7156 11.8747Z" fill="#85340A"/>
<path d="M11.7994 12.1843C11.7855 12.1876 11.7726 12.1942 11.7617 12.2034C11.7508 12.2127 11.7423 12.2244 11.7369 12.2376C11.7314 12.2508 11.7292 12.2651 11.7304 12.2793C11.7315 12.2935 11.7361 12.3072 11.7436 12.3194C11.7511 12.3315 11.7614 12.3417 11.7736 12.349C11.7859 12.3564 11.7997 12.3608 11.8139 12.3617C11.8282 12.3627 11.8424 12.3602 11.8556 12.3546C11.8687 12.349 11.8803 12.3403 11.8894 12.3293C11.9224 12.3498 11.9606 12.3602 11.9994 12.3593H12.0094C12.0394 12.3593 12.0894 12.3543 12.1244 12.3293C12.1394 12.3543 12.1694 12.3643 12.1994 12.3643C12.2232 12.3663 12.2469 12.3588 12.2652 12.3433C12.2835 12.3278 12.2949 12.3057 12.2969 12.2818C12.2989 12.258 12.2913 12.2343 12.2758 12.216C12.2604 12.1977 12.2382 12.1863 12.2144 12.1843C12.2394 12.1943 12.2544 12.2143 12.2544 12.2443C12.2544 12.2602 12.248 12.2755 12.2368 12.2868C12.2256 12.298 12.2103 12.3043 12.1944 12.3043C12.1785 12.3043 12.1632 12.298 12.152 12.2868C12.1407 12.2755 12.1344 12.2602 12.1344 12.2443C12.1225 12.269 12.1042 12.29 12.0812 12.305C12.0583 12.32 12.0317 12.3284 12.0044 12.3293C11.9779 12.3275 11.9524 12.3187 11.9304 12.3037C11.9084 12.2888 11.8908 12.2683 11.8794 12.2443C11.8794 12.2793 11.8494 12.3043 11.8144 12.3043C11.7844 12.3043 11.7544 12.2743 11.7544 12.2443C11.7544 12.2143 11.7694 12.1943 11.7944 12.1843H11.7994ZM11.8994 12.4543C11.7944 12.4543 11.7494 12.5543 11.6594 12.6093C11.7094 12.5893 11.7494 12.5493 11.8244 12.5093C11.8944 12.4693 11.9544 12.5193 11.9994 12.5193C12.0394 12.5193 12.0994 12.4693 12.1744 12.5093C12.2444 12.5493 12.2894 12.5893 12.3394 12.6093C12.2444 12.5493 12.2044 12.4593 12.0994 12.4593C12.0794 12.4593 12.0394 12.4693 11.9994 12.4893L11.8994 12.4543Z" fill="#85340A"/>
<path d="M11.8606 12.5797C11.8206 12.5797 11.7706 12.5897 11.6906 12.6097C11.8756 12.5697 11.9156 12.6347 12.0006 12.6347C12.0806 12.6347 12.1256 12.5697 12.3056 12.6097C12.1056 12.5497 12.0606 12.5897 12.0006 12.5897C11.9606 12.5897 11.9306 12.5747 11.8606 12.5797Z" fill="#85340A"/>
<path d="M11.6994 12.6099H11.6594C11.8744 12.6349 11.7744 12.7599 11.9994 12.7599C12.2244 12.7599 12.1244 12.6349 12.3394 12.6099C12.1144 12.5899 12.1844 12.7249 11.9994 12.7249C11.8244 12.7249 11.8794 12.6099 11.6994 12.6099Z" fill="#85340A"/>
<path d="M12.1856 12.9443C12.1856 12.8952 12.1661 12.8482 12.1314 12.8135C12.0967 12.7788 12.0497 12.7593 12.0006 12.7593C11.9515 12.7593 11.9045 12.7788 11.8698 12.8135C11.8351 12.8482 11.8156 12.8952 11.8156 12.9443C11.8254 12.9026 11.849 12.8654 11.8825 12.8387C11.9161 12.8121 11.9577 12.7976 12.0006 12.7976C12.0435 12.7976 12.0851 12.8121 12.1187 12.8387C12.1523 12.8654 12.1758 12.9026 12.1856 12.9443Z" fill="#85340A"/>
<path d="M11.1703 11.7148C11.4053 11.5098 11.7053 11.4748 11.8703 11.6298C11.9083 11.6798 11.934 11.7381 11.9453 11.7998C11.9653 11.9198 11.9303 12.0448 11.8403 12.1748L11.8803 12.1948C11.9603 12.0398 11.9903 11.8798 11.9603 11.7248L11.9303 11.6098C11.7053 11.4248 11.3953 11.4098 11.1703 11.7098V11.7148Z" fill="#85340A"/>
<path d="M11.5394 11.6499C11.6744 11.6499 11.7044 11.6799 11.7644 11.7349C11.8244 11.7849 11.8594 11.7749 11.8644 11.7849C11.8794 11.7949 11.8644 11.8249 11.8494 11.8149C11.8244 11.8049 11.7844 11.7849 11.7244 11.7349C11.6644 11.6849 11.5994 11.6849 11.5394 11.6849C11.3544 11.6849 11.2544 11.8349 11.2344 11.8249C11.2094 11.8149 11.3344 11.6499 11.5394 11.6499Z" fill="#85340A"/>
<path d="M11.5297 11.7156C11.4447 11.7156 11.3547 11.7556 11.3047 11.8356C11.4047 11.9306 11.6347 11.9356 11.7897 11.8256C11.7569 11.7908 11.7174 11.7631 11.6736 11.7442C11.6297 11.7253 11.5824 11.7155 11.5347 11.7156H11.5297ZM11.5297 11.7356C11.6197 11.7356 11.7047 11.7756 11.7147 11.8156C11.6147 11.9306 11.4497 11.9156 11.3447 11.8356C11.3947 11.7656 11.4647 11.7356 11.5347 11.7356H11.5297Z" fill="#843511"/>
<path d="M11.5447 11.9051C11.5944 11.9051 11.6347 11.8648 11.6347 11.8151C11.6347 11.7654 11.5944 11.7251 11.5447 11.7251C11.495 11.7251 11.4547 11.7654 11.4547 11.8151C11.4547 11.8648 11.495 11.9051 11.5447 11.9051Z" fill="#85340A"/>
<path d="M11.2953 11.8747C11.4703 12.0097 11.6453 11.9997 11.7453 11.9397C11.8453 11.8747 11.8453 11.8547 11.8253 11.8547C11.8053 11.8547 11.7853 11.8747 11.7053 11.9197C11.6203 11.9597 11.5003 11.9597 11.2953 11.8747Z" fill="#85340A"/>
</g>
</g>
</g>
<defs>
<clipPath id="clip0_69_1433">
<rect width="24" height="24" rx="12" fill="white"/>
</clipPath>
<clipPath id="clip1_69_1433">
<rect width="32" height="24" fill="white" transform="translate(-4)"/>
</clipPath>
</defs>
</svg>
