<svg width="24" height="24" viewBox="0 0 24 24" fill="none" xmlns="http://www.w3.org/2000/svg">
<g clip-path="url(#clip0_69_8188)">
<path d="M0 -0.800049V25.2H24V-0.800049H0Z" fill="#006233"/>
<path fill-rule="evenodd" clip-rule="evenodd" d="M9.73845 12.5234C9.38535 13.006 9.64029 13.3198 10.0043 13.3422C10.2443 13.3583 10.7432 13.0333 10.7419 12.6512L10.6055 12.5818C10.6819 12.7777 10.6028 12.8398 10.4405 12.9737C10.1202 13.238 9.46578 13.2566 9.73845 12.5234Z" fill="white" stroke="white" stroke-width="0.0173394"/>
<path fill-rule="evenodd" clip-rule="evenodd" d="M12.5377 13.7891C14.5254 13.8399 15.1579 12.0896 13.931 10.5911L13.8097 10.7561C13.8887 11.4545 14.0032 12.1429 14.0141 12.8587C13.7742 13.1155 13.4252 13.02 13.3557 12.7347C13.3597 12.3476 13.2207 12.0201 13.0448 11.7075L12.9467 11.8725C13.0612 12.1293 13.1852 12.4183 13.2112 12.7347C12.644 13.3537 12.0169 13.479 12.25 12.6652C11.8015 13.3785 12.4804 13.8809 13.2493 12.783C13.4143 13.5323 14.0523 13.0671 14.0905 12.9058C14.16 12.4146 14.1246 11.6232 13.9841 10.998C14.5377 11.87 14.5567 12.499 14.2623 12.9195C13.9351 13.3872 13.2234 13.6055 12.5377 13.7891Z" fill="white" stroke="white" stroke-width="0.0433486"/>
<path fill-rule="evenodd" clip-rule="evenodd" d="M13.6645 11.8104C13.2392 11.8389 13.0211 11.7595 13.2515 11.473C13.4791 11.1926 13.6918 11.4159 13.7491 11.7905C13.8022 12.1416 13.002 12.5894 12.7252 12.5894C12.3067 12.5894 12.1131 12.0994 12.4989 11.659C12.0027 12.9442 13.5705 12.1986 13.6645 11.8104ZM13.3701 11.5127C13.3183 11.5102 13.2801 11.5933 13.306 11.6094C13.381 11.6565 13.4996 11.628 13.5119 11.6045C13.5378 11.5524 13.4423 11.5151 13.3701 11.5127Z" fill="white" stroke="white" stroke-width="0.0433486"/>
<path fill-rule="evenodd" clip-rule="evenodd" d="M11.3548 12.4168C10.9458 13.1487 11.3534 13.4514 11.8783 13.3671C12.1837 13.3162 12.5708 13.119 12.7944 12.8498C12.7985 12.2568 12.789 11.6688 12.7317 11.0945C12.9362 10.8724 12.714 10.8737 12.6363 10.6355C12.6008 10.7744 12.5149 10.9245 12.5981 11.0325C12.6567 11.6118 12.6895 12.1985 12.6881 12.7964C12.2764 13.0979 11.9669 13.2095 11.746 13.207C11.2893 13.2033 11.1912 12.8535 11.3548 12.4168Z" fill="white" stroke="white" stroke-width="0.0433486"/>
<path fill-rule="evenodd" clip-rule="evenodd" d="M12.1913 12.6107C12.1844 12.0586 12.1749 11.4322 12.1204 11.0464C12.333 10.8318 12.1094 10.8268 12.0399 10.5862C11.999 10.7226 11.909 10.8715 11.9881 10.9819C12.0236 11.5724 12.0576 12.1629 12.0644 12.7533C12.1135 12.7248 12.1694 12.7136 12.1913 12.6107Z" fill="white" stroke="white" stroke-width="0.0433486"/>
<path fill-rule="evenodd" clip-rule="evenodd" d="M10.604 12.5847C10.5522 12.5252 10.5154 12.4582 10.4732 12.3999C10.4663 12.3168 10.5277 12.2398 10.5359 12.1977C10.6054 12.2957 10.6463 12.3701 10.7022 12.4185M10.7758 12.4569C10.8781 12.4942 11.0035 12.4942 11.1194 12.4966C11.5665 12.5041 12.0369 12.4371 11.9864 12.9879C11.9717 13.1942 11.872 13.3878 11.7072 13.5301C11.5425 13.6725 11.3248 13.753 11.0976 13.7557C10.5291 13.7508 10.0437 13.1801 10.9203 12.1294C11.0049 12.117 11.1153 12.1381 11.2066 12.1456C11.3634 12.1567 11.5243 12.1431 11.7083 12.0091C11.6865 11.663 11.6865 11.3355 11.6402 11.0229C11.5611 10.9125 11.6511 10.7649 11.692 10.6272C11.7615 10.8679 11.9837 10.8728 11.7724 11.0887C11.8229 11.436 11.8283 11.7895 11.8283 12.0004C11.722 12.148 11.6388 12.3043 11.328 12.3639C11.0103 12.3217 10.8672 11.9173 10.5359 12.0513C10.6272 11.6866 11.4684 11.6035 11.5529 11.8913C11.497 12.1915 10.7117 12.0711 10.5032 13.0412C10.4391 13.3402 10.7854 13.6156 11.1412 13.5932C11.4888 13.5721 11.8597 13.3526 11.8965 12.9829C11.9251 12.674 11.4466 12.71 11.2462 12.7137C10.9544 12.7199 10.7704 12.679 10.6599 12.6207M10.9585 11.9521C11.0103 11.9074 11.1916 11.8764 11.2571 11.9483C11.208 11.9781 11.1603 12.0103 11.1207 12.0488C11.0526 12.0166 11.0076 11.9843 10.9585 11.9521Z" fill="white"/>
<path d="M10.604 12.5847C10.5522 12.5252 10.5154 12.4582 10.4732 12.3999C10.4663 12.3168 10.5277 12.2398 10.5359 12.1977C10.6054 12.2957 10.6463 12.3701 10.7022 12.4185M10.7758 12.4569C10.8781 12.4942 11.0035 12.4942 11.1194 12.4966C11.5665 12.5041 12.0369 12.4371 11.9864 12.9879C11.9717 13.1942 11.872 13.3878 11.7072 13.5301C11.5425 13.6725 11.3248 13.753 11.0976 13.7557C10.5291 13.7508 10.0437 13.1801 10.9203 12.1294C11.0049 12.117 11.1153 12.1381 11.2066 12.1456C11.3634 12.1567 11.5243 12.1431 11.7083 12.0091C11.6865 11.663 11.6865 11.3355 11.6402 11.0229C11.5611 10.9125 11.6511 10.7649 11.692 10.6272C11.7615 10.8679 11.9837 10.8728 11.7724 11.0887C11.8229 11.436 11.8283 11.7895 11.8283 12.0004C11.722 12.148 11.6388 12.3043 11.328 12.3639C11.0103 12.3217 10.8672 11.9173 10.5359 12.0513C10.6272 11.6866 11.4684 11.6035 11.5529 11.8913C11.497 12.1915 10.7117 12.0711 10.5032 13.0412C10.4391 13.3402 10.7854 13.6156 11.1412 13.5932C11.4888 13.5721 11.8597 13.3526 11.8965 12.9829C11.9251 12.674 11.4466 12.71 11.2462 12.7137C10.9544 12.7199 10.7704 12.679 10.6599 12.6207M10.9585 11.9521C11.0103 11.9074 11.1916 11.8764 11.2571 11.9483C11.208 11.9781 11.1603 12.0103 11.1207 12.0488C11.0526 12.0166 11.0076 11.9843 10.9585 11.9521Z" stroke="white" stroke-width="0.0173394"/>
<path fill-rule="evenodd" clip-rule="evenodd" d="M11.403 10.926C11.4481 11.0069 11.4728 11.0959 11.4752 11.1865C11.4452 11.3155 11.3239 11.4359 11.1985 11.4396C11.1208 11.4421 11.0335 11.4222 10.9722 11.3118C10.9653 11.2982 10.9326 11.2659 10.9013 11.2808C10.7636 11.4867 10.6613 11.5736 10.5373 11.5723C10.2891 11.5686 10.3628 11.3677 10.1337 11.3056C10.0383 11.3032 9.88152 11.3912 9.80106 11.5636C9.49569 12.3514 9.21756 11.5612 9.33618 11.194C9.35391 11.545 9.44661 11.7535 9.54204 11.7472C9.61158 11.741 9.67293 11.5947 9.76155 11.4408C9.82971 11.323 9.9933 11.1109 10.1664 11.1109C10.3246 11.1146 10.2251 11.3788 10.5413 11.3751C10.694 11.3726 10.8345 11.2659 10.9763 11.0526C11.0076 11.0476 11.0158 11.0985 11.0226 11.1158C11.0444 11.189 11.1835 11.39 11.3716 11.2064C11.3621 11.1667 11.3662 11.1009 11.3184 11.0873L11.403 10.926Z" fill="white" stroke="white" stroke-width="0.0433486"/>
<path fill-rule="evenodd" clip-rule="evenodd" d="M12.3972 10.2734C12.2295 10.349 12.1068 10.2796 12.0373 10.2126C12.1586 10.1903 12.2527 10.1505 12.28 10.0637C12.2254 9.95206 12.0959 9.9037 11.9132 9.90244C11.6692 9.90865 11.5438 9.99796 11.5288 10.1208C11.6419 10.1245 11.7442 10.096 11.7878 10.1952C11.5874 10.2845 11.3515 10.3168 11.0953 10.3155C10.6753 10.3354 10.614 10.163 10.5036 10.0116C10.4954 10.0017 10.4586 9.98557 10.4395 9.98806C10.31 9.98806 10.2145 10.3999 10.0687 10.3986C9.9228 10.3813 9.95553 10.1332 9.91326 9.99178C9.8778 10.2138 9.95823 11.04 10.4095 10.1431C10.4231 10.1133 10.4422 10.122 10.4545 10.1468C10.5758 10.3974 10.8226 10.4843 11.0884 10.4967C11.3107 10.5078 11.5942 10.4197 11.8982 10.2634C11.9787 10.3441 12.0427 10.4359 12.2118 10.4532C12.4095 10.4619 12.6208 10.3317 12.6685 10.1704C12.6931 10.0873 12.6971 9.92353 12.6003 9.92107C12.4654 9.91735 12.3672 10.2151 12.3986 10.483C12.4013 10.4793 12.4163 10.416 12.4163 10.416M11.8192 10.0587C11.9078 10.0215 11.9937 10.0042 12.0618 10.086C12.0208 10.0965 11.9821 10.1133 11.9473 10.1357C11.9091 10.1084 11.8573 10.0947 11.8192 10.0587ZM12.4708 10.2436C12.4926 10.1555 12.5049 10.0848 12.584 10.0389C12.6003 10.1319 12.6031 10.1841 12.4708 10.2436ZM13.0025 10.38C12.9766 10.3044 12.9507 10.2386 12.9425 10.1568C12.9235 9.99052 13.0802 9.89626 13.222 9.90988C13.3679 9.92353 13.4647 9.97315 13.6037 10.0166C13.7128 10.0501 13.86 10.0761 14.0005 10.1121C14.0795 10.1444 14.0005 10.2287 13.98 10.2399C13.6283 10.3652 13.3788 10.5636 13.1552 10.5723C13.0216 10.5785 12.903 10.4991 12.7953 10.3366C12.7885 10.0215 12.7762 9.65188 12.7421 9.41989C12.7939 9.37276 12.8048 9.33802 12.8294 9.29956C12.8566 9.60598 12.8675 9.92851 12.8744 10.2535C12.903 10.3093 12.9385 10.3565 13.0025 10.38ZM13.2275 10.4049C13.0393 10.4532 13.0625 10.3081 13.0448 10.2188C13.0243 10.1146 13.038 9.99673 13.1838 10.0265C13.3733 10.0724 13.5465 10.1332 13.7142 10.1977L13.2275 10.4049Z" fill="white"/>
<path d="M12.3972 10.2734C12.2295 10.349 12.1068 10.2796 12.0373 10.2126C12.1586 10.1903 12.2527 10.1505 12.28 10.0637C12.2254 9.95206 12.0959 9.9037 11.9132 9.90244C11.6692 9.90865 11.5438 9.99796 11.5288 10.1208C11.6419 10.1245 11.7442 10.096 11.7878 10.1952C11.5874 10.2845 11.3515 10.3168 11.0953 10.3155C10.6753 10.3354 10.614 10.163 10.5036 10.0116C10.4954 10.0017 10.4586 9.98557 10.4395 9.98806C10.31 9.98806 10.2145 10.3999 10.0687 10.3986C9.9228 10.3813 9.95553 10.1332 9.91326 9.99178C9.8778 10.2138 9.95823 11.04 10.4095 10.1431C10.4231 10.1133 10.4422 10.122 10.4545 10.1468C10.5758 10.3974 10.8226 10.4843 11.0884 10.4967C11.3107 10.5078 11.5942 10.4197 11.8982 10.2634C11.9787 10.3441 12.0427 10.4359 12.2118 10.4532C12.4095 10.4619 12.6208 10.3317 12.6685 10.1704C12.6931 10.0873 12.6971 9.92353 12.6003 9.92107C12.4654 9.91735 12.3672 10.2151 12.3986 10.483C12.4013 10.4793 12.4163 10.416 12.4163 10.416M11.8192 10.0587C11.9078 10.0215 11.9937 10.0042 12.0618 10.086C12.0208 10.0965 11.9821 10.1133 11.9473 10.1357C11.9091 10.1084 11.8573 10.0947 11.8192 10.0587ZM12.4708 10.2436C12.4926 10.1555 12.5049 10.0848 12.584 10.0389C12.6003 10.1319 12.6031 10.1841 12.4708 10.2436ZM13.0025 10.38C12.9766 10.3044 12.9507 10.2386 12.9425 10.1568C12.9235 9.99052 13.0802 9.89626 13.222 9.90988C13.3679 9.92353 13.4647 9.97315 13.6037 10.0166C13.7128 10.0501 13.86 10.0761 14.0005 10.1121C14.0795 10.1444 14.0005 10.2287 13.98 10.2399C13.6283 10.3652 13.3788 10.5636 13.1552 10.5723C13.0216 10.5785 12.903 10.4991 12.7953 10.3366C12.7885 10.0215 12.7762 9.65188 12.7421 9.41989C12.7939 9.37276 12.8048 9.33802 12.8294 9.29956C12.8566 9.60598 12.8675 9.92851 12.8744 10.2535C12.903 10.3093 12.9385 10.3565 13.0025 10.38ZM13.2275 10.4049C13.0393 10.4532 13.0625 10.3081 13.0448 10.2188C13.0243 10.1146 13.038 9.99673 13.1838 10.0265C13.3733 10.0724 13.5465 10.1332 13.7142 10.1977L13.2275 10.4049Z" stroke="white" stroke-width="0.0173394"/>
<path fill-rule="evenodd" clip-rule="evenodd" d="M13.043 10.5581L13.0689 10.6735H13.0893L13.0811 10.5655" fill="white"/>
<path d="M13.043 10.5581L13.0689 10.6735H13.0893L13.0811 10.5655" stroke="white" stroke-width="0.0173394"/>
<path fill-rule="evenodd" clip-rule="evenodd" d="M10.0427 11.7641L10.1381 11.6748L10.2486 11.7603L10.1463 11.8435L10.0427 11.7641ZM10.2854 11.7343L10.3822 11.645L10.4926 11.7306L10.3903 11.8137L10.2854 11.7343ZM9.61056 10.8089L9.70734 10.7196L9.81777 10.8052L9.71553 10.8883L9.61056 10.8089ZM9.65418 11.0719L9.75096 10.9826L9.86004 11.0682L9.7578 11.1513L9.65418 11.0719ZM11.406 11.5122L11.4946 11.4465L11.5764 11.5272L11.4837 11.5867L11.406 11.5122ZM10.2363 9.82888L10.299 9.77059L10.3713 9.82642L10.3045 9.88099L10.2363 9.82888ZM10.3958 9.81028L10.4585 9.75073L10.5308 9.80782L10.464 9.86116L10.3958 9.81028ZM13.7441 10.4764L13.6841 10.5223L13.6269 10.469L13.6896 10.4268L13.7441 10.4764Z" fill="white" stroke="white" stroke-width="0.173394" stroke-linecap="round" stroke-linejoin="round"/>
<path fill-rule="evenodd" clip-rule="evenodd" d="M10.9216 12.1226L10.9148 12.2206L11.0866 12.2354L11.2243 12.1412L10.9216 12.1226Z" fill="white" stroke="white" stroke-width="0.0173394"/>
<path fill-rule="evenodd" clip-rule="evenodd" d="M12.3738 10.2914L12.4243 10.2815L12.4188 10.4093L12.3875 10.4204L12.3738 10.2914Z" fill="white" stroke="white" stroke-width="0.0433486"/>
<path d="M12.0002 15.436C13.9352 15.436 15.5102 14.0035 15.5102 12.241C15.5045 11.7718 15.3913 11.3102 15.1794 10.8916C14.9675 10.4729 14.6624 10.1084 14.2877 9.82602C14.748 10.3126 15.0055 10.9563 15.0077 11.626C15.0077 13.156 13.6615 14.3973 12.0002 14.3973C10.339 14.3973 8.99274 13.156 8.99274 11.6223C8.99274 10.936 9.26274 10.306 9.71274 9.82227C9.33681 10.1053 9.03105 10.4709 8.81907 10.891C8.60706 11.3111 8.49456 11.7743 8.49024 12.2448C8.49024 14.0035 10.0652 15.436 12.0002 15.436Z" fill="white"/>
<path d="M11.5251 17.2146C10.751 17.5668 9.78336 17.4707 8.96526 16.9905C8.93007 16.9745 8.91249 16.9985 8.94768 17.0865C9.03564 17.3187 9.10602 17.5027 8.84211 17.8469C8.72775 17.999 8.85969 18.023 9.05322 18.007C10.0385 17.919 11.0061 17.7189 11.4723 17.5508L11.5251 17.2146ZM11.5075 17.6308C11.1996 17.7429 10.6718 17.879 10.0825 17.975C9.84495 18.007 9.85374 18.1431 10.276 18.1911C10.707 18.2311 11.2612 17.951 11.5955 17.7029L11.5075 17.6308Z" fill="white" stroke="black" stroke-width="0.223766"/>
<path d="M12 16.8626C12.1056 16.8626 12.2991 16.8226 12.4926 16.7986C12.8533 16.7425 12.5894 17.2468 12 17.2468V17.4149C12.5982 17.4149 13.2228 16.8226 13.0908 16.5584C12.9061 16.1742 12.3959 16.5024 12 16.5024C11.6042 16.5024 11.094 16.1742 10.9092 16.5584C10.7773 16.8226 11.4018 17.4149 12 17.4149V17.2468C11.4106 17.2468 11.1467 16.7425 11.5074 16.7986C11.7009 16.8226 11.8945 16.8626 12 16.8626Z" fill="white"/>
<path d="M12 17.2468C12.5894 17.2468 12.8533 16.7425 12.4926 16.7986C12.2991 16.8226 12.1056 16.8626 12 16.8626C11.8945 16.8626 11.7009 16.8226 11.5074 16.7986C11.1467 16.7425 11.4106 17.2468 12 17.2468ZM12 17.2468V17.4149M12 17.4149C12.5982 17.4149 13.2228 16.8226 13.0908 16.5584C12.9061 16.1742 12.3959 16.5024 12 16.5024C11.6042 16.5024 11.094 16.1742 10.9092 16.5584C10.7773 16.8226 11.4018 17.4149 12 17.4149Z" stroke="black" stroke-width="0.223766"/>
<path d="M12.4747 17.2146C13.2488 17.5668 14.2164 17.4707 15.0345 16.9905C15.0697 16.9745 15.0873 16.9985 15.0521 17.0865C14.9642 17.3187 14.8938 17.5027 15.1577 17.8469C15.272 17.999 15.1401 18.023 14.9466 18.007C13.9613 17.919 12.9937 17.7189 12.5275 17.5508L12.4747 17.2146ZM12.4923 17.6308C12.8002 17.7429 13.3192 17.879 13.9173 17.975C14.1548 18.007 14.1461 18.1431 13.7238 18.1911C13.2928 18.2311 12.7386 17.951 12.4043 17.7029L12.4923 17.6308Z" fill="white" stroke="black" stroke-width="0.223766"/>
<path d="M12.0263 17.551C12.0439 17.687 12.0703 17.9832 12.2726 17.8551C12.5453 17.687 12.6069 17.5589 12.6069 17.3188C12.6069 17.1668 12.4046 16.9426 11.9999 16.9426C11.5953 16.9426 11.393 17.1668 11.393 17.3188C11.393 17.5589 11.4545 17.687 11.7272 17.8551C11.9296 17.9832 11.9472 17.687 11.9735 17.551C11.9824 17.5029 12.0263 17.5189 12.0263 17.551Z" fill="white" stroke="black" stroke-width="0.223766"/>
<path d="M11.7449 7.29706C11.6305 6.70474 10.6716 6.66472 10.5221 6.56866C10.3462 6.46459 10.3726 6.56866 10.4341 6.72874C10.6101 7.14496 11.2082 7.31305 11.4809 7.36108C11.7009 7.39309 11.7712 7.40911 11.7449 7.29706Z" fill="white" stroke="black" stroke-width="0.223766"/>
<path d="M12.035 7.31332C12.1318 6.70498 11.1817 6.41683 11.0674 6.28075C10.9354 6.13667 10.9178 6.22471 10.9794 6.3928C11.0938 6.75301 11.5072 7.17724 11.7535 7.28929C11.9558 7.38535 12.0174 7.42537 12.035 7.31332Z" fill="white" stroke="black" stroke-width="0.223766"/>
<path d="M12.818 7.66499C12.906 6.93659 12.1319 6.82451 11.9295 6.5924C11.7976 6.44831 11.7888 6.52835 11.8328 6.69644C11.9207 7.06466 12.3078 7.4969 12.5453 7.63295C12.73 7.73702 12.8092 7.77704 12.818 7.66499Z" fill="white" stroke="black" stroke-width="0.223766"/>
<path d="M12.5808 7.50578C11.7803 7.03352 11.2173 7.29767 10.9886 7.27367C10.7687 7.24964 10.6983 7.37771 11.0765 7.56983C11.5428 7.80194 12.1937 7.76993 12.4489 7.68188C12.7127 7.58582 12.6336 7.53779 12.5808 7.50578ZM13.786 7.82597C13.5396 7.04153 12.9679 7.1696 12.8007 7.07354C12.6336 6.97751 12.616 7.00151 12.6512 7.17761C12.7215 7.48979 13.3109 7.83398 13.6012 7.93802C13.7068 7.97003 13.8387 8.01806 13.786 7.82597Z" fill="white" stroke="black" stroke-width="0.223766"/>
<path d="M13.671 7.96189C12.9848 7.45762 12.4482 7.83382 12.2371 7.77781C12.0788 7.73779 12.1491 7.83382 12.2107 7.87384C12.6505 8.15401 13.1959 8.30608 13.6182 8.12998C13.7853 8.06596 13.7941 8.04994 13.671 7.96189ZM15.1576 8.47417C15.1664 7.97791 14.0404 7.7698 13.8029 7.46563C13.6622 7.28152 13.539 7.37758 13.6094 7.67374C13.715 8.05795 14.489 8.48218 14.9113 8.56222C15.1664 8.61025 15.1576 8.53021 15.1576 8.47417Z" fill="white" stroke="black" stroke-width="0.223766"/>
<path d="M15.1227 8.56172C14.4101 7.97741 13.8119 8.1695 13.592 8.11346C13.3721 8.06543 13.2842 8.18552 13.6272 8.42564C14.0495 8.71379 14.7004 8.76983 14.9731 8.71379C15.2458 8.65778 15.1754 8.60174 15.1227 8.56172ZM16.3982 9.41819C16.1959 8.56973 15.5537 8.39363 15.3954 8.23355C15.2458 8.07344 15.0875 8.12147 15.2194 8.50568C15.3778 8.96192 15.8968 9.36215 16.1695 9.45821C16.4334 9.56225 16.4158 9.48221 16.3982 9.41819Z" fill="white" stroke="black" stroke-width="0.223766"/>
<path d="M16.3901 9.53101C15.8711 8.7706 15.1937 8.7946 14.9826 8.69056C14.7803 8.57848 14.6395 8.67454 14.9122 9.00271C15.2289 9.40294 15.8799 9.62707 16.179 9.64306C16.4781 9.65908 16.4253 9.58705 16.3901 9.53101Z" fill="white" stroke="black" stroke-width="0.223766"/>
<path d="M17.0584 10.4353C17.3575 9.57085 16.6714 9.25066 16.601 9.1066C16.5218 8.96251 16.4427 8.96251 16.3987 9.11458C16.2052 9.73093 16.8297 10.3313 16.9265 10.4513C17.0233 10.5634 17.0408 10.5074 17.0584 10.4353Z" fill="white" stroke="black" stroke-width="0.223766"/>
<path d="M16.9178 10.6749C16.6803 9.7064 16.0557 9.76244 15.915 9.62636C15.7655 9.49028 15.7479 9.58634 15.7742 9.76244C15.8446 10.2347 16.4692 10.5549 16.7507 10.715C16.8386 10.763 16.9442 10.819 16.9178 10.6749ZM17.516 11.8116C17.9471 10.899 17.4368 10.2827 17.2785 10.1466C17.1202 10.0186 17.0234 9.96254 17.0762 10.1466C17.1465 10.4268 16.9002 11.1472 17.2785 11.6755C17.4017 11.8516 17.4192 12.0197 17.516 11.8116Z" fill="white" stroke="black" stroke-width="0.223766"/>
<path d="M17.2871 11.9954C17.3839 11.4351 17.032 10.9228 16.6537 10.7227C16.4338 10.6027 16.425 10.6347 16.425 10.8028C16.4426 11.3231 16.9792 11.7553 17.1375 11.9954C17.2871 12.2196 17.2783 12.0515 17.2871 11.9954Z" fill="white" stroke="black" stroke-width="0.223766"/>
<path d="M17.1904 13.4528C16.8738 12.3963 17.5335 11.7879 17.7358 11.6679C17.9294 11.5398 18.0525 11.4918 17.9646 11.6919C17.8326 11.9881 17.9734 12.8125 17.472 13.3328C17.3136 13.5089 17.252 13.693 17.1904 13.4528Z" fill="white" stroke="black" stroke-width="0.223766"/>
<path d="M17.2604 13.2209C17.5243 12.3004 16.9525 11.7801 16.7766 11.6761C16.6094 11.572 16.5039 11.532 16.5831 11.7001C16.6886 11.9562 16.5742 12.6766 17.0141 13.1249C17.1548 13.2769 17.2076 13.429 17.2604 13.2209Z" fill="white" stroke="black" stroke-width="0.223766"/>
<path d="M16.9352 12.7878C16.4602 13.2521 16.4514 13.9325 16.6625 14.3327C16.7945 14.5648 16.8121 14.5488 16.9352 14.3807C17.2695 13.8924 17.0672 13.188 17.0848 12.8759C17.0936 12.5797 16.988 12.7398 16.9352 12.7878Z" fill="white" stroke="black" stroke-width="0.223766"/>
<path d="M17.7179 13.5248C17.7179 14.1652 17.2868 14.6855 16.8294 14.8456C16.5655 14.9336 16.5655 14.9096 16.6007 14.7175C16.7238 13.9971 17.3308 13.7329 17.5507 13.5008C17.7619 13.2767 17.7179 13.4608 17.7179 13.5248Z" fill="white" stroke="black" stroke-width="0.223766"/>
<path d="M16.0824 15.4301C16.8565 14.7897 16.4431 14.3415 16.4783 13.9253C16.4958 13.7011 16.3991 13.7572 16.3111 13.8372C15.8185 14.2775 15.7921 15.0619 15.8977 15.366C15.9416 15.5021 16.012 15.4861 16.0824 15.4301Z" fill="white" stroke="black" stroke-width="0.223766"/>
<path d="M17.1198 15.0133C16.8647 15.7177 16.1873 16.1499 15.6155 16.174C15.2813 16.19 15.2901 16.166 15.4044 15.9579C15.8355 15.2055 16.6008 15.1174 16.9439 14.9253C17.2605 14.7492 17.1462 14.9413 17.1198 15.0133Z" fill="white" stroke="black" stroke-width="0.223766"/>
<path d="M15.0178 16.3346C16.0206 15.8783 15.8183 15.1179 16.003 14.9258C16.1349 14.7897 15.9766 14.8057 15.8974 14.8537C15.308 15.1659 14.833 15.6622 14.8242 16.1905C14.8242 16.3906 14.8418 16.4146 15.0178 16.3346Z" fill="white" stroke="black" stroke-width="0.223766"/>
<path d="M13.6446 17.1824C14.9113 17.3665 15.5007 16.494 15.8701 16.414C16.0637 16.3739 15.9229 16.3019 15.8262 16.2939C14.9817 16.2059 13.9085 16.566 13.583 16.9663C13.451 17.1263 13.451 17.1584 13.6446 17.1824Z" fill="white" stroke="black" stroke-width="0.223766"/>
<path d="M14.9291 15.8137C14.674 16.5741 13.7239 17.1985 13.0114 17.2465C12.6771 17.2705 12.6771 17.2385 12.8003 17.0384C13.3721 16.0939 14.3661 15.9338 14.718 15.6936C15.0171 15.4855 14.9555 15.7417 14.9291 15.8137ZM12.2549 7.29706C12.3692 6.70474 13.3281 6.66472 13.4776 6.56866C13.6536 6.46459 13.6272 6.56866 13.5656 6.72874C13.3897 7.14496 12.7915 7.31305 12.5188 7.36108C12.2989 7.39309 12.2285 7.40911 12.2549 7.29706Z" fill="white" stroke="black" stroke-width="0.223766"/>
<path d="M11.9647 7.31332C11.868 6.70498 12.818 6.41683 12.9324 6.28075C13.0643 6.13667 13.0819 6.22471 13.0203 6.3928C12.906 6.75301 12.4925 7.17724 12.2462 7.28929C12.0439 7.38535 11.9823 7.42537 11.9647 7.31332Z" fill="white" stroke="black" stroke-width="0.223766"/>
<path d="M11.1819 7.66499C11.094 6.93659 11.8681 6.82451 12.0704 6.5924C12.2023 6.44831 12.2112 6.52835 12.1672 6.69644C12.0792 7.06466 11.6921 7.4969 11.4546 7.63295C11.2699 7.73702 11.1907 7.77704 11.1819 7.66499Z" fill="white" stroke="black" stroke-width="0.223766"/>
<path d="M11.4195 7.50578C12.22 7.03352 12.783 7.29767 13.0117 7.27367C13.2316 7.24964 13.302 7.37771 12.9238 7.56983C12.4575 7.80194 11.8066 7.76993 11.5515 7.68188C11.2876 7.58582 11.3667 7.53779 11.4195 7.50578ZM10.2144 7.82597C10.4607 7.04153 11.0325 7.1696 11.1996 7.07354C11.3667 6.97751 11.3843 7.00151 11.3491 7.17761C11.2788 7.48979 10.6894 7.83398 10.3991 7.93802C10.2935 7.97003 10.1616 8.01806 10.2144 7.82597Z" fill="white" stroke="black" stroke-width="0.223766"/>
<path d="M10.3285 7.96189C11.0147 7.45762 11.5513 7.83382 11.7624 7.77781C11.9207 7.73779 11.8503 7.83382 11.7888 7.87384C11.3489 8.15401 10.8035 8.30608 10.3813 8.12998C10.2141 8.06596 10.2053 8.04994 10.3285 7.96189ZM8.84184 8.47417C8.83305 7.97791 9.95904 7.7698 10.1966 7.46563C10.3373 7.28152 10.4605 7.37758 10.3901 7.67374C10.2845 8.05795 9.51039 8.48218 9.08817 8.56222C8.83305 8.61025 8.84184 8.53021 8.84184 8.47417Z" fill="white" stroke="black" stroke-width="0.223766"/>
<path d="M8.87691 8.56172C9.58944 7.97741 10.1876 8.1695 10.4075 8.11346C10.6275 8.06543 10.7154 8.18552 10.3723 8.42564C9.9501 8.71379 9.29916 8.76983 9.02646 8.71379C8.75376 8.65778 8.82411 8.60174 8.87691 8.56172ZM7.60137 9.41819C7.80369 8.56973 8.44587 8.39363 8.60421 8.23355C8.75376 8.07344 8.9121 8.12147 8.78013 8.50568C8.62179 8.96192 8.10279 9.36215 7.83009 9.45821C7.56618 9.56225 7.58379 9.48221 7.60137 9.41819Z" fill="white" stroke="black" stroke-width="0.223766"/>
<path d="M7.61082 9.53101C8.12982 8.7706 8.80716 8.7946 9.0183 8.69056C9.22062 8.57848 9.36135 8.67454 9.08865 9.00271C8.77197 9.40294 8.12103 9.62707 7.82193 9.64306C7.52283 9.65908 7.57563 9.58705 7.61082 9.53101Z" fill="white" stroke="black" stroke-width="0.223766"/>
<path d="M6.94227 10.4353C6.6432 9.57085 7.32933 9.25066 7.39971 9.1066C7.47888 8.96251 7.55805 8.96251 7.60203 9.11458C7.79556 9.73093 7.17099 10.3313 7.07424 10.4513C6.97746 10.5634 6.95988 10.5074 6.94227 10.4353Z" fill="white" stroke="black" stroke-width="0.223766"/>
<path d="M7.08252 10.6749C7.32003 9.7064 7.9446 9.76244 8.08536 9.62636C8.23491 9.49028 8.25249 9.58634 8.22612 9.76244C8.15574 10.2347 7.53117 10.5549 7.24968 10.715C7.16169 10.763 7.05615 10.819 7.08252 10.6749ZM6.48435 11.8116C6.05331 10.899 6.56352 10.2827 6.72186 10.1466C6.8802 10.0186 6.97698 9.96254 6.92418 10.1466C6.8538 10.4268 7.10013 11.1472 6.72186 11.6755C6.59871 11.8516 6.5811 12.0197 6.48435 11.8116Z" fill="white" stroke="black" stroke-width="0.223766"/>
<path d="M6.71349 11.9954C6.61674 11.4351 6.96861 10.9228 7.34685 10.7227C7.56678 10.6027 7.57557 10.6347 7.57557 10.8028C7.55799 11.3231 7.02138 11.7553 6.86304 11.9954C6.71349 12.2196 6.72228 12.0515 6.71349 11.9954Z" fill="white" stroke="black" stroke-width="0.223766"/>
<path d="M6.81006 13.4528C7.12674 12.3963 6.46698 11.7879 6.26466 11.6679C6.07113 11.5398 5.94798 11.4918 6.03594 11.6919C6.16791 11.9881 6.02715 12.8125 6.52857 13.3328C6.68691 13.5089 6.73968 13.693 6.81006 13.4528Z" fill="white" stroke="black" stroke-width="0.223766"/>
<path d="M6.73995 13.2209C6.47604 12.3004 7.04784 11.7801 7.22379 11.6761C7.39092 11.572 7.49649 11.532 7.41732 11.7001C7.31175 11.9562 7.42611 12.6766 6.98625 13.1249C6.84552 13.2769 6.79275 13.429 6.73995 13.2209Z" fill="white" stroke="black" stroke-width="0.223766"/>
<path d="M7.065 12.7878C7.54002 13.2521 7.54884 13.9325 7.3377 14.3327C7.20576 14.5648 7.18815 14.5488 7.065 14.3807C6.73074 13.8924 6.93306 13.188 6.91545 12.8759C6.90666 12.5797 7.01223 12.7398 7.065 12.7878Z" fill="white" stroke="black" stroke-width="0.223766"/>
<path d="M6.28272 13.5248C6.28272 14.1652 6.71376 14.6855 7.17117 14.8456C7.43508 14.9336 7.43508 14.9096 7.39989 14.7175C7.27674 13.9971 6.66978 13.7329 6.44985 13.5008C6.23874 13.2767 6.28272 13.4608 6.28272 13.5248Z" fill="white" stroke="black" stroke-width="0.223766"/>
<path d="M7.9188 15.4301C7.14471 14.7897 7.55814 14.3415 7.52295 13.9253C7.50537 13.7011 7.60212 13.7572 7.69011 13.8372C8.18271 14.2775 8.20911 15.0619 8.10354 15.366C8.05956 15.5021 7.98918 15.4861 7.9188 15.4301Z" fill="white" stroke="black" stroke-width="0.223766"/>
<path d="M6.88083 15.0133C7.13595 15.7177 7.81329 16.1499 8.38509 16.174C8.71935 16.19 8.71056 16.166 8.5962 15.9579C8.16516 15.2055 7.39983 15.1174 7.05678 14.9253C6.7401 14.7492 6.85446 14.9413 6.88083 15.0133Z" fill="white" stroke="black" stroke-width="0.223766"/>
<path d="M8.98239 16.3346C7.97958 15.8783 8.1819 15.1179 7.99716 14.9258C7.86522 14.7897 8.02356 14.8057 8.10273 14.8537C8.69211 15.1659 9.16713 15.6622 9.17592 16.1905C9.17592 16.3906 9.15834 16.4146 8.98239 16.3346Z" fill="white" stroke="black" stroke-width="0.223766"/>
<path d="M10.3555 17.1824C9.08874 17.3665 8.49936 16.494 8.12991 16.414C7.93638 16.3739 8.07714 16.3019 8.17389 16.2939C9.01839 16.2059 10.0916 16.566 10.417 16.9663C10.549 17.1263 10.549 17.1584 10.3555 17.1824Z" fill="white" stroke="black" stroke-width="0.223766"/>
<path d="M9.07059 15.8134C9.32571 16.5739 10.2758 17.1982 10.9883 17.2462C11.3226 17.2702 11.3226 17.2382 11.1994 17.0381C10.6276 16.0936 9.63357 15.9335 9.2817 15.6934C8.98263 15.4853 9.04419 15.7414 9.07059 15.8134Z" fill="white" stroke="black" stroke-width="0.223766"/>
<path d="M13.4855 8.03403C13.3205 7.92153 12.7055 7.98528 12.5892 7.91028C12.8105 8.07903 13.3017 7.95903 13.4892 8.03403H13.4855ZM14.9742 8.31903C14.843 8.10528 14.0592 7.95903 13.943 7.76778C14.1492 8.13528 14.753 8.08653 14.9742 8.31903ZM14.8617 8.56653C14.5692 8.31153 13.8942 8.41653 13.688 8.26653C14.1642 8.65653 14.4267 8.35278 14.858 8.56653H14.8617ZM13.163 7.43028C13.3467 7.52028 13.5755 7.60653 13.688 7.81653C13.5567 7.65528 13.3205 7.59153 13.1255 7.45653C13.1367 7.45653 13.1517 7.44153 13.163 7.43028ZM16.0505 9.08028C15.9342 8.84028 15.5255 8.57778 15.4917 8.48778C15.6042 8.79903 15.9417 8.87403 16.0467 9.08028H16.0505ZM16.1517 9.50403C15.7992 9.00153 15.248 9.05403 15.0267 8.86653C15.1955 9.05028 15.8292 9.16653 16.1517 9.50403ZM16.9692 10.2803C16.9955 9.74403 16.5567 9.54528 16.5417 9.24153C16.5305 9.60153 16.9917 10.089 16.9692 10.2803ZM16.7517 10.569C16.6617 10.104 16.0655 10.074 15.9605 9.80028C15.9605 10.0553 16.6617 10.3215 16.748 10.569H16.7517ZM17.243 10.3065C17.5617 10.659 17.3405 11.1953 17.4717 11.5853C17.3142 11.2965 17.393 10.5765 17.2467 10.3065H17.243ZM16.7255 11.8065C17.198 12.2753 17.0067 12.7928 17.198 13.0178C16.9617 12.7065 16.9955 12.099 16.7255 11.8103V11.8065ZM17.7117 11.874C17.303 12.2828 17.5505 12.8978 17.3367 13.1865C17.5767 12.939 17.543 12.174 17.7117 11.874ZM17.198 11.874C17.1455 11.4015 16.6617 11.154 16.6205 10.899C16.5642 11.154 17.0855 11.5553 17.198 11.874ZM16.9542 12.999C17.0292 13.329 16.7405 14.034 16.8305 14.2515C16.6355 13.8765 16.9955 13.164 16.9542 13.0028V12.999ZM17.5767 13.7528C17.3855 14.3378 16.9955 14.3003 16.8755 14.6528C16.9617 14.3153 17.4755 14.0115 17.5767 13.7528ZM16.3205 14.0265C16.0655 14.4203 16.2755 14.8665 16.0655 15.1478C16.3655 14.8665 16.2042 14.3453 16.3205 14.0265ZM16.9355 15.099C16.628 15.6203 15.9942 15.5715 15.7392 15.9465C15.9942 15.474 16.778 15.3953 16.9392 15.099H16.9355ZM15.818 15.0353C15.2742 15.3803 15.443 15.7403 15.0267 16.1228C15.5442 15.7403 15.503 15.3165 15.818 15.0353ZM15.563 16.4303C15.038 16.4115 14.2805 17.0378 13.823 16.989C14.2805 17.079 15.1242 16.5165 15.563 16.4265V16.4303ZM14.7117 15.8678C14.6742 16.3553 13.3017 16.6703 13.1555 16.9965C13.3205 16.5653 14.528 16.2465 14.7117 15.8715V15.8678ZM11.6067 6.86778C11.4305 6.72903 11.2167 6.61653 11.1567 6.48153C11.2017 6.65778 11.3742 6.78153 11.5505 6.90528C11.5692 6.89778 11.588 6.87153 11.6067 6.86403V6.86778ZM11.3067 7.00653C11.033 6.88653 10.718 6.89403 10.5755 6.72903C10.6655 6.89403 10.9617 6.95778 11.2167 7.04778C11.243 7.03278 11.2805 7.01403 11.3067 7.01028V7.00653ZM10.5155 8.03028C10.6805 7.91778 11.2955 7.98528 11.4117 7.91028C11.1905 8.07903 10.6992 7.95903 10.5117 8.03028H10.5155ZM9.02673 8.31903C9.15798 8.10528 9.94173 7.95903 10.058 7.76778C9.85548 8.13528 9.24798 8.08653 9.02673 8.31903ZM9.13923 8.56653C9.43173 8.31153 10.1105 8.41653 10.313 8.26653C9.83673 8.65653 9.57423 8.35278 9.14298 8.56653H9.13923ZM10.313 7.81653C10.478 7.49403 10.9505 7.45653 11.078 7.26153C10.8905 7.55028 10.4892 7.59903 10.313 7.81653ZM11.663 7.53528C12.1505 7.32903 12.6267 7.50528 12.8555 7.40778C12.5742 7.54278 11.903 7.47903 11.6667 7.53528H11.663ZM7.95423 9.08028C8.06673 8.84028 8.47173 8.57403 8.50923 8.48778C8.39673 8.79903 8.05923 8.87403 7.95423 9.08028ZM7.84923 9.50403C8.20173 9.00153 8.75298 9.05403 8.97423 8.86653C8.80923 9.05028 8.17548 9.16653 7.84923 9.50403ZM7.03173 10.2803C7.00548 9.74403 7.44423 9.54528 7.46298 9.24153C7.47048 9.60153 7.01298 10.089 7.03173 10.2803ZM7.24923 10.569C7.33923 10.104 7.93548 10.074 8.04048 9.80028C8.04048 10.0553 7.33923 10.3215 7.25298 10.569H7.24923ZM6.75798 10.3065C6.44298 10.659 6.66048 11.1915 6.53298 11.5853C6.68673 11.2965 6.60798 10.5765 6.75798 10.3065ZM7.27548 11.8065C6.80298 12.2753 6.99423 12.7928 6.80298 13.0178C7.03923 12.7065 7.00548 12.099 7.27548 11.8103V11.8065ZM6.29298 11.874C6.69798 12.2828 6.45048 12.8978 6.66048 13.1865C6.42423 12.939 6.45798 12.174 6.29298 11.874ZM6.80298 11.874C6.85548 11.4015 7.33923 11.154 7.38048 10.899C7.43673 11.154 6.91548 11.5553 6.80298 11.874ZM7.04673 12.999C6.97173 13.329 7.26048 14.034 7.17048 14.2515C7.36548 13.8765 7.00548 13.164 7.04673 13.0028V12.999ZM6.42423 13.7528C6.61923 14.3378 7.00548 14.3003 7.12923 14.6528C7.03923 14.3153 6.52923 14.0115 6.42423 13.7528ZM7.68048 14.0265C7.93548 14.4203 7.72548 14.8665 7.93548 15.1478C7.63548 14.8665 7.79673 14.3453 7.68048 14.0265ZM7.06548 15.099C7.37298 15.6203 8.00673 15.5715 8.26548 15.9465C8.00673 15.474 7.22298 15.3953 7.06548 15.099ZM8.18298 15.0353C8.72673 15.3803 8.56173 15.7403 8.97423 16.1228C8.45673 15.7403 8.50173 15.3165 8.18298 15.0353ZM8.43798 16.4265C8.96298 16.4115 9.72423 17.0378 10.178 16.989C9.72423 17.0753 8.87673 16.5165 8.43798 16.4265ZM9.29298 15.864C9.32673 16.3553 10.6992 16.6665 10.8492 16.9965C10.6805 16.5653 9.47673 16.2465 9.28923 15.8678L9.29298 15.864ZM11.288 7.55028C11.393 7.11903 11.9255 7.04028 11.993 6.78153C11.9667 7.05528 11.3405 7.35903 11.288 7.55028ZM12.8442 6.47778C12.7692 6.80778 12.1955 6.99153 12.1167 7.23903C12.143 6.90153 12.7317 6.71403 12.8442 6.47778ZM12.3942 7.25778C12.668 6.85653 13.2305 6.95778 13.4255 6.72903C13.283 6.99903 12.5892 7.00653 12.3942 7.25403V7.25778Z" fill="#006233"/>
<path d="M16.117 12.1995C16.117 14.2807 14.2683 15.9645 11.9808 15.9645C9.69702 15.9645 7.84452 14.2807 7.84452 12.2032C7.84452 10.122 9.69702 8.43823 11.9808 8.43823C14.2683 8.43823 16.117 10.1257 16.117 12.2032V12.1995Z" stroke="#F7C608" stroke-width="0.225" stroke-linecap="round" stroke-linejoin="round"/>
<path d="M11.1755 15.9683L11.1568 16.0133C11.1455 16.0433 11.1155 16.062 11.078 16.0583L10.778 15.9871L10.8755 15.6983L11.1755 15.7621C11.2093 15.7696 11.228 15.7995 11.213 15.8295L11.2055 15.867M10.493 15.6871L10.508 15.642C10.5155 15.6083 10.5493 15.5933 10.583 15.6045C10.6791 15.64 10.7767 15.6712 10.8755 15.6983L10.7818 15.9871C10.6768 15.9608 10.5793 15.9346 10.4855 15.9008C10.4555 15.8858 10.448 15.8258 10.4593 15.792" fill="#F7C608"/>
<path d="M11.1144 15.943L11.1032 15.9768C11.0957 15.9993 11.0657 16.0105 11.0394 16.0068L10.7919 15.9468L10.8594 15.7368C10.9494 15.763 11.0432 15.7818 11.1069 15.793C11.1369 15.8005 11.1519 15.823 11.1444 15.8455L11.1369 15.8718M10.5444 15.7218L10.5557 15.6843C10.5632 15.6655 10.5894 15.6543 10.6157 15.6618C10.6869 15.6843 10.7657 15.7143 10.8594 15.7368L10.7919 15.9468C10.7099 15.9258 10.6286 15.902 10.5482 15.8755C10.5219 15.8605 10.5107 15.8193 10.5219 15.7968" fill="#006233"/>
<path d="M10.0386 15.6048L10.0123 15.6423C9.99357 15.6723 9.95607 15.6798 9.92232 15.6685C9.84732 15.6235 9.74607 15.5748 9.65982 15.5223L9.83982 15.2673C9.92619 15.3179 10.0151 15.3642 10.1061 15.406C10.1361 15.421 10.1436 15.4548 10.1248 15.481L10.1023 15.5185M9.47607 15.1585L9.50232 15.121C9.52107 15.091 9.55857 15.0835 9.58857 15.1023C9.65607 15.151 9.74232 15.211 9.83982 15.2673L9.65607 15.5223C9.57006 15.4734 9.48624 15.4209 9.40482 15.3648C9.37857 15.3385 9.38982 15.2785 9.40482 15.2523" fill="#F7C608"/>
<path d="M9.99423 15.5632L9.97173 15.5932C9.96048 15.612 9.93048 15.6158 9.90048 15.6045C9.84048 15.567 9.75798 15.5295 9.68298 15.4845L9.81423 15.3007C9.88923 15.3495 9.97548 15.3908 10.0355 15.417C10.058 15.432 10.0692 15.4545 10.0542 15.477L10.0355 15.4995M9.51798 15.2032L9.53673 15.1733C9.55173 15.1545 9.57798 15.1507 9.60423 15.1657C9.67251 15.2134 9.74256 15.2584 9.81423 15.3007L9.68298 15.4845C9.60798 15.4395 9.53298 15.3982 9.47298 15.3532C9.45048 15.3345 9.45423 15.2895 9.46923 15.2708" fill="#006233"/>
<path d="M9.0675 14.9639L9.03 14.9939C9 15.0164 8.9625 15.0127 8.9325 14.9939C8.87625 14.9339 8.79375 14.8627 8.72625 14.7877L8.9775 14.5889C9.0525 14.6677 9.135 14.7389 9.19125 14.7914C9.2175 14.8139 9.21375 14.8477 9.1875 14.8664L9.15375 14.8964M8.66625 14.3939L8.70375 14.3602C8.73 14.3414 8.7675 14.3414 8.79 14.3677C8.84844 14.446 8.91102 14.5211 8.9775 14.5927L8.72625 14.7877C8.655 14.7127 8.5875 14.6414 8.53125 14.5702C8.5125 14.5402 8.5425 14.4877 8.56875 14.4652" fill="#F7C608"/>
<path d="M9.03381 14.9153L9.00381 14.9378C8.98506 14.9528 8.95881 14.9491 8.93256 14.9303L8.76006 14.7578L8.94381 14.6153C9.00015 14.674 9.05895 14.7303 9.12006 14.7841C9.13881 14.8066 9.13881 14.8328 9.12006 14.8478L9.09381 14.8665M8.68881 14.4466L8.71506 14.4241C8.73756 14.4091 8.76381 14.4128 8.78256 14.4316C8.82756 14.4878 8.88006 14.5516 8.94381 14.6191L8.76006 14.7578L8.59881 14.5778C8.58381 14.5553 8.60256 14.5141 8.62131 14.4991" fill="#006233"/>
<path d="M8.33286 14.1014L8.28411 14.1201C8.25411 14.1351 8.21661 14.1201 8.19411 14.0976L8.05911 13.8426L8.36286 13.7189C8.41161 13.8126 8.46411 13.9064 8.50536 13.9664C8.52036 13.9964 8.50536 14.0264 8.47536 14.0414L8.43786 14.0564M8.12286 13.4489L8.16786 13.4264C8.20161 13.4151 8.23536 13.4264 8.25036 13.4564C8.28312 13.5459 8.32065 13.6335 8.36286 13.7189L8.06286 13.8426C8.0163 13.7603 7.97499 13.6752 7.93911 13.5876C7.93161 13.5501 7.97661 13.5089 8.01036 13.4939" fill="#F7C608"/>
<path d="M8.31399 14.0447L8.28024 14.0559C8.25774 14.0672 8.23149 14.0559 8.21274 14.0334L8.10024 13.8234L8.31774 13.7334C8.35449 13.804 8.39454 13.8728 8.43774 13.9397C8.44899 13.9659 8.44149 13.9922 8.41899 13.9997L8.38899 14.0109M8.12649 13.5047L8.16399 13.4934C8.18649 13.4822 8.21274 13.4934 8.22399 13.5159C8.25225 13.5897 8.28354 13.6622 8.31774 13.7334L8.10399 13.8234C8.0664 13.7541 8.03259 13.6827 8.00274 13.6097C7.99524 13.5834 8.02524 13.5497 8.04774 13.5384" fill="#006233"/>
<path d="M7.89351 13.0807L7.84101 13.0882C7.82538 13.0895 7.80972 13.0858 7.79628 13.0777C7.78281 13.0697 7.77225 13.0576 7.76601 13.0432L7.70976 12.7657L8.03976 12.7244C8.05563 12.8169 8.0769 12.9083 8.10351 12.9982C8.10726 13.0319 8.08476 13.0582 8.05101 13.0619L8.00601 13.0694M7.89351 12.4057L7.94601 12.3982C7.97976 12.3907 8.00976 12.4132 8.01351 12.4432C8.01726 12.5257 8.02476 12.6194 8.03976 12.7244L7.70976 12.7657C7.69266 12.6739 7.68015 12.5812 7.67226 12.4882C7.67976 12.4544 7.73601 12.4244 7.76976 12.4207" fill="#F7C608"/>
<path d="M7.89351 13.0253L7.85601 13.0291C7.83351 13.0328 7.81101 13.0178 7.79976 12.9916L7.75851 12.7591L7.99476 12.7291C8.0073 12.8061 8.02359 12.8824 8.04351 12.9578C8.04726 12.9841 8.03226 13.0066 8.00601 13.0103L7.97601 13.0141M7.88226 12.4628L7.91976 12.4553C7.94601 12.4553 7.96851 12.4703 7.96851 12.4966C7.97601 12.5641 7.97976 12.6466 7.99476 12.7291L7.75851 12.7591C7.74351 12.6841 7.73226 12.6016 7.72851 12.5303C7.72851 12.5041 7.76976 12.4778 7.79601 12.4741" fill="#006233"/>
<path d="M7.78827 11.9938L7.73577 11.9863C7.69827 11.9863 7.67952 11.9563 7.67577 11.9225C7.68702 11.8475 7.69452 11.7425 7.71327 11.645L8.03952 11.69C8.02548 11.782 8.01672 11.8746 8.01327 11.9675C8.00952 12.0013 7.97952 12.02 7.94577 12.0163L7.90077 12.0088M7.99827 11.345L8.05077 11.3488C8.08452 11.3563 8.10702 11.3825 8.10327 11.4125C8.07693 11.5038 8.05566 11.5964 8.03952 11.69L7.70952 11.645C7.72452 11.5513 7.73952 11.4575 7.76202 11.3675C7.77702 11.3375 7.84077 11.3225 7.87452 11.33" fill="#F7C608"/>
<path d="M7.80726 11.9371H7.76976C7.74351 11.9296 7.73226 11.9071 7.72851 11.8808L7.75851 11.6521L7.99476 11.6821C7.98354 11.7592 7.97604 11.8368 7.97226 11.9146C7.96851 11.9408 7.94601 11.9558 7.91976 11.9521H7.88976M7.96851 11.3933L8.00601 11.4008C8.03226 11.4008 8.04726 11.4271 8.04351 11.4533C8.02851 11.5171 8.00601 11.5958 7.99476 11.6783L7.75851 11.6521L7.79976 11.4196C7.81101 11.3933 7.85601 11.3821 7.88226 11.3821" fill="#006233"/>
<path d="M8.02557 10.9245L7.97682 10.902C7.94307 10.8908 7.93182 10.8608 7.93932 10.827C7.97682 10.752 8.01432 10.6545 8.05932 10.5683L8.35932 10.6958C8.31708 10.7812 8.27952 10.8688 8.24682 10.9583C8.23557 10.9845 8.20182 10.9958 8.17182 10.9845L8.12682 10.9658M8.42682 10.3508L8.47557 10.3733C8.50557 10.3845 8.52057 10.4183 8.50557 10.4483C8.45379 10.5282 8.40621 10.6109 8.36307 10.6958L8.05932 10.5683C8.10057 10.482 8.14557 10.392 8.19432 10.317C8.21682 10.2908 8.28432 10.2908 8.31432 10.3058" fill="#F7C608"/>
<path d="M8.06202 10.8766L8.02452 10.8616C8.00202 10.8541 7.99452 10.8241 8.00202 10.8016L8.09952 10.5878L8.31702 10.6778C8.28234 10.7488 8.25105 10.8214 8.22327 10.8953C8.21202 10.9178 8.18577 10.9291 8.16327 10.9178L8.13327 10.9066M8.38452 10.3966L8.41827 10.4116C8.44077 10.4191 8.44827 10.4453 8.43702 10.4716C8.39397 10.5385 8.35395 10.6073 8.31702 10.6778L8.10327 10.5878C8.14077 10.5128 8.17452 10.4378 8.21577 10.3778C8.23077 10.3553 8.27952 10.3516 8.30202 10.3628" fill="#006233"/>
<path d="M8.58339 9.95743L8.54214 9.92368C8.51589 9.90493 8.51214 9.87118 8.52714 9.84118C8.58714 9.78118 8.65464 9.69493 8.72214 9.62368L8.97714 9.82243C8.9106 9.89398 8.84802 9.9691 8.78964 10.0474C8.77767 10.0593 8.7615 10.066 8.74464 10.066C8.72775 10.066 8.71158 10.0593 8.69964 10.0474L8.66589 10.0249M9.14589 9.51118L9.18339 9.54118C9.21339 9.56368 9.21339 9.59743 9.19089 9.62368C9.1164 9.68635 9.04506 9.75268 8.97714 9.82243L8.72214 9.62368C8.79339 9.54868 8.86089 9.47743 8.93214 9.41743C8.96214 9.39868 9.02589 9.41743 9.05214 9.43618" fill="#F7C608"/>
<path d="M8.63208 9.9205L8.60208 9.898C8.58333 9.883 8.58333 9.85675 8.59833 9.83425L8.75958 9.6505L8.93958 9.793C8.88423 9.85306 8.83167 9.91561 8.78208 9.9805C8.76333 9.99925 8.73708 10.003 8.71458 9.988L8.69208 9.96925M9.08958 9.54175L9.11958 9.56425C9.13833 9.57925 9.13833 9.6055 9.11958 9.62425C9.05721 9.67924 8.99715 9.73678 8.93958 9.79675L8.75958 9.65425C8.81958 9.5905 8.87208 9.5305 8.93208 9.48175C8.95833 9.463 9.00708 9.47425 9.02208 9.48925" fill="#006233"/>
<path d="M9.41283 9.17026L9.38658 9.13276C9.36783 9.10276 9.37533 9.07276 9.40158 9.04651C9.47658 9.00526 9.56658 8.94151 9.65658 8.88901L9.83658 9.14401C9.75006 9.19468 9.66621 9.24973 9.58533 9.30901C9.5721 9.3169 9.55644 9.31975 9.54126 9.31699C9.52611 9.31423 9.51246 9.30607 9.50283 9.29401L9.47658 9.25651M10.0953 8.88901L10.1216 8.92651C10.1441 8.95651 10.1328 8.99026 10.1066 9.00526C10.0241 9.04276 9.93408 9.08776 9.83658 9.14401L9.65658 8.88901C9.74283 8.83651 9.83283 8.78401 9.91908 8.74276C9.95658 8.73526 10.0091 8.76901 10.0278 8.79526" fill="#F7C608"/>
<path d="M9.47661 9.14799L9.45411 9.12174C9.44286 9.09924 9.45036 9.07674 9.46911 9.05799C9.53286 9.02049 9.60786 8.96799 9.68286 8.92674L9.81036 9.10674C9.74004 9.15063 9.67125 9.19692 9.60411 9.24549C9.57786 9.26049 9.55161 9.25674 9.53661 9.23424L9.51786 9.21174M10.0316 8.90424L10.0541 8.93424C10.0654 8.95299 10.0579 8.97924 10.0354 8.99049C9.95883 9.02619 9.88377 9.06498 9.81036 9.10674L9.68286 8.92674L9.90036 8.80299C9.93036 8.79549 9.97161 8.81799 9.98661 8.83674" fill="#006233"/>
<path d="M10.4621 8.63412L10.4433 8.58537C10.4358 8.55537 10.4508 8.52537 10.4808 8.51037L10.7771 8.42412L10.8708 8.71287C10.7718 8.74047 10.6742 8.77302 10.5783 8.81037C10.5446 8.81787 10.5146 8.80287 10.5033 8.77287L10.4921 8.73537M11.1971 8.53287L11.2121 8.58162C11.2233 8.61162 11.2046 8.64162 11.1746 8.64912C11.0724 8.66562 10.971 8.68689 10.8708 8.71287L10.7771 8.42412C10.8758 8.39427 10.9759 8.36925 11.0771 8.34912C11.1108 8.34912 11.1521 8.39787 11.1633 8.42412" fill="#F7C608"/>
<path d="M10.5224 8.62583L10.5111 8.58833C10.5074 8.56958 10.5224 8.55083 10.5486 8.53583L10.7924 8.46083L10.8599 8.67083C10.7776 8.69243 10.6963 8.71745 10.6161 8.74583C10.5899 8.75708 10.5636 8.74583 10.5561 8.72333L10.5449 8.69708M11.1336 8.53208L11.1449 8.56583C11.1524 8.58833 11.1374 8.61083 11.1074 8.61833C11.0361 8.62958 10.9499 8.64833 10.8599 8.67083L10.7924 8.46458C10.8741 8.44148 10.9566 8.42147 11.0399 8.40458C11.0699 8.40083 11.0999 8.43458 11.1074 8.45708" fill="#006233"/>
<path d="M11.625 8.38245V8.3337C11.625 8.3037 11.655 8.27745 11.6888 8.26995L11.9962 8.26245V8.5662C11.8936 8.5662 11.7909 8.57118 11.6888 8.5812C11.6513 8.5812 11.6288 8.5587 11.6288 8.52495V8.48745M12.3675 8.47995V8.52495C12.3675 8.5587 12.3413 8.5812 12.3038 8.5812C12.2015 8.57154 12.0989 8.56653 11.9962 8.5662V8.26245C12.1012 8.26245 12.21 8.26245 12.3038 8.26995C12.3413 8.27745 12.3675 8.3337 12.3675 8.36745" fill="#F7C608"/>
<path d="M11.693 8.39313V8.35563C11.693 8.33313 11.7117 8.31813 11.7417 8.31063L12.0005 8.30688V8.52438C11.903 8.52438 11.8092 8.52814 11.7417 8.53564C11.7155 8.53564 11.693 8.51688 11.693 8.49814V8.46439M12.3042 8.46064V8.49438C12.3042 8.51688 12.2855 8.53188 12.2555 8.53188C12.1706 8.52588 12.0855 8.52339 12.0005 8.52438V8.30688L12.2555 8.31063C12.2855 8.31813 12.3042 8.35563 12.3042 8.38188" fill="#006233"/>
<path d="M12.7502 8.43448L12.7615 8.38948C12.7727 8.35948 12.8027 8.34448 12.8402 8.34448L13.1402 8.41198L13.0465 8.70448C12.9475 8.67967 12.8474 8.65966 12.7465 8.64448C12.7127 8.63323 12.694 8.60698 12.7052 8.57323L12.7165 8.53573M13.429 8.71198L13.414 8.75698C13.4065 8.79073 13.3727 8.80573 13.339 8.79448C13.2429 8.75995 13.1453 8.72992 13.0465 8.70448L13.1402 8.41198C13.2415 8.43823 13.3427 8.46448 13.4327 8.49823C13.4627 8.51323 13.4702 8.57323 13.4627 8.60323" fill="#F7C608"/>
<path d="M12.8066 8.46168L12.8141 8.42793C12.8216 8.40543 12.8516 8.39418 12.8778 8.39793L13.1253 8.45418L13.0616 8.66418C12.9786 8.64324 12.8948 8.62572 12.8103 8.61168C12.7841 8.60418 12.7691 8.58168 12.7728 8.55918L12.7841 8.53293M13.3766 8.68293L13.3653 8.71293C13.3578 8.73543 13.3316 8.75043 13.3053 8.73918C13.2251 8.71098 13.1438 8.68596 13.0616 8.66418L13.1253 8.45418C13.2116 8.47668 13.2978 8.49918 13.3728 8.52543C13.3991 8.53668 13.4103 8.58168 13.3991 8.60043" fill="#006233"/>
<path d="M13.8827 8.79162L13.9089 8.75412C13.9277 8.72412 13.9652 8.71662 13.9989 8.72787C14.0739 8.76912 14.1752 8.81787 14.2652 8.87037L14.0889 9.12912C14 9.07953 13.9086 9.03447 13.8152 8.99412C13.7889 8.97537 13.7777 8.94162 13.7964 8.91537L13.8227 8.87787M14.4527 9.23412L14.4227 9.27162C14.4136 9.28428 14.4002 9.29319 14.385 9.29667C14.3698 9.30012 14.3538 9.29787 14.3402 9.29037C14.2591 9.23259 14.1752 9.1788 14.0889 9.12912L14.2652 8.87037C14.3552 8.92287 14.4452 8.97162 14.5202 9.02787C14.5464 9.05037 14.5352 9.11037 14.5164 9.14037" fill="#F7C608"/>
<path d="M13.9311 8.83256L13.9499 8.80256C13.9649 8.78381 13.9911 8.78006 14.0211 8.78756C14.0811 8.82506 14.1636 8.86256 14.2386 8.90756L14.1111 9.09506C14.0378 9.05312 13.9627 9.01433 13.8861 8.97881C13.8636 8.96381 13.8561 8.94131 13.8711 8.91881L13.8861 8.89256M14.4111 9.18881L14.3886 9.21881C14.3736 9.23756 14.3511 9.24131 14.3211 9.22631C14.2529 9.17846 14.1829 9.13343 14.1111 9.09131L14.2386 8.90756L14.4524 9.03506C14.4749 9.05756 14.4711 9.09881 14.4561 9.12131" fill="#006233"/>
<path d="M14.8613 9.42477L14.8988 9.39102C14.925 9.37227 14.9625 9.37227 14.9925 9.39102L15.2025 9.59727L14.955 9.79602C14.8861 9.726 14.8135 9.65967 14.7375 9.59727C14.715 9.57477 14.715 9.54102 14.7413 9.52227L14.775 9.49227M15.27 9.99102L15.2325 10.0248C15.2261 10.0302 15.2187 10.0343 15.2107 10.0369C15.2027 10.0394 15.1943 10.0404 15.186 10.0397C15.1776 10.039 15.1695 10.0367 15.162 10.0328C15.1546 10.029 15.1479 10.0237 15.1425 10.0173C15.084 9.94023 15.0214 9.86637 14.955 9.79602L15.2063 9.59727C15.2738 9.67227 15.345 9.73977 15.4013 9.81102C15.4163 9.84102 15.39 9.89727 15.3638 9.91602" fill="#F7C608"/>
<path d="M14.8952 9.47346L14.9215 9.45096C14.9402 9.43596 14.9702 9.43971 14.9965 9.45471C15.0415 9.50721 15.109 9.56721 15.169 9.62721L14.989 9.76971C14.9315 9.71082 14.8715 9.65451 14.809 9.60096C14.7902 9.58221 14.7902 9.55595 14.809 9.54095L14.8352 9.5222M15.2477 9.9347L15.2177 9.96096C15.199 9.97596 15.169 9.9722 15.1502 9.95345C15.0992 9.88991 15.0454 9.8286 14.989 9.76971L15.169 9.62721L15.334 9.80345C15.349 9.8297 15.3302 9.87096 15.3115 9.88596" fill="#006233"/>
<path d="M15.6035 10.2839L15.6523 10.2614C15.6823 10.2502 15.7198 10.2614 15.7423 10.2877L15.881 10.5352L15.5773 10.6664C15.5285 10.5689 15.4723 10.4789 15.4273 10.4189C15.416 10.3889 15.4273 10.3589 15.461 10.3439L15.4985 10.3252M15.821 10.9327L15.7723 10.9514C15.7423 10.9664 15.7048 10.9514 15.6935 10.9252C15.6596 10.8357 15.6207 10.748 15.5773 10.6627L15.8773 10.5352C15.9226 10.6194 15.9639 10.7058 16.001 10.7939C16.0085 10.8277 15.9635 10.8689 15.9335 10.8839" fill="#F7C608"/>
<path d="M15.6223 10.3397L15.656 10.3247C15.6785 10.3135 15.7048 10.3247 15.7235 10.3472L15.836 10.5535L15.6185 10.6472C15.5815 10.5768 15.5414 10.508 15.4985 10.441C15.4873 10.4185 15.4948 10.3922 15.5173 10.381L15.5473 10.3697M15.8098 10.876L15.7798 10.8872C15.7535 10.8985 15.731 10.8872 15.716 10.8647C15.6898 10.801 15.6598 10.726 15.6185 10.6472L15.836 10.5535L15.941 10.7672C15.9448 10.7972 15.9148 10.831 15.8923 10.8422" fill="#006233"/>
<path d="M16.0505 11.2965L16.103 11.289C16.1192 11.2868 16.1357 11.2901 16.1499 11.2982C16.1641 11.3063 16.1753 11.3189 16.1817 11.334L16.238 11.6077L15.908 11.6565C15.892 11.5641 15.8707 11.4727 15.8442 11.3827C15.8405 11.349 15.8592 11.3227 15.8967 11.319L15.938 11.3115M16.058 11.9752L16.0055 11.9827C15.9717 11.9865 15.9417 11.9677 15.938 11.934C15.9328 11.841 15.9228 11.7484 15.908 11.6565L16.238 11.6077C16.253 11.7052 16.268 11.799 16.2755 11.889C16.2755 11.9227 16.2155 11.9527 16.1817 11.9565" fill="#F7C608"/>
<path d="M16.0504 11.3521L16.0879 11.3484C16.1142 11.3446 16.1367 11.3634 16.1442 11.3859C16.1554 11.4534 16.1779 11.5359 16.1892 11.6146L15.9529 11.6521C15.9405 11.5739 15.9243 11.4963 15.9042 11.4196C15.9004 11.3934 15.9117 11.3709 15.9417 11.3709L15.9717 11.3634M16.0692 11.9146L16.0317 11.9221C16.0054 11.9221 15.9829 11.9071 15.9792 11.8846C15.9742 11.8055 15.9654 11.7267 15.9529 11.6484L16.1892 11.6146C16.2042 11.6971 16.2192 11.7759 16.2229 11.8471C16.2229 11.8734 16.1817 11.8996 16.1554 11.9034" fill="#006233"/>
<path d="M16.1658 12.3842L16.2183 12.388C16.2558 12.3917 16.2783 12.4217 16.282 12.4555L16.2483 12.733L15.9183 12.6917C15.9333 12.5905 15.9408 12.4855 15.9408 12.4105C15.9445 12.3805 15.9783 12.358 16.012 12.3655L16.0533 12.3692M15.9633 13.0367L15.9108 13.0292C15.8733 13.0292 15.8545 12.9992 15.8583 12.9655C15.8808 12.8905 15.9033 12.793 15.9183 12.6917L16.2483 12.7292C16.2333 12.8267 16.2183 12.9242 16.1995 13.0067C16.1845 13.0405 16.1208 13.0555 16.087 13.0517" fill="#F7C608"/>
<path d="M16.1481 12.4405H16.1856C16.2118 12.448 16.2268 12.4705 16.2306 12.4968L16.2006 12.7293L15.9643 12.6993L15.9868 12.4668C15.9868 12.4405 16.0093 12.4218 16.0356 12.4255H16.0693M15.9943 12.9843L15.9568 12.9805C15.9306 12.9768 15.9156 12.9543 15.9193 12.928C15.9343 12.8605 15.9531 12.7855 15.9643 12.6993L16.2006 12.7293C16.1911 12.8047 16.1786 12.8798 16.1631 12.9543C16.1518 12.9843 16.1031 12.9993 16.0806 12.9918" fill="#006233"/>
<path d="M15.9414 13.4561L15.9902 13.4749C16.0239 13.4899 16.0352 13.5199 16.0277 13.5499L15.9152 13.8124L15.6077 13.6886C15.6502 13.6034 15.6878 13.5157 15.7202 13.4261C15.7314 13.3961 15.7652 13.3849 15.7952 13.3961L15.8402 13.4111M15.5439 14.0299L15.4989 14.0111C15.4652 13.9961 15.4502 13.9661 15.4652 13.9361C15.5102 13.8686 15.5627 13.7824 15.6077 13.6886L15.9114 13.8124C15.8718 13.8982 15.828 13.9821 15.7802 14.0636C15.7577 14.0899 15.6902 14.0899 15.6564 14.0749" fill="#F7C608"/>
<path d="M15.9076 13.5046L15.9451 13.5158C15.9638 13.5271 15.9713 13.5533 15.9676 13.5796L15.8701 13.7933L15.6488 13.7071C15.6835 13.6361 15.7148 13.5635 15.7426 13.4896C15.7538 13.4633 15.7801 13.4521 15.8026 13.4596L15.8326 13.4746M15.5888 13.9846L15.5513 13.9733C15.5288 13.9621 15.5213 13.9358 15.5363 13.9133C15.5768 13.8463 15.6144 13.7774 15.6488 13.7071L15.8701 13.7933C15.8354 13.8648 15.7978 13.9348 15.7576 14.0033C15.7388 14.0258 15.6901 14.0296 15.6676 14.0183" fill="#006233"/>
<path d="M15.3934 14.4272L15.4347 14.4572C15.4609 14.4797 15.4647 14.5134 15.4497 14.5434C15.3897 14.6034 15.3222 14.686 15.2547 14.761L14.9997 14.5622C15.0747 14.4872 15.1422 14.4009 15.1872 14.3372C15.2097 14.3147 15.2472 14.3147 15.2734 14.3335L15.3072 14.3597M14.8347 14.8772L14.7972 14.8472C14.7672 14.8247 14.7634 14.7909 14.7859 14.7684C14.8497 14.7122 14.9247 14.6447 14.9997 14.5622L15.2547 14.761C15.1891 14.834 15.1203 14.9041 15.0484 14.971C15.0184 14.9897 14.9547 14.971 14.9284 14.9485" fill="#F7C608"/>
<path d="M15.3455 14.4647L15.3755 14.4872C15.3942 14.5022 15.3942 14.5247 15.3792 14.5509L15.218 14.7309L15.0342 14.5922C15.098 14.5247 15.1542 14.4572 15.1917 14.4047C15.2105 14.3859 15.2405 14.3822 15.2592 14.3972L15.2817 14.4159M14.8917 14.8472L14.8617 14.8247C14.843 14.8097 14.843 14.7834 14.8617 14.7609C14.9216 14.7071 14.9791 14.6508 15.0342 14.5922L15.2217 14.7309C15.1617 14.7947 15.1055 14.8547 15.0455 14.9072C15.023 14.9222 14.978 14.9109 14.9555 14.8959" fill="#006233"/>
<path d="M14.5685 15.2184L14.5947 15.2559C14.6135 15.2859 14.606 15.3197 14.5835 15.3422L14.3322 15.5034L14.1447 15.2484C14.2312 15.1978 14.3151 15.1427 14.396 15.0834C14.4092 15.0756 14.4249 15.0727 14.44 15.0755C14.4552 15.0783 14.4688 15.0864 14.4785 15.0984L14.5047 15.1322M13.8897 15.5072L13.8635 15.4697C13.841 15.4397 13.8485 15.4059 13.8785 15.3872C13.9706 15.3453 14.0608 15.299 14.1485 15.2484L14.3285 15.5034L14.066 15.6534C14.0322 15.6609 13.9797 15.6272 13.9572 15.6009" fill="#F7C608"/>
<path d="M14.5092 15.2409L14.528 15.2709C14.543 15.2897 14.5355 15.3159 14.513 15.3347L14.303 15.4659L14.1717 15.2859L14.3817 15.1472C14.4042 15.1322 14.4342 15.1359 14.4455 15.1547L14.4642 15.1809M13.9542 15.4922L13.9317 15.4622C13.9205 15.4434 13.928 15.4172 13.9505 15.4022C14.027 15.3665 14.1021 15.3277 14.1755 15.2859L14.303 15.4659C14.228 15.5109 14.153 15.5559 14.0855 15.5897C14.0592 15.6009 14.0142 15.5784 14.003 15.5597" fill="#006233"/>
<path d="M13.5305 15.7661L13.5455 15.8111C13.5567 15.8411 13.538 15.8748 13.508 15.8861L13.2155 15.9798L13.118 15.6873C13.2159 15.66 13.3123 15.6275 13.4067 15.5898C13.4405 15.5823 13.4742 15.5973 13.4817 15.6273L13.4967 15.6648M12.7917 15.8711L12.7767 15.8223C12.7655 15.7923 12.7842 15.7623 12.8142 15.7548C12.9042 15.7398 13.0055 15.7173 13.1142 15.6873L13.2155 15.9798C13.1142 16.0061 13.013 16.0361 12.9155 16.0548C12.878 16.0548 12.8405 16.0061 12.8292 15.9798" fill="#F7C608"/>
<path d="M13.4621 15.7731L13.4771 15.8068C13.4846 15.8293 13.4658 15.8518 13.4396 15.8631L13.1996 15.9381L13.1283 15.7281C13.2093 15.7064 13.2894 15.6814 13.3683 15.6531C13.3983 15.6418 13.4246 15.6531 13.4321 15.6756L13.4396 15.7018M12.8546 15.8706L12.8433 15.8368C12.8358 15.8143 12.8508 15.7918 12.8808 15.7843C12.964 15.769 13.0466 15.7502 13.1283 15.7281L13.1996 15.9381C13.1178 15.9609 13.0352 15.9809 12.9521 15.9981C12.9221 15.9981 12.8883 15.9681 12.8771 15.9456" fill="#006233"/>
<path d="M12.3638 16.0244V16.0732C12.3638 16.1069 12.3375 16.1294 12.3038 16.1369C12.2138 16.1369 12.1012 16.1482 11.9962 16.1482L11.9925 15.8444C12.0952 15.8433 12.1979 15.8371 12.3 15.8257C12.3375 15.8257 12.36 15.8482 12.36 15.8819V15.9194M11.625 15.9344V15.8894C11.625 15.8557 11.6475 15.8332 11.685 15.8332C11.7713 15.8369 11.8762 15.8444 11.9925 15.8444V16.1482L11.685 16.1444C11.6513 16.1369 11.625 16.0807 11.625 16.0469" fill="#F7C608"/>
<path d="M12.2998 16.0175V16.0513C12.2998 16.0738 12.2773 16.0887 12.2473 16.0962L11.9923 16.1038V15.89C12.086 15.89 12.1798 15.8788 12.2473 15.875C12.2773 15.875 12.296 15.89 12.2998 15.9125V15.9425M11.6848 15.9538V15.9163C11.6848 15.8975 11.7035 15.8788 11.7335 15.8788C11.8085 15.8825 11.8948 15.89 11.9923 15.8862V16.1038H11.7373C11.7073 16.0963 11.6848 16.055 11.6848 16.0325" fill="#006233"/>
</g>
<defs>
<clipPath id="clip0_69_8188">
<rect width="24" height="24" rx="12" fill="white"/>
</clipPath>
</defs>
</svg>
