<svg width="24" height="24" viewBox="0 0 24 24" fill="none" xmlns="http://www.w3.org/2000/svg">
<g clip-path="url(#clip0_69_1162)">
<path d="M0 -1.19995H24V25.6H0V-1.19995Z" fill="#000066"/>
<path d="M1.57776 12.2L25.5778 3.19995V21.2L1.57776 12.2Z" fill="#BD1021"/>
<path d="M3.83826 12.1996L25.5882 4.16333V20.2358" fill="white"/>
<path d="M16.3232 12.838C16.4974 12.8482 16.4939 13.0224 16.4939 13.0224L17.1088 13.0361C17.1873 12.8209 17.2727 12.8448 17.423 12.9541C17.5145 13.0163 17.6146 13.0646 17.7202 13.0976C17.7782 12.7902 18.2154 12.8516 18.2154 12.8516C18.4067 12.4076 18.4204 12.411 18.3077 12.3564C18.2408 12.3225 18.1859 12.2688 18.1505 12.2027C18.0481 12.0763 17.9934 11.8918 17.9798 11.7791C17.9661 11.6664 17.8363 11.8338 17.809 11.7996C17.7885 11.7655 17.5938 11.786 17.5938 11.786C17.6416 11.8372 17.4777 11.8065 17.4777 11.8065C17.4947 11.8201 17.4777 11.8645 17.4777 11.8645C17.464 11.844 17.3376 11.8235 17.3376 11.8235C17.3281 11.8436 17.3154 11.8621 17.3 11.8782C17.2317 11.8509 17.0951 11.8543 17.0951 11.8543C16.9644 11.8499 16.8352 11.883 16.7228 11.9499C16.6681 11.9806 16.47 12.0797 16.3027 12.2402C16.1421 12.3974 16.0499 12.3769 16.0499 12.3769C16.0021 12.5545 15.6127 12.7697 15.6127 12.7697C15.5512 12.8243 15.3531 12.8516 15.2541 12.7697C15.155 12.6877 15.2541 12.534 15.2541 12.534C15.2951 12.4657 15.3292 12.4691 15.3326 12.2266C15.336 12.066 15.5034 11.9362 15.6742 11.7484C15.8894 11.5161 16.1865 11.1336 16.1865 11.1336C16.1865 11.2497 16.248 11.2702 16.248 11.2702C16.3061 11.1506 16.3915 11.055 16.3915 11.055C16.3949 11.0653 16.4086 11.0687 16.4086 11.0687C16.4769 10.9799 16.511 10.9457 16.511 10.9457C16.4939 10.9355 16.3061 10.9457 16.1353 11.096C15.9645 11.2463 15.8484 11.1985 15.8484 11.1985C15.7288 11.1575 15.7186 11.0618 15.7186 11.0618C15.6332 10.6895 15.9714 10.4231 15.9714 10.4231C15.5137 10.3138 15.845 9.72973 16.4154 9.4838C16.9824 9.23787 16.9756 9.12516 16.9756 9.12516C17.0006 9.15639 17.0213 9.19087 17.037 9.22763C17.0405 9.22763 17.0849 9.16273 17.4128 9.01927C17.7407 8.8724 17.8978 8.74602 17.8978 8.74602C17.9388 8.82799 17.9319 8.88264 17.9319 8.88264C18.8303 8.57182 19.7081 7.85112 19.7081 7.85112C19.7354 7.90918 19.7252 8.0014 19.7252 8.0014C19.8686 7.86478 20.398 7.55054 20.398 7.55054C20.4019 7.60743 20.3891 7.66421 20.3612 7.71397C20.3333 7.7637 20.2915 7.80423 20.2409 7.83062C20.2542 7.85519 20.2634 7.88172 20.2683 7.90918C20.4348 7.80496 20.5988 7.69678 20.7601 7.58469C20.907 7.71107 20.7738 7.91943 20.7738 7.91943C20.8284 7.90918 20.8626 7.86478 20.8626 7.86478C20.9036 8.08338 20.6611 8.27466 20.6611 8.27466C20.7055 8.27466 20.7738 8.23025 20.7738 8.23025C20.7294 8.46935 20.2819 8.72894 20.2819 8.72894C20.3468 8.79042 20.2819 8.86557 20.2273 8.89972C20.176 8.93388 20.0804 9.01244 20.1111 9.04318C20.1385 9.07734 20.34 8.93388 20.34 8.93388C20.3741 9.03293 20.118 9.22763 20.118 9.22763C20.2956 9.25154 20.7874 9.0261 20.7874 9.0261C20.7499 9.21738 20.562 9.36767 20.3332 9.45306C20.1043 9.53845 20.1145 9.55553 20.1145 9.55553C20.1555 9.58286 20.4732 9.49405 20.4732 9.49405C20.3776 9.70582 20.0462 9.85269 20.0462 9.85269C20.1385 9.93125 20.2614 9.83903 20.3878 9.75364C20.5368 9.65991 20.6976 9.58641 20.866 9.53504C21.047 9.47014 21.1802 9.51796 21.1802 9.51796C21.2752 9.48992 21.3771 9.49719 21.4672 9.53845C21.7643 9.56236 21.7951 9.67166 21.7951 9.67166C21.8292 9.67849 21.8531 9.69216 21.9317 9.75022C22.0034 9.80487 22 9.97566 22 10.0645C21.9932 10.1464 21.9693 10.1464 21.9556 10.1669C21.9419 10.1943 21.9385 10.2216 21.9385 10.2523C21.9385 10.2865 21.8634 10.488 21.4023 10.488H20.7089C20.6679 10.488 20.6235 10.5119 20.6235 10.5119C20.4288 10.6076 20.5313 10.4436 20.3024 10.6349C20.0701 10.8227 19.954 10.792 19.954 10.792C19.825 10.9239 19.6844 11.0439 19.5339 11.1506C19.3973 11.2395 19.4212 11.2292 19.5441 11.2804C19.6671 11.3317 19.8447 11.2804 19.8447 11.2804C19.7286 11.359 19.8106 11.3966 19.8106 11.3966C19.9608 11.3043 20.0565 11.3385 20.0565 11.3385C20.1043 11.4717 19.9267 11.6801 19.9267 11.6801C19.995 11.6903 20.1248 11.6801 20.1248 11.6801C20.0906 11.7723 19.9677 11.8713 19.872 11.8987C19.7798 11.9328 19.7935 11.9431 19.8242 12.0011C19.8481 12.0558 19.8276 12.1139 19.8276 12.1139C19.6637 12.0011 19.6569 12.1002 19.6569 12.1002C19.6398 12.2368 19.6432 12.4281 19.6432 12.4281C19.5271 12.37 19.5236 12.4452 19.5236 12.4452C19.4895 12.5681 19.3494 12.7082 19.3494 12.7082C19.3426 12.633 19.2743 12.6125 19.2743 12.6125C19.1992 12.756 19.0659 12.8414 19.0659 12.8414C19.0489 12.9609 19.083 13.1351 19.083 13.1351C18.9942 13.1146 18.9635 13.1146 18.9464 13.1351C18.9361 13.1591 18.9669 13.1693 18.9669 13.1693L20.1077 13.1966C20.1248 13.1966 20.1931 13.2069 20.1931 13.3264C20.1931 13.4528 20.0906 13.4596 20.0906 13.4596L18.8473 13.4289C18.8473 13.4289 18.8508 13.463 18.7859 13.4972C18.721 13.5314 18.7449 13.4596 18.7278 13.6133C18.7073 13.7636 18.4614 13.5997 18.4614 13.5997C18.4204 13.6612 18.3247 13.7363 18.3247 13.7363C18.2667 13.5655 18.2086 13.5177 18.1198 13.6612C18.031 13.808 18.2838 13.7841 18.2838 13.7841C18.2838 13.7841 19.7457 13.5689 19.8242 13.5621C19.9028 13.5519 19.9916 13.5587 20.0292 13.668C20.0633 13.7807 19.8481 13.7978 19.8481 13.7978L18.3452 13.9617C18.3145 14.0505 18.1915 14.0437 18.1915 14.0437C18.2018 14.1291 18.113 14.1803 18.0686 14.2145C18.0207 14.2418 17.8773 14.2316 17.8773 14.2316C17.7065 14.3477 17.6177 14.2555 17.6177 14.2555C17.505 14.3033 17.4333 14.2828 17.341 14.2418C17.2454 14.2008 17.2556 14.0881 17.2556 14.0881L16.3061 14.1906C16.2787 14.1994 16.2532 14.2133 16.2309 14.2316C16.2651 14.276 16.1626 14.3784 16.1626 14.3784C16.1934 14.3955 16.248 14.4502 16.2549 14.5663C16.2617 14.6927 16.1011 14.7132 16.1797 14.8054C16.2583 14.8908 16.4086 14.8156 16.5725 14.7371C16.7365 14.6585 16.897 14.6688 16.9653 14.6688C17.0336 14.6688 17.2317 14.7234 17.3547 14.7644C17.4777 14.8054 17.5186 14.7781 17.5255 14.7166C17.5323 14.6585 17.5904 14.638 17.5904 14.638C17.5733 14.6995 17.6075 14.7268 17.6075 14.7268C17.6519 14.7197 17.6947 14.7047 17.7338 14.6824C17.727 14.7303 17.6655 14.7576 17.6655 14.7576C17.5494 14.8361 17.7133 14.8088 17.7133 14.8088C17.8843 14.7608 18.0624 14.7435 18.2394 14.7576C18.4057 14.8066 18.5688 14.8659 18.7278 14.9352C18.7415 14.8942 18.7312 14.7986 18.7312 14.7986C18.8337 14.8259 18.8747 14.884 18.8747 14.884C18.9157 14.843 18.8883 14.7678 18.8883 14.7678C19.2196 14.9557 18.82 15.0411 18.7141 15.0752C18.6117 15.1094 18.6117 15.1538 18.6117 15.1538C18.6825 15.1305 18.7559 15.1156 18.8303 15.1094C18.9054 15.1026 18.8781 15.1094 19.0523 15.0752C19.2299 15.0411 19.3187 15.1162 19.3187 15.1162C19.1718 15.1231 19.1308 15.1675 19.1308 15.1675C19.2196 15.2255 19.1308 15.2836 19.1308 15.2836C19.001 15.1128 18.8849 15.287 18.8849 15.287C18.9604 15.287 19.035 15.3033 19.1035 15.3348L19.288 15.4271C19.4109 15.4817 19.387 15.4475 19.4792 15.4817C19.5749 15.5159 19.5373 15.6081 19.5373 15.6081C19.5089 15.5598 19.464 15.5234 19.4109 15.5056C19.4041 15.6081 19.305 15.6252 19.305 15.6252C19.428 15.4885 19.165 15.4271 19.0386 15.4305C18.9157 15.4305 18.8234 15.5124 18.8234 15.5124C19.0728 15.7481 19.2436 15.6696 19.2436 15.6696C19.2128 15.755 19.0079 15.7208 19.0079 15.7208C19.1035 15.7959 19.0933 15.8438 19.0933 15.8438C19.042 15.7959 18.9566 15.8199 18.779 15.7071C18.6014 15.5876 18.4409 15.6286 18.4409 15.6286C18.6185 15.8096 18.3794 15.9223 18.3794 15.9223C18.2906 15.977 18.4135 16.0419 18.4135 16.0419C18.3042 16.0624 18.2906 15.9531 18.2906 15.9531C18.2325 15.9394 18.1471 16.0077 18.1471 16.0077C18.154 15.8984 18.3042 15.9531 18.3042 15.8369C18.3111 15.7174 18.1676 15.6252 17.7475 15.6832C17.324 15.7413 17.201 15.6081 17.201 15.6081C17.1668 15.6081 17.16 15.6422 17.16 15.6422C17.2283 15.7106 17.2591 15.7379 17.2488 15.7857C17.2351 15.8301 17.2693 15.8472 17.2693 15.8472C17.1907 15.8403 17.1873 15.7515 17.1873 15.7515C17.1873 15.7891 17.1702 15.7925 17.1429 15.8301C17.1156 15.8677 17.1429 15.9223 17.1429 15.9223C17.1088 15.895 17.0507 15.8608 17.1088 15.7754C17.1498 15.714 17.0165 15.632 17.0165 15.632C16.9653 15.5808 16.8253 15.632 16.8253 15.632C16.745 15.6492 16.6617 15.6466 16.5826 15.6246C16.5035 15.6026 16.4309 15.5618 16.371 15.5056C16.3368 15.5056 16.2719 15.4851 16.2719 15.4851C15.9679 15.6217 15.7015 15.328 15.7015 15.328C15.4727 15.3724 15.3668 15.2597 15.2985 15.1504C15.2591 15.0759 15.1968 15.016 15.1209 14.9796C15.032 14.9249 14.9432 14.7678 15.032 14.6824C15.1004 14.6107 15.0833 14.5936 15.0833 14.5936C14.9637 14.3921 15.2916 14.3306 15.2985 14.2794C15.3087 14.2111 15.377 14.1667 15.4522 14.1633C15.5273 14.1564 15.5273 14.1633 15.5786 14.1154C15.623 14.0642 15.7152 14.1257 15.7152 14.1257C15.7391 14.112 15.903 13.9856 16.0465 14.0505C16.1934 14.1154 16.3163 14.071 16.3163 14.071C16.4188 14.0471 17.2727 13.9344 17.2727 13.9344C17.324 13.849 17.3649 13.75 17.6006 13.6953C17.8363 13.6407 18.0105 13.4904 18.0105 13.4904C17.9695 13.4494 17.9012 13.4494 17.867 13.446C17.8295 13.446 17.7577 13.3777 17.7577 13.3777C17.7133 13.3981 17.6894 13.3879 17.382 13.5758C17.1054 13.7465 17.0985 13.4118 17.0985 13.4118H16.4939C16.4837 13.5382 16.3915 13.5894 16.3915 13.5894L16.1695 13.5997C16.0465 13.5382 16.0465 13.3196 16.0465 13.3196C15.3839 13.3298 15.0184 13.5655 15.0184 13.5655C14.2669 13.183 13.6794 13.0942 13.6794 13.0942C14.1606 13.0593 14.6321 12.9414 15.073 12.7458C15.3683 12.9245 15.7021 13.0299 16.0465 13.0532C16.0636 12.8687 16.1865 12.8243 16.1865 12.8243L16.3232 12.838Z" fill="black"/>
<path d="M15.2409 14.3483C15.0531 14.4576 15.0872 14.5191 15.1043 14.5533C15.1214 14.5874 15.1214 14.6216 15.0701 14.6762C15.0189 14.7275 15.0223 14.7445 15.0223 14.7445C15.0326 14.929 15.159 14.97 15.217 15.0178C15.2648 15.052 15.34 15.1715 15.34 15.1715C15.439 15.3115 15.5415 15.315 15.6167 15.315C15.6952 15.315 15.685 15.3047 15.6508 15.2706L15.5347 15.1783C15.6107 15.2107 15.6794 15.2583 15.7362 15.3184C15.9275 15.5301 16.1051 15.5028 16.1836 15.496C16.2622 15.4857 16.252 15.4379 16.252 15.4379C16.2254 15.4297 16.1978 15.4251 16.17 15.4243C15.8797 15.3969 15.7943 15.2057 15.7943 15.2057C15.9417 15.3353 16.1307 15.408 16.3271 15.4106C16.4091 15.4072 16.4057 15.4311 16.3852 15.4379L16.3032 15.4311C16.2656 15.4311 16.2656 15.4413 16.2725 15.4584C16.2827 15.4721 16.3203 15.4721 16.3647 15.4721C16.4125 15.4721 16.3749 15.4755 16.4945 15.5677C16.6174 15.6634 16.9146 15.5848 16.9146 15.5848C16.7199 15.5404 16.696 15.4482 16.696 15.4482C16.433 15.4823 16.3271 15.3252 16.3271 15.3252C16.2676 15.279 16.2035 15.2389 16.1358 15.2057C16.0944 15.1874 16.0576 15.1602 16.028 15.1259C15.9985 15.0917 15.977 15.0512 15.965 15.0075C16.0095 15.069 16.0914 15.1373 16.1939 15.1647C16.2964 15.192 16.3237 15.2057 16.3237 15.2057C16.2974 15.2116 16.27 15.2092 16.2451 15.1988C16.1427 15.1647 16.2007 15.2091 16.2007 15.2091C16.3169 15.3013 16.3476 15.2945 16.3476 15.2945C16.6413 15.3252 16.4945 15.2057 16.4945 15.2057C16.7062 15.2569 16.7404 15.1783 16.7404 15.1783C16.7848 15.2706 16.9453 15.2364 16.9453 15.2364C16.7336 15.3389 16.8941 15.3081 16.8941 15.3081C17.1093 15.2706 17.1537 15.3252 17.1537 15.3252C17.2083 15.3764 17.2698 15.373 17.2698 15.373C17.2698 15.373 17.3108 15.373 17.3894 15.3867C17.4714 15.4038 17.6011 15.4721 17.7173 15.4618C17.8368 15.4448 17.8539 15.4823 17.8539 15.4823C17.8334 15.4721 17.7788 15.4652 17.69 15.5062C17.5977 15.5506 17.4372 15.5609 17.2049 15.5062C16.9727 15.4516 16.9522 15.4618 16.9522 15.4618C17.004 15.4943 17.0446 15.5421 17.0683 15.5985C17.0786 15.6394 17.1195 15.6394 17.1195 15.6394C17.1366 15.5882 17.2049 15.5677 17.2049 15.5677C17.2583 15.6056 17.3155 15.6376 17.3757 15.6634C17.3894 15.6394 17.3757 15.619 17.3757 15.619C17.4645 15.7043 17.567 15.677 17.567 15.677C17.5943 15.6599 17.5875 15.6087 17.5875 15.6087C17.6216 15.6087 17.6285 15.6292 17.6558 15.6497C17.6797 15.6634 17.7583 15.6531 17.7583 15.6531C17.7309 15.6394 17.707 15.595 17.707 15.595C17.8266 15.5165 18.0828 15.5506 18.0828 15.5506C18.2638 15.5848 18.2433 15.7043 18.2433 15.7043C18.2755 15.7234 18.3043 15.7477 18.3287 15.7761C18.3458 15.7351 18.3287 15.6907 18.3287 15.6907C18.4175 15.7317 18.4312 15.8273 18.4312 15.8273C18.5336 15.718 18.3389 15.595 18.3389 15.595C18.4312 15.5814 18.5336 15.5882 18.5951 15.595C18.6784 15.6095 18.7562 15.6461 18.8205 15.7009C18.8923 15.759 19.0221 15.7863 19.0221 15.7863C19.0186 15.7624 18.9469 15.718 18.9298 15.7112C18.9162 15.7043 18.9093 15.6804 18.9093 15.6804C18.9742 15.6941 19.0152 15.6873 19.0152 15.6873C18.7966 15.5506 18.7386 15.4857 18.7386 15.4857C18.8205 15.496 18.8684 15.4448 18.8684 15.4448C18.6942 15.4448 18.6839 15.4038 18.6839 15.4038C18.7078 15.4072 18.7898 15.4277 18.8957 15.4072C19.0016 15.3867 19.1416 15.4072 19.1416 15.4072C19.0665 15.2842 18.7761 15.3047 18.6805 15.3115C18.5849 15.3184 18.5507 15.3047 18.5507 15.3047C18.5644 15.2979 18.5814 15.2842 18.6532 15.2808C18.7283 15.2808 18.8 15.2876 18.8854 15.2262C18.964 15.1715 19.0801 15.192 19.0801 15.192C19.0528 15.1373 18.9196 15.1169 18.8069 15.192C18.6873 15.2637 18.5849 15.2432 18.5849 15.2432C18.7659 15.2159 18.8205 15.151 18.8205 15.151C18.7659 15.1373 18.7351 15.1544 18.6224 15.1783C18.5131 15.1988 18.4858 15.1613 18.4858 15.1613C18.6054 15.0895 18.6907 15.0588 18.6907 15.0588C18.5883 15.0383 18.4926 14.9905 18.4926 14.9905C18.3833 15.0929 18.3014 15.1476 18.093 15.0451C17.8881 14.9358 17.7788 14.9495 17.7788 14.9495C17.8567 14.9061 17.9452 14.885 18.0344 14.8886C18.1236 14.8922 18.2101 14.9204 18.2843 14.97C18.4209 15.0485 18.4551 14.9836 18.4551 14.9836C18.4141 14.9597 18.4209 14.9324 18.4209 14.9324C18.7488 15.0998 18.8923 15.0007 18.964 14.9495C19.0357 14.8982 18.9298 14.8334 18.9298 14.8334C18.923 14.9358 18.7932 14.9905 18.6839 14.9529C18.5814 14.9187 18.479 14.8709 18.3287 14.806C18.1784 14.7445 17.9871 14.7787 17.8129 14.8129C17.6353 14.8504 17.6114 14.8334 17.5943 14.8197C17.5772 14.806 17.5704 14.7616 17.4782 14.7992C17.3894 14.8368 17.1776 14.7377 17.0478 14.707C16.918 14.6728 16.7028 14.6899 16.5184 14.7924C16.3339 14.8982 16.2383 14.8709 16.1836 14.847C16.129 14.8197 16.0914 14.7514 16.1529 14.6899C16.2144 14.6284 16.2212 14.6113 16.2144 14.5191C16.2076 14.4303 16.1188 14.3757 16.1188 14.3757C16.2007 14.2903 16.2212 14.2732 16.1939 14.239C16.1666 14.198 16.2076 14.198 16.2554 14.1775C16.3032 14.157 16.2827 14.1536 16.2725 14.1263C16.2588 14.099 16.2315 14.1058 16.2315 14.1058C16.1256 14.1092 16.0641 14.0785 16.0641 14.0785C15.8865 13.9965 15.7191 14.1571 15.7191 14.1571C15.6167 14.0785 15.5927 14.1331 15.5757 14.1502C15.5586 14.1673 15.521 14.1844 15.4732 14.1844C15.4322 14.1912 15.3673 14.2083 15.3434 14.2493C15.3434 14.2493 15.3229 14.2834 15.3468 14.3176C15.3468 14.3176 15.3741 14.3586 15.3263 14.4098C15.2751 14.461 15.258 14.4713 15.2751 14.5225C15.2887 14.5669 15.2853 14.6045 15.2648 14.6352C15.2648 14.6352 15.2409 14.6113 15.2478 14.5772C15.2546 14.543 15.2546 14.5225 15.2478 14.5089C15.2478 14.5089 15.1965 14.5567 15.1863 14.5908C15.1863 14.5908 15.1658 14.5362 15.2409 14.4645C15.3092 14.3961 15.3434 14.3552 15.3229 14.3278C15.3092 14.3073 15.2546 14.3415 15.2443 14.3483H15.2409Z" fill="#FFC221"/>
<path d="M15.4489 15.1475C15.4489 15.1475 15.3566 15.0792 15.3669 14.9801C15.3771 14.8879 15.3771 14.8777 15.3669 14.8538C15.3669 14.8538 15.3498 14.864 15.3532 14.9016C15.3532 14.9357 15.3464 14.9733 15.343 14.9801C15.343 14.9801 15.2986 14.9016 15.2747 14.8845C15.2747 14.8845 15.2952 14.8025 15.2678 14.7684C15.2439 14.7308 15.2166 14.7274 15.1859 14.741C15.1449 14.7547 15.1141 14.7923 15.2542 14.905C15.2542 14.905 15.3054 14.9494 15.3396 15.0382C15.3737 15.127 15.4352 15.1407 15.4454 15.1475H15.4489ZM15.8929 14.8811C15.8929 14.8811 15.8895 14.8299 15.9373 14.7342C15.9542 14.7055 15.9639 14.6731 15.9657 14.6398C15.9675 14.6065 15.9613 14.5733 15.9475 14.5429C15.9373 14.5156 15.927 14.5259 15.9783 14.4849C16.0364 14.4336 15.9544 14.3687 16.0568 14.2799C16.0568 14.2799 16.1183 14.2253 16.1354 14.2014C16.1354 14.2014 16.0329 14.256 15.9578 14.2868C15.8895 14.3141 15.6299 14.4439 15.6845 14.5293C15.746 14.6147 15.7392 14.6215 15.7289 14.6591C15.7289 14.6591 15.5718 14.5737 15.6265 14.4405C15.6265 14.4405 15.6538 14.3892 15.7187 14.3243C15.7802 14.2697 15.746 14.338 15.8656 14.2663C15.8656 14.2663 15.9578 14.2116 16.0124 14.1331C16.0124 14.1331 15.9441 14.174 15.9236 14.1809C15.9236 14.1809 15.787 14.2082 15.7255 14.2663C15.6709 14.3243 15.5513 14.4268 15.5889 14.5395C15.5889 14.5395 15.4523 14.5259 15.4181 14.379C15.4181 14.379 15.1585 14.7001 15.705 14.8503C15.705 14.8503 15.8075 14.8777 15.8963 14.8845L15.8929 14.8811Z" fill="black"/>
<path d="M18.2909 13.8146C18.4959 13.7805 19.6708 13.6029 19.7801 13.5926C19.8963 13.5824 19.9407 13.5653 19.9817 13.6609C20.0261 13.7634 19.8177 13.7668 19.8177 13.7668L18.4139 13.9274C18.3456 13.9342 18.3285 13.9069 18.3285 13.9069L18.2773 13.8385C18.2773 13.8385 18.2602 13.8181 18.2909 13.8112V13.8146Z" fill="#FFC221"/>
<path d="M15.4116 14.4533C15.4116 14.4533 15.2613 14.7709 15.8556 14.8495C15.8556 14.8495 15.8591 14.8153 15.883 14.7641C15.9103 14.7129 15.9615 14.6104 15.9103 14.5455C15.8625 14.4806 15.9513 14.5147 15.9615 14.4294C15.9786 14.344 15.9547 14.3542 15.9957 14.2996C15.9957 14.2996 15.8112 14.3679 15.7361 14.4533C15.6678 14.5352 15.8351 14.5967 15.7361 14.6889C15.7361 14.6889 15.6507 14.6548 15.5995 14.566C15.5995 14.566 15.4868 14.566 15.4116 14.4533Z" fill="#5A3719"/>
<path d="M15.9992 14.8462C15.9992 14.8462 16.1461 14.9726 16.3203 14.9692C16.4945 14.9589 16.573 14.9145 16.6175 14.8462C16.6175 14.8462 16.6516 14.8974 16.6516 14.935C16.6516 14.935 16.8019 14.8086 17.0615 14.9179C17.3211 15.0272 17.2459 14.9965 17.304 15.0033C17.304 15.0033 17.1913 14.9862 16.9385 15.1024C16.6755 15.2219 15.9924 15.1809 15.9958 14.8462H15.9992Z" fill="black"/>
<path d="M15.7529 14.2793C15.7529 14.2793 15.8178 14.2895 15.8827 14.2144C15.8827 14.2144 15.7939 14.2314 15.7529 14.2827V14.2793ZM15.2508 14.8736C15.2508 14.8736 15.1278 14.7779 15.2064 14.7574C15.2064 14.7574 15.2645 14.7472 15.2508 14.8736Z" fill="#5A3719"/>
<path d="M17.9352 15.4823C17.9352 15.4823 18.0035 15.3628 18.1914 15.3628C18.3792 15.3628 18.3997 15.4516 18.6388 15.4653C18.6388 15.4653 18.3519 15.5472 18.1538 15.4755C18.0513 15.4379 17.9557 15.4687 17.9352 15.4823Z" fill="black"/>
<path d="M16.0609 14.9316C16.0609 14.9316 16.3478 15.1024 16.5971 14.9145C16.5971 14.9145 16.6176 14.935 16.6381 14.9829C16.6381 14.9829 16.8294 14.7984 17.1675 14.9965C17.1675 14.9965 17.1265 14.9931 16.966 15.058C16.7576 15.1502 16.2351 15.2117 16.0609 14.9282V14.9316Z" fill="#5A3719"/>
<path d="M17.1539 15.1023C17.1539 15.1023 17.4271 15.1365 17.656 15.1228C17.796 15.116 17.9497 15.0886 17.8746 15.1365C17.796 15.1809 17.837 15.1877 18.1615 15.1604C18.4826 15.1262 18.1581 15.2184 18.3801 15.2492C18.3801 15.2492 17.837 15.5224 17.1539 15.1023Z" fill="black"/>
<path d="M17.867 14.9322C17.867 14.9322 18.0241 14.8741 18.1744 14.9424C18.3212 15.0108 18.2973 15.0176 18.3964 15.0278C18.3964 15.0278 18.3281 15.1269 18.1675 15.0483C18.0036 14.9698 17.9626 14.9527 17.867 14.9322ZM18.0446 15.4206C18.0446 15.4206 18.2017 15.3421 18.3725 15.4206C18.393 15.4343 18.4408 15.4548 18.4852 15.4616C18.4852 15.4616 18.3554 15.506 18.2188 15.4616C18.1607 15.4445 18.1163 15.4309 18.0446 15.4206ZM17.2692 15.1406C17.2692 15.1406 17.621 15.1747 17.8089 15.1371C17.8089 15.1371 17.5903 15.2396 18.1402 15.1952C18.1402 15.1952 18.2598 15.1815 18.2427 15.1986C18.2324 15.2157 18.2222 15.2328 18.2837 15.2499C18.2837 15.2499 17.8738 15.4343 17.2692 15.1406Z" fill="#5A3719"/>
<path d="M15.5273 14.8464C15.5273 14.8464 15.5341 14.8703 15.6092 14.9045C15.6682 14.9327 15.7162 14.9795 15.7459 15.0377C15.7578 15.0617 15.7746 15.0829 15.7951 15.0999C15.8157 15.117 15.8397 15.1295 15.8654 15.1368C15.8654 15.1368 15.5922 15.1948 15.4692 15.048C15.4692 15.048 15.377 14.9455 15.5238 14.843" fill="black"/>
<path d="M17.6796 15.4745C17.6796 15.4745 17.5738 15.4677 17.4235 15.4165C17.2766 15.3652 17.239 15.4097 17.1536 15.3482C17.0717 15.2833 16.9043 15.3243 16.8736 15.3277C16.8394 15.3311 16.7506 15.3277 16.8633 15.2559C16.8633 15.2559 16.7745 15.2559 16.7403 15.2081C16.7403 15.2081 16.6994 15.2491 16.5491 15.2355C16.5491 15.2355 16.6174 15.3379 16.3441 15.3072C16.3899 15.36 16.4505 15.398 16.518 15.4163C16.5856 15.4345 16.657 15.4322 16.7233 15.4097C16.7233 15.4165 16.7062 15.495 16.8257 15.5292C16.9555 15.5599 16.9794 15.5838 17.0443 15.6078C17.0443 15.6078 17.0546 15.5565 16.8872 15.437C16.8872 15.437 16.976 15.4301 17.1058 15.4609C17.2356 15.4916 17.5225 15.5668 17.6796 15.4745ZM17.748 15.6009C17.748 15.6009 17.7753 15.6624 17.8573 15.6487C17.9734 15.6219 18.0951 15.6314 18.2057 15.6761C18.2057 15.6761 18.2296 15.5668 17.9666 15.5599C17.9666 15.5599 17.8026 15.5668 17.748 15.6009ZM15.5209 14.8836C15.5209 14.8836 15.4185 14.969 15.5107 15.0544C15.5927 15.133 15.7225 15.1262 15.784 15.1227C15.784 15.1227 15.7498 15.1022 15.7156 15.0544C15.6815 15.0032 15.6815 14.969 15.6132 14.9383C15.5414 14.9075 15.5346 14.9007 15.5209 14.8836ZM15.4185 14.4533C15.4185 14.4533 15.2614 14.7709 15.8625 14.8495C15.8625 14.8495 15.8625 14.8153 15.8864 14.7641C15.9069 14.7129 15.9582 14.6104 15.9137 14.5455C15.8591 14.4806 15.9513 14.5147 15.965 14.4294C15.9786 14.344 15.9547 14.3542 15.9991 14.2996C15.9991 14.2996 15.8113 14.3679 15.7361 14.4533C15.6678 14.5352 15.8352 14.5967 15.7361 14.6889C15.7361 14.6889 15.6507 14.6548 15.5995 14.566C15.5995 14.566 15.4868 14.566 15.4116 14.4533H15.4185Z" fill="#5A3719"/>
<path d="M16.9832 15.1913C16.9832 15.1913 17.1095 15.1708 17.4272 15.2903C17.7483 15.4065 17.8815 15.3791 17.9259 15.3757C17.9259 15.3757 17.7483 15.4714 17.4682 15.3484C17.2222 15.2391 17.2086 15.2801 16.9832 15.1913Z" fill="black"/>
<path d="M18.9808 15.1203C18.9808 15.1203 19.0492 15.1203 19.097 15.1374C19.097 15.1374 19.1209 15.1135 19.1892 15.1032C19.1892 15.1032 19.1448 15.0622 18.9808 15.1203ZM18.7622 14.9427C18.7622 14.9427 18.834 14.9427 18.8579 14.9017C18.8579 14.9017 18.8203 14.8573 18.7622 14.8334C18.7622 14.8334 18.7759 14.888 18.7622 14.9427ZM16.3132 14.1297C16.3132 14.1297 16.2961 14.0956 16.3747 14.0819L17.4438 13.9282C17.4438 13.9282 17.495 13.9282 17.5019 13.9624C17.5121 14 17.4984 14.0273 17.2559 14.0546L16.3815 14.1639C16.3815 14.1639 16.3166 14.1742 16.3132 14.1297Z" fill="#FFC221"/>
<path d="M17.2798 14.0853C17.2798 14.0853 17.2798 14.2254 17.4233 14.2459C17.5599 14.2664 17.6112 14.239 17.6453 14.1673C17.6556 14.1434 17.7 13.9965 17.6385 13.9863C17.6112 13.9829 17.5702 13.9863 17.5394 13.9965C17.4916 14.0204 17.4472 14.0443 17.4609 14.0648C17.495 14.1195 17.5019 14.1332 17.495 14.1332C17.454 14.1434 17.4336 14.1127 17.4267 14.0922C17.4165 14.0648 17.4438 14.0512 17.3516 14.0648C17.3106 14.0683 17.2833 14.0683 17.2833 14.0853H17.2798ZM17.8776 13.976C17.9459 13.9863 17.9425 14.14 17.8571 14.2117C17.7615 14.2869 17.6726 14.2561 17.6726 14.2561C17.6248 14.239 17.6317 14.2425 17.6692 14.1878C17.7034 14.1366 17.7205 14.0648 17.7 14.017C17.6931 13.9999 17.7102 13.9863 17.7341 13.9829C17.7341 13.9829 17.8024 13.9692 17.8776 13.976Z" fill="#FFC221"/>
<path d="M17.9386 13.9889C17.9386 13.9889 17.9932 14.0572 17.9249 14.1767C17.9249 14.1767 17.8976 14.2109 17.9625 14.2075C18.024 14.2007 18.1708 14.1323 18.1572 14.0435C18.1572 14.0435 18.1503 14.023 18.1128 14.023C18.0752 14.023 18.1059 14.006 18.123 13.9957C18.1367 13.9957 18.1879 13.9752 18.0581 13.8932C18.0581 13.8932 18.0376 13.8727 18.0137 13.883C17.9932 13.8898 17.9249 13.9172 17.9249 13.9581C17.9249 13.9752 17.9386 13.9923 17.9386 13.9923V13.9889Z" fill="#FFC221"/>
<path d="M18.0788 13.8798C18.0788 13.8798 18.1813 13.9515 18.1813 13.9755C18.1813 13.9959 18.171 14.0267 18.1983 14.0199C18.2257 14.0199 18.335 13.9959 18.3008 13.9242C18.2735 13.8525 18.2428 13.8217 18.1915 13.8081C18.1403 13.7876 18.1266 13.8115 18.0822 13.8457C18.0822 13.8457 18.0515 13.8662 18.0788 13.8798ZM17.5289 13.9823C17.5289 13.9823 17.546 13.931 17.4537 13.9071C17.4537 13.9071 17.4913 13.873 17.5699 13.8935C17.645 13.9071 17.6382 13.9618 17.6382 13.9652C17.6382 13.9652 17.5767 13.9652 17.5289 13.9823ZM17.727 13.9686C17.727 13.9686 17.8295 13.9515 17.8807 13.955C17.8807 13.955 17.826 13.8422 17.686 13.8764C17.686 13.8764 17.7372 13.9379 17.727 13.9686ZM17.908 13.9413C17.908 13.9413 17.908 13.9037 17.9968 13.8696C17.9968 13.8696 17.9558 13.8286 17.8944 13.8354C17.826 13.8354 17.809 13.8593 17.809 13.8593C17.809 13.8593 17.8875 13.8866 17.908 13.9413ZM17.9422 13.8183C17.9422 13.8183 18.0002 13.832 18.0344 13.8627C18.0344 13.8627 18.0856 13.8047 18.13 13.7944C18.13 13.7944 18.0446 13.7466 17.9422 13.8183Z" fill="#FFC221"/>
<path d="M15.0186 13.5386C15.0186 13.5386 15.2645 13.3269 15.4011 13.3542C15.5377 13.3815 15.4694 13.361 15.6197 13.3371C15.77 13.3166 15.9271 13.2995 15.9886 13.3064C15.9886 13.3064 15.8042 13.1766 15.4797 13.18C15.4797 13.18 15.2542 13.2586 15.0937 13.361C15.0937 13.361 14.7897 13.1937 14.4789 13.2927C14.4789 13.2927 14.817 13.4191 15.0186 13.5386Z" fill="#5A3719"/>
<path d="M17.6283 13.8972L17.6692 13.8904C17.6692 13.8904 17.7376 13.9758 17.6897 13.9758C17.6487 13.9758 17.6624 13.9655 17.6556 13.9416C17.6518 13.9241 17.6421 13.9085 17.6283 13.8972ZM17.3208 13.904C17.3208 13.904 17.2935 13.9382 17.3413 13.9314C17.3994 13.9211 17.3892 13.9314 17.4472 13.887C17.4472 13.887 17.4882 13.8494 17.5565 13.8733C17.5565 13.8733 17.618 13.8938 17.6658 13.8699C17.7136 13.8425 17.7239 13.846 17.7512 13.8494C17.7785 13.8494 17.7785 13.8562 17.8093 13.8289C17.8434 13.805 17.9049 13.8255 17.9425 13.7947C17.9801 13.7606 18.0279 13.7879 17.9425 13.7264C17.9425 13.7264 17.9254 13.7093 17.9254 13.6923C17.9254 13.6923 17.9596 13.7059 17.9869 13.7264C18.0142 13.7537 18.0552 13.7435 18.062 13.7401C18.062 13.7401 18.0689 13.6615 18.1406 13.5932C18.2192 13.5249 18.2192 13.5181 18.1748 13.5181C18.1304 13.5181 18.0552 13.4976 18.0279 13.5181C18.0006 13.5386 17.782 13.682 17.6522 13.7059C17.5224 13.7298 17.4028 13.7674 17.3208 13.904ZM13.8608 13.1048C13.8608 13.1048 14.2604 13.2072 14.3492 13.2482C14.3492 13.2482 14.3697 13.1833 14.1887 13.1321C14.1887 13.1321 14.6293 13.1184 15.0904 13.3302C15.0904 13.3302 15.3159 13.1389 16.0366 13.197C16.0366 13.197 16.0366 13.1355 16.0434 13.0843C16.0434 13.0843 15.5379 13.0706 15.0733 12.7871C15.0733 12.7871 14.6532 12.992 13.8608 13.1048ZM16.0707 13.296C16.0468 12.893 16.2005 12.852 16.2005 12.852C16.2005 12.852 16.2722 12.852 16.3508 12.8691C16.3508 12.8691 16.2278 13.016 16.262 13.3063C16.262 13.3063 16.2757 13.3507 16.1698 13.3507C16.0639 13.3507 16.0707 13.2995 16.0707 13.2995V13.296Z" fill="#FFC221"/>
<path d="M16.1804 13.5657C16.1804 13.5657 16.1018 13.4871 16.095 13.3983C16.095 13.3983 16.095 13.3778 16.1701 13.3778C16.2487 13.3778 16.2555 13.371 16.2726 13.4154C16.2931 13.4598 16.3409 13.552 16.3511 13.5623L16.1804 13.5657Z" fill="#5A3719"/>
<path d="M16.3411 13.3604C16.3347 13.3094 16.3324 13.2581 16.3342 13.2067C16.3376 12.9813 16.3752 13.0018 16.3923 13.0291H16.4709C16.4709 13.0291 16.4128 12.7763 16.3445 12.9266C16.2944 13.0379 16.2766 13.161 16.2932 13.2819C16.2967 13.3502 16.3035 13.3946 16.3137 13.4185L16.3411 13.3604Z" fill="#FFC221"/>
<path d="M17.2187 13.3609C17.2187 13.3609 17.3656 13.3882 17.1401 13.4394C17.1401 13.4394 17.1504 13.7195 17.4202 13.5248C17.4202 13.5248 17.5807 13.4223 17.6935 13.3814C17.6935 13.3814 17.7481 13.3609 17.7413 13.3199C17.7413 13.3199 17.7481 13.2686 17.6901 13.2823C17.6901 13.2823 17.6422 13.2823 17.6115 13.2721C17.6115 13.2721 17.5773 13.2311 17.5568 13.2447C17.5363 13.2618 17.4851 13.2516 17.5261 13.3028C17.5671 13.3506 17.5773 13.337 17.5944 13.3233C17.6149 13.3096 17.7003 13.2755 17.6252 13.3472C17.55 13.4189 17.4817 13.3062 17.4544 13.2857L17.2187 13.3609ZM16.4672 13.395H16.3989C16.3989 13.395 16.3648 13.4497 16.3409 13.3609L16.317 13.4155C16.317 13.4155 16.3955 13.7161 16.4672 13.395Z" fill="#5A3719"/>
<path d="M16.3711 13.0503C16.3711 13.0503 16.3369 13.2484 16.3813 13.3646L17.102 13.3816C17.102 13.3816 17.0952 13.245 17.102 13.0503H17.0064C17.0064 13.0503 16.9893 13.2074 17.0064 13.3065H16.9893C16.9893 13.3065 16.9756 13.1699 16.9893 13.0503H16.9039C16.9039 13.0503 16.8902 13.1972 16.9039 13.3065H16.8868C16.8868 13.3065 16.8732 13.1801 16.8868 13.0503H16.8014C16.8014 13.0503 16.7844 13.1835 16.8014 13.3065H16.7809C16.7809 13.3065 16.7639 13.1733 16.7809 13.0503H16.6887C16.6887 13.0503 16.6682 13.1733 16.6887 13.3065H16.6716C16.6716 13.3065 16.6512 13.1835 16.6716 13.0503H16.5794C16.5794 13.0503 16.5589 13.1938 16.5794 13.3065H16.5589C16.5589 13.3065 16.5453 13.1699 16.5623 13.0503H16.477C16.477 13.0503 16.453 13.1699 16.477 13.3065H16.453C16.453 13.3065 16.4394 13.204 16.4599 13.0503H16.3711ZM17.1328 13.4055C17.1328 13.4055 17.1157 13.0572 17.1806 12.9615C17.2489 12.8727 17.266 12.8932 17.3787 12.9615C17.4948 13.0367 17.6417 13.1152 17.669 13.1255C17.6895 13.1357 17.7237 13.1425 17.7237 13.2074C17.7237 13.2723 17.7339 13.2894 17.6349 13.2074C17.6081 13.1815 17.5768 13.1607 17.5426 13.146C17.4538 13.1152 17.5631 13.163 17.5939 13.2109C17.6212 13.245 17.6451 13.245 17.5734 13.2621C17.4251 13.3053 17.2781 13.3532 17.1328 13.4055Z" fill="#FFC221"/>
<path d="M17.3822 13.1529C17.3822 13.1529 17.3309 13.0914 17.3992 13.0743C17.4676 13.0607 17.471 13.1768 17.4846 13.2485C17.4949 13.3237 17.3993 13.1768 17.389 13.1563L17.3822 13.1529ZM17.2899 13.4603C17.2899 13.4603 17.2114 13.4911 17.266 13.515C17.3139 13.5389 17.4539 13.4227 17.4095 13.4296C17.3548 13.4398 17.2899 13.4637 17.2899 13.4637V13.4603ZM17.3924 13.3578C17.3924 13.3578 17.4607 13.3476 17.4471 13.3749C17.4368 13.4091 17.4129 13.3886 17.3992 13.3818C17.389 13.3749 17.3446 13.3578 17.3958 13.3544L17.3924 13.3578Z" fill="black"/>
<path d="M17.7574 13.2619C17.7574 13.2619 17.7779 13.3985 17.894 13.4327C17.894 13.4327 17.9623 13.4463 17.9452 13.3883C17.9452 13.3883 17.935 13.337 17.9247 13.32C17.9145 13.2961 17.8701 13.2858 17.8633 13.2824C17.8564 13.2824 17.853 13.2653 17.8838 13.2756C17.9179 13.2858 17.9179 13.2892 17.9179 13.2653C17.9179 13.2414 17.8974 13.2517 17.8701 13.238C17.8564 13.2312 17.8701 13.2243 17.8803 13.2277C17.894 13.2277 17.9247 13.238 17.9247 13.1936C17.9247 13.1936 17.9282 13.1663 17.894 13.1663C17.8564 13.1663 17.8598 13.1458 17.8701 13.1424C17.8803 13.1424 17.9213 13.1697 17.935 13.1219C17.9452 13.0775 17.8803 13.1048 17.8872 13.0809C17.8974 13.0535 17.9452 13.0911 17.9452 13.0638C17.9521 13.0365 17.9896 13.0262 17.9247 13.016C17.894 13.0126 17.9247 12.9955 17.9589 13.0023C17.9931 13.0057 18.0136 12.9613 18.0375 12.9477C18.058 12.9306 18.1809 12.8589 18.017 12.8828C17.8564 12.9067 17.8086 12.9852 17.8018 13.0023C17.7611 13.0823 17.7456 13.1729 17.7574 13.2619Z" fill="#FFC221"/>
<path d="M18.1341 13.3643C18.158 13.3643 18.1751 13.3643 18.1819 13.3813C18.2093 13.436 18.1478 13.4155 18.1136 13.4565C18.0795 13.4975 18.0795 13.4906 18.0316 13.4736C17.9838 13.4599 17.9633 13.3882 17.9633 13.3882C17.9633 13.3643 17.9804 13.3608 18.0043 13.3677C18.0043 13.3677 18.0829 13.3745 18.1375 13.3677L18.1341 13.3643ZM17.9633 13.3369C17.9633 13.3369 17.9633 13.3506 17.9941 13.354C18.018 13.354 18.0965 13.3643 18.1478 13.3506C18.1478 13.3506 18.1614 13.3472 18.1546 13.3164C18.1546 13.3164 18.1546 13.2925 18.1136 13.3028C18.0692 13.3096 18.0111 13.3028 17.9872 13.2994C17.9667 13.2925 17.9531 13.2994 17.9599 13.3335L17.9633 13.3369ZM17.9565 13.2379C17.9565 13.2379 17.9531 13.2823 17.9941 13.2857C18.0385 13.2925 18.0931 13.2925 18.1136 13.2857C18.1307 13.2857 18.1614 13.2789 18.1648 13.2515C18.1648 13.2276 18.1717 13.2105 18.1204 13.2242C18.0692 13.2379 18.0043 13.2242 17.9975 13.2242C17.9941 13.2242 17.9565 13.214 17.9565 13.2379ZM17.9736 13.1525C17.9736 13.1525 17.9633 13.173 17.9667 13.1935C17.9667 13.2105 17.9975 13.2174 18.0521 13.2174C18.1068 13.2174 18.1546 13.2105 18.1614 13.1935C18.1648 13.1696 18.1785 13.1491 18.1375 13.1593C18.0931 13.1627 18.0351 13.1661 18.0146 13.1593C17.9941 13.1491 17.977 13.1456 17.9736 13.1525Z" fill="#FFC221"/>
<path d="M20.0161 13.3706C20.0161 13.3706 20.0161 13.4047 20.0468 13.4457L18.5029 13.4013C18.5029 13.4013 18.5234 13.3877 18.5303 13.3262L20.0161 13.3706Z" fill="#5A3719"/>
<path d="M17.9867 13.091C17.9867 13.091 17.973 13.1286 18.0004 13.1388C18.0243 13.1456 18.0755 13.1525 18.137 13.1422C18.137 13.1422 18.1711 13.1422 18.1814 13.1081C18.1916 13.0739 18.1916 13.0944 18.1028 13.0807C18.1028 13.0807 18.0755 13.0705 18.1541 13.0705C18.1541 13.0705 18.2019 13.0705 18.2053 13.0637C18.2155 13.0568 18.2736 13.0056 18.195 13.0124C18.1165 13.0124 18.1575 12.9953 18.195 12.9953C18.236 12.9953 18.2497 13.0056 18.2634 12.9953C18.277 12.9851 18.2634 12.9885 18.2395 12.968C18.2155 12.9475 18.236 12.9509 18.2497 12.9646C18.2668 12.9748 18.277 12.9817 18.2941 12.9646C18.3112 12.9475 18.2804 12.9236 18.2941 12.9304C18.3043 12.9304 18.3146 12.9578 18.3624 12.9304C18.4171 12.9065 18.482 12.9202 18.499 12.9304C18.5195 12.9475 18.5742 12.9646 18.6049 12.9304C18.6391 12.9031 18.5674 12.8724 18.5947 12.869C18.6288 12.8655 18.6493 12.8758 18.6596 12.8519C18.6732 12.8246 18.6118 12.8041 18.6698 12.7904C18.7245 12.7733 18.6767 12.6196 18.6596 12.6025C18.6596 12.6025 18.5947 12.6401 18.5298 12.7494C18.4581 12.8621 18.4171 12.927 18.3248 12.8929C18.1916 12.8416 18.1199 12.9134 18.1028 12.927C18.0687 12.9475 18.1711 12.9544 18.1097 12.9578C18.0516 12.9578 18.0516 12.9646 18.0482 12.9714C18.0413 12.9817 18.0482 12.9885 18.0584 12.9919C18.0687 12.9919 18.0892 13.0124 18.055 13.0124C18.0208 13.0124 17.9935 13.0022 18.0038 13.0432C18.0038 13.0432 18.0038 13.05 18.0243 13.0534C18.0448 13.0534 18.0516 13.0807 18.014 13.0807C17.9867 13.0807 17.9867 13.0876 17.9867 13.091ZM18.1267 13.4769C18.1267 13.4769 18.1028 13.494 18.137 13.4974C18.178 13.4974 18.195 13.5077 18.2087 13.4872C18.2224 13.4667 18.2702 13.4735 18.236 13.4462C18.2019 13.4189 18.1814 13.436 18.1267 13.4804V13.4769Z" fill="#FFC221"/>
<path d="M18.2871 13.0128C18.2871 13.0128 18.4169 12.8932 18.5227 12.9718C18.632 13.0572 18.6389 13.0674 18.6423 13.0709C18.6423 13.0709 18.6559 13.0811 18.6286 13.105C18.5979 13.1323 18.6286 13.1323 18.6594 13.1153C18.6901 13.0982 18.6935 13.1153 18.7072 13.1323C18.7243 13.1494 18.7448 13.1597 18.6969 13.1597H18.5398C18.5398 13.1597 18.4681 13.1665 18.5057 13.1358C18.5398 13.105 18.533 13.0709 18.5159 13.0674C18.4954 13.0674 18.5159 13.0879 18.5057 13.1016C18.492 13.1153 18.4681 13.1255 18.4408 13.1255C18.4134 13.1255 18.3929 13.146 18.4339 13.1597C18.4715 13.1733 18.4271 13.1836 18.4066 13.1836C18.3861 13.1836 18.2871 13.1904 18.3895 13.2041C18.492 13.2143 18.3793 13.2143 18.4578 13.2553C18.5398 13.3031 18.4783 13.4022 18.4476 13.4124C18.4476 13.4124 18.4134 13.4295 18.4544 13.4261C18.4988 13.4193 18.5227 13.4158 18.4886 13.4398C18.4613 13.4602 18.3998 13.5388 18.3178 13.4807C18.3178 13.4807 18.2768 13.4602 18.3451 13.4568C18.4134 13.4568 18.2905 13.4398 18.2666 13.4227C18.2495 13.4124 18.1641 13.3305 18.2153 13.3373C18.27 13.3509 18.2495 13.3202 18.2187 13.31C18.1914 13.2997 18.1846 13.2553 18.2187 13.2621C18.2529 13.2724 18.2871 13.2929 18.3212 13.2895C18.3451 13.2895 18.3383 13.2792 18.2802 13.2621C18.2222 13.2416 18.1982 13.2382 18.2119 13.1938C18.2256 13.1426 18.2905 13.2109 18.2734 13.1733C18.2597 13.1392 18.2051 13.1563 18.2324 13.1084C18.2597 13.0606 18.2666 13.0811 18.2836 13.0879C18.2939 13.0914 18.3178 13.0879 18.2802 13.0606C18.2529 13.0435 18.2802 13.0162 18.2871 13.0128Z" fill="#FFC221"/>
<path d="M18.3792 13.0461C18.3792 13.0461 18.3791 13.029 18.4065 13.0325C18.427 13.0325 18.4201 13.0256 18.427 13.0188C18.4338 13.0188 18.4919 13.0359 18.4372 13.053C18.4167 13.0632 18.3826 13.0598 18.3826 13.0461H18.3792Z" fill="black"/>
<path d="M18.5058 13.1831C18.5058 13.1831 18.4613 13.2036 18.4989 13.2514C18.5331 13.2856 18.5331 13.3027 18.5331 13.3266C18.5297 13.3539 20.0155 13.371 20.0155 13.371C20.0155 13.371 20.0155 13.2719 20.077 13.2173L18.5058 13.1831Z" fill="#FFC221"/>
<path d="M20.0399 13.3441C20.0399 13.3441 20.0467 13.2621 20.0946 13.2382C20.1185 13.2211 20.1492 13.228 20.1629 13.2929C20.1834 13.3851 20.1048 13.4671 20.0707 13.4295C20.0365 13.3953 20.0433 13.3441 20.0433 13.3441H20.0399Z" fill="#5A3719"/>
<path d="M18.3349 13.6917C18.3349 13.6917 18.434 13.6064 18.4511 13.5688C18.4511 13.5688 18.7175 13.7601 18.7004 13.5824L18.7072 13.4936C18.7072 13.4936 18.8063 13.5039 18.8199 13.4253L18.5706 13.4151C18.5706 13.4151 18.5433 13.4117 18.5023 13.4527C18.4681 13.4936 18.3862 13.538 18.3144 13.5005C18.3144 13.5005 18.2803 13.4731 18.2495 13.5005C18.2154 13.5175 18.2154 13.5244 18.2427 13.5517C18.27 13.579 18.3247 13.6508 18.3349 13.6883V13.6917ZM18.9087 13.1657L18.7619 13.1589C18.7619 13.1589 18.7106 13.0838 18.6048 13.0018C18.6048 13.0018 18.574 12.9881 18.6321 12.9403C18.6936 12.8925 18.7106 12.8447 18.7106 12.8208C18.7106 12.8003 18.7106 12.7627 18.7311 12.7866C18.7516 12.8139 18.9019 12.954 18.9292 12.913C18.9497 12.872 18.9532 12.8549 18.9532 12.8412C18.96 12.8276 18.9634 12.79 18.9873 12.831C19.0078 12.8686 19.0215 12.8583 19.0249 12.9608C19.0249 12.9608 19.0249 13.0633 19.042 13.0974C19.042 13.0974 18.8507 13.0394 18.9122 13.1657H18.9087ZM18.2734 12.8515C18.2734 12.8515 18.3862 12.9198 18.4442 12.831C18.4955 12.7456 18.533 12.7354 18.492 12.65C18.4511 12.5714 18.492 12.5338 18.5228 12.4997C18.5569 12.4655 18.5843 12.4724 18.5843 12.3426C18.5911 12.2094 18.6799 12.1718 18.7209 12.1274C18.7619 12.0864 18.8643 12.0249 18.7072 12.001C18.5569 11.9737 18.2495 11.8985 18.171 11.779C18.0924 11.6594 18.0582 11.7277 18.0582 11.7346C18.0582 11.7414 18.0309 11.8268 18.1095 11.9839C18.188 12.141 18.2529 12.2435 18.3315 12.2913C18.4066 12.3426 18.475 12.3699 18.434 12.4758C18.393 12.5817 18.3315 12.7695 18.2734 12.8515Z" fill="#7B3C20"/>
<path d="M18.6874 12.517C18.6874 12.517 18.7079 12.7902 18.9026 12.8858C18.9026 12.8858 18.947 12.7834 18.9299 12.6775C18.9299 12.6775 18.9948 12.6809 19.0119 12.7117C19.0119 12.7117 19.0119 12.6331 18.9231 12.6023C18.8308 12.5784 18.8752 12.3974 18.9094 12.3803C18.9401 12.3598 18.9299 12.3223 18.9094 12.2915C18.8855 12.2574 18.8821 12.213 18.9572 12.2335C19.0358 12.254 19.0255 12.213 18.9743 12.1754C18.9299 12.1378 18.9299 12.09 18.9982 12.09C19.0665 12.09 19.169 12.0251 19.1075 12.008C19.0392 11.9875 19.0221 11.9636 19.1075 11.9397C19.1997 11.9124 19.2441 11.8816 19.1758 11.8714C19.1075 11.8646 19.0631 11.8407 19.128 11.8304C19.1929 11.8202 19.1177 11.7518 19.0426 11.7518C18.964 11.745 18.8035 11.7758 18.9299 11.6733C19.0597 11.5708 18.7454 11.646 18.8752 11.5777C19.005 11.5093 18.8308 11.5401 18.8069 11.5401C18.783 11.5401 18.783 11.5401 18.7933 11.5059C18.8001 11.4718 18.7762 11.4513 18.7352 11.4752C18.701 11.4957 18.701 11.4957 18.701 11.4513C18.701 11.4 18.6566 11.4376 18.6293 11.4513C18.5986 11.4615 18.5268 11.5162 18.4961 11.4854C18.4722 11.4547 18.4551 11.4274 18.3663 11.4786C18.2775 11.5298 18.298 11.4854 18.298 11.4615C18.298 11.4376 18.3321 11.3454 18.216 11.4444C18.0999 11.5435 18.1921 11.342 18.0965 11.4103C18.0042 11.4786 17.994 11.4923 17.9769 11.4615C17.9598 11.4274 17.9428 11.4035 17.8403 11.4718C17.7344 11.5367 17.813 11.4274 17.8232 11.4035C17.8403 11.383 17.8847 11.2327 17.7925 11.3488C17.7925 11.3488 17.7481 11.4308 17.649 11.2839C17.649 11.2839 17.5465 11.4308 17.5158 11.3659C17.4885 11.2976 17.4646 11.2976 17.427 11.3386C17.3928 11.3795 17.4202 11.3351 17.4031 11.2976C17.3894 11.2634 17.3792 11.1985 17.205 11.3249C17.0308 11.4547 17.2665 11.359 17.1332 11.4171C17 11.4752 16.6721 11.6562 16.9693 11.6186C17.2665 11.5742 16.8258 11.7314 16.9283 11.7621C17.0308 11.7894 16.9966 11.8816 17.386 11.7723C17.7686 11.6699 17.7071 11.7587 17.9052 11.6699C18.1033 11.5879 17.8574 11.7006 18.1238 11.6972C18.3868 11.6904 18.1682 11.6972 18.2194 11.7518C18.2707 11.8065 18.4927 11.9329 18.701 11.9568C18.9094 11.9773 18.964 11.8987 18.9026 11.9909C18.8411 12.0798 18.8206 12.1139 18.7864 12.1481C18.7523 12.1754 18.6498 12.2505 18.6498 12.3735C18.6498 12.4999 18.4858 12.5204 18.5473 12.657L18.6874 12.5204V12.517Z" fill="#5A3719"/>
<path d="M19.0323 12.8211C19.0323 12.8211 18.9845 12.787 18.9845 12.7255C18.9845 12.7255 19.0187 12.7323 19.0323 12.7528C19.0323 12.7528 19.1519 12.6162 19.005 12.5684C18.865 12.5205 18.9367 12.3873 18.9845 12.3873C19.0323 12.3873 19.0426 12.3771 18.9982 12.319C18.9572 12.2678 18.964 12.2644 19.0426 12.2507C19.1211 12.237 19.1143 12.2165 19.0767 12.1995C19.0523 12.1849 19.0304 12.1664 19.0118 12.1448C19.0118 12.1448 19.2441 12.0458 19.169 11.9979C19.0938 11.9535 19.169 11.9638 19.2373 11.9194C19.3056 11.8716 19.3124 11.8613 19.3227 11.8408C19.3227 11.8408 19.2544 11.8511 19.2065 11.8408C19.2065 11.8408 19.2646 11.8101 19.2065 11.7623C19.1485 11.7144 19.128 11.6734 19.0358 11.6939C18.9435 11.7179 18.9743 11.6871 19.0084 11.6495C19.0426 11.612 19.0289 11.5915 18.964 11.5812C18.964 11.5812 18.9709 11.5402 19.0221 11.4958C19.0221 11.4958 18.8957 11.5027 18.8513 11.4822C18.8513 11.4822 18.906 11.448 18.906 11.4036C18.906 11.4036 18.8376 11.4275 18.7523 11.4207C18.7523 11.4207 18.8035 11.3763 18.8035 11.3387C18.8035 11.3387 18.6532 11.3729 18.5849 11.4241C18.5849 11.4241 18.5678 11.4241 18.5576 11.4036C18.5439 11.3899 18.5371 11.3695 18.3697 11.4241C18.3697 11.4241 18.3868 11.349 18.4278 11.3216C18.4688 11.2943 18.4619 11.2328 18.2057 11.3934C18.2057 11.3934 18.1716 11.3729 18.1409 11.2943C18.1409 11.2943 18.0828 11.3729 18.0418 11.4002C18.0418 11.4002 18.0076 11.4173 18.0076 11.366C18.0145 11.3148 17.9837 11.349 17.9598 11.366C17.9325 11.3797 17.9154 11.4173 17.9257 11.3148C17.9359 11.2123 17.8915 11.1918 17.8915 11.1918C17.8915 11.1918 17.8129 11.3046 17.7651 11.3182C17.7651 11.3182 17.6797 11.2362 17.649 11.1816C17.6217 11.1269 17.6217 11.1064 17.5909 11.2021C17.5602 11.2943 17.5226 11.3046 17.5226 11.3046C17.5226 11.3046 17.4714 11.2602 17.468 11.2362C17.468 11.2362 17.4577 11.2602 17.4406 11.2704C17.4406 11.2704 17.3962 11.2192 17.3997 11.144C17.3997 11.144 17.1196 11.2977 17.0854 11.3899C17.0854 11.3899 16.8224 11.3729 16.7165 11.3934C16.7165 11.3934 16.7404 11.3114 16.8087 11.267C16.8087 11.267 16.7404 11.2602 16.7404 11.1884C16.7404 11.1884 16.7951 11.1953 16.8292 11.1884C16.8634 11.1816 16.7814 11.0825 16.8668 11.0791C16.9522 11.0757 17.0103 11.1201 16.9693 11.004C16.9351 10.8913 16.9488 10.8913 16.9488 10.8913C16.9488 10.8913 17.0991 10.9801 17.123 10.9562C17.1503 10.9357 17.1059 10.8878 17.2391 10.9083C17.3723 10.9323 17.3348 10.8571 17.3894 10.8503C17.4406 10.8503 17.468 10.8844 17.4338 10.6419C17.3997 10.3994 17.5978 10.7615 17.4646 10.396C17.4646 10.396 17.4304 10.2833 17.3518 10.2355C17.3518 10.2355 17.3313 10.314 17.2425 10.2457C17.1537 10.1774 16.9761 10.1501 17.0513 10.0954C17.1264 10.0373 17.1606 9.9622 17.1401 9.9178C17.1401 9.9178 17.0513 10.0066 16.901 9.94171C16.778 9.89047 16.7507 9.98611 16.6277 9.95879C16.6277 9.95879 16.6277 9.92463 16.7336 9.84265C16.8361 9.76409 16.6721 9.86998 16.6106 9.88706C16.5457 9.90072 16.5287 9.88706 16.6619 9.78117C16.7985 9.6787 17.0717 9.49084 17.0376 9.33714C17.0376 9.33714 17.0991 9.4157 17.2664 9.35763C17.4372 9.29956 17.5602 9.27907 17.608 9.18685C17.6683 9.11006 17.7425 9.04519 17.8266 8.99557C17.8642 8.97849 17.9086 8.96141 17.8574 9.04681C17.8027 9.12878 17.7207 9.27224 17.4885 9.36788C17.2562 9.46352 17.164 9.53183 17.123 9.58306C17.082 9.6343 16.8702 9.74702 17.0103 9.72994C17.1469 9.70603 17.3826 9.72994 17.2699 9.69578C17.1606 9.66504 17.0342 9.71628 17.1366 9.62405C17.2391 9.53183 17.2562 9.50109 17.4065 9.43961C17.5568 9.37471 17.7207 9.23125 17.7036 9.38496C17.6866 9.53525 17.4099 9.69578 17.3416 9.74702C17.2733 9.79484 17.3006 9.788 17.3006 9.8085C17.3006 9.82899 17.2869 9.86998 17.2596 9.88706C17.2323 9.90755 17.2425 9.92805 17.2494 9.96903C17.2562 10.0134 17.2425 10.0305 17.263 10.0373C17.2835 10.0408 17.304 10.0442 17.3108 10.0749C17.3177 10.1091 17.3313 10.1091 17.3723 10.1091C17.4099 10.1022 17.4406 10.1091 17.4406 10.1296C17.4406 10.1535 17.4816 10.1876 17.485 10.1159C17.4885 10.0408 17.5192 10.0305 17.4441 10.0647C17.3689 10.0954 17.3552 10.0852 17.3552 10.051C17.3552 10.0169 17.3484 10.0237 17.3211 10.0203C17.2869 10.0203 17.2767 9.97587 17.3313 9.94512C17.386 9.9178 17.386 9.94512 17.4543 9.89047C17.5226 9.83241 17.5226 9.82216 17.5329 9.788C17.5431 9.76409 17.4338 9.86998 17.3826 9.89047C17.3313 9.9178 17.3484 9.8734 17.3552 9.81875C17.3655 9.76068 17.4919 9.68212 17.5499 9.68212C17.6114 9.68212 17.7412 9.71628 17.6866 9.79484C17.6285 9.8734 17.468 9.97245 17.5329 9.97928C17.6046 9.98611 17.6148 9.95879 17.6558 9.99294C17.6968 10.0271 17.6558 10.1022 17.6422 10.1432C17.6238 10.1789 17.5982 10.2103 17.567 10.2355C17.567 10.2355 17.4919 10.1057 17.4953 10.2081C17.4953 10.314 17.4782 10.3516 17.4953 10.355C17.5124 10.3584 17.5909 10.4131 17.6183 10.4131C17.6456 10.4131 17.4782 10.4916 17.5499 10.4985C17.6183 10.5019 17.731 10.4643 17.7685 10.396C17.7685 10.396 17.6251 10.3618 17.567 10.3072C17.567 10.3072 17.7344 10.2662 17.6866 10.1091C17.6866 10.1091 17.8539 10.1535 17.7788 10.2286C17.7105 10.3004 17.6661 10.2901 17.7276 10.3106C17.7925 10.3311 17.8198 10.3516 17.8198 10.3516C17.8198 10.3516 17.8642 10.3721 17.8369 10.4062C17.8129 10.4404 17.8129 10.495 17.8369 10.4916C17.8539 10.4916 17.9257 10.4575 17.8676 10.4233C17.8061 10.3892 17.9325 10.396 17.8813 10.3653C17.8266 10.3311 17.8129 10.3277 17.7993 10.3106C17.7822 10.3004 18.4722 9.89389 18.1238 10.0442C18.1238 10.0442 18.1955 9.88706 18.298 9.88706C18.4004 9.88706 18.4073 9.96562 18.3492 10.0305C18.2911 10.0886 18.2536 10.1876 18.1204 10.2081C18.1204 10.2081 18.3116 10.3004 18.0862 10.4541C18.0862 10.4541 18.035 10.478 18.052 10.495C18.0691 10.5121 18.2057 10.437 18.2228 10.3926C18.2323 10.3696 18.2462 10.3487 18.2638 10.3311C18.2814 10.3135 18.3023 10.2996 18.3253 10.2901C18.473 10.2068 18.603 10.0954 18.7079 9.9622C18.7864 9.82899 18.8035 9.82558 18.9538 9.70603C19.1041 9.58648 19.0767 9.61039 19.0972 9.58306C19.1143 9.55232 19.1211 9.5045 19.1895 9.46693C19.2578 9.42594 19.5242 9.28249 19.6096 9.221C19.6916 9.15952 19.8623 9.05022 19.9375 8.95458C20.0092 8.86236 20.2107 8.74281 20.2586 8.76331C20.3064 8.78722 20.2517 8.85894 20.139 8.94775C20.0195 9.03314 19.7291 9.26541 19.6847 9.30298C19.5689 9.39635 19.44 9.47232 19.3022 9.52841C19.21 9.53866 19.2202 9.57282 19.1655 9.63088C19.1109 9.68895 18.9845 9.81533 18.9435 9.84949C18.8991 9.88364 18.7967 9.95196 18.7932 10.0032C18.7864 10.0544 18.8103 10.0578 18.7283 10.133C18.6069 10.2443 18.47 10.3375 18.3219 10.4097C18.3219 10.4097 18.4756 10.4643 18.3834 10.5668C18.2946 10.6692 18.298 10.6556 18.2946 10.6624C18.2946 10.6624 18.5234 10.6283 18.3629 10.8093C18.3629 10.8093 18.3287 10.8605 18.4004 10.8093C18.479 10.7444 18.4483 10.6692 18.4346 10.6556C18.4346 10.6556 18.561 10.577 18.7044 10.577C18.8445 10.577 18.8411 10.5668 18.7113 10.5292C18.7113 10.5292 18.8035 10.4199 18.882 10.4746C18.9572 10.5258 18.9299 10.5599 18.8513 10.6043C18.7693 10.6453 18.6532 10.6624 18.561 10.7136C18.561 10.7136 18.7318 10.7478 18.8206 10.6761C18.9094 10.6078 18.9162 10.6419 18.923 10.6556C18.9401 10.6692 18.9504 10.6897 18.9094 10.7444C18.8684 10.8025 18.865 10.8059 18.8684 10.8195C18.8684 10.8332 18.865 10.8708 18.783 10.8878C18.7044 10.8981 18.6634 10.9323 18.6942 10.9698C18.7181 11.0108 18.7181 11.1064 18.6532 11.0962C18.5849 11.086 18.5985 11.0313 18.5746 11.0108C18.5473 10.9903 18.5097 10.9596 18.3902 11.0176C18.2672 11.0825 18.2604 11.0074 18.2638 10.9664C18.2638 10.9664 18.1853 11.0347 18.1204 10.9732C18.052 10.9083 18.1135 10.8844 18.1545 10.8537C18.1887 10.8195 18.3424 10.7512 18.2502 10.7683C18.1579 10.7785 18.0213 10.782 17.9906 10.7136C17.9564 10.6419 18.0589 10.6488 18.0725 10.6556C18.0896 10.6624 18.1511 10.7136 18.1579 10.6453C18.1579 10.577 18.2604 10.5668 18.2262 10.5565C18.1921 10.5429 18.1409 10.5873 18.1272 10.6009C18.1272 10.6009 18.0589 10.5019 17.9427 10.5326C17.8266 10.5668 17.9769 10.5565 18.0111 10.5599C18.0384 10.5668 18.0213 10.6214 17.9188 10.7171C17.8164 10.8093 17.8608 10.7785 17.9359 10.7785C18.0145 10.7785 18.2057 10.7785 18.093 10.8674C17.9837 10.9596 17.9393 11.004 17.8881 10.9903C17.8266 10.9732 17.8881 10.9357 17.9154 10.9186C17.9427 10.9015 17.9564 10.8776 17.9018 10.8981C17.8471 10.9152 17.83 10.922 17.7856 10.8469C17.7446 10.7683 17.7583 10.7922 17.7788 10.741C17.7993 10.6897 17.8403 10.6385 17.7925 10.6556C17.7378 10.6761 17.7446 10.6795 17.748 10.6214C17.7515 10.5634 17.69 10.5497 17.69 10.5497C17.69 10.5497 17.7173 10.6078 17.6934 10.6453C17.6729 10.6795 17.6695 10.6932 17.7071 10.7C17.7412 10.7136 17.7754 10.7444 17.7276 10.7785C17.6797 10.8093 17.6866 10.8025 17.7139 10.8229C17.748 10.8469 17.7925 10.8674 17.7446 10.9152C17.6968 10.963 17.7344 10.9493 17.7583 10.9493C17.7856 10.9493 17.8369 10.9698 17.8369 11.0176C17.8369 11.0586 17.8369 11.0689 17.9154 11.0279C17.994 10.9835 18.1443 10.9903 18.1443 11.0484C18.1443 11.1099 18.1238 11.1269 18.2057 11.0757C18.2877 11.0245 18.3253 11.1235 18.3834 11.0757C18.438 11.0245 18.4722 10.9801 18.5405 11.062C18.6054 11.144 18.5849 11.1645 18.5063 11.226C18.4278 11.2841 18.5439 11.2397 18.6054 11.2089C18.6669 11.1782 18.8342 11.1577 18.9299 11.2021C19.0289 11.2431 19.0562 11.2362 19.128 11.2021C19.1997 11.1748 19.2373 11.1679 19.3432 11.2397C19.4559 11.3148 19.5379 11.3285 19.5959 11.3251C19.5959 11.3251 19.4764 11.3729 19.3397 11.3797C19.2031 11.3899 19.1348 11.4139 19.1109 11.4344C19.1109 11.4344 19.1895 11.4856 19.2065 11.5437C19.2065 11.5437 19.2953 11.5334 19.3363 11.5505C19.3363 11.5505 19.3158 11.6154 19.3705 11.6495C19.4251 11.6837 19.4627 11.6974 19.4217 11.7418C19.3807 11.7896 19.4866 11.7691 19.4251 11.834C19.3671 11.9023 19.3534 11.9365 19.35 11.9877C19.35 12.0423 19.3637 12.0492 19.3124 12.056C19.2578 12.0594 19.3193 12.1209 19.2953 12.1926C19.2714 12.2609 19.1246 12.2507 19.1314 12.4386C19.1314 12.4386 19.1724 12.3463 19.2612 12.2678C19.3466 12.1858 19.35 12.179 19.3466 12.1311C19.3466 12.0833 19.3432 12.0936 19.3876 12.056C19.4354 12.0218 19.3671 11.9877 19.4149 11.933C19.4593 11.8818 19.4217 11.8921 19.4764 11.8408C19.5276 11.7862 19.4251 11.7827 19.4832 11.7281C19.5344 11.6734 19.3466 11.6086 19.4046 11.5744C19.4559 11.5402 19.5515 11.4924 19.2339 11.4958C19.2339 11.4958 19.3124 11.3729 19.5754 11.3968C19.5754 11.3968 19.5071 11.4514 19.5003 11.4993L19.5549 11.5163C19.5549 11.5163 19.5413 11.5539 19.49 11.5949C19.49 11.5949 19.6335 11.6734 19.6574 11.7247C19.6574 11.7247 19.5686 11.752 19.5447 11.7862C19.5447 11.7862 19.5857 11.8306 19.5993 11.8886C19.5993 11.8886 19.5003 11.875 19.49 11.9467C19.4764 12.0184 19.4456 11.9706 19.4456 12.015C19.4456 12.0594 19.449 12.0731 19.4149 12.0833C19.3807 12.0833 19.4115 12.1209 19.4149 12.1448C19.4217 12.1687 19.4354 12.2234 19.4286 12.2404C19.4286 12.2404 19.3773 12.2404 19.3568 12.2473C19.3568 12.2473 19.3705 12.3498 19.3124 12.3668C19.2544 12.3805 19.3466 12.401 19.2817 12.4112C19.2202 12.4215 19.2304 12.4283 19.1553 12.5649C19.1553 12.5649 19.2202 12.5308 19.2851 12.483C19.3534 12.4386 19.2783 12.4488 19.3876 12.3463C19.5003 12.2336 19.4798 12.2268 19.4695 12.1721C19.4627 12.1175 19.4593 12.0697 19.5003 12.0184C19.5413 11.9672 19.5515 11.9091 19.695 11.916C19.695 11.916 19.654 11.8203 19.6028 11.7964C19.6028 11.7964 19.6711 11.752 19.7394 11.7452C19.7394 11.7452 19.6779 11.6666 19.5481 11.5949C19.5481 11.5949 19.6506 11.5061 19.6813 11.4617C19.6813 11.4617 19.6301 11.4719 19.5891 11.4617C19.5891 11.4617 19.6096 11.4173 19.7052 11.3558C19.7052 11.3558 19.7565 11.4036 19.753 11.4548C19.753 11.4548 19.917 11.3626 20.0092 11.3729C20.0092 11.3729 20.057 11.489 19.8282 11.7144C19.8282 11.7144 19.9716 11.7247 20.0331 11.7144C20.0331 11.7144 19.999 11.8237 19.8282 11.8852C19.6574 11.9535 19.8623 12.0287 19.6881 12.015C19.5174 12.0014 19.5686 12.0594 19.572 12.1482C19.5788 12.237 19.5823 12.3293 19.5788 12.3532C19.5788 12.3532 19.4422 12.3088 19.4422 12.442C19.4456 12.5786 19.3739 12.6059 19.3568 12.6162C19.3568 12.6162 19.3158 12.582 19.2544 12.5581C19.2544 12.5581 19.169 12.7255 19.0323 12.8211Z" fill="#5A3719"/>
<path d="M18.83 11.1343C18.83 11.1343 18.8779 11.1275 18.9598 11.1753C19.0384 11.2265 19.117 11.1241 19.0282 11.0968C18.9393 11.0694 19.0281 11.0353 19.1101 11.1036C19.1921 11.1685 19.2228 11.1343 19.2536 11.1138C19.2809 11.0899 19.3185 11.0763 19.2638 11.0387C19.2092 11.0011 19.298 11.0182 19.3424 11.0489C19.3834 11.0728 19.3663 11.1002 19.3629 11.107C19.3561 11.1138 19.3526 11.2061 19.4312 11.1241C19.5132 11.0387 19.5576 10.9601 19.5541 10.9191C19.5541 10.9191 19.5985 10.9465 19.6054 10.9977C19.6122 11.0489 19.6737 10.9704 19.6942 10.943C19.7147 10.9157 19.7489 10.8406 19.7454 10.7928C19.7454 10.7928 19.8001 10.8782 19.8821 10.7928C19.964 10.7074 19.9299 10.7586 20.0255 10.7347C20.1374 10.7047 20.2382 10.643 20.3159 10.5571C20.3842 10.4717 20.3876 10.5298 20.473 10.5093C20.5584 10.4888 20.736 10.3658 20.7531 10.3009C20.7667 10.236 20.7633 10.195 20.7394 10.2189C20.7155 10.2394 20.7257 10.2189 20.6881 10.1984C20.6506 10.1745 20.5959 10.2292 20.5959 10.2292C20.5959 10.2292 20.6506 10.2702 20.6062 10.2872C20.5652 10.3077 20.5276 10.3658 20.449 10.3419C20.3705 10.3214 20.2851 10.417 20.2851 10.417C20.2851 10.417 20.3534 10.4717 20.2612 10.5093C20.169 10.5434 20.1826 10.5571 20.128 10.5161C20.128 10.5161 20.0289 10.6425 19.9708 10.6698C19.9708 10.6698 19.9469 10.6698 19.9299 10.6425C19.9299 10.6425 19.8615 10.7142 19.8342 10.7279C19.8342 10.7279 19.7898 10.6937 19.7557 10.6766C19.7557 10.6766 19.6771 10.7757 19.6122 10.803C19.6122 10.803 19.5917 10.7689 19.5507 10.7449C19.5507 10.7449 19.5303 10.8679 19.3936 10.943C19.3936 10.943 19.4004 10.9089 19.3321 10.8645C19.3321 10.8645 19.1614 11.0114 19.0965 11.025C19.0282 11.0387 19.0896 10.9943 19.0965 10.9738C19.1101 10.9567 19.1511 10.8952 19.0691 10.8713C18.9872 10.8474 19.0008 10.8884 18.9837 10.8952C18.9633 10.9021 18.9633 10.8816 18.9086 10.8884C18.854 10.8952 18.8642 10.9191 18.8403 10.9294C18.813 10.9362 18.7173 10.9123 18.7241 10.9772C18.7275 11.0387 18.7754 11.0831 18.69 11.1207C18.6046 11.1548 18.7242 11.148 18.83 11.1343Z" fill="#7B3C20"/>
<path d="M19.1754 10.956C19.1754 10.956 19.1959 10.8706 19.1242 10.8364C19.1242 10.8364 19.5751 10.7647 19.2335 10.5905C19.2335 10.5905 19.64 10.5119 19.5409 10.3821C19.4487 10.2523 19.3565 10.2797 19.3428 10.2797C19.3291 10.2797 19.4282 10.2079 19.4555 10.2182C19.4794 10.2284 19.8039 10.3514 19.7219 10.2421C19.64 10.1396 19.6468 10.143 19.6331 10.1123C19.6331 10.1123 19.739 10.1123 19.903 10.2694C19.903 10.2694 19.9371 10.2353 19.9337 10.1704C19.9337 10.1704 20.0464 10.2045 20.084 10.2387C20.084 10.2387 20.1045 10.1977 20.0943 10.1772C20.0943 10.1772 20.1967 10.2284 20.2309 10.2865C20.2309 10.2865 20.2753 10.2455 20.2821 10.1977C20.2821 10.1977 20.3846 10.2421 20.4085 10.2728C20.4085 10.2728 20.4427 10.2284 20.429 10.1704C20.429 10.1704 20.5964 10.2148 20.6169 10.1157C20.6169 10.1157 20.7842 10.1499 20.6749 10.2148C20.5383 10.3002 20.6613 10.1943 20.5178 10.2933C20.4085 10.3719 20.347 10.4607 20.2924 10.4436C20.2548 10.4265 20.207 10.5427 20.1557 10.488C20.1045 10.43 20.1045 10.4539 20.0635 10.5119C20.0353 10.5546 20.0033 10.5947 19.9679 10.6315C19.9679 10.6315 19.9405 10.6144 19.9132 10.5905C19.9132 10.5905 19.8859 10.6451 19.8449 10.6861C19.8449 10.6861 19.8108 10.6417 19.7561 10.6178C19.7561 10.6178 19.6775 10.71 19.6263 10.7442C19.6263 10.7442 19.5785 10.6964 19.5273 10.6793C19.5273 10.6793 19.5204 10.8091 19.4214 10.874C19.4214 10.874 19.4009 10.833 19.3326 10.8057C19.3326 10.8057 19.2847 10.8842 19.1754 10.9526V10.956Z" fill="#5A3719"/>
<path d="M18.9398 10.7576C18.9398 10.7576 18.8851 10.7986 18.9193 10.843C18.9535 10.8908 18.9569 10.8362 19.0013 10.8328C19.0457 10.8259 19.599 10.7303 19.0969 10.5834C19.0969 10.5834 19.1208 10.5629 19.2028 10.5561C19.2916 10.5458 19.6058 10.4639 19.459 10.3511C19.3121 10.2418 19.1891 10.3887 19.3121 10.2555C19.4146 10.1496 19.3326 10.0984 19.3326 10.0984C19.3326 10.0984 19.0423 10.2897 18.9774 10.3272C18.9159 10.3614 18.8202 10.4297 18.9295 10.4639C19.0423 10.498 19.114 10.3477 19.1242 10.3819C19.1345 10.416 18.9056 10.5458 18.9398 10.6005C18.9705 10.662 18.9637 10.7132 19.0218 10.6995C19.0764 10.6893 19.2267 10.7269 19.1072 10.7235C18.9808 10.72 18.9364 10.7576 18.9364 10.7576H18.9398Z" fill="#5A3719"/>
<path d="M19.1385 10.4775C19.1385 10.4775 19.0873 10.5151 19.1556 10.498C19.2239 10.481 19.3571 10.4502 19.3332 10.4161C19.3059 10.3819 19.2171 10.4229 19.1385 10.4775Z" fill="black"/>
<path d="M20.0262 9.90373C20.0262 9.90373 20.2824 9.8969 20.3849 9.96863C20.4873 10.0369 20.542 10.0848 20.5727 10.0984C20.5727 10.0984 20.5693 10.1941 20.4019 10.1223C20.4019 10.1223 20.4156 10.1702 20.3951 10.218C20.3951 10.218 20.337 10.177 20.2653 10.1599C20.2653 10.1599 20.2517 10.1941 20.2312 10.218C20.2312 10.218 20.1594 10.1428 20.074 10.1189C20.074 10.1189 20.0604 10.1565 20.0467 10.1736C20.0467 10.1736 19.9579 10.1189 19.8896 10.1189C19.8896 10.1189 19.9033 10.177 19.8896 10.1975C19.8896 10.1975 19.7051 10.0506 19.5378 10.0677C19.5378 10.0677 19.6163 10.1872 19.6676 10.2419C19.6676 10.2419 19.3328 10.218 19.3943 10.0369C19.4456 9.85591 19.3875 9.90032 19.6061 9.90032H20.0262V9.90373Z" fill="#7B3C20"/>
<path d="M18.4515 10.4029C18.4515 10.4029 18.4139 10.437 18.4515 10.4609C18.489 10.4883 18.6222 10.3926 18.6393 10.379C18.6598 10.3653 18.7076 10.3653 18.6393 10.4165C18.571 10.4678 18.5095 10.519 18.4685 10.5737C18.4685 10.5737 18.6871 10.5122 18.8306 10.3892C18.9775 10.2628 18.8272 10.3448 19.0697 10.2253C19.319 10.1057 19.4488 9.91444 19.3156 9.93494C19.1858 9.95543 19.0663 10.1057 18.9604 10.1638C18.8579 10.2219 18.7998 10.2321 18.8169 10.1979C18.8306 10.1638 18.9092 10.1774 19.0526 10.0613C19.1927 9.9486 19.1619 9.95885 19.1619 9.91786C19.1619 9.87687 19.1107 9.78123 19.3224 9.6651C19.5342 9.55238 20.1969 9.16983 20.2549 9.0332C20.2549 9.0332 20.0602 9.0537 19.8041 9.24156C19.6635 9.35903 19.51 9.45989 19.3464 9.54214C19.278 9.56946 19.2849 9.54897 19.2405 9.60703C19.1301 9.72328 19.015 9.83495 18.8955 9.94177C18.8511 9.97593 18.834 9.99642 18.8306 10.0716C18.8306 10.1057 18.5437 10.3209 18.4549 10.4029H18.4515Z" fill="#5A3719"/>
<path d="M19.3293 9.89722C19.3293 9.89722 19.2781 9.91772 19.2269 9.89722C19.1825 9.87331 19.1995 9.77426 19.3123 9.70936C19.4477 9.63553 19.5925 9.58039 19.7426 9.54541C19.7426 9.54541 19.7256 9.67521 19.3977 9.78792C19.3977 9.78792 19.4181 9.85624 19.3293 9.89722Z" fill="#5A3719"/>
<path d="M19.4456 9.81155C19.4456 9.81155 19.4558 9.8457 19.4456 9.87303C19.4456 9.87303 20.057 9.9311 20.3712 9.55879C20.3712 9.55879 19.9374 9.59978 19.7666 9.70566C19.7666 9.70566 19.8759 9.56904 20.2004 9.45632C20.5249 9.3436 20.6581 9.20356 20.6854 9.125C20.6854 9.125 20.2756 9.27187 20.0809 9.27187C20.0809 9.27187 20.0399 9.27187 20.0023 9.28895C19.9647 9.31286 19.7017 9.50072 19.6334 9.53488C19.6334 9.53488 19.7803 9.52122 19.8349 9.4734C19.8349 9.4734 19.7325 9.74665 19.4456 9.81496V9.81155Z" fill="#AA5323"/>
<path d="M18.2704 10.1599C18.2704 10.1599 18.1919 10.2179 18.226 10.2419C18.2602 10.2726 18.3148 10.276 18.431 10.177C18.5539 10.0745 18.8443 9.82856 18.6632 9.81831C18.6632 9.81831 18.4241 9.80465 18.4344 9.94811C18.4412 10.0916 18.2841 10.153 18.2704 10.1599ZM17.7273 10.0745C17.7273 10.0745 17.8845 10.1667 17.823 10.2419C17.823 10.2419 18.3012 9.83881 18.1645 9.75C18.0347 9.66119 17.9289 9.82856 17.9596 9.84222C17.9938 9.86272 18.0621 9.82856 18.0382 9.86272C17.9408 9.94049 17.8381 10.0112 17.7307 10.0745H17.7273ZM17.6044 9.94469C17.6044 9.94469 17.7068 9.97885 17.7137 10.0233C17.7171 10.0642 18.0279 9.80465 17.9459 9.69193C17.9084 9.6407 17.741 9.62362 17.7273 9.71926C17.7205 9.82173 17.8845 9.70901 17.8298 9.78074C17.7547 9.87296 17.6283 9.93103 17.6044 9.94469ZM18.7179 9.72609C18.7179 9.72609 18.653 9.77391 18.7145 9.80465C18.7759 9.82856 18.8101 9.78416 18.8408 9.76025C18.8716 9.73292 19.0219 9.62362 19.0526 9.55531C19.0868 9.48699 19.138 9.46309 19.1927 9.42893C19.2439 9.39477 19.623 9.20349 19.8587 8.99514C20.091 8.78678 19.9953 8.84143 20.2344 8.70822C20.4735 8.57501 20.6341 8.45205 20.6853 8.30518C20.6853 8.30518 20.5726 8.33933 20.4735 8.40765C20.3536 8.48478 20.2318 8.55881 20.108 8.62966C20.0636 8.64674 20.0056 8.65016 19.9714 8.68431C19.9373 8.71847 19.9373 8.76287 19.8245 8.8551C19.705 8.95415 19.1073 9.37769 19.0321 9.43576C18.9256 9.53058 18.8208 9.62736 18.7179 9.72609Z" fill="#5A3719"/>
<path d="M18.2362 9.86613C18.2362 9.86613 18.3045 9.83198 18.4275 9.83881C18.5504 9.84564 19.0355 9.37428 19.1789 9.28206C19.3971 9.13223 19.6101 8.97503 19.8177 8.8107C19.8791 8.74921 19.886 8.68773 19.9406 8.65358C19.9919 8.61942 20.0431 8.62283 20.1592 8.55452C20.2788 8.48621 20.8526 8.14464 20.8184 7.94653C20.8184 7.94653 19.9645 8.45888 19.7698 8.62283C19.4969 8.8357 19.2154 9.03739 18.9262 9.22741C18.8305 9.2923 18.7554 9.39819 18.588 9.52798C18.4275 9.66119 18.2635 9.77391 18.2362 9.86955V9.86613Z" fill="#AA5323"/>
<path d="M18.059 9.68179C18.059 9.68179 18.2161 9.66813 18.2366 9.74669C18.2366 9.74669 18.5781 9.51442 18.6533 9.41879C18.7284 9.32315 18.626 9.3778 18.8207 9.25142C19.134 9.04254 19.4416 8.82501 19.7429 8.59903C19.8351 8.52047 20.0093 8.41117 20.1493 8.31894C20.286 8.22331 20.8291 7.95688 20.7676 7.73828L20.2826 8.06277C20.1903 8.12425 20.1493 8.09009 20.0605 8.16182C19.9717 8.23355 19.7702 8.37701 19.736 8.42141C19.5793 8.55577 19.4151 8.68122 19.2442 8.79714C19.0939 8.89961 18.7626 9.09088 18.5986 9.23434C18.4213 9.38769 18.2414 9.53801 18.059 9.68521V9.68179Z" fill="#AA5323"/>
<path d="M17.5669 9.64113C17.5669 9.64113 17.6455 9.64113 17.6728 9.67187C17.6728 9.67187 17.8197 9.53866 17.9768 9.67187C17.9768 9.67187 18.5506 9.27907 18.6087 9.18001C18.6667 9.08437 18.7624 9.08096 18.9844 8.92042C19.2098 8.75647 19.3499 8.68474 19.4967 8.57203C19.647 8.45589 19.7734 8.32268 19.8793 8.25437C19.9852 8.18606 20.255 8.00844 20.214 7.85474C20.214 7.85474 19.992 7.9777 19.852 8.13482C19.7085 8.29194 19.7222 8.15873 19.5753 8.28853C19.4066 8.44384 19.2197 8.57804 19.0185 8.68816C18.8307 8.78038 18.9434 8.77013 18.8068 8.85894C18.6736 8.94433 18.6838 8.92725 18.636 8.94433C18.5689 8.96013 18.5082 8.99587 18.4618 9.0468C18.4071 9.10487 18.2774 9.18343 18.1339 9.26882C17.9337 9.37498 17.7439 9.49964 17.5669 9.64113Z" fill="#AA5323"/>
<path d="M17.7413 9.34034C17.7413 9.34034 17.7071 9.27544 17.7652 9.22763C17.8199 9.18322 17.9223 9.06367 17.936 8.98853C17.9531 8.90997 17.9394 8.92363 18.0999 8.85873C18.5622 8.66453 19 8.41691 19.4047 8.12095C19.4662 8.06972 19.6233 7.96383 19.6882 7.90918C19.6882 7.90918 19.7156 7.99457 19.6472 8.05264C19.4127 8.23656 19.1674 8.4065 18.9129 8.56157C18.7992 8.61622 18.6896 8.67899 18.585 8.74943C18.5201 8.80408 18.5303 8.81775 18.2366 8.96462C17.9462 9.10466 17.9292 9.12174 17.9394 9.13199C17.9497 9.14565 18.0829 9.08758 18.1444 9.05001C18.2058 9.01585 18.4449 8.90314 18.5201 8.84507C18.5961 8.78323 18.676 8.72621 18.7592 8.67429C18.9686 8.55417 19.1737 8.42656 19.374 8.29173C19.4935 8.19951 19.5277 8.17219 19.555 8.18926C19.5789 8.20293 19.6233 8.20293 19.5687 8.25758C19.514 8.31223 19.3398 8.46252 19.2715 8.50692C19.2032 8.55132 18.9949 8.6777 18.9368 8.70503C18.8787 8.73919 18.8548 8.79042 18.8207 8.81433C18.7899 8.84166 18.6943 8.90655 18.5816 8.93388C18.4688 8.9612 18.4449 9.04659 18.3664 9.09783C18.2878 9.14565 17.7516 9.4394 17.7345 9.44964C17.7345 9.44964 17.7652 9.41549 17.7413 9.34034Z" fill="#AA5323"/>
<path d="M19.6126 8.12443C19.6126 8.12443 19.5819 8.15175 19.599 8.16541C19.6195 8.18591 19.6946 8.24056 19.7903 8.14492C19.9238 8.02051 20.0665 7.90634 20.2172 7.80335C20.2958 7.75212 20.3402 7.70772 20.3368 7.64282C20.3368 7.64282 19.9473 7.84776 19.6126 8.12443ZM20.1455 8.09027C20.1455 8.09027 20.2036 7.99122 20.3504 7.89558C20.4973 7.80335 20.7193 7.66673 20.7432 7.63599C20.7432 7.63599 20.7979 7.69405 20.6852 7.76578C20.5606 7.84295 20.4376 7.92266 20.3163 8.00488C20.2924 8.02879 20.248 8.05953 20.1455 8.09027Z" fill="#AA5323"/>
<path d="M17.1769 9.1697C17.1769 9.1697 17.0129 9.25851 17.071 9.31316C17.129 9.3644 17.2144 9.34732 17.2554 9.33365L17.3647 9.2995C17.3784 9.2995 17.5184 9.25509 17.556 9.1902C17.5902 9.12188 17.6858 9.04674 17.7609 8.99209C17.8361 8.94085 17.8634 8.88279 17.8532 8.84521L17.1769 9.1697ZM16.2068 9.92115C16.2068 9.92115 16.3229 9.85283 16.4801 9.89724C16.4801 9.89724 16.4732 9.85967 16.4459 9.83917C16.4459 9.83917 16.6406 9.78794 16.6816 9.70255C16.7226 9.61715 16.7328 9.63423 16.767 9.61374C16.808 9.58641 17.0641 9.38147 17.0334 9.33707C17.0027 9.29267 16.9992 9.23118 16.9753 9.21069C16.9753 9.21069 16.9241 9.28242 16.6679 9.40538C16.422 9.52835 16.1419 9.61715 15.937 9.89041C15.7355 10.1637 15.7559 10.3208 16.0053 10.3925C16.0053 10.3925 16.1761 10.2832 16.6064 10.3208C17.03 10.3584 17.1734 10.5189 17.2008 10.5462C17.2281 10.577 17.3135 10.6828 17.2315 10.857C17.2315 10.857 17.3169 10.8946 17.3203 10.8126C17.3306 10.7341 17.334 10.7512 17.3545 10.7614C17.375 10.7751 17.3989 10.7785 17.3886 10.7136C17.3801 10.627 17.3534 10.5432 17.3101 10.4677C17.2725 10.4164 17.3169 10.4403 17.3408 10.4472C17.3647 10.4574 17.4535 10.5326 17.4023 10.3959C17.3511 10.2661 17.334 10.3276 17.334 10.3344C17.334 10.3447 17.3203 10.3754 17.2042 10.2866C17.1141 10.2184 17.0122 10.1675 16.9036 10.1363C16.825 10.1158 16.8797 10.1158 16.9275 10.1022C16.9753 10.0817 17.0334 10.0749 17.0573 10.0202C17.0573 10.0202 17.0095 10.0304 16.9275 9.99971C16.8612 9.98023 16.7913 9.97624 16.7231 9.9881C16.655 9.99993 16.5906 10.0273 16.5347 10.068C16.5347 10.068 16.5757 9.91432 16.4493 9.92115C16.3264 9.93139 16.2376 9.92798 16.1078 10.0304C16.1078 10.0304 16.0975 9.87333 16.2239 9.79135C16.3503 9.70596 16.3332 9.7572 16.4015 9.7367C16.4698 9.71621 16.4801 9.64448 16.4493 9.62057C16.4493 9.62057 16.6133 9.65131 16.8865 9.42246C16.8865 9.42246 16.7397 9.61715 16.562 9.65473C16.562 9.65473 16.5313 9.7572 16.3673 9.78111C16.2034 9.80502 16.2102 9.89724 16.2102 9.92115H16.2068Z" fill="#7B3C20"/>
<path d="M15.7432 10.8679C15.7432 10.8679 15.8183 10.3863 16.2726 10.3522C16.662 10.318 16.7884 10.3693 16.8669 10.3966C16.9455 10.4239 17.1402 10.4786 17.065 10.54C16.9899 10.6015 16.9455 10.5913 16.9455 10.5913C16.9455 10.5913 17.0309 10.4922 16.9523 10.4786C16.8737 10.4615 16.8703 10.5093 16.8601 10.5469C16.8464 10.5913 16.843 10.6357 16.8054 10.6698C16.8054 10.6698 16.7644 10.622 16.7064 10.663C16.6483 10.704 16.6995 10.704 16.7235 10.6972C16.7439 10.6903 16.7747 10.6801 16.7679 10.7142C16.7644 10.7484 16.7337 10.8099 16.6381 10.8577C16.5458 10.9055 16.5493 10.9021 16.44 10.9226C16.3272 10.9397 16.2248 10.9841 16.0813 11.1036C15.9379 11.2266 15.7841 11.1856 15.7534 11.0524C15.7261 10.9363 15.7397 10.8679 15.7397 10.8679H15.7432Z" fill="#5A3719"/>
<path d="M16.2551 10.85C16.2551 10.85 16.2961 10.7578 16.221 10.7134C16.221 10.7134 15.9853 10.7544 15.9136 10.6827C15.9136 10.6827 16.1697 10.669 16.3303 10.6041C16.4874 10.546 16.443 10.5016 16.3884 10.488C16.3337 10.4777 16.2312 10.505 16.221 10.5563C16.221 10.5563 16.1868 10.5016 16.2278 10.4675C16.2502 10.4499 16.2766 10.4382 16.3046 10.4335C16.3327 10.4287 16.3614 10.431 16.3884 10.4401C16.4464 10.4538 16.4942 10.4811 16.6821 10.3855C16.6821 10.3855 16.788 10.4094 16.7948 10.4811C16.7948 10.5563 16.7846 10.5836 16.7743 10.5939C16.7675 10.6075 16.7538 10.628 16.7299 10.628C16.7094 10.6212 16.6787 10.6178 16.6514 10.669C16.6331 10.7181 16.6025 10.7616 16.5625 10.7954C16.5625 10.7954 16.6138 10.6383 16.4772 10.6007C16.4772 10.6007 16.3644 10.669 16.2791 10.6724C16.2791 10.6724 16.3884 10.7749 16.2517 10.85H16.2551Z" fill="black"/>
<path d="M16.5042 10.5638C16.5042 10.5638 16.4496 10.5092 16.5179 10.4989C16.5862 10.4955 16.675 10.5468 16.6613 10.5912C16.6408 10.6322 16.5589 10.6287 16.5042 10.5638Z" fill="#5A3719"/>
<path d="M20.3748 9.80491C20.3748 9.80491 20.2485 9.83906 20.368 9.91762C20.4841 9.99618 20.5388 10.0611 20.6242 10.0816C20.7096 10.1055 20.795 10.1328 20.795 10.2182C20.795 10.3036 20.7779 10.3377 20.73 10.3958C20.6856 10.4539 20.7574 10.4778 20.8189 10.447C20.8803 10.4129 20.9316 10.3958 20.9726 10.3719C21.0101 10.348 21.075 10.3514 21.0204 10.3822C20.9555 10.4163 20.894 10.4334 20.9726 10.4334C21.0511 10.4368 21.5259 10.447 21.6249 10.4129C21.7274 10.3822 21.8572 10.3719 21.864 10.2421C21.864 10.2421 21.8709 10.1875 21.9085 10.1601C21.9426 10.1362 21.9699 10.0816 21.9153 10.1191C21.864 10.1567 21.8231 10.1772 21.8128 10.1636C21.8026 10.1533 21.7958 10.1431 21.8367 10.126C21.8777 10.1089 21.8982 10.126 21.9358 10.0747C21.9699 10.0201 21.9699 10.0269 21.9494 10.0064C21.9289 9.98594 21.888 9.97227 21.9085 9.94495C21.9289 9.91762 21.9494 9.84248 21.8606 9.88688C21.7752 9.93129 21.601 10.0508 21.5191 10.0679C21.4439 10.085 21.3824 10.1089 21.2766 10.1294C21.1741 10.1533 21.1058 10.1772 20.9862 10.2421C20.8735 10.3036 20.8838 10.2045 20.9008 10.1909C20.9008 10.1909 20.9452 10.2694 21.0614 10.167C21.1775 10.0679 21.1399 10.1636 21.4234 10.0679C21.7069 9.97569 21.6386 9.96203 21.7479 9.90396C21.8606 9.84589 21.9665 9.84248 21.8845 9.76733C21.8094 9.68536 21.8026 9.68194 21.7035 9.76733C21.5428 9.88524 21.3548 9.96047 21.157 9.98594C21.157 9.98594 21.7992 9.71268 21.7343 9.6717C21.6783 9.63483 21.6173 9.60606 21.5532 9.5863C21.5088 9.57606 21.4952 9.56581 21.3927 9.61363C21.2902 9.65803 21.2731 9.66828 21.2458 9.6717C21.2117 9.6717 21.1263 9.69219 21.0067 9.75367C20.8838 9.81857 20.8189 9.84248 20.7335 9.8903C20.7335 9.8903 20.7915 9.77758 21.0443 9.70244C21.297 9.62729 21.4234 9.55898 21.3995 9.54532C21.3756 9.53165 21.3073 9.51799 21.2629 9.52824C21.2117 9.53848 21.2287 9.52482 21.0716 9.5863C20.9179 9.64779 20.9828 9.63412 20.8598 9.66145C20.7335 9.68536 20.6857 9.71268 20.6242 9.74001C20.6242 9.74001 20.6515 9.70585 20.73 9.67511C20.7745 9.66145 20.6856 9.64437 20.8052 9.64095H20.8393C20.9422 9.61765 21.0411 9.57969 21.1331 9.52824C21.1092 9.52482 20.9589 9.50774 20.8086 9.58289C20.6549 9.6512 20.7232 9.62729 20.672 9.63412C20.6173 9.64779 20.5012 9.7161 20.467 9.75026C20.4295 9.781 20.3748 9.80149 20.3748 9.80149V9.80491Z" fill="white"/>
<path d="M16.6207 10.4951C16.6207 10.4951 16.6822 10.5121 16.6959 10.5565C16.7129 10.5975 16.7505 10.536 16.7505 10.519C16.7471 10.4985 16.7095 10.4165 16.648 10.4541C16.5797 10.4916 16.6139 10.4916 16.6207 10.4951Z" fill="#5A3719"/>
<path d="M16.4564 11.322C16.4564 11.322 16.5828 11.2605 16.6921 11.2707C16.6921 11.2707 16.6477 11.1205 16.7228 11.1444C16.7945 11.1717 16.774 11.158 16.7911 11.158C16.7911 11.158 16.7945 11.059 16.774 11.0214C16.774 11.0214 16.8526 11.0385 16.9312 11.0385C16.9312 11.0385 16.856 10.8984 16.938 10.7994C16.9529 10.8274 16.9732 10.8521 16.9979 10.8721C17.0225 10.892 17.051 10.9068 17.0815 10.9155V10.837C17.0815 10.837 17.1395 10.8267 17.1839 10.8506C17.2317 10.8779 17.2693 10.591 17.1327 10.533C17.1327 10.533 17.0985 10.5842 16.9722 10.6115C16.8458 10.6388 16.8458 10.6628 16.7945 10.7584C16.7433 10.854 16.6921 10.8574 16.5828 10.9292C16.4803 10.9975 16.412 11.1341 16.412 11.1478C16.412 11.1478 16.4632 11.2161 16.4564 11.322Z" fill="#7B3C20"/>
<path d="M20.7335 9.67526C20.7779 9.66843 20.6856 9.64452 20.8018 9.64111H20.8359C20.9399 9.61813 21.04 9.58014 21.1331 9.52839C21.1092 9.52497 20.9589 9.5079 20.8086 9.57962C20.6583 9.65135 20.7232 9.62744 20.672 9.63769C20.6173 9.64794 20.5012 9.71625 20.467 9.75041C20.4295 9.78115 20.3748 9.80164 20.3748 9.80164C20.3748 9.80164 20.2485 9.8358 20.368 9.91778C20.4841 9.99634 20.5388 10.0612 20.6242 10.0817C20.7096 10.1056 20.795 10.133 20.795 10.2184C20.7968 10.2508 20.792 10.2833 20.7808 10.3139C20.7696 10.3444 20.7524 10.3723 20.73 10.396C20.6856 10.454 20.7574 10.4779 20.8189 10.4472C20.8803 10.413 20.9316 10.396 20.9726 10.3721C21.0101 10.3481 21.0751 10.3516 21.017 10.3823C20.9555 10.4165 20.894 10.4335 20.9726 10.4335C21.0511 10.437 21.5259 10.4472 21.6249 10.413C21.7274 10.3823 21.8572 10.3721 21.864 10.2423C21.864 10.2423 21.8709 10.1876 21.9085 10.1603C21.9426 10.1364 21.9699 10.0817 21.9153 10.1193C21.864 10.1569 21.8196 10.1774 21.8128 10.1637C21.8026 10.1535 21.7958 10.1432 21.8367 10.1261C21.8777 10.1091 21.8982 10.1261 21.9358 10.0749C21.9699 10.0202 21.9699 10.0271 21.9494 10.0066L21.9153 9.97584C21.9153 9.97584 21.8845 9.95193 21.8504 9.97243C21.7753 10.0139 21.6948 10.0449 21.6113 10.0646C21.5566 10.0681 21.4917 10.0954 21.3893 10.1466C21.2868 10.1979 21.1092 10.3037 21.0819 10.2047L20.9862 10.2388C20.8701 10.3003 20.8838 10.2149 20.9008 10.191C20.9008 10.191 20.8393 10.2593 20.8428 10.1979C20.8428 10.1364 20.8838 10.1466 20.9555 10.1261C21.0238 10.1056 21.1263 10.0578 21.0853 10.0237C21.0409 9.9895 20.9931 10.0578 20.9418 10.0851C20.894 10.1091 20.795 10.1261 20.7779 10.0544C20.7642 9.98267 20.7642 9.93144 20.631 9.92461C20.4944 9.91778 20.4978 9.83238 20.5354 9.79481C20.5729 9.76066 20.6037 9.69917 20.73 9.67526H20.7335Z" fill="#999999"/>
<path d="M21.1596 10.3279C21.1596 10.3279 21.368 10.2322 21.5593 10.1878C21.754 10.1434 21.6003 10.1947 21.5695 10.2015C21.5354 10.2118 21.2382 10.3108 21.1665 10.3449C21.0982 10.3791 21.1084 10.3518 21.1596 10.3313V10.3279ZM21.2075 10.3723C21.2075 10.3723 21.4431 10.2937 21.4876 10.3245C21.532 10.3586 21.4944 10.345 21.4431 10.3518C21.3885 10.3552 21.2485 10.3791 21.2109 10.3791C21.1733 10.3791 21.2075 10.3723 21.2075 10.3723ZM21.5832 10.2869C21.5832 10.2869 21.631 10.2801 21.6344 10.3006C21.6378 10.3142 21.6139 10.3176 21.59 10.3142C21.5661 10.3108 21.5456 10.2971 21.5866 10.2869H21.5832Z" fill="black"/>
<path d="M15.3673 12.3425C15.3673 12.3425 15.3571 12.1307 15.463 12.0282C15.5689 11.9258 16.071 11.3963 16.1495 11.2495C16.1495 11.2495 16.2178 11.2939 16.2178 11.3793C16.2178 11.3793 16.3032 11.2324 16.3715 11.1743C16.3715 11.1743 16.4296 11.2358 16.4228 11.3588C16.4228 11.3588 16.5423 11.2939 16.7302 11.2939C16.7302 11.2939 16.6619 11.3758 16.6585 11.4271C16.6585 11.4271 16.918 11.3929 17.0581 11.4168C17.0581 11.4168 16.696 11.6218 16.7951 11.6388C16.901 11.6559 17.0069 11.6388 17.0069 11.6388C17.0069 11.6388 16.8907 11.7516 16.7063 11.7755C16.7063 11.7755 16.942 11.7755 16.9864 11.8267C16.9864 11.8267 16.7609 11.8609 16.5765 11.9975C16.5765 11.9975 16.5628 11.9907 16.5628 11.9394C16.5628 11.9394 16.5526 11.9872 16.5013 12.0316C16.4501 12.0726 16.3271 12.1683 16.2793 12.2127C16.2315 12.2571 16.1495 12.3493 16.0539 12.3493C16.0539 12.3493 16.0744 12.2776 16.0061 12.2537C15.9706 12.2416 15.9324 12.24 15.896 12.2491C15.8597 12.2582 15.8267 12.2775 15.8011 12.3049C15.8011 12.3049 15.562 12.3083 15.4801 12.322C15.4801 12.322 15.5347 12.2332 15.5825 12.2332C15.6372 12.2332 15.8421 12.2673 15.8592 12.1239C15.8797 11.9872 15.7294 12.0214 15.784 11.9394C15.8421 11.8574 15.8284 11.8643 15.8319 11.8506C15.8319 11.8506 15.784 11.8779 15.7567 11.9531C15.7345 12.0362 15.6837 12.1087 15.6133 12.158C15.546 12.2014 15.4899 12.2599 15.4493 12.3288C15.4493 12.3288 15.4049 12.3288 15.3673 12.3425Z" fill="white"/>
<path d="M15.5997 12.2167C15.5997 12.2167 15.61 12.1893 15.6783 12.1757C15.7534 12.1654 15.7569 12.1313 15.7466 12.1142C15.7364 12.1005 15.6954 12.1005 15.7637 12.0186C15.7637 12.0186 15.791 12.0288 15.8047 12.0459C15.8252 12.0664 15.9037 12.2337 15.5997 12.2167Z" fill="white"/>
<path d="M15.4321 12.0692C15.4321 12.2058 15.6131 12.1546 15.6131 12.1546C15.565 12.1901 15.5214 12.2314 15.4833 12.2776C15.497 12.2093 15.3809 12.1922 15.3809 12.1922C15.3913 12.1487 15.4086 12.1072 15.4321 12.0692ZM16.0913 11.3349L16.1494 11.2495C16.1494 11.2495 16.2177 11.2939 16.2177 11.3793C16.2177 11.3793 16.3031 11.2324 16.3714 11.1743C16.3714 11.1743 16.4295 11.2358 16.4226 11.3588C16.4226 11.3588 16.5422 11.2939 16.73 11.2939C16.73 11.2939 16.6617 11.3758 16.6583 11.4271C16.6583 11.4271 16.9179 11.3929 17.0579 11.4168C17.0579 11.4168 16.6959 11.6218 16.7949 11.6388C16.9008 11.6559 17.0067 11.6388 17.0067 11.6388C17.0067 11.6388 16.8906 11.7516 16.7061 11.7755C16.7061 11.7755 16.9418 11.7755 16.9862 11.8267C16.9862 11.8267 16.9179 11.837 16.8291 11.8677C16.8291 11.8677 16.7642 11.8062 16.5695 11.8165C16.5695 11.8165 16.7198 11.7277 16.8428 11.7003C16.8428 11.7003 16.7881 11.632 16.7061 11.6969C16.7061 11.6969 16.5388 11.5842 16.6788 11.4851C16.6788 11.4851 16.5832 11.4681 16.5183 11.5125C16.5183 11.5125 16.5183 11.4339 16.59 11.3998C16.59 11.3998 16.4056 11.3656 16.3612 11.5022C16.3612 11.5022 16.327 11.451 16.3441 11.3861C16.3441 11.3861 16.2314 11.451 16.1801 11.5227C16.1801 11.5227 16.163 11.3861 16.0913 11.3349ZM15.7361 12.2093C15.7053 12.2161 15.6575 12.2195 15.5995 12.2161C15.5995 12.2161 15.6063 12.199 15.6439 12.1819C15.6439 12.1819 15.6575 12.2093 15.7361 12.2093Z" fill="#999999"/>
<path d="M16.0705 11.6876C16.0705 11.6876 16.1559 11.7559 16.1832 11.7901C16.1832 11.7901 16.2618 11.7423 16.2857 11.6979C16.2857 11.6979 16.3506 11.7354 16.3677 11.7935C16.3677 11.7935 16.4121 11.7662 16.4189 11.7252C16.4189 11.7252 16.5214 11.7457 16.5624 11.7798C16.5624 11.7798 16.576 11.6774 16.5624 11.6159C16.5624 11.6159 16.6341 11.6227 16.6785 11.6398C16.6785 11.6398 16.6375 11.5715 16.8493 11.4861C16.8493 11.4861 16.6887 11.5237 16.6272 11.5886C16.6272 11.5886 16.5589 11.5954 16.5282 11.5749V11.7286C16.5282 11.7286 16.4872 11.7081 16.4086 11.691C16.4086 11.691 16.3882 11.7252 16.3745 11.732C16.3745 11.732 16.3233 11.691 16.3028 11.6398C16.3028 11.6398 16.2242 11.7115 16.2003 11.7423C16.2003 11.7423 16.1217 11.6876 16.0705 11.6876Z" fill="black"/>
<path d="M15.5891 12.7323C15.5891 12.7323 15.6232 12.746 15.7018 12.6845C15.7803 12.623 15.9989 12.483 16.016 12.3703C16.0399 12.2576 15.9477 12.2541 15.8794 12.2849C15.8042 12.319 15.835 12.3771 15.8384 12.401C15.8384 12.4215 15.8452 12.5001 15.7257 12.606L15.5891 12.7323Z" fill="#FFC221"/>
<path d="M15.5685 12.7663C15.5685 12.7663 15.3909 12.6912 15.548 12.6126C15.7052 12.534 15.7769 12.5135 15.794 12.4452C15.8145 12.3803 15.8008 12.394 15.7427 12.4213C15.6847 12.4452 15.4626 12.5511 15.4285 12.4555C15.4285 12.4555 15.5207 12.4896 15.6334 12.435C15.7496 12.3769 15.8452 12.3633 15.7701 12.3393C15.6447 12.3263 15.518 12.332 15.3943 12.3564C15.3465 12.3701 15.3602 12.3667 15.3499 12.4111C15.3431 12.4555 15.2953 12.5477 15.2748 12.5716C15.2577 12.5989 15.2133 12.7082 15.2953 12.7595C15.3369 12.7827 15.3835 12.7954 15.4311 12.7966C15.4787 12.7978 15.5258 12.7874 15.5685 12.7663Z" fill="#FFC221"/>
<path d="M15.4997 12.3806C15.4997 12.3806 15.4553 12.3874 15.4656 12.4045C15.4724 12.4216 15.4827 12.4182 15.4997 12.4182C15.51 12.4182 15.5339 12.4114 15.5373 12.4011C15.5373 12.3909 15.51 12.3772 15.4997 12.384V12.3806Z" fill="black"/>
<path d="M15.5546 12.7257C15.5546 12.7257 15.4726 12.6881 15.5682 12.6369C15.6604 12.5856 15.7595 12.5344 15.7732 12.5139C15.7732 12.5139 15.7287 12.5788 15.5546 12.7257Z" fill="white"/>
</g>
<defs>
<clipPath id="clip0_69_1162">
<rect width="24" height="24" rx="12" fill="white"/>
</clipPath>
</defs>
</svg>
