<svg width="24" height="24" viewBox="0 0 24 24" fill="none" xmlns="http://www.w3.org/2000/svg">
<g clip-path="url(#clip0_69_1513)">
<g clip-path="url(#clip1_69_1513)">
<mask id="mask0_69_1513" style="mask-type:luminance" maskUnits="userSpaceOnUse" x="0" y="0" width="32" height="24">
<path d="M32 0H0V24H32V0Z" fill="white"/>
</mask>
<g mask="url(#mask0_69_1513)">
<mask id="mask1_69_1513" style="mask-type:luminance" maskUnits="userSpaceOnUse" x="0" y="0" width="32" height="24">
<path d="M0 0H31.9997V23.9998H0V0Z" fill="white"/>
</mask>
<g mask="url(#mask1_69_1513)">
<path d="M0 0V23.9998H35.9996V0H0Z" fill="#3399CC"/>
<path d="M0 16V17.3333H35.9996V16H0ZM0 18.6666V20H35.9996V18.6666H0Z" fill="#FFFF00"/>
</g>
<path d="M7.13433 1.3999L7.27933 1.5499L7.12933 1.3999H7.13433Z" fill="#99CCCC"/>
<path d="M6.98438 1.85021L7.13437 1.99521L6.98438 1.84521" fill="#CCCCFF"/>
<path d="M7.1347 2.14062L7.2797 2.29062L7.1297 2.14062H7.1347Z" fill="#CC6666"/>
<path d="M7.42999 2.14062L7.57499 2.29062L7.42499 2.14062H7.42999Z" fill="#66CCCC"/>
<path d="M7.42938 2.29053L7.57438 2.44053L7.42438 2.29053H7.42938Z" fill="#CCCCFF"/>
<path d="M7.11064 1.69995L6.07564 5.62495L2.14062 6.69995L6.06064 7.72495L7.11064 11.645L8.15564 7.72495L12.0756 6.67495L8.15564 5.62995L7.10564 1.70995L7.11064 1.69995Z" fill="#CC0000" stroke="white" stroke-width="0.4625"/>
<path d="M7.42938 2.87964L7.57438 3.02964L7.42438 2.87964H7.42938Z" fill="#FFCCCC"/>
<path d="M6.2503 3.91442L6.3953 4.05941L6.2453 3.90942L6.2503 3.91442Z" fill="#6699CC"/>
<path d="M6.54065 3.91442L6.69065 4.05941L6.54065 3.90942" fill="#FFCCCC"/>
<path d="M8.02032 3.91442L8.17032 4.05941L8.02032 3.90942V3.91442Z" fill="#6699CC"/>
<path d="M6.2503 4.05933L6.3953 4.20933L6.2453 4.05933H6.2503Z" fill="#99CCCC"/>
<path d="M6.2503 4.20947L6.3953 4.35947L6.2453 4.20947" fill="#CCFFFF"/>
<path d="M6.2503 4.80005L6.3953 4.95005L6.2453 4.80005" fill="#FFCCCC"/>
<path d="M5.95001 4.95031L6.10001 5.09531L5.95001 4.94531V4.95031Z" fill="#99CCCC"/>
<path d="M6.30035 5.04541L6.34535 5.14541L6.29535 5.04541" fill="#CC3333"/>
<path d="M8.31561 4.95031L8.46561 5.09531L8.31561 4.94531V4.95031Z" fill="#99CCCC"/>
<path d="M5.35938 5.54064L5.50937 5.68564L5.35938 5.53564V5.54064Z" fill="#99CCCC"/>
<path d="M8.75933 5.53442L8.90433 5.68442L8.75433 5.53442H8.75933Z" fill="#CCCCFF"/>
<path d="M9.35034 5.68433L9.49534 5.83433L9.34534 5.68433H9.35034Z" fill="#99CCCC"/>
<path d="M3.44061 6.12976L3.59061 6.27476L3.44061 6.12476V6.12976Z" fill="#6699CC"/>
<path d="M3.15032 6.2749L3.29532 6.4249L3.14532 6.2749H3.15032Z" fill="#99CCFF"/>
<path d="M3.73937 6.2749L3.88438 6.4249L3.73438 6.2749H3.73937ZM10.5294 6.2749L10.6744 6.4249L10.5244 6.2749H10.5294Z" fill="#FFCCCC"/>
<path d="M2.55469 6.42492L2.70469 6.56992L2.55469 6.41992V6.42492Z" fill="#66CCCC"/>
<path d="M1.82031 6.72033L1.97031 6.86533L1.82031 6.71533V6.72033Z" fill="#99CCCC"/>
<path d="M12.4506 6.71558L12.5956 6.86558L12.4456 6.71558" fill="#99CCCC"/>
<path d="M2.55469 7.01428L2.70469 7.15928L2.55469 7.00928V7.01428Z" fill="#66CCCC"/>
<path d="M2.70001 7.01428L2.85001 7.15928L2.70001 7.00928V7.01428Z" fill="#CCCCFF"/>
<path d="M3.29529 7.01428L3.44529 7.15928L3.29529 7.00928V7.01428Z" fill="#FFCCCC"/>
<path d="M10.9703 7.01428L11.1203 7.15928L10.9703 7.00928V7.01428Z" fill="#FFCCCC"/>
<path d="M11.5594 7.01428L11.7094 7.15928L11.5594 7.00928V7.01428Z" fill="#CCCCFF"/>
<path d="M11.71 7.01428L11.86 7.15928L11.71 7.00928" fill="#66CCCC"/>
<path d="M3.15032 7.15942L3.29532 7.30942L3.14532 7.15942H3.15032Z" fill="#99CCFF"/>
<path d="M3.73937 7.15942L3.88438 7.30942L3.73438 7.15942H3.73937ZM10.5294 7.15942L10.6744 7.30942L10.5244 7.15942H10.5294Z" fill="#FFCCCC"/>
<path d="M3.44061 7.30969L3.59061 7.45469L3.44061 7.30469V7.30969Z" fill="#6699CC"/>
<path d="M3.59064 7.30969L3.74064 7.45469L3.59064 7.30469V7.30969Z" fill="#99CCFF"/>
<path d="M4.32965 7.30969L4.47965 7.45469L4.32965 7.30469V7.30969Z" fill="#FFCCCC"/>
<path d="M9.93439 7.30969L10.0844 7.45469L9.93439 7.30469V7.30969Z" fill="#FFCCCC"/>
<path d="M10.675 7.30969L10.825 7.45469L10.675 7.30469V7.30969Z" fill="#99CCFF"/>
<path d="M10.8193 7.30969L10.9693 7.45469L10.8193 7.30469" fill="#6699CC"/>
<path d="M4.33001 7.60461L4.47501 7.74961L4.32501 7.59961L4.33001 7.60461Z" fill="#6699CC"/>
<path d="M9.34936 7.75L9.49436 7.9L9.34436 7.75" fill="#99CCCC"/>
<path d="M8.75933 7.8999L8.90433 8.0499L8.75433 7.8999H8.75933Z" fill="#CCCCFF"/>
<path d="M5.79999 8.04992L5.94999 8.19492L5.79999 8.04492V8.04992Z" fill="#99CCCC"/>
<path d="M6.09998 8.05041L6.24998 8.19541L6.09998 8.04541" fill="#CC3333"/>
<path d="M8.45935 8.05041L8.60935 8.19541L8.45935 8.04541V8.05041Z" fill="#99CCCC"/>
<path d="M6.30035 8.44067L6.34535 8.54067L6.29535 8.44067" fill="#CC3333"/>
<path d="M6.2503 8.63428L6.3953 8.78428L6.2453 8.63428" fill="#FFCCCC"/>
<path d="M6.2503 9.2251L6.3953 9.3751L6.2453 9.2251H6.2503Z" fill="#CCFFFF"/>
<path d="M6.2503 9.375L6.3953 9.525L6.2453 9.375" fill="#99CCCC"/>
<path d="M6.2503 9.52026L6.3953 9.67026L6.2453 9.52026H6.2503Z" fill="#6699CC"/>
<path d="M6.54065 10.4098L6.69065 10.5548L6.54065 10.4048" fill="#6699CC"/>
<path d="M7.42938 10.5547L7.57438 10.7047L7.42438 10.5547H7.42938Z" fill="#FFCCCC"/>
<path d="M7.42938 11.1453L7.57438 11.2953L7.42438 11.1453H7.42938Z" fill="#CCCCFF"/>
<path d="M7.1347 11.2954L7.2797 11.4454L7.1297 11.2954H7.1347Z" fill="#CC6666"/>
<path d="M7.42999 11.2954L7.57499 11.4454L7.42499 11.2954H7.42999Z" fill="#66CCCC"/>
<path d="M7.12933 12.0343L7.27933 12.1793L7.12933 12.0293V12.0343Z" fill="#99CCCC"/>
</g>
</g>
</g>
<defs>
<clipPath id="clip0_69_1513">
<rect width="24" height="24" rx="12" fill="white"/>
</clipPath>
<clipPath id="clip1_69_1513">
<rect width="32" height="24" fill="white"/>
</clipPath>
</defs>
</svg>
