<svg width="24" height="24" viewBox="0 0 24 24" fill="none" xmlns="http://www.w3.org/2000/svg">
<g clip-path="url(#clip0_69_2142)">
<g clip-path="url(#clip1_69_2142)">
<mask id="mask0_69_2142" style="mask-type:luminance" maskUnits="userSpaceOnUse" x="-4" y="0" width="32" height="24">
<path d="M28 0H-4V24H28V0Z" fill="white"/>
</mask>
<g mask="url(#mask0_69_2142)">
<path d="M-3.9953 0H28.0047V24H-3.9953V0Z" fill="#3F9C35"/>
<path d="M-3.9953 0H28.0047V16H-3.9953V0Z" fill="#ED2939"/>
<path d="M-3.9953 0H28.0047V8H-3.9953V0Z" fill="#00B9E4"/>
<path d="M11.2 15.5999C13.1882 15.5999 14.8 13.9881 14.8 11.9999C14.8 10.0117 13.1882 8.3999 11.2 8.3999C9.21177 8.3999 7.60001 10.0117 7.60001 11.9999C7.60001 13.9881 9.21177 15.5999 11.2 15.5999Z" fill="white"/>
<path d="M12 15C13.6568 15 15 13.6568 15 12C15 10.3432 13.6568 9 12 9C10.3432 9 9 10.3432 9 12C9 13.6568 10.3432 15 12 15Z" fill="#ED2939"/>
<path d="M15.2 10L15.585 11.075L16.615 10.585L16.125 11.62L17.2 12L16.125 12.385L16.615 13.415L15.585 12.925L15.2 14L14.815 12.925L13.785 13.415L14.275 12.385L13.2 12L14.275 11.615L13.785 10.585L14.815 11.075L15.2 10Z" fill="white"/>
</g>
</g>
</g>
<defs>
<clipPath id="clip0_69_2142">
<rect width="24" height="24" rx="12" fill="white"/>
</clipPath>
<clipPath id="clip1_69_2142">
<rect width="32" height="24" fill="white" transform="translate(-4)"/>
</clipPath>
</defs>
</svg>
