<svg width="24" height="24" viewBox="0 0 24 24" fill="none" xmlns="http://www.w3.org/2000/svg">
<g clip-path="url(#clip0_69_3321)">
<g clip-path="url(#clip1_69_3321)">
<mask id="mask0_69_3321" style="mask-type:luminance" maskUnits="userSpaceOnUse" x="-4" y="0" width="32" height="24">
<path d="M28 0H-4V24H28V0Z" fill="white"/>
</mask>
<g mask="url(#mask0_69_3321)">
<mask id="mask1_69_3321" style="mask-type:luminance" maskUnits="userSpaceOnUse" x="-4" y="0" width="32" height="24">
<path d="M-3.99844 0H27.9984V24H-3.99844V0Z" fill="white"/>
</mask>
<g mask="url(#mask1_69_3321)">
<path fill-rule="evenodd" clip-rule="evenodd" d="M-3.99844 0H27.9984V24H-3.99844V0Z" fill="#000099"/>
<path fill-rule="evenodd" clip-rule="evenodd" d="M2.64844 0L26.6016 24.0141V0.0140625L2.64844 0Z" fill="#FFCC00"/>
<path fill-rule="evenodd" clip-rule="evenodd" d="M20.6203 22.5704L19.3125 21.6188L17.9719 22.5657L18.4781 21.0094L17.1562 20.0485H18.7969L19.3031 18.4922L19.8047 20.0532H21.4453L20.1328 21.0235L20.6203 22.5704ZM24.4312 23.0578L22.7906 23.0532L22.2891 21.4922L21.7828 23.0485H20.1422L21.4641 24.0094L20.9578 25.5657L22.2984 24.6188L23.6109 25.5704L23.1188 24.0235L24.4312 23.0578ZM17.1375 18.0329L18.45 17.0626L16.8094 17.0578L16.3078 15.5016L15.8016 17.0578L14.1609 17.0532L15.4828 18.0141L14.9766 19.575L16.3172 18.6235L17.6297 19.5797L17.1375 18.0329ZM14.1234 15.0094L15.4359 14.0438L13.7953 14.0391L13.2938 12.4782L12.7828 14.0344H11.1469L12.4688 14.9954L11.9625 16.5516L13.3031 15.6047L14.6109 16.5563L14.1234 15.0094ZM11.1375 12.0282L12.45 11.0578H10.8094L10.3125 9.49225L9.80624 11.0485H8.16564L9.48748 12.0047L8.98124 13.5657L10.3219 12.6141L11.6344 13.5704L11.1422 12.0235L11.1375 12.0282ZM8.11876 9.01413L9.43124 8.04849L7.79064 8.04381L7.28908 6.48285L6.77812 8.03913H5.1422L6.46876 9.00005L5.96248 10.5563L7.30312 9.60941L8.61092 10.561L8.12344 9.01413H8.11876ZM5.13752 6.01881L6.44532 5.04849H4.80468L4.3078 3.48286L3.79688 5.04381H2.15624L3.48748 6.00005L2.97656 7.55629L4.3172 6.60941L5.62032 7.56569L5.13752 6.01881ZM2.13748 3.0188L3.44532 2.04848H1.80468L1.3078 0.482861L0.79688 2.0438H-0.843752L0.48752 3.00005L-0.0281241 4.56097L1.3172 3.60943L2.62032 4.56569L2.13748 3.0188ZM-0.8625 0.0187991L0.440639 -0.951515H-1.2L-1.70156 -2.51245L-2.20312 -0.956203H-3.84375L-2.51719 4.88758e-05L-3.02344 1.5563L-1.68281 0.609425L-0.379688 1.56567L-0.8625 0.0187991Z" fill="white"/>
</g>
</g>
</g>
</g>
<defs>
<clipPath id="clip0_69_3321">
<rect width="24" height="24" rx="12" fill="white"/>
</clipPath>
<clipPath id="clip1_69_3321">
<rect width="32" height="24" fill="white" transform="translate(-4)"/>
</clipPath>
</defs>
</svg>
