<svg width="24" height="24" viewBox="0 0 24 24" fill="none" xmlns="http://www.w3.org/2000/svg">
<g clip-path="url(#clip0_69_2178)">
<g clip-path="url(#clip1_69_2178)">
<mask id="mask0_69_2178" style="mask-type:luminance" maskUnits="userSpaceOnUse" x="-4" y="0" width="32" height="24">
<path d="M28 0H-4V24H28V0Z" fill="white"/>
</mask>
<g mask="url(#mask0_69_2178)">
<path d="M-4 0H28V24H-4V0Z" fill="#00267F"/>
<path d="M6.66563 0H17.3356V24H6.66563V0Z" fill="#FFC726"/>
<path d="M11.9905 6.7749C11.6405 7.7249 11.2905 8.7049 10.5305 9.4599C10.7655 9.3799 11.1805 9.3099 11.4405 9.3199V13.2949L10.3205 13.4599C10.2805 13.4599 10.2705 13.3949 10.2705 13.3099C10.1605 12.0749 9.87052 11.0349 9.53052 9.9599C9.50552 9.8149 9.08052 9.2599 9.41052 9.3599C9.45052 9.3599 9.88552 9.5399 9.82052 9.4549C9.19232 8.8213 8.38064 8.40146 7.50052 8.2549C7.42552 8.2399 7.38052 8.2799 7.45052 8.3649C8.57052 10.0949 9.51552 12.1399 9.50552 14.5649C9.94552 14.5649 11.0055 14.3049 11.4405 14.3049V17.1099H12.0005L12.1255 9.2749L11.9905 6.7749Z" fill="black"/>
<path d="M11.9845 6.7749C12.3345 7.7249 12.6845 8.7049 13.4445 9.4599C13.2095 9.3799 12.7945 9.3099 12.5345 9.3199V13.2949L13.6545 13.4599C13.6945 13.4599 13.7045 13.3949 13.7045 13.3099C13.8145 12.0749 14.1045 11.0349 14.4445 9.9599C14.4695 9.8149 14.8945 9.2599 14.5645 9.3599C14.5245 9.3599 14.0895 9.5399 14.1545 9.4549C14.7827 8.8213 15.5944 8.40146 16.4745 8.2549C16.5495 8.2399 16.5945 8.2799 16.5245 8.3649C15.4045 10.0949 14.4595 12.1399 14.4695 14.5649C14.0295 14.5649 12.9695 14.3049 12.5345 14.3049V17.1099H11.9745L11.8495 9.2749L11.9845 6.7749Z" fill="black"/>
</g>
</g>
</g>
<defs>
<clipPath id="clip0_69_2178">
<rect width="24" height="24" rx="12" fill="white"/>
</clipPath>
<clipPath id="clip1_69_2178">
<rect width="32" height="24" fill="white" transform="translate(-4)"/>
</clipPath>
</defs>
</svg>
