<svg width="24" height="24" viewBox="0 0 24 24" fill="none" xmlns="http://www.w3.org/2000/svg">
<g clip-path="url(#clip0_69_3572)">
<path fill-rule="evenodd" clip-rule="evenodd" d="M-3.07385 3.19995L12.0011 12.2L-3.07385 21.2V3.19995ZM27.0761 3.19995L12.0011 12.2L27.0761 21.2V3.19995Z" fill="#18B637"/>
<path fill-rule="evenodd" clip-rule="evenodd" d="M-3.07385 3.20005L12.0011 12.2L27.0761 3.20005L12.0011 -3.19995L-3.07385 3.20005ZM-3.07385 21.2L12.0011 12.2L27.0761 21.2L12.0011 27.6L-3.07385 21.2Z" fill="#CF0921"/>
<path fill-rule="evenodd" clip-rule="evenodd" d="M27.0761 3.19995H24.2672L-3.07385 19.523V21.2H-0.264866L27.0761 4.8769V3.19995Z" fill="white"/>
<path fill-rule="evenodd" clip-rule="evenodd" d="M17.2079 12.2C17.2079 13.5804 16.6595 14.9043 15.6834 15.8804C14.7073 16.8565 13.3834 17.4048 12.003 17.4048C10.6226 17.4048 9.29866 16.8565 8.32255 15.8804C7.34647 14.9043 6.7981 13.5804 6.7981 12.2C6.7981 10.82 7.34626 9.49658 8.32204 8.5208C9.29782 7.54502 10.6213 6.99686 12.0012 6.99683C13.3812 6.99686 14.7046 7.54502 15.6804 8.5208C16.6562 9.49658 17.2043 10.82 17.2043 12.2H17.2079Z" fill="white"/>
<path fill-rule="evenodd" clip-rule="evenodd" d="M-3.07385 3.19995V4.8769L24.2672 21.2H27.0761V19.523L-0.264866 3.19995H-3.07385Z" fill="white"/>
<path fill-rule="evenodd" clip-rule="evenodd" d="M13.0278 10.2384L12.3492 10.2489L11.9977 10.8255L11.6496 10.2489L10.9746 10.2349L11.3016 9.64072L10.9781 9.05011L11.6531 9.03604L12.0047 8.45947L12.3528 9.03955L13.0278 9.05362L12.7008 9.64426L13.0278 10.2384ZM10.7567 14.1618L10.0817 14.1724L9.73009 14.7489L9.38203 14.1724L8.70703 14.1583L9.034 13.5642L8.71057 12.9735L9.38557 12.9595L9.73711 12.3829L10.0852 12.963L10.7602 12.9771L10.4332 13.5677L10.7567 14.1618ZM15.3481 14.1618L14.6731 14.1724L14.3215 14.7489L13.9699 14.1724L13.2984 14.1583L13.6254 13.5642L13.2984 12.9735L13.9734 12.9595L14.325 12.3829L14.6766 12.963L15.3516 12.9771L15.0211 13.5677L15.3481 14.1618Z" fill="#CF0921" stroke="#18B637" stroke-width="0.457031"/>
</g>
<defs>
<clipPath id="clip0_69_3572">
<rect width="24" height="24" rx="12" fill="white"/>
</clipPath>
</defs>
</svg>
