<svg width="24" height="24" viewBox="0 0 24 24" fill="none" xmlns="http://www.w3.org/2000/svg">
<g clip-path="url(#clip0_69_2348)">
<g clip-path="url(#clip1_69_2348)">
<mask id="mask0_69_2348" style="mask-type:luminance" maskUnits="userSpaceOnUse" x="-4" y="0" width="32" height="24">
<path d="M28 0H-4V24H28V0Z" fill="white"/>
</mask>
<g mask="url(#mask0_69_2348)">
<path d="M-4 0H28V24H-4V0Z" fill="#CF142B"/>
<path d="M23.9847 6.52979V14.6098C23.9847 16.7648 19.6747 17.4698 19.6747 17.4698C19.6747 17.4698 15.3547 16.7698 15.3547 14.5998V6.52979H23.9797H23.9847Z" fill="white"/>
<path d="M23.9847 14.61C23.9847 16.765 19.6747 17.47 19.6747 17.47C19.6747 17.47 15.3547 16.77 15.3547 14.6C15.3547 14.6 15.3547 14.425 15.4447 14.33C15.4447 14.33 15.3947 14.685 15.6697 14.96C15.6697 14.96 15.4547 14.57 15.6697 14.195C15.6697 14.195 15.5847 14.685 15.8897 14.96C15.8897 14.96 15.7247 14.565 15.9097 14.125C15.9097 14.125 15.8197 14.84 16.1447 14.99C16.1447 14.99 16.2347 14.57 16.1047 14.31C16.1047 14.31 16.3297 14.4 16.3197 15C16.3197 15 16.3897 14.91 16.4097 14.475C16.4097 14.475 16.4197 14.975 16.5847 15.09C16.5847 15.09 16.6447 15.04 16.5697 14.815C16.4897 14.595 16.5997 14.515 16.6197 14.515C16.6197 14.515 16.5797 14.765 16.7897 14.955C16.7897 14.955 16.6997 14.56 16.8247 14.505C16.8247 14.505 16.7947 14.84 17.0647 14.91C17.0647 14.91 17.0797 14.815 17.0247 14.71C17.0247 14.71 16.9747 14.585 17.0097 14.485C17.0097 14.485 17.0947 14.785 17.2097 14.835C17.2097 14.835 17.1397 14.655 17.2097 14.485C17.2097 14.485 17.2197 14.735 17.4447 14.84C17.4447 14.84 17.2947 14.64 17.3497 14.43L18.7847 14.5L19.5347 14.535L21.7697 14.385L22.1497 14.05C22.1497 14.05 22.3047 14.255 22.0597 14.59C22.0597 14.59 22.2997 14.55 22.3747 14.175C22.3747 14.175 22.4747 14.38 22.3397 14.615C22.3397 14.615 22.6047 14.345 22.6397 14.05C22.6397 14.05 22.7447 14.34 22.4947 14.65C22.4947 14.65 22.7147 14.57 22.8097 14.245C22.8097 14.245 22.8897 14.445 22.6747 14.72C22.6747 14.72 23.0797 14.515 23.0697 14.07C23.0697 14.07 23.2347 14.31 23.0447 14.65C23.0447 14.65 23.2447 14.465 23.2697 14.185C23.2697 14.185 23.3847 14.31 23.2597 14.655C23.2597 14.655 23.5097 14.415 23.5497 14.16C23.5497 14.16 23.5997 14.4 23.3897 14.7C23.3897 14.7 23.5347 14.66 23.6747 14.37C23.6747 14.37 23.7097 14.49 23.5847 14.7C23.5847 14.7 23.7247 14.675 23.8147 14.405C23.8147 14.405 23.8297 14.565 23.7897 14.705C23.7897 14.705 23.8947 14.64 23.9197 14.34C23.9205 14.4173 23.9411 14.4931 23.9797 14.56V14.6L23.9847 14.61Z" fill="#2F8F22"/>
<path d="M21.7694 9.93464C21.7694 9.93464 21.6194 9.96464 21.4194 9.90464C21.2294 9.84464 21.1544 9.86964 21.0944 9.90464C21.0944 9.90464 21.1694 9.74964 20.9794 9.62464C20.9794 9.62464 21.0394 9.78464 20.9544 9.85464C20.9544 9.85464 20.9194 9.88964 20.8744 9.83964C20.8744 9.83964 20.8094 9.76464 20.7344 9.71964C20.7344 9.71964 20.8994 9.65964 20.8694 9.49464C20.8394 9.32964 20.7494 9.31464 20.7044 9.28964C20.6963 9.32924 20.6963 9.37004 20.7044 9.40964C20.7044 9.40964 20.5294 9.30964 20.7644 9.17464C21.0044 9.03964 20.9644 8.95464 20.9194 8.88464C20.8732 8.81392 20.8138 8.7528 20.7444 8.70464C20.7444 8.70464 20.7944 8.78464 20.7794 8.84964C20.7744 8.90964 20.6594 8.94964 20.6794 8.84464C20.7044 8.72464 20.6794 8.74464 20.6794 8.62964C20.6794 8.62964 20.8894 8.69964 20.9794 8.48964C20.9794 8.48964 21.0594 8.27464 20.7894 8.16964C20.7894 8.16964 20.8544 8.25964 20.8244 8.31964C20.8244 8.31964 20.7644 8.42964 20.6994 8.34964C20.6344 8.26464 20.5894 8.23964 20.5944 8.13964C20.5944 8.13964 20.8394 8.17464 20.7744 7.90464C20.7744 7.90464 20.7294 8.08464 20.4144 7.84464C20.4144 7.84464 20.6244 7.63464 20.5394 7.46464C20.5394 7.46464 20.5144 7.38964 20.2944 7.42964C20.2944 7.42964 20.4844 7.30964 20.4094 7.20464C20.4094 7.20464 20.3644 7.13964 20.1794 7.22464C20.1794 7.22464 20.2544 7.10964 20.0744 6.97464C20.0744 6.97464 19.9544 7.03464 19.8944 7.09464C19.8944 7.09464 19.7744 6.94464 19.6944 6.87964C19.6944 6.87964 19.5544 6.93464 19.5194 7.09464C19.5194 7.09464 19.4544 7.01964 19.3044 6.97464C19.3044 6.97464 19.2344 7.11464 19.3294 7.22464C19.3294 7.22464 19.2594 7.22464 19.1294 7.16964C19.1294 7.16964 18.9894 7.10964 19.0144 7.22464C19.0294 7.34464 19.0444 7.37464 19.0744 7.43464C19.0744 7.43464 18.7494 7.35964 18.7644 7.53464C18.7672 7.59376 18.782 7.65168 18.8078 7.70492C18.8336 7.7582 18.8698 7.80572 18.9144 7.84464C18.9144 7.84464 18.7394 8.08464 18.5844 7.90464C18.5844 7.90464 18.5244 7.96464 18.6444 8.11464C18.6444 8.11464 18.7644 8.23964 18.6594 8.32464C18.6594 8.32464 18.5344 8.42464 18.4744 8.22464C18.4744 8.22464 18.2694 8.42964 18.5144 8.58464C18.5144 8.58464 18.6644 8.67464 18.8294 8.53464C18.8294 8.53464 18.7794 8.93464 18.6294 8.85464C18.6294 8.85464 18.5344 8.79464 18.6994 8.70964C18.6994 8.70964 18.4594 8.67964 18.4244 8.90964C18.4244 8.90964 18.3944 9.08464 18.5994 9.15964C18.5994 9.15964 18.7544 9.21964 18.5994 9.33964C18.5994 9.33964 18.4744 9.42464 18.5544 9.55964C18.5544 9.55964 18.6444 9.69964 18.4094 9.71964C18.4094 9.71964 18.2894 9.71964 18.2444 9.69964C18.2444 9.69964 18.1944 9.79964 18.2244 9.89964C18.2244 9.89964 18.1094 9.81464 17.8494 9.90964C17.5894 10.0096 17.6044 9.93964 17.5894 9.96964L17.5094 10.0896C17.5094 10.0896 17.6494 10.2696 17.6544 10.2546L17.6244 10.4546L17.6944 10.4846L18.2344 10.2446L18.7844 9.95964L19.2294 9.97964L19.5094 10.0446L19.8694 10.0746L20.1394 9.93464H20.5194L20.9394 10.1446L21.4144 10.4296L21.6644 10.4796L21.8594 10.4646V10.0746L21.7694 9.93464Z" fill="#D40000" stroke="black" stroke-width="0.15" stroke-linejoin="round"/>
<path d="M17.4101 10.3852C17.4101 10.3852 17.6201 10.4952 17.7101 10.3702C17.7101 10.3702 17.8201 10.1502 17.5701 10.0702C17.5701 10.0702 17.7101 9.91016 17.5601 9.76016C17.5601 9.76016 17.4801 9.68016 17.3501 9.73516C17.3501 9.73516 17.2901 9.62016 17.1651 9.62516C17.1651 9.62516 17.0451 9.62516 17.0151 9.75016C17.0151 9.75016 16.8551 9.69016 16.7701 9.78016C16.7701 9.78016 16.6201 9.94016 16.8251 10.0702L16.9701 10.0852L17.1101 10.0152L17.2751 10.0602C17.2751 10.0602 17.2301 10.2202 17.4101 10.3852Z" fill="#D40000" stroke="black" stroke-width="0.15" stroke-linejoin="round"/>
<path d="M22.0796 10.0048C22.1498 9.99598 22.221 10.0096 22.283 10.0437C22.345 10.0779 22.3945 10.1307 22.4246 10.1948C22.5546 10.5048 22.2746 10.6748 22.2746 10.6748C22.2946 10.7398 22.2996 10.8348 22.2996 10.8348C22.6896 10.8848 22.6196 11.3248 22.6196 11.3248L22.4896 11.2148C22.2646 11.1248 22.0246 11.3248 21.8596 11.6448C21.6896 11.9748 21.7696 12.1198 21.7996 12.5098C21.8296 12.8948 22.4496 13.1298 22.4496 13.1298L21.9646 14.3798C21.7746 14.8798 21.3646 14.6748 21.2496 14.5648C21.1346 14.4648 21.1046 14.5248 21.0496 14.5648C20.9946 14.6148 21.3146 14.8648 20.7246 15.1048C20.1396 15.3398 20.0396 15.5198 19.9396 15.5798C19.8396 15.6398 19.4396 15.6048 19.3996 15.5498C19.3496 15.4998 19.3796 15.4998 19.2246 15.4048C19.0746 15.3198 18.8146 15.2298 18.5346 15.0948C18.2546 14.9598 18.2646 14.7848 18.2696 14.7498C18.2696 14.7148 18.3646 14.4248 18.0346 14.6548C17.7096 14.8898 17.4296 14.5448 17.4296 14.5448C17.3696 14.4598 17.0896 13.7248 17.0896 13.7248C17.0318 13.5201 16.96 13.3196 16.8746 13.1248C16.8746 13.1248 16.8546 13.1648 17.0996 13.0248C17.3396 12.8898 17.4496 12.6598 17.5346 12.4298C17.6196 12.1998 17.5346 11.8048 17.5046 11.7298C17.4746 11.6498 17.2946 11.2848 17.0696 11.2098C16.8496 11.1298 16.6946 11.3298 16.6946 11.3298C16.6946 11.3298 16.6296 10.8798 17.0246 10.8298C17.0246 10.8298 17.0246 10.7398 17.0446 10.6748C17.0446 10.6748 16.7646 10.5048 16.8946 10.1948C16.8946 10.1948 16.9846 9.97982 17.2346 10.0048L17.1796 10.1248C17.1796 10.1248 17.1196 10.7548 18.0396 10.3348C18.9646 9.90482 18.9396 9.82482 19.4746 10.0948L19.8546 10.0898C19.8546 10.0898 20.4046 9.82482 20.5896 9.93982C20.7646 10.0548 21.4046 10.4098 21.4046 10.4098C21.4046 10.4098 22.0246 10.6448 22.1496 10.2098L22.0796 10.0048Z" fill="#64B4D1" stroke="black" stroke-width="0.15"/>
<path d="M19.2906 12.7502C19.2906 12.7502 19.2606 12.5552 19.2306 12.4302C19.2306 12.4302 19.1556 12.2352 19.2806 12.0902L19.4206 11.9252C19.4206 11.9252 19.5106 11.8052 19.6206 11.7902C19.6206 11.7902 19.7356 11.7902 19.7406 11.7652C19.7556 11.7402 19.8806 11.5402 20.1706 11.7652C20.1706 11.7652 20.2606 11.6152 20.4106 11.5852C20.4106 11.5852 20.5606 11.5452 20.6356 11.6552C20.6356 11.6552 20.8106 11.5252 20.9556 11.7402C20.9556 11.7402 21.1606 11.6202 21.3156 11.8552C21.3156 11.8552 21.5156 11.7552 21.6356 11.9602C21.7606 12.1752 21.7356 12.2602 21.7356 12.2602L21.8356 12.6002L22.1606 13.0002L21.4006 13.2902H21.0506L20.3656 13.4702L19.1506 13.5652L18.8156 13.1652L19.2956 12.7502H19.2906Z" fill="white" stroke="#00247D" stroke-width="0.15" stroke-miterlimit="10"/>
<path d="M18.265 14.7743C18.265 14.7743 18.085 14.7793 17.99 14.8343C17.9 14.8743 17.825 14.9243 17.72 14.9943C17.72 14.9943 17.67 15.0593 17.46 15.0193C17.46 15.0193 17.1 14.9343 17.1 15.2193C17.1 15.2193 16.66 15.2493 16.84 15.6343C16.84 15.6343 16.955 15.9343 17.205 15.7243C17.205 15.7243 17.045 15.9493 17.355 16.0393C17.355 16.0393 17.575 16.0993 17.645 15.8643C17.645 15.8643 17.68 15.7743 17.595 15.6643C17.595 15.6643 17.7 15.6443 17.775 15.5293C17.775 15.5293 17.545 15.8193 17.8 15.9293C17.8 15.9293 18.115 16.0043 18.13 15.6793C18.13 15.6793 18.1 15.5193 18.23 15.4643C18.23 15.4643 18.48 15.4043 18.58 15.1343C18.58 15.1343 18.23 14.9393 18.265 14.7743ZM17.53 11.8993C17.53 11.8993 17.25 11.7743 17.11 11.8993C17.11 11.8993 16.935 11.7893 16.735 11.8993C16.735 11.8993 16.55 12.0193 16.42 12.1593C16.42 12.1593 16.33 12.2343 16.36 12.4793C16.36 12.4793 16.41 12.6543 16.385 12.7343C16.385 12.7343 16.325 12.7243 16.2 12.8743C16.2 12.8743 16.045 13.0493 15.9 12.8893C15.9 12.8893 15.95 13.1193 16.205 13.0793C16.205 13.0793 16.08 13.1793 16.19 13.4293C16.19 13.4293 16.27 13.6093 16.14 13.8393C16.14 13.8393 16.365 13.7493 16.36 13.4793C16.36 13.4793 16.335 13.2993 16.41 13.1793C16.41 13.1793 16.335 13.2893 16.49 13.5343C16.49 13.5343 16.61 13.7143 16.515 13.8943C16.515 13.8943 16.735 13.8143 16.715 13.5443C16.695 13.2743 16.565 13.3843 16.645 13.1343C16.645 13.1343 16.67 13.2643 16.735 13.3343C16.7848 13.3763 16.8223 13.4311 16.8434 13.4927C16.8645 13.5543 16.8686 13.6205 16.855 13.6843C16.855 13.6843 16.985 13.5143 16.955 13.3443C16.9464 13.2677 16.9244 13.1932 16.89 13.1243L17.31 12.8843L17.525 12.5093L17.53 11.8993Z" fill="#D40000" stroke="black" stroke-width="0.15" stroke-linejoin="round"/>
<path d="M16.8894 12.9744C16.8894 12.9744 16.7144 12.9644 16.6894 12.8244M16.3844 12.7344C16.3844 12.7344 16.4444 12.7344 16.5044 12.7944C16.5044 12.7944 16.5394 12.8544 16.5994 12.8444" stroke="black" stroke-width="0.15" stroke-miterlimit="10"/>
<path d="M17.1497 12.4604C17.1497 12.4604 17.0597 12.4604 16.9997 12.4204C16.9997 12.4204 16.9547 12.3854 16.9247 12.4404C16.9247 12.4404 16.8747 12.5204 16.9647 12.5554C16.9647 12.5554 17.0747 12.6154 16.9047 12.7254C16.9047 12.7254 17.1047 12.6454 17.0247 12.5454C17.0247 12.5454 16.9347 12.4854 16.9647 12.4604C16.9647 12.4604 16.9747 12.4404 17.0147 12.4604C17.0447 12.4904 17.1147 12.4804 17.1497 12.4604Z" fill="black"/>
<path d="M19.8806 12.9503L19.9856 12.9203L19.2856 10.5203H19.2656L19.8806 12.9503Z" fill="#784421" stroke="black" stroke-width="0.15"/>
<path d="M17.5594 15.6144C17.5594 15.6144 17.3994 15.5194 17.2594 15.6294C17.2594 15.6294 17.2794 15.5694 17.3794 15.5444C17.3794 15.5444 17.4394 15.3844 17.5944 15.3994C17.5944 15.3994 17.5294 15.4794 17.4444 15.5394C17.4444 15.5394 17.5344 15.5494 17.5644 15.6144H17.5594Z" fill="black"/>
<path d="M16.9856 15.9906C16.9856 15.9906 16.7256 15.8306 16.8706 15.5556C16.8706 15.5556 16.9106 15.4806 16.9856 15.4956C16.9856 15.4956 17.1506 15.5456 17.0256 15.7706C17.0256 15.7706 16.9556 15.9156 16.9856 15.9956V15.9906ZM17.5106 16.2556C17.5106 16.2556 17.1406 16.0856 17.2556 15.7956C17.2556 15.7956 17.2906 15.6956 17.3756 15.7056C17.3756 15.7056 17.5155 15.7156 17.4905 15.9056C17.4905 15.9056 17.4456 16.0856 17.5106 16.2556Z" fill="#64B4D1" stroke="#00247D" stroke-width="0.15" stroke-miterlimit="2.6"/>
<path d="M17.4353 15.1797C17.4353 15.1797 17.3203 15.2647 17.2803 15.3197C17.2803 15.3197 17.2303 15.2597 17.1703 15.2297C17.1703 15.2297 17.2453 15.2147 17.2803 15.2447C17.2803 15.2447 17.3403 15.1947 17.4303 15.1797H17.4353Z" fill="black"/>
<path d="M17.7594 16.1792C17.7594 16.1792 18.0594 16.1092 17.9994 15.8042C17.9994 15.8042 17.9694 15.6742 17.8494 15.6942C17.8494 15.6942 17.6994 15.7342 17.7994 15.9242C17.7994 15.9242 17.8544 16.0542 17.7594 16.1792Z" fill="#64B4D1" stroke="#00247D" stroke-width="0.15" stroke-miterlimit="2.6"/>
<path d="M19.0797 9.83495L19.3647 9.92995C19.3647 9.92995 19.6347 10.045 19.9797 9.92995L20.2397 9.82995L20.0647 10.1V10.245L20.1697 10.405C20.1697 10.405 20.1047 10.435 19.8997 10.305C19.8997 10.305 19.6797 10.135 19.4197 10.305C19.4197 10.305 19.2697 10.405 19.1497 10.405L19.3247 10.215L19.2597 10.04L19.0797 9.82495V9.83495Z" fill="#F5CE00" stroke="black" stroke-width="0.15" stroke-miterlimit="2.6"/>
<path d="M17.8743 15.825C17.8743 15.825 17.8843 15.805 17.8743 15.8L17.8493 15.81C17.8493 15.81 17.8193 15.86 17.8493 15.93C17.8493 15.93 17.8743 15.975 17.8643 16.02V16.04C17.8643 16.04 17.8793 16.035 17.8793 16.02C17.8793 16.02 17.8993 15.98 17.8693 15.93C17.8693 15.93 17.8393 15.86 17.8743 15.825Z" fill="white"/>
<path d="M21.9 10.3852C21.9 10.3852 21.69 10.4952 21.6 10.3702C21.6 10.3702 21.495 10.1502 21.745 10.0702C21.745 10.0702 21.605 9.91016 21.75 9.76016C21.75 9.76016 21.83 9.68016 21.96 9.73516C21.96 9.73516 22.02 9.62016 22.145 9.62516C22.145 9.62516 22.265 9.62516 22.295 9.75016C22.295 9.75016 22.46 9.69016 22.545 9.78016C22.545 9.78016 22.685 9.94016 22.485 10.0702L22.34 10.0852L22.195 10.0152L22.045 10.0602C22.045 10.0602 22.085 10.2202 21.895 10.3852H21.9Z" fill="#D40000" stroke="black" stroke-width="0.15" stroke-linejoin="round"/>
<path d="M20.2406 10.2206C20.2406 10.2206 20.2406 10.2606 20.2006 10.2706C20.2006 10.2706 20.1506 10.2856 20.1256 10.2256V10.2106C20.1256 10.1856 20.1106 10.1106 20.1956 10.0456C20.1956 10.0456 20.3256 9.94064 20.5756 10.0706C20.8168 10.2062 21.0637 10.3314 21.3156 10.4456C21.3156 10.4456 21.4706 10.5256 21.7106 10.5356C21.7106 10.5356 22.0356 10.5606 22.1756 10.3306C22.1756 10.3306 22.2806 10.1556 22.1756 10.0406C22.1756 10.0406 22.1306 9.99064 22.0606 10.0006C22.0242 10.0088 21.9921 10.0302 21.9706 10.0606C21.9706 10.0606 21.9206 10.1306 21.9756 10.1856C21.9756 10.1856 22.0556 10.2356 22.0856 10.1356C22.0856 10.1456 22.1106 10.2206 22.0656 10.2806C22.0656 10.2806 21.8656 10.5806 21.3206 10.2756L20.6056 9.87064C20.6056 9.87064 20.2506 9.68564 20.0256 9.97564C20.0256 9.97564 19.8556 10.2156 20.0806 10.3706C20.0806 10.3706 20.2506 10.4706 20.3506 10.3106C20.3506 10.3106 20.4406 10.1556 20.3006 10.0906C20.3006 10.0906 20.1806 10.0306 20.1356 10.1506C20.0856 10.2706 20.2256 10.3006 20.2356 10.2156C20.2356 10.2156 20.2356 10.1956 20.2506 10.2156L20.2406 10.2206Z" fill="#F5CE00" stroke="black" stroke-width="0.15" stroke-miterlimit="2.6"/>
<path d="M17.4003 11.4606V11.0106C17.4003 10.9706 17.4003 10.9506 17.4603 10.9006C17.5103 10.8606 17.5653 10.7856 17.6453 10.9856C17.6453 10.9856 17.8053 10.8106 17.8553 10.7856C17.8553 10.7856 17.9553 10.7106 18.0203 10.8206C18.0203 10.8206 18.1003 10.6906 18.1703 10.6606C18.1703 10.6606 18.3303 10.5606 18.3353 10.8706L18.4603 10.7506C18.4603 10.7506 18.5603 10.6756 18.6703 10.7856C18.6703 10.7856 18.8453 10.9656 18.8703 11.0156C18.8703 11.0156 18.9103 11.0656 18.9203 11.1506C18.9203 11.1506 18.9203 11.2506 18.9703 11.3006C18.9703 11.3006 19.0253 11.3506 19.0803 11.3606C19.0803 11.3606 19.2053 11.3656 19.2603 11.4906C19.2603 11.4906 19.2753 11.4656 19.3403 12.0506V13.1256L18.6203 13.9806L17.4653 13.6506L17.0053 13.4556L16.8953 13.1256L17.3453 12.8306L17.5853 12.1806L17.5103 11.7156L17.4003 11.4556V11.4606Z" fill="#E4CB5E" stroke="black" stroke-width="0.15" stroke-miterlimit="2.6"/>
<path d="M20.5797 12.0202L20.6397 11.9452L20.7647 11.8452C20.7647 11.8452 20.9647 12.3652 20.9747 12.4802V12.6402C20.9747 12.6402 21.2747 12.7202 21.3347 13.1752L21.0847 13.6352L20.6947 13.4152L20.5797 13.3402V12.0252V12.0202Z" fill="#784421" stroke="black" stroke-width="0.15"/>
<path d="M16.9146 15.6206C16.9146 15.6206 16.9246 15.6056 16.9146 15.5906L16.8896 15.6106C16.8896 15.6106 16.8146 15.6956 16.8796 15.8306C16.8796 15.8306 16.8796 15.8506 16.8946 15.8406C16.8946 15.8406 16.9096 15.8406 16.8946 15.8256C16.8946 15.8256 16.8396 15.7056 16.9146 15.6256V15.6206Z" fill="white"/>
<path d="M18.0857 15.5304C18.0857 15.5304 18.0907 15.4904 18.0657 15.4504C18.0657 15.4504 18.0507 15.4204 18.0557 15.3754M18.3357 10.8704C18.3357 10.8704 18.3357 10.9854 18.3707 11.0704C18.4007 11.1504 18.5157 11.2954 18.5207 11.3654" stroke="black" stroke-width="0.15" stroke-miterlimit="10"/>
<path d="M21.0497 14.7749C21.0497 14.7749 21.2297 14.7799 21.3247 14.8349C21.4247 14.8749 21.4947 14.9249 21.5997 14.9949C21.5997 14.9949 21.6497 15.0599 21.8597 15.0199C21.8597 15.0199 22.2197 14.9349 22.2197 15.2199C22.2197 15.2199 22.6547 15.2499 22.4797 15.6349C22.4797 15.6349 22.3597 15.9349 22.1097 15.7249C22.1097 15.7249 22.2697 15.9499 21.9597 16.0399C21.9597 16.0399 21.7397 16.0999 21.6747 15.8649C21.6747 15.8649 21.6347 15.7749 21.7247 15.6649C21.7247 15.6649 21.6197 15.6449 21.5497 15.5299C21.5497 15.5299 21.7747 15.8199 21.5247 15.9299C21.5247 15.9299 21.2097 16.0049 21.1897 15.6799C21.1897 15.6799 21.2147 15.5199 21.0897 15.4649C21.0897 15.4649 20.8397 15.4049 20.7297 15.1349C20.7297 15.1349 21.0897 14.9399 21.0547 14.7749H21.0497Z" fill="#D40000" stroke="black" stroke-width="0.15" stroke-linejoin="round"/>
<path d="M18.1906 11.3697L18.4906 13.7597M18.2656 11.3647L18.5956 13.5947M18.3206 11.3547L18.7106 13.5647" stroke="black" stroke-width="0.15" stroke-miterlimit="10"/>
<path d="M18.9306 13.3757L19.0406 13.3407L18.3406 10.9407H18.3156L18.9306 13.3757Z" fill="#784421" stroke="black" stroke-width="0.15"/>
<path d="M18.5356 11.2656L19.2406 13.0406M18.4906 11.2906L19.1706 13.1406" stroke="black" stroke-width="0.15" stroke-miterlimit="10"/>
<path d="M17.3794 16.0798C17.3794 16.0798 17.2944 16.0048 17.3094 15.8648C17.3094 15.8648 17.3093 15.8348 17.2943 15.8298C17.2943 15.8298 17.2794 15.8248 17.2794 15.8598C17.2794 15.8598 17.2544 16.0048 17.3544 16.0848C17.3544 16.0848 17.3593 16.0998 17.3743 16.0948C17.3743 16.0948 17.3843 16.0948 17.3743 16.0798H17.3794Z" fill="white"/>
<path d="M18.575 11.2407L19.29 12.8607M18.375 11.3407L18.825 13.5257" stroke="black" stroke-width="0.15" stroke-miterlimit="10"/>
<path d="M21.9998 12.9499C21.6848 12.7699 21.6148 12.3799 21.6148 12.3799C21.5696 12.1389 21.5975 11.8899 21.6948 11.6649C21.8948 11.2349 22.2498 11.1499 22.2498 11.1499C22.2498 11.1499 21.9048 11.3899 21.8098 11.7099C21.8098 11.7099 21.7398 11.9849 21.7798 12.2449C21.8198 12.5199 21.8048 12.4499 21.8698 12.6599L21.9998 12.9599V12.9499Z" fill="#F5CE00" stroke="black" stroke-width="0.15" stroke-miterlimit="2.6"/>
<path d="M20.635 11.9343L19.305 12.3593L19.235 12.9593C18.92 13.4143 18.275 13.4943 18.275 13.4943L18.775 14.0293L19.725 14.2293L20.235 13.8393L20.695 13.4193C20.645 13.1943 20.67 12.8593 20.67 12.8593C20.67 12.7993 20.695 12.6693 20.695 12.6693C20.695 12.6693 20.62 12.1343 20.635 11.9443V11.9343Z" fill="#784421" stroke="black" stroke-width="0.15"/>
<path d="M19.2497 12.8093C19.2497 12.8093 20.1297 12.5343 20.6497 12.3093M18.8297 13.3093C18.8297 13.3093 19.9297 13.1093 20.6947 12.6693L20.9747 12.4793" stroke="black" stroke-width="0.15" stroke-miterlimit="10"/>
<path d="M20.9756 12.6406L20.6756 12.8606C20.6756 12.8606 19.4506 13.4206 18.5156 13.4406M20.6706 13.2606C20.6706 13.2606 19.7306 13.7506 19.2006 13.7506" stroke="black" stroke-width="0.15" stroke-miterlimit="10"/>
<path d="M21.7906 11.8993C21.7906 11.8993 22.0706 11.7743 22.2106 11.8993C22.2106 11.8993 22.3906 11.7893 22.5906 11.8993C22.5906 11.8993 22.7706 12.0193 22.9006 12.1593C22.9006 12.1593 22.9906 12.2343 22.9606 12.4793C22.9606 12.4793 22.9106 12.6543 22.9456 12.7343C22.9456 12.7343 23.0006 12.7243 23.1206 12.8743C23.1206 12.8743 23.2856 13.0493 23.4206 12.8893C23.4206 12.8893 23.3806 13.1193 23.1206 13.0793C23.1206 13.0793 23.2406 13.1793 23.1356 13.4293C23.1356 13.4293 23.0556 13.6093 23.1856 13.8393C23.1856 13.8393 22.9556 13.7493 22.9656 13.4793C22.9656 13.4793 22.9856 13.2993 22.9156 13.1793C22.9156 13.1793 22.9856 13.2893 22.8306 13.5343C22.8306 13.5343 22.7106 13.7143 22.8106 13.8943C22.8106 13.8943 22.5856 13.8143 22.6106 13.5443C22.6256 13.2743 22.7606 13.3843 22.6756 13.1343C22.6756 13.1343 22.6556 13.2643 22.5906 13.3343C22.5408 13.3763 22.5034 13.4311 22.4822 13.4927C22.4611 13.5543 22.4571 13.6205 22.4706 13.6843C22.4706 13.6843 22.3406 13.5143 22.3706 13.3443C22.4006 13.1693 22.4306 13.1243 22.4306 13.1243L22.0156 12.8843L21.8056 12.5093L21.7906 11.8993Z" fill="#D40000" stroke="black" stroke-width="0.15" stroke-linejoin="round"/>
<path d="M17.03 13.4196C17.03 13.4196 17.07 13.2346 17.245 13.2996C17.245 13.2996 17.305 12.9996 17.63 12.9896C17.955 12.9796 17.97 13.3096 17.97 13.3296C17.97 13.3296 18.07 13.1896 18.225 13.2046C18.225 13.2046 18.5 13.1896 18.405 13.6296L18.455 13.6896C18.455 13.6896 18.66 13.1946 19.09 13.3196C19.09 13.3196 19.51 13.4496 19.24 13.8546C19.24 13.8546 19.45 14.1296 19.62 14.1046C19.8 14.0796 19.955 14.0246 20.13 13.7146C20.31 13.4046 20.715 13.3546 20.815 13.3746C20.915 13.3896 21 13.4646 21.015 13.5346C21.015 13.5346 21.23 12.8196 22.005 12.9246L22.315 13.0896L22.435 13.1396L22.255 13.6396L21.835 14.5996L21.505 14.6996L21.165 14.5046L21.045 14.5646V14.8596L20.595 15.1796L20.285 15.3046L19.945 15.5446L19.86 15.7546C19.86 15.7546 19.675 15.6696 19.46 15.7546L19.39 15.5746L19.19 15.3896L18.41 15.0196L18.275 14.5696L18.13 14.5046L17.97 14.6846L17.745 14.7146L17.395 14.4746L17.025 13.4246L17.03 13.4196Z" fill="white" stroke="#00247D" stroke-width="0.15" stroke-miterlimit="10"/>
<path d="M20.4106 9.89994C20.4106 9.89994 20.1106 9.88994 20.1256 10.1999" stroke="black" stroke-width="0.15" stroke-miterlimit="2.6"/>
<path d="M22.3494 13.1656C21.8394 13.0056 21.6994 12.4506 21.6994 12.4506C21.6383 12.1923 21.6592 11.9214 21.7594 11.6756C21.9994 11.1256 22.3944 11.1256 22.3944 11.1256C22.4453 11.1182 22.497 11.1308 22.539 11.1606C22.5808 11.1904 22.6097 11.2352 22.6194 11.2856C22.6394 11.4056 22.5544 11.4506 22.5544 11.4506C22.4194 11.5256 22.3294 11.4256 22.3294 11.4256C22.2694 11.3456 22.3144 11.2806 22.3144 11.2806C22.3494 11.2306 22.4144 11.2606 22.4144 11.2606C22.4794 11.2706 22.4644 11.3406 22.4644 11.3406C22.4644 11.3406 22.4844 11.2606 22.4044 11.2506C22.4044 11.2506 22.2444 11.2156 22.0644 11.4406C22.0644 11.4406 21.8294 11.7456 21.8294 12.1456C21.8294 12.1456 21.7994 12.8856 22.5644 13.0756C22.5644 13.0756 22.4844 13.1956 22.3344 13.6306C22.3344 13.6306 22.1694 14.1906 22.0144 14.4956C22.0144 14.4956 21.7994 14.9256 21.3194 14.7506C21.3194 14.7506 21.0394 14.6256 21.0394 14.4256C21.0394 14.4256 21.0244 14.2356 21.1894 14.2256C21.1894 14.2256 21.3544 14.2106 21.3544 14.3506C21.3544 14.3506 21.3544 14.5006 21.1794 14.4706C21.1794 14.4706 21.1194 14.4556 21.1244 14.3956C21.1244 14.3956 21.1344 14.3356 21.2144 14.3656C21.2894 14.3956 21.2144 14.3656 21.2144 14.3606C21.2144 14.3606 21.1844 14.3456 21.1544 14.3606C21.1544 14.3606 21.1244 14.3606 21.1244 14.4106C21.1244 14.4106 21.1244 14.4406 21.1594 14.4656L21.2444 14.4756C21.2444 14.4756 21.2944 14.5756 21.3944 14.6106C21.4542 14.629 21.5174 14.6332 21.579 14.6228C21.6407 14.6124 21.699 14.5877 21.7494 14.5506C21.8165 14.4925 21.868 14.4186 21.8994 14.3356C22.0004 14.1164 22.0872 13.8909 22.1594 13.6606C22.1594 13.6606 22.2494 13.3756 22.3294 13.2256L22.3494 13.1656Z" fill="#F5CE00" stroke="black" stroke-width="0.15" stroke-miterlimit="2.6"/>
<path d="M20.9 14.5703C20.9 14.5703 21 14.5603 21 14.6453C21 14.6453 20.995 14.7653 20.84 14.7403C20.84 14.7403 20.69 14.7103 20.74 14.5403C20.74 14.5403 20.78 14.4253 20.92 14.4403C20.92 14.4403 21.06 14.4403 21.12 14.6303C21.12 14.6303 21.17 14.7953 21.085 14.9303C20.995 15.0803 20.775 15.1803 20.665 15.2303C20.665 15.2303 20.23 15.3953 20.1 15.4953C20.1 15.4953 19.9 15.6403 19.99 15.7753C19.99 15.7753 20.025 15.8303 20.075 15.8303C20.075 15.8303 20.135 15.8303 20.14 15.7703C20.14 15.7703 20.14 15.8053 20.105 15.8203C20.105 15.8203 20.065 15.8403 20.02 15.8053C20.02 15.8053 19.97 15.7553 20.01 15.6853C20.01 15.6853 20.06 15.6053 20.19 15.6553C20.19 15.6553 20.29 15.7103 20.25 15.8203C20.25 15.8203 20.205 15.9253 20.08 15.9203C20.08 15.9203 19.985 15.9203 19.92 15.8603C19.82 15.7553 19.82 15.5603 19.91 15.4603C19.91 15.4603 19.985 15.3553 20.145 15.2803L20.595 15.1053C20.725 15.0503 20.84 14.9903 20.915 14.9003C20.915 14.9003 20.98 14.8303 21.005 14.7003C21.005 14.7003 21.025 14.6003 20.965 14.5803L20.905 14.5653L20.9 14.5703Z" fill="#F5CE00" stroke="black" stroke-width="0.15" stroke-miterlimit="2.6"/>
<path d="M20.9094 14.5697C20.9094 14.5697 21.0144 14.5497 21.0844 14.6797C21.0844 14.6797 21.1194 14.7547 21.1244 14.8047M21.1594 14.3547C21.1594 14.3547 21.0544 14.3697 21.1094 14.5247C21.1644 14.6697 21.2594 14.7097 21.2844 14.7347" stroke="black" stroke-width="0.15" stroke-miterlimit="2.6"/>
<path d="M19.08 10.2197C19.08 10.2197 19.08 10.2597 19.13 10.2697C19.13 10.2697 19.17 10.2797 19.195 10.2247V10.2097C19.195 10.1847 19.21 10.1097 19.135 10.0447C19.135 10.0447 18.995 9.93971 18.745 10.0697C18.745 10.0697 18.545 10.1697 18.41 10.2497C18.41 10.2497 18.055 10.4397 18.01 10.4497C18.01 10.4497 17.85 10.5297 17.61 10.5397C17.61 10.5397 17.285 10.5647 17.15 10.3347C17.15 10.3347 17.04 10.1597 17.15 10.0447C17.15 10.0447 17.19 9.99471 17.26 10.0047C17.29 10.0097 17.32 10.0247 17.35 10.0647C17.35 10.0647 17.4 10.1347 17.345 10.1897C17.345 10.1897 17.265 10.2397 17.235 10.1397C17.235 10.1497 17.22 10.2197 17.26 10.2897C17.26 10.2897 17.46 10.5847 18 10.2747L18.715 9.87471C18.715 9.87471 19.075 9.68971 19.295 9.97471C19.295 9.97471 19.465 10.2147 19.245 10.3747C19.245 10.3747 19.08 10.4747 18.97 10.3147C18.97 10.3147 18.89 10.1647 19.02 10.0947C19.02 10.0947 19.14 10.0347 19.195 10.1547C19.245 10.2747 19.095 10.3047 19.085 10.2197C19.085 10.2197 19.085 10.1997 19.08 10.2197ZM17.32 12.9547C17.635 12.7797 17.71 12.3797 17.71 12.3797C17.78 11.9797 17.625 11.6647 17.625 11.6647C17.425 11.2347 17.075 11.1497 17.075 11.1497C17.075 11.1497 17.415 11.3897 17.51 11.7097C17.51 11.7097 17.59 11.9847 17.54 12.2447C17.5 12.5197 17.515 12.4497 17.45 12.6597L17.32 12.9547Z" fill="#F5CE00" stroke="black" stroke-width="0.15" stroke-miterlimit="2.6"/>
<path d="M18.9203 9.89994C18.9203 9.89994 19.2203 9.88994 19.2003 10.1999" stroke="black" stroke-width="0.15" stroke-miterlimit="2.6"/>
<path d="M16.9653 13.1656C17.4803 13.0056 17.6153 12.4506 17.6153 12.4506C17.678 12.1928 17.6588 11.9219 17.5603 11.6756C17.3203 11.1256 16.9253 11.1256 16.9253 11.1256C16.8744 11.1182 16.8227 11.1308 16.7808 11.1606C16.7389 11.1904 16.7101 11.2352 16.7003 11.2856C16.6853 11.4056 16.7653 11.4506 16.7653 11.4506C16.9053 11.5256 16.9953 11.4256 16.9953 11.4256C17.0503 11.3456 17.0053 11.2806 17.0053 11.2806C16.9703 11.2306 16.9053 11.2606 16.9053 11.2606C16.8453 11.2706 16.8553 11.3406 16.8553 11.3406C16.8553 11.3406 16.8403 11.2606 16.9153 11.2506C16.9153 11.2506 17.0753 11.2156 17.2553 11.4406C17.2553 11.4406 17.4953 11.7456 17.4953 12.1456C17.4953 12.1456 17.5253 12.8856 16.7553 13.0756C16.7553 13.0756 16.8403 13.1956 16.9853 13.6306C16.9853 13.6306 17.1553 14.1906 17.3153 14.4956C17.3153 14.4956 17.5253 14.9256 18.0003 14.7506C18.0003 14.7506 18.2803 14.6256 18.2803 14.4256C18.2803 14.4256 18.3003 14.2356 18.1303 14.2256C18.1303 14.2256 17.9653 14.2106 17.9653 14.3506C17.9653 14.3506 17.9653 14.5006 18.1453 14.4706C18.1453 14.4706 18.2053 14.4556 18.1953 14.3956C18.1953 14.3956 18.1853 14.3356 18.1103 14.3656C18.0303 14.3956 18.1103 14.3656 18.1103 14.3606C18.1103 14.3606 18.1353 14.3456 18.1653 14.3606C18.1653 14.3606 18.1953 14.3606 18.1953 14.4106C18.1953 14.4106 18.1953 14.4406 18.1603 14.4656L18.0853 14.4756C18.0853 14.4756 18.0353 14.5756 17.9253 14.6106C17.8666 14.6303 17.8038 14.6352 17.7428 14.6247C17.6817 14.6142 17.6242 14.5888 17.5753 14.5506C17.5082 14.4925 17.4567 14.4186 17.4253 14.3356C17.3227 14.1165 17.2342 13.891 17.1603 13.6606C17.1603 13.6606 17.0703 13.3756 17.0003 13.2256L16.9703 13.1656H16.9653Z" fill="#F5CE00" stroke="black" stroke-width="0.15" stroke-miterlimit="2.6"/>
<path d="M18.4244 14.5703C18.4244 14.5703 18.3244 14.5603 18.3244 14.6453C18.3244 14.6453 18.3244 14.7653 18.4844 14.7403C18.4844 14.7403 18.6344 14.7103 18.5794 14.5403C18.5794 14.5403 18.5444 14.4253 18.3994 14.4403C18.3994 14.4403 18.2644 14.4403 18.1994 14.6303C18.1994 14.6303 18.1544 14.7953 18.2394 14.9303C18.3294 15.0803 18.5494 15.1803 18.6544 15.2303C18.6544 15.2303 19.0894 15.3953 19.2244 15.4953C19.2244 15.4953 19.4194 15.6403 19.3294 15.7753C19.3294 15.7753 19.2994 15.8303 19.2444 15.8303C19.2444 15.8303 19.1844 15.8303 19.1794 15.7703C19.1794 15.7703 19.1794 15.8053 19.2144 15.8203C19.2144 15.8203 19.2594 15.8403 19.2994 15.8053C19.2994 15.8053 19.3494 15.7553 19.3094 15.6853C19.3094 15.6853 19.2594 15.6053 19.1394 15.6553C19.1394 15.6553 19.0294 15.7103 19.0794 15.8203C19.0794 15.8203 19.1144 15.9253 19.2394 15.9203C19.2394 15.9203 19.3394 15.9203 19.3994 15.8603C19.4994 15.7553 19.4994 15.5603 19.4194 15.4603C19.4194 15.4603 19.3344 15.3553 19.1794 15.2803C19.0844 15.2503 18.9044 15.1753 18.7294 15.1053C18.5944 15.0503 18.4794 14.9903 18.4044 14.9003C18.4044 14.9003 18.3394 14.8303 18.3144 14.7003C18.3144 14.7003 18.2994 14.6003 18.3594 14.5803L18.4194 14.5653L18.4244 14.5703Z" fill="#F5CE00" stroke="black" stroke-width="0.15" stroke-miterlimit="2.6"/>
<path d="M18.41 14.5699C18.41 14.5699 18.305 14.5499 18.24 14.6799C18.24 14.6799 18.205 14.7549 18.195 14.8049M18.16 14.3549C18.16 14.3549 18.27 14.3699 18.215 14.5249C18.155 14.6699 18.065 14.7099 18.035 14.7349M19.405 10.1799C19.405 10.1799 19.665 10.0149 19.925 10.1949M17.94 11.7599C17.94 11.7599 17.975 11.6099 17.81 11.3599C17.81 11.3599 17.7 11.1249 17.65 10.9849M18.02 10.8199L18.135 11.1499L18.285 11.4899" stroke="black" stroke-width="0.15" stroke-miterlimit="2.6"/>
<path d="M18.06 11.9144C18.06 11.9144 18.16 12.0194 18.15 12.1944M17.745 11.7994C17.745 11.7994 17.85 11.8494 17.84 12.1394C17.84 12.1394 17.835 12.3394 17.99 12.4494M17.725 12.5194C17.725 12.5194 18.06 12.4844 18.085 12.6944C18.085 12.6944 18.085 12.8944 18.205 12.9094C18.205 12.9094 18.37 12.9244 18.405 13.0894M17.835 12.7494C17.835 12.7494 17.895 12.8344 17.955 12.8794M18.265 12.5294C18.265 12.5294 18.345 12.6644 18.365 12.7344M18.63 10.9844C18.63 10.9844 18.71 11.0894 18.785 11.1344M18.94 11.6144C18.94 11.6144 19.11 11.6944 19.09 12.1144C19.09 12.1144 19.06 12.3644 19.135 12.4994" stroke="black" stroke-width="0.15" stroke-miterlimit="10"/>
<path d="M18.1547 11.3294L18.1747 11.3694C18.1747 11.3694 18.4747 11.3844 18.6297 11.1794L18.6147 11.1394C18.6147 11.1394 18.3497 11.1244 18.1647 11.3294H18.1547Z" fill="#784421" stroke="black" stroke-width="0.15"/>
<path d="M19.2344 12.9253C19.2344 12.9253 20.2644 12.6253 20.6644 12.4453" stroke="black" stroke-width="0.15" stroke-miterlimit="10"/>
<path d="M19.1256 11.0254L19.1156 10.9954L19.6206 10.7954L19.6356 10.8354L19.1256 11.0254Z" fill="#784421" stroke="black" stroke-width="0.15"/>
<path d="M19.1703 11.0051L19.5103 12.6701M19.2303 10.9901L19.6153 12.6401M19.2953 10.9601L19.7153 12.6051M19.4653 10.9001L20.0403 12.1301M19.5403 10.8801L20.1553 12.0901M19.5903 10.8501L20.2603 12.0651M19.4853 12.6851L19.7453 12.6051M19.2903 12.5251C19.2903 12.5251 20.0503 12.3001 20.6403 12.0651M19.2703 12.6001C19.2703 12.6001 20.2453 12.3501 20.6303 12.1601M19.5703 13.3901L19.6203 13.5551L19.7603 13.5051L19.7103 13.3501M19.9603 13.2851L20.0103 13.4351L20.1503 13.3901L20.1003 13.2401M19.3003 12.3601L19.2903 12.1501L20.5653 11.7651L20.6303 11.9451M19.8303 11.9851L19.8953 12.1751M20.2753 11.8551L20.3553 12.0351M20.3803 11.8201L20.4603 11.9851M20.4803 11.7851L20.5603 11.9651M20.5603 11.7651L20.7003 11.6851L20.7603 11.8401M20.6303 11.7251L20.7003 11.8901" stroke="black" stroke-width="0.15" stroke-miterlimit="10"/>
<path d="M17.4756 14.1547C17.4756 14.1547 17.2256 13.8997 17.4756 13.6547C17.4756 13.6547 17.2006 13.5247 17.2456 13.3047M17.9256 14.3547C17.9256 14.3547 17.6606 14.3897 17.7406 13.8847C17.7406 13.8847 17.6306 14.0847 17.5956 14.1847C17.58 14.2344 17.5813 14.2879 17.5994 14.3368C17.6175 14.3857 17.6514 14.4272 17.6956 14.4547C17.7406 14.4847 17.9706 14.5447 18.0456 14.3947M17.6306 13.5847C17.6306 13.5847 17.5256 13.6797 17.6006 13.8547M17.7406 13.6047C17.7406 13.6047 17.7506 13.7797 17.8406 13.8747M17.8156 13.5397C17.8156 13.5397 17.8156 13.7397 17.9606 13.8697M17.8856 13.4697C17.8856 13.4697 17.8856 13.6947 18.0556 13.8397M18.7306 13.8047C18.7306 13.8047 18.8106 13.6097 18.9906 13.6247C18.9906 13.6247 18.9056 13.6647 18.9056 13.7497C18.9056 13.7497 18.8956 13.8997 19.0506 13.9097C19.0506 13.9097 19.1756 13.9297 19.2406 13.8597" stroke="#00247D" stroke-width="0.15" stroke-miterlimit="10"/>
<path d="M19.1547 14.6544C19.1547 14.6544 18.7097 14.4444 18.7547 14.1494C18.7547 14.1494 18.7747 13.9694 18.9547 13.8794M18.8547 14.0694C18.8547 14.0694 18.8147 14.1944 18.9047 14.2844M18.9597 13.9844C18.9597 13.9844 18.8997 14.1244 18.9947 14.2244M19.0697 13.9094C19.0697 13.9094 18.9997 14.0294 19.0797 14.1344M18.6597 14.6844C18.6597 14.6844 18.8997 14.8994 19.0897 14.8994M18.5847 14.7544C18.5847 14.7544 18.8097 14.9344 18.9547 14.9644M18.5047 14.8044C18.5047 14.8044 18.7797 15.0494 18.9547 15.0644M19.6397 15.2944C19.6397 15.2944 19.3647 15.4444 19.5797 15.6044M19.4597 15.1344L19.9097 14.9044M19.5747 15.2144C19.5747 15.2144 20.0247 14.9394 20.1597 14.8794M19.8097 15.2394C19.8097 15.2394 20.1947 14.9794 20.4047 14.8644M20.0647 15.2194C20.0647 15.2194 20.3297 15.0194 20.5897 14.8644M20.6747 14.6094C20.6747 14.6094 20.5447 14.4144 20.1147 14.6094C20.1147 14.6094 20.2797 14.4644 20.5897 14.3494M21.0147 13.5344C21.0147 13.5344 21.0547 13.6894 21.0147 13.7844" stroke="#00247D" stroke-width="0.15" stroke-miterlimit="10"/>
<path d="M20.325 14.2847C20.325 14.2847 20.415 14.1547 20.64 14.0847C20.64 14.0847 20.7 14.2347 20.88 14.2097C20.88 14.2097 21.14 14.1547 21.06 13.8597C21.06 13.8597 21.005 13.6497 20.7 13.6247M21.605 13.2597C21.605 13.2597 21.91 13.3197 21.905 13.5647C21.905 13.5647 21.935 13.9447 21.535 14.0147M21.865 13.4147C21.865 13.4147 21.945 13.2297 22.14 13.1547M21.91 13.0447C21.91 13.0447 21.995 13.1847 22.05 13.1997M21.87 13.1497C21.87 13.1497 21.945 13.2547 21.97 13.2747M21.84 13.2497C21.8612 13.2796 21.8864 13.3065 21.915 13.3297M20.25 11.7897C20.25 11.7897 20.31 11.6897 20.465 11.7297M21.07 12.5197C21.07 12.5197 21.17 12.1297 21.495 12.2697M21.365 12.2397C21.365 12.2397 21.395 12.0597 21.315 11.9647M21.135 12.2247C21.135 12.2247 21.18 12.2997 21.14 12.3597" stroke="#00247D" stroke-width="0.15" stroke-miterlimit="10"/>
<path d="M21.8097 16.2503C21.8097 16.2503 22.1797 16.0853 22.0647 15.7953C22.0647 15.7953 22.0297 15.6953 21.9447 15.7053C21.9447 15.7053 21.8047 15.7103 21.8297 15.9053C21.8297 15.9053 21.8797 16.0953 21.8047 16.2553L21.8097 16.2503Z" fill="#64B4D1" stroke="#00247D" stroke-width="0.15" stroke-miterlimit="2.6"/>
<path d="M21.9406 16.0798C21.9406 16.0798 22.0256 16.0048 22.0156 15.8648C22.0156 15.8648 22.0056 15.8348 22.0156 15.8298C22.0156 15.8298 22.0356 15.8248 22.0356 15.8598C22.0356 15.8598 22.0606 16.0048 21.9656 16.0848C21.9656 16.0848 21.9606 16.0998 21.9456 16.0948C21.9456 16.0948 21.9356 16.0948 21.9456 16.0798H21.9406Z" fill="white"/>
<path d="M22.3343 15.9906C22.3343 15.9906 22.5943 15.8306 22.4543 15.5556C22.4543 15.5556 22.4093 15.4806 22.3343 15.4956C22.3343 15.4956 22.1743 15.5456 22.2993 15.7706C22.2993 15.7706 22.3593 15.9156 22.3343 15.9956V15.9906Z" fill="#64B4D1" stroke="#00247D" stroke-width="0.15" stroke-miterlimit="2.6"/>
<path d="M22.3998 15.6206C22.3998 15.6206 22.3898 15.6056 22.3998 15.5906L22.4198 15.6106C22.4198 15.6106 22.4948 15.6956 22.4348 15.8306C22.4348 15.8306 22.4298 15.8506 22.4098 15.8406V15.8256C22.4098 15.8256 22.4698 15.7056 22.3998 15.6256V15.6206Z" fill="white"/>
<path d="M21.5498 16.1792C21.5498 16.1792 21.2598 16.1092 21.3148 15.8042C21.3148 15.8042 21.3448 15.6742 21.4698 15.6942C21.4698 15.6942 21.6198 15.7342 21.5198 15.9242C21.5198 15.9242 21.4648 16.0542 21.5548 16.1792H21.5498Z" fill="#64B4D1" stroke="#00247D" stroke-width="0.15" stroke-miterlimit="2.6"/>
<path d="M21.4407 15.825V15.8C21.4407 15.8 21.4607 15.8 21.4657 15.81C21.4657 15.81 21.4957 15.86 21.4707 15.93C21.4707 15.93 21.4457 15.975 21.4607 16.02C21.4607 16.02 21.4607 16.035 21.4457 16.04L21.4357 16.02C21.4357 16.02 21.4207 15.98 21.4457 15.93C21.4457 15.93 21.4757 15.86 21.4457 15.825H21.4407Z" fill="white"/>
<path d="M21.7597 15.6147C21.7597 15.6147 21.9297 15.5197 22.0597 15.6297C22.0597 15.6297 22.0497 15.5697 21.9397 15.5447C21.9397 15.5447 21.8897 15.3847 21.7297 15.3997C21.7297 15.3997 21.7897 15.4797 21.8797 15.5397C21.8797 15.5397 21.7897 15.5497 21.7597 15.6147ZM21.8797 15.1797C21.8797 15.1797 21.9997 15.2647 22.0397 15.3197C22.0397 15.3197 22.0847 15.2597 22.1397 15.2297C22.1397 15.2297 22.0797 15.2147 22.0397 15.2447C22.0397 15.2447 21.9847 15.1947 21.8897 15.1797H21.8797Z" fill="black"/>
<path d="M21.2397 15.5294C21.2397 15.5294 21.2247 15.4894 21.2547 15.4494C21.2547 15.4494 21.2747 15.4194 21.2647 15.3744M22.4347 12.9744C22.4347 12.9744 22.6097 12.9644 22.6347 12.8244M22.9347 12.7344C22.9347 12.7344 22.8747 12.7344 22.8247 12.7944C22.8247 12.7944 22.7797 12.8544 22.7247 12.8444" stroke="black" stroke-width="0.15" stroke-miterlimit="10"/>
<path d="M22.1797 12.4604C22.1797 12.4604 22.2697 12.4604 22.3147 12.4204C22.3147 12.4204 22.3697 12.3854 22.3997 12.4404C22.3997 12.4404 22.4497 12.5204 22.3597 12.5554C22.3597 12.5554 22.2497 12.6154 22.4247 12.7254C22.4247 12.7254 22.2147 12.6454 22.3047 12.5454C22.3047 12.5454 22.3947 12.4854 22.3547 12.4604C22.3547 12.4604 22.3447 12.4404 22.3097 12.4604C22.2747 12.4904 22.2047 12.4804 22.1797 12.4604Z" fill="black"/>
<path d="M22.3 10.2798C22.3 10.2798 22.34 10.2198 22.325 10.0598C22.305 9.89982 22.455 9.87482 22.505 9.91982C22.505 9.91982 22.565 9.96982 22.505 10.0748C22.4635 10.1656 22.3908 10.2383 22.3 10.2798Z" fill="#64B4D1" stroke="#00247D" stroke-width="0.15" stroke-miterlimit="2.6"/>
<path d="M22.35 10.1495C22.35 10.1495 22.41 10.0945 22.38 9.96947L22.39 9.95947H22.405C22.405 9.95947 22.435 10.0995 22.375 10.1695C22.375 10.1695 22.365 10.1845 22.35 10.1695V10.1495Z" fill="white"/>
<path d="M22.2549 10.2203C22.2549 10.2203 22.2549 10.1503 22.1399 10.0403C22.0199 9.92031 22.1149 9.82031 22.1899 9.82031C22.1899 9.82031 22.2549 9.82031 22.2899 9.93531C22.3125 10.0314 22.3001 10.1325 22.2549 10.2203Z" fill="#64B4D1" stroke="#00247D" stroke-width="0.15" stroke-miterlimit="2.6"/>
<path d="M22.2397 10.0693C22.2397 10.0693 22.2397 9.98928 22.1297 9.90428V9.88428H22.1497C22.1497 9.88428 22.2647 9.97428 22.2647 10.0743C22.2647 10.0743 22.2647 10.0893 22.2497 10.0893C22.2497 10.0893 22.2397 10.0893 22.2397 10.0693Z" fill="white"/>
<path d="M22.1004 10.1649C22.1004 10.1649 22.0654 10.1149 21.9254 10.0599C21.7804 10.0099 21.8154 9.8849 21.8754 9.8599C21.8754 9.8599 21.9404 9.8349 22.0054 9.9149C22.0645 9.98466 22.0965 10.0735 22.0954 10.1649H22.1004Z" fill="#64B4D1" stroke="#00247D" stroke-width="0.15" stroke-miterlimit="2.6"/>
<path d="M22.0294 10.0654C22.0294 10.0654 21.9994 9.99536 21.8694 9.96036C21.8694 9.96036 21.8594 9.96037 21.8594 9.94537C21.8594 9.94537 21.8594 9.93536 21.8744 9.94036C21.8744 9.94036 22.0194 9.97036 22.0594 10.0604L22.0544 10.0754C22.0544 10.0754 22.0394 10.0754 22.0344 10.0654H22.0294Z" fill="white"/>
<path d="M22.1843 10.2197C22.1843 10.2197 22.1193 10.2447 21.9643 10.1697C21.8093 10.0947 21.7443 10.2247 21.7743 10.2847C21.7743 10.2847 21.7993 10.3647 21.9143 10.3447C22.016 10.3391 22.1121 10.2964 22.1843 10.2247V10.2197Z" fill="#64B4D1" stroke="#00247D" stroke-width="0.15" stroke-miterlimit="2.6"/>
<path d="M21.8307 10.2703C21.8307 10.2703 21.9007 10.3203 22.0257 10.2703H22.0407C22.0407 10.2703 22.0407 10.2803 22.0307 10.2853C22.0307 10.2853 21.9007 10.3453 21.8107 10.2903C21.8107 10.2903 21.8007 10.2903 21.8107 10.2753H21.8307V10.2703Z" fill="white"/>
<path d="M21.9656 9.73438C21.9656 9.73438 22.0356 9.77437 22.0256 9.85938" stroke="black" stroke-width="0.15" stroke-miterlimit="2.6"/>
<path d="M22.3 9.75C22.3 9.75 22.33 9.845 22.3 9.9" stroke="black" stroke-width="0.15" stroke-miterlimit="10"/>
<path d="M17.0096 10.2802C17.0096 10.2802 16.9696 10.2202 16.9846 10.0602C17.0046 9.89017 16.8596 9.87517 16.8096 9.92017C16.8096 9.92017 16.7496 9.97017 16.7996 10.0752C16.8423 10.1668 16.917 10.2397 17.0096 10.2802Z" fill="#64B4D1" stroke="#00247D" stroke-width="0.15" stroke-miterlimit="2.6"/>
<path d="M16.9552 10.1495C16.9552 10.1495 16.9052 10.0945 16.9252 9.96947V9.95947H16.9052C16.9052 9.95947 16.8802 10.0995 16.9402 10.1695C16.9402 10.1695 16.9502 10.1845 16.9552 10.1695V10.1495Z" fill="white"/>
<path d="M17.0598 10.2203C17.0598 10.2203 17.0598 10.1503 17.1798 10.0403C17.2948 9.92031 17.1998 9.82031 17.1298 9.82031C17.1298 9.82031 17.0498 9.82031 17.0298 9.93531C17.0057 10.0309 17.0163 10.1319 17.0598 10.2203Z" fill="#64B4D1" stroke="#00247D" stroke-width="0.15" stroke-miterlimit="2.6"/>
<path d="M17.0753 10.0693C17.0753 10.0693 17.0753 9.98928 17.1753 9.90428C17.1753 9.90428 17.1903 9.88928 17.1753 9.88428H17.1653C17.1653 9.88428 17.0453 9.97428 17.0453 10.0743C17.0453 10.0743 17.0453 10.0893 17.0653 10.0893C17.0653 10.0893 17.0753 10.0893 17.0753 10.0693Z" fill="white"/>
<path d="M17.2156 10.1649C17.2156 10.1649 17.2456 10.1149 17.3906 10.0599C17.5306 10.0099 17.4906 9.8849 17.4356 9.8599C17.4356 9.8599 17.3756 9.8349 17.3056 9.9149C17.2466 9.98466 17.2146 10.0735 17.2156 10.1649Z" fill="#64B4D1" stroke="#00247D" stroke-width="0.15" stroke-miterlimit="2.6"/>
<path d="M17.2797 10.0654C17.2797 10.0654 17.3097 9.99536 17.4397 9.96036C17.4397 9.96036 17.4497 9.96037 17.4497 9.94537C17.4497 9.94537 17.4497 9.93536 17.4397 9.94036C17.4397 9.94036 17.2947 9.97036 17.2547 10.0604V10.0754C17.2547 10.0754 17.2747 10.0754 17.2797 10.0654Z" fill="white"/>
<path d="M17.125 10.2197C17.125 10.2197 17.195 10.2447 17.345 10.1697C17.495 10.0947 17.565 10.2247 17.545 10.2847C17.545 10.2847 17.51 10.3647 17.395 10.3447C17.2933 10.3391 17.1972 10.2964 17.125 10.2247V10.2197Z" fill="#64B4D1" stroke="#00247D" stroke-width="0.15" stroke-miterlimit="2.6"/>
<path d="M17.48 10.2703C17.48 10.2703 17.415 10.3203 17.285 10.2703H17.275V10.2853C17.275 10.2853 17.415 10.3453 17.5 10.2903C17.5 10.2903 17.51 10.2903 17.5 10.2753H17.48V10.2703Z" fill="white"/>
<path d="M17.3495 9.73438C17.3495 9.73438 17.2745 9.77437 17.2895 9.85938" stroke="black" stroke-width="0.15" stroke-miterlimit="2.6"/>
<path d="M17.0102 9.75C17.0102 9.75 16.9802 9.845 17.0102 9.9" stroke="black" stroke-width="0.15" stroke-miterlimit="10"/>
<path d="M20.3356 8.87976C20.3356 8.87976 20.3856 9.01476 20.3656 9.13976C20.3506 9.25976 20.3756 9.28476 20.4156 9.30976C20.4506 9.32476 20.5356 9.28976 20.5406 9.19976C20.5406 9.19976 20.6406 9.38976 20.4506 9.51476C20.4506 9.51476 20.3156 9.59976 20.2006 9.49476C20.1606 9.44976 20.1406 9.34476 20.1656 9.24476C20.1656 9.24476 20.1956 9.10976 20.1406 8.96976C20.1406 8.96976 20.2206 9.04976 20.2006 9.21476C20.2006 9.21476 20.1606 9.51476 20.3806 9.49476C20.3806 9.49476 20.5306 9.49476 20.5306 9.31476C20.5306 9.31476 20.4756 9.37476 20.4106 9.35476C20.3804 9.34756 20.3542 9.329 20.3374 9.30288C20.3206 9.2768 20.3146 9.2452 20.3206 9.21476C20.3256 9.13476 20.3506 8.99976 20.3356 8.87976ZM20.1006 9.34976C20.1006 9.34976 20.0806 9.58976 19.8706 9.64476C19.8706 9.64476 19.9006 9.59976 19.8556 9.47976C19.8556 9.47976 19.8056 9.41976 19.8056 9.31476C19.8056 9.31476 19.7456 9.36476 19.8206 9.50476C19.8706 9.58976 19.8206 9.68476 19.8156 9.68976C19.7956 9.69476 20.1606 9.63976 20.0956 9.35476L20.1006 9.34976ZM19.8206 9.12476C19.8206 9.12476 19.7656 9.06476 19.7606 8.93476C19.7606 8.79976 19.7356 8.76476 19.7156 8.75476C19.7156 8.75476 19.7406 8.86976 19.7356 8.93476C19.7313 8.9856 19.7381 9.0368 19.7556 9.08476C19.7556 9.08476 19.6356 9.09976 19.5606 8.93476C19.4956 8.76976 19.4256 8.78476 19.3906 8.78476C19.3906 8.78476 19.4306 8.78976 19.5106 8.93476C19.5906 9.08476 19.6156 9.11976 19.8206 9.11976V9.12476ZM19.2806 8.77476C19.2806 8.77476 19.3406 8.93476 19.3506 9.01476C19.3506 9.01476 19.1956 8.96476 19.1506 8.83976C19.1506 8.83976 18.9906 8.88976 19.0506 9.07476C19.0506 9.07476 18.9056 9.02476 18.8406 8.91476C18.8406 8.91476 18.9206 8.97476 18.9956 8.99976C18.9956 8.99976 18.9856 8.84476 19.1756 8.78976C19.1756 8.78976 19.2056 8.92476 19.3056 8.95476L19.2806 8.77476ZM19.5306 8.50476C19.5306 8.50476 19.5906 8.57976 19.7006 8.57976C19.7315 8.58208 19.7624 8.57636 19.7905 8.56324C19.8185 8.55008 19.8426 8.52996 19.8606 8.50476C19.8606 8.50476 19.8556 8.63476 19.7006 8.63976C19.7006 8.63976 19.5356 8.63976 19.5356 8.50476H19.5306ZM18.8606 9.42976L18.9606 9.52476C18.9606 9.52476 19.0206 9.58476 19.0606 9.50976C19.0606 9.50976 19.1256 9.38976 19.2056 9.39976C19.2056 9.39976 19.1456 9.43476 19.0856 9.54976C19.0856 9.54976 19.0756 9.58476 19.0256 9.58976C19.0006 9.58976 18.9756 9.59976 18.9356 9.55476C18.9356 9.55476 18.9006 9.50976 18.8606 9.43476V9.42976ZM19.6956 7.95976C19.5356 7.95976 19.6706 8.07976 19.6706 8.07976C19.6706 8.27976 19.5156 8.34976 19.4056 8.28976C19.2956 8.22976 19.3856 8.08976 19.3856 8.08976C19.3856 8.08976 19.2656 8.16476 19.3356 8.28476C19.4156 8.40476 19.6206 8.34476 19.6956 8.23976C19.7706 8.34976 19.9806 8.40476 20.0506 8.28476C20.1356 8.16476 20.0106 8.08476 20.0106 8.08476C20.0106 8.08476 20.1006 8.22976 19.9856 8.28476C19.8806 8.34976 19.7156 8.28476 19.7256 8.08476C19.7256 8.08476 19.8606 7.95976 19.7006 7.95976H19.6956ZM19.7956 7.73976C19.7956 7.73976 19.8556 7.83976 19.8456 7.98976C19.8456 7.98976 19.8906 7.83976 19.7956 7.74476V7.73976ZM19.2956 7.97476C19.2956 7.97476 19.2806 7.86476 19.1756 7.85476C19.1756 7.85476 19.2706 7.91976 19.2956 7.97476ZM20.0956 7.97476C20.0956 7.97476 20.1106 7.86476 20.2206 7.85476C20.2206 7.85476 20.1306 7.91976 20.1006 7.97476H20.0956ZM19.1356 8.13476C19.1356 8.13476 19.2156 8.15976 19.2656 8.09976L19.1356 8.13476ZM18.8656 7.47976C18.8656 7.47976 18.9606 7.47476 19.0556 7.61476C19.0556 7.61476 18.9606 7.66476 18.9356 7.69476C18.9356 7.69476 18.9356 7.64476 18.9856 7.60976C18.9856 7.60976 18.9656 7.53976 18.8656 7.48476V7.47976ZM20.4656 7.47976C20.4656 7.47976 20.3656 7.47476 20.2706 7.61476C20.2706 7.61476 20.3706 7.66476 20.3906 7.69476C20.3906 7.69476 20.3906 7.64476 20.3406 7.60976C20.3406 7.60976 20.3606 7.53976 20.4656 7.48476V7.47976ZM19.7306 7.58976C19.7306 7.58976 19.8156 7.61476 19.9206 7.55476C19.9206 7.55476 20.0506 7.48476 20.1356 7.55476C20.1356 7.55476 20.0656 7.51976 19.9206 7.58976C19.9206 7.58976 19.7856 7.66976 19.7306 7.58976Z" fill="black"/>
<path d="M19.8203 7.67997C19.8203 7.67997 19.8903 7.55497 20.1203 7.57997C20.1203 7.57997 20.0553 7.75997 19.8203 7.67997Z" fill="white"/>
<path d="M19.9697 7.69447C19.9918 7.69447 20.0097 7.66987 20.0097 7.63947C20.0097 7.60911 19.9918 7.58447 19.9697 7.58447C19.9476 7.58447 19.9297 7.60911 19.9297 7.63947C19.9297 7.66987 19.9476 7.69447 19.9697 7.69447Z" fill="#784421"/>
<path d="M19.9703 7.67474C19.9841 7.67474 19.9953 7.65906 19.9953 7.63974C19.9953 7.62042 19.9841 7.60474 19.9703 7.60474C19.9565 7.60474 19.9453 7.62042 19.9453 7.63974C19.9453 7.65906 19.9565 7.67474 19.9703 7.67474Z" fill="black"/>
<path d="M19.3406 7.40469C19.3406 7.40469 19.4806 7.41969 19.5706 7.46469C19.5706 7.46469 19.6606 7.52469 19.7606 7.44969C19.7606 7.44969 19.8706 7.37969 19.9456 7.29469C19.9456 7.29469 19.7706 7.40969 19.7056 7.42969C19.7056 7.42969 19.6456 7.37969 19.6306 7.31469C19.6306 7.31469 19.6306 7.26469 19.7306 7.17969C19.7306 7.17969 19.6056 7.21969 19.5806 7.32469C19.5965 7.36709 19.6203 7.40609 19.6506 7.43969C19.6506 7.43969 19.6306 7.45469 19.5706 7.40969C19.5706 7.40969 19.4306 7.36969 19.3406 7.40969V7.40469ZM19.7006 8.25469C19.5806 8.35969 19.7006 8.34969 19.7006 8.34969C19.7006 8.34969 19.8206 8.35969 19.7006 8.24969V8.25469ZM19.6306 7.59469C19.6306 7.59469 19.5406 7.61969 19.4306 7.55969C19.4306 7.55969 19.3006 7.48969 19.2156 7.55969C19.2156 7.55969 19.2906 7.52469 19.4306 7.59469C19.4306 7.59469 19.5756 7.67469 19.6306 7.59469Z" fill="black"/>
<path d="M19.5406 7.67997C19.5406 7.67997 19.4656 7.55497 19.2406 7.57997C19.2406 7.57997 19.3006 7.75997 19.5406 7.67997Z" fill="white"/>
<path d="M19.3853 7.69447C19.4074 7.69447 19.4253 7.66987 19.4253 7.63947C19.4253 7.60911 19.4074 7.58447 19.3853 7.58447C19.3632 7.58447 19.3453 7.60911 19.3453 7.63947C19.3453 7.66987 19.3632 7.69447 19.3853 7.69447Z" fill="#784421"/>
<path d="M19.3844 7.67474C19.3982 7.67474 19.4094 7.65906 19.4094 7.63974C19.4094 7.62042 19.3982 7.60474 19.3844 7.60474C19.3706 7.60474 19.3594 7.62042 19.3594 7.63974C19.3594 7.65906 19.3706 7.67474 19.3844 7.67474Z" fill="black"/>
<path d="M24.0003 6.52979V14.6098C24.0003 16.7648 19.6903 17.4698 19.6903 17.4698C19.6903 17.4698 15.3703 16.7698 15.3703 14.6098V6.52979H24.0053H24.0003Z" stroke="black" stroke-width="0.15"/>
<path d="M-4 0H12V12H-4V0Z" fill="#000066"/>
<path d="M-2.125 0L3.975 4.525L10.05 0H12V1.55L6 6.025L12 10.475V12H10L4 7.525L-1.975 12H-4V10.5L1.975 6.05L-4 1.6V0H-2.125Z" fill="white"/>
<path d="M6.6 7.025L12 11V12L5.225 7.025H6.6ZM2 7.525L2.15 8.4L-2.65 12H-4L2 7.525ZM12 0V0.075L5.775 4.775L5.825 3.675L10.75 0H12ZM-4 0L1.975 4.4H0.475L-4 1.05V0Z" fill="#C8102E"/>
<path d="M2.025 0V12H6.025V0H2.025ZM-4 4V8H12V4H-4Z" fill="white"/>
<path d="M-4 4.825V7.225H12V4.825H-4ZM2.825 0V12H5.225V0H2.825Z" fill="#C8102E"/>
</g>
</g>
</g>
<defs>
<clipPath id="clip0_69_2348">
<rect width="24" height="24" rx="12" fill="white"/>
</clipPath>
<clipPath id="clip1_69_2348">
<rect width="32" height="24" fill="white" transform="translate(-4)"/>
</clipPath>
</defs>
</svg>
