<svg width="24" height="24" viewBox="0 0 24 24" fill="none" xmlns="http://www.w3.org/2000/svg">
<g clip-path="url(#clip0_69_3516)">
<g clip-path="url(#clip1_69_3516)">
<mask id="mask0_69_3516" style="mask-type:luminance" maskUnits="userSpaceOnUse" x="-4" y="0" width="32" height="24">
<path d="M28 0H-4V24H28V0Z" fill="white"/>
</mask>
<g mask="url(#mask0_69_3516)">
<path d="M-4 0H28V24H-4V0Z" fill="#F7E017"/>
<path d="M-4 1.66553V12.3355L28 17.3355V11.6655L-4 1.66553Z" fill="white"/>
<path d="M-4 7.33447V12.3345L28 22.3345V17.3345L-4 7.33447Z" fill="black"/>
<path d="M11.19 18.9897C10.605 18.9251 10.042 18.7291 9.54336 18.4164C9.46336 18.3631 9.39004 18.3164 9.37668 18.3164C9.36336 18.3164 9.35668 18.3797 9.35668 18.4531C9.35668 18.6664 9.27004 18.7731 9.05668 18.8297C8.85004 18.8831 8.53668 18.7764 8.28336 18.5631C8.04312 18.3575 7.76272 18.2043 7.46004 18.1131C7.14468 18.038 6.81276 18.0807 6.52668 18.2331C6.4984 18.253 6.4668 18.2677 6.43336 18.2764C6.39668 18.2764 6.4 18.0464 6.44 17.9764C6.49 17.8764 6.61 17.7831 6.75336 17.7331C6.82668 17.7064 6.88668 17.6731 6.88668 17.6564C6.88668 17.6431 6.86004 17.5897 6.83004 17.5364C6.73336 17.3664 6.77336 17.2031 6.94336 17.0731C7.11668 16.9397 7.41004 16.9197 7.66668 17.0164C7.71004 17.0349 7.7546 17.0505 7.80004 17.0631C7.83336 17.0631 7.81336 17.0131 7.72004 16.8764C7.61336 16.7197 7.59004 16.6431 7.60336 16.4531C7.61252 16.3368 7.66288 16.2275 7.74536 16.1451C7.82784 16.0626 7.93708 16.0122 8.05336 16.0031C8.24668 15.9897 8.36668 16.0564 8.65336 16.3264C9.42328 17.1014 10.4345 17.5905 11.52 17.7131C11.7967 17.7464 12.3467 17.7297 12.67 17.6797C13.6944 17.5088 14.644 17.0352 15.3967 16.3197C15.6101 16.1197 15.7101 16.0664 15.8867 16.0664C16.0367 16.0664 16.1434 16.1131 16.2534 16.2331C16.3534 16.3431 16.3867 16.4464 16.3734 16.6164C16.3667 16.7231 16.3501 16.7731 16.2867 16.8797C16.1934 17.0297 16.2101 17.0464 16.3934 16.9731C16.6467 16.8731 16.9567 16.9197 17.1234 17.0797C17.2701 17.2197 17.2834 17.3597 17.1701 17.5464C17.1267 17.6164 17.0934 17.6797 17.0934 17.6931C17.0934 17.7131 17.1267 17.7197 17.2767 17.7464C17.4768 17.7797 17.5934 17.9264 17.5934 18.1531C17.5934 18.2197 17.5834 18.2764 17.5734 18.2764C17.5634 18.2764 17.4868 18.2464 17.4068 18.2131C17.1734 18.1164 17.0401 18.0931 16.7667 18.0964C16.5601 18.0964 16.4901 18.1064 16.3467 18.1531C16.1068 18.2365 15.8858 18.3668 15.6967 18.5364C15.4834 18.7264 15.3501 18.7864 15.1434 18.7831C14.9501 18.7831 14.8201 18.7264 14.75 18.6164C14.7134 18.5564 14.7067 18.5231 14.7167 18.3897C14.7234 18.3031 14.72 18.2331 14.7167 18.2331C14.7067 18.2331 14.6334 18.2797 14.55 18.3364C14.3598 18.4729 14.1525 18.5838 13.9334 18.6664C13.0561 18.9842 12.1172 19.0949 11.19 18.9897Z" fill="#CF1126"/>
<path d="M11.544 17.5075C10.8993 17.4483 10.2746 17.252 9.71175 16.9318C9.14899 16.6116 8.66107 16.1749 8.28071 15.6509C7.46735 14.5442 7.21403 13.0809 7.46067 11.7442C7.59403 11.1342 7.86071 10.5242 8.31071 10.0909C7.93971 10.8607 7.83759 11.7328 8.02071 12.5675C8.32071 14.2275 9.72071 15.6309 11.3974 15.8742C12.064 16.0642 12.7474 15.8609 13.3807 15.6575C14.7807 15.1642 15.8474 13.8375 15.9741 12.3542C16.0841 11.5542 15.9641 10.7175 15.6007 9.98755C15.8074 10.0975 16.0674 10.5275 16.2208 10.8142C16.7541 11.8475 16.7774 13.0842 16.4641 14.1875C16.0374 15.5909 14.9641 16.8209 13.5474 17.2675C12.9011 17.4695 12.2231 17.5508 11.5474 17.5075H11.544Z" fill="#CF1126"/>
<path d="M5.06745 15.664C4.98413 15.6507 4.89081 15.734 4.92413 15.8207C4.98413 15.9073 5.09081 15.954 5.18413 15.994C5.43005 16.09 5.69401 16.131 5.95745 16.114C6.15073 16.1141 6.34253 16.0802 6.52413 16.014C6.62413 15.9807 6.75081 15.9473 6.79081 15.834C6.83413 15.764 6.75745 15.6907 6.68745 15.704C6.58745 15.7273 6.48745 15.7707 6.38745 15.8007C6.16765 15.8629 5.93853 15.8855 5.71081 15.8673C5.54505 15.8432 5.38349 15.7961 5.23081 15.7273C5.17745 15.704 5.12745 15.6707 5.06745 15.664Z" fill="#CF1126"/>
<path d="M5.15969 15.3169C5.07637 15.3035 5.00301 15.4035 5.03637 15.4835C5.10301 15.5769 5.21301 15.6269 5.31637 15.6702C5.49665 15.7409 5.68953 15.7738 5.88305 15.7669H5.93305C6.09761 15.7676 6.26073 15.7359 6.41305 15.6735C6.50305 15.6369 6.61637 15.6002 6.65637 15.5002C6.68637 15.4435 6.66305 15.3635 6.58969 15.3569C6.52969 15.3569 6.47305 15.3969 6.41305 15.4135C6.19589 15.5032 5.96049 15.5398 5.72637 15.5202C5.57969 15.5035 5.44305 15.4502 5.30969 15.3869C5.25969 15.3635 5.21637 15.3269 5.15969 15.3202V15.3169Z" fill="#CF1126"/>
<path d="M5.27621 14.9867C5.20289 14.9767 5.15289 15.06 5.16621 15.1233C5.17621 15.1833 5.22621 15.2233 5.26957 15.2567C5.45105 15.3824 5.66905 15.4445 5.88957 15.4333H5.94289C6.08149 15.4323 6.21813 15.4004 6.34289 15.34C6.42625 15.3067 6.52289 15.2633 6.55289 15.1667C6.56625 15.1233 6.57289 15.06 6.52289 15.0333C6.46957 15.0067 6.41957 15.05 6.37289 15.0667C6.21345 15.1504 6.03633 15.195 5.85625 15.1967C5.70165 15.1905 5.55125 15.1446 5.41957 15.0633C5.36957 15.04 5.32957 14.9967 5.27621 14.9867Z" fill="#CF1126"/>
<path d="M4.05023 10.0906C3.94355 10.2006 4.02691 10.4006 4.01691 10.5406C4.07691 10.9806 4.14691 11.4239 4.31023 11.8406C4.51023 12.2406 4.93691 12.4573 5.19359 12.8139C5.28691 12.9839 5.25359 13.1906 5.27359 13.3806C5.28691 13.8906 5.28359 14.4039 5.27359 14.9139C5.50691 15.0339 5.75691 15.1473 6.02359 15.1039C6.18023 15.0673 6.47359 15.0439 6.50691 14.8873L6.47359 12.2373C6.38359 11.9673 6.10691 11.8273 5.90359 11.6539C5.73363 11.4861 5.57547 11.3068 5.43023 11.1172C5.34359 10.9672 5.00023 10.9172 5.12359 11.1706C5.19691 11.3939 5.38023 11.5572 5.42691 11.7906C5.43691 11.9206 5.59359 12.1573 5.46023 12.2306C5.37811 12.0857 5.25367 11.9694 5.10359 11.8973C4.95691 11.7872 4.71359 11.7406 4.66023 11.5472C4.61223 11.2723 4.48475 11.0173 4.29359 10.8139C4.34359 10.5672 4.29359 10.2572 4.08023 10.0972L4.05023 10.0906Z" fill="#CF1126"/>
<path d="M4.37999 10.1406C4.27999 10.1573 4.28667 10.2806 4.32999 10.3473C4.37939 10.4907 4.39203 10.6443 4.36667 10.7939C4.54947 10.9975 4.67183 11.248 4.71999 11.5173C4.71999 11.6173 4.82667 11.6506 4.89667 11.7006C5.05999 11.8039 5.23999 11.8806 5.38667 12.0106C5.41667 12.0439 5.43999 12.0773 5.41999 12.0106C5.39667 11.9239 5.38667 11.8306 5.31999 11.7673C5.22667 11.6673 5.11335 11.5806 4.97999 11.5539C4.96999 11.4139 4.90335 11.2873 4.84335 11.1673C4.77667 11.0506 4.70667 10.9273 4.59335 10.8539C4.59335 10.6506 4.59335 10.4373 4.50667 10.2473C4.47999 10.2006 4.43999 10.1439 4.37999 10.1406Z" fill="#CF1126"/>
<path d="M4.65745 10.2202C4.59077 10.2402 4.60409 10.3269 4.62409 10.3769C4.65321 10.5216 4.66441 10.6694 4.65745 10.8169C4.78745 10.9169 4.86409 11.0635 4.93745 11.2035C4.98409 11.2969 5.02409 11.3969 5.04077 11.5002C5.14409 11.5335 5.23409 11.6002 5.31409 11.6669C5.28077 11.5735 5.21409 11.5002 5.16409 11.4102C5.11409 11.3202 5.06409 11.2235 5.04077 11.1202C4.94077 11.0169 4.88745 10.8669 4.90745 10.7202C4.91409 10.5635 4.86409 10.4002 4.75745 10.2802C4.73077 10.2535 4.69745 10.2235 4.65745 10.2202Z" fill="#CF1126"/>
<path d="M4.97393 10.2665C4.93393 10.2732 4.91393 10.3065 4.89393 10.3365C4.88393 10.3665 4.92057 10.3965 4.92725 10.4298C4.97081 10.5399 4.98681 10.6589 4.97393 10.7765C4.97057 10.8598 5.00057 10.9432 5.04057 11.0098C5.04809 10.9842 5.06329 10.9614 5.08417 10.9448C5.10505 10.928 5.13057 10.9182 5.15725 10.9165C5.17393 10.9165 5.20393 10.9232 5.19057 10.8932C5.17725 10.7332 5.15393 10.5732 5.09725 10.4265C5.08085 10.3688 5.04849 10.3168 5.00393 10.2765C4.99725 10.2698 4.98393 10.2632 4.97057 10.2665H4.97393Z" fill="#CF1126"/>
<path d="M18.9326 15.664C19.0159 15.6507 19.1092 15.734 19.0759 15.8207C19.0159 15.9073 18.9092 15.954 18.8159 15.994C18.57 16.09 18.306 16.131 18.0426 16.114C17.8493 16.1141 17.6575 16.0802 17.4759 16.014C17.3759 15.9807 17.2492 15.9473 17.2092 15.834C17.1659 15.764 17.2426 15.6907 17.3126 15.704C17.4126 15.7273 17.5126 15.7707 17.6126 15.8007C17.8324 15.8629 18.0615 15.8855 18.2892 15.8673C18.455 15.8432 18.6165 15.7961 18.7692 15.7273C18.8226 15.704 18.8726 15.6707 18.9326 15.664Z" fill="#CF1126"/>
<path d="M18.8403 15.3169C18.9236 15.3035 18.997 15.4035 18.9636 15.4835C18.897 15.5769 18.787 15.6269 18.6836 15.6702C18.5034 15.7409 18.3105 15.7738 18.117 15.7669H18.067C17.9024 15.7676 17.7393 15.7359 17.587 15.6735C17.497 15.6369 17.3836 15.6002 17.3436 15.5002C17.3136 15.4435 17.337 15.3635 17.4103 15.3569C17.4703 15.3569 17.527 15.3969 17.587 15.4135C17.8041 15.5032 18.0395 15.5398 18.2736 15.5202C18.4203 15.5035 18.557 15.4502 18.6903 15.3869C18.7403 15.3635 18.7836 15.3269 18.8403 15.3202V15.3169Z" fill="#CF1126"/>
<path d="M18.7238 14.9867C18.7971 14.9767 18.8471 15.06 18.8338 15.1233C18.8238 15.1833 18.7738 15.2233 18.7304 15.2567C18.549 15.3824 18.331 15.4445 18.1104 15.4333H18.0571C17.9185 15.4323 17.7819 15.4004 17.6571 15.34C17.5738 15.3067 17.4771 15.2633 17.4471 15.1667C17.4338 15.1233 17.4271 15.06 17.4771 15.0333C17.5304 15.0067 17.5804 15.05 17.6271 15.0667C17.7866 15.1504 17.9637 15.195 18.1438 15.1967C18.2984 15.1905 18.4488 15.1446 18.5804 15.0633C18.6304 15.04 18.6704 14.9967 18.7238 14.9867Z" fill="#CF1126"/>
<path d="M19.9498 10.0906C20.0564 10.2006 19.9731 10.4006 19.9831 10.5406C19.9231 10.9806 19.8531 11.4239 19.6898 11.8406C19.4898 12.2406 19.0631 12.4573 18.8064 12.8139C18.7131 12.9839 18.7464 13.1906 18.7264 13.3806C18.7131 13.8906 18.7164 14.4039 18.7264 14.9139C18.4931 15.0339 18.2431 15.1473 17.9764 15.1039C17.8198 15.0673 17.5264 15.0439 17.4931 14.8873L17.5264 12.2373C17.6164 11.9673 17.8931 11.8273 18.0964 11.6539C18.2664 11.4861 18.4245 11.3068 18.5698 11.1172C18.6564 10.9672 18.9998 10.9172 18.8764 11.1706C18.8031 11.3939 18.6198 11.5572 18.5731 11.7906C18.5631 11.9206 18.4064 12.1573 18.5398 12.2306C18.6219 12.0857 18.7463 11.9694 18.8964 11.8973C19.0431 11.7872 19.2864 11.7406 19.3398 11.5472C19.3878 11.2723 19.5152 11.0173 19.7064 10.8139C19.6564 10.5672 19.7064 10.2572 19.9198 10.0972L19.9498 10.0906Z" fill="#CF1126"/>
<path d="M19.62 10.1406C19.72 10.1573 19.7133 10.2806 19.67 10.3473C19.6206 10.4907 19.608 10.6443 19.6333 10.7939C19.4505 10.9975 19.3282 11.248 19.28 11.5173C19.28 11.6173 19.1733 11.6506 19.1033 11.7006C18.94 11.8039 18.76 11.8806 18.6133 12.0106C18.5833 12.0439 18.56 12.0773 18.58 12.0106C18.6033 11.9239 18.6133 11.8306 18.68 11.7673C18.7733 11.6673 18.8866 11.5806 19.02 11.5539C19.03 11.4139 19.0966 11.2873 19.1566 11.1673C19.2233 11.0506 19.2933 10.9273 19.4066 10.8539C19.4066 10.6506 19.4066 10.4373 19.4933 10.2473C19.52 10.2006 19.56 10.1439 19.62 10.1406Z" fill="#CF1126"/>
<path d="M19.3426 10.2202C19.4092 10.2402 19.3959 10.3269 19.3759 10.3769C19.3468 10.5216 19.3356 10.6694 19.3426 10.8169C19.2126 10.9169 19.1359 11.0635 19.0626 11.2035C19.0159 11.2969 18.9759 11.3969 18.9592 11.5002C18.8559 11.5335 18.7659 11.6002 18.6859 11.6669C18.7192 11.5735 18.7859 11.5002 18.8359 11.4102C18.8859 11.3202 18.9359 11.2235 18.9592 11.1202C19.0592 11.0169 19.1126 10.8669 19.0926 10.7202C19.0859 10.5635 19.1359 10.4002 19.2426 10.2802C19.2692 10.2535 19.3026 10.2235 19.3426 10.2202Z" fill="#CF1126"/>
<path d="M19.0261 10.2665C19.0661 10.2732 19.0861 10.3065 19.1061 10.3365C19.1161 10.3665 19.0794 10.3965 19.0727 10.4298C19.0292 10.5399 19.0132 10.6589 19.0261 10.7765C19.0294 10.8598 18.9994 10.9432 18.9594 11.0098C18.9519 10.9842 18.9367 10.9614 18.9158 10.9448C18.8949 10.928 18.8694 10.9182 18.8427 10.9165C18.8261 10.9165 18.7961 10.9232 18.8094 10.8932C18.8227 10.7332 18.8461 10.5732 18.9027 10.4265C18.9191 10.3688 18.9515 10.3168 18.9961 10.2765C19.0027 10.2698 19.0161 10.2632 19.0294 10.2665H19.0261Z" fill="#CF1126"/>
<path d="M11.8576 15.8665C11.6325 15.8422 11.419 15.7539 11.2424 15.6122C11.0658 15.4704 10.9334 15.2811 10.8609 15.0665C10.8709 14.9932 10.9609 15.1065 11.0043 15.1165C11.0856 15.165 11.1767 15.1946 11.2709 15.2032C11.3876 15.2532 11.461 15.3699 11.5743 15.4332C11.6276 15.4732 11.8143 15.5532 11.7776 15.4232C11.7343 15.3565 11.7043 15.2699 11.7443 15.1899C11.8043 15.0532 11.901 14.9332 12.001 14.8165C12.071 14.7932 12.121 14.9365 12.171 14.9832C12.241 15.0932 12.3276 15.2265 12.2843 15.3599C12.2443 15.4099 12.2176 15.5599 12.3276 15.5132C12.461 15.4532 12.571 15.3532 12.681 15.2599C12.781 15.1932 12.9043 15.1899 13.0043 15.1265C13.0543 15.1165 13.151 15.0232 13.171 15.0732C13.1113 15.2222 13.028 15.3606 12.9243 15.4832C12.764 15.6735 12.5424 15.802 12.2976 15.8465C12.151 15.8732 12.0043 15.8799 11.8576 15.8665Z" fill="#CF1126"/>
<path d="M12.3841 15.3398C12.3941 15.2498 12.3741 15.1598 12.3274 15.0731C12.2574 14.9331 12.1608 14.8064 12.0608 14.6764C11.9674 14.6231 11.9174 14.7997 11.8574 14.8498C11.7608 14.9931 11.6408 15.1398 11.6341 15.3164C11.5808 15.3998 11.4808 15.2498 11.4374 15.1998C11.3486 15.0856 11.3016 14.9444 11.3041 14.7997C11.2961 14.565 11.3369 14.3312 11.4241 14.1131C11.4908 13.9264 11.5941 13.7464 11.5841 13.5464C11.5908 13.3897 11.5608 13.2231 11.4374 13.1197C11.3174 13.0264 11.5141 13.0064 11.5741 13.0531C11.6808 13.0631 11.7374 13.2364 11.8341 13.1931C11.8708 13.1031 11.8808 12.9931 11.9608 12.9231C12.0374 12.8164 12.1174 12.9664 12.1441 13.0397C12.2008 13.0997 12.1441 13.2564 12.2308 13.2597C12.3375 13.1831 12.4141 13.0597 12.5508 13.0297C12.6075 12.9964 12.7008 13.0297 12.6275 13.0897C12.5275 13.1864 12.4408 13.3031 12.4208 13.4464C12.3908 13.6231 12.4341 13.8031 12.5108 13.9597C12.6608 14.2731 12.7775 14.6264 12.7008 14.9764C12.6675 15.1298 12.5608 15.2631 12.4341 15.3531C12.4175 15.3631 12.3908 15.3631 12.3841 15.3398Z" fill="#CF1126"/>
<path d="M12.2243 12.987C12.1794 12.8968 12.1158 12.8173 12.0376 12.7537C11.9576 12.7537 11.9076 12.8537 11.8543 12.907C11.8176 12.977 11.7709 13.0937 11.6776 13.0037C11.5276 12.917 11.5043 12.727 11.5043 12.5704C11.4943 12.317 11.5976 12.0804 11.6876 11.8504C11.7443 11.707 11.7309 11.5437 11.6943 11.397C11.6509 11.2304 11.5143 11.1104 11.4109 10.977C11.4176 10.927 11.5509 10.9537 11.6009 10.9637C11.7143 10.9937 11.781 11.0904 11.8643 11.1637C11.9243 11.1437 11.8976 11.0237 11.9276 10.967C11.9276 10.887 12.0343 10.7837 12.0776 10.897C12.1443 10.9704 12.0776 11.1137 12.161 11.157C12.241 11.127 12.281 11.0404 12.3543 11.0004C12.3926 10.9756 12.4366 10.961 12.4821 10.9581C12.5276 10.9552 12.5731 10.964 12.6143 10.9837C12.6443 11.057 12.5276 11.117 12.4943 11.1837C12.4276 11.2668 12.3815 11.3644 12.3595 11.4686C12.3375 11.5728 12.3402 11.6808 12.3676 11.7837C12.4143 11.9504 12.4943 12.1004 12.5243 12.267C12.5603 12.4571 12.5546 12.6527 12.5076 12.8404C12.4776 12.9537 12.381 13.027 12.281 13.0737C12.2543 13.0504 12.241 13.017 12.2243 12.987Z" fill="#CF1126"/>
<path d="M11.7203 10.8972C11.607 10.8139 11.5703 10.7372 11.5703 10.5805C11.5703 10.5039 11.587 10.4605 11.637 10.3872C11.717 10.2805 11.7036 10.2472 11.5936 10.2772C11.417 10.3272 11.3336 10.2839 11.327 10.1339C11.327 10.0605 11.3403 10.0305 11.437 9.9105C11.517 9.81718 11.547 9.76718 11.5303 9.7505C11.5136 9.73718 11.4203 9.81718 11.2303 10.0105C11.1111 10.1361 10.9842 10.2541 10.8503 10.3639C10.5236 10.5839 10.2103 10.6172 10.067 10.4472C9.99361 10.3605 9.99697 10.3139 10.0803 10.2605C10.1334 10.2247 10.1825 10.1833 10.227 10.1372C10.3903 9.98802 10.5704 9.85826 10.7636 9.7505C10.8836 9.6905 10.9103 9.6505 10.8336 9.6505C10.7336 9.6505 10.417 9.85718 10.1736 10.0772C10.1036 10.1439 10.0003 10.2172 9.94697 10.2439C9.79865 10.2979 9.63813 10.3095 9.48361 10.2772C9.41029 10.2539 9.27361 10.1272 9.27361 10.0805C9.27361 10.0705 9.30693 10.0439 9.34029 10.0205C9.39461 9.98982 9.44593 9.9541 9.49361 9.91386C9.68693 9.74718 10.0536 9.5705 10.3436 9.50718C10.437 9.4905 10.4003 9.4405 10.297 9.44718C9.99097 9.50562 9.70449 9.6397 9.46361 9.83718C9.18693 10.0672 8.77029 10.0439 8.63693 9.79386C8.61361 9.7505 8.59693 9.7105 8.60361 9.70386C8.83973 9.64426 9.06797 9.55698 9.28361 9.44386C9.46933 9.33438 9.67401 9.26086 9.88697 9.22718C9.98029 9.2105 9.98697 9.16386 9.89697 9.15386C9.77697 9.1405 9.59697 9.2005 9.28029 9.35386C8.87029 9.55718 8.75361 9.59386 8.54029 9.5805C8.34029 9.56718 8.23029 9.51718 8.07361 9.36718C7.96693 9.26718 7.82029 9.01718 7.84693 8.98718C8.02001 9.02358 8.19693 9.03814 8.37361 9.0305C8.65029 9.0305 8.72693 9.02386 8.87361 8.9805C9.16013 8.8897 9.43025 8.75354 9.67361 8.57718C10.0167 8.28694 10.4509 8.12646 10.9003 8.12386C11.3136 8.12386 11.5736 8.21718 11.807 8.45386C11.887 8.53386 11.9536 8.58386 11.9636 8.57386C11.9736 8.56386 11.9836 8.42386 11.987 8.26386C11.987 8.26386 12.1103 8.2505 12.137 8.28718C12.137 8.54386 12.137 8.56718 12.177 8.56718C12.2003 8.56718 12.227 8.5405 12.2436 8.5005C12.277 8.41718 12.4103 8.3005 12.5503 8.22718C12.8503 8.07718 13.3736 8.0705 13.7936 8.21718C13.9944 8.29338 14.1822 8.40018 14.3503 8.53386C14.5955 8.7063 14.8652 8.84114 15.1503 8.93386C15.377 9.0005 15.7836 9.01718 15.987 8.96718C16.0464 8.95342 16.1065 8.9423 16.167 8.93386C16.2436 8.93386 16.1136 9.18718 15.9603 9.33718C15.6803 9.6105 15.317 9.60718 14.807 9.33386C14.487 9.1605 14.107 9.06718 14.107 9.1605C14.107 9.1805 14.127 9.19386 14.157 9.19386C14.267 9.19386 14.4803 9.26718 14.7803 9.4105C14.9688 9.51922 15.1755 9.59262 15.3903 9.62718C15.467 9.62718 15.4703 9.67718 15.397 9.78386C15.3203 9.89718 15.1903 9.9505 15.007 9.9505C14.8303 9.9505 14.7303 9.91386 14.5736 9.78386C14.307 9.56386 13.6536 9.31718 13.677 9.4505C13.6836 9.47386 13.7136 9.4905 13.7836 9.5005C14.0652 9.5617 14.3287 9.68718 14.5536 9.86718L14.7503 10.0105C14.787 10.0305 14.787 10.0372 14.757 10.0939C14.7103 10.1872 14.5836 10.2572 14.4503 10.2705C14.277 10.2905 14.1236 10.2372 13.967 10.1039C13.6336 9.82718 13.3236 9.62718 13.2236 9.62718C13.1403 9.62718 13.177 9.67386 13.3236 9.7505C13.5134 9.85102 13.6902 9.97414 13.8503 10.1172C13.917 10.1805 13.9936 10.2405 14.017 10.2539C14.0803 10.2872 14.077 10.3339 14.0103 10.4205C13.9436 10.5072 13.8303 10.5472 13.687 10.5305C13.4003 10.5005 13.1736 10.3639 12.8203 9.99718C12.7363 9.90334 12.6449 9.81642 12.547 9.73718C12.5003 9.73718 12.5303 9.8005 12.6203 9.90386C12.7336 10.0272 12.7536 10.0972 12.7103 10.2039C12.6736 10.2905 12.6103 10.3139 12.4836 10.2772C12.3503 10.2439 12.3303 10.2772 12.417 10.3805C12.5436 10.5439 12.527 10.7372 12.367 10.8739C12.3338 10.9057 12.2955 10.9317 12.2536 10.9505C12.2403 10.9505 12.207 10.9172 12.177 10.8705C12.077 10.7172 11.987 10.7172 11.887 10.8705C11.8658 10.9046 11.8436 10.9379 11.8203 10.9705C11.7866 10.9466 11.7532 10.9222 11.7203 10.8972Z" fill="#CF1126"/>
<path d="M12.2236 7.76709L12.0502 7.90041L11.8969 7.78709V8.71373H12.2236V7.76709Z" fill="#CF1126"/>
<path d="M11.1641 6.81034C11.1338 7.1851 11.0319 7.55058 10.8641 7.88702L11.2341 7.5437L11.4907 7.85038L11.7707 7.53702L12.0541 7.8037L12.3274 7.52702L12.6107 7.86038L12.8574 7.58702L13.2774 7.88702C13.1241 7.5537 12.9207 7.26702 12.9441 6.7937C12.5407 7.0937 11.5774 7.14702 11.1641 6.80702V6.81034Z" fill="#CF1126"/>
<path d="M11.9004 6.58783C11.7504 6.58783 11.5938 6.59115 11.4538 6.62115C11.361 6.63591 11.2724 6.66999 11.1938 6.72115C11.2038 7.00783 12.5604 7.12447 12.9238 6.72783C12.842 6.67123 12.7486 6.63363 12.6504 6.61783C12.5171 6.59115 12.3638 6.59115 12.2204 6.58447V6.82115H11.9004V6.58783Z" fill="#CF1126"/>
<path d="M12.1631 5.13428H11.9531V6.78096H12.1665L12.1631 5.13428Z" fill="#CF1126"/>
<path d="M12.1643 5.17353L12.0843 5.96353L12.8943 6.36021L12.4843 5.81021L13.0443 5.62689L12.1643 5.17353ZM12.0743 4.97021C11.9509 4.97021 11.8609 5.01685 11.8609 5.07021C11.8609 5.12353 11.9509 5.17021 12.0743 5.17021C12.1976 5.17021 12.2876 5.12353 12.2876 5.07021C12.2876 5.01685 12.1976 4.97021 12.0743 4.97021Z" fill="#CF1126"/>
<path d="M11.7005 18.7961C11.8355 18.7511 11.9105 18.6711 11.9655 18.5161C11.9905 18.4361 12.0105 18.3561 12.0055 18.3361C11.9955 18.2861 11.9355 18.2861 11.8755 18.3411C11.8305 18.3761 11.8255 18.3961 11.8355 18.4711C11.8705 18.6561 11.8005 18.7061 11.4505 18.7411C11.4155 18.7411 11.3105 18.7411 11.2255 18.7261C11.0555 18.7061 10.9955 18.7261 11.0555 18.7761C11.0877 18.7968 11.1232 18.812 11.1605 18.8211C11.2555 18.8461 11.6005 18.8311 11.7005 18.7961ZM12.4355 18.7661C12.4555 18.7461 12.5205 18.7161 12.5855 18.6911C12.6705 18.6661 12.7155 18.6411 12.7505 18.5811C12.8555 18.4311 12.8355 18.2961 12.6855 18.1161C12.6005 18.0161 12.5655 18.0211 12.5005 18.1311C12.4405 18.2211 12.4455 18.2311 12.5255 18.2511C12.5705 18.2611 12.6105 18.2911 12.6305 18.3311C12.7205 18.4861 12.6955 18.5811 12.5605 18.5811C12.4405 18.5811 12.4105 18.6011 12.3755 18.6811L12.3455 18.7761C12.3455 18.8061 12.3955 18.8011 12.4355 18.7661ZM12.1955 18.5911C12.2155 18.5261 12.2255 18.4161 12.2205 18.1911C12.2259 18.0842 12.2208 17.9771 12.2055 17.8711C12.1855 17.8511 12.0905 17.9111 12.0755 17.9561C12.0705 17.993 12.0794 18.0305 12.1005 18.0611C12.1305 18.1211 12.1355 18.1811 12.1255 18.4111C12.1105 18.7111 12.1305 18.7611 12.1955 18.5911Z" fill="#F7E017"/>
<path d="M11.6304 18.451L11.6654 18.201C11.6704 18.116 11.6904 18.011 11.7004 17.966C11.7354 17.851 11.7004 17.821 11.6104 17.886L11.5454 17.936L11.5554 18.101C11.5704 18.251 11.5454 18.526 11.5104 18.636C11.5004 18.666 11.5154 18.656 11.5554 18.611C11.5854 18.576 11.6204 18.501 11.6304 18.446V18.451ZM11.1304 18.531C11.2504 18.431 11.2354 18.251 11.2654 18.111C11.2654 18.016 11.3254 17.906 11.2854 17.821C11.1704 17.841 11.1004 17.951 11.1604 18.056C11.1604 18.181 11.1604 18.316 11.0954 18.426C11.0454 18.501 10.8754 18.481 10.8854 18.376C10.9254 18.226 10.7404 18.301 10.6704 18.341C10.6154 18.381 10.4954 18.386 10.5404 18.291C10.5104 18.156 10.3454 18.241 10.2554 18.241C10.1704 18.241 10.2504 18.066 10.1254 18.091C9.90035 18.076 9.65035 18.096 9.45035 17.961C9.33535 17.906 9.35035 17.766 9.41535 17.676C9.48535 17.556 9.50535 17.401 9.61535 17.306C9.73035 17.201 9.51535 17.246 9.46535 17.281C9.35535 17.341 9.45535 17.496 9.36535 17.581C9.31535 17.671 9.24535 17.791 9.12535 17.776C8.95035 17.741 8.85035 17.576 8.72535 17.476C8.61535 17.451 8.67535 17.646 8.73535 17.686C8.84619 17.7688 8.97175 17.8299 9.10535 17.866C9.23535 17.841 9.24035 18.016 9.35535 18.041C9.55535 18.141 9.78535 18.166 10.0104 18.181C10.1004 18.186 10.0504 18.346 10.1654 18.311C10.2304 18.331 10.3804 18.286 10.3854 18.361C10.2854 18.481 10.4804 18.476 10.5504 18.461C10.6454 18.441 10.7604 18.411 10.7854 18.531C10.8604 18.616 11.0004 18.601 11.0954 18.556L11.1304 18.531Z" fill="#F7E017"/>
<path d="M9.14013 17.5199C9.18713 17.4541 9.22733 17.3838 9.26013 17.3099C9.28557 17.2459 9.31917 17.1853 9.36013 17.1299C9.42013 17.0699 9.38513 17.0299 9.29013 17.0499C9.24013 17.0599 9.22013 17.0799 9.21513 17.1249C9.19269 17.2476 9.15049 17.3658 9.09013 17.4749C9.00513 17.5999 9.00513 17.6049 9.04013 17.6049C9.05513 17.6049 9.10013 17.5649 9.14013 17.5199ZM7.89013 16.7349C7.79513 16.7349 7.79013 16.7949 7.88013 16.8249C7.93013 16.8399 7.96513 16.8749 7.99513 16.9399C8.08013 17.1149 8.13513 17.1499 8.37013 17.1699L8.52013 17.1799L8.53013 17.2749C8.53013 17.3249 8.54513 17.3649 8.55513 17.3649L8.68513 17.3149C8.79513 17.2549 8.90013 17.1249 8.90013 17.0399C8.90013 16.9899 8.81013 16.9299 8.73013 16.9299C8.69513 16.9299 8.63013 16.9599 8.57513 16.9999C8.40513 17.1199 8.22513 17.0999 8.12513 16.9399C8.05013 16.8099 7.96513 16.7399 7.89013 16.7399V16.7349ZM8.70513 17.0599C8.75013 17.0599 8.75513 17.0949 8.73513 17.1599C8.73205 17.1687 8.72633 17.1764 8.71869 17.1818C8.71109 17.1872 8.70197 17.1901 8.69261 17.1901C8.68329 17.1901 8.67417 17.1872 8.66657 17.1818C8.65893 17.1764 8.65321 17.1687 8.65013 17.1599C8.63013 17.1099 8.65513 17.0599 8.70013 17.0599H8.70513ZM15.0301 16.8599C14.9651 16.8599 14.9501 16.8699 14.9101 16.9299C14.8451 17.0249 14.8401 17.2299 14.9001 17.2999C14.9351 17.3449 14.9401 17.3449 15.0151 17.3099C15.1251 17.2649 15.1451 17.2699 15.1401 17.3249C15.1401 17.4749 14.9301 17.7599 14.7101 17.9099C14.665 17.9365 14.6245 17.9703 14.5901 18.0099C14.5751 18.0499 14.6551 18.0449 14.7551 17.9899C14.9207 17.8949 15.0573 17.7567 15.1501 17.5899C15.2051 17.4749 15.2151 17.4399 15.2251 17.2399C15.2251 17.0499 15.2251 16.9899 15.1951 16.9299C15.1551 16.8599 15.1451 16.8549 15.0551 16.8549H15.0301V16.8599ZM15.0351 16.9849C15.0851 16.9849 15.0851 16.9949 15.0951 17.0649C15.0951 17.1149 15.0901 17.1499 15.0601 17.1799C15.0201 17.2149 15.0101 17.2149 14.9801 17.1599C14.9301 17.0799 14.9601 16.9849 15.0351 16.9849ZM14.0251 18.4099C14.2201 18.3099 14.3351 18.2049 14.4051 18.0499C14.4311 18.0001 14.4529 17.9483 14.4701 17.8949C14.4701 17.8649 14.3751 17.8199 14.3201 17.8199C14.2651 17.8199 14.2501 17.7799 14.2701 17.6699C14.2951 17.5649 14.2701 17.4299 14.2201 17.4299C14.2051 17.4299 14.1701 17.4549 14.1551 17.4849C14.1251 17.5349 14.1201 17.5549 14.1451 17.6199C14.1801 17.7199 14.1501 17.7999 14.0601 17.8649C14.0151 17.8949 13.9951 17.9299 13.9951 17.9649L14.0001 18.0149L14.1051 17.9649L14.2051 17.9049L14.2601 17.9549C14.2951 17.9749 14.3201 18.0149 14.3201 18.0399C14.3201 18.1599 13.9801 18.3599 13.7501 18.3799C13.6251 18.3899 13.6001 18.3799 13.5601 18.3399C13.5251 18.3049 13.5151 18.2749 13.5251 18.2399L13.5501 18.1099C13.5701 18.0049 13.5301 18.0199 13.4501 18.1399C13.3901 18.2399 13.3701 18.3449 13.4051 18.3999C13.4351 18.4499 13.6251 18.4899 13.7651 18.4799C13.8501 18.4799 13.9351 18.4549 14.0251 18.4099ZM15.3251 17.6849C15.4451 17.5599 15.5001 17.4099 15.5001 17.1849V17.0099L15.6001 16.9599C15.7351 16.8999 15.8601 16.7749 15.8601 16.7049C15.8601 16.6349 15.8251 16.6349 15.7701 16.7149C15.7251 16.7699 15.6701 16.8049 15.4701 16.8999C15.4201 16.9199 15.4151 16.9349 15.4001 17.1499C15.3901 17.3999 15.3501 17.4899 15.2151 17.6599C15.1301 17.7599 15.1251 17.7799 15.1851 17.7799C15.2101 17.7799 15.2751 17.7349 15.3251 17.6799V17.6849ZM13.9901 17.5449C14.0001 17.5099 13.9301 17.4849 13.9051 17.5149C13.8901 17.5249 13.8851 17.5449 13.8951 17.5599C13.9151 17.5899 13.9751 17.5799 13.9901 17.5449ZM15.8301 17.0699C15.8451 17.0299 15.7751 17.0049 15.7451 17.0349C15.7351 17.0499 15.7301 17.0699 15.7401 17.0849C15.7601 17.1149 15.8201 17.1049 15.8301 17.0699ZM13.6151 15.7749C13.5651 15.7999 13.5401 15.8499 13.5101 15.8899C13.4851 15.9049 13.5051 15.9199 13.5151 15.9399C13.6001 16.0249 13.6351 16.1499 13.6751 16.2649C13.7151 16.3999 13.7651 16.5449 13.7251 16.6849C13.7101 16.7349 13.6651 16.7899 13.6051 16.7749C13.5051 16.7699 13.4051 16.7399 13.3051 16.7399C13.2101 16.7449 13.1401 16.8299 13.0501 16.8199C12.9901 16.8199 12.9901 16.6999 12.9401 16.7349C12.9101 16.7999 12.9251 16.8699 12.9201 16.9349C12.9301 16.9499 12.9601 16.9399 12.9751 16.9449H13.1601C13.1701 17.0049 13.1701 17.0799 13.2101 17.1299C13.2751 17.1499 13.3501 17.1299 13.4101 17.1049C13.4701 17.0749 13.4801 16.9999 13.5001 16.9399C13.5201 16.8749 13.6001 16.8899 13.6501 16.8649C13.7103 16.8462 13.7625 16.8081 13.7987 16.7565C13.8349 16.7049 13.853 16.6428 13.8501 16.5799C13.8401 16.3849 13.7701 16.2099 13.7101 16.0299C13.6851 15.9499 13.6651 15.8649 13.6351 15.7849L13.6151 15.7749ZM13.3151 16.8649C13.3801 16.8649 13.4101 16.9449 13.3951 16.9999C13.3701 17.0749 13.2751 17.0299 13.2601 16.9749C13.2251 16.9249 13.2451 16.8599 13.3101 16.8649H13.3151Z" fill="#F7E017"/>
<path d="M10.7996 16.2407C10.7696 16.2407 10.7346 16.2507 10.6996 16.2757C10.5246 16.4007 10.4746 16.5457 10.5996 16.6057C10.6846 16.6457 10.6646 16.6957 10.5246 16.7657C10.3246 16.8657 10.1496 16.8507 9.81461 16.7157C9.73461 16.6807 9.71461 16.6957 9.72961 16.7657C9.74961 16.8407 9.8196 16.8807 9.9846 16.9157C10.1646 16.9657 10.3846 16.9507 10.5246 16.8907C10.6068 16.8488 10.6798 16.791 10.7396 16.7207L10.8496 16.6057L10.9746 16.6207C11.1296 16.6407 11.1346 16.6407 11.1346 16.7157C11.1346 16.7757 11.1346 16.7757 11.2796 16.7907L11.5146 16.8007C11.5796 16.8007 11.6146 16.8157 11.6346 16.8457C11.6646 16.8807 11.6796 16.8857 11.9146 16.8657C12.1346 16.8457 12.1746 16.8457 12.2746 16.8807C12.3446 16.9007 12.4246 16.9107 12.4796 16.9057C12.6496 16.8857 12.8796 16.7507 12.9146 16.6507C12.9146 16.6357 12.9796 16.6157 13.0496 16.6007C13.2196 16.5657 13.2246 16.5307 13.0696 16.5107C12.9912 16.5004 12.9142 16.4819 12.8396 16.4557C12.7838 16.4321 12.7248 16.4169 12.6646 16.4107C12.5796 16.4107 12.4996 16.4607 12.4996 16.5207C12.4996 16.5557 12.5096 16.5607 12.6146 16.5507C12.7046 16.5407 12.7346 16.5457 12.7846 16.5857C12.8196 16.6107 12.8396 16.6407 12.8346 16.6507C12.8096 16.6907 12.6096 16.7807 12.5246 16.7957C12.4732 16.8042 12.4204 16.7954 12.3746 16.7707C12.2946 16.7307 12.1846 16.7257 12.1596 16.7607C12.1496 16.7757 12.1296 16.7657 12.0946 16.7357L12.0446 16.6857L11.9246 16.7357C11.8046 16.7857 11.7596 16.7857 11.7596 16.7257C11.7596 16.7007 11.7246 16.6957 11.5496 16.7107C11.3546 16.7207 11.3346 16.7157 11.2996 16.6757C11.2646 16.6407 11.2646 16.6257 11.2896 16.5907C11.3096 16.5507 11.3096 16.5407 11.2896 16.5157C11.2696 16.4957 11.2396 16.4957 11.1646 16.5157C10.9696 16.5657 10.9146 16.5407 10.9146 16.3907C10.9146 16.2957 10.8646 16.2407 10.7996 16.2407ZM10.7496 16.3807C10.7596 16.3807 10.7696 16.3857 10.7846 16.4007C10.7996 16.4157 10.8096 16.4507 10.7996 16.4657C10.7846 16.5107 10.6996 16.5107 10.6846 16.4657C10.6746 16.4407 10.6846 16.4157 10.7096 16.4007L10.7496 16.3807Z" fill="#F7E017"/>
<path d="M10.3996 16.5205C10.5196 16.4455 10.5196 16.4505 10.5346 16.2455C10.5446 16.0955 10.5446 16.0855 10.5046 16.0855C10.4446 16.0855 10.4146 16.1505 10.4146 16.2705C10.4146 16.3505 10.4046 16.3855 10.3646 16.4205C10.2646 16.5205 10.0246 16.4755 9.98963 16.3555C9.97963 16.3155 9.99463 16.2755 10.0446 16.2055C10.1496 16.0555 10.1296 16.0155 9.99463 16.1305C9.90963 16.2105 9.89463 16.2105 9.90963 16.1455C9.92463 16.0805 9.89463 16.0555 9.81963 16.0755C9.78463 16.0855 9.75963 16.1055 9.75463 16.1555C9.74463 16.1955 9.72463 16.2205 9.68963 16.2305C9.62963 16.2455 9.52963 16.1905 9.52963 16.1405C9.52963 16.1055 9.67963 15.9205 9.87463 15.7205C9.94463 15.6455 10.0046 15.5705 10.0046 15.5655C10.0046 15.5555 9.96463 15.5455 9.91963 15.5455C9.84963 15.5455 9.82963 15.5555 9.82963 15.5855C9.82963 15.6055 9.73463 15.7355 9.61463 15.8705C9.36463 16.1505 9.34463 16.2055 9.46463 16.2805C9.51459 16.3113 9.57247 16.3268 9.63111 16.325C9.68979 16.3232 9.74663 16.3043 9.79463 16.2705L9.87463 16.2155V16.3155C9.87463 16.4405 9.89963 16.4905 9.99963 16.5405C10.0621 16.5726 10.1321 16.5877 10.2023 16.5842C10.2725 16.5807 10.3406 16.5587 10.3996 16.5205ZM15.6196 14.7905C15.5296 14.8455 15.5996 14.9605 15.6196 15.0405C15.5796 15.1405 15.4446 15.1705 15.3446 15.1905C15.2046 15.2155 15.1046 15.3305 15.0546 15.4555C15.0246 15.5355 14.9546 15.6555 14.8796 15.5355C14.8146 15.4705 14.6946 15.4155 14.6196 15.4955C14.5596 15.5505 14.5446 15.6305 14.5196 15.7055C14.4846 15.6505 14.4696 15.5655 14.3996 15.5455C14.2796 15.5605 14.3246 15.7105 14.3796 15.7705C14.4296 15.8455 14.4796 15.9355 14.4296 16.0205C14.3796 16.1205 14.2296 16.1905 14.1446 16.1055C14.0646 16.0605 14.1196 15.9055 14.0346 15.8955C13.9946 15.9255 13.9946 16.0905 13.9296 16.0005C13.8796 15.9255 13.9096 15.8205 13.8496 15.7555C13.7846 15.7655 13.7296 15.8805 13.7496 15.9405C13.8396 16.0605 13.8796 16.2105 13.9146 16.3555C13.9346 16.4155 13.9096 16.5305 13.9646 16.5555C13.9996 16.4605 13.9646 16.3555 13.9946 16.2605C14.0846 16.2505 14.1796 16.2905 14.2696 16.2705C14.4046 16.2555 14.5046 16.1405 14.5496 16.0255C14.5646 15.9355 14.5496 15.8455 14.5446 15.7555C14.6446 15.7755 14.7546 15.7755 14.8546 15.8055C14.9046 15.8805 14.8396 15.9905 14.8246 16.0705C14.7746 16.2405 14.6396 16.3605 14.5146 16.4705C14.4596 16.5055 14.4546 16.5905 14.5296 16.5455C14.7006 16.4643 14.8346 16.3214 14.9046 16.1455C14.9596 16.0155 14.9146 15.8705 14.9546 15.7405C15.0046 15.6405 15.1296 15.6605 15.2246 15.6605C15.3196 15.6605 15.3996 15.5455 15.3696 15.4505C15.3396 15.3405 15.4546 15.2905 15.5296 15.2505C15.6346 15.2005 15.7146 15.0955 15.7046 14.9755C15.7046 14.9105 15.7046 14.7955 15.6196 14.7905ZM15.2546 15.4155C15.3646 15.4455 15.2346 15.6555 15.1746 15.5205C15.1546 15.4705 15.1996 15.4155 15.2546 15.4155ZM14.7396 15.5655C14.8846 15.5605 14.8296 15.7655 14.7096 15.6755C14.6446 15.6405 14.6646 15.5655 14.7396 15.5655ZM9.49963 16.3805C9.49963 16.3605 9.48963 16.3455 9.46963 16.3455C9.43463 16.3455 9.40963 16.3805 9.42463 16.4105C9.44463 16.4455 9.48963 16.4255 9.49963 16.3805ZM11.1996 16.2005C11.1996 16.1655 11.1846 16.1555 11.1596 16.1605C11.1046 16.1705 11.0946 16.2455 11.1546 16.2455C11.1846 16.2455 11.1996 16.2305 11.1996 16.1955V16.2005ZM9.09963 15.1805C9.03463 15.1655 8.98963 15.2255 8.96463 15.2805C8.91463 15.3655 8.85463 15.4505 8.76463 15.4955C8.69963 15.5155 8.62963 15.4905 8.56963 15.4555C8.50463 15.4205 8.51963 15.3405 8.48963 15.2855C8.43963 15.2455 8.35463 15.3005 8.35963 15.3605C8.35463 15.4405 8.42463 15.4855 8.48963 15.5155C8.53963 15.5505 8.61963 15.5655 8.63963 15.6305C8.63963 15.6855 8.65963 15.7505 8.72463 15.7305C8.79963 15.7305 8.82463 15.8205 8.78963 15.8755C8.75619 15.9365 8.74391 16.0068 8.75463 16.0755C8.78963 16.1105 8.82463 16.0255 8.85463 16.0055L8.90463 15.9355C9.03963 15.9405 9.16963 15.9605 9.30463 15.9555C9.40463 15.9555 9.47963 15.8955 9.53963 15.8255C9.62963 15.7355 9.69963 15.6305 9.79463 15.5555C9.86463 15.5355 9.82963 15.4055 9.75463 15.4455C9.68963 15.4705 9.66963 15.5455 9.62463 15.5905C9.55167 15.6866 9.46779 15.7739 9.37463 15.8505C9.29963 15.8805 9.21963 15.8655 9.14463 15.8505C9.11463 15.8255 9.20463 15.8005 9.21963 15.7705C9.25963 15.7305 9.30963 15.6905 9.33463 15.6355C9.30963 15.5855 9.23963 15.5855 9.18963 15.5855C9.06963 15.5955 8.97463 15.7005 8.84963 15.7105C8.75463 15.7105 8.80463 15.6105 8.84963 15.5755C8.92963 15.4755 9.01963 15.3855 9.10463 15.2905C9.12963 15.2605 9.21963 15.2305 9.16463 15.1905C9.14463 15.1805 9.11963 15.1805 9.09963 15.1805ZM9.15963 15.6805C9.22463 15.7155 9.11963 15.7705 9.07963 15.7655C9.02463 15.7805 9.01963 15.7255 9.06963 15.7155C9.09963 15.6955 9.12963 15.6805 9.15963 15.6805ZM8.96963 15.8105C9.00463 15.8105 9.07963 15.8455 9.00963 15.8655C8.95963 15.9055 8.90963 15.8255 8.96963 15.8105Z" fill="#F7E017"/>
<path d="M10.4698 15.8906C10.4698 15.8406 10.3898 15.8506 10.3798 15.9006C10.3698 15.9306 10.3798 15.9356 10.4198 15.9306C10.4498 15.9306 10.4698 15.9106 10.4698 15.8906ZM14.2048 15.5606C14.2148 15.5156 14.1548 15.4856 14.1198 15.5206C14.0848 15.5506 14.1198 15.6156 14.1598 15.6056C14.1798 15.6056 14.1998 15.5806 14.2098 15.5606H14.2048ZM8.39984 15.1056C8.45484 15.0556 8.45984 15.0506 8.43484 14.9406C8.39484 14.7856 8.39984 14.7656 8.45984 14.7506C8.53484 14.7356 8.72484 14.8356 8.75984 14.9156C8.79984 14.9806 8.79484 14.9856 8.73985 15.0356C8.67985 15.0906 8.67985 15.1556 8.73985 15.1556C8.78984 15.1556 8.92484 15.0256 8.92484 14.9806C8.92484 14.9156 8.77485 14.7606 8.65485 14.7056C8.58285 14.672 8.50428 14.6549 8.42484 14.6556C8.26984 14.6556 8.24984 14.6906 8.28984 14.8656C8.33985 15.0756 8.27485 15.1056 8.10485 14.9456C8.04437 14.8923 7.99708 14.8258 7.96672 14.7512C7.93632 14.6765 7.92373 14.5959 7.92985 14.5156C7.92985 14.3156 8.00984 14.2106 8.18484 14.1856C8.30484 14.1706 8.29984 14.1406 8.18484 14.1256C8.00484 14.0956 7.85484 14.2156 7.79984 14.4256C7.73484 14.6606 7.87984 14.9456 8.13484 15.0906C8.26984 15.1656 8.31984 15.1706 8.39984 15.1056ZM15.3598 14.8456C15.3748 14.8356 15.3848 14.8006 15.3848 14.7756C15.3848 14.7506 15.4098 14.6956 15.4398 14.6556C15.4698 14.6156 15.4898 14.5756 15.4898 14.5656C15.4898 14.5256 15.4248 14.5256 15.3748 14.5656C15.3198 14.6106 15.2748 14.6156 15.2748 14.5656L15.3348 14.5206C15.4148 14.4856 15.4198 14.4456 15.3548 14.4156C15.2698 14.3756 15.1798 14.4456 15.1748 14.5656C15.1698 14.6456 15.1748 14.6556 15.2348 14.6906C15.2898 14.7256 15.2998 14.7406 15.2898 14.7906C15.2748 14.8706 15.3098 14.9006 15.3598 14.8456ZM16.0098 14.7756C16.0598 14.7256 16.0998 14.6806 16.0998 14.6656C16.0998 14.6506 16.1448 14.6056 16.1948 14.5656C16.3348 14.4656 16.3698 14.3656 16.3048 14.2006C16.2798 14.1356 16.2048 14.0506 16.0298 13.9006C15.9501 13.8155 15.8593 13.7415 15.7598 13.6806C15.7148 13.6806 15.7248 13.8506 15.7698 13.8656C15.8548 13.8956 15.9098 13.9306 16.0398 14.0506C16.1998 14.1906 16.2698 14.3256 16.2298 14.4006C16.1948 14.4706 16.1448 14.4506 16.0048 14.3006C15.9595 14.2441 15.9055 14.1952 15.8448 14.1556C15.8298 14.1556 15.8198 14.1856 15.8198 14.2256C15.8198 14.2756 15.8448 14.3256 15.9198 14.4006C16.0348 14.5306 16.0448 14.6056 15.9548 14.6756C15.9346 14.6961 15.9109 14.7131 15.8848 14.7256C15.7706 14.5299 15.6174 14.3598 15.4348 14.2256C15.4198 14.2256 15.4098 14.2456 15.4098 14.2956C15.4098 14.3606 15.4198 14.3806 15.4698 14.4056C15.6013 14.5065 15.719 14.6241 15.8198 14.7556L15.9098 14.8556C15.9472 14.8323 15.9808 14.8036 16.0098 14.7706V14.7756ZM16.3098 13.9356C16.2848 13.8756 15.8898 13.4656 15.8448 13.4656C15.8248 13.4656 15.8198 13.4906 15.8248 13.5556C15.8248 13.6356 15.8398 13.6456 15.8948 13.6606C15.9802 13.7105 16.0578 13.7729 16.1248 13.8456C16.1792 13.904 16.2414 13.9545 16.3098 13.9956V13.9356ZM13.9198 18.5656C13.9225 18.573 13.9231 18.5809 13.9214 18.5886C13.9198 18.5963 13.916 18.6035 13.9105 18.6097C13.9049 18.616 13.8976 18.6211 13.8893 18.6245C13.8809 18.628 13.8717 18.6299 13.8624 18.6299C13.853 18.6299 13.8438 18.628 13.8354 18.6245C13.8271 18.6211 13.8198 18.616 13.8142 18.6097C13.8087 18.6035 13.8049 18.5963 13.8033 18.5886C13.8016 18.5809 13.8022 18.573 13.8048 18.5656C13.8022 18.5581 13.8016 18.5502 13.8033 18.5425C13.8049 18.5349 13.8087 18.5277 13.8142 18.5214C13.8198 18.5151 13.8271 18.5101 13.8354 18.5066C13.8438 18.5031 13.853 18.5013 13.8624 18.5013C13.8717 18.5013 13.8809 18.5031 13.8893 18.5066C13.8976 18.5101 13.9049 18.5151 13.9105 18.5214C13.916 18.5277 13.9198 18.5349 13.9214 18.5425C13.9231 18.5502 13.9225 18.5581 13.9198 18.5656ZM14.1298 18.4956C14.1298 18.5021 14.1283 18.5086 14.1253 18.5147C14.1223 18.5208 14.1178 18.5263 14.1123 18.5309C14.1067 18.5356 14.1001 18.5393 14.0928 18.5417C14.0855 18.5443 14.0777 18.5456 14.0698 18.5456C14.062 18.5456 14.0542 18.5443 14.0469 18.5417C14.0396 18.5393 14.033 18.5356 14.0274 18.5309C14.0218 18.5263 14.0174 18.5208 14.0144 18.5147C14.0114 18.5086 14.0098 18.5021 14.0098 18.4956C14.0098 18.489 14.0114 18.4825 14.0144 18.4764C14.0174 18.4704 14.0218 18.4649 14.0274 18.4602C14.033 18.4556 14.0396 18.4519 14.0469 18.4494C14.0542 18.4469 14.062 18.4456 14.0698 18.4456C14.0777 18.4456 14.0855 18.4469 14.0928 18.4494C14.1001 18.4519 14.1067 18.4556 14.1123 18.4602C14.1178 18.4649 14.1223 18.4704 14.1253 18.4764C14.1283 18.4825 14.1298 18.489 14.1298 18.4956Z" fill="#F7E017"/>
</g>
</g>
</g>
<defs>
<clipPath id="clip0_69_3516">
<rect width="24" height="24" rx="12" fill="white"/>
</clipPath>
<clipPath id="clip1_69_3516">
<rect width="32" height="24" fill="white" transform="translate(-4)"/>
</clipPath>
</defs>
</svg>
