<svg width="24" height="24" viewBox="0 0 24 24" fill="none" xmlns="http://www.w3.org/2000/svg">
<g clip-path="url(#clip0_69_3357)">
<path fill-rule="evenodd" clip-rule="evenodd" d="M-0.399994 -2H24.4V26H-0.399994V-2Z" fill="#229E45"/>
<path fill-rule="evenodd" clip-rule="evenodd" d="M12.0437 18.0859L21.507 12.0094L11.9872 5.91431L2.49249 12.0218L12.0437 18.0859Z" fill="#F8E509"/>
<path fill-rule="evenodd" clip-rule="evenodd" d="M16.1682 12.0001C16.1682 14.1829 14.376 15.9528 12.1632 15.9528C11.3724 15.9516 10.5998 15.7184 9.94297 15.2829C9.28612 14.8473 8.77458 14.2289 8.47298 13.5058C8.17136 12.7827 8.09327 11.9874 8.24852 11.2204C8.40378 10.4533 8.78542 9.74906 9.34523 9.19659C9.90503 8.6441 10.6178 8.26822 11.3935 8.11645C12.1693 7.96466 12.9731 8.0438 13.7033 8.34386C14.4336 8.64393 15.0575 9.15143 15.4963 9.80222C15.935 10.453 16.1688 11.2179 16.1682 12.0001Z" fill="#2B49A3"/>
<path fill-rule="evenodd" clip-rule="evenodd" d="M10.8482 14.3693L10.7227 14.2979L10.5971 14.36L10.6254 14.2203L10.5249 14.1147L10.6662 14.0992L10.7352 13.975L10.7949 14.1054L10.933 14.1302L10.8294 14.2234M13.5287 15.04L13.4063 14.9686L13.2808 15.0307L13.3059 14.891L13.2086 14.7885L13.3498 14.773L13.4157 14.6457L13.4785 14.7761L13.6166 14.8009L13.5099 14.8972M12.3737 13.9657L12.2669 13.9036L12.1571 13.9595L12.1822 13.8384L12.0943 13.7483L12.2199 13.7359L12.2764 13.6241L12.3266 13.739L12.449 13.7607L12.3548 13.8446M15.0855 13.5807L14.9788 13.5186L14.869 13.5744L14.8941 13.4533L14.8093 13.3664L14.9317 13.354L14.9882 13.2453L15.0385 13.3571L15.1577 13.3788L15.0667 13.4596M12.3266 12.7765L12.201 12.7081L12.0755 12.7702L12.1006 12.6274L12.0033 12.525L12.1445 12.5094L12.2104 12.3821L12.2732 12.5125L12.4113 12.5374L12.3046 12.6367M9.02148 11.55L8.89593 11.4817L8.77038 11.5438L8.80177 11.4009L8.69819 11.2985L8.84258 11.283L8.90535 11.1556L8.96813 11.2861L9.10623 11.3109L9.00265 11.4072M9.4201 13.1832L9.29455 13.1118L9.169 13.1739L9.19725 13.0342L9.09681 12.9317L9.23806 12.9131L9.30397 12.7889L9.36675 12.9193L9.50485 12.9441L9.40127 13.0404M13.5444 10.9507L13.4314 10.8886L13.3184 10.9445L13.3435 10.8203L13.2556 10.7272L13.3812 10.7116L13.4408 10.5999L13.4942 10.7178L13.6197 10.7396L13.5256 10.8234M13.3153 12.0126L13.2305 11.9629L13.1395 12.0064L13.1583 11.9071L13.0893 11.8356L13.1897 11.8232L13.2368 11.7363L13.2776 11.8294L13.3718 11.845L13.3027 11.9133M8.83944 13.4782L8.75469 13.4316L8.66994 13.472L8.68878 13.3788L8.62286 13.3105L8.71703 13.2981L8.76097 13.2143L8.80177 13.3012L8.89593 13.3198L8.82374 13.3819M15.1075 13.857L15.0385 13.8228L14.9694 13.8539L14.9851 13.7825L14.9317 13.7328L15.0071 13.7235L15.0447 13.6614L15.0761 13.7235L15.1546 13.739L15.095 13.7856" fill="#FFFFEF"/>
<path fill-rule="evenodd" clip-rule="evenodd" d="M8.83944 13.4778L8.75469 13.4312L8.66994 13.4716L8.68878 13.3784L8.62286 13.3101L8.71703 13.2977L8.76097 13.2139L8.80177 13.3008L8.89593 13.3194L8.82374 13.3815" fill="#FFFFEF"/>
<path fill-rule="evenodd" clip-rule="evenodd" d="M8.83944 13.4782L8.75469 13.4316L8.66994 13.4719L8.68878 13.3788L8.62286 13.3105L8.71703 13.2981L8.76097 13.2142L8.80177 13.3012L8.89593 13.3198L8.82374 13.3819M10.1514 13.475L10.0698 13.4316L9.98508 13.4719L10.0039 13.3788L9.938 13.3105L10.0322 13.2981L10.0761 13.2142L10.1169 13.3012L10.2111 13.3167L10.1389 13.3819M9.98822 13.9097L9.90661 13.8632L9.82186 13.9066L9.8407 13.8135L9.77478 13.7421L9.86894 13.7297L9.91289 13.6458L9.95369 13.7328L10.0479 13.7514L9.97566 13.8135M12.7189 13.1242L12.6373 13.0745L12.5494 13.118L12.5683 13.0248L12.5055 12.9534L12.5997 12.9441L12.6436 12.8603L12.6813 12.9472L12.7754 12.9627L12.7064 13.0279M11.9185 13.1211L11.8338 13.0745L11.7491 13.118L11.7679 13.0248L11.7051 12.9534L11.7993 12.9441L11.8432 12.8572L11.8809 12.9472L11.975 12.9627L11.906 13.0279M9.74653 12.8478L9.69318 12.8168L9.63982 12.8416L9.65237 12.7826L9.61157 12.7392L9.6712 12.733L9.69631 12.6802L9.72142 12.7361L9.78106 12.7454L9.73712 12.7857M15.0039 14.1954L14.9223 14.1488L14.8376 14.1923L14.8564 14.0992L14.7905 14.0277L14.8847 14.0153L14.9286 13.9315L14.9694 14.0184L15.0636 14.0371L14.9914 14.0992M14.3385 14.2855L14.2695 14.242L14.1973 14.2792L14.213 14.1985L14.1596 14.1426L14.2381 14.1333L14.2757 14.0619L14.3071 14.1364L14.3856 14.1488L14.326 14.2047M14.6524 14.2761L14.5896 14.2389L14.5237 14.2699L14.5363 14.1985L14.486 14.1457L14.5582 14.1364L14.5928 14.0743L14.6241 14.1364L14.6963 14.1519L14.643 14.2016M15.5563 13.4937L15.4936 13.4626L15.4308 13.4937L15.4465 13.4223L15.3963 13.3695L15.4685 13.3602L15.4999 13.2981L15.5312 13.3633L15.5972 13.3757L15.5469 13.4254M14.3291 14.7233L14.2506 14.6798L14.1659 14.717L14.1847 14.6301L14.1219 14.568L14.2161 14.5587L14.2569 14.4811L14.2946 14.5618L14.3887 14.5773L14.3165 14.6363M14.3354 15.0772L14.26 15.0338L14.1847 15.0741L14.2035 14.9872L14.1439 14.9251L14.2287 14.9127L14.2663 14.835L14.3009 14.9158L14.3856 14.9313L14.3228 14.9934M13.7265 14.2761L13.6668 14.2389L13.6041 14.2699L13.6166 14.2016L13.5695 14.1488L13.6386 14.1426L13.67 14.0805L13.7014 14.1426L13.7704 14.155L13.7202 14.2047M13.1615 14.2761L13.0987 14.2389L13.0359 14.2699L13.0516 14.2016L13.0014 14.1488L13.0736 14.1426L13.105 14.0805L13.1364 14.1426L13.2023 14.155L13.1521 14.2047M12.1979 13.4409L12.1351 13.4067L12.0723 13.4378L12.088 13.3664L12.0378 13.3167L12.1069 13.3074L12.1383 13.2453L12.1696 13.3074L12.2387 13.3229L12.1885 13.3695M12.3046 15.1393L12.2544 15.1114L12.1979 15.1393L12.2104 15.0772L12.1696 15.0338L12.2293 15.0275L12.2575 14.9748L12.2826 15.0307L12.3423 15.04L12.2983 15.0803M10.8482 12.3914L10.7227 12.32L10.5971 12.3821L10.6254 12.2424L10.5249 12.1399L10.6662 12.1213L10.7352 11.9971L10.7949 12.1275L10.933 12.1523L10.8294 12.2486" fill="#FFFFEF"/>
<path fill-rule="evenodd" clip-rule="evenodd" d="M15.9045 13.4225C15.9823 13.2229 16.0432 13.0173 16.0866 12.8077C13.9585 10.9603 11.5888 10.0132 8.5944 10.2089C8.4858 10.4167 8.39651 10.634 8.32761 10.8578C11.8744 10.5225 14.4795 12.075 15.9045 13.4225Z" fill="white"/>
<path d="M14.95 12.3852L15.0222 12.4256C15.0114 12.4467 15.0081 12.4707 15.0127 12.4939C15.0201 12.5164 15.0358 12.5352 15.0567 12.5467C15.0786 12.5622 15.1006 12.5715 15.1195 12.5684C15.1383 12.5684 15.1508 12.5591 15.1603 12.5467C15.1657 12.5384 15.168 12.5285 15.1665 12.5187C15.164 12.5072 15.1586 12.4966 15.1508 12.4877C15.1446 12.4784 15.1289 12.4566 15.1038 12.4318C15.078 12.4054 15.0586 12.3736 15.0473 12.3386C15.0394 12.3122 15.0415 12.2839 15.053 12.2588C15.0645 12.2337 15.0848 12.2136 15.11 12.202C15.1329 12.1926 15.1581 12.1904 15.1822 12.1958C15.2117 12.2025 15.2395 12.2152 15.2638 12.2331C15.3078 12.2641 15.336 12.2952 15.3454 12.3324C15.3498 12.3499 15.3504 12.368 15.3471 12.3857C15.3439 12.4033 15.3369 12.4201 15.3266 12.4349L15.2513 12.3883C15.2607 12.3697 15.2638 12.3511 15.2576 12.3355C15.2544 12.32 15.2419 12.3045 15.2199 12.2921C15.2038 12.2792 15.1841 12.2716 15.1634 12.2703C15.1577 12.2701 15.1521 12.2715 15.1471 12.2742C15.1421 12.277 15.138 12.281 15.1351 12.2858C15.1289 12.2952 15.1289 12.3045 15.132 12.3169C15.1351 12.3293 15.1508 12.3542 15.1822 12.3852C15.2136 12.4163 15.2324 12.4442 15.245 12.4628C15.2562 12.4832 15.2613 12.5063 15.2596 12.5294C15.258 12.5525 15.2496 12.5747 15.2356 12.5932C15.2209 12.6144 15.2001 12.6306 15.176 12.6398C15.1524 12.6505 15.1261 12.6538 15.1006 12.6491C15.0724 12.6429 15.0441 12.6305 15.0127 12.6088C14.9657 12.5777 14.9374 12.5436 14.928 12.5063C14.9178 12.464 14.9245 12.4195 14.9468 12.3821L14.95 12.3852ZM14.5859 12.1492L14.6643 12.1896C14.6546 12.211 14.6524 12.2351 14.6581 12.2579C14.6661 12.2792 14.6817 12.2969 14.702 12.3076C14.7271 12.3231 14.7459 12.3293 14.7648 12.3262C14.7836 12.3262 14.7962 12.3169 14.8056 12.3014C14.8104 12.294 14.8126 12.2853 14.8119 12.2765C14.8119 12.2672 14.8056 12.2548 14.7962 12.2455C14.7801 12.2263 14.7633 12.2076 14.7459 12.1896C14.7114 12.1554 14.6894 12.1275 14.6832 12.1027C14.678 12.0867 14.6765 12.0698 14.6787 12.0531C14.6808 12.0365 14.6867 12.0206 14.6957 12.0064C14.7077 11.9872 14.7252 11.9721 14.7459 11.9629C14.7675 11.9531 14.7916 11.9498 14.815 11.9536C14.844 11.9585 14.8718 11.969 14.8966 11.9847C14.9437 12.0157 14.9719 12.0468 14.9813 12.0809C14.9871 12.0984 14.9889 12.1168 14.9867 12.1351C14.9846 12.1533 14.9785 12.1708 14.9688 12.1865L14.8903 12.143C14.8997 12.1213 14.9029 12.1058 14.8966 12.0902C14.8903 12.0747 14.8778 12.0592 14.8558 12.0468C14.8384 12.0344 14.8176 12.0279 14.7962 12.0281C14.791 12.0285 14.786 12.0301 14.7816 12.0328C14.7773 12.0355 14.7736 12.0392 14.7711 12.0437C14.7648 12.053 14.7648 12.0623 14.7679 12.0747C14.7711 12.0871 14.7899 12.112 14.8213 12.143C14.8527 12.1741 14.8746 12.1989 14.884 12.2175C14.8966 12.237 14.9033 12.2596 14.9033 12.2827C14.9033 12.3058 14.8966 12.3285 14.884 12.3479C14.8705 12.3696 14.8509 12.3869 14.8275 12.3976C14.804 12.4084 14.7777 12.4116 14.7522 12.4069C14.7199 12.4016 14.689 12.3899 14.6612 12.3728C14.6206 12.3514 14.5894 12.3161 14.5733 12.2734C14.5612 12.232 14.5657 12.1875 14.5859 12.1492ZM14.1402 12.0312L14.3693 11.6586L14.6455 11.8294L14.6078 11.8915L14.407 11.7673L14.3567 11.8511L14.5451 11.966L14.5043 12.0281L14.3159 11.9132L14.2532 12.0157L14.4635 12.1399L14.4258 12.202L14.1433 12.0312H14.1402ZM13.4904 11.5034L13.525 11.4413L13.6945 11.5251L13.616 11.6804C13.5909 11.6866 13.5595 11.6897 13.5218 11.6866C13.4857 11.6826 13.4506 11.6721 13.4183 11.6555C13.3803 11.6372 13.3478 11.6094 13.3241 11.5748C13.3025 11.5427 13.2915 11.5047 13.2927 11.4661C13.2943 11.426 13.305 11.3867 13.3241 11.3512C13.3429 11.3139 13.371 11.2819 13.4057 11.2581C13.4389 11.2354 13.4784 11.2235 13.5187 11.2239C13.5501 11.2239 13.5815 11.2333 13.6191 11.255C13.6694 11.2767 13.7007 11.3078 13.7164 11.3419C13.7328 11.3758 13.7361 11.4144 13.7259 11.4506L13.6411 11.4258C13.6463 11.405 13.6441 11.383 13.6348 11.3637C13.6254 11.345 13.6097 11.3326 13.5846 11.3202C13.57 11.3119 13.5537 11.3068 13.537 11.3052C13.5202 11.3036 13.5033 11.3055 13.4873 11.3109C13.4559 11.3202 13.4277 11.3481 13.4057 11.3916C13.3837 11.4351 13.3743 11.4754 13.3837 11.5096C13.3881 11.5258 13.3959 11.5409 13.4068 11.5537C13.4176 11.5666 13.4312 11.577 13.4465 11.5841C13.4622 11.5934 13.481 11.5996 13.4999 11.5996C13.5186 11.6024 13.5377 11.6024 13.5564 11.5996L13.5815 11.55L13.4904 11.5034ZM10.6593 10.811L10.7221 10.3763L10.8539 10.398L10.8884 10.7023L11.0108 10.4228L11.1427 10.4415L11.0799 10.87L10.9951 10.8575L11.0485 10.5191L10.9104 10.8451L10.8257 10.8327L10.7911 10.4818L10.7409 10.8234L10.6593 10.811ZM10.2167 10.7582L10.2575 10.3235L10.5808 10.3545L10.5746 10.4291L10.3391 10.4073L10.3297 10.5005L10.5494 10.5222L10.54 10.5967L10.3203 10.575L10.3109 10.693L10.5557 10.7147L10.5494 10.7892L10.2167 10.7582Z" fill="#309E3A"/>
<path d="M8.75112 10.4877C8.75112 10.4411 8.76053 10.407 8.77309 10.3759C8.78409 10.3539 8.79895 10.3339 8.81703 10.3169C8.83313 10.3009 8.85234 10.2882 8.87353 10.2797C8.90492 10.2704 8.9363 10.2642 8.96769 10.2642C9.0336 10.2642 9.08382 10.289 9.12463 10.3263C9.14404 10.35 9.15848 10.3773 9.16711 10.4066C9.17573 10.436 9.17836 10.4667 9.17485 10.497C9.17485 10.5653 9.15288 10.6212 9.11207 10.6616C9.09111 10.6808 9.0663 10.6954 9.03925 10.7045C9.01224 10.7136 8.98356 10.7169 8.95514 10.7144C8.92706 10.7147 8.89924 10.7093 8.87335 10.6986C8.84746 10.688 8.82401 10.6722 8.80448 10.6523C8.7654 10.6066 8.74622 10.5474 8.75112 10.4877Z" fill="#309E3A"/>
<path d="M8.84256 10.488C8.84256 10.5345 8.85198 10.5718 8.87395 10.5997C8.89592 10.6246 8.92417 10.6401 8.96183 10.6401C8.97813 10.6413 8.99447 10.6388 9.00967 10.6329C9.02488 10.6269 9.03854 10.6178 9.04972 10.606C9.07169 10.5811 9.0811 10.5439 9.08424 10.4911C9.08424 10.4414 9.07797 10.4041 9.05286 10.3793C9.04264 10.3668 9.02973 10.3567 9.01507 10.3497C9.0004 10.3427 8.98438 10.339 8.96811 10.3389C8.95159 10.3384 8.93517 10.3415 8.91997 10.3479C8.90481 10.3543 8.89122 10.364 8.88022 10.3762C8.85511 10.401 8.8457 10.4383 8.84256 10.488Z" fill="#F7FFFF"/>
<path d="M9.26923 10.7116L9.2755 10.2769H9.46383C9.51091 10.2769 9.5423 10.2831 9.56427 10.2924C9.58624 10.2986 9.60193 10.3141 9.61449 10.3327C9.62704 10.3514 9.63332 10.3762 9.63332 10.4042C9.63357 10.434 9.62235 10.4629 9.60193 10.4849C9.57873 10.5064 9.54888 10.5195 9.51719 10.5222L9.56427 10.5594C9.57682 10.5718 9.59252 10.5967 9.61135 10.6308L9.66471 10.7178H9.55799L9.49522 10.6184L9.45127 10.5563C9.44366 10.5478 9.43392 10.5413 9.42302 10.5377C9.40874 10.5336 9.39395 10.5315 9.37908 10.5315H9.36025V10.7116H9.26923Z" fill="#309E3A"/>
<path d="M9.3634 10.4633H9.42618C9.47012 10.4633 9.49837 10.4633 9.50779 10.4571C9.5172 10.4571 9.52662 10.4478 9.5329 10.4416C9.53917 10.4354 9.54231 10.4199 9.54231 10.4106C9.54231 10.3919 9.53917 10.3795 9.52976 10.3733C9.52348 10.364 9.51092 10.3578 9.49837 10.3547H9.43559L9.3634 10.3516V10.4602V10.4633Z" fill="white"/>
<path d="M9.77182 10.2981L9.93503 10.3074C9.96956 10.3074 9.99781 10.3105 10.0166 10.3167C10.0411 10.3255 10.0627 10.3405 10.0794 10.3602C10.0975 10.3819 10.1104 10.4074 10.1171 10.4347C10.1265 10.4627 10.1296 10.4968 10.1265 10.5372C10.1264 10.5689 10.1211 10.6003 10.1108 10.6303C10.0982 10.6614 10.0794 10.6862 10.0574 10.7049C10.0391 10.7198 10.0177 10.7304 9.99467 10.7359C9.97584 10.7421 9.94759 10.7421 9.9162 10.7421L9.74985 10.7328L9.77182 10.2981Z" fill="#309E3A"/>
<path d="M9.85676 10.3757L9.84106 10.6645H9.96034C9.97603 10.6645 9.98859 10.6583 9.998 10.649C10.0074 10.6397 10.0168 10.6272 10.0231 10.6086C10.0294 10.59 10.0357 10.562 10.0357 10.5279L10.0325 10.4503C10.0281 10.4339 10.0194 10.4189 10.0074 10.4068C9.997 10.3964 9.98402 10.3889 9.96975 10.385C9.94602 10.3798 9.92187 10.3767 9.89756 10.3757H9.85676Z" fill="white"/>
<path d="M11.9244 11.0746L12.028 10.6523L12.1661 10.6834L12.2665 10.7144C12.2885 10.7269 12.3073 10.7455 12.3168 10.7734C12.3293 10.7983 12.3293 10.8262 12.323 10.8604C12.3168 10.8852 12.3073 10.907 12.2916 10.9225C12.2801 10.9361 12.2657 10.9471 12.2495 10.9546C12.2332 10.9621 12.2154 10.966 12.1975 10.9659C12.1755 10.9659 12.1441 10.9597 12.1033 10.9504L12.05 10.9349L12.0123 11.0964L11.9244 11.0746Z" fill="#309E3A"/>
<path d="M12.0937 10.7456L12.0686 10.8636L12.1157 10.876C12.1471 10.8822 12.1722 10.8884 12.1847 10.8853C12.197 10.8837 12.2083 10.8783 12.2173 10.8699C12.2263 10.8616 12.2325 10.8507 12.235 10.8388C12.235 10.8232 12.235 10.8108 12.2287 10.7984C12.2218 10.7858 12.2107 10.7759 12.1973 10.7704L12.1377 10.7549L12.0969 10.7456H12.0937Z" fill="white"/>
<path d="M12.3325 11.196L12.48 10.7861L12.6526 10.8482C12.6997 10.8638 12.7279 10.8793 12.7468 10.8917C12.7625 10.9072 12.775 10.9228 12.7782 10.9476C12.7813 10.9724 12.7844 10.9942 12.7782 11.019C12.7656 11.0501 12.7468 11.0718 12.7217 11.0873C12.6966 11.0997 12.6652 11.1028 12.6275 11.0966C12.6401 11.1122 12.6526 11.1277 12.6589 11.1463L12.684 11.2301L12.7028 11.3264L12.6055 11.2922L12.5741 11.1805C12.5684 11.1552 12.5611 11.1303 12.5522 11.1059C12.548 11.0963 12.5415 11.0878 12.5333 11.0811C12.5271 11.0718 12.5145 11.0656 12.4925 11.0594L12.4768 11.0532L12.4141 11.227L12.3325 11.196Z" fill="#309E3A"/>
<path d="M12.5023 10.9877L12.562 11.0095C12.6028 11.025 12.6279 11.0312 12.6405 11.0312C12.6499 11.0312 12.6593 11.0312 12.6687 11.0219C12.6781 11.0157 12.6844 11.0063 12.6875 10.9939C12.6938 10.9815 12.6938 10.9691 12.6875 10.9567C12.6829 10.9446 12.6739 10.9347 12.6624 10.9287L12.5996 10.907L12.5369 10.8853L12.4992 10.9877H12.5023Z" fill="white"/>
<path d="M12.8472 11.1799C12.858 11.1435 12.8762 11.1097 12.9006 11.0805C12.9165 11.0618 12.9356 11.046 12.9571 11.0339C12.9766 11.0231 12.9978 11.0157 13.0199 11.0122C13.0513 11.0122 13.0826 11.0122 13.1172 11.0246C13.1452 11.0315 13.1715 11.0442 13.1942 11.0619C13.217 11.0795 13.2356 11.1018 13.249 11.1271C13.2741 11.1768 13.2741 11.2358 13.2553 11.3041C13.2398 11.3628 13.2014 11.413 13.1486 11.4438C13.1015 11.4717 13.045 11.4749 12.9853 11.4562C12.9574 11.4492 12.9312 11.4364 12.9085 11.4188C12.8858 11.4011 12.8671 11.379 12.8535 11.3538C12.841 11.3266 12.8339 11.2973 12.8328 11.2674C12.8318 11.2376 12.8367 11.2078 12.8472 11.1799Z" fill="#309E3A"/>
<path d="M12.9355 11.2046C12.923 11.2512 12.9198 11.2916 12.9355 11.3226C12.9512 11.3537 12.9732 11.3723 13.0077 11.3847C13.0391 11.394 13.0705 11.3909 13.1019 11.3723C13.1333 11.3568 13.1521 11.3226 13.1678 11.273C13.1835 11.2264 13.1835 11.1891 13.1678 11.1581C13.1616 11.1433 13.1522 11.1301 13.1403 11.1194C13.1283 11.1087 13.1142 11.1007 13.0987 11.096C13.0833 11.0907 13.0669 11.0888 13.0506 11.0904C13.0344 11.092 13.0187 11.0971 13.0046 11.1053C12.9732 11.1239 12.9512 11.155 12.9355 11.2046Z" fill="white"/>
<path d="M13.7047 11.7854L13.9056 11.4004L14.0719 11.4842C14.1033 11.4991 14.1319 11.5191 14.1567 11.5432C14.1724 11.5587 14.1818 11.5774 14.1818 11.6022C14.1818 11.6271 14.1818 11.6488 14.1692 11.6705C14.1571 11.6984 14.1347 11.7207 14.1064 11.7326C14.0751 11.7388 14.0437 11.7388 14.0091 11.7264C14.0217 11.745 14.028 11.7637 14.0342 11.7792C14.0405 11.7978 14.0437 11.8258 14.0468 11.8661L14.0531 11.9655L13.9589 11.9189L13.9464 11.804C13.9449 11.778 13.9417 11.7521 13.9369 11.7264C13.9348 11.7148 13.9294 11.704 13.9213 11.6954L13.8836 11.6736L13.8679 11.6643L13.7831 11.8258L13.7047 11.7854Z" fill="#309E3A"/>
<path d="M13.8989 11.6028L13.9585 11.6338C13.9962 11.6525 14.0213 11.6649 14.0307 11.6649C14.0401 11.6649 14.0527 11.6649 14.0621 11.6587C14.0715 11.6556 14.0778 11.6462 14.0841 11.6338C14.0904 11.6214 14.0935 11.609 14.0904 11.5966C14.0865 11.5842 14.0788 11.5733 14.0684 11.5655C14.05 11.5544 14.0312 11.544 14.0119 11.5345L13.9491 11.5034L13.8989 11.6028Z" fill="white"/>
<path d="M15.3305 12.5809C15.3507 12.549 15.3775 12.5215 15.4089 12.5001C15.43 12.4868 15.4534 12.4773 15.478 12.4722C15.5008 12.4676 15.5242 12.4676 15.547 12.4722C15.5784 12.4784 15.6067 12.4908 15.6349 12.5095C15.6593 12.5245 15.6803 12.5444 15.6965 12.568C15.7128 12.5915 15.7238 12.6181 15.7291 12.6461C15.7385 12.6989 15.7228 12.7579 15.6851 12.8169C15.6536 12.8682 15.6028 12.905 15.5439 12.9193C15.5158 12.9253 15.4867 12.9254 15.4586 12.9195C15.4304 12.9136 15.4039 12.9019 15.3807 12.8852C15.3562 12.8701 15.3353 12.8502 15.319 12.8267C15.3028 12.8031 15.2917 12.7765 15.2865 12.7485C15.2771 12.6927 15.2928 12.6368 15.3305 12.5809Z" fill="#309E3A"/>
<path d="M15.4085 12.6307C15.3771 12.6711 15.3677 12.7084 15.374 12.7425C15.3763 12.7582 15.382 12.7733 15.3906 12.7867C15.3993 12.8001 15.4107 12.8115 15.4242 12.8201C15.4556 12.8419 15.487 12.8481 15.5183 12.8388C15.5497 12.8295 15.5811 12.8077 15.6094 12.7643C15.6376 12.7208 15.6502 12.6835 15.6439 12.6525C15.6408 12.6214 15.6219 12.5935 15.5937 12.5717C15.5654 12.55 15.5309 12.5469 15.4995 12.5562C15.4681 12.5624 15.4367 12.5873 15.4054 12.6307H15.4085Z" fill="white"/>
<path d="M11.4291 10.8973L11.5013 10.593L11.7273 10.6458L11.7178 10.6955L11.5515 10.6582L11.5358 10.7265L11.6896 10.7607L11.677 10.8135L11.5232 10.7762L11.5044 10.86L11.677 10.9004L11.6645 10.9501L11.4291 10.8973Z" fill="#309E3A"/>
</g>
<defs>
<clipPath id="clip0_69_3357">
<rect width="24" height="24" rx="12" fill="white"/>
</clipPath>
</defs>
</svg>
