<svg width="24" height="24" viewBox="0 0 24 24" fill="none" xmlns="http://www.w3.org/2000/svg">
<g clip-path="url(#clip0_69_2449)">
<path d="M0.00351715 3.20005L12.0054 -3.19995L24.0073 3.20005V21.2H0.00351715V3.20005Z" fill="#FFD520"/>
<path d="M0.00351715 21.2L12.0054 27.6L24.0073 21.2V3.19995L0.00351715 21.2Z" fill="#FF4E12"/>
<path d="M12.9529 8.82547C12.8029 8.77672 12.7054 8.85172 12.7129 9.04672C12.7129 9.23797 12.8179 9.34672 12.9679 9.27547L12.9529 8.82547Z" fill="white" stroke="black" stroke-width="0.05"/>
<path d="M13.0847 8.46504C12.9609 8.36754 12.8447 8.40879 12.7847 8.59254C12.7284 8.78004 12.7884 8.91504 12.9534 8.89254L13.0847 8.46504Z" fill="white" stroke="black" stroke-width="0.05"/>
<path d="M13.2902 8.11272C13.1852 8.00022 13.0652 8.02272 12.9752 8.19522C12.889 8.36772 12.9265 8.51397 13.0952 8.52147L13.2902 8.11647V8.11272ZM13.1552 9.81897C12.9715 9.88647 12.9527 10.1377 13.069 10.2915C13.1815 10.4452 13.3952 10.4752 13.5115 10.2915L13.1552 9.81897Z" fill="white" stroke="black" stroke-width="0.05"/>
<path d="M12.9418 9.28588C12.7693 9.22963 12.6118 9.46212 12.5855 9.67212C12.5518 9.93462 12.173 10.0246 12.383 10.4258C12.428 10.1708 12.5968 10.0283 12.7318 10.0208C12.8668 10.0096 13.0693 9.98334 13.1555 9.81834L12.9418 9.28588ZM13.493 10.3208C13.2905 10.3696 13.2605 10.6396 13.4068 10.8308C13.5305 10.9958 13.9205 10.9583 13.9093 10.7933L13.4968 10.3208H13.493ZM14.0668 11.9484C14.078 11.7721 13.7968 11.7046 13.6618 11.7383C13.5268 11.7758 13.268 11.7346 13.2118 11.5883C13.1593 11.7046 13.2305 11.8321 13.4255 11.8958C13.5755 11.9408 13.5718 12.0459 13.5268 12.0984C13.6393 12.1171 13.9655 12.1171 14.0668 11.9484Z" fill="white" stroke="black" stroke-width="0.05"/>
<path d="M13.9092 10.8395C13.7105 10.7495 13.5942 10.8845 13.5192 11.012C13.4067 11.1995 13.0655 10.9595 12.9492 11.2108C13.1067 11.1433 13.2642 11.2858 13.3392 11.3345C13.553 11.4733 13.9617 11.432 14.0217 11.102L13.9092 10.8395Z" fill="white" stroke="black" stroke-width="0.05"/>
<path d="M14.0255 11.0681C13.8268 11.2181 13.748 11.3981 13.7555 11.5181C13.7593 11.6381 13.928 11.9044 14.1118 11.9194C14.2168 11.7019 14.273 11.2444 14.0255 11.0681ZM13.2005 12.0019C13.2005 11.9269 13.3055 11.9006 13.3805 11.9269C13.4518 11.9494 13.5643 12.0206 13.523 12.0994L13.2005 12.0019ZM12.113 11.6006C12.0943 11.5144 12.233 11.3644 12.4205 11.4469C12.608 11.5294 12.6343 11.6869 12.5555 11.7506L12.113 11.6006Z" fill="white" stroke="black" stroke-width="0.05"/>
<path d="M12.5705 11.7648C12.5555 11.716 12.6942 11.6185 12.923 11.6748C13.1555 11.7348 13.2117 11.8848 13.2042 12.001L12.5705 11.7648ZM12.0867 11.6035C12.2105 11.5135 12.1617 11.341 12.053 11.2848C11.858 11.1873 11.9292 10.9398 11.8017 10.891C11.678 10.8423 11.558 10.756 11.5505 10.666C11.4905 10.7898 11.528 10.8985 11.6142 10.9773C11.7005 11.0523 11.5467 11.3673 11.6592 11.4498L12.0867 11.6035ZM9.49923 11.536C9.39798 11.3785 9.15798 11.4048 9.05673 11.5173C8.95548 11.6298 8.97048 11.791 9.06423 11.866L9.49923 11.536ZM10.0805 11.2998C10.043 11.086 9.78423 11.0635 9.64548 11.116C9.50298 11.1685 9.40923 11.3823 9.49923 11.536L10.0805 11.2998Z" fill="white"/>
<path d="M9.49923 11.536C9.39798 11.3785 9.15798 11.4048 9.05673 11.5173C8.95548 11.6298 8.97048 11.791 9.06423 11.866L9.49923 11.536ZM9.49923 11.536C9.40923 11.3823 9.50298 11.1685 9.64548 11.116C9.78423 11.0635 10.043 11.086 10.0805 11.2998L9.49923 11.536ZM12.5705 11.7648C12.5555 11.716 12.6942 11.6185 12.923 11.6748C13.1555 11.7348 13.2117 11.8848 13.2042 12.001L12.5705 11.7648ZM12.0867 11.6035C12.2105 11.5135 12.1617 11.341 12.053 11.2848C11.858 11.1873 11.9292 10.9398 11.8017 10.891C11.678 10.8423 11.558 10.756 11.5505 10.666C11.4905 10.7898 11.528 10.8985 11.6142 10.9773C11.7005 11.0523 11.5467 11.3673 11.6592 11.4498L12.0867 11.6035Z" stroke="black" stroke-width="0.05"/>
<path d="M10.4627 11.2698C10.5565 11.0936 10.3765 10.8273 10.174 10.7898C10.0052 10.7523 9.80646 10.7561 9.73896 10.5911C9.70146 10.7336 9.80646 10.8273 9.93396 10.9098C10.0577 10.9923 9.91146 11.2023 10.114 11.3223L10.4665 11.2698H10.4627Z" fill="white" stroke="black" stroke-width="0.05"/>
<path d="M10.4485 11.2779C10.4035 11.1504 10.4898 10.9779 10.6623 10.9929C10.8385 11.0041 10.936 11.1279 10.861 11.2891L10.4485 11.2779Z" fill="white" stroke="black" stroke-width="0.05"/>
<path d="M10.8344 11.2887C10.8081 11.1537 10.9169 10.9962 11.0894 11.0337C11.2581 11.0712 11.3369 11.2099 11.2394 11.3524L10.8344 11.2849V11.2887Z" fill="white" stroke="black" stroke-width="0.05"/>
<path d="M11.2125 11.349C11.1975 11.214 11.3137 11.064 11.4825 11.109C11.6512 11.154 11.7225 11.2965 11.6175 11.4352L11.2162 11.349H11.2125ZM8.3025 13.5615C7.97625 13.5615 7.8975 13.6365 7.8525 13.974C7.7925 14.3865 8.35875 14.4352 8.3025 13.5615Z" fill="white" stroke="black" stroke-width="0.05"/>
<path d="M8.44548 13.1267C7.95048 12.9392 7.68048 13.7267 7.18548 13.5842C7.36173 13.8654 7.78923 13.5842 7.95048 13.6142C8.22048 13.6629 8.80548 13.5617 8.44548 13.1267ZM8.12298 14.2029C7.87548 14.0904 7.61298 14.4654 7.65798 14.6342C7.72173 14.8404 8.28423 14.6717 8.12298 14.2029ZM6.97548 15.8267C7.11048 15.8642 7.27548 15.9392 7.24548 16.2017C7.21548 16.4642 6.72048 16.9929 6.27798 17.0267C5.83548 17.0529 5.67798 17.5892 5.29173 17.4392C5.65173 17.3717 5.65173 16.9667 5.92923 16.8392C5.72673 16.7642 5.62173 17.2254 5.35923 17.2254C5.09673 17.2254 4.97298 17.6417 4.65423 17.6117C4.33548 17.5854 4.30548 18.1179 3.66423 18.1254C3.17673 18.1292 2.57672 18.6992 2.35547 18.4517C2.83172 18.3842 3.02298 18.1217 3.30423 17.8329C3.75423 17.3717 4.26798 17.5779 4.44423 17.1692C4.24179 17.3058 4.00212 17.3765 3.75798 17.3717C3.45798 17.3642 3.13548 17.8442 2.80172 17.6342C2.99297 17.6079 3.12048 17.5254 3.32298 17.3117C3.52923 17.0942 3.83673 17.2367 4.07673 17.0117C4.45173 16.6667 4.77798 16.9554 5.13798 16.5242C5.03673 16.4717 4.81923 16.5054 4.61673 16.6142C4.41423 16.7192 4.15548 16.5392 3.92298 16.6667C3.94923 16.3817 4.49298 16.5429 4.83048 16.3479C5.21298 16.1229 5.52798 16.1904 5.82798 16.2167C5.40798 16.2167 5.24673 15.8154 4.66548 15.9317C4.41423 15.9842 4.21173 15.5829 3.96048 15.7854C3.96798 15.6354 4.23048 15.5154 4.50048 15.6617C4.77048 15.8079 4.87923 15.5342 5.41923 15.8754C5.64423 16.0142 6.02298 15.7854 6.26298 15.9354C6.23298 15.8454 6.09423 15.7854 5.93298 15.8004C6.03423 15.5904 6.69048 15.6167 6.97548 15.8267Z" fill="white" stroke="black" stroke-width="0.05"/>
<path d="M7.40274 15.5115C7.19274 15.3465 6.89649 15.5453 6.69024 15.4665C6.69024 15.6015 6.76149 15.804 6.98274 15.8828C7.05024 15.834 7.35774 15.5678 7.40274 15.5115Z" fill="white" stroke="black" stroke-width="0.05"/>
<path d="M7.73649 15.0424C7.40274 14.8736 7.34649 15.2936 7.08399 15.2074C7.09524 15.3274 7.19274 15.4774 7.40274 15.5111L7.74024 15.0424H7.73649Z" fill="white" stroke="black" stroke-width="0.05"/>
<path d="M7.93593 14.6597C7.44468 14.4684 7.38093 14.9409 7.09218 14.8472C7.15968 15.0122 7.57218 15.1022 7.78593 15.0422L7.93593 14.6597ZM8.61093 12.5897C8.47968 12.4022 8.20593 12.5522 8.16093 12.7734C8.11968 12.9909 8.22468 13.2947 8.40843 13.2234L8.61093 12.5859V12.5897Z" fill="white" stroke="black" stroke-width="0.05"/>
<path d="M8.94444 12.0123C8.71944 11.956 8.45694 11.9823 8.48694 12.1998C8.39694 12.241 8.37444 12.526 8.61069 12.5898L8.94444 12.0085V12.0123Z" fill="white" stroke="black" stroke-width="0.05"/>
<path d="M9.09468 11.8631C8.86968 11.6006 8.62593 11.6043 8.48718 11.7131C8.22843 11.9193 7.98093 11.8031 7.97343 12.0056C8.12718 11.8856 8.26593 12.0281 8.38593 11.9868C8.51343 11.9418 8.60718 12.1856 8.95593 12.0843L9.09468 11.8593V11.8631ZM8.55843 15.7593C8.59218 15.8231 8.79843 15.8493 8.89968 15.7443C9.03468 15.6018 8.88843 15.2118 8.67468 15.1818C8.46093 15.1556 8.44218 15.6243 8.55843 15.7593Z" fill="white" stroke="black" stroke-width="0.05"/>
<path d="M8.31798 15.7661C8.61798 15.8786 8.74923 15.6273 8.58798 15.4661C8.50482 15.572 8.41461 15.6723 8.31798 15.7661Z" fill="white" stroke="black" stroke-width="0.05"/>
<path d="M7.1775 16.1823C7.1175 16.3586 6.8175 16.3848 6.48 16.9248C6.1425 17.4686 5.82 17.2398 5.7375 17.6111C6.1425 17.2848 6.46125 17.4986 6.705 17.1761C7.06875 16.6848 7.3725 16.7561 7.515 16.4261C7.7175 15.9498 8.6025 15.9611 8.655 15.2148C8.355 15.1586 7.40625 15.9611 7.1775 16.1823ZM14.7975 8.88106C15.1838 9.00856 15.1913 9.50731 15.6375 9.67231C16.08 9.83731 16.125 10.2348 16.4888 10.1373C16.1513 10.0436 16.1738 9.65356 15.8213 9.55606C15.4088 9.44356 15.2513 8.81356 14.9213 8.71606M16.5713 11.5023C16.6388 11.6598 16.6275 11.9336 16.3838 12.0048C16.515 12.0873 16.71 12.0123 16.815 11.8323C16.6575 12.1848 16.7625 12.5036 17.0138 12.5673C16.8938 12.3198 17.1638 12.2036 17.0775 12.0423C17.235 12.1136 17.3775 12.3311 17.37 12.4661C17.58 12.2336 17.22 11.9223 17.2838 11.7048L16.5713 11.5023ZM14.0625 13.9848C13.8263 13.7786 13.725 14.0411 13.6125 13.9473C13.5 13.8648 13.3575 13.8536 13.3013 13.9361C13.5038 13.9436 13.4063 14.1011 13.8 14.1386C13.4063 14.1648 13.4775 14.6073 13.215 14.5848C13.4925 14.8473 13.6388 14.3486 13.8675 14.4311C13.8 14.4498 13.9725 14.6073 13.8525 14.8211C14.0475 14.8173 14.1263 14.5473 14.1525 14.4086L14.0625 13.9848ZM8.85 16.2423C8.7675 16.1673 8.5125 16.1336 8.41875 16.1936C8.32125 16.2498 8.355 16.2686 8.47125 16.2761C8.5875 16.2836 8.73375 16.4711 8.48625 16.4823C8.37 16.4861 8.41125 16.7673 8.1675 16.7861C8.265 16.9061 8.55 16.8273 8.65125 16.6961C8.6325 16.8048 8.775 16.9023 8.71875 17.0336C8.895 17.0523 8.79375 16.6698 9.075 16.6886C8.9625 16.7036 9.0075 16.9661 9.21 16.8986C9.09 16.9548 9.15375 17.0973 9.285 17.0636C9.2025 17.0898 9.1725 17.2023 9.2925 17.2661C9.40875 17.1048 9.2775 16.5348 8.85375 16.2423H8.85ZM19.3725 10.9136C19.4646 10.9205 19.5572 10.9083 19.6444 10.8778C19.7315 10.8473 19.8115 10.7991 19.8792 10.7362C19.9469 10.6734 20.0009 10.5973 20.0379 10.5126C20.0748 10.428 20.0939 10.3366 20.0939 10.2442C20.0939 10.1518 20.0748 10.0605 20.0379 9.97576C20.0009 9.8911 19.9469 9.81496 19.8792 9.75214C19.8115 9.68932 19.7315 9.64114 19.6444 9.61063C19.5572 9.58009 19.4646 9.56791 19.3725 9.57481C19.2036 9.58747 19.0458 9.66349 18.9306 9.7876C18.8154 9.91174 18.7514 10.0749 18.7514 10.2442C18.7514 10.4136 18.8154 10.5766 18.9306 10.7008C19.0458 10.8249 19.2036 10.9009 19.3725 10.9136Z" fill="white"/>
<path d="M14.7975 8.88106C15.1838 9.00856 15.1913 9.50731 15.6375 9.67231C16.08 9.83731 16.125 10.2348 16.4888 10.1373C16.1513 10.0436 16.1738 9.65356 15.8213 9.55606C15.4088 9.44356 15.2513 8.81356 14.9213 8.71606M7.1775 16.1823C7.1175 16.3586 6.8175 16.3848 6.48 16.9248C6.1425 17.4686 5.82 17.2398 5.7375 17.6111C6.1425 17.2848 6.46125 17.4986 6.705 17.1761C7.06875 16.6848 7.3725 16.7561 7.515 16.4261C7.7175 15.9498 8.6025 15.9611 8.655 15.2148C8.355 15.1586 7.40625 15.9611 7.1775 16.1823ZM16.5713 11.5023C16.6388 11.6598 16.6275 11.9336 16.3838 12.0048C16.515 12.0873 16.71 12.0123 16.815 11.8323C16.6575 12.1848 16.7625 12.5036 17.0138 12.5673C16.8938 12.3198 17.1638 12.2036 17.0775 12.0423C17.235 12.1136 17.3775 12.3311 17.37 12.4661C17.58 12.2336 17.22 11.9223 17.2838 11.7048L16.5713 11.5023ZM14.0625 13.9848C13.8263 13.7786 13.725 14.0411 13.6125 13.9473C13.5 13.8648 13.3575 13.8536 13.3013 13.9361C13.5038 13.9436 13.4063 14.1011 13.8 14.1386C13.4063 14.1648 13.4775 14.6073 13.215 14.5848C13.4925 14.8473 13.6388 14.3486 13.8675 14.4311C13.8 14.4498 13.9725 14.6073 13.8525 14.8211C14.0475 14.8173 14.1263 14.5473 14.1525 14.4086L14.0625 13.9848ZM8.85 16.2423C8.7675 16.1673 8.5125 16.1336 8.41875 16.1936C8.32125 16.2498 8.355 16.2686 8.47125 16.2761C8.5875 16.2836 8.73375 16.4711 8.48625 16.4823C8.37 16.4861 8.41125 16.7673 8.1675 16.7861C8.265 16.9061 8.55 16.8273 8.65125 16.6961C8.6325 16.8048 8.775 16.9023 8.71875 17.0336C8.895 17.0523 8.79375 16.6698 9.075 16.6886C8.9625 16.7036 9.0075 16.9661 9.21 16.8986C9.09 16.9548 9.15375 17.0973 9.285 17.0636C9.2025 17.0898 9.1725 17.2023 9.2925 17.2661C9.40875 17.1048 9.2775 16.5348 8.85375 16.2423H8.85ZM19.3725 10.9136C19.4646 10.9205 19.5572 10.9083 19.6444 10.8778C19.7315 10.8473 19.8115 10.7991 19.8792 10.7362C19.9469 10.6734 20.0009 10.5973 20.0379 10.5126C20.0748 10.428 20.0939 10.3366 20.0939 10.2442C20.0939 10.1518 20.0748 10.0605 20.0379 9.97576C20.0009 9.8911 19.9469 9.81496 19.8792 9.75214C19.8115 9.68932 19.7315 9.64114 19.6444 9.61063C19.5572 9.58009 19.4646 9.56791 19.3725 9.57481C19.2036 9.58747 19.0458 9.66349 18.9306 9.7876C18.8154 9.91174 18.7514 10.0749 18.7514 10.2442C18.7514 10.4136 18.8154 10.5766 18.9306 10.7008C19.0458 10.8249 19.2036 10.9009 19.3725 10.9136Z" stroke="black" stroke-width="0.05"/>
<path d="M15.8777 11.7207C16.084 11.5295 16.3915 11.432 16.6052 11.5782C16.8152 11.7207 17.5202 11.8932 17.869 11.6532C18.2177 11.4132 18.3827 11.2857 18.5365 11.3157C18.649 11.4882 18.7915 11.5707 18.964 11.5857C19.0165 11.6457 19.2077 11.6907 19.3127 11.6795C19.4665 11.717 19.654 11.6682 19.804 11.5032C20.0365 11.5407 20.254 11.3645 20.3365 11.102C20.584 11.0757 20.599 10.802 20.4415 10.6145C20.299 10.5882 20.4077 10.097 19.8827 10.1945C20.1077 10.3295 19.9352 10.5995 20.119 10.727C19.9952 10.727 19.8302 10.7795 19.7927 10.967C19.8415 10.8395 19.7852 10.7495 19.7552 10.7232C19.7552 10.6107 19.5115 10.337 19.279 10.4382C19.444 10.4757 19.354 10.7382 19.474 10.8432C19.4284 10.8451 19.3839 10.8572 19.3436 10.8786C19.3034 10.9 19.2685 10.9302 19.2415 10.967C19.1777 10.8545 18.9565 10.742 18.8215 10.7307C18.8215 10.6932 18.814 10.6182 18.7952 10.577C18.7352 10.4607 18.6827 10.322 18.709 10.1457C18.5993 10.2748 18.5084 10.4187 18.439 10.5732C18.2552 10.4457 17.8015 10.6295 17.5877 10.6782C17.3777 10.727 16.6615 10.6107 16.5002 10.4382C16.2707 10.2548 16.0007 10.1288 15.7127 10.0707C15.3002 9.9507 15.3002 9.5007 14.8465 9.18945C14.8352 9.75195 15.6865 11.5295 15.8777 11.7207ZM11.1452 15.992C11.3173 15.992 11.4823 15.9236 11.604 15.802C11.7256 15.6803 11.794 15.5153 11.794 15.3432C11.794 15.1712 11.7256 15.0062 11.604 14.8845C11.4823 14.7628 11.3173 14.6945 11.1452 14.6945C10.9732 14.6945 10.8082 14.7628 10.6865 14.8845C10.5648 15.0062 10.4965 15.1712 10.4965 15.3432C10.4965 15.5153 10.5648 15.6803 10.6865 15.802C10.8082 15.9236 10.9732 15.992 11.1452 15.992Z" fill="white" stroke="black" stroke-width="0.05"/>
<path d="M9.60024 15.4928C9.73149 15.6615 9.95274 15.6503 10.0465 15.639C10.1215 15.8415 10.369 15.834 10.474 15.9465C10.5827 16.059 10.9427 16.0478 11.0477 15.984C10.954 15.9765 10.8265 15.9165 10.7102 15.8153C10.5602 15.6953 10.6277 15.4478 10.5152 15.3653C10.5506 15.3202 10.5763 15.2682 10.5905 15.2127C10.6047 15.1571 10.6071 15.0993 10.5977 15.0428C10.6877 14.9903 10.7552 14.904 10.7627 14.859C10.8973 14.8525 11.025 14.798 11.1227 14.7053C11.2052 14.7803 11.4115 14.6828 11.524 14.8103C11.5465 14.4915 11.2427 14.3228 11.0365 14.4315C10.9577 14.3865 10.7402 14.4165 10.699 14.4728C10.6352 14.4428 10.444 14.5403 10.3615 14.604C10.4552 14.5515 10.4702 14.3903 10.4327 14.334C10.5152 14.2965 10.6052 14.1878 10.6165 14.109C10.729 14.1278 10.9052 14.049 10.9802 14.0678C10.8565 13.9028 10.6502 13.8428 10.4365 13.8615C10.2152 13.8728 10.1215 14.0265 10.0915 14.1915C9.96399 14.2703 9.91899 14.529 9.96774 14.6228C9.89274 14.6228 9.82149 14.694 9.79524 14.7353C9.68325 14.6891 9.56379 14.6637 9.44274 14.6603M9.49149 14.3978C9.44649 14.2703 9.50274 14.1578 9.53274 14.0603C9.60774 13.8053 9.56274 13.7378 9.33399 13.7715C9.34746 13.9882 9.40086 14.2005 9.49149 14.3978Z" fill="white"/>
<path d="M9.60024 15.4928C9.73149 15.6615 9.95274 15.6503 10.0465 15.639C10.1215 15.8415 10.369 15.834 10.474 15.9465C10.5827 16.059 10.9427 16.0478 11.0477 15.984C10.954 15.9765 10.8265 15.9165 10.7102 15.8153C10.5602 15.6953 10.6277 15.4478 10.5152 15.3653C10.5506 15.3202 10.5763 15.2682 10.5905 15.2127C10.6047 15.1571 10.6071 15.0993 10.5977 15.0428C10.6877 14.9903 10.7552 14.904 10.7627 14.859C10.8973 14.8525 11.025 14.798 11.1227 14.7053C11.2052 14.7803 11.4115 14.6828 11.524 14.8103C11.5465 14.4915 11.2427 14.3228 11.0365 14.4315C10.9577 14.3865 10.7402 14.4165 10.699 14.4728C10.6352 14.4428 10.444 14.5403 10.3615 14.604C10.4552 14.5515 10.4702 14.3903 10.4327 14.334C10.5152 14.2965 10.6052 14.1878 10.6165 14.109C10.729 14.1278 10.9052 14.049 10.9802 14.0678C10.8565 13.9028 10.6502 13.8428 10.4365 13.8615C10.2152 13.8728 10.1215 14.0265 10.0915 14.1915C9.96399 14.2703 9.91899 14.529 9.96774 14.6228C9.89274 14.6228 9.82149 14.694 9.79524 14.7353C9.68325 14.6891 9.56379 14.6637 9.44274 14.6603M9.49149 14.3978C9.44649 14.2703 9.50274 14.1578 9.53274 14.0603C9.60774 13.8053 9.56274 13.7378 9.33399 13.7715C9.34746 13.9882 9.40086 14.2005 9.49149 14.3978Z" stroke="black" stroke-width="0.05"/>
<path d="M9.32343 13.7861C9.38343 13.8461 9.58593 13.8723 9.60843 13.6886C9.63468 13.4786 9.54843 13.3961 9.36468 13.4786C9.34968 13.5273 9.33468 13.7223 9.32718 13.7861H9.32343Z" fill="white" stroke="black" stroke-width="0.05"/>
<path d="M9.36798 13.471C9.44298 13.501 9.61173 13.5647 9.70548 13.3847C9.78048 13.2347 9.67923 13.1222 9.51798 13.1297C9.48048 13.1747 9.40548 13.3285 9.36798 13.471Z" fill="white" stroke="black" stroke-width="0.05"/>
<path d="M9.51093 13.1147C9.52968 13.1747 9.72843 13.366 9.87093 13.2272C10.0172 13.0885 10.0172 12.8785 9.79968 12.8035C9.74343 12.811 9.56718 13.0135 9.51093 13.1147Z" fill="white" stroke="black" stroke-width="0.05"/>
<path d="M9.79923 12.7998C9.84048 12.9236 9.97923 13.1298 10.2305 13.0361C10.4817 12.9386 10.373 12.6236 10.2567 12.5598C10.0887 12.6079 9.93279 12.6909 9.79923 12.8036V12.7998Z" fill="white" stroke="black" stroke-width="0.05"/>
<path d="M10.2565 12.5608C10.2377 12.6695 10.2565 12.9583 10.6015 12.9545C10.9427 12.947 10.849 12.5458 10.759 12.4895C10.6202 12.4895 10.384 12.4933 10.2565 12.5645V12.5608Z" fill="white" stroke="black" stroke-width="0.05"/>
<path d="M10.7737 12.5C10.7362 12.5862 10.65 13.1263 11.3212 12.9763C11.4075 12.9575 11.6325 12.4588 10.7737 12.5038V12.5Z" fill="white" stroke="black" stroke-width="0.05"/>
<path d="M11.1422 12.5522C11.0747 12.6197 11.2472 13.1635 11.7047 13.0735C12.1547 12.9797 11.776 12.4622 11.1422 12.5485V12.5522Z" fill="white" stroke="black" stroke-width="0.05"/>
<path d="M11.5274 12.6348C11.4524 12.7848 11.5649 13.2273 12.1237 13.2273C12.6299 13.2273 12.0974 12.6423 11.5274 12.6348Z" fill="white" stroke="black" stroke-width="0.05"/>
<path d="M11.9663 12.7632C11.9288 12.8494 11.8876 13.3182 12.5476 13.3594C13.0238 13.3894 12.9076 12.7107 11.9663 12.7632Z" fill="white" stroke="black" stroke-width="0.05"/>
<path d="M12.6757 12.9617C12.597 13.1079 12.5107 13.4679 13.2345 13.4979C13.6957 13.5167 13.4107 12.9729 12.6795 12.9617H12.6757Z" fill="white" stroke="black" stroke-width="0.05"/>
<path d="M13.2788 13.0742C13.1738 13.2167 13.2526 13.5017 13.5226 13.5542C13.8601 13.6217 13.9088 13.3029 13.6763 13.1492C13.4438 12.9992 13.2788 13.0742 13.2788 13.0742Z" fill="white" stroke="black" stroke-width="0.05"/>
<path d="M13.6134 13.1375C13.5347 13.2762 13.5797 13.6025 14.0934 13.6025C14.1984 13.6025 14.6034 13.19 13.6097 13.1412L13.6134 13.1375ZM9.64218 19.4375C9.84111 19.4375 10.0319 19.3584 10.1725 19.2178C10.3132 19.0771 10.3922 18.8864 10.3922 18.6875C10.3922 18.4886 10.3132 18.2978 10.1725 18.1571C10.0319 18.0165 9.84111 17.9375 9.64218 17.9375C9.44328 17.9375 9.25251 18.0165 9.11187 18.1571C8.9712 18.2978 8.89218 18.4886 8.89218 18.6875C8.89218 18.8864 8.9712 19.0771 9.11187 19.2178C9.25251 19.3584 9.44328 19.4375 9.64218 19.4375Z" fill="white" stroke="black" stroke-width="0.05"/>
<path d="M15.1544 8.51372C15.0734 8.60396 15.0053 8.70491 14.9519 8.81372C14.7006 9.56372 15.3719 10.1262 15.7619 10.94C15.9223 11.3061 15.9872 11.7071 15.9505 12.1052C15.9137 12.5033 15.7766 12.8856 15.5519 13.2162C15.3869 13.4337 15.4356 13.4975 15.2219 13.7187C15.1394 13.805 15.0494 13.9137 15.0794 14.2212C15.2144 14.1725 15.4056 14.2962 15.4431 14.4087C15.5406 14.3562 15.6756 14.375 15.7244 14.435C15.8894 14.36 16.0244 14.3975 16.1706 14.5475C16.2944 14.5325 16.4331 14.5475 16.5569 14.6862C16.6244 14.5512 16.7594 14.4987 16.8569 14.5325C16.8456 14.3562 17.0181 14.2325 17.1719 14.3C17.1598 14.2505 17.1613 14.1986 17.1761 14.1499C17.1909 14.1011 17.2185 14.0572 17.256 14.0228C17.2935 13.9883 17.3396 13.9646 17.3894 13.9539C17.4393 13.9433 17.491 13.9463 17.5394 13.9625C17.7156 13.8275 18.0644 13.8162 18.2369 14.0187C17.9256 13.9325 17.9369 14.2625 17.6744 14.2325C17.7419 14.4237 17.5694 14.5362 17.3969 14.6C17.5094 14.5475 17.6294 14.4837 17.6669 14.5512C17.7644 14.465 17.9556 14.4987 18.0044 14.54C18.1319 14.5025 18.2556 14.5325 18.3119 14.6862C18.4881 14.7912 18.6044 15.0612 18.4769 15.2637C18.4394 15.0537 18.2931 15.0612 18.2369 14.975C18.1019 15.0237 17.9669 15.0237 17.9256 14.9375C17.8506 15.0125 17.5881 15.0837 17.4756 14.9675C17.4306 15.14 17.2806 15.2862 17.1044 15.2862C17.1531 15.4212 17.0181 15.65 16.9131 15.7662C17.0781 15.8525 17.0256 16.0475 16.9881 16.1637C17.2431 16.2012 17.0256 16.4262 17.4644 16.5687C17.2506 16.6362 16.8344 16.5687 16.7781 16.3062C16.5644 16.2987 16.4219 16.085 16.4294 15.8637C16.2644 15.71 16.2419 15.4887 16.4669 15.3312C16.2756 15.3912 16.1669 15.08 15.8894 15.2075C15.7506 15.2712 15.3831 15.1625 15.3869 15.035C15.3306 15.1287 14.9744 15.0912 14.9294 14.9262C14.8131 14.99 14.5431 14.885 14.5469 14.7237C14.3969 14.7912 14.1944 14.6712 14.2056 14.5175C14.0631 14.4987 14.0481 14.3712 14.0556 14.2662C13.9319 14.2062 13.9656 14.0862 14.0181 13.9437C13.9281 13.8462 13.9656 13.7112 14.0331 13.5837C13.9394 13.4862 13.9581 13.3737 13.9844 13.235C13.5231 13.1975 12.9419 13.085 11.6106 12.6762C9.6006 12.0575 9.0606 13.5087 9.5031 14.4162C10.0169 15.4662 9.44685 15.6912 9.61935 16.4712C9.80685 16.5087 9.9006 16.6662 9.88935 16.8312C10.0019 16.835 10.0769 16.9362 10.0394 17.1312C10.0903 17.1228 10.1425 17.1263 10.1919 17.1412C10.2413 17.1562 10.2866 17.1822 10.3244 17.2175C10.3919 17.09 10.6169 17.06 10.7294 17.2062C10.9806 17.1875 11.1081 17.3937 11.0969 17.6412C11.1574 17.7547 11.1843 17.8831 11.1743 18.0113C11.1643 18.1395 11.1179 18.2622 11.0406 18.365C11.0556 18.2637 11.0406 18.1212 11.0369 18.0312C11.0256 17.8737 10.8044 17.84 10.8269 17.7087C10.7144 17.72 10.6019 17.6562 10.5644 17.57C10.5309 17.5989 10.4904 17.6185 10.4471 17.6271C10.4036 17.6356 10.3588 17.6328 10.3169 17.6187C10.4444 17.675 10.5494 17.9075 10.5081 18.0612C10.5756 18.1775 10.5606 18.3912 10.4819 18.4812C10.4444 18.6687 10.2944 18.7362 10.1069 18.6537C10.2156 18.5862 10.2531 18.4662 10.2494 18.365C10.1861 18.3017 10.1475 18.2179 10.1406 18.1287C9.9531 18.1587 9.6906 17.9975 9.6456 17.9337C9.54678 17.9337 9.44895 17.9532 9.35772 17.9912C9.26646 18.0291 9.18363 18.0847 9.11394 18.1547C9.04425 18.2247 8.98908 18.3079 8.95161 18.3993C8.91414 18.4907 8.89509 18.5886 8.8956 18.6875C8.8731 18.5337 8.6781 18.38 8.70435 18.2487C8.5881 17.8925 8.7531 17.5587 9.2256 17.4912C9.1656 17.3562 9.3681 17.2175 9.2931 17.0637C9.1425 16.7898 8.95722 16.5365 8.74185 16.31C8.90685 16.0287 8.85435 15.6537 8.7606 15.4212C8.62185 15.0875 8.4906 15.17 7.99935 15.71C7.19685 16.5912 6.12435 16.3475 5.17935 16.9287C4.9281 17.0787 4.67685 17.1387 4.94685 16.8687C5.21685 16.5987 5.92935 16.3287 6.39435 16.0962C7.26435 15.6612 7.99935 14.9375 8.2881 13.5275C8.96685 10.2125 11.4756 11.3075 13.0581 11.9225C14.5469 12.5037 14.2769 11.1912 13.5231 10.3962C12.6156 9.44747 12.7994 8.69747 13.2231 8.09747C13.9844 7.99247 15.4506 8.25872 15.1544 8.51372Z" fill="white" stroke="black" stroke-width="0.05"/>
<path d="M17.8465 16.6557C17.9551 16.6557 18.0626 16.6343 18.1629 16.5928C18.2633 16.5512 18.3544 16.4903 18.4312 16.4135C18.508 16.3367 18.5689 16.2456 18.6104 16.1453C18.652 16.045 18.6734 15.9374 18.6734 15.8288C18.6734 15.7202 18.652 15.6127 18.6104 15.5124C18.5689 15.4121 18.508 15.3209 18.4312 15.2441C18.3544 15.1674 18.2633 15.1065 18.1629 15.0649C18.0626 15.0233 17.9551 15.002 17.8465 15.002C17.6277 15.002 17.4179 15.0889 17.2631 15.2436C17.1084 15.3983 17.0215 15.6082 17.0215 15.827C17.0215 16.0458 17.1084 16.2556 17.2631 16.4103C17.4179 16.565 17.6277 16.652 17.8465 16.652V16.6557Z" fill="white" stroke="black" stroke-width="0.05"/>
<path d="M14.6928 8.55078C14.5053 9.36453 14.6628 9.73203 14.9328 10.0883C15.4916 10.827 15.9378 12.5108 15.3003 13.6133" stroke="black" stroke-width="0.05"/>
<path d="M15.6574 12.6612C15.7324 12.635 15.8824 12.5412 15.9124 12.3837M15.7174 12.3087C15.7399 12.17 15.9574 12.11 15.9612 11.96M15.7212 11.765C15.7062 11.6187 15.9387 11.4875 15.9049 11.345M15.5937 11.2437C15.5749 11.1612 15.7887 11.0075 15.7287 10.8762M15.4362 10.7337C15.3912 10.6437 15.5374 10.5387 15.4737 10.4412M15.2037 10.3287C15.1887 10.2687 15.2787 10.13 15.2299 10.0475M14.9712 9.85245C14.9899 9.8262 15.0687 9.76995 15.0387 9.6987M14.8137 9.49995C14.8437 9.48495 14.9374 9.45495 14.9262 9.38745" stroke="black" stroke-width="0.05" stroke-linecap="round"/>
<path d="M9.97569 18.6092C9.78819 18.5417 9.54444 18.6355 9.49569 18.8005M9.64194 18.9505C9.66444 18.7855 9.91569 18.7142 9.99069 18.7892C9.83319 18.703 9.75444 19.0142 9.89694 19.0217M11.1944 15.1292C11.0819 15.1892 11.0444 15.3992 11.1944 15.5605M11.3669 15.178C11.2882 15.2455 11.2919 15.448 11.4119 15.4967C11.3107 15.4217 11.4119 15.298 11.4869 15.2942C11.5582 15.2905 11.6069 15.3767 11.5169 15.463M18.1544 15.658C17.8844 15.583 17.6669 15.898 17.9144 16.1792C17.9069 15.9092 18.1019 15.7292 18.3382 15.778M18.2257 15.9655C18.1988 15.9655 18.1731 15.9761 18.1541 15.9951C18.1351 16.0141 18.1244 16.0399 18.1244 16.0667C18.1244 16.1192 18.1694 16.1717 18.2444 16.1717C18.2932 16.1717 18.3344 16.1155 18.3344 16.0705M19.1819 10.033C19.2269 10.198 19.4519 10.2692 19.6319 10.228M19.6319 10.123C19.4932 10.1267 19.3769 9.99547 19.3844 9.88672C19.3844 9.96922 19.5719 10.0067 19.6319 9.95422" stroke="black" stroke-width="0.05" stroke-linecap="round" stroke-linejoin="round"/>
<path d="M10.0472 15.6384C10.0097 15.5409 10.1597 15.4434 10.1672 15.3534C10.1709 15.2597 10.3397 15.1884 10.5159 15.3609M10.4334 14.3334L10.3397 14.3784M10.7672 14.8584C10.7259 14.8584 10.6397 14.8584 10.5947 14.8247M10.5947 15.0422C10.5647 15.0609 10.4897 15.0872 10.4447 15.0984M8.94093 17.9597C8.93343 18.0459 9.02343 18.1734 9.06843 18.2109M9.31593 17.7534C9.28935 17.7954 9.27135 17.8421 9.26298 17.891C9.25461 17.94 9.25605 17.9901 9.26718 18.0384M10.0359 18.0384C9.94968 17.9822 10.0059 17.8359 9.99843 17.7384C9.98718 17.6409 10.0997 17.4872 10.3172 17.6184M9.22593 17.4872C9.31218 17.4722 9.40218 17.4759 9.46218 17.5022M10.3247 17.2134C10.2945 17.2581 10.2764 17.3097 10.2722 17.3634M10.7334 17.2022C10.6659 17.2022 10.6059 17.2509 10.5759 17.2997M9.79593 14.7309C9.87093 14.7572 10.0734 14.8809 10.0809 15.0084M10.6172 14.1009C10.3809 14.0972 10.2872 13.8572 10.4672 13.8572M11.0409 14.4272C10.9509 14.4647 10.9922 14.6222 11.1234 14.7009M10.4747 15.9422C10.4297 15.8822 10.4897 15.7172 10.6397 15.7659M10.8272 17.7047C10.8384 17.5547 11.0222 17.4722 11.0972 17.6372M10.1409 18.1247C10.1297 17.9634 10.2159 17.9109 10.2834 17.8997C10.3584 17.8922 10.4597 17.9522 10.5084 18.0572M8.70468 18.2447C8.71218 18.1472 8.79468 18.0459 8.88093 18.0609M17.5434 13.9584C17.4797 14.0034 17.4384 14.2097 17.6747 14.2284M17.1759 14.2997C17.1759 14.3222 17.2059 14.3559 17.2247 14.3747M18.3122 14.6859C18.2522 14.6372 18.0872 14.8359 18.2372 14.9747M16.7747 16.3097C16.7409 16.1709 16.8684 16.1334 16.9922 16.1634M16.4672 15.3309C16.5422 15.2859 16.6172 15.2297 16.7072 15.2072M16.4297 15.8634C16.4297 15.7509 16.4897 15.6497 16.5422 15.6234M16.8572 14.5322C16.8515 14.6536 16.8829 14.774 16.9472 14.8772M18.0047 14.5397C17.9334 14.5622 17.8734 14.5884 17.8472 14.6484M17.9259 14.9372C17.9634 14.9072 18.0009 14.8734 18.0159 14.8509M19.7522 10.7184C19.7522 10.8534 19.5834 10.9284 19.4709 10.8422M20.1197 10.7259C20.1947 10.7822 20.4534 10.7259 20.3934 10.5759M19.8009 11.5022C19.7308 11.4816 19.6674 11.4428 19.6172 11.3897M20.3334 11.1009C20.2472 11.1197 20.1872 11.1009 20.1459 11.0822M18.9609 11.5847C19.0454 11.581 19.1282 11.5606 19.2047 11.5247M18.8259 10.7297C18.7622 10.7222 18.7134 10.7334 18.6797 10.7597M19.7972 10.9659C19.7785 11.0401 19.7396 11.1076 19.6847 11.1609" stroke="black" stroke-width="0.05" stroke-linecap="round"/>
<path d="M18.6574 11.1798C18.7774 11.1273 18.9274 11.5361 19.2199 11.3936M19.2424 10.9661C19.2018 11.0289 19.1785 11.1013 19.1749 11.1761" stroke="black" stroke-width="0.05" stroke-linecap="round" stroke-linejoin="round"/>
<path d="M13.4625 10.3396C13.5 10.3321 13.5713 10.3208 13.5863 10.2721M8.49375 14.8358C8.64 14.9183 8.74125 15.0571 8.68125 15.2633M15.135 9.89333C15.18 9.92333 15.3413 9.92333 15.435 9.89333M15.5475 9.99083C15.5475 10.0583 15.5663 10.3133 15.435 10.3658M15.4838 10.3358C15.6038 10.3733 15.8438 10.3583 15.9225 10.1371M15.7538 10.3246C15.8175 10.4221 15.8362 10.6096 15.6487 10.7108M15.7987 10.4858C15.9412 10.5308 16.2637 10.5383 16.23 10.2608M16.1175 10.4858C16.2187 10.6171 16.6425 10.7783 16.575 10.4971M15.7313 10.8721C15.8925 10.9133 16.125 10.8008 16.0313 10.5121M16.4925 10.6583C16.515 10.7708 17.055 10.8833 16.9837 10.6321M16.8825 10.7783C16.9838 11.0108 17.52 10.9921 17.3513 10.6808M17.265 10.9246C17.37 11.0521 17.8462 10.9771 17.655 10.6621M17.6513 10.9171C17.9475 11.1421 18.2888 10.8233 17.9138 10.5908M18.0862 10.8458C18.3487 11.0521 18.6675 10.6771 18.4388 10.5721M16.0237 10.7596C16.1062 10.7821 16.2788 10.7746 16.32 10.6246M16.2525 10.7258C16.245 10.9433 16.6125 11.0258 16.7063 10.7746M16.5825 10.9133C16.65 11.0596 16.9763 11.1158 17.0288 10.9096M16.9763 11.0071C17.0288 11.1496 17.31 11.1346 17.3888 10.9846M17.2837 11.0821C17.37 11.2696 17.73 11.2696 17.8087 10.9958M17.7487 11.1158C17.8875 11.2021 18.1875 11.1683 18.1612 10.8983M18.105 11.0933C18.315 11.2621 18.6075 11.0971 18.4612 10.8121M18.45 11.3146C18.5625 11.2958 18.6187 11.0746 18.5025 11.0146M15.8775 11.3521C16.1025 11.2283 16.1513 11.0146 15.99 10.8083M16.0725 11.1421C16.2188 11.2283 16.4925 11.1346 16.5413 10.9246M16.2713 11.1646C16.3538 11.2696 16.3688 11.4008 16.26 11.5208M16.335 11.2996C16.5938 11.1421 16.9125 11.4346 16.6725 11.6146M16.635 11.2846C16.6913 11.2696 16.7925 11.1646 16.8 11.0446M16.7475 11.3971C16.8563 11.2846 17.58 11.5096 17.1225 11.7458M17.085 11.0933C17.2275 11.1458 17.2988 11.3446 17.085 11.4121M17.2725 11.5771C17.4225 11.4158 17.91 11.5171 17.7337 11.7196M17.6175 11.5133C17.7037 11.2171 18.2212 11.4008 18.0525 11.5208M17.5125 11.2208C17.5275 11.2771 17.5313 11.4196 17.4375 11.4983M17.9475 11.1608C17.958 11.1941 17.9607 11.2292 17.9555 11.2637C17.9503 11.2981 17.9373 11.3309 17.9175 11.3596M18.2737 11.1646C18.3037 11.2171 18.3487 11.3183 18.2437 11.4008M14.1413 8.94458C14.145 9.21833 14.2425 9.40208 14.6138 9.22958M14.2575 9.27083C14.07 9.51833 14.28 9.78458 14.6438 9.51833M13.6875 9.38708C13.9388 9.65708 14.3888 9.46208 14.1 9.04958M14.4 9.61958C14.355 9.88583 14.5725 9.93833 14.7488 9.81833M13.4663 9.43208C13.5113 9.69833 13.785 9.90833 14.0513 9.74708M13.7925 9.79958C13.7925 10.1821 14.3175 10.2233 14.4413 9.82958M14.2538 10.0696C14.4225 10.4183 14.79 10.2758 14.91 10.0658M13.8825 9.51458C13.95 9.68333 14.085 9.87083 14.3963 9.73208M12.915 9.43208C12.96 9.57083 13.2113 9.73958 13.5 9.54458M13.095 9.61208C12.9375 9.83708 13.245 10.0508 13.62 9.71333M13.2788 9.88958C13.3388 10.2083 13.4663 10.4671 13.9163 10.0546M13.6913 10.2196C13.8563 10.4221 14.1075 10.5458 14.3438 10.2046" stroke="black" stroke-width="0.05"/>
<path d="M14.5238 10.2793C14.5088 10.523 14.5538 10.643 14.745 10.6318C14.895 10.6243 15.0338 10.508 15.1163 10.3805M14.7113 10.6318C14.7038 10.9093 14.9213 11.1268 15.33 10.8455M14.88 10.958C14.805 11.1643 15.0338 11.5018 15.4875 11.3293M13.9163 10.4068C13.89 10.6693 14.1338 10.8493 14.5313 10.508M14.1113 10.6993C14.1263 10.9168 14.3738 11.1793 14.7338 10.8005M14.2838 10.9768C14.2575 11.348 14.5988 11.453 14.8875 11.168M13.77 10.6993C13.845 10.7068 13.9088 10.6393 13.9463 10.5868M13.9313 10.9693C13.9988 10.9843 14.1188 10.9243 14.1563 10.8455M14.1038 11.408C14.1788 11.4943 14.4413 11.4343 14.475 11.3218M14.3925 11.4043C14.535 11.7418 14.9213 11.7305 15.0825 11.348M15.0075 11.483C15.0825 11.6818 15.2663 11.8055 15.5663 11.738M15.1538 11.6855C14.985 11.9593 15.2063 12.2855 15.585 11.9668M15.2475 12.098C15.2288 12.2705 15.3863 12.4693 15.6038 12.4918M14.5313 11.5918C14.475 11.9818 14.7563 12.1693 15.105 11.9593M14.1225 11.7793C14.2125 11.8505 14.3775 11.858 14.535 11.8018M14.7225 12.0268C14.6325 12.3568 14.97 12.593 15.2588 12.2255M14.25 11.8318C14.2575 12.0005 14.4188 12.1843 14.7038 12.1318M15.5025 12.4693C15.3075 12.5968 15.27 12.8293 15.54 12.9793M15.03 12.4018C15.0375 12.5968 15.1313 12.7093 15.3488 12.728M14.745 12.3005C14.4525 12.563 14.7375 12.8743 15.0825 12.6118M14.9475 12.6943C14.85 12.998 15.21 13.1818 15.405 12.8743M14.3475 12.0493C14.2425 12.3493 14.3775 12.5443 14.625 12.5255M13.965 11.9893C13.98 12.1693 14.1338 12.233 14.31 12.1918M14.0775 12.1768C13.9463 12.428 14.145 12.563 14.4075 12.4693M15.195 13.0318C15.1575 13.1893 15.18 13.3018 15.4163 13.358M15.2138 13.2568C14.9288 13.3843 14.9025 13.6618 15.1238 13.838M14.9813 12.9493C14.9472 12.9791 14.9207 13.0166 14.904 13.0588C14.8873 13.1009 14.8809 13.1464 14.8853 13.1915C14.8897 13.2366 14.9048 13.28 14.9293 13.3181C14.9538 13.3562 14.9871 13.3879 15.0263 13.4105M13.7138 12.068C13.5525 12.2293 13.7063 12.6755 14.07 12.4318M14.6588 12.6305C14.4338 12.818 14.535 13.148 14.9025 13.058M14.2913 12.4955C14.175 12.8218 14.2838 12.938 14.5463 12.9418" stroke="black" stroke-width="0.05"/>
<path d="M13.474 12.0536C13.4381 12.0783 13.4078 12.1103 13.3851 12.1475C13.3625 12.1848 13.348 12.2264 13.3427 12.2697C13.3374 12.3129 13.3413 12.3569 13.3543 12.3985C13.3672 12.4401 13.3888 12.4785 13.4177 12.5111C13.504 12.6086 13.669 12.5636 13.7177 12.4399M13.0577 11.9224C12.8365 12.2074 13.0577 12.5449 13.3727 12.4474M14.2465 12.7699C14.0215 12.8486 13.8452 13.0549 13.984 13.2386C14.0702 13.3436 14.4265 13.3586 14.5277 12.9461M13.8377 12.5036C13.7065 12.6911 13.7477 12.8711 13.9877 12.9611M13.8227 12.8561C13.6802 12.9311 13.5902 13.0249 13.624 13.1936M13.5077 12.5599C13.4552 12.7849 13.519 12.9274 13.6577 12.9949M13.504 12.8299C13.2865 12.8149 13.174 12.9049 13.249 13.1224M13.2677 12.8824C13.054 12.8074 13.0202 12.6199 13.114 12.4324M13.084 12.7174C12.8515 12.7249 12.7465 12.8411 12.7465 12.9986" stroke="black" stroke-width="0.05"/>
<path d="M12.7688 11.8138C12.6 11.885 12.5438 12.1138 12.6075 12.2375C12.6713 12.3613 12.87 12.3725 12.99 12.29M12.3 11.6338C12.1463 11.8063 12.3225 12.1475 12.6 12.065M11.9025 11.4988C11.76 11.7013 11.9175 12.0388 12.2888 11.9413M12.3075 12.8825C12.27 12.6425 12.5213 12.485 12.8325 12.7963M12.6825 12.3088C12.6383 12.3485 12.6041 12.398 12.5826 12.4534C12.5611 12.5088 12.553 12.5684 12.5588 12.6275M11.5088 11.3825C11.3475 11.6525 11.5425 11.9 11.8838 11.8025M12.4013 12.0538C12.1763 12.2788 12.2513 12.5075 12.42 12.6388M12.255 12.32C11.9138 12.3238 11.895 12.7213 12.1725 12.845M11.9963 11.9225C11.8538 12.02 11.8088 12.2863 12.0525 12.3913M11.985 12.5188C11.8388 12.4513 11.6663 12.5338 11.6813 12.7025M11.7675 12.5225C11.6363 12.215 11.2575 12.2675 11.2913 12.5863M11.8725 12.14C11.7938 12.155 11.6288 12.2038 11.565 12.3275M11.5875 11.7913C11.5574 11.8224 11.5354 11.8605 11.5235 11.9022C11.5117 11.9439 11.5103 11.9879 11.5196 12.0302C11.5289 12.0725 11.5485 12.1119 11.5767 12.1448C11.6049 12.1778 11.6408 12.2032 11.6813 12.2188M11.1263 11.3C11.0963 11.51 11.1788 11.6113 11.4413 11.5925M11.2163 11.5663C11.1188 11.8175 11.2538 11.93 11.5163 11.915M11.2763 11.8775C11.1225 12.0613 11.2275 12.2563 11.3775 12.3388M11.205 12.11C10.9275 12.0725 10.8863 12.395 10.98 12.5413" stroke="black" stroke-width="0.05"/>
<path d="M10.9847 11.2812C10.8159 11.3563 10.7184 11.5663 10.8084 11.6938C10.9022 11.825 11.0859 11.7838 11.1834 11.7163M10.8684 11.7538C10.7259 11.9675 10.8534 12.1287 11.0034 12.1887" stroke="black" stroke-width="0.05"/>
<path d="M10.3245 11.2544C10.212 11.3706 10.2832 11.6069 10.5495 11.6144C10.7707 11.6144 10.8795 11.4119 10.812 11.2656M10.512 11.6144C10.4257 11.8056 10.482 12.0156 10.812 11.9819M10.947 12.2819C10.7482 12.1919 10.4745 12.2819 10.5907 12.5256M10.5645 11.9406C10.482 12.0569 10.5082 12.2219 10.602 12.3231M10.5495 12.2481C10.4145 12.2744 10.2832 12.3456 10.362 12.5594M10.3432 12.3869C10.1707 12.3344 9.94947 12.4619 10.0807 12.6381M10.0545 12.4694C9.90447 12.4431 9.72822 12.6044 9.87072 12.7619M9.81447 12.6306C9.67947 12.6681 9.51822 12.8181 9.66072 12.9419M10.497 11.8731C10.302 11.9594 10.2832 12.1769 10.3732 12.3381M10.2907 11.4756C10.002 11.5881 10.0057 11.9706 10.3282 12.0906M10.1895 12.0044C10.017 12.1056 9.98322 12.3006 10.0995 12.4244M9.88572 11.3294C9.77322 11.3669 9.78072 11.7231 10.0882 11.7156M9.56697 11.4494C9.33447 11.6031 9.61572 11.9931 9.99072 11.7119M9.78447 11.8131C9.75072 11.9706 9.79572 12.1431 10.0507 12.1656M9.79947 12.0231C9.61572 12.0906 9.58197 12.4694 9.91197 12.4994M9.21447 11.6819C8.97822 11.8994 9.40947 12.0869 9.56697 11.7719M8.88822 12.0419C8.77197 12.1844 9.17697 12.5519 9.35697 11.9369M9.39822 11.9256C9.40947 12.0756 9.49572 12.1581 9.67197 12.1694M9.67197 12.3081C9.38322 12.3531 9.29322 12.7094 9.61197 12.7881M9.14322 12.2631C9.13197 12.3944 9.27447 12.5069 9.43197 12.4844M9.57822 12.7769C9.31572 12.8369 9.28197 13.1744 9.51447 13.1519M9.39447 13.4669C9.17697 13.4031 9.16947 13.1444 9.36447 13.0469" stroke="black" stroke-width="0.05"/>
<path d="M9.21375 13.2423C9.03 13.3548 9.10125 13.6173 9.19875 13.6548C9.29625 13.6923 9.375 13.6473 9.38625 13.5648M9.3675 13.9398C9.39 14.0636 8.92125 14.0148 9.16125 13.6248M9.16125 13.9586C9.00375 14.2061 9.25875 14.4086 9.42 14.1948M9.18 14.2548C9.11625 14.4536 9.35625 14.5961 9.51 14.4423M8.6625 12.4023C8.57625 12.5786 9.01125 12.6461 9.0375 12.2786M8.5425 12.6648C8.45625 13.0136 9.1125 12.9423 8.94375 12.4923M8.95875 12.7248C9.00237 12.7452 9.05019 12.7551 9.09831 12.7537C9.14646 12.7523 9.19359 12.7395 9.23592 12.7166C9.27825 12.6936 9.31458 12.661 9.342 12.6214C9.36942 12.5818 9.38715 12.5363 9.39375 12.4886M9.195 12.7361C9.20691 12.7853 9.22866 12.8316 9.25893 12.8722C9.28923 12.9129 9.32745 12.9469 9.37125 12.9723M8.88 12.8261C8.85 13.0136 9.04125 13.1711 9.255 13.1561M8.91375 13.0098C8.80875 13.1561 8.775 13.4336 9.10875 13.4523M8.4 13.0623C8.3475 13.2123 8.6625 13.3661 8.8425 13.1186M8.3025 13.4448C8.27625 13.5573 8.5575 13.7073 8.715 13.2273M8.59125 13.4711C8.65875 13.5911 8.8875 13.6886 9.02625 13.4523M8.80125 13.5986C8.74125 13.7673 8.9025 13.9248 9.09375 13.8798M8.4375 13.5611C8.4 13.8011 8.68125 13.9398 8.85 13.8161M8.25375 13.6661C8.17125 13.9736 8.56875 14.0898 8.71875 13.8573M8.6175 13.9511C8.6325 14.1236 8.9025 14.2736 9.1125 14.1311M8.13375 14.0936C8.115 14.1723 8.4375 14.2511 8.48625 13.9811M8.32125 14.1648C8.39625 14.3598 8.65875 14.4086 8.80875 14.1648M8.7225 14.2623C8.76 14.4498 8.9925 14.5511 9.2025 14.4236M9.28875 14.4986C9.23625 14.7423 9.49125 14.9411 9.64875 14.8061M8.87625 14.4536C8.80125 14.7236 9.13875 14.8773 9.32625 14.7273M8.47125 14.3148C8.4525 14.5698 8.65125 14.7198 8.87625 14.6073M8.04 14.3448C7.9725 14.5061 8.3325 14.6411 8.50125 14.5023M7.81875 14.7911C7.9125 14.8961 8.23125 14.7911 8.2575 14.5548M8.17125 14.7273C8.2875 14.8623 8.565 14.9373 8.67375 14.6448M8.57625 14.7948C8.57625 15.0048 8.94375 15.1548 9.06375 14.7723M9.5025 14.8473C9.465 14.9486 9.5475 15.1098 9.71625 15.1286M9.195 14.7836C9.1725 14.8961 9.34125 15.0611 9.52125 14.9973M9.555 15.0461C9.50625 15.1698 9.5475 15.3498 9.71625 15.3461M9.57 15.2786C9.4425 15.3836 9.495 15.5748 9.67875 15.5786M9.50625 15.4586C9.32625 15.5786 9.39 15.8448 9.62625 15.8298M8.9625 14.9373C8.9625 15.1998 9.28875 15.2373 9.34875 14.9973M9.225 15.1473C9.17625 15.3048 9.3 15.4548 9.49875 15.4098M9.2625 17.0148C9.3075 17.0786 9.4875 16.9698 9.43875 16.8648C9.39 16.7598 9.19875 16.8161 9.22125 16.9286M9.39375 16.8198C9.41625 16.6098 9.16875 16.5761 9.105 16.7598M9.195 16.6511C9.25875 16.5461 9.045 16.3998 8.95875 16.5573M9.03375 16.4936C9.09375 16.3398 8.85375 16.2686 8.835 16.4111M8.77875 16.2086C8.80875 16.1336 9.07875 16.1786 8.96625 16.3398M9.1725 16.5311C9.2775 16.4336 9.0975 16.2386 8.985 16.3061M9.885 16.8273C9.8025 16.8348 9.71625 16.8911 9.77625 17.0711C9.82125 17.1948 10.005 17.1986 10.035 17.1273" stroke="black" stroke-width="0.05"/>
<path d="M9.76962 16.9212C9.68712 16.865 9.50712 16.9587 9.58962 17.1312M9.58962 17.1312C9.64962 17.2625 9.80712 17.2062 9.82962 17.1387M9.58962 17.1312C9.55212 17.2062 9.34962 17.2437 9.30462 17.1687M9.44712 16.9287C9.49212 16.8987 9.57087 16.9362 9.58587 16.9737M9.43587 15.7362C9.29337 15.83 9.37962 16.1112 9.59712 16.0362M9.38712 15.965C9.27462 16.0512 9.37962 16.325 9.58587 16.22M9.42462 16.22C9.34587 16.2987 9.42087 16.5125 9.61962 16.4712M9.39462 16.3287C9.34962 16.31 9.23712 16.3212 9.18837 16.3962M9.26712 15.3462C9.16212 15.4512 9.21462 15.6575 9.40962 15.6762M9.22962 15.5637C9.07962 15.6387 9.07962 15.9387 9.37962 15.95M9.21837 15.9012C9.13212 15.9687 9.17337 16.2312 9.39087 16.1975M9.28587 16.1862C9.25587 16.22 9.24837 16.2987 9.27837 16.3325M9.19212 16.0887C9.11712 16.0887 9.01212 16.145 8.98587 16.2275M8.84712 15.9462C8.87337 15.8712 9.11337 15.8712 9.13212 16.1M9.15462 15.83C9.12087 15.8375 9.05712 15.8675 9.04212 15.935M9.04962 15.1212C8.94837 15.2187 8.89962 15.515 9.21087 15.5712M8.83962 15.7362C8.83962 15.6575 9.05712 15.5862 9.13212 15.7062M8.70087 15.305C8.73087 15.365 8.88087 15.4475 8.97087 15.38M7.92087 14.8325C7.9194 14.8672 7.92561 14.9018 7.93905 14.9338C7.95249 14.9658 7.9728 14.9945 7.9986 15.0178C8.02437 15.041 8.05497 15.0584 8.08821 15.0684C8.12145 15.0785 8.15649 15.0812 8.19087 15.0762C8.35212 15.0575 8.38587 14.9187 8.33712 14.825M8.21712 15.0837C8.10837 15.2112 8.23962 15.395 8.35962 15.3425M8.33712 14.99C8.40087 14.9675 8.60712 14.9375 8.67087 15.035M7.66587 15.0275C7.61712 15.1025 7.91712 15.1737 8.01837 15.035M7.91712 15.1062C7.90587 15.2037 7.95462 15.3687 8.20212 15.2975" stroke="black" stroke-width="0.05"/>
<path d="M8.24277 15.4475C8.28027 15.365 8.10027 15.23 7.95777 15.38C7.81902 15.53 7.98027 15.6987 8.06652 15.6425M7.60152 15.125C7.52652 15.2525 7.80777 15.4812 7.96902 15.2675" stroke="black" stroke-width="0.05"/>
<path d="M7.41438 15.3421C7.31313 15.4471 7.44063 15.6383 7.59063 15.5783C7.74438 15.5221 7.72941 15.3608 7.69191 15.3196" stroke="black" stroke-width="0.05"/>
<path d="M7.21911 15.537C7.13661 15.612 7.21911 15.7845 7.33161 15.7845C7.44411 15.7845 7.51536 15.6983 7.49286 15.582M7.68036 15.522C7.66536 15.6345 7.83036 15.7095 7.93911 15.6045M7.93911 15.402C7.95786 15.3795 7.94661 15.3383 7.92036 15.3158M7.04286 15.6833C6.94911 15.7583 7.15536 15.9683 7.27911 15.777M7.77036 15.6458C7.71036 15.702 7.80786 15.852 7.90536 15.807M7.44036 15.7508C7.45536 15.852 7.65786 15.9308 7.78536 15.7733M7.54911 15.852C7.51911 15.9195 7.58286 16.0208 7.66161 16.0095M9.47286 16.452C9.39786 16.5983 9.63786 16.7708 9.81036 16.5908M9.64536 16.6695C9.60786 16.7483 9.65286 16.8608 9.72036 16.902M9.42036 16.8383C9.43536 16.7633 9.54036 16.6958 9.63411 16.7295M9.29661 16.647C9.30786 16.5795 9.39411 16.5158 9.46161 16.5345M15.0791 14.0783C14.7829 14.187 14.6366 13.6358 14.9816 13.632C14.7754 13.677 14.6141 13.5908 14.5991 13.4783M14.8691 14.0408C14.8016 14.1495 14.9329 14.3258 15.0791 14.2208M15.0416 14.2433C14.9366 14.412 15.3004 14.6708 15.4466 14.4045M15.3304 14.5058C15.3304 14.667 15.7991 14.7683 15.7316 14.4495M15.6866 14.622C15.7991 14.8095 16.2116 14.8283 16.1704 14.547M16.0766 14.742C16.1629 14.8695 16.5716 14.9445 16.5566 14.6858M14.4304 13.1558C14.4866 13.3058 14.6854 13.3583 14.9029 13.2683M14.3029 13.2608C14.4416 13.347 14.2429 13.7445 14.0366 13.5833M14.3066 13.5083C14.4566 13.5795 14.6404 13.527 14.6929 13.3133M14.2279 13.5945C14.4229 13.7595 14.1416 14.097 14.0141 13.9433M14.2991 13.7183C14.3929 13.7858 14.6291 13.7483 14.6516 13.5683M14.5466 13.7183C14.5654 13.8345 14.6591 13.8795 14.7866 13.8833M14.2466 13.8795C14.3441 14.0145 14.5841 14.052 14.6929 13.8758M14.5841 13.977C14.5766 14.1045 14.7191 14.2133 14.8691 14.1833M14.0629 14.262C14.1866 14.3258 14.3254 14.0858 14.2166 13.9245M14.2091 14.5133C14.3591 14.5208 14.3779 14.2958 14.2354 14.1683M14.5504 14.7195C14.6779 14.6895 14.6366 14.4158 14.3329 14.3933M14.9329 14.922C15.0529 14.8883 14.9554 14.5845 14.6216 14.6033M15.3904 15.0308C15.4729 14.9033 15.2029 14.6933 14.9779 14.8058M15.6154 15.2033C15.7654 15.2483 15.8704 14.8508 15.3941 14.9145M15.8929 15.2033C16.0241 15.1658 16.1179 14.9333 15.7354 15.0083M16.1854 15.222C16.2979 15.282 16.3504 14.9408 15.9979 15.0345M14.2354 14.172C14.3816 14.2508 14.6104 14.157 14.5879 13.9733M14.5316 14.1308C14.5804 14.217 14.5616 14.3858 14.4679 14.4308M14.5429 14.3333C14.6404 14.3708 14.7716 14.337 14.8504 14.1833M14.7154 14.3333C14.7416 14.4008 14.7529 14.5358 14.6891 14.6033M14.7379 14.4495C14.8466 14.5095 14.9704 14.4308 15.0229 14.3183M14.9554 14.4158C15.0304 14.4645 15.1016 14.6895 14.9704 14.7833M15.0454 14.6783C15.1354 14.6783 15.2704 14.6783 15.3566 14.5658M15.2929 14.6295C15.3754 14.652 15.4729 14.787 15.4391 14.907M15.4429 14.8658C15.5366 14.8545 15.6941 14.7908 15.7391 14.6783M15.6941 14.7533C15.7357 14.7778 15.7692 14.8139 15.7906 14.8572C15.8119 14.9006 15.8201 14.9492 15.8141 14.997M15.8141 14.9183C15.9079 14.9145 15.9904 14.8658 16.0129 14.7645M15.9904 14.832C16.0579 14.8545 16.1404 14.9333 16.1441 15.0233M16.1329 14.967C16.2004 14.9558 16.2491 14.9145 16.2941 14.847M16.4779 14.8358C16.5641 14.922 16.4479 15.2108 16.2679 15.1583M14.6216 8.98203C14.4454 9.09078 13.9354 9.05703 14.1866 8.63703M14.6741 8.69703C14.3179 8.83953 13.8866 8.56578 14.3366 8.27328M14.2166 8.17578C13.9241 8.17578 13.7254 8.64828 14.1191 8.81328M13.0729 8.37453C12.9979 8.52453 13.2716 8.68953 13.4591 8.53953C13.6054 8.42328 13.5941 8.10828 13.5079 7.98828M12.9229 8.73078C12.8254 9.04953 13.5379 9.06828 13.4254 8.56203M12.8854 9.20703C12.9079 9.44703 13.5641 9.36828 13.3541 8.88078M13.4291 8.74578C13.4816 8.82078 13.6279 8.94453 13.8754 8.91828M13.5379 8.41203C13.5604 8.49828 13.7066 8.56203 13.8941 8.49828M6.95286 15.7545C6.78411 15.8708 7.04286 16.0583 7.13661 15.852M6.82161 15.8445C6.65661 15.9645 6.91161 16.152 7.00536 15.9458M6.68286 15.9345C6.51786 16.0545 6.77286 16.2383 6.87036 16.0358M6.54036 16.017C6.37911 16.1033 6.56661 16.3095 6.72786 16.1295M6.38286 16.0958C6.22161 16.182 6.40911 16.3883 6.57036 16.2083M7.19286 15.8483C7.18911 15.972 7.42161 16.0208 7.50786 15.837M7.33911 15.9608C7.26411 16.0545 7.39911 16.167 7.47036 16.1258M7.02786 15.9458C7.02036 16.0508 7.22286 16.1108 7.32036 15.9945M7.13661 16.0545C7.07286 16.137 7.20036 16.2533 7.28661 16.2195M6.89286 16.0395C6.90036 16.122 7.01661 16.2158 7.14036 16.1633M6.96786 16.152C6.91911 16.1933 6.94161 16.2945 7.00911 16.3283M6.71661 16.1408C6.69786 16.2158 6.82536 16.3508 6.95661 16.2645M6.74286 16.227C6.66786 16.2908 6.67536 16.3808 6.77286 16.3958M6.55536 16.2195C6.54786 16.272 6.61161 16.3545 6.69411 16.3433M6.14286 16.2158C6.06786 16.257 6.26286 16.467 6.38661 16.272M5.95161 16.302C5.85411 16.347 6.09411 16.5795 6.20286 16.3433M6.57786 16.2945C6.50286 16.3095 6.45411 16.4183 6.51786 16.4633M6.33036 16.332C6.32286 16.377 6.41661 16.4445 6.49161 16.422M6.27036 16.3508C6.19536 16.3958 6.23661 16.5233 6.32286 16.5045M6.01161 16.437C5.94411 16.4858 5.99286 16.587 6.08661 16.5645M6.13536 16.4295C6.13536 16.4558 6.19911 16.497 6.24786 16.4783M5.77911 16.3845C5.69286 16.422 5.70036 16.632 5.98536 16.5195M5.58786 16.4708C5.46786 16.527 5.50911 16.6883 5.76786 16.5345M5.78661 16.5458C5.75661 16.572 5.72286 16.677 5.84286 16.6358M5.57286 16.5983C5.52411 16.6395 5.55411 16.7295 5.65911 16.6958M5.32161 16.6133C5.23536 16.662 5.42661 16.7295 5.55411 16.5945M5.38161 16.6733C5.34411 16.7108 5.34411 16.827 5.44161 16.7858M5.13411 16.722C5.07786 16.7633 5.17161 16.8233 5.35911 16.7408M5.20911 16.782C5.13786 16.8383 5.14536 16.9095 5.24661 16.887M5.00661 16.812C4.93161 16.8833 5.04036 16.9283 5.17161 16.872M5.00661 16.8908C4.87911 16.947 4.93536 17.0558 5.01411 17.0145M9.28161 17.2583C9.25161 17.322 9.34911 17.3745 9.44286 17.3595C9.52911 17.3483 9.61536 17.2733 9.54786 17.172M9.55161 17.2995C9.64161 17.367 9.79536 17.2883 9.79536 17.187" stroke="black" stroke-width="0.05"/>
<path d="M14.88 7.06273C14.4938 6.87523 13.6913 6.51523 13.4625 6.80398C13.6725 6.71773 14.28 6.80773 14.7825 7.27273L14.88 7.06648V7.06273Z" fill="white" stroke="black" stroke-width="0.05"/>
<path d="M15.112 7.04345C14.6658 6.5222 14.3995 6.63845 14.0808 6.4622C13.7808 6.29345 13.3008 6.2597 13.207 6.52595C13.6458 6.3122 14.0508 6.63845 14.302 6.68345C14.6395 6.73595 14.8345 7.0022 14.9358 7.1222L15.112 7.0472V7.04345ZM16.7958 6.97595C16.5633 6.4472 16.0683 6.58595 15.8508 6.36095C15.532 6.03094 14.7258 5.72344 14.3883 5.95219C15.1233 5.91469 15.4383 6.45845 15.8283 6.6497C16.1095 6.7847 16.4095 7.07345 16.7958 6.97595Z" fill="white" stroke="black" stroke-width="0.05"/>
<path d="M15.9258 6.91954C15.532 6.42829 14.9208 5.99329 14.6433 6.15454C15.0108 6.17704 15.127 6.43204 15.3858 6.59704C15.6483 6.75829 15.532 6.99829 15.9258 6.91954ZM14.0433 7.78954C13.6308 7.63579 12.817 7.55704 12.4383 8.02954C13.0683 8.13829 14.0133 8.07829 14.0433 7.78954Z" fill="white" stroke="black" stroke-width="0.05"/>
<path d="M13.965 7.97324C13.5525 7.77824 13.2263 8.04824 12.8363 8.01074C12.0938 7.93574 11.5613 7.98074 11.4938 8.34074C11.9175 7.95824 12.6338 8.27324 12.9225 8.19449C13.2113 8.11949 14.2838 8.18324 14.6213 8.32949C14.4488 8.11574 14.1788 8.05949 13.965 7.97324ZM15.27 6.86699C15.1725 6.54824 15.18 6.21074 15.6563 6.23324C15.5363 6.08324 15.0938 6.00824 15.0188 6.56699C14.4938 6.18074 13.9163 6.11324 13.8113 6.44699C14.0813 6.21449 14.5013 6.38324 15.0038 6.95324C15.0874 6.91067 15.1773 6.88157 15.27 6.86699Z" fill="white" stroke="black" stroke-width="0.05"/>
<path d="M14.546 7.30663C14.246 7.11163 13.841 6.80038 14.5497 6.67288C14.2497 6.51163 13.7997 6.58288 13.8485 7.14163C13.0385 6.81538 12.4572 6.92413 12.3335 7.25038C12.1985 7.60663 12.701 7.80538 12.7872 7.57663C12.6972 7.61413 12.3822 7.50913 12.5472 7.30663C12.7122 7.10413 13.5522 7.25788 14.351 7.67413C14.576 7.78663 15.3372 7.77163 14.546 7.30663Z" fill="white" stroke="black" stroke-width="0.05"/>
<path d="M14.3322 7.8389C14.1034 7.3664 13.3534 7.7939 13.2034 7.3364C12.9934 8.00765 14.2684 7.6364 14.3322 7.8389ZM19.0984 8.3489C19.2559 8.42765 19.3909 8.3039 19.1509 8.21015C19.3084 8.28515 19.4472 8.1689 19.2072 8.0714C19.3647 8.1464 19.4997 8.03015 19.2597 7.93265C19.1959 7.9964 19.1059 8.23265 19.0984 8.3489ZM19.1809 7.4414C19.5297 7.0739 19.1547 6.95015 19.5784 6.5714C19.9272 6.2639 19.6459 6.05765 19.9722 5.8214C20.0809 5.74265 20.3097 5.5889 20.3322 5.4314C20.4709 5.78015 19.8972 5.8289 19.9347 6.38765C19.9609 6.7439 19.7172 6.7139 19.6272 7.31765C19.6084 7.4414 19.5184 7.72265 19.1809 7.4414Z" fill="white" stroke="black" stroke-width="0.05"/>
<path d="M19.3348 7.60677C19.5298 7.19427 19.751 7.19802 19.8598 7.03677C20.0623 6.72552 20.4898 7.08927 20.8535 6.81177C20.7898 7.20552 20.3023 7.06677 20.0885 7.31802C19.8785 7.56927 19.7023 7.68177 19.3385 7.60677H19.3348Z" fill="white" stroke="black" stroke-width="0.05"/>
<path d="M19.387 7.74078C19.7245 7.47078 19.972 7.65078 20.2045 7.50828C20.7932 7.15203 21.0295 7.58328 21.5545 7.41078C21.4195 7.74828 20.6395 7.45953 20.302 7.71078C19.9645 7.96203 18.7757 8.20578 19.3832 7.74078H19.387ZM18.4007 9.66828C18.3932 9.51453 18.2507 9.31578 18.0482 9.29328C17.8457 9.26703 17.7557 9.05328 17.602 9.04578C17.4482 9.03453 17.347 8.72703 17.1332 8.73078C16.9232 8.73453 16.8332 9.01203 17.332 9.26328C17.8307 9.51453 18.382 9.80328 18.4007 9.66828ZM17.7707 9.79953C17.5607 9.80703 17.5307 10.1183 17.3282 10.1258C17.6057 10.2758 17.812 10.0583 17.9545 9.86328L17.7745 9.79953H17.7707Z" fill="white" stroke="black" stroke-width="0.05"/>
<path d="M17.9474 9.83765C17.7599 9.9914 17.7074 10.3139 17.9737 10.4076C17.8162 10.1864 18.2549 10.0889 18.1199 9.88265L17.9474 9.83765Z" fill="white" stroke="black" stroke-width="0.05"/>
<path d="M18.1279 9.84885C17.9854 10.1263 18.3567 10.1601 18.2592 10.3738C18.4729 10.3251 18.5067 9.92385 18.3117 9.81885L18.1279 9.8451V9.84885Z" fill="white" stroke="black" stroke-width="0.05"/>
<path d="M16.7098 9.24864C17.0585 9.22989 17.3735 9.41739 17.5873 9.72114C17.7223 9.91239 18.176 9.99114 18.3335 9.83364C18.4835 9.68364 18.401 9.35364 18.0148 9.45864C17.9173 9.29739 17.6398 9.35364 17.501 9.21864C17.366 9.08364 16.8448 8.69739 16.7098 9.24864Z" fill="white" stroke="black" stroke-width="0.05"/>
<path d="M18.0155 9.46218C17.9217 9.48093 17.8917 9.63843 17.9517 9.72093L18.0155 9.46218ZM18.2142 9.55593C18.2405 9.60468 18.2217 9.67218 18.2067 9.70593L18.2142 9.55593ZM17.2617 9.26343C17.438 9.27093 17.4717 9.40218 17.6667 9.45093L17.2617 9.26343Z" fill="white"/>
<path d="M18.0155 9.46218C17.9217 9.48093 17.8917 9.63843 17.9517 9.72093M18.2142 9.55593C18.2405 9.60468 18.2217 9.67218 18.2067 9.70593M17.2617 9.26343C17.438 9.27093 17.4717 9.40218 17.6667 9.45093" stroke="black" stroke-width="0.05" stroke-linecap="round"/>
<path d="M17.1415 8.82517C17.6287 8.92036 18.1022 9.07528 18.5515 9.28642C18.8552 9.45892 19.3277 9.51142 19.7365 9.39142C20.149 9.27892 20.944 9.17017 20.9027 9.68392C21.1202 9.42517 20.8465 9.15142 20.2952 9.10267C20.3065 8.85142 20.0365 8.62642 19.8452 8.77642C20.0215 8.75017 20.1752 9.08392 19.8227 9.21892C19.8386 9.16081 19.8374 9.09937 19.8194 9.04189C19.8014 8.98441 19.7673 8.93329 19.7211 8.89462C19.6749 8.85595 19.6186 8.83132 19.5589 8.82367C19.4991 8.81599 19.4384 8.82562 19.384 8.85142C19.549 8.90017 19.7215 9.18142 19.3465 9.28642C19.1102 9.35392 18.769 9.26767 18.514 9.11392C18.259 8.96017 16.8265 8.40142 17.1415 8.82142V8.82517Z" fill="white" stroke="black" stroke-width="0.05"/>
<path d="M18.6971 8.57363C18.5058 8.65988 18.6296 8.86238 18.3333 8.97863C18.0333 9.09113 17.8233 9.35738 17.8908 9.58613C18.0933 9.13988 18.4533 9.16238 18.5771 8.98613C18.7046 8.81363 18.8883 8.55863 18.6971 8.57363Z" fill="white" stroke="black" stroke-width="0.05"/>
<path d="M18.7505 8.59947C18.743 8.95197 18.4655 8.82447 18.5742 9.31947C18.608 9.47322 18.6717 9.72447 18.563 9.97572C18.8742 9.75072 18.6755 9.27447 18.8142 9.09447C18.8817 9.00447 18.9717 8.86947 19.0017 8.75697C18.9305 8.95572 18.938 9.33447 19.133 9.43197C18.9755 9.05697 19.5642 8.74572 19.1592 8.30697C19.0992 8.41947 18.9155 8.60697 18.7542 8.59947H18.7505ZM17.768 8.24697C17.8167 8.32197 17.8655 8.50197 17.8205 8.60697C17.918 8.54697 18.0567 8.39697 18.1017 8.29572C18.3005 8.32572 18.3755 8.56947 18.188 8.67822C18.3005 8.67822 18.503 8.67822 18.6117 8.54697C18.4767 8.39697 18.0567 8.16447 17.768 8.24697Z" fill="white" stroke="black" stroke-width="0.05"/>
<path d="M14.7638 7.55343C14.7114 7.51302 14.6493 7.48713 14.5838 7.47843C14.2913 7.41843 14.445 7.15593 14.6925 7.15968C15.225 6.57843 15.5213 7.02468 16.17 6.84468C16.395 6.77718 16.5525 6.79593 16.6725 6.85218C16.965 6.65718 17.3025 6.70968 17.55 6.93843C17.5749 6.89544 17.6151 6.86331 17.6625 6.84843C17.8913 6.78468 18.075 6.97593 18.1388 7.22718C18.315 7.19718 18.5175 7.28343 18.6525 7.40343C18.8363 7.30968 18.96 7.30593 19.0088 7.40343C19.1738 7.32843 19.3838 7.27593 19.4925 7.53843C19.6013 7.80093 19.2413 7.72218 19.1813 8.27343C19.1438 8.61093 18.7688 8.74593 18.4688 8.54343C17.9888 8.21718 17.52 8.16843 17.2875 8.65593C17.0588 9.15093 16.875 9.43593 16.3125 9.27468C16.1957 9.24819 16.0737 9.25722 15.962 9.30066C15.8504 9.3441 15.7544 9.41994 15.6863 9.51843C15.5213 9.74343 15.2738 9.53343 14.9738 9.55593C15.3488 9.49968 15.2025 9.40593 15.5325 9.38343C15.8325 9.36468 15.7538 9.08343 15.945 9.04593C15.195 9.23718 15.2213 8.95593 14.6025 9.15093C14.8725 8.80218 15.3 8.99718 15.51 8.79468C14.9513 8.78343 14.7 8.41968 14.4488 8.56968C14.055 8.81343 14.2238 9.49968 13.1925 9.43968C12.69 9.41343 12.3713 9.47718 12.075 9.77718C12.5963 8.69718 13.305 9.28968 13.65 8.94843C13.829 8.78739 13.9843 8.60181 14.1113 8.39718C14.1261 8.36751 14.1471 8.34141 14.1731 8.32068C14.1989 8.29995 14.229 8.28513 14.2613 8.27718C13.4025 8.00718 13.9238 7.58343 14.7638 7.55343Z" fill="white" stroke="black" stroke-width="0.05"/>
<path d="M19.0082 7.40015C19.0194 7.43015 19.0269 7.46765 19.0269 7.51265C19.0269 7.72265 18.7082 7.73015 18.6894 8.04515C18.6782 8.21015 18.6594 8.30015 18.5507 8.2814C18.4382 8.26265 18.3407 8.09015 18.4457 7.88765" fill="white"/>
<path d="M19.0082 7.40015C19.0194 7.43015 19.0269 7.46765 19.0269 7.51265C19.0269 7.72265 18.7082 7.73015 18.6894 8.04515C18.6782 8.21015 18.6594 8.30015 18.5507 8.2814C18.4382 8.26265 18.3407 8.09015 18.4457 7.88765" stroke="black" stroke-width="0.05" stroke-linecap="round"/>
<path d="M14.9255 7.23937C14.8579 7.1899 14.7767 7.16242 14.693 7.16062L14.9255 7.23937ZM16.673 6.84937C16.928 6.96187 17.0517 7.22437 17.423 7.23937C17.783 7.25062 18.0042 7.77187 18.6042 7.43062C18.6191 7.42285 18.6341 7.41535 18.6492 7.40812M17.5505 6.93937C17.4989 7.03306 17.4805 7.14136 17.498 7.24687L17.5505 6.93937ZM16.3805 8.03437C15.9305 8.03437 15.8105 8.26312 15.8105 8.48437C15.8105 8.70937 16.0242 8.99812 16.3992 8.99812C16.7742 8.99812 16.9805 8.76562 16.9805 8.51437C16.9805 8.26312 16.748 8.03062 16.3805 8.03062V8.03437Z" fill="white"/>
<path d="M14.9255 7.23937C14.8579 7.1899 14.7767 7.16242 14.693 7.16062M16.673 6.84937C16.928 6.96187 17.0517 7.22437 17.423 7.23937C17.783 7.25062 18.0042 7.77187 18.6042 7.43062C18.6191 7.42285 18.6341 7.41535 18.6492 7.40812M17.5505 6.93937C17.4989 7.03306 17.4805 7.14136 17.498 7.24687M16.3805 8.03437C15.9305 8.03437 15.8105 8.26312 15.8105 8.48437C15.8105 8.70937 16.0242 8.99812 16.3992 8.99812C16.7742 8.99812 16.9805 8.76562 16.9805 8.51437C16.9805 8.26312 16.748 8.03062 16.3805 8.03062V8.03437Z" stroke="black" stroke-width="0.05"/>
<path d="M16.4629 8.98665C16.4554 8.8629 16.2266 8.88165 16.2379 8.78415C16.2454 8.68665 16.3616 8.64915 16.3616 8.51415C16.3616 8.37915 16.5641 8.3679 16.6316 8.47665C16.6991 8.58165 16.9016 8.7879 16.9466 8.6829M16.6316 8.47665C16.5697 8.54262 16.534 8.62896 16.5312 8.71944C16.5285 8.80989 16.5588 8.89827 16.6166 8.9679M16.7779 8.6379C16.7404 8.7129 16.7329 8.8254 16.7741 8.8929L16.7779 8.6379Z" fill="white"/>
<path d="M16.4629 8.98665C16.4554 8.8629 16.2266 8.88165 16.2379 8.78415C16.2454 8.68665 16.3616 8.64915 16.3616 8.51415C16.3616 8.37915 16.5641 8.3679 16.6316 8.47665M16.6316 8.47665C16.6991 8.58165 16.9016 8.7879 16.9466 8.6829M16.6316 8.47665C16.5697 8.54262 16.534 8.62896 16.5312 8.71944C16.5285 8.80989 16.5588 8.89827 16.6166 8.9679M16.7779 8.6379C16.7404 8.7129 16.7329 8.8254 16.7741 8.8929" stroke="black" stroke-width="0.05"/>
<path d="M18.5817 8.28463C18.938 8.31463 18.9942 7.92088 18.7317 7.89838M18.143 7.23088C18.023 7.07338 17.738 7.02088 17.7305 7.35088" stroke="black" stroke-width="0.05"/>
<path d="M17.6998 7.72964C17.5798 7.42964 17.2685 7.38839 17.1073 7.53839C16.9685 7.66214 16.9648 7.98839 17.2573 8.05589C17.3623 7.93214 17.5573 7.77464 17.6998 7.72964ZM17.5685 7.54214C17.3923 7.38839 17.1373 7.68089 17.3698 7.94714L17.5685 7.54214ZM14.2573 8.27339C14.3773 8.24714 14.546 8.30339 14.8085 8.42339C14.9698 8.50214 15.4648 8.66714 15.7723 8.50214C15.4535 8.61839 15.2098 8.13839 14.9698 8.19464C14.7298 8.25464 14.2873 8.34464 14.1035 8.16464C14.5535 8.19464 14.7973 7.83464 15.3185 8.14589C15.4658 8.23727 15.6364 8.28413 15.8098 8.28089C15.386 7.77089 14.8273 8.09714 14.7673 7.68089C15.0223 7.95839 15.6485 7.62089 15.9673 8.13464M14.861 7.75964C14.801 7.68464 14.8235 7.60964 14.7635 7.55339L14.861 7.75964Z" fill="white"/>
<path d="M17.5685 7.54214C17.3923 7.38839 17.1373 7.68089 17.3698 7.94714M14.2573 8.27339C14.3773 8.24714 14.546 8.30339 14.8085 8.42339C14.9698 8.50214 15.4648 8.66714 15.7723 8.50214C15.4535 8.61839 15.2098 8.13839 14.9698 8.19464C14.7298 8.25464 14.2873 8.34464 14.1035 8.16464C14.5535 8.19464 14.7973 7.83464 15.3185 8.14589C15.4658 8.23727 15.6364 8.28413 15.8098 8.28089C15.386 7.77089 14.8273 8.09714 14.7673 7.68089C15.0223 7.95839 15.6485 7.62089 15.9673 8.13464M14.861 7.75964C14.801 7.68464 14.8235 7.60964 14.7635 7.55339M17.6998 7.72964C17.5798 7.42964 17.2685 7.38839 17.1073 7.53839C16.9685 7.66214 16.9648 7.98839 17.2573 8.05589C17.3623 7.93214 17.5573 7.77464 17.6998 7.72964Z" stroke="black" stroke-width="0.05"/>
<path d="M18.1425 7.23125C18.0375 7.11875 17.805 7.205 17.8725 7.43375C17.897 7.37978 17.9345 7.33274 17.9816 7.29677C18.0287 7.26077 18.084 7.23698 18.1425 7.2275V7.23125ZM17.4862 7.85C17.5508 7.79912 17.6229 7.75865 17.7 7.73C17.6705 7.65356 17.6213 7.5863 17.5575 7.535C17.5012 7.4975 17.3437 7.71125 17.4862 7.84625V7.85Z" fill="black"/>
<path d="M17.2014 7.45665C17.0289 7.3404 16.8676 7.35165 16.8151 7.4454C16.6914 7.4454 16.5864 7.5354 16.5826 7.7154M16.8489 7.79415C16.6426 7.65165 16.3576 7.70415 16.3764 8.0229M16.2489 8.20665C16.3501 8.12415 16.4964 8.06415 16.6089 8.20665M17.8014 7.89165C17.7639 7.94415 17.7339 8.02665 17.7976 8.15415C17.7226 8.04915 17.5276 8.04915 17.3176 8.31915M18.2589 7.87665C18.0076 7.90665 18.0151 8.07165 18.2176 8.13915M16.4739 7.26165C16.2601 7.2204 16.1064 7.34415 16.3989 7.44915M16.8789 7.11915C16.5789 7.04415 16.4589 7.1229 16.5939 7.19415M16.0126 8.31915C16.0051 8.4279 16.0614 8.56665 16.2376 8.40915M16.0726 8.6379C16.0726 8.6679 16.0689 8.70165 16.0464 8.7279M15.3751 7.2279C15.1914 7.17165 15.1576 7.0029 15.3751 7.0179M15.3151 7.6179C15.1126 7.54665 15.1126 7.35165 15.2776 7.3704M15.6901 7.5129C15.4539 7.45665 15.4464 7.29165 15.6226 7.3179M15.7201 7.0104C15.5926 7.0029 15.4014 7.14165 15.7239 7.22415M16.0726 7.29165C15.7764 7.2504 15.7839 7.36665 15.9564 7.4454M16.2939 7.0104C16.0689 6.96915 15.9901 7.10415 16.1439 7.1604M15.5814 7.84665C15.5251 7.80165 15.4801 7.58415 15.7426 7.6479M16.1289 7.77915C15.9526 7.7304 15.7839 7.90665 15.9451 8.00415M16.3651 7.5729C16.1776 7.5354 16.0201 7.59165 16.1214 7.65915" stroke="black" stroke-width="0.05" stroke-linecap="round"/>
<path d="M18.1359 7.2312C18.0792 7.24146 18.0257 7.26519 17.98 7.30044C17.9343 7.33569 17.8978 7.38138 17.8734 7.4337" fill="white"/>
<path d="M18.1359 7.2312C18.0792 7.24146 18.0257 7.26519 17.98 7.30044C17.9343 7.33569 17.8978 7.38138 17.8734 7.4337" stroke="black" stroke-width="0.05"/>
</g>
<defs>
<clipPath id="clip0_69_2449">
<rect width="24" height="24" rx="12" fill="white"/>
</clipPath>
</defs>
</svg>
