<svg width="24" height="24" viewBox="0 0 24 24" fill="none" xmlns="http://www.w3.org/2000/svg">
<g clip-path="url(#clip0_69_2197)">
<g clip-path="url(#clip1_69_2197)">
<mask id="mask0_69_2197" style="mask-type:luminance" maskUnits="userSpaceOnUse" x="-1" y="0" width="33" height="24">
<path d="M31.2 0H-0.800003V24H31.2V0Z" fill="white"/>
</mask>
<g mask="url(#mask0_69_2197)">
<mask id="mask1_69_2197" style="mask-type:luminance" maskUnits="userSpaceOnUse" x="-1" y="0" width="33" height="24">
<path d="M-0.800003 0H31.2003V24H-0.800003V0Z" fill="white"/>
</mask>
<g mask="url(#mask1_69_2197)">
<path fill-rule="evenodd" clip-rule="evenodd" d="M-0.800003 0H47.2052V15.9422H-0.800003V0Z" fill="#B20000"/>
<path fill-rule="evenodd" clip-rule="evenodd" d="M-0.800003 15.9421H47.2052V23.9999H-0.800003V15.9421Z" fill="#429F00"/>
<path fill-rule="evenodd" clip-rule="evenodd" d="M-0.800003 0H4.5162V24H-0.800003V0Z" fill="white"/>
<path fill-rule="evenodd" clip-rule="evenodd" d="M-0.546875 0.407812H-0.293724V0.815624H-0.546875V0.407812ZM0.21258 0.407812H0.972036V0.815624H0.21258V0.407812ZM0.465732 0H0.718884V0.407812H0.465732V0ZM1.73149 0H1.98464V0.407812H1.73149V0ZM2.7441 0.407812H3.50356V0.815624H2.7441V0.407812ZM2.99725 0H3.2504V0.407812H2.99725V0ZM-0.0405718 0.815624H0.465732V1.21875H-0.0405718V0.815624ZM0.718884 0.815624H1.22519V1.21875H0.718884V0.815624ZM2.49095 0.815624H2.99725V1.21875H2.49095V0.815624ZM3.2504 0.815624H3.75672V1.21875H3.2504V0.815624ZM-0.293724 1.21875H0.21258V1.62656H-0.293724V1.21875ZM0.972036 1.21875H1.47834V1.62656H0.972036V1.21875ZM2.2378 1.21875H2.7441V1.62656H2.2378V1.21875ZM3.50356 1.21875H4.00988V1.62656H3.50356V1.21875ZM4.00988 0.407812H4.263V0.815624H4.00988V0.407812ZM-0.546875 1.62656H-0.0405718V2.03438H-0.546875V1.62656ZM1.22519 1.62656H1.73149V2.03438H1.22519V1.62656ZM3.75672 1.62656H4.263V2.03438H3.75672V1.62656ZM-0.293724 2.84531H0.21258V3.25312H-0.293724V2.84531ZM-0.0405718 3.25312H0.465732V3.66094H-0.0405718V3.25312ZM0.972036 2.85H1.47834V3.25312H0.972036V2.85ZM0.718884 3.25312H1.22519V3.66094H0.718884V3.25312ZM0.21258 3.66094H0.972036V4.06876H0.21258V3.66094Z" fill="#B20000"/>
<path fill-rule="evenodd" clip-rule="evenodd" d="M0.465757 4.06886H0.718909V4.47666H0.465757V4.06886ZM2.23782 2.8501H2.74413V3.25322H2.23782V2.8501ZM2.49097 3.25322H2.99728V3.66103H2.49097V3.25322ZM3.5036 2.8501H4.00988V3.25322H3.5036V2.8501ZM3.25044 3.25322H3.75672V3.66103H3.25044V3.25322ZM2.74413 3.66103H3.5036V4.06886H2.74413V3.66103ZM2.99728 4.06886H3.25044V4.47666H2.99728V4.06886ZM1.73152 3.65635H1.98467V4.06418H1.73152V3.65635ZM-0.800003 3.65635H-0.546851V4.06418H-0.800003V3.65635ZM4.26304 3.65635H4.5162V4.06418H4.26304V3.65635ZM0.465757 5.69074H0.718909V6.09854H0.465757V5.69074ZM0.212605 6.10322H0.972061V6.50634H0.212605V6.10322ZM-0.040547 6.50634H1.22521V6.91418H-0.040547V6.50634ZM2.99728 5.69542H3.25044V6.10322H2.99728V5.69542ZM2.74413 6.10322H3.5036V6.50634H2.74413V6.10322ZM2.49097 6.50634H3.75672V6.91418H2.49097V6.50634ZM2.74413 8.54074H4.00988V8.94854H2.74413V8.54074ZM2.23782 6.91418H4.00988V7.32198H2.23782V6.91418ZM-0.293699 6.91418H1.47836V7.32198H-0.293699V6.91418ZM-0.040547 8.94854H0.718909V9.35634H-0.040547V8.94854ZM-0.293699 8.54074H0.972061V8.94854H-0.293699V8.54074ZM3.25044 7.73446H4.5162V8.1423H3.25044V7.73446ZM2.99728 8.95322H3.75672V9.36102H2.99728V8.95322Z" fill="#B20000"/>
<path fill-rule="evenodd" clip-rule="evenodd" d="M0.212605 9.35614H0.465757V9.76398H0.212605V9.35614ZM3.25044 9.35614H3.5036V9.76398H3.25044V9.35614ZM-0.800003 7.72958H0.465757V8.13742H-0.800003V7.72958ZM1.47836 8.54054H2.23782V8.94834H1.47836V8.54054ZM1.73152 8.95302H1.98467V9.36082H1.73152V8.95302ZM0.972061 7.73426H2.74413V8.1421H0.972061V7.73426ZM1.98467 1.62646H2.49097V2.03428H1.98467V1.62646ZM1.47836 2.03428H2.23782V2.44209H1.47836V2.03428ZM1.22521 2.44209H1.73152V2.84521H1.22521V2.44209ZM1.98467 2.44209H2.49097V2.84521H1.98467V2.44209ZM-0.800003 2.03428H-0.293699V2.44209H-0.800003V2.03428ZM-0.546851 2.44209H-0.040547V2.84521H-0.546851V2.44209ZM4.00988 2.03428H4.5162V2.4374H4.00988V2.03428ZM3.75672 2.4374H4.26304V2.84052H3.75672V2.4374ZM-0.800003 6.09366H-0.546851V6.50146H-0.800003V6.09366ZM4.26304 6.09366H4.5162V6.50146H4.26304V6.09366ZM1.47836 9.35146H2.23782V9.75926H1.47836V9.35146ZM1.22521 9.75926H1.73152V10.1624H1.22521V9.75926ZM1.98467 9.75926H2.49097V10.1624H1.98467V9.75926ZM0.972061 10.1624H1.47836V10.5702H0.972061V10.1624ZM2.23782 10.1624H2.74413V10.5702H2.23782V10.1624ZM0.718909 10.5702H1.22521V10.978H0.718909V10.5702ZM2.49097 10.5702H2.99728V10.978H2.49097V10.5702ZM0.465757 10.9827H0.972061V11.3905H0.465757V10.9827ZM2.74413 10.9827H3.25044V11.3905H2.74413V10.9827ZM-0.040547 11.3905H0.718909V11.7983H-0.040547V11.3905ZM2.99728 11.3905H3.75672V11.7983H2.99728V11.3905ZM3.5036 10.9827H4.00988V11.3905H3.5036V10.9827ZM3.75672 10.5749H4.26304V10.9827H3.75672V10.5749ZM4.00988 10.1671H4.5162V10.5749H4.00988V10.1671ZM-0.293699 10.9827H0.212605V11.3905H-0.293699V10.9827ZM-0.546851 10.5749H-0.040547V10.9827H-0.546851V10.5749ZM-0.800003 10.1718H-0.293699V10.5796H-0.800003V10.1718ZM0.212605 11.803H0.465757V12.2061H0.212605V11.803ZM3.25044 11.803H3.5036V12.2061H3.25044V11.803ZM1.73152 10.5843H1.98467V10.9874H1.73152V10.5843ZM0.972061 11.803H1.22521V12.2061H0.972061V11.803ZM2.49097 11.803H2.74413V12.2061H2.49097V11.803ZM1.73152 11.803H1.98467V12.2061H1.73152V11.803ZM-0.800003 11.803H-0.546851V12.2061H-0.800003V11.803ZM4.26304 11.803H4.5162V12.2061H4.26304V11.803ZM1.73152 6.10302H1.98467V6.50614H1.73152V6.10302ZM0.465757 2.03428H0.718909V2.44209H0.465757V2.03428ZM2.99728 2.03428H3.25044V2.44209H2.99728V2.03428ZM1.47836 4.87958H2.23782V5.28742H1.47836V4.87958ZM0.972061 5.28742H1.73152V5.69522H0.972061V5.28742ZM1.22521 5.69522H1.47836V6.10302H1.22521V5.69522ZM0.718909 4.87958H1.22521V5.28742H0.718909V4.87958ZM0.972061 4.47646H1.73152V4.87958H0.972061V4.47646ZM1.22521 4.06866H1.47836V4.47646H1.22521V4.06866ZM1.98467 4.47646H2.74413V4.87958H1.98467V4.47646ZM2.23782 4.06866H2.49097V4.47646H2.23782V4.06866ZM2.49097 4.87958H2.99728V5.28742H2.49097V4.87958ZM1.98467 5.28742H2.74413V5.69522H1.98467V5.28742ZM2.23782 5.69522H2.49097V6.10302H2.23782V5.69522ZM3.25044 4.87958H3.75672V5.28742H3.25044V4.87958ZM3.5036 4.47646H4.26304V4.87958H3.5036V4.47646ZM4.00988 4.87958H4.5162V5.28742H4.00988V4.87958ZM3.5036 5.28742H4.26304V5.69522H3.5036V5.28742ZM3.75672 5.69522H4.00988V6.10302H3.75672V5.69522ZM3.75672 4.06866H4.00988V4.47646H3.75672V4.06866ZM-0.800003 4.8749H-0.293699V5.2827H-0.800003V4.8749ZM-0.546851 4.47178H0.212605V4.8749H-0.546851V4.47178ZM-0.040547 4.8749H0.465757V5.2827H-0.040547V4.8749ZM-0.546851 5.2827H0.212605V5.69054H-0.546851V5.2827Z" fill="#B20000"/>
<path fill-rule="evenodd" clip-rule="evenodd" d="M-0.293699 5.69541H-0.040547V6.10321H-0.293699V5.69541ZM-0.293699 4.06885H-0.040547V4.47665H-0.293699V4.06885ZM-0.546851 7.32197H0.465757V7.72977H-0.546851V7.32197ZM0.718909 7.32197H1.73152V7.72977H0.718909V7.32197ZM1.98467 7.32197H2.99728V7.72977H1.98467V7.32197ZM3.25044 7.32197H4.26304V7.72977H3.25044V7.32197ZM1.22521 8.13761H2.49097V8.54073H1.22521V8.13761ZM-0.546851 8.13761H0.718909V8.54073H-0.546851V8.13761ZM2.99728 8.13761H4.26304V8.54073H2.99728V8.13761ZM4.26304 9.76417H4.5162V10.1673H4.26304V9.76417ZM-0.800003 9.76417H-0.546851V10.1673H-0.800003V9.76417ZM-0.546851 23.5923H-0.293699V23.1892H-0.546851V23.5923ZM0.212605 23.5923H0.972061V23.1892H0.212605V23.5923ZM0.465757 24.0001H0.718909V23.5923H0.465757V24.0001ZM1.73152 24.0001H1.98467V23.5923H1.73152V24.0001ZM2.74413 23.5923H3.5036V23.1845H2.74413V23.5923ZM2.99728 24.0001H3.25044V23.5923H2.99728V24.0001ZM-0.040547 23.1845H0.465757V22.7813H-0.040547V23.1845ZM0.718909 23.1845H1.22521V22.7813H0.718909V23.1845ZM2.49097 23.1845H2.99728V22.7813H2.49097V23.1845ZM3.25044 23.1845H3.75672V22.7813H3.25044V23.1845ZM0.972061 22.7813H1.47836V22.3735H0.972061V22.7813ZM2.23782 22.7813H2.74413V22.3735H2.23782V22.7813ZM3.5036 22.7813H4.00988V22.3735H3.5036V22.7813ZM4.00988 23.5923H4.26304V23.1845H4.00988V23.5923ZM-0.546851 22.3735H-0.040547V21.9657H-0.546851V22.3735ZM1.22521 22.3735H1.73152V21.9657H1.22521V22.3735ZM3.75672 22.3735H4.26304V21.9657H3.75672V22.3735ZM-0.293699 21.1548H0.212605V20.747H-0.293699V21.1548ZM-0.040547 20.747H0.465757V20.3392H-0.040547V20.747ZM0.972061 21.1548H1.47836V20.747H0.972061V21.1548ZM0.718909 20.747H1.22521V20.3392H0.718909V20.747ZM0.212605 20.3392H0.972061V19.9313H0.212605V20.3392ZM0.465757 19.9313H0.718909V19.5282H0.465757V19.9313ZM2.23782 21.1501H2.74413V20.747H2.23782V21.1501ZM2.49097 20.747H2.99728V20.3392H2.49097V20.747ZM3.5036 21.1548H4.00988V20.747H3.5036V21.1548ZM3.25044 20.747H3.75672V20.3392H3.25044V20.747ZM2.74413 20.3392H3.5036V19.9313H2.74413V20.3392ZM2.99728 19.9313H3.25044V19.5282H2.99728V19.9313ZM1.73152 20.3438H1.98467V19.936H1.73152V20.3438ZM-0.800003 20.3438H-0.546851V19.936H-0.800003V20.3438ZM4.26304 20.3438H4.5162V19.936H4.26304V20.3438ZM0.465757 18.3094H0.718909V17.9016H0.465757V18.3094ZM0.212605 17.897H0.972061V17.4938H0.212605V17.897ZM-0.040547 17.4938H1.22521V17.086H-0.040547V17.4938ZM2.99728 18.3048H3.25044V17.897H2.99728V18.3048Z" fill="#B20000"/>
<path fill-rule="evenodd" clip-rule="evenodd" d="M2.74413 17.8968H3.5036V17.4937H2.74413V17.8968ZM2.49097 17.4937H3.75672V17.0859H2.49097V17.4937ZM2.74413 15.4593H4.00988V15.0468H2.74413V15.4593ZM2.23782 17.0859H4.00988V16.6781H2.23782V17.0859ZM-0.293699 17.0859H1.47836V16.6781H-0.293699V17.0859ZM-0.040547 15.0515H0.718909V14.6437H-0.040547V15.0515ZM-0.293699 15.4593H0.972061V15.0468H-0.293699V15.4593ZM3.25044 16.2656H4.5162V15.8577H3.25044V16.2656ZM2.99728 15.0468H3.75672V14.639H2.99728V15.0468ZM-0.800003 16.2656H0.465757V15.8577H-0.800003V16.2656ZM1.47836 15.4546H2.23782V15.0468H1.47836V15.4546ZM1.73152 15.0468H1.98467V14.639H1.73152V15.0468ZM0.972061 16.2656H2.74413V15.8577H0.972061V16.2656ZM1.98467 22.3687H2.49097V21.9609H1.98467V22.3687ZM1.47836 21.9609H2.23782V21.5624H1.47836V21.9609ZM1.22521 21.5531H1.73152V21.1453H1.22521V21.5531ZM1.98467 21.5531H2.49097V21.1453H1.98467V21.5531ZM-0.800003 21.9656H-0.293699V21.5624H-0.800003V21.9656ZM-0.546851 21.5577H-0.040547V21.1546H-0.546851V21.5577ZM4.00988 21.9656H4.5162V21.5624H4.00988V21.9656ZM3.75672 21.5577H4.26304V21.1546H3.75672V21.5577ZM-0.800003 17.9062H-0.546851V17.4984H-0.800003V17.9062ZM4.26304 17.9062H4.5162V17.4984H4.26304V17.9062ZM1.22521 14.2406H1.73152V13.8375H1.22521V14.2406ZM1.98467 14.2406H2.49097V13.8375H1.98467V14.2406ZM0.972061 13.8375H1.47836V13.4296H0.972061V13.8375ZM2.23782 13.8375H2.74413V13.4296H2.23782V13.8375ZM0.718909 13.4296H1.22521V13.0218H0.718909V13.4296ZM2.49097 13.4296H2.99728V13.0218H2.49097V13.4296ZM0.465757 13.0171H0.972061V12.6093H0.465757V13.0171ZM2.74413 13.0171H3.25044V12.6093H2.74413V13.0171ZM-0.040547 12.6093H0.718909V12.2015H-0.040547V12.6093ZM2.99728 12.6093H3.75672V12.2015H2.99728V12.6093ZM3.5036 13.0171H4.00988V12.6093H3.5036V13.0171ZM3.75672 13.4249H4.26304V13.0171H3.75672V13.4249ZM4.00988 13.8327H4.5162V13.4249H4.00988V13.8327ZM-0.293699 13.0171H0.212605V12.6093H-0.293699V13.0171ZM-0.546851 13.4249H-0.040547V13.0171H-0.546851V13.4249ZM-0.800003 13.8281H-0.293699V13.4203H-0.800003V13.8281ZM0.212605 12.1968H0.465757V11.7937H0.212605V12.1968ZM1.73152 13.4156H1.98467V13.0124H1.73152V13.4156ZM1.73152 17.8921H1.98467V17.489H1.73152V17.8921ZM0.465757 21.9609H0.718909V21.5624H0.465757V21.9609ZM2.99728 21.9609H3.25044V21.5624H2.99728V21.9609ZM1.47836 19.1249H2.23782V18.7171H1.47836V19.1249ZM0.972061 18.7171H1.73152V18.3093H0.972061V18.7171ZM1.22521 18.3093H1.47836V17.9015H1.22521V18.3093ZM0.718909 19.1249H1.22521V18.7171H0.718909V19.1249ZM0.972061 19.5234H1.73152V19.1249H0.972061V19.5234ZM1.22521 19.9312H1.47836V19.5281H1.22521V19.9312ZM1.98467 19.5234H2.74413V19.1249H1.98467V19.5234ZM2.23782 19.9312H2.49097V19.5281H2.23782V19.9312ZM2.49097 19.1203H2.99728V18.7125H2.49097V19.1203ZM1.98467 18.7125H2.74413V18.3046H1.98467V18.7125ZM2.23782 18.3046H2.49097V17.8968H2.23782V18.3046ZM3.25044 19.1249H3.75672V18.7171H3.25044V19.1249ZM3.5036 19.5234H4.26304V19.1249H3.5036V19.5234ZM4.00988 19.1203H4.5162V18.7125H4.00988V19.1203ZM3.5036 18.7125H4.26304V18.3046H3.5036V18.7125ZM3.75672 18.3046H4.00988V17.8968H3.75672V18.3046ZM3.75672 19.9312H4.00988V19.5281H3.75672V19.9312ZM-0.800003 19.1249H-0.293699V18.7171H-0.800003V19.1249ZM-0.546851 19.5234H0.212605V19.1249H-0.546851V19.5234Z" fill="#B20000"/>
<path fill-rule="evenodd" clip-rule="evenodd" d="M-0.040547 19.1203H0.465757V18.7125H-0.040547V19.1203ZM-0.546851 18.7125H0.212605V18.3047H-0.546851V18.7125ZM-0.293699 18.3047H-0.040547V17.8969H-0.293699V18.3047ZM-0.293699 19.9312H-0.040547V19.5281H-0.293699V19.9312ZM-0.546851 16.6781H0.465757V16.2703H-0.546851V16.6781ZM0.718909 16.6781H1.73152V16.2703H0.718909V16.6781ZM1.98467 16.6781H2.99728V16.2703H1.98467V16.6781ZM3.25044 16.6781H4.26304V16.2703H3.25044V16.6781ZM1.22521 15.8625H2.49097V15.4593H1.22521V15.8625ZM-0.546851 15.8625H0.718909V15.4593H-0.546851V15.8625ZM2.99728 15.8625H4.26304V15.4593H2.99728V15.8625ZM4.26304 14.2406H4.5162V13.8281H4.26304V14.2406ZM-0.800003 14.2406H-0.546851V13.8281H-0.800003V14.2406ZM1.47836 12.2015H1.73152V12.6093H1.47836V12.2015ZM1.98467 12.2015H2.23782V12.6093H1.98467V12.2015ZM1.98467 11.3906H2.23782V11.7984H1.98467V11.3906ZM1.47836 11.3906H1.73152V11.7984H1.47836V11.3906ZM-0.293699 22.3734H0.212605V22.7812H-0.293699V22.3734ZM3.25044 14.6437H3.5036V14.2359H3.25044V14.6437ZM0.212605 14.6437H0.465757V14.2359H0.212605V14.6437ZM1.47836 14.2359H2.23782V14.6437H1.47836V14.2359Z" fill="#B20000"/>
</g>
</g>
</g>
</g>
<defs>
<clipPath id="clip0_69_2197">
<rect width="24" height="24" rx="12" fill="white"/>
</clipPath>
<clipPath id="clip1_69_2197">
<rect width="32" height="24" fill="white" transform="translate(-0.800003)"/>
</clipPath>
</defs>
</svg>
