<svg width="24" height="24" viewBox="0 0 24 24" fill="none" xmlns="http://www.w3.org/2000/svg">
<g clip-path="url(#clip0_69_3920)">
<g clip-path="url(#clip1_69_3920)">
<mask id="mask0_69_3920" style="mask-type:luminance" maskUnits="userSpaceOnUse" x="-4" y="0" width="32" height="24">
<path d="M28 0H-4V24H28V0Z" fill="white"/>
</mask>
<g mask="url(#mask0_69_3920)">
<path d="M-4 0H28V24H-4V0Z" fill="#008000"/>
<path d="M12.0006 15.3355C13.8425 15.3355 15.3356 13.8424 15.3356 12.0005C15.3356 10.1586 13.8425 8.66553 12.0006 8.66553C10.1588 8.66553 8.66565 10.1586 8.66565 12.0005C8.66565 13.8424 10.1588 15.3355 12.0006 15.3355Z" fill="#FFE000"/>
<path d="M13.0403 14.7446C14.5563 14.7446 15.7853 13.5157 15.7853 11.9996C15.7853 10.4836 14.5563 9.25464 13.0403 9.25464C11.5243 9.25464 10.2953 10.4836 10.2953 11.9996C10.2953 13.5157 11.5243 14.7446 13.0403 14.7446Z" fill="#008000"/>
<path d="M1.49 12.155C3.41748 12.155 4.98 10.5925 4.98 8.66505C4.98 6.73757 3.41748 5.17505 1.49 5.17505C-0.437472 5.17505 -2 6.73757 -2 8.66505C-2 10.5925 -0.437472 12.155 1.49 12.155Z" fill="#FFE000"/>
<path d="M1.25 11.3H2.125C2.125 11.3 2.16 11.22 2.115 11.18C2.065 11.14 1.88 11.13 1.93 10.99C2.03 10.7 2.05 10.79 2.115 10.1C2.16256 9.50919 2.19592 8.91735 2.215 8.32495H2.085C2.085 8.32495 2.11 8.65995 2.035 9.09995C1.965 9.53995 1.94 9.57495 1.86 9.91495C1.82232 10.1063 1.76708 10.2938 1.695 10.475C1.625 10.675 1.615 10.68 1.505 10.865C1.39 11.045 1.43 10.975 1.37 11.085C1.335 11.14 1.3 11.125 1.275 11.165C1.255 11.205 1.25 11.3 1.25 11.3Z" fill="#802000" stroke="#7B3100" stroke-width="0.1875"/>
<path d="M1.91563 6.125C1.92707 6.2808 1.90667 6.43732 1.85563 6.585C1.78631 6.73948 1.74727 6.9058 1.74063 7.075C1.65063 7.105 1.55563 6.88 1.46563 7.015C1.53063 7.2 1.68563 7.345 1.78563 7.51C1.80563 7.56 1.95563 7.695 1.86563 7.725C1.65063 7.65 1.59563 7.375 1.46563 7.21C1.38955 7.06768 1.27847 6.94712 1.14287 6.85964C1.00727 6.77216 0.851629 6.72068 0.690629 6.71C0.565629 6.715 0.170629 6.685 0.270629 6.895C0.420629 6.995 0.610629 7.065 0.760629 7.18C0.875629 7.19 1.07563 7.38 1.06563 7.45C0.865629 7.37 0.775629 7.275 0.565629 7.19C0.275629 7.08 -0.119387 7.145 -0.284387 7.43C-0.309387 7.505 -0.354387 7.72 -0.259387 7.745C-0.149387 7.575 0.00562882 7.38 0.235629 7.435C0.415629 7.45 0.0356289 7.77 0.180629 7.705C0.230629 7.685 0.330629 7.615 0.410629 7.605C0.485629 7.605 0.525629 7.655 0.580629 7.665C0.695629 7.68 0.730629 7.725 0.715629 7.755C0.705629 7.785 0.665629 7.755 0.550629 7.795C0.495629 7.815 0.465629 7.865 0.400629 7.89C0.330629 7.91 0.190629 7.915 0.140629 7.89C-0.0443873 7.815 -0.344387 7.825 -0.399387 8.055C-0.399387 8.155 -0.489387 8.045 -0.529387 8.09C-0.564387 8.2 -0.569387 8.31 -0.729387 8.3C-0.829387 8.4 -0.929387 8.51 -1.05939 8.585C-0.984387 8.755 -0.694387 8.415 -0.709387 8.56C-0.834387 8.735 -0.639387 8.77 -0.559387 8.635C-0.414387 8.485 -0.234387 8.3 -0.0243871 8.455C0.0756289 8.55 0.135629 8.405 0.210629 8.405C0.260629 8.53 0.315629 8.415 0.370629 8.38C0.455629 8.37 0.430629 8.49 0.530629 8.415C0.735629 8.28 0.985629 8.395 1.18563 8.265C1.40063 8.165 1.21563 8.34 1.16063 8.41C1.06563 8.59 1.14563 8.83 0.945629 8.94C0.860629 9.155 1.04063 9.44 0.860629 9.6C0.835629 9.7 1.09063 9.69 1.16063 9.73C1.29063 9.73 1.16063 9.44 1.28563 9.4C1.45563 9.5 1.44563 9.21 1.41063 9.12C1.43063 8.92 1.44063 8.69 1.54063 8.505C1.65063 8.28 1.75063 8.6 1.63063 8.69C1.56063 8.895 1.46063 9.16 1.61563 9.355C1.66563 9.365 1.70063 9.475 1.75563 9.505C1.81563 9.54 1.89563 9.5 1.90563 9.4C1.98563 9.1 1.94563 8.78 2.05563 8.485C2.13063 8.395 2.23563 8.47 2.28063 8.555C2.43063 8.73 2.53563 8.945 2.71563 9.09C2.88599 9.15968 3.02483 9.2896 3.10563 9.455C3.10563 9.585 3.47563 9.605 3.36563 9.455C3.26063 9.32 3.33063 9.175 3.43563 9.08C3.49563 9.095 3.48063 8.99 3.43563 9.03C3.36063 9.015 3.35563 8.88 3.45563 8.945C3.63063 9 3.44563 8.82 3.38063 8.815C3.23563 8.725 3.07063 8.625 3.00063 8.465C3.19063 8.465 3.38563 8.57 3.57563 8.51C3.73063 8.43 3.88563 8.51 3.94063 8.65C4.06063 8.63 4.01063 8.51 3.94063 8.47C4.02563 8.435 4.09063 8.36 3.98063 8.295C3.93063 8.225 4.05563 8.095 3.89563 8.105C3.90063 7.98 3.85563 7.87 3.72063 7.825C3.58563 7.715 3.19063 7.995 3.20563 7.74C3.16563 7.6 3.36563 7.72 3.42063 7.65C3.47563 7.5 3.14563 7.52 3.25563 7.4C3.32563 7.36 3.66063 7.295 3.40063 7.245C3.34183 7.26224 3.27995 7.26624 3.21947 7.25672C3.15895 7.2472 3.10127 7.22444 3.05063 7.19C2.95563 7.345 2.69063 7.1 2.73563 7.38C2.70063 7.485 2.46063 7.76 2.39563 7.55C2.44563 7.385 2.73563 7.335 2.64563 7.11C2.63063 6.975 2.51563 7.135 2.46563 7.125C2.43563 7.04 2.54563 6.935 2.62563 6.915C2.77563 7.035 2.77563 6.765 2.92563 6.79C3.03063 6.765 2.89063 6.72 2.86063 6.7C2.89063 6.625 3.05563 6.585 2.89563 6.515C2.75063 6.415 2.64563 6.62 2.53063 6.63C2.42063 6.505 2.63063 6.445 2.69063 6.38C2.69563 6.33 2.57063 6.365 2.60563 6.32C2.64063 6.265 2.86563 6.26 2.75563 6.17C2.58751 6.11868 2.40655 6.12932 2.24563 6.2C2.14563 6.23 2.12063 6.45 2.03563 6.44C2.00063 6.34 2.05063 6.15 1.91563 6.125ZM2.66563 8.24C2.78563 8.22 2.66563 8.425 2.61563 8.42C2.61563 8.35 2.43563 8.355 2.55063 8.29C2.58579 8.26684 2.62467 8.24992 2.66563 8.24Z" fill="#008000"/>
<path d="M20.0019 16.1921L20.2223 16.8773L20.8954 16.6223L20.4972 17.2221L21.1164 17.5895L20.3988 17.652L20.4976 18.3651L20.0019 17.8431L19.506 18.3648L19.6047 17.652L18.8875 17.5891L19.5066 17.2218L19.1082 16.622L19.7813 16.877L20.0019 16.1921Z" fill="#FFE000"/>
<path d="M16.0019 9.85791L16.2223 10.5431L16.8954 10.2882L16.4972 10.8879L17.1164 11.2552L16.3988 11.3178L16.4976 12.0309L16.0019 11.5089L15.506 12.0306L15.6047 11.3178L14.8875 11.2549L15.5066 10.8876L15.1082 10.2878L15.7813 10.5427L16.0019 9.85791Z" fill="#FFE000"/>
<path d="M20.0019 5.52344L20.2223 6.2086L20.8954 5.95364L20.4972 6.5534L21.1164 6.92076L20.3988 6.98332L20.4976 7.6964L20.0019 7.17444L19.506 7.69608L19.6047 6.98332L18.8875 6.92044L19.5066 6.55308L19.1082 5.95332L19.7813 6.20828L20.0019 5.52344Z" fill="#FFE000"/>
<path d="M23.5582 8.79053L23.7785 9.47569L24.4516 9.22073L24.0535 9.82049L24.6726 10.1878L23.955 10.2504L24.0538 10.9635L23.5582 10.4415L23.0622 10.9632L23.161 10.2504L22.4438 10.1875L23.0629 9.82017L22.6644 9.22041L23.3375 9.47537L23.5582 8.79053Z" fill="#FFE000"/>
<path d="M21.6031 12L21.7774 12.427L22.2372 12.4607L21.8847 12.7585L21.9949 13.2062L21.6031 12.963L21.2113 13.2065L21.3211 12.7588L20.9688 12.461L21.4291 12.4274L21.6031 12Z" fill="#FFE000"/>
</g>
</g>
</g>
<defs>
<clipPath id="clip0_69_3920">
<rect width="24" height="24" rx="12" fill="white"/>
</clipPath>
<clipPath id="clip1_69_3920">
<rect width="32" height="24" fill="white" transform="translate(-4)"/>
</clipPath>
</defs>
</svg>
