<svg width="24" height="24" viewBox="0 0 24 24" fill="none" xmlns="http://www.w3.org/2000/svg">
<g clip-path="url(#clip0_69_3847)">
<g clip-path="url(#clip1_69_3847)">
<mask id="mask0_69_3847" style="mask-type:luminance" maskUnits="userSpaceOnUse" x="-4" y="0" width="32" height="24">
<path d="M28 0H-4V24H28V0Z" fill="white"/>
</mask>
<g mask="url(#mask0_69_3847)">
<path d="M-4 0H28V24H-4V0Z" fill="#003399"/>
<path d="M11.9997 14.0102C12.8392 14.0102 13.5197 13.3297 13.5197 12.4902C13.5197 11.6507 12.8392 10.9702 11.9997 10.9702C11.1602 10.9702 10.4797 11.6507 10.4797 12.4902C10.4797 13.3297 11.1602 14.0102 11.9997 14.0102Z" stroke="#FFCC00" stroke-width="3.4375"/>
<path d="M11.9994 16.905C14.4377 16.905 16.4144 14.9283 16.4144 12.49C16.4144 10.0516 14.4377 8.07495 11.9994 8.07495C9.56103 8.07495 7.58435 10.0516 7.58435 12.49C7.58435 14.9283 9.56103 16.905 11.9994 16.905Z" stroke="#FFCC00" stroke-width="3.4375"/>
<path d="M16.235 8.25464L20.47 12.4896L16.235 16.7246L12 12.4896L16.235 8.25464Z" fill="#003399"/>
<path d="M4.78436 11.8047H7.74436V13.1797H4.78436V11.8047ZM17.7394 11.8047H22.1544V13.1797H17.7394V11.8047ZM14.1494 9.36968L16.0894 7.42968L17.0594 8.40468L15.1244 10.3397L14.1494 9.36968ZM11.3144 2.42969H12.6894V7.78468H11.3144V2.42969Z" fill="#FFCC00"/>
<path d="M7.25531 8.66541C7.63363 8.66541 7.94031 8.35873 7.94031 7.98041C7.94031 7.60209 7.63363 7.29541 7.25531 7.29541C6.87699 7.29541 6.57031 7.60209 6.57031 7.98041C6.57031 8.35873 6.87699 8.66541 7.25531 8.66541Z" fill="#FFCC00"/>
<path d="M3.21466 13.1747C3.59298 13.1747 3.89966 12.868 3.89966 12.4897C3.89966 12.1114 3.59298 11.8047 3.21466 11.8047C2.83634 11.8047 2.52966 12.1114 2.52966 12.4897C2.52966 12.868 2.83634 13.1747 3.21466 13.1747Z" fill="#FFCC00"/>
<path d="M12.0006 19.7543C12.3789 19.7543 12.6856 19.4476 12.6856 19.0693C12.6856 18.691 12.3789 18.3843 12.0006 18.3843C11.6223 18.3843 11.3156 18.691 11.3156 19.0693C11.3156 19.4476 11.6223 19.7543 12.0006 19.7543Z" fill="#FFCC00"/>
<path d="M12.0006 21.9606C12.3789 21.9606 12.6856 21.6539 12.6856 21.2756C12.6856 20.8973 12.3789 20.5906 12.0006 20.5906C11.6223 20.5906 11.3156 20.8973 11.3156 21.2756C11.3156 21.6539 11.6223 21.9606 12.0006 21.9606Z" fill="#FFCC00"/>
<path d="M16.4147 13.1747C16.793 13.1747 17.0997 12.868 17.0997 12.4897C17.0997 12.1114 16.793 11.8047 16.4147 11.8047C16.0364 11.8047 15.7297 12.1114 15.7297 12.4897C15.7297 12.868 16.0364 13.1747 16.4147 13.1747Z" fill="#FFCC00"/>
<path d="M6.41565 17.0747L7.39065 16.1047L8.36065 17.0747L7.39065 18.0497L6.41565 17.0747ZM16.6506 18.1247L17.6256 17.1497L18.6006 18.1247L17.6256 19.0947L16.6506 18.1247Z" fill="#FFCC00"/>
</g>
</g>
</g>
<defs>
<clipPath id="clip0_69_3847">
<rect width="24" height="24" rx="12" fill="white"/>
</clipPath>
<clipPath id="clip1_69_3847">
<rect width="32" height="24" fill="white" transform="translate(-4)"/>
</clipPath>
</defs>
</svg>
