<svg width="24" height="24" viewBox="0 0 24 24" fill="none" xmlns="http://www.w3.org/2000/svg">
<g clip-path="url(#clip0_69_3963)">
<g clip-path="url(#clip1_69_3963)">
<mask id="mask0_69_3963" style="mask-type:luminance" maskUnits="userSpaceOnUse" x="-4" y="0" width="32" height="24">
<path d="M28 0H-4V24H28V0Z" fill="white"/>
</mask>
<g mask="url(#mask0_69_3963)">
<path d="M-4 0H28V24H-4V0Z" fill="#000066"/>
<path fill-rule="evenodd" clip-rule="evenodd" d="M19.5803 10.65L19.8403 9.81495L19.1403 9.28495L20.0203 9.27495L20.3203 8.44995L20.6003 9.27495L21.4853 9.29995L20.7803 9.82495L21.0303 10.66L20.3053 10.16M21.6603 10.81L22.1803 10.115L21.6953 9.37495L22.5303 9.66495L23.0803 8.98995V9.86995L23.9003 10.19L23.0603 10.44L23.0203 11.315L22.5103 10.595M17.5903 11.345L17.5553 10.47L16.7153 10.21L17.5503 9.89995V9.02995L18.0953 9.70495L18.9353 9.42495L18.4453 10.16L18.9603 10.86L18.1103 10.635M16.1303 12.68L15.7603 11.89L14.8903 11.98L15.5303 11.365L15.2003 10.55L15.9603 10.96L16.6253 10.37L16.4553 11.24L17.2003 11.685L16.3353 11.81M15.4503 14.59L14.7853 14.035L14.0353 14.495L14.3553 13.66L13.7103 13.08L14.5753 13.115L14.9253 12.295L15.1403 13.155L16.0003 13.23L15.2703 13.72M15.4303 16.74L14.6053 16.5L14.1003 17.225L14.0653 16.33L13.2453 16.055L14.0503 15.745V14.845L14.5853 15.55L15.4053 15.27L14.9253 16.02M16.4003 18.56L15.5503 18.68L15.3753 19.55L14.9853 18.75L14.1303 18.83L14.7403 18.2149L14.3853 17.3949L15.1503 17.82L15.7903 17.23L15.6503 18.1M17.9003 20L17.1453 20.41L17.2753 21.2899L16.6403 20.67L15.8603 21.05L16.2253 20.255L15.6103 19.61L16.4753 19.74L16.8753 18.9649L17.0453 19.835M19.7353 20.285L19.3203 21.05L19.9053 21.71L19.0353 21.545L18.5903 22.295L18.4703 21.43L17.6103 21.23L18.4003 20.86L18.3153 19.985L18.9253 20.625M21.7953 19.9699L21.7703 20.8399L22.5853 21.16L21.7353 21.41L21.6753 22.285L21.1753 21.57L20.3253 21.7899L20.8653 21.0949L20.3953 20.36L21.2253 20.6449M23.9503 10.49L24.5503 11.12L25.3453 10.75L24.9303 11.54L25.5053 12.195L24.6553 12.055L24.2053 12.83L24.1003 11.95L23.2503 11.775L24.0353 11.375M25.7453 12.425L26.0203 13.255L26.8953 13.27L26.1853 13.805L26.4203 14.645L25.7153 14.145L24.9853 14.65L25.2553 13.81L24.5653 13.28L25.4453 13.26M26.4203 14.92L26.3203 15.7899L27.1053 16.175L26.2403 16.355L26.1053 17.22L25.6703 16.4649L24.8003 16.61L25.4003 15.96L24.9953 15.185L25.7953 15.545M25.9453 17.535L25.5553 18.3149L26.1503 18.95L25.2803 18.8149L24.8603 19.58L24.7103 18.7149L23.8403 18.55L24.6203 18.15L24.5053 17.28L25.1353 17.8949M24.6453 19.85L23.9103 20.31L24.1003 21.175L23.4253 20.6L22.6753 21.03L22.9903 20.2149L22.3353 19.61L23.2053 19.685L23.5553 18.885L23.7753 19.745" fill="white"/>
<path d="M-4 0H12V12H-4V0Z" fill="#000066"/>
<path d="M-2.125 0L3.975 4.525L10.05 0H12V1.55L6 6.025L12 10.475V12H10L4 7.525L-1.975 12H-4V10.5L1.975 6.05L-4 1.6V0H-2.125Z" fill="white"/>
<path d="M6.6 7.025L12 11V12L5.225 7.025H6.6ZM2 7.525L2.15 8.4L-2.65 12H-4L2 7.525ZM12 0V0.075L5.775 4.775L5.825 3.675L10.75 0H12ZM-4 0L1.975 4.4H0.475L-4 1.05V0Z" fill="#C8102E"/>
<path d="M2.025 0V12H6.025V0H2.025ZM-4 4V8H12V4H-4Z" fill="white"/>
<path d="M-4 4.825V7.225H12V4.825H-4ZM2.825 0V12H5.225V0H2.825Z" fill="#C8102E"/>
</g>
</g>
</g>
<defs>
<clipPath id="clip0_69_3963">
<rect width="24" height="24" rx="12" fill="white"/>
</clipPath>
<clipPath id="clip1_69_3963">
<rect width="32" height="24" fill="white" transform="translate(-4)"/>
</clipPath>
</defs>
</svg>
