<svg width="24" height="24" viewBox="0 0 24 24" fill="none" xmlns="http://www.w3.org/2000/svg">
<g clip-path="url(#clip0_69_3887)">
<path d="M0 0H32V24H0V0Z" fill="#EE1C25"/>
<path d="M3.84 10.48L5.99998 4L8.15994 10.48L2.40002 6.52H9.59994L3.84 10.48Z" fill="#FFFF00"/>
<path d="M13.2092 4.12487L10.9864 4.61748L12.4691 2.88965L12.3237 5.21508L11.0901 3.15637L13.2092 4.12487Z" fill="#FFFF00"/>
<path d="M15.4519 6.96703L13.212 6.55895L15.2488 5.54142L14.2129 7.62843L13.8743 5.25244L15.4519 6.96703Z" fill="#FFFF00"/>
<path d="M15.1243 10.9558L13.2455 9.66959L15.5203 9.57127L13.7232 11.0543L14.3831 8.74683L15.1243 10.9558Z" fill="#FFFF00"/>
<path d="M12.2987 13.5628L11.0624 11.6508L13.1986 12.4387L10.9682 13.1126L12.4682 11.239L12.2987 13.5628Z" fill="#FFFF00"/>
</g>
<defs>
<clipPath id="clip0_69_3887">
<rect width="24" height="24" rx="12" fill="white"/>
</clipPath>
</defs>
</svg>
