<svg width="24" height="24" viewBox="0 0 24 24" fill="none" xmlns="http://www.w3.org/2000/svg">
<g clip-path="url(#clip0_69_3584)">
<path fill-rule="evenodd" clip-rule="evenodd" d="M-0.0105131 11.4138H29.8251V18.6753H-0.0140381L-0.0105131 11.4138Z" fill="white"/>
<path fill-rule="evenodd" clip-rule="evenodd" d="M0.0105591 -3.19995H29.8321V12.2452H0.0105591V-3.19995ZM0.0211342 16.803H30.0576V27.648H0.0211342V16.803Z" fill="#081873"/>
<path fill-rule="evenodd" clip-rule="evenodd" d="M0.0211182 13.8665H29.8426V15.2624H0.0211182V13.8665Z" fill="#DE3929"/>
<path fill-rule="evenodd" clip-rule="evenodd" d="M8.95765 17.2717L9.19033 17.9908H9.94465L9.33133 18.4385L9.56395 19.1611L8.95765 18.7099L8.3443 19.1576L8.58049 18.4349L7.96714 17.9873H8.72503M15.5141 12.0265L15.7503 12.7491H16.5011L15.8878 13.1933L16.1205 13.9159L15.5071 13.4682L14.8937 13.9159L15.1264 13.1933L14.5131 12.7491H15.2745M7.44895 15.0192L7.68163 15.7418H8.43949L7.82965 16.193L8.06584 16.9121L7.45249 16.468L6.83914 16.9121L7.07179 16.193L6.45844 15.7454H7.2163M15.5141 14.8148L15.7503 15.5339H16.5011L15.8878 15.9815L16.1205 16.7006L15.5071 16.2565L14.8937 16.7042L15.1264 15.9815L14.5131 15.5339H15.2745M13.8468 9.83392L14.083 10.553H14.8444L14.2311 11.0007L14.4637 11.7233L13.8503 11.2757L13.237 11.7233L13.4732 11.0007L12.8563 10.553H13.6177M11.3441 8.95972L11.5802 9.68236H12.3381L11.7248 10.1265L11.9574 10.8491L11.3441 10.405L10.7307 10.8491L10.9669 10.1265L10.3536 9.68236H11.1079M8.83429 9.78457L9.07045 10.5072H9.82834L9.21499 10.9514L9.45115 11.674L8.83429 11.2263L8.22094 11.674L8.45713 10.9514L7.84378 10.5072H8.60515M7.37845 12.03L7.61113 12.7526H8.37253L7.75564 13.1968L7.9918 13.9194L7.37845 13.4717L6.76513 13.9194L6.99778 13.1968L6.3844 12.7526H7.14229M11.3441 18.019L11.5802 18.7416H12.3381L11.7248 19.1858L11.9609 19.9084L11.3441 19.4607L10.7307 19.9084L10.9669 19.1858L10.3536 18.7416H11.1079M14.0055 17.2717L14.2381 17.9908H14.996L14.3861 18.4385L14.6223 19.1611L14.009 18.7134L13.3921 19.1611L13.6283 18.4385L13.0149 17.9908H13.7728" fill="#FFCE08"/>
</g>
<defs>
<clipPath id="clip0_69_3584">
<rect width="24" height="24" rx="12" fill="white"/>
</clipPath>
</defs>
</svg>
