<svg width="24" height="24" viewBox="0 0 24 24" fill="none" xmlns="http://www.w3.org/2000/svg">
<g clip-path="url(#clip0_69_3896)">
<path d="M0 3.19995H24V21.2L12 27.6L0 21.2V3.19995Z" fill="#0021AD"/>
<path d="M0 3.1999L12 -1.6001L24 3.1999V21.1999L0 3.1999Z" fill="#1C8A42"/>
<path d="M11.9995 14.367C13.1966 14.367 14.167 13.3966 14.167 12.1995C14.167 11.0024 13.1966 10.032 11.9995 10.032C10.8025 10.032 9.83203 11.0024 9.83203 12.1995C9.83203 13.3966 10.8025 14.367 11.9995 14.367Z" fill="#FFC639"/>
<path d="M10.6757 11.2245C10.8257 11.4307 11.0507 11.772 11.2307 11.682C11.3694 11.682 11.4444 11.6932 11.4632 11.787C11.698 11.8102 11.9349 11.7732 12.1515 11.6793C12.368 11.5855 12.557 11.438 12.7007 11.2507C12.7007 11.2507 12.7307 11.2507 12.7194 11.082C12.7194 11.007 12.8244 11.022 12.8244 11.0445C12.8394 11.082 12.8394 11.1082 12.8582 11.112C12.8957 11.097 12.9594 10.9995 13.0082 10.9395C13.0194 10.9132 13.0119 10.8832 13.0157 10.8495C13.0419 10.7857 13.1057 10.8007 13.1207 10.8345L13.1432 10.8945C13.2107 10.9395 13.3307 10.8945 13.3382 10.8945C13.3494 10.842 13.3832 10.8495 13.3832 10.8495C13.4282 10.8382 13.4094 10.842 13.4394 10.857C13.4132 11.1457 13.4957 11.157 13.4882 11.307C13.4919 11.472 13.4394 11.517 13.4394 11.5807C13.4544 11.6557 13.7019 11.6595 13.6119 11.727C13.5369 11.7645 13.6119 11.8395 13.4994 11.8695C13.1694 12.0382 13.1094 12.1807 13.1094 12.1807C13.1094 12.1807 13.0269 12.3382 13.0157 12.3382C12.9594 12.4432 12.8919 12.3832 12.8507 12.4357C12.8319 12.4995 12.8132 12.642 12.8507 12.7132C12.8694 12.8145 12.8507 12.8707 12.8244 12.972C12.8019 13.182 12.7194 13.2157 12.7082 13.287C12.6707 13.3695 12.7157 13.737 12.6782 13.737C12.4344 13.7445 12.2469 13.692 12.1494 13.6732C12.2432 13.2645 12.2057 12.9082 12.2057 12.8707C12.1832 12.5782 11.7707 12.6495 11.7069 12.6082C11.6544 12.6007 11.6207 12.5595 11.6057 12.5407C11.5457 12.5332 11.5232 12.5182 11.4669 12.5145C11.4369 12.5295 11.4557 12.5445 11.3919 12.5632C11.2232 12.582 11.1519 12.4207 11.1519 12.4207C11.1594 12.3645 10.7807 12.432 10.5782 12.3832C10.4919 12.432 10.4544 12.5707 10.3869 12.5857C10.3869 12.627 10.2744 12.5482 10.2519 12.5107C10.2444 12.3832 10.3569 12.3307 10.3569 12.3307C10.4469 12.267 10.4994 12.2557 10.5444 12.2145C10.5632 12.1057 10.5519 12.027 10.6007 11.9482C10.6382 11.8845 10.6944 11.9107 10.7319 11.8882C10.7732 11.8582 10.7919 11.6782 10.7544 11.6257L10.5782 11.4682C10.5257 11.3145 10.6419 11.2132 10.6757 11.2245Z" fill="#1C8A42"/>
<path d="M21.0708 8.53992C20.9733 8.15367 20.0958 7.31367 19.4321 6.78117C19.2746 6.67617 19.1696 6.73992 19.1921 6.89367C19.2746 7.02867 19.3346 7.17867 19.4171 7.31742C19.4396 7.41117 19.4846 7.47492 19.5071 7.56492C19.5071 7.56492 19.5146 7.72242 19.5296 7.73742C19.7321 7.96242 19.7621 8.15367 19.7621 8.15367C19.8654 8.37543 20.012 8.57433 20.1933 8.73867C20.4258 8.88492 20.2533 9.33867 20.2608 9.58242C20.2608 9.73242 20.1521 9.71742 20.0546 9.69492C19.3008 9.00117 18.5508 9.00117 17.8871 8.79867C17.6321 8.77242 17.6246 8.89617 17.7108 8.96367C18.1241 9.42402 18.6218 9.80082 19.1771 10.0737L19.4658 10.2537L19.7958 10.5274C20.0508 10.6924 20.0696 10.8424 20.0696 10.8574C20.0771 11.1649 19.9121 11.4049 19.8633 11.5024C19.7771 11.8287 19.6008 11.8849 19.6008 11.8849C18.1908 12.8374 17.4483 13.0849 15.1608 12.7887C15.1233 12.7737 14.9058 12.8074 15.1608 12.9012C15.7421 13.0962 17.1746 13.4074 18.5583 12.7512C18.8958 12.5187 19.1133 12.5937 19.3571 12.4512C19.6997 12.2389 20.054 12.0462 20.4183 11.8737C20.7296 11.7049 21.5921 11.5212 21.7908 11.3562C22.0196 11.3374 22.2558 11.3074 22.2708 11.1124C22.3458 11.0637 22.4583 11.1012 22.5408 10.9399C22.7208 10.9062 22.6908 10.8424 22.6908 10.8424C22.6458 10.7149 22.4733 10.6624 22.3533 10.5687C22.1733 10.5087 22.0533 10.4937 21.9221 10.5537L21.7983 10.6099C21.7983 10.6099 21.6071 10.5837 21.6071 10.5687C21.1796 10.5462 21.2208 9.13242 21.0708 8.54367V8.53992Z" fill="#FFC639"/>
<path d="M22.0722 10.8576C22.0692 10.8661 22.0637 10.8736 22.0558 10.8798C22.0479 10.8861 22.0379 10.8908 22.0264 10.8938C22.0149 10.8969 22.002 10.8981 21.9886 10.8975C21.9752 10.8968 21.9614 10.8943 21.9481 10.8902C21.9348 10.886 21.9222 10.8802 21.9111 10.8731C21.9 10.866 21.8905 10.8577 21.8832 10.8488C21.8759 10.8398 21.871 10.8304 21.8687 10.821C21.8664 10.8115 21.8667 10.8024 21.8697 10.7939C21.8758 10.7768 21.8923 10.7638 21.9156 10.7577C21.9389 10.7516 21.967 10.7529 21.9939 10.7613C22.0207 10.7698 22.0441 10.7847 22.0588 10.8027C22.0735 10.8208 22.0783 10.8405 22.0722 10.8576Z" fill="#1C8A42"/>
<path d="M4.51757 10.7843L4.21037 10.4963L3.90076 10.7795L3.93437 10.3619L3.51917 10.2947L3.86716 10.0595L3.66077 9.69471L4.06156 9.82191L4.21757 9.43311L4.36876 9.82431L4.76957 9.70431L4.55836 10.0643L4.90397 10.3043L4.48876 10.3643L4.51757 10.7819V10.7843Z" fill="white"/>
<path d="M5.60192 14.2523L5.27072 14.0339L4.94911 14.2643L5.06432 13.8923L4.73792 13.6643L5.13632 13.6547L5.25631 13.2827L5.39071 13.6499L5.79152 13.6475L5.47231 13.8803L5.59952 14.2499L5.60192 14.2523Z" fill="white"/>
<path d="M4.57732 17.2426L4.27012 16.9546L3.96052 17.2378L3.99412 16.8202L3.57892 16.753L3.92692 16.5178L3.72052 16.153L4.12132 16.2802L4.27732 15.8914L4.42852 16.2826L4.82932 16.1626L4.61812 16.5226L4.96372 16.7626L4.54852 16.8226L4.57732 17.2402V17.2426Z" fill="white"/>
<path d="M1.82692 13.7408L1.51972 13.4528L1.21012 13.736L1.24372 13.3184L0.828522 13.2512L1.17652 13.016L0.970122 12.6512L1.37092 12.7784L1.52692 12.3896L1.67812 12.7808L2.07892 12.6608L1.86772 13.0208L2.21332 13.2608L1.79812 13.3208L1.82692 13.7384V13.7408Z" fill="white"/>
<path d="M7.1191 12.8246L6.8119 12.5366L6.5023 12.8198L6.5359 12.4022L6.1207 12.335L6.4687 12.0998L6.2623 11.735L6.6631 11.8622L6.8191 11.4734L6.9703 11.8646L7.3711 11.7446L7.1599 12.1046L7.5055 12.3446L7.0903 12.4046L7.1191 12.8222V12.8246Z" fill="white"/>
</g>
<defs>
<clipPath id="clip0_69_3896">
<rect width="24" height="24" rx="12" fill="white"/>
</clipPath>
</defs>
</svg>
