<svg width="24" height="24" viewBox="0 0 24 24" fill="none" xmlns="http://www.w3.org/2000/svg">
<g clip-path="url(#clip0_69_4084)">
<g clip-path="url(#clip1_69_4084)">
<mask id="mask0_69_4084" style="mask-type:luminance" maskUnits="userSpaceOnUse" x="-4" y="0" width="32" height="24">
<path d="M28 0H-4V24H28V0Z" fill="white"/>
</mask>
<g mask="url(#mask0_69_4084)">
<path d="M-4 0H28V24H-4V0Z" fill="white"/>
<path d="M11.3898 19.9301C11.3858 19.9274 11.3825 19.924 11.3798 19.9201H11.3748L11.3098 19.8501L11.1198 19.6251L10.8748 19.3101L10.8448 19.2651L10.5348 19.1701L10.3048 19.0651L10.4248 18.9301L10.8448 19.1051L11.1548 19.1701L11.7298 19.5951L11.5648 19.7401C11.506 19.7948 11.4509 19.8533 11.3998 19.9151L11.4348 19.8901L11.4748 19.9201L11.3948 19.9301H11.3898ZM9.25976 19.2901C8.97784 19.2876 8.70168 19.2099 8.45976 19.0651C8.45976 19.0651 8.49476 19.0001 8.57476 18.9451C8.65476 18.8851 8.79476 18.8201 9.02476 18.8151C9.29476 18.8151 9.62476 18.9101 9.99976 19.0851C9.77568 19.2174 9.51996 19.2865 9.25976 19.2851V19.2901ZM8.08476 19.0301C8.03476 19.0301 7.98476 19.0101 7.95476 18.9801C7.9264 18.9455 7.90748 18.9042 7.89976 18.8601C7.88648 18.8045 7.8814 18.7472 7.88476 18.6901C7.9056 18.6827 7.92764 18.6793 7.94976 18.6801C8.04976 18.6801 8.12976 18.7651 8.16476 18.8501C8.18476 18.9001 8.18976 18.9401 8.17476 18.9751C8.16476 19.0051 8.12476 19.0251 8.08476 19.0251V19.0301ZM10.1498 18.7901C9.45476 18.6901 9.15976 18.4401 9.03476 18.2451C8.90476 18.0401 8.93476 17.8451 8.93476 17.8451C8.93476 17.8451 8.97476 17.8351 9.03476 17.8351C9.22476 17.8351 9.69476 17.9301 10.1498 18.7851V18.7901ZM8.72476 18.6501C8.42976 18.6501 8.20476 18.6001 8.05476 18.5001C7.99064 18.4598 7.93876 18.4028 7.90476 18.3351C7.89404 18.3096 7.88728 18.2827 7.88476 18.2551C7.99876 18.2076 8.12124 18.1838 8.24476 18.1851C8.4232 18.1915 8.59864 18.2333 8.76084 18.3079C8.92304 18.3826 9.06884 18.4887 9.18976 18.6201C9.01976 18.6401 8.86476 18.6501 8.72476 18.6501ZM7.28976 18.6001C6.97976 18.6001 6.54976 18.5001 6.27976 18.2351C6.27976 18.2351 6.57476 18.1601 6.89976 18.1501H6.95976C7.25476 18.1501 7.47976 18.2051 7.62976 18.3201C7.67976 18.3601 7.70976 18.3951 7.71476 18.4301C7.71976 18.4601 7.70476 18.4901 7.67476 18.5151C7.60476 18.5651 7.48476 18.5951 7.31476 18.5951H7.28976V18.6001ZM6.27476 18.0751C6.2554 18.0747 6.2364 18.0701 6.21912 18.0614C6.2018 18.0528 6.18664 18.0404 6.17476 18.0251C6.15388 17.9953 6.14016 17.9611 6.13476 17.9251C6.11976 17.8551 6.12476 17.7851 6.12476 17.7801C6.14052 17.7733 6.15756 17.7698 6.17476 17.7701C6.21976 17.7701 6.25476 17.7951 6.27476 17.8201C6.30516 17.8479 6.32908 17.8821 6.34476 17.9201C6.35476 17.9651 6.35976 18.0001 6.34476 18.0301C6.34476 18.0501 6.31476 18.0801 6.27976 18.0801L6.27476 18.0751ZM8.61976 18.0251C8.56976 18.0251 8.51976 18.0051 8.48976 17.9751C8.4614 17.9405 8.44248 17.8992 8.43476 17.8551C8.42148 17.7995 8.4164 17.7422 8.41976 17.6851C8.4406 17.6777 8.46264 17.6743 8.48476 17.6751C8.58476 17.6751 8.66976 17.7601 8.69976 17.8451C8.71976 17.8951 8.72476 17.9351 8.71476 17.9701C8.69976 18.0001 8.66476 18.0201 8.61476 18.0201L8.61976 18.0251ZM7.47976 17.9751C6.84976 17.9551 6.51976 17.7751 6.35976 17.6251C6.29004 17.5648 6.23236 17.4919 6.18976 17.4101C6.16476 17.3601 6.15476 17.3201 6.15476 17.3101C6.15476 17.3001 6.21476 17.2901 6.30476 17.2901H6.32476C6.53476 17.2901 6.96976 17.3801 7.47476 17.9751H7.47976ZM8.15976 17.9151C7.79988 17.876 7.46532 17.7114 7.21476 17.4501C7.12252 17.3492 7.05268 17.2299 7.00976 17.1001C7.00976 17.1001 7.06976 17.0851 7.15976 17.0801C7.1764 17.0795 7.19308 17.0795 7.20976 17.0801C7.45976 17.0851 7.92476 17.2001 8.15976 17.9151ZM5.55976 17.6651C5.40004 17.6666 5.24068 17.6498 5.08476 17.6151C4.81976 17.5451 4.70476 17.4451 4.65476 17.3701C4.63432 17.3401 4.62068 17.306 4.61476 17.2701C4.6132 17.2568 4.6132 17.2434 4.61476 17.2301C4.61476 17.2301 4.78976 17.1801 5.03476 17.1751C5.1588 17.172 5.28284 17.182 5.40476 17.2051C5.6598 17.2589 5.887 17.4026 6.04476 17.6101C6.04476 17.6101 5.84476 17.6701 5.55976 17.6701V17.6651ZM6.73476 17.2451C6.7116 17.2457 6.6886 17.2416 6.66708 17.233C6.6456 17.2244 6.62608 17.2115 6.60976 17.1951C6.5814 17.1605 6.56248 17.1192 6.55476 17.0751C6.53476 16.9951 6.53976 16.9151 6.53976 16.9051C6.55872 16.8966 6.57904 16.8915 6.59976 16.8901H6.60476C6.70476 16.8901 6.78476 16.9801 6.81976 17.0651C6.83976 17.1151 6.83976 17.1551 6.82976 17.1851C6.81476 17.2201 6.77976 17.2401 6.73476 17.2401V17.2451ZM5.85476 17.1201C5.68596 17.0723 5.52448 17.0016 5.37476 16.9101C5.15476 16.7751 4.87976 16.5351 4.84976 16.1601L4.89976 16.1551H4.91476C4.97976 16.1551 5.11476 16.1701 5.27976 16.2951C5.48976 16.4551 5.67976 16.7351 5.85476 17.1201ZM6.42976 17.1001C6.29188 17.0373 6.16384 16.9548 6.04976 16.8551C5.75712 16.6025 5.52912 16.2837 5.38476 15.9251C5.38476 15.9251 5.42976 15.9001 5.49976 15.8951C5.50308 15.895 5.50644 15.895 5.50976 15.8951H5.52976C5.62976 15.8951 5.77476 15.9401 5.93476 16.1151C6.12476 16.3151 6.28976 16.6451 6.43476 17.1001H6.42976ZM4.93476 17.0551C4.73976 17.0551 4.67476 16.9551 4.65476 16.9051C4.6354 16.8577 4.62848 16.806 4.63476 16.7551C4.66756 16.7479 4.70116 16.7445 4.73476 16.7451C4.79684 16.7432 4.85856 16.7557 4.91496 16.7817C4.9714 16.8078 5.02096 16.8466 5.05976 16.8951C5.06976 16.9151 5.09976 16.9651 5.07476 17.0101C5.05476 17.0401 5.00976 17.0601 4.93476 17.0601V17.0551ZM4.50976 16.5151C4.359 16.5167 4.20844 16.5051 4.05976 16.4801C3.88976 16.4501 3.79476 16.3051 3.73976 16.1851C3.68976 16.0601 3.66976 15.9351 3.66976 15.9351C4.19976 15.9501 4.45476 16.1051 4.56976 16.2351C4.64236 16.3099 4.68812 16.4066 4.69976 16.5101C4.69976 16.5101 4.61976 16.5201 4.50976 16.5201V16.5151ZM5.05976 15.9651C5.017 15.9104 4.97696 15.8537 4.93976 15.7951C4.87476 15.6951 4.81976 15.5951 4.81976 15.5151C4.81976 15.4301 4.79976 15.2651 4.78976 15.1651L4.75976 14.9401C4.77476 14.9401 5.08976 15.0601 5.08976 15.3601C5.08976 15.6601 5.05976 15.9601 5.05976 15.9601V15.9651ZM4.64976 15.9351H4.63976C4.29676 15.8324 3.98428 15.647 3.72976 15.3951C3.64476 15.2951 3.58976 15.1351 3.57476 14.9251C3.56476 14.7751 3.57476 14.6501 3.57476 14.6351C3.59268 14.6304 3.61128 14.6287 3.62976 14.6301C3.69976 14.6301 3.77976 14.6601 3.87976 14.7301C3.9726 14.7959 4.05956 14.8695 4.13976 14.9501C4.29976 15.1101 4.42476 15.2701 4.42476 15.2701C4.43976 15.2901 4.52476 15.4551 4.59976 15.6151C4.63484 15.6886 4.66168 15.7657 4.67976 15.8451C4.68476 15.8751 4.68976 15.8951 4.67976 15.9151C4.6774 15.9234 4.67204 15.9305 4.66476 15.9351C4.65816 15.9366 4.65132 15.9366 4.64476 15.9351H4.64976Z" fill="#435125"/>
<path d="M10.2946 19.9301C10.2985 19.9274 10.3019 19.924 10.3046 19.9201H10.3096L10.3746 19.8501L10.5646 19.6251L10.8096 19.3101L10.8396 19.2651L11.1496 19.1701L11.3796 19.0651L11.2596 18.9301L10.8396 19.1051L10.5296 19.1701L9.9546 19.5951L10.1196 19.7401C10.1783 19.7948 10.2334 19.8533 10.2846 19.9151L10.2496 19.8901L10.2096 19.9201L10.2896 19.9301H10.2946ZM12.4246 19.2901C12.7066 19.2876 12.9827 19.2099 13.2246 19.0651C13.2246 19.0651 13.1896 19.0001 13.1096 18.9451C13.0296 18.8851 12.8896 18.8201 12.6596 18.8151C12.3896 18.8151 12.0596 18.9101 11.6846 19.0851C11.9087 19.2174 12.1644 19.2865 12.4246 19.2851V19.2901ZM13.5996 19.0301C13.6496 19.0301 13.6996 19.0101 13.7296 18.9801C13.758 18.9455 13.7769 18.9042 13.7846 18.8601C13.7979 18.8045 13.803 18.7472 13.7996 18.6901C13.7788 18.6827 13.7567 18.6793 13.7346 18.6801C13.6346 18.6801 13.5546 18.7651 13.5196 18.8501C13.4996 18.9001 13.4946 18.9401 13.5096 18.9751C13.5196 19.0051 13.5596 19.0251 13.5996 19.0251V19.0301ZM11.5346 18.7901C12.2296 18.6901 12.5246 18.4401 12.6496 18.2451C12.7796 18.0401 12.7496 17.8451 12.7496 17.8451C12.7496 17.8451 12.7096 17.8351 12.6496 17.8351C12.4596 17.8351 11.9896 17.9301 11.5346 18.7851V18.7901ZM12.9596 18.6501C13.2546 18.6501 13.4796 18.6001 13.6296 18.5001C13.6937 18.4598 13.7456 18.4028 13.7796 18.3351C13.7904 18.3096 13.7971 18.2827 13.7996 18.2551C13.6856 18.2076 13.5631 18.1838 13.4396 18.1851C13.2612 18.1915 13.0858 18.2333 12.9235 18.3079C12.7613 18.3826 12.6155 18.4887 12.4946 18.6201C12.6646 18.6401 12.8196 18.6501 12.9596 18.6501ZM14.3946 18.6001C14.7046 18.6001 15.1346 18.5001 15.4046 18.2351C15.4046 18.2351 15.1096 18.1601 14.7846 18.1501H14.7246C14.4296 18.1501 14.2046 18.2051 14.0546 18.3201C14.0046 18.3601 13.9746 18.3951 13.9696 18.4301C13.9646 18.4601 13.9796 18.4901 14.0096 18.5151C14.0796 18.5651 14.1996 18.5951 14.3696 18.5951H14.3946V18.6001ZM15.4096 18.0751C15.429 18.0747 15.448 18.0701 15.4653 18.0614C15.4826 18.0528 15.4977 18.0404 15.5096 18.0251C15.5305 17.9953 15.5442 17.9611 15.5496 17.9251C15.5646 17.8551 15.5596 17.7851 15.5596 17.7801C15.5439 17.7733 15.5268 17.7698 15.5096 17.7701C15.4646 17.7701 15.4296 17.7951 15.4096 17.8201C15.3792 17.8479 15.3553 17.8821 15.3396 17.9201C15.3296 17.9651 15.3246 18.0001 15.3396 18.0301C15.3396 18.0501 15.3696 18.0801 15.4046 18.0801L15.4096 18.0751ZM13.0646 18.0251C13.1146 18.0251 13.1646 18.0051 13.1946 17.9751C13.223 17.9405 13.2419 17.8992 13.2496 17.8551C13.2629 17.7995 13.268 17.7422 13.2646 17.6851C13.2438 17.6777 13.2217 17.6743 13.1996 17.6751C13.0996 17.6751 13.0146 17.7601 12.9846 17.8451C12.9646 17.8951 12.9596 17.9351 12.9696 17.9701C12.9846 18.0001 13.0196 18.0201 13.0696 18.0201L13.0646 18.0251ZM14.2046 17.9751C14.8346 17.9551 15.1646 17.7751 15.3246 17.6251C15.3944 17.5648 15.452 17.4919 15.4946 17.4101C15.5196 17.3601 15.5296 17.3201 15.5296 17.3101C15.5296 17.3001 15.4696 17.2901 15.3796 17.2901H15.3596C15.1496 17.2901 14.7146 17.3801 14.2096 17.9751H14.2046ZM13.5246 17.9151C13.8845 17.876 14.219 17.7114 14.4696 17.4501C14.5618 17.3492 14.6317 17.2299 14.6746 17.1001C14.6746 17.1001 14.6146 17.0851 14.5246 17.0801C14.508 17.0795 14.4913 17.0795 14.4746 17.0801C14.2246 17.0851 13.7596 17.2001 13.5246 17.9151ZM16.1246 17.6651C16.2843 17.6666 16.4437 17.6498 16.5996 17.6151C16.8646 17.5451 16.9796 17.4451 17.0296 17.3701C17.05 17.3401 17.0637 17.306 17.0696 17.2701C17.0712 17.2568 17.0712 17.2434 17.0696 17.2301C17.0696 17.2301 16.8946 17.1801 16.6496 17.1751C16.5256 17.172 16.4015 17.182 16.2796 17.2051C16.0246 17.2589 15.7974 17.4026 15.6396 17.6101C15.6396 17.6101 15.8396 17.6701 16.1246 17.6701V17.6651ZM14.9496 17.2451C14.9728 17.2457 14.9958 17.2416 15.0173 17.233C15.0388 17.2244 15.0583 17.2115 15.0746 17.1951C15.103 17.1605 15.1219 17.1192 15.1296 17.0751C15.1496 16.9951 15.1446 16.9151 15.1446 16.9051C15.1257 16.8966 15.1054 16.8915 15.0846 16.8901H15.0796C14.9796 16.8901 14.8996 16.9801 14.8646 17.0651C14.8446 17.1151 14.8446 17.1551 14.8546 17.1851C14.8696 17.2201 14.9046 17.2401 14.9496 17.2401V17.2451ZM15.8296 17.1201C15.9984 17.0723 16.1599 17.0016 16.3096 16.9101C16.5296 16.7751 16.8046 16.5351 16.8346 16.1601L16.7846 16.1551H16.7696C16.7046 16.1551 16.5696 16.1701 16.4046 16.2951C16.1946 16.4551 16.0046 16.7351 15.8296 17.1201ZM15.2546 17.1001C15.3925 17.0373 15.5205 16.9548 15.6346 16.8551C15.9272 16.6025 16.1552 16.2837 16.2996 15.9251C16.2996 15.9251 16.2546 15.9001 16.1846 15.8951C16.1813 15.895 16.178 15.895 16.1746 15.8951H16.1546C16.0546 15.8951 15.9096 15.9401 15.7496 16.1151C15.5596 16.3151 15.3946 16.6451 15.2496 17.1001H15.2546ZM16.7496 17.0551C16.9446 17.0551 17.0096 16.9551 17.0296 16.9051C17.049 16.8577 17.0559 16.806 17.0496 16.7551C17.0168 16.7479 16.9832 16.7445 16.9496 16.7451C16.8875 16.7432 16.8258 16.7557 16.7694 16.7817C16.713 16.8078 16.6634 16.8466 16.6246 16.8951C16.6146 16.9151 16.5846 16.9651 16.6096 17.0101C16.6296 17.0401 16.6746 17.0601 16.7496 17.0601V17.0551ZM17.1746 16.5151C17.3254 16.5167 17.476 16.5051 17.6246 16.4801C17.7946 16.4501 17.8896 16.3051 17.9446 16.1851C17.9946 16.0601 18.0146 15.9351 18.0146 15.9351C17.4846 15.9501 17.2296 16.1051 17.1146 16.2351C17.042 16.3099 16.9963 16.4066 16.9846 16.5101C16.9846 16.5101 17.0646 16.5201 17.1746 16.5201V16.5151ZM16.6246 15.9651C16.6674 15.9104 16.7074 15.8537 16.7446 15.7951C16.8096 15.6951 16.8646 15.5951 16.8646 15.5151C16.8646 15.4301 16.8846 15.2651 16.8946 15.1651L16.9246 14.9401C16.9096 14.9401 16.5946 15.0601 16.5946 15.3601C16.5946 15.6601 16.6246 15.9601 16.6246 15.9601V15.9651ZM17.0346 15.9351H17.0446C17.3876 15.8324 17.7001 15.647 17.9546 15.3951C18.0396 15.2951 18.0946 15.1351 18.1096 14.9251C18.1196 14.7751 18.1096 14.6501 18.1096 14.6351C18.0917 14.6304 18.0731 14.6287 18.0546 14.6301C17.9846 14.6301 17.9046 14.6601 17.8046 14.7301C17.7118 14.7959 17.6248 14.8695 17.5446 14.9501C17.3846 15.1101 17.2596 15.2701 17.2596 15.2701C17.2446 15.2901 17.1596 15.4551 17.0846 15.6151C17.0495 15.6886 17.0227 15.7657 17.0046 15.8451C16.9996 15.8751 16.9946 15.8951 17.0046 15.9151C17.007 15.9234 17.0123 15.9305 17.0196 15.9351C17.0262 15.9366 17.033 15.9366 17.0396 15.9351H17.0346Z" fill="#435125"/>
<path d="M21.9506 3.82031L21.8606 3.85531L21.8206 3.87031L21.7106 3.86531L21.6006 3.91531L21.4106 4.04532L21.4056 4.05032L21.3306 4.07032L21.2656 4.04032L21.2306 4.06032L21.2156 4.13532L21.1806 4.19032L21.1356 4.22032L20.9856 4.23532L20.8606 4.30532L20.6906 4.25532L20.6156 4.29032L20.4506 4.44032L20.3656 4.47532H20.3406L20.2256 4.47032L20.1806 4.48532L20.1106 4.55032L19.9806 4.56032L19.9356 4.59032L19.8706 4.72032L19.8006 4.80032L19.7606 4.80532L19.7206 4.79032L19.6856 4.79532L19.6706 4.88032L19.6406 4.91532L19.5506 4.94532L19.4806 5.00532L19.4156 5.03532H19.3156L19.2306 5.08532L19.0756 5.09532L19.0106 5.15532L18.9956 5.17032L18.9656 5.18532L18.9156 5.21532L18.9056 5.22532L18.8456 5.21532L18.7756 5.24032L18.7456 5.20032L18.6956 5.22532L18.6356 5.23032L18.5556 5.19532L18.4906 5.16532L18.4456 5.17532L18.4306 5.25032V5.26032L18.3806 5.32032L18.2956 5.37532L18.2856 5.39032L18.1856 5.52032L17.9956 5.72032L17.8356 5.80032L17.6706 5.85032L17.5556 5.94532L17.2556 6.09532L16.7706 6.33532L16.6706 6.36532L16.5306 6.38532L16.2806 6.48032L16.0606 6.54532L16.0456 6.55032L16.0056 6.56532L15.6906 6.66032L15.5456 6.64032L15.4606 6.67532L15.2356 6.65032H15.0806L14.9806 6.67032L14.7956 6.76032L14.4806 6.91032L14.3806 7.01032L14.2206 7.09032L14.0306 7.15032V7.07032L13.9656 7.09032L13.9156 7.10532L13.7656 7.12532H13.6806L13.6256 7.11032H13.6156L13.3056 7.21532L12.9556 7.25032L12.7806 7.30532H12.6506L12.5706 7.33032L12.4106 7.35032L12.3506 7.33532L12.3406 7.33032L11.8706 7.35032L11.6556 7.32532L11.5556 7.35032L11.3806 7.29032L11.1306 7.26032L11.0706 7.24532L10.9406 7.20532L10.8806 7.24032L10.8306 7.24532L10.7306 7.20532H10.6906L10.6006 7.23532L10.5506 7.22532L10.5006 7.18532L10.3956 7.17032L10.3256 7.11532L9.95064 7.16532L9.85064 7.13532L9.50564 7.03532H9.45564L9.38564 7.08532L9.28564 7.12532L9.19064 7.14532L9.07064 7.15032L8.93064 7.11532L8.79064 7.04532L8.73564 7.03032L8.61564 7.04532H8.58064L8.36064 6.93032L8.08064 6.75532L7.89064 6.66032L7.81564 6.65032L7.80564 6.68532L7.84064 6.79532L7.85564 6.91032V7.01032L7.85064 7.07532L7.86564 7.13032L7.93564 7.21032L7.96564 7.28532L7.98564 7.49532V7.71032L7.95064 8.05032L7.94064 8.10032L7.90064 8.28032L7.86564 8.44532L7.72064 8.88032L7.68564 8.93032L7.58564 8.99532L7.37064 9.14532L7.21064 9.23532L7.16064 9.25532L7.03064 9.26532H6.95064L6.85064 9.21032L6.75064 9.18532L6.62064 9.09032L6.48064 9.06032L6.32064 8.97032L6.28064 8.92032L6.19564 8.91032L6.07564 8.87532L6.03064 8.86032L6.00064 8.85532L5.85064 8.85032L5.70564 8.78532L5.63064 8.76532H5.53064L5.42564 8.81532L5.37064 8.83532L5.30064 8.81032H5.25064L5.20064 8.89532L5.19064 8.91032L5.15064 8.93032H5.06564L5.02564 8.94532L4.97064 8.97032L4.92064 8.99032L4.89564 9.00032H4.88064L4.85564 9.01032H4.82564L4.76564 8.98032L4.73564 8.96532L4.68564 8.95532L4.66064 8.97032L4.65564 9.06532L4.63064 9.12032L4.55064 9.19032L4.47064 9.26032L4.42064 9.34032L4.27064 9.67532L4.17564 9.81032L4.15064 9.84532L4.05064 9.95032L3.96564 10.0153L3.77064 10.1653L3.58564 10.2403L3.42564 10.2703H3.34564L3.19564 10.2503L3.06564 10.2103L2.91564 10.1203L2.76064 9.99032L2.52564 9.76532L2.49564 9.74532L2.48564 9.74032L2.41564 9.69032H2.36064L2.34064 9.73032L2.32564 9.78032L2.31564 9.82532L2.29064 10.0753V10.0903L2.30564 10.1953L2.48564 10.4453L2.53564 10.5753L2.54564 10.5903L2.58064 10.6503L2.61064 10.7003L2.67564 10.8803L2.63064 10.9803L2.65064 11.0503L2.60064 11.0903L2.59064 11.1503L2.74564 11.3503L2.78064 11.4353L2.74564 11.5553L2.68064 11.6253L2.66564 11.6403L2.67564 11.6903L2.74564 11.7603L2.87064 11.8703L2.93564 12.0303L2.98564 12.0803L3.04564 12.0653L3.07564 12.0903H3.12564L3.17564 12.1403L3.20564 12.1503L3.25564 12.1753L3.29564 12.2253L3.30064 12.3853L3.37564 12.5753V12.7003L3.42564 12.7753L3.43564 12.8353L3.41064 13.0003L3.47064 13.0503L3.53064 13.0403L3.57064 13.0453L3.63564 13.1003L3.71564 13.2203L3.79564 13.2103L3.84564 13.2303L4.08064 13.4453L4.13064 13.4753L4.17564 13.4953L4.22564 13.5453L4.29564 13.4953H4.30564L4.38564 13.4853L4.42064 13.5103L4.49064 13.5553H4.57564L4.77564 13.6153L4.85564 13.6353L5.02564 13.7403L5.10064 13.7853L5.14064 13.8203L5.20064 13.8703L5.31064 13.9203L5.41064 13.9403L5.46064 13.9503L5.50564 13.9653L5.71564 14.0503L5.83064 14.0753L5.93064 14.1153L6.01064 14.1403H6.07064L6.15064 14.0753H6.22564L6.29064 14.0853L6.35564 14.0753L6.45564 14.0153L6.47064 13.9853L6.54064 13.9553L6.78064 13.9253L6.85064 13.9453L7.03064 13.8703L7.15064 13.9003L7.25064 13.8653L7.48564 13.9153L7.54564 13.9603L7.61564 14.0353H7.70064L7.66564 14.0903L7.76564 14.2003L7.86064 14.3353L7.86564 14.3553L7.93064 14.5503L7.98064 14.6203L8.01564 14.7153V14.7753L7.96564 14.8203L7.95564 14.8403V14.8503L7.96564 14.8753L7.98564 14.8653L8.02064 14.8453L8.07064 14.8353L8.15064 14.8453L8.20564 14.8503L8.29064 14.8103L8.35064 14.7803L8.44064 14.8203H8.54064L8.58564 14.8353L8.70564 14.8903L8.76564 14.8953L8.78564 14.8803L8.80064 14.8503L8.79564 14.8103L8.74564 14.7553L8.64564 14.6353L8.60564 14.5753L8.57564 14.4903L8.56564 14.3803L8.55564 14.3053L8.57064 14.2053L8.59564 14.1703L8.61564 14.0903L8.62064 14.0703L8.68064 13.9953L8.83064 13.8953L8.99064 13.7553L9.11564 13.6703L9.24564 13.6153V13.6003L9.26564 13.6053L9.59564 13.4903L9.74564 13.4653L10.7456 13.5353L10.7806 13.5253L10.8156 13.4303L10.8306 13.4153L10.8456 13.4053L10.9556 13.3553L11.0056 13.3453L11.1456 13.3803L11.2056 13.3953L11.3006 13.3453H11.3656L11.5006 13.2703H11.5856L11.6206 13.2603L11.7856 13.1403L11.9406 13.0953L11.9806 13.0753L11.9956 13.0653L12.1606 12.9803L12.2606 12.9003L12.3506 12.8503L12.4506 12.8303L12.7006 12.8103L12.7556 12.7253L12.8656 12.7103L12.9306 12.6353L13.0056 12.6053L13.0606 12.5253L13.1106 12.4603L13.1706 12.4253L13.3756 12.4103L13.6156 12.4403L13.6506 12.4203L13.7006 12.2253L13.7606 12.1903L13.9106 11.9653V11.8853L13.9156 11.8153L13.9406 11.7153L13.9256 11.5453L13.9456 11.3653L14.0406 11.1403L14.1256 11.0503L14.2606 10.9553L14.3306 10.9253L14.4306 10.9103H14.4406L14.4656 10.9003H14.9256L15.0406 10.8953L15.3256 10.9453H15.3456L15.4406 10.9803L15.5506 11.0653L15.6706 11.1803L15.6906 11.2003L15.7656 11.2353L15.7906 11.2453L15.8506 11.2353L15.9406 11.1853L16.0106 11.1353L16.1006 11.0853V11.0753L16.1556 11.0003L16.1756 10.9653L16.3556 10.8953L16.5656 10.8853L16.5906 10.8703H16.6006L16.6556 10.8003H16.7056L16.8356 10.8503L16.9206 10.8303L16.9906 10.8553L17.0456 10.8503L17.1456 10.8353L17.2606 10.9153L17.3256 10.9253L17.5506 11.0553H17.5706L17.5806 11.0603L17.6056 11.0503L17.6456 11.0403H17.6506L17.6556 11.0453L17.6856 11.0803L17.7206 11.0853L17.7606 11.0353L17.7456 11.0053L17.7406 10.9953L17.6556 10.9803L17.5856 10.8553L17.6556 10.7803L17.5456 10.6503L17.5256 10.6253V10.6203L17.4856 10.5603L17.2956 10.2703L17.0456 10.0703L16.9606 10.0053L16.9306 9.98032L16.7956 9.84532L16.7006 9.72032L16.6906 9.69532L16.6706 9.65032L16.6156 9.53032L16.5156 9.45532L16.4356 9.36532L16.2656 9.13532L16.2406 9.10032L16.2006 9.07532H16.1156L16.1106 9.06532H16.1056V9.06032L16.1456 9.02032L16.1956 9.01032L16.2106 8.96532L16.1256 8.72032V8.71032L16.1206 8.63532L16.1856 8.28032L16.1956 8.23532L16.3156 8.00032L16.3856 7.94032L16.4656 7.78532L16.5356 7.68532L16.6006 7.62032L16.6106 7.61532L16.7256 7.54532L16.8256 7.53032L16.9206 7.51532L17.0856 7.56532H17.2356L17.2706 7.56032L17.3406 7.55032L17.4556 7.51532L17.5106 7.48032L17.5406 7.44032L17.6006 7.24032L17.6206 7.17532L17.6556 7.10532L17.8706 6.86032L18.0306 6.71032L18.3906 6.45032L18.5656 6.34532L18.6556 6.29032L19.4606 5.93032L19.6706 5.72032L19.7806 5.61032L19.9706 5.48032L20.1956 5.38532L20.3956 5.23532L20.4356 5.18032L20.4856 5.00532L20.5356 4.99532L20.5706 4.91032L20.5856 4.88532L20.7406 4.77532L20.7606 4.76532L21.3756 4.45532L21.4656 4.47032L21.5156 4.39532L21.6906 4.36532H21.7256L21.7706 4.34032L21.8056 4.27532V4.26032L21.8106 4.09032L21.8506 4.04532L21.8706 3.93531L21.8906 3.90531L21.9106 3.88031L21.9606 3.84531L21.9506 3.82531V3.82031Z" fill="#D47600"/>
</g>
</g>
</g>
<defs>
<clipPath id="clip0_69_4084">
<rect width="24" height="24" rx="12" fill="white"/>
</clipPath>
<clipPath id="clip1_69_4084">
<rect width="32" height="24" fill="white" transform="translate(-4)"/>
</clipPath>
</defs>
</svg>
