<svg width="24" height="24" viewBox="0 0 24 24" fill="none" xmlns="http://www.w3.org/2000/svg">
<g clip-path="url(#clip0_69_4118)">
<g clip-path="url(#clip1_69_4118)">
<mask id="mask0_69_4118" style="mask-type:luminance" maskUnits="userSpaceOnUse" x="-4" y="0" width="32" height="24">
<path d="M28 0H-4V24H28V0Z" fill="white"/>
</mask>
<g mask="url(#mask0_69_4118)">
<path d="M-4 0H28V24H-4V0Z" fill="white"/>
<path fill-rule="evenodd" clip-rule="evenodd" d="M28 20.81C27.64 21.145 27.335 21.91 26.38 21.91C24.475 21.91 24 20.285 22.57 20.285C21.62 20.285 21.145 21.91 20.19 21.91C18.285 21.91 17.81 20.285 16.38 20.285C15.43 20.285 14.955 21.91 14.005 21.91C12.095 21.91 11.62 20.285 10.19 20.285C9.24 20.285 8.76 21.91 7.81 21.91C5.905 21.91 5.43 20.285 4 20.285C3.05 20.285 2.57 21.91 1.62 21.91C-0.29 21.91 -0.765 20.285 -2.19 20.285C-3.14 20.285 -3.43 21.445 -4 21.445V23.53C-3.43 23.53 -3.145 22.38 -2.185 22.38C-0.76 22.38 -0.285 24 1.615 24C2.57 24 3.045 22.375 4 22.375C5.43 22.375 5.905 24 7.815 24C8.765 24 9.235 22.375 10.19 22.375C11.62 22.375 12.095 24 14 24C14.95 24 15.43 22.375 16.38 22.375C17.81 22.375 18.285 24 20.19 24C21.14 24 21.62 22.375 22.57 22.375C24 22.375 24.48 24 26.38 24C27.33 24 27.64 23.54 28 23.21V20.81ZM28 16.75C27.64 17.085 27.335 17.85 26.38 17.85C24.475 17.85 24 16.225 22.57 16.225C21.62 16.225 21.145 17.85 20.19 17.85C18.285 17.85 17.81 16.225 16.38 16.225C15.43 16.225 14.955 17.85 14.005 17.85C12.095 17.85 11.62 16.225 10.19 16.225C9.24 16.225 8.76 17.85 7.81 17.85C5.905 17.85 5.43 16.225 4 16.225C3.05 16.225 2.57 17.85 1.62 17.85C-0.29 17.85 -0.765 16.225 -2.19 16.225C-3.14 16.225 -3.43 17.385 -4 17.385V19.475C-3.43 19.475 -3.145 18.32 -2.185 18.32C-0.76 18.32 -0.285 19.945 1.615 19.945C2.57 19.945 3.045 18.32 4 18.32C5.43 18.32 5.905 19.945 7.815 19.945C8.765 19.945 9.235 18.32 10.19 18.32C11.62 18.32 12.095 19.945 14.005 19.945C14.955 19.945 15.43 18.32 16.38 18.32C17.81 18.32 18.285 19.945 20.19 19.945C21.14 19.945 21.62 18.32 22.57 18.32C24 18.32 24.48 19.945 26.38 19.945C27.33 19.945 27.64 19.485 28 19.155V16.75ZM28 12.695C27.64 13.03 27.335 13.795 26.38 13.795C24.475 13.795 24 12.17 22.57 12.17C21.62 12.17 21.145 13.795 20.19 13.795C18.285 13.795 17.81 12.17 16.38 12.17C15.43 12.17 14.955 13.795 14.005 13.795C12.095 13.795 11.62 12.17 10.19 12.17C9.24 12.17 8.76 13.795 7.81 13.795C5.905 13.795 5.43 12.17 4 12.17C3.05 12.17 2.57 13.795 1.62 13.795C-0.29 13.795 -0.765 12.17 -2.19 12.17C-3.14 12.17 -3.43 13.33 -4 13.33V15.42C-3.43 15.42 -3.145 14.26 -2.185 14.26C-0.76 14.26 -0.285 15.885 1.615 15.885C2.57 15.885 3.045 14.26 4 14.26C5.43 14.26 5.905 15.885 7.815 15.885C8.765 15.885 9.235 14.26 10.19 14.26C11.62 14.26 12.095 15.885 14.005 15.885C14.955 15.885 15.43 14.26 16.38 14.26C17.81 14.26 18.285 15.885 20.19 15.885C21.14 15.885 21.62 14.26 22.57 14.26C24 14.26 24.48 15.885 26.38 15.885C27.33 15.885 27.64 15.425 28 15.095V12.695ZM28 8.64C27.64 8.97 27.335 9.74 26.38 9.74C24.475 9.74 24 8.115 22.57 8.115C21.62 8.115 21.145 9.74 20.19 9.74C18.285 9.74 17.81 8.115 16.38 8.115C15.43 8.115 14.955 9.74 14.005 9.74C12.095 9.74 11.62 8.115 10.19 8.115C9.24 8.115 8.76 9.74 7.81 9.74C5.905 9.74 5.43 8.115 4 8.115C3.05 8.115 2.57 9.74 1.62 9.74C-0.29 9.74 -0.765 8.115 -2.19 8.115C-3.14 8.115 -3.43 9.275 -4 9.275V11.36C-3.43 11.36 -3.145 10.21 -2.185 10.21C-0.76 10.21 -0.285 11.83 1.615 11.83C2.57 11.83 3.045 10.205 4 10.205C5.43 10.205 5.905 11.83 7.815 11.83C8.765 11.83 9.235 10.205 10.19 10.205C11.62 10.205 12.095 11.83 14.005 11.83C14.955 11.83 15.43 10.205 16.38 10.205C17.81 10.205 18.285 11.83 20.19 11.83C21.14 11.83 21.62 10.205 22.57 10.205C24 10.205 24.48 11.83 26.38 11.83C27.33 11.83 27.64 11.365 28 11.035V8.64ZM28 4.575C27.64 4.91 27.335 5.68 26.38 5.68C24.475 5.68 24 4.055 22.57 4.055C21.62 4.055 21.145 5.68 20.19 5.68C18.285 5.68 17.81 4.055 16.38 4.055C15.43 4.055 14.955 5.68 14.005 5.68C12.095 5.68 11.62 4.055 10.19 4.055C9.24 4.055 8.76 5.68 7.81 5.68C5.905 5.68 5.43 4.055 4 4.055C3.05 4.055 2.57 5.68 1.62 5.68C-0.29 5.68 -0.765 4.055 -2.19 4.055C-3.14 4.06 -3.43 5.22 -4 5.22V7.31C-3.43 7.31 -3.145 6.155 -2.19 6.155C-0.765 6.155 -0.285 7.78 1.62 7.78C2.57 7.78 3.045 6.155 4 6.155C5.43 6.155 5.905 7.78 7.815 7.78C8.765 7.78 9.235 6.155 10.185 6.155C11.62 6.155 12.095 7.78 14 7.78C14.95 7.78 15.43 6.155 16.38 6.155C17.81 6.155 18.285 7.78 20.19 7.78C21.14 7.78 21.62 6.155 22.57 6.155C24 6.155 24.48 7.78 26.38 7.78C27.33 7.78 27.64 7.315 28 6.985V4.585V4.575ZM28 0.525C27.64 0.855 27.335 1.625 26.38 1.625C24.475 1.625 24 0 22.57 0C21.62 0 21.145 1.625 20.19 1.625C18.285 1.625 17.81 0 16.38 0C15.43 0 14.955 1.625 14.005 1.625C12.095 1.625 11.62 0 10.19 0C9.24 0 8.76 1.625 7.81 1.625C5.9 1.625 5.43 0 4 0C3.05 0 2.57 1.625 1.62 1.625C-0.29 1.625 -0.765 0 -2.19 0C-3.14 0 -3.43 1.16 -4 1.16V3.255C-3.43 3.25 -3.145 2.1 -2.19 2.1C-0.765 2.1 -0.285 3.72 1.62 3.72C2.57 3.72 3.045 2.1 4 2.1C5.43 2.1 5.905 3.72 7.815 3.72C8.765 3.72 9.235 2.1 10.185 2.1C11.62 2.1 12.095 3.72 14 3.72C14.95 3.72 15.43 2.1 16.38 2.1C17.81 2.1 18.285 3.72 20.19 3.72C21.14 3.72 21.62 2.1 22.57 2.1C24 2.1 24.48 3.72 26.38 3.72C27.33 3.72 27.64 3.26 28 2.93V0.525Z" fill="#000063"/>
<path fill-rule="evenodd" clip-rule="evenodd" d="M19.7406 6.58447L19.5656 23.0345C19.5656 23.8995 20.3506 23.8995 20.4356 23.0345L20.2606 6.58447H19.7406Z" fill="#A24300" stroke="white" stroke-width="0.2625"/>
<path fill-rule="evenodd" clip-rule="evenodd" d="M21.5344 12.6996L20.9844 12.1046L20.8544 12.7096L20.6194 11.8346L20.3944 12.2746L20.3544 11.3446L20.1344 11.7846L20.0944 10.8546L19.8744 11.2946L19.7494 10.1996L19.5294 10.6396L19.3994 9.54964L19.1744 9.98964L19.0494 8.89464L18.9844 8.34464L19.0944 8.12964L19.3844 8.23464L19.8394 8.66964L20.7544 9.53964L20.1894 9.32464L21.1044 10.1946L20.5344 9.97964L21.4494 10.8446L20.8794 10.6346L21.7094 11.3346L21.1444 11.1246L21.9694 11.8246L21.4044 11.6146L22.0344 12.3746L21.3794 11.9946L21.5294 12.7096L21.5344 12.6996Z" fill="#006D00" stroke="white" stroke-width="0.225"/>
<path d="M21.535 12.6996L19.1 8.12964M20.755 9.53964L19.45 8.77964L19.18 9.98464" stroke="black" stroke-width="0.0375"/>
<path d="M21.1097 10.1893L19.7947 9.43433L19.5297 10.6393" stroke="black" stroke-width="0.0375"/>
<path d="M21.455 10.8406L20.145 10.0906L19.875 11.2906" stroke="black" stroke-width="0.0375"/>
<path d="M21.7156 11.3357L20.4906 10.7407L20.1406 11.7907" stroke="black" stroke-width="0.0375"/>
<path d="M21.975 11.8247L20.75 11.2297L20.4 12.2797" stroke="black" stroke-width="0.0375"/>
<path d="M22.0397 12.3693L20.9247 11.5593L20.8547 12.7093" stroke="black" stroke-width="0.0375"/>
<path fill-rule="evenodd" clip-rule="evenodd" d="M15.1506 4.89433L16.0406 5.23433L15.7806 4.55933L16.5606 5.32433L16.4856 4.77433L17.1156 5.69433L17.0406 5.14433L17.6706 6.06433L17.5956 5.51433L18.4106 6.55433L18.3356 6.00433L19.1506 7.04433L19.0806 6.49433L19.8906 7.53433L20.3006 8.05433L20.3356 8.32933L20.0006 8.35933L19.3006 8.14433L17.8906 7.70933L18.5556 7.65433L17.1506 7.21933L17.8156 7.16433L16.4106 6.72933L17.0756 6.66933L15.8556 6.35933L16.5206 6.30433L15.3006 5.99433L15.9656 5.93433L14.8906 5.46933L15.7456 5.53433L15.1556 4.89933L15.1506 4.89433Z" fill="#006D00" stroke="white" stroke-width="0.25"/>
<path d="M15.15 4.89526L20.335 8.33026M17.89 7.71026L19.595 7.84026L19.08 6.49526" stroke="black" stroke-width="0.0375"/>
<path d="M17.15 7.22L18.85 7.35L18.335 6" stroke="black" stroke-width="0.0375"/>
<path d="M16.4094 6.72928L18.1094 6.85928L17.5944 5.50928" stroke="black" stroke-width="0.0375"/>
<path d="M15.85 6.36026L17.375 6.36526L17.04 5.14526" stroke="black" stroke-width="0.0375"/>
<path d="M15.3 5.9899L16.82 5.9999L16.485 4.7749" stroke="black" stroke-width="0.0375"/>
<path d="M14.8906 5.46933L16.4456 5.75433L15.7856 4.55933" stroke="black" stroke-width="0.0375"/>
<path fill-rule="evenodd" clip-rule="evenodd" d="M25.4906 6.04058L24.7506 6.58558L25.5706 6.67558L24.4256 6.94558L25.0356 7.12558L23.8006 7.21558L24.4106 7.39558L23.1756 7.48558L23.7806 7.67058L22.3356 7.85058L22.9456 8.03058L21.5006 8.21058L22.1106 8.39058L20.6656 8.57058L19.9406 8.66058L19.6406 8.57058L19.7506 8.30058L20.2856 7.85058L21.3506 6.94558L21.1206 7.48558L22.1856 6.58558L21.9556 7.12558L23.0206 6.22558L22.7906 6.76558L23.6506 5.95058L23.4256 6.49558L24.2756 5.68058L24.0506 6.22058L25.0006 5.59058L24.5656 6.22558L25.4956 6.04558L25.4906 6.04058Z" fill="#006D00" stroke="white" stroke-width="0.25"/>
<path d="M25.4906 6.04053L19.6406 8.57053M21.3456 6.94553L20.4756 8.21053L22.1106 8.39053" stroke="black" stroke-width="0.0375"/>
<path d="M22.1844 6.58447L21.3094 7.84947L22.9444 8.02947" stroke="black" stroke-width="0.0375"/>
<path d="M23.0203 6.22021L22.1453 7.48521L23.7803 7.67021" stroke="black" stroke-width="0.0375"/>
<path d="M23.6494 5.94995L22.9844 7.12495L24.4094 7.39495" stroke="black" stroke-width="0.0375"/>
<path d="M24.2744 5.67969L23.6094 6.85469L25.0344 7.12469" stroke="black" stroke-width="0.0375"/>
<path d="M24.9997 5.59058L24.0297 6.67558H25.5647" stroke="black" stroke-width="0.0375"/>
<path fill-rule="evenodd" clip-rule="evenodd" d="M25.3706 11.5153L24.4506 11.2503L24.7806 11.9003L23.9256 11.2003L24.0556 11.7353L23.3306 10.8753L23.4656 11.4153L22.7406 10.5503L22.8706 11.0903L21.9456 10.1203L22.0806 10.6603L21.1556 9.69031L21.2906 10.2303L20.3656 9.26031L19.9056 8.77531L19.8406 8.50531L20.1706 8.44531L20.8956 8.60531L22.3456 8.92531L21.6856 9.03531L23.1356 9.35531L22.4756 9.46531L23.9256 9.78531L23.2656 9.90031L24.5156 10.1103L23.8556 10.2203L25.1056 10.4303L24.4506 10.5503L25.5656 10.9253H24.7156L25.3656 11.5253L25.3706 11.5153Z" fill="#006D00" stroke="white" stroke-width="0.25"/>
<path d="M25.3706 11.5146L19.8406 8.50464M22.3406 8.92464L20.6306 8.93464L21.2906 10.2346" stroke="black" stroke-width="0.0375"/>
<path d="M23.1303 9.35474L21.4203 9.36474L22.0803 10.6647" stroke="black" stroke-width="0.0375"/>
<path d="M23.9194 9.78442L22.2094 9.79442L22.8694 11.0944" stroke="black" stroke-width="0.0375"/>
<path d="M24.515 10.1094L23 10.2244L23.465 11.4144" stroke="black" stroke-width="0.0375"/>
<path d="M25.1103 10.4343L23.5953 10.5443L24.0553 11.7343" stroke="black" stroke-width="0.0375"/>
<path d="M25.5656 10.9193L23.9906 10.7593L24.7806 11.8993" stroke="black" stroke-width="0.0375"/>
<path fill-rule="evenodd" clip-rule="evenodd" d="M15.7603 11.8306L16.2253 11.1806L15.5203 11.2856L16.3903 10.7906L15.8353 10.7656L16.8353 10.4156L16.2803 10.3856L17.2803 10.0356L16.7253 10.0056L17.8753 9.52562L17.3153 9.50062L18.4653 9.01562L17.9103 8.99063L19.0603 8.51062L19.6353 8.26562L19.9153 8.28062L19.8953 8.54562L19.5803 9.06563L18.9503 10.1056L18.9903 9.57562L18.3603 10.6156L18.3953 10.0806L17.7653 11.1206L17.8003 10.5906L17.3203 11.5006L17.3553 10.9706L16.8753 11.8806L16.9103 11.3506L16.3003 12.1206L16.4853 11.4606L15.7603 11.8306Z" fill="#006D00" stroke="white" stroke-width="0.225"/>
<path d="M15.7594 11.8298L19.9094 8.27979M18.9544 10.1048L19.3194 8.78479L17.9094 8.98979" stroke="black" stroke-width="0.0375"/>
<path d="M18.3606 10.6154L18.7256 9.29541L17.3156 9.49541" stroke="black" stroke-width="0.0375"/>
<path d="M17.765 11.12L18.135 9.80005L16.725 10.005" stroke="black" stroke-width="0.0375"/>
<path d="M17.3197 11.4993L17.5397 10.3093L16.2797 10.3843" stroke="black" stroke-width="0.0375"/>
<path d="M16.8744 11.8807L17.0944 10.6907L15.8344 10.7657" stroke="black" stroke-width="0.0375"/>
<path d="M16.3003 12.1203L16.8003 10.9453L15.5203 11.2853" stroke="black" stroke-width="0.0375"/>
<path fill-rule="evenodd" clip-rule="evenodd" d="M24.1506 3.31063L23.2556 3.91063L23.1106 3.26562L22.5856 4.15564L22.4856 3.73063L22.0556 4.64064L21.9956 4.22064L21.6606 5.15564L21.4706 4.70564L21.1356 5.84064L20.9456 5.39064L20.6106 6.52564L20.4156 6.07564L20.0806 7.21064L19.9156 7.78064L20.0106 8.00564L20.3706 7.88564L20.9906 7.42564L22.2406 6.50564L21.5206 6.74064L22.7656 5.81564L22.0456 6.05564L23.2906 5.13064L22.5706 5.37064L23.8206 4.65064L22.9706 4.85064L24.3006 4.16564L23.4856 4.37564L24.4706 3.59563L23.6206 4.00064L24.1506 3.31063Z" fill="#006D00" stroke="white" stroke-width="0.25"/>
<path d="M23.7994 3.63428L22.5094 4.74426L20.0094 8.00426" stroke="black" stroke-width="0.0375"/>
<path d="M21.9656 6.6399L20.5356 7.3149L20.4156 6.2749" stroke="black" stroke-width="0.0375"/>
<path d="M22.5103 5.96058L21.0603 6.63058L20.9453 5.59058" stroke="black" stroke-width="0.0375"/>
<path d="M23.0247 5.27442L21.5897 5.94442L21.4797 4.90942" stroke="black" stroke-width="0.0375"/>
<path d="M23.4556 4.76442L22.1156 5.25942L21.9656 4.40942" stroke="black" stroke-width="0.0375"/>
<path d="M23.9494 4.27468L22.5094 4.74968L22.4594 3.92969" stroke="black" stroke-width="0.0375"/>
<path d="M24.1394 3.80947L22.8094 4.48946L23.0694 3.45947" stroke="black" stroke-width="0.0375"/>
<path fill-rule="evenodd" clip-rule="evenodd" d="M19.3047 2.19067L19.7047 3.10067L20.2197 2.62067L20.1347 3.61067L20.4747 3.29067L20.2897 4.26069L20.5897 3.93067L20.3147 4.88069L20.7497 4.58069L20.3497 5.69569L20.7797 5.39569L20.3797 6.52069L20.8147 6.22069L20.4147 7.34069L20.2147 7.90069L19.9947 8.05069L19.7547 7.78569L19.5047 7.11569L19.0047 5.77069L19.4747 6.29569L18.9697 4.94569L19.4397 5.47569L18.9397 4.12569L19.3997 4.65069L18.7747 3.48067L19.3747 4.03569L18.6547 2.84067L19.2197 3.39067L18.8547 2.28067L19.3347 3.01067L19.3047 2.19067Z" fill="#006D00" stroke="white" stroke-width="0.25"/>
<path d="M19.4094 2.62036L19.8344 4.14537L19.9944 8.04537" stroke="black" stroke-width="0.0375"/>
<path d="M19.15 6.00928L19.96 7.22428L20.695 6.38928" stroke="black" stroke-width="0.0375"/>
<path d="M19.1 5.18433L19.925 6.40433L20.66 5.56933" stroke="black" stroke-width="0.0375"/>
<path d="M19.075 4.36572L19.895 5.58572L20.615 4.75072" stroke="black" stroke-width="0.0375"/>
<path d="M19.0203 3.74536L19.8603 4.76537L20.5103 4.11537" stroke="black" stroke-width="0.0375"/>
<path d="M18.9 3.1001L19.835 4.1501L20.385 3.4701" stroke="black" stroke-width="0.0375"/>
<path d="M19.0156 2.62036L19.7356 3.79536L20.1406 2.80036" stroke="black" stroke-width="0.0375"/>
<path fill-rule="evenodd" clip-rule="evenodd" d="M13.95 8.89964L15.115 8.08964L14.53 7.78964L15.555 7.95964L15.205 7.49464L16.195 7.86964L15.845 7.40464L16.84 7.77464L16.49 7.31464L17.69 7.71964L17.34 7.25464L18.505 7.85964L18.155 7.39464L19.355 7.80464L19.94 8.10464L20.115 8.33464L19.88 8.49964L19.235 8.58964L18.2 9.01964L18.39 8.64964L17.105 8.82964L17.57 8.50964L16.255 8.88964L16.725 8.56464L15.615 8.97964L16.11 8.45964L14.97 9.06964L15.47 8.54964L14.53 9.19964L15.055 8.47964L13.95 8.89964Z" fill="#006D00" stroke="white" stroke-width="0.2375"/>
<path d="M14.3156 8.67969L15.5256 8.15469L16.1706 8.06469L16.7056 8.05469L17.6306 8.11469L18.4656 8.14969L20.1156 8.33469" stroke="black" stroke-width="0.0375"/>
<path d="M18.3603 8.84553L19.2853 8.27553L18.3453 7.54053" stroke="black" stroke-width="0.0375"/>
<path d="M17.325 8.75942L18.46 8.14942L17.525 7.40942" stroke="black" stroke-width="0.0375"/>
<path d="M16.5847 8.73969L17.6297 8.11469L16.6797 7.42969M15.2047 8.90969L16.1697 8.06469L15.3897 7.63969" stroke="black" stroke-width="0.0375"/>
<path d="M14.775 8.96553L15.525 8.16053L14.925 7.93553M15.845 8.82053L16.795 8.06053L16.035 7.54053" stroke="black" stroke-width="0.0375"/>
<path fill-rule="evenodd" clip-rule="evenodd" d="M17.8761 17.7597L17.8651 16.3959L17.47 15.7589C17.371 15.4458 17.4195 15.2946 17.5799 15.2839C17.7396 15.2743 17.8981 15.3649 18.1283 15.375C18.3586 15.3851 18.3152 15.0213 18.6554 15.0315C18.9956 15.0416 19.5886 15.2237 20.093 15.2541C20.5981 15.2839 20.8613 15.0922 21.4433 15.0719C22.0253 15.0517 22.1786 15.3244 22.2116 15.3244C22.2446 15.3244 22.4095 15.2136 22.5737 15.1934C22.7386 15.1731 22.7936 15.2541 22.7936 15.2541C22.7936 15.2541 22.7826 15.5976 22.7057 15.7994C22.6287 16.0018 22.3545 16.3352 22.3435 16.3352C22.3325 16.3352 22.2446 17.8205 22.2446 17.8306C22.2446 17.8407 17.8761 17.7901 17.8761 17.7597Z" fill="#CC0000" stroke="black" stroke-width="0.0206823"/>
<path fill-rule="evenodd" clip-rule="evenodd" d="M22.3922 16.3596C22.3922 16.3596 22.832 16.05 22.8436 15.3053C22.8501 14.8767 22.6212 14.5671 22.0482 14.5671C21.2463 14.5671 20.101 14.8832 20.101 14.8832V14.9886C20.101 14.9886 21.0173 14.6725 22.0488 14.6725C22.5067 14.6725 22.7363 14.9821 22.7363 15.2987C22.7363 15.8262 22.2771 16.3602 22.2771 16.3602V17.2037H22.3922V16.3596Z" fill="#FFF100" stroke="black" stroke-width="0.0206823"/>
<path fill-rule="evenodd" clip-rule="evenodd" d="M22.631 16.1385C22.6298 16.1531 22.6319 16.1677 22.6372 16.1814C22.6424 16.1952 22.6506 16.2078 22.6614 16.2185C22.6722 16.2292 22.6853 16.2378 22.6998 16.2436C22.7143 16.2494 22.73 16.2524 22.7458 16.2524C22.7617 16.2524 22.7774 16.2494 22.7919 16.2436C22.8064 16.2378 22.8194 16.2292 22.8302 16.2185C22.841 16.2078 22.8492 16.1952 22.8545 16.1814C22.8597 16.1677 22.8618 16.1531 22.8606 16.1385C22.8584 16.1119 22.8454 16.087 22.8241 16.0688C22.8028 16.0506 22.7749 16.0405 22.7458 16.0405C22.7168 16.0405 22.6888 16.0506 22.6675 16.0688C22.6462 16.087 22.6332 16.1119 22.631 16.1385Z" fill="white" stroke="black" stroke-width="0.0206823"/>
<path fill-rule="evenodd" clip-rule="evenodd" d="M22.7467 15.8981C22.7455 15.9126 22.7476 15.9272 22.7528 15.941C22.758 15.9548 22.7663 15.9674 22.777 15.9781C22.7878 15.9888 22.8009 15.9973 22.8154 16.0031C22.8299 16.009 22.8456 16.012 22.8614 16.012C22.8773 16.012 22.893 16.009 22.9075 16.0031C22.922 15.9973 22.9351 15.9888 22.9458 15.9781C22.9566 15.9674 22.9649 15.9548 22.9701 15.941C22.9753 15.9272 22.9774 15.9126 22.9762 15.8981C22.9741 15.8714 22.961 15.8465 22.9397 15.8283C22.9184 15.8102 22.8905 15.8 22.8614 15.8C22.8324 15.8 22.8044 15.8102 22.7832 15.8283C22.7619 15.8465 22.7488 15.8714 22.7467 15.8981Z" fill="white" stroke="black" stroke-width="0.0206823"/>
<path fill-rule="evenodd" clip-rule="evenodd" d="M22.806 15.6481C22.8048 15.6626 22.8069 15.6772 22.8122 15.691C22.8174 15.7048 22.8256 15.7174 22.8364 15.7281C22.8472 15.7388 22.8603 15.7473 22.8748 15.7531C22.8893 15.759 22.905 15.762 22.9208 15.762C22.9367 15.762 22.9524 15.759 22.9669 15.7531C22.9814 15.7473 22.9944 15.7388 23.0052 15.7281C23.016 15.7174 23.0242 15.7048 23.0295 15.691C23.0347 15.6772 23.0368 15.6626 23.0356 15.6481C23.0334 15.6214 23.0204 15.5965 22.9991 15.5783C22.9778 15.5602 22.9499 15.55 22.9208 15.55C22.8918 15.55 22.8638 15.5602 22.8425 15.5783C22.8212 15.5965 22.8082 15.6214 22.806 15.6481Z" fill="white" stroke="black" stroke-width="0.0206823"/>
<path fill-rule="evenodd" clip-rule="evenodd" d="M22.8514 15.3885C22.8502 15.4031 22.8522 15.4177 22.8575 15.4314C22.8627 15.4452 22.871 15.4578 22.8818 15.4685C22.8925 15.4792 22.9056 15.4878 22.9201 15.4936C22.9346 15.4994 22.9503 15.5024 22.9661 15.5024C22.982 15.5024 22.9976 15.4994 23.0122 15.4936C23.0267 15.4878 23.0398 15.4792 23.0505 15.4685C23.0613 15.4578 23.0696 15.4452 23.0748 15.4314C23.08 15.4177 23.0821 15.4031 23.0809 15.3885C23.0788 15.3619 23.0657 15.337 23.0444 15.3188C23.0231 15.3006 22.9952 15.2905 22.9661 15.2905C22.9371 15.2905 22.9091 15.3006 22.8878 15.3188C22.8666 15.337 22.8535 15.3619 22.8514 15.3885Z" fill="white" stroke="black" stroke-width="0.0206823"/>
<path fill-rule="evenodd" clip-rule="evenodd" d="M22.842 15.109C22.8408 15.1236 22.8429 15.1382 22.8481 15.1519C22.8533 15.1657 22.8616 15.1783 22.8724 15.189C22.8832 15.1997 22.8962 15.2083 22.9107 15.2141C22.9252 15.2199 22.9409 15.2229 22.9568 15.2229C22.9726 15.2229 22.9883 15.2199 23.0028 15.2141C23.0173 15.2083 23.0304 15.1997 23.0412 15.189C23.0519 15.1783 23.0602 15.1657 23.0654 15.1519C23.0706 15.1382 23.0727 15.1236 23.0716 15.109C23.0694 15.0824 23.0563 15.0575 23.035 15.0393C23.0138 15.0211 22.9858 15.011 22.9568 15.011C22.9277 15.011 22.8998 15.0211 22.8785 15.0393C22.8572 15.0575 22.8442 15.0824 22.842 15.109Z" fill="white" stroke="black" stroke-width="0.0206823"/>
<path fill-rule="evenodd" clip-rule="evenodd" d="M22.467 16.3544C22.4658 16.3689 22.4679 16.3835 22.4731 16.3973C22.4783 16.4111 22.4866 16.4237 22.4974 16.4344C22.5082 16.4451 22.5212 16.4536 22.5357 16.4594C22.5502 16.4653 22.5659 16.4683 22.5818 16.4683C22.5976 16.4683 22.6133 16.4653 22.6278 16.4594C22.6423 16.4536 22.6554 16.4451 22.6662 16.4344C22.6769 16.4237 22.6852 16.4111 22.6904 16.3973C22.6956 16.3835 22.6977 16.3689 22.6966 16.3544C22.6944 16.3277 22.6813 16.3028 22.66 16.2846C22.6388 16.2665 22.6108 16.2563 22.5818 16.2563C22.5527 16.2563 22.5248 16.2665 22.5035 16.2846C22.4822 16.3028 22.4692 16.3277 22.467 16.3544Z" fill="white" stroke="black" stroke-width="0.0206823"/>
<path fill-rule="evenodd" clip-rule="evenodd" d="M22.742 14.8387C22.7408 14.8533 22.7429 14.8679 22.7481 14.8816C22.7533 14.8954 22.7616 14.908 22.7724 14.9187C22.7832 14.9294 22.7962 14.938 22.8107 14.9438C22.8252 14.9496 22.8409 14.9526 22.8568 14.9526C22.8726 14.9526 22.8883 14.9496 22.9028 14.9438C22.9173 14.938 22.9304 14.9294 22.9412 14.9187C22.9519 14.908 22.9602 14.8954 22.9654 14.8816C22.9706 14.8679 22.9727 14.8533 22.9716 14.8387C22.9694 14.8121 22.9563 14.7872 22.935 14.769C22.9138 14.7508 22.8858 14.7407 22.8568 14.7407C22.8277 14.7407 22.7998 14.7508 22.7785 14.769C22.7572 14.7872 22.7442 14.8121 22.742 14.8387Z" fill="white" stroke="black" stroke-width="0.0206823"/>
<path fill-rule="evenodd" clip-rule="evenodd" d="M22.531 14.6229C22.5298 14.6375 22.5319 14.6521 22.5372 14.6659C22.5424 14.6796 22.5506 14.6922 22.5614 14.7029C22.5722 14.7136 22.5853 14.7221 22.5998 14.728C22.6143 14.7338 22.63 14.7368 22.6458 14.7368C22.6617 14.7368 22.6774 14.7338 22.6919 14.728C22.7064 14.7221 22.7194 14.7136 22.7302 14.7029C22.741 14.6922 22.7492 14.6796 22.7545 14.6659C22.7597 14.6521 22.7618 14.6375 22.7606 14.6229C22.7584 14.5963 22.7454 14.5713 22.7241 14.5532C22.7028 14.535 22.6749 14.5249 22.6458 14.5249C22.6168 14.5249 22.5888 14.535 22.5675 14.5532C22.5462 14.5713 22.5332 14.5963 22.531 14.6229Z" fill="white" stroke="black" stroke-width="0.0206823"/>
<path fill-rule="evenodd" clip-rule="evenodd" d="M22.2467 14.484C22.2455 14.4986 22.2476 14.5132 22.2528 14.5269C22.258 14.5407 22.2663 14.5533 22.277 14.564C22.2878 14.5747 22.3009 14.5833 22.3154 14.5891C22.3299 14.5949 22.3456 14.5979 22.3614 14.5979C22.3773 14.5979 22.393 14.5949 22.4075 14.5891C22.422 14.5833 22.4351 14.5747 22.4458 14.564C22.4566 14.5533 22.4649 14.5407 22.4701 14.5269C22.4753 14.5132 22.4774 14.4986 22.4762 14.484C22.4741 14.4574 22.461 14.4325 22.4397 14.4143C22.4184 14.3961 22.3905 14.386 22.3614 14.386C22.3324 14.386 22.3044 14.3961 22.2832 14.4143C22.2619 14.4325 22.2488 14.4574 22.2467 14.484Z" fill="white" stroke="black" stroke-width="0.0206823"/>
<path fill-rule="evenodd" clip-rule="evenodd" d="M21.956 14.4637C21.9548 14.4783 21.9569 14.4929 21.9622 14.5066C21.9674 14.5204 21.9756 14.533 21.9864 14.5437C21.9972 14.5544 22.0103 14.563 22.0248 14.5688C22.0393 14.5746 22.055 14.5776 22.0708 14.5776C22.0867 14.5776 22.1024 14.5746 22.1169 14.5688C22.1314 14.563 22.1444 14.5544 22.1552 14.5437C22.166 14.533 22.1742 14.5204 22.1795 14.5066C22.1847 14.4929 22.1868 14.4783 22.1856 14.4637C22.1834 14.4371 22.1704 14.4122 22.1491 14.394C22.1278 14.3758 22.0999 14.3657 22.0708 14.3657C22.0418 14.3657 22.0138 14.3758 21.9925 14.394C21.9712 14.4122 21.9582 14.4371 21.956 14.4637Z" fill="white" stroke="black" stroke-width="0.0206823"/>
<path fill-rule="evenodd" clip-rule="evenodd" d="M21.656 14.4684C21.6548 14.4829 21.6569 14.4975 21.6622 14.5113C21.6674 14.5251 21.6756 14.5377 21.6864 14.5484C21.6972 14.5591 21.7103 14.5676 21.7248 14.5734C21.7393 14.5793 21.755 14.5823 21.7708 14.5823C21.7867 14.5823 21.8024 14.5793 21.8169 14.5734C21.8314 14.5676 21.8444 14.5591 21.8552 14.5484C21.866 14.5377 21.8742 14.5251 21.8795 14.5113C21.8847 14.4975 21.8868 14.4829 21.8856 14.4684C21.8834 14.4417 21.8704 14.4168 21.8491 14.3986C21.8278 14.3804 21.7999 14.3704 21.7708 14.3704C21.7418 14.3704 21.7138 14.3804 21.6925 14.3986C21.6712 14.4168 21.6582 14.4417 21.656 14.4684Z" fill="white" stroke="black" stroke-width="0.0206823"/>
<path fill-rule="evenodd" clip-rule="evenodd" d="M21.3467 14.5184C21.3455 14.533 21.3476 14.5476 21.3528 14.5614C21.358 14.5751 21.3663 14.5877 21.377 14.5984C21.3878 14.6091 21.4009 14.6176 21.4154 14.6235C21.4299 14.6293 21.4456 14.6323 21.4614 14.6323C21.4773 14.6323 21.493 14.6293 21.5075 14.6235C21.522 14.6176 21.5351 14.6091 21.5458 14.5984C21.5566 14.5877 21.5649 14.5751 21.5701 14.5614C21.5753 14.5476 21.5774 14.533 21.5762 14.5184C21.5741 14.4918 21.561 14.4668 21.5397 14.4487C21.5184 14.4305 21.4905 14.4204 21.4614 14.4204C21.4324 14.4204 21.4044 14.4305 21.3832 14.4487C21.3619 14.4668 21.3488 14.4918 21.3467 14.5184Z" fill="white" stroke="black" stroke-width="0.0206823"/>
<path fill-rule="evenodd" clip-rule="evenodd" d="M21.042 14.5543C21.0408 14.5689 21.0429 14.5835 21.0481 14.5973C21.0533 14.611 21.0616 14.6237 21.0724 14.6343C21.0832 14.645 21.0962 14.6536 21.1107 14.6594C21.1252 14.6652 21.1409 14.6682 21.1568 14.6682C21.1726 14.6682 21.1883 14.6652 21.2028 14.6594C21.2173 14.6536 21.2304 14.645 21.2412 14.6343C21.2519 14.6237 21.2602 14.611 21.2654 14.5973C21.2706 14.5835 21.2727 14.5689 21.2716 14.5543C21.2694 14.5277 21.2563 14.5028 21.235 14.4846C21.2138 14.4664 21.1858 14.4563 21.1568 14.4563C21.1277 14.4563 21.0998 14.4664 21.0785 14.4846C21.0572 14.5028 21.0442 14.5277 21.042 14.5543Z" fill="white" stroke="black" stroke-width="0.0206823"/>
<path fill-rule="evenodd" clip-rule="evenodd" d="M20.706 14.598C20.7048 14.6126 20.7069 14.6272 20.7122 14.641C20.7174 14.6547 20.7256 14.6673 20.7364 14.678C20.7472 14.6887 20.7603 14.6972 20.7748 14.7031C20.7893 14.7089 20.805 14.7119 20.8208 14.7119C20.8367 14.7119 20.8524 14.7089 20.8669 14.7031C20.8814 14.6972 20.8944 14.6887 20.9052 14.678C20.916 14.6673 20.9242 14.6547 20.9295 14.641C20.9347 14.6272 20.9368 14.6126 20.9356 14.598C20.9334 14.5714 20.9204 14.5464 20.8991 14.5283C20.8778 14.5101 20.8499 14.5 20.8208 14.5C20.7918 14.5 20.7638 14.5101 20.7425 14.5283C20.7212 14.5464 20.7082 14.5714 20.706 14.598Z" fill="white" stroke="black" stroke-width="0.0206823"/>
<path fill-rule="evenodd" clip-rule="evenodd" d="M20.4264 14.673C20.4252 14.6875 20.4272 14.7022 20.4325 14.7159C20.4377 14.7297 20.446 14.7423 20.4568 14.753C20.4675 14.7637 20.4806 14.7722 20.4951 14.778C20.5096 14.7839 20.5253 14.7869 20.5411 14.7869C20.557 14.7869 20.5726 14.7839 20.5872 14.778C20.6017 14.7722 20.6148 14.7637 20.6255 14.753C20.6363 14.7423 20.6446 14.7297 20.6498 14.7159C20.655 14.7022 20.6571 14.6875 20.6559 14.673C20.6538 14.6463 20.6407 14.6214 20.6194 14.6032C20.5981 14.5851 20.5702 14.575 20.5411 14.575C20.5121 14.575 20.4841 14.5851 20.4628 14.6032C20.4416 14.6214 20.4285 14.6463 20.4264 14.673Z" fill="white" stroke="black" stroke-width="0.0206823"/>
<path fill-rule="evenodd" clip-rule="evenodd" d="M17.569 16.1385C17.5702 16.1531 17.5681 16.1677 17.5628 16.1814C17.5576 16.1952 17.5494 16.2078 17.5386 16.2185C17.5278 16.2292 17.5147 16.2378 17.5002 16.2436C17.4857 16.2494 17.47 16.2524 17.4542 16.2524C17.4383 16.2524 17.4226 16.2494 17.4081 16.2436C17.3936 16.2378 17.3806 16.2292 17.3698 16.2185C17.359 16.2078 17.3508 16.1952 17.3455 16.1814C17.3403 16.1677 17.3382 16.1531 17.3394 16.1385C17.3416 16.1119 17.3546 16.087 17.3759 16.0688C17.3972 16.0506 17.4251 16.0405 17.4542 16.0405C17.4832 16.0405 17.5112 16.0506 17.5325 16.0688C17.5538 16.087 17.5668 16.1119 17.569 16.1385Z" fill="white" stroke="black" stroke-width="0.0206823"/>
<path fill-rule="evenodd" clip-rule="evenodd" d="M17.4533 15.8996C17.4545 15.9141 17.4524 15.9287 17.4472 15.9425C17.442 15.9562 17.4337 15.9689 17.423 15.9796C17.4122 15.9902 17.3991 15.9988 17.3846 16.0046C17.3701 16.0104 17.3544 16.0134 17.3386 16.0134C17.3227 16.0134 17.307 16.0104 17.2925 16.0046C17.278 15.9988 17.2649 15.9902 17.2542 15.9796C17.2434 15.9689 17.2351 15.9562 17.2299 15.9425C17.2247 15.9287 17.2226 15.9141 17.2238 15.8996C17.2259 15.8729 17.239 15.848 17.2603 15.8298C17.2816 15.8116 17.3095 15.8015 17.3386 15.8015C17.3676 15.8015 17.3956 15.8116 17.4168 15.8298C17.4381 15.848 17.4512 15.8729 17.4533 15.8996Z" fill="white" stroke="black" stroke-width="0.0206823"/>
<path fill-rule="evenodd" clip-rule="evenodd" d="M17.394 15.6496C17.3952 15.6641 17.3931 15.6787 17.3878 15.6925C17.3826 15.7062 17.3744 15.7189 17.3636 15.7296C17.3528 15.7402 17.3397 15.7488 17.3252 15.7546C17.3107 15.7604 17.295 15.7634 17.2792 15.7634C17.2633 15.7634 17.2476 15.7604 17.2331 15.7546C17.2186 15.7488 17.2056 15.7402 17.1948 15.7296C17.184 15.7189 17.1758 15.7062 17.1705 15.6925C17.1653 15.6787 17.1632 15.6641 17.1644 15.6496C17.1666 15.6229 17.1796 15.598 17.2009 15.5798C17.2222 15.5616 17.2501 15.5515 17.2792 15.5515C17.3082 15.5515 17.3362 15.5616 17.3575 15.5798C17.3788 15.598 17.3918 15.6229 17.394 15.6496Z" fill="white" stroke="black" stroke-width="0.0206823"/>
<path fill-rule="evenodd" clip-rule="evenodd" d="M17.3533 15.3885C17.3545 15.4031 17.3524 15.4177 17.3472 15.4314C17.342 15.4452 17.3337 15.4578 17.323 15.4685C17.3122 15.4792 17.2991 15.4878 17.2846 15.4936C17.2701 15.4994 17.2544 15.5024 17.2386 15.5024C17.2227 15.5024 17.207 15.4994 17.1925 15.4936C17.178 15.4878 17.1649 15.4792 17.1542 15.4685C17.1434 15.4578 17.1351 15.4452 17.1299 15.4314C17.1247 15.4177 17.1226 15.4031 17.1238 15.3885C17.1259 15.3619 17.139 15.337 17.1603 15.3188C17.1816 15.3006 17.2095 15.2905 17.2386 15.2905C17.2676 15.2905 17.2956 15.3006 17.3168 15.3188C17.3381 15.337 17.3512 15.3619 17.3533 15.3885Z" fill="white" stroke="black" stroke-width="0.0206823"/>
<path fill-rule="evenodd" clip-rule="evenodd" d="M17.3627 15.109C17.3639 15.1236 17.3618 15.1382 17.3566 15.1519C17.3514 15.1657 17.3431 15.1783 17.3323 15.189C17.3216 15.1997 17.3085 15.2083 17.294 15.2141C17.2794 15.2199 17.2638 15.2229 17.2479 15.2229C17.2321 15.2229 17.2164 15.2199 17.2019 15.2141C17.1874 15.2083 17.1743 15.1997 17.1635 15.189C17.1528 15.1783 17.1445 15.1657 17.1393 15.1519C17.134 15.1382 17.132 15.1236 17.1331 15.109C17.1353 15.0824 17.1484 15.0575 17.1696 15.0393C17.1909 15.0211 17.2189 15.011 17.2479 15.011C17.277 15.011 17.3049 15.0211 17.3262 15.0393C17.3475 15.0575 17.3605 15.0824 17.3627 15.109Z" fill="white" stroke="black" stroke-width="0.0206823"/>
<path fill-rule="evenodd" clip-rule="evenodd" d="M17.458 14.8387C17.4592 14.8533 17.4571 14.8679 17.4519 14.8816C17.4467 14.8954 17.4384 14.908 17.4276 14.9187C17.4168 14.9294 17.4038 14.938 17.3893 14.9438C17.3748 14.9496 17.3591 14.9526 17.3432 14.9526C17.3274 14.9526 17.3117 14.9496 17.2972 14.9438C17.2827 14.938 17.2696 14.9294 17.2588 14.9187C17.2481 14.908 17.2398 14.8954 17.2346 14.8816C17.2294 14.8679 17.2273 14.8533 17.2284 14.8387C17.2306 14.8121 17.2437 14.7872 17.265 14.769C17.2862 14.7508 17.3142 14.7407 17.3432 14.7407C17.3723 14.7407 17.4002 14.7508 17.4215 14.769C17.4428 14.7872 17.4558 14.8121 17.458 14.8387Z" fill="white" stroke="black" stroke-width="0.0206823"/>
<path fill-rule="evenodd" clip-rule="evenodd" d="M17.6627 14.6247C17.6639 14.6392 17.6618 14.6538 17.6566 14.6676C17.6514 14.6813 17.6431 14.694 17.6323 14.7047C17.6216 14.7153 17.6085 14.7239 17.594 14.7297C17.5794 14.7355 17.5638 14.7385 17.5479 14.7385C17.5321 14.7385 17.5164 14.7355 17.5019 14.7297C17.4874 14.7239 17.4743 14.7153 17.4635 14.7047C17.4528 14.694 17.4445 14.6813 17.4393 14.6676C17.434 14.6538 17.432 14.6392 17.4331 14.6247C17.4353 14.598 17.4484 14.5731 17.4696 14.5549C17.4909 14.5367 17.5189 14.5266 17.5479 14.5266C17.577 14.5266 17.6049 14.5367 17.6262 14.5549C17.6475 14.5731 17.6605 14.598 17.6627 14.6247Z" fill="white" stroke="black" stroke-width="0.0206823"/>
<path fill-rule="evenodd" clip-rule="evenodd" d="M17.9533 14.484C17.9545 14.4986 17.9524 14.5132 17.9472 14.5269C17.942 14.5407 17.9337 14.5533 17.923 14.564C17.9122 14.5747 17.8991 14.5833 17.8846 14.5891C17.8701 14.5949 17.8544 14.5979 17.8386 14.5979C17.8227 14.5979 17.807 14.5949 17.7925 14.5891C17.778 14.5833 17.7649 14.5747 17.7542 14.564C17.7434 14.5533 17.7351 14.5407 17.7299 14.5269C17.7247 14.5132 17.7226 14.4986 17.7238 14.484C17.7259 14.4574 17.739 14.4325 17.7603 14.4143C17.7816 14.3961 17.8095 14.386 17.8386 14.386C17.8676 14.386 17.8956 14.3961 17.9168 14.4143C17.9381 14.4325 17.9512 14.4574 17.9533 14.484Z" fill="white" stroke="black" stroke-width="0.0206823"/>
<path fill-rule="evenodd" clip-rule="evenodd" d="M18.2377 14.4637C18.2389 14.4783 18.2368 14.4929 18.2316 14.5066C18.2264 14.5204 18.2181 14.533 18.2073 14.5437C18.1966 14.5544 18.1835 14.563 18.169 14.5688C18.1544 14.5746 18.1388 14.5776 18.1229 14.5776C18.1071 14.5776 18.0914 14.5746 18.0769 14.5688C18.0624 14.563 18.0493 14.5544 18.0385 14.5437C18.0278 14.533 18.0195 14.5204 18.0143 14.5066C18.009 14.4929 18.007 14.4783 18.0081 14.4637C18.0103 14.4371 18.0234 14.4122 18.0446 14.394C18.0659 14.3758 18.0939 14.3657 18.1229 14.3657C18.152 14.3657 18.1799 14.3758 18.2012 14.394C18.2225 14.4122 18.2355 14.4371 18.2377 14.4637Z" fill="white" stroke="black" stroke-width="0.0206823"/>
<path fill-rule="evenodd" clip-rule="evenodd" d="M18.544 14.4684C18.5452 14.4829 18.5431 14.4975 18.5378 14.5113C18.5326 14.5251 18.5244 14.5377 18.5136 14.5484C18.5028 14.5591 18.4897 14.5676 18.4752 14.5734C18.4607 14.5793 18.445 14.5823 18.4292 14.5823C18.4133 14.5823 18.3976 14.5793 18.3831 14.5734C18.3686 14.5676 18.3556 14.5591 18.3448 14.5484C18.334 14.5377 18.3258 14.5251 18.3205 14.5113C18.3153 14.4975 18.3132 14.4829 18.3144 14.4684C18.3166 14.4417 18.3296 14.4168 18.3509 14.3986C18.3722 14.3804 18.4001 14.3704 18.4292 14.3704C18.4582 14.3704 18.4862 14.3804 18.5075 14.3986C18.5288 14.4168 18.5418 14.4417 18.544 14.4684Z" fill="white" stroke="black" stroke-width="0.0206823"/>
<path fill-rule="evenodd" clip-rule="evenodd" d="M18.8533 14.5184C18.8545 14.533 18.8524 14.5476 18.8472 14.5614C18.842 14.5751 18.8337 14.5877 18.823 14.5984C18.8122 14.6091 18.7991 14.6176 18.7846 14.6235C18.7701 14.6293 18.7544 14.6323 18.7386 14.6323C18.7227 14.6323 18.707 14.6293 18.6925 14.6235C18.678 14.6176 18.6649 14.6091 18.6542 14.5984C18.6434 14.5877 18.6351 14.5751 18.6299 14.5614C18.6247 14.5476 18.6226 14.533 18.6238 14.5184C18.6259 14.4918 18.639 14.4668 18.6603 14.4487C18.6816 14.4305 18.7095 14.4204 18.7386 14.4204C18.7676 14.4204 18.7956 14.4305 18.8168 14.4487C18.8381 14.4668 18.8512 14.4918 18.8533 14.5184Z" fill="white" stroke="black" stroke-width="0.0206823"/>
<path fill-rule="evenodd" clip-rule="evenodd" d="M19.1627 14.5543C19.1639 14.5689 19.1618 14.5835 19.1566 14.5973C19.1514 14.611 19.1431 14.6237 19.1323 14.6343C19.1216 14.645 19.1085 14.6536 19.094 14.6594C19.0794 14.6652 19.0638 14.6682 19.0479 14.6682C19.0321 14.6682 19.0164 14.6652 19.0019 14.6594C18.9874 14.6536 18.9743 14.645 18.9635 14.6343C18.9528 14.6237 18.9445 14.611 18.9393 14.5973C18.934 14.5835 18.932 14.5689 18.9331 14.5543C18.9353 14.5277 18.9484 14.5028 18.9696 14.4846C18.9909 14.4664 19.0189 14.4563 19.0479 14.4563C19.077 14.4563 19.1049 14.4664 19.1262 14.4846C19.1475 14.5028 19.1605 14.5277 19.1627 14.5543Z" fill="white" stroke="black" stroke-width="0.0206823"/>
<path fill-rule="evenodd" clip-rule="evenodd" d="M19.4877 14.5995C19.4889 14.614 19.4868 14.6287 19.4816 14.6424C19.4764 14.6562 19.4681 14.6688 19.4573 14.6795C19.4466 14.6902 19.4335 14.6987 19.419 14.7045C19.4044 14.7104 19.3888 14.7134 19.3729 14.7134C19.3571 14.7134 19.3414 14.7104 19.3269 14.7045C19.3124 14.6987 19.2993 14.6902 19.2885 14.6795C19.2778 14.6688 19.2695 14.6562 19.2643 14.6424C19.259 14.6287 19.257 14.614 19.2581 14.5995C19.2603 14.5728 19.2734 14.5479 19.2946 14.5297C19.3159 14.5116 19.3439 14.5015 19.3729 14.5015C19.402 14.5015 19.4299 14.5116 19.4512 14.5297C19.4725 14.5479 19.4855 14.5728 19.4877 14.5995Z" fill="white" stroke="black" stroke-width="0.0206823"/>
<path fill-rule="evenodd" clip-rule="evenodd" d="M19.7736 14.6747C19.7748 14.6892 19.7728 14.7039 19.7675 14.7176C19.7623 14.7314 19.754 14.744 19.7432 14.7547C19.7325 14.7654 19.7194 14.7739 19.7049 14.7797C19.6904 14.7856 19.6747 14.7886 19.6589 14.7886C19.643 14.7886 19.6274 14.7856 19.6128 14.7797C19.5983 14.7739 19.5852 14.7654 19.5745 14.7547C19.5637 14.744 19.5554 14.7314 19.5502 14.7176C19.545 14.7039 19.5429 14.6892 19.5441 14.6747C19.5462 14.648 19.5593 14.6231 19.5806 14.6049C19.6019 14.5868 19.6298 14.5767 19.6589 14.5767C19.6879 14.5767 19.7159 14.5868 19.7372 14.6049C19.7584 14.6231 19.7715 14.648 19.7736 14.6747Z" fill="white" stroke="black" stroke-width="0.0206823"/>
<path fill-rule="evenodd" clip-rule="evenodd" d="M17.733 16.3544C17.7342 16.3689 17.7321 16.3835 17.7269 16.3973C17.7217 16.4111 17.7134 16.4237 17.7026 16.4344C17.6918 16.4451 17.6788 16.4536 17.6643 16.4594C17.6498 16.4653 17.6341 16.4683 17.6182 16.4683C17.6024 16.4683 17.5867 16.4653 17.5722 16.4594C17.5577 16.4536 17.5446 16.4451 17.5338 16.4344C17.5231 16.4237 17.5148 16.4111 17.5096 16.3973C17.5044 16.3835 17.5023 16.3689 17.5034 16.3544C17.5056 16.3277 17.5187 16.3028 17.54 16.2846C17.5612 16.2665 17.5892 16.2563 17.6182 16.2563C17.6473 16.2563 17.6752 16.2665 17.6965 16.2846C17.7178 16.3028 17.7308 16.3277 17.733 16.3544Z" fill="white" stroke="black" stroke-width="0.0206823"/>
<path fill-rule="evenodd" clip-rule="evenodd" d="M17.8125 16.3596C17.8125 16.3596 17.3727 16.05 17.3611 15.3053C17.3546 14.8767 17.5835 14.5671 18.1565 14.5671C18.9584 14.5671 20.1037 14.8832 20.1037 14.8832V14.9886C20.1037 14.9886 19.1874 14.6725 18.1559 14.6725C17.698 14.6725 17.4684 14.9821 17.4684 15.2987C17.4684 15.8262 17.9276 16.3602 17.9276 16.3602V17.2037H17.8125V16.3596Z" fill="#FFF100" stroke="black" stroke-width="0.0206823"/>
<path fill-rule="evenodd" clip-rule="evenodd" d="M18.6078 16.7498C18.6078 16.7498 18.6408 16.6695 18.7606 16.6695C18.8421 16.6695 18.9132 16.7498 18.9132 16.8301V16.9909H18.9898V16.8301C18.9898 16.7498 19.0661 16.6695 19.1424 16.6695C19.257 16.6695 19.2952 16.7498 19.2952 16.7498C19.2952 16.7498 19.2952 16.5087 19.1424 16.5087C19.0279 16.5087 18.9898 16.589 18.9898 16.589C18.9898 16.589 19.0279 16.4686 19.0279 16.3479C19.0279 16.2273 18.9516 16.147 18.9516 16.147C18.9516 16.1624 18.8751 16.2275 18.8751 16.3479C18.8751 16.4683 18.9132 16.589 18.9132 16.589C18.9132 16.589 18.8751 16.5087 18.7606 16.5087C18.6078 16.5087 18.6078 16.7498 18.6078 16.7498Z" fill="#FFF100" stroke="black" stroke-width="0.0165828"/>
<path fill-rule="evenodd" clip-rule="evenodd" d="M20.8984 16.7498C20.8984 16.7498 20.9314 16.6695 21.0513 16.6695C21.1328 16.6695 21.2039 16.7498 21.2039 16.8301V16.9909H21.2804V16.8301C21.2804 16.7498 21.3567 16.6695 21.433 16.6695C21.5477 16.6695 21.5858 16.7498 21.5858 16.7498C21.5858 16.7498 21.5858 16.5087 21.433 16.5087C21.3186 16.5087 21.2804 16.589 21.2804 16.589C21.2804 16.589 21.3186 16.4686 21.3186 16.3479C21.3186 16.2273 21.2422 16.147 21.2422 16.147C21.2422 16.1624 21.1657 16.2275 21.1657 16.3479C21.1657 16.4683 21.2039 16.589 21.2039 16.589C21.2039 16.589 21.1657 16.5087 21.0513 16.5087C20.8984 16.5087 20.8984 16.7498 20.8984 16.7498Z" fill="#FFF100" stroke="black" stroke-width="0.0165828"/>
<path fill-rule="evenodd" clip-rule="evenodd" d="M17.8125 17.8372V16.8877C17.8125 16.8877 18.0414 17.2044 18.3855 17.2044C18.6668 17.2044 18.9584 16.7824 18.9584 16.7824C18.9584 16.7824 19.2268 17.099 19.5314 17.099C19.803 17.099 20.1038 16.6907 20.1038 16.6907C20.1038 16.6907 20.3831 17.099 20.6767 17.099C20.971 17.099 21.2497 16.7824 21.2497 16.7824C21.2497 16.7824 21.5491 17.2044 21.9372 17.2044C22.2806 17.2044 22.3957 16.8877 22.3957 16.8877V17.8372H17.8125Z" fill="#FFF100" stroke="black" stroke-width="0.0206823"/>
<path fill-rule="evenodd" clip-rule="evenodd" d="M17.8078 17.8365V17.0984C17.8078 17.0984 18.4952 17.3085 18.4952 17.8365H17.8078Z" fill="#FFF100" stroke="black" stroke-width="0.0206823"/>
<path fill-rule="evenodd" clip-rule="evenodd" d="M22.3859 17.8365V17.0984C22.3859 17.0984 21.6985 17.3085 21.6985 17.8365H22.3859Z" fill="#FFF100" stroke="black" stroke-width="0.0206823"/>
<path fill-rule="evenodd" clip-rule="evenodd" d="M18.2703 17.8365C18.2703 17.3085 18.9578 16.9751 18.9578 16.9751C18.9578 16.9751 19.6452 17.3085 19.6452 17.8365H18.2703Z" fill="#FFF100" stroke="black" stroke-width="0.0206823"/>
<path fill-rule="evenodd" clip-rule="evenodd" d="M20.5609 17.8365C20.5609 17.3085 21.2484 16.9751 21.2484 16.9751C21.2484 16.9751 21.9358 17.3085 21.9358 17.8365H20.5609Z" fill="#FFF100" stroke="black" stroke-width="0.0206823"/>
<path fill-rule="evenodd" clip-rule="evenodd" d="M19.3 17.8395C19.3 17.3121 20.1026 16.8906 20.1026 16.8906C20.1026 16.8906 20.9045 17.3121 20.9045 17.8395H19.3006H19.3Z" fill="#FFF100" stroke="black" stroke-width="0.0206823"/>
<path fill-rule="evenodd" clip-rule="evenodd" d="M22.5063 17.8372C22.28 17.7318 21.4449 17.6265 20.1003 17.6265C18.7556 17.6265 17.8624 17.7318 17.6354 17.8372C17.409 17.9426 17.409 18.1539 17.6354 18.2593C17.8617 18.3646 18.7562 18.47 20.1003 18.47C21.4443 18.47 22.28 18.3646 22.5063 18.2593C22.7327 18.1539 22.7327 17.9426 22.5063 17.8372Z" fill="white" stroke="black" stroke-width="0.0205652"/>
<path fill-rule="evenodd" clip-rule="evenodd" d="M22.3944 18.26C22.3944 18.47 20.4844 18.47 20.0994 18.47C19.6844 18.47 17.8094 18.53 17.8094 18.26C17.8094 18.05 19.6994 18.05 20.0994 18.05C20.4994 18.05 22.3944 18.09 22.3944 18.26Z" fill="#808080"/>
<path fill-rule="evenodd" clip-rule="evenodd" d="M18.0394 17.5C18.0394 17.57 17.9894 17.63 17.9244 17.63C17.8594 17.63 17.8094 17.57 17.8094 17.5C17.8094 17.43 17.8594 17.375 17.9244 17.375C17.9844 17.375 18.0394 17.435 18.0394 17.5ZM22.3894 17.5C22.3894 17.57 22.3394 17.63 22.2744 17.63C22.2144 17.63 22.1594 17.57 22.1594 17.5C22.1594 17.43 22.2094 17.375 22.2744 17.375C22.3394 17.375 22.3894 17.435 22.3894 17.5Z" fill="#CC0000"/>
<path fill-rule="evenodd" clip-rule="evenodd" d="M20.3288 17.4393C20.3288 17.5043 20.2238 17.5593 20.0988 17.5593C19.9788 17.5593 19.8688 17.5043 19.8688 17.4343C19.8688 17.3643 19.9688 17.3093 20.0988 17.3093C20.2288 17.3093 20.3288 17.3693 20.3288 17.4343V17.4393Z" fill="black"/>
<path fill-rule="evenodd" clip-rule="evenodd" d="M21.43 17.4393C21.43 17.5043 21.35 17.5593 21.255 17.5593C21.16 17.5593 21.085 17.5043 21.085 17.4343C21.085 17.3643 21.165 17.3093 21.255 17.3093C21.345 17.3093 21.43 17.3693 21.43 17.4343V17.4393ZM19.07 17.4393C19.07 17.5043 18.995 17.5593 18.9 17.5593C18.805 17.5593 18.725 17.5043 18.725 17.4343C18.725 17.3643 18.8 17.3093 18.9 17.3093C18.995 17.3093 19.07 17.3693 19.07 17.4343V17.4393Z" fill="#006300"/>
<path fill-rule="evenodd" clip-rule="evenodd" d="M19.6426 16.7128C19.6426 16.7128 19.7734 16.5324 19.9045 16.5324H20.0353V16.6525C20.0353 16.8335 19.8391 16.8941 19.8391 16.8941H20.3627C20.3627 16.8941 20.1661 16.8335 20.1661 16.6525V16.5324H20.2973C20.4281 16.5324 20.5589 16.7134 20.5589 16.7134V16.2307C20.5589 16.2307 20.4281 16.4117 20.2973 16.4117H20.1661V16.2909C20.1661 16.1102 20.3627 16.05 20.3627 16.05H19.8388C19.8388 16.05 20.035 16.1102 20.035 16.2909V16.4117H19.9042C19.773 16.4117 19.6422 16.2307 19.6422 16.2307V16.7131L19.6426 16.7128Z" fill="#FFF100" stroke="black" stroke-width="0.0195001"/>
<path fill-rule="evenodd" clip-rule="evenodd" d="M17.8031 17.099H17.9342C17.9342 17.099 17.8358 17.0464 17.8358 16.888V16.7829H17.9012C17.9668 16.7829 18.0325 16.9413 18.0325 16.9413V16.5189C18.0325 16.5189 17.9668 16.6772 17.9012 16.6772H17.8358V16.5716C17.8358 16.4136 17.9342 16.3608 17.9342 16.3608H17.8031V17.099Z" fill="#FFF100" stroke="black" stroke-width="0.019349"/>
<path fill-rule="evenodd" clip-rule="evenodd" d="M22.3953 17.099H22.2643C22.2643 17.099 22.3626 17.0464 22.3626 16.888V16.7829H22.2972C22.2316 16.7829 22.166 16.9413 22.166 16.9413V16.5189C22.166 16.5189 22.2316 16.6772 22.2972 16.6772H22.3626V16.5716C22.3626 16.4136 22.2643 16.3608 22.2643 16.3608H22.3953V17.099Z" fill="#FFF100" stroke="black" stroke-width="0.019349"/>
<path fill-rule="evenodd" clip-rule="evenodd" d="M20.218 16.4662C20.218 16.4942 20.2059 16.521 20.1845 16.5407C20.163 16.5605 20.1339 16.5716 20.1035 16.5716C20.0732 16.5716 20.044 16.5605 20.0226 16.5407C20.0011 16.521 19.9891 16.4942 19.9891 16.4662C19.9891 16.4383 20.0011 16.4115 20.0226 16.3917C20.044 16.372 20.0732 16.3608 20.1035 16.3608C20.1339 16.3608 20.163 16.372 20.1845 16.3917C20.2059 16.4115 20.218 16.4383 20.218 16.4662Z" fill="white" stroke="black" stroke-width="0.0206823"/>
<path fill-rule="evenodd" clip-rule="evenodd" d="M19.6426 14.4972C19.6426 14.4972 19.7734 14.3169 19.9045 14.3169H20.0353V14.437C20.0353 14.618 19.8391 14.6785 19.8391 14.6785H20.3627C20.3627 14.6785 20.1661 14.618 20.1661 14.437V14.3169H20.2973C20.4281 14.3169 20.5589 14.4979 20.5589 14.4979V14.0152C20.5589 14.0152 20.4281 14.1961 20.2973 14.1961H20.1661V14.0754C20.1661 13.8947 20.3627 13.8345 20.3627 13.8345H19.8388C19.8388 13.8345 20.035 13.8947 20.035 14.0754V14.1961H19.9042C19.773 14.1961 19.6422 14.0152 19.6422 14.0152V14.4976L19.6426 14.4972Z" fill="#FFF100" stroke="black" stroke-width="0.0195001"/>
<path fill-rule="evenodd" clip-rule="evenodd" d="M20.2274 14.2709C20.2274 14.2988 20.2153 14.3256 20.1938 14.3454C20.1724 14.3651 20.1433 14.3762 20.1129 14.3762C20.0826 14.3762 20.0534 14.3651 20.032 14.3454C20.0105 14.3256 19.9984 14.2988 19.9984 14.2709C19.9984 14.2429 20.0105 14.2161 20.032 14.1964C20.0534 14.1766 20.0826 14.1655 20.1129 14.1655C20.1433 14.1655 20.1724 14.1766 20.1938 14.1964C20.2153 14.2161 20.2274 14.2429 20.2274 14.2709Z" fill="white" stroke="black" stroke-width="0.0206823"/>
<path fill-rule="evenodd" clip-rule="evenodd" d="M19.8741 14.6765H20.3326V14.9932H19.8734L19.8741 14.6765Z" fill="#FFF100" stroke="black" stroke-width="0.0206823"/>
<path fill-rule="evenodd" clip-rule="evenodd" d="M19.8741 14.8423H20.3326V16.0478H19.8734L19.8741 14.8423Z" fill="#FFF100" stroke="black" stroke-width="0.0206823"/>
<path fill-rule="evenodd" clip-rule="evenodd" d="M20.2127 15.8292C20.2139 15.8438 20.2118 15.8584 20.2066 15.8722C20.2014 15.8859 20.1931 15.8986 20.1823 15.9092C20.1716 15.9199 20.1585 15.9285 20.144 15.9343C20.1294 15.9401 20.1138 15.9431 20.0979 15.9431C20.0821 15.9431 20.0664 15.9401 20.0519 15.9343C20.0374 15.9285 20.0243 15.9199 20.0135 15.9092C20.0028 15.8986 19.9945 15.8859 19.9893 15.8722C19.984 15.8584 19.982 15.8438 19.9831 15.8292C19.9853 15.8026 19.9984 15.7777 20.0196 15.7595C20.0409 15.7413 20.0689 15.7312 20.0979 15.7312C20.127 15.7312 20.1549 15.7413 20.1762 15.7595C20.1975 15.7777 20.2105 15.8026 20.2127 15.8292Z" fill="white" stroke="black" stroke-width="0.0206823"/>
<path fill-rule="evenodd" clip-rule="evenodd" d="M20.2127 15.559C20.2139 15.5735 20.2118 15.5881 20.2066 15.6019C20.2014 15.6157 20.1931 15.6283 20.1823 15.639C20.1716 15.6497 20.1585 15.6582 20.144 15.6641C20.1294 15.6699 20.1138 15.6729 20.0979 15.6729C20.0821 15.6729 20.0664 15.6699 20.0519 15.6641C20.0374 15.6582 20.0243 15.6497 20.0135 15.639C20.0028 15.6283 19.9945 15.6157 19.9893 15.6019C19.984 15.5881 19.982 15.5735 19.9831 15.559C19.9853 15.5323 19.9984 15.5074 20.0196 15.4892C20.0409 15.4711 20.0689 15.4609 20.0979 15.4609C20.127 15.4609 20.1549 15.4711 20.1762 15.4892C20.1975 15.5074 20.2105 15.5323 20.2127 15.559Z" fill="white" stroke="black" stroke-width="0.0206823"/>
<path fill-rule="evenodd" clip-rule="evenodd" d="M20.2127 15.309C20.2139 15.3235 20.2118 15.3381 20.2066 15.3519C20.2014 15.3657 20.1931 15.3783 20.1823 15.389C20.1716 15.3997 20.1585 15.4082 20.144 15.4141C20.1294 15.4199 20.1138 15.4229 20.0979 15.4229C20.0821 15.4229 20.0664 15.4199 20.0519 15.4141C20.0374 15.4082 20.0243 15.3997 20.0135 15.389C20.0028 15.3783 19.9945 15.3657 19.9893 15.3519C19.984 15.3381 19.982 15.3235 19.9831 15.309C19.9853 15.2823 19.9984 15.2574 20.0196 15.2392C20.0409 15.2211 20.0689 15.2109 20.0979 15.2109C20.127 15.2109 20.1549 15.2211 20.1762 15.2392C20.1975 15.2574 20.2105 15.2823 20.2127 15.309Z" fill="white" stroke="black" stroke-width="0.0206823"/>
<path fill-rule="evenodd" clip-rule="evenodd" d="M20.2127 15.0433C20.2139 15.0579 20.2118 15.0725 20.2066 15.0863C20.2014 15.1 20.1931 15.1126 20.1823 15.1234C20.1716 15.134 20.1585 15.1426 20.144 15.1484C20.1294 15.1542 20.1138 15.1572 20.0979 15.1572C20.0821 15.1572 20.0664 15.1542 20.0519 15.1484C20.0374 15.1426 20.0243 15.134 20.0135 15.1234C20.0028 15.1126 19.9945 15.1 19.9893 15.0863C19.984 15.0725 19.982 15.0579 19.9831 15.0433C19.9853 15.0167 19.9984 14.9918 20.0196 14.9736C20.0409 14.9554 20.0689 14.9453 20.0979 14.9453C20.127 14.9453 20.1549 14.9554 20.1762 14.9736C20.1975 14.9918 20.2105 15.0167 20.2127 15.0433Z" fill="white" stroke="black" stroke-width="0.0206823"/>
<path fill-rule="evenodd" clip-rule="evenodd" d="M20.3448 17.8396C20.3448 17.8896 20.2398 17.9246 20.1048 17.9246C19.9698 17.9246 19.8798 17.8896 19.8798 17.8396C19.8798 17.7896 19.9798 17.7546 20.1098 17.7546C20.2398 17.7546 20.3448 17.7946 20.3448 17.8396ZM22.4498 18.0496C22.4348 18.0846 22.3198 18.0896 22.1948 18.0496C22.0648 18.0246 21.9748 17.9796 21.9848 17.9496C21.9998 17.9096 22.1148 17.9096 22.2398 17.9396C22.3698 17.9696 22.4598 18.0146 22.4498 18.0496ZM21.5648 17.9096C21.5648 17.9496 21.4498 17.9746 21.3148 17.9696C21.1898 17.9596 21.0848 17.9196 21.0898 17.8696C21.0948 17.8296 21.2098 17.8096 21.3398 17.8196C21.4698 17.8246 21.5748 17.8646 21.5648 17.9096ZM17.6898 18.0496C17.6998 18.0846 17.8148 18.0896 17.9398 18.0496C18.0698 18.0246 18.1648 17.9796 18.1498 17.9496C18.1348 17.9096 18.0248 17.9096 17.8998 17.9396C17.7698 17.9696 17.6798 18.0146 17.6898 18.0496ZM18.6148 17.8896C18.6198 17.9296 18.7348 17.9546 18.8648 17.9446C18.9948 17.9346 19.0998 17.8946 19.0898 17.8496C19.0898 17.8146 18.9748 17.7846 18.8398 17.7946C18.7148 17.8046 18.6098 17.8446 18.6148 17.8896Z" fill="black"/>
<path d="M-4 0H12V12H-4V0Z" fill="#012169"/>
<path d="M-2.125 0L3.975 4.525L10.05 0H12V1.55L6 6.025L12 10.475V12H10L4 7.525L-1.975 12H-4V10.5L1.975 6.05L-4 1.6V0H-2.125Z" fill="white"/>
<path d="M6.6 7.025L12 11V12L5.225 7.025H6.6ZM2 7.525L2.15 8.4L-2.65 12H-4L2 7.525ZM12 0V0.075L5.775 4.775L5.825 3.675L10.75 0H12ZM-4 0L1.975 4.4H0.475L-4 1.05V0Z" fill="#C8102E"/>
<path d="M2.025 0V12H6.025V0H2.025ZM-4 4V8H12V4H-4Z" fill="white"/>
<path d="M-4 4.825V7.225H12V4.825H-4ZM2.825 0V12H5.225V0H2.825Z" fill="#C8102E"/>
</g>
</g>
</g>
<defs>
<clipPath id="clip0_69_4118">
<rect width="24" height="24" rx="12" fill="white"/>
</clipPath>
<clipPath id="clip1_69_4118">
<rect width="32" height="24" fill="white" transform="translate(-4)"/>
</clipPath>
</defs>
</svg>
