<svg width="24" height="24" viewBox="0 0 24 24" fill="none" xmlns="http://www.w3.org/2000/svg">
<g clip-path="url(#clip0_69_4262)">
<g clip-path="url(#clip1_69_4262)">
<mask id="mask0_69_4262" style="mask-type:luminance" maskUnits="userSpaceOnUse" x="-4" y="0" width="32" height="24">
<path d="M28 0H-4V24H28V0Z" fill="white"/>
</mask>
<g mask="url(#mask0_69_4262)">
<mask id="mask1_69_4262" style="mask-type:luminance" maskUnits="userSpaceOnUse" x="-5" y="0" width="34" height="25">
<path d="M-4.00937 0H28.0775V24.064H-4.00937V0Z" fill="white"/>
</mask>
<g mask="url(#mask1_69_4262)">
<path fill-rule="evenodd" clip-rule="evenodd" d="M-12.1547 0H36.138V24.064H-12.1547V0Z" fill="#108C00"/>
<path fill-rule="evenodd" clip-rule="evenodd" d="M-12.2343 8.375H36.298V10.7297H-12.2343V8.375Z" fill="#FFD600"/>
<path fill-rule="evenodd" clip-rule="evenodd" d="M8.49222 0H10.7717V24.064H8.4969L8.49222 0Z" fill="#FFD600"/>
<path fill-rule="evenodd" clip-rule="evenodd" d="M10.6922 0H12.967V24.064H10.6922V0Z" fill="black"/>
<path fill-rule="evenodd" clip-rule="evenodd" d="M-12.2343 10.6499H36.298V13.0093H-12.2343V10.6499Z" fill="black"/>
<path fill-rule="evenodd" clip-rule="evenodd" d="M-12.2343 13.0093H36.298V15.364H-12.2343V13.0093Z" fill="white"/>
<path fill-rule="evenodd" clip-rule="evenodd" d="M12.9672 0H15.2467V24.064H12.9672V0Z" fill="white"/>
<path d="M5.66266 12.0516C5.66266 15.6208 8.54342 18.5141 12.097 18.5141C15.6505 18.5141 18.5313 15.6208 18.5313 12.0516C18.5313 8.48247 15.6505 5.58911 12.097 5.58911C8.54342 5.58911 5.66266 8.48247 5.66266 12.0516Z" fill="#E72910"/>
<path fill-rule="evenodd" clip-rule="evenodd" d="M11.7599 6.4395L12.0231 5.6875L12.2628 6.42538C12.2628 6.42538 13.0665 6.44886 13.0665 6.43478C13.0665 6.42066 12.432 6.91886 12.432 6.91886L12.7187 7.7461C12.7093 7.72258 12.0231 7.23378 12.0231 7.23378C12.0231 7.23378 11.3275 7.72258 11.3416 7.72258C11.3557 7.72258 11.6048 6.92358 11.6048 6.92358L10.9797 6.44886L11.7599 6.43478V6.4395Z" fill="black"/>
<path fill-rule="evenodd" clip-rule="evenodd" d="M11.7971 6.47204L12.0181 5.82812L12.2249 6.46733C12.2249 6.46733 12.9251 6.48612 12.9251 6.47672C12.9251 6.46732 12.3753 6.89972 12.3753 6.89972L12.6197 7.61412C12.6103 7.59064 12.0181 7.17232 12.0181 7.17232C12.0181 7.17232 11.4165 7.59533 11.4259 7.59533C11.4353 7.59533 11.6609 6.89972 11.6609 6.89972L11.1157 6.48612L11.7925 6.47672L11.7971 6.47204Z" fill="#FFE700"/>
<path fill-rule="evenodd" clip-rule="evenodd" d="M11.8917 6.58059L12.0233 6.20459L12.1455 6.57591C12.1455 6.57591 12.545 6.58531 12.545 6.57591C12.545 6.56651 12.2301 6.82031 12.2301 6.82031L12.3711 7.23391C12.3664 7.21979 12.0233 6.98011 12.0233 6.98011L11.6849 7.22451C11.6943 7.22451 11.8165 6.82499 11.8165 6.82499L11.5063 6.58999L11.8917 6.58059Z" fill="#108C00"/>
<path fill-rule="evenodd" clip-rule="evenodd" d="M16.7599 9.95513L17.0231 9.20312L17.2581 9.94105C17.2581 9.94105 18.0665 9.96925 18.0665 9.95513C18.0665 9.94105 17.432 10.4392 17.432 10.4392L17.714 11.2664C17.7046 11.2429 17.0231 10.7541 17.0231 10.7541C17.0231 10.7541 16.3275 11.2429 16.3416 11.2429C16.3557 11.2429 16.6048 10.4439 16.6048 10.4439L15.9797 9.96453L16.7599 9.95045V9.95513Z" fill="black"/>
<path fill-rule="evenodd" clip-rule="evenodd" d="M16.7924 9.99239L17.0227 9.33911L17.2295 9.98299C17.2295 9.98299 17.9251 10.0018 17.9251 9.99239C17.9251 9.98299 17.3752 10.4154 17.3752 10.4154L17.6243 11.1251C17.6149 11.1063 17.0227 10.6833 17.0227 10.6833C17.0227 10.6833 16.4211 11.1063 16.4305 11.1063C16.4399 11.1063 16.6608 10.4107 16.6608 10.4107L16.1203 10.0018L16.7924 9.99239Z" fill="#FFE700"/>
<path fill-rule="evenodd" clip-rule="evenodd" d="M16.8917 10.1011L17.0233 9.7251L17.1408 10.0917L17.545 10.1011L17.2254 10.3408C17.2254 10.3408 17.3758 10.7638 17.3664 10.7544C17.3664 10.7403 17.0233 10.5006 17.0233 10.5006L16.6802 10.7403L16.8118 10.3408L16.5016 10.1058L16.8917 10.1011Z" fill="#108C00"/>
<path fill-rule="evenodd" clip-rule="evenodd" d="M15.3037 15.5379L15.5669 14.7859L15.8019 15.5285C15.8019 15.5285 16.6103 15.552 16.6103 15.5426C16.6103 15.5332 15.9757 16.0267 15.9757 16.0267L16.2577 16.8492C16.2483 16.8257 15.5669 16.3416 15.5669 16.3416C15.5669 16.3416 14.8713 16.8257 14.8807 16.8257C14.8901 16.8257 15.1485 16.0267 15.1485 16.0267L14.5235 15.5567L15.3037 15.5426V15.5379Z" fill="black"/>
<path fill-rule="evenodd" clip-rule="evenodd" d="M15.3362 15.5751L15.5665 14.9265L15.7733 15.5657C15.7733 15.5657 16.4689 15.5892 16.4689 15.5751C16.4689 15.561 15.919 15.9981 15.919 15.9981L16.1681 16.7125C16.1587 16.689 15.5665 16.2707 15.5665 16.2707C15.5665 16.2707 14.9649 16.6937 14.9743 16.6937C14.9837 16.6937 15.2046 15.9981 15.2046 15.9981L14.6641 15.5892L15.3362 15.5751Z" fill="#FFE700"/>
<path fill-rule="evenodd" clip-rule="evenodd" d="M15.4354 15.6839L15.567 15.3079L15.6845 15.6792C15.6845 15.6792 16.0887 15.6933 16.0887 15.6839C16.0887 15.6745 15.7691 15.9283 15.7691 15.9283L15.9101 16.3372C15.9101 16.3278 15.567 16.0834 15.567 16.0834L15.2239 16.3278L15.3555 15.9283L15.0453 15.6933L15.4354 15.6839Z" fill="#108C00"/>
<path fill-rule="evenodd" clip-rule="evenodd" d="M8.31456 15.5379L8.57776 14.7859L8.81276 15.5285C8.81276 15.5285 9.61648 15.552 9.61648 15.5426C9.61648 15.5332 8.98196 16.0267 8.98196 16.0267L9.27336 16.8492C9.25928 16.8257 8.57776 16.3416 8.57776 16.3416C8.57776 16.3416 7.88216 16.8257 7.89156 16.8257C7.90096 16.8257 8.15948 16.0267 8.15948 16.0267L7.53436 15.5567L8.31456 15.5426V15.5379Z" fill="black"/>
<path fill-rule="evenodd" clip-rule="evenodd" d="M8.35182 15.5751L8.57742 14.9265L8.78422 15.5657C8.78422 15.5657 9.47982 15.5892 9.47982 15.5751C9.47982 15.561 8.9299 15.9981 8.9299 15.9981L9.17902 16.7125C9.16962 16.689 8.57742 16.2707 8.57742 16.2707C8.57742 16.2707 7.97582 16.6937 7.98522 16.6937C7.99462 16.6937 8.2155 15.9981 8.2155 15.9981L7.67502 15.5892L8.3471 15.5751H8.35182Z" fill="#FFE700"/>
<path fill-rule="evenodd" clip-rule="evenodd" d="M8.44636 15.6839L8.57796 15.3079L8.69544 15.6792C8.69544 15.6792 9.09964 15.6933 9.09964 15.6839C9.09964 15.6745 8.78004 15.9283 8.78004 15.9283L8.92104 16.3372C8.92104 16.3278 8.57796 16.0834 8.57796 16.0834L8.23484 16.3278L8.36644 15.9283L8.05624 15.6933L8.44636 15.6839Z" fill="#108C00"/>
<path fill-rule="evenodd" clip-rule="evenodd" d="M7.0349 9.80815L7.2981 9.05615L7.53782 9.79875C7.53782 9.79875 8.3415 9.82227 8.3415 9.80815C8.3415 9.79407 7.70702 10.297 7.70702 10.297L7.9937 11.1195C7.97962 11.096 7.2981 10.6119 7.2981 10.6119C7.2981 10.6119 6.6025 11.0913 6.61662 11.0913C6.6307 11.0913 6.87982 10.2923 6.87982 10.2923L6.2547 9.82227L7.0349 9.80815Z" fill="black"/>
<path fill-rule="evenodd" clip-rule="evenodd" d="M7.07212 9.84538L7.29772 9.19678L7.5092 9.83598C7.5092 9.83598 8.20012 9.85946 8.20012 9.84538C8.20012 9.83126 7.6502 10.2684 7.6502 10.2684L7.89932 10.9828C7.88992 10.9593 7.29772 10.541 7.29772 10.541C7.29772 10.541 6.69612 10.964 6.7102 10.964C6.72432 10.964 6.9358 10.2684 6.9358 10.2684L6.39532 9.85946L7.07212 9.84538Z" fill="#FFE700"/>
<path fill-rule="evenodd" clip-rule="evenodd" d="M7.16665 9.95413L7.29825 9.57812L7.42045 9.94945L7.81997 9.95413L7.50505 10.1985L7.64605 10.6074C7.64137 10.598 7.29825 10.3536 7.29825 10.3536L6.95985 10.598C6.96925 10.598 7.09145 10.1985 7.09145 10.1985L6.78125 9.96353L7.16665 9.95413Z" fill="#108C00"/>
<path fill-rule="evenodd" clip-rule="evenodd" d="M15.2425 8.18306L14.9793 8.93506L14.7443 8.19718C14.7443 8.19718 13.9359 8.17366 13.9359 8.18306C13.9359 8.19246 14.5705 7.69898 14.5705 7.69898L14.2885 6.87646C14.2979 6.89998 14.9793 7.38406 14.9793 7.38406C14.9793 7.38406 15.6749 6.89998 15.6609 6.89998C15.6467 6.89998 15.3977 7.69898 15.3977 7.69898L16.0227 8.16899L15.2425 8.18306Z" fill="black"/>
<path fill-rule="evenodd" clip-rule="evenodd" d="M15.2093 8.14517C15.2093 8.15929 14.9743 8.79849 14.9743 8.79849L14.7722 8.15929C14.7722 8.15929 14.0766 8.13577 14.0766 8.14517C14.0766 8.15457 14.6265 7.72685 14.6265 7.72685L14.3774 7.01245C14.3868 7.03597 14.979 7.45429 14.979 7.45429C14.979 7.45429 15.5806 7.03129 15.5712 7.03129C15.5618 7.03129 15.3409 7.72685 15.3409 7.72685L15.8814 8.13577L15.2046 8.14517H15.2093Z" fill="#FFE700"/>
<path fill-rule="evenodd" clip-rule="evenodd" d="M15.1111 8.03776L14.9795 8.41376L14.862 8.04716C14.862 8.04716 14.4578 8.03304 14.4578 8.04244C14.4578 8.05184 14.7774 7.79804 14.7774 7.79804L14.6364 7.38916C14.6364 7.39856 14.9795 7.64296 14.9795 7.64296L15.3226 7.39856C15.3132 7.39856 15.1863 7.79804 15.1863 7.79804L15.5012 8.03304L15.1111 8.04244V8.03776Z" fill="#108C00"/>
<path fill-rule="evenodd" clip-rule="evenodd" d="M17.2488 13.6441L16.9856 14.3961L16.7506 13.6535C16.7506 13.6535 15.9422 13.63 15.9422 13.6441C15.9422 13.6582 16.5767 13.16 16.5767 13.16L16.2947 12.3328C16.3041 12.3563 16.9856 12.8404 16.9856 12.8404C16.9856 12.8404 17.6812 12.3563 17.6671 12.3563C17.653 12.3563 17.4039 13.1553 17.4039 13.1553L18.0337 13.63L17.2535 13.6441H17.2488Z" fill="black"/>
<path fill-rule="evenodd" clip-rule="evenodd" d="M17.2155 13.6062L16.9852 14.2548L16.7784 13.6155C16.7784 13.6155 16.0828 13.5968 16.0828 13.6062C16.0828 13.6156 16.6327 13.1832 16.6327 13.1832L16.3836 12.4688C16.393 12.4922 16.9852 12.9106 16.9852 12.9106C16.9852 12.9106 17.5868 12.4876 17.5774 12.4876C17.568 12.4876 17.3471 13.1832 17.3471 13.1832L17.8876 13.5968L17.2108 13.6062H17.2155Z" fill="#FFE700"/>
<path fill-rule="evenodd" clip-rule="evenodd" d="M17.1174 13.4985L16.9858 13.8745L16.8683 13.5032C16.8683 13.5032 16.4641 13.4938 16.4641 13.5032C16.4641 13.5126 16.7837 13.2588 16.7837 13.2588L16.6427 12.8452C16.6427 12.8593 16.9858 13.099 16.9858 13.099L17.3289 12.8546C17.3195 12.8546 17.1926 13.2588 17.1926 13.2588L17.5075 13.4938L17.1174 13.4985Z" fill="#108C00"/>
<path fill-rule="evenodd" clip-rule="evenodd" d="M12.2707 17.6394L12.0075 18.3914L11.7725 17.6488C11.7725 17.6488 10.9641 17.6253 10.9641 17.6347C10.9641 17.6441 11.5986 17.1506 11.5986 17.1506L11.3166 16.3281C11.326 16.3516 12.0075 16.8357 12.0075 16.8357C12.0075 16.8357 12.7031 16.3516 12.689 16.3516C12.6749 16.3516 12.4258 17.1506 12.4258 17.1506L13.0509 17.6253L12.2707 17.6394Z" fill="black"/>
<path fill-rule="evenodd" clip-rule="evenodd" d="M12.2374 17.5968L12.0071 18.2548L11.8003 17.6109C11.8003 17.6109 11.1047 17.5874 11.1047 17.6015C11.1047 17.6156 11.6546 17.1785 11.6546 17.1785L11.4055 16.4641C11.4149 16.4876 12.0071 16.9059 12.0071 16.9059C12.0071 16.9059 12.6087 16.4829 12.5993 16.4829C12.5899 16.4829 12.369 17.1785 12.369 17.1785L12.9095 17.5874L12.2374 17.6015V17.5968Z" fill="#FFE700"/>
<path fill-rule="evenodd" clip-rule="evenodd" d="M12.1393 17.4939L12.0077 17.8699L11.8901 17.4986C11.8901 17.4986 11.4859 17.4845 11.4859 17.4939C11.4859 17.5033 11.8055 17.2495 11.8055 17.2495L11.6645 16.8406C11.6645 16.85 12.0077 17.0944 12.0077 17.0944L12.3507 16.85L12.2191 17.2495L12.5293 17.4845L12.1393 17.4939Z" fill="#108C00"/>
<path fill-rule="evenodd" clip-rule="evenodd" d="M7.60037 13.6441L7.33249 14.3961L7.09749 13.6535C7.09749 13.6535 6.28909 13.63 6.28909 13.6441C6.28909 13.6582 6.92357 13.16 6.92357 13.16L6.64157 12.3328C6.65097 12.3563 7.33249 12.8404 7.33249 12.8404L8.02337 12.361L7.75549 13.16L8.38057 13.6347L7.60037 13.6488V13.6441Z" fill="black"/>
<path fill-rule="evenodd" clip-rule="evenodd" d="M7.56241 13.6062L7.33209 14.2548L7.12529 13.6155C7.12529 13.6155 6.42969 13.5968 6.42969 13.6062C6.42969 13.6156 6.97961 13.1832 6.97961 13.1832L6.73049 12.4688C6.73989 12.4922 7.33209 12.9106 7.33209 12.9106C7.33209 12.9106 7.93369 12.4876 7.92429 12.4876C7.91489 12.4876 7.69401 13.1832 7.69401 13.1832L8.23449 13.5968L7.56241 13.6062Z" fill="#FFE700"/>
<path fill-rule="evenodd" clip-rule="evenodd" d="M7.46426 13.4985L7.33266 13.8745L7.21514 13.5032C7.21514 13.5032 6.81094 13.4938 6.81094 13.5032C6.81094 13.5126 7.13054 13.2588 7.13054 13.2588L6.98954 12.8452C6.98954 12.8593 7.33266 13.099 7.33266 13.099L7.67574 12.8546L7.54414 13.2588L7.85434 13.4938L7.46426 13.4985Z" fill="#108C00"/>
<path fill-rule="evenodd" clip-rule="evenodd" d="M9.32381 8.2629L9.06061 9.0149L8.81621 8.27702C8.81621 8.27702 8.01721 8.2535 8.01721 8.2629C8.01721 8.2723 8.65169 7.77882 8.65169 7.77882L8.36501 6.9563C8.37441 6.97982 9.05589 7.4639 9.05589 7.4639C9.05589 7.4639 9.75149 6.97982 9.74209 6.97982C9.73269 6.97982 9.47889 7.77882 9.47889 7.77882L10.0993 8.24882L9.32381 8.26762V8.2629Z" fill="black"/>
<path fill-rule="evenodd" clip-rule="evenodd" d="M9.28586 8.22497L9.05554 8.88297L8.84874 8.23909C8.84874 8.23909 8.15314 8.21557 8.15314 8.22969C8.15314 8.24377 8.70306 7.80669 8.70306 7.80669L8.45394 7.09229C8.46334 7.11577 9.05554 7.53409 9.05554 7.53409C9.05554 7.53409 9.65714 7.11109 9.64774 7.11109C9.63834 7.11109 9.42214 7.80669 9.42214 7.80669L9.95794 8.21557L9.28586 8.22969V8.22497Z" fill="#FFE700"/>
<path fill-rule="evenodd" clip-rule="evenodd" d="M9.18769 8.12203L9.05609 8.49803L8.93857 8.12675C8.93857 8.12675 8.53909 8.11263 8.53909 8.12203C8.53909 8.13143 8.85397 7.87763 8.85397 7.87763L8.71297 7.46875C8.71297 7.47815 9.05609 7.72255 9.05609 7.72255L9.39917 7.47815L9.26757 7.87763L9.57777 8.11263L9.18769 8.12203Z" fill="#108C00"/>
<path d="M12.4857 15.0914C12.6719 15.0681 12.8229 14.3016 12.8229 13.3793C12.8229 12.457 12.6719 11.7282 12.4857 11.7515C12.2995 11.7748 12.1485 12.5413 12.1485 13.4636C12.1485 14.3859 12.2995 15.1147 12.4857 15.0914Z" fill="#009200" stroke="black" stroke-width="0.0615821"/>
<path d="M12.916 15.0666C13.1156 15.0416 13.2773 14.2737 13.2773 13.3515C13.2773 12.4292 13.1156 11.7017 12.916 11.7267C12.7164 11.7516 12.5547 12.5195 12.5547 13.4418C12.5547 14.3641 12.7164 15.0915 12.916 15.0666Z" fill="#009200" stroke="black" stroke-width="0.0637436"/>
<path d="M12.7453 15.3049C12.905 15.2849 13.0344 14.4463 13.0344 13.4318C13.0344 12.4173 12.905 11.6111 12.7453 11.631C12.5857 11.6509 12.4563 12.4895 12.4563 13.5041C12.4563 14.5186 12.5857 15.3248 12.7453 15.3049Z" fill="#009200" stroke="black" stroke-width="0.0597968"/>
<path fill-rule="evenodd" clip-rule="evenodd" d="M10.7609 13.8222C11.0542 13.8076 10.9271 13.6609 11.0738 13.5778C11.2204 13.4996 11.4306 13.5485 11.4941 13.6463C11.5577 13.744 11.5088 13.8418 11.5919 13.8418C11.675 13.8418 13.8892 13.7196 13.9675 13.7978C14.0457 13.8809 14.0652 14.0422 13.9821 14.1058C13.9039 14.1742 11.1031 14.2524 11.0053 14.184C10.9076 14.1155 10.7609 13.8418 10.7609 13.8222Z" fill="#A95600" stroke="black" stroke-width="0.0611"/>
<path fill-rule="evenodd" clip-rule="evenodd" d="M12.2925 14.4016C12.2925 14.5972 12.6269 14.5375 12.6357 14.7008C12.6305 14.8738 12.0733 14.7179 12.0594 14.4016C12.0733 14.0849 12.6093 13.9226 12.6217 14.1035C12.6305 14.253 12.2918 14.2061 12.2918 14.4016H12.2925Z" fill="#FFFF00" stroke="black" stroke-width="0.0583689"/>
<path fill-rule="evenodd" clip-rule="evenodd" d="M12.4879 14.4063C12.4879 14.6018 12.8222 14.5421 12.831 14.7054C12.8259 14.8785 12.2686 14.7225 12.2547 14.4063C12.2686 14.0895 12.8046 13.9273 12.8171 14.1081C12.8259 14.2577 12.4871 14.2107 12.4871 14.4063H12.4879Z" fill="#FFFF00" stroke="black" stroke-width="0.0583689"/>
<path fill-rule="evenodd" clip-rule="evenodd" d="M12.6988 14.397C12.6988 14.5925 13.0331 14.5329 13.0419 14.6961C13.0368 14.8692 12.4796 14.7132 12.4657 14.397C12.4796 14.0802 13.0155 13.918 13.028 14.0988C13.0368 14.2484 12.6981 14.2015 12.6981 14.397H12.6988Z" fill="#FFFF00" stroke="black" stroke-width="0.0583689"/>
<path fill-rule="evenodd" clip-rule="evenodd" d="M12.8941 14.397C12.8941 14.5925 13.2285 14.5329 13.2373 14.6961C13.2321 14.8692 12.6749 14.7132 12.6609 14.397C12.6749 14.0802 13.2109 13.918 13.2233 14.0988C13.2321 14.2484 12.8934 14.2015 12.8934 14.397H12.8941Z" fill="#FFFF00" stroke="black" stroke-width="0.0583689"/>
<path d="M13.8347 14.9904C13.9386 14.9923 14.0244 14.9083 14.0262 14.8027C14.028 14.6971 13.9452 14.6101 13.8413 14.6082C13.7374 14.6063 13.6517 14.6903 13.6498 14.7959C13.648 14.9014 13.7307 14.9885 13.8347 14.9904Z" fill="#A95600" stroke="black" stroke-width="0.0549851"/>
<path d="M12.6638 14.8247C12.7587 14.815 12.8187 14.6393 12.7977 14.4322C12.7766 14.2251 12.6826 14.065 12.5876 14.0746C12.4926 14.0843 12.4327 14.26 12.4537 14.4671C12.4748 14.6743 12.5688 14.8344 12.6638 14.8247Z" fill="#009200" stroke="black" stroke-width="0.0712542"/>
<path d="M12.3763 14.7998C12.4713 14.7901 12.5312 14.6144 12.5101 14.4073C12.4891 14.2002 12.3951 14.0401 12.3001 14.0497C12.2051 14.0594 12.1452 14.2351 12.1662 14.4422C12.1873 14.6494 12.2813 14.8095 12.3763 14.7998Z" fill="#009200" stroke="black" stroke-width="0.0712542"/>
<path d="M12.1732 14.4326C12.2681 14.423 12.3281 14.2473 12.307 14.0401C12.286 13.833 12.1919 13.6729 12.097 13.6825C12.002 13.6922 11.9421 13.8679 11.9631 14.0751C11.9841 14.2822 12.0782 14.4423 12.1732 14.4326Z" fill="#009200" stroke="black" stroke-width="0.0712542"/>
<path d="M12.3827 14.3649C12.4721 14.3558 12.5259 14.1648 12.5029 13.9383C12.4799 13.7118 12.3887 13.5354 12.2994 13.5445C12.21 13.5536 12.1562 13.7446 12.1792 13.9712C12.2022 14.1977 12.2933 14.374 12.3827 14.3649Z" fill="#009200" stroke="black" stroke-width="0.0722945"/>
<path d="M12.7857 14.4133C12.8751 14.4042 12.93 14.2237 12.9083 14.0101C12.8866 13.7965 12.7965 13.6307 12.7072 13.6398C12.6178 13.6488 12.5629 13.8294 12.5846 14.043C12.6063 14.2566 12.6964 14.4224 12.7857 14.4133Z" fill="#009200" stroke="black" stroke-width="0.0701986"/>
<path d="M12.567 14.279C12.6564 14.2699 12.7112 14.0894 12.6895 13.8758C12.6678 13.6622 12.5778 13.4964 12.4884 13.5055C12.399 13.5146 12.3442 13.6951 12.3658 13.9087C12.3876 14.1223 12.4776 14.288 12.567 14.279Z" fill="#009200" stroke="black" stroke-width="0.0701986"/>
<path d="M12.2904 14.0852C12.3798 14.0761 12.4347 13.8956 12.413 13.682C12.3913 13.4684 12.3013 13.3026 12.2119 13.3116C12.1225 13.3207 12.0676 13.5012 12.0893 13.7148C12.111 13.9284 12.2011 14.0942 12.2904 14.0852Z" fill="#009200" stroke="black" stroke-width="0.0701986"/>
<path d="M12.0342 13.9743C12.1236 13.9652 12.1784 13.7847 12.1567 13.5711C12.135 13.3575 12.045 13.1917 11.9556 13.2008C11.8662 13.2099 11.8113 13.3904 11.8331 13.604C11.8547 13.8176 11.9448 13.9834 12.0342 13.9743Z" fill="#009200" stroke="black" stroke-width="0.0701986"/>
<path fill-rule="evenodd" clip-rule="evenodd" d="M11.7979 10.0002C11.7979 10.0002 11.226 10.489 11.3043 11.8039C11.3922 13.1237 12.5996 13.7347 12.5996 13.7347C12.5996 13.7347 12.9026 13.3583 12.8537 12.2927C12.756 10.7383 12.1792 10.0589 12.1792 10.0589L11.7979 9.99536V10.0002Z" fill="#804BFF" stroke="black" stroke-width="0.0611"/>
<path d="M12.9929 14.8776C13.088 14.8851 13.1784 14.7229 13.1948 14.5153C13.2111 14.3078 13.1472 14.1335 13.052 14.126C12.9569 14.1185 12.8665 14.2807 12.8502 14.4882C12.8338 14.6957 12.8977 14.8701 12.9929 14.8776Z" fill="#009200" stroke="black" stroke-width="0.0712542"/>
<path d="M12.7147 14.8026C12.8099 14.8101 12.9003 14.6479 12.9166 14.4404C12.9329 14.2328 12.8691 14.0585 12.7739 14.051C12.6787 14.0435 12.5883 14.2057 12.572 14.4133C12.5557 14.6208 12.6196 14.7951 12.7147 14.8026Z" fill="#009200" stroke="black" stroke-width="0.0712542"/>
<path d="M12.5788 14.4042C12.674 14.4117 12.7643 14.2495 12.7807 14.042C12.797 13.8344 12.7331 13.6601 12.6379 13.6526C12.5428 13.6451 12.4524 13.8073 12.436 14.0148C12.4197 14.2224 12.4836 14.3967 12.5788 14.4042Z" fill="#009200" stroke="black" stroke-width="0.0712542"/>
<path d="M12.799 14.3755C12.8886 14.3825 12.9757 14.2042 12.9936 13.9772C13.0114 13.7502 12.9533 13.5605 12.8637 13.5534C12.7742 13.5463 12.6871 13.7247 12.6692 13.9517C12.6514 14.1787 12.7095 14.3684 12.799 14.3755Z" fill="#009200" stroke="black" stroke-width="0.0722945"/>
<path d="M13.1856 14.4958C13.2751 14.5028 13.3614 14.335 13.3782 14.121C13.3951 13.907 13.3361 13.7278 13.2466 13.7207C13.157 13.7136 13.0707 13.8814 13.0539 14.0955C13.0371 14.3095 13.096 14.4887 13.1856 14.4958Z" fill="#009200" stroke="black" stroke-width="0.0701986"/>
<path d="M12.9934 14.3239C13.0829 14.3309 13.1692 14.1631 13.1861 13.9491C13.2029 13.735 13.1439 13.5558 13.0544 13.5488C12.9648 13.5417 12.8785 13.7095 12.8617 13.9236C12.8449 14.1376 12.9038 14.3168 12.9934 14.3239Z" fill="#009200" stroke="black" stroke-width="0.0701986"/>
<path d="M12.7574 14.0846C12.847 14.0917 12.9332 13.9239 12.9501 13.7099C12.9669 13.4958 12.908 13.3166 12.8184 13.3095C12.7288 13.3025 12.6426 13.4703 12.6258 13.6843C12.6089 13.8983 12.6678 14.0776 12.7574 14.0846Z" fill="#009200" stroke="black" stroke-width="0.0701986"/>
<path d="M12.5246 13.9284C12.6142 13.9354 12.7005 13.7676 12.7173 13.5536C12.7341 13.3396 12.6752 13.1603 12.5856 13.1533C12.4961 13.1462 12.4098 13.314 12.3929 13.5281C12.3761 13.7421 12.4351 13.9213 12.5246 13.9284Z" fill="#009200" stroke="black" stroke-width="0.0701986"/>
<path d="M13.4811 13.7842C13.733 13.6898 13.6922 13.001 13.3901 12.2458C13.0881 11.4906 12.639 10.9549 12.3872 11.0494C12.1354 11.1438 12.1761 11.8326 12.4782 12.5878C12.7803 13.343 13.2293 13.8786 13.4811 13.7842Z" fill="#C90000" stroke="black" stroke-width="0.0270717"/>
<path d="M12.653 11.2804C12.7696 11.2825 12.8656 11.1994 12.8674 11.095C12.8692 10.9905 12.7762 10.9042 12.6596 10.9021C12.543 10.9001 12.447 10.9831 12.4451 11.0876C12.4433 11.1921 12.5364 11.2784 12.653 11.2804Z" fill="#009200" stroke="black" stroke-width="0.063497"/>
<path d="M12.7203 11.0128C12.8224 11.0146 12.9065 10.9314 12.9084 10.8269C12.9102 10.7224 12.829 10.6363 12.7269 10.6346C12.6249 10.6328 12.5407 10.716 12.5389 10.8205C12.5371 10.9249 12.6183 11.011 12.7203 11.0128Z" fill="#009200" stroke="black" stroke-width="0.0633557"/>
<path d="M12.4672 11.0082C12.5692 11.01 12.6534 10.9267 12.6552 10.8223C12.6571 10.7178 12.5758 10.6317 12.4738 10.6299C12.3718 10.6281 12.2876 10.7114 12.2858 10.8158C12.2839 10.9203 12.3652 11.0064 12.4672 11.0082Z" fill="#009200" stroke="black" stroke-width="0.0633557"/>
<path d="M12.5644 10.5893C12.6722 10.5911 12.761 10.5165 12.7626 10.4225C12.7643 10.3285 12.6782 10.2507 12.5703 10.2488C12.4625 10.2469 12.3737 10.3216 12.3721 10.4156C12.3704 10.5097 12.4565 10.5874 12.5644 10.5893Z" fill="#009200" stroke="black" stroke-width="0.0617979"/>
<path d="M12.5441 10.3688C12.6519 10.3707 12.7407 10.296 12.7423 10.202C12.744 10.108 12.6579 10.0302 12.55 10.0284C12.4421 10.0265 12.3534 10.1012 12.3517 10.1952C12.3501 10.2892 12.4362 10.3669 12.5441 10.3688Z" fill="#009200" stroke="black" stroke-width="0.0617979"/>
<path d="M12.225 10.8673C12.3271 10.8691 12.4113 10.7859 12.4131 10.6814C12.4149 10.577 12.3337 10.4908 12.2316 10.489C12.1296 10.4873 12.0454 10.5705 12.0436 10.675C12.0418 10.7794 12.123 10.8655 12.225 10.8673Z" fill="#009200" stroke="black" stroke-width="0.0633557"/>
<path d="M12.2766 10.7315C12.3786 10.7333 12.4628 10.6501 12.4646 10.5457C12.4664 10.4412 12.3852 10.3551 12.2832 10.3533C12.1812 10.3515 12.097 10.4347 12.0951 10.5392C12.0933 10.6437 12.1746 10.7298 12.2766 10.7315Z" fill="#009200" stroke="black" stroke-width="0.0633557"/>
<path d="M12.0671 10.6352C12.1837 10.6372 12.2797 10.5542 12.2815 10.4497C12.2833 10.3452 12.1903 10.2589 12.0737 10.2569C11.9571 10.2548 11.8611 10.3379 11.8592 10.4424C11.8574 10.5468 11.9505 10.6331 12.0671 10.6352Z" fill="#009200" stroke="black" stroke-width="0.063497"/>
<path d="M12.4018 10.0986C12.5097 10.1005 12.5985 10.0257 12.6001 9.93173C12.6018 9.83773 12.5156 9.75997 12.4078 9.75809C12.2999 9.75621 12.2112 9.83089 12.2095 9.92493C12.2079 10.0189 12.294 10.0967 12.4018 10.0986Z" fill="#009200" stroke="black" stroke-width="0.0617979"/>
<path d="M12.0953 10.4642C12.1974 10.466 12.2815 10.3828 12.2834 10.2783C12.2852 10.1739 12.204 10.0877 12.1019 10.086C11.9999 10.0842 11.9157 10.1674 11.9139 10.2719C11.9121 10.3763 11.9933 10.4624 12.0953 10.4642Z" fill="#009200" stroke="black" stroke-width="0.0633557"/>
<path d="M11.6953 10.6425C11.7974 10.6442 11.8815 10.561 11.8834 10.4565C11.8852 10.3521 11.804 10.266 11.7019 10.2642C11.5999 10.2624 11.5157 10.3456 11.5139 10.4501C11.5121 10.5545 11.5933 10.6407 11.6953 10.6425Z" fill="#009200" stroke="black" stroke-width="0.0633557"/>
<path d="M11.7594 10.6098C11.8614 10.6115 11.9456 10.5283 11.9475 10.4238C11.9493 10.3194 11.868 10.2332 11.766 10.2315C11.664 10.2297 11.5798 10.3129 11.578 10.4174C11.5761 10.5218 11.6574 10.608 11.7594 10.6098Z" fill="#009200" stroke="black" stroke-width="0.0633557"/>
<path d="M11.8407 10.4596C11.9427 10.4614 12.0269 10.3781 12.0287 10.2737C12.0305 10.1692 11.9493 10.0831 11.8473 10.0813C11.7452 10.0795 11.6611 10.1628 11.6592 10.2672C11.6574 10.3717 11.7386 10.4578 11.8407 10.4596Z" fill="#009200" stroke="black" stroke-width="0.0633557"/>
<path d="M13.6211 14.4654C13.942 14.3562 13.9107 13.4848 13.551 12.519C13.1914 11.5533 12.6396 10.8589 12.3186 10.9681C11.9977 11.0772 12.0291 11.9486 12.3887 12.9144C12.7484 13.8802 13.3001 14.5746 13.6211 14.4654Z" fill="#009200" stroke="black" stroke-width="0.0568228"/>
<path d="M13.6019 13.3835C13.6612 13.355 13.6455 13.168 13.5667 12.9658C13.488 12.7636 13.3761 12.6229 13.3168 12.6514C13.2575 12.6799 13.2732 12.8669 13.352 13.0691C13.4307 13.2713 13.5426 13.412 13.6019 13.3835Z" fill="#009200" stroke="black" stroke-width="0.0580502"/>
<path fill-rule="evenodd" clip-rule="evenodd" d="M13.3827 12.9961C13.865 13.6617 13.7922 14.075 13.7323 14.4241C13.5847 14.0154 13.5077 13.7588 13.0254 13.0932C12.5431 12.4276 12.8004 11.9766 12.8394 11.7354C12.9096 11.9469 12.9004 12.3305 13.3827 12.9961Z" fill="#009200" stroke="black" stroke-width="0.0585995"/>
<path fill-rule="evenodd" clip-rule="evenodd" d="M13.4171 13.5241C13.8994 14.1897 13.8266 14.6031 13.7667 14.9521C13.6191 14.5435 13.5421 14.2869 13.0598 13.6213C12.5775 12.9557 12.8348 12.5046 12.8739 12.2634C12.9439 12.4749 12.9348 12.8585 13.4171 13.5241Z" fill="#009200" stroke="black" stroke-width="0.0585995"/>
<path fill-rule="evenodd" clip-rule="evenodd" d="M13.455 13.9486C13.9525 14.6029 13.889 15.018 13.8368 15.3685C13.68 14.9633 13.5972 14.7084 13.0997 14.0541C12.6021 13.3998 12.8495 12.9426 12.8832 12.7004C12.9581 12.9104 12.9575 13.2942 13.455 13.9486Z" fill="#009200" stroke="black" stroke-width="0.0586384"/>
<path d="M13.3335 13.0796C13.4498 13.0509 13.4316 12.7347 13.2929 12.3735C13.1541 12.0122 12.9473 11.7427 12.831 11.7714C12.7146 11.8001 12.7328 12.1163 12.8716 12.4775C13.0104 12.8388 13.2172 13.1083 13.3335 13.0796Z" fill="#009200" stroke="black" stroke-width="0.058584"/>
<path d="M13.1254 13.2736C13.2307 13.2571 13.2293 13.0026 13.1222 12.7052C13.0152 12.4078 12.843 12.1802 12.7376 12.1966C12.6323 12.2132 12.6337 12.4676 12.7407 12.765C12.8478 13.0624 13.02 13.2901 13.1254 13.2736Z" fill="#009200" stroke="black" stroke-width="0.0570783"/>
<path d="M12.7857 13.4964C12.891 13.4821 12.8961 13.2276 12.7969 12.928C12.6978 12.6284 12.5321 12.3972 12.4267 12.4115C12.3213 12.4259 12.3163 12.6804 12.4155 12.98C12.5146 13.2796 12.6803 13.5108 12.7857 13.4964Z" fill="#009200" stroke="black" stroke-width="0.0569489"/>
<path d="M13.0021 12.4421C13.0861 12.4278 13.0786 12.2375 12.9855 12.0173C12.8923 11.797 12.7486 11.6301 12.6646 11.6444C12.5806 11.6588 12.588 11.849 12.6812 12.0693C12.7744 12.2895 12.918 12.4565 13.0021 12.4421Z" fill="#009200" stroke="black" stroke-width="0.0582656"/>
<path d="M12.8335 12.6594C12.9194 12.6501 12.9248 12.4586 12.8455 12.2317C12.7662 12.0048 12.6322 11.8284 12.5463 11.8378C12.4603 11.8471 12.4549 12.0386 12.5342 12.2655C12.6135 12.4924 12.7475 12.6687 12.8335 12.6594Z" fill="#009200" stroke="black" stroke-width="0.0588265"/>
<path fill-rule="evenodd" clip-rule="evenodd" d="M12.5235 12.0095C12.6611 12.4018 12.7121 12.7529 12.6368 12.7934C12.5616 12.834 12.3892 12.5484 12.2516 12.1562" fill="#009200"/>
<path d="M12.5235 12.0095C12.6611 12.4018 12.7121 12.7529 12.6368 12.7934C12.5616 12.834 12.3892 12.5484 12.2516 12.1562" stroke="black" stroke-width="0.0589021"/>
<path d="M12.8194 12.2031C12.9053 12.1938 12.9107 12.0023 12.8315 11.7754C12.7521 11.5485 12.6182 11.3721 12.5322 11.3815C12.4463 11.3908 12.4409 11.5823 12.5202 11.8092C12.5995 12.0361 12.7335 12.2125 12.8194 12.2031Z" fill="#009200" stroke="black" stroke-width="0.0588265"/>
<path d="M12.5706 12.3696C12.6566 12.3624 12.6652 12.1709 12.5899 11.9418C12.5145 11.7127 12.3838 11.5328 12.2978 11.54C12.2119 11.5472 12.2033 11.7387 12.2786 11.9678C12.3539 12.1969 12.4847 12.3768 12.5706 12.3696Z" fill="#009200" stroke="black" stroke-width="0.0588556"/>
<path fill-rule="evenodd" clip-rule="evenodd" d="M12.2972 11.481C12.4348 11.7468 12.507 11.9935 12.4581 12.0316C12.4091 12.0698 12.2579 11.8847 12.1203 11.6188" fill="#009200"/>
<path d="M12.2972 11.481C12.4348 11.7468 12.507 11.9935 12.4581 12.0316C12.4091 12.0698 12.2579 11.8847 12.1203 11.6188" stroke="black" stroke-width="0.0588173"/>
<path fill-rule="evenodd" clip-rule="evenodd" d="M12.3987 11.3091C12.5363 11.575 12.6085 11.8216 12.5596 11.8598C12.5107 11.8979 12.3595 11.7128 12.2219 11.4469" fill="#009200"/>
<path d="M12.3987 11.3091C12.5363 11.575 12.6085 11.8216 12.5596 11.8598C12.5107 11.8979 12.3595 11.7128 12.2219 11.4469" stroke="black" stroke-width="0.0588173"/>
<path fill-rule="evenodd" clip-rule="evenodd" d="M12.8435 11.4028C13.0349 11.7685 13.1349 12.1072 13.0663 12.1591C12.9976 12.211 12.7868 11.9562 12.5953 11.5906" fill="#009200"/>
<path d="M12.8435 11.4028C13.0349 11.7685 13.1349 12.1072 13.0663 12.1591C12.9976 12.211 12.7868 11.9562 12.5953 11.5906" stroke="black" stroke-width="0.0589039"/>
<path fill-rule="evenodd" clip-rule="evenodd" d="M12.5534 11.1489C12.691 11.4414 12.7633 11.7129 12.7143 11.7551C12.6654 11.7973 12.5142 11.594 12.3766 11.3014" fill="#009200"/>
<path d="M12.5534 11.1489C12.691 11.4414 12.7633 11.7129 12.7143 11.7551C12.6654 11.7973 12.5142 11.594 12.3766 11.3014" stroke="black" stroke-width="0.0580682"/>
<path fill-rule="evenodd" clip-rule="evenodd" d="M12.755 10.131C12.6588 10.2299 12.7581 10.402 12.8488 10.4611C12.9505 10.5439 13.5261 11.087 13.9148 10.5901C13.5957 10.5987 12.9865 9.91053 12.755 10.131Z" fill="#804BFF" stroke="black" stroke-width="0.0573169"/>
<path fill-rule="evenodd" clip-rule="evenodd" d="M12.6862 9.84191C12.59 9.94087 12.6894 10.1129 12.7801 10.1721C12.8817 10.2549 13.4574 10.7979 13.8461 10.3011C13.527 10.3097 12.9177 9.62147 12.6862 9.84191Z" fill="#804BFF" stroke="black" stroke-width="0.0573169"/>
<path fill-rule="evenodd" clip-rule="evenodd" d="M12.5987 9.56847C12.5025 9.66743 12.6018 9.83947 12.6926 9.89863C12.7942 9.98143 13.3699 10.5245 13.7585 10.0277C13.4395 10.0363 12.8302 9.34803 12.5987 9.56847Z" fill="#804BFF" stroke="black" stroke-width="0.0573169"/>
<path fill-rule="evenodd" clip-rule="evenodd" d="M12.4081 9.25597C12.3119 9.35489 12.4112 9.52697 12.5019 9.58609C12.6036 9.66889 13.1792 10.212 13.5679 9.71513C13.2488 9.72373 12.6396 9.03553 12.4081 9.25597Z" fill="#804BFF" stroke="black" stroke-width="0.0573169"/>
<path fill-rule="evenodd" clip-rule="evenodd" d="M11.5355 9.11803C11.7208 8.97323 12.0682 8.93039 12.3429 9.07483C12.5721 9.19047 12.9594 9.65875 13.245 9.76971C13.1704 9.78707 13.0923 9.79079 13.0153 9.78063C12.9382 9.77051 12.8637 9.74671 12.7962 9.71063C12.5492 9.89903 12.4608 9.92623 12.2044 9.96363C11.85 10.0151 11.5518 9.91851 11.4444 9.72607C11.3327 9.54459 11.3713 9.25339 11.5355 9.11803Z" fill="#804BFF" stroke="black" stroke-width="0.0596336"/>
<path d="M12.078 9.4343C12.1738 9.43598 12.2522 9.39466 12.2532 9.34206C12.2541 9.28942 12.1771 9.24538 12.0813 9.2437C11.9855 9.24206 11.9071 9.28334 11.9062 9.33598C11.9052 9.38862 11.9822 9.43266 12.078 9.4343Z" fill="#FF0000" stroke="black" stroke-width="0.0550748"/>
<path d="M11.6554 9.85707C11.782 9.80895 11.8614 9.71035 11.8326 9.63687C11.8039 9.56339 11.6779 9.54283 11.5512 9.59095C11.4246 9.63907 11.3452 9.73763 11.374 9.81111C11.4027 9.88459 11.5287 9.90519 11.6554 9.85707Z" fill="#FFFF00" stroke="black" stroke-width="0.0607953"/>
<path d="M11.8032 9.69886C11.8345 9.69938 11.8603 9.67446 11.8608 9.64314C11.8614 9.61182 11.8364 9.58602 11.8051 9.58546C11.7738 9.5849 11.748 9.60986 11.7474 9.64118C11.7469 9.67246 11.7718 9.6983 11.8032 9.69886Z" fill="black"/>
<path fill-rule="evenodd" clip-rule="evenodd" d="M11.8813 9.46046C11.9015 9.53118 11.8456 9.62798 11.7159 9.66326C11.584 9.71258 11.4877 9.82278 11.4377 10.0026C11.2141 9.59506 11.3354 9.42082 11.5493 9.37762C11.7331 9.3245 11.8454 9.33038 11.8813 9.46046Z" fill="#FFFF00" stroke="black" stroke-width="0.0721373"/>
<path d="M11.3318 9.89413C11.3572 9.89457 11.3781 9.87437 11.3786 9.84901C11.379 9.82361 11.3588 9.80269 11.3334 9.80225C11.3081 9.80181 11.2872 9.82201 11.2867 9.84741C11.2862 9.87277 11.3065 9.89369 11.3318 9.89413Z" fill="black"/>
</g>
</g>
</g>
</g>
<defs>
<clipPath id="clip0_69_4262">
<rect width="24" height="24" rx="12" fill="white"/>
</clipPath>
<clipPath id="clip1_69_4262">
<rect width="32" height="24" fill="white" transform="translate(-4)"/>
</clipPath>
</defs>
</svg>
