<svg width="24" height="24" viewBox="0 0 24 24" fill="none" xmlns="http://www.w3.org/2000/svg">
<g clip-path="url(#clip0_69_1155)">
<path d="M12 -6.80005H24V31.2H12V-6.80005Z" fill="white"/>
<path d="M0 -6.80005H12V31.2H0V-6.80005Z" fill="#006233"/>
<path d="M15.8994 9.94995C15.4041 9.09207 14.6396 8.42157 13.7244 8.04249C12.8092 7.66341 11.7945 7.5969 10.8376 7.85328C9.88078 8.10966 9.03529 8.67462 8.43223 9.46053C7.8292 10.2464 7.50232 11.2094 7.50232 12.2C7.50232 13.1906 7.8292 14.1535 8.43223 14.9394C9.03529 15.7253 9.88078 16.2902 10.8376 16.5466C11.7945 16.803 12.8092 16.7365 13.7244 16.3574C14.6396 15.9783 15.4041 15.3078 15.8994 14.45C15.4333 15.0322 14.7978 15.4553 14.0808 15.6607C13.3638 15.8661 12.6007 15.8438 11.8969 15.5968C11.1931 15.3498 10.5835 14.8903 10.1522 14.2817C9.72085 13.6733 9.48919 12.9458 9.48919 12.2C9.48919 11.4541 9.72085 10.7267 10.1522 10.1182C10.5835 9.50964 11.1931 9.05013 11.8969 8.80311C12.6007 8.55609 13.3638 8.53377 14.0808 8.73921C14.7978 8.94465 15.4333 9.36771 15.8994 9.94995ZM16.0494 12.2L11.9994 10.88L14.5194 14.3299V10.07L11.9994 13.52L16.0494 12.2Z" fill="#D21034"/>
</g>
<defs>
<clipPath id="clip0_69_1155">
<rect width="24" height="24" rx="12" fill="white"/>
</clipPath>
</defs>
</svg>
