<svg width="24" height="24" viewBox="0 0 24 24" fill="none" xmlns="http://www.w3.org/2000/svg">
<g clip-path="url(#clip0_69_4500)">
<g clip-path="url(#clip1_69_4500)">
<mask id="mask0_69_4500" style="mask-type:luminance" maskUnits="userSpaceOnUse" x="-4" y="0" width="32" height="24">
<path d="M28 0H-4V24H28V0Z" fill="white"/>
</mask>
<g mask="url(#mask0_69_4500)">
<path d="M-4 16.3203H28V17.4003H-4V16.3203Z" fill="white"/>
<path d="M-4 6.6001H28V7.6801H-4V6.6001Z" fill="white"/>
<path d="M-4 17.3999H28V23.9999H-4V17.3999Z" fill="#0087FF"/>
<path d="M-4 0H28V6.6H-4V0Z" fill="#0087FF"/>
<path d="M-4 14.5203H28V16.3203H-4V14.5203Z" fill="#FF0000"/>
<path d="M-4 7.67969H28V9.47969H-4V7.67969Z" fill="black"/>
<path d="M-4 10.3203H28V13.6803H-4V10.3203Z" fill="#FFFF00"/>
<path d="M-4 13.6797H28V14.5197H-4V13.6797Z" fill="#008300"/>
<path d="M-4 9.47974H28V10.3197H-4V9.47974Z" fill="#008300"/>
<path d="M12.0019 8.00635C11.3134 8.00751 10.6406 8.21227 10.0681 8.59487C9.49568 8.97743 9.04912 9.52075 8.78468 10.1565C8.52024 10.7922 8.44968 11.4919 8.58188 12.1676C8.71408 12.8433 9.04316 13.4649 9.52772 13.954L8.03536 14.434L8.17064 14.7744L7.69064 14.8791L8.03972 15.9962H15.9641L16.3088 14.8791L15.8288 14.7744L15.9641 14.4297L14.4717 13.954C14.956 13.4651 15.285 12.844 15.4174 12.1687C15.5497 11.4934 15.4796 10.794 15.2156 10.1585C14.9517 9.52291 14.5058 8.97955 13.9341 8.59667C13.3623 8.21375 12.6901 8.00839 12.0019 8.00635Z" fill="white" stroke="black" stroke-width="0.218183"/>
<path d="M8.11407 14.897L8.41951 15.8832H15.5846L15.8857 14.897H8.11407Z" fill="#008300"/>
<path d="M8.30624 15.0234L8.5288 15.7565H15.4714L15.6939 15.0234H10.0735H8.30624Z" fill="white"/>
<path d="M8.79456 15.4541C8.79456 15.4701 8.79292 15.4855 8.7896 15.5003C8.78632 15.5145 8.78052 15.5268 8.77228 15.5372C8.76404 15.5483 8.75304 15.5569 8.73928 15.5631C8.72556 15.5693 8.70796 15.5723 8.68652 15.5723C8.66728 15.5723 8.65076 15.5699 8.63704 15.5649C8.62272 15.5594 8.61092 15.5533 8.60156 15.5465L8.62384 15.4883C8.63208 15.4938 8.64116 15.4985 8.65104 15.5021C8.6604 15.5065 8.67056 15.5086 8.68156 15.5086C8.69808 15.5086 8.70988 15.504 8.71704 15.4947C8.72416 15.4861 8.72776 15.4711 8.72776 15.4495V15.2325H8.79456V15.4541ZM8.976 15.5723C8.95456 15.5723 8.93644 15.5693 8.92156 15.5631C8.90616 15.5563 8.89352 15.5471 8.88364 15.5354C8.87372 15.5237 8.86632 15.5098 8.86136 15.4938C8.85696 15.4772 8.85476 15.4593 8.85476 15.4403V15.2325H8.92156V15.4329C8.92156 15.4464 8.92296 15.4578 8.92568 15.4671C8.92844 15.4763 8.93228 15.484 8.93724 15.4901C8.94164 15.4963 8.94716 15.5006 8.95376 15.5031C8.96088 15.5055 8.9686 15.5068 8.97684 15.5068C8.99332 15.5068 9.00652 15.5012 9.01644 15.4901C9.02632 15.4791 9.03128 15.46 9.03128 15.4329V15.2316H9.09892V15.4393C9.09892 15.4584 9.09616 15.4763 9.09064 15.4929C9.08624 15.5089 9.07912 15.5231 9.0692 15.5354C9.05876 15.5471 9.04584 15.556 9.03044 15.5622C9.01504 15.5683 8.99692 15.5714 8.976 15.5714V15.5723ZM9.2416 15.2325C9.24708 15.2429 9.25312 15.2562 9.25972 15.2722L9.28116 15.3221L9.3026 15.3775L9.32324 15.431L9.34304 15.3775L9.36448 15.3221L9.38592 15.2722C9.39252 15.2562 9.39856 15.2429 9.40408 15.2325H9.46512L9.47336 15.3064L9.47912 15.3923C9.48132 15.4218 9.48296 15.4517 9.48408 15.4818L9.4882 15.5659H9.42304L9.41972 15.4597L9.41312 15.3442L9.39664 15.3895L9.37684 15.4384C9.37136 15.4551 9.36556 15.4707 9.35952 15.4855L9.34468 15.5234H9.29768L9.28364 15.4855L9.26552 15.4384L9.24652 15.3895L9.23004 15.3442C9.22676 15.383 9.22456 15.4215 9.22344 15.4597L9.22016 15.5659H9.15416L9.15828 15.4818L9.16324 15.3923L9.16984 15.3073L9.17808 15.2325H9.2416ZM9.66552 15.5723C9.64464 15.5723 9.62648 15.5693 9.61108 15.5631C9.59568 15.5563 9.58304 15.5471 9.57316 15.5354C9.56324 15.5237 9.55584 15.5098 9.55088 15.4938C9.54648 15.4772 9.54428 15.4593 9.54428 15.4403V15.2325H9.61108V15.4329C9.61108 15.4464 9.61244 15.4578 9.6152 15.4671C9.61796 15.4763 9.6218 15.484 9.62676 15.4901C9.63172 15.4963 9.6372 15.5006 9.64324 15.5031C9.6504 15.5055 9.65808 15.5068 9.66636 15.5068C9.68284 15.5068 9.69604 15.5012 9.70592 15.4901C9.71584 15.4791 9.7208 15.46 9.7208 15.4329V15.2316H9.7884V15.4393C9.7884 15.4584 9.78568 15.4763 9.78016 15.4929C9.77576 15.5089 9.7686 15.5231 9.75872 15.5354C9.74828 15.5471 9.73536 15.556 9.71996 15.5622C9.70456 15.5683 9.6864 15.5714 9.66552 15.5714V15.5723ZM9.85192 15.2325H9.91956V15.5659H9.85276L9.85192 15.2325ZM10.0977 15.3692L10.1324 15.3008C10.1433 15.2781 10.1532 15.2553 10.162 15.2325H10.2363C10.2198 15.2682 10.2027 15.303 10.1851 15.3369C10.1675 15.3707 10.1491 15.4046 10.1299 15.4384V15.5659H10.0631V15.4393C10.0433 15.4055 10.0246 15.3716 10.007 15.3378C9.9894 15.3033 9.97232 15.2682 9.95584 15.2325H10.0342C10.043 15.2553 10.0529 15.2781 10.0639 15.3008L10.0969 15.3692H10.0977ZM10.4293 15.5659L10.4185 15.5308L10.407 15.4938H10.2915L10.2792 15.5308L10.2692 15.5659H10.1983L10.2305 15.4661L10.2594 15.3803L10.2882 15.3036C10.2976 15.279 10.3072 15.2553 10.3171 15.2325H10.3814C10.3913 15.2553 10.401 15.279 10.4103 15.3036L10.4383 15.3803L10.468 15.4661L10.5002 15.5659H10.4293ZM10.3484 15.3073C10.3473 15.3128 10.3451 15.3196 10.3418 15.3276L10.3319 15.3562L10.3196 15.3932L10.3064 15.4338H10.3913L10.3781 15.3923L10.3658 15.3562L10.3558 15.3285L10.3484 15.3082V15.3073ZM10.7518 15.3692L10.7864 15.3008C10.7974 15.2781 10.8073 15.2553 10.8161 15.2325H10.8903C10.8738 15.2682 10.857 15.303 10.84 15.3369C10.8224 15.3707 10.8037 15.4046 10.7839 15.4384V15.5659H10.7179V15.4393L10.6618 15.3378C10.6442 15.3033 10.6275 15.2682 10.6115 15.2325H10.6891L10.7188 15.3008L10.7526 15.3692H10.7518ZM11.0833 15.5659L11.0726 15.5308L11.061 15.4938H10.9456L10.934 15.5308L10.9233 15.5659H10.854L10.8854 15.4661L10.915 15.3803L10.9431 15.3036C10.9524 15.279 10.9623 15.2553 10.9728 15.2325H11.0363C11.0462 15.2553 11.0558 15.279 11.0652 15.3036L11.094 15.3803L11.1237 15.4661L11.1551 15.5659H11.0833ZM11.0033 15.3073L10.9967 15.3276L10.9868 15.3562L10.9744 15.3932L10.9612 15.4338H11.0454L11.0322 15.3923L11.0198 15.3562L11.0099 15.3285L11.0033 15.3082V15.3073ZM11.4965 15.5659L11.4858 15.5308L11.4742 15.4938H11.3588L11.3472 15.5308L11.3365 15.5659H11.2672L11.2986 15.4661C11.3085 15.4353 11.3184 15.4067 11.3283 15.3803L11.3563 15.3036C11.3656 15.279 11.3753 15.2553 11.3852 15.2325H11.4495C11.4594 15.2553 11.469 15.279 11.4784 15.3036L11.5064 15.3803L11.5361 15.4661L11.5683 15.5659H11.4965ZM11.4157 15.3073L11.4099 15.3276L11.4 15.3562L11.3876 15.3932L11.3736 15.4338H11.4586L11.4454 15.3923L11.433 15.3562L11.4231 15.3285L11.4157 15.3082V15.3073ZM11.607 15.5659V15.2325H11.8066V15.2953H11.6747V15.3655H11.7918V15.4283H11.6738V15.5668L11.607 15.5659ZM11.9411 15.2288C11.9856 15.2288 12.0197 15.2377 12.0434 15.2556C12.0675 15.2734 12.0796 15.3011 12.0796 15.3387C12.0796 15.3621 12.0747 15.3812 12.0648 15.3959C12.0554 15.4101 12.0417 15.4215 12.0236 15.4301L12.0425 15.4578L12.0615 15.492L12.0804 15.5289L12.097 15.5659H12.0227L12.0054 15.5326L11.9889 15.5003L11.9708 15.4698L11.9543 15.444H11.9213V15.5659H11.8536V15.2371C11.8685 15.234 11.8836 15.2319 11.899 15.2307L11.9402 15.2288H11.9411ZM11.9452 15.2925H11.9304L11.9196 15.2944V15.3849H11.9386C11.9639 15.3849 11.982 15.3812 11.993 15.3738C12.004 15.367 12.0095 15.355 12.0095 15.3378C12.0095 15.3211 12.004 15.3097 11.993 15.3036C11.982 15.2962 11.9655 15.2925 11.9436 15.2925H11.9452ZM12.1407 15.2325H12.2075V15.5659H12.1407V15.2325ZM12.4524 15.5659C12.4464 15.5548 12.4392 15.5431 12.431 15.5308L12.4038 15.4929C12.3944 15.48 12.3845 15.4677 12.3741 15.456C12.3636 15.4443 12.3534 15.4338 12.3436 15.4246V15.5659H12.2759V15.2325H12.3436V15.3581C12.3612 15.3378 12.3785 15.3165 12.3955 15.2944L12.445 15.2325H12.525C12.5047 15.2596 12.484 15.2854 12.4632 15.3101C12.4428 15.3353 12.4214 15.3605 12.3988 15.3858C12.4225 15.4079 12.4453 15.4344 12.4673 15.4652C12.4898 15.496 12.5113 15.5299 12.5316 15.5668L12.4524 15.5659ZM12.7799 15.5659L12.77 15.5308L12.7584 15.4938H12.643L12.6306 15.5308L12.6207 15.5659H12.5506L12.5828 15.4661L12.6116 15.3803L12.6405 15.3036C12.6498 15.279 12.6594 15.2553 12.6694 15.2325H12.7337C12.7436 15.2553 12.7532 15.279 12.7626 15.3036L12.7906 15.3803L12.8203 15.4661L12.8524 15.5659H12.7799ZM12.6999 15.3073L12.6941 15.3276L12.6842 15.3562L12.671 15.3932L12.6578 15.4338H12.7428L12.7296 15.3923L12.7172 15.3562L12.7073 15.3285L12.6999 15.3082V15.3073ZM13.0735 15.2325C13.079 15.2429 13.0848 15.2562 13.0908 15.2722L13.1122 15.3221L13.1337 15.3775L13.1543 15.431L13.1741 15.3775L13.1956 15.3221L13.217 15.2722C13.2236 15.2562 13.2296 15.2429 13.2352 15.2325H13.2962L13.3044 15.3064L13.3102 15.3923C13.3124 15.4218 13.314 15.4517 13.3152 15.4818L13.3193 15.5659H13.2541L13.2508 15.4597L13.2442 15.3442L13.2277 15.3895L13.2079 15.4384C13.2024 15.4551 13.1966 15.4707 13.1906 15.4855L13.1758 15.5234H13.1288L13.1147 15.4855L13.0966 15.4384L13.0776 15.3895L13.0611 15.3442C13.0578 15.383 13.0556 15.4215 13.0545 15.4597L13.0512 15.5659H12.9852L12.9894 15.4818L12.9943 15.3923L13.0009 15.3073L13.0092 15.2325H13.0735ZM13.5799 15.5659L13.5684 15.5308L13.5576 15.4938H13.4413L13.4298 15.5308L13.4191 15.5659H13.3498L13.3811 15.4661L13.4108 15.3803L13.4388 15.3036C13.4482 15.279 13.4581 15.2553 13.4686 15.2325H13.532C13.542 15.2553 13.5516 15.279 13.5609 15.3036C13.5708 15.3282 13.5804 15.3538 13.5898 15.3803L13.6195 15.4661L13.6508 15.5659H13.5799ZM13.4991 15.3073L13.4925 15.3276L13.4826 15.3562L13.4702 15.3932L13.457 15.4338H13.5411L13.5279 15.3923L13.5156 15.3562L13.5057 15.3285L13.4991 15.3082V15.3073ZM13.7795 15.5086C13.7888 15.5086 13.7965 15.5077 13.8026 15.5058C13.8086 15.504 13.8136 15.5018 13.8174 15.4994C13.8213 15.4957 13.824 15.492 13.8257 15.4883C13.8268 15.484 13.8273 15.4794 13.8273 15.4744C13.8273 15.4633 13.8226 15.4541 13.8133 15.4467C13.8045 15.4393 13.7888 15.4317 13.7663 15.4237L13.7366 15.4107C13.7272 15.4052 13.7187 15.399 13.711 15.3923C13.7033 15.3843 13.697 15.375 13.6921 15.3645C13.6866 15.3535 13.6838 15.3402 13.6838 15.3248C13.6838 15.3095 13.6866 15.2956 13.6921 15.2833C13.6976 15.271 13.705 15.2605 13.7143 15.2519C13.7237 15.2433 13.7352 15.2365 13.749 15.2316C13.7622 15.2273 13.7773 15.2251 13.7943 15.2251C13.8141 15.2251 13.8314 15.2273 13.8463 15.2316C13.8606 15.2365 13.8727 15.242 13.8826 15.2482L13.8628 15.3073C13.8546 15.3024 13.8452 15.2981 13.8348 15.2944C13.8248 15.2907 13.8128 15.2888 13.7985 15.2888C13.782 15.2888 13.7704 15.2913 13.7638 15.2962C13.7567 15.3011 13.7531 15.3088 13.7531 15.3193C13.7531 15.3255 13.7545 15.3304 13.7572 15.3341C13.76 15.3384 13.7636 15.3424 13.768 15.3461L13.7844 15.3553L13.805 15.3636C13.8204 15.3698 13.8339 15.3759 13.8455 15.3821C13.8565 15.3883 13.8658 15.3956 13.8735 15.4043C13.8812 15.4129 13.887 15.4227 13.8908 15.4338C13.8947 15.4449 13.8966 15.4584 13.8966 15.4744C13.8966 15.5052 13.8867 15.5295 13.8669 15.5474C13.8477 15.564 13.8185 15.5723 13.7795 15.5723C13.7663 15.5723 13.7542 15.5714 13.7432 15.5695C13.7328 15.5683 13.7234 15.5662 13.7152 15.5631L13.6937 15.5557L13.6797 15.5465L13.6987 15.4874C13.7075 15.4929 13.7184 15.4978 13.7316 15.5021C13.7443 15.5065 13.7602 15.5086 13.7795 15.5086ZM14.1276 15.2325H14.1952V15.5659H14.1276V15.4246H14.0154V15.5659H13.9478V15.2325H14.0154V15.359H14.1276V15.2325ZM14.4624 15.5659L14.4525 15.5308L14.441 15.4938H14.3255L14.3131 15.5308L14.3032 15.5659H14.2331C14.2441 15.5301 14.2551 15.4969 14.2661 15.4661C14.2754 15.4353 14.2851 15.4067 14.295 15.3803L14.323 15.3036C14.3324 15.279 14.342 15.2553 14.3519 15.2325H14.4162C14.4261 15.2553 14.4357 15.279 14.4451 15.3036L14.4731 15.3803L14.5028 15.4661L14.535 15.5659H14.4624ZM14.3824 15.3073L14.3766 15.3276L14.3667 15.3562L14.3535 15.3932L14.3403 15.4338H14.4253L14.4121 15.3923L14.3997 15.3562L14.3898 15.3285L14.3824 15.3082V15.3073ZM14.6604 15.2288C14.7054 15.2288 14.7398 15.2377 14.7634 15.2556C14.7871 15.2734 14.7989 15.3011 14.7989 15.3387C14.7989 15.3621 14.7942 15.3812 14.7849 15.3959C14.775 15.4101 14.7612 15.4215 14.7436 15.4301L14.7626 15.4578L14.7816 15.492L14.8006 15.5289L14.817 15.5659H14.7428L14.7255 15.5326L14.7082 15.5003L14.6917 15.4698L14.6736 15.444H14.6406V15.5659H14.5738V15.2371C14.588 15.234 14.6029 15.2319 14.6183 15.2307L14.6612 15.2288H14.6604ZM14.6645 15.2925H14.6521L14.6414 15.2944V15.3849H14.6604C14.6856 15.3849 14.7038 15.3812 14.7148 15.3738C14.7258 15.367 14.7313 15.355 14.7313 15.3378C14.7313 15.3211 14.7258 15.3097 14.7148 15.3036C14.7038 15.2962 14.6873 15.2925 14.6653 15.2925H14.6645ZM14.86 15.2325H14.9276V15.5659H14.86V15.2325ZM15.1717 15.5659C15.1662 15.5548 15.1591 15.5431 15.1503 15.5308C15.1426 15.5185 15.1338 15.5058 15.1239 15.4929C15.1145 15.48 15.1046 15.4677 15.0942 15.456C15.0837 15.4443 15.0733 15.4338 15.0628 15.4246V15.5659H14.9968V15.2325H15.0628V15.3581C15.0804 15.3378 15.098 15.3165 15.1156 15.2944L15.1651 15.2325H15.2443C15.224 15.2596 15.2036 15.2854 15.1832 15.3101C15.1629 15.3353 15.1415 15.3605 15.1189 15.3858C15.1426 15.4079 15.1654 15.4344 15.1874 15.4652C15.2094 15.496 15.2308 15.5299 15.2517 15.5668L15.1717 15.5659ZM15.2905 15.2325H15.3564V15.5659H15.2905V15.2325Z" fill="black"/>
<path fill-rule="evenodd" clip-rule="evenodd" d="M8.11407 14.8962L8.56787 14.774L8.42823 14.5253L9.20931 14.2329V14.4991H9.44931V14.9049H8.14023L8.11407 14.8962Z" fill="#008300"/>
<path fill-rule="evenodd" clip-rule="evenodd" d="M9.33565 14.9046H8.38437L9.33565 14.6472V14.9046ZM9.12621 14.5032H8.70293L9.13929 14.3374L9.12621 14.5032ZM8.57201 14.573L8.66801 14.7476L9.30077 14.573H8.57201Z" fill="white"/>
<path fill-rule="evenodd" clip-rule="evenodd" d="M15.8859 14.8962L15.4321 14.774L15.5718 14.5253L14.7907 14.2329V14.4991H14.5507V14.9049H15.8598L15.8859 14.8962Z" fill="#008300"/>
<path fill-rule="evenodd" clip-rule="evenodd" d="M14.6644 14.9046H15.6156L14.6644 14.6472V14.9046ZM14.8738 14.5032H15.2971L14.8607 14.3374L14.8738 14.5032ZM15.428 14.573L15.332 14.7476L14.6992 14.573H15.428Z" fill="white"/>
<path d="M11.9188 8.42041C11.2088 8.44385 10.5287 8.71117 9.99284 9.17741C9.457 9.64361 9.09816 10.2803 8.97672 10.9801C8.85532 11.6799 8.97872 12.4002 9.32624 13.0197C9.67372 13.6391 10.224 14.1199 10.8846 14.3812V14.0408C10.3044 13.7849 9.82948 13.3378 9.53916 12.7741C9.24884 12.2103 9.16068 11.5641 9.28932 10.9432C9.418 10.3223 9.75576 9.76425 10.2462 9.36229C10.7366 8.96037 11.3501 8.73881 11.9842 8.73457H12.006C12.6416 8.73485 13.2578 8.95357 13.7512 9.35413C14.2447 9.75469 14.5855 10.3127 14.7164 10.9347C14.8474 11.5566 14.7605 12.2047 14.4704 12.7702C14.1803 13.3357 13.7046 13.7843 13.1231 14.0408V14.3812C13.7942 14.1204 14.353 13.6331 14.7026 13.0038C15.0522 12.3745 15.1708 11.6426 15.0376 10.9351C14.9046 10.2275 14.5282 9.58881 13.9737 9.12957C13.4192 8.67033 12.7216 8.41945 12.0016 8.42041H11.9188Z" fill="#FFFF00" stroke="black" stroke-width="0.13091"/>
<path fill-rule="evenodd" clip-rule="evenodd" d="M12.848 13.7319L12.8523 14.1945C12.573 14.2381 12.2632 14.5261 12.1803 14.5785C12.0974 14.6352 11.9622 14.7443 11.888 14.7355C11.7614 14.7181 11.853 14.6177 11.853 14.6177C11.853 14.6177 11.7658 14.7225 11.7047 14.6745C11.6436 14.6352 11.7396 14.5567 11.7396 14.5567C11.7396 14.5567 11.709 14.6003 11.6436 14.5785C11.5825 14.561 11.6262 14.4912 11.6262 14.4912C11.6262 14.4912 11.4603 14.5785 11.4298 14.5479C11.3862 14.4912 11.4472 14.4388 11.4472 14.4388L11.8356 14.1115C12.0494 14.0243 12.1105 14.1465 12.2065 14.1377C12.3112 14.129 12.5774 13.985 12.6516 13.9152C12.7258 13.841 12.704 13.7625 12.7607 13.7407C12.8174 13.7188 12.848 13.7319 12.848 13.7319Z" fill="white" stroke="black" stroke-width="0.0950185"/>
<path fill-rule="evenodd" clip-rule="evenodd" d="M11.1466 13.7671L11.1422 14.1947C11.404 14.2296 11.6964 14.5089 11.7749 14.5613C11.8491 14.6093 11.98 14.6922 12.0499 14.6835C12.1633 14.6703 12.1371 14.6267 12.1371 14.6267C12.1371 14.6267 12.1895 14.6529 12.2593 14.6267C12.3291 14.6005 12.2942 14.5525 12.2942 14.5525C12.2942 14.5525 12.3989 14.5831 12.4426 14.5263C12.4862 14.4783 12.3989 14.426 12.3989 14.426C12.3989 14.426 12.4426 14.3955 12.3727 14.4347C12.3029 14.4696 12.1633 14.3125 12.0237 14.3038C11.8797 14.3038 11.8666 14.4435 11.7793 14.378C11.6877 14.3082 11.8491 14.1947 11.9059 14.1773C12.1284 14.1031 12.3379 14.1947 12.0673 14.09C11.9277 14.0376 11.8186 14.138 11.7269 14.1336C11.6309 14.1293 11.3953 14.0027 11.3342 13.9329C11.2644 13.8631 11.2819 13.7933 11.2295 13.7714C11.1771 13.754 11.1466 13.7627 11.1422 13.7671H11.1466Z" fill="white" stroke="black" stroke-width="0.0864003"/>
<path d="M12.2984 14.5519L12.1108 14.4734M12.1588 14.6348L11.9406 14.5039" stroke="black" stroke-width="0.0864003"/>
<path fill-rule="evenodd" clip-rule="evenodd" d="M10.7882 13.5437C10.2471 13.8055 10.2209 13.1161 9.97656 13.1248C10.4348 12.8193 10.3606 13.3866 10.7882 13.5437ZM10.5788 12.7844C10.3082 13.2775 10.9409 13.343 10.9191 13.583C11.2289 13.1641 10.7009 13.199 10.5788 12.7844Z" fill="#008300" stroke="black" stroke-width="0.0416729"/>
<path fill-rule="evenodd" clip-rule="evenodd" d="M10.3183 12.9752C9.65069 13.0886 9.83397 12.5126 9.55469 12.4646C10.1438 12.2901 9.89069 12.7352 10.3183 12.9752Z" fill="#008300" stroke="black" stroke-width="0.0416729"/>
<path fill-rule="evenodd" clip-rule="evenodd" d="M10.2478 12.2956C9.88128 12.7276 10.4093 12.7494 10.3482 12.9763C10.7278 12.6272 10.3351 12.6403 10.2478 12.2956ZM9.86384 12.3741C9.20056 12.2781 9.61948 11.6018 9.41876 11.4578C9.9642 11.497 9.61076 12.0905 9.86384 12.3741Z" fill="#008300" stroke="black" stroke-width="0.0416729"/>
<path fill-rule="evenodd" clip-rule="evenodd" d="M10.1173 11.5188C9.50639 11.8112 10.1217 12.1254 9.88167 12.3916C10.4839 12.361 9.95147 11.9683 10.1173 11.5276V11.5188ZM9.77695 11.5407C9.06567 11.2178 9.80747 10.6068 9.68095 10.3843C10.1653 10.8774 9.42787 11.0607 9.77695 11.5407Z" fill="#008300" stroke="black" stroke-width="0.0416729"/>
<path fill-rule="evenodd" clip-rule="evenodd" d="M10.2304 10.7199C9.61951 10.7984 9.92499 11.3614 9.79843 11.5621C10.2784 11.453 9.89443 11.1694 10.2348 10.7199H10.2304ZM9.93371 10.5497C9.58899 10.0261 10.165 9.90825 10.2042 9.64209C10.3701 10.3315 9.97735 10.109 9.93371 10.5497Z" fill="#008300" stroke="black" stroke-width="0.0416729"/>
<path fill-rule="evenodd" clip-rule="evenodd" d="M10.6233 10.1132C10.056 9.95175 10.1608 10.5234 9.96875 10.6587C10.4488 10.7372 10.3484 10.279 10.6233 10.1132ZM10.3615 9.86883C10.248 9.41503 10.4749 9.48919 10.7324 9.28847C10.872 9.65503 10.5273 9.61139 10.3615 9.86883ZM11.0858 9.79903C10.6495 9.47611 10.6015 9.91247 10.3745 9.97355C10.7935 10.2223 10.8109 9.85139 11.0858 9.80339V9.79903ZM10.824 9.58083C10.8371 9.38447 11.0989 9.12703 11.3695 9.21427C11.3564 9.54155 11.0422 9.62447 10.824 9.58519V9.58083Z" fill="#008300" stroke="black" stroke-width="0.0416729"/>
<path fill-rule="evenodd" clip-rule="evenodd" d="M13.2118 13.5437C13.7529 13.8055 13.7791 13.1161 14.0234 13.1248C13.5652 12.8193 13.6394 13.3866 13.2118 13.5437ZM13.4212 12.7844C13.6918 13.2775 13.0591 13.343 13.0809 13.583C12.7711 13.1641 13.2991 13.199 13.4212 12.7844Z" fill="#008300" stroke="black" stroke-width="0.0416729"/>
<path fill-rule="evenodd" clip-rule="evenodd" d="M13.6817 12.9752C14.3493 13.0886 14.166 12.5126 14.4453 12.4646C13.8562 12.2901 14.1093 12.7352 13.6817 12.9752Z" fill="#008300" stroke="black" stroke-width="0.0416729"/>
<path fill-rule="evenodd" clip-rule="evenodd" d="M13.7522 12.2956C14.1187 12.7276 13.5907 12.7494 13.6518 12.9763C13.2722 12.6272 13.6649 12.6403 13.7522 12.2956ZM14.1362 12.3741C14.7994 12.2781 14.3805 11.6018 14.5812 11.4578C14.0358 11.497 14.3892 12.0905 14.1362 12.3741Z" fill="#008300" stroke="black" stroke-width="0.0416729"/>
<path fill-rule="evenodd" clip-rule="evenodd" d="M13.8827 11.5188C14.4936 11.8112 13.8783 12.1254 14.1183 12.3916C13.5161 12.361 14.0485 11.9683 13.8827 11.5276V11.5188ZM14.223 11.5407C14.9343 11.2178 14.1925 10.6068 14.3191 10.3843C13.8347 10.8774 14.5721 11.0607 14.223 11.5407Z" fill="#008300" stroke="black" stroke-width="0.0416729"/>
<path fill-rule="evenodd" clip-rule="evenodd" d="M13.7695 10.7199C14.3805 10.7984 14.075 11.3614 14.2015 11.5621C13.7215 11.453 14.1055 11.1694 13.7652 10.7199H13.7695ZM14.0663 10.5497C14.411 10.0261 13.835 9.90825 13.7957 9.64209C13.6299 10.3315 14.0226 10.109 14.0663 10.5497Z" fill="#008300" stroke="black" stroke-width="0.0416729"/>
<path fill-rule="evenodd" clip-rule="evenodd" d="M13.3767 10.1132C13.944 9.95175 13.8392 10.5234 14.0312 10.6587C13.5512 10.7372 13.6516 10.279 13.3767 10.1132ZM13.6385 9.86883C13.752 9.41503 13.5251 9.48919 13.2676 9.28847C13.128 9.65503 13.4727 9.61139 13.6385 9.86883ZM12.9142 9.79903C13.3505 9.47611 13.3985 9.91247 13.6254 9.97355C13.2065 10.2223 13.1891 9.85139 12.9142 9.80339V9.79903ZM13.176 9.58083C13.1629 9.38447 12.9011 9.12703 12.6305 9.21427C12.6436 9.54155 12.9578 9.62447 13.176 9.58519V9.58083Z" fill="#008300" stroke="black" stroke-width="0.0416729"/>
<path d="M11.4653 9.01422L11.4913 9.1671L11.5727 9.15086C11.5954 9.15086 11.6084 9.1411 11.615 9.13458C11.6247 9.12482 11.628 9.10854 11.6247 9.08578H11.6345L11.6572 9.2159H11.6475L11.6345 9.18338L11.615 9.17038H11.5792L11.4946 9.18662L11.5141 9.3135L11.5239 9.34606L11.5336 9.3493H11.5532L11.6182 9.33954L11.6638 9.32654L11.6898 9.30374C11.6996 9.29074 11.7093 9.27122 11.7158 9.24518H11.7288L11.7126 9.34278L11.4198 9.39486L11.4165 9.3851H11.4295L11.4523 9.37206C11.4588 9.36558 11.462 9.3623 11.462 9.35582V9.31678L11.4165 9.0695C11.4165 9.04674 11.41 9.03046 11.4035 9.02722C11.3937 9.0207 11.384 9.01746 11.3677 9.0207H11.3547V9.01422L11.6475 8.96214L11.6638 9.04674H11.654C11.6497 9.03274 11.6431 9.01954 11.6345 9.0077L11.6084 8.9947C11.5955 8.99274 11.5824 8.99274 11.5694 8.9947L11.4653 9.01422ZM12.0249 9.19966H11.8752L11.8492 9.26146C11.8441 9.27166 11.8408 9.28266 11.8394 9.29398C11.8394 9.3005 11.8427 9.30702 11.8492 9.31026C11.8557 9.31678 11.8655 9.31678 11.885 9.32002V9.32978H11.7646V9.32002C11.7809 9.32002 11.7906 9.3135 11.7972 9.31026L11.8297 9.2517L11.9598 8.93286H11.9728L12.1095 9.25494C12.1192 9.28098 12.129 9.29726 12.1388 9.30374C12.1485 9.3135 12.1583 9.31678 12.1745 9.31678V9.32978H12.0216V9.32002C12.0379 9.32002 12.0476 9.31678 12.0542 9.31026C12.0607 9.30702 12.0607 9.3005 12.0607 9.29398C12.0607 9.2875 12.0607 9.27446 12.0509 9.25494L12.0249 9.19966ZM12.0184 9.17686L11.9533 9.0207L11.885 9.18014H12.0184M12.5975 9.00118L12.5844 9.13134H12.5747C12.5732 9.09842 12.5618 9.0667 12.5422 9.04022C12.5222 9.01926 12.4959 9.00554 12.4673 9.00118C12.4434 8.99662 12.4185 8.99886 12.3958 9.0077C12.3702 9.01806 12.3485 9.0363 12.334 9.05974C12.3177 9.08578 12.3079 9.12158 12.3014 9.16386C12.2953 9.1939 12.2953 9.2249 12.3014 9.25494C12.3079 9.28422 12.3209 9.30702 12.3404 9.32002C12.36 9.33954 12.386 9.35254 12.4153 9.35582C12.438 9.35906 12.4608 9.35906 12.4804 9.35254C12.5031 9.34606 12.5259 9.32654 12.5552 9.3005L12.5649 9.30702C12.5389 9.33954 12.5129 9.35906 12.4836 9.37206C12.4543 9.38182 12.425 9.3851 12.386 9.37858C12.3242 9.36558 12.2786 9.3363 12.2559 9.28098C12.2352 9.24094 12.2284 9.19518 12.2364 9.15086C12.2428 9.11506 12.2559 9.07926 12.2786 9.05326C12.3014 9.0207 12.3307 9.00118 12.3632 8.98818C12.3932 8.97594 12.4258 8.97194 12.4578 8.9765C12.4899 8.98106 12.5201 8.9941 12.5454 9.01422L12.5584 9.02398L12.5747 9.0207L12.5877 9.00118H12.5975Z" fill="black"/>
<path d="M11.8966 9.71735C11.8529 9.71735 11.8093 9.72607 11.77 9.73479C11.702 9.85319 11.5935 9.94302 11.4646 9.9879L11.4384 9.99663C11.3039 10.0537 11.1528 10.0584 11.0151 10.0097C10.8935 10.0905 10.7822 10.1858 10.6834 10.2933C10.7085 10.4376 10.6773 10.586 10.5962 10.7079C10.5297 10.8367 10.4177 10.9362 10.282 10.9872C10.2384 11.1268 10.2122 11.2752 10.2078 11.4235C10.2951 11.489 10.3693 11.6155 10.3998 11.7683L10.4086 11.7988C10.4391 11.9646 10.4086 12.1217 10.3474 12.2133C10.4042 12.3486 10.4784 12.4752 10.5656 12.593C10.6704 12.5843 10.81 12.6366 10.9322 12.7283L10.954 12.7501C11.0849 12.8592 11.1634 12.9945 11.1722 13.1079C11.3074 13.1777 11.4471 13.2301 11.5954 13.2606C11.674 13.1865 11.8136 13.1297 11.9707 13.1297H12.0013C12.1714 13.1297 12.3198 13.1821 12.4027 13.2606C12.5511 13.2301 12.6907 13.1733 12.8216 13.1079C12.8458 12.9639 12.9238 12.8344 13.0398 12.7457C13.1476 12.6485 13.2874 12.5941 13.4326 12.593C13.5198 12.4795 13.594 12.353 13.6507 12.2221C13.5832 12.1046 13.56 11.9668 13.5853 11.8337V11.8075C13.6202 11.6373 13.6987 11.5021 13.7904 11.4323C13.7838 11.2843 13.7589 11.1377 13.7162 10.9959C13.5898 10.9481 13.4846 10.8569 13.4194 10.7384L13.402 10.7123C13.3147 10.5639 13.2886 10.4068 13.3147 10.2977C13.2133 10.1853 13.0974 10.087 12.97 10.0053C12.8433 10.0521 12.704 10.0521 12.5773 10.0053L12.5467 9.99227C12.4076 9.94899 12.2894 9.8557 12.2151 9.73042C12.1453 9.7217 12.0711 9.71735 11.9969 9.71735H11.9184C11.9169 9.71727 11.9154 9.71727 11.914 9.71735H11.8922H11.8966Z" fill="#FF0000"/>
<path d="M13.5333 11.5011C13.5333 11.9079 13.3717 12.298 13.084 12.5857C12.7964 12.8733 12.4062 13.0349 11.9994 13.0349C11.5926 13.0349 11.2025 12.8733 10.9149 12.5857C10.6272 12.298 10.4656 11.9079 10.4656 11.5011C10.4656 11.0943 10.6272 10.7042 10.9149 10.4165C11.2025 10.1289 11.5926 9.96729 11.9994 9.96729C12.4062 9.96729 12.7964 10.1289 13.084 10.4165C13.3717 10.7042 13.5333 11.0943 13.5333 11.5011Z" fill="#FBF014" stroke="black" stroke-width="0.0436365"/>
<path d="M13.4024 11.502C13.4024 11.8747 13.2544 12.232 12.9908 12.4956C12.7273 12.7591 12.3699 12.9071 11.9973 12.9071C11.6246 12.9071 11.2672 12.7591 11.0037 12.4956C10.7402 12.232 10.5922 11.8747 10.5922 11.502C10.5922 11.1294 10.7402 10.772 11.0037 10.5084C11.2672 10.245 11.6246 10.0969 11.9973 10.0969C12.3699 10.0969 12.7273 10.245 12.9908 10.5084C13.2544 10.772 13.4024 11.1294 13.4024 11.502Z" fill="#FBF014" stroke="black" stroke-width="0.0436365"/>
<path fill-rule="evenodd" clip-rule="evenodd" d="M11.5829 10.811L12.0454 10.894L11.9844 11.3565L11.5916 11.6271L11.3734 11.387L11.3865 11.0074L11.5829 10.811Z" fill="#0087FF" stroke="black" stroke-width="0.0389456"/>
<path fill-rule="evenodd" clip-rule="evenodd" d="M11.452 11.1513L11.2687 11.16H11.2513V11.1687H11.2469L11.2426 11.1818L11.2251 11.1905V11.1993L11.212 11.208L11.1946 11.2167H11.1902L11.1859 11.1993H11.1597L11.1466 11.2036V11.1818L11.1422 11.1774V11.1338H11.1509V11.0945L11.1553 11.0858V11.0771L11.1684 11.064L11.1815 11.0596V11.0465L11.1859 11.0334L11.1902 11.0291L11.1859 11.0203L11.1727 11.0291L11.1597 11.0203V10.9942L11.1727 10.9854L11.1771 10.9898L11.1859 10.9549L11.1989 10.9418L11.1902 10.92L11.1989 10.9069L11.1946 10.8894L11.2339 10.8763V10.8633L11.2382 10.8458L11.2557 10.8414L11.2687 10.8327L11.2775 10.8545V10.8676H11.2862L11.2949 10.8502L11.3037 10.8458V10.8327L11.3299 10.8022L11.3386 10.7934L11.356 10.7847H11.3735L11.3866 10.7673V10.7498H11.3953L11.404 10.7411L11.3997 10.728V10.6974H11.3909V10.6887L11.3822 10.7018L11.3735 10.6974V10.6843H11.3473L11.3386 10.6669L11.3299 10.6713V10.6843L11.3211 10.68V10.6625H11.3037L11.308 10.6451L11.3255 10.6145V10.5971L11.308 10.5796L11.3211 10.5447L11.3386 10.5273V10.5054L11.3255 10.5098L11.3429 10.488L11.3735 10.4749H11.3909L11.4171 10.4923L11.4259 10.488H11.4389L11.4607 10.4705L11.4826 10.488V10.5011H11.5L11.5044 10.5098H11.5175V10.4967L11.548 10.4836L11.5917 10.4793L11.6309 10.4574L11.6527 10.4749H11.7007L11.7749 10.4094L12.0019 10.4618L11.9887 10.8545L11.7531 10.9854L11.74 10.9767L11.7357 10.9811H11.7313V10.9593H11.7182V10.9854H11.7007L11.6833 10.9767V10.968H11.7007V10.9636L11.6877 10.9593H11.6746V10.9505L11.6877 10.9418V10.9374L11.6746 10.9462L11.6659 10.9418L11.6571 10.9462L11.6659 10.9593L11.6527 10.968V10.9767L11.6353 10.9723V10.9811H11.644L11.6179 10.9985L11.6091 10.9898V10.9854L11.596 10.9942H11.5786V10.9898L11.596 10.9854L11.5917 10.9811H11.5786V10.968L11.5742 10.9811H11.5655V11.0029H11.548L11.5437 10.9942C11.5437 10.9942 11.5306 10.9942 11.5349 11.0029V11.016L11.5219 11.0073H11.5131V11.0203H11.5044L11.4869 11.0116L11.4957 11.0247H11.4782L11.4695 11.0291L11.4782 11.0378L11.4826 11.0465L11.4913 11.0553L11.4869 11.0596H11.4826L11.4695 11.0727H11.4607L11.4564 11.0858L11.4477 11.0902L11.452 11.0989H11.4564V11.1076H11.452L11.4346 11.1251V11.1294H11.4477L11.452 11.1513Z" fill="white" stroke="black" stroke-width="0.0389456"/>
<path fill-rule="evenodd" clip-rule="evenodd" d="M11.7662 11.1561L12.268 11.431L12.2724 11.4703L12.255 11.479L12.2593 11.4964L12.2768 11.5008L12.2811 11.5183L12.4775 11.6579L12.4906 11.6492L12.508 11.6579L12.5124 11.6404L12.5255 11.6274L12.5473 11.5794L12.5342 11.575L12.543 11.5576H12.5517L12.5691 11.5357V11.5183L12.5604 11.5052L12.5735 11.5096L12.591 11.4703L12.6084 11.4659L12.6128 11.4354L12.6215 11.4266C12.6215 11.4266 12.6128 11.3917 12.6215 11.3786C12.6346 11.3656 12.6782 11.3656 12.6782 11.3656L12.7044 11.335V11.3263L12.7218 11.3132L12.7044 11.2826L12.7393 11.2914L12.7655 11.2826H12.783L12.8091 11.2477V11.2346L12.7262 11.1299V10.6194L12.7742 10.5757L12.8528 10.4666L12.831 10.4579L12.7524 10.4666L12.7306 10.4404H12.7218L12.7175 10.423L12.7 10.4143L12.5691 10.4754L12.5648 10.4972L12.5342 10.5234V10.5408H12.5255L12.5168 10.5364L12.3815 10.5059L12.3728 10.5146H12.3291L12.1677 10.3968H12.0498L12.0237 10.3881V10.375H11.8055L11.7618 10.4186L11.7706 10.4754H11.7924L11.8011 10.5016H11.823L11.8186 10.5277H11.8142V10.5583L11.823 10.5714L11.836 10.5801V10.6019L11.8622 10.615L11.8666 10.6456L11.884 10.6543V10.6674L11.8753 10.6848L11.8928 10.711L11.8884 10.7284L11.8971 10.7503V10.759L11.8928 10.7852L11.8797 10.7939L11.8753 10.8114H11.8666V10.8463H11.8448L11.836 10.8594L11.823 10.855V10.8856L11.8098 10.903H11.7968V10.9161L11.7793 10.9248L11.775 10.9466V10.9684L11.7531 10.9772V11.0164L11.7662 11.0208H11.775L11.7706 11.0339L11.7837 11.0383L11.7924 11.0601L11.8098 11.047V11.0339H11.8317L11.8578 11.0208L11.8666 11.0383L11.8753 11.0514H11.8578L11.8535 11.0601H11.8404L11.8186 11.0557V11.0644L11.8273 11.0732L11.8142 11.0819L11.8098 11.0732L11.7968 11.0776H11.788L11.775 11.0688V11.0863H11.7662L11.7575 11.1081L11.7706 11.1212L11.7837 11.1299L11.7706 11.1474L11.7662 11.1561ZM12.5342 12.1074L12.5517 12.0943V12.0856H12.5691L12.5778 12.0637V12.0856L12.5691 12.0943V12.1074H12.5604V12.1204L12.556 12.1117L12.5342 12.1074ZM12.4818 11.863V11.8325L12.4775 11.8281L12.495 11.815V11.7976L12.5168 11.7888V11.8063H12.5037V11.8325L12.5124 11.8456V11.8586L12.5255 11.8674L12.5386 11.8848V11.8979L12.5255 11.9023L12.508 11.8804L12.4906 11.8848L12.4818 11.863ZM12.5473 11.7496V11.7321L12.556 11.7146L12.543 11.6797H12.5604L12.5648 11.6972H12.5735V11.6841C12.5735 11.6841 12.5822 11.6797 12.5822 11.6841L12.5778 11.7234L12.5822 11.7408L12.5735 11.7539L12.5604 11.767L12.5473 11.7496Z" fill="white" stroke="black" stroke-width="0.0389456"/>
<path fill-rule="evenodd" clip-rule="evenodd" d="M12.6483 12.4561L12.5916 12.4997L12.513 12.5346L12.4912 12.5477H12.4519L12.4214 12.5564L12.4039 12.5652L12.3821 12.587L12.3472 12.5652H12.3036L12.2905 12.5783V12.6001L12.2599 12.6132H12.2468L12.2338 12.6219L12.1901 12.6175L12.1726 12.6001L12.1508 12.6044L12.1159 12.6306L12.0985 12.6263V12.6175H12.0854L12.0766 12.6263L12.0548 12.6219V12.6044H12.0418L12.0243 12.5783H12.0025L11.9981 12.5913L11.9806 12.6044L11.9632 12.6001H11.8978L11.8803 12.5695H11.8628L11.8454 12.5259V12.5041L11.8541 12.4953V12.4692L11.8366 12.4561L11.841 12.4124L11.8366 12.4037L11.8323 12.3863L11.8018 12.3557V12.3426L11.7668 12.3164H11.7538V12.3426L11.7363 12.3383L11.7276 12.3252L11.6839 12.3339L11.6665 12.3121L11.6446 12.3164L11.6272 12.3033H11.6054L11.5879 12.2859H11.5486L11.5399 12.2597H11.5138L11.505 12.2553H11.4745V12.2423L11.4396 12.2379L11.4221 12.2248V12.203L11.3959 12.1899L11.3741 12.1943L11.3654 12.1681L11.3436 12.1506L11.3392 12.1244L11.3086 12.0808V12.0633L11.2912 12.0459V12.011L11.2781 11.9935V11.9761H11.2868V11.963L11.265 11.9455L11.2563 11.9281L11.2214 11.9019H11.1952L11.1646 11.867V11.8495L11.1778 11.8321H11.1952L11.1996 11.819V11.8059L11.169 11.7623V11.7404L11.1821 11.7317L11.1778 11.7055L11.1516 11.6793V11.6531L11.1559 11.6313V11.6226L11.1821 11.6139L11.1952 11.6051L11.2083 11.5921V11.579L11.2345 11.5703V11.5571L11.2563 11.531V11.5179L11.2694 11.4961L11.2999 11.483V11.4743L11.3218 11.4611V11.4175L11.313 11.4131H11.2999L11.2868 11.4088H11.265V11.3957L11.2781 11.3783L11.2694 11.3695L11.2825 11.3433L11.3261 11.339V11.3084L11.3305 11.2953L11.313 11.2735V11.2299L11.3043 11.2168V11.2037L11.2825 11.1906L11.265 11.1601H11.2912L11.3043 11.147H11.457L11.4614 11.1601V11.1775L11.4526 11.1993L11.4483 11.2124V11.2211L11.4439 11.2386V11.2561L11.4352 11.2648V11.2779L11.4265 11.2866H11.4396V11.3084L11.4308 11.3259H11.4658L11.4526 11.3521L11.4483 11.3695L11.4526 11.3957L11.4701 11.3783L11.4832 11.3913V11.3695L11.4876 11.3521L11.505 11.3608L11.5094 11.3521L11.5006 11.3346L11.5181 11.3171L11.5356 11.339L11.5486 11.3433L11.5574 11.3651L11.5705 11.339L11.5748 11.3564H11.5923V11.3739L11.6054 11.3913L11.5879 11.4001V11.4219H11.601V11.4001H11.6185L11.6098 11.3783L11.6054 11.3608L11.6228 11.3346H11.6403L11.649 11.3564H11.6796L11.7058 11.3303L11.7406 11.3171L11.7319 11.2953H11.7232L11.7101 11.3084L11.6708 11.3041L11.6578 11.2953L11.649 11.3041H11.6359L11.601 11.291V11.2779L11.5923 11.2735L11.6098 11.2648L11.6185 11.2779H11.6272L11.6403 11.2735L11.6578 11.2866L11.6839 11.2823V11.2691L11.6665 11.2648V11.2517H11.697L11.7014 11.243L11.7232 11.2343L11.7101 11.2168V11.2081L11.7538 11.2168L11.7319 11.1993L11.7363 11.1819L11.7625 11.1993V11.1906L11.745 11.1775L11.7712 11.1513L12.2774 11.4263L12.2818 11.4655L12.2643 11.4786V11.4961H12.2861V11.5135L12.4825 11.6444L12.4956 11.6663L12.4825 11.6793L12.4738 11.6968L12.4694 11.7273L12.4606 11.7448V11.771L12.4432 11.7884L12.4301 11.819V11.8408L12.4432 11.8583L12.4345 11.8844L12.4563 11.9019H12.4694L12.5086 11.9455L12.5261 11.963L12.5348 11.9848L12.5261 12.0066L12.513 12.011L12.4999 12.0546V12.0808L12.5174 12.0983L12.513 12.1157L12.5043 12.1419L12.4956 12.1681L12.5043 12.1943L12.513 12.2161L12.5218 12.2248V12.2423H12.513L12.5261 12.2641L12.5436 12.2728V12.3077H12.5392V12.3164L12.5566 12.3295L12.5654 12.3732L12.5566 12.3863V12.395H12.5828L12.5916 12.4168L12.609 12.4124L12.6396 12.4255L12.6526 12.4473L12.6483 12.4561Z" fill="white" stroke="black" stroke-width="0.0389456"/>
<path fill-rule="evenodd" clip-rule="evenodd" d="M11.0645 11.3481C11.0514 11.335 11.1081 11.3045 11.0993 11.2826C11.0993 11.239 11.1212 11.2259 11.1692 11.2085L11.1954 11.191C11.2085 11.1998 11.2085 11.2216 11.2215 11.2085C11.2346 11.1998 11.2652 11.1518 11.287 11.1605C11.2739 11.1779 11.3001 11.2128 11.3175 11.2259L11.3437 11.3088C11.335 11.3394 11.3175 11.3394 11.2826 11.335C11.2477 11.3219 11.239 11.3481 11.2128 11.3263C11.2085 11.3568 11.2128 11.383 11.1735 11.3961C11.1517 11.3961 11.1299 11.3961 11.1299 11.383C11.1125 11.3612 11.0863 11.3612 11.0775 11.383C11.0732 11.3743 11.0645 11.3699 11.0645 11.3481Z" fill="white" stroke="black" stroke-width="0.0507274"/>
<path fill-rule="evenodd" clip-rule="evenodd" d="M11.0766 11.3829C11.0984 11.3349 11.1246 11.3872 11.1333 11.3872C11.1988 11.3959 11.1988 11.3829 11.2118 11.3218C11.2468 11.3479 11.2336 11.3218 11.3078 11.3392C11.2948 11.3392 11.2642 11.3741 11.286 11.3741C11.2686 11.4221 11.3078 11.4221 11.334 11.4178C11.3209 11.4352 11.3558 11.4439 11.3209 11.4614C11.2991 11.4745 11.2991 11.4614 11.2991 11.4919L11.2729 11.4963C11.2686 11.5051 11.286 11.5225 11.2816 11.5225C11.2816 11.5225 11.2729 11.5443 11.2555 11.5574C11.2336 11.5705 11.2249 11.5923 11.1988 11.6011L11.1682 11.6098L11.1246 11.5312C11.1202 11.5094 11.1246 11.4832 11.1115 11.4614V11.4221C11.0984 11.4091 11.0853 11.4003 11.0766 11.3785" fill="white"/>
<path d="M11.0766 11.3829C11.0984 11.3349 11.1246 11.3872 11.1333 11.3872C11.1988 11.3959 11.1988 11.3829 11.2118 11.3218C11.2468 11.3479 11.2336 11.3218 11.3078 11.3392C11.2948 11.3392 11.2642 11.3741 11.286 11.3741C11.2686 11.4221 11.3078 11.4221 11.334 11.4178C11.3209 11.4352 11.3558 11.4439 11.3209 11.4614C11.2991 11.4745 11.2991 11.4614 11.2991 11.4919L11.2729 11.4963C11.2686 11.5051 11.286 11.5225 11.2816 11.5225C11.2816 11.5225 11.2729 11.5443 11.2555 11.5574C11.2336 11.5705 11.2249 11.5923 11.1988 11.6011L11.1682 11.6098L11.1246 11.5312C11.1202 11.5094 11.1246 11.4832 11.1115 11.4614V11.4221C11.0984 11.4091 11.0853 11.4003 11.0766 11.3785" stroke="black" stroke-width="0.0507274"/>
</g>
</g>
</g>
<defs>
<clipPath id="clip0_69_4500">
<rect width="24" height="24" rx="12" fill="white"/>
</clipPath>
<clipPath id="clip1_69_4500">
<rect width="32" height="24" fill="white" transform="translate(-4)"/>
</clipPath>
</defs>
</svg>
