<svg width="24" height="24" viewBox="0 0 24 24" fill="none" xmlns="http://www.w3.org/2000/svg">
<g clip-path="url(#clip0_69_4550)">
<path fill-rule="evenodd" clip-rule="evenodd" d="M0 -1.6001H24V21.1999H0V-1.6001Z" fill="#FFE800"/>
<path fill-rule="evenodd" clip-rule="evenodd" d="M0 12.2H24V21.2H0V12.2Z" fill="#00148E"/>
<path fill-rule="evenodd" clip-rule="evenodd" d="M0 16.7998H24V28.3998H0V16.7998Z" fill="#DA0010"/>
<path fill-rule="evenodd" clip-rule="evenodd" d="M10.1105 14.1044L7.38799 16.9732L7.34299 16.9132L10.058 14.0444L10.103 14.1044H10.1105ZM12.0005 14.5732L8.44549 18.3232L8.38549 18.2632L11.9367 14.5132L12.0005 14.5732Z" fill="black"/>
<path fill-rule="evenodd" clip-rule="evenodd" d="M8.45624 18.2797L8.12399 18.6119L7.74527 18.8977L8.03105 18.519L8.36333 18.1868L8.45624 18.2797Z" fill="#808080" stroke="black" stroke-width="0.0606398"/>
<path fill-rule="evenodd" clip-rule="evenodd" d="M7.54102 16.8136L7.20877 17.1459L6.83005 17.4316L7.11586 17.053L7.44811 16.7207L7.54102 16.8136Z" fill="#808080" stroke="black" stroke-width="0.0606398"/>
<path fill-rule="evenodd" clip-rule="evenodd" d="M7.79802 7.50415C7.79802 7.50415 7.49934 15.5826 8.69409 15.5826C9.88884 15.5826 10.4879 14.7329 10.4879 14.7329L10.4744 10.293L7.79802 7.50415Z" fill="#FFDF00" stroke="black" stroke-width="0.0894427"/>
<path fill-rule="evenodd" clip-rule="evenodd" d="M8.52871 8.25781C8.52871 8.68261 8.39542 14.733 8.99278 14.733C9.59017 14.733 10.4879 14.3082 10.4879 14.3082L10.4744 10.293L8.52871 8.25781Z" fill="#0000C4" stroke="black" stroke-width="0.0894427"/>
<path fill-rule="evenodd" clip-rule="evenodd" d="M8.91681 8.66675C8.91681 9.09155 8.99274 13.8843 9.59181 13.8843H10.4878L10.4743 10.2939L8.91681 8.66675Z" fill="#E10000" stroke="black" stroke-width="0.0894427"/>
<path fill-rule="evenodd" clip-rule="evenodd" d="M7.73203 7.55023L10.447 10.419L10.4958 10.359L7.78078 7.49023L7.73203 7.55023Z" fill="black"/>
<path fill-rule="evenodd" clip-rule="evenodd" d="M6.91067 9.16016C6.91067 9.16016 6.14072 16.9861 8.45057 16.9861C10.3755 16.9861 10.3755 15.7515 10.7604 15.7515L10.3755 12.8685L6.90851 9.16016H6.91067Z" fill="#FFDF00" stroke="black" stroke-width="0.0999444"/>
<path d="M8.81891 10.4616C8.83541 10.4604 9.41966 9.19603 10.8799 8.39575" stroke="black" stroke-width="0.108269"/>
<path fill-rule="evenodd" clip-rule="evenodd" d="M8.58037 9.26977C8.78401 9.36478 8.91286 9.47413 9.03016 9.60163C8.79712 9.55282 8.67691 9.53308 8.47327 9.43807C8.26966 9.34303 8.11411 9.19768 7.99051 9.08008C8.14207 9.12622 8.37562 9.17422 8.58037 9.26977Z" fill="#005B00" stroke="black" stroke-width="0.0489698"/>
<path fill-rule="evenodd" clip-rule="evenodd" d="M9.09057 10.044C9.10557 10.0695 9.09267 10.1055 9.06093 10.1231C9.02922 10.1407 8.99118 10.1339 8.97582 10.1078C8.96043 10.0816 8.97408 10.047 9.00582 10.0294C9.03753 10.0117 9.07557 10.0185 9.09057 10.044Z" fill="#FF0000" stroke="black" stroke-width="0.0335875"/>
<path fill-rule="evenodd" clip-rule="evenodd" d="M9.73116 8.45996C9.6429 8.68394 9.54555 8.83157 9.43335 8.96927C9.48381 8.72006 9.5052 8.59217 9.59346 8.36816C9.68169 8.14418 9.81045 7.96439 9.91455 7.82129C9.86964 7.98509 9.81987 8.23475 9.73116 8.45996Z" fill="#005B00" stroke="black" stroke-width="0.0461669"/>
<path fill-rule="evenodd" clip-rule="evenodd" d="M9.43268 8.44841C9.41231 8.67239 9.3677 8.84588 9.30905 9.02183C9.29369 8.80412 9.28226 8.69534 9.30263 8.47136C9.323 8.24738 9.38546 8.02934 9.43646 7.85474C9.43718 8.00561 9.45314 8.22317 9.43268 8.44841Z" fill="#005B00" stroke="black" stroke-width="0.0398615"/>
<path fill-rule="evenodd" clip-rule="evenodd" d="M9.62724 8.70417C9.51186 8.83992 9.41481 8.89878 9.31281 8.93703C9.41559 8.74878 9.46596 8.64867 9.58134 8.51292C9.69672 8.37717 9.82041 8.31342 9.91971 8.26392C9.84582 8.37849 9.74325 8.56767 9.62724 8.70417Z" fill="#005B00" stroke="black" stroke-width="0.0432966"/>
<path fill-rule="evenodd" clip-rule="evenodd" d="M8.64403 8.89466C8.77978 9.05756 8.84728 9.21446 8.89828 9.38786C8.72053 9.26696 8.62678 9.21056 8.49103 9.04766C8.35528 8.88476 8.27878 8.68076 8.21878 8.51636C8.32903 8.61071 8.50753 8.73086 8.64403 8.89466Z" fill="#005B00" stroke="black" stroke-width="0.0495432"/>
<path fill-rule="evenodd" clip-rule="evenodd" d="M8.37096 10.1503C8.54064 10.2861 8.63019 10.426 8.70159 10.5841C8.48571 10.4946 8.37234 10.4544 8.20266 10.3186C8.03298 10.1829 7.92969 9.99927 7.84839 9.85107C7.98363 9.92511 8.20032 10.0138 8.37096 10.1503Z" fill="#005B00" stroke="black" stroke-width="0.0526016"/>
<path fill-rule="evenodd" clip-rule="evenodd" d="M9.16529 10.0753C9.02954 10.2925 8.88269 10.4385 8.71439 10.5762C8.79554 10.338 8.83064 10.216 8.96639 9.99884C9.10214 9.78164 9.29594 9.60314 9.45254 9.46094C9.38195 9.61838 9.30179 9.85694 9.16529 10.0753Z" fill="#005B00" stroke="black" stroke-width="0.0540371"/>
<path fill-rule="evenodd" clip-rule="evenodd" d="M9.30729 10.0665C9.09009 10.2158 8.90103 10.2935 8.69958 10.3547C8.88528 10.1634 8.97534 10.0628 9.19254 9.9135C9.40974 9.76419 9.652 9.67494 9.84669 9.60474C9.71086 9.72429 9.52569 9.91635 9.30729 10.0665Z" fill="#005B00" stroke="black" stroke-width="0.0519301"/>
<path fill-rule="evenodd" clip-rule="evenodd" d="M10.7719 8.50579C10.6769 8.61439 10.5917 8.67874 10.4999 8.73484C10.5781 8.60524 10.6157 8.53789 10.7107 8.42929C10.8058 8.32069 10.9154 8.24419 11.0036 8.18359C10.9454 8.26663 10.8675 8.39659 10.7719 8.50579Z" fill="#005B00" stroke="black" stroke-width="0.0275007"/>
<path fill-rule="evenodd" clip-rule="evenodd" d="M10.5663 8.18498C10.512 8.30036 10.454 8.38706 10.3877 8.47376C10.421 8.35838 10.4355 8.30036 10.4898 8.18498C10.5441 8.0696 10.6206 7.96121 10.6824 7.87451C10.6539 7.95356 10.6209 8.06897 10.5663 8.18498Z" fill="#005B00" stroke="black" stroke-width="0.0228451"/>
<path fill-rule="evenodd" clip-rule="evenodd" d="M10.8842 8.39245C10.7891 8.44675 10.7177 8.4634 10.6463 8.4685C10.7414 8.3848 10.7891 8.33965 10.8842 8.28535C10.9792 8.23105 11.0684 8.21575 11.1398 8.20435C11.0747 8.25364 10.9797 8.33785 10.8842 8.39245Z" fill="#005B00" stroke="black" stroke-width="0.0250413"/>
<path fill-rule="evenodd" clip-rule="evenodd" d="M9.57199 9.00071C9.40231 9.10253 9.26275 9.16178 9.11737 9.21278C9.27238 9.08996 9.34876 9.02603 9.51844 8.92421C9.68812 8.82239 9.86536 8.75228 10.0076 8.69678C9.89734 8.77514 9.74263 8.89832 9.57199 9.00071Z" fill="#005B00" stroke="black" stroke-width="0.0314413"/>
<path fill-rule="evenodd" clip-rule="evenodd" d="M10.0683 9.15342C9.84428 9.28917 9.65354 9.35322 9.45209 9.39912C9.6488 9.21717 9.74483 9.12087 9.96881 8.98512C10.1928 8.84937 10.4363 8.77797 10.6319 8.72217C10.4897 8.83416 10.2935 9.01692 10.0683 9.15342Z" fill="#005B00" stroke="black" stroke-width="0.052336"/>
<path d="M8.54587 11.3502C8.5603 11.342 8.4238 10.151 9.33493 8.91211" stroke="black" stroke-width="0.106572"/>
<path fill-rule="evenodd" clip-rule="evenodd" d="M9.94251 8.83943C9.95751 8.86493 9.94461 8.90084 9.9129 8.91848C9.88116 8.93609 9.84315 8.92931 9.82776 8.90318C9.8124 8.87705 9.82605 8.8424 9.85776 8.82476C9.8895 8.80715 9.92751 8.81393 9.94251 8.83943Z" fill="#FF0000" stroke="black" stroke-width="0.0335875"/>
<path fill-rule="evenodd" clip-rule="evenodd" d="M10.3468 8.60383C10.3618 8.62933 10.3489 8.66527 10.3172 8.68288C10.2855 8.70052 10.2474 8.69374 10.2321 8.66758C10.2167 8.64145 10.2303 8.6068 10.2621 8.58919C10.2938 8.57155 10.3318 8.57833 10.3468 8.60383Z" fill="#FF0000" stroke="black" stroke-width="0.0335875"/>
<path fill-rule="evenodd" clip-rule="evenodd" d="M9.21699 9.39793C9.22749 9.41743 9.2079 9.44827 9.17265 9.46588C9.1374 9.48352 9.10023 9.48169 9.08949 9.46168C9.07872 9.4417 9.09882 9.41185 9.13407 9.39424C9.16932 9.3766 9.20649 9.37843 9.21699 9.39793Z" fill="#FF0000" stroke="black" stroke-width="0.0302835"/>
<path fill-rule="evenodd" clip-rule="evenodd" d="M9.33652 9.34521C9.34702 9.36471 9.32743 9.39552 9.29218 9.41316C9.25693 9.43077 9.21979 9.42894 9.20902 9.40896C9.19825 9.38895 9.21835 9.3591 9.2536 9.34149C9.28885 9.32385 9.32602 9.32571 9.33652 9.34521Z" fill="#FF0000" stroke="black" stroke-width="0.0302835"/>
<path fill-rule="evenodd" clip-rule="evenodd" d="M9.26502 9.45776C9.27552 9.47726 9.25596 9.50807 9.22071 9.52571C9.18546 9.54332 9.14829 9.54149 9.13752 9.52151C9.12675 9.5015 9.14685 9.47165 9.1821 9.45404C9.21735 9.4364 9.25452 9.43826 9.26502 9.45776Z" fill="#FF0000" stroke="black" stroke-width="0.0302835"/>
<path fill-rule="evenodd" clip-rule="evenodd" d="M9.47544 9.47303C9.49044 9.50303 9.47544 9.54053 9.43794 9.55928C9.40044 9.57803 9.36294 9.56678 9.34794 9.53303C9.33294 9.49928 9.34794 9.46553 9.38544 9.44678C9.42294 9.42803 9.46044 9.43928 9.47169 9.47303H9.47544Z" fill="#FF0000" stroke="black" stroke-width="0.0375"/>
<path fill-rule="evenodd" clip-rule="evenodd" d="M9.56167 9.38315C9.57292 9.41315 9.56167 9.45065 9.52417 9.4694C9.48667 9.48815 9.44917 9.4769 9.43042 9.4469C9.41167 9.4169 9.43042 9.37565 9.46792 9.3569C9.50542 9.33815 9.54292 9.35315 9.55792 9.38315H9.56167Z" fill="#FF0000" stroke="black" stroke-width="0.0375"/>
<path fill-rule="evenodd" clip-rule="evenodd" d="M9.58088 9.42498C9.59588 9.45498 9.58088 9.49623 9.54338 9.51123C9.50588 9.52623 9.46838 9.51873 9.45338 9.48873C9.43838 9.45873 9.45338 9.42123 9.49088 9.40248C9.52838 9.38373 9.56588 9.39498 9.58088 9.42498Z" fill="#FF0000" stroke="black" stroke-width="0.0375"/>
<path fill-rule="evenodd" clip-rule="evenodd" d="M7.68119 9.98511C7.68119 10.3966 6.91125 14.9281 8.8383 16.1626C9.60825 16.5742 10.7632 15.7511 10.7632 16.1626L10.3782 12.8681L7.68119 9.98511Z" fill="#0000C4" stroke="black" stroke-width="0.0999444"/>
<path fill-rule="evenodd" clip-rule="evenodd" d="M8.45092 10.8088C8.45092 11.2203 8.06596 14.5149 9.22306 15.3402C9.99301 16.1633 11.92 15.9401 11.92 15.9401L10.378 12.8688L8.45092 10.8088Z" fill="#E10000" stroke="black" stroke-width="0.0999444"/>
<path fill-rule="evenodd" clip-rule="evenodd" d="M6.89297 9.12485L10.448 12.8749L10.5117 12.8149L6.95672 9.0686L6.89672 9.1286L6.89297 9.12485Z" fill="black"/>
<path fill-rule="evenodd" clip-rule="evenodd" d="M6.34496 8.68099L6.57065 8.72083L6.63701 8.78719C6.62795 8.78653 6.7034 8.85358 6.61046 8.94649C6.51755 9.03943 6.38531 8.90614 6.38531 8.90614C6.38531 8.90614 6.42515 9.13183 6.55826 9.26494C6.6914 9.39808 6.85031 9.37114 6.85031 9.37114C6.85031 9.37114 6.69905 9.24718 6.8105 9.14548C6.9221 9.04288 6.9698 9.11893 6.9698 9.11893L7.10255 9.25168L7.196 9.15823L6.66461 8.62684L6.6248 8.40118L6.2825 8.34448L6.34511 8.68009L6.34496 8.68099Z" fill="#CECECC" stroke="black" stroke-width="0.0278887"/>
<path fill-rule="evenodd" clip-rule="evenodd" d="M6.86865 7.10475L7.14174 7.52805L7.4874 7.62135L7.26171 7.76736L7.67325 7.7541L7.85964 7.88721L7.92639 7.78041L7.73946 7.64691L7.59384 7.2348L7.55364 7.51416L7.34106 7.20786L6.8685 7.10376L6.86865 7.10475Z" fill="#CECECC" stroke="black" stroke-width="0.0300285"/>
<path fill-rule="evenodd" clip-rule="evenodd" d="M7.98023 7.35827C7.98023 7.38077 7.95023 7.39988 7.91573 7.39988C7.88123 7.39988 7.84973 7.38077 7.84973 7.35827C7.84973 7.33577 7.87973 7.31552 7.91573 7.31552C7.95173 7.31552 7.98023 7.33463 7.98023 7.35827ZM7.88723 7.44713C7.88723 7.84988 8.20073 9.55988 8.22623 9.60152C8.22773 9.65213 8.15423 9.67352 8.11973 9.61163C8.02073 9.41588 7.80773 7.81163 7.80023 7.43702C7.79573 7.28288 7.85573 7.27052 7.92473 7.27388C7.98023 7.27613 8.04923 7.31552 8.04923 7.36277C8.04923 7.41902 7.96223 7.46063 7.88723 7.44713Z" fill="#E10000" stroke="black" stroke-width="0.057735"/>
<path fill-rule="evenodd" clip-rule="evenodd" d="M8.0999 7.75817C8.08865 7.78067 8.05058 7.79231 8.01782 7.78367C7.98503 7.77506 7.96469 7.74806 7.97594 7.72556C7.98719 7.70306 8.0258 7.69031 8.06 7.69931C8.0942 7.70831 8.11172 7.73456 8.0999 7.75817ZM7.96712 7.82381C8.07062 8.63267 7.7234 9.88181 7.72625 9.93092C7.70294 9.98081 7.62185 9.98492 7.62059 9.91331C7.60352 9.86681 8.00324 8.73842 7.88954 7.79192C7.96232 7.63667 8.0255 7.63931 8.08937 7.65992C8.14097 7.67606 8.18684 7.73267 8.1632 7.77992C8.13509 7.83617 8.03162 7.85606 7.96712 7.82381Z" fill="#0000C4" stroke="black" stroke-width="0.060506"/>
<path fill-rule="evenodd" clip-rule="evenodd" d="M7.00116 8.88084C7.00116 8.91834 6.96366 8.95584 6.91866 8.95584C6.87366 8.95584 6.83616 8.91834 6.83616 8.88084C6.83616 8.84334 6.87366 8.81334 6.91866 8.81334C6.96366 8.81334 6.99741 8.84334 6.99741 8.88084H7.00116ZM6.88116 9.03084C6.88116 9.70209 7.27491 12.5521 7.30491 12.6233C7.30491 12.7058 7.21866 12.7433 7.17366 12.6383C7.04991 12.3121 6.78366 9.63834 6.77241 9.01584C6.76866 8.75709 6.84366 8.73834 6.92991 8.74209C7.00116 8.74584 7.08366 8.81334 7.08366 8.89209C7.08366 8.98209 6.97491 9.05334 6.88116 9.03084Z" fill="#E10000" stroke="black" stroke-width="0.0875"/>
<path fill-rule="evenodd" clip-rule="evenodd" d="M7.20388 9.2274C7.18888 9.2634 7.14013 9.28275 7.09873 9.26982C7.05733 9.25689 7.03228 9.21447 7.04728 9.17847C7.06228 9.14247 7.11178 9.12132 7.15498 9.13482C7.19818 9.14832 7.21963 9.1896 7.20388 9.2274ZM7.03303 9.33474C7.13953 10.6171 6.65938 12.6093 6.66148 12.6872C6.63028 12.767 6.52708 12.7754 6.52768 12.6617C6.50743 12.5882 7.05058 10.7867 6.93538 9.2859C7.03273 9.03762 7.11298 9.04032 7.19353 9.07158C7.25863 9.096 7.31518 9.18489 7.28368 9.26049C7.24618 9.35049 7.11403 9.38445 7.03303 9.33474Z" fill="#0000C4" stroke="black" stroke-width="0.0852291"/>
<path fill-rule="evenodd" clip-rule="evenodd" d="M13.89 14.1044L16.6087 16.9732L16.6575 16.9132L13.9388 14.0444L13.89 14.1044ZM12 14.5732L15.555 18.3232L15.615 18.2632L12.0638 14.5132L12 14.5732Z" fill="black"/>
<path fill-rule="evenodd" clip-rule="evenodd" d="M15.5438 18.2797L15.876 18.6119L16.2547 18.8977L15.969 18.519L15.6367 18.1868L15.5438 18.2797Z" fill="#808080" stroke="black" stroke-width="0.0606398"/>
<path fill-rule="evenodd" clip-rule="evenodd" d="M16.459 16.8136L16.7912 17.1459L17.17 17.4316L16.8841 17.053L16.5519 16.7207L16.459 16.8136Z" fill="#808080" stroke="black" stroke-width="0.0606398"/>
<path fill-rule="evenodd" clip-rule="evenodd" d="M16.202 7.50537C16.202 7.50537 16.5007 15.5838 15.3059 15.5838C14.1112 15.5838 13.5121 14.7342 13.5121 14.7342L13.5256 10.2942L16.202 7.50537Z" fill="#FFDF00" stroke="black" stroke-width="0.0894427"/>
<path fill-rule="evenodd" clip-rule="evenodd" d="M15.4713 8.25879C15.4713 8.68359 15.6046 14.734 15.0072 14.734C14.4098 14.734 13.5121 14.3092 13.5121 14.3092L13.5256 10.294L15.4713 8.25879Z" fill="#0000C4" stroke="black" stroke-width="0.0894427"/>
<path fill-rule="evenodd" clip-rule="evenodd" d="M15.0832 8.66675C15.0832 9.09155 15.0073 13.8843 14.4082 13.8843H13.5121L13.5256 10.2939L15.0832 8.66675Z" fill="#E10000" stroke="black" stroke-width="0.0894427"/>
<path fill-rule="evenodd" clip-rule="evenodd" d="M16.2673 7.55023L13.5523 10.419L13.5035 10.359L16.2185 7.49023L16.2673 7.55023Z" fill="black"/>
<path fill-rule="evenodd" clip-rule="evenodd" d="M14.1237 9.76465C14.1237 9.76465 14.8848 10.7411 15.252 11.4958C15.6189 12.2521 16.0473 13.4045 16.0473 13.4045C16.0473 13.4045 15.8025 12.2699 15.3405 11.3604C14.7351 10.2161 14.1234 9.82975 14.1237 9.76465Z" fill="#005B00" stroke="black" stroke-width="0.0417337"/>
<path fill-rule="evenodd" clip-rule="evenodd" d="M14.098 8.98877C14.098 8.98877 14.9474 10.1964 15.335 11.0921C15.7222 11.9895 16.1533 13.3346 16.1533 13.3346C16.1533 13.3346 15.9441 12.0405 15.4532 10.9577C14.8063 9.59138 14.0926 9.06056 14.098 8.98877Z" fill="#005B00" stroke="black" stroke-width="0.0482227"/>
<path fill-rule="evenodd" clip-rule="evenodd" d="M14.8305 7.79517C14.8305 7.79517 15.4314 9.58353 15.6145 10.6894C15.7966 11.7963 15.9078 13.3195 15.9078 13.3195C15.9078 13.3195 16.0236 12.0411 15.7782 10.6839C15.4386 8.94642 14.8056 7.85058 14.8305 7.79517Z" fill="#005B00" stroke="black" stroke-width="0.0547737"/>
<path fill-rule="evenodd" clip-rule="evenodd" d="M14.2915 7.71411C14.2915 7.71411 15.1236 9.30234 15.4477 10.3816C15.7709 11.4625 16.0749 13.0218 16.0749 13.0218C16.0749 13.0218 16.031 11.6053 15.6123 10.2914C15.0507 8.62242 14.2733 7.78575 14.2915 7.71411Z" fill="#005B00" stroke="black" stroke-width="0.0555036"/>
<path fill-rule="evenodd" clip-rule="evenodd" d="M15.291 8.21924C15.291 8.21924 15.705 9.92924 15.8091 10.9494C15.9123 11.9703 15.9418 13.3477 15.9418 13.3477C15.9418 13.3477 16.0857 12.2329 15.9413 10.9769C15.736 9.36374 15.2687 8.26364 15.291 8.21924Z" fill="#005B00" stroke="black" stroke-width="0.0492217"/>
<path fill-rule="evenodd" clip-rule="evenodd" d="M14.1965 8.26587C14.1965 8.26587 15.0015 9.62637 15.3272 10.5774C15.6523 11.5299 15.9723 12.9219 15.9723 12.9219C15.9723 12.9219 15.8945 11.6319 15.4758 10.4769C14.9167 9.01287 14.1817 8.33337 14.1965 8.26587Z" fill="#005B00" stroke="black" stroke-width="0.0506234"/>
<path fill-rule="evenodd" clip-rule="evenodd" d="M14.0453 9.21387C14.0453 9.21387 14.8946 10.2924 15.2823 11.1184C15.6695 11.9461 16.1006 13.2029 16.1006 13.2029C16.1006 13.2029 15.8913 11.9716 15.4005 10.9754C14.7535 9.72141 14.0399 9.28404 14.0453 9.21387Z" fill="#005B00" stroke="black" stroke-width="0.0476898"/>
<path fill-rule="evenodd" clip-rule="evenodd" d="M14.1554 8.71826C14.1554 8.71826 14.9368 9.98708 15.2769 10.9049C15.6165 11.8243 15.978 13.1882 15.978 13.1882C15.978 13.1882 15.8332 11.8957 15.4001 10.784C14.8263 9.37865 14.1466 8.78837 14.1554 8.71826Z" fill="#005B00" stroke="black" stroke-width="0.0475875"/>
<path fill-rule="evenodd" clip-rule="evenodd" d="M15.0016 7.82202C15.0016 7.82202 15.5039 9.57291 15.6284 10.6423C15.7519 11.7126 15.7841 13.1756 15.7841 13.1756C15.7841 13.1756 15.9635 11.9625 15.7903 10.6487C15.5435 8.96478 14.9742 7.8732 15.0016 7.82202Z" fill="#005B00" stroke="black" stroke-width="0.0532434"/>
<path fill-rule="evenodd" clip-rule="evenodd" d="M14.3125 7.38599C14.3125 7.38599 15.046 9.03536 15.3115 10.1368C15.5761 11.2396 15.8011 12.8177 15.8011 12.8177C15.8011 12.8177 15.8209 11.4028 15.4744 10.0602C15.0055 8.35208 14.2918 7.45595 14.3125 7.38599Z" fill="#005B00" stroke="black" stroke-width="0.0547386"/>
<path fill-rule="evenodd" clip-rule="evenodd" d="M15.4796 8.34473C15.4796 8.34473 15.7951 9.98669 15.8405 10.9593C15.8851 11.9326 15.8356 13.2403 15.8356 13.2403C15.8356 13.2403 16.0432 12.1901 15.971 10.9918C15.8584 9.45188 15.4548 8.38574 15.4796 8.34473Z" fill="#005B00" stroke="black" stroke-width="0.0473281"/>
<path fill-rule="evenodd" clip-rule="evenodd" d="M14.2188 8.06567C14.2188 8.06567 14.9523 9.48728 15.2178 10.4604C15.4824 11.435 15.7074 12.8457 15.7074 12.8457C15.7074 12.8457 15.7272 11.5574 15.3807 10.3735C14.9118 8.87042 14.1981 8.13143 14.2188 8.06567Z" fill="#005B00" stroke="black" stroke-width="0.0517292"/>
<path fill-rule="evenodd" clip-rule="evenodd" d="M17.0882 9.16016C17.0882 9.16016 17.8581 16.9861 15.5483 16.9861C13.6234 16.9861 13.6234 15.7515 13.2384 15.7515L13.6234 12.8685L17.0903 9.16016H17.0882Z" fill="#FFDF00" stroke="black" stroke-width="0.0999444"/>
<path fill-rule="evenodd" clip-rule="evenodd" d="M16.3188 9.98633C16.3188 10.3978 17.0888 14.9293 15.1617 16.1638C14.3918 16.5754 13.2368 15.7523 13.2368 16.1638L13.6218 12.8693L16.3188 9.98633Z" fill="#0000C4" stroke="black" stroke-width="0.0999444"/>
<path fill-rule="evenodd" clip-rule="evenodd" d="M15.5491 10.8088C15.5491 11.2203 15.9341 14.5149 14.777 15.3402C14.007 16.1633 12.08 15.9401 12.08 15.9401L13.622 12.8688L15.5491 10.8088Z" fill="#E10000" stroke="black" stroke-width="0.0999444"/>
<path fill-rule="evenodd" clip-rule="evenodd" d="M17.107 9.12485L13.552 12.8749L13.4883 12.8149L17.0433 9.0686L17.107 9.1286V9.12485Z" fill="black"/>
<path fill-rule="evenodd" clip-rule="evenodd" d="M17.6539 8.68099L17.4282 8.72083L17.3618 8.78719C17.3709 8.78653 17.2954 8.85358 17.3884 8.94649C17.4813 9.03943 17.6135 8.90614 17.6135 8.90614C17.6135 8.90614 17.5737 9.13183 17.4406 9.26494C17.3074 9.39808 17.1485 9.37114 17.1485 9.37114C17.1485 9.37114 17.2998 9.24718 17.1883 9.14548C17.0767 9.04288 17.029 9.11893 17.029 9.11893L16.8963 9.25168L16.8028 9.15823L17.3342 8.62684L17.374 8.40118L17.7163 8.34448L17.6537 8.68009L17.6539 8.68099Z" fill="#CECECC" stroke="black" stroke-width="0.0278887"/>
<path fill-rule="evenodd" clip-rule="evenodd" d="M17.1302 7.10475L16.8571 7.52805L16.5114 7.62135L16.7371 7.76736L16.3256 7.7541L16.1392 7.88721L16.0724 7.78041L16.2593 7.64691L16.405 7.2348L16.4452 7.51416L16.6577 7.20786L17.1303 7.10376L17.1302 7.10475Z" fill="#CECECC" stroke="black" stroke-width="0.0300285"/>
<path fill-rule="evenodd" clip-rule="evenodd" d="M16.0233 7.35924C16.0233 7.38174 16.0533 7.40085 16.0878 7.40085C16.1223 7.40085 16.1538 7.38174 16.1538 7.35924C16.1538 7.33674 16.1238 7.31649 16.0878 7.31649C16.0518 7.31649 16.0233 7.3356 16.0233 7.35924ZM16.1163 7.4481C16.1163 7.85085 15.8028 9.56085 15.7773 9.60249C15.7758 9.6531 15.8493 9.67449 15.8838 9.6126C15.9828 9.41685 16.1958 7.8126 16.2033 7.43799C16.2078 7.28385 16.1478 7.27149 16.0788 7.27485C16.0233 7.2771 15.9543 7.31649 15.9543 7.36374C15.9543 7.41999 16.0413 7.4616 16.1163 7.4481Z" fill="#E10000" stroke="black" stroke-width="0.057735"/>
<path fill-rule="evenodd" clip-rule="evenodd" d="M15.9001 7.75817C15.9114 7.78067 15.9494 7.79231 15.9822 7.78367C16.015 7.77506 16.0353 7.74806 16.0241 7.72556C16.0128 7.70306 15.9742 7.69031 15.94 7.69931C15.9058 7.70831 15.8883 7.73456 15.9001 7.75817ZM16.0329 7.82381C15.9294 8.63267 16.2766 9.88181 16.2738 9.93092C16.2971 9.98081 16.3782 9.98492 16.3794 9.91331C16.3965 9.86681 15.9968 8.73842 16.1105 7.79192C16.0377 7.63667 15.9745 7.63931 15.9106 7.65992C15.859 7.67606 15.8132 7.73267 15.8368 7.77992C15.8649 7.83617 15.9684 7.85606 16.0329 7.82381Z" fill="#0000C4" stroke="black" stroke-width="0.060506"/>
<path fill-rule="evenodd" clip-rule="evenodd" d="M17.002 8.88206C17.002 8.91956 17.0395 8.95706 17.0808 8.95706C17.1258 8.95706 17.1633 8.91956 17.1633 8.88206C17.1633 8.84456 17.1258 8.81456 17.0808 8.81456C17.0358 8.81456 17.002 8.84456 17.002 8.88206ZM17.1145 9.03206C17.0247 10.2349 16.8846 11.4334 16.6945 12.6246C16.6945 12.7071 16.7808 12.7446 16.8258 12.6396C16.9495 12.3133 17.2158 9.63956 17.227 9.01706C17.2308 8.75831 17.1558 8.73956 17.0695 8.74331C16.9983 8.74706 16.9158 8.81456 16.9158 8.89331C16.9158 8.98331 17.0245 9.05456 17.1183 9.03206H17.1145Z" fill="#E10000" stroke="black" stroke-width="0.0875"/>
<path fill-rule="evenodd" clip-rule="evenodd" d="M16.7961 9.2274C16.8111 9.2634 16.8599 9.28275 16.9013 9.26982C16.9427 9.25689 16.9677 9.21447 16.9527 9.17847C16.9377 9.14247 16.8882 9.12132 16.845 9.13482C16.8018 9.14832 16.7804 9.1896 16.7961 9.2274ZM16.967 9.33474C16.8605 10.6171 17.3406 12.6093 17.3385 12.6872C17.3697 12.767 17.4729 12.7754 17.4723 12.6617C17.4926 12.5882 16.9494 10.7867 17.0646 9.2859C16.9673 9.03762 16.887 9.04032 16.8065 9.07158C16.7414 9.096 16.6848 9.18489 16.7163 9.26049C16.7538 9.35049 16.886 9.38445 16.967 9.33474Z" fill="#0000C4" stroke="black" stroke-width="0.0852291"/>
<path fill-rule="evenodd" clip-rule="evenodd" d="M10.7659 19.0465C10.9416 19.1544 11.1407 19.2112 11.3433 19.2112C11.546 19.2112 11.7451 19.1544 11.9208 19.0465V15.752H11.1508C11.5358 16.9865 11.5358 18.2234 10.7637 19.0465H10.7659Z" fill="#E10000" stroke="black" stroke-width="0.0999444"/>
<path fill-rule="evenodd" clip-rule="evenodd" d="M11.3754 15.8249C11.3754 18.148 10.8176 18.6651 10.8176 19.1324C11.0499 19.1324 11.2047 18.9145 11.3754 18.6153C11.6077 18.148 11.63 15.7881 11.6077 15.8249H11.3754Z" fill="#0000C4" stroke="black" stroke-width="0.0824958"/>
<path fill-rule="evenodd" clip-rule="evenodd" d="M10.9107 15.8253C10.8989 17.1824 10.3227 18.4398 10.4317 18.718C10.5551 18.9674 10.9107 18.1484 11.3754 18.613C11.6077 18.1484 11.63 15.7885 11.6077 15.8226H10.9107V15.8253Z" fill="#0000C4" stroke="black" stroke-width="0.0824958"/>
<path fill-rule="evenodd" clip-rule="evenodd" d="M10.9627 15.6267C10.9627 17.1534 10.4285 17.2551 10.4285 17.6622C10.6608 17.6622 10.9614 17.4397 10.9627 17.4604C11.195 17.1534 11.2173 15.6026 11.195 15.6267H10.9627Z" fill="#FFDF00" stroke="black" stroke-width="0.0668747"/>
<path fill-rule="evenodd" clip-rule="evenodd" d="M10.4983 15.6267C10.4865 16.5186 9.92339 17.2776 10.0323 17.4604C10.157 17.6226 10.4983 17.1534 10.9629 17.4604C11.1952 17.1534 11.2175 15.6026 11.1952 15.6267H10.4983Z" fill="#FFDF00" stroke="black" stroke-width="0.0668747"/>
<path fill-rule="evenodd" clip-rule="evenodd" d="M13.2353 19.0465C13.0596 19.1544 12.8605 19.2112 12.6579 19.2112C12.4552 19.2112 12.2561 19.1544 12.0804 19.0465V15.752H12.8504C12.4654 16.9865 12.4654 18.2234 13.2375 19.0465H13.2353Z" fill="#E10000" stroke="black" stroke-width="0.0999444"/>
<path fill-rule="evenodd" clip-rule="evenodd" d="M12.6258 15.8249C12.6258 18.148 13.1836 18.6651 13.1836 19.1324C12.9513 19.1324 12.7964 18.9145 12.6258 18.6153C12.3935 18.148 12.3712 15.7881 12.3935 15.8249H12.6258Z" fill="#0000C4" stroke="black" stroke-width="0.0824958"/>
<path fill-rule="evenodd" clip-rule="evenodd" d="M13.0904 15.8253C13.1023 17.1824 13.6784 18.4398 13.5695 18.718C13.4461 18.9674 13.0904 18.1484 12.6258 18.613C12.3935 18.1484 12.3712 15.7885 12.3935 15.8226H13.0904V15.8253Z" fill="#0000C4" stroke="black" stroke-width="0.0824958"/>
<path fill-rule="evenodd" clip-rule="evenodd" d="M13.0385 15.6267C13.0385 17.1534 13.5727 17.2551 13.5727 17.6622C13.3403 17.6622 13.0398 17.4397 13.0385 17.4604C12.8062 17.1534 12.7838 15.6026 12.8062 15.6267H13.0385Z" fill="#FFDF00" stroke="black" stroke-width="0.0668747"/>
<path fill-rule="evenodd" clip-rule="evenodd" d="M13.5029 15.6267C13.5147 16.5186 14.0778 17.2776 13.9688 17.4604C13.8441 17.6226 13.5029 17.1534 13.0383 17.4604C12.806 17.1534 12.7836 15.6026 12.806 15.6267H13.5029Z" fill="#FFDF00" stroke="black" stroke-width="0.0668747"/>
<path fill-rule="evenodd" clip-rule="evenodd" d="M9.06146 16.0083L8.65781 16.3003L9.06146 16.5924L9.26306 16.4464L9.36386 16.5924L9.46466 16.8844L9.56591 16.5924L9.66671 16.4464H15.0753V16.1543H9.66626L9.56546 16.0075C9.56546 15.8614 9.58661 15.7154 9.66671 15.7154H10.0699C10.0699 15.5694 9.86831 15.2773 9.46466 15.2773C9.06146 15.2773 8.85941 15.5694 8.85941 15.7154H9.26306C9.34271 15.7154 9.36386 15.8614 9.36386 16.0083L9.26306 16.1543L9.06101 16.0075L9.06146 16.0083Z" fill="#908F8A" stroke="black" stroke-width="0.0913954"/>
<path fill-rule="evenodd" clip-rule="evenodd" d="M10.2457 16.7157H13.781V16.8949H10.2467L10.2457 16.7157ZM10.2457 16.5355H13.781V16.7157H10.2467L10.2457 16.5355ZM10.2457 16.3563H13.781V16.5365H10.2467L10.2457 16.3563ZM10.2457 16.1771H13.781V16.3563H10.2467L10.2457 16.1771ZM10.2457 15.9978H13.781V16.1771H10.2467L10.2457 15.9978ZM10.2457 15.8176H13.781V15.9978H10.2467L10.2457 15.8176ZM10.2457 15.6394H13.781V15.8176H10.2467L10.2457 15.6394Z" fill="#B74D00"/>
<path d="M13.781 16.7157H10.2457L10.2467 16.8949H13.781V16.7157ZM13.781 16.7157V16.5355H10.2457L10.2467 16.7157H13.781ZM13.781 16.3563H10.2457L10.2467 16.5365H13.781V16.3563ZM13.781 16.3563V16.1771M13.781 16.3563H10.2467L10.2457 16.1771H13.781M13.781 16.1771V15.9978M13.781 16.1771H10.2467L10.2457 15.9978H13.781M13.781 15.9978V15.8176M13.781 15.9978H10.2467L10.2457 15.8176H13.781M13.781 15.8176V15.6394H10.2457L10.2467 15.8176H13.781Z" stroke="black" stroke-width="0.0618648"/>
<path fill-rule="evenodd" clip-rule="evenodd" d="M10.4144 15.6289L11.7063 16.8844H11.891L10.6001 15.6299H10.4154L10.4144 15.6289Z" fill="#908F8A" stroke="black" stroke-width="0.107171"/>
<path fill-rule="evenodd" clip-rule="evenodd" d="M10.4144 16.9225L11.7063 15.667H11.891L10.6001 16.9215H10.4154L10.4144 16.9225Z" fill="#908F8A" stroke="black" stroke-width="0.107171"/>
<path fill-rule="evenodd" clip-rule="evenodd" d="M10.4496 15.6289V16.8844H10.6354V15.6289H10.4496Z" fill="#908F8A" stroke="black" stroke-width="0.106545"/>
<path fill-rule="evenodd" clip-rule="evenodd" d="M12.075 15.6289L13.3669 16.8844H13.5516L12.2606 15.6299H12.0759L12.075 15.6289Z" fill="#908F8A" stroke="black" stroke-width="0.107171"/>
<path fill-rule="evenodd" clip-rule="evenodd" d="M12.075 16.9225L13.3669 15.667H13.5516L12.2606 16.9215H12.0759L12.075 16.9225Z" fill="#908F8A" stroke="black" stroke-width="0.107171"/>
<path fill-rule="evenodd" clip-rule="evenodd" d="M13.4051 15.6289V16.8844H13.5909V15.6289H13.4051Z" fill="#908F8A" stroke="black" stroke-width="0.106545"/>
<path fill-rule="evenodd" clip-rule="evenodd" d="M12.1148 15.6289V16.8844H12.3007V15.6289H12.1148Z" fill="#908F8A" stroke="black" stroke-width="0.106545"/>
<path fill-rule="evenodd" clip-rule="evenodd" d="M11.7398 15.6289V16.8844H11.9257V15.6289H11.7398Z" fill="#908F8A" stroke="black" stroke-width="0.106545"/>
<path fill-rule="evenodd" clip-rule="evenodd" d="M14.6167 12.0458C14.6167 14.0918 13.4074 15.7518 11.9197 15.7518C10.432 15.7518 9.22266 14.0918 9.22266 12.0458C9.22266 9.99979 10.4298 8.3374 11.9197 8.3374C13.4095 8.3374 14.6167 9.99745 14.6167 12.0435V12.0458ZM14.2317 12.0458C14.2317 13.8639 13.1964 15.3403 11.9197 15.3403C10.6429 15.3403 9.60762 13.8639 9.60762 12.0458C9.60762 10.2253 10.6429 8.74894 11.9197 8.74894C13.1964 8.74894 14.2317 10.2253 14.2317 12.0458Z" fill="#FFDF00" stroke="black" stroke-width="0.0999444"/>
<path fill-rule="evenodd" clip-rule="evenodd" d="M12.9702 8.63035C12.6461 8.44204 12.2916 8.3374 11.9197 8.3374C11.5477 8.3374 11.1932 8.44201 10.8691 8.62801L11.0214 9.00931C11.2949 8.8408 11.605 8.75209 11.9207 8.75209C12.2365 8.75209 12.5466 8.8408 12.8201 9.00931L12.9702 8.62801V8.63035Z" fill="#FFDF00" stroke="black" stroke-width="0.0999444"/>
<path fill-rule="evenodd" clip-rule="evenodd" d="M12.9772 15.3616C12.6532 15.55 12.2986 15.6546 11.9267 15.6546C11.5548 15.6546 11.2002 15.55 10.8762 15.364L11.0284 14.9827C11.3019 15.1512 11.6121 15.2399 11.9278 15.2399C12.2435 15.2399 12.5536 15.1512 12.8271 14.9827L12.9772 15.364V15.3616Z" fill="#FFDF00" stroke="black" stroke-width="0.0999444"/>
<path fill-rule="evenodd" clip-rule="evenodd" d="M14.2355 12.0463C14.2355 13.8651 13.1967 15.3388 11.9217 15.3388C10.6467 15.3388 9.61172 13.8651 9.61172 12.0463C9.61172 10.2276 10.6467 8.74634 11.9217 8.74634C13.1967 8.74634 14.2355 10.2238 14.2355 12.0463Z" fill="#A7CFFF"/>
<path fill-rule="evenodd" clip-rule="evenodd" d="M14.2316 12.045C14.2555 12.6634 14.1316 12.9657 13.9728 13.6097C13.9315 13.6794 13.7335 13.4586 13.6161 13.3493C13.4986 13.24 13.4464 13.4469 13.2985 13.2795C13.1528 13.1075 13.0593 13.326 12.9505 13.1819C12.8418 13.0377 11.8348 13.0191 11.8348 13.0052C11.9348 12.954 12.4481 13.0098 12.3655 12.7471C12.2719 12.4728 11.6912 12.7378 11.6129 12.3891C11.5585 12.0403 10.4471 12.0264 10.3666 11.9427C10.3993 12.0729 11.2323 12.1287 11.2127 12.4658C11.1931 12.6053 10.3927 12.6448 10.3144 12.7611C10.2492 12.9075 10.9452 12.7215 10.9691 12.9006C10.9691 12.975 10.8669 12.9006 10.5058 13.0168C10.3231 13.0749 10.8408 13.2563 10.645 13.3563C10.4493 13.4562 10.0295 13.5004 10.0469 13.5423C10.1122 13.7515 11.0191 13.998 10.93 14.0328C10.6081 14.1863 10.4384 14.2863 10.284 14.3746C9.83149 13.6952 9.59446 12.8788 9.60757 12.045C10.297 11.7799 10.1513 11.7241 11.4259 11.7241C12.7004 11.7241 13.1224 11.7776 14.2316 12.045Z" fill="#AFFF7B" stroke="black" stroke-width="0.0999444"/>
<path fill-rule="evenodd" clip-rule="evenodd" d="M14.2322 12.0448C14.0582 12.0448 13.8755 12.1239 13.6885 12.1239C13.4993 12.1239 13.3079 12.0425 13.1121 12.0425C12.9164 12.0425 12.6923 12.1495 12.4922 12.1495C12.29 12.1495 12.1138 12.0448 11.9115 12.0448C11.7092 12.0448 11.507 12.1239 11.3069 12.1239C11.1068 12.1239 10.9088 12.0425 10.7153 12.0425C10.5217 12.0425 10.3303 12.1239 10.1454 12.1239C9.96053 12.1239 9.78002 12.0425 9.60818 12.0425C9.60818 11.5891 9.67343 11.1567 9.79088 10.7614C10.3781 10.8079 10.0301 10.3964 10.3781 10.3964C10.4797 10.3905 10.5813 10.4078 10.6762 10.4471C10.7711 10.4864 10.8571 10.5468 10.9284 10.6243C10.9806 10.6243 11.2416 10.3592 11.5352 10.3964C11.8267 10.4336 11.7201 11.0311 12.1094 11.0614C12.3052 11.2195 12.4205 11.3194 12.6902 11.3845C13.0751 11.4217 14.1779 11.3264 14.1844 11.3799C14.2162 11.5999 14.2321 11.8222 14.2322 12.0448Z" fill="white" stroke="black" stroke-width="0.0999444"/>
<path fill-rule="evenodd" clip-rule="evenodd" d="M12.2691 13.9635C12.2691 13.8609 12.3703 13.7925 12.3703 13.6287C12.3703 13.4649 12.2803 13.4613 12.2773 13.3083C12.2758 13.2453 12.3546 13.1823 12.3891 13.1751C12.4236 13.1679 12.4528 13.3083 12.4528 13.3389C12.4528 13.3695 12.4176 13.2633 12.3883 13.2615C12.3591 13.2597 12.2961 13.2723 12.2961 13.3029C12.2961 13.3641 12.4071 13.4397 12.3988 13.6449C12.3906 13.8465 12.3036 13.9077 12.3036 13.9689C12.3036 14.0301 12.3411 14.1993 12.3411 14.1993C12.3411 14.1993 12.2683 14.0643 12.2683 13.9617L12.2691 13.9635Z" fill="black" stroke="black" stroke-width="0.0516398"/>
<path fill-rule="evenodd" clip-rule="evenodd" d="M12.5934 13.9485C12.5934 13.8459 12.4921 13.7775 12.4921 13.6137C12.4921 13.4499 12.5821 13.4463 12.5851 13.2933C12.5926 13.2213 12.4966 13.1745 12.4621 13.1691C12.4276 13.1637 12.3871 13.3131 12.3871 13.3419C12.3871 13.3707 12.4276 13.2483 12.4569 13.2465C12.4861 13.2447 12.5664 13.2573 12.5664 13.2879C12.5664 13.3491 12.4554 13.4247 12.4636 13.6299C12.4719 13.8315 12.5589 13.8927 12.5589 13.9539C12.5589 14.0151 12.5214 14.1843 12.5214 14.1843C12.5214 14.1843 12.5941 14.0493 12.5941 13.9467L12.5934 13.9485Z" fill="black" stroke="black" stroke-width="0.0516398"/>
<path fill-rule="evenodd" clip-rule="evenodd" d="M12.4873 13.1338C12.4873 13.1825 12.461 13.2238 12.431 13.2238C12.401 13.2238 12.3785 13.1825 12.3785 13.13C12.3785 13.0775 12.401 13.04 12.431 13.04C12.461 13.04 12.4873 13.0813 12.4873 13.1338ZM13.1248 13.4713H13.1398V14.2025H13.121L13.1248 13.4713ZM13.2785 13.4113H13.2973V14.15H13.2785V13.4113Z" fill="black"/>
<path fill-rule="evenodd" clip-rule="evenodd" d="M13.2223 13.7443V13.7256L13.3723 13.7518V13.7706L13.2223 13.7443Z" fill="black"/>
<path fill-rule="evenodd" clip-rule="evenodd" d="M11.0787 13.9568C11.0787 13.9568 11.6442 14.2218 11.7682 14.3799C11.89 14.538 11.8422 14.538 11.8422 14.538L13.0971 14.5915C13.0971 14.5124 13.319 14.5124 13.369 14.3264C13.419 14.1428 13.419 14.0893 13.419 14.0893L13.0254 14.2218L13.0471 13.9847H12.7035L12.6534 14.2218L11.9139 14.1962L11.964 13.5615L11.8161 13.5871L11.7943 14.1916C11.7682 14.1916 11.1027 14.0079 11.0766 13.9568H11.0787Z" fill="#B74D00" stroke="black" stroke-width="0.0999444"/>
<path fill-rule="evenodd" clip-rule="evenodd" d="M9.94101 10.1711C9.94101 10.1711 10.761 9.91066 11.9442 9.92926C13.1274 9.94786 13.9474 10.2269 13.93 10.2269C13.9126 10.2269 13.7038 9.79906 13.7038 9.79906C13.7038 9.79906 12.8686 9.55495 11.9268 9.53635C10.9872 9.51775 10.1672 9.72235 10.1868 9.74095L9.94101 10.1711Z" fill="#FEDE00" stroke="#FEDE00" stroke-width="0.0999444"/>
<path fill-rule="evenodd" clip-rule="evenodd" d="M11.475 9.56773L11.985 9.56023L11.9925 9.85648L11.4825 9.86773L11.475 9.56773ZM10.305 9.72898L10.125 10.0252L10.7325 9.95023L10.6837 9.66148L10.305 9.73648V9.72898ZM10.8188 9.61648L11.3288 9.57523L11.3513 9.86773L10.845 9.91273L10.8188 9.61648ZM12.6525 9.59023L12.1462 9.55273L12.1275 9.85273L12.6337 9.88273L12.6525 9.59023ZM13.7475 9.77773L13.9313 10.1377L13.3837 10.0027L13.4438 9.71398L13.7438 9.77398L13.7475 9.77773ZM13.305 9.66523L12.8025 9.60148L12.765 9.89398L13.2713 9.96148L13.305 9.66523Z" fill="#38A9F9"/>
<path fill-rule="evenodd" clip-rule="evenodd" d="M11.9437 10.3383L11.8893 10.0244L11.724 10.2918L11.7849 9.97795L11.5392 10.157L11.7045 9.89425L11.413 9.95935L11.6631 9.78265L11.3695 9.72454L11.6631 9.66409L11.413 9.48739L11.7045 9.55249L11.537 9.28975L11.7849 9.46879L11.724 9.1549L11.8893 9.42229L11.9437 9.1084L12.0003 9.42229L12.1634 9.1549L12.1047 9.46879L12.3504 9.28975L12.183 9.55249L12.4766 9.48739L12.2265 9.66409L12.5201 9.72454L12.2265 9.78265L12.4766 9.95935L12.183 9.89425L12.3504 10.157L12.1047 9.97795L12.1656 10.2918L12.0003 10.0244L11.9437 10.3383Z" fill="#FFDF00" stroke="black" stroke-width="0.0999444"/>
<path fill-rule="evenodd" clip-rule="evenodd" d="M12.3784 9.52853C12.3784 9.70292 12.2373 9.84353 12.062 9.84353C11.8868 9.84353 11.7457 9.70292 11.7457 9.52853C11.7457 9.35417 11.8868 9.21167 12.062 9.21167C12.2373 9.21167 12.3784 9.35417 12.3784 9.53042V9.52853Z" fill="#FFDF00" stroke="black" stroke-width="0.0889757"/>
<path fill-rule="evenodd" clip-rule="evenodd" d="M12.026 9.59707C12.026 9.61582 11.9773 9.63457 11.921 9.63457C11.8648 9.63457 11.816 9.61582 11.816 9.59707C11.816 9.57832 11.861 9.55957 11.921 9.55957C11.981 9.55957 12.026 9.57457 12.026 9.59707ZM12.251 9.59707C12.251 9.61582 12.2173 9.63457 12.176 9.63457C12.1348 9.63457 12.0935 9.61582 12.0935 9.59707C12.0935 9.57457 12.131 9.55957 12.1723 9.55957C12.2135 9.55957 12.251 9.57457 12.251 9.59707Z" fill="black"/>
<path d="M12.0154 9.72647L12.0373 9.73907C11.9847 9.70688 12.0087 9.71882 12.0913 9.80027C12.1385 9.77282 12.1475 9.74783 12.1768 9.71387" stroke="black" stroke-width="0.100943"/>
<path d="M11.8064 9.89218L11.8238 9.91078C11.7824 9.86428 11.802 9.88753 11.8934 9.94798C11.9804 9.95959 12.0696 9.92008 12.1218 9.85498" stroke="black" stroke-width="0.0999444"/>
<path fill-rule="evenodd" clip-rule="evenodd" d="M10.552 10.5054C10.552 10.5054 10.5895 10.8054 10.3608 11.1804C10.1358 11.5516 10.1695 11.4204 10.1695 11.4204C10.1695 11.4204 10.2745 11.6266 10.2558 11.6266C10.237 11.6266 10.0795 11.4391 10.0795 11.4391L9.89203 11.6454C9.89203 11.6454 10.0645 11.3266 10.0458 11.3266C10.027 11.3266 9.99328 11.2141 9.99328 11.2141L10.132 11.1579C10.132 11.1579 10.342 10.7679 10.342 10.7866C10.342 10.8054 9.71578 11.2141 9.71578 11.2141L10.552 10.5091V10.5054ZM10.6908 10.6179C10.672 10.6179 10.777 10.9179 10.867 11.0679C10.9533 11.2179 10.9533 11.4016 10.9533 11.4016L11.2495 11.5516L10.867 10.9741L11.1108 11.0641L10.6908 10.6179ZM10.6908 11.4016C10.6908 11.4016 10.9008 11.6266 10.9158 11.7016C10.9308 11.7766 10.9345 11.9416 10.9345 11.9416L10.8483 11.7541L10.7245 11.9229C10.7245 11.9229 10.8145 11.6604 10.7958 11.6416C10.777 11.6229 10.657 11.7354 10.657 11.7354C10.657 11.7354 10.7095 11.5854 10.7095 11.5704C10.7095 11.5554 10.7095 11.4579 10.6908 11.4016ZM9.64453 11.9229C9.71578 11.8666 9.85453 11.8291 9.85453 11.8291C9.85453 11.8291 9.76828 11.9791 9.74953 11.9791C9.73078 11.9791 9.68203 11.9791 9.64453 11.9229ZM12.0483 11.1054C12.0483 11.1054 12.502 11.3829 12.502 11.4016C12.502 11.4204 12.2058 11.2704 12.2058 11.2704L12.0483 11.1054ZM11.2308 10.5241C11.2683 10.5429 11.8945 11.0641 11.8758 11.0641C11.857 11.0641 11.5983 10.9141 11.5983 10.9366V11.0641L11.4558 10.7679L11.422 10.8804L11.2345 10.5241H11.2308ZM11.3883 11.3641L11.5608 11.7166L11.737 11.6791C11.737 11.6791 11.407 11.3641 11.3883 11.3641ZM11.9283 11.1391L11.947 11.4766C11.947 11.4766 12.0483 11.5704 12.0483 11.5516C12.0483 11.5329 11.947 11.1579 11.9283 11.1391Z" fill="#B7E1FF"/>
<path fill-rule="evenodd" clip-rule="evenodd" d="M6.84726 6.5563C6.84726 6.5563 7.63476 6.12129 8.53101 5.79879C9.19041 5.55651 9.87081 5.37574 10.5635 5.25879C10.826 5.25879 11.2835 5.92629 11.3585 5.92629C11.4335 5.92629 11.7373 5.73879 12.1198 5.73879C12.5023 5.73879 12.7235 6.03879 12.8023 6.03879H13.4848C13.5598 6.03879 13.256 5.29629 13.4848 5.33379C13.5973 5.35254 14.5648 5.50254 15.4648 5.79129C16.3648 6.08379 17.6398 6.60129 17.6398 6.60129C17.6398 6.60129 15.5585 6.87505 14.9998 6.7963C14.9248 6.8338 14.9998 7.28379 14.8873 7.08504C14.7148 7.04754 14.0735 6.9463 13.961 6.9463C13.8485 6.9463 13.6348 7.07379 13.331 7.14879C13.031 7.22379 12.6485 7.33629 12.6485 7.33629L13.1435 8.11254L12.536 8.41254C12.536 8.41254 12.1573 7.52004 12.0035 7.52004C11.8498 7.52004 11.7785 8.15004 11.5873 8.11254C11.3998 8.07504 11.3248 7.52004 11.171 7.37004C11.021 7.22379 10.2185 7.16755 9.91476 7.0963C9.61476 7.0213 9.12351 6.96505 8.85726 6.89005C8.59476 6.81505 8.32476 7.07755 8.21226 7.07755C8.09976 7.07755 8.36226 6.85255 8.24976 6.81505C8.13726 6.77755 8.06226 6.92755 7.98726 6.92755C7.91226 6.92755 7.11351 6.77755 7.03851 6.74005C6.96351 6.70255 7.22601 6.5563 7.15101 6.5563H6.84726Z" fill="#984000"/>
<path fill-rule="evenodd" clip-rule="evenodd" d="M12.5046 6.18544C12.5046 6.39214 12.3346 6.55984 12.1259 6.55984C11.9172 6.55984 11.748 6.39214 11.748 6.18544C11.748 5.97874 11.9172 5.81201 12.1259 5.81201C12.3346 5.81201 12.5046 5.97971 12.5046 6.18544Z" fill="#808080" stroke="#772600" stroke-width="0.110614"/>
<path fill-rule="evenodd" clip-rule="evenodd" d="M10.5856 6.25586C10.6534 6.17666 10.7374 6.05666 10.9572 6.05666C11.0078 6.03626 11.0078 5.91626 11.1252 5.91626C11.2437 5.91626 11.2093 6.03626 11.2943 6.07706C11.3784 6.11666 12.0699 6.03626 12.0699 6.03626C12.0699 6.03626 12.1367 6.09626 12.1367 6.17666C12.1367 6.25706 12.0861 6.31586 12.0699 6.31586C12.0537 6.31586 11.3784 6.25586 11.3277 6.27626C11.2771 6.29666 11.2437 6.31586 11.1252 6.31586C11.0078 6.31586 10.9734 6.17666 10.8893 6.17666C10.8053 6.17666 10.7212 6.15626 10.5856 6.25706V6.25586Z" fill="#984000" stroke="#772600" stroke-width="0.194734"/>
<path d="M12.643 6.2143H12.9123C13.0095 6.2155 13.0429 6.2503 13.132 6.2539H13.3679C13.454 6.2503 13.4995 6.2263 13.5866 6.2143C13.7334 6.2119 13.6838 6.19871 13.6544 6.09431C13.6281 6.01631 13.6241 5.97911 13.5866 5.93471C13.5724 5.83871 13.54 5.80511 13.536 5.69471C13.5208 5.61071 13.4924 5.55431 13.5198 5.45471C13.5583 5.52311 13.5734 5.55071 13.6717 5.55551C13.7729 5.55551 13.8124 5.55191 13.8742 5.59511C13.9207 5.65391 13.9835 5.63471 14.0767 5.63471C14.1536 5.65151 14.1668 5.69831 14.2275 5.73431C14.2994 5.78231 14.346 5.79431 14.4462 5.79431C14.5272 5.81231 14.5981 5.82551 14.6487 5.85431C14.6923 5.91551 14.7601 5.93111 14.8512 5.93471C14.9018 5.93471 14.9423 5.92871 14.9859 5.91431C15.0638 5.91911 15.1428 5.91431 15.239 5.91431C15.3018 6.00071 15.316 6.03311 15.4243 6.03431C15.4992 6.09671 15.562 6.10631 15.6268 6.13391H15.8799C15.971 6.14231 15.9994 6.18671 16.0824 6.2143C16.1536 6.25246 16.2267 6.28573 16.3011 6.3139C16.3736 6.32947 16.4472 6.33631 16.5208 6.3343C16.5826 6.3727 16.6585 6.3751 16.7061 6.4135C16.776 6.4315 16.8712 6.4531 16.9248 6.4735C17.0139 6.4879 17.0483 6.5215 17.1273 6.5335C17.1952 6.5575 17.105 6.5767 17.0595 6.5935C16.9603 6.5899 16.9532 6.5455 16.857 6.5335C16.8064 6.4987 16.7294 6.5035 16.6545 6.4735H16.6383C16.7051 6.5215 16.7699 6.5515 16.7395 6.6343C16.6535 6.6343 16.5836 6.6211 16.5036 6.6139C16.4186 6.5947 16.3801 6.5743 16.2849 6.5743C16.3801 6.5467 16.4044 6.5767 16.4702 6.6139C16.4945 6.7099 16.4419 6.6739 16.3517 6.6739C16.2748 6.6415 16.2282 6.6019 16.133 6.5935H15.9305C16.0308 6.5983 16.052 6.6427 16.1158 6.6943C16.1209 6.7255 16.1148 6.7231 16.0652 6.7339C16.0126 6.6799 15.9447 6.6619 15.8627 6.6343C15.7827 6.6307 15.6987 6.6223 15.6268 6.5935C15.5772 6.5899 15.5853 6.5203 15.6946 6.6343C15.7604 6.6799 15.7837 6.7183 15.7787 6.7543C15.6916 6.7279 15.6491 6.6871 15.5934 6.6535C15.5176 6.62239 15.4375 6.60892 15.3575 6.6139C15.2704 6.5863 15.3666 6.5707 15.4243 6.6739C15.5498 6.7795 15.4081 6.7339 15.3575 6.7135C15.2815 6.6883 15.2026 6.6511 15.1378 6.6343C15.0871 6.6163 15.0426 6.5995 14.9859 6.5935C15.074 6.6031 15.1033 6.6403 15.1378 6.7135C15.2269 6.7855 15.1337 6.7507 15.0537 6.7339C15.0031 6.6811 14.9373 6.6535 14.9018 6.5935C14.8178 6.5443 14.8148 6.4855 14.8684 6.6139C14.8816 6.6547 14.8786 6.7435 14.8846 6.7543C14.8229 6.6739 14.836 6.6535 14.7672 6.6535C14.7196 6.6151 14.6507 6.5851 14.6153 6.5335C14.5505 6.5263 14.5465 6.4987 14.4806 6.4735C14.5343 6.5491 14.6062 6.6235 14.6487 6.6943C14.7257 6.7447 14.7469 6.7903 14.8006 6.8335C14.8219 6.8779 14.8816 6.9139 14.8178 6.8539C14.7449 6.7699 14.6912 6.7495 14.5819 6.6943C14.5191 6.6343 14.4968 6.6103 14.43 6.5539C14.3389 6.5191 14.3743 6.4999 14.43 6.6139C14.4938 6.6835 14.5424 6.7603 14.5981 6.8143C14.6418 6.87613 14.6929 6.92992 14.75 6.9739C14.7652 7.0003 14.8107 7.0051 14.75 7.0135C14.6993 6.9583 14.6244 6.9235 14.5647 6.8731C14.4806 6.8455 14.4412 6.7939 14.3794 6.7339C14.3389 6.6631 14.2741 6.6091 14.2275 6.5539C14.1303 6.5083 14.2468 6.5971 14.2781 6.6535C14.2994 6.7267 14.3267 6.7855 14.345 6.8539C14.3733 6.9199 14.2599 6.8383 14.2275 6.8143C14.1609 6.76315 14.0861 6.72886 14.0078 6.7135C13.9407 6.6976 13.8732 6.68437 13.8053 6.6739C13.7294 6.6499 13.8468 6.7315 13.8904 6.8143C13.9754 6.9091 13.8063 6.8311 13.7557 6.8143C13.6721 6.79747 13.5873 6.79063 13.5026 6.7939C13.3942 6.8011 13.4722 6.8179 13.5026 6.8731C13.536 6.9043 13.5593 6.9691 13.5532 6.9931C13.4823 6.9811 13.4216 6.9571 13.3335 6.9535C13.2626 6.9811 13.1786 6.9739 13.0976 6.9739C13.0945 7.0243 13.1128 6.9811 13.1482 7.0339C13.2069 7.0615 13.2454 7.0951 13.2332 7.1335H12.7442C12.6905 7.1503 12.7553 7.1419 12.7948 7.2139C12.7726 7.2787 12.7442 7.2535 12.6764 7.2535C12.6308 7.2319 12.5387 7.2223 12.4911 7.1935C12.4435 7.1935 12.4475 7.1791 12.407 7.1731C12.5488 7.2931 12.4779 7.2631 12.5589 7.3531C12.5721 7.3591 12.6045 7.3735 12.5751 7.3735M11.4624 8.0131C11.4523 8.0131 11.43 7.9483 11.3956 7.8931C11.3713 7.8211 11.3409 7.8619 11.3105 7.7527C11.3146 7.6399 11.3176 7.6207 11.3105 7.5127C11.2417 7.4551 11.2123 7.4383 11.1586 7.3327C11.0736 7.2487 11.1718 7.1047 11.188 6.9991C11.1131 6.9799 11.0766 7.1371 10.9622 7.1935C10.8792 7.2595 10.9521 7.0567 10.9116 6.9391C10.8842 6.7723 10.8022 7.0231 10.7719 7.0939C10.7162 7.1383 10.699 7.1959 10.62 7.1131C10.62 7.0519 10.6696 6.8791 10.6483 6.8455C10.5694 6.8923 10.4661 7.0315 10.3841 7.0531C10.301 7.0327 10.4013 6.8755 10.4013 6.7591C10.3709 6.7471 10.2524 7.0687 10.2038 7.0711C10.1552 7.0735 10.1765 6.7591 10.1532 6.7663C10.1178 6.8263 10.0459 6.9511 9.99627 6.9943C9.90009 6.9787 10.0105 6.7843 10.0246 6.7123C10.0408 6.6259 9.93453 6.8779 9.87783 6.8935C9.83631 6.9367 9.75429 6.9655 9.72594 6.9739C9.75834 6.8995 9.91833 6.7495 9.90819 6.7063C9.81402 6.7099 9.67128 6.8563 9.59127 6.8743C9.53862 6.8743 9.46572 6.8947 9.45663 6.8935C9.46068 6.7975 9.65304 6.7183 9.68343 6.6595C9.58926 6.6775 9.40803 6.7759 9.35538 6.8539C9.29259 6.8695 9.21363 6.8899 9.15288 6.8539C9.16197 6.7639 9.30372 6.5899 9.33513 6.5323C9.24906 6.5767 9.20652 6.6115 9.11541 6.6319C9.09819 6.6523 9.04959 6.6955 9.06477 6.6523C9.09213 6.5683 9.13263 6.5323 9.16602 6.4723C9.09009 6.4891 9.06174 6.5407 8.98074 6.5923C8.92911 6.5947 8.78127 6.7711 8.73168 6.7735C8.64771 6.85195 8.54967 6.90655 8.44512 6.9331C8.36817 6.9499 8.33073 6.9691 8.29326 7.0135C8.33172 6.9331 8.39046 6.8575 8.44512 6.8143C8.47851 6.74146 8.53218 6.68464 8.59701 6.6535C8.61624 6.6259 8.66889 6.6187 8.61321 6.6139C8.56563 6.6643 8.48463 6.7219 8.44512 6.7543C8.39349 6.7927 8.33376 6.8311 8.30946 6.8143C8.33679 6.7279 8.38539 6.7063 8.42793 6.6343C8.51703 6.5671 8.42793 6.6103 8.36007 6.6343C8.31654 6.6799 8.23857 6.7147 8.17479 6.7543C8.10393 6.7759 8.05632 6.8263 7.97229 6.8539C7.97229 6.8827 7.99659 6.8023 8.00673 6.7735C8.07558 6.6847 8.09379 6.6595 8.17479 6.6343C8.19504 6.5995 8.21934 6.6139 8.15859 6.6139C8.11203 6.6619 8.04924 6.6883 7.98951 6.7339C7.92978 6.7495 7.85181 6.7543 7.77081 6.7543C7.66551 6.7687 7.67463 6.7783 7.77081 6.7135C7.82448 6.6535 7.86903 6.6691 7.87206 6.5935C7.80828 6.6487 7.73031 6.6895 7.65234 6.7339C7.58754 6.7363 7.57032 6.7543 7.50048 6.7543C7.53387 6.7135 7.55412 6.6619 7.60173 6.6343C7.67259 6.5419 7.55718 6.6163 7.53387 6.6343H7.28076C7.23621 6.7015 7.27872 6.6343 7.31517 6.5935C7.35873 6.5671 7.40427 6.5323 7.39923 6.5143C7.34859 6.5659 7.29087 6.5899 7.24734 6.6343C7.20078 6.6511 7.14609 6.6583 7.14609 6.6739C7.18356 6.6103 7.24329 6.5707 7.28178 6.5143C7.33848 6.4999 7.38708 6.4783 7.39923 6.4543H7.16331H7.33137C7.41744 6.4543 7.49034 6.4447 7.56831 6.4339C7.70196 6.4075 7.55616 6.3943 7.48326 6.3943C7.47009 6.3631 7.52577 6.3463 7.58451 6.3343C7.63512 6.3055 7.69893 6.2803 7.75359 6.2539C7.80186 6.2365 7.84737 6.20974 7.88826 6.17471C7.83762 6.17711 7.83762 6.19151 7.78701 6.19391C7.86294 6.18791 7.91661 6.17471 8.00673 6.17471C8.08092 6.14572 8.15391 6.11248 8.22543 6.07511C8.25579 6.03191 8.26794 6.03431 8.19201 6.03431C8.25984 6.00911 8.35602 5.99591 8.41071 5.97431C8.48049 5.95699 8.54841 5.93042 8.61321 5.89511C8.66283 5.85551 8.69118 5.80871 8.74788 5.77511C8.81367 5.82791 8.81469 5.83511 8.93316 5.83511C9.02832 5.83391 9.08706 5.80631 9.13566 5.75471C9.20856 5.73071 9.22173 5.68991 9.30474 5.67551C9.38277 5.69004 9.4617 5.69646 9.54066 5.69471C9.62166 5.66951 9.69963 5.62271 9.75936 5.57471C9.81099 5.54471 9.87276 5.50151 9.92844 5.47511C9.98919 5.51231 10.0378 5.54231 10.1137 5.55551C10.1917 5.54111 10.2332 5.49551 10.299 5.47511C10.3396 5.42391 10.3927 5.38908 10.4509 5.37551C10.5491 5.31791 10.542 5.39351 10.5856 5.45471C10.6362 5.51711 10.701 5.48711 10.7708 5.51471C10.8103 5.58671 10.8387 5.63471 10.8893 5.67431C10.9288 5.73191 10.9754 5.74631 11.0584 5.75471C11.0888 5.80271 11.0645 5.83631 11.1252 5.85431C11.1495 5.88551 11.191 5.89751 11.2265 5.91431" stroke="#772600" stroke-width="0.128598"/>
<path d="M12.4478 7.50336V7.51296C12.4478 7.48536 12.4478 7.50096 12.465 7.55376C12.4711 7.59696 12.4569 7.59216 12.4397 7.62336C12.4367 7.66776 12.4316 7.70016 12.4316 7.75296C12.4256 7.79616 12.4053 7.83696 12.3891 7.87296C12.3729 7.91016 12.303 7.93176 12.305 7.98336C12.2645 7.99656 12.2636 7.96536 12.2625 7.91256C12.2382 7.88016 12.2301 7.83576 12.2119 7.79256C12.2018 7.75176 12.1775 7.72056 12.1613 7.67256C12.137 7.62816 12.1157 7.61496 12.0945 7.56336C12.0854 7.53936 12.0874 7.50816 12.0692 7.49376C12.0418 7.45176 12.0236 7.44576 11.976 7.44336C11.9396 7.45296 11.9254 7.47216 11.892 7.48296C11.8656 7.49376 11.815 7.49016 11.7826 7.50336C11.7745 7.51896 11.7988 7.52736 11.8079 7.56336C11.7857 7.58496 11.7776 7.62216 11.7654 7.65336C11.7452 7.68336 11.732 7.69776 11.7229 7.74336C11.7371 7.77096 11.7249 7.80816 11.7067 7.83336C11.7006 7.87896 11.6814 7.90416 11.6723 7.94256C11.6459 7.96536 11.6358 7.98576 11.6135 8.02296C11.5943 8.05536 11.5771 8.05296 11.5295 8.05296C11.492 8.04096 11.487 8.01696 11.4536 8.00256C11.4505 7.99056 11.4475 7.98696 11.4363 7.98336" stroke="#782600" stroke-width="0.113901"/>
<path fill-rule="evenodd" clip-rule="evenodd" d="M11.5345 7.9062C11.5345 7.9062 11.5195 8.0937 11.3995 8.21745C11.2795 8.3412 11.032 8.4837 11.032 8.4837C11.032 8.4837 11.3658 8.3262 11.3995 8.35995C11.437 8.39745 11.1858 8.6712 11.1858 8.6712C11.1858 8.6712 11.512 8.38245 11.5533 8.38245C11.5945 8.38245 11.6883 8.6637 11.7258 8.6562C11.7595 8.6487 11.6508 8.29995 11.6658 8.2437C11.6808 8.1912 11.6658 7.89495 11.6658 7.89495L11.5383 7.9062H11.5345ZM12.3033 7.8837C12.3033 7.8837 12.2883 8.08245 12.1683 8.2137C12.0483 8.34495 11.8008 8.4987 11.8008 8.4987C11.8008 8.4987 12.1345 8.32995 12.1683 8.36745C12.2058 8.40495 11.9545 8.69745 11.9545 8.69745C11.9545 8.69745 12.2808 8.38995 12.322 8.38995C12.3633 8.38995 12.457 8.68995 12.4945 8.68245C12.5283 8.67495 12.4195 8.29995 12.4345 8.2437C12.4495 8.1837 12.4345 7.8687 12.4345 7.8687L12.3033 7.8837ZM11.227 6.0837C11.227 6.11745 11.1895 6.14745 11.1483 6.14745C11.107 6.14745 11.0658 6.11745 11.0658 6.07995C11.0658 6.04245 11.1033 6.01245 11.1483 6.01245C11.1933 6.01245 11.227 6.04245 11.227 6.07995V6.0837Z" fill="#812E00"/>
</g>
<defs>
<clipPath id="clip0_69_4550">
<rect width="24" height="24" rx="12" fill="white"/>
</clipPath>
</defs>
</svg>
