<svg width="24" height="24" viewBox="0 0 24 24" fill="none" xmlns="http://www.w3.org/2000/svg">
<g clip-path="url(#clip0_69_4673)">
<g clip-path="url(#clip1_69_4673)">
<mask id="mask0_69_4673" style="mask-type:luminance" maskUnits="userSpaceOnUse" x="-4" y="0" width="32" height="24">
<path d="M28 0H-4V24H28V0Z" fill="white"/>
</mask>
<g mask="url(#mask0_69_4673)">
<path d="M-4 16H28V24H-4V16Z" fill="black"/>
<path d="M-4 8H28V16H-4V8Z" fill="white"/>
<path d="M-4 0H28V8H-4V0Z" fill="#CE1126"/>
<path d="M12.0321 12.0957L14.7721 14.6397L14.5761 10.0197C14.5481 9.31973 13.9401 9.47973 13.4961 9.73173C13.0521 10.0197 12.5361 10.0197 12.0001 9.83173C11.4601 10.0197 10.9481 10.0197 10.5041 9.73173C10.0641 9.47973 9.45212 9.31973 9.42412 10.0197L9.22812 14.6397L12.0321 12.0957Z" fill="white" stroke="#C09300" stroke-width="0.13" stroke-linejoin="round"/>
<path d="M9.74012 9.85938L9.54812 14.3514L9.22812 14.6394L9.42412 10.0194C9.51864 9.94694 9.62576 9.89266 9.74012 9.85938ZM10.1241 10.1794L9.96412 13.9394L9.64412 14.2674L9.83612 9.92738C9.90012 9.99138 10.0881 10.1474 10.1241 10.1794ZM10.4721 10.4674L10.3481 13.6034L10.0881 13.8554L10.2481 10.2794C10.3121 10.3394 10.4401 10.4314 10.4721 10.4674ZM10.8521 10.6274L10.7281 13.2994L10.4761 13.5034L10.6001 10.5314C10.6641 10.5594 10.7881 10.6274 10.8521 10.6274ZM11.2041 10.6274L11.1121 12.8554L10.8521 13.1074L10.9521 10.6554C11.0121 10.6554 11.1761 10.6554 11.2041 10.6274Z" fill="#C09300"/>
<path d="M14.2599 9.85938L14.4519 14.3514L14.7719 14.6394L14.5759 10.0194C14.4813 9.94694 14.3742 9.89266 14.2599 9.85938ZM13.8759 10.1794L14.0359 13.9394L14.3559 14.2674L14.1639 9.92738C14.0999 9.99138 13.9119 10.1474 13.8759 10.1794ZM13.5279 10.4674L13.6519 13.6034L13.9119 13.8554L13.7519 10.2794C13.6879 10.3394 13.5599 10.4314 13.5279 10.4674ZM13.1479 10.6274L13.2719 13.2994L13.5239 13.5034L13.3999 10.5314C13.3359 10.5594 13.2119 10.6274 13.1479 10.6274ZM12.7959 10.6274L12.8879 12.8554L13.1479 13.1074L13.0479 10.6554C12.9879 10.6554 12.8239 10.6554 12.7959 10.6274Z" fill="#C09300"/>
<path d="M12.1275 12.6001L12.5115 14.3521L12.3835 14.4801L12.2515 14.3801L12.0355 12.8201L12.1275 14.3801L11.9995 14.5401L11.8755 14.3801L11.9675 12.8201L11.7475 14.3801L11.6155 14.4801L11.4875 14.3521L11.8715 12.6041H12.1275V12.6001Z" fill="#C09300" stroke="#C09300" stroke-width="0.11"/>
<path d="M11.1406 11.8313L10.3766 14.5393L11.4286 14.6993L11.8726 12.6633L11.1406 11.8313Z" fill="white" stroke="#C09300" stroke-width="0.12" stroke-linejoin="round"/>
<path d="M10.8891 12.7598L10.9811 12.9798L11.4771 12.5078" stroke="#C09300" stroke-width="0.13" stroke-linejoin="round"/>
<path d="M11.2331 12.2L11.3371 13.172L11.6531 12.756M11.5251 12.916L11.6971 13.516M11.7651 13.296L11.4171 13.824M11.5251 14.352L11.4131 13.824M11.4131 13.824L11.3171 13.288L11.0811 13.604L10.9811 13.24L10.6531 13.576L10.8171 14.184L11.0491 13.808L11.1731 14.192L11.4131 13.824Z" stroke="#C09300" stroke-width="0.13" stroke-linejoin="round"/>
<path d="M10.6 14.4797L10.812 14.1797L10.948 14.6397L11.14 14.3197L11.264 14.7037" stroke="#C09300" stroke-width="0.13" stroke-linejoin="round"/>
<path d="M12.8594 11.8313L13.6234 14.5393L12.5714 14.6993L12.1274 12.6633L12.8594 11.8313Z" fill="white" stroke="#C09300" stroke-width="0.12" stroke-linejoin="round"/>
<path d="M13.1109 12.7598L13.0189 12.9798L12.5229 12.5078" stroke="#C09300" stroke-width="0.13" stroke-linejoin="round"/>
<path d="M12.7669 12.2L12.6629 13.172L12.3469 12.756M12.4749 12.916L12.3029 13.516M12.2349 13.296L12.5829 13.824M12.4749 14.352L12.5869 13.824M12.5869 13.824L12.6829 13.288L12.9189 13.604L13.0189 13.24L13.3469 13.576L13.1829 14.184L12.9509 13.808L12.8269 14.192L12.5869 13.824Z" stroke="#C09300" stroke-width="0.13" stroke-linejoin="round"/>
<path d="M13.4 14.4797L13.188 14.1797L13.052 14.6397L12.86 14.3197L12.736 14.7037" stroke="#C09300" stroke-width="0.13" stroke-linejoin="round"/>
<path d="M11.9997 15.7527C12.7997 15.7527 13.5597 15.6887 14.0077 15.5647C14.1957 15.5287 14.1957 15.4327 14.1957 15.3047C14.3877 15.2407 14.2917 15.0167 14.4237 15.0167C14.2877 15.0567 14.2637 14.7967 14.1037 14.8287C14.1037 14.6047 13.8757 14.5767 13.6877 14.6407C13.3077 14.7647 12.6357 14.7967 11.9997 14.7967C11.3597 14.7647 10.6957 14.7647 10.3117 14.6367C10.1237 14.5767 9.89968 14.6047 9.89968 14.8287C9.73968 14.7967 9.71168 15.0527 9.57968 15.0167C9.71168 15.0167 9.61168 15.2447 9.80368 15.3047C9.80368 15.4327 9.80368 15.5287 9.99568 15.5647C10.4357 15.6887 11.2037 15.7527 11.9997 15.7527Z" fill="white" stroke="#C09300" stroke-width="0.24" stroke-linecap="round" stroke-linejoin="round"/>
<path d="M10.9151 14.5403C11.1711 14.5763 11.4591 14.6043 11.6831 14.5763C11.8111 14.5763 11.9031 14.7963 11.6471 14.8283C11.4271 14.8563 11.0751 14.8283 10.8871 14.7963C10.6397 14.753 10.3941 14.6996 10.1511 14.6363C9.92707 14.5403 10.0871 14.3563 10.2151 14.3803C10.4434 14.4535 10.6776 14.507 10.9151 14.5403ZM13.0831 14.5403C12.8271 14.5763 12.5391 14.6043 12.3231 14.5763C12.1871 14.5763 12.0951 14.7963 12.3511 14.8283C12.5751 14.8563 12.9231 14.8283 13.1111 14.7963C13.2711 14.7643 13.6231 14.7043 13.8471 14.6363C14.0711 14.5403 13.9111 14.3563 13.7831 14.3803C13.5547 14.4535 13.3205 14.507 13.0831 14.5403Z" fill="white" stroke="#C09300" stroke-width="0.13" stroke-linecap="round" stroke-linejoin="round"/>
<path d="M10.1199 14.4165C9.92788 14.3805 9.83988 14.6045 9.89988 14.7325C9.92788 14.6685 10.0599 14.6685 10.0879 14.6045C10.1239 14.5085 10.0599 14.5085 10.1239 14.4165H10.1199ZM10.8879 15.0045C10.8879 14.8765 11.0119 14.8925 11.0119 14.7645C11.0119 14.7045 10.9799 14.6045 10.9159 14.6045C10.8826 14.6064 10.8511 14.6205 10.8275 14.6441C10.8039 14.6677 10.7898 14.6991 10.7879 14.7325C10.7599 14.8565 10.8879 14.8765 10.8879 15.0045ZM11.7959 14.6405C11.9839 14.6405 11.9639 14.8925 11.8759 15.0205C11.8759 14.9285 11.7159 14.8925 11.7159 14.8285C11.7159 14.7325 11.8599 14.7325 11.7959 14.6405ZM13.8759 14.4165C14.0719 14.3805 14.1639 14.6045 14.0999 14.7325C14.0719 14.6685 13.9399 14.6685 13.9119 14.6045C13.8759 14.5085 13.9399 14.5085 13.8759 14.4165ZM13.1199 15.0005C13.1199 14.8725 12.9919 14.8885 12.9919 14.7605C12.9919 14.7005 13.0239 14.6005 13.0879 14.6005C13.1212 14.6024 13.1527 14.6165 13.1763 14.6401C13.1999 14.6637 13.214 14.6951 13.2159 14.7285C13.2439 14.8525 13.1159 14.8725 13.1159 15.0005H13.1199ZM12.1999 14.6405C12.0119 14.6405 12.0319 14.8925 12.1199 15.0205C12.1199 14.9285 12.2799 14.8925 12.2799 14.8285C12.2799 14.7325 12.1359 14.7325 12.1999 14.6405Z" fill="white" stroke="#C09300" stroke-width="0.13" stroke-linecap="round" stroke-linejoin="round"/>
<path d="M10.1875 14.4797C10.2515 14.4797 10.3475 14.5077 10.3755 14.5437L10.1875 14.4797ZM10.5035 14.5757C10.5355 14.5757 10.6635 14.6037 10.7235 14.6397L10.5035 14.5757ZM11.6475 14.7037C11.5875 14.7037 11.4595 14.7037 11.4275 14.7317L11.6475 14.6997V14.7037ZM11.2995 14.7037C11.2635 14.6677 11.1395 14.6677 11.0755 14.7037H11.2995ZM13.8115 14.4797C13.7437 14.4806 13.6778 14.503 13.6235 14.5437L13.8115 14.4797ZM13.4995 14.5757C13.4595 14.5757 13.3395 14.6037 13.2755 14.6397L13.4995 14.5757ZM12.3515 14.7037C12.4115 14.7037 12.5395 14.7037 12.5755 14.7317L12.3515 14.6997V14.7037ZM12.6995 14.7037C12.7355 14.6677 12.8595 14.6677 12.9235 14.7037H12.6995Z" fill="white" stroke="#C09300" stroke-width="0.09" stroke-linecap="round" stroke-linejoin="round"/>
<path d="M10.1328 14.9839C10.1128 14.9799 10.1008 14.9599 10.1088 14.9439C10.1128 14.9159 10.1328 14.9039 10.1488 14.9119C10.1648 14.9119 10.1848 14.9359 10.1848 14.9439L10.1688 14.9719L10.1608 14.9759C10.1608 14.9839 10.1448 14.9839 10.1328 14.9839ZM12.3328 15.1399C12.3248 15.1399 12.3088 15.1199 12.3088 15.1119C12.3088 15.0959 12.3328 15.0719 12.3488 15.0719L12.3808 15.0879C12.3928 15.0999 12.3928 15.1239 12.3768 15.1359C12.3688 15.1439 12.3448 15.1439 12.3328 15.1359V15.1399ZM12.3448 15.2399C12.3288 15.2319 12.3248 15.2239 12.3208 15.2079C12.3208 15.1879 12.3208 15.1839 12.3408 15.1719L12.3568 15.1639L12.3728 15.1719C12.3888 15.1799 12.4008 15.1879 12.4008 15.2039C12.4008 15.2159 12.3888 15.2279 12.3728 15.2359C12.3608 15.2439 12.3568 15.2439 12.3448 15.2359V15.2399Z" fill="#C09300"/>
<path d="M10.3124 14.8C10.2964 14.8 10.2764 14.816 10.2644 14.824C10.2404 14.828 10.2084 14.844 10.1844 14.824C10.1604 14.82 10.1284 14.824 10.1244 14.856C10.1284 14.884 10.1644 14.896 10.1884 14.88C10.2044 14.86 10.2484 14.844 10.2564 14.88C10.2364 14.912 10.2404 14.948 10.2244 14.976C10.2244 14.996 10.2124 15.012 10.2044 15.028C10.1844 15.028 10.1644 15.028 10.1484 15.04C10.136 15.04 10.1238 15.0429 10.1126 15.0485C10.1016 15.054 10.0919 15.0621 10.0844 15.072C10.0684 15.096 10.0524 15.12 10.0484 15.152C10.0524 15.176 10.0884 15.184 10.1124 15.188L10.1924 15.212L10.3204 15.248C10.3844 15.268 10.4484 15.276 10.5124 15.292L10.5324 15.296C10.5604 15.304 10.5724 15.276 10.5724 15.256L10.6124 15.112C10.6204 15.092 10.6324 15.052 10.5964 15.06C10.5764 15.072 10.5564 15.092 10.5324 15.092C10.4964 15.092 10.5164 15.132 10.5324 15.144C10.5324 15.168 10.5244 15.196 10.5124 15.216C10.4884 15.228 10.4644 15.216 10.4404 15.208C10.4204 15.208 10.3724 15.196 10.3924 15.168L10.4124 15.096C10.4244 15.072 10.4244 15.044 10.4324 15.016C10.4164 14.988 10.3924 15.028 10.3724 15.032C10.3564 15.04 10.3084 15.044 10.3324 15.072C10.3564 15.088 10.3404 15.116 10.3324 15.14C10.3324 15.168 10.3004 15.18 10.2764 15.168C10.2524 15.168 10.2164 15.148 10.2364 15.124L10.2564 15.052L10.2844 14.972C10.2844 14.944 10.2964 14.924 10.3084 14.9C10.3084 14.872 10.3284 14.848 10.3284 14.82C10.3284 14.808 10.3204 14.804 10.3124 14.804V14.8ZM10.1644 15.092C10.1663 15.091 10.1683 15.0904 10.1704 15.0904C10.1726 15.0904 10.1746 15.091 10.1764 15.092C10.1844 15.1 10.1844 15.108 10.1764 15.116L10.1644 15.124C10.1444 15.124 10.1404 15.12 10.1404 15.112C10.1404 15.108 10.1404 15.104 10.1524 15.1C10.1573 15.0965 10.1627 15.0938 10.1684 15.092H10.1644ZM10.1244 15.292C10.1044 15.276 10.1084 15.264 10.1364 15.24C10.1524 15.232 10.1564 15.232 10.1724 15.244C10.1964 15.264 10.1964 15.276 10.1724 15.296C10.1644 15.304 10.1604 15.304 10.1524 15.304C10.1404 15.304 10.1364 15.304 10.1244 15.296V15.292ZM10.2444 15.332C10.2355 15.3293 10.228 15.3231 10.2235 15.3149C10.219 15.3067 10.2179 15.297 10.2204 15.288C10.2284 15.272 10.2324 15.268 10.2564 15.268C10.2844 15.268 10.2884 15.272 10.2924 15.296C10.2924 15.312 10.2924 15.316 10.2804 15.324C10.276 15.3276 10.2708 15.3301 10.2653 15.3315C10.2598 15.3329 10.254 15.333 10.2484 15.332H10.2444ZM13.8124 15.332C13.8044 15.328 13.8004 15.324 13.8004 15.312C13.8004 15.296 13.8084 15.284 13.8324 15.276C13.8564 15.264 13.8724 15.264 13.8804 15.284C13.8924 15.308 13.8924 15.316 13.8764 15.332C13.8684 15.344 13.8644 15.344 13.8444 15.344C13.8244 15.344 13.8204 15.344 13.8124 15.336V15.332ZM10.4124 15.38C10.3964 15.38 10.3884 15.364 10.3884 15.348C10.3884 15.336 10.3884 15.332 10.3964 15.324L10.4204 15.316L10.4444 15.32C10.4644 15.336 10.4684 15.352 10.4564 15.368C10.4444 15.384 10.4324 15.384 10.4084 15.38H10.4124ZM11.2844 15.42L11.2764 15.408C11.2764 15.384 11.2764 15.364 11.2844 15.34C11.2884 15.32 11.2844 15.3 11.2924 15.28L11.3084 15.168C11.3084 15.148 11.3084 15.128 11.3164 15.112C11.3204 15.08 11.3164 15.052 11.3244 15.024C11.3244 15.012 11.3364 14.984 11.3484 15C11.3644 15.024 11.3844 15.04 11.4044 15.06C11.4204 15.072 11.4044 15.088 11.3924 15.092C11.3764 15.096 11.3724 15.116 11.3724 15.132L11.3644 15.18C11.3644 15.208 11.3644 15.232 11.3564 15.26L11.3524 15.332L11.3444 15.38C11.3444 15.396 11.3444 15.416 11.3284 15.424C11.3164 15.432 11.2964 15.432 11.2884 15.42H11.2844ZM12.4724 15.028L12.4204 15.076C12.3964 15.096 12.4404 15.104 12.4444 15.12C12.4524 15.144 12.4524 15.168 12.4524 15.192C12.4604 15.216 12.4644 15.236 12.4604 15.26C12.4604 15.288 12.4284 15.28 12.4124 15.296C12.3924 15.304 12.3844 15.324 12.3724 15.336C12.3629 15.3561 12.3575 15.3778 12.3564 15.4C12.3564 15.42 12.3444 15.44 12.3564 15.456L12.3604 15.464H12.3804L12.4404 15.46C12.4884 15.452 12.5404 15.452 12.5884 15.448L12.6764 15.44C12.7004 15.444 12.7124 15.42 12.7124 15.4C12.6964 15.372 12.7084 15.344 12.6964 15.32C12.6884 15.288 12.6924 15.26 12.6884 15.232C12.6884 15.208 12.6604 15.2 12.6484 15.216C12.6324 15.232 12.6084 15.236 12.6004 15.252C12.5884 15.276 12.6244 15.276 12.6324 15.292L12.6364 15.352C12.6404 15.376 12.6164 15.376 12.5964 15.38C12.5764 15.388 12.5484 15.392 12.5364 15.368C12.5284 15.348 12.5284 15.328 12.5284 15.308C12.5284 15.268 12.5164 15.236 12.5164 15.2C12.5164 15.16 12.5044 15.116 12.5044 15.072C12.5044 15.052 12.5004 15.024 12.4724 15.028ZM12.4484 15.356H12.4604V15.388L12.4484 15.392C12.4432 15.3937 12.4378 15.395 12.4324 15.396C12.4298 15.3962 12.4271 15.3962 12.4244 15.396C12.4164 15.388 12.4164 15.376 12.4284 15.364L12.4484 15.356ZM11.2484 14.988C11.2364 14.988 11.2164 15.016 11.2004 15.012C11.1644 15.016 11.1684 15.052 11.1964 15.064V15.096C11.2004 15.128 11.1804 15.156 11.1844 15.188C11.1844 15.22 11.1724 15.256 11.1724 15.292C11.1604 15.328 11.1604 15.364 11.1564 15.4C11.1524 15.432 11.1284 15.42 11.1084 15.412V15.372C11.1124 15.336 11.0884 15.328 11.0604 15.324C11.0324 15.324 11.0204 15.304 11.0284 15.28C11.0404 15.264 11.0684 15.268 11.0884 15.268C11.1284 15.276 11.1244 15.224 11.1044 15.204C11.0884 15.18 11.0564 15.164 11.0484 15.14C11.0484 15.108 11.0284 15.072 11.0004 15.056C10.9564 15.052 10.9204 15.088 10.9084 15.128C10.8884 15.128 10.8684 15.136 10.8524 15.144C10.8244 15.152 10.7844 15.2 10.8244 15.22C10.8444 15.224 10.9124 15.24 10.8804 15.268C10.8644 15.3 10.8324 15.3 10.8044 15.292C10.7764 15.292 10.7444 15.276 10.7444 15.244C10.7404 15.212 10.7404 15.18 10.7284 15.152C10.7204 15.12 10.6844 15.128 10.6804 15.16C10.6524 15.18 10.6564 15.216 10.6764 15.24C10.6884 15.268 10.6764 15.304 10.6644 15.328C10.6564 15.368 10.6164 15.368 10.5884 15.376C10.5764 15.384 10.5244 15.376 10.5444 15.404C10.5744 15.4178 10.608 15.422 10.6404 15.416C10.6724 15.416 10.7004 15.388 10.7204 15.36C10.7404 15.34 10.7764 15.352 10.8084 15.352C10.8364 15.352 10.8684 15.372 10.9004 15.356C10.9084 15.336 10.9484 15.296 10.9604 15.336C10.9604 15.372 10.9884 15.388 11.0204 15.384C11.0564 15.384 11.0404 15.408 11.0404 15.432C11.0404 15.468 11.0684 15.488 11.1004 15.504H11.1324C11.1604 15.492 11.1924 15.48 11.2044 15.448C11.2164 15.42 11.2164 15.388 11.2244 15.36C11.2324 15.316 11.2404 15.268 11.2404 15.224C11.2524 15.184 11.2484 15.14 11.2564 15.096L11.2684 15.004C11.2684 14.984 11.2604 14.984 11.2484 14.988ZM10.9804 15.152C10.9844 15.152 10.9884 15.16 10.9884 15.172C10.9884 15.188 10.9964 15.2 11.0084 15.204V15.216L10.9764 15.224C10.9564 15.224 10.9404 15.216 10.9284 15.204L10.9204 15.196L10.9324 15.188L10.9524 15.168C10.9644 15.156 10.9724 15.152 10.9804 15.152ZM13.6204 14.836C13.5974 14.8377 13.5746 14.8417 13.5524 14.848C13.5124 14.848 13.4924 14.888 13.5324 14.912C13.5564 14.972 13.5924 14.896 13.6324 14.904C13.6884 14.912 13.6924 14.976 13.7044 15.024C13.7044 15.068 13.7204 15.112 13.7324 15.156C13.7724 15.2 13.7044 15.228 13.6764 15.196C13.6524 15.168 13.5964 15.136 13.5684 15.172C13.5324 15.188 13.5284 15.236 13.5004 15.252C13.4524 15.264 13.4484 15.204 13.4204 15.18C13.3964 15.144 13.3524 15.14 13.3164 15.132C13.3004 15.096 13.3084 15.036 13.2764 15.012C13.2444 15.024 13.1884 15.08 13.2364 15.108C13.2764 15.148 13.2164 15.164 13.1964 15.188C13.1644 15.224 13.1564 15.268 13.1564 15.308C13.1044 15.336 13.0964 15.276 13.0884 15.24C13.0884 15.196 13.0484 15.208 13.0204 15.224C12.9804 15.24 12.9644 15.276 12.9404 15.304V15.384C12.9484 15.42 12.9884 15.404 13.0124 15.4C13.0524 15.384 13.0684 15.428 13.0364 15.452C13.0124 15.476 12.9484 15.464 12.9564 15.508H13.0204C13.0604 15.496 13.1084 15.464 13.1124 15.416C13.1204 15.376 13.1804 15.38 13.2124 15.372C13.2524 15.36 13.3044 15.356 13.3164 15.412C13.3444 15.44 13.4044 15.472 13.4364 15.432C13.4517 15.4224 13.4639 15.4086 13.4717 15.3924C13.4794 15.3761 13.4825 15.358 13.4804 15.34C13.4764 15.308 13.5324 15.308 13.5484 15.328C13.5684 15.36 13.6324 15.352 13.6644 15.328C13.6964 15.308 13.7044 15.264 13.7524 15.264L13.9684 15.204C14.0244 15.192 13.9604 15.156 13.9444 15.132C13.9044 15.112 13.8644 15.2 13.8164 15.156C13.7764 15.128 13.7804 15.076 13.7684 15.032C13.7564 14.976 13.7604 14.912 13.7204 14.872C13.6964 14.844 13.6564 14.836 13.6204 14.836ZM13.3484 15.216C13.3524 15.216 13.3604 15.216 13.3684 15.224C13.3844 15.232 13.3964 15.248 13.3964 15.264C13.3964 15.272 13.3964 15.272 13.3844 15.276L13.3644 15.284C13.3564 15.284 13.3364 15.272 13.3364 15.264V15.248C13.3284 15.232 13.3284 15.232 13.3364 15.224L13.3484 15.216ZM13.6084 15.232C13.6244 15.232 13.6324 15.232 13.6404 15.244C13.6444 15.26 13.6404 15.268 13.6244 15.276L13.6044 15.284L13.5884 15.272C13.5804 15.268 13.5764 15.264 13.5764 15.256C13.5764 15.244 13.5924 15.232 13.6084 15.228V15.232ZM13.2484 15.232C13.2564 15.232 13.2604 15.232 13.2644 15.24C13.2724 15.248 13.2764 15.252 13.2764 15.264V15.288C13.2764 15.3 13.2764 15.296 13.2524 15.296C13.2284 15.296 13.2244 15.296 13.2244 15.272C13.2244 15.256 13.2244 15.252 13.2364 15.244C13.2404 15.236 13.2484 15.236 13.2524 15.236L13.2484 15.232ZM13.0324 15.292C13.0362 15.2932 13.0396 15.2952 13.0424 15.298C13.0452 15.3008 13.0473 15.3043 13.0484 15.308C13.0484 15.32 13.0484 15.328 13.0404 15.332C13.0284 15.336 13.0084 15.34 13.0004 15.332C13.0003 15.3307 13.0003 15.3294 13.0004 15.328C12.9924 15.324 12.9924 15.32 13.0004 15.316V15.312L13.0084 15.3C13.0109 15.2962 13.0146 15.2932 13.019 15.2918C13.0234 15.2903 13.0281 15.2904 13.0324 15.292ZM13.4004 15.34L13.4204 15.344V15.368H13.3724L13.3684 15.36C13.3684 15.352 13.3684 15.348 13.3764 15.344L13.4004 15.34ZM12.7164 15.532C12.7124 15.532 12.7044 15.528 12.7124 15.524C12.7164 15.512 12.7324 15.508 12.7444 15.5C12.7662 15.4917 12.7855 15.478 12.8004 15.46C12.8004 15.444 12.8164 15.436 12.8164 15.42L12.8124 15.364C12.807 15.3472 12.7956 15.333 12.7804 15.324C12.7684 15.32 12.7524 15.316 12.7484 15.3C12.7484 15.288 12.7604 15.276 12.7644 15.264L12.7884 15.216C12.8004 15.204 12.8164 15.216 12.8204 15.224L12.8404 15.264C12.8524 15.276 12.8604 15.288 12.8644 15.304C12.8724 15.32 12.8804 15.332 12.8804 15.344L12.8884 15.396C12.8884 15.416 12.8884 15.44 12.8804 15.46L12.8564 15.492C12.8444 15.504 12.8324 15.516 12.8164 15.52C12.8044 15.524 12.7964 15.536 12.7804 15.536H12.7204L12.7164 15.532ZM12.4404 15.548C12.4324 15.54 12.4284 15.536 12.4284 15.524C12.4284 15.512 12.4284 15.512 12.4404 15.5C12.4564 15.484 12.4644 15.484 12.4964 15.5C12.5244 15.516 12.5364 15.516 12.5364 15.504C12.5404 15.496 12.5564 15.484 12.5764 15.484C12.5838 15.4843 12.5909 15.4872 12.5964 15.492C12.6044 15.5 12.6084 15.504 12.6084 15.52C12.6084 15.54 12.6084 15.54 12.5964 15.552C12.5844 15.56 12.5844 15.56 12.5684 15.56C12.5613 15.5596 12.5545 15.5572 12.5488 15.5529C12.5431 15.5486 12.5388 15.5428 12.5364 15.536C12.5364 15.528 12.5364 15.524 12.5284 15.532L12.5204 15.536C12.5124 15.536 12.4964 15.548 12.4884 15.556L12.4684 15.56C12.4524 15.56 12.4524 15.56 12.4404 15.548ZM11.6484 15.192C11.6204 15.192 11.5924 15.216 11.5884 15.244C11.5964 15.272 11.6204 15.304 11.6044 15.332C11.6164 15.372 11.5724 15.388 11.5444 15.368C11.5284 15.328 11.5204 15.288 11.4924 15.248C11.4604 15.24 11.4484 15.292 11.4244 15.312C11.4364 15.34 11.4684 15.368 11.4724 15.404C11.4804 15.444 11.4564 15.484 11.4284 15.5C11.4004 15.528 11.3604 15.52 11.3284 15.524C11.2884 15.548 11.3564 15.556 11.3764 15.556C11.4164 15.56 11.4604 15.556 11.4964 15.524C11.5244 15.512 11.5204 15.456 11.5564 15.452L11.7484 15.464C11.7804 15.472 11.8324 15.46 11.8564 15.484C11.8564 15.524 11.8964 15.556 11.9324 15.572C11.9524 15.58 11.9724 15.552 11.9924 15.548C12.0324 15.536 12.0204 15.488 12.0444 15.468H12.2444C12.2524 15.468 12.2564 15.448 12.2684 15.44L12.2604 15.364C12.2484 15.332 12.2604 15.292 12.2404 15.264C12.2044 15.256 12.1764 15.284 12.1444 15.288C12.1044 15.304 12.0764 15.34 12.0724 15.38C12.0524 15.416 12.0164 15.372 12.0324 15.34L12.0284 15.3C12.0084 15.28 11.9724 15.288 11.9444 15.284L11.8244 15.276C11.7844 15.276 11.7484 15.28 11.7164 15.272C11.6764 15.272 11.6764 15.232 11.6764 15.2C11.6684 15.194 11.6584 15.1911 11.6484 15.192ZM11.7284 15.34L11.7684 15.344H11.8204C11.8604 15.352 11.9004 15.352 11.9404 15.352C11.9484 15.352 11.9564 15.36 11.9644 15.368V15.448C11.9644 15.46 11.9644 15.476 11.9564 15.48C11.9544 15.4832 11.9516 15.486 11.9484 15.488C11.9426 15.487 11.937 15.4847 11.9322 15.4812C11.9273 15.4778 11.9233 15.4732 11.9204 15.468V15.412C11.9125 15.4053 11.9028 15.4012 11.8924 15.4L11.7884 15.396L11.7084 15.392C11.6964 15.388 11.6804 15.392 11.6724 15.376C11.6644 15.368 11.6764 15.352 11.6884 15.348C11.701 15.3424 11.7147 15.3397 11.7284 15.34ZM12.1804 15.352C12.1844 15.352 12.1884 15.352 12.1884 15.364L12.1964 15.384C12.1964 15.388 12.1964 15.392 12.1884 15.392C12.1684 15.4 12.1484 15.4 12.1404 15.392C12.1404 15.388 12.1404 15.372 12.1484 15.368L12.1804 15.352Z" fill="#C09300"/>
<path d="M12.0009 13.0871C13.3049 12.0871 13.1929 10.6151 13.1929 10.6151L13.0929 10.6231C12.8169 10.6231 12.1649 10.4631 12.0129 10.2671C11.8529 10.4471 11.1809 10.6271 10.9089 10.6271L10.8089 10.6151C10.8089 10.6151 10.6929 12.0831 12.0009 13.0871Z" fill="white" stroke="#C09300" stroke-width="0.11"/>
<path d="M13.0885 10.7191H13.0565C12.8085 10.7191 12.2325 10.5951 12.0085 10.4031C11.7765 10.5791 11.1885 10.7231 10.9445 10.7231C10.9337 10.7227 10.923 10.7213 10.9125 10.7191C10.9147 10.9719 10.9496 11.2233 11.0165 11.4671C11.177 12.0544 11.5219 12.5747 12.0005 12.9511C12.4794 12.5732 12.8243 12.0517 12.9845 11.4631C13.051 11.2206 13.086 10.9705 13.0885 10.7191Z" fill="white" stroke="#C09300" stroke-width="0.09"/>
<path d="M11.5765 10.5992C11.3616 10.6692 11.1382 10.7095 10.9125 10.7192L10.9165 10.8832C10.9302 11.0794 10.9637 11.2737 11.0165 11.4632C11.124 11.8566 11.315 12.2222 11.5765 12.5352V10.5992ZM12.4005 10.5992V12.5672C12.6746 12.247 12.874 11.8699 12.9845 11.4632C13.0373 11.2737 13.0708 11.0794 13.0845 10.8832L13.0885 10.7232H13.0565C12.9045 10.7232 12.6405 10.6752 12.4005 10.5952V10.5992Z" fill="#C09300"/>
<path d="M12.4927 10.1195C12.5207 10.1235 12.4567 9.97954 12.4567 9.97954C12.5287 10.0515 12.7927 10.0715 12.7927 10.0715C12.6327 9.99954 12.4727 9.46754 12.4927 9.03954C12.5087 8.61554 12.4327 8.44754 12.3727 8.38354C12.2927 8.30354 12.0327 8.23154 11.8647 8.22354C11.7647 8.21954 11.7847 8.29554 11.7847 8.29554C11.6047 8.25154 11.4247 8.23154 11.3447 8.28754C11.2727 8.33554 11.2567 8.58754 11.3127 8.54354C11.4447 8.43554 11.5607 8.53554 11.6407 8.65154C11.7127 8.75154 11.7087 9.03954 11.6047 9.37954C11.5126 9.63658 11.3773 9.87602 11.2047 10.0875C11.3647 10.0875 11.5887 9.94754 11.5887 9.94754L11.5367 10.1675C11.7047 10.0875 11.8367 9.96354 11.8367 9.96354L11.9967 10.1315C12.0487 10.0595 12.1567 9.96354 12.1567 9.96354C12.1567 9.96354 12.2887 10.1035 12.4927 10.1235V10.1195Z" fill="white" stroke="#C09300" stroke-width="0.12"/>
<path d="M11.8451 9.10276C11.8451 9.10276 11.7571 9.75876 11.5891 9.94276M11.9891 9.08276C11.9891 9.08276 11.9491 9.75076 11.8371 9.96276M12.1131 9.11076C12.1131 9.11076 12.1131 9.83876 12.1531 9.96276M12.2731 9.14676C12.2731 9.14676 12.3051 9.75876 12.4571 9.97876" stroke="#C09300" stroke-width="0.13"/>
<path d="M11.6805 8.78409C11.6769 8.73769 11.6633 8.69265 11.6405 8.65209C11.5605 8.53209 11.4445 8.43609 11.3125 8.54409C11.3125 8.54409 11.3565 8.40409 11.4565 8.40009C11.5285 8.39609 11.7005 8.45609 11.8525 8.71209C11.8525 8.71209 11.7405 8.68809 11.7125 8.71209C11.6645 8.75209 11.6845 8.78409 11.6845 8.78409H11.6805Z" fill="#C09300" stroke="#C09300" stroke-width="0.03"/>
<path d="M11.2969 8.37154C11.3089 8.33154 11.3249 8.29954 11.3489 8.28754C11.4289 8.23154 11.6049 8.24754 11.7849 8.29554C11.7849 8.29554 11.7689 8.21954 11.8649 8.22354C12.0329 8.23154 12.2889 8.30354 12.3689 8.38354C12.3945 8.41166 12.4148 8.44418 12.4289 8.47954C12.3889 8.42354 12.2769 8.42754 12.2489 8.43154C12.2089 8.43554 12.1809 8.43154 12.1249 8.44754C12.0969 8.45554 12.0569 8.46354 12.0329 8.47954C12.0169 8.49554 12.0009 8.54354 11.9769 8.54354C11.9369 8.54354 11.9369 8.53554 11.9249 8.52354C11.9129 8.50354 11.9049 8.47954 11.8889 8.48354C11.8489 8.48754 11.7769 8.45554 11.6889 8.38354C11.5969 8.31154 11.5609 8.29554 11.4489 8.30354C11.3289 8.31154 11.2969 8.37954 11.2969 8.37954V8.37154Z" fill="#C09300" stroke="#C09300" stroke-width="0.03"/>
<path d="M11.9527 8.47564C11.9792 8.47564 12.0007 8.45416 12.0007 8.42764C12.0007 8.40112 11.9792 8.37964 11.9527 8.37964C11.9262 8.37964 11.9047 8.40112 11.9047 8.42764C11.9047 8.45416 11.9262 8.47564 11.9527 8.47564Z" fill="white"/>
</g>
</g>
</g>
<defs>
<clipPath id="clip0_69_4673">
<rect width="24" height="24" rx="12" fill="white"/>
</clipPath>
<clipPath id="clip1_69_4673">
<rect width="32" height="24" fill="white" transform="translate(-4)"/>
</clipPath>
</defs>
</svg>
