<svg width="24" height="24" viewBox="0 0 24 24" fill="none" xmlns="http://www.w3.org/2000/svg">
<g clip-path="url(#clip0_69_13124)">
<path fill-rule="evenodd" clip-rule="evenodd" d="M-0.400024 -3.59985H12.0009H24.4017V11.9995H-0.400024V-3.59985Z" fill="black"/>
<path fill-rule="evenodd" clip-rule="evenodd" d="M-0.400024 11.999H24.4017V27.5983H-0.400024V11.999Z" fill="#007A3D"/>
<path fill-rule="evenodd" clip-rule="evenodd" d="M-0.400024 8.16553H24.4017V15.8334H-0.400024V8.16553Z" fill="white"/>
<path fill-rule="evenodd" clip-rule="evenodd" d="M-0.400024 2.80005L11.999 11.9994L-0.400024 21.1987V2.80005Z" fill="#C4111B"/>
<path d="M18.1981 14.4534C19.568 14.4534 20.6786 13.3548 20.6786 11.9995C20.6786 10.6443 19.568 9.54565 18.1981 9.54565C16.8281 9.54565 15.7175 10.6443 15.7175 11.9995C15.7175 13.3548 16.8281 14.4534 18.1981 14.4534Z" fill="#C4111B"/>
<path d="M19.1305 14.4534C20.5005 14.4534 21.611 13.3548 21.611 11.9995C21.611 10.6443 20.5005 9.54565 19.1305 9.54565C17.7605 9.54565 16.65 10.6443 16.65 11.9995C16.65 13.3548 17.7605 14.4534 19.1305 14.4534Z" fill="white"/>
<path fill-rule="evenodd" clip-rule="evenodd" d="M17.532 13.4845L18.592 12.7386L19.641 13.4953L19.2476 12.2701L20.304 11.517L19.0036 11.5098L18.6029 10.2847L18.1949 11.5062L16.8946 11.499L17.94 12.2629L17.5357 13.488L17.532 13.4845Z" fill="#C4111B"/>
</g>
<defs>
<clipPath id="clip0_69_13124">
<rect width="24" height="24" rx="12" fill="white"/>
</clipPath>
</defs>
</svg>
