<svg width="24" height="24" viewBox="0 0 24 24" fill="none" xmlns="http://www.w3.org/2000/svg">
<g clip-path="url(#clip0_69_5633)">
<path fill-rule="evenodd" clip-rule="evenodd" d="M0 3.19995H24V21.2H0V3.19995Z" fill="#BE0027"/>
<path fill-rule="evenodd" clip-rule="evenodd" d="M0 21.2L12 27.5943L24 21.1887V12.2L0 21.2Z" fill="#B4D7F4"/>
<path fill-rule="evenodd" clip-rule="evenodd" d="M0 3.20004L12 -3.19434L24 3.21129V12.2L0 3.20004Z" fill="#239E46"/>
<path fill-rule="evenodd" clip-rule="evenodd" d="M6.98272 16.715C6.58147 16.8275 6.35272 17.1388 6.35647 17.4313L8.33647 17.4237C8.35147 17.1088 8.09272 16.8163 7.69897 16.7C9.63397 16.6625 11.314 15.935 11.6215 15.47C11.3215 15.3388 10.969 15.5487 10.7215 15.5C11.3102 15.2263 13.084 14.0787 12.7952 12.8487C12.5702 13.5312 11.8952 14.0975 11.6027 14.2513C12.2665 13.2463 13.1702 12.1963 12.3865 11.3863C12.424 11.855 12.0865 12.3725 11.9365 12.4138C12.3227 11.3488 12.6865 10.0138 11.8577 9.13625C11.9665 9.455 11.9215 10.3513 11.7715 10.3925C11.7265 9.66875 11.6027 8.15 10.8415 8.16875C11.0815 8.38625 11.1865 8.97125 11.194 9.56375C11.0393 9.15368 10.7632 8.80049 10.4027 8.55125C10.0264 7.9004 9.49093 7.35587 8.84647 6.96875C8.91397 7.445 8.97022 7.82 9.63397 8.315C9.28897 8.2925 8.94397 7.63625 8.57272 7.6175C8.27647 7.6025 8.04772 7.88375 7.56397 7.7225C7.61647 7.88 7.84147 7.95125 7.89022 8.0675C7.78522 8.1425 7.54147 8.05625 7.33897 7.955C7.62022 8.33 8.05147 8.555 8.41897 8.48C8.85772 8.3975 9.32647 8.4425 9.77647 8.6975C9.49885 8.75558 9.21304 8.7632 8.93272 8.72C9.19147 8.9825 9.36397 9.15875 9.81772 9.155C10.219 9.155 10.4327 8.9375 10.534 9.0725C10.789 9.3725 10.9577 9.6725 11.1715 10.025C10.7027 10.0738 10.8452 9.49625 10.324 9.2C10.0277 9.8 10.6615 10.52 11.0852 10.82C11.0732 11.2299 11.1648 11.6361 11.3515 12.0013C11.4827 12.245 11.6515 12.4963 11.5877 13.0475C11.329 12.86 11.0815 12.23 11.1752 11.7313C10.8527 11.8175 10.7252 12.3838 10.8752 12.6688C10.9877 12.8825 11.0627 13.2988 10.9352 13.4825C10.8077 13.655 10.7965 13.6325 10.7965 14.0075C10.8002 14.225 10.6765 14.4875 10.4777 14.6712C10.5359 14.4794 10.55 14.2768 10.519 14.0788C10.3615 14.3488 9.96022 14.6263 9.83647 14.9188C9.71272 15.2075 9.68272 15.7137 9.08647 15.83C8.31397 15.98 8.04772 16.115 7.55647 16.3175C7.50022 15.9425 7.66522 15.155 7.98022 15.2038C8.28397 15.2563 9.21772 14.8813 8.88022 14.0975C8.81647 14.345 8.59897 14.585 8.35897 14.5963C8.61772 14.2663 9.07147 13.9213 8.85022 13.3663C8.71627 13.6458 8.5039 13.8803 8.23897 14.0413C8.55397 13.4413 8.27647 13.2538 7.90147 13.7563C7.75897 13.9475 7.67272 14.3338 7.58272 14.825C7.43272 14.4275 7.44397 13.9025 7.26772 13.475C7.08772 13.0138 7.51147 12.8938 7.71022 12.9313C8.19772 13.0625 9.01897 13.0625 8.95897 12.2525C8.74522 12.5262 8.37772 12.6087 7.97647 12.515C8.42647 12.185 8.77897 11.5662 8.27647 11.24C8.254 11.4314 8.18431 11.6141 8.0737 11.7719C7.96306 11.9296 7.81498 12.0574 7.64272 12.1438C7.56217 11.8394 7.55833 11.5199 7.63147 11.2137C7.43647 11.4237 7.29397 11.8513 7.17772 12.3463C7.16647 11.8587 7.26022 11.51 7.32772 11.2475C7.43272 10.8688 7.68772 11.1163 8.07772 11.1425C8.46022 11.165 8.97772 10.955 8.88022 10.4413C8.75272 10.6475 8.48647 10.7263 8.21647 10.7038C8.54272 10.505 9.10897 10.1563 8.79772 9.61625C8.66647 9.81875 8.62522 9.99125 8.24647 10.055C8.34397 9.83 8.35897 9.50375 8.65897 9.38C8.13397 9.27125 7.83397 9.61625 7.67647 10.1563C7.61647 9.78125 7.54147 9.64625 7.52647 9.36875C7.81147 9.0575 7.84147 8.43875 7.22647 8.30375C7.18615 8.52155 7.20163 8.74604 7.27147 8.95625C6.98272 8.78375 6.57772 8.69 6.30397 8.93C6.49147 9.12875 6.77272 9.305 7.21147 9.0875C7.10647 9.425 6.83647 9.36875 6.46897 9.2375C6.69397 9.66125 6.97897 9.73625 7.29397 9.6875C7.45897 10.1225 7.46647 10.4525 6.98272 11.0825C7.00522 10.6925 6.97897 10.4 6.66772 10.0813C6.39772 9.81875 6.18022 10.0925 6.60022 10.6738C6.34522 10.4863 6.06022 10.1112 5.97397 9.7325C5.89147 10.1975 5.96647 10.7488 6.22522 11.06C6.10147 11.1913 5.96272 11.045 5.75647 10.7225C5.83147 11.75 6.27022 11.9488 6.85897 11.72C6.87397 12.2825 6.87397 12.8038 6.90772 13.4825C6.56647 12.9875 6.13147 12.62 5.89147 12.53C5.81647 12.8038 6.09772 13.1675 6.25897 13.3663C6.01522 13.3138 5.49022 12.9163 5.49022 12.9163C5.43772 13.37 6.02647 13.7938 6.40897 13.9813C5.95897 13.9625 5.76022 13.7938 5.47147 13.5163C5.47897 14.7838 6.84397 14.5625 7.10272 14.3675L7.21522 16.3363C6.82897 16.2688 6.85897 16.1488 6.52897 16.1225C5.61022 16.085 4.88272 15.02 4.64272 14.2362C4.57147 14.3637 4.62772 14.4988 4.56397 14.66C4.41397 14.2738 4.22647 13.775 3.96772 13.5425C4.03522 13.7675 4.04272 13.9963 4.02022 14.4163C3.93022 14.1463 3.85147 14.06 3.84397 13.7413C3.84772 13.4975 4.08022 13.3175 4.06897 12.9725C4.05772 12.7213 3.82897 12.1738 3.79522 11.7538C3.68272 12.1888 3.61522 12.6463 3.44272 12.9163C3.52897 12.4513 3.50272 12.1288 3.64522 11.8175C3.81022 11.4913 3.94897 11.195 3.84022 10.865C3.73522 10.9925 3.76897 11.1087 3.50272 11.42C3.44647 11.0825 3.84772 10.5387 4.23772 10.3212C4.51147 10.1787 4.85647 9.66125 4.63147 9.30875C4.37272 9.49625 4.25647 9.74375 3.89272 10.1712C4.15522 9.15875 4.83022 8.88875 5.63647 8.885C5.81272 8.885 6.17272 8.82125 6.27397 8.585C6.04897 8.67125 5.77897 8.6825 5.53897 8.6375C5.71522 8.37875 6.07897 8.4125 6.42397 8.4125C6.69022 8.4125 7.11022 8.375 7.27897 7.9925C6.90841 8.13704 6.50191 8.16194 6.11647 8.06375C6.63022 7.80125 7.42897 7.77125 7.84147 7.4225C7.37272 7.07375 6.20272 7.505 5.46397 8.01125C5.67022 7.82375 5.99647 7.48625 6.17647 7.21625C5.77147 7.02125 4.75147 8.15375 4.39897 8.82875C4.06147 9.01625 3.93022 9.31625 3.79897 9.5225C3.97522 8.91875 3.99397 8.48 4.14397 7.985C3.00022 8.375 3.47272 10.4975 3.22522 11.0075C3.25522 10.445 3.22897 9.72875 3.00022 9.3575C2.64771 9.6275 2.61771 11.2137 2.94771 12.5338C2.82771 12.1813 2.60271 11.8513 2.53146 11.42C2.00646 12.3725 2.83896 13.5012 3.53272 14.39C3.00772 14.1163 2.49396 13.5312 2.15271 13.04C2.24646 14.75 4.02772 15.1025 4.30522 15.5225C3.93022 15.3463 3.21397 15.0013 2.90646 15.365C3.33364 15.4442 3.74362 15.5978 4.11772 15.8188C4.58272 16.3963 5.45647 16.6512 6.98272 16.715Z" fill="#F3E295"/>
</g>
<defs>
<clipPath id="clip0_69_5633">
<rect width="24" height="24" rx="12" fill="white"/>
</clipPath>
</defs>
</svg>
