<svg width="24" height="24" viewBox="0 0 24 24" fill="none" xmlns="http://www.w3.org/2000/svg">
<g clip-path="url(#clip0_69_6117)">
<g clip-path="url(#clip1_69_6117)">
<mask id="mask0_69_6117" style="mask-type:luminance" maskUnits="userSpaceOnUse" x="-4" y="0" width="32" height="24">
<path d="M28 0H-4V24H28V0Z" fill="white"/>
</mask>
<g mask="url(#mask0_69_6117)">
<path fill-rule="evenodd" clip-rule="evenodd" d="M-4 0H28V24H-4V0Z" fill="white"/>
<path d="M28 20.5054L0.585 -0.00463867H-4V3.41536L23.52 24.0004H28V20.5104" fill="#0099CC"/>
<path d="M11.8207 17.6145C8.62065 17.6145 8.72065 14.5995 8.72065 14.5995V9.95947H14.9207V14.5995C14.9207 14.5995 15.0307 17.6145 11.8207 17.6145Z" fill="#005BBF"/>
<path d="M11.8193 17.6155C8.61931 17.6155 8.72067 14.5996 8.72067 14.5996V9.96094H14.9233V14.5996C14.9233 14.5996 15.03 17.6155 11.8193 17.6155Z" stroke="black" stroke-width="0.133391"/>
<path d="M11.7897 7.04917C11.7897 7.04917 11.1297 6.72417 10.5047 7.19917C10.5047 7.19917 9.37967 7.03417 9.29467 8.11417C9.29467 8.15417 9.28468 8.23417 9.30468 8.26417C9.32968 8.28417 9.34968 8.32917 9.34968 8.35917C9.34968 8.38917 9.36468 8.40917 9.37468 8.41917C9.37468 8.43417 9.39468 8.45417 9.40468 8.50917C9.40468 8.56917 9.38968 8.59417 9.45468 8.65417C9.50468 8.70417 9.50468 8.86917 9.50468 8.91917C9.50468 8.96917 9.53468 9.09417 9.55468 9.11917C9.58468 9.14917 9.62468 9.21917 9.62468 9.27917C9.62468 9.32917 9.64968 9.48917 9.63468 9.52917C9.62468 9.56917 9.69968 9.61917 9.76468 9.63917C9.82968 9.65917 10.6147 9.91917 11.7697 9.89417C12.9197 9.87917 13.3397 9.81417 13.8197 9.64417C13.8447 9.63629 13.8663 9.62009 13.8808 9.59825C13.8954 9.57645 13.902 9.55029 13.8997 9.52417C13.8914 9.46877 13.8966 9.41217 13.9147 9.35917C13.9347 9.32917 14.0747 9.10917 14.0447 9.07417C14.0147 9.02917 14.0147 8.94417 14.0447 8.91417C14.0697 8.87917 14.1547 8.71417 14.1697 8.64917C14.1847 8.58417 14.1897 8.49917 14.2197 8.48417C14.2497 8.45917 14.2597 8.38417 14.2697 8.36417C14.2824 8.33137 14.303 8.30217 14.3297 8.27917C14.3297 8.27917 14.3797 8.00417 14.3497 7.87417C14.3147 7.73917 14.1097 7.16417 13.2997 7.28417C13.2997 7.28417 12.6897 6.81917 11.7897 7.04417" fill="#D81126"/>
<path d="M11.7924 7.04582C11.7924 7.04582 11.1311 6.72554 10.5071 7.19526C10.5071 7.19526 9.38175 7.03514 9.29639 8.11338C9.29639 8.1561 9.28575 8.23614 9.30707 8.26286C9.32839 8.28418 9.34975 8.3269 9.34975 8.35894C9.34975 8.39094 9.36575 8.40698 9.37639 8.41766C9.37639 8.43366 9.39775 8.45502 9.40307 8.50838C9.40307 8.5671 9.39239 8.59378 9.45107 8.6525C9.50439 8.7059 9.50439 8.87138 9.50439 8.91942C9.50439 8.96746 9.53639 9.09554 9.55775 9.12226C9.58439 9.14894 9.62707 9.21834 9.62707 9.27706C9.62707 9.33042 9.64839 9.49058 9.63775 9.52794C9.62707 9.57062 9.70175 9.61866 9.76575 9.64002C9.82975 9.66138 10.6191 9.91758 11.7711 9.89626C12.9231 9.88022 13.3391 9.81618 13.8191 9.64534C13.8443 9.63702 13.866 9.6203 13.8806 9.59798C13.8951 9.5757 13.9016 9.5491 13.8991 9.52258C13.8884 9.49058 13.8991 9.38382 13.9151 9.3571C13.9364 9.33042 14.0751 9.11158 14.0431 9.07422C14.0164 9.0315 14.0164 8.9461 14.0431 8.91406C14.0697 8.8767 14.1551 8.71658 14.1711 8.64718C14.1871 8.5831 14.1924 8.50306 14.2244 8.4817C14.2511 8.46034 14.2617 8.38026 14.2671 8.36426C14.2809 8.33082 14.3029 8.30146 14.3311 8.27886C14.3311 8.27886 14.3844 8.00662 14.3524 7.87318C14.3151 7.73974 14.1124 7.16322 13.2964 7.28602C13.2964 7.28602 12.6884 6.82162 11.7924 7.04582Z" stroke="black" stroke-width="0.200086"/>
<path d="M14.0047 9.04963C11.4997 8.25963 9.55469 9.01463 9.55469 9.01463C9.55469 9.01463 9.57969 9.09963 9.59969 9.12963C9.61969 9.15963 9.64969 9.21963 9.64969 9.26463V9.41463C9.64969 9.45463 9.62969 9.61463 9.76969 9.60963C9.76969 9.60963 11.5197 8.92463 13.7897 9.64463C13.7897 9.64463 13.8547 9.59463 13.8547 9.51463C13.8521 9.43983 13.8694 9.36563 13.9047 9.29963C13.9347 9.25463 14.0047 9.11963 14.0047 9.04963Z" fill="#BCAC0B"/>
<path d="M11.6804 13.2454H10.5854C10.5854 13.2454 10.4804 14.2204 11.3254 14.5204V14.6054H11.5004V14.7254C11.5004 14.7254 11.1904 15.0004 11.4604 15.3254V15.4154H11.5054V15.5754H11.5554V15.8254C11.5554 15.8254 11.5154 16.7354 10.6204 17.1754V17.2254H13.0004V17.1754C12.1054 16.7404 12.0654 15.8254 12.0654 15.8254V15.5754H12.1154V15.4154H12.1654V15.3204C12.4254 15.0004 12.1154 14.7204 12.1154 14.7204V14.6054H12.3004V14.5204C13.1354 14.2204 13.0304 13.2454 13.0304 13.2454H11.6754" fill="#C8B100" fill-opacity="0.9"/>
<path d="M11.6805 13.2439H10.5871C10.5871 13.2439 10.4805 14.2207 11.3231 14.5197V14.6051H11.4991V14.7225C11.4991 14.7225 11.1898 15.0001 11.4618 15.3203V15.4164H11.5045V15.5765H11.5578V15.8274C11.5578 15.8274 11.5151 16.7349 10.6191 17.1726V17.226H13.0031V17.1726C12.1125 16.7402 12.0698 15.8274 12.0698 15.8274V15.5765H12.1231V15.4164H12.1658V15.3203C12.4325 15.0001 12.1231 14.7225 12.1231 14.7225V14.6051H12.3045V14.5197C13.1418 14.2207 13.0351 13.2439 13.0351 13.2439H11.6805Z" stroke="black" stroke-width="0.133391"/>
<path d="M11.285 14.5032H12.3356M11.3223 14.5833H12.3036M11.5036 14.7167H12.117M11.4609 15.3305H12.1596M11.4983 15.4053H12.117M11.4983 15.5547H12.1116M11.1249 16.7931H12.485M10.7409 17.1081H12.8743M10.6609 17.1561H12.9543" stroke="black" stroke-width="0.0400172"/>
<path d="M11.82 13.1897C11.9166 13.1979 12.0138 13.186 12.1055 13.1546C12.1972 13.1233 12.2814 13.0732 12.3527 13.0077C12.4241 12.9421 12.481 12.8624 12.52 12.7737C12.559 12.685 12.5791 12.5891 12.5791 12.4922C12.5791 12.3953 12.559 12.2995 12.52 12.2108C12.481 12.122 12.4241 12.0424 12.3527 11.9768C12.2814 11.9112 12.1972 11.8612 12.1055 11.8298C12.0138 11.7985 11.9166 11.7866 11.82 11.7947C11.6357 11.7947 11.4589 11.868 11.3286 11.9983C11.1982 12.1286 11.125 12.3054 11.125 12.4897C11.125 12.674 11.1982 12.8508 11.3286 12.9812C11.4589 13.1115 11.6357 13.1847 11.82 13.1847" fill="#CCCCCC"/>
<path d="M11.8183 13.1901C12.0029 13.1901 12.18 13.1167 12.3105 12.986C12.441 12.8554 12.5143 12.6782 12.5143 12.4935C12.5143 12.3087 12.441 12.1315 12.3105 12.0009C12.18 11.8703 12.0029 11.7969 11.8183 11.7969C11.6344 11.7969 11.4581 11.87 11.3281 12.0001C11.198 12.1302 11.125 12.3068 11.125 12.4908C11.125 12.6748 11.198 12.8514 11.3281 12.9815C11.4581 13.1116 11.6344 13.1847 11.8183 13.1847V13.1901Z" stroke="black" stroke-width="0.133391"/>
<path d="M10.2 11.1495H9.77001V10.7095H9.38501V11.1445H8.95001V11.5295H9.38501V11.9545H9.77001V11.5295H10.195V11.1495" fill="#CCCCCC"/>
<path d="M10.2033 11.1455H9.77133V10.7078H9.38733V11.1455H8.95001V11.5298H9.38733V11.9568H9.77133V11.5298H10.198V11.1455" stroke="black" stroke-width="0.133391"/>
<path d="M14.71 11.1495H14.275V10.7095H13.9V11.1445H13.45V11.5295H13.89V11.9545H14.27V11.5295H14.705V11.1495" fill="#CCCCCC"/>
<path d="M14.7096 11.1455H14.2776V10.7078H13.8936V11.1455H13.4562V11.5298H13.8936V11.9568H14.2776V11.5298H14.7096V11.1455Z" stroke="black" stroke-width="0.133391"/>
<path d="M12.425 10.6004H11.99V10.1704H11.6V10.5954H11.175V10.9804H11.6V11.4204H11.985V10.9804H12.42V10.6004" fill="#CCCCCC"/>
<path d="M12.4261 10.5957H11.9888V10.1687H11.6048V10.5957H11.1781V10.9801H11.6048V11.4177H11.9888V10.9801H12.4261V10.5957Z" stroke="black" stroke-width="0.133391"/>
<path d="M10.2 13.0245H9.77001V12.5845H9.38501V13.0245H8.95001V13.4095H9.38501V13.8345H9.77001V13.4095H10.195V13.0245" fill="#CCCCCC"/>
<path d="M10.2033 13.0253H9.77133V12.5876H9.38733V13.0253H8.95001V13.4096H9.38733V13.8367H9.77133V13.4096H10.198V13.0253" stroke="black" stroke-width="0.133391"/>
<path d="M14.71 13.0245H14.275V12.5845H13.9V13.0245H13.45V13.4095H13.89V13.8345H14.27V13.4095H14.705V13.0245" fill="#CCCCCC"/>
<path d="M14.7096 13.0253H14.2776V12.5876H13.8936V13.0253H13.4562V13.4096H13.8936V13.8367H14.2776V13.4096H14.7096V13.0253Z" stroke="black" stroke-width="0.133391"/>
<path d="M10.2 14.919H9.77001V14.489H9.38501V14.919H8.95001V15.304H9.38501V15.734H9.77001V15.309H10.195V14.919" fill="#CCCCCC"/>
<path d="M10.2033 14.9199H9.77133V14.4875H9.38733V14.9199H8.95001V15.3042H9.38733V15.7366H9.77133V15.3095H10.198V14.9199" stroke="black" stroke-width="0.133391"/>
<path d="M14.71 14.919H14.275V14.489H13.9V14.919H13.45V15.304H13.89V15.734H14.27V15.309H14.705V14.919" fill="#CCCCCC"/>
<path d="M14.7096 14.9199H14.2776V14.4875H13.8936V14.9199H13.4562V15.3042H13.8936V15.7366H14.2776V15.3095H14.7096V14.9199Z" stroke="black" stroke-width="0.133391"/>
<path d="M11.8153 6.11979C11.9267 6.11979 12.0335 6.07555 12.1123 5.99679C12.1911 5.91803 12.2353 5.81119 12.2353 5.69979C12.2353 5.58839 12.1911 5.48159 12.1123 5.40283C12.0335 5.32403 11.9267 5.27979 11.8153 5.27979C11.7039 5.27979 11.5971 5.32403 11.5183 5.40283C11.4396 5.48159 11.3953 5.58839 11.3953 5.69979C11.3953 5.81119 11.4396 5.91803 11.5183 5.99679C11.5971 6.07555 11.7039 6.11979 11.8153 6.11979Z" fill="#005BBF"/>
<path d="M11.814 6.11783C11.925 6.11783 12.0315 6.07371 12.11 5.99511C12.1885 5.91655 12.2326 5.80995 12.2326 5.69883C12.2326 5.58767 12.1885 5.48111 12.11 5.40251C12.0315 5.32395 11.925 5.27979 11.814 5.27979C11.703 5.27979 11.5964 5.32395 11.5179 5.40251C11.4394 5.48111 11.3953 5.58767 11.3953 5.69883C11.3953 5.80995 11.4394 5.91655 11.5179 5.99511C11.5964 6.07371 11.703 6.11783 11.814 6.11783Z" stroke="black" stroke-width="0.133391"/>
<path d="M12.1997 5.62483H11.8597V5.07483H11.9947V4.96483H11.8597V4.82983H11.7547V4.95983H11.6197V5.06983H11.7497V5.62483H11.4297V5.69983H12.1997V5.62483Z" fill="#FFCC00"/>
<path d="M12.203 5.62666H11.8617V5.0715H11.995V4.96474H11.8617V4.8313H11.755V4.95942H11.6217V5.0715H11.7497V5.62666H11.4297V5.70138H12.203V5.62666Z" fill="#BCAC0B" stroke="black" stroke-width="0.0666953"/>
<path d="M10.1445 6.61411C10.1445 6.61411 10.4545 6.57911 10.6295 6.64911C10.6295 6.64911 10.4295 6.88411 10.4695 7.18911C10.4783 7.30195 10.5125 7.41135 10.5695 7.50911C10.6294 7.61531 10.6523 7.73843 10.6345 7.85911H10.6945C10.6945 7.85911 10.7495 7.60911 10.6545 7.46911C10.597 7.39063 10.5619 7.29795 10.5531 7.20103C10.5443 7.10411 10.5621 7.00663 10.6045 6.91911C10.7045 6.71911 10.8495 6.63411 10.8495 6.63411C11.0532 6.68179 11.2671 6.65703 11.4545 6.56411C11.5545 6.49411 11.6045 6.39411 11.4245 6.38911C11.2345 6.37911 10.9245 6.38411 10.7145 6.54411C10.7145 6.54411 10.6045 6.41411 10.0445 6.47411C9.48455 6.53911 9.08455 6.77411 8.95455 7.27911C8.88955 7.53911 9.12955 8.07911 9.34955 8.20411C9.34955 8.20411 9.34455 8.11911 9.36455 8.05411C9.36455 8.05411 8.98955 7.63411 9.09955 7.24411C9.21455 6.85911 9.66455 6.60411 10.1445 6.61411Z" fill="#FFCC00"/>
<path d="M10.1436 6.61357C10.1436 6.61357 10.453 6.58157 10.629 6.65093C10.629 6.65093 10.4263 6.88581 10.469 7.19009C10.4903 7.35021 10.5223 7.43029 10.5703 7.51033C10.613 7.57973 10.661 7.73989 10.6343 7.86265H10.693C10.693 7.86265 10.7516 7.60645 10.6556 7.46765C10.5975 7.38957 10.5618 7.29709 10.5524 7.20017C10.543 7.10329 10.5602 7.00565 10.6023 6.91785C10.7036 6.71501 10.8476 6.63493 10.8476 6.63493C11.0076 6.69897 11.3596 6.63493 11.4556 6.56553C11.557 6.49613 11.605 6.39473 11.4236 6.38937C11.237 6.37873 10.9276 6.38405 10.7143 6.54417C10.7143 6.54417 10.6023 6.41609 10.0423 6.47481C9.48228 6.53885 9.08228 6.77905 8.95428 7.28081C8.89028 7.53705 9.13028 8.07617 9.34892 8.20429C9.34892 8.20429 9.3436 8.11885 9.36492 8.05481C9.36492 8.05481 8.9916 7.63313 9.09828 7.24345C9.2156 6.85913 9.6636 6.60289 10.1436 6.61357Z" fill="#BCAC0B" stroke="black" stroke-width="0.0933734"/>
<path d="M11.1953 6.53907C11.2953 6.52907 11.3703 6.51407 11.3653 6.49907C11.3653 6.48407 11.2853 6.48407 11.1903 6.48907C11.0903 6.49407 11.0203 6.51907 11.0203 6.52907C11.0203 6.54407 11.1003 6.54407 11.1953 6.53907Z" fill="white"/>
<path d="M10.8427 6.62994C10.9494 6.52318 11.184 6.4591 11.3174 6.48578C11.4454 6.51782 11.2907 6.53382 11.248 6.53918C11.2054 6.53918 11.12 6.55518 10.992 6.53918" stroke="black" stroke-width="0.0933734"/>
<path d="M13.4754 6.64997C13.4754 6.64997 13.1754 6.61497 12.9904 6.68497C13.0825 6.80505 13.1377 6.94937 13.1492 7.10029C13.1608 7.25125 13.1282 7.40225 13.0554 7.53497C13.0054 7.61997 12.9604 7.77497 12.9854 7.89497H12.9354C12.9354 7.89497 12.8704 7.64497 12.9704 7.49997C13.027 7.42205 13.0615 7.33029 13.0703 7.23433C13.0791 7.13841 13.0618 7.04189 13.0204 6.95497C12.9686 6.83909 12.8854 6.74033 12.7804 6.66997C12.6154 6.73497 12.2604 6.66997 12.1654 6.59997C12.0654 6.52997 12.0154 6.43497 12.2054 6.41997C12.3854 6.40997 12.7004 6.41997 12.9104 6.57997C12.9104 6.57997 13.0204 6.44997 13.5854 6.51497C14.1354 6.56997 14.5454 6.81497 14.6654 7.31497C14.7304 7.56497 14.4954 8.10997 14.2754 8.23497C14.2754 8.23497 14.2754 8.14997 14.2604 8.08497C14.2604 8.08497 14.6354 7.66997 14.5254 7.28497C14.4104 6.88997 13.9654 6.63997 13.4754 6.64997Z" fill="#FFCC00"/>
<path d="M13.4776 6.65159C13.4776 6.65159 13.1736 6.61423 12.9922 6.68363C13.085 6.80419 13.1406 6.94931 13.152 7.10107C13.1633 7.25283 13.13 7.40463 13.0562 7.53767C13.0082 7.61775 12.9602 7.77255 12.9869 7.89531H12.9336C12.9336 7.89531 12.8696 7.64443 12.9709 7.50031C13.0272 7.42231 13.0614 7.33055 13.0698 7.23471C13.0782 7.13887 13.0606 7.04251 13.0189 6.95587C12.9678 6.83895 12.8846 6.73895 12.7789 6.66763C12.6136 6.73699 12.2616 6.66763 12.1656 6.59823C12.0696 6.52883 12.0162 6.43275 12.2029 6.42207C12.3842 6.41139 12.6989 6.41675 12.9122 6.58219C12.9122 6.58219 13.0189 6.44875 13.5842 6.51283C14.1389 6.57151 14.5442 6.81175 14.6669 7.31351C14.7309 7.56971 14.4962 8.10883 14.2776 8.23695C14.2776 8.23695 14.2776 8.15155 14.2616 8.08751C14.2616 8.08751 14.6349 7.67115 14.5229 7.28147C14.4109 6.89179 13.9629 6.64091 13.4776 6.65159Z" fill="#BCAC0B" stroke="black" stroke-width="0.0933734"/>
<path d="M12.4247 6.5704C12.3297 6.5704 12.2547 6.5504 12.2547 6.5354C12.2547 6.5254 12.3347 6.5204 12.4297 6.5254C12.5297 6.5354 12.6097 6.5504 12.6097 6.5604C12.6097 6.5754 12.5297 6.5804 12.4247 6.5704Z" fill="white"/>
<path d="M12.7787 6.66227C12.672 6.56087 12.4374 6.49147 12.3094 6.52351C12.176 6.55019 12.3307 6.56619 12.3734 6.57155C12.4214 6.57155 12.5067 6.59291 12.6347 6.57155" stroke="black" stroke-width="0.0933734"/>
<path d="M11.5255 6.3V7.5C11.5155 7.615 11.6705 7.785 11.7805 7.83C11.7805 7.83 12.0504 7.745 12.0654 7.5V6.25H11.9755V7.335C11.9755 7.44 11.9005 7.645 11.7955 7.675C11.7955 7.675 11.6055 7.645 11.5955 7.335V6.28L11.5255 6.31" fill="#FFCC00"/>
<path d="M11.5255 6.30476V7.49512C11.5148 7.61256 11.6695 7.77804 11.7815 7.82608C11.7815 7.82608 12.0482 7.74064 12.0642 7.49512V6.24072H11.9735V7.32964C11.9735 7.4364 11.8988 7.63924 11.7975 7.67128C11.7975 7.67128 11.6055 7.63924 11.5948 7.32964V6.27272L11.5255 6.30476Z" fill="#BCAC0B" stroke="black" stroke-width="0.0933734"/>
<path d="M8.89945 7.93446C8.92041 7.93842 8.94197 7.9377 8.96257 7.93234C8.98321 7.92702 9.00241 7.91718 9.01881 7.90358C9.03525 7.88998 9.04845 7.87294 9.05749 7.85362C9.06657 7.83434 9.07125 7.8133 9.07125 7.79198C9.07125 7.77066 9.06657 7.74962 9.05749 7.7303C9.04845 7.71102 9.03525 7.69398 9.01881 7.68038C9.00241 7.66678 8.98321 7.65694 8.96257 7.65158C8.94197 7.64626 8.92041 7.64554 8.89945 7.64946C8.86621 7.65574 8.83625 7.67338 8.81465 7.69942C8.79309 7.72542 8.78125 7.75818 8.78125 7.79198C8.78125 7.82578 8.79309 7.85854 8.81465 7.88454C8.83625 7.91058 8.86621 7.92822 8.89945 7.93446Z" fill="white"/>
<path d="M8.89613 7.93253C8.91697 7.93661 8.93845 7.93601 8.95905 7.93081C8.97965 7.92557 8.99885 7.91585 9.01525 7.90233C9.03165 7.88881 9.04485 7.87181 9.05393 7.85261C9.06301 7.83337 9.06769 7.81237 9.06769 7.79109C9.06769 7.76981 9.06301 7.74881 9.05393 7.72957C9.04485 7.71037 9.03165 7.69337 9.01525 7.67985C8.99885 7.66633 8.97965 7.65661 8.95905 7.65137C8.93845 7.64617 8.91697 7.64557 8.89613 7.64965C8.86333 7.65605 8.83377 7.67365 8.81253 7.69945C8.79133 7.72525 8.77969 7.75765 8.77969 7.79109C8.77969 7.82453 8.79133 7.85693 8.81253 7.88273C8.83377 7.90853 8.86333 7.92613 8.89613 7.93253Z" stroke="black" stroke-width="0.133391"/>
<path d="M8.80566 7.60531C8.82718 7.61111 8.84971 7.61187 8.87155 7.60755C8.89339 7.60323 8.91394 7.59395 8.93158 7.58039C8.94926 7.56687 8.96359 7.54943 8.97343 7.52947C8.98331 7.50951 8.98843 7.48755 8.98843 7.46531C8.98843 7.44303 8.98331 7.42107 8.97343 7.40111C8.96359 7.38115 8.94926 7.36375 8.93158 7.35019C8.91394 7.33667 8.89339 7.32739 8.87155 7.32307C8.84971 7.31875 8.82718 7.31951 8.80566 7.32531C8.7749 7.33359 8.74771 7.35183 8.72831 7.37711C8.70895 7.40243 8.69843 7.43343 8.69843 7.46531C8.69843 7.49719 8.70895 7.52819 8.72831 7.55347C8.74771 7.57879 8.7749 7.59699 8.80566 7.60531Z" fill="white"/>
<path d="M8.80549 7.60758C8.82633 7.61166 8.84785 7.61106 8.86845 7.60586C8.88905 7.60062 8.90821 7.5909 8.92461 7.57738C8.94101 7.56386 8.95425 7.54686 8.96329 7.52766C8.97237 7.50842 8.97709 7.48742 8.97709 7.46614C8.97709 7.44486 8.97237 7.42386 8.96329 7.40462C8.95425 7.38542 8.94101 7.36842 8.92461 7.3549C8.90821 7.34138 8.88905 7.33166 8.86845 7.32642C8.84785 7.32122 8.82633 7.32062 8.80549 7.3247C8.77269 7.3311 8.74317 7.3487 8.72193 7.3745C8.70069 7.4003 8.68909 7.4327 8.68909 7.46614C8.68909 7.49958 8.70069 7.53198 8.72193 7.55778C8.74317 7.58358 8.77269 7.60118 8.80549 7.60758Z" stroke="black" stroke-width="0.133391"/>
<path d="M8.84943 7.21005C8.87091 7.21585 8.89347 7.21661 8.91531 7.21229C8.93715 7.20797 8.95767 7.19869 8.97535 7.18517C8.99303 7.17161 9.00735 7.15421 9.01719 7.13425C9.02707 7.11429 9.03219 7.09233 9.03219 7.07005C9.03219 7.04777 9.02707 7.02581 9.01719 7.00585C9.00735 6.98589 8.99303 6.96849 8.97535 6.95493C8.95767 6.94141 8.93715 6.93213 8.91531 6.92781C8.89347 6.92349 8.87091 6.92425 8.84943 6.93005C8.81863 6.93833 8.79147 6.95657 8.77207 6.98185C8.75267 7.00717 8.74219 7.03817 8.74219 7.07005C8.74219 7.10193 8.75267 7.13293 8.77207 7.15821C8.79147 7.18353 8.81863 7.20177 8.84943 7.21005Z" fill="white"/>
<path d="M8.85392 7.21211C8.87476 7.21615 8.89628 7.21555 8.91688 7.21035C8.93748 7.20511 8.95664 7.19539 8.97304 7.18187C8.98944 7.16835 9.00268 7.15139 9.01172 7.13215C9.0208 7.11291 9.02552 7.09191 9.02552 7.07063C9.02552 7.04935 9.0208 7.02835 9.01172 7.00915C9.00268 6.98991 8.98944 6.97291 8.97304 6.95939C8.95664 6.94587 8.93748 6.93615 8.91688 6.93091C8.89628 6.92571 8.87476 6.92511 8.85392 6.92919C8.82112 6.93559 8.7916 6.95319 8.77036 6.97899C8.74912 7.00479 8.73752 7.03719 8.73752 7.07063C8.73752 7.10407 8.74912 7.13647 8.77036 7.16227C8.7916 7.18807 8.82112 7.20567 8.85392 7.21211Z" stroke="black" stroke-width="0.133391"/>
<path d="M9.06977 6.88046C9.09125 6.88626 9.11381 6.88702 9.13565 6.8827C9.15745 6.87838 9.17801 6.8691 9.19569 6.85554C9.21337 6.84202 9.22769 6.82458 9.23753 6.80462C9.24737 6.78466 9.25253 6.7627 9.25253 6.74046C9.25253 6.71818 9.24737 6.69622 9.23753 6.67626C9.22769 6.6563 9.21337 6.6389 9.19569 6.62534C9.17801 6.61182 9.15745 6.60254 9.13565 6.59822C9.11381 6.5939 9.09125 6.59466 9.06977 6.60046C9.03897 6.60874 9.01181 6.62698 8.99241 6.65226C8.97301 6.67758 8.96249 6.70858 8.96249 6.74046C8.96249 6.77234 8.97301 6.80334 8.99241 6.82862C9.01181 6.85394 9.03897 6.87214 9.06977 6.88046Z" fill="white"/>
<path d="M9.07268 6.88101C9.09352 6.88509 9.115 6.88449 9.1356 6.87929C9.1562 6.87405 9.1754 6.86433 9.1918 6.85081C9.2082 6.83729 9.2214 6.82029 9.23048 6.80105C9.23956 6.78185 9.24424 6.76085 9.24424 6.73957C9.24424 6.71829 9.23956 6.69729 9.23048 6.67805C9.2214 6.65881 9.2082 6.64185 9.1918 6.62833C9.1754 6.61481 9.1562 6.60509 9.1356 6.59985C9.115 6.59465 9.09352 6.59405 9.07268 6.59813C9.03988 6.60453 9.01032 6.62213 8.98912 6.64793C8.96788 6.67373 8.95624 6.70613 8.95624 6.73957C8.95624 6.77301 8.96788 6.80541 8.98912 6.83121C9.01032 6.85701 9.03988 6.87461 9.07268 6.88101Z" stroke="black" stroke-width="0.133391"/>
<path d="M9.33536 6.63973C9.35688 6.64553 9.3794 6.64629 9.40124 6.64197C9.42308 6.63765 9.44364 6.62837 9.46132 6.61485C9.47896 6.60129 9.49328 6.58389 9.50316 6.56393C9.513 6.54397 9.51812 6.52201 9.51812 6.49973C9.51812 6.47749 9.513 6.45553 9.50316 6.43557C9.49328 6.41561 9.47896 6.39817 9.46132 6.38465C9.44364 6.37109 9.42308 6.36181 9.40124 6.35749C9.3794 6.35317 9.35688 6.35393 9.33536 6.35973C9.3046 6.36805 9.2774 6.38625 9.258 6.41157C9.23864 6.43685 9.22812 6.46785 9.22812 6.49973C9.22812 6.53161 9.23864 6.56261 9.258 6.58793C9.2774 6.61321 9.3046 6.63145 9.33536 6.63973Z" fill="white"/>
<path d="M9.33359 6.64033C9.35443 6.64437 9.37595 6.64381 9.39655 6.63857C9.41715 6.63333 9.43635 6.62361 9.45275 6.61009C9.46915 6.59657 9.48235 6.57961 9.49139 6.56037C9.50047 6.54113 9.50519 6.52013 9.50519 6.49885C9.50519 6.47761 9.50047 6.45661 9.49139 6.43737C9.48235 6.41813 9.46915 6.40113 9.45275 6.38761C9.43635 6.37409 9.41715 6.36437 9.39655 6.35917C9.37595 6.35393 9.35443 6.35333 9.33359 6.35741C9.30079 6.36381 9.27127 6.38141 9.25003 6.40721C9.22879 6.43305 9.21719 6.46541 9.21719 6.49885C9.21719 6.53229 9.22879 6.56469 9.25003 6.59049C9.27127 6.61629 9.30079 6.63393 9.33359 6.64033Z" stroke="black" stroke-width="0.133391"/>
<path d="M9.67444 6.50546C9.69592 6.51126 9.71848 6.51202 9.74032 6.5077C9.76216 6.50338 9.78268 6.4941 9.80036 6.48054C9.81804 6.46702 9.83236 6.44958 9.8422 6.42962C9.85208 6.40966 9.8572 6.3877 9.8572 6.36546C9.8572 6.34318 9.85208 6.32122 9.8422 6.30126C9.83236 6.2813 9.81804 6.2639 9.80036 6.25034C9.78268 6.23682 9.76216 6.22754 9.74032 6.22322C9.71848 6.2189 9.69592 6.21966 9.67444 6.22546C9.64364 6.23374 9.61648 6.25198 9.59708 6.27726C9.57768 6.30258 9.5672 6.33358 9.5672 6.36546C9.5672 6.39734 9.57768 6.42834 9.59708 6.45362C9.61648 6.47894 9.64364 6.49714 9.67444 6.50546Z" fill="white"/>
<path d="M9.67424 6.50748C9.69508 6.51156 9.7166 6.51096 9.73716 6.50576C9.75776 6.50052 9.77696 6.4908 9.79336 6.47728C9.80976 6.46376 9.82296 6.44676 9.83204 6.42756C9.84112 6.40832 9.8458 6.38732 9.8458 6.36604C9.8458 6.34476 9.84112 6.32376 9.83204 6.30452C9.82296 6.28532 9.80976 6.26832 9.79336 6.2548C9.77696 6.24128 9.75776 6.23156 9.73716 6.22632C9.7166 6.22112 9.69508 6.22052 9.67424 6.2246C9.64144 6.231 9.61192 6.2486 9.59068 6.2744C9.56944 6.3002 9.5578 6.3326 9.5578 6.36604C9.5578 6.39948 9.56944 6.43188 9.59068 6.45768C9.61192 6.48348 9.64144 6.50108 9.67424 6.50748Z" stroke="black" stroke-width="0.133391"/>
<path d="M10.0245 6.44942C10.0629 6.44942 10.0998 6.43414 10.127 6.40698C10.1542 6.37978 10.1695 6.3429 10.1695 6.30442C10.1695 6.26598 10.1542 6.2291 10.127 6.2019C10.0998 6.1747 10.0629 6.15942 10.0245 6.15942C9.99121 6.1657 9.96125 6.18334 9.93965 6.20938C9.91809 6.23538 9.90625 6.26814 9.90625 6.30194C9.90625 6.33574 9.91809 6.3685 9.93965 6.3945C9.96125 6.42054 9.99121 6.43818 10.0245 6.44442" fill="white"/>
<path d="M10.0274 6.44917C10.0656 6.44917 10.1022 6.43397 10.1292 6.40693C10.1562 6.37993 10.1714 6.34325 10.1714 6.30505C10.1714 6.26681 10.1562 6.23013 10.1292 6.20313C10.1022 6.17609 10.0656 6.16089 10.0274 6.16089C9.99456 6.16733 9.96504 6.18493 9.9438 6.21073C9.92256 6.23653 9.91092 6.26893 9.91092 6.30237C9.91092 6.33581 9.92256 6.36817 9.9438 6.39401C9.96504 6.41981 9.99456 6.43741 10.0274 6.44381V6.44917Z" stroke="black" stroke-width="0.133391"/>
<path d="M10.3651 6.42495C10.386 6.42891 10.4076 6.42815 10.4282 6.42283C10.4488 6.41747 10.468 6.40767 10.4844 6.39407C10.5008 6.38047 10.514 6.36339 10.5231 6.34411C10.5322 6.32483 10.5369 6.30375 10.5369 6.28243C10.5369 6.26115 10.5322 6.24007 10.5231 6.22079C10.514 6.20151 10.5008 6.18443 10.4844 6.17083C10.468 6.15723 10.4488 6.14743 10.4282 6.14207C10.4076 6.13675 10.386 6.13599 10.3651 6.13995C10.3318 6.14619 10.3018 6.16387 10.2803 6.18987C10.2587 6.21591 10.2469 6.24863 10.2469 6.28243C10.2469 6.31627 10.2587 6.34899 10.2803 6.37503C10.3018 6.40103 10.3318 6.41871 10.3651 6.42495Z" fill="white"/>
<path d="M10.3627 6.4274C10.4009 6.4274 10.4375 6.4122 10.4645 6.38516C10.4915 6.35816 10.5067 6.32148 10.5067 6.28328C10.5067 6.24504 10.4915 6.2084 10.4645 6.18136C10.4375 6.15432 10.4009 6.13916 10.3627 6.13916C10.3245 6.13916 10.2879 6.15432 10.2609 6.18136C10.2339 6.2084 10.2188 6.24504 10.2188 6.28328C10.2188 6.32148 10.2339 6.35816 10.2609 6.38516C10.2879 6.4122 10.3245 6.4274 10.3627 6.4274Z" stroke="black" stroke-width="0.133391"/>
<path d="M10.6653 6.4501C10.6862 6.45406 10.7078 6.4533 10.7284 6.44798C10.7491 6.44262 10.7683 6.43282 10.7847 6.41922C10.8011 6.40562 10.8143 6.38854 10.8234 6.36926C10.8324 6.34998 10.8371 6.3289 10.8371 6.30758C10.8371 6.2863 10.8324 6.26522 10.8234 6.24594C10.8143 6.22666 10.8011 6.20958 10.7847 6.19598C10.7683 6.18238 10.7491 6.17258 10.7284 6.16722C10.7078 6.1619 10.6862 6.16114 10.6653 6.1651C10.6268 6.1651 10.59 6.18038 10.5628 6.20758C10.5356 6.23478 10.5203 6.27166 10.5203 6.3101C10.5203 6.34854 10.5356 6.38542 10.5628 6.41262C10.59 6.43982 10.6268 6.4551 10.6653 6.4551" fill="white"/>
<path d="M10.6674 6.44819C10.6883 6.45227 10.7098 6.45167 10.7304 6.44643C10.751 6.44123 10.7702 6.43151 10.7866 6.41799C10.803 6.40447 10.8162 6.38747 10.8252 6.36823C10.8343 6.34899 10.839 6.32799 10.839 6.30675C10.839 6.28547 10.8343 6.26447 10.8252 6.24523C10.8162 6.22599 10.803 6.20903 10.7866 6.19547C10.7702 6.18195 10.751 6.17223 10.7304 6.16703C10.7098 6.16179 10.6883 6.16119 10.6674 6.16527C10.6292 6.16527 10.5926 6.18047 10.5656 6.20751C10.5386 6.23451 10.5234 6.27119 10.5234 6.30939C10.5234 6.34763 10.5386 6.38427 10.5656 6.41131C10.5926 6.43835 10.6292 6.45351 10.6674 6.45351V6.44819Z" stroke="black" stroke-width="0.133391"/>
<path d="M11.5198 6.33969C11.5412 6.34549 11.5638 6.34625 11.5856 6.34193C11.6074 6.33761 11.628 6.32833 11.6457 6.31481C11.6634 6.30125 11.6777 6.28385 11.6875 6.26389C11.6974 6.24393 11.7025 6.22197 11.7025 6.19969C11.7025 6.17745 11.6974 6.15549 11.6875 6.13553C11.6777 6.11557 11.6634 6.09813 11.6457 6.08461C11.628 6.07105 11.6074 6.06177 11.5856 6.05745C11.5638 6.05313 11.5412 6.05389 11.5198 6.05969C11.489 6.06801 11.4618 6.08621 11.4424 6.11153C11.423 6.13681 11.4125 6.16781 11.4125 6.19969C11.4125 6.23157 11.423 6.26257 11.4424 6.28789C11.4618 6.31317 11.489 6.33141 11.5198 6.33969Z" fill="white"/>
<path d="M11.5195 6.34199C11.5404 6.34607 11.5619 6.34547 11.5825 6.34023C11.6031 6.33499 11.6223 6.32527 11.6387 6.31175C11.6551 6.29823 11.6683 6.28127 11.6773 6.26203C11.6864 6.24279 11.6911 6.22179 11.6911 6.20051C11.6911 6.17927 11.6864 6.15827 11.6773 6.13903C11.6683 6.11979 11.6551 6.10279 11.6387 6.08927C11.6223 6.07575 11.6031 6.06603 11.5825 6.06083C11.5619 6.05559 11.5404 6.05499 11.5195 6.05907C11.4867 6.06547 11.4572 6.08307 11.4359 6.10891C11.4147 6.13471 11.4031 6.16711 11.4031 6.20051C11.4031 6.23395 11.4147 6.26635 11.4359 6.29215C11.4572 6.31795 11.4867 6.33559 11.5195 6.34199Z" stroke="black" stroke-width="0.133391"/>
<path d="M11.7994 6.41464C11.8209 6.42044 11.8435 6.4212 11.8653 6.41688C11.8872 6.41256 11.9077 6.40328 11.9254 6.38976C11.943 6.3762 11.9574 6.3588 11.9672 6.33884C11.9771 6.31888 11.9822 6.29692 11.9822 6.27464C11.9822 6.2524 11.9771 6.23044 11.9672 6.21048C11.9574 6.19052 11.943 6.17308 11.9254 6.15956C11.9077 6.146 11.8872 6.13672 11.8653 6.1324C11.8435 6.12808 11.8209 6.12884 11.7994 6.13464C11.7686 6.14296 11.7415 6.16116 11.7221 6.18648C11.7027 6.21176 11.6922 6.24276 11.6922 6.27464C11.6922 6.30652 11.7027 6.33752 11.7221 6.36284C11.7415 6.38812 11.7686 6.40636 11.7994 6.41464Z" fill="white"/>
<path d="M11.7977 6.41694C11.8185 6.42102 11.84 6.42042 11.8606 6.41518C11.8812 6.40994 11.9004 6.40022 11.9168 6.3867C11.9332 6.37318 11.9464 6.35622 11.9555 6.33698C11.9646 6.31774 11.9692 6.29674 11.9692 6.27546C11.9692 6.25422 11.9646 6.23322 11.9555 6.21398C11.9464 6.19474 11.9332 6.17774 11.9168 6.16422C11.9004 6.1507 11.8812 6.14098 11.8606 6.13578C11.84 6.13054 11.8185 6.12994 11.7977 6.13402C11.7649 6.14042 11.7353 6.15802 11.7141 6.18386C11.6929 6.20966 11.6812 6.24206 11.6812 6.27546C11.6812 6.3089 11.6929 6.3413 11.7141 6.3671C11.7353 6.3929 11.7649 6.41054 11.7977 6.41694Z" stroke="black" stroke-width="0.133391"/>
<path d="M11.7997 7.47433C11.8382 7.47433 11.8751 7.45905 11.9022 7.43189C11.9294 7.40469 11.9447 7.36781 11.9447 7.32933C11.9447 7.29089 11.9294 7.25401 11.9022 7.22681C11.8751 7.19961 11.8382 7.18433 11.7997 7.18433C11.7613 7.18433 11.7244 7.19961 11.6972 7.22681C11.67 7.25401 11.6547 7.29089 11.6547 7.32933C11.6547 7.36781 11.67 7.40469 11.6972 7.43189C11.7244 7.45905 11.7613 7.47433 11.7997 7.47433Z" fill="white"/>
<path d="M11.7971 7.47261C11.8353 7.47261 11.8719 7.45741 11.8989 7.43037C11.9259 7.40337 11.9411 7.36669 11.9411 7.32845C11.9411 7.29025 11.9259 7.25357 11.8989 7.22657C11.8719 7.19953 11.8353 7.18433 11.7971 7.18433C11.7589 7.18433 11.7223 7.19953 11.6953 7.22657C11.6683 7.25357 11.6531 7.29025 11.6531 7.32845C11.6531 7.36669 11.6683 7.40337 11.6953 7.43037C11.7223 7.45741 11.7589 7.47261 11.7971 7.47261Z" stroke="black" stroke-width="0.133391"/>
<path d="M14.7353 8.02505C14.7563 8.02901 14.7779 8.02825 14.7985 8.02293C14.8191 8.01757 14.8383 8.00777 14.8547 7.99417C14.8711 7.98057 14.8843 7.96349 14.8934 7.94421C14.9025 7.92493 14.9072 7.90385 14.9072 7.88253C14.9072 7.86125 14.9025 7.84017 14.8934 7.82089C14.8843 7.80161 14.8711 7.78453 14.8547 7.77093C14.8383 7.75733 14.8191 7.74753 14.7985 7.74217C14.7779 7.73685 14.7563 7.73609 14.7353 7.74005C14.7021 7.74629 14.6721 7.76397 14.6506 7.78997C14.629 7.81601 14.6172 7.84873 14.6172 7.88253C14.6172 7.91637 14.629 7.94909 14.6506 7.97513C14.6721 8.00113 14.7021 8.01881 14.7353 8.02505Z" fill="white"/>
<path d="M14.7367 8.02314C14.7576 8.02722 14.7791 8.02662 14.7997 8.02138C14.8203 8.01618 14.8395 8.00646 14.8559 7.99294C14.8723 7.97942 14.8855 7.96242 14.8946 7.94318C14.9036 7.92394 14.9083 7.90294 14.9083 7.8817C14.9083 7.86042 14.9036 7.83942 14.8946 7.82018C14.8855 7.80094 14.8723 7.78398 14.8559 7.77042C14.8395 7.7569 14.8203 7.74718 14.7997 7.74198C14.7791 7.73674 14.7576 7.73614 14.7367 7.74022C14.704 7.74662 14.6744 7.76426 14.6532 7.79006C14.6319 7.81586 14.6203 7.84826 14.6203 7.8817C14.6203 7.9151 14.6319 7.9475 14.6532 7.9733C14.6744 7.99914 14.704 8.01674 14.7367 8.02314Z" stroke="black" stroke-width="0.133391"/>
<path d="M14.8104 7.67495C14.8313 7.67891 14.8529 7.67815 14.8735 7.67283C14.8942 7.66747 14.9134 7.65767 14.9298 7.64407C14.9462 7.63047 14.9594 7.61339 14.9684 7.59411C14.9775 7.57483 14.9822 7.55375 14.9822 7.53243C14.9822 7.51115 14.9775 7.49007 14.9684 7.47079C14.9594 7.45151 14.9462 7.43443 14.9298 7.42083C14.9134 7.40723 14.8942 7.39744 14.8735 7.39208C14.8529 7.38676 14.8313 7.38599 14.8104 7.38995C14.7796 7.39823 14.7524 7.41648 14.733 7.4418C14.7136 7.46708 14.7031 7.49807 14.7031 7.52995C14.7031 7.56183 14.7136 7.59283 14.733 7.61811C14.7524 7.64343 14.7796 7.66163 14.8104 7.66995" fill="white"/>
<path d="M14.8102 7.67569C14.8484 7.67569 14.885 7.66049 14.912 7.63345C14.939 7.60645 14.9542 7.56977 14.9542 7.53157C14.9542 7.49333 14.939 7.45669 14.912 7.42965C14.885 7.40261 14.8484 7.38741 14.8102 7.38745C14.7774 7.39385 14.7478 7.41145 14.7266 7.43725C14.7054 7.46305 14.6938 7.49545 14.6938 7.52889C14.6938 7.56233 14.7054 7.59469 14.7266 7.62053C14.7478 7.64633 14.7774 7.66393 14.8102 7.67033V7.67569Z" stroke="black" stroke-width="0.133391"/>
<path d="M14.7494 7.29918C14.7709 7.30494 14.7935 7.30574 14.8153 7.30142C14.8371 7.2971 14.8577 7.28782 14.8753 7.27426C14.893 7.26074 14.9073 7.2433 14.9172 7.22334C14.9271 7.20338 14.9322 7.18142 14.9322 7.15918C14.9322 7.1369 14.9271 7.11494 14.9172 7.09498C14.9073 7.07502 14.893 7.05758 14.8753 7.04406C14.8577 7.0305 14.8371 7.02122 14.8153 7.0169C14.7935 7.01258 14.7709 7.01338 14.7494 7.01918C14.7162 7.02542 14.6862 7.04306 14.6646 7.0691C14.6431 7.0951 14.6312 7.12786 14.6312 7.16166C14.6312 7.19546 14.6431 7.22822 14.6646 7.25422C14.6862 7.28026 14.7162 7.2979 14.7494 7.30418" fill="white"/>
<path d="M14.7524 7.30291C14.7732 7.30699 14.7947 7.30639 14.8153 7.30115C14.8359 7.29595 14.8551 7.28623 14.8715 7.27271C14.8879 7.25919 14.9011 7.24219 14.9102 7.22295C14.9192 7.20375 14.9239 7.18271 14.9239 7.16147C14.9239 7.14019 14.9192 7.11919 14.9102 7.09995C14.9011 7.08071 14.8879 7.06375 14.8715 7.05023C14.8551 7.03671 14.8359 7.02699 14.8153 7.02175C14.7947 7.01651 14.7732 7.01595 14.7524 7.01999C14.7196 7.02643 14.69 7.04403 14.6688 7.06983C14.6476 7.09563 14.6359 7.12803 14.6359 7.16147C14.6359 7.19491 14.6476 7.22727 14.6688 7.25311C14.69 7.27891 14.7196 7.29651 14.7524 7.30291Z" stroke="black" stroke-width="0.133391"/>
<path d="M14.5994 6.95472C14.6204 6.95868 14.642 6.95796 14.6626 6.9526C14.6832 6.94728 14.7024 6.93744 14.7188 6.92384C14.7352 6.91024 14.7484 6.89316 14.7575 6.87388C14.7666 6.8546 14.7712 6.83356 14.7712 6.81224C14.7712 6.79092 14.7666 6.76988 14.7575 6.75056C14.7484 6.73128 14.7352 6.71424 14.7188 6.70064C14.7024 6.687 14.6832 6.6772 14.6626 6.67184C14.642 6.66652 14.6204 6.6658 14.5994 6.66972C14.5662 6.67596 14.5362 6.69364 14.5146 6.71964C14.4931 6.74568 14.4812 6.77844 14.4812 6.81224C14.4812 6.84604 14.4931 6.87876 14.5146 6.9048C14.5362 6.9308 14.5662 6.94848 14.5994 6.95472Z" fill="white"/>
<path d="M14.5971 6.95548C14.6353 6.95548 14.672 6.94028 14.699 6.91328C14.726 6.88624 14.7411 6.84956 14.7411 6.81136C14.7411 6.77312 14.726 6.73648 14.699 6.70944C14.672 6.6824 14.6353 6.66724 14.5971 6.66724C14.5589 6.66724 14.5223 6.6824 14.4953 6.70944C14.4683 6.73648 14.4531 6.77312 14.4531 6.81136C14.4531 6.84956 14.4683 6.88624 14.4953 6.91328C14.5223 6.94028 14.5589 6.95548 14.5971 6.95548Z" stroke="black" stroke-width="0.133391"/>
<path d="M14.3354 6.71505C14.3738 6.71505 14.4107 6.69977 14.4379 6.67257C14.4651 6.64537 14.4804 6.60849 14.4804 6.57005C14.4804 6.53161 14.4651 6.49473 14.4379 6.46753C14.4107 6.44033 14.3738 6.42505 14.3354 6.42505C14.3022 6.43129 14.2722 6.44897 14.2506 6.47497C14.229 6.50101 14.2172 6.53373 14.2172 6.56757C14.2172 6.60137 14.229 6.63409 14.2506 6.66013C14.2722 6.68613 14.3022 6.70381 14.3354 6.71005" fill="white"/>
<path d="M14.3367 6.71475C14.3749 6.71475 14.4115 6.69959 14.4385 6.67255C14.4655 6.64551 14.4807 6.60887 14.4807 6.57063C14.4807 6.53243 14.4655 6.49575 14.4385 6.46871C14.4115 6.44171 14.3749 6.42651 14.3367 6.42651C14.3039 6.43291 14.2744 6.45051 14.2531 6.47635C14.2319 6.50215 14.2203 6.53455 14.2203 6.56795C14.2203 6.60139 14.2319 6.63379 14.2531 6.65959C14.2744 6.68539 14.3039 6.70303 14.3367 6.70943V6.71475Z" stroke="black" stroke-width="0.133391"/>
<path d="M14.0198 6.55526C14.0412 6.56106 14.0638 6.56182 14.0856 6.5575C14.1074 6.55318 14.128 6.5439 14.1457 6.53034C14.1634 6.51682 14.1777 6.49938 14.1875 6.47942C14.1974 6.45946 14.2025 6.4375 14.2025 6.41526C14.2025 6.39298 14.1974 6.37102 14.1875 6.35106C14.1777 6.3311 14.1634 6.3137 14.1457 6.30014C14.128 6.28662 14.1074 6.27734 14.0856 6.27302C14.0638 6.2687 14.0412 6.26946 14.0198 6.27526C13.989 6.28354 13.9618 6.30178 13.9424 6.32706C13.923 6.35238 13.9125 6.38338 13.9125 6.41526C13.9125 6.44714 13.923 6.47814 13.9424 6.50342C13.9618 6.52874 13.989 6.54694 14.0198 6.55526Z" fill="white"/>
<path d="M14.0211 6.55582C14.042 6.5599 14.0635 6.5593 14.0841 6.5541C14.1047 6.54886 14.1239 6.53914 14.1403 6.52562C14.1567 6.5121 14.1699 6.4951 14.1789 6.47586C14.188 6.45666 14.1927 6.43566 14.1927 6.41438C14.1927 6.3931 14.188 6.3721 14.1789 6.35286C14.1699 6.33362 14.1567 6.31666 14.1403 6.30314C14.1239 6.28962 14.1047 6.2799 14.0841 6.27466C14.0635 6.26946 14.042 6.26886 14.0211 6.27294C13.9883 6.27934 13.9588 6.29694 13.9375 6.32274C13.9163 6.34854 13.9047 6.38094 13.9047 6.41438C13.9047 6.44782 13.9163 6.48022 13.9375 6.50602C13.9588 6.53182 13.9883 6.54942 14.0211 6.55582Z" stroke="black" stroke-width="0.133391"/>
<path d="M13.6604 6.47423C13.6819 6.47999 13.7044 6.48079 13.7263 6.47647C13.7481 6.47215 13.7687 6.46287 13.7863 6.44931C13.804 6.43579 13.8183 6.41835 13.8282 6.39839C13.838 6.37843 13.8431 6.35647 13.8431 6.33423C13.8431 6.31195 13.838 6.28999 13.8282 6.27003C13.8183 6.25007 13.804 6.23263 13.7863 6.21911C13.7687 6.20555 13.7481 6.19627 13.7263 6.19195C13.7044 6.18763 13.6819 6.18843 13.6604 6.19423C13.6296 6.20251 13.6024 6.22071 13.583 6.24603C13.5637 6.27135 13.5531 6.30235 13.5531 6.33423C13.5531 6.36611 13.5637 6.39707 13.583 6.42239C13.6024 6.44771 13.6296 6.46591 13.6604 6.47423Z" fill="white"/>
<path d="M13.6586 6.4748C13.6794 6.47888 13.701 6.47828 13.7216 6.47304C13.7422 6.46784 13.7614 6.45812 13.7778 6.4446C13.7942 6.43108 13.8074 6.41408 13.8164 6.39484C13.8255 6.3756 13.8302 6.3546 13.8302 6.33336C13.8302 6.31208 13.8255 6.29108 13.8164 6.27184C13.8074 6.2526 13.7942 6.23564 13.7778 6.22212C13.7614 6.2086 13.7422 6.19884 13.7216 6.19364C13.701 6.1884 13.6794 6.1878 13.6586 6.19188C13.6258 6.19828 13.5963 6.21592 13.575 6.24172C13.5538 6.26752 13.5422 6.29992 13.5422 6.33336C13.5422 6.36676 13.5538 6.39916 13.575 6.42496C13.5963 6.4508 13.6258 6.4684 13.6586 6.4748Z" stroke="black" stroke-width="0.133391"/>
<path d="M13.3354 6.4501C13.3563 6.45406 13.3779 6.4533 13.3985 6.44798C13.4192 6.44262 13.4384 6.43282 13.4548 6.41922C13.4712 6.40562 13.4844 6.38854 13.4934 6.36926C13.5025 6.34998 13.5072 6.3289 13.5072 6.30758C13.5072 6.2863 13.5025 6.26522 13.4934 6.24594C13.4844 6.22666 13.4712 6.20958 13.4548 6.19598C13.4384 6.18238 13.4192 6.17258 13.3985 6.16722C13.3779 6.1619 13.3563 6.16114 13.3354 6.1651C13.3022 6.17134 13.2722 6.18902 13.2506 6.21502C13.229 6.24106 13.2172 6.27378 13.2172 6.30758C13.2172 6.34142 13.229 6.37414 13.2506 6.40018C13.2722 6.42618 13.3022 6.44386 13.3354 6.4501Z" fill="white"/>
<path d="M13.3336 6.44819C13.3544 6.45227 13.376 6.45167 13.3966 6.44643C13.4172 6.44123 13.4364 6.43151 13.4528 6.41799C13.4692 6.40447 13.4824 6.38747 13.4914 6.36823C13.5005 6.34899 13.5052 6.32799 13.5052 6.30675C13.5052 6.28547 13.5005 6.26447 13.4914 6.24523C13.4824 6.22599 13.4692 6.20903 13.4528 6.19547C13.4364 6.18195 13.4172 6.17223 13.3966 6.16703C13.376 6.16179 13.3544 6.16119 13.3336 6.16527C13.3008 6.17167 13.2713 6.18931 13.25 6.21511C13.2288 6.24091 13.2172 6.27331 13.2172 6.30675C13.2172 6.34015 13.2288 6.37255 13.25 6.39835C13.2713 6.42419 13.3008 6.44179 13.3336 6.44819Z" stroke="black" stroke-width="0.133391"/>
<path d="M13.0354 6.40931C13.0563 6.41327 13.0779 6.41255 13.0985 6.40719C13.1192 6.40187 13.1384 6.39203 13.1548 6.37843C13.1712 6.36483 13.1844 6.34779 13.1934 6.32847C13.2025 6.30919 13.2072 6.28815 13.2072 6.26683C13.2072 6.24551 13.2025 6.22447 13.1934 6.20519C13.1844 6.18587 13.1712 6.16883 13.1548 6.15523C13.1384 6.14163 13.1192 6.13179 13.0985 6.12643C13.0779 6.12111 13.0563 6.12039 13.0354 6.12431C13.0022 6.13059 12.9722 6.14823 12.9506 6.17427C12.929 6.20027 12.9172 6.23303 12.9172 6.26683C12.9172 6.30063 12.929 6.33339 12.9506 6.35939C12.9722 6.38543 13.0022 6.40307 13.0354 6.40931Z" fill="white"/>
<path d="M13.0346 6.41177C13.0728 6.41177 13.1094 6.39658 13.1364 6.36958C13.1634 6.34254 13.1786 6.30589 13.1786 6.26765C13.1786 6.22941 13.1634 6.19277 13.1364 6.16573C13.1094 6.13873 13.0728 6.12354 13.0346 6.12354C12.9964 6.12354 12.9598 6.13873 12.9328 6.16573C12.9058 6.19277 12.8906 6.22941 12.8906 6.26765C12.8906 6.30589 12.9058 6.34254 12.9328 6.36958C12.9598 6.39658 12.9964 6.41177 13.0346 6.41177Z" stroke="black" stroke-width="0.133391"/>
<path d="M13.2247 7.57048C13.2456 7.5744 13.2672 7.57367 13.2878 7.56835C13.3084 7.56299 13.3276 7.5532 13.3441 7.5396C13.3605 7.52596 13.3737 7.50891 13.3827 7.48963C13.3918 7.47031 13.3965 7.44928 13.3965 7.42796C13.3965 7.40664 13.3918 7.38559 13.3827 7.36631C13.3737 7.34703 13.3605 7.32996 13.3441 7.31636C13.3276 7.30276 13.3084 7.29291 13.2878 7.28759C13.2672 7.28223 13.2456 7.28152 13.2247 7.28548C13.1862 7.28548 13.1494 7.30076 13.1222 7.32796C13.095 7.35512 13.0797 7.392 13.0797 7.43048C13.0797 7.46892 13.095 7.5058 13.1222 7.533C13.1494 7.56019 13.1862 7.57547 13.2247 7.57547" fill="white"/>
<path d="M13.2268 7.57001C13.2477 7.57409 13.2692 7.57349 13.2898 7.56825C13.3104 7.56305 13.3296 7.55333 13.346 7.53981C13.3624 7.52629 13.3756 7.50929 13.3846 7.49006C13.3937 7.47082 13.3984 7.44981 13.3984 7.42853C13.3984 7.40729 13.3937 7.38629 13.3846 7.36705C13.3756 7.34781 13.3624 7.33081 13.346 7.31729C13.3296 7.30377 13.3104 7.29405 13.2898 7.28885C13.2692 7.28361 13.2477 7.28301 13.2268 7.28709C13.1886 7.28709 13.152 7.30229 13.125 7.32929C13.098 7.35633 13.0828 7.39301 13.0828 7.43121C13.0828 7.46945 13.098 7.5061 13.125 7.53314C13.152 7.56018 13.1886 7.57533 13.2268 7.57533V7.57001Z" stroke="black" stroke-width="0.133391"/>
<path d="M13.2994 7.29995C13.3204 7.30391 13.342 7.30315 13.3626 7.29783C13.3832 7.29247 13.4024 7.28267 13.4188 7.26907C13.4352 7.25547 13.4484 7.23839 13.4575 7.21911C13.4666 7.19983 13.4712 7.17875 13.4712 7.15743C13.4712 7.13615 13.4666 7.11507 13.4575 7.09579C13.4484 7.07651 13.4352 7.05943 13.4188 7.04583C13.4024 7.03223 13.3832 7.02244 13.3626 7.01708C13.342 7.01176 13.3204 7.01099 13.2994 7.01495C13.2686 7.02323 13.2415 7.04148 13.2221 7.0668C13.2027 7.09208 13.1922 7.12307 13.1922 7.15495C13.1922 7.18683 13.2027 7.21783 13.2221 7.24311C13.2415 7.26843 13.2686 7.28663 13.2994 7.29495" fill="white"/>
<path d="M13.3008 7.3024C13.339 7.3024 13.3756 7.2872 13.4026 7.26016C13.4296 7.23316 13.4448 7.19648 13.4448 7.15828C13.4448 7.12004 13.4296 7.0834 13.4026 7.05636C13.3756 7.02932 13.339 7.01416 13.3008 7.01416C13.268 7.02056 13.2385 7.03816 13.2172 7.06396C13.196 7.08976 13.1844 7.12216 13.1844 7.1556C13.1844 7.18904 13.196 7.22144 13.2172 7.24724C13.2385 7.27304 13.268 7.29064 13.3008 7.29704V7.3024Z" stroke="black" stroke-width="0.133391"/>
<path d="M12.1044 6.3901C12.1428 6.3901 12.1797 6.37482 12.2069 6.34762C12.2341 6.32042 12.2494 6.28354 12.2494 6.2451C12.2494 6.20666 12.2341 6.16978 12.2069 6.14258C12.1797 6.11538 12.1428 6.1001 12.1044 6.1001C12.0659 6.1001 12.029 6.11538 12.0018 6.14258C11.9746 6.16978 11.9594 6.20666 11.9594 6.2451C11.9594 6.28354 11.9746 6.32042 12.0018 6.34762C12.029 6.37482 12.0659 6.3901 12.1044 6.3901Z" fill="white"/>
<path d="M12.1065 6.3898C12.1447 6.3898 12.1813 6.37464 12.2083 6.3476C12.2353 6.32056 12.2505 6.28392 12.2505 6.24568C12.2505 6.20748 12.2353 6.1708 12.2083 6.14376C12.1813 6.11676 12.1447 6.10156 12.1065 6.10156C12.0683 6.10156 12.0317 6.11676 12.0047 6.14376C11.9777 6.1708 11.9625 6.20748 11.9625 6.24568C11.9625 6.28392 11.9777 6.32056 12.0047 6.3476C12.0317 6.37464 12.0683 6.3898 12.1065 6.3898Z" stroke="black" stroke-width="0.133391"/>
<path d="M11.4151 6.35C11.436 6.35396 11.4576 6.3532 11.4782 6.34788C11.4988 6.34252 11.518 6.33272 11.5344 6.31912C11.5508 6.30552 11.564 6.28844 11.5731 6.26916C11.5822 6.24988 11.5869 6.2288 11.5869 6.20748C11.5869 6.1862 11.5822 6.16512 11.5731 6.14584C11.564 6.12656 11.5508 6.10948 11.5344 6.09588C11.518 6.08228 11.4988 6.07248 11.4782 6.06712C11.4576 6.0618 11.436 6.06104 11.4151 6.065C11.3843 6.07328 11.3571 6.09152 11.3377 6.11684C11.3183 6.14212 11.3078 6.17312 11.3078 6.205C11.3078 6.23688 11.3183 6.26788 11.3377 6.29316C11.3571 6.31848 11.3843 6.33672 11.4151 6.345" fill="white"/>
<path d="M11.4133 6.34663C11.4342 6.35071 11.4556 6.35011 11.4762 6.34487C11.4968 6.33967 11.516 6.32995 11.5324 6.31643C11.5488 6.30291 11.562 6.28591 11.5711 6.26667C11.5802 6.24743 11.5849 6.22643 11.5849 6.20519C11.5849 6.18391 11.5802 6.16291 11.5711 6.14367C11.562 6.12443 11.5488 6.10743 11.5324 6.09391C11.516 6.08039 11.4968 6.07067 11.4762 6.06547C11.4556 6.06023 11.4342 6.05963 11.4133 6.06371C11.3805 6.07011 11.351 6.08775 11.3297 6.11355C11.3085 6.13935 11.2969 6.17175 11.2969 6.20519C11.2969 6.23859 11.3085 6.27099 11.3297 6.29679C11.351 6.32259 11.3805 6.34023 11.4133 6.34663Z" stroke="black" stroke-width="0.133391"/>
<path d="M11.2448 6.33969C11.2662 6.34549 11.2888 6.34625 11.3106 6.34193C11.3324 6.33761 11.353 6.32833 11.3707 6.31481C11.3884 6.30125 11.4027 6.28385 11.4125 6.26389C11.4224 6.24393 11.4275 6.22197 11.4275 6.19969C11.4275 6.17745 11.4224 6.15549 11.4125 6.13553C11.4027 6.11557 11.3884 6.09813 11.3707 6.08461C11.353 6.07105 11.3324 6.06177 11.3106 6.05745C11.2888 6.05313 11.2662 6.05389 11.2448 6.05969C11.214 6.06801 11.1868 6.08621 11.1674 6.11153C11.148 6.13681 11.1375 6.16781 11.1375 6.19969C11.1375 6.23157 11.148 6.26257 11.1674 6.28789C11.1868 6.31317 11.214 6.33141 11.2448 6.33969Z" fill="white"/>
<path d="M11.243 6.34199C11.2638 6.34607 11.2853 6.34547 11.3059 6.34023C11.3265 6.33499 11.3457 6.32527 11.3621 6.31175C11.3785 6.29823 11.3917 6.28127 11.4008 6.26203C11.4098 6.24279 11.4146 6.22179 11.4146 6.20051C11.4146 6.17927 11.4098 6.15827 11.4008 6.13903C11.3917 6.11979 11.3785 6.10279 11.3621 6.08927C11.3457 6.07575 11.3265 6.06603 11.3059 6.06083C11.2853 6.05559 11.2638 6.05499 11.243 6.05907C11.2102 6.06547 11.1806 6.08307 11.1594 6.10891C11.1382 6.13471 11.1266 6.16711 11.1266 6.20051C11.1266 6.23395 11.1382 6.26635 11.1594 6.29215C11.1806 6.31795 11.2102 6.33559 11.243 6.34199Z" stroke="black" stroke-width="0.133391"/>
<path d="M10.3354 7.5751C10.3563 7.57906 10.3779 7.5783 10.3985 7.57298C10.4192 7.56762 10.4384 7.55782 10.4548 7.54422C10.4712 7.53062 10.4844 7.51354 10.4934 7.49426C10.5025 7.47498 10.5072 7.4539 10.5072 7.43258C10.5072 7.4113 10.5025 7.39022 10.4934 7.37094C10.4844 7.35166 10.4712 7.33458 10.4548 7.32098C10.4384 7.30738 10.4192 7.29758 10.3985 7.29222C10.3779 7.2869 10.3563 7.28614 10.3354 7.2901C10.3022 7.29634 10.2722 7.31402 10.2506 7.34002C10.229 7.36606 10.2172 7.39878 10.2172 7.43258C10.2172 7.46642 10.229 7.49914 10.2506 7.52518C10.2722 7.55118 10.3022 7.56886 10.3354 7.5751Z" fill="white"/>
<path d="M10.3367 7.57465C10.3576 7.57873 10.3791 7.57813 10.3997 7.57289C10.4203 7.56769 10.4395 7.55797 10.4559 7.54445C10.4723 7.53093 10.4855 7.51393 10.4945 7.49469C10.5036 7.47545 10.5083 7.45445 10.5083 7.43321C10.5083 7.41193 10.5036 7.39093 10.4945 7.37169C10.4855 7.35245 10.4723 7.33549 10.4559 7.32197C10.4395 7.30845 10.4203 7.29869 10.3997 7.29349C10.3791 7.28825 10.3576 7.28765 10.3367 7.29173C10.3039 7.29813 10.2744 7.31577 10.2531 7.34157C10.2319 7.36737 10.2203 7.39977 10.2203 7.43321C10.2203 7.46661 10.2319 7.49901 10.2531 7.52481C10.2744 7.55065 10.3039 7.56825 10.3367 7.57465Z" stroke="black" stroke-width="0.133391"/>
<path d="M10.295 7.23995C10.3334 7.23995 10.3703 7.22467 10.3975 7.19747C10.4247 7.17027 10.44 7.13339 10.44 7.09495C10.44 7.05651 10.4247 7.01963 10.3975 6.99243C10.3703 6.96523 10.3334 6.94995 10.295 6.94995C10.2566 6.94995 10.2197 6.96523 10.1925 6.99243C10.1653 7.01963 10.15 7.05651 10.15 7.09495C10.15 7.13339 10.1653 7.17027 10.1925 7.19747C10.2197 7.22467 10.2566 7.23995 10.295 7.23995Z" fill="white"/>
<path d="M10.294 7.23819C10.3322 7.23819 10.3688 7.22303 10.3958 7.19599C10.4228 7.16895 10.438 7.13231 10.438 7.09407C10.438 7.05587 10.4228 7.01919 10.3958 6.99215C10.3688 6.96515 10.3322 6.94995 10.294 6.94995C10.2558 6.94995 10.2192 6.96515 10.1922 6.99215C10.1652 7.01919 10.15 7.05587 10.15 7.09407C10.15 7.13231 10.1652 7.16895 10.1922 7.19599C10.2192 7.22303 10.2558 7.23819 10.294 7.23819Z" stroke="black" stroke-width="0.133391"/>
<path d="M10.3995 6.90931C10.4204 6.91327 10.442 6.91255 10.4626 6.90719C10.4832 6.90187 10.5024 6.89203 10.5188 6.87843C10.5353 6.86483 10.5485 6.84779 10.5575 6.82847C10.5666 6.80919 10.5713 6.78815 10.5713 6.76683C10.5713 6.74551 10.5666 6.72447 10.5575 6.70515C10.5485 6.68587 10.5353 6.66883 10.5188 6.65523C10.5024 6.64163 10.4832 6.63179 10.4626 6.62643C10.442 6.62111 10.4204 6.62039 10.3995 6.62431C10.3662 6.63059 10.3362 6.64823 10.3146 6.67427C10.2931 6.70027 10.2812 6.73303 10.2812 6.76683C10.2812 6.80063 10.2931 6.83339 10.3146 6.85939C10.3362 6.88543 10.3662 6.90307 10.3995 6.90931Z" fill="white"/>
<path d="M10.4008 6.90738C10.4216 6.91146 10.4432 6.91086 10.4638 6.90566C10.4844 6.90042 10.5035 6.8907 10.5199 6.87718C10.5363 6.86366 10.5495 6.84666 10.5586 6.82746C10.5677 6.80822 10.5724 6.78722 10.5724 6.76594C10.5724 6.74466 10.5677 6.72366 10.5586 6.70442C10.5495 6.68522 10.5363 6.66822 10.5199 6.6547C10.5035 6.64118 10.4844 6.63146 10.4638 6.62622C10.4432 6.62102 10.4216 6.62042 10.4008 6.6245C10.368 6.6309 10.3385 6.6485 10.3172 6.6743C10.296 6.7001 10.2844 6.7325 10.2844 6.76594C10.2844 6.79938 10.296 6.83178 10.3172 6.85758C10.3385 6.88338 10.368 6.90098 10.4008 6.90738Z" stroke="black" stroke-width="0.133391"/>
<path d="M11.0245 6.37515C11.0454 6.37911 11.067 6.37835 11.0876 6.37303C11.1082 6.36767 11.1274 6.35787 11.1438 6.34427C11.1603 6.33067 11.1735 6.31359 11.1825 6.29431C11.1916 6.27503 11.1963 6.25395 11.1963 6.23263C11.1963 6.21135 11.1916 6.19027 11.1825 6.17099C11.1735 6.15171 11.1603 6.13463 11.1438 6.12103C11.1274 6.10743 11.1082 6.09763 11.0876 6.09227C11.067 6.08695 11.0454 6.08619 11.0245 6.09015C10.9912 6.09639 10.9612 6.11407 10.9396 6.14007C10.9181 6.16611 10.9062 6.19883 10.9062 6.23263C10.9062 6.26647 10.9181 6.29919 10.9396 6.32523C10.9612 6.35123 10.9912 6.36891 11.0245 6.37515Z" fill="white"/>
<path d="M11.0242 6.37324C11.0451 6.37732 11.0666 6.37672 11.0872 6.37148C11.1078 6.36628 11.127 6.35656 11.1434 6.34304C11.1598 6.32952 11.173 6.31252 11.182 6.29328C11.1911 6.27404 11.1958 6.25304 11.1958 6.2318C11.1958 6.21052 11.1911 6.18952 11.182 6.17028C11.173 6.15104 11.1598 6.13408 11.1434 6.12052C11.127 6.107 11.1078 6.09728 11.0872 6.09208C11.0666 6.08684 11.0451 6.08624 11.0242 6.09032C10.9914 6.09672 10.9619 6.11436 10.9407 6.14016C10.9194 6.16596 10.9078 6.19836 10.9078 6.2318C10.9078 6.2652 10.9194 6.2976 10.9407 6.3234C10.9619 6.3492 10.9914 6.36684 11.0242 6.37324Z" stroke="black" stroke-width="0.133391"/>
<path d="M10.7854 6.47038C10.8063 6.4743 10.8279 6.47358 10.8485 6.46826C10.8692 6.4629 10.8884 6.4531 10.9048 6.4395C10.9212 6.42586 10.9344 6.40882 10.9434 6.38954C10.9525 6.37022 10.9572 6.34918 10.9572 6.32786C10.9572 6.30654 10.9525 6.2855 10.9434 6.26622C10.9344 6.24694 10.9212 6.22986 10.9048 6.21626C10.8884 6.20266 10.8692 6.19282 10.8485 6.1875C10.8279 6.18214 10.8063 6.18142 10.7854 6.18538C10.7522 6.19162 10.7222 6.2093 10.7006 6.2353C10.679 6.26134 10.6672 6.29406 10.6672 6.32786C10.6672 6.36166 10.679 6.39442 10.7006 6.42046C10.7222 6.44646 10.7522 6.46414 10.7854 6.47038Z" fill="white"/>
<path d="M10.7836 6.46992C10.8044 6.474 10.826 6.4734 10.8466 6.46816C10.8672 6.46296 10.8863 6.45324 10.9028 6.43972C10.9192 6.4262 10.9324 6.4092 10.9414 6.38996C10.9505 6.37072 10.9552 6.34972 10.9552 6.32844C10.9552 6.3072 10.9505 6.2862 10.9414 6.26696C10.9324 6.24772 10.9192 6.23072 10.9028 6.2172C10.8863 6.20368 10.8672 6.19396 10.8466 6.18876C10.826 6.18352 10.8044 6.18292 10.7836 6.187C10.7508 6.1934 10.7213 6.21104 10.7 6.23684C10.6788 6.26264 10.6672 6.29504 10.6672 6.32844C10.6672 6.36188 10.6788 6.39428 10.7 6.42008C10.7213 6.44588 10.7508 6.46352 10.7836 6.46992Z" stroke="black" stroke-width="0.133391"/>
<path d="M10.5604 6.66C10.5819 6.6658 10.6044 6.66656 10.6262 6.66224C10.6481 6.65792 10.6686 6.64864 10.6863 6.63512C10.704 6.62156 10.7183 6.60416 10.7282 6.5842C10.738 6.56424 10.7431 6.54228 10.7431 6.52C10.7431 6.49772 10.738 6.47576 10.7282 6.4558C10.7183 6.43584 10.704 6.41844 10.6863 6.40488C10.6686 6.39136 10.6481 6.38208 10.6262 6.37776C10.6044 6.37344 10.5819 6.3742 10.5604 6.38C10.5296 6.38828 10.5024 6.40652 10.483 6.43184C10.4636 6.45712 10.4531 6.48812 10.4531 6.52C10.4531 6.55188 10.4636 6.58288 10.483 6.60816C10.5024 6.63348 10.5296 6.65172 10.5604 6.66Z" fill="white"/>
<path d="M10.5602 6.6623C10.581 6.66634 10.6025 6.66574 10.6231 6.66054C10.6437 6.6553 10.6629 6.64558 10.6793 6.63206C10.6957 6.61854 10.7089 6.60158 10.718 6.58234C10.727 6.5631 10.7318 6.5421 10.7318 6.52082C10.7318 6.49954 10.727 6.47854 10.718 6.45934C10.7089 6.4401 10.6957 6.4231 10.6793 6.40958C10.6629 6.39606 10.6437 6.38634 10.6231 6.3811C10.6025 6.3759 10.581 6.3753 10.5602 6.37938C10.5274 6.38578 10.4978 6.40338 10.4766 6.42918C10.4554 6.45498 10.4438 6.48738 10.4438 6.52082C10.4438 6.55426 10.4554 6.58666 10.4766 6.61246C10.4978 6.63826 10.5274 6.65586 10.5602 6.6623Z" stroke="black" stroke-width="0.133391"/>
<path d="M11.7994 6.57409C11.8209 6.57985 11.8435 6.58065 11.8653 6.57633C11.8872 6.57201 11.9077 6.56273 11.9254 6.54917C11.943 6.53565 11.9574 6.51821 11.9672 6.49825C11.9771 6.47829 11.9822 6.45633 11.9822 6.43409C11.9822 6.41181 11.9771 6.38985 11.9672 6.36989C11.9574 6.34993 11.943 6.33249 11.9254 6.31897C11.9077 6.30541 11.8872 6.29613 11.8653 6.29181C11.8435 6.28749 11.8209 6.28829 11.7994 6.29409C11.7686 6.30237 11.7415 6.32057 11.7221 6.34589C11.7027 6.37121 11.6922 6.40221 11.6922 6.43409C11.6922 6.46597 11.7027 6.49693 11.7221 6.52225C11.7415 6.54757 11.7686 6.56577 11.7994 6.57409Z" fill="white"/>
<path d="M11.7977 6.57635C11.8185 6.58043 11.84 6.57983 11.8606 6.57459C11.8812 6.56939 11.9004 6.55967 11.9168 6.54615C11.9332 6.53263 11.9464 6.51563 11.9555 6.49639C11.9646 6.47715 11.9692 6.45615 11.9692 6.43491C11.9692 6.41363 11.9646 6.39263 11.9555 6.37339C11.9464 6.35415 11.9332 6.33719 11.9168 6.32367C11.9004 6.31015 11.8812 6.30043 11.8606 6.29519C11.84 6.28995 11.8185 6.28939 11.7977 6.29343C11.7649 6.29983 11.7353 6.31747 11.7141 6.34327C11.6929 6.36907 11.6812 6.40147 11.6812 6.43491C11.6812 6.46835 11.6929 6.50071 11.7141 6.52651C11.7353 6.55235 11.7649 6.56995 11.7977 6.57635Z" stroke="black" stroke-width="0.133391"/>
<path d="M11.7997 6.84933C11.8382 6.84933 11.8751 6.83405 11.9022 6.80689C11.9294 6.77969 11.9447 6.74281 11.9447 6.70433C11.9447 6.66589 11.9294 6.62901 11.9022 6.60181C11.8751 6.57461 11.8382 6.55933 11.7997 6.55933C11.7613 6.55933 11.7244 6.57461 11.6972 6.60181C11.67 6.62901 11.6547 6.66589 11.6547 6.70433C11.6547 6.74281 11.67 6.77969 11.6972 6.80689C11.7244 6.83405 11.7613 6.84933 11.7997 6.84933Z" fill="white"/>
<path d="M11.7971 6.84931C11.8353 6.84931 11.8719 6.83412 11.8989 6.80708C11.9259 6.78008 11.9411 6.74339 11.9411 6.70519C11.9411 6.66695 11.9259 6.63028 11.8989 6.60328C11.8719 6.57624 11.8353 6.56104 11.7971 6.56104C11.7589 6.56104 11.7223 6.57624 11.6953 6.60328C11.6683 6.63028 11.6531 6.66695 11.6531 6.70519C11.6531 6.74339 11.6683 6.78008 11.6953 6.80708C11.7223 6.83412 11.7589 6.84931 11.7971 6.84931Z" stroke="black" stroke-width="0.133391"/>
<path d="M11.7994 7.13441C11.8204 7.13837 11.842 7.13765 11.8626 7.13229C11.8832 7.12697 11.9024 7.11713 11.9188 7.10353C11.9352 7.08993 11.9484 7.07289 11.9575 7.05357C11.9666 7.03429 11.9712 7.01325 11.9712 6.99193C11.9712 6.97061 11.9666 6.94957 11.9575 6.93025C11.9484 6.91097 11.9352 6.89393 11.9188 6.88033C11.9024 6.86673 11.8832 6.85689 11.8626 6.85153C11.842 6.84621 11.8204 6.84549 11.7994 6.84941C11.7662 6.85569 11.7362 6.87333 11.7146 6.89937C11.6931 6.92537 11.6812 6.95813 11.6812 6.99193C11.6812 7.02573 11.6931 7.05849 11.7146 7.08449C11.7362 7.11053 11.7662 7.12817 11.7994 7.13441Z" fill="white"/>
<path d="M11.7971 7.13663C11.8353 7.13663 11.8719 7.12143 11.8989 7.09443C11.9259 7.06739 11.9411 7.03075 11.9411 6.99251C11.9411 6.95427 11.9259 6.91763 11.8989 6.89059C11.8719 6.86359 11.8353 6.84839 11.7971 6.84839C11.7589 6.84839 11.7223 6.86359 11.6953 6.89059C11.6683 6.91763 11.6531 6.95427 11.6531 6.99251C11.6531 7.03075 11.6683 7.06739 11.6953 7.09443C11.7223 7.12143 11.7589 7.13663 11.7971 7.13663Z" stroke="black" stroke-width="0.133391"/>
<path d="M12.2903 6.35C12.3112 6.35396 12.3328 6.3532 12.3534 6.34788C12.3741 6.34252 12.3933 6.33272 12.4097 6.31912C12.4261 6.30552 12.4393 6.28844 12.4484 6.26916C12.4574 6.24988 12.4621 6.2288 12.4621 6.20748C12.4621 6.1862 12.4574 6.16512 12.4484 6.14584C12.4393 6.12656 12.4261 6.10948 12.4097 6.09588C12.3933 6.08228 12.3741 6.07248 12.3534 6.06712C12.3328 6.0618 12.3112 6.06104 12.2903 6.065C12.2518 6.065 12.215 6.08028 12.1878 6.10748C12.1606 6.13468 12.1453 6.17156 12.1453 6.21C12.1453 6.24844 12.1606 6.28532 12.1878 6.31252C12.215 6.33972 12.2518 6.355 12.2903 6.355" fill="white"/>
<path d="M12.2878 6.35245C12.326 6.35245 12.3626 6.33725 12.3896 6.31021C12.4166 6.28321 12.4318 6.24653 12.4318 6.20833C12.4318 6.17009 12.4166 6.13345 12.3896 6.10641C12.3626 6.07937 12.326 6.06421 12.2878 6.06421C12.2496 6.06421 12.2129 6.07937 12.1859 6.10641C12.1589 6.13345 12.1438 6.17009 12.1438 6.20833C12.1438 6.24653 12.1589 6.28321 12.1859 6.31021C12.2129 6.33725 12.2496 6.35245 12.2878 6.35245Z" stroke="black" stroke-width="0.133391"/>
<path d="M12.4807 6.30946C12.5016 6.31342 12.5232 6.3127 12.5438 6.30734C12.5645 6.30202 12.5837 6.29218 12.6001 6.27858C12.6165 6.26498 12.6297 6.24794 12.6387 6.22862C12.6478 6.20934 12.6525 6.1883 12.6525 6.16698C12.6525 6.14566 12.6478 6.12462 12.6387 6.10534C12.6297 6.08602 12.6165 6.06898 12.6001 6.05538C12.5837 6.04178 12.5645 6.03194 12.5438 6.02658C12.5232 6.02126 12.5016 6.02054 12.4807 6.02446C12.4475 6.03074 12.4175 6.04838 12.3959 6.07442C12.3743 6.10042 12.3625 6.13318 12.3625 6.16698C12.3625 6.20078 12.3743 6.23354 12.3959 6.25954C12.4175 6.28558 12.4475 6.30322 12.4807 6.30946Z" fill="white"/>
<path d="M12.4805 6.30899C12.5013 6.31307 12.5228 6.31247 12.5434 6.30727C12.564 6.30203 12.5832 6.29231 12.5996 6.27879C12.616 6.26527 12.6292 6.24827 12.6383 6.22907C12.6474 6.20983 12.6521 6.18883 12.6521 6.16755C12.6521 6.14627 12.6474 6.12527 12.6383 6.10603C12.6292 6.08683 12.616 6.06983 12.5996 6.05631C12.5832 6.04279 12.564 6.03307 12.5434 6.02783C12.5228 6.02263 12.5013 6.02203 12.4805 6.02611C12.4477 6.03251 12.4182 6.05011 12.3969 6.07591C12.3757 6.10171 12.3641 6.13411 12.3641 6.16755C12.3641 6.20099 12.3757 6.23339 12.3969 6.25919C12.4182 6.28499 12.4477 6.30259 12.4805 6.30899Z" stroke="black" stroke-width="0.133391"/>
<path d="M12.6994 6.33969C12.7209 6.34549 12.7435 6.34625 12.7653 6.34193C12.7872 6.33761 12.8077 6.32833 12.8254 6.31481C12.843 6.30125 12.8574 6.28385 12.8672 6.26389C12.8771 6.24393 12.8822 6.22197 12.8822 6.19969C12.8822 6.17745 12.8771 6.15549 12.8672 6.13553C12.8574 6.11557 12.843 6.09813 12.8254 6.08461C12.8077 6.07105 12.7872 6.06177 12.7653 6.05745C12.7435 6.05313 12.7209 6.05389 12.6994 6.05969C12.6662 6.06593 12.6362 6.08361 12.6146 6.10961C12.5931 6.13565 12.5812 6.16841 12.5812 6.20221C12.5812 6.23601 12.5931 6.26873 12.6146 6.29477C12.6362 6.32077 12.6662 6.33845 12.6994 6.34469" fill="white"/>
<path d="M12.7049 6.34199C12.7258 6.34607 12.7473 6.34547 12.7679 6.34023C12.7885 6.33499 12.8077 6.32527 12.8241 6.31175C12.8405 6.29823 12.8537 6.28127 12.8628 6.26203C12.8718 6.24279 12.8765 6.22179 12.8765 6.20051C12.8765 6.17927 12.8718 6.15827 12.8628 6.13903C12.8537 6.11979 12.8405 6.10279 12.8241 6.08927C12.8077 6.07575 12.7885 6.06603 12.7679 6.06083C12.7473 6.05559 12.7258 6.05499 12.7049 6.05907C12.6668 6.05907 12.6301 6.07427 12.6031 6.10127C12.5761 6.12831 12.5609 6.16495 12.5609 6.20319C12.5609 6.24143 12.5761 6.27807 12.6031 6.30511C12.6301 6.33215 12.6668 6.34731 12.7049 6.34731V6.34199Z" stroke="black" stroke-width="0.133391"/>
<path d="M13.2495 6.94909C13.2709 6.95485 13.2935 6.95565 13.3153 6.95133C13.3372 6.94701 13.3577 6.93773 13.3754 6.92417C13.3931 6.91065 13.4074 6.89321 13.4172 6.87325C13.4271 6.85329 13.4322 6.83132 13.4322 6.80908C13.4322 6.7868 13.4271 6.76485 13.4172 6.74489C13.4074 6.72493 13.3931 6.70749 13.3754 6.69397C13.3577 6.68041 13.3372 6.67113 13.3153 6.66681C13.2935 6.66249 13.2709 6.66329 13.2495 6.66909C13.2187 6.67737 13.1915 6.69557 13.1721 6.72089C13.1527 6.74621 13.1422 6.7772 13.1422 6.80908C13.1422 6.84096 13.1527 6.87192 13.1721 6.89724C13.1915 6.92256 13.2187 6.94077 13.2495 6.94909Z" fill="white"/>
<path d="M13.2539 6.94965C13.2748 6.95373 13.2963 6.95313 13.3169 6.94789C13.3375 6.94269 13.3566 6.93297 13.373 6.91945C13.3894 6.90593 13.4027 6.88893 13.4117 6.86969C13.4208 6.85045 13.4255 6.82945 13.4255 6.80821C13.4255 6.78693 13.4208 6.76593 13.4117 6.74669C13.4027 6.72745 13.3894 6.71049 13.373 6.69697C13.3566 6.68345 13.3375 6.67369 13.3169 6.66849C13.2963 6.66325 13.2748 6.66265 13.2539 6.66673C13.2211 6.67313 13.1916 6.69077 13.1704 6.71657C13.1491 6.74237 13.1375 6.77477 13.1375 6.80821C13.1375 6.84161 13.1491 6.87401 13.1704 6.89981C13.1916 6.92565 13.2211 6.94325 13.2539 6.94965Z" stroke="black" stroke-width="0.133391"/>
<path d="M12.9247 6.47433C12.9437 6.47433 12.9626 6.47061 12.9802 6.46329C12.9978 6.45601 13.0138 6.44533 13.0272 6.43189C13.0407 6.41841 13.0514 6.40241 13.0587 6.38485C13.0659 6.36725 13.0697 6.34837 13.0697 6.32933C13.0697 6.31029 13.0659 6.29145 13.0587 6.27385C13.0514 6.25625 13.0407 6.24029 13.0272 6.22681C13.0138 6.21337 12.9978 6.20265 12.9802 6.19537C12.9626 6.18809 12.9437 6.18433 12.9247 6.18433C12.8863 6.18433 12.8494 6.19961 12.8222 6.22681C12.795 6.25401 12.7797 6.29089 12.7797 6.32933C12.7797 6.36781 12.795 6.40469 12.8222 6.43189C12.8494 6.45905 12.8863 6.47433 12.9247 6.47433Z" fill="white"/>
<path d="M12.9221 6.47574C12.9603 6.47574 12.9969 6.46054 13.0239 6.4335C13.0509 6.4065 13.0661 6.36982 13.0661 6.33162C13.0661 6.29338 13.0509 6.25674 13.0239 6.2297C12.9969 6.20266 12.9603 6.18746 12.9221 6.1875C12.8839 6.18746 12.8473 6.20266 12.8203 6.2297C12.7933 6.25674 12.7781 6.29338 12.7781 6.33162C12.7781 6.36982 12.7933 6.4065 12.8203 6.4335C12.8473 6.46054 12.8839 6.47574 12.9221 6.47574Z" stroke="black" stroke-width="0.133391"/>
<path d="M13.1244 6.67033C13.1454 6.67425 13.1669 6.67353 13.1875 6.66821C13.2082 6.66285 13.2274 6.65305 13.2438 6.63945C13.2602 6.62581 13.2734 6.60877 13.2825 6.58949C13.2915 6.57017 13.2962 6.54913 13.2962 6.52781C13.2962 6.50649 13.2915 6.48545 13.2825 6.46617C13.2734 6.44689 13.2602 6.42981 13.2438 6.41621C13.2274 6.40261 13.2082 6.39277 13.1875 6.38745C13.1669 6.38209 13.1454 6.38137 13.1244 6.38533C13.0912 6.39157 13.0612 6.40925 13.0396 6.43525C13.0181 6.46129 13.0062 6.49401 13.0062 6.52781C13.0062 6.56161 13.0181 6.59437 13.0396 6.62041C13.0612 6.64641 13.0912 6.66409 13.1244 6.67033Z" fill="white"/>
<path d="M13.1258 6.66694C13.1466 6.67102 13.1682 6.67042 13.1888 6.66518C13.2094 6.65994 13.2285 6.65022 13.2449 6.6367C13.2613 6.62318 13.2745 6.60622 13.2836 6.58698C13.2927 6.56774 13.2974 6.54674 13.2974 6.52546C13.2974 6.50422 13.2927 6.48322 13.2836 6.46398C13.2745 6.44474 13.2613 6.42774 13.2449 6.41422C13.2285 6.4007 13.2094 6.39098 13.1888 6.38578C13.1682 6.38054 13.1466 6.37994 13.1258 6.38402C13.093 6.39042 13.0635 6.40802 13.0422 6.43386C13.021 6.45966 13.0094 6.49206 13.0094 6.52546C13.0094 6.5589 13.021 6.5913 13.0422 6.6171C13.0635 6.6429 13.093 6.66054 13.1258 6.66694Z" stroke="black" stroke-width="0.133391"/>
<path d="M11.7856 8.80041L11.4156 8.99041L11.7506 9.20541L12.1506 9.00541L11.7856 8.79541" fill="white"/>
<path d="M11.7874 8.79688L11.4141 8.98904L11.7501 9.20255L12.1501 8.99971L11.7874 8.79688Z" stroke="black" stroke-width="0.0666953"/>
<path d="M10.9651 8.83911L10.4051 8.92411C10.4051 8.92411 10.3951 9.22911 10.4201 9.29911L11.0051 9.22411C11.0051 9.22411 11.0301 8.93911 10.9651 8.83911Z" fill="white"/>
<path d="M10.9652 8.83911L10.4052 8.92451C10.4052 8.92451 10.3946 9.22875 10.4212 9.29815L11.0026 9.22343C11.0026 9.22343 11.0292 8.94051 10.9652 8.83911Z" stroke="black" stroke-width="0.0666953"/>
<path d="M10.9047 8.94995C10.9047 8.94995 10.5647 8.97995 10.4797 9.00995V9.20995C10.4797 9.20995 10.7097 9.17495 10.9097 9.15995V8.94995" fill="#058E6E" fill-opacity="0.9"/>
<path d="M10.9064 8.94702C10.9064 8.94702 10.565 8.97906 10.4797 9.01106V9.2139C10.4797 9.2139 10.709 9.17654 10.9117 9.16054L10.9064 8.94702Z" stroke="black" stroke-width="0.0666953"/>
<path d="M12.5703 8.8501L13.1353 8.9401C13.1353 8.9401 13.1403 9.2451 13.1153 9.3151L12.5403 9.2401C12.5403 9.2401 12.5103 8.9601 12.5703 8.8551" fill="white"/>
<path d="M12.5708 8.8501L13.1362 8.94086C13.1362 8.94086 13.1415 9.2451 13.1149 9.3145L12.5388 9.23978C12.5388 9.23978 12.5122 8.95686 12.5708 8.85542V8.8501Z" stroke="black" stroke-width="0.0666953"/>
<path d="M12.6397 8.96411C12.6397 8.96411 12.9747 8.99411 13.0597 9.02411V9.22911C13.0597 9.22911 12.8297 9.18911 12.6297 9.17911V8.96411" fill="#058E6E" fill-opacity="0.9"/>
<path d="M12.6403 8.96265C12.6403 8.96265 12.9763 8.99469 13.0617 9.02673L13.0563 9.22957C13.0563 9.22957 12.8323 9.19221 12.6297 9.17617L12.635 8.96265" stroke="black" stroke-width="0.0666953"/>
<path d="M9.5578 9.10689C9.5578 9.10689 11.5312 8.37561 14.0485 9.17093M9.6378 9.52857C9.6378 9.52857 11.5525 8.81329 13.9045 9.56061M9.64848 9.08021L10.0325 9.19229L9.7658 9.48053" stroke="black" stroke-width="0.0666953"/>
<path d="M9.65 9.42421L9.875 9.23921L9.625 9.18921C9.625 9.18921 9.66 9.22921 9.655 9.26421V9.42421" fill="#FF0000"/>
<path d="M14.0052 9.15479L13.5946 9.22951L13.8719 9.54979M9.65324 9.42703L9.87724 9.24019L9.62656 9.19215C9.62656 9.19215 9.65856 9.22951 9.65324 9.26691V9.42703Z" stroke="black" stroke-width="0.0666953"/>
<path d="M13.8847 9.43964L13.7297 9.27964L13.9497 9.25464C13.9497 9.25464 13.8897 9.29464 13.8897 9.32964C13.8897 9.36464 13.8997 9.40964 13.8897 9.43964" fill="#FF0000"/>
<path d="M13.8833 9.43797L13.7286 9.27781L13.9526 9.25649C13.9526 9.25649 13.8886 9.29385 13.8886 9.33121C13.8886 9.36325 13.8993 9.41129 13.8886 9.43797H13.8833ZM10.1499 9.10701C10.1819 9.10701 10.2139 9.08565 10.2139 9.05365C10.2139 9.03229 10.1819 9.00561 10.1499 9.00561C10.1126 9.00561 10.0859 9.03229 10.0859 9.05897C10.0859 9.08565 10.1126 9.11237 10.1499 9.11237V9.10701ZM11.2486 8.98425C11.2859 8.98425 11.3126 8.96289 11.3126 8.93085C11.3126 8.90417 11.2859 8.88281 11.2486 8.88281C11.2113 8.88281 11.1846 8.90417 11.1846 8.93621C11.1846 8.96289 11.2113 8.98425 11.2486 8.98425ZM11.2486 9.16041C11.2859 9.16041 11.3126 9.13905 11.3126 9.11237C11.3126 9.08565 11.2859 9.05897 11.2486 9.05897C11.2113 9.05897 11.1846 9.08565 11.1846 9.11237C11.1846 9.13905 11.2113 9.16573 11.2486 9.16573V9.16041ZM12.3313 8.99493C12.3633 8.99493 12.3953 8.96821 12.3953 8.94153C12.3953 8.91485 12.3633 8.88817 12.3313 8.88817C12.2939 8.88817 12.2673 8.91485 12.2673 8.94153C12.2673 8.96821 12.2939 8.99493 12.3313 8.99493ZM13.4033 9.19241C13.4406 9.19241 13.4673 9.16573 13.4673 9.13905C13.4673 9.11237 13.4406 9.08565 13.4033 9.08565C13.3659 9.08565 13.3393 9.11237 13.3393 9.13905C13.3393 9.16573 13.3659 9.19241 13.4033 9.19241ZM13.3873 9.33121C13.4193 9.33121 13.4513 9.30985 13.4513 9.27781C13.4513 9.25649 13.4193 9.22977 13.3873 9.22977C13.3499 9.22977 13.3233 9.25649 13.3233 9.28317C13.3233 9.30985 13.3499 9.33653 13.3873 9.33653V9.33121ZM12.3313 9.17105C12.3633 9.17105 12.3953 9.14973 12.3953 9.11769C12.3953 9.09101 12.3633 9.06965 12.3313 9.06965C12.2939 9.06965 12.2673 9.09101 12.2673 9.12301C12.2673 9.14973 12.2939 9.17641 12.3313 9.17641V9.17105ZM10.1979 9.33121C10.2353 9.33121 10.2673 9.30985 10.2673 9.27781C10.2673 9.25649 10.2353 9.22977 10.2033 9.22977C10.1659 9.22977 10.1393 9.25649 10.1393 9.28317C10.1393 9.30985 10.1659 9.33653 10.2033 9.33653L10.1979 9.33121Z" stroke="black" stroke-width="0.0666953"/>
<path d="M9.52465 8.52952C9.52465 8.52952 9.52965 8.91452 9.77965 8.85952C10.0297 8.80452 10.0047 8.49452 10.0197 8.47452C10.0447 8.45952 10.0697 8.45952 10.0697 8.45952C10.0697 8.45952 10.0997 8.76452 10.3347 8.72952C10.5697 8.68952 10.5597 8.31452 10.5347 8.25452L10.5847 8.23452C10.5847 8.23452 10.6747 8.67452 10.9447 8.60952C11.2097 8.54452 11.1847 8.26952 11.1847 8.26952H11.2047C11.2047 8.26952 11.2647 8.56952 11.4847 8.54452C11.6947 8.52952 11.7347 8.45952 11.7097 8.15952L11.8597 8.13452C11.8597 8.13452 11.8047 8.56452 12.0597 8.56452C12.3197 8.54452 12.3297 8.34452 12.3447 8.30452H12.3897C12.3897 8.30452 12.3997 8.60952 12.6197 8.60952C12.8297 8.60952 12.8697 8.35452 12.8697 8.25452L13.0897 8.26452C13.0897 8.26452 12.8647 8.66452 13.1897 8.71452C13.5097 8.76952 13.5197 8.46452 13.5197 8.46452H13.5847C13.5847 8.46452 13.5747 8.86452 13.7497 8.86952C13.9297 8.87952 14.0347 8.81952 14.0497 8.51952L14.1497 8.55452C14.1497 8.55452 14.0697 9.03952 13.7347 8.95452C13.5547 8.90452 13.4997 8.70452 13.5097 8.64952C13.5097 8.64952 13.3847 8.86952 13.1397 8.79952C12.8997 8.72952 12.9297 8.55452 12.9297 8.49952C12.9297 8.49952 12.7797 8.76952 12.5797 8.70952C12.3997 8.65952 12.3297 8.59452 12.3297 8.46452C12.3297 8.46452 12.2397 8.67452 12.0647 8.66452C11.8847 8.65952 11.7947 8.54452 11.7847 8.44952C11.7847 8.44952 11.7497 8.64452 11.5097 8.65952C11.3497 8.65952 11.2597 8.58452 11.2197 8.47452C11.2197 8.47452 11.1697 8.66952 10.9447 8.69952C10.7997 8.71452 10.6547 8.63452 10.6247 8.49952C10.6247 8.49952 10.5847 8.76452 10.3547 8.79952C10.1247 8.83452 10.0697 8.67452 10.0697 8.67452C10.0697 8.67452 10.0197 8.87452 9.83466 8.92452C9.64966 8.96952 9.52465 8.88952 9.47465 8.69952C9.43465 8.51452 9.44965 8.43452 9.44965 8.43452L9.52465 8.53452" fill="#FFCC00"/>
<path d="M9.52604 8.53103C9.52604 8.53103 9.53136 8.91535 9.78204 8.86195C10.0327 8.80859 10.006 8.49363 10.022 8.47763C10.0434 8.46163 10.07 8.46163 10.07 8.46163C10.07 8.46163 10.102 8.76587 10.3367 8.72851C10.5714 8.69115 10.5607 8.31751 10.534 8.25343L10.5874 8.23743C10.5874 8.23743 10.678 8.67515 10.9447 8.61107C11.2114 8.54703 11.1847 8.26947 11.1847 8.26947H11.206C11.206 8.26947 11.2647 8.56839 11.4834 8.54703C11.6967 8.53103 11.7394 8.46163 11.7127 8.16271L11.8567 8.13599C11.8567 8.13599 11.8034 8.56303 12.0647 8.56303C12.3207 8.54703 12.3314 8.34419 12.3474 8.30683H12.39C12.39 8.30683 12.4007 8.61107 12.6194 8.61107C12.8327 8.61107 12.8754 8.35487 12.8754 8.25343L13.0887 8.26411C13.0887 8.26411 12.8647 8.66447 13.19 8.71783C13.51 8.77123 13.5207 8.46163 13.5207 8.46163H13.5847C13.5847 8.46163 13.574 8.86195 13.75 8.87263C13.9314 8.87799 14.038 8.81927 14.054 8.52035L14.1554 8.55771C14.1554 8.55771 14.07 9.03811 13.734 8.95271C13.558 8.90467 13.4994 8.70183 13.51 8.64843C13.51 8.64843 13.3874 8.87263 13.142 8.79791C12.902 8.72851 12.9287 8.55771 12.9287 8.50431C12.9287 8.50431 12.7847 8.77123 12.582 8.71251C12.4007 8.65911 12.3314 8.59507 12.3314 8.46695C12.3314 8.46695 12.2407 8.67515 12.0647 8.66447C11.8834 8.65911 11.798 8.54703 11.7874 8.45095C11.7874 8.45095 11.75 8.64311 11.51 8.65911C11.35 8.66447 11.2594 8.58439 11.222 8.47763C11.222 8.47763 11.174 8.66979 10.9447 8.70183C10.8007 8.71783 10.6567 8.63775 10.6247 8.50431C10.6247 8.50431 10.5874 8.76587 10.358 8.79791C10.1234 8.83527 10.07 8.67515 10.07 8.67515C10.07 8.67515 10.022 8.87799 9.83536 8.92603C9.64872 8.96871 9.52604 8.88867 9.47804 8.70183C9.43536 8.51499 9.45136 8.43491 9.45136 8.43491L9.52604 8.53103Z" fill="#BCAC0B" stroke="black" stroke-width="0.0933734"/>
<path d="M10.0455 8.55036C10.0573 8.55036 10.069 8.54804 10.0799 8.54352C10.0908 8.53896 10.1008 8.53236 10.1091 8.524C10.1175 8.51564 10.1241 8.50572 10.1286 8.4948C10.1332 8.48388 10.1355 8.47216 10.1355 8.46036C10.1355 8.44852 10.1332 8.43684 10.1286 8.42592C10.1241 8.415 10.1175 8.40508 10.1091 8.39672C10.1008 8.38836 10.0908 8.38172 10.0799 8.3772C10.069 8.37268 10.0573 8.37036 10.0455 8.37036C10.0258 8.37508 10.0084 8.38628 9.99588 8.40216C9.98336 8.41804 9.97656 8.43764 9.97656 8.45784C9.97656 8.47804 9.98336 8.49768 9.99588 8.51356C10.0084 8.52944 10.0258 8.54064 10.0455 8.54536" fill="#FFCC00"/>
<path d="M10.0423 8.546C10.0556 8.54932 10.0696 8.54956 10.083 8.54668C10.0965 8.5438 10.1091 8.53788 10.12 8.5294C10.1308 8.52092 10.1396 8.51008 10.1456 8.49768C10.1516 8.48532 10.1548 8.47172 10.1548 8.45792C10.1548 8.44416 10.1516 8.43056 10.1456 8.41816C10.1396 8.4058 10.1308 8.39496 10.12 8.38644C10.1091 8.37796 10.0965 8.37208 10.083 8.3692C10.0696 8.36632 10.0556 8.36652 10.0423 8.36984C10.0226 8.37472 10.0052 8.38604 9.99269 8.40204C9.98021 8.418 9.97345 8.43768 9.97345 8.45792C9.97345 8.4782 9.98021 8.49788 9.99269 8.51384C10.0052 8.5298 10.0226 8.54112 10.0423 8.546Z" fill="#BCAC0B" stroke="black" stroke-width="0.0933734"/>
<path d="M11.2049 8.36037C11.2181 8.36353 11.2319 8.36369 11.2452 8.36077C11.2585 8.35785 11.271 8.35197 11.2816 8.34357C11.2923 8.33513 11.301 8.32441 11.3069 8.31217C11.3128 8.29989 11.3159 8.28649 11.3159 8.27285C11.3159 8.25925 11.3128 8.24581 11.3069 8.23357C11.301 8.22133 11.2923 8.21057 11.2816 8.20217C11.271 8.19373 11.2585 8.18785 11.2452 8.18493C11.2319 8.18205 11.2181 8.18217 11.2049 8.18537C11.1852 8.19009 11.1678 8.20129 11.1552 8.21717C11.1427 8.23305 11.1359 8.25265 11.1359 8.27285C11.1359 8.29305 11.1427 8.31269 11.1552 8.32857C11.1678 8.34445 11.1852 8.35565 11.2049 8.36037Z" fill="#FFCC00"/>
<path d="M11.2048 8.36023C11.2181 8.36355 11.2321 8.36375 11.2455 8.36087C11.259 8.35803 11.2716 8.35211 11.2825 8.34363C11.2933 8.33511 11.3021 8.32427 11.3081 8.31191C11.3141 8.29951 11.3173 8.28591 11.3173 8.27215C11.3173 8.25835 11.3141 8.24479 11.3081 8.23239C11.3021 8.21999 11.2933 8.20915 11.2825 8.20067C11.2716 8.19219 11.259 8.18627 11.2455 8.18339C11.2321 8.18051 11.2181 8.18075 11.2048 8.18407C11.1851 8.18895 11.1677 8.20027 11.1552 8.21623C11.1427 8.23219 11.1359 8.25187 11.1359 8.27215C11.1359 8.29239 11.1427 8.31211 11.1552 8.32807C11.1677 8.34403 11.1851 8.35535 11.2048 8.36023Z" fill="#BCAC0B" stroke="black" stroke-width="0.0933734"/>
<path d="M12.3908 8.40046C12.4147 8.40046 12.4375 8.39098 12.4544 8.3741C12.4713 8.35722 12.4808 8.33434 12.4808 8.31046C12.4808 8.28658 12.4713 8.2637 12.4544 8.24682C12.4375 8.22994 12.4147 8.22046 12.3908 8.22046C12.3711 8.22518 12.3537 8.23638 12.3411 8.25226C12.3287 8.26814 12.3219 8.28774 12.3219 8.30794C12.3219 8.32814 12.3287 8.34778 12.3411 8.36366C12.3537 8.37954 12.3711 8.39074 12.3908 8.39546" fill="#FFCC00"/>
<path d="M12.3892 8.39755C12.4025 8.40087 12.4164 8.40111 12.4299 8.39823C12.4434 8.39535 12.456 8.38943 12.4668 8.38095C12.4777 8.37247 12.4864 8.36163 12.4925 8.34923C12.4985 8.33687 12.5016 8.32327 12.5016 8.30947C12.5016 8.29571 12.4985 8.28211 12.4925 8.26971C12.4864 8.25735 12.4777 8.24651 12.4668 8.23803C12.456 8.22951 12.4434 8.22363 12.4299 8.22075C12.4164 8.21787 12.4025 8.21811 12.3892 8.22139C12.3695 8.22627 12.352 8.23763 12.3396 8.25359C12.3271 8.26955 12.3203 8.28923 12.3203 8.30947C12.3203 8.32975 12.3271 8.34943 12.3396 8.36539C12.352 8.38135 12.3695 8.39267 12.3892 8.39755Z" fill="#BCAC0B" stroke="black" stroke-width="0.0933734"/>
<path d="M13.5549 8.58546C13.5681 8.58862 13.5819 8.58878 13.5952 8.58586C13.6085 8.58294 13.621 8.57706 13.6317 8.56866C13.6423 8.56022 13.651 8.5495 13.6569 8.53726C13.6629 8.52498 13.6659 8.51158 13.6659 8.49794C13.6659 8.48434 13.6629 8.4709 13.6569 8.45866C13.651 8.44642 13.6423 8.43566 13.6317 8.42726C13.621 8.41882 13.6085 8.41294 13.5952 8.41002C13.5819 8.40714 13.5681 8.40726 13.5549 8.41046C13.5353 8.41518 13.5178 8.42638 13.5053 8.44226C13.4927 8.45814 13.4859 8.47774 13.4859 8.49794C13.4859 8.51814 13.4927 8.53778 13.5053 8.55366C13.5178 8.56954 13.5353 8.58074 13.5549 8.58546Z" fill="#FFCC00"/>
<path d="M13.5579 8.58362C13.5713 8.58694 13.5852 8.58714 13.5987 8.58426C13.6121 8.58138 13.6248 8.5755 13.6356 8.56702C13.6464 8.5585 13.6552 8.54766 13.6612 8.5353C13.6673 8.5229 13.6704 8.5093 13.6704 8.49554C13.6704 8.48174 13.6673 8.46818 13.6612 8.45578C13.6552 8.44338 13.6464 8.43254 13.6356 8.42406C13.6248 8.41558 13.6121 8.40966 13.5987 8.40678C13.5852 8.4039 13.5713 8.40414 13.5579 8.40746C13.5382 8.41234 13.5208 8.42366 13.5083 8.43962C13.4958 8.45558 13.4891 8.47526 13.4891 8.49554C13.4891 8.51578 13.4958 8.5355 13.5083 8.55146C13.5208 8.56742 13.5382 8.57874 13.5579 8.58362Z" fill="#BCAC0B" stroke="black" stroke-width="0.0933734"/>
<path d="M11.745 8.26416H11.665C11.645 8.34416 11.47 8.38916 11.47 8.38916C11.45 8.32916 11.5 8.23916 11.5 8.23916C11.3 8.18416 11.3 8.11916 11.3 8.11916C11.33 8.04916 11.515 8.03916 11.515 8.03916C11.465 7.97916 11.47 7.87916 11.47 7.87916C11.595 7.88916 11.695 8.01416 11.695 8.01416C11.695 8.01416 11.575 7.94916 11.59 7.73416C11.59 7.73416 11.655 7.73416 11.695 7.77916C11.695 7.77916 11.695 7.54416 11.795 7.51416H11.805C11.9 7.54416 11.9 7.77916 11.9 7.77916C11.94 7.72916 12.005 7.73416 12.005 7.73416C12.02 7.94916 11.9 8.01416 11.9 8.01416C11.9 8.01416 12 7.88916 12.125 7.88416C12.125 7.88416 12.125 7.98416 12.085 8.04416C12.085 8.04416 12.265 8.04916 12.3 8.11916C12.3 8.11916 12.3 8.18916 12.1 8.23416C12.1 8.23416 12.14 8.32916 12.125 8.39416C12.125 8.39416 11.945 8.34416 11.93 8.26416H11.75" fill="#FFCC00"/>
<path d="M11.7443 8.26291H11.6643C11.6429 8.34299 11.4723 8.39102 11.4723 8.39102C11.4509 8.32698 11.4989 8.23622 11.4989 8.23622C11.3016 8.18286 11.3016 8.11879 11.3016 8.11879C11.3283 8.04939 11.5149 8.0387 11.5149 8.0387C11.4616 7.98002 11.4723 7.87859 11.4723 7.87859C11.5949 7.88927 11.6963 8.01202 11.6963 8.01202C11.6963 8.01202 11.5736 7.94799 11.5896 7.73447C11.5896 7.73447 11.6536 7.73447 11.6963 7.77719C11.6963 7.77719 11.6963 7.5423 11.7923 7.51562H11.8029C11.8989 7.5423 11.8989 7.77719 11.8989 7.77719C11.9416 7.72915 12.0056 7.73447 12.0056 7.73447C12.0216 7.94799 11.8989 8.01202 11.8989 8.01202C11.8989 8.01202 12.0003 7.88927 12.1229 7.88391C12.1229 7.88391 12.1283 7.98003 12.0856 8.04407C12.0856 8.04407 12.2669 8.04939 12.2989 8.11879C12.2989 8.11879 12.2989 8.18818 12.0963 8.23622C12.0963 8.23622 12.1389 8.32698 12.1229 8.39634C12.1229 8.39634 11.9469 8.34299 11.9309 8.26291H11.7443Z" fill="#BCAC0B" stroke="black" stroke-width="0.0933734"/>
<path d="M11.785 8.30438C11.8274 8.30438 11.8681 8.28754 11.8981 8.25754C11.9282 8.22754 11.945 8.18682 11.945 8.14438C11.945 8.10198 11.9282 8.06126 11.8981 8.03126C11.8681 8.00126 11.8274 7.98438 11.785 7.98438C11.7426 7.98438 11.7019 8.00126 11.6719 8.03126C11.6418 8.06126 11.625 8.10198 11.625 8.14438C11.625 8.18682 11.6418 8.22754 11.6719 8.25754C11.7019 8.28754 11.7426 8.30438 11.785 8.30438Z" fill="white"/>
<path d="M11.7866 8.30636C11.829 8.30636 11.8697 8.28952 11.8997 8.25948C11.9297 8.22944 11.9466 8.18872 11.9466 8.14624C11.9466 8.10376 11.9297 8.06304 11.8997 8.033C11.8697 8.00296 11.829 7.98608 11.7866 7.98608C11.7441 7.98608 11.7034 8.00296 11.6734 8.033C11.6434 8.06304 11.6266 8.10376 11.6266 8.14624C11.6266 8.18872 11.6434 8.22944 11.6734 8.25948C11.7034 8.28952 11.7441 8.30636 11.7866 8.30636Z" stroke="black" stroke-width="0.0533562"/>
<path d="M11.7853 8.23469C11.8092 8.23469 11.8321 8.22521 11.849 8.20833C11.8658 8.19145 11.8753 8.16857 11.8753 8.14469C11.8753 8.12081 11.8658 8.09793 11.849 8.08105C11.8321 8.06417 11.8092 8.05469 11.7853 8.05469C11.7614 8.05469 11.7386 8.06417 11.7217 8.08105C11.7048 8.09793 11.6953 8.12081 11.6953 8.14469C11.6953 8.16857 11.7048 8.19145 11.7217 8.20833C11.7386 8.22521 11.7614 8.23469 11.7853 8.23469Z" fill="white"/>
<path d="M11.7875 8.23617C11.8116 8.23617 11.8346 8.22661 11.8516 8.20961C11.8686 8.19257 11.8782 8.16949 11.8782 8.14545C11.8782 8.12137 11.8686 8.09829 11.8516 8.08129C11.8346 8.06425 11.8116 8.05469 11.7875 8.05469C11.7635 8.05469 11.7404 8.06425 11.7234 8.08129C11.7064 8.09829 11.6969 8.12137 11.6969 8.14545C11.6969 8.16949 11.7064 8.19257 11.7234 8.20961C11.7404 8.22661 11.7635 8.23617 11.7875 8.23617Z" stroke="black" stroke-width="0.0400172"/>
<path d="M13.0197 8.36964L13.0997 8.38464C13.0997 8.46464 13.2597 8.54964 13.2597 8.54964C13.2897 8.49964 13.2597 8.39964 13.2597 8.39964C13.4697 8.38964 13.4847 8.31964 13.4847 8.31964C13.4697 8.24964 13.2947 8.19964 13.2947 8.19964C13.3447 8.14964 13.3647 8.05464 13.3647 8.05464C13.2447 8.03464 13.1197 8.12964 13.1197 8.12964C13.1197 8.12964 13.2547 8.09964 13.2797 7.87964C13.2797 7.87964 13.2197 7.86964 13.1747 7.89964C13.1747 7.89964 13.2247 7.67464 13.1297 7.63464L13.1197 7.62964C13.0197 7.62964 12.9697 7.85964 12.9697 7.85964C12.9397 7.80464 12.8697 7.79964 12.8697 7.79964C12.8197 7.99964 12.9197 8.08964 12.9197 8.08964C12.9197 8.08964 12.8497 7.94964 12.7297 7.91464C12.7297 7.91464 12.7047 8.01464 12.7297 8.07464C12.7297 8.07464 12.5547 8.04964 12.5097 8.10964C12.5097 8.10964 12.4947 8.17964 12.6747 8.26964C12.6747 8.26964 12.6197 8.34964 12.6247 8.41964C12.6247 8.41964 12.7997 8.39964 12.8347 8.32964L12.9147 8.34464L13.0247 8.36464" fill="#FFCC00"/>
<path d="M13.0195 8.37013L13.0995 8.38617C13.0995 8.46621 13.2595 8.55165 13.2595 8.55165C13.2915 8.49825 13.2649 8.39685 13.2649 8.39685C13.4729 8.39149 13.4835 8.32209 13.4835 8.32209C13.4729 8.24737 13.2969 8.19933 13.2969 8.19933C13.3502 8.15129 13.3662 8.05521 13.3662 8.05521C13.2435 8.03385 13.1209 8.12993 13.1209 8.12993C13.1209 8.12993 13.2542 8.09789 13.2809 7.88441C13.2809 7.88441 13.2222 7.86837 13.1742 7.90041C13.1742 7.90041 13.2222 7.67621 13.1315 7.63353L13.1209 7.62817C13.0195 7.62817 12.9715 7.85769 12.9715 7.85769C12.9395 7.80433 12.8755 7.79897 12.8755 7.79897C12.8169 8.00181 12.9235 8.08725 12.9235 8.08725C12.9235 8.08725 12.8489 7.94845 12.7315 7.91641C12.7315 7.91641 12.7049 8.01249 12.7315 8.07657C12.7315 8.07657 12.5555 8.04985 12.5128 8.10857C12.5128 8.10857 12.4969 8.17797 12.6782 8.26873C12.6782 8.26873 12.6195 8.34881 12.6249 8.41817C12.6249 8.41817 12.8009 8.40217 12.8382 8.32745L12.9182 8.34345L13.0249 8.36481" fill="#BCAC0B"/>
<path d="M13.0195 8.37013L13.0995 8.38617C13.0995 8.46621 13.2595 8.55165 13.2595 8.55165C13.2915 8.49825 13.2649 8.39685 13.2649 8.39685C13.4729 8.39149 13.4835 8.32209 13.4835 8.32209C13.4729 8.24737 13.2969 8.19933 13.2969 8.19933C13.3502 8.15129 13.3662 8.05521 13.3662 8.05521C13.2435 8.03385 13.1209 8.12993 13.1209 8.12993C13.1209 8.12993 13.2542 8.09789 13.2809 7.88441C13.2809 7.88441 13.2222 7.86837 13.1742 7.90041C13.1742 7.90041 13.2222 7.67621 13.1315 7.63353L13.1209 7.62817C13.0195 7.62817 12.9715 7.85769 12.9715 7.85769C12.9395 7.80433 12.8755 7.79897 12.8755 7.79897C12.8169 8.00181 12.9235 8.08725 12.9235 8.08725C12.9235 8.08725 12.8489 7.94845 12.7315 7.91641C12.7315 7.91641 12.7049 8.01249 12.7315 8.07657C12.7315 8.07657 12.5555 8.04985 12.5128 8.10857C12.5128 8.10857 12.4969 8.17797 12.6782 8.26873C12.6782 8.26873 12.6195 8.34881 12.6249 8.41817C12.6249 8.41817 12.8009 8.40217 12.8382 8.32745L12.9182 8.34345L13.0249 8.36481" stroke="black" stroke-width="0.0933734"/>
<path d="M12.9606 8.40038C12.938 8.39718 12.9162 8.3893 12.8967 8.37718C12.8772 8.3651 12.8605 8.3491 12.8476 8.33018C12.8346 8.31126 12.8258 8.28986 12.8216 8.26734C12.8174 8.24482 12.8179 8.22166 12.8231 8.19938C12.8283 8.17706 12.8382 8.15606 12.8519 8.13778C12.8657 8.11946 12.8832 8.10422 12.9032 8.09302C12.9232 8.08186 12.9453 8.07494 12.9681 8.07278C12.9909 8.07058 13.0139 8.07318 13.0356 8.08038C13.0737 8.0937 13.1055 8.1205 13.1252 8.15566C13.1448 8.19086 13.1509 8.23202 13.1423 8.27138C13.1337 8.31074 13.111 8.34558 13.0784 8.36938C13.0459 8.39314 13.0058 8.40418 12.9656 8.40038" fill="white"/>
<path d="M12.9597 8.40272C12.9387 8.3978 12.9189 8.3888 12.9014 8.3762C12.8838 8.36364 12.8689 8.34772 12.8575 8.32936C12.8462 8.31104 12.8385 8.29064 12.835 8.26932C12.8315 8.248 12.8322 8.22624 12.8371 8.2052C12.842 8.18416 12.851 8.16432 12.8635 8.14676C12.8761 8.1292 12.892 8.11432 12.9103 8.10292C12.9287 8.09152 12.9491 8.08384 12.9703 8.08032C12.9917 8.0768 13.0134 8.07752 13.0344 8.08244C13.0769 8.09164 13.1139 8.11732 13.1374 8.15388C13.1609 8.1904 13.1689 8.2348 13.1597 8.27724C13.1506 8.31972 13.1249 8.3568 13.0884 8.38032C13.0519 8.40384 13.0075 8.41192 12.9651 8.40272H12.9597Z" stroke="black" stroke-width="0.0533562"/>
<path d="M12.98 8.33527C12.9682 8.33263 12.957 8.32771 12.9471 8.32075C12.9372 8.31383 12.9287 8.30499 12.9223 8.29475C12.9157 8.28455 12.9113 8.27315 12.9092 8.26123C12.9071 8.24931 12.9074 8.23707 12.91 8.22527C12.9127 8.21347 12.9176 8.20227 12.9245 8.19235C12.9315 8.18243 12.9403 8.17399 12.9505 8.16747C12.9607 8.16099 12.9721 8.15655 12.9841 8.15447C12.996 8.15239 13.0082 8.15263 13.02 8.15527C13.0439 8.16059 13.0647 8.17515 13.0778 8.19579C13.0909 8.21639 13.0953 8.24139 13.09 8.26527C13.0847 8.28915 13.0701 8.30991 13.0495 8.32307C13.0289 8.33619 13.0039 8.34059 12.98 8.33527Z" fill="white"/>
<path d="M12.9815 8.33278C12.9687 8.3317 12.9562 8.3279 12.945 8.32166C12.9337 8.31538 12.924 8.30682 12.9163 8.2965C12.9086 8.28614 12.9033 8.2743 12.9005 8.26174C12.8978 8.24914 12.8977 8.23614 12.9004 8.22354C12.9031 8.21094 12.9084 8.19906 12.916 8.1887C12.9236 8.1783 12.9333 8.16966 12.9445 8.16334C12.9557 8.15702 12.9681 8.15314 12.9809 8.15198C12.9937 8.15082 13.0067 8.15242 13.0188 8.15666C13.0397 8.1639 13.0572 8.1785 13.0681 8.19778C13.0789 8.21702 13.0824 8.23958 13.0778 8.26118C13.0732 8.28282 13.0609 8.30202 13.0431 8.31522C13.0254 8.32838 13.0035 8.33466 12.9815 8.33278Z" stroke="black" stroke-width="0.0400172"/>
<path d="M10.5244 8.34974L10.4444 8.35974C10.4294 8.44474 10.2644 8.51974 10.2644 8.51974C10.2394 8.45474 10.2644 8.35974 10.2644 8.35974C10.0644 8.33974 10.0594 8.26974 10.0594 8.26974C10.0794 8.19974 10.2594 8.15974 10.2594 8.15974C10.2094 8.10974 10.2044 8.00974 10.2044 8.00974C10.3194 7.99974 10.4344 8.10974 10.4344 8.10974C10.4344 8.10974 10.3094 8.06474 10.2944 7.85474C10.2944 7.85474 10.3644 7.83474 10.4044 7.87474C10.4044 7.87474 10.3794 7.64474 10.4694 7.60474H10.4794C10.5794 7.61974 10.6094 7.84474 10.6094 7.84474C10.6444 7.79474 10.7094 7.79474 10.7094 7.79474C10.7494 8.00474 10.6394 8.07974 10.6394 8.07974C10.6394 8.07974 10.7244 7.94974 10.8394 7.91974C10.8394 7.91974 10.8644 8.01974 10.8244 8.08974C10.8244 8.08974 11.0094 8.06974 11.0444 8.13974C11.0444 8.13974 11.0544 8.20474 10.8644 8.27974C10.8644 8.27974 10.9144 8.36474 10.9144 8.42974C10.9144 8.42974 10.7344 8.39974 10.6994 8.31974L10.6244 8.33974L10.5144 8.34974" fill="#FFCC00"/>
<path d="M10.5234 8.34816L10.4434 8.35884C10.4327 8.44428 10.2674 8.519 10.2674 8.519C10.2407 8.45492 10.2674 8.35884 10.2674 8.35884C10.07 8.33752 10.0594 8.26812 10.0594 8.26812C10.0807 8.19872 10.262 8.16136 10.262 8.16136C10.2087 8.10796 10.2034 8.01188 10.2034 8.01188C10.3207 8.0012 10.438 8.10796 10.438 8.10796C10.438 8.10796 10.31 8.06528 10.294 7.85176C10.294 7.85176 10.3634 7.83572 10.406 7.87312C10.406 7.87312 10.3794 7.64356 10.47 7.6062H10.4807C10.582 7.61688 10.6087 7.8464 10.6087 7.8464C10.646 7.79836 10.7154 7.79304 10.7154 7.79304C10.7527 8.00656 10.6407 8.08128 10.6407 8.08128C10.6407 8.08128 10.726 7.94784 10.8434 7.92116C10.8434 7.92116 10.8647 8.02256 10.8274 8.08664C10.8274 8.08664 11.0087 8.0706 11.046 8.14C11.046 8.14 11.0567 8.20404 10.8647 8.2788C10.8647 8.2788 10.918 8.3642 10.9127 8.42824C10.9127 8.42824 10.7367 8.40156 10.6994 8.32148L10.6247 8.33752L10.518 8.34816" fill="#BCAC0B"/>
<path d="M10.5234 8.34816L10.4434 8.35884C10.4327 8.44428 10.2674 8.519 10.2674 8.519C10.2407 8.45492 10.2674 8.35884 10.2674 8.35884C10.07 8.33752 10.0594 8.26812 10.0594 8.26812C10.0807 8.19872 10.262 8.16136 10.262 8.16136C10.2087 8.10796 10.2034 8.01188 10.2034 8.01188C10.3207 8.0012 10.438 8.10796 10.438 8.10796C10.438 8.10796 10.31 8.06528 10.294 7.85176C10.294 7.85176 10.3634 7.83572 10.406 7.87312C10.406 7.87312 10.3794 7.64356 10.47 7.6062H10.4807C10.582 7.61688 10.6087 7.8464 10.6087 7.8464C10.646 7.79836 10.7154 7.79304 10.7154 7.79304C10.7527 8.00656 10.6407 8.08128 10.6407 8.08128C10.6407 8.08128 10.726 7.94784 10.8434 7.92116C10.8434 7.92116 10.8647 8.02256 10.8274 8.08664C10.8274 8.08664 11.0087 8.0706 11.046 8.14C11.046 8.14 11.0567 8.20404 10.8647 8.2788C10.8647 8.2788 10.918 8.3642 10.9127 8.42824C10.9127 8.42824 10.7367 8.40156 10.6994 8.32148L10.6247 8.33752L10.518 8.34816" stroke="black" stroke-width="0.0933734"/>
<path d="M10.5703 8.3901C10.6128 8.38478 10.6513 8.36286 10.6776 8.3291C10.7038 8.29534 10.7156 8.25254 10.7103 8.2101C10.705 8.16766 10.683 8.12906 10.6493 8.10282C10.6156 8.07658 10.5728 8.06478 10.5303 8.0701C10.5093 8.07274 10.489 8.07946 10.4706 8.08994C10.4522 8.10038 10.436 8.11438 10.423 8.1311C10.41 8.14782 10.4004 8.16694 10.3948 8.18734C10.3892 8.20778 10.3877 8.2291 10.3903 8.2501C10.3929 8.2711 10.3997 8.29138 10.4102 8.30982C10.4206 8.32822 10.4346 8.34438 10.4513 8.35738C10.4851 8.38362 10.5279 8.39542 10.5703 8.3901Z" fill="white"/>
<path d="M10.5702 8.39201C10.5913 8.38921 10.6115 8.38229 10.6298 8.37165C10.6482 8.36101 10.6643 8.34685 10.6771 8.33001C10.69 8.31317 10.6994 8.29393 10.7049 8.27345C10.7103 8.25293 10.7117 8.23157 10.7089 8.21053C10.7061 8.18949 10.6992 8.16921 10.6885 8.15085C10.6779 8.13253 10.6638 8.11645 10.6469 8.10353C10.6301 8.09065 10.6109 8.08121 10.5904 8.07577C10.5699 8.07029 10.5486 8.06893 10.5276 8.07173C10.4851 8.07741 10.4467 8.09969 10.4207 8.13373C10.3947 8.16777 10.3832 8.21077 10.3889 8.25321C10.3945 8.29569 10.4168 8.33417 10.4509 8.36021C10.4849 8.38625 10.5278 8.39769 10.5702 8.39201Z" stroke="black" stroke-width="0.0533562"/>
<path d="M10.5597 8.31416C10.573 8.3154 10.5865 8.31364 10.599 8.30904C10.6116 8.30444 10.623 8.29708 10.6324 8.28752C10.6417 8.27796 10.6489 8.26644 10.6532 8.25376C10.6576 8.24108 10.6591 8.22764 10.6575 8.21432C10.656 8.201 10.6515 8.1882 10.6444 8.17684C10.6373 8.16548 10.6278 8.15588 10.6165 8.14868C10.6052 8.14144 10.5925 8.13688 10.5792 8.1352C10.5659 8.13356 10.5524 8.13492 10.5397 8.13916C10.5201 8.14568 10.5033 8.15872 10.4922 8.17612C10.4811 8.19352 10.4763 8.21424 10.4787 8.23476C10.481 8.25528 10.4904 8.27436 10.5051 8.2888C10.5199 8.30328 10.5391 8.3122 10.5597 8.31416Z" fill="white"/>
<path d="M10.5605 8.31709C10.574 8.31833 10.5876 8.31653 10.6003 8.31181C10.6129 8.30713 10.6244 8.29965 10.6338 8.28993C10.6433 8.28021 10.6504 8.26853 10.6547 8.25569C10.659 8.24289 10.6604 8.22925 10.6588 8.21581C10.6571 8.20237 10.6525 8.18949 10.6453 8.17805C10.638 8.16661 10.6283 8.15697 10.6169 8.14981C10.6054 8.14261 10.5925 8.13809 10.579 8.13657C10.5656 8.13505 10.552 8.13653 10.5392 8.14093C10.5196 8.14773 10.5029 8.16101 10.4919 8.17861C10.4809 8.19621 10.4763 8.21705 10.4788 8.23765C10.4813 8.25825 10.4907 8.27737 10.5056 8.29185C10.5205 8.30629 10.5399 8.31521 10.5605 8.31709Z" stroke="black" stroke-width="0.0400172"/>
<path d="M14.145 8.6994C14.145 8.6994 14.1 8.5894 14.01 8.6244C13.92 8.6594 13.93 8.6794 13.85 8.6794C13.85 8.6794 13.82 8.5794 13.86 8.5344C13.86 8.5344 13.735 8.4844 13.7 8.3744C13.7 8.3744 13.77 8.2944 13.935 8.3244C13.935 8.3244 13.935 8.2494 13.95 8.2094C13.95 8.2094 14.13 8.2594 14.13 8.3644C14.13 8.3644 14.075 8.1744 14.17 8.0344C14.17 8.0344 14.25 8.0644 14.245 8.1544C14.245 8.1544 14.285 7.9744 14.525 8.0244C14.525 8.0244 14.395 8.1394 14.39 8.1944C14.38 8.2444 14.27 8.3394 14.265 8.3694C14.264 8.41096 14.25 8.45116 14.225 8.4844C14.19 8.5144 14.185 8.5694 14.185 8.5844C14.185 8.5994 14.185 8.6744 14.145 8.6944" fill="#FFCC00"/>
<path d="M14.1442 8.69628C14.1442 8.69628 14.1016 8.58952 14.0109 8.62692C13.9202 8.66428 13.9309 8.68028 13.8509 8.68028C13.8509 8.68028 13.8189 8.57888 13.8616 8.53616C13.8616 8.53616 13.7336 8.48812 13.7016 8.37604C13.7016 8.37604 13.7709 8.29596 13.9362 8.32796C13.9362 8.32796 13.9309 8.24792 13.9522 8.21056C13.9522 8.21056 14.1282 8.26392 14.1282 8.36536C14.1282 8.36536 14.0749 8.1732 14.1709 8.0344C14.1709 8.0344 14.2509 8.06644 14.2456 8.15716C14.2456 8.15716 14.2829 7.97568 14.5229 8.02372C14.5229 8.02372 14.3949 8.14116 14.3896 8.19452C14.3789 8.24792 14.2722 8.33864 14.2669 8.37068C14.2669 8.39736 14.2562 8.45076 14.2242 8.48276C14.1922 8.5148 14.1869 8.5682 14.1869 8.58952C14.1869 8.6002 14.1869 8.67496 14.1442 8.69628Z" fill="#BCAC0B" stroke="black" stroke-width="0.0933734"/>
<path d="M14.0095 8.48456C14.0142 8.4574 14.0258 8.43188 14.0432 8.41052C14.0606 8.38916 14.0832 8.37268 14.1088 8.3626C14.1345 8.35256 14.1623 8.34928 14.1896 8.35312C14.2168 8.35696 14.2427 8.3678 14.2645 8.38456C14.2645 8.41456 14.2495 8.45456 14.2245 8.48456C14.1895 8.51456 14.1845 8.56956 14.1845 8.58456C14.1868 8.61584 14.1799 8.64716 14.1645 8.67456H14.1395C14.1184 8.67096 14.0981 8.66316 14.08 8.65156C14.0619 8.64 14.0463 8.62488 14.0342 8.60716C14.0221 8.5894 14.0136 8.5694 14.0094 8.54836C14.0052 8.52728 14.0052 8.5056 14.0095 8.48456Z" fill="white"/>
<path d="M14.0116 8.48184C14.0167 8.45484 14.0287 8.4296 14.0464 8.40856C14.0641 8.38752 14.0869 8.3714 14.1126 8.36176C14.1383 8.35212 14.1661 8.34924 14.1932 8.35344C14.2204 8.35764 14.246 8.36876 14.2676 8.38576C14.2676 8.41244 14.2516 8.45512 14.2249 8.48184C14.1929 8.51384 14.1876 8.56724 14.1876 8.5886C14.1886 8.61848 14.1812 8.64808 14.1662 8.674H14.1396C14.1184 8.6702 14.0982 8.66212 14.0801 8.65032C14.0621 8.63848 14.0466 8.62316 14.0347 8.6052C14.0227 8.58724 14.0145 8.56708 14.0106 8.54588C14.0066 8.52468 14.0069 8.50288 14.0116 8.48184Z" stroke="black" stroke-width="0.0533562"/>
<path d="M14.0797 8.50009C14.0826 8.48281 14.0905 8.46677 14.1024 8.45393C14.1142 8.44109 14.1296 8.43197 14.1466 8.42773C14.1636 8.42349 14.1814 8.42429 14.198 8.43005C14.2145 8.43577 14.229 8.44621 14.2397 8.46009L14.2247 8.48509C14.1897 8.51509 14.1847 8.57009 14.1847 8.58509V8.60009H14.1547C14.1047 8.59509 14.0747 8.55009 14.0847 8.49509" fill="white"/>
<path d="M14.0797 8.49856C14.0832 8.48168 14.0916 8.46612 14.1036 8.4538C14.1157 8.44144 14.131 8.4328 14.1478 8.42888C14.1646 8.42496 14.1822 8.42592 14.1984 8.43164C14.2147 8.43736 14.229 8.4476 14.2397 8.4612L14.2237 8.48256C14.1917 8.51456 14.1864 8.56796 14.1864 8.58928V8.59996H14.1544C14.101 8.59464 14.0744 8.5466 14.085 8.4932L14.0797 8.49856Z" stroke="black" stroke-width="0.0400172"/>
<path d="M9.44938 8.64936C9.44938 8.64936 9.49437 8.54936 9.58437 8.58936C9.66937 8.63936 9.65938 8.64936 9.74438 8.64936C9.74438 8.64936 9.77438 8.54936 9.74438 8.50936C9.74438 8.50936 9.86937 8.46936 9.90437 8.35936C9.90437 8.35936 9.83938 8.27436 9.67438 8.29436C9.67438 8.29436 9.68438 8.21436 9.66438 8.17936C9.66438 8.17936 9.48937 8.21936 9.48437 8.31436C9.48437 8.31436 9.54437 8.12936 9.45937 7.98436C9.45937 7.98436 9.37438 8.01936 9.37438 8.10436C9.37438 8.10436 9.34937 7.91936 9.10938 7.95436C9.10938 7.95436 9.22937 8.07936 9.22937 8.13436C9.22937 8.18936 9.33938 8.28436 9.33938 8.31436C9.33938 8.34436 9.34937 8.39936 9.37937 8.43436C9.41437 8.46436 9.41437 8.51936 9.40937 8.53936C9.40937 8.54936 9.40938 8.62436 9.44938 8.64936Z" fill="#FFCC00"/>
<path d="M9.45074 8.65382C9.45074 8.65382 9.49337 8.54706 9.58405 8.58978C9.66937 8.63782 9.65874 8.6485 9.74406 8.6485C9.74406 8.6485 9.77606 8.55242 9.74406 8.5097C9.74406 8.5097 9.87206 8.47234 9.90406 8.36022C9.90406 8.36022 9.84005 8.27482 9.67473 8.29618C9.67473 8.29618 9.68537 8.2161 9.66405 8.17874C9.66405 8.17874 9.48805 8.22146 9.48273 8.31754C9.48273 8.31754 9.54674 8.1307 9.46138 7.98658C9.46138 7.98658 9.37606 8.01862 9.37606 8.10402C9.37606 8.10402 9.34938 7.92254 9.10938 7.9599C9.10938 7.9599 9.23206 8.08266 9.23206 8.13606C9.23206 8.18942 9.33874 8.2855 9.33874 8.31754C9.33874 8.34422 9.34938 8.40294 9.38138 8.43498C9.41338 8.46698 9.41338 8.52038 9.40806 8.54174C9.40806 8.55242 9.40806 8.62714 9.45074 8.6485V8.65382Z" fill="#BCAC0B" stroke="black" stroke-width="0.0933734"/>
<path d="M9.59064 8.44521C9.58624 8.41845 9.57516 8.39325 9.55836 8.37197C9.5416 8.35069 9.51968 8.33401 9.49468 8.32353C9.46968 8.31301 9.44244 8.30905 9.41548 8.31197C9.38856 8.31489 9.3628 8.32461 9.34064 8.34021C9.34064 8.36521 9.35564 8.41021 9.38064 8.43521C9.41564 8.46521 9.41564 8.52021 9.41064 8.54021C9.41064 8.55021 9.41064 8.59021 9.43064 8.63021H9.45064C9.4722 8.62777 9.49304 8.62097 9.51192 8.61025C9.53076 8.59953 9.54724 8.58505 9.56032 8.56773C9.57344 8.55045 9.58288 8.53065 9.58808 8.50957C9.59328 8.48853 9.59416 8.46661 9.59064 8.44521Z" fill="white"/>
<path d="M9.58907 8.44543C9.58455 8.41923 9.57363 8.39463 9.55723 8.37371C9.54087 8.35283 9.51955 8.33635 9.49519 8.32575C9.47087 8.31519 9.44427 8.31083 9.41783 8.31307C9.39139 8.31531 9.36595 8.32411 9.34375 8.33867C9.34375 8.36535 9.35439 8.40807 9.38107 8.43475C9.41307 8.46679 9.41307 8.52015 9.40775 8.54151C9.40775 8.55219 9.40775 8.59487 9.42907 8.63223H9.45039C9.47203 8.62967 9.49287 8.62271 9.51171 8.61179C9.53055 8.60087 9.54695 8.58623 9.55995 8.56871C9.57291 8.55123 9.58219 8.53127 9.58723 8.51007C9.59223 8.48887 9.59287 8.46687 9.58907 8.44543Z" stroke="black" stroke-width="0.0533562"/>
<path d="M9.51938 8.45405C9.51814 8.43601 9.51146 8.41873 9.50022 8.40453C9.48898 8.39033 9.47374 8.37985 9.45646 8.37445C9.43918 8.36905 9.42066 8.36901 9.40334 8.37429C9.38602 8.37957 9.37069 8.38993 9.35938 8.40405L9.37937 8.43405C9.41437 8.46405 9.41437 8.51905 9.40937 8.53905V8.54905H9.44438C9.49438 8.54905 9.52438 8.49905 9.51938 8.45405Z" fill="white"/>
<path d="M9.51938 8.45596C9.51746 8.4382 9.51037 8.42144 9.49897 8.40772C9.48757 8.394 9.47237 8.38395 9.45529 8.37883C9.43821 8.37371 9.42002 8.37372 9.40298 8.37888C9.3859 8.38408 9.37074 8.39415 9.35938 8.40791L9.38074 8.43459C9.41274 8.46663 9.41273 8.51999 9.40737 8.54135V8.55204H9.44474C9.49274 8.55204 9.52474 8.504 9.51938 8.45596Z" stroke="black" stroke-width="0.0400172"/>
<path d="M9.71719 9.63051C9.71719 9.63051 11.5198 8.92587 13.7919 9.64651" stroke="black" stroke-width="0.200086"/>
<path d="M14.0486 9.06894C11.5366 8.26826 9.53125 9.02622 9.53125 9.02622" stroke="black" stroke-width="0.0666953"/>
<path d="M11.7844 8.89526L11.5844 8.99526L11.7644 9.10526L11.9794 9.00526L11.7844 8.89526Z" fill="#FF0000"/>
<path d="M11.787 8.8938L11.5844 8.9952L11.7657 9.10732L11.979 9.00056L11.787 8.8938Z" stroke="black" stroke-width="0.0666953"/>
</g>
</g>
</g>
<defs>
<clipPath id="clip0_69_6117">
<rect width="24" height="24" rx="12" fill="white"/>
</clipPath>
<clipPath id="clip1_69_6117">
<rect width="32" height="24" fill="white" transform="translate(-4)"/>
</clipPath>
</defs>
</svg>
