<svg width="24" height="24" viewBox="0 0 24 24" fill="none" xmlns="http://www.w3.org/2000/svg">
<g clip-path="url(#clip0_69_5690)">
<g clip-path="url(#clip1_69_5690)">
<mask id="mask0_69_5690" style="mask-type:luminance" maskUnits="userSpaceOnUse" x="-4" y="0" width="32" height="24">
<path d="M28 0H-4V24H28V0Z" fill="white"/>
</mask>
<g mask="url(#mask0_69_5690)">
<mask id="mask1_69_5690" style="mask-type:luminance" maskUnits="userSpaceOnUse" x="-5" y="0" width="34" height="25">
<path d="M-4.00623 0H28.0807V24.064H-4.00623V0Z" fill="white"/>
</mask>
<g mask="url(#mask1_69_5690)">
<path fill-rule="evenodd" clip-rule="evenodd" d="M-12.3109 0.164062H36.4752V23.5701H-12.3109V0.164062Z" fill="#FFC621"/>
<path fill-rule="evenodd" clip-rule="evenodd" d="M-12.4047 16.0969H36.4424V24.0634H-12.4047V16.0969Z" fill="#EF2118"/>
<path fill-rule="evenodd" clip-rule="evenodd" d="M-12.3109 0H36.4752V8.46H-12.3109V0Z" fill="#298C08"/>
<path d="M11.2199 17.5054C14.0191 17.5054 16.2883 15.2362 16.2883 12.437C16.2883 9.63785 14.0191 7.36865 11.2199 7.36865C8.42075 7.36865 6.15155 9.63785 6.15155 12.437C6.15155 15.2362 8.42075 17.5054 11.2199 17.5054Z" fill="#006BC6"/>
<path fill-rule="evenodd" clip-rule="evenodd" d="M8.94709 8.84571L8.64158 9.05719L9.7461 10.6082L10.0422 10.4202L8.94238 8.84571H8.94709ZM10.3289 12.5117L9.87298 12.1921L10.061 11.5952L7.8003 11.6281L7.1423 11.1252L10.2302 11.0923L10.8036 9.35798L11.1138 10.063L10.3289 12.507V12.5117ZM13.9244 9.18879L13.6283 8.96319L12.4862 10.486L12.7494 10.7069L13.9244 9.18879ZM10.8506 11.6093L11.0151 11.0829H11.6402L10.9258 8.93031L11.2078 8.15479L12.1713 11.0876L13.9949 11.1111L13.4215 11.614L10.8506 11.6046V11.6093ZM15.1088 14.0157L15.2357 13.6679L13.4356 13.0428L13.304 13.3718L15.1088 14.0157ZM11.8611 11.8349L12.411 11.8302L12.6037 12.4224L14.4273 11.0829L15.2545 11.1111L12.7588 12.93L13.2993 14.6784L12.6413 14.2836L11.8611 11.8349ZM10.9305 16.6289L11.3018 16.6383L11.3159 14.7348L10.9681 14.7113L10.9305 16.6336V16.6289ZM11.9645 12.8548L12.1431 13.3765L11.6402 13.7525L13.492 15.0544L13.727 15.844L11.2078 14.058L9.72729 15.1249L9.89178 14.3729L11.9598 12.8548H11.9645ZM7.10938 13.4658L7.21749 13.8183L9.03638 13.2449L8.94238 12.9065L7.10938 13.4658ZM11.0198 13.2778L10.578 13.6115L10.0704 13.2496L9.40298 15.4116L8.72617 15.8816L9.6427 12.9347L8.1669 11.8537L8.93298 11.7785L11.0198 13.2778Z" fill="#FFC621"/>
</g>
</g>
</g>
</g>
<defs>
<clipPath id="clip0_69_5690">
<rect width="24" height="24" rx="12" fill="white"/>
</clipPath>
<clipPath id="clip1_69_5690">
<rect width="32" height="24" fill="white" transform="translate(-4)"/>
</clipPath>
</defs>
</svg>
