<svg width="24" height="24" viewBox="0 0 24 24" fill="none" xmlns="http://www.w3.org/2000/svg">
<g clip-path="url(#clip0_69_5705)">
<g clip-path="url(#clip1_69_5705)">
<mask id="mask0_69_5705" style="mask-type:luminance" maskUnits="userSpaceOnUse" x="-4" y="0" width="32" height="24">
<path d="M28 0H-4V24H28V0Z" fill="white"/>
</mask>
<g mask="url(#mask0_69_5705)">
<path d="M-4 0H28V24H-4V0Z" fill="#003399"/>
<path d="M11.9993 3.81885L11.6437 5.00402L12.2363 5.12254L11.9993 3.81885Z" fill="#FFCC00"/>
<path d="M11.9991 3.81885L12.3547 5.00402L11.7621 5.12254L11.9991 3.81885Z" fill="#FFCC00"/>
<path d="M13.1271 4.63818L11.89 4.66626L11.9604 5.26646L13.1271 4.63818Z" fill="#FFCC00"/>
<path d="M13.1276 4.63843L12.1103 5.34283L11.8145 4.81587L13.1276 4.63843Z" fill="#FFCC00"/>
<path d="M12.6967 5.96374L12.2878 4.7959L11.7386 5.04834L12.6967 5.96374Z" fill="#FFCC00"/>
<path d="M12.697 5.96455L11.7128 5.21471L12.1225 4.77051L12.697 5.96455Z" fill="#FFCC00"/>
<path d="M10.8713 4.63818L12.1084 4.66626L12.038 5.26646L10.8713 4.63818Z" fill="#FFCC00"/>
<path d="M10.8708 4.63843L11.8881 5.34283L12.1839 4.81587L10.8708 4.63843Z" fill="#FFCC00"/>
<path d="M11.3017 5.96374L11.7107 4.7959L12.2597 5.04834L11.3017 5.96374Z" fill="#FFCC00"/>
<path d="M11.3014 5.96455L12.2857 5.21471L11.876 4.77051L11.3014 5.96455Z" fill="#FFCC00"/>
<path d="M11.9993 18.0405L11.6437 19.2257L12.2363 19.3442L11.9993 18.0405Z" fill="#FFCC00"/>
<path d="M11.9991 18.0405L12.3547 19.2257L11.7621 19.3442L11.9991 18.0405Z" fill="#FFCC00"/>
<path d="M13.1271 18.8601L11.89 18.8882L11.9604 19.4884L13.1271 18.8601Z" fill="#FFCC00"/>
<path d="M13.1276 18.8604L12.1103 19.5648L11.8145 19.0378L13.1276 18.8604Z" fill="#FFCC00"/>
<path d="M12.6967 20.1857L12.2878 19.0178L11.7386 19.2703L12.6967 20.1857Z" fill="#FFCC00"/>
<path d="M12.697 20.1862L11.7128 19.4364L12.1225 18.9922L12.697 20.1862Z" fill="#FFCC00"/>
<path d="M10.8713 18.8601L12.1084 18.8882L12.038 19.4884L10.8713 18.8601Z" fill="#FFCC00"/>
<path d="M10.8708 18.8604L11.8881 19.5648L12.1839 19.0378L10.8708 18.8604Z" fill="#FFCC00"/>
<path d="M11.3017 20.1857L11.7107 19.0178L12.2597 19.2703L11.3017 20.1857Z" fill="#FFCC00"/>
<path d="M11.3014 20.1862L12.2857 19.4364L11.876 18.9922L11.3014 20.1862Z" fill="#FFCC00"/>
<path d="M4.88834 10.9312L4.53278 12.1164L5.12538 12.2349L4.88834 10.9312Z" fill="#FFCC00"/>
<path d="M4.88822 10.9312L5.24378 12.1164L4.65118 12.2349L4.88822 10.9312Z" fill="#FFCC00"/>
<path d="M6.01609 11.7507L4.77905 11.7789L4.84945 12.3791L6.01609 11.7507Z" fill="#FFCC00"/>
<path d="M6.01667 11.751L4.99939 12.4554L4.70355 11.9284L6.01667 11.751Z" fill="#FFCC00"/>
<path d="M5.58583 13.0762L5.17683 11.9084L4.62775 12.1609L5.58583 13.0762Z" fill="#FFCC00"/>
<path d="M5.58609 13.0769L4.60181 12.327L5.01157 11.8828L5.58609 13.0769Z" fill="#FFCC00"/>
<path d="M3.76044 11.7507L4.99748 11.7789L4.92708 12.3791L3.76044 11.7507Z" fill="#FFCC00"/>
<path d="M3.75989 11.751L4.77717 12.4554L5.07301 11.9284L3.75989 11.751Z" fill="#FFCC00"/>
<path d="M4.19073 13.0762L4.59973 11.9084L5.14882 12.1609L4.19073 13.0762Z" fill="#FFCC00"/>
<path d="M4.19049 13.0769L5.17477 12.327L4.76501 11.8828L4.19049 13.0769Z" fill="#FFCC00"/>
<path d="M7.83582 6.96919L8.8201 6.21935L8.41034 5.77515L7.83582 6.96919Z" fill="#FFCC00"/>
<path d="M7.83606 6.96834L8.24506 5.80054L8.79414 6.05294L7.83606 6.96834Z" fill="#FFCC00"/>
<path d="M7.40363 5.64453L8.42091 6.34893L8.71675 5.82197L7.40363 5.64453Z" fill="#FFCC00"/>
<path d="M7.40417 5.64429L8.64121 5.67237L8.57081 6.27261L7.40417 5.64429Z" fill="#FFCC00"/>
<path d="M8.53055 4.82495L8.17499 6.01015L8.76759 6.12867L8.53055 4.82495Z" fill="#FFCC00"/>
<path d="M8.53037 4.82495L8.8859 6.01015L8.29333 6.12867L8.53037 4.82495Z" fill="#FFCC00"/>
<path d="M9.2283 6.96919L8.24402 6.21935L8.65378 5.77515L9.2283 6.96919Z" fill="#FFCC00"/>
<path d="M9.22794 6.96834L8.81898 5.80054L8.2699 6.05294L9.22794 6.96834Z" fill="#FFCC00"/>
<path d="M9.65886 5.64453L8.64154 6.34893L8.3457 5.82197L9.65886 5.64453Z" fill="#FFCC00"/>
<path d="M9.65835 5.64429L8.42126 5.67237L8.4917 6.27261L9.65835 5.64429Z" fill="#FFCC00"/>
<path d="M6.59205 9.60754L6.18305 8.4397L5.63397 8.69214L6.59205 9.60754Z" fill="#FFCC00"/>
<path d="M6.59231 9.6081L5.60803 8.85826L6.01779 8.41406L6.59231 9.6081Z" fill="#FFCC00"/>
<path d="M5.1983 9.60664L6.18258 8.8568L5.77282 8.4126L5.1983 9.60664Z" fill="#FFCC00"/>
<path d="M5.19861 9.60583L5.60757 8.43799L6.15665 8.69043L5.19861 9.60583Z" fill="#FFCC00"/>
<path d="M4.7677 8.28223L5.78502 8.98663L6.08086 8.45967L4.7677 8.28223Z" fill="#FFCC00"/>
<path d="M4.76825 8.28198L6.00533 8.31006L5.93489 8.91026L4.76825 8.28198Z" fill="#FFCC00"/>
<path d="M7.0229 8.28223L6.00562 8.98663L5.70978 8.45967L7.0229 8.28223Z" fill="#FFCC00"/>
<path d="M7.02238 8.28198L5.78534 8.31006L5.85574 8.91026L7.02238 8.28198Z" fill="#FFCC00"/>
<path d="M5.89598 7.4624L6.25154 8.6476L5.65894 8.76612L5.89598 7.4624Z" fill="#FFCC00"/>
<path d="M5.89621 7.4624L5.54065 8.6476L6.13321 8.76612L5.89621 7.4624Z" fill="#FFCC00"/>
<path d="M7.02238 15.4102L5.78534 15.4382L5.85574 16.0384L7.02238 15.4102Z" fill="#FFCC00"/>
<path d="M7.0229 15.4104L6.00562 16.1148L5.70978 15.5878L7.0229 15.4104Z" fill="#FFCC00"/>
<path d="M6.59205 16.7355L6.18305 15.5676L5.63397 15.8201L6.59205 16.7355Z" fill="#FFCC00"/>
<path d="M6.59231 16.7363L5.60803 15.9864L6.01779 15.5422L6.59231 16.7363Z" fill="#FFCC00"/>
<path d="M5.1983 16.7348L6.18258 15.985L5.77282 15.5408L5.1983 16.7348Z" fill="#FFCC00"/>
<path d="M5.19861 16.734L5.60757 15.5662L6.15665 15.8186L5.19861 16.734Z" fill="#FFCC00"/>
<path d="M5.89598 14.5906L6.25154 15.7757L5.65894 15.8943L5.89598 14.5906Z" fill="#FFCC00"/>
<path d="M5.89621 14.5906L5.54065 15.7757L6.13321 15.8943L5.89621 14.5906Z" fill="#FFCC00"/>
<path d="M4.76978 15.4102L6.00686 15.4382L5.93646 16.0384L4.76978 15.4102Z" fill="#FFCC00"/>
<path d="M4.76923 15.4104L5.78655 16.1148L6.08239 15.5878L4.76923 15.4104Z" fill="#FFCC00"/>
<path d="M9.5958 17.7959L8.35876 17.824L8.42916 18.4242L9.5958 17.7959Z" fill="#FFCC00"/>
<path d="M9.59638 17.7961L8.5791 18.5005L8.28326 17.9735L9.59638 17.7961Z" fill="#FFCC00"/>
<path d="M9.16548 19.1214L8.75648 17.9536L8.2074 18.206L9.16548 19.1214Z" fill="#FFCC00"/>
<path d="M9.16574 19.1223L8.18146 18.3724L8.59122 17.9282L9.16574 19.1223Z" fill="#FFCC00"/>
<path d="M7.77173 19.1208L8.75601 18.371L8.34625 17.9268L7.77173 19.1208Z" fill="#FFCC00"/>
<path d="M7.77203 19.1199L8.18099 17.9521L8.73007 18.2045L7.77203 19.1199Z" fill="#FFCC00"/>
<path d="M8.46946 16.9766L8.82502 18.1618L8.23242 18.2803L8.46946 16.9766Z" fill="#FFCC00"/>
<path d="M8.46959 16.9766L8.11407 18.1618L8.70663 18.2803L8.46959 16.9766Z" fill="#FFCC00"/>
<path d="M7.34326 17.7959L8.58034 17.824L8.5099 18.4242L7.34326 17.7959Z" fill="#FFCC00"/>
<path d="M7.34265 17.7961L8.35997 18.5005L8.65581 17.9735L7.34265 17.7961Z" fill="#FFCC00"/>
<path d="M19.1116 10.9312L19.4672 12.1164L18.8746 12.2349L19.1116 10.9312Z" fill="#FFCC00"/>
<path d="M19.1118 10.9312L18.7562 12.1164L19.3488 12.2349L19.1118 10.9312Z" fill="#FFCC00"/>
<path d="M17.9839 11.7507L19.2209 11.7789L19.1505 12.3791L17.9839 11.7507Z" fill="#FFCC00"/>
<path d="M17.9833 11.751L19.0006 12.4554L19.2965 11.9284L17.9833 11.751Z" fill="#FFCC00"/>
<path d="M18.4142 13.0762L18.8232 11.9084L19.3723 12.1609L18.4142 13.0762Z" fill="#FFCC00"/>
<path d="M18.4139 13.0769L19.3982 12.327L18.9885 11.8828L18.4139 13.0769Z" fill="#FFCC00"/>
<path d="M20.2395 11.7507L19.0025 11.7789L19.0729 12.3791L20.2395 11.7507Z" fill="#FFCC00"/>
<path d="M20.2401 11.751L19.2228 12.4554L18.927 11.9284L20.2401 11.751Z" fill="#FFCC00"/>
<path d="M19.8092 13.0762L19.4002 11.9084L18.8511 12.1609L19.8092 13.0762Z" fill="#FFCC00"/>
<path d="M19.8095 13.0769L18.8253 12.327L19.235 11.8828L19.8095 13.0769Z" fill="#FFCC00"/>
<path d="M16.1642 6.96919L15.1799 6.21935L15.5897 5.77515L16.1642 6.96919Z" fill="#FFCC00"/>
<path d="M16.1639 6.96834L15.7549 5.80054L15.2058 6.05294L16.1639 6.96834Z" fill="#FFCC00"/>
<path d="M16.5964 5.64453L15.5791 6.34893L15.2833 5.82197L16.5964 5.64453Z" fill="#FFCC00"/>
<path d="M16.5958 5.64429L15.3588 5.67237L15.4292 6.27261L16.5958 5.64429Z" fill="#FFCC00"/>
<path d="M15.4695 4.82495L15.825 6.01015L15.2324 6.12867L15.4695 4.82495Z" fill="#FFCC00"/>
<path d="M15.4696 4.82495L15.1141 6.01015L15.7066 6.12867L15.4696 4.82495Z" fill="#FFCC00"/>
<path d="M14.7717 6.96919L15.756 6.21935L15.3462 5.77515L14.7717 6.96919Z" fill="#FFCC00"/>
<path d="M14.772 6.96834L15.181 5.80054L15.7301 6.05294L14.772 6.96834Z" fill="#FFCC00"/>
<path d="M14.3411 5.64453L15.3584 6.34893L15.6543 5.82197L14.3411 5.64453Z" fill="#FFCC00"/>
<path d="M14.3417 5.64429L15.5788 5.67237L15.5083 6.27261L14.3417 5.64429Z" fill="#FFCC00"/>
<path d="M17.408 9.60754L17.817 8.4397L18.366 8.69214L17.408 9.60754Z" fill="#FFCC00"/>
<path d="M17.4077 9.6081L18.3919 8.85826L17.9822 8.41406L17.4077 9.6081Z" fill="#FFCC00"/>
<path d="M18.8017 9.60664L17.8174 8.8568L18.2272 8.4126L18.8017 9.60664Z" fill="#FFCC00"/>
<path d="M18.8014 9.60583L18.3925 8.43799L17.8434 8.69043L18.8014 9.60583Z" fill="#FFCC00"/>
<path d="M19.2323 8.28223L18.215 8.98663L17.9192 8.45967L19.2323 8.28223Z" fill="#FFCC00"/>
<path d="M19.2318 8.28198L17.9947 8.31006L18.0651 8.91026L19.2318 8.28198Z" fill="#FFCC00"/>
<path d="M16.9771 8.28223L17.9943 8.98663L18.2902 8.45967L16.9771 8.28223Z" fill="#FFCC00"/>
<path d="M16.9777 8.28198L18.2147 8.31006L18.1443 8.91026L16.9777 8.28198Z" fill="#FFCC00"/>
<path d="M18.104 7.4624L17.7484 8.6476L18.341 8.76612L18.104 7.4624Z" fill="#FFCC00"/>
<path d="M18.1038 7.4624L18.4594 8.6476L17.8668 8.76612L18.1038 7.4624Z" fill="#FFCC00"/>
<path d="M16.9777 15.4102L18.2147 15.4382L18.1443 16.0384L16.9777 15.4102Z" fill="#FFCC00"/>
<path d="M16.9771 15.4104L17.9943 16.1148L18.2902 15.5878L16.9771 15.4104Z" fill="#FFCC00"/>
<path d="M17.408 16.7355L17.817 15.5676L18.366 15.8201L17.408 16.7355Z" fill="#FFCC00"/>
<path d="M17.4077 16.7363L18.3919 15.9864L17.9822 15.5422L17.4077 16.7363Z" fill="#FFCC00"/>
<path d="M18.8017 16.7348L17.8174 15.985L18.2272 15.5408L18.8017 16.7348Z" fill="#FFCC00"/>
<path d="M18.8014 16.734L18.3925 15.5662L17.8434 15.8186L18.8014 16.734Z" fill="#FFCC00"/>
<path d="M18.104 14.5906L17.7484 15.7757L18.341 15.8943L18.104 14.5906Z" fill="#FFCC00"/>
<path d="M18.1038 14.5906L18.4594 15.7757L17.8668 15.8943L18.1038 14.5906Z" fill="#FFCC00"/>
<path d="M19.2302 15.4102L17.9931 15.4382L18.0635 16.0384L19.2302 15.4102Z" fill="#FFCC00"/>
<path d="M19.2308 15.4104L18.2134 16.1148L17.9176 15.5878L19.2308 15.4104Z" fill="#FFCC00"/>
<path d="M14.4042 17.7959L15.6412 17.824L15.5708 18.4242L14.4042 17.7959Z" fill="#FFCC00"/>
<path d="M14.4036 17.7961L15.4209 18.5005L15.7167 17.9735L14.4036 17.7961Z" fill="#FFCC00"/>
<path d="M14.8345 19.1214L15.2435 17.9536L15.7926 18.206L14.8345 19.1214Z" fill="#FFCC00"/>
<path d="M14.8342 19.1223L15.8185 18.3724L15.4087 17.9282L14.8342 19.1223Z" fill="#FFCC00"/>
<path d="M16.2283 19.1208L15.244 18.371L15.6538 17.9268L16.2283 19.1208Z" fill="#FFCC00"/>
<path d="M16.2279 19.1199L15.819 17.9521L15.2699 18.2045L16.2279 19.1199Z" fill="#FFCC00"/>
<path d="M15.5305 16.9766L15.175 18.1618L15.7676 18.2803L15.5305 16.9766Z" fill="#FFCC00"/>
<path d="M15.5304 16.9766L15.8859 18.1618L15.2933 18.2803L15.5304 16.9766Z" fill="#FFCC00"/>
<path d="M16.6568 17.7959L15.4197 17.824L15.4901 18.4242L16.6568 17.7959Z" fill="#FFCC00"/>
<path d="M16.6573 17.7961L15.64 18.5005L15.3442 17.9735L16.6573 17.7961Z" fill="#FFCC00"/>
</g>
</g>
</g>
<defs>
<clipPath id="clip0_69_5705">
<rect width="24" height="24" rx="12" fill="white"/>
</clipPath>
<clipPath id="clip1_69_5705">
<rect width="32" height="24" fill="white" transform="translate(-4)"/>
</clipPath>
</defs>
</svg>
