<svg width="24" height="24" viewBox="0 0 24 24" fill="none" xmlns="http://www.w3.org/2000/svg">
<g clip-path="url(#clip0_69_5926)">
<g clip-path="url(#clip1_69_5926)">
<mask id="mask0_69_5926" style="mask-type:luminance" maskUnits="userSpaceOnUse" x="-4" y="0" width="32" height="24">
<path d="M28 0H-4V24H28V0Z" fill="white"/>
</mask>
<g mask="url(#mask0_69_5926)">
<path d="M-4 0V24H28V0H-4Z" fill="#68BFE5"/>
<path d="M17.0453 9.65942V16.4794C17.0453 18.7094 21.0753 20.0294 21.0753 20.0294C21.0753 20.0294 25.1003 18.7094 25.1003 16.4794V9.65942H17.0453Z" fill="white"/>
<path d="M20.5153 12.0593V15.1293H17.0453V16.2443H20.5153V19.8193L21.0753 20.0343L21.6303 19.8193V16.2493H25.1003V15.1293H21.6303V12.0593H20.5153Z" fill="#D21034"/>
<path d="M17.0456 9.65942H25.1006V12.2994H17.0406L17.0456 9.65942Z" fill="#D21034"/>
<path d="M17.6896 11.6283C17.9393 11.6283 18.1417 11.4646 18.1417 11.2627C18.1417 11.0607 17.9393 10.897 17.6896 10.897C17.4399 10.897 17.2375 11.0607 17.2375 11.2627C17.2375 11.4646 17.4399 11.6283 17.6896 11.6283Z" fill="white" stroke="black" stroke-width="0.066486" stroke-miterlimit="3"/>
<path d="M17.6898 11.2759C17.9119 11.2759 18.092 11.1851 18.092 11.0731C18.092 10.9612 17.9119 10.8704 17.6898 10.8704C17.4676 10.8704 17.2875 10.9612 17.2875 11.0731C17.2875 11.1851 17.4676 11.2759 17.6898 11.2759Z" fill="white" stroke="black" stroke-width="0.066486" stroke-miterlimit="3"/>
<path d="M17.6898 11.6853C17.9119 11.6853 18.092 11.5946 18.092 11.4826C18.092 11.3706 17.9119 11.2798 17.6898 11.2798C17.4676 11.2798 17.2875 11.3706 17.2875 11.4826C17.2875 11.5946 17.4676 11.6853 17.6898 11.6853Z" fill="white" stroke="black" stroke-width="0.066486" stroke-miterlimit="3"/>
<path d="M17.6898 11.4649C17.9119 11.4649 18.092 11.3741 18.092 11.2621C18.092 11.1501 17.9119 11.0593 17.6898 11.0593C17.4676 11.0593 17.2875 11.1501 17.2875 11.2621C17.2875 11.3741 17.4676 11.4649 17.6898 11.4649Z" fill="white" stroke="black" stroke-width="0.066486" stroke-miterlimit="3"/>
<path d="M24.9001 11.7688L24.8351 11.5888C24.8351 11.5888 24.6551 11.5138 24.6401 11.4188C24.6101 11.1638 24.5201 11.0688 24.3801 11.0288C24.3047 11.0074 24.224 11.0164 24.1551 11.0538C24.1151 11.1138 23.9051 11.1138 23.7951 11.1188C23.6801 11.1188 23.6751 11.0688 23.6751 11.0688C23.5901 11.0688 23.5501 11.0038 23.5501 11.0038C23.4951 10.8888 23.4501 10.8438 23.4201 10.8288C23.5701 10.8288 23.6801 10.7638 23.8501 10.5888C24.0301 10.3988 24.1601 10.4688 24.1601 10.4688C24.0701 10.6488 24.1901 10.6338 24.1901 10.6338C24.4301 10.5088 24.2201 10.1988 24.1501 10.2138C24.0751 10.2288 24.0551 10.1788 24.0551 10.1788C24.0551 10.2338 23.9751 10.2588 23.9751 10.2588C24.0351 9.9038 23.8251 9.8088 23.8251 9.8088C23.7951 9.8388 23.7751 9.9038 23.7751 9.9038C23.7151 10.1188 23.5201 10.0838 23.3001 9.9788C23.0801 9.8788 22.5001 10.0888 22.3151 10.1638C22.1301 10.2388 21.7951 10.3488 21.4951 10.1838C21.1951 10.0138 21.1201 10.0438 21.0001 10.0788C20.8851 10.1088 20.6751 10.1588 20.6001 10.1188C20.5472 10.0921 20.4893 10.0768 20.4301 10.0738C20.4501 10.0638 20.4201 10.0138 20.4201 10.0138C20.3251 9.8888 20.4301 9.8138 20.4301 9.8138C20.4301 9.8138 20.2601 9.8638 20.3301 10.1538L20.3601 10.1938C20.3601 10.1938 20.3801 10.2888 20.4301 10.3138V10.3338C20.4301 10.3338 20.4751 10.3138 20.4851 10.3738C20.5001 10.4338 20.5651 10.3738 20.5901 10.3238C20.5901 10.3238 20.5451 10.5938 20.8751 10.6588C20.8751 10.6588 20.8401 10.6138 20.8501 10.5888C20.8651 10.5588 20.8101 10.5388 20.8151 10.4988C20.8201 10.4538 20.7351 10.4388 20.8001 10.4038C20.8701 10.3738 20.9001 10.3088 21.0501 10.3988C21.1951 10.4838 21.3101 10.4638 21.3101 10.4638C21.3101 10.4638 21.2201 10.2838 21.2701 10.2838C21.3201 10.2838 21.5401 10.5538 21.6451 10.5438C21.7551 10.5288 21.9651 10.4038 22.0701 10.4488C22.0701 10.4488 22.0801 10.3988 22.4801 10.3288C22.8801 10.2588 23.3801 10.0588 23.5651 10.2338C23.5651 10.2338 23.5851 10.3738 23.6651 10.4088C23.6651 10.4088 23.6501 10.6988 23.1551 10.5388L22.9751 10.4888C22.9751 10.4888 22.9451 10.4038 22.0001 10.6488C22.0001 10.6488 21.9451 10.6688 21.9051 10.6938C21.8701 10.7188 21.8201 10.6788 21.6301 10.7438C21.4451 10.8188 20.7451 11.0438 20.3151 10.9638C20.2201 10.9338 20.1351 10.9488 20.1301 10.9338C20.1301 10.9188 20.1801 10.9388 20.1801 10.9388C20.1501 10.9038 20.1351 10.8988 20.1351 10.8988C19.7751 10.8588 19.8351 10.6988 19.8351 10.6988L19.8551 10.7488C19.9151 10.6688 19.8351 10.4888 19.8351 10.4888H19.8301C19.8303 10.4838 19.8303 10.4788 19.8301 10.4738L19.8551 10.4538C20.0301 10.3038 20.2301 10.2788 20.2301 10.2788C20.1101 10.1288 19.8601 10.2088 19.8601 10.2088C19.8651 10.0338 19.7901 9.8238 19.7901 9.8238C19.6361 9.84908 19.498 9.93336 19.4051 10.0588C19.3951 9.8738 19.1601 9.7688 19.1601 9.7688C19.2501 9.8738 19.1951 10.1288 19.1951 10.1288H19.2051H19.1801L19.1751 10.1838H19.1651C19.1651 10.1838 19.0801 10.2138 18.9801 10.4438C18.9801 10.4438 18.9701 10.4938 18.9301 10.5438V10.5238C18.9301 10.5238 18.8151 10.6738 18.5601 10.5238C18.5601 10.5238 18.2101 10.3188 18.0801 10.3238C17.9601 10.3338 17.8801 10.3888 17.8851 10.4238C17.8851 10.4238 17.6001 10.4038 17.5051 10.5638C17.5051 10.5638 17.2901 10.6438 17.4751 10.8138C17.4751 10.8138 17.5001 10.8938 17.5501 10.9338C17.5501 10.9338 17.5451 10.7738 17.5851 10.8188L17.6101 10.8488C17.6151 10.8688 17.6351 10.9288 17.6701 10.9638L17.7001 10.9538C17.7001 10.9138 17.7101 10.8638 17.7201 10.8438H17.7301L17.7801 10.9238L17.8301 10.8938C17.8601 10.8938 17.8951 10.9188 17.8951 10.9188L17.9601 10.8638C18.0251 10.8738 18.0451 10.7438 18.0451 10.7438C18.0713 10.7503 18.0985 10.7514 18.1252 10.7471C18.1518 10.7428 18.1773 10.7332 18.2001 10.7188C18.2301 10.8188 18.4601 10.9338 18.4601 10.9338H18.4701L18.4401 10.9538C18.5451 11.0288 18.7401 11.0088 18.7401 11.0088C18.6601 11.0388 18.6701 11.1938 18.6701 11.1938C18.6201 11.2138 18.6201 11.2588 18.6201 11.2588C18.7801 11.3238 18.8851 11.2688 18.8851 11.2688C18.8951 11.3188 18.8851 11.3288 18.8851 11.3288C18.8201 11.4638 18.7901 11.5988 18.7901 11.5988H18.7951V11.6088C18.7951 11.6088 18.5101 11.7088 18.3901 11.8438C18.3901 11.8438 18.3751 11.8038 18.3401 11.8038C18.3051 11.8038 18.2001 11.7138 18.1501 11.6988C18.1001 11.6838 18.0251 11.7138 18.0001 11.6888C17.9851 11.6688 17.9951 11.5088 17.9601 11.4888L17.9251 11.3888C17.9051 11.4388 17.8051 11.4288 17.8051 11.4288L17.7651 11.4588L17.7251 11.4538C17.7151 11.4538 17.7051 11.4788 17.7001 11.5038L17.6851 11.5188V11.4888C17.6701 11.5038 17.6301 11.4838 17.6151 11.4838C17.6051 11.4838 17.5951 11.5038 17.5901 11.5288L17.4951 11.5338C17.4801 11.5438 17.4951 11.6638 17.4951 11.6638C17.3801 11.7238 17.4351 11.8188 17.4351 11.8188C17.4951 12.1188 18.0101 11.9838 18.0501 12.0238C18.0901 12.0638 18.1801 12.0738 18.2251 12.0738C18.2751 12.0738 18.3301 12.1838 18.3951 12.1938C18.4601 12.2038 18.3951 12.1038 18.7001 12.0338C19.0051 11.9588 19.1101 11.8338 19.1101 11.8338C19.2051 11.8138 19.2301 11.6988 19.2351 11.6538L19.2451 11.7238C19.2601 11.8288 19.1851 11.8738 19.1851 11.8738L19.4501 11.7888C19.5551 11.7638 19.5401 11.6688 19.5401 11.6688C19.6401 11.9588 19.8251 11.9788 19.8251 11.9788C19.8601 11.8688 19.8551 11.8338 19.8551 11.8338H19.9401C19.9401 11.7688 19.8901 11.7238 19.8551 11.7038L19.9851 11.7788L20.0351 11.7738C20.0351 11.8188 20.1001 11.8588 20.1001 11.8588L20.1101 11.7988C20.1701 11.8788 20.2801 11.8488 20.2801 11.8488C20.2775 11.8353 20.2742 11.8219 20.2701 11.8088C20.5051 11.9538 20.8801 11.7688 20.8801 11.7688C20.9801 11.7888 20.9951 11.7288 20.9951 11.7288C21.1051 11.7438 21.1351 11.6638 21.1351 11.6638C21.4001 11.6438 21.5901 11.4538 21.5901 11.4538C21.7251 11.4438 21.7301 11.3488 21.7301 11.3488C21.7301 11.3488 21.8601 11.3738 21.9901 11.2138C22.2901 10.7888 22.7301 11.0138 22.7301 11.0138L22.4751 11.0288C21.8001 11.0238 22.0801 11.4788 22.0801 11.4788H22.1201C22.1851 11.4888 22.4051 11.6638 22.3201 11.7888V11.7988C22.1801 11.9838 21.9301 11.8088 21.8551 11.6488C21.7851 11.4888 21.6351 11.5238 21.6351 11.5238C21.6351 11.5238 21.2601 11.5888 21.4151 11.8888C21.4201 11.9638 21.4651 12.0488 21.6051 12.1288C21.6801 12.2388 21.9301 12.2488 22.1101 12.2088C22.2001 12.1988 22.6501 11.9988 22.6501 11.9988C22.6851 11.8988 22.8001 11.9238 22.9001 11.7788C23.0001 11.6388 22.7551 11.5888 22.7001 11.5088C22.6501 11.4338 22.7151 11.4488 22.7151 11.4488C22.9351 11.5638 22.9551 11.1888 22.9551 11.1888C22.9617 11.2502 22.9853 11.3084 23.0233 11.357C23.0613 11.4056 23.1122 11.4426 23.1701 11.4638C23.2851 11.3488 23.2001 11.1038 23.2001 11.1038C23.4851 11.6138 23.6551 11.5288 23.6551 11.5288C23.5051 11.4388 23.5801 11.3088 23.5801 11.3088C23.7151 11.8488 24.2801 11.3788 24.2801 11.3788C24.2501 11.4588 24.2801 11.5038 24.3301 11.5538C24.3801 11.6038 24.4401 11.6238 24.4101 11.7188C24.3851 11.8088 24.1201 11.7888 24.1201 11.7888C24.1201 11.7888 23.8701 11.7788 23.8901 11.9888C23.9051 12.0388 24.0701 12.0588 24.1401 12.0438C24.1401 12.0438 24.1101 12.0538 24.2051 12.0638H24.3151C24.4201 12.0638 24.5401 12.0438 24.5401 12.0438C24.6851 12.0138 24.6601 11.9638 24.6601 11.9638C24.8851 11.9238 24.9101 11.7738 24.9101 11.7738L24.9001 11.7688Z" fill="#FFD100" stroke="black" stroke-width="0.1" stroke-miterlimit="3"/>
<path d="M17.48 10.834C17.48 10.834 17.495 10.809 17.515 10.804C17.535 10.804 17.555 10.814 17.575 10.844L17.59 10.834C17.59 10.834 17.53 10.744 17.55 10.684C17.565 10.654 17.59 10.634 17.63 10.629V10.614C17.58 10.624 17.55 10.644 17.54 10.679C17.5345 10.6899 17.5311 10.7018 17.53 10.714C17.53 10.744 17.54 10.774 17.555 10.799C17.5435 10.7906 17.5291 10.787 17.515 10.789C17.5063 10.7901 17.498 10.7934 17.491 10.7987C17.4839 10.8039 17.4784 10.8109 17.475 10.819L17.48 10.834ZM24.53 12.034C24.38 12.059 24.155 12.069 24.135 12.024C24.135 12.014 24.135 11.984 24.255 11.904L24.245 11.879C24.14 11.949 24.095 11.994 24.11 12.029C24.145 12.119 24.47 12.069 24.535 12.059L24.53 12.034ZM21.61 12.119C21.575 12.069 21.595 11.994 21.66 11.904L21.635 11.889C21.565 11.989 21.55 12.069 21.585 12.139L21.61 12.119Z" fill="black"/>
<path d="M21.4053 11.8888C21.4053 11.9838 21.4753 12.0688 21.6003 12.1438L21.6153 12.1187C21.4953 12.0488 21.4353 11.9688 21.4353 11.8888C21.4253 11.7638 21.5603 11.6638 21.5653 11.6638L21.5503 11.6438C21.5403 11.6438 21.4003 11.7487 21.4053 11.8938V11.8888ZM24.0053 11.9238C23.9653 11.9888 23.9803 12.0638 23.9803 12.0638H24.0053C24.0053 12.0588 23.9953 11.9938 24.0303 11.9388C24.0421 11.9226 24.0571 11.9089 24.0742 11.8986C24.0914 11.8883 24.1105 11.8815 24.1303 11.8787V11.8537C24.0753 11.8637 24.0303 11.8888 24.0103 11.9238H24.0053ZM18.0503 10.7537H18.0403V10.7638C18.0403 10.7638 18.0303 10.8438 17.9903 10.8638C17.9807 10.8676 17.9699 10.8676 17.9603 10.8638L17.8953 10.8287C17.8853 10.8187 17.8753 10.8137 17.8553 10.8188C17.8473 10.8091 17.8414 10.7979 17.8379 10.7859C17.8345 10.7738 17.8336 10.7612 17.8353 10.7488C17.8403 10.7138 17.8653 10.6788 17.9153 10.6488L17.9053 10.6338C17.8553 10.6688 17.8253 10.7088 17.8203 10.7488C17.8203 10.7988 17.8453 10.8287 17.8453 10.8287V10.8338H17.8553C17.8703 10.8288 17.8703 10.8338 17.8853 10.8438L17.9553 10.8838H18.0053C18.0403 10.8588 18.0553 10.7888 18.0553 10.7738C18.2153 10.8088 18.3453 10.6087 18.3553 10.6037L18.3403 10.5938C18.3403 10.5938 18.2053 10.7937 18.0503 10.7537Z" fill="black"/>
<path d="M17.6553 10.7241C17.6501 10.7588 17.6572 10.7941 17.6753 10.8241C17.6903 10.8491 17.7103 10.8641 17.7253 10.8691C17.7503 10.8691 17.7653 10.8541 17.7853 10.8391C17.7953 10.8291 17.8053 10.8191 17.8153 10.8191L17.8303 10.8291L17.8403 10.8191L17.8153 10.8041C17.8003 10.8041 17.7853 10.8141 17.7753 10.8291C17.7653 10.8441 17.7453 10.8541 17.7253 10.8541C17.7153 10.8541 17.7003 10.8391 17.6853 10.8141C17.6772 10.8017 17.6717 10.7878 17.6691 10.7731C17.6666 10.7585 17.667 10.7436 17.6703 10.7291C17.6903 10.6591 17.7753 10.6041 17.7753 10.6041L17.7703 10.5891C17.7653 10.5891 17.6753 10.6491 17.6553 10.7241ZM17.4353 11.7591C17.4403 11.7291 17.4653 11.7091 17.5003 11.6891C17.4903 11.6891 17.5303 11.7191 17.5653 11.7191L17.5903 11.7041C17.6003 11.7141 17.6603 11.7691 17.6603 11.8391C17.6603 11.8541 17.6603 11.8691 17.6503 11.8841L17.6653 11.8891C17.7103 11.7841 17.5953 11.6891 17.5953 11.6891H17.5853L17.5653 11.7041C17.5353 11.7041 17.5003 11.6741 17.5003 11.6741C17.4503 11.6941 17.4303 11.7241 17.4203 11.7541L17.4353 11.7591ZM17.9503 11.4891C17.9153 11.4941 17.8253 11.5091 17.7953 11.5591C17.7853 11.5791 17.7803 11.5991 17.7903 11.6191L17.8003 11.6491C17.8303 11.7291 17.8603 11.8091 17.8953 11.8291L17.9003 11.8141C17.8703 11.7991 17.8403 11.7141 17.8153 11.6441L17.8053 11.6141C17.8009 11.6065 17.7986 11.5979 17.7986 11.5891C17.7986 11.5803 17.8009 11.5717 17.8053 11.5641C17.8303 11.5291 17.9153 11.5141 17.9553 11.5091C17.9753 11.5091 17.9803 11.5841 17.9853 11.6291H18.0003C17.9953 11.5591 17.9853 11.4891 17.9503 11.4891Z" fill="black"/>
<path d="M17.6952 11.5692C17.6752 11.5842 17.6802 11.6092 17.6802 11.6142C17.6802 11.6192 17.6902 11.8142 17.7802 11.8542L17.7852 11.8392C17.7052 11.8042 17.6952 11.6142 17.6952 11.6092C17.6952 11.6092 17.6952 11.5892 17.7052 11.5792C17.7202 11.5692 17.7452 11.5642 17.7852 11.5792L17.7902 11.5642C17.7452 11.5492 17.7152 11.5542 17.6952 11.5642V11.5692Z" fill="black"/>
<path d="M17.6196 11.5843C17.5796 11.6143 17.5846 11.6943 17.5846 11.6993H17.5996C17.5996 11.6993 17.5996 11.6193 17.6296 11.5993C17.6446 11.5893 17.6596 11.5893 17.6796 11.5993L17.6846 11.5793C17.6596 11.5693 17.6346 11.5693 17.6196 11.5793V11.5843Z" fill="black"/>
<path d="M19.82 10.5085C19.82 10.5085 19.8632 10.6082 19.8632 10.6847C19.8632 10.698 19.8566 10.708 19.8533 10.7179L19.8367 10.6747L19.8267 10.708C19.8267 10.708 19.8067 10.7545 19.8367 10.8044C19.8765 10.8709 19.9763 10.9107 20.1358 10.9274V10.9307C20.1312 10.9306 20.1266 10.9318 20.1225 10.934L20.1159 10.9407V10.954C20.1225 10.9706 20.1391 10.9706 20.1757 10.9706L20.199 10.9739L20.2189 10.9806L20.2156 10.9772C20.2489 10.9772 20.2921 10.9872 20.3353 11.0038L20.3021 11.0105L20.3386 11.0271C20.3419 11.0271 20.6278 11.1435 20.7442 11.2365C20.7109 11.2665 20.568 11.3695 20.322 11.3097L20.2821 11.2997L20.3087 11.3329C20.3087 11.3329 20.4716 11.5191 20.5048 11.6321C20.4483 11.6321 20.2322 11.6321 20.1558 11.5656L20.1391 11.5823C20.1391 11.5823 20.2389 11.7352 20.2655 11.8515C20.2322 11.8582 20.1657 11.8615 20.1225 11.805L20.1026 11.7817L20.0926 11.8482C20.0727 11.8316 20.0461 11.8116 20.0461 11.7851V11.7717L19.9862 11.7817L19.8599 11.7053C19.8535 11.7005 19.8468 11.6961 19.84 11.692L19.8267 11.7152L19.8466 11.7252C19.8732 11.7451 19.9197 11.7817 19.9231 11.8349H19.8433V11.8515C19.8433 11.8615 19.8433 11.8981 19.8134 11.9745C19.7768 11.9679 19.6372 11.918 19.5541 11.682L19.5275 11.6886V11.6953C19.5275 11.7185 19.5208 11.7717 19.4477 11.7917L19.2316 11.8582C19.2505 11.8309 19.2599 11.7982 19.2582 11.7651V11.7385C19.2541 11.7099 19.2519 11.681 19.2516 11.6521C19.2516 11.6022 19.2615 11.5723 19.2981 11.5523L19.2848 11.5257C19.2815 11.5257 18.9657 11.6554 18.8094 11.6022C18.8161 11.569 18.8427 11.4626 18.8959 11.3495L18.8892 11.3562C18.8992 11.3495 18.9092 11.3363 18.8992 11.2831V11.2665L18.8826 11.2731C18.8826 11.2731 18.7829 11.3196 18.6366 11.2665C18.6366 11.2531 18.6465 11.2332 18.6765 11.2199L18.6864 11.2166V11.19C18.6864 11.1501 18.6898 11.057 18.7463 11.0371L18.7396 11.0105C18.7396 11.0105 18.5701 11.0238 18.467 10.9673C18.5115 10.9353 18.5627 10.9137 18.6166 10.9041H18.6266V10.8908C18.6262 10.8645 18.6205 10.8385 18.61 10.8143C18.6499 10.8277 18.6964 10.8376 18.713 10.8243L18.7197 10.821L18.713 10.7179H18.6864L18.6898 10.8044L18.59 10.7811L18.5501 10.7678L18.5767 10.8011C18.5928 10.8245 18.601 10.8524 18.6 10.8808C18.5397 10.8939 18.4829 10.92 18.4338 10.9573L18.4172 10.9706L18.4338 10.9806C18.5136 11.0337 18.6366 11.0404 18.6997 11.0371C18.6714 11.0818 18.6565 11.1337 18.6565 11.1867V11.2C18.6433 11.2077 18.6319 11.2183 18.6233 11.2309C18.6147 11.2435 18.609 11.258 18.6067 11.2731V11.2831L18.6133 11.2864C18.6957 11.3243 18.7893 11.3303 18.8759 11.303V11.3329C18.8094 11.4725 18.7762 11.6089 18.7762 11.6089V11.6221H18.7862C18.9158 11.6753 19.1419 11.6055 19.2449 11.569C19.2316 11.5922 19.2217 11.6188 19.2217 11.6521C19.2221 11.6899 19.2254 11.7277 19.2316 11.7651C19.2316 11.8415 19.1817 11.8715 19.1784 11.8715L19.1884 11.8981L19.4543 11.8183C19.5142 11.8017 19.5375 11.7651 19.5474 11.7352C19.6505 11.9812 19.8134 12.0011 19.8233 12.0045H19.8333L19.8367 11.9945C19.8542 11.952 19.8654 11.9072 19.8699 11.8615C19.8965 11.8605 19.9231 11.8593 19.9497 11.8582V11.8415C19.9497 11.8183 19.9463 11.7983 19.9364 11.7817L19.9829 11.8083L20.0261 11.8017C20.0361 11.8449 20.0893 11.8815 20.0959 11.8848L20.1126 11.8947L20.1225 11.8382C20.189 11.8947 20.2788 11.8781 20.2854 11.8781L20.2954 11.8748V11.8615C20.2821 11.7717 20.2223 11.6654 20.1857 11.6089C20.3021 11.6621 20.5148 11.6587 20.5248 11.6587H20.5381V11.6421C20.4943 11.5321 20.4312 11.4308 20.3519 11.3429C20.6245 11.3928 20.7708 11.2498 20.7774 11.2432L20.7874 11.2332L20.7741 11.2265C20.6547 11.1412 20.5251 11.0709 20.3885 11.0171L20.4184 11.0105L20.3851 10.9939C20.3255 10.9634 20.2594 10.9474 20.1923 10.9473C20.1591 10.9074 20.1425 10.9041 20.1391 10.9008C19.953 10.8808 19.8865 10.831 19.8599 10.7911V10.7811L19.8666 10.7711C19.8832 10.7479 19.8898 10.7179 19.8898 10.6847C19.8898 10.5983 19.8466 10.5019 19.8466 10.4985L19.82 10.5085Z" fill="black"/>
<path d="M18.9723 10.4549C18.9723 10.4549 18.9523 10.5546 18.8659 10.6045C18.7994 10.6377 18.7163 10.6377 18.6133 10.5945L18.6 10.5912V10.6045C18.6074 10.6473 18.6313 10.6854 18.6665 10.7108C18.7097 10.7441 18.7762 10.7574 18.8626 10.7508C18.8327 10.784 18.7429 10.897 18.7429 11.01V11.0267C18.7562 11.0333 18.8959 11.0732 18.9623 10.9901C18.9623 11.0234 18.9756 11.1397 19.0189 11.1829C19.0454 11.2095 19.0521 11.2428 19.0521 11.2727C19.0521 11.2992 19.0454 11.3192 19.0454 11.3192L19.0388 11.3392L19.0554 11.3258C19.0621 11.3225 19.1917 11.2261 19.2316 11.1031C19.2316 11.1031 19.2549 11.0699 19.2947 11.0599V11.0765C19.2947 11.1264 19.3147 11.2128 19.4543 11.266L19.4643 11.2694V11.2594C19.4639 11.2516 19.4639 11.2438 19.4643 11.2361C19.4643 11.1995 19.4643 11.1364 19.5009 11.1031C19.5156 11.0894 19.5255 11.0714 19.5291 11.0516C19.5327 11.0318 19.5298 11.0114 19.5208 10.9934C19.5507 11.0001 19.6172 11.0234 19.6438 11.0732C19.6837 11.1464 19.82 11.0865 19.8267 11.0865L19.8233 11.0699C19.8233 11.0699 19.7635 11.0832 19.7269 11.0599C19.7193 11.0539 19.7129 11.0464 19.7083 11.0378C19.7038 11.0292 19.701 11.0198 19.7003 11.01L19.6937 10.9303C19.6937 10.897 19.687 10.8738 19.6704 10.8571C19.687 10.8571 19.7236 10.8571 19.7369 10.8904C19.7635 10.9436 19.8466 10.9469 19.8499 10.9469L19.8798 10.9502L19.8566 10.9336C19.8566 10.9336 19.7834 10.887 19.7967 10.8239L19.8067 10.7774C19.8267 10.6942 19.8599 10.5579 19.83 10.4715L19.8167 10.4782C19.8233 10.4981 19.8267 10.5247 19.8267 10.5513C19.8267 10.6244 19.8034 10.7175 19.7934 10.774L19.7801 10.8206C19.7796 10.8261 19.7796 10.8316 19.7801 10.8372C19.7801 10.8804 19.8034 10.9103 19.8233 10.9269C19.8001 10.9236 19.7668 10.9103 19.7568 10.8837C19.7336 10.8372 19.6804 10.8372 19.6571 10.8405L19.6372 10.8438L19.6505 10.8571C19.6737 10.8704 19.6771 10.8904 19.6771 10.9336L19.6837 11.01C19.687 11.0366 19.7003 11.0566 19.7169 11.0699C19.7369 11.0832 19.7568 11.0832 19.7735 11.0865C19.7336 11.0965 19.6771 11.1031 19.6571 11.0666C19.6205 10.9934 19.5142 10.9768 19.5108 10.9735H19.4942L19.5009 10.9868C19.5009 10.9868 19.5142 11.0067 19.5142 11.0333C19.5142 11.0499 19.5075 11.0732 19.4909 11.0898C19.4543 11.1264 19.4477 11.1962 19.4477 11.2328V11.2461C19.328 11.1962 19.3081 11.1231 19.3081 11.0798V11.0466L19.3147 11.0366H19.3014C19.2839 11.0396 19.2673 11.0466 19.2529 11.0569C19.2385 11.0673 19.2267 11.0808 19.2183 11.0965C19.1853 11.1777 19.1313 11.2488 19.0621 11.3026C19.064 11.2916 19.0651 11.2805 19.0654 11.2694C19.0654 11.2394 19.0587 11.2028 19.0321 11.1729C18.9823 11.1264 18.9756 10.9735 18.9756 10.9735V10.9469L18.9623 10.9702C18.9091 11.0632 18.7562 11.0167 18.7529 11.0167C18.7463 10.9004 18.8859 10.7474 18.8859 10.7441L18.8992 10.7308H18.8792C18.7895 10.7441 18.7197 10.7308 18.6731 10.6976C18.6467 10.6765 18.628 10.6473 18.6199 10.6144C18.7197 10.651 18.8061 10.6544 18.8726 10.6178C18.9013 10.6003 18.9262 10.5772 18.9456 10.5497C18.9651 10.5223 18.9787 10.4911 18.9856 10.4582C19.0853 10.2388 19.1684 10.2022 19.1684 10.2022L19.1651 10.189C19.1585 10.189 19.072 10.2222 18.9723 10.4549Z" fill="black"/>
<path d="M19.1958 10.1265H19.1892L19.1094 10.2362H19.1327C19.3807 10.2557 19.6133 10.3644 19.7875 10.542L19.7975 10.552L19.874 10.4689L19.8673 10.4589C19.6513 10.1198 19.1991 10.1265 19.1925 10.1265H19.1958ZM19.2025 10.1564C19.2557 10.1564 19.6413 10.1664 19.8407 10.4656L19.7975 10.5121C19.6221 10.3454 19.3966 10.2414 19.1559 10.2162C19.1714 10.1963 19.1869 10.1763 19.2025 10.1564Z" fill="black"/>
<path d="M19.1319 10.3519C19.0961 10.3987 19.0721 10.4534 19.0621 10.5114L19.0654 10.5247C19.0423 10.549 19.0245 10.5777 19.013 10.6092C19.0016 10.6407 18.9968 10.6741 18.9989 10.7076C18.9989 10.7508 19.0055 10.794 19.0189 10.8339L19.0288 10.8572C19.0687 10.9702 19.1053 11.0699 19.2881 11.0101C19.461 10.9569 19.4676 10.9436 19.5109 10.8705L19.5241 10.8538C19.5474 10.8139 19.574 10.8073 19.6006 10.7973C19.6339 10.7873 19.6671 10.7774 19.7003 10.7175L19.7269 10.6743C19.7602 10.6311 19.8001 10.5746 19.8034 10.5081H19.7901C19.7802 10.5658 19.7549 10.6198 19.7169 10.6643L19.6837 10.7109C19.6765 10.7293 19.6648 10.7456 19.6497 10.7583C19.6346 10.7711 19.6166 10.7799 19.5973 10.784C19.5795 10.7874 19.5626 10.7945 19.5477 10.8048C19.5329 10.8151 19.5203 10.8284 19.5109 10.8439L19.4975 10.8638C19.4577 10.9336 19.451 10.9436 19.2815 10.9968C19.1153 11.05 19.082 10.9669 19.0421 10.8505L19.0321 10.8273C18.9856 10.7009 19.0222 10.5746 19.0853 10.5281L19.1053 10.5114L19.0754 10.5148V10.5114C19.0754 10.4882 19.0986 10.425 19.1419 10.3619C19.1817 10.3087 19.2748 10.2588 19.2748 10.2555L19.2682 10.2422C19.2615 10.2455 19.1718 10.2987 19.1319 10.3519Z" fill="black"/>
<path d="M19.0518 10.8147C19.0818 10.8346 19.1216 10.8313 19.1748 10.8147C19.1748 10.8313 19.1748 10.8712 19.2081 10.8978C19.248 10.931 19.3078 10.9376 19.3909 10.9177V10.9011C19.3112 10.921 19.2513 10.9144 19.2181 10.8845C19.2075 10.8742 19.1993 10.8617 19.1942 10.8479C19.189 10.8342 19.1869 10.8194 19.1882 10.8047V10.7914L19.1782 10.798C19.1283 10.818 19.0884 10.8213 19.0585 10.798C19.0086 10.7648 19.012 10.675 19.012 10.675H18.9986C18.9986 10.675 18.992 10.7748 19.0518 10.8147Z" fill="black"/>
<path d="M19.145 10.6918C19.1251 10.6984 19.1184 10.715 19.1184 10.7283V10.7383C19.1251 10.7782 19.1683 10.8048 19.2049 10.8148C19.2447 10.8247 19.2913 10.8281 19.3079 10.8048C19.3146 10.7948 19.3212 10.7782 19.3079 10.7483C19.2936 10.7202 19.2691 10.6987 19.2394 10.6882C19.2097 10.6777 19.1771 10.679 19.1483 10.6918H19.145ZM19.2115 10.8015C19.1783 10.7915 19.1384 10.7682 19.1351 10.735C19.1351 10.735 19.1317 10.7117 19.1517 10.7051C19.1774 10.6947 19.2061 10.6943 19.2319 10.7042C19.2579 10.7141 19.2791 10.7334 19.2913 10.7583C19.3013 10.7715 19.3013 10.7849 19.2946 10.7915C19.2847 10.8081 19.2481 10.8115 19.2115 10.8015ZM19.1982 10.8912C19.1883 10.9743 19.1982 10.9777 19.2015 10.9777H19.2082L19.2148 10.9743L19.2614 10.9079L19.2015 10.8813V10.8912H19.1982ZM19.2148 10.9045L19.2381 10.9145L19.2115 10.9511V10.9045H19.2148ZM19.0752 10.8247L19.0719 10.9012L19.1384 10.8214L19.0719 10.8148V10.8247H19.0752ZM19.0885 10.8314H19.1085L19.0885 10.858V10.8314Z" fill="black"/>
<path d="M19.0289 10.7973C19.0289 10.7973 19.0788 10.8937 19.0887 10.9303C19.0921 10.9503 19.122 10.9768 19.1552 10.9868C19.1885 11.0001 19.2217 11.0001 19.245 10.9835L19.2882 10.9469C19.3015 10.9303 19.3081 10.927 19.3215 10.9303V10.9137C19.3015 10.9137 19.2915 10.9203 19.2782 10.9336L19.235 10.9669C19.2084 10.9868 19.1785 10.9802 19.1619 10.9735C19.1286 10.9635 19.1054 10.9403 19.102 10.9237C19.0921 10.8904 19.0455 10.794 19.0422 10.7907L19.0289 10.7973ZM19.0954 10.5114C19.0579 10.5312 19.0294 10.5645 19.0156 10.6045L19.0289 10.6078C19.0289 10.6078 19.0522 10.548 19.0987 10.5247C19.1113 10.519 19.1249 10.5161 19.1386 10.5161C19.1524 10.5161 19.166 10.519 19.1785 10.5247L19.1818 10.5114C19.1486 10.4981 19.122 10.4981 19.0921 10.5114H19.0954ZM19.4544 10.6843C19.4611 10.6843 19.5608 10.7641 19.5043 10.8572L19.5143 10.8671C19.5807 10.7574 19.4644 10.671 19.4644 10.6677L19.4544 10.6843ZM19.1486 10.6976C19.1486 10.6976 19.1319 10.7541 19.2151 10.7741C19.2151 10.7741 19.1386 10.7741 19.1319 10.7541C19.1286 10.7342 19.1319 10.6909 19.1486 10.6976ZM19.3979 10.7641C19.3979 10.7707 19.3913 10.7741 19.3879 10.7741C19.3858 10.7742 19.3836 10.7736 19.3818 10.7724C19.38 10.7712 19.3787 10.7695 19.3779 10.7674C19.3779 10.7607 19.3813 10.7574 19.3879 10.7574C19.3913 10.7574 19.3979 10.7607 19.3979 10.7674V10.7641ZM19.4045 10.804C19.4045 10.8073 19.4045 10.8106 19.3979 10.8106C19.3957 10.8107 19.3936 10.8102 19.3918 10.809C19.39 10.8078 19.3887 10.806 19.3879 10.804C19.3879 10.8013 19.389 10.7988 19.3909 10.7969C19.3927 10.7951 19.3953 10.794 19.3979 10.794C19.4012 10.794 19.4045 10.7973 19.4045 10.804Z" fill="black"/>
<path d="M19.3444 10.7949C19.3498 10.7949 19.3543 10.7904 19.3543 10.7849C19.3543 10.7794 19.3498 10.7749 19.3444 10.7749C19.3388 10.7749 19.3344 10.7794 19.3344 10.7849C19.3344 10.7904 19.3388 10.7949 19.3444 10.7949Z" fill="black"/>
<path d="M19.3716 10.8377C19.3716 10.8403 19.3706 10.8429 19.3687 10.8447C19.3668 10.8466 19.3643 10.8477 19.3617 10.8477C19.359 10.8477 19.3565 10.8466 19.3546 10.8447C19.3527 10.8429 19.3517 10.8403 19.3517 10.8377C19.3517 10.8344 19.355 10.8311 19.3617 10.8311L19.3716 10.8377ZM19.1356 10.595C19.1356 10.5977 19.1345 10.6002 19.1327 10.6021C19.1308 10.6039 19.1283 10.605 19.1256 10.605C19.123 10.605 19.1204 10.6039 19.1186 10.6021C19.1167 10.6002 19.1157 10.5977 19.1157 10.595C19.1165 10.5937 19.1178 10.5925 19.1193 10.5917C19.1207 10.591 19.1223 10.5906 19.1239 10.5906C19.1256 10.5906 19.1272 10.591 19.1287 10.5917C19.1301 10.5925 19.1313 10.5937 19.1323 10.595H19.1356Z" fill="black"/>
<path d="M19.1318 10.6418C19.1374 10.6418 19.1418 10.6373 19.1418 10.6318C19.1418 10.6263 19.1374 10.6218 19.1318 10.6218C19.1263 10.6218 19.1219 10.6263 19.1219 10.6318C19.1219 10.6373 19.1263 10.6418 19.1318 10.6418Z" fill="black"/>
<path d="M19.0819 10.6247C19.0874 10.6247 19.0919 10.6202 19.0919 10.6147C19.0919 10.6092 19.0874 10.6047 19.0819 10.6047C19.0763 10.6047 19.0719 10.6092 19.0719 10.6147C19.0719 10.6202 19.0763 10.6247 19.0819 10.6247Z" fill="black"/>
<path d="M19.1057 10.6679C19.1058 10.6701 19.1052 10.6722 19.104 10.674C19.1028 10.6758 19.1011 10.6771 19.099 10.6779C19.0964 10.6779 19.0938 10.6768 19.092 10.6749C19.0901 10.6731 19.0891 10.6705 19.0891 10.6679C19.0891 10.6653 19.0901 10.6627 19.092 10.6609C19.0938 10.659 19.0964 10.6579 19.099 10.6579C19.1011 10.6586 19.1028 10.66 19.104 10.6618C19.1052 10.6636 19.1058 10.6657 19.1057 10.6679ZM19.2652 10.3488C19.2652 10.3488 19.3816 10.4219 19.2685 10.5582C19.2685 10.5582 19.3251 10.515 19.3284 10.4452C19.3351 10.3753 19.2885 10.3189 19.2619 10.3488H19.2652ZM19.714 10.5449C19.6741 10.5649 19.6209 10.5283 19.5943 10.495C19.5677 10.4618 19.5112 10.4518 19.4747 10.515C19.4414 10.5748 19.3915 10.5981 19.3915 10.5981C19.3915 10.5981 19.4414 10.5715 19.4913 10.515C19.5411 10.4618 19.5711 10.505 19.6209 10.5316C19.6675 10.5582 19.6775 10.5649 19.7107 10.5482V10.5449H19.714Z" fill="black"/>
<path d="M19.704 10.5557C19.6934 10.5639 19.6803 10.5681 19.6669 10.5674C19.6535 10.5668 19.6407 10.5615 19.6309 10.5523C19.5977 10.5257 19.5744 10.4925 19.5378 10.5124C19.4979 10.5324 19.4281 10.5856 19.4281 10.5856C19.4281 10.5856 19.5445 10.5058 19.5677 10.5257C19.5877 10.5423 19.6409 10.5856 19.6708 10.5723L19.704 10.5557Z" fill="black"/>
<path d="M19.6142 10.6021C19.5777 10.5755 19.5411 10.6353 19.5112 10.6287C19.4779 10.622 19.4547 10.5688 19.4547 10.5688C19.4547 10.5688 19.4813 10.622 19.5211 10.612C19.5644 10.5988 19.591 10.5722 19.6175 10.5921C19.6408 10.612 19.6142 10.6021 19.6142 10.6021Z" fill="black"/>
<path d="M19.5579 10.6115C19.5484 10.6135 19.5386 10.6133 19.5292 10.611C19.5197 10.6088 19.5109 10.6045 19.5033 10.5985C19.4957 10.5925 19.4895 10.5849 19.4852 10.5762C19.4808 10.5675 19.4784 10.558 19.4781 10.5483C19.4781 10.5483 19.5014 10.6082 19.5646 10.5982L19.5579 10.6115Z" fill="black"/>
<path d="M19.5539 10.5651C19.5572 10.5817 19.5572 10.5917 19.5373 10.5917C19.5173 10.5917 19.504 10.5851 19.504 10.5651C19.504 10.5485 19.5506 10.5518 19.5539 10.5651ZM19.2946 10.4654C19.2938 10.471 19.291 10.4761 19.2867 10.4797C19.2824 10.4834 19.277 10.4854 19.2713 10.4853C19.258 10.4853 19.2547 10.4787 19.2547 10.4654C19.2547 10.4521 19.2547 10.4421 19.2713 10.4421C19.2879 10.4421 19.2946 10.4521 19.2946 10.4654Z" fill="black"/>
<path d="M19.2112 10.3821C19.2112 10.3821 19.3375 10.3821 19.2777 10.5384C19.2777 10.5384 19.3243 10.4619 19.2943 10.4054C19.2611 10.3522 19.2179 10.3655 19.2179 10.3655C19.2179 10.3655 19.2046 10.3755 19.2112 10.3821Z" fill="black"/>
<path d="M19.2111 10.4452C19.2111 10.4785 19.2311 10.5084 19.271 10.5417L19.281 10.5284C19.2444 10.4984 19.2245 10.4718 19.2245 10.4452C19.2245 10.4187 19.2444 10.4021 19.2444 10.4021L19.2344 10.3921C19.2344 10.3921 19.2111 10.412 19.2078 10.4452H19.2111Z" fill="black"/>
<path d="M19.2385 10.4716C19.2418 10.4882 19.2584 10.5048 19.2783 10.5115L19.285 10.4982C19.2684 10.4915 19.2551 10.4782 19.2517 10.4649C19.2451 10.4383 19.265 10.4084 19.265 10.4084L19.2517 10.3984C19.2517 10.3984 19.2285 10.4383 19.2385 10.4716ZM19.408 10.558C19.408 10.558 19.4313 10.6079 19.398 10.661L19.3648 10.7142C19.3648 10.7142 19.4047 10.6378 19.388 10.6079C19.3747 10.5746 19.408 10.558 19.408 10.558ZM19.8933 11.0832C20.0197 11.1065 20.3089 11.3326 20.3089 11.3326L20.3255 11.3126C20.3155 11.3026 20.0296 11.0799 19.8967 11.0566L19.89 11.0832H19.8933ZM20.0063 11.399C20.013 11.5154 20.1393 11.5852 20.1393 11.5885L20.1559 11.5653C20.1559 11.5653 20.0396 11.4988 20.0329 11.399H20.0063ZM19.6972 11.4256C19.6972 11.552 19.8169 11.7049 19.8235 11.7115L19.8435 11.6949C19.8435 11.6949 19.7238 11.542 19.7238 11.4256H19.6972ZM19.2949 11.439C19.3149 11.4822 19.3149 11.5021 19.3083 11.5121C19.3016 11.5254 19.2883 11.5254 19.2883 11.5254L19.2916 11.552C19.3016 11.552 19.3215 11.5453 19.3315 11.5254C19.3448 11.5021 19.3415 11.4689 19.3182 11.4256L19.2949 11.439Z" fill="black"/>
<path d="M17.4797 10.8144C17.4797 10.8144 17.4847 10.8994 17.5497 10.9494C17.5497 10.9494 17.5447 10.8594 17.5647 10.8194C17.5647 10.8194 17.5297 10.7794 17.4797 10.8144ZM17.6097 10.8644C17.6097 10.8644 17.6247 10.9444 17.6697 10.9794L17.6997 10.9744C17.6997 10.9744 17.7097 10.8744 17.7247 10.8644C17.7397 10.8544 17.6597 10.8994 17.6097 10.8644Z" fill="white" stroke="black" stroke-width="0.025" stroke-miterlimit="3"/>
<path d="M17.7251 10.8638L17.7751 10.9438L17.8351 10.9088L17.8251 10.8188C17.8251 10.8188 17.7901 10.8088 17.7251 10.8638ZM17.9601 10.8788L17.8951 10.9338C17.8951 10.9338 17.8601 10.9088 17.8351 10.9088L17.8451 10.8238C17.8451 10.8238 17.8951 10.7888 17.9601 10.8788ZM17.4951 11.6788C17.4951 11.6788 17.4851 11.5588 17.4951 11.5538C17.4951 11.5538 17.5451 11.5688 17.5651 11.5538C17.5651 11.5538 17.5901 11.6438 17.5851 11.6838C17.5751 11.7238 17.5301 11.7088 17.4951 11.6838V11.6788ZM17.7951 11.5588C17.7951 11.5588 17.7901 11.4588 17.8051 11.4438C17.8051 11.4438 17.9051 11.4588 17.9251 11.4038L17.9601 11.5038C17.9601 11.5038 17.8551 11.4888 17.7901 11.5538L17.7951 11.5588Z" fill="white"/>
<path d="M17.8351 10.9088L17.7751 10.9438L17.7251 10.8638C17.7901 10.8088 17.8251 10.8188 17.8251 10.8188L17.8351 10.9088ZM17.8351 10.9088C17.8601 10.9088 17.8951 10.9338 17.8951 10.9338L17.9601 10.8788C17.8951 10.7888 17.8451 10.8238 17.8451 10.8238L17.8351 10.9088ZM17.4951 11.6788C17.4951 11.6788 17.4851 11.5588 17.4951 11.5538C17.4951 11.5538 17.5451 11.5688 17.5651 11.5538C17.5651 11.5538 17.5901 11.6438 17.5851 11.6838C17.5751 11.7238 17.5301 11.7088 17.4951 11.6838V11.6788ZM17.7951 11.5588C17.7951 11.5588 17.7901 11.4588 17.8051 11.4438C17.8051 11.4438 17.9051 11.4588 17.9251 11.4038L17.9601 11.5038C17.9601 11.5038 17.8551 11.4888 17.7901 11.5538L17.7951 11.5588Z" stroke="black" stroke-width="0.025" stroke-miterlimit="3"/>
<path d="M17.69 11.5791C17.69 11.5791 17.705 11.4741 17.725 11.4691C17.725 11.4691 17.775 11.4841 17.79 11.4641V11.5941C17.79 11.5941 17.79 11.5391 17.69 11.5791ZM17.575 11.5941C17.575 11.5941 17.6 11.4991 17.615 11.4991C17.63 11.4991 17.665 11.5241 17.685 11.5091V11.5791C17.685 11.5791 17.605 11.5591 17.59 11.6741L17.575 11.5941Z" fill="white" stroke="black" stroke-width="0.025" stroke-miterlimit="3"/>
<path d="M19.0854 13.5194C19.0854 13.5194 19.3454 13.7644 19.2804 13.9794C19.2804 13.9794 19.4454 13.6144 19.2654 13.5044C19.0854 13.4044 19.0804 13.4794 19.0854 13.5194Z" fill="#00A651" stroke="black" stroke-width="0.0625" stroke-miterlimit="4.8"/>
<path d="M18.7495 13.7543C18.7495 13.7543 18.6845 13.8543 18.7595 13.9193C18.7595 13.9193 18.6745 14.0393 18.7395 14.1393C18.7395 14.1393 18.6895 14.2443 18.6995 14.3593C18.6995 14.3593 18.6595 14.5343 18.7495 14.6143C18.7495 14.6143 18.8495 14.6643 18.8995 14.6193C18.8995 14.6193 18.9845 14.4893 18.9295 14.3543C18.9295 14.3543 18.9895 14.2393 18.9195 14.0943C18.9195 14.0943 18.9395 14.0143 18.8845 13.9193C18.8845 13.9193 18.9195 13.8593 18.8895 13.8093C18.8895 13.8093 18.7645 13.6743 18.7495 13.7593V13.7543Z" fill="#964B36" stroke="black" stroke-width="0.0625" stroke-miterlimit="4.8"/>
<path d="M18.8256 13.4495C18.8256 13.4495 18.5156 12.8495 18.2956 12.8245C18.0756 12.7995 18.0656 12.5845 18.0656 12.5845C18.0656 12.5845 18.0906 12.6845 18.2656 12.6845C18.4406 12.6845 18.7756 12.9345 18.8156 13.1195C18.8506 13.3045 18.8906 13.2795 18.8906 13.2795L18.8256 13.4495Z" fill="#00A651" stroke="black" stroke-width="0.0625" stroke-miterlimit="4.8"/>
<path d="M18.8257 13.4037C18.8257 13.4037 18.9407 12.6488 19.4357 12.6338C19.9307 12.6238 19.7657 12.6738 19.8857 12.5938C19.8857 12.5938 19.5557 12.7638 19.3507 12.7938C19.1407 12.8137 18.9707 13.2188 18.9807 13.2938C18.9807 13.3688 18.8657 13.5138 18.8107 13.4638C18.7507 13.4138 18.8257 13.4037 18.8257 13.4037Z" fill="#00A651" stroke="black" stroke-width="0.0625" stroke-miterlimit="4.8"/>
<path d="M18.9404 13.69C18.9404 13.69 19.0554 13.39 19.2454 13.49C19.2454 13.49 19.0954 13.2 18.8254 13.45C18.8254 13.45 18.9454 13.615 18.9404 13.69ZM18.5654 13.39C18.5654 13.39 18.7254 14.06 18.4754 14.265C18.4754 14.265 18.4854 13.92 18.3304 13.715C18.1804 13.505 18.4804 13.28 18.5654 13.39Z" fill="#00A651" stroke="black" stroke-width="0.0625" stroke-miterlimit="4.8"/>
<path d="M18.5859 13.5037C18.5859 13.5037 18.8809 13.7887 18.8959 13.8837C18.9159 13.9737 18.9859 13.5987 18.8459 13.4937C18.7059 13.3887 18.5609 13.3687 18.5609 13.3687L18.5859 13.5087V13.5037Z" fill="#00A651" stroke="black" stroke-width="0.0625" stroke-miterlimit="4.8"/>
<path d="M18.0406 14.2501C18.0406 14.2501 18.0656 14.3651 18.1406 14.3901C18.1406 14.3901 18.1406 14.4751 18.2106 14.5001C18.2106 14.5001 18.1756 14.5751 18.2306 14.6201C18.2306 14.6201 18.2206 14.7701 18.2706 14.7951C18.2706 14.7951 18.4056 14.7901 18.4506 14.7501C18.4506 14.7501 18.4756 14.6551 18.4006 14.5601C18.4006 14.5601 18.4156 14.4701 18.3406 14.4201C18.3406 14.4201 18.3656 14.2951 18.2706 14.2501C18.2706 14.2501 18.2556 14.1501 18.2006 14.1001C18.2006 14.1001 18.0906 14.2551 18.0406 14.2501Z" fill="#964B36" stroke="black" stroke-width="0.0625" stroke-miterlimit="4.8"/>
<path d="M18.1859 14.0992C18.1859 14.0992 17.8009 13.9592 17.5859 14.1592C17.5859 14.1592 17.9159 14.2092 17.9559 14.2742C17.9959 14.3392 18.2009 14.1642 18.1859 14.0992Z" fill="#00A651" stroke="black" stroke-width="0.0625" stroke-miterlimit="4.8"/>
<path d="M18.0653 14.3391L17.9953 14.2891C17.9603 14.2591 17.6353 14.1741 17.5903 14.4891C17.5903 14.4891 17.4703 14.1741 17.6403 14.1391C17.8153 14.0891 17.9503 14.1891 18.0653 14.3391ZM17.8153 13.6991C17.8153 13.6991 17.9303 13.9591 17.9753 13.9691C18.0203 13.9841 18.0503 13.9391 18.0503 13.9391C18.0503 13.9391 17.8953 13.7091 17.8103 13.6991H17.8153ZM17.7253 13.3041C17.7253 13.3041 17.6253 12.9741 17.5053 13.0641C17.3853 13.1491 17.4153 13.3891 17.4153 13.3891C17.4153 13.3891 17.1803 13.1391 17.3153 12.9491C17.4553 12.7541 17.7253 12.9691 17.7253 13.3041Z" fill="#00A651" stroke="black" stroke-width="0.0625" stroke-miterlimit="4.8"/>
<path d="M17.9953 13.9891C17.9953 13.9891 17.9953 14.0541 18.0403 14.0691C18.0803 14.0891 18.1653 14.1191 18.1653 14.0841C18.1653 14.0491 18.1003 13.8991 18.0753 13.9191C18.0503 13.9391 18.0053 13.9391 17.9953 13.9891Z" fill="#964B36" stroke="black" stroke-width="0.0625" stroke-miterlimit="4.8"/>
<path d="M17.9206 13.5998C17.9206 13.5998 17.9056 13.3148 18.0956 13.2048C18.0956 13.2048 18.1306 13.2148 18.1506 13.1548C18.1506 13.1548 18.0006 13.5198 18.0456 13.7048L18.0406 13.7248" fill="#00A651"/>
<path d="M17.9206 13.5998C17.9206 13.5998 17.9056 13.3148 18.0956 13.2048C18.0956 13.2048 18.1306 13.2148 18.1506 13.1548C18.1506 13.1548 18.0006 13.5198 18.0456 13.7048L18.0406 13.7248" stroke="black" stroke-width="0.0625" stroke-miterlimit="4.8"/>
<path d="M17.9547 13.2492C17.9547 13.2492 18.2947 12.5492 18.7047 12.7942C18.7047 12.7942 18.2747 12.8792 18.1197 13.1892L17.9647 13.4192L17.9547 13.2492Z" fill="#00A651" stroke="black" stroke-width="0.0625" stroke-miterlimit="4.8"/>
<path d="M17.7756 13.5043C17.7756 13.5043 17.6756 13.0343 17.6106 12.9743C17.5506 12.9093 17.4456 12.8443 17.3156 12.9493C17.3156 12.9493 17.5356 12.7543 17.7656 12.9193C18.0006 13.0793 17.9506 13.3393 17.9506 13.3393L17.9256 13.6643L17.7706 13.5193" fill="#00A651"/>
<path d="M17.7756 13.5043C17.7756 13.5043 17.6756 13.0343 17.6106 12.9743C17.5506 12.9093 17.4456 12.8443 17.3156 12.9493C17.3156 12.9493 17.5356 12.7543 17.7656 12.9193C18.0006 13.0793 17.9506 13.3393 17.9506 13.3393L17.9256 13.6643L17.7706 13.5193" stroke="black" stroke-width="0.0625" stroke-miterlimit="4.8"/>
<path d="M18.1396 14.0644C18.1396 14.0644 17.7246 13.2794 17.4546 13.8394C17.4546 13.8394 17.4046 13.9844 17.4596 14.0394C17.4596 14.0394 17.3096 13.9244 17.3796 13.6494C17.4496 13.3744 17.9046 13.4994 18.0396 13.7244C18.1696 13.9494 18.2046 14.0644 18.1896 14.0744C18.1696 14.0894 18.1396 14.0644 18.1396 14.0644ZM19.3046 14.2894C19.3046 14.2894 19.6046 13.6694 19.7796 13.9494C19.7796 13.9494 19.8296 14.0894 19.7546 14.1494C19.7546 14.1494 19.6346 13.9994 19.5296 14.1794C19.4196 14.3544 19.4646 14.3394 19.4646 14.3394C19.4646 14.3394 19.3546 14.3694 19.3046 14.2894Z" fill="#00A651" stroke="black" stroke-width="0.0625" stroke-miterlimit="4.8"/>
<path d="M19.75 14.15C19.75 14.15 19.915 14.235 19.86 14.41C19.86 14.41 20.08 13.99 19.78 13.95C19.78 13.95 19.835 14.085 19.755 14.15H19.75ZM19.775 13.72C19.775 13.72 20.17 13.835 20.18 14.005C20.18 14.005 20.25 13.675 20.025 13.575C20.025 13.575 19.755 13.625 19.775 13.725V13.72Z" fill="#00A651" stroke="black" stroke-width="0.0625" stroke-miterlimit="4.8"/>
<path d="M19.9503 13.199C20.1203 12.869 20.3303 13.304 20.3303 13.304C20.3303 13.304 20.4053 12.959 20.1953 12.899C19.9803 12.834 19.8453 13.634 19.8453 13.634L19.5953 13.684C19.5953 13.684 19.6603 12.994 20.0353 12.934H20.0853" fill="#00A651"/>
<path d="M19.9503 13.199C20.1203 12.869 20.3303 13.304 20.3303 13.304C20.3303 13.304 20.4053 12.959 20.1953 12.899C19.9803 12.834 19.8453 13.634 19.8453 13.634L19.5953 13.684C19.5953 13.684 19.6603 12.994 20.0353 12.934H20.0853" stroke="black" stroke-width="0.0625" stroke-miterlimit="4.8"/>
<path d="M19.6497 13.4001C19.6497 13.4001 19.4097 12.9101 19.2497 12.8601C19.0897 12.8101 19.3347 12.7351 19.4347 12.8301C19.5347 12.9251 19.7247 13.0451 19.7047 13.2951L19.6497 13.4001ZM19.3997 14.0701C19.3997 14.0701 19.4697 13.7401 19.6597 13.6401C19.8497 13.5401 20.0247 13.5751 20.0247 13.5751C20.0247 13.5751 19.7997 13.6251 19.7597 13.7401C19.7247 13.8501 19.6597 13.8601 19.6597 13.8601L19.4047 14.0701H19.3997Z" fill="#00A651" stroke="black" stroke-width="0.0625" stroke-miterlimit="4.8"/>
<path d="M19.2996 14.2891C19.2996 14.2891 19.1996 14.4891 19.2196 14.5191C19.2196 14.5191 19.1096 14.6841 19.1546 14.7691C19.1546 14.7691 19.2646 14.8541 19.3146 14.8191C19.3146 14.8191 19.4446 14.6341 19.4096 14.5341C19.4096 14.5341 19.4996 14.4141 19.4646 14.3391C19.4646 14.3391 19.3346 14.3441 19.3046 14.2891H19.2996Z" fill="#964B36" stroke="black" stroke-width="0.0625" stroke-miterlimit="4.8"/>
<path d="M18.7509 13.9294C18.7609 13.9344 18.8259 13.9644 18.8659 13.9494L18.8959 13.9244L18.8709 13.9144C18.8559 13.9444 18.7859 13.9194 18.7659 13.9094L18.7559 13.9294H18.7509ZM18.7459 14.1294L18.7359 14.1544C18.7409 14.1544 18.8709 14.1794 18.9309 14.1244L18.9109 14.1044C18.8609 14.1494 18.7459 14.1244 18.7409 14.1244L18.7459 14.1294ZM18.7109 14.3494L18.6959 14.3694C18.6959 14.3694 18.8459 14.4744 18.9409 14.3594L18.9159 14.3444C18.8409 14.4394 18.7159 14.3544 18.7109 14.3444V14.3494ZM18.1359 14.3794L18.1409 14.3944C18.1459 14.3944 18.2709 14.3444 18.2809 14.2494H18.2659C18.2609 14.3294 18.1409 14.3794 18.1359 14.3794ZM18.2059 14.4944V14.5094C18.2159 14.5094 18.3309 14.4994 18.3509 14.4194H18.3359C18.3159 14.4844 18.2109 14.4944 18.2059 14.4944ZM18.2309 14.6144V14.6294C18.2359 14.6294 18.3659 14.6344 18.4109 14.5644L18.3959 14.5544C18.3559 14.6194 18.2309 14.6144 18.2309 14.6144ZM19.2159 14.5294C19.2159 14.5294 19.2709 14.5894 19.3359 14.5844C19.3521 14.5841 19.368 14.5804 19.3827 14.5735C19.3974 14.5666 19.4104 14.5567 19.4209 14.5444L19.4009 14.5244C19.3809 14.5494 19.3609 14.5594 19.3359 14.5594C19.2859 14.5594 19.2359 14.5094 19.2359 14.5094L19.2159 14.5294Z" fill="black"/>
<path d="M23.1009 14.9888C23.095 14.9928 23.0899 14.9979 23.0859 15.0038L23.1059 14.9888H23.1009ZM23.5659 14.8738C23.5609 14.8638 23.5559 14.8688 23.5509 14.8638L23.5309 14.8238H23.5159L23.4809 14.7538C23.4829 14.749 23.4829 14.7436 23.4809 14.7388C23.4811 14.7322 23.4811 14.7255 23.4809 14.7188C23.4809 14.7188 23.4709 14.7188 23.4659 14.7088V14.6288L23.4609 14.6038C23.4507 14.5874 23.4455 14.5682 23.4459 14.5488V14.4988C23.4509 14.4788 23.4409 14.4688 23.4409 14.4488L23.4459 14.4038V14.1338L23.4409 14.0838L23.4359 14.0638V13.9838V14.1138L23.4259 13.8988L23.2559 13.8188C23.2559 13.8188 23.2409 14.1288 23.2459 14.1688C23.2459 14.2138 23.2659 14.5038 23.2559 14.5388L23.2309 14.7538C23.2309 14.7538 23.1509 14.8138 23.1209 14.8738C23.0859 14.9388 23.0959 14.9588 23.0859 14.9588L23.1609 14.9488L23.1059 14.9888C23.1117 14.9865 23.118 14.9857 23.1241 14.9866C23.1303 14.9875 23.1361 14.99 23.1409 14.9938L23.1509 15.0038L23.1609 14.9938C23.1759 14.9938 23.1859 15.0138 23.1959 15.0088L23.2159 14.9988L23.2259 14.9788C23.2309 14.9738 23.2409 14.9788 23.2459 14.9788H23.2809C23.2959 14.9788 23.3109 14.9538 23.3259 14.9438C23.3359 14.9338 23.3459 14.9288 23.3609 14.9288C23.3759 14.9288 23.3909 14.9438 23.4109 14.9438C23.4209 14.9438 23.4259 14.9438 23.4359 14.9338L23.4559 14.9038L23.4959 14.8988L23.5159 14.9038H23.5459L23.5609 14.9138L23.5709 14.8938L23.5659 14.8738Z" fill="#964B36"/>
<path d="M23.1059 14.9888L23.0859 15.0038C23.0899 14.9979 23.095 14.9928 23.1009 14.9888H23.1059ZM23.1059 14.9888L23.1609 14.9488L23.0859 14.9588C23.0959 14.9588 23.0859 14.9388 23.1209 14.8738C23.1509 14.8138 23.2309 14.7538 23.2309 14.7538L23.2559 14.5388C23.2659 14.5038 23.2459 14.2138 23.2459 14.1688C23.2409 14.1288 23.2559 13.8188 23.2559 13.8188L23.4259 13.8988L23.4359 14.1138V13.9838V14.0638L23.4409 14.0838L23.4459 14.1338V14.4038L23.4409 14.4488C23.4409 14.4688 23.4509 14.4788 23.4459 14.4988V14.5488C23.4455 14.5682 23.4507 14.5874 23.4609 14.6038L23.4659 14.6288V14.7088C23.4709 14.7188 23.4809 14.7188 23.4809 14.7188C23.4811 14.7255 23.4811 14.7322 23.4809 14.7388C23.4829 14.7436 23.4829 14.749 23.4809 14.7538L23.5159 14.8238H23.5309L23.5509 14.8638C23.5559 14.8688 23.5609 14.8638 23.5659 14.8738L23.5709 14.8938L23.5609 14.9138L23.5459 14.9038H23.5159L23.4959 14.8988L23.4559 14.9038L23.4359 14.9338C23.4259 14.9438 23.4209 14.9438 23.4109 14.9438C23.3909 14.9438 23.3759 14.9288 23.3609 14.9288C23.3459 14.9288 23.3359 14.9338 23.3259 14.9438C23.3109 14.9538 23.2959 14.9788 23.2809 14.9788H23.2459C23.2409 14.9788 23.2309 14.9738 23.2259 14.9788L23.2159 14.9988L23.1959 15.0088C23.1859 15.0138 23.1759 14.9938 23.1609 14.9938L23.1509 15.0038L23.1409 14.9938C23.1361 14.99 23.1303 14.9875 23.1241 14.9866C23.118 14.9857 23.1117 14.9865 23.1059 14.9888Z" stroke="black" stroke-width="0.0375" stroke-miterlimit="4.8"/>
<path d="M23.2254 14.9833H23.2554V14.9933C23.2569 14.9942 23.2586 14.9947 23.2604 14.9947C23.2622 14.9947 23.2639 14.9942 23.2654 14.9933L23.2804 15.0033H23.2954L23.3154 15.0083C23.3254 15.0133 23.3354 15.0083 23.3454 15.0033C23.3554 14.9933 23.3604 15.0033 23.3754 15.0133C23.3804 15.0183 23.3804 15.0183 23.3854 15.0133L23.3904 15.0083L23.4054 15.0033L23.4204 14.9983L23.4404 14.9883L23.4604 14.9983C23.4637 14.9979 23.4671 14.9979 23.4704 14.9983L23.5054 14.9733C23.5204 14.9633 23.5304 14.9733 23.5404 14.9733H23.5554C23.5604 14.9683 23.5654 14.9733 23.5754 14.9733C23.5754 14.9683 23.5754 14.9633 23.5854 14.9583L23.6204 14.9783C23.6254 14.9833 23.6554 14.9883 23.6504 14.9683C23.6504 14.9483 23.6304 14.9633 23.6254 14.9483V14.9183C23.623 14.91 23.6177 14.9029 23.6104 14.8983C23.6004 14.8983 23.6004 14.9033 23.5904 14.8983L23.5804 14.8683L23.5654 14.8783C23.5554 14.8783 23.5554 14.8733 23.5504 14.8633C23.5354 14.8483 23.5304 14.8733 23.5154 14.8683C23.5054 14.8683 23.4954 14.8433 23.4904 14.8333C23.4854 14.8283 23.4754 14.8083 23.4654 14.8133C23.4554 14.8183 23.4654 14.8383 23.4654 14.8483H23.4404C23.4304 14.8483 23.4304 14.8483 23.4254 14.8583C23.4154 14.8783 23.4104 14.8933 23.3904 14.8883C23.3854 14.8883 23.3754 14.8833 23.3704 14.8883L23.3454 14.8983C23.3388 14.8997 23.332 14.8997 23.3254 14.8983L23.3054 14.8783C23.3054 14.877 23.3049 14.8757 23.304 14.8748C23.303 14.8739 23.3017 14.8733 23.3004 14.8733C23.2991 14.8733 23.2978 14.8739 23.2969 14.8748C23.2959 14.8757 23.2954 14.877 23.2954 14.8783C23.2938 14.875 23.2921 14.8716 23.2904 14.8683C23.2804 14.8683 23.2804 14.8683 23.2754 14.8833L23.2704 14.9083L23.2554 14.9283L23.2354 14.9333C23.2254 14.9333 23.2154 14.9483 23.2154 14.9333C23.2054 14.9133 23.2304 14.8783 23.2054 14.8833C23.2004 14.8833 23.1954 14.8833 23.1904 14.8933V14.9283C23.1854 14.9433 23.1554 14.9683 23.1604 14.9783C23.1604 14.9933 23.1804 14.9783 23.1804 14.9783L23.1904 14.9983C23.2004 15.0133 23.2254 14.9783 23.2254 14.9983M23.1204 14.8633V14.8533L23.1004 14.8483C23.0904 14.8483 23.0804 14.8633 23.0754 14.8683C23.0654 14.8883 23.0654 14.9183 23.0454 14.9183H23.0204V14.9683C23.0204 14.9683 23.0104 14.9683 23.0104 14.9783C23.0054 14.9983 23.0204 14.9883 23.0304 14.9883H23.0804L23.1054 14.9833C23.1154 14.9833 23.1254 14.9833 23.1304 14.9733C23.1344 14.967 23.1378 14.9603 23.1404 14.9533V14.9333C23.1404 14.9233 23.1554 14.9283 23.1554 14.9133C23.1604 14.8783 23.1254 14.9033 23.1304 14.8683" fill="#964B36"/>
<path d="M23.2254 14.9833H23.2554V14.9933C23.2569 14.9942 23.2586 14.9947 23.2604 14.9947C23.2622 14.9947 23.2639 14.9942 23.2654 14.9933L23.2804 15.0033H23.2954L23.3154 15.0083C23.3254 15.0133 23.3354 15.0083 23.3454 15.0033C23.3554 14.9933 23.3604 15.0033 23.3754 15.0133C23.3804 15.0183 23.3804 15.0183 23.3854 15.0133L23.3904 15.0083L23.4054 15.0033L23.4204 14.9983L23.4404 14.9883L23.4604 14.9983C23.4637 14.9979 23.4671 14.9979 23.4704 14.9983L23.5054 14.9733C23.5204 14.9633 23.5304 14.9733 23.5404 14.9733H23.5554C23.5604 14.9683 23.5654 14.9733 23.5754 14.9733C23.5754 14.9683 23.5754 14.9633 23.5854 14.9583L23.6204 14.9783C23.6254 14.9833 23.6554 14.9883 23.6504 14.9683C23.6504 14.9483 23.6304 14.9633 23.6254 14.9483V14.9183C23.623 14.91 23.6177 14.9029 23.6104 14.8983C23.6004 14.8983 23.6004 14.9033 23.5904 14.8983L23.5804 14.8683L23.5654 14.8783C23.5554 14.8783 23.5554 14.8733 23.5504 14.8633C23.5354 14.8483 23.5304 14.8733 23.5154 14.8683C23.5054 14.8683 23.4954 14.8433 23.4904 14.8333C23.4854 14.8283 23.4754 14.8083 23.4654 14.8133C23.4554 14.8183 23.4654 14.8383 23.4654 14.8483H23.4404C23.4304 14.8483 23.4304 14.8483 23.4254 14.8583C23.4154 14.8783 23.4104 14.8933 23.3904 14.8883C23.3854 14.8883 23.3754 14.8833 23.3704 14.8883L23.3454 14.8983C23.3388 14.8997 23.332 14.8997 23.3254 14.8983L23.3054 14.8783C23.3054 14.877 23.3049 14.8757 23.304 14.8748C23.303 14.8739 23.3017 14.8733 23.3004 14.8733C23.2991 14.8733 23.2978 14.8739 23.2969 14.8748C23.2959 14.8757 23.2954 14.877 23.2954 14.8783C23.2938 14.875 23.2921 14.8716 23.2904 14.8683C23.2804 14.8683 23.2804 14.8683 23.2754 14.8833L23.2704 14.9083L23.2554 14.9283L23.2354 14.9333C23.2254 14.9333 23.2154 14.9483 23.2154 14.9333C23.2054 14.9133 23.2304 14.8783 23.2054 14.8833C23.2004 14.8833 23.1954 14.8833 23.1904 14.8933V14.9283C23.1854 14.9433 23.1554 14.9683 23.1604 14.9783C23.1604 14.9933 23.1804 14.9783 23.1804 14.9783L23.1904 14.9983C23.2004 15.0133 23.2254 14.9783 23.2254 14.9983M23.1204 14.8633V14.8533L23.1004 14.8483C23.0904 14.8483 23.0804 14.8633 23.0754 14.8683C23.0654 14.8883 23.0654 14.9183 23.0454 14.9183H23.0204V14.9683C23.0204 14.9683 23.0104 14.9683 23.0104 14.9783C23.0054 14.9983 23.0204 14.9883 23.0304 14.9883H23.0804L23.1054 14.9833C23.1154 14.9833 23.1254 14.9833 23.1304 14.9733C23.1344 14.967 23.1378 14.9603 23.1404 14.9533V14.9333C23.1404 14.9233 23.1554 14.9283 23.1554 14.9133C23.1604 14.8783 23.1254 14.9033 23.1304 14.8683" stroke="black" stroke-width="0.0375" stroke-miterlimit="4.8"/>
<path d="M23.54 13.8941C23.54 13.9391 23.51 13.9741 23.47 13.9741C23.435 13.9741 23.4 13.9391 23.4 13.8941C23.4 13.8491 23.435 13.8141 23.47 13.8141C23.51 13.8141 23.54 13.8491 23.54 13.8941ZM23.315 13.7941C23.315 13.8391 23.285 13.8741 23.245 13.8741C23.205 13.8741 23.175 13.8391 23.175 13.7941C23.175 13.7441 23.21 13.7141 23.245 13.7141C23.28 13.7141 23.315 13.7491 23.315 13.7941Z" fill="black" stroke="black" stroke-width="0.0625" stroke-miterlimit="4.8"/>
<path d="M23.4353 13.8237C23.4353 13.8737 23.4053 13.9037 23.3653 13.9037C23.3253 13.9037 23.2953 13.8687 23.2953 13.8237C23.2953 13.7787 23.3253 13.7437 23.3653 13.7437C23.4053 13.7437 23.4353 13.7787 23.4353 13.8237Z" fill="black" stroke="black" stroke-width="0.0625" stroke-miterlimit="4.8"/>
<path d="M23.3197 13.8988C23.3197 13.9438 23.2897 13.9788 23.2497 13.9788C23.2097 13.9788 23.1797 13.9438 23.1797 13.8988C23.1797 13.8538 23.2097 13.8188 23.2497 13.8188C23.2897 13.8188 23.3197 13.8538 23.3197 13.8988Z" fill="black" stroke="black" stroke-width="0.0625" stroke-miterlimit="4.8"/>
<path d="M23.4244 13.9646C23.4244 14.0046 23.3944 14.0446 23.3544 14.0446C23.3194 14.0446 23.2844 14.0096 23.2844 13.9646C23.2844 13.9146 23.3194 13.8796 23.3544 13.8796C23.3944 13.8796 23.4244 13.9146 23.4244 13.9596V13.9646Z" fill="black" stroke="black" stroke-width="0.0625" stroke-miterlimit="4.8"/>
<path d="M23.46 13.0738C23.46 13.0738 24.155 12.1038 24.9 13.1088C24.9 13.1088 24.905 13.2088 24.835 13.3188L24.82 13.2338L24.77 13.2488L24.76 13.1988L24.68 13.1938L24.705 13.0838L24.62 13.1538L24.63 13.0788L24.53 13.1788L24.545 12.9638L24.435 13.1488L24.45 13.0238L24.41 13.0788L24.39 13.0038L24.355 13.0788L24.305 13.0438V13.0938L24.215 13.0188L24.185 13.1188L24.14 13.0088L24.13 13.0838L24.085 12.9988L24.08 13.0938L23.935 13.0288L23.965 13.1188L23.9 13.0688L23.91 13.1188L23.815 13.0988L23.825 13.1538L23.725 13.1338L23.74 13.1838L23.605 13.1688L23.655 13.2188L23.64 13.2488C23.64 13.2488 24.39 12.9988 24.44 13.9388L24.305 14.0038L24.345 13.9288L24.305 13.9038L24.19 13.8188L24.225 13.6988L24.185 13.7138L24.18 13.6438L24.16 13.6538L24.115 13.5888L24.105 13.6138L24.075 13.5288L24.04 13.5888L24.025 13.4488L23.975 13.5388L23.965 13.4888L23.95 13.5188L23.885 13.4438L23.865 13.4938L23.84 13.4538L23.825 13.5038L23.755 13.4338V13.4838L23.705 13.4488L23.69 13.4738L23.585 13.4188L23.58 13.4688L23.52 13.4188L23.505 13.4688C23.505 13.4688 24.185 13.8588 23.975 14.4888L23.935 14.5688L23.925 14.3588L23.86 14.4688L23.905 14.2238L23.86 14.2738L23.855 14.1738L23.8 14.2738L23.78 14.1638L23.755 14.1938L23.715 14.0338L23.685 14.0988L23.635 13.9188L23.595 13.9938L23.57 13.8388L23.545 13.9338L23.47 13.7938L23.46 13.8488L23.415 13.7388L23.39 13.7738C23.39 13.7738 23.265 13.7688 23.225 13.7388C23.19 13.7038 23.085 13.9238 23.085 13.9238L23.095 13.7938L23.05 13.8838V13.7938L22.97 14.0588L22.95 13.8688L22.91 14.0338L22.89 13.9838L22.875 14.0488L22.85 14.0238L22.83 14.0988L22.79 14.0688V14.1688L22.75 14.1188L22.72 14.2688L22.7 14.2088V14.2738L22.67 14.2388L22.64 14.3888L22.59 14.3238V14.4338L22.605 14.5138L22.555 14.4888L22.575 14.6188C22.575 14.6188 22.38 14.2588 22.615 13.9088C22.845 13.5588 23.16 13.4588 23.16 13.4588L23.125 13.4288V13.3988L22.935 13.4938V13.4388L22.885 13.4788L22.875 13.4188L22.845 13.4738L22.84 13.4488L22.79 13.5188L22.77 13.4188L22.74 13.5388L22.71 13.4538L22.645 13.6288V13.4988L22.595 13.6388L22.575 13.4888L22.54 13.6588V13.5088L22.48 13.6588L22.445 13.5088L22.42 13.6588L22.38 13.5438L22.345 13.7138L22.285 13.5638L22.255 13.7888L22.22 13.6988L22.21 13.8638L22.17 13.7638L22.21 13.9738L22.16 13.8938L22.175 14.0238L22.095 13.8788V14.0488L22.055 13.9938L22.035 14.0588C22.035 14.0588 22.02 13.4088 22.465 13.2788C22.91 13.1538 23.195 13.3188 23.195 13.3188L23.025 13.1788L23.045 13.1338H22.985L23.01 13.0838L22.875 13.0888L22.915 13.0388L22.815 13.0538V13.0238L22.75 13.0738L22.775 13.0138L22.69 13.0738L22.685 12.9888L22.635 13.0588L22.615 12.9838L22.415 13.1838L22.465 12.9788L22.43 13.0238L22.425 12.9738L22.37 13.0638L22.355 13.0038L22.33 13.0788L22.31 12.9888L22.27 13.0788L22.22 12.9988L22.205 13.1038L22.175 13.0488L22.135 13.1288L22.085 13.0788V13.1288L21.985 13.0838L22.005 13.1588L21.93 13.0988L21.91 13.1988L21.87 13.1488L21.835 13.2738L21.805 13.1538L21.775 13.2488C21.775 13.2488 22.165 12.2388 23.155 12.8988C23.155 12.8988 23.265 13.0038 23.29 13.0788C23.315 13.1538 23.295 13.0888 23.295 13.0888L23.275 12.3938L23.315 12.6938L23.34 12.5938L23.335 12.7438L23.435 12.5288C23.435 12.5288 23.315 12.8888 23.36 13.0238C23.36 13.0238 23.405 12.6038 23.555 12.5538L23.415 12.8538L23.46 12.8488L23.43 12.9088H23.465L23.42 13.0088L23.395 13.0588L23.42 13.1088L23.46 13.0738Z" fill="#00A651" stroke="black" stroke-width="0.0625" stroke-miterlimit="4.8"/>
<path d="M23.3553 13.4799L23.3753 13.4999C23.3753 13.4999 23.4403 13.4299 23.5453 13.5199L23.5603 13.4999C23.4353 13.3949 23.3603 13.4799 23.3603 13.4799H23.3553ZM23.3253 13.1399V13.1649L23.3703 13.1449L23.3353 13.2049L23.4103 13.1799L23.3203 13.2949L23.3403 13.3099L23.4853 13.1249L23.3953 13.1549L23.4353 13.0899L23.3553 13.1199L23.3703 13.0249H23.3453L23.3253 13.1399Z" fill="black"/>
<path d="M23.195 13.1494L23.225 13.2144L23.175 13.1944L23.32 13.4544L23.34 13.4294L23.31 13.5044L23.335 13.5144L23.395 13.3544L23.375 13.3394L23.325 13.4044L23.235 13.2494L23.275 13.2644L23.235 13.1794L23.29 13.2094V13.1144H23.265V13.1644L23.175 13.1094L23.195 13.1494ZM23.1 13.4694L23.11 13.4944C23.15 13.4794 23.185 13.4744 23.21 13.4844C23.235 13.4994 23.245 13.5294 23.245 13.5344L23.27 13.5244C23.27 13.5244 23.26 13.4794 23.22 13.4644C23.19 13.4494 23.15 13.4494 23.1 13.4694ZM23.215 13.7394L23.19 13.5994H23.22L23.24 13.7344L23.215 13.7394ZM23.405 13.7194L23.37 13.6094L23.395 13.6044L23.43 13.7044L23.405 13.7194ZM23.475 13.7944L23.45 13.6894L23.475 13.6844L23.505 13.7894L23.475 13.7944Z" fill="black"/>
<path d="M18.1303 17.01C18.1303 17.01 18.0103 16.96 17.9553 17C17.9053 17.035 17.9103 17.095 17.8653 17.09C17.8653 17.09 18.0453 17.13 18.0803 17.085L18.1303 17.025M18.1503 17.06C18.1503 17.06 18.0703 17.16 18.1003 17.225C18.1253 17.285 18.1853 17.29 18.1703 17.335C18.1703 17.335 18.2453 17.17 18.2103 17.12C18.1753 17.07 18.1603 17.065 18.1603 17.065M18.0203 16.775C18.0203 16.775 17.8953 16.815 17.8803 16.875C17.8703 16.945 17.9103 16.98 17.8753 17.01C17.8753 17.01 18.0353 16.92 18.0303 16.86V16.785M18.0903 16.82C18.0903 16.82 18.1503 16.705 18.1153 16.65C18.0753 16.59 18.0153 16.6 18.0253 16.55C18.0253 16.55 17.9753 16.725 18.0253 16.77L18.0803 16.82M17.9703 16.775C17.9703 16.775 17.9703 16.645 17.9203 16.615C17.8603 16.58 17.8103 16.61 17.7953 16.565C17.7953 16.565 17.8303 16.745 17.8853 16.765L17.9603 16.78M18.1803 16.99C18.1803 16.99 18.3153 16.94 18.3303 17.09C18.3403 17.24 18.3203 17.19 18.3203 17.19C18.3203 17.19 18.2503 17.03 18.1703 17.005L18.1803 16.99Z" fill="#00A651"/>
<path d="M18.1303 17.01C18.1303 17.01 18.0103 16.96 17.9553 17C17.9053 17.035 17.9103 17.095 17.8653 17.09C17.8653 17.09 18.0453 17.13 18.0803 17.085L18.1303 17.025M18.1503 17.06C18.1503 17.06 18.0703 17.16 18.1003 17.225C18.1253 17.285 18.1853 17.29 18.1703 17.335C18.1703 17.335 18.2453 17.17 18.2103 17.12C18.1753 17.07 18.1603 17.065 18.1603 17.065M18.0203 16.775C18.0203 16.775 17.8953 16.815 17.8803 16.875C17.8703 16.945 17.9103 16.98 17.8753 17.01C17.8753 17.01 18.0353 16.92 18.0303 16.86V16.785M18.0903 16.82C18.0903 16.82 18.1503 16.705 18.1153 16.65C18.0753 16.59 18.0153 16.6 18.0253 16.55C18.0253 16.55 17.9753 16.725 18.0253 16.77L18.0803 16.82M17.9703 16.775C17.9703 16.775 17.9703 16.645 17.9203 16.615C17.8603 16.58 17.8103 16.61 17.7953 16.565C17.7953 16.565 17.8303 16.745 17.8853 16.765L17.9603 16.78M18.1803 16.99C18.1803 16.99 18.3153 16.94 18.3303 17.09C18.3403 17.24 18.3203 17.19 18.3203 17.19C18.3203 17.19 18.2503 17.03 18.1703 17.005L18.1803 16.99Z" stroke="black" stroke-width="0.0625" stroke-miterlimit="4.8"/>
<path d="M18.1503 17.0638L18.1603 17.1738H18.1803L18.1653 17.0638L18.2153 16.8188H18.1953L18.1453 17.0638H18.1503Z" fill="black"/>
<path d="M18.0253 17.0295L18.0203 17.0445C18.0853 17.0695 18.1703 16.9945 18.1753 16.9945L18.1653 16.9795C18.1653 16.9795 18.0803 17.0445 18.0253 17.0295ZM18.1953 16.8845L17.8953 16.7345L17.9053 16.7095L18.2053 16.8595L18.1953 16.8845Z" fill="black"/>
<path d="M17.9762 16.8487L17.9562 16.8287L18.0162 16.7687L18.0362 16.7887L17.9762 16.8487ZM18.0812 16.8187L18.0162 16.6787L18.0412 16.6687L18.1062 16.8087L18.0812 16.8187ZM18.1712 16.9887V17.0187C18.2562 17.0137 18.2712 17.0687 18.2712 17.0687L18.3012 17.0587C18.3012 17.0437 18.2662 16.9837 18.1712 16.9887Z" fill="black"/>
<path d="M19.5612 17.0501C19.6612 17.0001 19.6812 16.8001 19.6812 16.8001C19.6562 16.8701 19.4712 16.9451 19.4712 16.9451C19.6062 16.8601 19.7712 16.4751 19.7712 16.4751C19.7312 16.6101 19.3712 16.7251 19.1412 16.8551C18.9112 16.9851 19.0312 17.3551 19.0312 17.3551C18.9662 17.3101 18.8412 17.1151 18.8162 16.9401C18.7912 16.7651 18.7262 16.6951 18.5662 16.6751C18.4112 16.6551 18.3162 16.8351 18.3162 16.8351L18.0812 16.9551L18.3212 16.9651C18.3212 16.9651 18.4912 17.0201 18.4912 17.1551C18.4912 17.2851 18.3412 17.8201 18.5912 18.1201C18.7562 18.3251 19.3912 18.4451 19.3912 18.4451" fill="white"/>
<path d="M19.5612 17.0501C19.6612 17.0001 19.6812 16.8001 19.6812 16.8001C19.6562 16.8701 19.4712 16.9451 19.4712 16.9451C19.6062 16.8601 19.7712 16.4751 19.7712 16.4751C19.7312 16.6101 19.3712 16.7251 19.1412 16.8551C18.9112 16.9851 19.0312 17.3551 19.0312 17.3551C18.9662 17.3101 18.8412 17.1151 18.8162 16.9401C18.7912 16.7651 18.7262 16.6951 18.5662 16.6751C18.4112 16.6551 18.3162 16.8351 18.3162 16.8351L18.0812 16.9551L18.3212 16.9651C18.3212 16.9651 18.4912 17.0201 18.4912 17.1551C18.4912 17.2851 18.3412 17.8201 18.5912 18.1201C18.7562 18.3251 19.3912 18.4451 19.3912 18.4451" stroke="black" stroke-width="0.0875" stroke-miterlimit="4.8"/>
<path d="M19.0953 17.4642C19.0953 17.4642 19.1453 17.2242 19.3003 17.2342C19.4553 17.2442 19.5003 17.0542 19.5953 17.0292C19.6903 16.9992 20.1703 16.8692 20.2203 16.6392C20.2203 16.6392 20.1753 17.0192 19.7353 17.2092C19.7353 17.2092 20.0903 17.0942 20.1353 17.0142C20.1353 17.0142 19.9753 17.3542 19.5903 17.4092C19.5903 17.4092 19.9503 17.3792 20.0003 17.2842C20.0003 17.2842 19.8403 17.4942 19.5753 17.5242C19.5753 17.5242 19.8253 17.6242 19.8853 17.5392C19.8853 17.5392 19.7503 17.6992 19.5853 17.7092L19.6353 17.7192C19.6353 17.7192 19.4753 17.9092 19.3003 17.7842C19.1253 17.6592 19.1203 17.8142 19.1203 17.8142" fill="white"/>
<path d="M19.0953 17.4642C19.0953 17.4642 19.1453 17.2242 19.3003 17.2342C19.4553 17.2442 19.5003 17.0542 19.5953 17.0292C19.6903 16.9992 20.1703 16.8692 20.2203 16.6392C20.2203 16.6392 20.1753 17.0192 19.7353 17.2092C19.7353 17.2092 20.0903 17.0942 20.1353 17.0142C20.1353 17.0142 19.9753 17.3542 19.5903 17.4092C19.5903 17.4092 19.9503 17.3792 20.0003 17.2842C20.0003 17.2842 19.8403 17.4942 19.5753 17.5242C19.5753 17.5242 19.8253 17.6242 19.8853 17.5392C19.8853 17.5392 19.7503 17.6992 19.5853 17.7092L19.6353 17.7192C19.6353 17.7192 19.4753 17.9092 19.3003 17.7842C19.1253 17.6592 19.1203 17.8142 19.1203 17.8142" stroke="black" stroke-width="0.0875" stroke-miterlimit="4.8"/>
<path d="M19.4507 17.825C19.4507 17.825 19.6557 18.165 19.6757 18.345C19.6757 18.345 20.0657 18.77 20.2107 18.795C20.2107 18.795 20.1407 18.825 20.0107 18.72C20.0107 18.72 20.1207 18.83 20.1407 18.835C20.1607 18.835 20.0557 18.825 20.0407 18.795C20.0595 18.8238 20.0832 18.8492 20.1107 18.87L20.0857 18.86C20.0857 18.86 20.0357 18.855 20.0057 18.835C19.9807 18.815 20.0007 18.885 20.0007 18.885C20.0007 18.885 19.9407 18.87 19.9207 18.85C19.9007 18.83 19.9257 18.895 19.9257 18.895L19.8757 18.88L19.8357 18.905C19.8357 18.905 19.8357 18.93 19.8107 18.905C19.7857 18.89 19.7407 18.905 19.7407 18.905C19.7407 18.905 19.7107 18.935 19.6907 18.915C19.6757 18.895 19.6157 18.995 19.6157 18.995L19.3657 18.38" fill="white"/>
<path d="M19.4507 17.825C19.4507 17.825 19.6557 18.165 19.6757 18.345C19.6757 18.345 20.0657 18.77 20.2107 18.795C20.2107 18.795 20.1407 18.825 20.0107 18.72C20.0107 18.72 20.1207 18.83 20.1407 18.835C20.1607 18.835 20.0557 18.825 20.0407 18.795C20.0595 18.8238 20.0832 18.8492 20.1107 18.87L20.0857 18.86C20.0857 18.86 20.0357 18.855 20.0057 18.835C19.9807 18.815 20.0007 18.885 20.0007 18.885C20.0007 18.885 19.9407 18.87 19.9207 18.85C19.9007 18.83 19.9257 18.895 19.9257 18.895L19.8757 18.88L19.8357 18.905C19.8357 18.905 19.8357 18.93 19.8107 18.905C19.7857 18.89 19.7407 18.905 19.7407 18.905C19.7407 18.905 19.7107 18.935 19.6907 18.915C19.6757 18.895 19.6157 18.995 19.6157 18.995L19.3657 18.38" stroke="black" stroke-width="0.0875" stroke-miterlimit="4.8"/>
<path d="M19.695 18.9351L19.375 18.3251L19.405 18.3051L19.725 18.9201L19.695 18.9351ZM19.975 18.8951L19.425 18.2801L19.455 18.2551L20.005 18.8701L19.975 18.8951ZM20.1 18.8451L19.475 18.2501L19.5 18.2251L20.125 18.8101L20.1 18.8451Z" fill="black"/>
<path d="M18.5274 16.8693C18.5274 16.8693 18.4875 16.7961 18.451 16.826C18.4177 16.8526 18.3978 16.8593 18.3911 16.8559C18.3911 16.8559 18.4244 16.8559 18.4476 16.8393C18.4676 16.8194 18.5008 16.8294 18.5274 16.8726V16.8693ZM18.308 16.836L18.3313 16.8825L18.3047 16.959L18.3246 16.9657L18.3479 16.8825L18.3246 16.8294L18.308 16.836Z" fill="black"/>
<path d="M18.521 16.8594C18.521 16.8594 18.4878 16.8926 18.4479 16.886L18.4047 16.876H18.4645C18.4878 16.876 18.5177 16.8661 18.521 16.8594Z" fill="black"/>
<path d="M18.5103 16.866C18.5103 16.866 18.4704 16.8261 18.4438 16.8394C18.4438 16.8394 18.4903 16.8228 18.5169 16.8626L18.5103 16.866Z" fill="black"/>
<path d="M18.504 16.8597C18.504 16.8597 18.4608 16.8896 18.4143 16.8597L18.4109 16.853H18.4176C18.4176 16.853 18.4741 16.8763 18.504 16.8597Z" fill="black"/>
<path d="M18.468 16.8657C18.4753 16.8657 18.4813 16.8598 18.4813 16.8524C18.4813 16.845 18.4753 16.8391 18.468 16.8391C18.4606 16.8391 18.4547 16.845 18.4547 16.8524C18.4547 16.8598 18.4606 16.8657 18.468 16.8657Z" fill="black"/>
<path d="M18.5008 17.9797C18.5008 17.9797 18.4659 18.0397 18.4859 18.0797C18.5009 18.1147 18.5858 18.1297 18.5908 18.1797C18.6008 18.2297 18.6308 18.2297 18.6658 18.2297L18.7109 18.2147C18.7109 18.2147 18.5559 18.1347 18.5109 17.9997L18.5008 17.9797Z" fill="black"/>
<path d="M23.4705 16.7391C23.4705 16.7391 23.7505 16.3691 24.0005 16.4641C24.2505 16.5641 24.4055 16.6141 24.4055 16.6141C24.4055 16.6141 24.4105 16.8591 24.2805 16.8591C24.1505 16.8591 24.0205 16.6091 23.9005 16.6841C23.8098 16.735 23.7326 16.8071 23.6755 16.8941C23.6705 16.9291 23.3605 16.9341 23.4705 16.7391Z" fill="#964B36" stroke="black" stroke-width="0.0375" stroke-miterlimit="4.8"/>
<path d="M22.4101 18.5184C22.4101 18.5184 22.3301 18.5984 22.3651 18.6184C22.4001 18.6384 22.4701 18.6184 22.4701 18.5884C22.4701 18.5584 22.4201 18.5084 22.4101 18.5184Z" fill="#964B36" stroke="black" stroke-width="0.0625" stroke-miterlimit="4.8"/>
<path d="M22.3498 18.5997C22.3498 18.5997 22.1998 18.5147 22.0898 18.7097C21.9748 18.8997 21.8848 19.2147 21.8198 19.2597C21.7548 19.2997 22.4598 18.9497 22.4698 18.7997C22.4698 18.7997 22.5148 18.6097 22.4398 18.6147C22.3648 18.6147 22.3598 18.6247 22.3448 18.5947L22.3498 18.5997Z" fill="#964B36" stroke="black" stroke-width="0.0625" stroke-miterlimit="4.8"/>
<path d="M22.3644 18.6194C22.3644 18.6194 22.2144 18.6544 22.1844 18.8644C22.1544 19.0744 21.9494 19.1794 21.9344 19.1894M24.4044 16.6094C24.4044 16.6094 24.1844 16.6894 24.2194 16.8444L24.4044 16.6094Z" fill="#964B36"/>
<path d="M22.3644 18.6194C22.3644 18.6194 22.2144 18.6544 22.1844 18.8644C22.1544 19.0744 21.9494 19.1794 21.9344 19.1894M24.4044 16.6094C24.4044 16.6094 24.1844 16.6894 24.2194 16.8444" stroke="black" stroke-width="0.0375" stroke-miterlimit="4.8"/>
<path d="M22.6859 17.0638C22.6859 17.0638 22.6959 16.5338 23.1309 16.5538C23.2109 16.5638 23.1709 16.6588 23.1709 16.6588C23.1709 16.6588 23.2709 16.5938 23.3109 16.6988C23.3109 16.6988 23.4459 16.6388 23.4609 16.7738C23.4609 16.7738 23.6109 16.7538 23.5909 16.8738C23.5909 16.8738 23.6909 16.8488 23.6909 16.9338C23.6909 16.9338 23.8059 16.8888 23.7909 17.0088C23.7909 17.0088 23.9209 16.9238 23.9059 17.0788C23.9059 17.0788 24.0359 16.9838 24.0809 17.1388C24.1309 17.2988 23.9509 17.6288 23.7759 17.7138" fill="#FFF200"/>
<path d="M22.6859 17.0638C22.6859 17.0638 22.6959 16.5338 23.1309 16.5538C23.2109 16.5638 23.1709 16.6588 23.1709 16.6588C23.1709 16.6588 23.2709 16.5938 23.3109 16.6988C23.3109 16.6988 23.4459 16.6388 23.4609 16.7738C23.4609 16.7738 23.6109 16.7538 23.5909 16.8738C23.5909 16.8738 23.6909 16.8488 23.6909 16.9338C23.6909 16.9338 23.8059 16.8888 23.7909 17.0088C23.7909 17.0088 23.9209 16.9238 23.9059 17.0788C23.9059 17.0788 24.0359 16.9838 24.0809 17.1388C24.1309 17.2988 23.9509 17.6288 23.7759 17.7138" stroke="black" stroke-width="0.0375" stroke-miterlimit="4.8"/>
<path d="M23.895 17.0998C23.895 17.0998 23.95 17.5098 23.72 17.6648L23.725 17.6748C23.97 17.5248 23.91 17.0998 23.91 17.0948H23.895V17.0998ZM23.61 17.5498L23.62 17.5598C23.77 17.4148 23.805 17.0298 23.805 17.0098H23.79C23.79 17.0098 23.755 17.4098 23.61 17.5498ZM23.475 17.4548H23.49C23.5205 17.2704 23.5905 17.0947 23.695 16.9398L23.685 16.9348C23.685 16.9348 23.495 17.2098 23.475 17.4548ZM23.365 17.3848H23.38C23.405 17.0998 23.6 16.8848 23.6 16.8798L23.59 16.8698C23.59 16.8698 23.39 17.0948 23.365 17.3848ZM23.215 17.2848H23.23C23.245 16.9498 23.47 16.7848 23.47 16.7848L23.46 16.7698C23.46 16.7698 23.23 16.9398 23.21 17.2898L23.215 17.2848ZM23.075 17.2048H23.09C23.08 16.8948 23.315 16.7048 23.32 16.7048L23.31 16.6948C23.31 16.6948 23.06 16.8848 23.075 17.2048ZM22.825 17.0898H22.84C22.8517 16.995 22.8897 16.9053 22.9498 16.8311C23.0099 16.7568 23.0897 16.7009 23.18 16.6698V16.6548C23.0857 16.6863 23.0023 16.7438 22.9395 16.8209C22.8766 16.8979 22.8369 16.9911 22.825 17.0898Z" fill="black"/>
<path d="M22.4304 17.7098C22.4304 17.7098 22.3554 17.2148 22.6504 17.0598C22.6504 17.0598 22.7054 17.0498 22.7354 17.1198C22.7354 17.1198 22.8904 17.0548 22.8954 17.1848C22.8954 17.1848 22.9754 17.1248 22.9954 17.2098C22.9954 17.2098 23.1604 17.1748 23.1304 17.2998C23.1304 17.2998 23.2704 17.2598 23.2554 17.3798C23.2554 17.3798 23.3954 17.3298 23.3754 17.4298C23.3754 17.4298 23.5254 17.3998 23.4854 17.5198C23.4854 17.5198 23.6704 17.4998 23.6154 17.6248C23.6154 17.6248 23.7504 17.5898 23.7154 17.6948C23.7154 17.6948 23.8954 17.7298 23.8154 17.8448C23.6843 18.0011 23.5157 18.1215 23.3254 18.1948" fill="#00A651"/>
<path d="M22.4304 17.7098C22.4304 17.7098 22.3554 17.2148 22.6504 17.0598C22.6504 17.0598 22.7054 17.0498 22.7354 17.1198C22.7354 17.1198 22.8904 17.0548 22.8954 17.1848C22.8954 17.1848 22.9754 17.1248 22.9954 17.2098C22.9954 17.2098 23.1604 17.1748 23.1304 17.2998C23.1304 17.2998 23.2704 17.2598 23.2554 17.3798C23.2554 17.3798 23.3954 17.3298 23.3754 17.4298C23.3754 17.4298 23.5254 17.3998 23.4854 17.5198C23.4854 17.5198 23.6704 17.4998 23.6154 17.6248C23.6154 17.6248 23.7504 17.5898 23.7154 17.6948C23.7154 17.6948 23.8954 17.7298 23.8154 17.8448C23.6843 18.0011 23.5157 18.1215 23.3254 18.1948" stroke="black" stroke-width="0.0375" stroke-miterlimit="4.8"/>
<path d="M22.2704 18.2036C22.2704 18.2036 22.1504 17.7936 22.3804 17.6886C22.3804 17.6886 22.4254 17.6786 22.4304 17.7186C22.4304 17.7186 22.4804 17.6536 22.5204 17.7136C22.5204 17.7136 22.6354 17.6586 22.6654 17.7436C22.6654 17.7436 22.7404 17.6786 22.7804 17.7736C22.7804 17.7736 22.8554 17.7436 22.8554 17.8236C22.8554 17.8236 22.9554 17.7736 22.9554 17.8736C22.9554 17.8736 23.0554 17.8336 23.0304 17.9336C23.0304 17.9336 23.1804 17.9586 23.1354 18.0286C23.1354 18.0286 23.2704 18.0636 23.2204 18.1186C23.2204 18.1186 23.3604 18.1036 23.2854 18.1986C23.2854 18.1986 23.3954 18.1636 23.3354 18.2836C23.2704 18.4036 23.0754 18.5336 22.9354 18.5536" fill="#00A651"/>
<path d="M22.2704 18.2036C22.2704 18.2036 22.1504 17.7936 22.3804 17.6886C22.3804 17.6886 22.4254 17.6786 22.4304 17.7186C22.4304 17.7186 22.4804 17.6536 22.5204 17.7136C22.5204 17.7136 22.6354 17.6586 22.6654 17.7436C22.6654 17.7436 22.7404 17.6786 22.7804 17.7736C22.7804 17.7736 22.8554 17.7436 22.8554 17.8236C22.8554 17.8236 22.9554 17.7736 22.9554 17.8736C22.9554 17.8736 23.0554 17.8336 23.0304 17.9336C23.0304 17.9336 23.1804 17.9586 23.1354 18.0286C23.1354 18.0286 23.2704 18.0636 23.2204 18.1186C23.2204 18.1186 23.3604 18.1036 23.2854 18.1986C23.2854 18.1986 23.3954 18.1636 23.3354 18.2836C23.2704 18.4036 23.0754 18.5336 22.9354 18.5536" stroke="black" stroke-width="0.0375" stroke-miterlimit="4.8"/>
<path d="M22.4156 18.5295C22.4156 18.5295 22.1606 18.2795 22.2806 18.2095C22.2806 18.2095 22.3306 18.2245 22.3556 18.2795C22.3556 18.2795 22.4156 18.1895 22.4556 18.2795C22.4556 18.2795 22.5456 18.2495 22.5456 18.3145L22.6156 18.3645C22.6156 18.3645 22.7006 18.3595 22.6856 18.4145C22.6856 18.4145 22.7806 18.3995 22.7756 18.4495C22.7756 18.4495 22.8556 18.4545 22.8506 18.5095C22.8506 18.5095 22.9906 18.5345 22.9256 18.6045C22.9256 18.6045 22.6856 18.6545 22.5106 18.5845C22.5106 18.5845 22.4256 18.5545 22.4156 18.5295Z" fill="#00A651" stroke="black" stroke-width="0.0375" stroke-miterlimit="4.8"/>
<path d="M23.2959 18.119V18.134C23.463 18.0146 23.6084 17.8675 23.7259 17.699L23.7109 17.689C23.7109 17.694 23.4409 18.064 23.2959 18.119ZM23.2059 18.054L23.2159 18.069C23.3459 17.994 23.6109 17.644 23.6159 17.629L23.6109 17.619C23.6059 17.624 23.3359 17.979 23.2109 18.054H23.2059ZM23.1309 18.024L23.1409 18.034C23.2794 17.8783 23.3971 17.7051 23.4909 17.519L23.4809 17.514C23.4809 17.514 23.2709 17.909 23.1309 18.024ZM23.0659 17.934H23.0809C23.1059 17.744 23.3809 17.439 23.3809 17.434L23.3659 17.429C23.3559 17.439 23.0909 17.739 23.0659 17.934ZM22.5209 17.699H22.5359C22.5159 17.424 22.7409 17.124 22.7459 17.124L22.7309 17.114C22.7309 17.114 22.4959 17.424 22.5209 17.699ZM22.6659 17.724H22.6809C22.6409 17.504 22.9009 17.194 22.9009 17.189L22.8909 17.179C22.8809 17.194 22.6259 17.499 22.6659 17.724ZM22.8859 17.804H22.9009C22.8909 17.554 23.1309 17.304 23.1359 17.304L23.1259 17.289C23.1259 17.294 22.8759 17.549 22.8859 17.804ZM22.3609 18.254H22.3759C22.2859 18.019 22.4359 17.724 22.4409 17.724L22.4259 17.714C22.4259 17.714 22.2709 18.019 22.3609 18.259V18.254ZM22.4609 18.274L22.4759 18.269C22.3959 18.034 22.5259 17.719 22.5259 17.719L22.5159 17.709C22.5159 17.709 22.3809 18.034 22.4609 18.274ZM22.8759 18.509V18.519C23.1259 18.434 23.2909 18.204 23.2909 18.204L23.2759 18.194C23.2759 18.194 23.1159 18.419 22.8759 18.509ZM22.8259 18.454V18.469C23.0259 18.379 23.2109 18.129 23.2109 18.129L23.2009 18.119C23.2009 18.119 23.0159 18.369 22.8259 18.454ZM22.7759 18.434L22.7859 18.449C22.9359 18.334 23.1359 18.049 23.1359 18.049L23.1259 18.039C23.1259 18.039 22.9259 18.324 22.7759 18.434ZM22.5259 18.289H22.5459C22.5376 18.0994 22.5808 17.911 22.6709 17.744L22.6559 17.739C22.6559 17.739 22.4959 18.039 22.5309 18.289H22.5259ZM22.6359 18.359L22.6459 18.369C22.8059 18.224 22.8609 17.839 22.8609 17.819H22.8459C22.8459 17.819 22.7959 18.219 22.6359 18.359ZM22.7459 18.399L22.7559 18.414C22.9013 18.2919 23.0016 18.1247 23.0409 17.939H23.0259C23.0259 17.939 22.9659 18.239 22.7459 18.404V18.399ZM22.7709 17.729V17.774L22.6009 18.324L22.6159 18.329L22.7859 17.779C22.7609 17.509 22.9959 17.214 23.0009 17.214L22.9859 17.204C22.9859 17.204 22.7709 17.469 22.7709 17.729Z" fill="black"/>
<path d="M22.9503 17.865C22.9503 17.875 22.8953 18.25 22.6903 18.39L22.7003 18.405C22.9103 18.26 22.9603 17.89 22.9603 17.87C23.0503 17.765 23.2603 17.385 23.2603 17.385L23.2503 17.375C23.2503 17.375 23.0403 17.755 22.9503 17.865ZM22.3503 18.28C22.3503 18.285 22.3803 18.48 22.4203 18.54L22.4353 18.535C22.3953 18.47 22.3603 18.28 22.3603 18.275L22.3453 18.28H22.3503ZM22.4453 18.28L22.4403 18.545H22.4553V18.28H22.4453Z" fill="black"/>
<path d="M22.45 18.549L22.465 18.554C22.53 18.414 22.55 18.314 22.55 18.314H22.535C22.535 18.314 22.515 18.409 22.45 18.549ZM22.465 18.554L22.475 18.569C22.5493 18.5245 22.6032 18.4527 22.625 18.369H22.61C22.61 18.369 22.58 18.489 22.465 18.554ZM22.49 18.564V18.579C22.61 18.569 22.69 18.424 22.69 18.414H22.68C22.68 18.414 22.6 18.554 22.49 18.564Z" fill="black"/>
<path d="M22.5 18.575V18.59C22.695 18.575 22.78 18.46 22.78 18.455L22.77 18.45C22.77 18.45 22.685 18.56 22.5 18.575Z" fill="black"/>
<path d="M22.5156 18.5743V18.5893C22.5206 18.5893 22.7656 18.6443 22.8506 18.5193L22.8356 18.5093C22.7606 18.6293 22.5156 18.5793 22.5156 18.5743Z" fill="black"/>
<path d="M17.0453 9.65942V16.4794C17.0453 18.7094 21.0753 20.0294 21.0753 20.0294C21.0753 20.0294 25.1003 18.7094 25.1003 16.4794V9.65942H17.0453Z" stroke="black" stroke-width="0.35" stroke-miterlimit="4.8"/>
<path d="M-4 0H12V12H-4V0Z" fill="#012169"/>
<path d="M-2.125 0L3.975 4.525L10.05 0H12V1.55L6 6.025L12 10.475V12H10L4 7.525L-1.975 12H-4V10.5L1.975 6.05L-4 1.6V0H-2.125Z" fill="white"/>
<path d="M6.6 7.025L12 11V12L5.225 7.025H6.6ZM2 7.525L2.15 8.4L-2.65 12H-4L2 7.525ZM12 0V0.075L5.775 4.775L5.825 3.675L10.75 0H12ZM-4 0L1.975 4.4H0.475L-4 1.05V0Z" fill="#C8102E"/>
<path d="M2.025 0V12H6.025V0H2.025ZM-4 4V8H12V4H-4Z" fill="white"/>
<path d="M-4 4.825V7.225H12V4.825H-4ZM2.825 0V12H5.225V0H2.825Z" fill="#C8102E"/>
</g>
</g>
</g>
<defs>
<clipPath id="clip0_69_5926">
<rect width="24" height="24" rx="12" fill="white"/>
</clipPath>
<clipPath id="clip1_69_5926">
<rect width="32" height="24" fill="white" transform="translate(-4)"/>
</clipPath>
</defs>
</svg>
