<svg width="24" height="24" viewBox="0 0 24 24" fill="none" xmlns="http://www.w3.org/2000/svg">
<g clip-path="url(#clip0_69_5832)">
<g clip-path="url(#clip1_69_5832)">
<mask id="mask0_69_5832" style="mask-type:luminance" maskUnits="userSpaceOnUse" x="-4" y="0" width="32" height="24">
<path d="M28 0H-4V24H28V0Z" fill="white"/>
</mask>
<g mask="url(#mask0_69_5832)">
<path d="M-4 0H28V24H-4V0Z" fill="#012169"/>
<path fill-rule="evenodd" clip-rule="evenodd" d="M-4 0H16V10H-4V0Z" fill="#012169"/>
<path fill-rule="evenodd" clip-rule="evenodd" d="M16.6444 15.4454C16.6161 15.443 16.5877 15.443 16.5594 15.4454C16.4094 15.4754 16.1794 16.0104 16.0594 16.3254C15.8544 16.5954 15.7494 16.8054 15.6694 16.9604C15.6344 17.0204 15.5844 17.0904 15.5994 17.1704C15.2994 17.2504 15.2844 17.5404 15.2844 17.6504C15.2844 17.7754 15.3194 17.8354 15.3194 17.8354L15.4994 18.2104V18.2154C15.6894 18.6654 15.9694 19.2604 16.1344 19.3054C16.3544 19.3804 16.9344 19.1404 17.3744 18.7204C18.2176 19.1141 19.1211 19.3196 20.0344 19.3254C21.0544 19.3254 21.9694 19.0504 22.6844 18.7204C23.1244 19.1404 23.7044 19.3804 23.9344 19.3054C24.0844 19.2554 24.3694 18.6554 24.5644 18.2154L24.7394 17.8354C24.7394 17.8354 24.7744 17.7754 24.7744 17.6554C24.7744 17.5454 24.7594 17.2554 24.4594 17.1754C24.4744 17.0954 24.4294 17.0254 24.3944 16.9604C24.3094 16.8004 24.2044 16.5904 24.0094 16.3104C23.8794 16.0004 23.6494 15.4754 23.5094 15.4504C23.2994 15.4104 22.8594 15.5254 22.8594 15.5704V15.5904L21.9744 16.5204C21.9744 16.5454 22.0194 17.2204 22.1894 17.8204C21.4946 18.0984 20.7618 18.2372 20.0244 18.2304C19.1744 18.2304 18.4494 18.0604 17.8644 17.8154C17.975 17.3914 18.047 16.9558 18.0794 16.5154L17.1994 15.5904V15.5704C17.1994 15.5354 16.8594 15.4454 16.6444 15.4454ZM16.8644 16.5954C16.9794 16.5954 17.0944 16.7054 17.1894 16.8154L17.1844 16.8804C17.1485 17.0539 17.1017 17.2244 17.0444 17.3904C16.8265 17.2493 16.6221 17.0834 16.4344 16.8954C16.5294 16.7804 16.6844 16.6254 16.8444 16.6054H16.8644V16.5954ZM23.1944 16.5954H23.2144C23.3794 16.6254 23.5294 16.7804 23.6294 16.8954C23.4403 17.0856 23.2342 17.2531 23.0144 17.3954C22.9568 17.2278 22.91 17.0556 22.8744 16.8804C22.8703 16.859 22.8669 16.8373 22.8644 16.8154C22.9644 16.7004 23.0794 16.6004 23.1944 16.6004V16.5954ZM16.0744 17.9154C16.1944 18.0154 16.3444 18.1354 16.5294 18.2554C16.4804 18.292 16.4263 18.319 16.3694 18.3354C16.2894 18.3554 16.2144 18.3504 16.1344 18.3354C16.1036 18.246 16.0866 18.1513 16.0844 18.0554C16.0802 18.0089 16.0768 17.9622 16.0744 17.9154ZM23.9844 17.9154L23.9794 18.0554C23.9763 18.1496 23.9594 18.2426 23.9294 18.3304C23.8616 18.3488 23.7912 18.3517 23.7225 18.3388C23.6537 18.3259 23.588 18.2975 23.5294 18.2554C23.7144 18.1354 23.8694 18.0154 23.9844 17.9154Z" fill="url(#paint0_linear_69_5832)" stroke="white" stroke-width="1.25"/>
<path fill-rule="evenodd" clip-rule="evenodd" d="M17.3103 16.9796C17.3103 16.9796 17.0053 16.4246 16.7553 16.4696C16.5003 16.5046 16.2553 16.8596 16.2453 16.8796C16.1039 16.7402 15.9779 16.5806 15.8703 16.4046C15.8853 16.3846 16.2603 15.3596 16.4703 15.3146C16.6703 15.2696 17.1053 15.3896 17.1053 15.4296L17.3103 16.9796Z" fill="url(#paint1_linear_69_5832)" stroke="black" stroke-width="0.15"/>
<path fill-rule="evenodd" clip-rule="evenodd" d="M17.9894 16.3846C17.9894 16.4246 17.8794 17.8946 17.4444 18.4046C17.0144 18.9196 16.2944 19.2346 16.0344 19.1596C15.7844 19.0796 15.2094 17.5946 15.2094 17.5946C15.2094 17.5946 15.8194 18.3046 16.2744 18.1846C16.7294 18.0696 17.0044 17.1796 17.0894 16.7396C17.1744 16.3096 17.1044 15.4546 17.1044 15.4546L17.9944 16.3846H17.9894Z" fill="url(#paint2_linear_69_5832)" stroke="black" stroke-width="0.15"/>
<path fill-rule="evenodd" clip-rule="evenodd" d="M22.6453 16.9796C22.6453 16.9796 22.9553 16.4246 23.2053 16.4696C23.4553 16.5046 23.6953 16.8596 23.7153 16.8796C23.8567 16.7402 23.9827 16.5806 24.0903 16.4046C24.0703 16.3846 23.6953 15.3596 23.4903 15.3146C23.2853 15.2696 22.8503 15.3896 22.8503 15.4296L22.6453 16.9796Z" fill="url(#paint3_linear_69_5832)" stroke="black" stroke-width="0.15"/>
<path fill-rule="evenodd" clip-rule="evenodd" d="M21.9643 16.3846C21.9643 16.4246 22.0744 17.8946 22.5094 18.4046C22.9444 18.9196 23.6594 19.2346 23.9194 19.1596C24.1694 19.0796 24.7493 17.5946 24.7493 17.5946C24.7493 17.5946 24.1344 18.3046 23.6794 18.1846C23.2294 18.0696 22.9544 17.1796 22.8694 16.7396C22.7794 16.3096 22.8493 15.4546 22.8493 15.4546L21.9594 16.3846H21.9643Z" fill="url(#paint4_linear_69_5832)" stroke="black" stroke-width="0.15"/>
<path fill-rule="evenodd" clip-rule="evenodd" d="M16.0604 16.3093C15.8604 16.5843 15.7554 16.7993 15.6654 16.9593C15.5804 17.1193 15.6354 17.3443 15.8254 17.6593C16.0404 17.9943 17.7754 19.3293 20.0304 19.3293C22.2904 19.3293 24.0204 17.9993 24.2304 17.6593C24.4304 17.3393 24.4804 17.1193 24.3954 16.9593C24.3104 16.7993 24.2004 16.5843 24.0004 16.3093C24.0004 16.7243 22.5654 18.2343 20.0304 18.2343C17.4954 18.2343 16.0604 16.7243 16.0604 16.3093Z" fill="url(#paint5_linear_69_5832)" stroke="black" stroke-width="0.1875"/>
<path fill-rule="evenodd" clip-rule="evenodd" d="M23.8854 18.9399L24.2754 18.1849L24.0804 18.0249C24.0304 18.2149 23.8054 18.2799 23.7654 18.5249C23.7304 18.7599 23.9154 18.9949 23.8854 18.9399Z" fill="url(#paint6_linear_69_5832)" stroke="black" stroke-width="0.15"/>
<path fill-rule="evenodd" clip-rule="evenodd" d="M24.2407 18.7248C24.2407 18.7248 24.3107 18.3848 24.0907 18.3448C23.8707 18.3048 23.7507 18.5348 23.7857 18.4448C23.8157 18.3448 23.9457 18.2448 23.9707 17.9098C23.9857 17.5748 23.9507 17.3948 23.9507 17.3948C23.9507 17.3948 24.0407 16.9598 24.3907 17.0198C24.7507 17.0848 24.7657 17.3998 24.7657 17.5148C24.7674 17.5746 24.7572 17.6341 24.7357 17.6898L24.2407 18.7248Z" fill="url(#paint7_linear_69_5832)" stroke="black" stroke-width="0.15"/>
<path d="M22.9607 17.585L23.0357 17.725L23.0857 17.695L23.0507 17.595L23.0556 17.58L23.1406 17.52L23.3607 17.955V17.98L23.3107 18.015L23.3357 18.055L23.5456 17.905L23.5257 17.865L23.4757 17.895H23.4607L23.2406 17.455L23.3206 17.395H23.3406L23.3906 17.475L23.4406 17.44L23.3656 17.3L22.9656 17.585H22.9607ZM22.4357 17.92L22.4556 17.96L22.5006 17.94L22.5156 17.945L22.7107 18.39L22.7056 18.41L22.6656 18.44L22.6806 18.48L22.8857 18.355L22.8706 18.315L22.8257 18.335H22.8056L22.7156 18.12L22.9306 18L23.0206 18.2V18.225L22.9706 18.255L22.9906 18.3L23.2007 18.175L23.1806 18.135L23.1357 18.155L23.1206 18.145L22.9306 17.705V17.685L22.9706 17.655L22.9556 17.615L22.7506 17.74L22.7656 17.78L22.8156 17.755L22.8306 17.765L22.9056 17.945L22.6956 18.07L22.6156 17.885L22.6256 17.865L22.6656 17.84L22.6456 17.795L22.4357 17.92ZM22.3156 18.3L22.3257 18.34L22.3857 18.325L22.4056 18.33L22.4507 18.515L22.4107 18.535C22.2857 18.575 22.1906 18.51 22.1456 18.35C22.1056 18.19 22.1556 18.07 22.2706 18.03C22.2934 18.023 22.3172 18.0213 22.3406 18.025L22.3556 18.035L22.3956 18.12L22.4556 18.1L22.4206 17.95C22.3556 17.95 22.2956 17.96 22.2456 17.98C22.0656 18.045 21.9856 18.205 22.0306 18.39C22.0806 18.575 22.2256 18.66 22.3906 18.605C22.452 18.5828 22.5095 18.549 22.5607 18.505L22.5006 18.3L22.5107 18.28L22.5556 18.26L22.5406 18.215L22.3156 18.3ZM21.8306 18.815L22.0656 18.73L22.0507 18.685L22.0006 18.695L21.9857 18.69L21.8556 18.21L21.8607 18.195L21.9107 18.17L21.9007 18.13L21.6656 18.21L21.6806 18.255L21.7306 18.24L21.7506 18.25L21.8756 18.725L21.8656 18.745L21.8156 18.765L21.8306 18.81V18.815ZM20.5556 19.045L20.9706 19.005L20.9556 18.835L20.9056 18.84L20.8956 18.94L20.8856 18.955L20.7106 18.975L20.6906 18.73L20.7906 18.72L20.8056 18.735L20.8156 18.8H20.8656L20.8456 18.58H20.7957V18.65L20.7856 18.67L20.6856 18.675L20.6656 18.455L20.8206 18.44L20.8306 18.45L20.8506 18.535L20.9056 18.53L20.8956 18.38L20.5056 18.42V18.465H20.5556L20.5706 18.48L20.6056 18.975L20.6006 18.99L20.5506 19V19.05L20.5556 19.045ZM19.9356 18.43V18.48H19.9856L19.9956 18.495L20.0006 18.99L19.9906 19.005L19.9456 19.015V19.055H20.1656V19.01H20.1156L20.1056 18.99V18.75H20.3256V18.98L20.3156 18.995L20.2706 19V19.05H20.4906V19H20.4406L20.4356 18.98L20.4256 18.48L20.4356 18.465H20.4856V18.415H20.2606V18.465L20.3106 18.47L20.3206 18.485V18.685L20.1056 18.69L20.0956 18.49L20.1106 18.475H20.1556V18.425L19.9356 18.43ZM19.4656 18.415V18.58H19.5156L19.5306 18.48L19.5406 18.465H19.6356V18.975L19.6206 18.995H19.5706V19.045H19.8006V19L19.7506 18.995L19.7356 18.975L19.7406 18.475H19.8306L19.8456 18.485L19.8606 18.585H19.9106V18.42L19.4656 18.415ZM18.7506 18.945L19.1506 18.965L19.1606 18.8H19.1106L19.0956 18.895L19.0856 18.905L18.9106 18.9L18.9206 18.65L19.0156 18.66L19.0256 18.675L19.0356 18.745H19.0756L19.0856 18.53H19.0406L19.0306 18.59L19.0206 18.605H18.9206L18.9306 18.375L19.0806 18.385L19.0906 18.395L19.0956 18.48H19.1506V18.335L18.7756 18.315V18.36L18.8256 18.37L18.8306 18.385L18.8106 18.88L18.8006 18.895H18.7506V18.94V18.945ZM17.8206 18.675L18.0406 18.755L18.0506 18.715L18.0006 18.69V18.67L18.1256 18.195L18.1406 18.185L18.1906 18.2L18.2006 18.16L17.9856 18.075L17.9756 18.12L18.0206 18.14L18.0306 18.16L17.8956 18.63L17.8856 18.645L17.8356 18.63L17.8206 18.675ZM17.4406 18.51C17.4794 18.5451 17.5234 18.5722 17.5706 18.59C17.6906 18.63 17.7856 18.58 17.8106 18.48C17.8179 18.453 17.8194 18.4243 17.815 18.3964C17.8107 18.3686 17.8006 18.3424 17.7856 18.32L17.6956 18.22C17.6656 18.175 17.6556 18.14 17.6656 18.095C17.6806 18.05 17.7206 18.025 17.7756 18.045C17.7956 18.055 17.8156 18.065 17.8256 18.08V18.095L17.8156 18.195L17.8656 18.21L17.9056 18.07C17.869 18.0333 17.8266 18.0045 17.7806 17.985C17.6806 17.945 17.5906 18 17.5606 18.095C17.5548 18.1186 17.5536 18.1432 17.5571 18.1674C17.5605 18.1915 17.5686 18.2145 17.5806 18.235C17.6006 18.285 17.6306 18.31 17.6556 18.335C17.7006 18.385 17.7156 18.435 17.7056 18.48C17.6906 18.53 17.6456 18.555 17.5856 18.53C17.5637 18.5208 17.5434 18.5072 17.5256 18.49L17.5206 18.475L17.5406 18.365L17.4856 18.345L17.4406 18.51ZM16.9506 18.28L17.3206 18.48L17.3806 18.33L17.3306 18.305L17.2856 18.39L17.2706 18.395L17.1156 18.305L17.2056 18.09L17.2956 18.14V18.155L17.2806 18.22L17.3206 18.245L17.4006 18.045L17.3606 18.025L17.3256 18.08L17.3106 18.09L17.2256 18.04L17.3056 17.84L17.4406 17.915L17.4456 17.93L17.4256 18.01L17.4756 18.035L17.5256 17.905L17.1856 17.71L17.1656 17.75L17.2056 17.78L17.2106 17.8L17.0306 18.25H17.0156L16.9706 18.235L16.9506 18.28ZM16.8956 17.53L16.7106 17.385L16.6856 17.425L16.7206 17.46L16.7256 17.48L16.4956 17.89L16.4756 17.895L16.4406 17.87L16.4156 17.91L16.5956 18.05C16.6656 18.1 16.7206 18.125 16.7756 18.12C16.8556 18.11 16.9256 18.06 16.9756 17.97C17.0656 17.8 17.0406 17.64 16.8956 17.53ZM16.8156 17.53L16.8556 17.56C16.9556 17.635 16.9656 17.745 16.8806 17.89C16.7956 18.04 16.7056 18.07 16.6106 17.99L16.5706 17.97L16.8206 17.535L16.8156 17.53ZM18.2806 18.18L18.2756 18.22L18.3206 18.235L18.3256 18.255L18.2406 18.74L18.2256 18.75H18.1756V18.79L18.3806 18.84L18.3906 18.8L18.3406 18.78L18.3356 18.765L18.3706 18.56H18.3856C18.4606 18.58 18.4756 18.625 18.4756 18.72C18.4806 18.765 18.4806 18.805 18.5156 18.855C18.5306 18.875 18.5506 18.895 18.5856 18.9C18.6104 18.9055 18.6354 18.9088 18.6606 18.91L18.6656 18.87H18.6606C18.6106 18.855 18.5856 18.835 18.5856 18.78C18.5756 18.73 18.5856 18.68 18.5656 18.63C18.5522 18.5988 18.5291 18.574 18.5006 18.56C18.5856 18.56 18.6356 18.515 18.6506 18.435C18.6706 18.335 18.6256 18.26 18.5056 18.235L18.2856 18.18H18.2806ZM18.4306 18.265L18.4606 18.275C18.5306 18.295 18.5606 18.345 18.5456 18.42C18.5306 18.505 18.4856 18.535 18.4056 18.51L18.3806 18.505L18.4256 18.265H18.4306ZM21.1406 18.315L21.1456 18.365H21.1956L21.2106 18.375L21.2806 18.865L21.2706 18.88L21.2206 18.895L21.2306 18.935L21.4556 18.895V18.845L21.4006 18.855L21.3856 18.84L21.3556 18.64H21.3706C21.4506 18.615 21.4806 18.65 21.5206 18.735C21.5356 18.775 21.5457 18.815 21.5956 18.845C21.6156 18.86 21.6457 18.865 21.6857 18.86C21.7128 18.8538 21.7395 18.8454 21.7656 18.835L21.7607 18.79H21.7506C21.6957 18.805 21.6656 18.79 21.6406 18.745C21.6206 18.705 21.6056 18.655 21.5756 18.62C21.5556 18.595 21.5256 18.58 21.4856 18.58C21.5706 18.54 21.6107 18.48 21.6007 18.395C21.5856 18.295 21.5156 18.245 21.3906 18.27L21.1406 18.315ZM21.3156 18.34H21.3506C21.4306 18.32 21.4756 18.35 21.4906 18.43C21.5006 18.51 21.4656 18.56 21.3806 18.58H21.3506L21.3106 18.34H21.3156Z" fill="black"/>
<path fill-rule="evenodd" clip-rule="evenodd" d="M16.0744 18.9399L15.6844 18.1849L15.8794 18.0249C15.9294 18.2149 16.1544 18.2799 16.1944 18.5249C16.2294 18.7599 16.0444 18.9949 16.0744 18.9399Z" fill="url(#paint8_linear_69_5832)" stroke="black" stroke-width="0.15"/>
<path fill-rule="evenodd" clip-rule="evenodd" d="M15.7156 18.7248C15.7156 18.7248 15.6456 18.3848 15.8656 18.3448C16.0856 18.3048 16.2056 18.5348 16.1756 18.4448C16.1406 18.3448 16.0106 18.2448 15.9906 17.9098C15.9706 17.5748 16.0056 17.3948 16.0056 17.3948C16.0056 17.3948 15.9206 16.9598 15.5656 17.0198C15.2106 17.0848 15.1906 17.3998 15.1906 17.5148C15.1906 17.6248 15.2256 17.6898 15.2256 17.6898L15.7156 18.7248Z" fill="url(#paint9_linear_69_5832)" stroke="black" stroke-width="0.15"/>
<path fill-rule="evenodd" clip-rule="evenodd" d="M20.0248 17.8047C20.0248 17.8047 15.9248 16.4547 15.9548 11.3347L15.9848 4.55469H24.0498L24.0798 11.2947C24.1048 16.4147 20.0098 17.7997 20.0098 17.7997L20.0248 17.8047Z" fill="#0072C4" stroke="white" stroke-width="0.4875"/>
<path fill-rule="evenodd" clip-rule="evenodd" d="M16.5153 6.17942L16.6153 6.07942C16.6803 6.03942 16.7353 5.99442 16.8003 5.95942C16.8503 5.92942 16.9503 5.90442 16.9853 5.87942C17.0437 5.84534 17.0948 5.79758 17.1353 5.73942C17.1453 5.65442 17.1603 5.58942 17.1603 5.48942C17.2141 5.44598 17.275 5.41214 17.3403 5.38942C17.4253 5.35942 17.4403 5.31942 17.5303 5.30442C17.5803 5.28442 17.6703 5.28442 17.7503 5.28442C17.8303 5.28442 17.8853 5.35442 17.9603 5.36442C18.0503 5.40442 18.0903 5.43442 18.1653 5.50442C18.1944 5.56522 18.2393 5.61702 18.2953 5.65442C18.3503 5.68442 18.4053 5.73442 18.4653 5.75442C18.5403 5.79942 18.6003 5.82442 18.6553 5.89442C18.7053 5.93442 18.7253 5.99442 18.7703 6.02942C18.8236 6.0811 18.8804 6.1279 18.9403 6.16942C19.0153 6.22442 19.0903 6.26942 19.2003 6.25442C19.2653 6.25442 19.3303 6.23942 19.4003 6.25442C19.4903 6.25442 19.5703 6.25442 19.6403 6.27942C19.7303 6.27942 19.8003 6.28942 19.8803 6.29942C19.9553 6.30942 20.0303 6.31442 20.1153 6.31442C20.1903 6.33942 20.2653 6.33442 20.3553 6.33442H20.8303C20.9153 6.33442 21.0003 6.33942 21.0653 6.35442C21.144 6.35334 21.2224 6.34666 21.3003 6.33442C21.3953 6.33442 21.4653 6.31942 21.5503 6.31442H21.8403C21.9153 6.33942 22.0103 6.35442 22.0603 6.39942C22.1303 6.41942 22.1603 6.45442 22.2303 6.47442C22.2958 6.50918 22.3537 6.55678 22.4003 6.61442C22.4538 6.68078 22.4992 6.75474 22.5353 6.83442C22.5853 6.90942 22.6003 6.99942 22.6353 7.09442C22.6553 7.18442 22.6703 7.26942 22.6703 7.36942C22.6903 7.45442 22.6853 7.54942 22.6853 7.64942C22.6703 7.73942 22.6653 7.83942 22.6353 7.92442C22.6353 8.02442 22.6153 8.10942 22.6003 8.18442C22.5903 8.26442 22.5703 8.31942 22.5653 8.41942V8.69942C22.5653 8.78942 22.5453 8.85942 22.5353 8.95442C22.4903 9.05182 22.4503 9.15198 22.4153 9.25442C22.3618 9.2981 22.3161 9.35234 22.2803 9.41442C22.2453 9.43942 22.2253 9.47942 22.2303 9.49442C22.3003 9.51942 22.2803 9.57442 22.2803 9.66942L22.3153 9.92942C22.3203 10.0294 22.3403 10.0794 22.3653 10.1494C22.3953 10.1894 22.4003 10.1694 22.3303 10.1694C22.2803 10.2094 22.2303 10.1894 22.2153 10.1094C22.1767 10.0434 22.1527 9.96802 22.1453 9.88942C22.1353 9.79942 22.1203 9.70942 22.0953 9.64942C22.0853 9.53942 22.0603 9.53942 21.9603 9.52942C21.9103 9.48442 21.8503 9.47442 21.7603 9.47442C21.6603 9.47442 21.6603 9.46442 21.6603 9.57442V9.85442C21.6403 9.93442 21.6103 9.99442 21.5853 10.0694C21.5353 10.1094 21.5153 10.1794 21.4503 10.2294C21.4253 10.3194 21.3803 10.3294 21.3003 10.3494L21.2003 10.2094C21.2503 10.1194 21.2853 10.1094 21.3153 10.0094C21.3553 9.92942 21.3753 9.87942 21.4003 9.80942C21.3653 9.74942 21.3353 9.71942 21.3003 9.63442C21.2648 9.56486 21.2363 9.49106 21.2153 9.41442C21.1603 9.39442 21.0703 9.38942 21.0303 9.35442C20.9453 9.33442 20.9253 9.43942 20.8303 9.43942H20.5903C20.4853 9.43942 20.4603 9.49942 20.3703 9.49442C20.3453 9.50442 20.2803 9.49442 20.1853 9.49442C20.1103 9.52442 20.0253 9.51442 19.9453 9.51442C19.8603 9.51442 19.7953 9.48942 19.7253 9.47442C19.6503 9.44942 19.5753 9.42442 19.4903 9.41442C19.3903 9.41442 19.3553 9.42442 19.2903 9.47442C19.2403 9.50942 19.1603 9.58942 19.1053 9.63442C19.0803 9.69942 19.0653 9.80942 19.0303 9.88942C19.0153 9.97442 18.9853 10.0194 18.9703 10.0894C18.942 10.1658 18.9251 10.2469 18.9203 10.3294C18.9103 10.4594 18.8853 10.4444 18.8153 10.4094C18.7853 10.3494 18.7403 10.2944 18.7153 10.2294C18.7253 10.1294 18.7503 10.0794 18.7503 9.97442C18.7303 9.88942 18.6953 9.89942 18.6503 9.94942C18.6503 10.0544 18.6503 10.1344 18.6103 10.1894C18.6035 10.2215 18.5911 10.2517 18.574 10.2783C18.5568 10.3049 18.5352 10.3274 18.5103 10.3444C18.4991 10.3761 18.4813 10.4049 18.458 10.4291C18.4347 10.4532 18.4065 10.4721 18.3753 10.4844C18.3653 10.4844 18.3753 10.4594 18.3753 10.4044C18.3353 10.3194 18.3753 10.2394 18.3753 10.1294C18.3753 10.0294 18.3653 9.96442 18.3953 9.87442C18.3953 9.77442 18.3553 9.68442 18.3453 9.61442C18.3103 9.53942 18.2903 9.50442 18.2053 9.47442C18.1453 9.44442 18.0553 9.41442 18.0203 9.34942C17.9811 9.2887 17.9273 9.24186 17.8653 9.21442C17.7903 9.18442 17.7503 9.15442 17.6953 9.11442C17.6453 9.04942 17.6003 9.02442 17.5803 8.93942C17.5453 8.87942 17.5403 8.76442 17.5153 8.67942C17.5083 8.59894 17.4914 8.51986 17.4653 8.44442C17.4575 8.36242 17.4407 8.28182 17.4153 8.20442L17.3603 7.94442C17.3603 7.84942 17.3603 7.75442 17.3403 7.66942V7.38942C17.3303 7.30442 17.3253 7.18942 17.3103 7.12942C17.3103 7.02442 17.2953 6.96442 17.2703 6.88942C17.2353 6.81942 17.2353 6.78942 17.1703 6.77442C17.1303 6.83442 17.0603 6.86442 16.9703 6.87442C16.9103 6.85942 16.8203 6.84442 16.7503 6.81442C16.6803 6.79442 16.6403 6.76442 16.5853 6.72942C16.5527 6.67738 16.5177 6.6273 16.4803 6.57942C16.4703 6.47442 16.4503 6.41942 16.4453 6.31442C16.4453 6.23942 16.4453 6.28442 16.5153 6.17942Z" fill="#BCBCBC"/>
<path fill-rule="evenodd" clip-rule="evenodd" d="M17.5153 6.89942L17.5303 6.87942C17.5003 6.91442 17.5103 6.89442 17.5803 6.86442C17.6103 6.84442 17.6803 6.79442 17.7053 6.76442C17.7353 6.74942 17.7903 6.72942 17.8153 6.69942C17.8453 6.65942 17.8803 6.62442 17.9253 6.58942C17.9703 6.53942 18.0103 6.52442 18.0653 6.48942C18.1303 6.47942 18.1603 6.44942 18.2203 6.47442C18.2803 6.48942 18.3053 6.48942 18.3503 6.42942C18.4003 6.39942 18.4553 6.35942 18.4753 6.30942V6.21942C18.4753 6.30942 18.4553 6.34442 18.4003 6.36942C18.3653 6.42442 18.3103 6.47942 18.2903 6.52942C18.2553 6.58942 18.2453 6.62442 18.2103 6.65442C18.1753 6.69942 18.1253 6.72442 18.1103 6.79442C18.1303 6.82942 18.1103 6.84442 18.1503 6.84942C18.1853 6.88442 18.2203 6.86942 18.2703 6.84942C18.31 6.80086 18.3422 6.74506 18.3653 6.68442L18.4503 6.53942C18.4903 6.50942 18.5153 6.48442 18.5303 6.42942C18.5803 6.39942 18.6203 6.36442 18.6553 6.32942C18.6903 6.30942 18.7053 6.28442 18.7553 6.27442C18.7589 6.32906 18.7466 6.38354 18.7203 6.42942C18.7103 6.50942 18.7153 6.54442 18.7353 6.59442C18.7703 6.62442 18.7653 6.64442 18.7853 6.69442C18.8053 6.64442 18.8153 6.55942 18.8203 6.49942V6.48942C18.8203 6.54442 18.8203 6.62942 18.8053 6.66942C18.8053 6.74942 18.8253 6.78942 18.8453 6.84942C18.8603 6.88442 18.8803 6.89942 18.9003 6.91942C18.9003 6.83942 18.9253 6.78942 18.9303 6.71442L18.9503 6.90942C18.9503 6.97442 18.9753 7.02442 19.0003 7.07442C19.0253 7.09442 19.0353 7.14942 19.0453 7.10442C19.0753 7.00442 19.0753 6.90442 19.0953 6.79442C19.0953 6.74442 19.0953 6.66442 19.1203 6.62942L19.0903 6.79442C19.0953 6.74442 19.1003 6.66942 19.1203 6.62942V6.60942C19.1336 6.68534 19.142 6.76218 19.1453 6.83942C19.1453 6.89942 19.1403 6.95942 19.1553 7.01942C19.1903 6.99942 19.2153 6.94942 19.2403 6.89442C19.2661 6.83846 19.298 6.78638 19.3353 6.73942L19.2353 6.88942C19.263 6.8349 19.2966 6.7845 19.3353 6.73942V6.72942C19.3287 6.7925 19.3254 6.85594 19.3253 6.91942C19.3253 6.98442 19.3253 7.05942 19.3353 7.10442C19.3503 7.17942 19.3653 7.18942 19.3703 7.26942C19.3703 7.30942 19.3653 7.35442 19.3803 7.36942C19.4303 7.38442 19.4303 7.35442 19.4403 7.26942C19.4403 7.18442 19.4603 7.11942 19.4653 7.03442C19.4653 6.92942 19.4753 7.04942 19.4903 7.08442C19.5122 7.14482 19.524 7.20922 19.5253 7.27442C19.5253 7.31442 19.5253 7.35442 19.5353 7.37442C19.5853 7.34942 19.6003 7.28942 19.6353 7.25942C19.6553 7.18942 19.6853 7.15942 19.7053 7.11942C19.7653 7.10442 19.7653 7.07442 19.7653 6.99442C19.7653 6.92442 19.7603 6.85442 19.7803 6.79442C19.7984 6.73378 19.8134 6.67202 19.8253 6.60942C19.8453 6.59942 19.8703 6.63442 19.8853 6.66942C19.9103 6.71442 19.9053 6.77942 19.9053 6.84942C19.9195 6.9087 19.9413 6.96582 19.9703 7.01942C19.9912 7.06994 20.0181 7.11702 20.0503 7.15942C20.0653 7.20442 20.0653 7.28442 20.0653 7.34442C20.1153 7.28442 20.1153 7.19442 20.1203 7.10442C20.1153 7.04442 20.1153 6.96442 20.1003 6.90442C20.1003 6.84442 20.0853 6.78442 20.0753 6.73942C20.0403 6.71942 20.0253 6.69942 20.0653 6.63942C20.1003 6.60442 20.1453 6.61942 20.2053 6.62942C20.2403 6.66442 20.2503 6.68442 20.2553 6.76942C20.2553 6.84442 20.2553 6.89942 20.2803 6.94942C20.3003 6.98942 20.3253 7.01942 20.3403 7.08942C20.3553 7.10942 20.3703 7.13942 20.3953 7.10442C20.4103 7.06442 20.4203 6.98442 20.4353 6.93442C20.4453 6.88442 20.4653 6.85442 20.4903 6.83442C20.4903 6.91442 20.4903 6.95942 20.5203 7.01942L20.5753 7.17442C20.6003 7.19442 20.6053 7.23942 20.6403 7.25942L20.6503 7.03442V6.83442C20.6503 6.77442 20.6703 6.73442 20.6853 6.68442C20.7253 6.73942 20.7253 6.75942 20.7253 6.83442C20.7603 6.81942 20.7653 6.78442 20.7803 6.73942C20.8053 6.70942 20.8203 6.69942 20.8303 6.76942C20.8353 6.84442 20.8503 6.90942 20.8653 6.97942C20.8903 7.00942 20.9153 7.08942 20.9453 7.11942C20.9666 7.16066 20.9918 7.19918 21.0203 7.23442C21.0403 7.27442 21.0403 7.30442 21.0953 7.31442C21.0953 7.21942 21.0953 7.12442 21.0803 7.03442C21.0803 6.95442 21.0653 6.92442 21.0553 6.84942C21.0353 6.80442 21.0253 6.72942 21.0303 6.70942C21.0784 6.75554 21.1161 6.81378 21.1403 6.87942L21.2153 7.06442C21.2496 7.10746 21.2798 7.15438 21.3053 7.20442C21.3503 7.24442 21.3703 7.28942 21.4153 7.32942C21.4353 7.35442 21.4903 7.36942 21.5003 7.35442C21.5003 7.27442 21.4853 7.20442 21.4653 7.13442C21.4644 7.07498 21.4506 7.01666 21.4253 6.96442C21.3753 6.91942 21.3403 6.88942 21.3153 6.82442C21.3003 6.80442 21.3003 6.79442 21.2953 6.75442C21.3591 6.81114 21.4162 6.87666 21.4653 6.94942C21.4889 6.9915 21.5216 7.02594 21.5603 7.04942C21.5803 7.07942 21.6503 7.11942 21.7003 7.12942C21.73 7.1729 21.7726 7.20302 21.8203 7.21442L21.7003 7.13442C21.7308 7.17602 21.7732 7.20434 21.8203 7.21442V7.23442C21.813 7.15274 21.789 7.07402 21.7503 7.00442C21.7266 6.94402 21.6885 6.89214 21.6403 6.85442C21.61 6.80246 21.5688 6.75954 21.5203 6.72942C21.4903 6.68442 21.4403 6.60942 21.4103 6.58942C21.4653 6.54442 21.5253 6.60942 21.5803 6.63942C21.6303 6.69942 21.6703 6.77442 21.7003 6.80942C21.7285 6.87698 21.7656 6.93934 21.8103 6.99442C21.8603 7.02942 21.8953 7.05942 21.9403 7.10442C22.0103 7.12442 21.9853 7.09942 21.9653 7.03442C21.9403 6.95442 21.9653 6.95442 22.0153 7.00442C22.0453 7.03442 22.0853 7.07442 22.1353 7.10442C22.1503 7.13442 22.1853 7.15442 22.2153 7.13442C22.2303 7.11442 22.2303 7.11442 22.2303 7.09442C22.2053 7.00442 22.1803 6.93442 22.1203 6.90942C22.0953 6.86442 22.0453 6.82442 22.0103 6.78442C21.9853 6.74442 21.9603 6.71942 21.9403 6.66942L22.0103 6.77942C21.9853 6.73942 21.9603 6.71942 21.9403 6.66942H21.9303C22.0003 6.66942 22.0303 6.69442 22.0803 6.72942C22.1248 6.75018 22.163 6.7849 22.1903 6.82942C22.2153 6.85942 22.2503 6.89442 22.2753 6.93442L22.3953 7.03442C22.4353 7.09442 22.4453 7.13442 22.4453 7.21442C22.4653 7.25942 22.4703 7.33942 22.4803 7.38442C22.4703 7.46442 22.4453 7.39942 22.4403 7.35442C22.4353 7.29442 22.4103 7.29942 22.3703 7.31442C22.3703 7.39942 22.3803 7.42442 22.4053 7.48442C22.4 7.53434 22.3846 7.58222 22.3603 7.62442C22.3303 7.64442 22.3253 7.58442 22.3003 7.55442C22.3003 7.46942 22.2753 7.45442 22.2253 7.41442V7.46942C22.2553 7.52942 22.2853 7.58442 22.2853 7.66442C22.3057 7.72338 22.3159 7.78618 22.3153 7.84942C22.3153 7.91942 22.3153 7.98442 22.3003 8.04942C22.3003 8.11942 22.2853 8.14942 22.2853 8.22942V8.62442C22.277 8.68394 22.2736 8.74422 22.2753 8.80442L22.2853 8.62442C22.2753 8.67442 22.2753 8.73442 22.2753 8.80442V8.81442C22.2553 8.74442 22.2253 8.68442 22.2153 8.61442C22.1797 8.57126 22.1525 8.52018 22.1353 8.46442C22.1203 8.40442 22.1203 8.33442 22.1103 8.28442C22.0903 8.23442 22.0703 8.18442 22.0353 8.21442C22.0203 8.31442 22.0353 8.37942 22.0703 8.47942C22.0903 8.54442 22.0903 8.60442 22.1103 8.66442C22.1353 8.73942 22.1603 8.74442 22.1103 8.82942C22.0803 8.87942 22.0703 8.88942 22.0603 8.94442C22.0153 8.96942 22.0053 8.98442 22.0003 9.04442C21.9853 8.98942 21.9503 8.92442 21.9303 8.85942C21.9053 8.78942 21.8803 8.71942 21.8703 8.65942C21.8403 8.61442 21.8053 8.53942 21.7703 8.50942L21.6803 8.34442C21.6303 8.27942 21.6203 8.24442 21.5803 8.21442C21.5753 8.18942 21.5603 8.14942 21.5303 8.17442C21.5303 8.23942 21.5303 8.30942 21.5453 8.36942C21.5603 8.44942 21.5803 8.49442 21.5853 8.57942V8.72942C21.5553 8.64942 21.5203 8.58442 21.5003 8.50942C21.4703 8.46442 21.4453 8.38442 21.4153 8.35942C21.3953 8.29942 21.3803 8.25442 21.3553 8.21442C21.3503 8.17442 21.3303 8.17442 21.3153 8.14442C21.3153 8.22442 21.3403 8.25442 21.3553 8.30942C21.3803 8.36942 21.3853 8.45442 21.3803 8.48442C21.3503 8.38442 21.3203 8.27942 21.2803 8.18442C21.2455 8.12526 21.2154 8.06338 21.1903 7.99942C21.1503 7.95442 21.1153 7.94942 21.0803 7.91942C21.0474 7.90446 21.0182 7.88042 20.9953 7.84942C21.0053 7.92442 21.0303 7.97442 21.0453 8.02942C21.0553 8.09942 21.0803 8.15942 21.0903 8.21442C21.0803 8.31442 21.0603 8.18942 21.0403 8.14442C21.0303 8.06442 21.0053 8.02442 20.9853 7.97942C20.9503 7.94942 20.9203 7.90442 20.8853 7.87942C20.8503 7.86442 20.8653 7.87942 20.8653 7.92942C20.8653 8.01942 20.8653 8.07942 20.8903 8.12942C20.9153 8.16942 20.9153 8.22442 20.9153 8.29942C20.9103 8.36942 20.9003 8.41942 20.9003 8.49942V8.60442C20.8753 8.54942 20.8503 8.50942 20.8253 8.43942C20.7903 8.37442 20.7753 8.32442 20.7453 8.25442C20.7203 8.24442 20.6703 8.23442 20.6453 8.25442C20.6553 8.32442 20.6803 8.35442 20.6853 8.43942C20.6353 8.48942 20.6453 8.50942 20.6153 8.42442C20.5853 8.35942 20.5553 8.36442 20.5153 8.32442C20.4553 8.31942 20.4753 8.27442 20.4603 8.20942C20.4603 8.15942 20.4603 8.10942 20.4453 8.05942C20.3803 8.05942 20.3453 8.05942 20.3003 8.09942C20.2853 8.13942 20.2903 8.22442 20.3003 8.28442V8.47942C20.2853 8.52942 20.2653 8.52942 20.2503 8.59442C20.2303 8.64942 20.2253 8.71942 20.2053 8.75942C20.1603 8.80442 20.1803 8.80942 20.1553 8.73442V8.28442C20.1553 8.20942 20.1703 8.16942 20.1703 8.09942C20.1453 8.04442 20.1403 8.02942 20.0603 8.02942C20.0493 8.07546 20.0493 8.12342 20.0603 8.16942C20.0603 8.23942 20.0653 8.30442 20.0753 8.35442L20.0853 8.53442C20.0853 8.60942 20.0703 8.66942 20.0353 8.69942C19.9953 8.71942 20.0353 8.74942 19.9903 8.76442C19.9429 8.73826 19.8991 8.70458 19.8603 8.66442C19.8103 8.64942 19.7703 8.63442 19.7053 8.63442C19.6253 8.63442 19.6253 8.62442 19.5953 8.55442C19.5724 8.47966 19.5556 8.40266 19.5453 8.32442C19.5203 8.25942 19.5153 8.21442 19.4953 8.13942C19.4798 8.0999 19.4558 8.0655 19.4253 8.03942C19.4103 8.11942 19.3953 8.17442 19.3953 8.25442C19.3803 8.28942 19.3753 8.37442 19.3653 8.40442C19.3453 8.36942 19.3353 8.28442 19.3153 8.22942C19.3003 8.14442 19.2803 8.08942 19.2003 8.11942C19.1203 8.11942 19.1203 8.11942 19.1203 8.21942L19.2153 8.37942V8.57942C19.2153 8.65942 19.2153 8.68442 19.1653 8.69942C19.1453 8.61942 19.1053 8.53442 19.0553 8.46442C19.0553 8.40942 19.0353 8.42442 18.9853 8.42442C18.9553 8.42442 18.9203 8.41942 18.9003 8.43942V8.55942C18.8753 8.56942 18.8653 8.55942 18.8453 8.53442C18.8203 8.57942 18.8353 8.63442 18.8453 8.68442C18.8346 8.74082 18.8144 8.79494 18.7853 8.84442C18.7753 8.82442 18.7653 8.83442 18.7853 8.83442C18.7003 8.79442 18.6353 8.77442 18.5653 8.74942C18.5303 8.74942 18.4953 8.79942 18.4753 8.83442C18.4103 8.85442 18.3853 8.87442 18.3153 8.87442L18.1653 8.88442C18.1153 8.89942 18.0653 8.90442 18.0053 8.90442C17.9753 8.88942 17.9153 8.88942 17.9003 8.87442C17.9253 8.83442 17.9503 8.81442 17.9703 8.74942C18.0063 8.71958 18.0398 8.6861 18.0703 8.64942L18.1603 8.53442C18.1803 8.46442 18.2103 8.45442 18.2453 8.42442C18.3203 8.42442 18.3303 8.45442 18.4003 8.46442C18.4703 8.49442 18.5103 8.50942 18.5503 8.44942C18.6003 8.42442 18.6503 8.37942 18.7103 8.36942L18.8303 8.28442C18.8803 8.24942 18.9053 8.20942 18.9503 8.16942C18.9653 8.11442 19.0003 8.06942 18.9853 8.00442C18.9203 7.98442 18.8803 7.98942 18.8353 8.02942C18.7903 8.07942 18.7853 8.09942 18.7203 8.13942C18.6703 8.15942 18.6503 8.18442 18.5903 8.19942C18.5403 8.21942 18.4803 8.20942 18.4253 8.20942C18.3703 8.20942 18.3003 8.20942 18.2703 8.22942C18.3203 8.18942 18.3853 8.14442 18.4353 8.12942C18.4853 8.09442 18.5053 8.07942 18.5703 8.06942C18.6003 8.02942 18.6253 8.02942 18.6403 7.95942C18.6603 7.87942 18.5903 7.90442 18.5403 7.93442C18.4953 7.94442 18.4403 7.98442 18.4003 7.99942C18.3519 8.01758 18.3014 8.0277 18.2503 8.02942C18.2303 8.00442 18.2553 7.98442 18.2703 7.94942C18.3203 7.92442 18.3353 7.91442 18.3403 7.84942C18.2753 7.85942 18.2553 7.88442 18.1953 7.88942C18.1332 7.90618 18.0695 7.91626 18.0053 7.91942H17.8403C17.7803 7.91942 17.7503 7.90442 17.6803 7.90442C17.6303 7.87442 17.6303 7.86442 17.6303 7.77942C17.6703 7.72942 17.7053 7.73942 17.7803 7.73942L17.9103 7.66442C17.9553 7.65442 17.9803 7.63442 17.9703 7.61442H17.8053C17.7353 7.57942 17.8053 7.56442 17.8403 7.53942C17.8903 7.53942 17.9553 7.53942 17.9903 7.56442C18.0653 7.56442 18.0903 7.53942 18.1453 7.48442C18.1953 7.44442 18.2203 7.41442 18.2703 7.38442C18.3053 7.33942 18.3403 7.31442 18.3653 7.27442C18.4153 7.22442 18.4503 7.18942 18.4753 7.14442C18.5053 7.12442 18.5253 7.10442 18.5103 7.07442C18.4353 7.08442 18.4003 7.11942 18.3503 7.15942C18.3228 7.19174 18.2906 7.21878 18.2553 7.23942C18.2101 7.2769 18.1564 7.29942 18.1003 7.30442C18.0403 7.30442 17.9903 7.28942 17.9353 7.28442C17.8703 7.27942 17.9253 7.25942 17.9453 7.22942C17.9703 7.21442 17.9903 7.16942 17.9703 7.12942C17.9203 7.11442 17.8603 7.11942 17.8053 7.11942H17.6353C17.5703 7.11942 17.5453 7.09942 17.5003 7.07442C17.4903 7.03442 17.5003 7.04942 17.5503 7.04942C17.6029 7.04638 17.6549 7.03634 17.7053 7.01942C17.7603 7.00442 17.7703 6.97942 17.7803 6.90942C17.7203 6.90942 17.6603 6.90942 17.6253 6.89442L17.5153 6.89942ZM16.4803 6.57442C16.4703 6.47442 16.4453 6.41942 16.4453 6.31442C16.4453 6.23942 16.4453 6.28442 16.5153 6.17942L16.6153 6.07942C16.6803 6.03942 16.7353 5.99442 16.8003 5.95942C16.8503 5.92942 16.9503 5.90442 16.9853 5.87942C17.0437 5.84534 17.0948 5.79758 17.1353 5.73942C17.1453 5.65442 17.1553 5.58942 17.1553 5.48942C17.2253 5.43942 17.2803 5.40942 17.3403 5.38942C17.4253 5.35942 17.4403 5.31942 17.5303 5.30442C17.5803 5.28442 17.6703 5.28442 17.7503 5.28442C17.8303 5.28442 17.8853 5.35442 17.9603 5.36442C18.0503 5.40442 18.0903 5.43442 18.1603 5.50442C18.2003 5.56442 18.2303 5.61442 18.2953 5.65442C18.3503 5.68442 18.4053 5.73442 18.4653 5.75442C18.4653 5.82442 18.4803 5.81442 18.4353 5.81442C18.4303 5.88942 18.4153 5.87942 18.3503 5.88442C18.3054 5.85738 18.2675 5.81778 18.2403 5.76942C18.2703 5.69942 18.2553 5.82942 18.2403 5.85442C18.2153 5.88442 18.1953 5.91442 18.1603 5.88442C18.1403 5.81442 18.1253 5.76942 18.1253 5.68442C18.1153 5.59942 18.0903 5.65942 18.0753 5.69942C18.0603 5.77442 18.0653 5.79942 18.0903 5.85442C18.0253 5.85442 17.9803 5.84442 17.9353 5.83942C17.8903 5.82442 17.8353 5.83942 17.7853 5.86942C17.7253 5.91442 17.7503 5.91442 17.7753 5.96942C17.8303 5.98442 17.8753 6.01942 17.9253 6.04942L18.0903 6.00942C18.1453 5.98442 18.2003 5.99942 18.2553 6.00942C18.2853 6.02942 18.3253 6.02942 18.3403 6.04942C18.3403 6.09442 18.3403 6.13942 18.3253 6.16442C18.3053 6.18442 18.2753 6.23442 18.2403 6.24442C18.1906 6.2781 18.1366 6.30338 18.0803 6.31942C18.0053 6.31942 17.9753 6.33942 17.9203 6.36942C17.9153 6.44942 17.8953 6.46442 17.8353 6.48942C17.7837 6.51682 17.7273 6.5305 17.6703 6.52942C17.6353 6.52942 17.6003 6.52942 17.5853 6.51442C17.6278 6.46706 17.6617 6.41106 17.6853 6.34942C17.6953 6.31442 17.7153 6.29942 17.6953 6.27442C17.6253 6.27442 17.6053 6.27442 17.5953 6.35442C17.5903 6.43442 17.5653 6.44942 17.5153 6.47442C17.5303 6.40442 17.5303 6.34942 17.5503 6.28942C17.5008 6.29906 17.4506 6.3041 17.4003 6.30442C17.3603 6.32942 17.3453 6.33942 17.3603 6.38442C17.3103 6.40442 17.2503 6.39442 17.1903 6.38442C17.1403 6.38442 17.1703 6.35942 17.1303 6.33442C17.1053 6.27942 17.0803 6.26442 17.0203 6.26442C16.9953 6.30442 16.9503 6.31442 16.9203 6.34442C16.8653 6.36442 16.8303 6.34442 16.7853 6.31942C16.7253 6.31942 16.7353 6.33942 16.7503 6.38942C16.7753 6.40442 16.7503 6.42442 16.7853 6.42942C16.8203 6.46442 16.8503 6.47442 16.9153 6.47442C16.9653 6.45442 17.0253 6.45942 17.0853 6.45942C17.1453 6.45942 17.1353 6.47442 17.1353 6.53942C17.0953 6.57442 17.0353 6.56942 16.9753 6.56942C16.9257 6.56282 16.877 6.54938 16.8303 6.52942C16.7803 6.52942 16.7303 6.51442 16.6903 6.52942C16.6703 6.55442 16.6153 6.56442 16.6803 6.56942C16.7053 6.59942 16.8453 6.58442 16.8503 6.63442C16.8853 6.67442 16.8753 6.72942 16.8203 6.72942C16.8076 6.72046 16.7928 6.7157 16.7778 6.7157C16.7628 6.7157 16.748 6.72046 16.7353 6.72942L16.5803 6.73442C16.6703 6.74442 16.5153 6.62442 16.4803 6.57442Z" fill="#FEFEFE"/>
<path fill-rule="evenodd" clip-rule="evenodd" d="M16.8559 6.1087L16.7859 6.1587L16.6409 6.2737C16.6159 6.2987 16.6159 6.3137 16.5859 6.3137C16.6359 6.3087 16.6659 6.2887 16.7159 6.2637C16.7759 6.2537 16.8359 6.2387 16.8659 6.2037C16.9009 6.1937 16.8659 6.1387 16.8559 6.1037V6.1087ZM17.4059 5.4487C17.4159 5.4487 17.4309 5.4887 17.4559 5.5187C17.4759 5.5687 17.4909 5.6087 17.4909 5.6687C17.5059 5.6037 17.5309 5.5487 17.5409 5.4737C17.5209 5.4337 17.5209 5.4237 17.4659 5.4187C17.4659 5.4587 17.4759 5.4287 17.4059 5.4487Z" fill="#BCBCBC"/>
<path fill-rule="evenodd" clip-rule="evenodd" d="M17.0764 5.9457C17.0493 5.9457 17.1198 5.91402 17.1469 5.9077C17.1686 5.85702 17.1795 5.82534 17.2174 5.7937C17.2771 5.7937 17.3096 5.81902 17.3367 5.86338C17.3909 5.88238 17.4072 5.9077 17.4669 5.92038C17.4939 5.9457 17.5211 5.9457 17.4669 5.9647C17.4343 5.9837 17.3855 5.99002 17.3259 5.99002C17.2769 5.99434 17.2291 6.00938 17.1849 6.03438C17.1035 6.03438 17.1144 6.03438 17.0764 5.9457Z" fill="#C4C4C2" stroke="black" stroke-width="0.131858"/>
<path fill-rule="evenodd" clip-rule="evenodd" d="M17.625 5.45959V5.47459C17.625 5.43459 17.625 5.45459 17.635 5.53459C17.6545 5.58675 17.663 5.64319 17.66 5.69959C17.695 5.66635 17.721 5.62311 17.735 5.57459C17.735 5.46459 17.715 5.46959 17.625 5.45959ZM18.065 7.07459H18.08C18.04 7.07459 18.065 7.07459 18.125 7.03459C18.165 7.00459 18.2 6.95459 18.255 6.93459C18.3006 6.89051 18.3532 6.85659 18.41 6.83459C18.44 6.81959 18.465 6.79459 18.495 6.82459C18.49 6.88959 18.475 6.92459 18.42 6.94959C18.395 6.98959 18.355 7.01459 18.32 7.02959C18.28 7.05459 18.235 7.05459 18.22 7.10459C18.155 7.13959 18.145 7.12959 18.07 7.07459H18.065ZM18.295 7.48459C18.31 7.46459 18.39 7.37459 18.425 7.34459C18.4581 7.29111 18.4986 7.24387 18.545 7.20459C18.58 7.14459 18.625 7.10459 18.655 7.04959L18.75 6.90959C18.75 6.96959 18.74 7.04959 18.76 7.08959C18.7625 7.14959 18.7485 7.20903 18.72 7.25959C18.695 7.30959 18.67 7.33959 18.61 7.37459C18.56 7.40459 18.53 7.41459 18.485 7.45459C18.4498 7.48067 18.413 7.50403 18.375 7.52459C18.34 7.53959 18.355 7.53959 18.295 7.48459ZM17.92 7.80459H17.935C17.9 7.80459 17.915 7.80459 17.985 7.76459C18.035 7.70459 18.075 7.67959 18.135 7.65459C18.1872 7.65163 18.2383 7.63627 18.285 7.60959C18.31 7.60459 18.335 7.58459 18.35 7.60959C18.39 7.66959 18.4 7.68459 18.34 7.72459C18.3045 7.75655 18.2638 7.78035 18.22 7.79459C18.19 7.81959 18.13 7.81959 18.07 7.83459C18.03 7.83459 18 7.83959 17.98 7.80459L18.08 7.83459C18.03 7.83459 18.005 7.83959 17.92 7.80459ZM18.435 7.80459V7.79459C18.435 7.83459 18.435 7.81459 18.46 7.73459C18.51 7.65459 18.52 7.60959 18.58 7.59459C18.605 7.55459 18.655 7.54459 18.71 7.52459C18.735 7.56459 18.715 7.61459 18.71 7.66459C18.695 7.71459 18.655 7.75459 18.625 7.79459C18.59 7.81959 18.575 7.84959 18.515 7.86459C18.475 7.86459 18.5 7.86459 18.435 7.80459Z" fill="#BCBCBC"/>
<path fill-rule="evenodd" clip-rule="evenodd" d="M17.2653 5.98406C17.2653 6.01906 17.2403 6.05406 17.2053 6.05406C17.1703 6.05406 17.1453 6.01906 17.1453 5.98406C17.1453 5.94406 17.1753 5.91406 17.2053 5.91406C17.2403 5.91406 17.2653 5.93906 17.2653 5.98406Z" fill="black"/>
<path fill-rule="evenodd" clip-rule="evenodd" d="M17.4405 9.80627H17.4893C17.3375 9.80627 17.4297 9.79363 17.6791 10.028C17.7876 9.92663 17.7876 9.91395 17.8689 10.0913C17.9231 10.1863 17.934 10.0786 18.0153 9.97727C18.0533 10.18 18.075 10.389 18.2051 10.199C18.3569 10.199 18.5088 10.1863 18.5901 10.256C18.6877 10.465 18.6552 10.218 18.7311 10.313C18.948 10.3383 18.9425 10.0976 19.1703 10.0343C19.3113 10.2433 19.3763 10.085 19.5499 9.98363C19.6854 10.0216 19.8101 10.256 19.8373 10.028C19.9457 9.82527 19.9511 9.83795 20.027 10.028C20.1355 10.142 20.1789 9.97727 20.2656 9.92027C20.4283 10.028 20.6072 10.047 20.8404 9.97727C20.8838 10.161 20.9814 10.0786 21.0844 10.028C21.2959 10.1356 21.3664 10.1673 21.6104 10.028C21.7297 9.86327 21.6646 10.0343 21.7513 10.142C21.9303 10.0786 21.8815 10.066 22.0875 10.085C22.299 10.085 22.3153 10.085 22.3749 9.92027C22.4834 10.0406 22.5159 10.1293 22.6623 9.97727C22.8901 9.97727 22.8196 10.009 22.9497 9.91395C23.0527 10.1673 23.0744 9.98995 23.1937 10.085C23.1267 10.2721 23.0084 10.428 22.8575 10.5283C22.7653 10.7184 22.7057 10.9084 22.5213 10.9844C22.3858 11.1427 22.2394 11.2377 22.0875 11.377C21.8815 11.4404 21.6537 11.4277 21.4206 11.4277H19.4035C19.2625 11.5164 19.0239 11.5544 18.8287 11.5987C18.6118 11.5987 18.3569 11.5987 18.2051 11.5417C18.1021 11.4214 17.9231 11.2884 17.8255 11.149C17.7171 11.054 17.7171 10.8704 17.6303 10.7564C17.5544 10.598 17.5219 10.3446 17.4405 10.199V9.80627Z" fill="#005120" stroke="#002B0D" stroke-width="0.195345"/>
<path fill-rule="evenodd" clip-rule="evenodd" d="M22.0877 10.3125V10.3632C22.0877 10.2112 22.0932 10.2935 21.9902 10.5912C21.9739 10.6608 21.9251 10.6798 21.8492 10.7052M21.6594 10.5342H21.7082C21.5293 10.7242 21.4099 10.8192 21.372 11.0409L21.7082 10.5342C21.5293 10.7242 21.4099 10.8192 21.372 11.0409M20.987 10.2555C20.987 10.2555 20.9816 10.4518 20.9382 10.5342L20.987 10.2555ZM20.4122 10.3125H20.461H20.4068C20.4285 10.3125 20.4448 10.3125 20.4068 10.3125H20.4122ZM17.7281 10.3125C17.7498 10.3125 17.8474 10.4898 17.9667 10.5912C17.9396 10.7558 17.8908 10.9458 17.9667 11.0979M18.1131 10.6482C18.1348 10.6482 18.227 10.8255 18.3517 10.9268L18.1131 10.6482C18.1348 10.6482 18.227 10.8255 18.3517 10.9268V10.9838C18.3517 10.8065 18.3409 10.6292 18.4005 10.5342C18.4547 10.6418 18.5198 10.8065 18.5415 10.6482C18.8126 10.6355 18.9428 10.5468 19.1163 10.4772C19.1163 10.5595 19.1054 10.5215 19.1705 10.5912M22.4239 10.3632H22.4727C22.3806 10.4518 22.3101 10.6355 22.2341 10.7558" fill="#005120"/>
<path d="M22.0877 10.3125V10.3632C22.0877 10.2112 22.0932 10.2935 21.9902 10.5912C21.9739 10.6608 21.9251 10.6798 21.8492 10.7052M21.6594 10.5342H21.7082M21.7082 10.5342C21.5293 10.7242 21.4099 10.8192 21.372 11.0409L21.7082 10.5342ZM20.987 10.2555C20.987 10.2555 20.9816 10.4518 20.9382 10.5342M20.7972 10.6482V10.6988M20.4068 10.3125H20.461H20.4122H20.4068ZM20.4068 10.3125C20.4285 10.3125 20.4448 10.3125 20.4068 10.3125ZM17.7281 10.3125C17.7498 10.3125 17.8474 10.4898 17.9667 10.5912C17.9396 10.7558 17.8908 10.9458 17.9667 11.0979M18.3517 10.9268C18.227 10.8255 18.1348 10.6482 18.1131 10.6482L18.3517 10.9268ZM18.3517 10.9268V10.9838C18.3517 10.8065 18.3409 10.6292 18.4005 10.5342C18.4547 10.6418 18.5198 10.8065 18.5415 10.6482C18.8126 10.6355 18.9428 10.5468 19.1163 10.4772C19.1163 10.5595 19.1054 10.5215 19.1705 10.5912M22.4239 10.3632H22.4727C22.3806 10.4518 22.3101 10.6355 22.2341 10.7558M20.461 10.1985H20.8406" stroke="#002B0D" stroke-width="0.195345"/>
<path fill-rule="evenodd" clip-rule="evenodd" d="M17.2953 10.7156C16.7203 10.7156 16.5253 11.3906 15.9503 11.3906H15.9203V11.4306C15.9203 11.9006 15.9503 12.3356 16.0103 12.7406C16.5403 12.7006 16.7353 12.0706 17.2953 12.0706C17.8703 12.0706 18.0603 12.7406 18.6353 12.7406C19.2153 12.7406 19.4053 12.0706 19.9803 12.0706C20.5553 12.0706 20.7503 12.7406 21.3253 12.7406C21.9003 12.7406 22.0903 12.0706 22.6653 12.0706C23.2153 12.0706 23.4153 12.6956 23.9453 12.7406C24.0118 12.2945 24.0435 11.8428 24.0403 11.3906H24.0053C23.4303 11.3906 23.2403 10.7206 22.6653 10.7206C22.0903 10.7206 21.8953 11.3956 21.3253 11.3956C20.7503 11.3956 20.5553 10.7206 19.9753 10.7206C19.4053 10.7206 19.2103 11.3956 18.6353 11.3956C18.0653 11.3956 17.8703 10.7206 17.2953 10.7206V10.7156ZM17.2953 13.3506C16.8453 13.3506 16.6353 13.7606 16.2853 13.9406C16.4006 14.2962 16.5445 14.6393 16.7153 14.9656C16.8803 14.8256 17.0503 14.7056 17.2953 14.7056C17.8703 14.7056 18.0603 15.3806 18.6353 15.3806C19.2153 15.3806 19.4053 14.7056 19.9803 14.7056C20.5553 14.7056 20.7503 15.3806 21.3203 15.3806C21.8903 15.3806 22.0903 14.7056 22.6653 14.7056C22.8735 14.7141 23.0728 14.8023 23.2303 14.9556C23.4006 14.6307 23.5445 14.2893 23.6603 13.9356C23.3253 13.7506 23.1103 13.3506 22.6603 13.3506C22.0903 13.3506 21.8953 14.0256 21.3203 14.0256C20.7453 14.0256 20.5503 13.3506 19.9803 13.3506C19.4103 13.3506 19.2103 14.0256 18.6353 14.0256C18.0653 14.0256 17.8703 13.3506 17.2953 13.3506ZM19.9803 15.9856C19.4053 15.9856 19.2103 16.6606 18.6353 16.6606C18.0903 16.6606 17.8903 16.0606 17.3853 15.9906C17.9261 16.6638 18.5937 17.2244 19.3503 17.6406C19.5303 17.4806 19.7153 17.8206 19.9753 17.8206C20.2403 17.8206 20.4253 17.4756 20.6003 17.6306C21.3367 17.2293 21.9985 16.6745 22.5503 15.9956C22.0603 16.0806 21.8503 16.6606 21.3203 16.6606C20.7453 16.6606 20.5553 15.9856 19.9803 15.9856Z" fill="white"/>
<path d="M16.4141 13.4127C16.6004 13.3386 16.7897 13.2755 16.9815 13.2234L17.8623 14.2139L17.1382 14.3842L16.4141 13.4127Z" stroke="#512007" stroke-width="0.072988"/>
<path d="M18.1516 15.0293C18.1653 14.7994 18.5548 13.4797 18.5548 13.4797M18.2844 15.0443L18.5915 13.4897M18.3898 15.0493L18.6465 13.4897M18.1653 14.8394C18.234 14.7994 18.4311 14.7394 18.4311 14.7394M18.2616 14.6095C18.3257 14.6095 18.4586 14.5495 18.4586 14.5495M18.2982 14.4345C18.3635 14.4076 18.431 14.3875 18.4998 14.3745M18.3257 14.2145L18.5411 14.1746M18.4219 14.0246C18.4219 14.0396 18.5686 14.0396 18.5686 14.0396M18.4586 13.8547L18.6052 13.8797" stroke="#512007" stroke-width="0.0717923"/>
<path d="M20.6672 15.9916C20.651 15.5987 20.1916 13.3438 20.1916 13.3438M20.5105 15.9147L20.1484 13.3523M20.3484 15.7183C20.3376 15.5731 20.0836 13.3608 20.0836 13.3608M20.651 15.667C20.5699 15.5987 20.3375 15.4962 20.3375 15.4962M20.5375 15.2741C20.4618 15.2741 20.3051 15.1716 20.3051 15.1716M20.4942 14.9751C20.4172 14.9291 20.3376 14.8948 20.2565 14.8727M20.4618 14.5993L20.2078 14.531M20.3484 14.2747C20.3484 14.3004 20.1754 14.3004 20.1754 14.3004M20.3051 13.9843L20.1322 14.0271" stroke="#512007" stroke-width="0.0679401"/>
<path d="M22.0031 15.1838C21.9869 14.8936 21.5276 13.228 21.5276 13.228M21.8464 15.1271L21.4843 13.2343M21.6843 14.9819C21.6735 14.8747 21.4195 13.2407 21.4195 13.2407M21.9869 14.9441C21.9059 14.8936 21.6735 14.8179 21.6735 14.8179M21.8735 14.6539C21.7978 14.6539 21.6411 14.5781 21.6411 14.5781M21.8302 14.4331C21.7532 14.3991 21.6736 14.3737 21.5924 14.3573M21.7978 14.1555L21.5438 14.105M21.6843 13.9157C21.6843 13.9346 21.5114 13.9346 21.5114 13.9346M21.6411 13.7012L21.4681 13.7327" stroke="#512007" stroke-width="0.072988"/>
<path fill-rule="evenodd" clip-rule="evenodd" d="M19.8075 15.3562L19.8561 10.7506C19.8561 10.7506 19.9966 10.7317 19.9966 10.7506C19.9966 10.7695 19.9804 15.3373 19.9642 15.3562C19.9479 15.3751 19.7912 15.3877 19.8075 15.3562ZM21.3476 10.9525L21.3152 14.8199L21.2071 14.9713L21.2395 10.9525H21.3476Z" fill="#DD8B59" stroke="#512007" stroke-width="0.072988"/>
<path fill-rule="evenodd" clip-rule="evenodd" d="M18.0611 14.5988C18.0611 14.5988 18.2232 16.4915 20.0282 16.4347C21.8331 16.378 22.3357 14.5294 22.3357 14.5294L21.5521 14.4916C21.5359 14.4916 20.9252 15.3748 20.1362 15.3559C19.3473 15.337 19.0987 15.1162 18.9258 14.9332C18.7528 14.7439 18.6015 14.4727 18.6015 14.4727L17.6828 14.0499L17.7368 14.4537L18.0611 14.5988ZM22.941 14.4095L22.8869 14.1572V13.9427L22.9734 13.7156C22.9734 13.7156 21.6062 13.949 21.6062 13.9679L21.6008 14.3969L22.941 14.4033V14.4095Z" fill="#DD8B59" stroke="#512007" stroke-width="0.072988"/>
<path d="M18.0016 14.5793C18.0502 14.5793 18.4123 14.674 18.4123 14.674L18.7906 15.2607M22.6815 13.9421L22.6491 14.3207H22.8707L22.8544 13.9421H22.6815ZM22.4491 13.9611L22.4329 14.3648L22.5734 14.3459L22.5896 13.9611H22.4491ZM22.2113 14.3648V14.0494L22.3519 13.9926L22.3681 14.3081L22.2113 14.3648ZM21.9411 14.3459L21.9736 14.0683L22.1357 14.0872L22.1465 14.3837L21.9411 14.3459ZM21.6439 14.3459L21.6601 14.1062L21.8223 14.0872V14.3648L21.6439 14.3459Z" stroke="#512007" stroke-width="0.072988"/>
<path d="M18.2672 14.6561C18.2834 14.675 18.5969 15.9053 20.1046 15.9053C21.6123 15.9053 21.9744 14.511 21.9744 14.511" stroke="#512007" stroke-width="0.072988"/>
<path d="M22.2116 14.5483C22.2116 14.5483 21.4875 16.3779 20.104 16.2518C18.726 16.1256 18.5044 15.5199 18.3964 15.2045C18.2883 14.889 18.2234 14.6367 18.2234 14.6367" stroke="#512007" stroke-width="0.072988"/>
<path fill-rule="evenodd" clip-rule="evenodd" d="M18.613 14.4728C18.6292 14.3656 18.6292 11.0407 18.6292 11.0407L18.5373 11.0281L18.5211 14.416L18.613 14.4791V14.4728ZM16.3703 13.394L17.5592 14.069L17.5322 14.1637C17.5322 14.1637 16.3865 13.5328 16.3865 13.5138C16.3865 13.4949 16.3973 13.4192 16.3703 13.3877V13.394Z" fill="#DD8B59" stroke="#512007" stroke-width="0.072988"/>
<path fill-rule="evenodd" clip-rule="evenodd" d="M16.9156 13.1923C16.9156 13.2428 17.0886 14.3658 17.0886 14.3658C17.0886 14.3658 17.1966 14.3847 17.1966 14.3658L17.0129 13.2113L16.9156 13.1923ZM18.018 13.2239C18.0775 13.2239 19.1529 13.022 19.1529 13.022L19.1313 13.2239L18.0775 13.3501L18.018 13.2239Z" fill="#DD8B59" stroke="#512007" stroke-width="0.072988"/>
<path fill-rule="evenodd" clip-rule="evenodd" d="M18.1703 11.7039C18.2082 11.7039 18.5486 11.9059 18.6945 11.8554C18.8404 11.8049 18.7432 11.6661 18.7702 11.6661C18.8026 11.6661 18.9107 11.7607 18.9755 11.685C19.0404 11.6156 19.0836 11.3948 19.0566 11.4137C19.0242 11.4327 18.1919 11.7797 18.1757 11.7039H18.1703Z" fill="#FECF3E" stroke="#512007" stroke-width="0.072988"/>
<path fill-rule="evenodd" clip-rule="evenodd" d="M18.0344 12.1646C18.0938 12.1836 19.3206 11.7798 19.3206 11.7798C19.3206 11.7798 19.3206 11.906 19.3043 11.906L18.0344 12.2908V12.1646Z" fill="#DD8B59" stroke="#512007" stroke-width="0.072988"/>
<path fill-rule="evenodd" clip-rule="evenodd" d="M20.8718 11.5967C20.8718 11.5967 20.9528 11.8175 21.0339 11.7797C21.115 11.7418 21.1906 11.6661 21.1906 11.6661C21.1906 11.6661 21.2555 11.8554 21.3636 11.8175C21.4716 11.7797 21.5365 11.5778 21.5365 11.5778C21.5365 11.5778 21.6446 11.6156 21.6932 11.5967C21.7418 11.5778 21.8013 11.2812 21.8013 11.2812L20.8772 11.5967H20.8718ZM20.7799 13.3759C20.7637 13.4137 20.861 13.5021 20.942 13.5021C21.0231 13.5021 21.0501 13.3759 21.0663 13.4137C21.0826 13.4453 21.0826 13.6156 21.2825 13.5588C21.4824 13.502 21.4878 13.338 21.4878 13.338C21.4878 13.338 21.4284 13.3948 21.5689 13.4137C21.7094 13.4327 21.8499 13.174 21.8391 13.174C21.8175 13.174 20.8123 13.3948 20.7799 13.3759Z" fill="#FECF3E" stroke="#512007" stroke-width="0.072988"/>
<path fill-rule="evenodd" clip-rule="evenodd" d="M18.0836 11.6279C18.0737 11.6848 18.0775 11.7437 18.0945 11.7983L19.1212 11.3945C19.1212 11.3945 19.1645 11.2998 19.1212 11.2998C19.078 11.2998 18.0674 11.6658 18.0782 11.6342L18.0836 11.6279ZM19.4347 11.3756C19.4617 11.3756 20.483 10.9907 20.483 10.9907C20.483 10.9907 20.4993 11.1548 20.483 11.1548L19.5265 11.4828L19.4293 11.3756H19.4347Z" fill="#DD8B59" stroke="#512007" stroke-width="0.072988"/>
<path fill-rule="evenodd" clip-rule="evenodd" d="M20.78 12.1832C20.78 12.1832 20.6233 12.3851 20.6719 12.6564C20.7205 12.934 20.78 13.1737 20.7962 13.1737C20.8124 13.1737 20.9853 12.8078 21.1745 12.7889C21.3636 12.7699 21.7095 12.9907 21.7095 12.9907C21.7095 12.9907 21.6608 12.5491 21.677 12.3472C21.6933 12.1453 21.9581 11.7983 21.9581 11.7983L20.78 12.1769V12.1832Z" fill="#FECF3E" stroke="#512007" stroke-width="0.072988"/>
<path fill-rule="evenodd" clip-rule="evenodd" d="M19.3536 11.8486C19.3536 11.8486 19.3211 12.019 19.3374 12.019L20.6722 11.6152V11.4954L19.3536 11.8424V11.8486Z" fill="#DD8B59" stroke="#512007" stroke-width="0.072988"/>
<path fill-rule="evenodd" clip-rule="evenodd" d="M17.6572 14.069C17.6572 14.069 17.3437 14.0186 17.36 14.1069C17.3762 14.2015 17.5167 14.2899 17.5329 14.3466C17.5491 14.4034 17.4843 14.599 17.5815 14.5864C17.6734 14.5674 17.7653 14.4918 17.7653 14.435L17.7491 14.1195L17.6572 14.069Z" fill="#B6B6B4" stroke="#512007" stroke-width="0.072988"/>
<path fill-rule="evenodd" clip-rule="evenodd" d="M19.4016 13.1546V13.2808L20.531 13.0978L20.4986 13.0032L19.4016 13.1546Z" fill="#DD8B59" stroke="#512007" stroke-width="0.072988"/>
<path fill-rule="evenodd" clip-rule="evenodd" d="M18.0615 13.376C18.0831 13.376 18.0615 13.54 18.1911 13.5022C18.3155 13.4643 18.3479 13.376 18.3479 13.376C18.3479 13.376 18.3803 13.5779 18.5532 13.559C18.7261 13.54 18.8234 13.3192 18.8234 13.3192C18.8234 13.3192 18.8342 13.4832 18.9423 13.4264C19.0504 13.3697 19.0828 13.2435 19.0828 13.2435L18.0939 13.4075L18.0669 13.376H18.0615ZM18.0615 12.2908C18.0615 12.2908 17.9209 12.3476 17.9696 12.6757C18.0182 13.0038 18.1317 13.193 18.1425 13.193C18.1587 13.193 18.283 12.8776 18.4722 12.8271C18.6613 12.764 18.9909 12.9911 18.9909 12.9911C18.9909 12.9911 18.9585 12.6946 19.0072 12.4233C19.0419 12.2466 19.1123 12.0822 19.2125 11.9438C19.2125 11.9438 18.1101 12.2908 18.0669 12.2908H18.0615Z" fill="#FECF3E" stroke="#512007" stroke-width="0.072988"/>
<path fill-rule="evenodd" clip-rule="evenodd" d="M20.7037 13.2428L20.7199 13.3563C20.7199 13.3563 21.8547 13.1923 21.8547 13.167C21.8547 13.1544 21.8547 13.0409 21.8331 13.0409C21.8169 13.0409 20.7199 13.2617 20.6983 13.2428H20.7037ZM20.6875 12.0693L20.7037 12.1955L22.0385 11.7791C22.0385 11.7791 22.0709 11.6655 22.0547 11.6655C22.0385 11.6655 20.7199 12.1261 20.6875 12.0693Z" fill="#DD8B59" stroke="#512007" stroke-width="0.072988"/>
<path d="M22.9205 13.6093L21.9477 11.8175M21.8181 13.0604C21.8343 13.0099 21.8829 11.9058 21.8829 11.9058M20.8291 11.4831C20.8291 11.4831 20.8129 11.5967 20.8291 11.5967C20.8453 11.5967 21.8181 11.3191 21.8181 11.3002C21.8181 11.2813 21.9153 11.174 21.8343 11.1929C21.7586 11.2119 20.8615 11.5399 20.8291 11.4831Z" stroke="#512007" stroke-width="0.072988"/>
<path fill-rule="evenodd" clip-rule="evenodd" d="M19.4672 11.4326C19.5212 11.4452 19.6347 11.6345 19.6995 11.5967C19.7644 11.5588 19.8562 11.4452 19.8562 11.4452C19.8562 11.4452 19.84 11.6661 19.9643 11.6345C20.094 11.5967 20.1102 11.4452 20.1102 11.4452C20.1102 11.4452 20.2021 11.5083 20.2832 11.4452C20.3588 11.3948 20.4345 11.1172 20.4075 11.1172C20.3804 11.1172 19.4942 11.4452 19.4618 11.4326H19.4672ZM19.4347 11.9626C19.4347 12.0004 19.2726 12.2907 19.3266 12.5683C19.3807 12.8459 19.4618 13.0982 19.478 13.0982C19.4942 13.0982 19.732 12.808 19.9373 12.7512C20.1373 12.6944 20.4399 12.9342 20.4237 12.9342C20.4075 12.9342 20.3426 12.6566 20.3426 12.4547C20.3426 12.2528 20.5804 11.6345 20.5804 11.6345L19.4347 11.9626ZM19.4347 13.2875C19.4347 13.3001 19.478 13.4263 19.5914 13.4263C19.6995 13.4263 19.7158 13.3001 19.7158 13.3001C19.7158 13.3001 19.6995 13.5209 19.8725 13.502C20.0454 13.4831 20.1048 13.2812 20.1048 13.2812C20.1048 13.2812 20.121 13.3947 20.267 13.3379C20.4075 13.2812 20.5912 13.0982 20.5804 13.0982C20.5642 13.0982 19.4456 13.3379 19.4293 13.2875H19.4347Z" fill="#FECF3E" stroke="#512007" stroke-width="0.072988"/>
<path fill-rule="evenodd" clip-rule="evenodd" d="M19.5638 12.5845C19.586 12.5855 19.607 12.5969 19.6221 12.6161C19.6372 12.6353 19.6452 12.6607 19.6443 12.6869C19.6435 12.7131 19.6338 12.7378 19.6175 12.7556C19.6011 12.7734 19.5795 12.7829 19.5573 12.7819C19.535 12.7809 19.5141 12.7696 19.499 12.7504C19.4839 12.7312 19.4759 12.7057 19.4768 12.6795C19.4776 12.6533 19.4873 12.6287 19.5036 12.6108C19.52 12.593 19.5416 12.5836 19.5638 12.5845Z" fill="#BE0F17" stroke="#512007" stroke-width="0.0718338"/>
<path fill-rule="evenodd" clip-rule="evenodd" d="M20.1341 12.4141C20.1563 12.4151 20.1773 12.4264 20.1924 12.4456C20.2075 12.4648 20.2155 12.4903 20.2146 12.5165C20.2137 12.5426 20.2041 12.5674 20.1878 12.5852C20.1714 12.603 20.1498 12.6124 20.1275 12.6115C20.1053 12.6105 20.0844 12.5992 20.0693 12.58C20.0542 12.5608 20.0462 12.5353 20.0471 12.5091C20.0479 12.483 20.0576 12.4582 20.0739 12.4404C20.0903 12.4226 20.1119 12.4132 20.1341 12.4141Z" fill="#BE0F17" stroke="#512007" stroke-width="0.0718338"/>
<path fill-rule="evenodd" clip-rule="evenodd" d="M19.8497 12.7642C19.872 12.7652 19.8929 12.7765 19.908 12.7957C19.9231 12.8149 19.9311 12.8404 19.9303 12.8666C19.9294 12.8927 19.9197 12.9175 19.9034 12.9353C19.8871 12.9531 19.8654 12.9625 19.8432 12.9616C19.8209 12.9606 19.8 12.9493 19.7849 12.9301C19.7698 12.9109 19.7618 12.8854 19.7627 12.8592C19.7635 12.8331 19.7732 12.8083 19.7895 12.7905C19.8059 12.7727 19.8275 12.7633 19.8497 12.7642Z" fill="#BE0F17" stroke="#512007" stroke-width="0.0718338"/>
<path fill-rule="evenodd" clip-rule="evenodd" d="M19.8497 12.2298C19.872 12.2308 19.8929 12.2421 19.908 12.2613C19.9231 12.2805 19.9311 12.306 19.9303 12.3322C19.9294 12.3583 19.9197 12.383 19.9034 12.4008C19.8871 12.4186 19.8654 12.4281 19.8432 12.4271C19.8209 12.4262 19.8 12.4148 19.7849 12.3956C19.7698 12.3764 19.7618 12.351 19.7627 12.3248C19.7635 12.2986 19.7732 12.2739 19.7895 12.2561C19.8059 12.2383 19.8275 12.2288 19.8497 12.2298Z" fill="#BE0F17" stroke="#512007" stroke-width="0.0718338"/>
<path d="M19.9638 10.8005C19.9638 10.7879 20.4501 11.0403 20.4501 11.0592C20.4501 11.0781 22.1794 13.7595 22.1957 13.7595M21.331 11.0592L21.7741 11.28L21.9146 11.6838M18.5965 11.0277C18.5803 11.0277 19.0829 11.4693 19.0829 11.4693L19.1477 11.8289M16.8889 13.7027C17.105 13.5954 18.629 12.0371 18.629 12.0371M16.4781 13.4061L18.1912 11.7216M19.3369 11.974L20.9581 15.1159M20.7636 13.2737C20.7636 13.2737 20.9527 14.0118 21.1419 14.1254C21.2829 14.2138 21.42 14.3107 21.5525 14.4156" stroke="#512007" stroke-width="0.072988"/>
<path d="M20.7422 13.2937C20.7422 13.2937 20.8773 14.1643 21.0664 14.3284C21.2555 14.4924 21.4447 14.6754 21.4447 14.6754" stroke="#512007" stroke-width="0.072988"/>
<path d="M19.4406 13.2859C19.4406 13.2859 19.6243 14.4972 20.0026 14.7748C20.2344 14.943 20.4649 15.1134 20.6943 15.2859" stroke="#512007" stroke-width="0.072988"/>
<path d="M19.4249 13.2671C19.4249 13.2671 19.8302 14.2261 20.1814 14.5163C20.5219 14.8128 20.9921 15.0841 20.9921 15.0841M18.1063 13.3491C18.2143 13.5699 18.1981 13.9926 18.3224 14.1377C18.4367 14.2885 18.5415 14.4487 18.6359 14.6172M18.1333 13.3617C18.1981 13.469 18.3711 14.0179 18.4791 14.1819C18.5602 14.3333 19.36 15.2671 19.36 15.2671" stroke="#512007" stroke-width="0.072988"/>
<path fill-rule="evenodd" clip-rule="evenodd" d="M19.0956 15.3112C19.0956 15.3294 19.0925 15.3474 19.0865 15.3643C19.0805 15.3811 19.0718 15.3964 19.0607 15.4093C19.0497 15.4222 19.0366 15.4324 19.0222 15.4394C19.0077 15.4464 18.9923 15.45 18.9767 15.45C18.9611 15.45 18.9456 15.4464 18.9312 15.4394C18.9168 15.4324 18.9037 15.4222 18.8926 15.4093C18.8816 15.3964 18.8728 15.3811 18.8669 15.3643C18.8609 15.3474 18.8578 15.3294 18.8578 15.3112C18.8578 15.2744 18.8703 15.239 18.8926 15.213C18.9149 15.187 18.9451 15.1724 18.9767 15.1724C19.0082 15.1724 19.0385 15.187 19.0607 15.213C19.0831 15.239 19.0956 15.2744 19.0956 15.3112ZM19.6738 15.6077C19.6738 15.6395 19.663 15.67 19.6437 15.6925C19.6245 15.715 19.5983 15.7276 19.5711 15.7276C19.5439 15.7276 19.5178 15.715 19.4985 15.6925C19.4793 15.67 19.4685 15.6395 19.4685 15.6077C19.4685 15.5759 19.4793 15.5454 19.4985 15.5229C19.5178 15.5004 19.5439 15.4878 19.5711 15.4878C19.5983 15.4878 19.6245 15.5004 19.6437 15.5229C19.663 15.5454 19.6738 15.5759 19.6738 15.6077ZM20.4142 15.6834C20.4142 15.7152 20.4033 15.7457 20.3841 15.7682C20.3648 15.7906 20.3387 15.8033 20.3115 15.8033C20.2843 15.8033 20.2581 15.7906 20.2389 15.7682C20.2196 15.7457 20.2088 15.7152 20.2088 15.6834C20.2088 15.6516 20.2196 15.6211 20.2389 15.5986C20.2581 15.5762 20.2843 15.5635 20.3115 15.5635C20.3387 15.5635 20.3648 15.5762 20.3841 15.5986C20.4033 15.6211 20.4142 15.6516 20.4142 15.6834ZM21.0573 15.3995C21.0573 15.4626 21.0194 15.5068 20.9708 15.5068C20.9221 15.5068 20.8843 15.4563 20.8843 15.3995C20.8843 15.3427 20.9221 15.2859 20.9708 15.2859C21.0194 15.2859 21.0573 15.3364 21.0573 15.3995ZM21.576 15.0399C21.576 15.0967 21.5274 15.1408 21.4733 15.1408C21.4193 15.1408 21.3707 15.0967 21.3707 15.0399C21.3707 14.9831 21.4193 14.939 21.4733 14.939C21.5274 14.939 21.576 14.9831 21.576 15.0399Z" fill="black" stroke="#512007" stroke-width="0.072988"/>
<path fill-rule="evenodd" clip-rule="evenodd" d="M18.5281 11.1026C18.4795 11.1405 17.6959 11.3613 17.804 11.3423C17.9121 11.3234 18.5443 11.5316 18.5281 11.4685C18.5119 11.4054 18.5281 11.1405 18.5281 11.1026ZM19.8629 10.8313C19.8305 10.8313 19.3766 11.0332 19.3928 11.0332C19.409 11.0332 19.9116 11.1972 19.8954 11.1594C19.8791 11.1215 19.8791 10.8818 19.8629 10.8313ZM21.2302 11.0143C21.1977 11.0332 20.6627 11.1783 20.76 11.1972C20.8573 11.2162 21.2139 11.3613 21.2139 11.3234C21.2139 11.2919 21.2139 11.0332 21.2302 11.008V11.0143Z" fill="#FF0000" stroke="#512007" stroke-width="0.072988"/>
<path d="M20.6625 15.3042C20.6787 15.014 21.138 13.3484 21.138 13.3484M20.8192 15.2474L21.1813 13.3547M20.9813 15.1023C20.9922 14.995 21.2461 13.361 21.2461 13.361M20.6787 15.0644C20.7598 15.014 20.9922 14.9383 20.9922 14.9383M20.7922 14.7742C20.8678 14.7742 21.0246 14.6985 21.0246 14.6985M20.8354 14.5534C20.9124 14.5194 20.9921 14.4941 21.0732 14.4777M20.8678 14.2758L21.1218 14.2253M20.9813 14.0361C20.9813 14.055 21.1543 14.055 21.1543 14.055M21.0246 13.8215L21.1975 13.8531" stroke="#512007" stroke-width="0.072988"/>
<path d="M19.3219 15.5163C19.3381 15.2127 19.7975 13.4702 19.7975 13.4702M19.4786 15.5361L19.8407 13.4834M19.6029 15.5427L19.9055 13.4834M19.3381 15.2655C19.4192 15.2127 19.6515 15.1335 19.6515 15.1335M19.4516 14.9619C19.5273 14.9619 19.684 14.8827 19.684 14.8827M19.4948 14.7309C19.5719 14.6953 19.6515 14.6688 19.7326 14.6517M19.5273 14.4405L19.7813 14.3877M19.6407 14.1896C19.6407 14.2094 19.8137 14.2094 19.8137 14.2094M19.684 13.9652L19.8569 13.9982" stroke="#512007" stroke-width="0.0746533"/>
<path d="M19.3172 15.3829C19.301 15.0882 18.8417 13.397 18.8417 13.397M19.1605 15.3252L18.7984 13.4034M18.9984 15.1779C18.9876 15.069 18.7336 13.4098 18.7336 13.4098M19.301 15.1394C19.2199 15.0882 18.9875 15.0113 18.9875 15.0113M19.1875 14.8447C19.1119 14.8447 18.9551 14.7679 18.9551 14.7679M19.1443 14.6205C19.0673 14.586 18.9876 14.5603 18.9065 14.5437M19.1119 14.3387L18.8579 14.2874M18.9984 14.0952C18.9984 14.1145 18.8254 14.1145 18.8254 14.1145M18.9551 13.8774L18.7822 13.9095" stroke="#512007" stroke-width="0.0735473"/>
<path fill-rule="evenodd" clip-rule="evenodd" d="M21.4887 14.4916L22.9802 14.5294L22.9964 14.4032L21.4562 14.3843L21.4887 14.4916ZM21.5535 14.031C21.7264 14.031 23.0288 13.7408 23.0288 13.7408C23.0288 13.7408 23.0775 13.5515 23.0288 13.5515C22.9802 13.5515 21.5535 13.9048 21.5535 13.9048V14.031Z" fill="#DD8B59" stroke="#512007" stroke-width="0.072988"/>
<path fill-rule="evenodd" clip-rule="evenodd" d="M19.8497 12.4969C19.872 12.4979 19.8929 12.5092 19.908 12.5284C19.9231 12.5476 19.9311 12.5731 19.9303 12.5992C19.9294 12.6254 19.9197 12.6501 19.9034 12.6679C19.8871 12.6857 19.8654 12.6952 19.8432 12.6942C19.8209 12.6932 19.8 12.6819 19.7849 12.6627C19.7698 12.6435 19.7618 12.618 19.7627 12.5919C19.7635 12.5657 19.7732 12.541 19.7895 12.5232C19.8059 12.5054 19.8275 12.4959 19.8497 12.4969Z" fill="#BE0F17" stroke="#512007" stroke-width="0.0718338"/>
<path d="M-4 0H12V12H-4V0Z" fill="#012169"/>
<path d="M-2.125 0L3.975 4.525L10.05 0H12V1.55L6 6.025L12 10.475V12H10L4 7.525L-1.975 12H-4V10.5L1.975 6.05L-4 1.6V0H-2.125Z" fill="white"/>
<path d="M6.6 7.025L12 11V12L5.225 7.025H6.6ZM2 7.525L2.15 8.4L-2.65 12H-4L2 7.525ZM12 0V0.075L5.775 4.775L5.825 3.675L10.75 0H12ZM-4 0L1.975 4.4H0.475L-4 1.05V0Z" fill="#C8102E"/>
<path d="M2.025 0V12H6.025V0H2.025ZM-4 4V8H12V4H-4Z" fill="white"/>
<path d="M-4 4.825V7.225H12V4.825H-4ZM2.825 0V12H5.225V0H2.825Z" fill="#C8102E"/>
</g>
</g>
</g>
<defs>
<linearGradient id="paint0_linear_69_5832" x1="6.92924" y1="28.4671" x2="8.12576" y2="27.8598" gradientUnits="userSpaceOnUse">
<stop stop-color="#A43907"/>
<stop offset="1" stop-color="white"/>
</linearGradient>
<linearGradient id="paint1_linear_69_5832" x1="17.3781" y1="16.7728" x2="15.8406" y2="16.0227" gradientUnits="userSpaceOnUse">
<stop stop-color="#A43907"/>
<stop offset="1" stop-color="white"/>
</linearGradient>
<linearGradient id="paint2_linear_69_5832" x1="18.1197" y1="17.3852" x2="14.9112" y2="17.0095" gradientUnits="userSpaceOnUse">
<stop stop-color="#A43907"/>
<stop offset="1" stop-color="white"/>
</linearGradient>
<linearGradient id="paint3_linear_69_5832" x1="24.1007" y1="15.9178" x2="22.6301" y2="15.9874" gradientUnits="userSpaceOnUse">
<stop stop-color="#A43907"/>
<stop offset="1" stop-color="white"/>
</linearGradient>
<linearGradient id="paint4_linear_69_5832" x1="24.8871" y1="16.7888" x2="21.7404" y2="16.9579" gradientUnits="userSpaceOnUse">
<stop stop-color="#A43907"/>
<stop offset="1" stop-color="white"/>
</linearGradient>
<linearGradient id="paint5_linear_69_5832" x1="24.4391" y1="17.8139" x2="15.6257" y2="17.8139" gradientUnits="userSpaceOnUse">
<stop stop-color="#A43907"/>
<stop offset="1" stop-color="white"/>
</linearGradient>
<linearGradient id="paint6_linear_69_5832" x1="15.7944" y1="18.5117" x2="28.6402" y2="18.5527" gradientUnits="userSpaceOnUse">
<stop stop-color="#A43907"/>
<stop offset="1" stop-color="white"/>
</linearGradient>
<linearGradient id="paint7_linear_69_5832" x1="24.8944" y1="17.6392" x2="23.8456" y2="17.6666" gradientUnits="userSpaceOnUse">
<stop stop-color="#A43907"/>
<stop offset="1" stop-color="white"/>
</linearGradient>
<linearGradient id="paint8_linear_69_5832" x1="15.5883" y1="18.8827" x2="16.5957" y2="18.9419" gradientUnits="userSpaceOnUse">
<stop stop-color="#A43907"/>
<stop offset="1" stop-color="white"/>
</linearGradient>
<linearGradient id="paint9_linear_69_5832" x1="16.3331" y1="18.6273" x2="14.4671" y2="18.2131" gradientUnits="userSpaceOnUse">
<stop stop-color="#A43907"/>
<stop offset="1" stop-color="white"/>
</linearGradient>
<clipPath id="clip0_69_5832">
<rect width="24" height="24" rx="12" fill="white"/>
</clipPath>
<clipPath id="clip1_69_5832">
<rect width="32" height="24" fill="white" transform="translate(-4)"/>
</clipPath>
</defs>
</svg>
