<svg width="24" height="24" viewBox="0 0 24 24" fill="none" xmlns="http://www.w3.org/2000/svg">
<g clip-path="url(#clip0_69_5918)">
<path fill-rule="evenodd" clip-rule="evenodd" d="M-6 -1.59985H30V25.2001H-6V-1.59985Z" fill="#6797D6"/>
<path fill-rule="evenodd" clip-rule="evenodd" d="M12.0191 7.13568L10.877 7.91823L11.3141 6.65277L10.1685 5.87022H11.582L12.0191 4.60474L12.4562 5.87373H13.8662L12.7241 6.65277L13.1612 7.91823M12.0191 16.5474L10.877 15.7649L11.3141 17.0339L10.1685 17.8129H11.582L12.0191 19.0784L12.4562 17.8094L13.8662 17.8129L12.7241 17.0304L13.1612 15.7649M6.52012 12.5078L5.65648 13.5864L5.70583 12.2469L4.38397 11.8345L5.73757 11.4221L5.78338 10.0826L6.56947 11.1683L7.92307 10.7523L7.05592 11.8345L7.84552 12.9167M17.5111 12.5043L18.3782 13.5864L18.3289 12.2469L19.6507 11.8345L18.2971 11.4221L18.2513 10.0826L17.4652 11.1683L16.1116 10.7523L16.9788 11.8345L16.1892 12.9167" fill="white"/>
</g>
<defs>
<clipPath id="clip0_69_5918">
<rect width="24" height="24" rx="12" fill="white"/>
</clipPath>
</defs>
</svg>
