<svg width="24" height="24" viewBox="0 0 24 24" fill="none" xmlns="http://www.w3.org/2000/svg">
<g clip-path="url(#clip0_69_5905)">
<g clip-path="url(#clip1_69_5905)">
<mask id="mask0_69_5905" style="mask-type:luminance" maskUnits="userSpaceOnUse" x="-4" y="0" width="32" height="24">
<path d="M28 0H-4V24H28V0Z" fill="white"/>
</mask>
<g mask="url(#mask0_69_5905)">
<mask id="mask1_69_5905" style="mask-type:luminance" maskUnits="userSpaceOnUse" x="-4" y="0" width="32" height="24">
<path d="M-4 0H28V24H-4V0Z" fill="white"/>
</mask>
<g mask="url(#mask1_69_5905)">
<path fill-rule="evenodd" clip-rule="evenodd" d="M-4 0H29.195V24H-4V0Z" fill="white"/>
<path fill-rule="evenodd" clip-rule="evenodd" d="M-3.89966 9.335H5.39534V0H10.7003V9.335H29.2903V14.665H10.7003V24H5.39534V14.665H-3.90466V9.335H-3.89966Z" fill="#003897"/>
<path fill-rule="evenodd" clip-rule="evenodd" d="M-3.90002 10.665H6.71998V0H9.37498V10.665H29.3V13.335H9.37498V24H6.72498V13.335H-3.90002V10.665Z" fill="#D72828"/>
</g>
</g>
</g>
</g>
<defs>
<clipPath id="clip0_69_5905">
<rect width="24" height="24" rx="12" fill="white"/>
</clipPath>
<clipPath id="clip1_69_5905">
<rect width="32" height="24" fill="white" transform="translate(-4)"/>
</clipPath>
</defs>
</svg>
