<svg width="24" height="24" viewBox="0 0 24 24" fill="none" xmlns="http://www.w3.org/2000/svg">
<g clip-path="url(#clip0_69_9623)">
<g clip-path="url(#clip1_69_9623)">
<mask id="mask0_69_9623" style="mask-type:luminance" maskUnits="userSpaceOnUse" x="-4" y="0" width="32" height="24">
<path d="M28 0H-4V24H28V0Z" fill="white"/>
</mask>
<g mask="url(#mask0_69_9623)">
<path d="M-4 0H28V24H-4V0Z" fill="white"/>
<path d="M28 9.6001H-4V14.4001H28V9.6001Z" fill="#CC0000"/>
<path d="M14.4 24V0H9.60001V24H14.4Z" fill="#CC0000"/>
<path fill-rule="evenodd" clip-rule="evenodd" d="M13.7597 7.32928C13.9097 7.08928 13.8197 6.92928 13.5897 6.88428C13.5897 6.88428 12.8447 7.12428 12.0397 7.14928C11.2397 7.17428 10.2897 6.94928 10.2897 6.94928C10.1147 7.05428 10.1547 7.30928 10.2397 7.46928C10.2397 7.46928 11.0797 7.74928 12.0397 7.71928C12.5517 7.69756 13.0582 7.605 13.5447 7.44428C13.7297 7.38428 13.7597 7.33428 13.7597 7.32928Z" fill="#EBEAE3" stroke="black" stroke-width="0.0625"/>
<path d="M11.9994 17.88L10.4544 14.67L6.90936 14.94L8.90936 12L6.90936 9.06L10.4594 9.33L11.9994 6.125L13.5444 9.325L17.0894 9.06L15.0894 12L17.0894 14.94L13.5394 14.67L11.9994 17.88Z" fill="white" stroke="#161111" stroke-width="0.2"/>
<path fill-rule="evenodd" clip-rule="evenodd" d="M11.975 6.11033C13.915 6.43033 13.845 6.52033 13.845 6.52033L14.35 5.01033C14.35 5.01033 14.405 4.71033 14.265 4.53033C14.125 4.35033 13.74 4.45033 13.74 4.45033C13.74 4.45033 13.69 4.20533 13.515 4.15033C13.345 4.09033 12.715 4.37533 12.515 4.44033C12.315 4.50533 12.215 4.56533 11.94 4.56033C11.665 4.56033 11.17 4.31033 11.075 4.26033C10.99 4.21533 10.855 4.17033 10.73 4.17533C10.61 4.17533 10.48 4.21033 10.415 4.29533C10.355 4.38033 10.355 4.49033 10.355 4.49033C10.355 4.49033 10.255 4.42533 10.095 4.42533C9.93501 4.42533 9.84501 4.44533 9.77001 4.53033C9.69501 4.61533 9.60001 4.85533 9.60001 4.85533L9.78001 5.26533L9.79001 5.83033L10.165 6.43033L11.975 6.11033Z" fill="#B02320" stroke="black" stroke-width="0.1625"/>
<path fill-rule="evenodd" clip-rule="evenodd" d="M13.7857 6.96478C13.7857 6.96478 13.8857 7.07979 13.8807 7.12479C13.8757 7.16479 13.8307 7.19979 13.8307 7.19979C13.8307 7.19979 13.8657 7.22979 13.8557 7.27479C13.8507 7.32479 13.7857 7.32479 13.7857 7.32479C13.7857 7.32479 13.8007 7.36479 13.7607 7.38479C13.7257 7.40479 13.5707 7.43479 13.5707 7.43479C13.5707 7.43479 12.8207 7.22479 12.0207 7.22479C11.2207 7.22479 10.2707 7.48479 10.2707 7.48479C10.2707 7.48479 10.1707 7.44979 10.1707 7.38479C10.1607 7.32479 10.1757 7.27979 10.1757 7.27979C10.1757 7.27979 10.1257 7.27979 10.1107 7.23479C10.0907 7.16979 10.1157 7.11979 10.1157 7.11979C10.1157 7.11979 10.0807 7.12979 10.1207 7.04479C10.1507 6.97979 10.1957 6.95979 10.1957 6.95979C10.1957 6.95979 11.0357 6.65979 11.9957 6.65479C12.9507 6.65479 13.7857 6.95478 13.7857 6.96478Z" fill="#EBEAE3" stroke="black" stroke-width="0.0625"/>
<path d="M9.80952 5.07481C9.80952 5.07481 9.77952 4.96481 9.84952 4.86981C9.87688 4.83557 9.91404 4.81053 9.95604 4.79801C9.99804 4.78549 10.0429 4.78613 10.0845 4.79981C10.1245 4.81981 10.1195 4.86481 10.1695 4.87481C10.2195 4.88981 10.2595 4.84981 10.2595 4.84981" stroke="black" stroke-width="0.1375"/>
<path fill-rule="evenodd" clip-rule="evenodd" d="M14.4897 5.33026L14.1997 5.93026L14.0847 5.95026C14.0847 5.95026 14.0147 5.91026 13.8147 5.92526C13.6747 5.93526 13.6297 5.97526 13.6297 5.97526L13.8897 5.37526C13.8897 5.37526 13.9097 5.50026 13.9397 5.57526C13.9797 5.67526 14.1247 5.76026 14.1247 5.76026C14.1247 5.76026 14.1447 5.64526 14.1047 5.51026C14.0666 5.38546 14.0198 5.2635 13.9647 5.14526L14.4897 5.33026Z" fill="#FFCC00" fill-opacity="0.9" stroke="black" stroke-width="0.15"/>
<path d="M11.825 3.45947H12.15V4.84446H11.825V3.45947Z" fill="#121116" stroke="#121116" stroke-width="0.15" stroke-linejoin="round"/>
<path fill-rule="evenodd" clip-rule="evenodd" d="M9.82968 6.00995L10.0347 6.45995C10.0347 6.45995 10.9297 6.10995 11.9797 6.11995C13.5547 6.12995 14.0047 6.44495 14.0047 6.44495L14.2347 5.88995L14.0597 5.98995L13.8797 6.10495L13.6797 6.17995L13.4297 6.16495L13.2097 6.00495L13.0997 5.76995L12.9147 5.93995L12.5847 6.00995L12.2647 5.92995L11.9847 5.57495C11.9847 5.57495 11.7747 5.96995 11.5047 5.99495C11.1197 6.02495 10.8997 5.80995 10.8997 5.80995C10.8997 5.80995 10.7547 6.12995 10.5197 6.18495C10.1447 6.27995 9.83468 6.00995 9.82968 6.00995Z" fill="#F6CA1F" stroke="black" stroke-width="0.125"/>
<path d="M13.4194 3.28584C13.4194 3.37584 13.3494 3.45584 13.2544 3.45584C13.2321 3.45584 13.21 3.45144 13.1894 3.4429C13.1688 3.43436 13.15 3.42184 13.1342 3.40605C13.1184 3.39026 13.1059 3.37152 13.0974 3.3509C13.0888 3.33027 13.0844 3.30817 13.0844 3.28584C13.0838 3.2631 13.0877 3.24046 13.0959 3.21925C13.1042 3.19804 13.1166 3.17871 13.1324 3.16239C13.1483 3.14607 13.1672 3.1331 13.1882 3.12424C13.2092 3.11539 13.2317 3.11083 13.2544 3.11084C13.2987 3.11214 13.3406 3.13062 13.3714 3.16237C13.4022 3.19411 13.4195 3.23661 13.4194 3.28084" fill="#EEEEEE"/>
<path d="M13.4194 3.28584C13.4194 3.37584 13.3494 3.45584 13.2544 3.45584C13.2321 3.45584 13.21 3.45144 13.1894 3.4429C13.1688 3.43436 13.15 3.42184 13.1342 3.40605C13.1184 3.39026 13.1059 3.37152 13.0974 3.3509C13.0888 3.33027 13.0844 3.30817 13.0844 3.28584C13.0838 3.2631 13.0877 3.24046 13.0959 3.21925C13.1042 3.19804 13.1166 3.17871 13.1324 3.16239C13.1483 3.14607 13.1672 3.1331 13.1882 3.12424C13.2092 3.11539 13.2317 3.11083 13.2544 3.11084C13.2987 3.11214 13.3406 3.13062 13.3714 3.16237C13.4022 3.19411 13.4195 3.23661 13.4194 3.28084" stroke="#1E1E1E" stroke-width="0.15" stroke-linejoin="round"/>
<path fill-rule="evenodd" clip-rule="evenodd" d="M13.175 3.37104C13.175 3.37104 13.31 3.37104 13.325 3.31604C13.34 3.25604 13.315 3.18604 13.315 3.18604C13.315 3.18604 13.38 3.25604 13.365 3.31104C13.345 3.36604 13.325 3.38104 13.28 3.39604C13.2448 3.39978 13.2093 3.39092 13.18 3.37104H13.175Z" fill="#A3AFB8"/>
<path d="M13.0151 3.47512C13.0151 3.56512 12.9401 3.64512 12.8451 3.64512C12.8228 3.64512 12.8006 3.64073 12.78 3.63218C12.7594 3.62364 12.7406 3.61112 12.7249 3.59533C12.7091 3.57954 12.6966 3.5608 12.688 3.54018C12.6795 3.51956 12.6751 3.49745 12.6751 3.47512C12.6744 3.45196 12.6784 3.42889 12.687 3.40734C12.6955 3.3858 12.7084 3.36623 12.7248 3.34984C12.7412 3.33345 12.7608 3.32058 12.7823 3.31204C12.8038 3.30348 12.8269 3.29943 12.8501 3.30012C12.8943 3.3001 12.9368 3.31733 12.9686 3.34814C13.0003 3.37894 13.0188 3.42091 13.0201 3.46512" fill="#EEEEEE"/>
<path d="M13.0151 3.47512C13.0151 3.56512 12.9401 3.64512 12.8451 3.64512C12.8228 3.64512 12.8006 3.64073 12.78 3.63218C12.7594 3.62364 12.7406 3.61112 12.7249 3.59533C12.7091 3.57954 12.6966 3.5608 12.688 3.54018C12.6795 3.51956 12.6751 3.49745 12.6751 3.47512C12.6744 3.45196 12.6784 3.42889 12.687 3.40734C12.6955 3.3858 12.7084 3.36623 12.7248 3.34984C12.7412 3.33345 12.7608 3.32058 12.7823 3.31204C12.8038 3.30348 12.8269 3.29943 12.8501 3.30012C12.8943 3.3001 12.9368 3.31733 12.9686 3.34814C13.0003 3.37894 13.0188 3.42091 13.0201 3.46512" stroke="#1E1E1E" stroke-width="0.15" stroke-linejoin="round"/>
<path fill-rule="evenodd" clip-rule="evenodd" d="M12.7641 3.56C12.7641 3.56 12.9041 3.56 12.9141 3.505C12.9291 3.45 12.9041 3.375 12.9041 3.375C12.9041 3.375 12.9691 3.45 12.9541 3.505C12.9341 3.555 12.9141 3.575 12.8691 3.585C12.8338 3.58874 12.7984 3.57988 12.7691 3.56H12.7641Z" fill="#A3AFB8"/>
<path d="M13.8994 3.17C13.8994 3.265 13.8194 3.34 13.7294 3.34C13.6843 3.34 13.641 3.32209 13.6092 3.29021C13.5773 3.25833 13.5594 3.21509 13.5594 3.17C13.5594 3.12577 13.5766 3.08327 13.6074 3.05152C13.6382 3.01978 13.6802 3.0013 13.7244 3C13.7695 3 13.8127 3.01791 13.8446 3.04979C13.8765 3.08167 13.8944 3.12491 13.8944 3.17" fill="#EEEEEE"/>
<path d="M13.8994 3.17C13.8994 3.265 13.8194 3.34 13.7294 3.34C13.6843 3.34 13.641 3.32209 13.6092 3.29021C13.5773 3.25833 13.5594 3.21509 13.5594 3.17C13.5594 3.12577 13.5766 3.08327 13.6074 3.05152C13.6382 3.01978 13.6802 3.0013 13.7244 3C13.7695 3 13.8127 3.01791 13.8446 3.04979C13.8765 3.08167 13.8944 3.12491 13.8944 3.17" stroke="#1E1E1E" stroke-width="0.15" stroke-linejoin="round"/>
<path fill-rule="evenodd" clip-rule="evenodd" d="M13.65 3.25995C13.65 3.25995 13.785 3.25995 13.8 3.19995C13.815 3.14495 13.79 3.07495 13.79 3.07495C13.79 3.07495 13.855 3.14495 13.84 3.19995C13.82 3.25495 13.8 3.26995 13.755 3.27995C13.7204 3.28517 13.685 3.27809 13.655 3.25995H13.65Z" fill="#A3AFB8"/>
<path d="M14.4288 3.28084C14.4288 3.37084 14.3538 3.45084 14.2638 3.45084C14.2187 3.45084 14.1754 3.43293 14.1436 3.40105C14.1117 3.36917 14.0938 3.32593 14.0938 3.28084C14.0938 3.23576 14.1117 3.19252 14.1436 3.16063C14.1754 3.12875 14.2187 3.11084 14.2638 3.11084C14.3071 3.1121 14.3484 3.12989 14.379 3.16056C14.4097 3.19124 14.4275 3.23248 14.4288 3.27584" fill="#EEEEEE"/>
<path d="M14.4288 3.28084C14.4288 3.37084 14.3538 3.45084 14.2638 3.45084C14.2187 3.45084 14.1754 3.43293 14.1436 3.40105C14.1117 3.36917 14.0938 3.32593 14.0938 3.28084C14.0938 3.23576 14.1117 3.19252 14.1436 3.16063C14.1754 3.12875 14.2187 3.11084 14.2638 3.11084C14.3071 3.1121 14.3484 3.12989 14.379 3.16056C14.4097 3.19124 14.4275 3.23248 14.4288 3.27584" stroke="#1E1E1E" stroke-width="0.15" stroke-linejoin="round"/>
<path fill-rule="evenodd" clip-rule="evenodd" d="M14.1844 3.36616C14.1844 3.36616 14.3194 3.36615 14.3344 3.31115C14.3494 3.25115 14.3244 3.18115 14.3244 3.18115C14.3244 3.18115 14.3894 3.25115 14.3744 3.31115C14.3544 3.36115 14.3344 3.37616 14.2894 3.39116C14.2525 3.39614 14.2151 3.38723 14.1844 3.36616Z" fill="#A3AFB8"/>
<path d="M14.84 3.61531C14.84 3.70531 14.765 3.78531 14.67 3.78531C14.6249 3.78531 14.5817 3.7674 14.5498 3.73552C14.5179 3.70364 14.5 3.6604 14.5 3.61531C14.5 3.57022 14.5179 3.52698 14.5498 3.4951C14.5817 3.46322 14.6249 3.44531 14.67 3.44531C14.7142 3.44529 14.7567 3.46252 14.7885 3.49332C14.8202 3.52413 14.8387 3.5661 14.84 3.61031" fill="#EEEEEE"/>
<path d="M14.84 3.61531C14.84 3.70531 14.765 3.78531 14.67 3.78531C14.6249 3.78531 14.5817 3.7674 14.5498 3.73552C14.5179 3.70364 14.5 3.6604 14.5 3.61531C14.5 3.57022 14.5179 3.52698 14.5498 3.4951C14.5817 3.46322 14.6249 3.44531 14.67 3.44531C14.7142 3.44529 14.7567 3.46252 14.7885 3.49332C14.8202 3.52413 14.8387 3.5661 14.84 3.61031" stroke="#1E1E1E" stroke-width="0.15" stroke-linejoin="round"/>
<path fill-rule="evenodd" clip-rule="evenodd" d="M14.5938 3.70063C14.5938 3.70063 14.7288 3.70063 14.7438 3.64563C14.7538 3.59063 14.7338 3.51562 14.7338 3.51562C14.7338 3.51562 14.7988 3.59063 14.7788 3.64563C14.7588 3.69563 14.7438 3.71563 14.6938 3.72563C14.6638 3.73063 14.6188 3.72063 14.5938 3.70063Z" fill="#A3AFB8"/>
<path d="M15.0147 4.16537C15.0147 4.26037 14.9397 4.33537 14.8447 4.33537C14.8005 4.33405 14.7585 4.31557 14.7277 4.28385C14.6969 4.25209 14.6797 4.20961 14.6797 4.16537C14.6797 4.12113 14.6969 4.07861 14.7277 4.04689C14.7585 4.01513 14.8005 3.99666 14.8447 3.99536C14.8898 3.99536 14.933 4.01329 14.9649 4.04517C14.9968 4.07705 15.0147 4.12029 15.0147 4.16537Z" fill="#EEEEEE" stroke="#1E1E1E" stroke-width="0.15" stroke-linejoin="round"/>
<path fill-rule="evenodd" clip-rule="evenodd" d="M14.7688 4.25067C14.7688 4.25067 14.9038 4.25067 14.9188 4.19567C14.9288 4.14067 14.9088 4.06567 14.9088 4.06567C14.9088 4.06567 14.9738 4.14067 14.9538 4.19567C14.9338 4.24567 14.9188 4.26567 14.8688 4.27567C14.8335 4.27939 14.7981 4.27055 14.7688 4.25067Z" fill="#A3AFB8"/>
<path d="M14.9491 4.72005C14.9491 4.82005 14.8741 4.89005 14.7791 4.89005C14.7358 4.88881 14.6945 4.87101 14.6638 4.84033C14.6332 4.80965 14.6154 4.76841 14.6141 4.72505C14.6135 4.70273 14.6172 4.68049 14.6252 4.65961C14.6331 4.63873 14.645 4.61961 14.6604 4.60337C14.6757 4.58709 14.6941 4.57405 14.7144 4.56489C14.7348 4.55573 14.7568 4.55069 14.7791 4.55005C14.8242 4.55005 14.8675 4.56797 14.8994 4.59985C14.9312 4.63173 14.9491 4.67497 14.9491 4.72005Z" fill="#EEEEEE" stroke="#1E1E1E" stroke-width="0.15" stroke-linejoin="round"/>
<path fill-rule="evenodd" clip-rule="evenodd" d="M14.7 4.81C14.7 4.81 14.84 4.81 14.85 4.75C14.865 4.7 14.845 4.625 14.845 4.625C14.845 4.625 14.91 4.695 14.89 4.75C14.87 4.805 14.855 4.82 14.805 4.83C14.7704 4.8352 14.735 4.82816 14.705 4.81H14.7Z" fill="#A3AFB8"/>
<path d="M14.6991 5.21053C14.6991 5.30553 14.6241 5.38053 14.5341 5.38053C14.489 5.38053 14.4457 5.36261 14.4138 5.33073C14.382 5.29885 14.3641 5.25561 14.3641 5.21053C14.3641 5.16541 14.382 5.12217 14.4138 5.09029C14.4457 5.05841 14.489 5.04053 14.5341 5.04053C14.5783 5.04181 14.6202 5.06029 14.651 5.09205C14.6818 5.12377 14.6991 5.16629 14.6991 5.21053Z" fill="#EEEEEE" stroke="#1E1E1E" stroke-width="0.15" stroke-linejoin="round"/>
<path fill-rule="evenodd" clip-rule="evenodd" d="M14.4547 5.30072C14.4547 5.30072 14.5897 5.30072 14.6047 5.24072C14.6197 5.19072 14.5947 5.11572 14.5947 5.11572C14.5947 5.11572 14.6597 5.18572 14.6447 5.24072C14.6247 5.29572 14.6047 5.31072 14.5597 5.32072C14.525 5.32592 14.4897 5.31884 14.4597 5.30072H14.4547Z" fill="#A3AFB8"/>
<path d="M12.6147 3.61995C12.6147 3.71495 12.5397 3.78995 12.4497 3.78995C12.4046 3.78995 12.3614 3.77204 12.3295 3.74016C12.2976 3.70828 12.2797 3.66504 12.2797 3.61995C12.2797 3.57572 12.2969 3.53322 12.3277 3.50148C12.3585 3.46974 12.4005 3.45125 12.4447 3.44995C12.4898 3.44995 12.533 3.46786 12.5649 3.49974C12.5968 3.53162 12.6147 3.57486 12.6147 3.61995Z" fill="#EEEEEE" stroke="#1E1E1E" stroke-width="0.15" stroke-linejoin="round"/>
<path fill-rule="evenodd" clip-rule="evenodd" d="M12.3688 3.7099C12.3688 3.7099 12.5038 3.7099 12.5188 3.6499C12.5338 3.5949 12.5088 3.5249 12.5088 3.5249C12.5088 3.5249 12.5738 3.5949 12.5588 3.6499C12.5388 3.7049 12.5188 3.7199 12.4738 3.7299C12.4388 3.7399 12.3938 3.7299 12.3688 3.7099Z" fill="#A3AFB8"/>
<path d="M12.1051 3.57604C12.1058 3.59484 12.1026 3.61358 12.0959 3.63115C12.0892 3.64872 12.079 3.66475 12.0659 3.67828C12.0528 3.69182 12.0372 3.70258 12.0198 3.70992C12.0025 3.71727 11.9839 3.72105 11.9651 3.72104C11.9463 3.72105 11.9276 3.71727 11.9103 3.70992C11.893 3.70258 11.8774 3.69182 11.8643 3.67828C11.8512 3.66475 11.841 3.64872 11.8343 3.63115C11.8276 3.61358 11.8244 3.59484 11.8251 3.57604C11.8251 3.53891 11.8398 3.5033 11.8661 3.47704C11.8924 3.45079 11.928 3.43604 11.9651 3.43604C12.0022 3.43604 12.0378 3.45079 12.0641 3.47704C12.0903 3.5033 12.1051 3.53891 12.1051 3.57604Z" fill="#EEEEEE" stroke="#1E1E1E" stroke-width="0.15" stroke-linejoin="round"/>
<path fill-rule="evenodd" clip-rule="evenodd" d="M11.9 3.65146C11.9 3.65146 12.015 3.65146 12.025 3.60146C12.04 3.55646 12.02 3.50146 12.02 3.50146C12.02 3.50146 12.07 3.55646 12.06 3.60146C12.04 3.65146 12.025 3.66146 11.99 3.67146C11.9586 3.67651 11.9264 3.66935 11.9 3.65146Z" fill="#A3AFB8"/>
<path d="M12.11 3.75084C12.1114 3.77005 12.1088 3.78934 12.1024 3.80749C12.096 3.82565 12.0859 3.84229 12.0728 3.85637C12.0596 3.87044 12.0437 3.88166 12.026 3.88932C12.0084 3.89697 11.9893 3.90089 11.97 3.90084C11.9508 3.90089 11.9317 3.89697 11.914 3.88932C11.8964 3.88166 11.8805 3.87044 11.8673 3.85637C11.8542 3.84229 11.8441 3.82565 11.8377 3.80749C11.8313 3.78934 11.8287 3.77005 11.83 3.75084C11.83 3.73246 11.8337 3.71425 11.8407 3.69727C11.8477 3.68028 11.858 3.66485 11.871 3.65185C11.884 3.63885 11.8995 3.62854 11.9165 3.6215C11.9334 3.61446 11.9516 3.61084 11.97 3.61084C12.0072 3.61084 12.0428 3.62559 12.069 3.65185C12.0953 3.6781 12.11 3.71371 12.11 3.75084Z" fill="#EEEEEE" stroke="#1E1E1E" stroke-width="0.15" stroke-linejoin="round"/>
<path fill-rule="evenodd" clip-rule="evenodd" d="M11.9 3.82651C11.9 3.82651 12.015 3.82651 12.03 3.77651C12.04 3.73651 12.02 3.67651 12.02 3.67651C12.02 3.67651 12.07 3.73651 12.06 3.77651C12.045 3.82651 12.03 3.83651 11.99 3.84651C11.9602 3.85028 11.93 3.84318 11.905 3.82651H11.9Z" fill="#A3AFB8"/>
<path d="M12.1195 4.01545C12.1195 4.05257 12.1047 4.08821 12.0785 4.11445C12.0522 4.14069 12.0166 4.15545 11.9795 4.15545C11.9607 4.15613 11.9419 4.15301 11.9244 4.14625C11.9068 4.13953 11.8908 4.12933 11.8772 4.11625C11.8637 4.10321 11.8529 4.08753 11.8456 4.07021C11.8382 4.05289 11.8344 4.03425 11.8345 4.01545C11.8338 3.99623 11.837 3.97706 11.8441 3.95915C11.8511 3.94124 11.8618 3.92497 11.8754 3.91137C11.889 3.89776 11.9052 3.88711 11.9232 3.88007C11.9411 3.87303 11.9602 3.86975 11.9795 3.87045C11.9983 3.87044 12.0169 3.87422 12.0342 3.88157C12.0516 3.88891 12.0672 3.89968 12.0803 3.91321C12.0934 3.92675 12.1036 3.94277 12.1103 3.96034C12.117 3.97791 12.1201 3.99665 12.1195 4.01545Z" fill="#EEEEEE" stroke="#1E1E1E" stroke-width="0.15" stroke-linejoin="round"/>
<path fill-rule="evenodd" clip-rule="evenodd" d="M11.9141 4.09102C11.9141 4.09102 12.0241 4.09102 12.0391 4.04102C12.0491 3.99104 12.0291 3.93604 12.0291 3.93604C12.0291 3.93604 12.0791 3.99604 12.0691 4.03602C12.0541 4.08602 12.0391 4.10102 11.9991 4.10602C11.9698 4.1113 11.9397 4.10598 11.9141 4.09102Z" fill="#A3AFB8"/>
<path d="M12.135 4.29099C12.1357 4.31111 12.1323 4.33115 12.1251 4.34995C12.1178 4.36871 12.1069 4.38587 12.0929 4.40031C12.0789 4.41479 12.0621 4.42627 12.0436 4.43415C12.0251 4.44199 12.0052 4.44603 11.985 4.44599C11.9649 4.44667 11.9449 4.44331 11.9261 4.43607C11.9073 4.42883 11.8902 4.41787 11.8757 4.40387C11.8612 4.38987 11.8498 4.37311 11.8419 4.35459C11.834 4.33607 11.83 4.31615 11.83 4.29599C11.8286 4.27547 11.8315 4.25491 11.8384 4.23551C11.8454 4.21615 11.8562 4.19843 11.8702 4.18343C11.8843 4.16843 11.9013 4.15647 11.9202 4.14831C11.9391 4.14015 11.9594 4.13595 11.98 4.13599C12.0002 4.13599 12.0201 4.14003 12.0386 4.14787C12.0571 4.15575 12.0739 4.16723 12.0879 4.18171C12.1019 4.19615 12.1128 4.21327 12.1201 4.23207C12.1273 4.25083 12.1307 4.27091 12.13 4.29099" fill="#EEEEEE"/>
<path d="M12.135 4.29099C12.1357 4.31111 12.1323 4.33115 12.1251 4.34995C12.1178 4.36871 12.1069 4.38587 12.0929 4.40031C12.0789 4.41479 12.0621 4.42627 12.0436 4.43415C12.0251 4.44199 12.0052 4.44603 11.985 4.44599C11.9649 4.44667 11.9449 4.44331 11.9261 4.43607C11.9073 4.42883 11.8902 4.41787 11.8757 4.40387C11.8612 4.38987 11.8498 4.37311 11.8419 4.35459C11.834 4.33607 11.83 4.31615 11.83 4.29599C11.8286 4.27547 11.8315 4.25491 11.8384 4.23551C11.8454 4.21615 11.8562 4.19843 11.8702 4.18343C11.8843 4.16843 11.9013 4.15647 11.9202 4.14831C11.9391 4.14015 11.9594 4.13595 11.98 4.13599C12.0002 4.13599 12.0201 4.14003 12.0386 4.14787C12.0571 4.15575 12.0739 4.16723 12.0879 4.18171C12.1019 4.19615 12.1128 4.21327 12.1201 4.23207C12.1273 4.25083 12.1307 4.27091 12.13 4.29099" stroke="#1E1E1E" stroke-width="0.15" stroke-linejoin="round"/>
<path fill-rule="evenodd" clip-rule="evenodd" d="M11.9094 4.3713C11.9094 4.3713 12.0344 4.3713 12.0444 4.3213C12.0544 4.2713 12.0344 4.2063 12.0344 4.2063C12.0344 4.2063 12.0944 4.2713 12.0794 4.3213C12.0594 4.3713 12.0444 4.3813 12.0044 4.3913C11.9713 4.39718 11.9373 4.38998 11.9094 4.3713Z" fill="#A3AFB8"/>
<path d="M12.1491 4.66572C12.1491 4.75572 12.0741 4.83572 11.9791 4.83572C11.9349 4.8344 11.893 4.81592 11.8622 4.78416C11.8314 4.75244 11.8141 4.70992 11.8141 4.66572C11.8135 4.64336 11.8172 4.62112 11.8252 4.60024C11.8331 4.57936 11.845 4.56028 11.8604 4.544C11.8757 4.52776 11.8941 4.51468 11.9144 4.50552C11.9348 4.4964 11.9568 4.49136 11.9791 4.49072C12.0242 4.49072 12.0675 4.5086 12.0994 4.54048C12.1312 4.57236 12.1491 4.6156 12.1491 4.66072" fill="#EEEEEE"/>
<path d="M12.1491 4.66572C12.1491 4.75572 12.0741 4.83572 11.9791 4.83572C11.9349 4.8344 11.893 4.81592 11.8622 4.78416C11.8314 4.75244 11.8141 4.70992 11.8141 4.66572C11.8135 4.64336 11.8172 4.62112 11.8252 4.60024C11.8331 4.57936 11.845 4.56028 11.8604 4.544C11.8757 4.52776 11.8941 4.51468 11.9144 4.50552C11.9348 4.4964 11.9568 4.49136 11.9791 4.49072C12.0242 4.49072 12.0675 4.5086 12.0994 4.54048C12.1312 4.57236 12.1491 4.6156 12.1491 4.66072" stroke="#1E1E1E" stroke-width="0.15" stroke-linejoin="round"/>
<path fill-rule="evenodd" clip-rule="evenodd" d="M11.9 4.75067C11.9 4.75067 12.04 4.75067 12.05 4.69567C12.065 4.64067 12.045 4.56567 12.045 4.56567C12.045 4.56567 12.11 4.64067 12.09 4.69567C12.07 4.74567 12.055 4.76567 12.005 4.77567C11.9698 4.77939 11.9343 4.77055 11.905 4.75067H11.9Z" fill="#A3AFB8"/>
<path d="M12.1341 5.42563C12.1341 5.51563 12.0641 5.58563 11.9741 5.58563C11.9316 5.58563 11.8909 5.56875 11.8609 5.53875C11.8309 5.50875 11.8141 5.46803 11.8141 5.42563C11.8141 5.34063 11.8841 5.26562 11.9741 5.26562C12.0165 5.26562 12.0572 5.28247 12.0872 5.31247C12.1172 5.34247 12.1341 5.38319 12.1341 5.42563Z" fill="#EEEEEE" stroke="#1E1E1E" stroke-width="0.15" stroke-linejoin="round"/>
<path fill-rule="evenodd" clip-rule="evenodd" d="M11.8984 5.51094C11.8984 5.51094 12.0284 5.51094 12.0384 5.45594C12.0534 5.40594 12.0334 5.33594 12.0334 5.33594C12.0334 5.33594 12.0934 5.40094 12.0734 5.45594C12.0584 5.50594 12.0384 5.52094 11.9984 5.53094C11.9684 5.53594 11.9234 5.52594 11.8984 5.51094Z" fill="#A3AFB8"/>
<path d="M11.6791 3.61531C11.6791 3.71031 11.5991 3.78531 11.5091 3.78531C11.464 3.78531 11.4207 3.7674 11.3888 3.73552C11.357 3.70364 11.3391 3.6604 11.3391 3.61531C11.3391 3.57022 11.357 3.52698 11.3888 3.4951C11.4207 3.46322 11.464 3.44531 11.5091 3.44531C11.5542 3.44531 11.5974 3.46322 11.6293 3.4951C11.6612 3.52698 11.6791 3.57022 11.6791 3.61531Z" fill="#EEEEEE" stroke="#1E1E1E" stroke-width="0.15" stroke-linejoin="round"/>
<path fill-rule="evenodd" clip-rule="evenodd" d="M11.4297 3.70026C11.4297 3.70026 11.5647 3.70026 11.5797 3.65026C11.5947 3.59026 11.5697 3.52026 11.5697 3.52026C11.5697 3.52026 11.6347 3.59026 11.6197 3.64526C11.5997 3.70026 11.5797 3.71526 11.5347 3.72526C11.5 3.73048 11.4647 3.7234 11.4347 3.70526L11.4297 3.70026Z" fill="#A3AFB8"/>
<path d="M11.26 3.45125C11.26 3.54625 11.185 3.62125 11.09 3.62125C11.0458 3.61995 11.0038 3.60147 10.973 3.56973C10.9422 3.53799 10.925 3.49549 10.925 3.45125C10.925 3.40702 10.9422 3.36452 10.973 3.33278C11.0038 3.30104 11.0458 3.28255 11.09 3.28125C11.1351 3.28125 11.1783 3.29916 11.2102 3.33105C11.2421 3.36293 11.26 3.40617 11.26 3.45125Z" fill="#EEEEEE" stroke="#1E1E1E" stroke-width="0.15" stroke-linejoin="round"/>
<path fill-rule="evenodd" clip-rule="evenodd" d="M11.0141 3.54121C11.0141 3.54121 11.1491 3.54121 11.1641 3.4812C11.1741 3.4312 11.1541 3.3562 11.1541 3.3562C11.1541 3.3562 11.2191 3.4262 11.2041 3.4812C11.1791 3.53621 11.1641 3.5512 11.1141 3.5612C11.0841 3.5712 11.0391 3.56121 11.0141 3.54121Z" fill="#A3AFB8"/>
<path d="M10.8601 3.26558C10.8601 3.35558 10.7851 3.43558 10.6951 3.43558C10.65 3.43558 10.6068 3.41767 10.5749 3.38578C10.543 3.3539 10.5251 3.31066 10.5251 3.26558C10.5244 3.24325 10.5282 3.22101 10.5361 3.20013C10.544 3.17925 10.556 3.16014 10.5713 3.14388C10.5866 3.12763 10.605 3.11456 10.6254 3.10541C10.6458 3.09626 10.6678 3.09122 10.6901 3.09058C10.7352 3.09058 10.7784 3.10849 10.8103 3.14037C10.8422 3.17225 10.8601 3.21549 10.8601 3.26058" fill="#EEEEEE"/>
<path d="M10.8601 3.26558C10.8601 3.35558 10.7851 3.43558 10.6951 3.43558C10.65 3.43558 10.6068 3.41767 10.5749 3.38578C10.543 3.3539 10.5251 3.31066 10.5251 3.26558C10.5244 3.24325 10.5282 3.22101 10.5361 3.20013C10.544 3.17925 10.556 3.16014 10.5713 3.14388C10.5866 3.12763 10.605 3.11456 10.6254 3.10541C10.6458 3.09626 10.6678 3.09122 10.6901 3.09058C10.7352 3.09058 10.7784 3.10849 10.8103 3.14037C10.8422 3.17225 10.8601 3.21549 10.8601 3.26058" stroke="#1E1E1E" stroke-width="0.15" stroke-linejoin="round"/>
<path fill-rule="evenodd" clip-rule="evenodd" d="M10.6141 3.35053C10.6141 3.35053 10.7491 3.35053 10.7641 3.29553C10.7791 3.24053 10.7541 3.16553 10.7541 3.16553C10.7541 3.16553 10.8191 3.24053 10.8041 3.29553C10.7841 3.34553 10.7641 3.36553 10.7191 3.37553C10.6822 3.38051 10.6448 3.3716 10.6141 3.35053Z" fill="#A3AFB8"/>
<path d="M10.3991 3.16572C10.3991 3.26072 10.3291 3.33572 10.2341 3.33572C10.189 3.33572 10.1458 3.31781 10.1139 3.28593C10.082 3.25405 10.0641 3.21081 10.0641 3.16572C10.0635 3.14298 10.0674 3.12034 10.0756 3.09913C10.0838 3.07793 10.0963 3.05859 10.1121 3.04227C10.128 3.02595 10.147 3.01298 10.1679 3.00413C10.1889 2.99527 10.2114 2.99071 10.2341 2.99072C10.2792 2.99072 10.3225 3.00863 10.3544 3.04051C10.3862 3.0724 10.4041 3.11564 10.4041 3.16072" fill="#EEEEEE"/>
<path d="M10.3991 3.16572C10.3991 3.26072 10.3291 3.33572 10.2341 3.33572C10.189 3.33572 10.1458 3.31781 10.1139 3.28593C10.082 3.25405 10.0641 3.21081 10.0641 3.16572C10.0635 3.14298 10.0674 3.12034 10.0756 3.09913C10.0838 3.07793 10.0963 3.05859 10.1121 3.04227C10.128 3.02595 10.147 3.01298 10.1679 3.00413C10.1889 2.99527 10.2114 2.99071 10.2341 2.99072C10.2792 2.99072 10.3225 3.00863 10.3544 3.04051C10.3862 3.0724 10.4041 3.11564 10.4041 3.16072" stroke="#1E1E1E" stroke-width="0.15" stroke-linejoin="round"/>
<path fill-rule="evenodd" clip-rule="evenodd" d="M10.1547 3.25067C10.1547 3.25067 10.2897 3.25067 10.3047 3.19567C10.3197 3.14067 10.2947 3.06567 10.2947 3.06567C10.2947 3.06567 10.3597 3.14067 10.3447 3.19567C10.3247 3.24567 10.3047 3.26567 10.2597 3.27567C10.2244 3.27941 10.189 3.27056 10.1597 3.25067H10.1547Z" fill="#A3AFB8"/>
<path d="M9.86009 3.29036C9.86009 3.39036 9.78509 3.46036 9.69509 3.46536C9.65001 3.46536 9.60676 3.44745 9.57488 3.41557C9.543 3.38369 9.52508 3.34045 9.52508 3.29536C9.5244 3.27262 9.52833 3.24997 9.53657 3.22877C9.54481 3.20756 9.55721 3.18823 9.57309 3.17191C9.58893 3.15559 9.60789 3.14262 9.62885 3.13377C9.64981 3.12491 9.67233 3.12035 9.69509 3.12036C9.73929 3.12166 9.78125 3.14015 9.81209 3.17189C9.84289 3.20363 9.86009 3.24613 9.86009 3.29036Z" fill="#EEEEEE" stroke="#1E1E1E" stroke-width="0.15" stroke-linejoin="round"/>
<path fill-rule="evenodd" clip-rule="evenodd" d="M9.61407 3.38031C9.61407 3.38031 9.74907 3.38031 9.76407 3.32531C9.77907 3.26531 9.75408 3.19531 9.75408 3.19531C9.75408 3.19531 9.81908 3.26531 9.80408 3.32031C9.78408 3.37531 9.76408 3.39031 9.71908 3.40531C9.68384 3.40905 9.6484 3.4002 9.61908 3.38031H9.61407Z" fill="#A3AFB8"/>
<path d="M9.47877 3.67635C9.47877 3.77135 9.40377 3.84635 9.30877 3.84635C9.26453 3.84505 9.22257 3.82656 9.19177 3.79482C9.16097 3.76308 9.14373 3.72058 9.14377 3.67635C9.14373 3.63212 9.16097 3.58962 9.19177 3.55788C9.22257 3.52614 9.26453 3.50765 9.30877 3.50635C9.35385 3.50635 9.39709 3.52426 9.42897 3.55614C9.46085 3.58802 9.47877 3.63126 9.47877 3.67635Z" fill="#EEEEEE" stroke="#1E1E1E" stroke-width="0.15" stroke-linejoin="round"/>
<path fill-rule="evenodd" clip-rule="evenodd" d="M9.23436 3.75995C9.23436 3.75995 9.36936 3.75995 9.38436 3.70495C9.39436 3.64995 9.37436 3.57495 9.37436 3.57495C9.37436 3.57495 9.43936 3.64995 9.41936 3.70495C9.39936 3.75495 9.38436 3.77495 9.33436 3.78495C9.29912 3.78869 9.26372 3.77984 9.23436 3.75995Z" fill="#A3AFB8"/>
<path d="M9.31936 4.21053C9.31936 4.30553 9.24436 4.38053 9.15436 4.38053C9.10928 4.38053 9.06604 4.36261 9.03416 4.33073C9.00228 4.29885 8.98436 4.25561 8.98436 4.21053C8.98436 4.16629 9.00156 4.12377 9.0324 4.09205C9.0632 4.06029 9.10516 4.04181 9.14936 4.04053C9.1936 4.04049 9.23612 4.05773 9.26784 4.08853C9.2996 4.11933 9.31808 4.16129 9.31936 4.20553" fill="#EEEEEE"/>
<path d="M9.31936 4.21053C9.31936 4.30553 9.24436 4.38053 9.15436 4.38053C9.10928 4.38053 9.06604 4.36261 9.03416 4.33073C9.00228 4.29885 8.98436 4.25561 8.98436 4.21053C8.98436 4.16629 9.00156 4.12377 9.0324 4.09205C9.0632 4.06029 9.10516 4.04181 9.14936 4.04053C9.1936 4.04049 9.23612 4.05773 9.26784 4.08853C9.2996 4.11933 9.31808 4.16129 9.31936 4.20553" stroke="#1E1E1E" stroke-width="0.15" stroke-linejoin="round"/>
<path fill-rule="evenodd" clip-rule="evenodd" d="M9.075 4.30084C9.075 4.30084 9.21 4.29584 9.225 4.24084C9.24 4.18584 9.215 4.11084 9.215 4.11084C9.215 4.11084 9.28 4.18584 9.265 4.24084C9.245 4.29084 9.225 4.31084 9.18 4.32084C9.14312 4.32584 9.10568 4.31692 9.075 4.29584V4.30084Z" fill="#A3AFB8"/>
<path d="M9.38976 4.76521C9.38976 4.86521 9.31477 4.94021 9.22477 4.94021C9.17969 4.94021 9.13644 4.92229 9.10456 4.89041C9.07268 4.85853 9.05477 4.81529 9.05477 4.77021C9.05409 4.74789 9.05784 4.72565 9.06576 4.70477C9.07372 4.68389 9.08568 4.66477 9.101 4.64849C9.11632 4.63225 9.13468 4.61917 9.15508 4.61005C9.17544 4.60089 9.19745 4.59585 9.21977 4.59521C9.26485 4.59521 9.30808 4.61313 9.33996 4.64501C9.37184 4.67689 9.38976 4.72013 9.38976 4.76521Z" fill="#EEEEEE" stroke="#1E1E1E" stroke-width="0.15" stroke-linejoin="round"/>
<path fill-rule="evenodd" clip-rule="evenodd" d="M9.14377 4.85541C9.14377 4.85541 9.27877 4.85541 9.29377 4.79541C9.30877 4.74541 9.28377 4.67041 9.28377 4.67041C9.28377 4.67041 9.34877 4.74041 9.33377 4.79541C9.31377 4.85041 9.29377 4.86541 9.24877 4.88041C9.21353 4.88413 9.17809 4.87529 9.14877 4.85541H9.14377Z" fill="#A3AFB8"/>
<path d="M9.64913 5.2751C9.64913 5.3651 9.57413 5.4451 9.47913 5.4451C9.43493 5.44378 9.39297 5.4253 9.36217 5.39358C9.33137 5.36182 9.31413 5.31934 9.31413 5.2751C9.31349 5.25278 9.31721 5.23054 9.32517 5.20966C9.33309 5.18878 9.34505 5.16966 9.36037 5.15342C9.37569 5.13714 9.39409 5.1241 9.41445 5.11494C9.43485 5.10578 9.45681 5.10074 9.47913 5.1001C9.50149 5.1001 9.52357 5.1045 9.54421 5.11306C9.56485 5.12158 9.58357 5.1341 9.59937 5.1499C9.61513 5.16566 9.62765 5.18442 9.63621 5.20506C9.64477 5.22566 9.64913 5.24778 9.64913 5.2701" fill="#EEEEEE"/>
<path d="M9.64913 5.2751C9.64913 5.3651 9.57413 5.4451 9.47913 5.4451C9.43493 5.44378 9.39297 5.4253 9.36217 5.39358C9.33137 5.36182 9.31413 5.31934 9.31413 5.2751C9.31349 5.25278 9.31721 5.23054 9.32517 5.20966C9.33309 5.18878 9.34505 5.16966 9.36037 5.15342C9.37569 5.13714 9.39409 5.1241 9.41445 5.11494C9.43485 5.10578 9.45681 5.10074 9.47913 5.1001C9.50149 5.1001 9.52357 5.1045 9.54421 5.11306C9.56485 5.12158 9.58357 5.1341 9.59937 5.1499C9.61513 5.16566 9.62765 5.18442 9.63621 5.20506C9.64477 5.22566 9.64913 5.24778 9.64913 5.2701" stroke="#1E1E1E" stroke-width="0.15" stroke-linejoin="round"/>
<path fill-rule="evenodd" clip-rule="evenodd" d="M9.39999 5.36005C9.39999 5.36005 9.53999 5.36005 9.54999 5.30505C9.56499 5.25005 9.54499 5.17505 9.54499 5.17505C9.54499 5.17505 9.60999 5.24505 9.59499 5.30005C9.56999 5.35505 9.55499 5.37005 9.50999 5.38505C9.47311 5.39005 9.43567 5.38113 9.40499 5.36005H9.39999Z" fill="#A3AFB8"/>
<path d="M9.94144 5.90901C9.95296 5.95201 9.95341 5.99613 9.94269 6.03181C9.93201 6.06753 9.91096 6.09193 9.8842 6.09985C9.85696 6.10713 9.8262 6.09689 9.79872 6.07133C9.77124 6.04577 9.74925 6.00705 9.73765 5.96361C9.72609 5.92061 9.72565 5.87653 9.73637 5.84081C9.74709 5.80513 9.76809 5.78069 9.79489 5.77281C9.82209 5.76549 9.85285 5.77577 9.88033 5.80129C9.90781 5.82685 9.9298 5.86557 9.94144 5.90901Z" fill="#EEEEEE" stroke="#1E1E1E" stroke-width="0.144566" stroke-linejoin="round"/>
<path fill-rule="evenodd" clip-rule="evenodd" d="M9.81409 6.03447C9.81409 6.03447 9.89409 6.00947 9.88909 5.95447C9.88909 5.89947 9.85409 5.83447 9.85409 5.83447C9.85409 5.83447 9.90909 5.88947 9.91409 5.94947C9.91409 5.99947 9.90909 6.01947 9.88409 6.03947C9.86909 6.04947 9.83409 6.04947 9.81409 6.03447Z" fill="#A3AFB8"/>
<path d="M14.2908 5.94162C14.2801 5.98486 14.2592 6.0237 14.2326 6.04978C14.206 6.0759 14.1758 6.08714 14.1485 6.0811C14.1212 6.07434 14.0992 6.05054 14.0874 6.0149C14.0757 5.97926 14.0752 5.9347 14.0859 5.89106C14.0966 5.84786 14.1175 5.80902 14.1441 5.7829C14.1707 5.75682 14.2009 5.74558 14.2282 5.75158C14.2556 5.75834 14.2775 5.78218 14.2893 5.81782C14.301 5.85346 14.3016 5.89798 14.2908 5.94162Z" fill="#EEEEEE" stroke="#1E1E1E" stroke-width="0.144567" stroke-linejoin="round"/>
<path fill-rule="evenodd" clip-rule="evenodd" d="M14.1141 5.98959C14.1141 5.98959 14.1991 6.00959 14.2191 5.95459C14.2441 5.90459 14.2441 5.82959 14.2441 5.82959C14.2441 5.82959 14.2691 5.90959 14.2441 5.95959C14.2191 6.00959 14.2041 6.02459 14.1741 6.02459C14.1541 6.02959 14.1241 6.00959 14.1141 5.98959Z" fill="#A3AFB8"/>
<path fill-rule="evenodd" clip-rule="evenodd" d="M11.8354 2.68933L11.8504 2.97433C11.8504 2.97433 11.5104 3.00433 11.5004 3.03433C11.4304 3.18433 11.5754 3.38433 11.5754 3.38433C11.5754 3.38433 11.6904 3.29433 11.9754 3.29433C12.2504 3.29433 12.3904 3.36433 12.3904 3.36433C12.3904 3.36433 12.4604 3.24933 12.4604 3.16433C12.4604 3.07933 12.4304 2.99433 12.4304 2.99433L12.2504 2.97433H12.1254L12.1154 2.68433L11.8354 2.68933Z" fill="#B3A192" stroke="black" stroke-width="0.15"/>
<path d="M12.3206 3.12933C12.3206 3.16433 12.2906 3.18933 12.2606 3.18933C12.2256 3.18933 12.1956 3.16433 12.1956 3.13433C12.1956 3.09933 12.2256 3.07433 12.2556 3.07433C12.2906 3.07433 12.3156 3.09933 12.3206 3.12933ZM12.4556 3.16433C12.4556 3.19433 12.4306 3.22433 12.3956 3.22433C12.3606 3.22433 12.3306 3.19433 12.3306 3.16433C12.3306 3.12933 12.3606 3.10433 12.3956 3.10433C12.4306 3.10433 12.4556 3.12933 12.4556 3.16433ZM12.1806 3.12933C12.1806 3.15933 12.1506 3.18933 12.1206 3.18933C12.0856 3.18933 12.0606 3.15933 12.0606 3.12933C12.0606 3.09933 12.0856 3.06933 12.1156 3.06933C12.1506 3.06933 12.1806 3.09933 12.1806 3.12933ZM11.9006 3.12933C11.9006 3.16433 11.8706 3.19433 11.8356 3.19433C11.8006 3.19433 11.7756 3.16433 11.7756 3.13433C11.7756 3.09933 11.8006 3.07433 11.8356 3.07433C11.8706 3.07433 11.9006 3.09933 11.9006 3.13433M11.7456 3.14433C11.7456 3.17433 11.7156 3.20433 11.6806 3.20433C11.6456 3.20433 11.6206 3.17933 11.6206 3.14433C11.6206 3.10933 11.6456 3.08433 11.6806 3.08433C11.7156 3.08433 11.7456 3.10933 11.7456 3.14433ZM12.0306 2.96933C12.0306 2.99933 12.0056 3.01933 11.9806 3.01933C11.9733 3.02083 11.9657 3.02065 11.9584 3.01883C11.9511 3.01699 11.9444 3.01355 11.9386 3.00875C11.9328 3.00395 11.9282 2.99791 11.9251 2.99109C11.922 2.98426 11.9205 2.97683 11.9206 2.96933C11.9206 2.93933 11.9456 2.91933 11.9756 2.91933C12.0056 2.91933 12.0256 2.93933 12.0256 2.96933M12.0256 2.73433C12.0256 2.75933 12.0056 2.78433 11.9756 2.78433C11.9624 2.78433 11.9496 2.77906 11.9403 2.76968C11.9309 2.7603 11.9256 2.74759 11.9256 2.73433C11.9256 2.70433 11.9456 2.68433 11.9756 2.68433C12.0056 2.68433 12.0256 2.70433 12.0256 2.73433ZM12.0256 2.85933C12.0256 2.88933 12.0056 2.90933 11.9756 2.90933C11.9456 2.90933 11.9256 2.88933 11.9256 2.85933C11.9256 2.83433 11.9456 2.80933 11.9756 2.80933C12.0056 2.80933 12.0256 2.82933 12.0256 2.85933ZM11.5856 3.18433C11.5856 3.21933 11.5606 3.24433 11.5256 3.24433C11.4956 3.24433 11.4656 3.21933 11.4656 3.18433C11.4656 3.15433 11.4906 3.12933 11.5256 3.12933C11.5606 3.12933 11.5856 3.15433 11.5856 3.18433Z" fill="#F0DDCB"/>
<path d="M11.9006 3.12933C11.9006 3.16433 11.8706 3.19433 11.8356 3.19433C11.8006 3.19433 11.7756 3.16433 11.7756 3.13433C11.7756 3.09933 11.8006 3.07433 11.8356 3.07433C11.8706 3.07433 11.9006 3.09933 11.9006 3.13433M12.0306 2.96933C12.0306 2.99933 12.0056 3.01933 11.9806 3.01933C11.9733 3.02083 11.9657 3.02065 11.9584 3.01883C11.9511 3.01699 11.9444 3.01355 11.9386 3.00875C11.9328 3.00395 11.9282 2.99791 11.9251 2.99109C11.922 2.98426 11.9205 2.97683 11.9206 2.96933C11.9206 2.93933 11.9456 2.91933 11.9756 2.91933C12.0056 2.91933 12.0256 2.93933 12.0256 2.96933M12.3206 3.12933C12.3206 3.16433 12.2906 3.18933 12.2606 3.18933C12.2256 3.18933 12.1956 3.16433 12.1956 3.13433C12.1956 3.09933 12.2256 3.07433 12.2556 3.07433C12.2906 3.07433 12.3156 3.09933 12.3206 3.12933ZM12.4556 3.16433C12.4556 3.19433 12.4306 3.22433 12.3956 3.22433C12.3606 3.22433 12.3306 3.19433 12.3306 3.16433C12.3306 3.12933 12.3606 3.10433 12.3956 3.10433C12.4306 3.10433 12.4556 3.12933 12.4556 3.16433ZM12.1806 3.12933C12.1806 3.15933 12.1506 3.18933 12.1206 3.18933C12.0856 3.18933 12.0606 3.15933 12.0606 3.12933C12.0606 3.09933 12.0856 3.06933 12.1156 3.06933C12.1506 3.06933 12.1806 3.09933 12.1806 3.12933ZM11.7456 3.14433C11.7456 3.17433 11.7156 3.20433 11.6806 3.20433C11.6456 3.20433 11.6206 3.17933 11.6206 3.14433C11.6206 3.10933 11.6456 3.08433 11.6806 3.08433C11.7156 3.08433 11.7456 3.10933 11.7456 3.14433ZM12.0256 2.73433C12.0256 2.75933 12.0056 2.78433 11.9756 2.78433C11.9624 2.78433 11.9496 2.77906 11.9403 2.76968C11.9309 2.7603 11.9256 2.74759 11.9256 2.73433C11.9256 2.70433 11.9456 2.68433 11.9756 2.68433C12.0056 2.68433 12.0256 2.70433 12.0256 2.73433ZM12.0256 2.85933C12.0256 2.88933 12.0056 2.90933 11.9756 2.90933C11.9456 2.90933 11.9256 2.88933 11.9256 2.85933C11.9256 2.83433 11.9456 2.80933 11.9756 2.80933C12.0056 2.80933 12.0256 2.82933 12.0256 2.85933ZM11.5856 3.18433C11.5856 3.21933 11.5606 3.24433 11.5256 3.24433C11.4956 3.24433 11.4656 3.21933 11.4656 3.18433C11.4656 3.15433 11.4906 3.12933 11.5256 3.12933C11.5606 3.12933 11.5856 3.15433 11.5856 3.18433Z" stroke="#121116" stroke-width="0.075" stroke-linejoin="round"/>
<path d="M12.0444 3.11969C12.0444 3.15469 12.0144 3.17969 11.9744 3.17969C11.958 3.17974 11.9422 3.17358 11.9301 3.16245C11.918 3.15132 11.9106 3.13604 11.9094 3.11969C11.9094 3.08469 11.9394 3.05469 11.9744 3.05469C12.0094 3.05469 12.0394 3.08469 12.0394 3.11969" fill="#916C68"/>
<path d="M12.0444 3.11969C12.0444 3.15469 12.0144 3.17969 11.9744 3.17969C11.958 3.17974 11.9422 3.17358 11.9301 3.16245C11.918 3.15132 11.9106 3.13604 11.9094 3.11969C11.9094 3.08469 11.9394 3.05469 11.9744 3.05469C12.0094 3.05469 12.0394 3.08469 12.0394 3.11969" stroke="#4D3126" stroke-width="0.075" stroke-linejoin="round"/>
<path d="M12.0998 2.27526C12.0998 2.30757 12.0873 2.33863 12.065 2.36193C12.0426 2.38524 12.0121 2.39897 11.9798 2.40026C11.9634 2.40026 11.9471 2.39703 11.932 2.39075C11.9168 2.38447 11.903 2.37526 11.8914 2.36365C11.8798 2.35204 11.8706 2.33826 11.8643 2.3231C11.858 2.30794 11.8548 2.29168 11.8548 2.27526C11.8541 2.25843 11.8568 2.24164 11.8628 2.22589C11.8688 2.21014 11.8779 2.19577 11.8896 2.18362C11.9012 2.17148 11.9153 2.16183 11.9308 2.15524C11.9463 2.14864 11.963 2.14525 11.9798 2.14526C12.0129 2.14526 12.0447 2.15844 12.0682 2.18188C12.0916 2.20532 12.1048 2.23711 12.1048 2.27026" fill="#EEEEEE"/>
<path d="M12.0998 2.27526C12.0998 2.30757 12.0873 2.33863 12.065 2.36193C12.0426 2.38524 12.0121 2.39897 11.9798 2.40026C11.9634 2.40026 11.9471 2.39703 11.932 2.39075C11.9168 2.38447 11.903 2.37526 11.8914 2.36365C11.8798 2.35204 11.8706 2.33826 11.8643 2.3231C11.858 2.30794 11.8548 2.29168 11.8548 2.27526C11.8541 2.25843 11.8568 2.24164 11.8628 2.22589C11.8688 2.21014 11.8779 2.19577 11.8896 2.18362C11.9012 2.17148 11.9153 2.16183 11.9308 2.15524C11.9463 2.14864 11.963 2.14525 11.9798 2.14526C12.0129 2.14526 12.0447 2.15844 12.0682 2.18188C12.0916 2.20532 12.1048 2.23711 12.1048 2.27026" stroke="#1E1E1E" stroke-width="0.15" stroke-linejoin="round"/>
<path fill-rule="evenodd" clip-rule="evenodd" d="M11.9203 2.33995C11.9203 2.33995 12.0203 2.33995 12.0303 2.28995C12.0403 2.25495 12.0253 2.19995 12.0253 2.19995C12.0253 2.19995 12.0753 2.24995 12.0603 2.29495C12.0453 2.33495 12.0303 2.34495 12.0003 2.35495C11.9727 2.36036 11.9441 2.355 11.9203 2.33995Z" fill="#A3AFB8"/>
<path fill-rule="evenodd" clip-rule="evenodd" d="M10 6.50579C10 6.50579 10.11 6.61079 10.14 6.70579C10.17 6.79579 10.215 7.04579 10.215 7.04579C10.215 7.04579 11.375 6.72079 11.945 6.74579C12.515 6.77579 13.83 7.06079 13.83 7.06079L13.88 6.77579C13.905 6.62579 14.015 6.46079 14.015 6.46079C14.015 6.46079 12.76 6.07079 11.965 6.11079C11.5047 6.11475 11.0464 6.17351 10.6 6.28579C10.3982 6.35419 10.1982 6.42755 10 6.50579Z" fill="#FFCC00" stroke="black" stroke-width="0.0625"/>
<path fill-rule="evenodd" clip-rule="evenodd" d="M11.7344 1.80005H12.2344C12.2344 1.80005 12.1094 1.88505 12.0844 1.97005C12.0644 2.04005 12.0694 2.15505 12.0694 2.15505C12.0694 2.15505 12.2044 2.15505 12.2694 2.10505C12.3296 2.05488 12.3913 2.00653 12.4544 1.96005V2.59505C12.4544 2.59505 12.3294 2.48005 12.2544 2.44005C12.1991 2.41088 12.1403 2.38903 12.0794 2.37505C12.0794 2.37505 12.0794 2.47505 12.1194 2.54005C12.1594 2.60505 12.3344 2.83005 12.3344 2.83005L11.6194 2.85505C11.6194 2.85505 11.7894 2.68005 11.8594 2.55005C11.9044 2.46505 11.8844 2.37505 11.8844 2.37505C11.8844 2.37505 11.7644 2.37505 11.7044 2.42005C11.6394 2.46005 11.5344 2.58505 11.5344 2.58505V1.97505C11.5344 1.97505 11.5844 2.09505 11.6844 2.14005C11.7844 2.18505 11.8744 2.16005 11.8744 2.16005C11.8744 2.16005 11.8944 2.04005 11.8544 1.96005C11.8144 1.88505 11.7244 1.80005 11.7344 1.80505V1.80005Z" fill="#FFCC00" stroke="black" stroke-width="0.15"/>
<path fill-rule="evenodd" clip-rule="evenodd" d="M11.6949 3.82526C11.6949 3.82526 11.3399 3.82026 11.0349 3.64026C10.7299 3.46026 10.4199 3.27026 9.96988 3.37526C9.87988 3.40026 9.53988 3.55026 9.38988 4.03526C9.31148 4.35094 9.35432 4.68458 9.50988 4.97026C9.5916 5.10198 9.68532 5.22582 9.78988 5.34026L9.97488 5.21526C9.97488 5.21526 9.50988 4.81526 9.56488 4.30526C9.61488 3.79026 9.87488 3.67026 9.87488 3.67026C9.87488 3.67026 10.1949 3.42026 10.6199 3.65526C11.0141 3.87024 11.4418 4.0173 11.8849 4.09026C11.9149 4.08526 11.6849 3.82026 11.6949 3.82526Z" fill="#FFCC00" stroke="#121116" stroke-width="0.15"/>
<path fill-rule="evenodd" clip-rule="evenodd" d="M9.72436 5.74942L9.53436 5.37942L10.1044 5.15942C10.1044 5.15942 9.96436 5.33942 9.93436 5.46942C9.89436 5.62942 9.90936 5.76442 9.90936 5.76442C9.90936 5.76442 9.95936 5.72442 10.0244 5.61942C10.0744 5.54442 10.1544 5.25442 10.1544 5.25442L10.4094 6.06942C10.4094 6.06942 10.2794 5.93942 10.1844 5.92442C10.0844 5.90442 9.95436 5.93942 9.95436 5.93942L9.80436 5.98942L9.72436 5.74942Z" fill="#FFCC00" stroke="black" stroke-width="0.15"/>
<path fill-rule="evenodd" clip-rule="evenodd" d="M12.3358 3.81467C12.3358 3.81467 12.6908 3.81467 12.9958 3.62967C13.3008 3.44967 13.6058 3.26467 14.0608 3.36967C14.1508 3.38967 14.4908 3.53967 14.6408 4.02469C14.7176 4.34101 14.673 4.67465 14.5158 4.95969C14.4587 5.05977 14.3986 5.15813 14.3358 5.25469L14.1158 5.17469C14.1158 5.17469 14.5208 4.80969 14.4658 4.29469C14.4108 3.77967 14.1558 3.65967 14.1558 3.65967C14.1558 3.65967 13.8358 3.40967 13.4108 3.64967C12.9858 3.88467 12.5708 3.98967 12.5708 3.98967C12.5708 3.98967 12.1808 4.08969 12.1458 4.07969C12.1108 4.07969 12.3458 3.80967 12.3358 3.81467Z" fill="#FFCC00" stroke="#121116" stroke-width="0.15"/>
<path d="M12.15 3.46459H12.3V4.84958H12.15V3.46459ZM11.65 3.45459H11.825V4.83958H11.65V3.45459Z" fill="#FFCC00" stroke="#121116" stroke-width="0.15" stroke-linejoin="round"/>
<path d="M12.4606 3.13567C12.4606 3.38567 12.2456 3.58567 11.9756 3.58567C11.7106 3.58567 11.4906 3.38567 11.4906 3.13567C11.4906 2.89067 11.7056 2.69067 11.9706 2.69067C12.2406 2.69067 12.4606 2.89067 12.4606 3.13567Z" fill="#FFCC00" stroke="#121116" stroke-width="0.15" stroke-linejoin="round"/>
<path fill-rule="evenodd" clip-rule="evenodd" d="M11.5447 4.83959L12.3797 4.82959C12.3797 4.82959 12.2797 4.88959 12.1947 5.03959C12.1147 5.18959 12.1247 5.27959 12.1247 5.27959C12.1247 5.27959 12.2497 5.27959 12.3397 5.21459C12.4092 5.15959 12.4728 5.09759 12.5297 5.02959V5.79459C12.5297 5.79459 12.4647 5.69459 12.3647 5.64459C12.2647 5.57959 12.1247 5.57959 12.1247 5.57959H11.8397C11.8397 5.57959 11.7097 5.58959 11.6547 5.62959C11.5886 5.67763 11.5267 5.73115 11.4697 5.78959L11.4547 5.05959C11.4547 5.05959 11.4947 5.18959 11.6297 5.23959C11.7647 5.28959 11.8397 5.28959 11.8397 5.28959C11.8397 5.28959 11.8397 5.11959 11.7697 5.03959C11.7009 4.96623 11.6256 4.89927 11.5447 4.83959Z" fill="#FFCC00" stroke="black" stroke-width="0.125"/>
<path fill-rule="evenodd" clip-rule="evenodd" d="M12.0106 5.43969C12.0106 5.43969 12.1306 5.72469 12.2756 5.84969C12.3556 5.92469 12.6056 5.97969 12.7156 5.94969C12.9656 5.88469 13.1456 5.68469 13.1456 5.68469C13.1456 5.68469 13.1356 5.90469 13.2956 6.02969C13.4506 6.14969 13.5756 6.17969 13.7056 6.14469C13.8406 6.10969 14.2056 5.83469 14.2056 5.83469L14.2856 5.89969C14.2856 5.89969 14.0706 6.10969 13.8506 6.21469C13.7356 6.27469 13.3856 6.23969 13.2756 6.14969C13.1606 6.05969 13.0956 5.84469 13.0956 5.84469C13.0956 5.84469 13.0256 5.98469 12.8756 6.03469C12.7256 6.08469 12.5256 6.08469 12.3306 6.02469C12.2056 5.98469 12.0356 5.80969 12.0056 5.74969C11.9756 5.69469 11.9856 5.65969 11.9856 5.65969C11.9856 5.65969 11.8856 5.92969 11.6956 6.00469C11.5108 6.07165 11.3096 6.07865 11.1206 6.02469C10.9406 5.97469 10.9256 5.86969 10.9256 5.86969C10.9256 5.86969 10.9156 6.15469 10.5256 6.23469C10.1256 6.31469 9.81564 6.02969 9.81564 6.02969L9.87064 5.94469C9.87064 5.94469 10.0906 6.19469 10.4306 6.17469C10.7706 6.14969 10.8806 5.71469 10.8806 5.71469C10.8806 5.71469 11.0306 5.93969 11.4306 5.94469C11.8256 5.94969 11.9406 5.42969 11.9406 5.42969L12.0106 5.43969Z" fill="#F6CA1F" stroke="black" stroke-width="0.1125"/>
<path fill-rule="evenodd" clip-rule="evenodd" d="M11.0294 5.60409C11.0294 5.60409 11.0294 5.46909 11.0644 5.42409C11.1044 5.36909 11.1644 5.36409 11.1944 5.37409C11.2294 5.38409 11.2644 5.41409 11.2594 5.51409C11.2544 5.60909 11.2244 5.65409 11.2594 5.69409C11.2844 5.72909 11.2894 5.75409 11.3444 5.74409C11.3944 5.73409 11.4244 5.71909 11.4094 5.66909C11.3944 5.61909 11.3844 5.66909 11.3744 5.62909C11.3644 5.58409 11.4244 5.39909 11.4144 5.28409C11.4044 5.17409 11.3644 5.08409 11.2744 5.05909C11.1944 5.03909 11.1244 5.03909 11.0494 5.09409C10.9794 5.14409 10.8844 5.31909 10.8844 5.31909V5.69409L11.0344 5.68409V5.60409H11.0294Z" fill="#FFCC00" stroke="black" stroke-width="0.1375"/>
<path fill-rule="evenodd" clip-rule="evenodd" d="M10.7496 5.70528C10.7496 5.70528 10.6896 5.58028 10.6496 5.55528C10.629 5.54132 10.6046 5.53384 10.5796 5.53384C10.5547 5.53384 10.5303 5.54132 10.5096 5.55528C10.4796 5.58028 10.4596 5.62528 10.5046 5.71028C10.5446 5.79528 10.5896 5.83028 10.5746 5.87528C10.5646 5.92028 10.5746 5.94528 10.5196 5.96028C10.4646 5.97528 10.4346 5.96528 10.4246 5.91028C10.4146 5.86028 10.4546 5.91028 10.4446 5.86028C10.4396 5.82028 10.3046 5.67528 10.2696 5.56528C10.2346 5.46028 10.2396 5.36028 10.3096 5.30528C10.3746 5.25528 10.4346 5.22528 10.5246 5.24528C10.6146 5.26528 10.7696 5.39028 10.7696 5.39028L10.9196 5.73028L10.7796 5.78028L10.7496 5.70528Z" fill="#FFCC00" stroke="black" stroke-width="0.1375"/>
<path fill-rule="evenodd" clip-rule="evenodd" d="M10.7198 4.60474C10.7198 4.60474 10.5698 4.85474 10.6048 5.04474C10.6398 5.23474 10.8348 5.64474 10.8348 5.64474V5.69474L10.9448 5.68474L10.9198 5.62974C10.9198 5.62974 10.9698 5.13974 10.9398 4.98474C10.8838 4.84886 10.8098 4.72106 10.7198 4.60474ZM10.9548 5.73974C10.9548 5.73974 11.0298 5.82474 11.1148 5.86974C11.2148 5.91474 11.2548 5.91974 11.2898 5.88474C11.3198 5.86474 11.3098 5.77474 11.2748 5.74974C11.2448 5.72474 11.2048 5.73974 11.1998 5.76474C11.1898 5.80474 11.1798 5.80474 11.1498 5.78474C11.0998 5.76474 10.9998 5.69974 10.9998 5.69974L10.9548 5.73974ZM10.8398 5.75974C10.8398 5.75974 10.8098 5.86974 10.7498 5.94474C10.6798 6.02474 10.6448 6.04474 10.5998 6.02974C10.5648 6.02474 10.5348 5.93974 10.5548 5.89974C10.5748 5.86474 10.6148 5.85974 10.6298 5.87974C10.6548 5.91474 10.6648 5.90974 10.6848 5.87974L10.7848 5.74474L10.8398 5.75474V5.75974Z" fill="#FFCC00" stroke="black" stroke-width="0.1375"/>
<path d="M11.1191 5.66947C11.1291 5.69947 11.0291 5.74447 10.9041 5.76447C10.7791 5.78447 10.6741 5.77947 10.6641 5.74447C10.6641 5.71447 10.7591 5.66947 10.8841 5.64447C11.0091 5.62447 11.1141 5.63447 11.1191 5.66947Z" fill="#FFCC00" stroke="black" stroke-width="0.1375" stroke-linejoin="round"/>
<path fill-rule="evenodd" clip-rule="evenodd" d="M13.2791 5.66045C13.2791 5.66045 13.3291 5.53545 13.3791 5.50545C13.4341 5.46545 13.4891 5.48045 13.5141 5.50545C13.5441 5.52045 13.5641 5.56545 13.5291 5.65545C13.4891 5.74045 13.4491 5.77545 13.4591 5.82045C13.4741 5.87045 13.4691 5.89045 13.5241 5.90045C13.5791 5.91545 13.6091 5.90545 13.6141 5.85045C13.6191 5.80045 13.5891 5.85045 13.5941 5.80045C13.5941 5.76045 13.7241 5.60545 13.7541 5.50045C13.7841 5.38545 13.7741 5.29045 13.7041 5.23545C13.6341 5.18545 13.5691 5.16545 13.4791 5.19045C13.3941 5.21545 13.2441 5.34545 13.2441 5.34545L13.1141 5.69545L13.2591 5.74045L13.2791 5.66045Z" fill="#FFCC00" stroke="black" stroke-width="0.1375"/>
<path fill-rule="evenodd" clip-rule="evenodd" d="M12.9846 5.65589C12.9846 5.65589 12.9746 5.52089 12.9396 5.48089C12.8946 5.42589 12.8396 5.42589 12.8096 5.43089C12.7746 5.44589 12.7396 5.48089 12.7496 5.57589C12.7596 5.67589 12.7896 5.71589 12.7646 5.75589C12.7346 5.79589 12.7346 5.81589 12.6796 5.81089C12.6246 5.81089 12.5946 5.79089 12.6046 5.74089C12.6146 5.69089 12.6346 5.74089 12.6446 5.69589C12.6496 5.65589 12.5796 5.47089 12.5846 5.35589C12.5846 5.24589 12.6246 5.15589 12.7096 5.12589C12.7896 5.10089 12.8596 5.09589 12.9346 5.15089C13.0096 5.20089 13.1146 5.36589 13.1146 5.36589L13.1346 5.73589H12.9846V5.65589Z" fill="#FFCC00" stroke="black" stroke-width="0.1375"/>
<path fill-rule="evenodd" clip-rule="evenodd" d="M13.3398 4.61572C13.3398 4.61572 13.1148 4.79572 13.0798 4.98572C13.0448 5.17572 13.0848 5.62572 13.0848 5.62572L13.0698 5.67572L13.1698 5.70572V5.64572C13.1698 5.64572 13.3898 5.20572 13.4148 5.04572C13.4096 4.8996 13.3844 4.75492 13.3398 4.61572ZM13.1648 5.76072C13.1648 5.76072 13.2048 5.86572 13.2698 5.93572C13.3448 6.01572 13.3798 6.03072 13.4248 6.01572C13.4598 6.00572 13.4798 5.91572 13.4598 5.88572C13.4398 5.85072 13.3998 5.85072 13.3848 5.87072C13.3598 5.90572 13.3498 5.89572 13.3298 5.87072C13.2922 5.8282 13.2556 5.78484 13.2198 5.74072L13.1648 5.76072ZM13.0498 5.73572C13.0498 5.73572 12.9848 5.83072 12.8998 5.87572C12.8048 5.93072 12.7648 5.93572 12.7248 5.90572C12.6948 5.89072 12.6998 5.80072 12.7298 5.77072C12.7648 5.74572 12.7998 5.75572 12.8098 5.78072C12.8198 5.82072 12.8348 5.81572 12.8598 5.80072L12.9998 5.70072L13.0498 5.73572Z" fill="#FFCC00" stroke="black" stroke-width="0.1375"/>
<path d="M13.3442 5.7499C13.3392 5.7849 13.2292 5.7899 13.1042 5.7649C12.9792 5.7399 12.8842 5.6949 12.8892 5.6649C12.8942 5.6299 13.0042 5.6249 13.1292 5.6499C13.2542 5.6749 13.3492 5.7199 13.3442 5.7499Z" fill="#FFCC00" stroke="black" stroke-width="0.1375" stroke-linejoin="round"/>
<path fill-rule="evenodd" clip-rule="evenodd" d="M9.94963 6.49438C9.94963 6.49438 9.97963 6.59438 10.0346 6.54438C10.0946 6.48938 10.8996 6.16938 12.0346 6.16938C13.1696 6.16938 13.9096 6.48438 13.9546 6.50438C13.9996 6.51938 14.0196 6.54438 14.0546 6.50438C14.0946 6.45438 14.0196 6.38938 14.0196 6.38938C14.0196 6.38938 13.2296 6.05438 11.9996 6.05938C10.7646 6.06438 9.96963 6.41438 9.96963 6.41438C9.96963 6.41438 9.91963 6.45438 9.95463 6.49438H9.94963Z" fill="#CCA715" stroke="black" stroke-width="0.0625"/>
<path fill-rule="evenodd" clip-rule="evenodd" d="M11.395 6.96509C11.395 6.96509 11.43 6.86509 11.495 6.84509C11.545 6.83009 11.62 6.88009 11.62 6.88009C11.62 6.88009 11.525 6.87009 11.495 6.89009C11.47 6.90509 11.46 6.95009 11.46 6.95009C11.46 6.95009 11.48 6.91009 11.555 6.91509H11.635C11.635 6.91509 11.51 6.93009 11.485 6.96509C11.455 7.00009 11.6 7.01509 11.6 7.01509C11.6 7.01509 11.375 7.01509 11.35 7.00509C11.32 6.99009 11.3 6.94509 11.25 6.95509C11.2 6.97509 11.15 7.02009 11.15 7.02009C11.15 7.02009 11.205 6.92009 11.24 6.92009C11.275 6.92009 11.3 6.92009 11.33 6.93509L11.395 6.96509ZM10.555 7.14509C10.555 7.14509 10.57 7.04509 10.63 7.01009C10.68 6.98509 10.765 7.02009 10.765 7.02009C10.765 7.02009 10.665 7.03009 10.64 7.05009C10.62 7.07009 10.62 7.12009 10.62 7.12009C10.62 7.12009 10.635 7.08009 10.705 7.07009C10.7317 7.06541 10.7584 7.06041 10.785 7.05509C10.785 7.05509 10.665 7.09009 10.645 7.13009C10.62 7.17009 10.77 7.16009 10.77 7.16009C10.77 7.16009 10.55 7.20009 10.52 7.19509C10.485 7.18509 10.46 7.14509 10.415 7.17009C10.365 7.19009 10.325 7.24509 10.325 7.24509C10.325 7.24509 10.365 7.14009 10.4 7.13009C10.435 7.12509 10.45 7.12009 10.49 7.13009L10.555 7.14509ZM12.1 6.93009C12.1 6.93009 12.14 6.83009 12.2 6.81509C12.255 6.80009 12.335 6.85509 12.335 6.85509C12.335 6.85509 12.235 6.84009 12.205 6.85509C12.18 6.87009 12.17 6.91509 12.17 6.91509C12.17 6.91509 12.19 6.88009 12.265 6.89009L12.345 6.89509C12.345 6.89509 12.22 6.89509 12.19 6.93509C12.16 6.96509 12.305 6.99009 12.305 6.99009C12.305 6.99009 12.08 6.98009 12.055 6.96509C12.025 6.95009 12.005 6.90509 11.955 6.91509C11.905 6.92509 11.855 6.96509 11.855 6.96509C11.855 6.96509 11.915 6.87509 11.95 6.87509C11.985 6.87509 12.005 6.87509 12.04 6.89509L12.1 6.93009ZM12.805 7.01009C12.805 7.01009 12.855 6.91509 12.925 6.91009C12.975 6.90009 13.045 6.96009 13.045 6.96009C13.045 6.96009 12.955 6.94009 12.92 6.95009C12.89 6.96009 12.875 7.00009 12.875 7.00009C12.875 7.00009 12.9 6.97009 12.975 6.98509L13.055 7.00509C13.055 7.00509 12.93 6.99509 12.895 7.02509C12.86 7.05509 13 7.09509 13 7.09509C13 7.09509 12.78 7.05509 12.75 7.04009C12.73 7.02009 12.715 6.97009 12.665 6.97509C12.615 6.98009 12.555 7.01509 12.555 7.01509C12.555 7.01509 12.63 6.93509 12.665 6.94009C12.7 6.94009 12.72 6.94509 12.75 6.96509L12.805 7.01009ZM13.505 7.13509C13.505 7.13509 13.555 7.06509 13.61 7.06009C13.655 7.06009 13.705 7.11509 13.705 7.11509C13.705 7.11509 13.63 7.09009 13.605 7.09509C13.58 7.10009 13.565 7.13509 13.565 7.13509C13.565 7.13509 13.59 7.11009 13.645 7.13009L13.71 7.15009C13.71 7.15009 13.61 7.13009 13.58 7.15009C13.55 7.17509 13.66 7.22009 13.66 7.22009C13.66 7.22009 13.485 7.17009 13.46 7.15509C13.445 7.14009 13.44 7.10009 13.4 7.10009C13.355 7.10009 13.305 7.12509 13.305 7.12509C13.305 7.12509 13.37 7.06009 13.4 7.07009C13.425 7.07009 13.445 7.08009 13.465 7.09509L13.51 7.13509H13.505Z" fill="black"/>
<path d="M11.25 6.4843C11.27 6.5693 11.17 6.6593 11.03 6.6843C10.89 6.7143 10.765 6.6693 10.75 6.5843C10.735 6.5043 10.83 6.4143 10.97 6.3843C11.11 6.3543 11.235 6.3993 11.25 6.4843Z" fill="#0F6545" stroke="black" stroke-width="0.0875" stroke-linejoin="round"/>
<path d="M10.94 6.47031C10.94 6.49031 10.92 6.51531 10.89 6.52031C10.86 6.52531 10.83 6.51531 10.825 6.49531C10.825 6.47531 10.845 6.45531 10.875 6.44531C10.905 6.44531 10.935 6.45031 10.94 6.47031Z" fill="#CECFC1"/>
<path d="M13.2054 6.59006C13.1804 6.67006 13.0554 6.70006 12.9154 6.66006C12.7804 6.61506 12.6954 6.51506 12.7154 6.43506C12.7454 6.35506 12.8754 6.32006 13.0104 6.36506C13.1454 6.40506 13.2354 6.50506 13.2104 6.58506L13.2054 6.59006Z" fill="#0F6545" stroke="black" stroke-width="0.0875" stroke-linejoin="round"/>
<path d="M12.9404 6.42539C12.9304 6.44539 12.9054 6.4554 12.8754 6.4454C12.8454 6.4354 12.8254 6.41039 12.8304 6.39539C12.8354 6.37039 12.8654 6.36539 12.8954 6.37039C12.9254 6.38039 12.9454 6.4054 12.9404 6.4204V6.42539Z" fill="#CECFC1"/>
<path d="M11.7297 6.30005H12.2347V6.55005H11.7297V6.30005Z" fill="#1F2D86" stroke="black" stroke-width="0.125" stroke-linejoin="round"/>
<path d="M11.9453 6.34959C11.9453 6.36459 11.9253 6.37459 11.8953 6.37459C11.8653 6.37459 11.8453 6.36459 11.8453 6.34959C11.8453 6.33959 11.8703 6.32959 11.8953 6.32959C11.9203 6.32959 11.9453 6.33959 11.9453 6.34959Z" fill="#707C8B"/>
<path fill-rule="evenodd" clip-rule="evenodd" d="M10.2996 6.55034L10.3796 6.80034L10.2296 6.88534C10.2296 6.88534 10.1546 6.93534 10.0796 6.89534C10.0096 6.86034 9.96963 6.74534 10.0096 6.69534C10.0846 6.60534 10.2946 6.54534 10.2946 6.55034H10.2996Z" fill="#9F1209" stroke="black" stroke-width="0.0625"/>
<path d="M10.17 6.72979C10.17 6.76979 10.135 6.80479 10.095 6.80479C10.055 6.80479 10.025 6.76979 10.025 6.72979C10.025 6.68479 10.055 6.65479 10.095 6.65479C10.135 6.65479 10.17 6.68479 10.17 6.72979Z" fill="#8F322F"/>
<path d="M10.0995 6.69961C10.1007 6.70585 10.1004 6.71225 10.0987 6.71833C10.097 6.72441 10.0938 6.73001 10.0895 6.73461C10.086 6.73745 10.0816 6.73901 10.077 6.73901C10.0724 6.73901 10.068 6.73745 10.0645 6.73461C10.0596 6.73205 10.0553 6.72853 10.0519 6.72421C10.0484 6.71993 10.0459 6.71493 10.0445 6.70961C10.0433 6.70341 10.0436 6.69701 10.0453 6.69093C10.047 6.68485 10.0502 6.67925 10.0545 6.67461C10.0574 6.67101 10.0615 6.66853 10.0661 6.66761C10.0707 6.66673 10.0754 6.66741 10.0795 6.66961C10.0895 6.66961 10.0995 6.68461 10.0995 6.69961Z" fill="#E2A494"/>
<path fill-rule="evenodd" clip-rule="evenodd" d="M13.6944 6.58447L13.6094 6.80447L13.8094 6.90447C13.8094 6.90447 13.8944 6.94447 13.9494 6.89947C13.9994 6.85947 14.0094 6.75947 13.9694 6.71447C13.9344 6.66447 13.6894 6.58447 13.6944 6.58447Z" fill="#9F1209" stroke="black" stroke-width="0.0625"/>
<path d="M13.9297 6.75947C13.9297 6.78947 13.8997 6.80947 13.8647 6.80947C13.8297 6.80947 13.8047 6.78947 13.8047 6.75947C13.8047 6.72947 13.8347 6.70947 13.8647 6.70947C13.8997 6.70947 13.9297 6.73447 13.9297 6.75947Z" fill="#AA675D"/>
<path d="M13.8694 6.75021C13.8694 6.76521 13.8644 6.78021 13.8544 6.78521C13.85 6.78845 13.8448 6.79021 13.8394 6.79021C13.834 6.79021 13.8287 6.78845 13.8244 6.78521C13.8198 6.78157 13.8162 6.77705 13.8136 6.77185C13.811 6.76669 13.8096 6.76101 13.8094 6.75521C13.8094 6.74021 13.8144 6.73021 13.8244 6.72521C13.8287 6.72197 13.834 6.72021 13.8394 6.72021C13.8448 6.72021 13.85 6.72197 13.8544 6.72521C13.8644 6.72521 13.8694 6.74021 13.8694 6.75521V6.75021Z" fill="#E2A494"/>
<path d="M12.4305 6.31942C12.4306 6.3245 12.4295 6.3295 12.4274 6.3341C12.4254 6.3387 12.4223 6.34282 12.4185 6.34614C12.4147 6.34946 12.4103 6.35194 12.4054 6.35334C12.4006 6.35478 12.3955 6.35514 12.3905 6.35442C12.3812 6.35442 12.3723 6.35074 12.3657 6.34418C12.3592 6.33762 12.3555 6.3287 12.3555 6.31942C12.3555 6.31014 12.3592 6.30126 12.3657 6.2947C12.3723 6.28814 12.3812 6.28442 12.3905 6.28442C12.4105 6.28442 12.4305 6.29942 12.4305 6.31942ZM12.6455 6.32942C12.6455 6.33402 12.6446 6.33858 12.6428 6.34282C12.6411 6.34706 12.6385 6.35094 12.6352 6.35418C12.632 6.35742 12.6281 6.36002 12.6239 6.36178C12.6196 6.36354 12.6151 6.36442 12.6105 6.36442C12.6055 6.36514 12.6004 6.36478 12.5956 6.36334C12.5907 6.36194 12.5862 6.35946 12.5824 6.35614C12.5786 6.35282 12.5756 6.3487 12.5735 6.3441C12.5715 6.3395 12.5704 6.3345 12.5705 6.32942C12.5711 6.32482 12.5726 6.32038 12.575 6.31634C12.5773 6.31234 12.5805 6.30882 12.5842 6.30602C12.5879 6.30322 12.5922 6.30122 12.5967 6.3001C12.6012 6.29894 12.6059 6.29874 12.6105 6.29942C12.6255 6.29942 12.6455 6.30942 12.6455 6.32942ZM12.5355 6.41442C12.5355 6.43942 12.5155 6.45942 12.4855 6.45942C12.4555 6.45942 12.4455 6.43942 12.4455 6.41442C12.4455 6.38942 12.4655 6.36942 12.4905 6.36942C12.5155 6.36942 12.5355 6.38942 12.5355 6.41942V6.41442ZM12.6355 6.55442C12.6356 6.5629 12.6326 6.57114 12.6271 6.57758C12.6216 6.58402 12.6139 6.58822 12.6055 6.58942C12.6005 6.59014 12.5954 6.58978 12.5906 6.58834C12.5857 6.58694 12.5812 6.58446 12.5774 6.58114C12.5736 6.57782 12.5706 6.5737 12.5686 6.5691C12.5665 6.5645 12.5654 6.5595 12.5655 6.55442C12.5655 6.54514 12.5692 6.53626 12.5758 6.5297C12.5823 6.52314 12.5912 6.51942 12.6005 6.51942C12.6255 6.51942 12.6405 6.53442 12.6405 6.55442H12.6355ZM12.4305 6.52942C12.4305 6.5387 12.4268 6.54762 12.4202 6.55418C12.4137 6.56074 12.4048 6.56442 12.3955 6.56442C12.3862 6.56442 12.3773 6.56074 12.3707 6.55418C12.3642 6.54762 12.3605 6.5387 12.3605 6.52942C12.3605 6.52014 12.3642 6.51126 12.3707 6.5047C12.3773 6.49814 12.3862 6.49442 12.3955 6.49442C12.4155 6.49442 12.4305 6.50942 12.4305 6.52942ZM11.3855 6.35442C11.387 6.36302 11.3854 6.37186 11.3807 6.37926C11.3761 6.38666 11.3689 6.3921 11.3605 6.39442C11.3559 6.39594 11.351 6.3965 11.3462 6.39606C11.3414 6.39558 11.3367 6.39414 11.3325 6.39178C11.3283 6.38946 11.3246 6.38626 11.3216 6.38238C11.3187 6.37854 11.3166 6.37414 11.3155 6.36942C11.3148 6.36482 11.315 6.36014 11.3161 6.35562C11.3173 6.3511 11.3193 6.34686 11.3221 6.34314C11.3249 6.33942 11.3284 6.33626 11.3324 6.33394C11.3364 6.33158 11.3409 6.33006 11.3455 6.32942C11.3541 6.32786 11.3629 6.32954 11.3703 6.33418C11.3777 6.33882 11.3831 6.34602 11.3855 6.35442ZM11.6005 6.31942C11.6012 6.32402 11.601 6.32874 11.5998 6.33326C11.5987 6.33778 11.5967 6.34202 11.5939 6.34574C11.5911 6.34946 11.5876 6.35258 11.5836 6.35494C11.5796 6.3573 11.5751 6.35882 11.5705 6.35942C11.5619 6.36102 11.553 6.3593 11.5456 6.3547C11.5382 6.35006 11.5328 6.34282 11.5305 6.33442C11.5289 6.32586 11.5306 6.31698 11.5352 6.30958C11.5399 6.30218 11.5471 6.29678 11.5555 6.29442C11.5601 6.2929 11.5649 6.29238 11.5698 6.29282C11.5746 6.29326 11.5792 6.29474 11.5835 6.29706C11.5877 6.29942 11.5914 6.30262 11.5943 6.30646C11.5972 6.3103 11.5994 6.31474 11.6005 6.31942ZM11.5105 6.42442C11.5155 6.44942 11.5005 6.47442 11.4805 6.47442C11.4692 6.47758 11.4572 6.47618 11.4469 6.47058C11.4366 6.46498 11.429 6.45562 11.4255 6.44442C11.4205 6.42442 11.4355 6.39442 11.4605 6.39442C11.471 6.3927 11.4818 6.39474 11.491 6.40026C11.5002 6.40574 11.5071 6.4143 11.5105 6.42442ZM11.6455 6.53942C11.647 6.54802 11.6454 6.55686 11.6407 6.56426C11.6361 6.57166 11.6289 6.5771 11.6205 6.57942C11.6159 6.58094 11.611 6.5815 11.6062 6.58106C11.6014 6.58058 11.5967 6.57914 11.5925 6.57678C11.5883 6.57446 11.5846 6.57126 11.5816 6.56742C11.5787 6.56354 11.5766 6.55914 11.5755 6.55442C11.5739 6.54586 11.5756 6.53698 11.5802 6.52958C11.5849 6.52218 11.5921 6.51678 11.6005 6.51442C11.6051 6.5129 11.6099 6.51238 11.6148 6.51282C11.6196 6.51326 11.6242 6.51474 11.6285 6.51706C11.6327 6.51942 11.6364 6.52262 11.6393 6.52646C11.6422 6.5303 11.6444 6.53474 11.6455 6.53942ZM11.4355 6.55942C11.437 6.56802 11.4354 6.57686 11.4307 6.58426C11.4261 6.59166 11.4189 6.5971 11.4105 6.59942C11.4059 6.60094 11.401 6.6015 11.3962 6.60106C11.3914 6.60058 11.3867 6.59914 11.3825 6.59678C11.3783 6.59446 11.3746 6.59126 11.3716 6.58738C11.3687 6.58354 11.3666 6.57914 11.3655 6.57442C11.3648 6.56982 11.365 6.56514 11.3661 6.56062C11.3673 6.5561 11.3693 6.55186 11.3721 6.54814C11.3749 6.54442 11.3784 6.54126 11.3824 6.53894C11.3864 6.53658 11.3909 6.53506 11.3955 6.53442C11.4041 6.53286 11.4129 6.53454 11.4203 6.53918C11.4277 6.54382 11.4331 6.55102 11.4355 6.55942ZM10.4755 6.54942C10.478 6.55394 10.4794 6.55894 10.4797 6.5641C10.48 6.56922 10.4791 6.57434 10.4772 6.57914C10.4753 6.5839 10.4724 6.58818 10.4686 6.5917C10.4649 6.59522 10.4604 6.59786 10.4555 6.59942C10.4469 6.6027 10.4373 6.60242 10.4289 6.5987C10.4204 6.59494 10.4138 6.58802 10.4105 6.57942C10.408 6.5749 10.4066 6.5699 10.4063 6.56478C10.406 6.55966 10.4068 6.5545 10.4088 6.54974C10.4107 6.54498 10.4136 6.54066 10.4174 6.53718C10.4211 6.53366 10.4256 6.53102 10.4305 6.52942C10.435 6.52698 10.44 6.52554 10.4452 6.52526C10.4503 6.52494 10.4554 6.52578 10.4602 6.5277C10.465 6.52962 10.4692 6.53254 10.4728 6.5363C10.4763 6.54006 10.4789 6.54454 10.4805 6.54942H10.4755ZM10.6805 6.48442C10.683 6.48894 10.6844 6.49394 10.6847 6.4991C10.685 6.50422 10.6841 6.50934 10.6822 6.51414C10.6803 6.5189 10.6774 6.52318 10.6736 6.5267C10.6699 6.53022 10.6654 6.53286 10.6605 6.53442C10.6559 6.53594 10.651 6.5365 10.6462 6.53606C10.6414 6.53558 10.6367 6.53414 10.6325 6.53178C10.6283 6.52946 10.6246 6.52626 10.6216 6.52242C10.6187 6.51854 10.6166 6.51414 10.6155 6.50942C10.6122 6.50082 10.6125 6.49126 10.6162 6.48282C10.62 6.47438 10.6269 6.46778 10.6355 6.46442C10.64 6.46198 10.645 6.46054 10.6502 6.46026C10.6553 6.45994 10.6604 6.46078 10.6652 6.4627C10.67 6.46462 10.6742 6.46754 10.6778 6.4713C10.6813 6.47506 10.6839 6.47954 10.6855 6.48442H10.6805ZM10.6105 6.60442C10.6126 6.61438 10.6112 6.6247 10.6067 6.63378C10.6022 6.64286 10.5947 6.65014 10.5855 6.65442C10.5754 6.65822 10.5644 6.65826 10.5543 6.65458C10.5442 6.65094 10.5358 6.64378 10.5305 6.63442C10.5271 6.62378 10.5278 6.6123 10.5324 6.6021C10.537 6.59194 10.5452 6.58386 10.5555 6.57942C10.5661 6.57602 10.5776 6.5767 10.5878 6.58134C10.598 6.58594 10.606 6.59418 10.6105 6.60442ZM10.7605 6.69442C10.763 6.69894 10.7644 6.70394 10.7647 6.7091C10.765 6.71422 10.7641 6.71934 10.7622 6.72414C10.7603 6.7289 10.7574 6.73318 10.7536 6.7367C10.7499 6.74022 10.7454 6.74286 10.7405 6.74442C10.7205 6.74442 10.7005 6.73942 10.6905 6.71942C10.6805 6.69942 10.6955 6.68442 10.7155 6.67442C10.7241 6.67118 10.7337 6.67142 10.7421 6.67518C10.7505 6.67894 10.7571 6.68586 10.7605 6.69442ZM10.5555 6.74442C10.558 6.74894 10.5594 6.75394 10.5597 6.7591C10.56 6.76422 10.5591 6.76934 10.5572 6.77414C10.5553 6.7789 10.5524 6.78318 10.5486 6.7867C10.5449 6.79022 10.5404 6.79286 10.5355 6.79442C10.531 6.7969 10.526 6.7983 10.5208 6.79862C10.5157 6.7989 10.5106 6.79806 10.5058 6.79618C10.501 6.79426 10.4967 6.79134 10.4932 6.78758C10.4897 6.78382 10.4871 6.77934 10.4855 6.77442C10.4831 6.76958 10.4818 6.76422 10.4818 6.75882C10.4818 6.75338 10.4831 6.74806 10.4855 6.74322C10.488 6.73834 10.4915 6.73414 10.4958 6.7309C10.5001 6.72762 10.5052 6.72542 10.5105 6.72442C10.515 6.72198 10.52 6.72054 10.5252 6.72026C10.5303 6.71994 10.5354 6.72078 10.5402 6.7227C10.545 6.72462 10.5492 6.72754 10.5528 6.7313C10.5563 6.73506 10.5589 6.73954 10.5605 6.74442H10.5555ZM13.3655 6.45442C13.3605 6.47442 13.3405 6.48442 13.3155 6.47942C13.3056 6.47602 13.2975 6.46886 13.2928 6.45954C13.2881 6.45018 13.2873 6.43938 13.2905 6.42942C13.2905 6.41442 13.3155 6.40442 13.3405 6.40942C13.3555 6.40942 13.3705 6.43442 13.3655 6.45442ZM13.5855 6.51942C13.5855 6.53942 13.5605 6.55442 13.5405 6.54942C13.5352 6.54826 13.5301 6.54602 13.5257 6.54286C13.5212 6.53966 13.5175 6.53562 13.5147 6.53094C13.5119 6.52622 13.51 6.52102 13.5093 6.51562C13.5086 6.51018 13.509 6.5047 13.5105 6.49942C13.5155 6.48442 13.5355 6.46942 13.5605 6.47442C13.5805 6.47942 13.5905 6.49942 13.5855 6.52442V6.51942ZM13.4505 6.57942C13.447 6.5909 13.4396 6.6007 13.4295 6.60714C13.4194 6.61354 13.4073 6.61614 13.3955 6.61442C13.3831 6.61202 13.3721 6.60498 13.3647 6.59478C13.3573 6.58458 13.354 6.57194 13.3555 6.55942C13.359 6.54698 13.3672 6.53634 13.3784 6.52982C13.3896 6.5233 13.4029 6.52134 13.4155 6.52442C13.4405 6.52942 13.4555 6.55442 13.4505 6.57942ZM13.5255 6.75442C13.5205 6.77442 13.5005 6.78442 13.4755 6.77942C13.4667 6.77606 13.4594 6.76974 13.4548 6.7615C13.4502 6.75326 13.4487 6.74366 13.4505 6.73442C13.4505 6.71442 13.4755 6.70442 13.4955 6.70942C13.5155 6.71442 13.5305 6.73442 13.5255 6.75942V6.75442ZM13.3105 6.67442C13.3105 6.69442 13.2855 6.70442 13.2655 6.69942C13.2567 6.69606 13.2494 6.68974 13.2448 6.6815C13.2402 6.67326 13.2387 6.66366 13.2405 6.65442C13.2405 6.63442 13.2655 6.62442 13.2855 6.62942C13.3055 6.62942 13.3155 6.65442 13.3105 6.67442Z" fill="#F5D8BC"/>
<path d="M13.8002 4.45072C13.8002 4.45072 13.7002 4.54572 13.5752 4.54572C13.4914 4.54744 13.4098 4.51904 13.3452 4.46572C13.3052 4.44072 13.3552 4.36572 13.3552 4.36572" stroke="black" stroke-width="0.15"/>
<path d="M11.6447 4.63963C11.6447 4.63963 11.4597 4.60463 11.3797 4.57963C11.3047 4.55463 11.3247 4.50463 11.2297 4.50963C11.1447 4.51463 11.0547 4.57963 11.0747 4.66963C11.0947 4.75963 11.1597 4.76963 11.2247 4.75463C11.2847 4.73463 11.2647 4.62463 11.1847 4.63463C11.0997 4.63463 11.1697 4.70963 11.1697 4.70963" stroke="black" stroke-width="0.1375"/>
<path d="M10.3656 4.50041C10.3656 4.50041 10.4156 4.57541 10.5506 4.56041C10.6856 4.55041 10.7356 4.48041 10.7406 4.44541C10.7506 4.41541 10.7406 4.35541 10.7156 4.33041C10.6906 4.30541 10.6006 4.29541 10.6006 4.29541" stroke="black" stroke-width="0.125"/>
<path d="M12.9594 13.5196C13.0844 13.3946 13.2844 13.2596 13.3944 12.9696C13.4944 12.6896 13.5444 12.1846 13.6444 11.9296C13.7694 11.4896 14.0194 11.0596 13.7194 11.0896C13.4344 11.1196 13.3444 11.3896 13.2394 11.5896C13.1894 11.6646 13.0744 11.8246 13.0544 11.9146C13.0494 11.7646 12.9694 11.3196 12.9544 10.8746C12.9394 10.4546 12.9544 10.0246 12.9394 9.85964C12.9294 9.64464 12.9294 9.44464 12.8794 9.28964C12.8544 9.21464 12.7494 9.13964 12.6894 9.14464C12.5794 9.14464 12.5094 9.24464 12.4894 9.33964L12.4794 9.47964C12.4694 9.59964 12.4794 9.75464 12.4694 9.89464C12.4644 10.0446 12.4794 10.2046 12.4694 10.3446C12.4594 10.6146 12.4394 10.8696 12.4294 10.9196C12.4294 10.8196 12.3794 10.3346 12.3644 9.87464L12.3544 9.37464C12.3544 9.24464 12.3544 9.10464 12.3444 9.00464C12.3194 8.83464 12.2644 8.75464 12.1444 8.75464C12.0544 8.75464 11.9344 8.81964 11.8944 9.00464C11.8794 9.10964 11.8744 9.23464 11.8794 9.37464L11.8894 9.77464C11.8794 10.2996 11.8694 10.8496 11.8494 11.0146C11.8494 10.9646 11.7944 10.6896 11.7794 10.3196L11.7594 9.83964L11.7444 9.35964C11.7444 9.27964 11.7094 9.04964 11.5594 9.05964C11.4744 9.04964 11.3894 9.10964 11.3594 9.32464C11.3394 9.44964 11.3394 9.65464 11.3344 9.81964C11.3294 10.1196 11.3144 10.3896 11.3344 10.6646L11.3394 11.0496C11.3394 11.0696 11.2944 10.9046 11.2744 10.6796L11.2344 10.2496C11.2344 10.1346 11.2294 9.96464 11.2194 9.82464C11.2094 9.71964 11.2144 9.59964 11.0944 9.60964C10.9744 9.61464 10.9044 9.65964 10.8794 9.85964C10.8594 9.99464 10.8594 10.2846 10.8544 10.3846C10.8644 10.6496 10.7944 11.2696 10.7644 11.4446C10.7544 11.5696 10.7044 11.7296 10.6844 11.9046C10.6502 12.2486 10.667 12.5957 10.7344 12.9346C10.8344 13.2846 11.0844 13.4446 11.0744 13.6846C11.0594 13.9246 11.0744 14.3496 11.0744 14.5346C11.0744 14.7246 11.2394 14.7346 11.5744 14.6646C12.1344 14.5446 12.4394 14.7846 12.8944 14.6046C12.8394 14.0846 12.9494 13.7696 12.9444 13.5796L12.9594 13.5196ZM12.6344 12.2846C12.7494 11.9646 12.8944 11.8396 13.0344 11.7746L12.6344 12.2846Z" fill="#CC0000"/>
<path d="M12.6344 12.2846C12.7494 11.9646 12.8944 11.8396 13.0344 11.7746M12.9594 13.5196C13.0844 13.3946 13.2844 13.2596 13.3944 12.9696C13.4944 12.6896 13.5444 12.1846 13.6444 11.9296C13.7694 11.4896 14.0194 11.0596 13.7194 11.0896C13.4344 11.1196 13.3444 11.3896 13.2394 11.5896C13.1894 11.6646 13.0744 11.8246 13.0544 11.9146C13.0494 11.7646 12.9694 11.3196 12.9544 10.8746C12.9394 10.4546 12.9544 10.0246 12.9394 9.85964C12.9294 9.64464 12.9294 9.44464 12.8794 9.28964C12.8544 9.21464 12.7494 9.13964 12.6894 9.14464C12.5794 9.14464 12.5094 9.24464 12.4894 9.33964L12.4794 9.47964C12.4694 9.59964 12.4794 9.75464 12.4694 9.89464C12.4644 10.0446 12.4794 10.2046 12.4694 10.3446C12.4594 10.6146 12.4394 10.8696 12.4294 10.9196C12.4294 10.8196 12.3794 10.3346 12.3644 9.87464L12.3544 9.37464C12.3544 9.24464 12.3544 9.10464 12.3444 9.00464C12.3194 8.83464 12.2644 8.75464 12.1444 8.75464C12.0544 8.75464 11.9344 8.81964 11.8944 9.00464C11.8794 9.10964 11.8744 9.23464 11.8794 9.37464L11.8894 9.77464C11.8794 10.2996 11.8694 10.8496 11.8494 11.0146C11.8494 10.9646 11.7944 10.6896 11.7794 10.3196L11.7594 9.83964L11.7444 9.35964C11.7444 9.27964 11.7094 9.04964 11.5594 9.05964C11.4744 9.04964 11.3894 9.10964 11.3594 9.32464C11.3394 9.44964 11.3394 9.65464 11.3344 9.81964C11.3294 10.1196 11.3144 10.3896 11.3344 10.6646L11.3394 11.0496C11.3394 11.0696 11.2944 10.9046 11.2744 10.6796L11.2344 10.2496C11.2344 10.1346 11.2294 9.96464 11.2194 9.82464C11.2094 9.71964 11.2144 9.59964 11.0944 9.60964C10.9744 9.61464 10.9044 9.65964 10.8794 9.85964C10.8594 9.99464 10.8594 10.2846 10.8544 10.3846C10.8644 10.6496 10.7944 11.2696 10.7644 11.4446C10.7544 11.5696 10.7044 11.7296 10.6844 11.9046C10.6502 12.2486 10.667 12.5957 10.7344 12.9346C10.8344 13.2846 11.0844 13.4446 11.0744 13.6846C11.0594 13.9246 11.0744 14.3496 11.0744 14.5346C11.0744 14.7246 11.2394 14.7346 11.5744 14.6646C12.1344 14.5446 12.4394 14.7846 12.8944 14.6046C12.8394 14.0846 12.9494 13.7696 12.9444 13.5796L12.9594 13.5196Z" stroke="#161111" stroke-width="0.2"/>
<path d="M11.3691 11.96C11.5441 11.89 11.7191 11.84 11.8991 11.78C12.1141 11.72 12.3241 11.63 12.5491 11.6C12.6491 11.575 12.7591 11.55 12.8691 11.55M11.0641 13.65C11.0841 13.635 11.1141 13.66 11.1341 13.665C11.1641 13.675 11.1991 13.685 11.2341 13.68C11.3007 13.6788 11.3674 13.6788 11.4341 13.68C11.5191 13.68 11.5841 13.67 11.6491 13.63M12.1491 13.66L12.2291 13.705C12.2691 13.72 12.3191 13.725 12.5941 13.705C12.7691 13.715 12.9191 13.565 12.9641 13.525" stroke="#161111" stroke-width="0.2"/>
</g>
</g>
</g>
<defs>
<clipPath id="clip0_69_9623">
<rect width="24" height="24" rx="12" fill="white"/>
</clipPath>
<clipPath id="clip1_69_9623">
<rect width="32" height="24" fill="white" transform="translate(-4)"/>
</clipPath>
</defs>
</svg>
