<svg width="24" height="24" viewBox="0 0 24 24" fill="none" xmlns="http://www.w3.org/2000/svg">
<g clip-path="url(#clip0_69_13105)">
<path d="M0 12.2H24V24.8H0V12.2Z" fill="#00AB39"/>
<path d="M0 -0.400146H24V12.1999H0V-0.400146Z" fill="white"/>
<path d="M15.7092 5.85522C14.2238 6.65459 12.8197 7.59653 11.5167 8.66774C10.8792 9.22649 11.0592 9.66899 11.033 10.1677C11.0555 10.5052 10.9617 10.8202 10.7555 11.0077L9.33797 11.2927L9.20297 10.9027C9.24422 10.7002 9.40922 10.6027 9.76172 10.7265C9.78797 10.4715 9.57797 10.3665 9.33797 10.2765C9.25172 10.209 9.15047 10.164 9.16172 9.93899C9.12422 9.43274 9.93422 9.97649 9.94172 9.97649C9.94922 9.97649 9.91172 9.46274 9.54047 9.36149C9.33797 9.29024 9.25172 9.07649 9.33047 8.91899C9.49172 8.59274 9.79922 8.94149 10.0317 8.95649C10.0242 8.74274 9.96422 8.59274 9.78047 8.42399C9.68297 8.36024 9.44297 8.31524 9.43547 8.21399C9.43172 8.07899 9.66047 8.01899 9.97922 8.05649C9.91172 7.86524 9.69797 7.74149 9.40547 7.65149L9.23297 7.34774C9.15047 7.19774 9.11297 7.19024 9.30422 6.90524C9.47297 6.79274 9.70172 6.63524 9.87422 6.52649L9.68672 6.50399C9.70922 6.29774 9.71297 6.22649 9.76172 5.88522C9.57422 6.13647 9.34922 6.09147 9.13922 6.19272C9.13922 6.19272 8.55422 6.29774 8.36297 6.54899L6.88547 6.47399C6.57047 6.51524 6.30422 6.60524 6.25172 6.90899C5.53547 6.98399 4.78547 6.92024 4.23797 7.60274C4.61297 7.58774 4.93547 7.49774 5.35547 7.55024C5.35547 7.55024 5.71172 7.55774 5.78297 7.93649C5.79047 7.95149 5.90672 7.95149 5.90672 7.95149L6.04172 8.05649L6.09422 7.91399L6.21422 7.99649L6.25172 7.83899L6.37172 7.92149L6.37922 7.73399L6.53672 7.84649V7.59524C6.53672 7.59524 7.12172 7.59524 7.30172 7.97024C7.30922 7.97399 5.66297 8.27024 4.07297 8.13149L4.53047 7.90649C3.95297 7.78649 3.40547 7.68149 2.89546 7.28024C3.08672 8.00774 4.08422 8.85899 4.29047 8.85524L4.09547 8.50274L5.82047 8.57774C5.88422 8.76899 5.85797 8.98274 6.00797 9.15149C6.00797 9.15149 5.91422 9.46649 6.12797 9.59399C6.13547 9.60899 6.37922 8.95649 6.37922 8.95649C6.37922 8.95649 6.45422 9.13274 6.52922 9.24899C6.64172 8.68649 7.25672 8.59274 7.25672 8.59274L7.38422 8.89274C7.19297 8.92274 6.95297 9.31274 7.08422 9.53024C6.95297 9.53024 6.72422 9.90899 6.79547 10.1152C6.68672 10.224 6.42047 10.3665 6.48422 10.8202C6.27422 10.8652 6.14672 11.2515 6.21422 11.664C5.88422 11.9677 5.96672 12.5265 6.25922 12.7552C6.13922 12.8677 6.06422 12.9465 6.06422 13.0815C5.94797 13.0402 5.83922 13.074 5.79047 13.149C5.64797 13.0027 5.44547 12.879 5.30297 13.014C5.26547 12.8415 5.04047 12.654 4.79672 12.6765C4.80674 12.5685 4.77839 12.4605 4.71668 12.3713C4.65494 12.2822 4.5638 12.2176 4.45922 12.189C4.45922 12.189 4.40297 11.3415 4.14797 11.064C4.12172 10.914 4.16297 10.809 4.37297 10.6815C4.58672 10.569 4.63172 10.4827 4.61297 10.1602C4.69922 9.94649 4.76297 9.72899 4.50047 9.58274C4.50797 9.83774 4.43297 9.95774 4.32797 10.0702C4.20422 10.0552 4.16297 10.1977 4.08047 10.2577C3.96422 10.104 4.32422 9.86024 4.05797 9.51149C4.04297 9.49649 3.87047 9.06149 3.44672 9.06899C3.64547 9.18524 3.73172 9.38399 3.73172 9.59024C3.57542 9.93584 3.55139 10.3268 3.66422 10.689C3.48797 10.4265 3.38672 9.92399 3.24047 9.83774C3.11297 9.81149 3.05297 9.51149 2.55421 9.59774C2.76796 9.65399 2.83921 9.81899 2.89171 9.96524C2.76421 10.0327 2.82796 10.2127 2.92546 10.3365C2.90671 10.6252 3.07922 10.794 3.33797 10.899L3.21047 12.0877C3.10922 12.0765 2.94796 12.4777 2.88796 12.489C2.78671 12.5527 2.61046 12.7215 2.81296 12.7702C2.75296 12.984 2.69671 13.1152 2.37421 13.1602C2.37421 13.1602 2.71171 13.3627 2.99671 13.0177C3.29672 13.0102 3.19922 12.6502 3.34547 12.4927C3.34547 12.4815 3.43172 12.429 3.55172 12.1102C3.60422 12.3952 3.89672 13.2652 4.55297 13.6965C5.12672 14.3115 5.60297 14.8927 5.59547 15.7102C5.81579 15.468 5.97404 15.1758 6.05672 14.859C6.43085 14.7467 6.82178 14.701 7.21172 14.724C7.14422 14.8702 7.06547 15.009 7.16297 15.099C6.88547 15.1965 6.82547 15.399 6.93797 15.5977C6.64547 15.7965 6.62672 15.924 6.62297 16.254C6.07922 16.9477 5.74547 16.9252 5.20922 16.7415C5.03672 16.6402 4.75922 16.494 4.63547 16.5727C4.40672 16.4152 4.07297 16.3927 4.01672 16.7452C4.19297 16.599 4.29422 16.629 4.43297 16.7677C4.40672 16.839 4.38422 16.9065 4.48547 16.9477L4.35047 17.0977C4.10297 17.0602 3.76547 17.0602 3.67922 17.424C3.80672 17.3152 4.09172 17.2927 4.31672 17.394L4.44797 17.439L4.46297 17.6115C4.46297 17.6115 4.12547 17.559 4.03547 18.1102C4.35047 17.7727 4.57547 17.859 4.57547 17.859C4.69922 18.039 5.14922 18.0127 5.47547 17.7165C5.92922 17.4615 6.06422 17.829 6.35672 17.589C6.60047 17.409 6.88922 17.529 7.08797 17.739C7.31672 17.8252 7.55672 17.8965 7.74422 17.739C7.74422 17.739 7.97672 17.5927 8.20547 17.829C8.20547 17.5665 8.01797 17.4202 7.76297 17.4165L7.68797 17.3415C7.44422 17.289 7.17422 17.3115 6.96047 17.1915C7.04336 16.8129 7.22591 16.4633 7.48922 16.179C7.83797 15.804 8.09672 15.6315 8.53922 15.0577C8.52047 15.384 8.76797 15.744 8.89922 16.0702C8.89922 16.0702 9.16172 15.654 9.19922 15.309C9.21047 15.309 9.53297 15.144 9.66797 14.9977C9.96047 15.1815 10.433 14.8552 10.7405 14.5852C10.928 14.6602 11.0742 14.6527 11.2917 14.5852C11.1155 14.9452 11.393 15.279 11.8355 15.4177C11.873 15.7327 12.1955 15.8002 12.6792 15.8002C12.7017 15.9877 12.9905 16.014 12.9905 16.014C12.803 16.0965 12.713 16.1827 12.7167 16.374C12.5292 16.374 12.3905 16.4227 12.3417 16.6365C12.083 16.644 11.8205 16.6627 11.5992 16.7865C11.363 16.7527 11.0742 16.6552 10.8905 16.464C10.7967 16.3852 10.7705 16.269 10.6055 16.224C10.5005 16.1002 10.373 16.1265 10.3317 16.2465C10.223 16.1602 9.81422 16.1227 9.74297 16.509C9.93797 16.3702 10.1067 16.3177 10.2305 16.4902C10.163 16.6065 10.388 16.6777 10.583 16.7227C10.7217 16.7302 10.9655 16.8577 11.0405 17.0677C10.9353 17.0982 10.8247 17.1052 10.7165 17.0884C10.6083 17.0715 10.5051 17.0312 10.4142 16.9702C10.3467 16.914 10.263 16.8807 10.1754 16.8753C10.0877 16.8699 10.0006 16.8927 9.92672 16.9402C9.76172 16.8352 9.37547 17.034 9.36047 17.349C9.52172 17.199 9.67172 17.124 9.82172 17.2215C9.74672 17.2365 9.77297 17.244 9.78422 17.289L10.1592 17.5065C9.97172 17.5552 9.79922 17.6302 9.88172 17.9752C9.88172 17.9752 10.0317 17.6752 10.3692 17.7877C10.3767 17.7765 10.418 17.8927 10.5155 17.814C10.6617 17.649 10.9955 17.574 11.2917 17.544C11.528 17.5177 11.7642 17.4465 11.9667 17.5815C12.1542 17.4877 12.3567 17.424 12.5667 17.574C12.8142 17.649 12.9942 17.9415 13.3055 17.8102C13.463 17.6977 13.6542 17.6977 13.8492 17.9152C13.8492 17.6377 13.643 17.544 13.3505 17.484L13.148 17.364C12.9605 17.334 12.773 17.3677 12.5817 17.2777C13.0301 17.1702 13.4525 16.9741 13.824 16.7011C14.1956 16.428 14.5089 16.0835 14.7455 15.6877L15.2142 15.8527C15.3267 15.8602 15.3342 15.8977 15.563 15.9652C15.5705 15.6315 15.4242 15.2865 14.8205 15.2527L14.033 14.9527C13.8605 14.7727 13.7855 14.394 13.9992 14.1727C14.2092 13.9852 14.2467 14.0077 14.3855 13.779C14.5542 13.764 14.7117 13.9365 14.8655 13.9365C14.9405 14.1577 15.368 14.349 15.638 14.2852C15.8067 14.4352 16.1255 14.5177 16.4817 14.3977C16.5832 14.4924 16.7112 14.5539 16.8485 14.574C16.9859 14.5941 17.1261 14.5719 17.2505 14.5102C17.333 14.5927 17.5055 14.6602 17.7005 14.6152C17.7192 14.6152 17.8055 14.8327 18.0192 14.9115C17.9255 15.0015 17.9817 15.399 18.083 15.5452C18.0104 15.6936 17.9983 15.8643 18.0492 16.0215C17.8317 16.1602 17.7867 16.2652 17.8842 16.5015C17.5992 16.9627 17.258 17.0152 16.9355 16.8765L16.5867 16.6515L16.2192 16.2915C16.1555 16.2315 16.0242 16.2165 15.998 16.344C15.998 16.344 15.5255 16.239 15.4842 16.6402C15.683 16.449 15.9605 16.6177 15.9605 16.6252C15.9605 16.6327 15.893 16.6777 15.9455 16.7527C15.9567 16.7415 16.2942 16.8765 16.5905 17.004C16.7517 17.0677 16.7892 17.0865 16.8605 17.124C16.7709 17.0829 16.6809 17.0429 16.5905 17.004C16.4603 16.944 16.3207 16.9072 16.178 16.8952C16.013 16.8802 15.833 16.8577 15.7505 16.9852C15.5705 17.0602 15.2855 17.124 15.3005 17.4615C15.4205 17.259 15.5892 17.2702 15.803 17.289L15.788 17.334C16.0205 17.439 15.9755 17.304 16.193 17.2852C16.3882 17.2823 16.5825 17.314 16.7667 17.379C16.598 17.4277 16.3655 17.4052 16.2567 17.529C16.2342 17.5665 16.163 17.5515 16.1967 17.649C16.1967 17.649 15.8592 17.6415 15.773 18.099C16.1105 17.8852 16.3692 17.8927 16.373 17.8927L16.4817 17.9152L16.8942 17.6415C16.9055 17.6415 17.2917 17.469 17.468 17.664C17.6255 17.739 17.7905 17.7465 17.9555 17.649C18.2705 17.5102 18.5667 17.499 18.8555 17.694L19.1217 17.8515L19.2342 17.7765C19.2342 17.7765 19.5342 17.694 19.7517 17.9602C19.6617 17.499 19.3317 17.484 19.3317 17.484L19.2567 17.4165L18.7917 17.2327C18.7205 17.064 18.5517 16.9327 18.7205 16.7302C18.8967 15.864 19.103 15.2152 18.7655 14.3377C19.0805 14.4727 19.3167 14.8927 19.7105 14.7465C19.7105 14.394 18.413 13.7227 17.423 13.1865C19.0505 13.1002 21.0005 11.904 20.2505 10.3815L20.603 9.27899C20.7717 9.61649 21.1092 9.87149 21.413 9.98024C21.1617 9.50399 21.0192 8.04524 21.1617 7.04024C20.4983 7.83659 19.783 8.58824 19.0205 9.29024C19.3955 9.38024 19.7292 9.31649 20.093 9.27149L19.7855 9.90899C18.788 9.32024 17.618 9.75899 17.6105 10.539C17.6442 11.4465 18.7655 11.5777 19.4142 11.259C19.2867 12.0877 17.3817 11.784 17.3817 11.784C16.7067 11.5515 16.0655 11.589 15.3567 11.5965C15.503 11.1427 16.3205 10.7377 16.9467 10.9177C16.073 9.93524 17.0705 8.71649 18.2742 8.34524C16.9617 7.91024 18.0905 6.90899 19.073 6.19272C19.073 6.19272 16.2492 7.38149 15.9905 7.37774C15.188 7.31774 15.4055 6.36524 15.713 5.85522H15.7092ZM6.84422 6.99524C6.91172 6.99524 6.98672 7.00274 7.05047 7.01774C7.17797 7.05149 7.33172 7.06649 7.33172 7.10774C7.27172 7.20524 7.12547 7.32149 6.98297 7.31774C6.84047 7.31024 6.75797 7.22399 6.71297 7.01024C6.72797 7.00274 6.78047 6.99524 6.84422 6.99524ZM18.7317 10.3477C18.9192 10.3477 19.1405 10.4227 19.3542 10.6552C19.253 10.9552 18.3492 11.1052 18.2892 10.6627C18.2705 10.5277 18.4617 10.3515 18.7317 10.3477Z" fill="#D21034"/>
<path d="M16.5905 17.004C16.2942 16.8765 15.9567 16.7415 15.9455 16.7527C15.893 16.6777 15.9605 16.6327 15.9605 16.6252C15.9605 16.6177 15.683 16.449 15.4842 16.6402C15.5255 16.239 15.998 16.344 15.998 16.344C16.0242 16.2165 16.1555 16.2315 16.2192 16.2915L16.5867 16.6515L16.9355 16.8765C17.258 17.0152 17.5992 16.9627 17.8842 16.5015C17.7867 16.2652 17.8317 16.1602 18.0492 16.0215C17.9983 15.8643 18.0104 15.6936 18.083 15.5452C17.9817 15.399 17.9255 15.0015 18.0192 14.9115C17.8055 14.8327 17.7192 14.6152 17.7005 14.6152C17.5055 14.6602 17.333 14.5927 17.2505 14.5102C17.1261 14.5719 16.9859 14.5941 16.8485 14.574C16.7112 14.5539 16.5832 14.4924 16.4817 14.3977C16.1255 14.5177 15.8067 14.4352 15.638 14.2852C15.368 14.349 14.9405 14.1577 14.8655 13.9365C14.7117 13.9365 14.5542 13.764 14.3855 13.779C14.2467 14.0077 14.2092 13.9852 13.9992 14.1727C13.7855 14.394 13.8605 14.7727 14.033 14.9527L14.8205 15.2527C15.4242 15.2865 15.5705 15.6315 15.563 15.9652C15.3342 15.8977 15.3267 15.8602 15.2142 15.8527L14.7455 15.6877C14.5089 16.0835 14.1956 16.428 13.824 16.7011C13.4525 16.9741 13.0301 17.1702 12.5817 17.2777C12.773 17.3677 12.9605 17.334 13.148 17.364L13.3505 17.484C13.643 17.544 13.8492 17.6377 13.8492 17.9152C13.6542 17.6977 13.463 17.6977 13.3055 17.8102C12.9942 17.9415 12.8142 17.649 12.5667 17.574C12.3567 17.424 12.1542 17.4877 11.9667 17.5815C11.7642 17.4465 11.528 17.5177 11.2917 17.544C10.9955 17.574 10.6617 17.649 10.5155 17.814C10.418 17.8927 10.3767 17.7765 10.3692 17.7877C10.0317 17.6752 9.88172 17.9752 9.88172 17.9752C9.79922 17.6302 9.97172 17.5552 10.1592 17.5065L9.78422 17.289C9.77297 17.244 9.74672 17.2365 9.82172 17.2215C9.67172 17.124 9.52172 17.199 9.36047 17.349C9.37547 17.034 9.76172 16.8352 9.92672 16.9402C10.0006 16.8927 10.0877 16.8699 10.1754 16.8753C10.263 16.8807 10.3467 16.914 10.4142 16.9702C10.5051 17.0312 10.6083 17.0715 10.7165 17.0884C10.8247 17.1052 10.9353 17.0982 11.0405 17.0677C10.9655 16.8577 10.7217 16.7302 10.583 16.7227C10.388 16.6777 10.163 16.6065 10.2305 16.4902C10.1067 16.3177 9.93797 16.3702 9.74297 16.509C9.81422 16.1227 10.223 16.1602 10.3317 16.2465C10.373 16.1265 10.5005 16.1002 10.6055 16.224C10.7705 16.269 10.7967 16.3852 10.8905 16.464C11.0742 16.6552 11.363 16.7527 11.5992 16.7865C11.8205 16.6627 12.083 16.644 12.3417 16.6365C12.3905 16.4227 12.5292 16.374 12.7167 16.374C12.713 16.1827 12.803 16.0965 12.9905 16.014C12.9905 16.014 12.7017 15.9877 12.6792 15.8002C12.1955 15.8002 11.873 15.7327 11.8355 15.4177C11.393 15.279 11.1155 14.9452 11.2917 14.5852C11.0742 14.6527 10.928 14.6602 10.7405 14.5852C10.433 14.8552 9.96047 15.1815 9.66797 14.9977C9.53297 15.144 9.21047 15.309 9.19922 15.309C9.16172 15.654 8.89922 16.0702 8.89922 16.0702C8.76797 15.744 8.52047 15.384 8.53922 15.0577C8.09672 15.6315 7.83797 15.804 7.48922 16.179C7.22591 16.4633 7.04336 16.8129 6.96047 17.1915C7.17422 17.3115 7.44422 17.289 7.68797 17.3415L7.76297 17.4165C8.01797 17.4202 8.20547 17.5665 8.20547 17.829C7.97672 17.5927 7.74422 17.739 7.74422 17.739C7.55672 17.8965 7.31672 17.8252 7.08797 17.739C6.88922 17.529 6.60047 17.409 6.35672 17.589C6.06422 17.829 5.92922 17.4615 5.47547 17.7165C5.14922 18.0127 4.69922 18.039 4.57547 17.859C4.57547 17.859 4.35047 17.7727 4.03547 18.1102C4.12547 17.559 4.46297 17.6115 4.46297 17.6115L4.44797 17.439L4.31672 17.394C4.09172 17.2927 3.80672 17.3152 3.67922 17.424C3.76547 17.0602 4.10297 17.0602 4.35047 17.0977L4.48547 16.9477C4.38422 16.9065 4.40672 16.839 4.43297 16.7677C4.29422 16.629 4.19297 16.599 4.01672 16.7452C4.07297 16.3927 4.40672 16.4152 4.63547 16.5727C4.75922 16.494 5.03672 16.6402 5.20922 16.7415C5.74547 16.9252 6.07922 16.9477 6.62297 16.254C6.62672 15.924 6.64547 15.7965 6.93797 15.5977C6.82547 15.399 6.88547 15.1965 7.16297 15.099C7.06547 15.009 7.14422 14.8702 7.21172 14.724C6.82178 14.701 6.43085 14.7467 6.05672 14.859C5.97404 15.1758 5.81579 15.468 5.59547 15.7102C5.60297 14.8927 5.12672 14.3115 4.55297 13.6965C3.89672 13.2652 3.60422 12.3952 3.55172 12.1102C3.43172 12.429 3.34547 12.4815 3.34547 12.4927C3.19922 12.6502 3.29672 13.0102 2.99671 13.0177C2.71171 13.3627 2.37421 13.1602 2.37421 13.1602C2.69671 13.1152 2.75296 12.984 2.81296 12.7702C2.61046 12.7215 2.78671 12.5527 2.88796 12.489C2.94796 12.4777 3.10922 12.0765 3.21047 12.0877L3.33797 10.899C3.07922 10.794 2.90671 10.6252 2.92546 10.3365C2.82796 10.2127 2.76421 10.0327 2.89171 9.96524C2.83921 9.81899 2.76796 9.65399 2.55421 9.59774C3.05297 9.51149 3.11297 9.81149 3.24047 9.83774C3.38672 9.92399 3.48797 10.4265 3.66422 10.689C3.55139 10.3268 3.57542 9.93584 3.73172 9.59024C3.73172 9.38399 3.64547 9.18524 3.44672 9.06899C3.87047 9.06149 4.04297 9.49649 4.05797 9.51149C4.32422 9.86024 3.96422 10.104 4.08047 10.2577C4.16297 10.1977 4.20422 10.0552 4.32797 10.0702C4.43297 9.95774 4.50797 9.83774 4.50047 9.58274C4.76297 9.72899 4.69922 9.94649 4.61297 10.1602C4.63172 10.4827 4.58672 10.569 4.37297 10.6815C4.16297 10.809 4.12172 10.914 4.14797 11.064C4.40297 11.3415 4.45922 12.189 4.45922 12.189C4.5638 12.2176 4.65494 12.2822 4.71668 12.3713C4.77839 12.4605 4.80674 12.5685 4.79672 12.6765C5.04047 12.654 5.26547 12.8415 5.30297 13.014C5.44547 12.879 5.64797 13.0027 5.79047 13.149C5.83922 13.074 5.94797 13.0402 6.06422 13.0815C6.06422 12.9465 6.13922 12.8677 6.25922 12.7552C5.96672 12.5265 5.88422 11.9677 6.21422 11.664C6.14672 11.2515 6.27422 10.8652 6.48422 10.8202C6.42047 10.3665 6.68672 10.224 6.79547 10.1152C6.72422 9.90899 6.95297 9.53024 7.08422 9.53024C6.95297 9.31274 7.19297 8.92274 7.38422 8.89274L7.25672 8.59274C7.25672 8.59274 6.64172 8.68649 6.52922 9.24899C6.45422 9.13274 6.37922 8.95649 6.37922 8.95649C6.37922 8.95649 6.13547 9.60899 6.12797 9.59399C5.91422 9.46649 6.00797 9.15149 6.00797 9.15149C5.85797 8.98274 5.88422 8.76899 5.82047 8.57774L4.09547 8.50274L4.29047 8.85524C4.08422 8.85899 3.08672 8.00774 2.89546 7.28024C3.40547 7.68149 3.95297 7.78649 4.53047 7.90649L4.07297 8.13149C5.66297 8.27024 7.30922 7.97399 7.30172 7.97024C7.12172 7.59524 6.53672 7.59524 6.53672 7.59524V7.84649L6.37922 7.73399L6.37172 7.92149L6.25172 7.83899L6.21422 7.99649L6.09422 7.91399L6.04172 8.05649L5.90672 7.95149C5.90672 7.95149 5.79047 7.95149 5.78297 7.93649C5.71172 7.55774 5.35547 7.55024 5.35547 7.55024C4.93547 7.49774 4.61297 7.58774 4.23797 7.60274C4.78547 6.92024 5.53547 6.98399 6.25172 6.90899C6.30422 6.60524 6.57047 6.51524 6.88547 6.47399L8.36297 6.54899C8.55422 6.29774 9.13922 6.19272 9.13922 6.19272C9.34922 6.09147 9.57422 6.13647 9.76172 5.88522C9.71297 6.22649 9.70922 6.29774 9.68672 6.50399L9.87422 6.52649C9.70172 6.63524 9.47297 6.79274 9.30422 6.90524C9.11297 7.19024 9.15047 7.19774 9.23297 7.34774L9.40547 7.65149C9.69797 7.74149 9.91172 7.86524 9.97922 8.05649C9.66047 8.01899 9.43172 8.07899 9.43547 8.21399C9.44297 8.31524 9.68297 8.36024 9.78047 8.42399C9.96422 8.59274 10.0242 8.74274 10.0317 8.95649C9.79922 8.94149 9.49172 8.59274 9.33047 8.91899C9.25172 9.07649 9.33797 9.29024 9.54047 9.36149C9.91172 9.46274 9.94922 9.97649 9.94172 9.97649C9.93422 9.97649 9.12422 9.43274 9.16172 9.93899C9.15047 10.164 9.25172 10.209 9.33797 10.2765C9.57797 10.3665 9.78797 10.4715 9.76172 10.7265C9.40922 10.6027 9.24422 10.7002 9.20297 10.9027L9.33797 11.2927L10.7555 11.0077C10.9617 10.8202 11.0555 10.5052 11.033 10.1677C11.0592 9.66899 10.8792 9.22649 11.5167 8.66774C12.8197 7.59653 14.2238 6.65459 15.7092 5.85522H15.713C15.4055 6.36524 15.188 7.31774 15.9905 7.37774C16.2492 7.38149 19.073 6.19272 19.073 6.19272C18.0905 6.90899 16.9617 7.91024 18.2742 8.34524C17.0705 8.71649 16.073 9.93524 16.9467 10.9177C16.3205 10.7377 15.503 11.1427 15.3567 11.5965C16.0655 11.589 16.7067 11.5515 17.3817 11.784C17.3817 11.784 19.2867 12.0877 19.4142 11.259C18.7655 11.5777 17.6442 11.4465 17.6105 10.539C17.618 9.75899 18.788 9.32024 19.7855 9.90899L20.093 9.27149C19.7292 9.31649 19.3955 9.38024 19.0205 9.29024C19.783 8.58824 20.4983 7.83659 21.1617 7.04024C21.0192 8.04524 21.1617 9.50399 21.413 9.98024C21.1092 9.87149 20.7717 9.61649 20.603 9.27899L20.2505 10.3815C21.0005 11.904 19.0505 13.1002 17.423 13.1865C18.413 13.7227 19.7105 14.394 19.7105 14.7465C19.3167 14.8927 19.0805 14.4727 18.7655 14.3377C19.103 15.2152 18.8967 15.864 18.7205 16.7302C18.5517 16.9327 18.7205 17.064 18.7917 17.2327L19.2567 17.4165L19.3317 17.484C19.3317 17.484 19.6617 17.499 19.7517 17.9602C19.5342 17.694 19.2342 17.7765 19.2342 17.7765L19.1217 17.8515L18.8555 17.694C18.5667 17.499 18.2705 17.5102 17.9555 17.649C17.7905 17.7465 17.6255 17.739 17.468 17.664C17.2917 17.469 16.9055 17.6415 16.8942 17.6415L16.4817 17.9152L16.373 17.8927C16.3692 17.8927 16.1105 17.8852 15.773 18.099C15.8592 17.6415 16.1967 17.649 16.1967 17.649C16.163 17.5515 16.2342 17.5665 16.2567 17.529C16.3655 17.4052 16.598 17.4277 16.7667 17.379C16.5825 17.314 16.3882 17.2823 16.193 17.2852C15.9755 17.304 16.0205 17.439 15.788 17.334L15.803 17.289C15.5892 17.2702 15.4205 17.259 15.3005 17.4615C15.2855 17.124 15.5705 17.0602 15.7505 16.9852C15.833 16.8577 16.013 16.8802 16.178 16.8952C16.3207 16.9072 16.4603 16.944 16.5905 17.004ZM16.5905 17.004C16.7517 17.0677 16.7892 17.0865 16.8605 17.124C16.7709 17.0829 16.6809 17.0429 16.5905 17.004ZM6.84422 6.99524C6.91172 6.99524 6.98672 7.00274 7.05047 7.01774C7.17797 7.05149 7.33172 7.06649 7.33172 7.10774C7.27172 7.20524 7.12547 7.32149 6.98297 7.31774C6.84047 7.31024 6.75797 7.22399 6.71297 7.01024C6.72797 7.00274 6.78047 6.99524 6.84422 6.99524ZM18.7317 10.3477C18.9192 10.3477 19.1405 10.4227 19.3542 10.6552C19.253 10.9552 18.3492 11.1052 18.2892 10.6627C18.2705 10.5277 18.4617 10.3515 18.7317 10.3477Z" stroke="black" stroke-width="0.175"/>
<path d="M7.77798 9.61985L7.91673 9.8186M7.90923 9.82235C7.90923 9.82235 7.90923 10.0924 7.96548 10.0961M7.84173 10.2424L7.98423 10.4786M7.59048 10.5386C7.59798 10.5386 7.76673 10.7336 7.76673 10.7336M7.91298 10.5836C7.91298 10.5911 8.07048 10.8874 8.08173 10.8874M7.70673 10.7899C7.70673 10.7899 7.75923 11.1499 7.80798 11.1386M7.47048 11.4499L7.62798 11.6936M7.76673 11.1949C7.76673 11.1949 7.85298 11.5361 7.92048 11.5061M7.99173 10.9886C7.99548 10.9961 8.15298 11.2174 8.19423 11.1874M8.15673 11.2736L8.30673 11.5736M7.90923 11.5061L8.03298 11.8586M7.62048 11.6861C7.62048 11.6861 7.73298 12.0649 7.83423 12.0049M7.57923 12.1924C7.57923 12.1924 7.58673 12.3911 7.68423 12.4024M7.75173 12.0911C7.75173 12.0986 7.85298 12.2336 7.85298 12.2336M8.04048 11.8549L8.11923 11.9861M8.30298 11.6111L8.42673 11.7649M7.72548 9.8261C7.72923 9.99485 7.99548 9.7661 8.10048 9.6236M7.61298 10.4111C7.61298 10.4111 7.90173 10.2049 8.12673 9.8936M7.51548 10.9024C7.72173 10.8461 8.10048 10.3886 8.17548 10.1449M7.47423 11.3561C7.53048 11.3824 8.23548 10.8686 8.25423 10.4974M7.45548 11.7499C7.45548 11.7461 8.10048 11.5849 8.36673 10.8761M7.42548 12.2861C7.42548 12.2861 8.45673 11.6674 8.51298 11.2136M15.4655 13.3249C15.4655 13.3249 15.398 13.8574 14.8655 13.9399M15.6342 14.2774C15.638 14.2699 16.1442 13.7149 16.013 13.5461M16.8042 13.7411C16.8042 13.7411 16.7967 14.1274 16.4817 14.3936M17.4342 13.8536C17.4342 13.8536 17.4455 14.3186 17.2467 14.5061M18.0117 14.1311C18.0117 14.1311 17.7867 14.5699 17.708 14.6149M18.0042 14.9074C18.0042 14.9074 18.2967 14.9824 18.3905 14.7874M18.0792 15.5411C18.0792 15.5411 18.3492 15.5899 18.4767 15.3311M18.0492 16.0324C18.0492 16.0324 18.2705 16.2199 18.4205 15.9724M14.8955 12.4324C14.8955 12.4324 14.8692 13.3811 16.2005 13.5724C17.6892 13.9849 18.3942 13.7674 18.4805 15.4361C18.4242 16.0736 18.3455 16.7861 17.8805 16.5124M13.478 13.3061C13.478 13.3061 13.6917 13.6849 13.9467 13.6586C14.2842 13.5611 14.408 13.7674 14.408 13.7674M12.5705 13.6849C12.5705 13.6849 13.133 13.9586 13.6092 13.5161M12.6342 13.2911C12.683 13.9474 11.8805 14.3224 11.5617 14.2586M12.6717 15.7961C12.6755 15.7961 13.1067 15.5411 13.0205 15.3611M11.8167 15.4174C11.828 15.4024 12.5405 15.3349 12.6717 15.0799M11.4867 14.3674C11.4867 14.3674 12.4955 14.3749 12.563 14.5586M12.8255 13.7711C12.8255 13.7711 11.843 15.4549 13.658 15.4549M11.783 13.7486C11.783 13.7486 11.573 14.3749 11.273 14.5886M10.7405 13.5311C10.7405 13.5311 11.1042 14.2361 10.7405 14.5849M9.78798 13.7299C9.79173 13.7411 9.90423 14.7311 9.65673 15.0124M9.31173 13.7599C9.31173 13.7599 9.34923 14.3899 9.16173 14.6149C8.97423 14.8399 9.20673 15.3049 9.20673 15.3049M6.93798 15.6049C6.93798 15.6049 7.07298 15.8411 7.25673 15.7586M7.16298 15.0911C7.16298 15.0911 7.46298 15.2224 7.56423 15.1736M7.48923 14.0336C7.48923 14.0336 7.04673 14.1574 7.21548 14.6824C7.47048 14.8886 7.71798 14.8549 7.71798 14.8549M6.61548 16.2574C6.61173 16.2574 6.66798 16.6699 6.95298 16.3586C7.15173 15.9386 7.77798 14.7611 7.92423 14.3561M8.21673 14.1649C8.21673 14.1649 7.91298 13.9286 7.92423 14.2586C7.91673 14.4649 8.01798 14.5136 8.01798 14.5136C8.02923 14.6636 8.16048 14.8736 8.26548 14.6824C8.31048 14.4949 8.23548 14.4124 8.23548 14.4124M8.41173 14.0749C8.13798 14.0599 7.98798 14.6636 8.51673 14.2849M8.69673 13.8724C8.69673 13.8724 8.62923 13.9661 8.52048 13.8649C8.46423 13.7674 8.26548 14.3149 8.61423 14.3336C8.67798 14.1724 8.86923 14.1274 8.86923 14.1274M9.03423 13.6099C9.03423 13.6099 8.87673 13.6849 8.82048 13.6736C8.63298 13.7149 8.67048 14.1536 8.90673 14.1274C8.98923 14.0336 9.07548 13.9024 9.07548 13.9024M7.56423 13.0399C7.55673 13.0399 6.94548 14.0036 7.90548 14.2586M15.3305 11.5961C15.3305 11.5961 14.9555 11.9111 15.3042 12.4211C14.1417 12.4024 13.523 12.9386 13.4742 13.2986C11.9967 13.1936 12.2667 13.6286 11.7867 13.7711C11.1455 13.2349 10.2042 13.5349 10.2642 14.0711C9.83673 13.4674 9.17673 13.7599 9.09423 13.9099C9.01548 14.0599 9.04548 13.1674 9.04548 13.1674C9.04548 13.1674 8.61423 13.3624 8.31798 13.7149V12.9686C7.95798 13.0436 7.60923 13.0436 7.23798 13.0361M6.26673 12.7624C6.26673 12.7624 6.80298 13.0624 7.46673 12.6574M6.22548 11.6861C6.22548 11.6861 6.63798 12.0611 7.42548 11.9411M6.48798 10.8274C6.48798 10.8274 6.57798 11.1311 7.47423 11.1499M6.78798 10.1224C6.78798 10.1224 7.12548 10.5349 7.58298 10.4711M7.07673 9.5336C7.07673 9.5336 7.20798 9.7586 7.70673 9.7961M7.36923 8.87735C7.36923 8.87735 7.63173 9.16235 7.93173 9.1136M8.92548 6.5486C8.92548 6.5486 9.04173 6.4361 9.23673 6.49235M8.84298 7.15985C8.84298 7.15985 8.48298 7.1486 8.50548 7.00985C8.53548 6.84485 8.88798 6.7286 8.88798 6.7286C8.88798 6.7286 9.35673 6.4286 9.42798 6.3236M7.30548 7.9736L7.76298 8.84735L7.98048 8.51735L8.09298 8.74235L8.28048 8.4161L8.60298 8.62235L8.48298 8.2211L8.75298 8.20235C8.75298 8.20235 8.67798 8.0111 8.43798 7.96985C8.50173 7.9211 8.72673 7.7711 8.72673 7.7711C8.72673 7.7711 8.59923 7.6211 8.39673 7.61735C8.46423 7.5461 8.55423 7.3736 8.54673 7.3736L8.34798 7.3286C8.34798 7.3286 8.80548 7.4786 9.15798 7.2686M8.28798 6.5636C8.29173 6.56735 8.26173 6.7436 8.16423 6.84485M6.52548 7.0436C6.52548 7.0436 6.80673 6.9686 7.01673 7.00985C7.22673 7.05485 7.50798 7.12985 7.50798 7.12985C7.50798 7.12985 7.84548 7.08485 7.95423 7.0061M5.82423 7.2311C5.82423 7.2311 5.78673 7.3661 5.77173 7.4561C5.77173 7.51985 5.56548 7.6061 5.56548 7.6061M5.95173 6.9536C5.95173 6.9536 6.13173 7.1786 6.13923 7.30985C6.14298 7.43735 6.00423 7.53485 6.00423 7.53485M4.08798 8.48735L3.90048 8.18735L4.06923 8.12735M7.46298 12.6649C7.31298 12.4699 7.57548 9.50735 8.12673 8.73485C7.93548 10.1299 8.57673 11.5549 8.73798 11.5474M5.77548 7.90985C5.77548 7.90985 6.03048 8.0036 6.55173 7.58735M7.26048 8.59235L7.63548 8.5961M18.8967 6.2711C18.8967 6.2711 12.6455 9.1886 12.5555 9.3461C13.6092 9.0236 18.0867 8.27735 18.1955 8.3411C17.933 8.40485 12.4992 9.6536 12.2442 9.9536C13.6017 9.9086 16.4405 10.3886 16.8867 10.8536C15.9192 10.6361 13.0355 10.2124 12.1505 10.3999C12.7955 10.5536 15.2705 12.1549 15.2705 12.4099C14.8955 12.0536 11.9217 10.8274 11.8055 10.9474C12.488 11.3561 13.4517 12.8749 13.4517 13.2461C13.253 12.9311 11.5317 11.0824 11.4305 11.2024C11.6142 11.4536 11.9742 13.6361 11.7905 13.7374C11.7905 13.4749 11.123 11.5624 11.0667 11.5099C10.9317 11.5474 10.0805 13.8349 10.2492 14.0524C10.1367 13.2874 10.268 11.6899 10.4742 11.7536C10.0992 11.8099 8.91048 13.3811 9.03798 13.6286C9.07548 13.2349 9.12798 12.9761 9.80298 11.6749C9.05298 11.7199 7.50798 12.6911 7.24548 13.0399C7.45548 12.4211 8.76423 11.3749 9.33798 11.2999M12.038 9.0236C12.698 8.6561 14.738 7.90985 16.103 7.3586M10.7555 10.9961C10.7555 10.9961 11.2055 10.9886 11.6555 9.7661C12.098 8.0936 15.6192 6.22985 15.6905 5.8811M4.80048 12.6799C4.80048 12.6799 4.69548 12.9049 4.56798 12.9649M5.30673 13.0174C5.30673 13.0174 5.16798 13.2874 5.13423 13.4149M5.79048 13.1524C5.79048 13.1524 5.90298 13.5199 5.80923 13.6924M4.44423 12.1886C4.09173 12.3874 4.64673 13.6511 6.32298 13.7711M6.05298 13.0886C6.05298 13.0886 6.00798 13.3136 6.32298 13.7636C6.23298 14.2661 6.70548 14.6599 6.89298 14.7236M5.91798 8.5661L5.97048 8.4311L6.02673 8.5811L6.12048 8.57735L6.18048 8.42735L6.23298 8.57735H6.32298L6.37923 8.41235L6.46548 8.56985H6.54048L6.59673 8.38235L6.70923 8.51735L6.75423 8.50235L6.79173 8.30735L6.90798 8.44235L6.94548 8.4236L6.99798 8.2361L7.09173 8.37485L7.14048 8.35985L7.18548 8.1986L7.27548 8.3486M5.81298 8.5811L6.51798 8.56985C6.74298 8.56985 7.11048 8.2586 7.51923 8.3561M4.33548 10.0811C4.33548 10.0811 4.45173 10.3361 4.61298 10.1936M4.06548 10.2499C4.06548 10.2499 3.84048 10.8574 4.11048 10.9999M3.74298 9.58235C3.74298 9.58235 3.74298 9.72485 4.04298 9.50735M2.82422 12.7586C2.82422 12.7586 3.06048 12.8336 3.02298 13.0099M2.91047 9.97985C2.91047 9.97985 3.06048 10.0511 3.20298 9.82985M4.48548 16.9436C4.71423 16.9286 4.76673 17.0336 4.97298 17.0336C5.22048 17.0411 5.45673 16.9436 5.76048 16.8574M7.75173 17.4199C7.74423 17.4199 7.63923 17.6374 7.73298 17.7461M4.45173 17.4386C4.45173 17.4386 4.81923 17.1386 5.01423 17.3224C5.19798 17.3861 5.29923 17.3749 5.29923 17.3749M4.64298 16.5761C4.64298 16.5761 4.73298 16.8086 4.43298 16.7749M4.34298 17.1124C4.34298 17.1124 4.53423 17.2324 4.31673 17.3936M4.45923 17.6111C4.45923 17.6111 4.72173 17.6486 4.56798 17.8624M12.7205 16.3661C12.9867 16.5799 12.878 16.7074 13.718 16.1449M12.338 16.6324C12.338 16.6324 12.7317 17.0599 13.0205 16.5424M11.5842 16.7861L11.048 17.0674M10.088 17.4611C10.088 17.4611 10.4142 17.1836 10.5642 17.3299C10.718 17.4799 11.363 17.2024 11.363 17.2024M10.3317 16.2499C10.3317 16.2499 10.4442 16.4749 10.2267 16.5011M9.90798 16.9474C9.90798 16.9474 10.0205 17.1574 9.80298 17.2099M10.1592 17.5136C10.1592 17.5136 10.4967 17.5324 10.3767 17.7874M13.3167 17.4686C13.3167 17.4686 13.1292 17.6261 13.268 17.8061M16.0055 16.3436C16.0055 16.3436 16.2192 16.4486 15.9642 16.6249M15.7505 16.9961C15.7505 16.9961 15.9117 17.1649 15.803 17.3036M16.2005 17.6411C16.2005 17.6411 16.4217 17.7049 16.3955 17.8886M19.313 17.4761C19.313 17.4761 19.1255 17.6149 19.2267 17.7911M16.013 12.0611C16.4555 12.0086 17.093 12.9986 17.4192 13.1899M19.3655 10.6624C19.3655 10.6624 19.5905 10.8611 19.3917 11.3374M19.7817 9.90485C19.8455 9.9536 20.0855 10.0849 20.2467 10.3849M20.4005 8.42735L20.0892 9.2711M20.7492 8.3861C20.7492 8.3861 20.6892 9.1361 20.5992 9.2861M12.9755 16.0099C12.9755 16.0099 13.688 16.0849 13.7255 16.1374C13.808 16.0511 14.4455 15.5299 13.6617 15.4586C13.6256 15.6141 13.5383 15.7529 13.4139 15.8529C13.2895 15.9528 13.1351 16.0081 12.9755 16.0099ZM19.3505 10.6549C19.2492 10.9549 18.3455 11.1049 18.2855 10.6624C18.2517 10.4374 18.818 10.0886 19.3505 10.6549Z" stroke="black" stroke-width="0.175" stroke-linejoin="round"/>
<path d="M6.83673 6.99902L7.18548 7.06277C7.18548 7.06277 6.94173 7.39277 6.83673 6.99902Z" fill="black" stroke="black" stroke-width="0.175" stroke-linejoin="round"/>
</g>
<defs>
<clipPath id="clip0_69_13105">
<rect width="24" height="24" rx="12" fill="white"/>
</clipPath>
</defs>
</svg>
