<svg width="24" height="24" viewBox="0 0 24 24" fill="none" xmlns="http://www.w3.org/2000/svg">
<g clip-path="url(#clip0_69_6408)">
<path d="M0 -1.6001H24V25.9999H0V-1.6001Z" fill="#CE1126"/>
<path d="M2.51953 5.71948H21.4795V18.6795H2.51953V5.71948Z" fill="#007A5E"/>
<path d="M2.51953 5.72412H21.4795L2.51953 18.6841H21.4795L2.51953 5.72412Z" fill="#FCD116"/>
<path d="M11.9967 14.3637C13.1897 14.3637 14.1567 13.3967 14.1567 12.2037C14.1567 11.0108 13.1897 10.0437 11.9967 10.0437C10.8038 10.0437 9.83673 11.0108 9.83673 12.2037C9.83673 13.3967 10.8038 14.3637 11.9967 14.3637Z" fill="#CE1126"/>
<path d="M12 10.2195L11.3881 12.1026L12.3297 12.4085" fill="#FCD116"/>
<path d="M12 10.2195L12.6118 12.1026L11.6703 12.4085" fill="#FCD116"/>
<path d="M13.8832 11.5869H11.9032V12.5769" fill="#FCD116"/>
<path d="M13.8832 11.5869L12.2813 12.7507L11.6994 11.9498" fill="#FCD116"/>
<path d="M13.1637 13.8006L12.5518 11.9175L11.6103 12.2234" fill="#FCD116"/>
<path d="M13.1637 13.8007L11.5618 12.6369L12.1437 11.8359" fill="#FCD116"/>
<path d="M10.8363 13.8019L12.4382 12.6381L11.8563 11.8372" fill="#FCD116"/>
<path d="M10.8363 13.8018L11.4482 11.9187L12.3897 12.2246" fill="#FCD116"/>
<path d="M10.1168 11.5881L11.7187 12.752L12.3006 11.951" fill="#FCD116"/>
<path d="M10.1168 11.5881H12.0968V12.5781" fill="#FCD116"/>
<path d="M7.11327 3.29004L6.75174 4.40277L7.30809 4.58355" fill="#FCD116"/>
<path d="M7.11327 3.29004L7.47483 4.40277L6.91845 4.58355" fill="#FCD116"/>
<path d="M8.22657 4.09863H7.05657V4.68363" fill="#FCD116"/>
<path d="M8.22657 4.09863L7.28001 4.78634L6.93615 4.31307" fill="#FCD116"/>
<path d="M7.80117 5.40644L7.43961 4.2937L6.88326 4.47448" fill="#FCD116"/>
<path d="M7.80117 5.40659L6.85461 4.71888L7.19847 4.24561" fill="#FCD116"/>
<path d="M6.4254 5.40659L7.37193 4.71888L7.0281 4.24561" fill="#FCD116"/>
<path d="M6.4254 5.40644L6.78693 4.2937L7.34331 4.47448" fill="#FCD116"/>
<path d="M6.00117 4.09766L6.94773 4.78536L7.29159 4.31209" fill="#FCD116"/>
<path d="M6.00117 4.09766H7.17117V4.68266" fill="#FCD116"/>
<path d="M12 3.29004L11.6384 4.40277L12.1948 4.58355" fill="#FCD116"/>
<path d="M12 3.29004L12.3616 4.40277L11.8052 4.58355" fill="#FCD116"/>
<path d="M13.1133 4.09863H11.9433V4.68363" fill="#FCD116"/>
<path d="M13.1133 4.09863L12.1667 4.78634L11.8229 4.31307" fill="#FCD116"/>
<path d="M12.6879 5.40644L12.3263 4.2937L11.77 4.47448" fill="#FCD116"/>
<path d="M12.6879 5.40659L11.7413 4.71888L12.0852 4.24561" fill="#FCD116"/>
<path d="M11.3121 5.40659L12.2587 4.71888L11.9148 4.24561" fill="#FCD116"/>
<path d="M11.3121 5.40644L11.6737 4.2937L12.23 4.47448" fill="#FCD116"/>
<path d="M10.8879 4.09766L11.8344 4.78536L12.1783 4.31209" fill="#FCD116"/>
<path d="M10.8879 4.09766H12.0579V4.68266" fill="#FCD116"/>
<path d="M16.8856 3.29004L16.524 4.40277L17.0804 4.58355" fill="#FCD116"/>
<path d="M16.8856 3.29004L17.2471 4.40277L16.6907 4.58355" fill="#FCD116"/>
<path d="M17.9988 4.09863H16.8288V4.68363" fill="#FCD116"/>
<path d="M17.9988 4.09863L17.0523 4.78634L16.7084 4.31307" fill="#FCD116"/>
<path d="M17.5734 5.40644L17.2119 4.2937L16.6555 4.47448" fill="#FCD116"/>
<path d="M17.5734 5.40659L16.6269 4.71888L16.9707 4.24561" fill="#FCD116"/>
<path d="M16.1977 5.40659L17.1442 4.71888L16.8004 4.24561" fill="#FCD116"/>
<path d="M16.1977 5.40644L16.5592 4.2937L17.1156 4.47448" fill="#FCD116"/>
<path d="M15.7734 4.09766L16.72 4.78536L17.0639 4.31209" fill="#FCD116"/>
<path d="M15.7734 4.09766H16.9434V4.68266" fill="#FCD116"/>
<path d="M3.83673 12.2264C4.12158 12.7577 4.55916 13.1914 5.09298 13.4714C5.07216 12.8854 4.92777 12.3103 4.66923 11.7839L3.83673 12.2264Z" fill="#CE1126"/>
<path d="M3.37926 10.5007C3.76926 11.3145 2.363 13.2645 4.71051 13.722C4.3935 13.2627 4.24875 12.7063 4.30176 12.1507C4.82349 12.3919 5.25165 12.7977 5.52051 13.3057C6.13551 11.0745 3.94551 11.2132 3.37926 10.5007Z" fill="#FCD116"/>
<path d="M7.11327 18.8374L6.75174 19.9501L7.30809 20.1309" fill="#FCD116"/>
<path d="M7.11327 18.8374L7.47483 19.9501L6.91845 20.1309" fill="#FCD116"/>
<path d="M8.22657 19.646H7.05657V20.231" fill="#FCD116"/>
<path d="M8.22657 19.646L7.28001 20.3337L6.93615 19.8604" fill="#FCD116"/>
<path d="M7.80117 20.9538L7.43961 19.8411L6.88326 20.0218" fill="#FCD116"/>
<path d="M7.80117 20.9537L6.85461 20.266L7.19847 19.7927" fill="#FCD116"/>
<path d="M6.4254 20.9537L7.37193 20.266L7.0281 19.7927" fill="#FCD116"/>
<path d="M6.4254 20.9538L6.78693 19.8411L7.34331 20.0218" fill="#FCD116"/>
<path d="M6.00117 19.6448L6.94773 20.3325L7.29159 19.8592" fill="#FCD116"/>
<path d="M6.00117 19.6448H7.17117V20.2298" fill="#FCD116"/>
<path d="M12 18.8374L11.6384 19.9501L12.1948 20.1309" fill="#FCD116"/>
<path d="M12 18.8374L12.3616 19.9501L11.8052 20.1309" fill="#FCD116"/>
<path d="M13.1133 19.646H11.9433V20.231" fill="#FCD116"/>
<path d="M13.1133 19.646L12.1667 20.3337L11.8229 19.8604" fill="#FCD116"/>
<path d="M12.6879 20.9538L12.3263 19.8411L11.77 20.0218" fill="#FCD116"/>
<path d="M12.6879 20.9537L11.7413 20.266L12.0852 19.7927" fill="#FCD116"/>
<path d="M11.3121 20.9537L12.2587 20.266L11.9148 19.7927" fill="#FCD116"/>
<path d="M11.3121 20.9538L11.6737 19.8411L12.23 20.0218" fill="#FCD116"/>
<path d="M10.8879 19.6448L11.8344 20.3325L12.1783 19.8592" fill="#FCD116"/>
<path d="M10.8879 19.6448H12.0579V20.2298" fill="#FCD116"/>
<path d="M16.8856 18.8374L16.524 19.9501L17.0804 20.1309" fill="#FCD116"/>
<path d="M16.8856 18.8374L17.2471 19.9501L16.6907 20.1309" fill="#FCD116"/>
<path d="M17.9988 19.646H16.8288V20.231" fill="#FCD116"/>
<path d="M17.9988 19.646L17.0523 20.3337L16.7084 19.8604" fill="#FCD116"/>
<path d="M17.5734 20.9538L17.2119 19.8411L16.6555 20.0218" fill="#FCD116"/>
<path d="M17.5734 20.9537L16.6269 20.266L16.9707 19.7927" fill="#FCD116"/>
<path d="M16.1977 20.9537L17.1442 20.266L16.8004 19.7927" fill="#FCD116"/>
<path d="M16.1977 20.9538L16.5592 19.8411L17.1156 20.0218" fill="#FCD116"/>
<path d="M15.7734 19.6448L16.72 20.3325L17.0639 19.8592" fill="#FCD116"/>
<path d="M15.7734 19.6448H16.9434V20.2298" fill="#FCD116"/>
</g>
<defs>
<clipPath id="clip0_69_6408">
<rect width="24" height="24" rx="12" fill="white"/>
</clipPath>
</defs>
</svg>
