<svg width="24" height="24" viewBox="0 0 24 24" fill="none" xmlns="http://www.w3.org/2000/svg">
<g clip-path="url(#clip0_69_6321)">
<path d="M0 -1.19995H24V25.6H0V-1.19995Z" fill="white"/>
<path d="M10.4 -1.19995H14V25.6H10.4V-1.19995Z" fill="#FF0000"/>
<path d="M0 10.3999H24V13.9999H0V10.3999Z" fill="#FF0000"/>
<path fill-rule="evenodd" clip-rule="evenodd" d="M5.50499 17.1911C5.54249 16.5611 5.65499 16.0249 5.65499 16.0249C5.65499 16.0249 5.28749 16.0624 5.09999 16.0624C4.91624 16.0624 4.54499 16.0249 4.54499 16.0249C4.54499 16.0249 4.65749 16.5611 4.69499 17.1949C4.06124 17.1574 3.52499 17.0449 3.52499 17.0449C3.52499 17.0449 3.56249 17.3224 3.56249 17.5999C3.56249 17.8774 3.52499 18.1549 3.52499 18.1549C3.52499 18.1549 4.06124 18.0424 4.69499 18.0049C4.65749 18.6386 4.54499 19.1749 4.54499 19.1749C4.54499 19.1749 4.82249 19.1374 5.09999 19.1374C5.37749 19.1374 5.65499 19.1749 5.65499 19.1749C5.65499 19.1749 5.54249 18.6386 5.50499 18.0049C6.13874 18.0424 6.67499 18.1549 6.67499 18.1549C6.67499 18.1549 6.63749 17.7874 6.63749 17.5999C6.63749 17.4161 6.67499 17.0449 6.67499 17.0449C6.67499 17.0449 6.13874 17.1574 5.50874 17.1949L5.50499 17.1911ZM19.305 6.3911C19.3425 5.7611 19.455 5.22485 19.455 5.22485C19.455 5.22485 19.0875 5.26235 18.9 5.26235C18.7162 5.26235 18.345 5.22485 18.345 5.22485C18.345 5.22485 18.4575 5.7611 18.495 6.3911C17.8612 6.3536 17.325 6.24485 17.325 6.24485C17.325 6.24485 17.3625 6.52235 17.3625 6.79985C17.3625 7.07735 17.325 7.35485 17.325 7.35485C17.325 7.35485 17.8612 7.24235 18.495 7.20485C18.4575 7.8386 18.345 8.37485 18.345 8.37485C18.345 8.37485 18.6225 8.33735 18.9 8.33735C19.1775 8.33735 19.455 8.37485 19.455 8.37485C19.455 8.37485 19.3425 7.8386 19.305 7.2086C19.9387 7.2461 20.475 7.3586 20.475 7.3586C20.475 7.3586 20.4375 6.9836 20.4375 6.79985C20.4375 6.6161 20.475 6.24485 20.475 6.24485C20.475 6.24485 19.9387 6.35735 19.305 6.39485V6.3911ZM5.50499 6.3911C5.54249 5.7611 5.65499 5.22485 5.65499 5.22485C5.65499 5.22485 5.28749 5.26235 5.09999 5.26235C4.91624 5.26235 4.54499 5.22485 4.54499 5.22485C4.54499 5.22485 4.65749 5.7611 4.69499 6.39485C4.06124 6.35735 3.52499 6.24485 3.52499 6.24485C3.52499 6.24485 3.56249 6.52235 3.56249 6.79985C3.56249 7.07735 3.52499 7.35485 3.52499 7.35485C3.52499 7.35485 4.06124 7.24235 4.69499 7.20485C4.65749 7.8386 4.54499 8.37485 4.54499 8.37485C4.54499 8.37485 4.82249 8.33735 5.09999 8.33735C5.37749 8.33735 5.65499 8.37485 5.65499 8.37485C5.65499 8.37485 5.54249 7.8386 5.50499 7.20485C6.13874 7.24235 6.67499 7.35485 6.67499 7.35485C6.67499 7.35485 6.63749 6.98735 6.63749 6.79985C6.63749 6.6161 6.67499 6.24485 6.67499 6.24485C6.67499 6.24485 6.13874 6.35735 5.50874 6.39485L5.50499 6.3911ZM19.305 17.1911C19.3425 16.5611 19.455 16.0249 19.455 16.0249C19.455 16.0249 19.0875 16.0624 18.9 16.0624C18.7162 16.0624 18.345 16.0249 18.345 16.0249C18.345 16.0249 18.4575 16.5611 18.495 17.1949C17.8612 17.1574 17.325 17.0449 17.325 17.0449C17.325 17.0449 17.3625 17.3224 17.3625 17.5999C17.3625 17.8774 17.325 18.1549 17.325 18.1549C17.325 18.1549 17.8612 18.0424 18.495 18.0049C18.4575 18.6386 18.345 19.1749 18.345 19.1749C18.345 19.1749 18.6225 19.1374 18.9 19.1374C19.1775 19.1374 19.455 19.1749 19.455 19.1749C19.455 19.1749 19.3425 18.6386 19.305 18.0049C19.9387 18.0424 20.475 18.1549 20.475 18.1549C20.475 18.1549 20.4375 17.7874 20.4375 17.5999C20.4375 17.4161 20.475 17.0449 20.475 17.0449C20.475 17.0449 19.9387 17.1574 19.305 17.1949V17.1911Z" fill="#FF0000"/>
</g>
<defs>
<clipPath id="clip0_69_6321">
<rect width="24" height="24" rx="12" fill="white"/>
</clipPath>
</defs>
</svg>
