<svg width="24" height="24" viewBox="0 0 24 24" fill="none" xmlns="http://www.w3.org/2000/svg">
<g clip-path="url(#clip0_69_6346)">
<g clip-path="url(#clip1_69_6346)">
<mask id="mask0_69_6346" style="mask-type:luminance" maskUnits="userSpaceOnUse" x="-4" y="0" width="32" height="24">
<path d="M28 0H-4V24H28V0Z" fill="white"/>
</mask>
<g mask="url(#mask0_69_6346)">
<path d="M-4 0H28V24H-4V0Z" fill="#DA000C"/>
<path d="M-4 0H28V16.08H-4V0Z" fill="white"/>
<path d="M6.43124 10.9031H12.4312V15.0281H6.43124V10.9031Z" fill="black"/>
<path d="M9.54376 14.4281H5.88748L5.07188 14.9625V15.5249H9.54376M8.01564 12.0562C8.54064 12.0562 8.97188 12.4968 8.97188 13.0406V14.4187H9.65624V9.1687H5.87812V14.4187H7.05936V13.0406C7.05936 12.5156 7.48124 12.0562 8.01564 12.0562Z" fill="#DA000C"/>
<path d="M9.54376 14.4281H5.88748L5.07188 14.9625V15.5249H9.54376M8.01564 12.0562C8.54064 12.0562 8.97188 12.4968 8.97188 13.0406V14.4187H9.65624V9.1687H5.87812V14.4187H7.05936V13.0406C7.05936 12.5156 7.48124 12.0562 8.01564 12.0562Z" stroke="black" stroke-width="0.234375" stroke-linecap="square"/>
<path d="M7.17188 5.625H8.91564V8.81248H7.17188V5.625Z" fill="black"/>
<path d="M8.90624 8.31569H7.38752V7.77193H6.27188V8.31569H5.52188V7.77193H5.06248V8.74693H8.90624M5.51252 8.74693H8.79376V9.16881H5.51252V8.74693ZM6.825 4.46253V7.78129H7.38752V6.87193C7.38752 6.53441 7.62188 6.25317 7.95936 6.23441H7.99688C8.0806 6.23441 8.16348 6.25093 8.24084 6.28297C8.3182 6.31497 8.38844 6.36193 8.44764 6.42113C8.50684 6.48033 8.5538 6.55061 8.58584 6.62797C8.61788 6.70529 8.63436 6.78821 8.63436 6.87193V7.78129H9.16876V4.46253H6.825ZM6.60936 4.01253V4.46253H9.35624V4.01253H6.60936ZM6.26252 3.15942V4.01253H9.54376V3.15942H9.04688V3.60005H8.42812V3.15942H7.49064V3.60005H6.88124V3.15942H6.26252ZM12.4688 14.7H9.43124L8.51252 15.1407V15.7969H12.4688" fill="#DA000C"/>
<path d="M8.90624 8.31569H7.38752V7.77193H6.27188V8.31569H5.52188V7.77193H5.06248V8.74693H8.90624M5.06248 14.9626H9.56248M12.4688 14.7H9.43124L8.51252 15.1407V15.7969H12.4688M5.51252 8.74693H8.79376V9.16881H5.51252V8.74693ZM6.825 4.46253V7.78129H7.38752V6.87193C7.38752 6.53441 7.62188 6.25317 7.95936 6.23441H7.99688C8.0806 6.23441 8.16348 6.25093 8.24084 6.28297C8.3182 6.31497 8.38844 6.36193 8.44764 6.42113C8.50684 6.48033 8.5538 6.55061 8.58584 6.62797C8.61788 6.70529 8.63436 6.78821 8.63436 6.87193V7.78129H9.16876V4.46253H6.825ZM6.60936 4.01253V4.46253H9.35624V4.01253H6.60936ZM6.26252 3.15942V4.01253H9.54376V3.15942H9.04688V3.60005H8.42812V3.15942H7.49064V3.60005H6.88124V3.15942H6.26252Z" stroke="black" stroke-width="0.234375" stroke-linecap="square"/>
<path d="M8.51248 15.1406H12.5625" stroke="black" stroke-width="0.234375"/>
<path d="M17.5688 10.9031H11.5688V15.0281H17.5688V10.9031Z" fill="black"/>
<path d="M14.4562 14.4281H18.1125L18.9281 14.9625V15.5249H14.4562M15.9844 12.0562C15.4594 12.0562 15.0281 12.4968 15.0281 13.0406V14.4187H14.3438V9.1687H18.1219V14.4187H16.9406V13.0406C16.9406 12.5156 16.5188 12.0562 15.9844 12.0562Z" fill="#DA000C"/>
<path d="M14.4562 14.4281H18.1125L18.9281 14.9625V15.5249H14.4562M15.9844 12.0562C15.4594 12.0562 15.0281 12.4968 15.0281 13.0406V14.4187H14.3438V9.1687H18.1219V14.4187H16.9406V13.0406C16.9406 12.5156 16.5188 12.0562 15.9844 12.0562Z" stroke="black" stroke-width="0.234375" stroke-linecap="square"/>
<path d="M16.8281 5.625H15.0844V8.81248H16.8281V5.625Z" fill="black"/>
<path d="M15.0938 8.31569H16.6125V7.77193H17.7281V8.31569H18.4781V7.77193H18.9375V8.74693H15.0938M18.4875 8.74693H15.2062V9.16881H18.4875V8.74693ZM17.175 4.46253V7.78129H16.6125V6.87193C16.6125 6.53441 16.3781 6.25317 16.0406 6.23441H16.0031C15.9194 6.23441 15.8365 6.25093 15.7592 6.28297C15.6818 6.31497 15.6116 6.36193 15.5524 6.42113C15.4932 6.48033 15.4462 6.55061 15.4142 6.62797C15.3821 6.70529 15.3656 6.78821 15.3656 6.87193V7.78129H14.8312V4.46253H17.175ZM17.3906 4.01253V4.46253H14.6438V4.01253H17.3906ZM17.7375 3.15942V4.01253H14.4562V3.15942H14.9531V3.60005H15.5719V3.15942H16.5094V3.60005H17.1188V3.15942H17.7375ZM11.5312 14.7H14.5688L15.4875 15.1407V15.7969H11.5312" fill="#DA000C"/>
<path d="M15.0938 8.31569H16.6125V7.77193H17.7281V8.31569H18.4781V7.77193H18.9375V8.74693H15.0938M18.9375 14.9626H14.4375M11.5312 14.7H14.5688L15.4875 15.1407V15.7969H11.5312M18.4875 8.74693H15.2062V9.16881H18.4875V8.74693ZM17.175 4.46253V7.78129H16.6125V6.87193C16.6125 6.53441 16.3781 6.25317 16.0406 6.23441H16.0031C15.9194 6.23441 15.8365 6.25093 15.7592 6.28297C15.6818 6.31497 15.6116 6.36193 15.5524 6.42113C15.4932 6.48033 15.4462 6.55061 15.4142 6.62797C15.3821 6.70529 15.3656 6.78821 15.3656 6.87193V7.78129H14.8312V4.46253H17.175ZM17.3906 4.01253V4.46253H14.6438V4.01253H17.3906ZM17.7375 3.15942V4.01253H14.4562V3.15942H14.9531V3.60005H15.5719V3.15942H16.5094V3.60005H17.1188V3.15942H17.7375Z" stroke="black" stroke-width="0.234375" stroke-linecap="square"/>
<path d="M15.4875 15.1406H11.4375" stroke="black" stroke-width="0.234375"/>
<path d="M13.6212 14.0625C13.368 14.1563 13.1524 14.2875 12.918 14.4188C12.6264 14.5854 12.3475 14.7734 12.0837 14.9813C11.9899 15.0469 11.8962 15.1125 11.8305 15.2063C11.7368 15.2813 11.643 15.3938 11.6618 15.5344C11.6618 15.5907 11.7368 15.4594 11.793 15.45C11.882 15.4024 11.9855 15.389 12.0837 15.4125C12.2055 15.2813 12.3649 15.1969 12.4962 15.0938C12.8783 14.8172 13.2865 14.5786 13.7149 14.3813L13.6212 14.0625Z" fill="#F8D80E" stroke="black" stroke-width="0.1875" stroke-linecap="round"/>
<path d="M12.4125 14.7563V15.1219M12.6375 14.5969V14.9626M12.8625 14.4563V14.8126M13.0969 14.3157V14.6907" stroke="black" stroke-width="0.234375" stroke-linecap="round"/>
<path d="M10.3969 14.0813L10.2844 14.3907C10.8024 14.5894 11.2988 14.8407 11.7656 15.1407C11.925 15.2532 12.0938 15.3563 12.2156 15.5063C12.2438 15.5813 12.1688 15.6469 12.0938 15.6188C12.0281 15.6001 11.9531 15.5719 11.8875 15.6188C11.7844 15.6657 11.6906 15.8251 11.8406 15.8719C12.0656 16.0219 12.4125 15.9563 12.5156 15.7032C12.5719 15.5719 12.5812 15.4032 12.4688 15.2907C12.2812 15.0751 12.0188 14.9157 11.775 14.7563C11.3373 14.4895 10.876 14.2636 10.3969 14.0813Z" fill="#F8D80E" stroke="black" stroke-width="0.1875" stroke-linecap="round"/>
<path d="M11.8125 14.8126L11.7844 15.1314M12.075 14.972L12 15.2814M12.3562 15.1876L12.1875 15.4314M12.4406 15.7689L12.1969 15.6376M12.5156 15.5064L12.2344 15.5345M12.1594 15.9095L12.1406 15.6658M12.0469 15.6376L11.8219 15.8064M10.9406 14.3345V14.6251M11.5312 14.6532V14.9814M11.2312 14.4939V14.8032" stroke="black" stroke-width="0.234375" stroke-linecap="round"/>
<path d="M10.1062 21.3374V22.0874H10.575V21.7124H11.2219V22.0874H11.7281V21.3374H10.1062ZM10.1062 22.3686V23.1186H11.7188V22.3686H11.2125V22.7436H10.5656V22.3686H10.1062Z" fill="#F8D80E" stroke="black" stroke-width="0.234375"/>
<path d="M11.7188 18.1594H12.1875V23.5969H11.7188V18.1594Z" fill="#F8D80E" stroke="black" stroke-width="0.234375"/>
<path d="M11.7188 18.628H12.1875V23.3155H11.7188V18.628ZM11.9625 16.8186L12.9562 17.3999L11.9625 17.9811L10.9594 17.3999L11.9625 16.8186ZM10.6219 17.1936H10.3688V17.6061H10.6219L11.9625 18.3842L13.2938 17.6061H13.5562V17.1936H13.2938L11.9625 16.4155L10.6219 17.1936Z" fill="#F8D80E" stroke="black" stroke-width="0.234375"/>
<path d="M11.9348 15.4031C11.8256 15.4253 11.728 15.4856 11.6593 15.5732C11.5906 15.6608 11.5553 15.77 11.5598 15.8812V16.9312C11.5684 17.0427 11.6166 17.1475 11.6956 17.2266C11.7747 17.3056 11.8795 17.3538 11.991 17.3624C12.0838 17.3694 12.1764 17.348 12.2568 17.3012C12.3372 17.2543 12.4014 17.1841 12.441 17.1L12.2816 17.0062C12.2595 17.0611 12.2201 17.1073 12.1693 17.1378C12.1186 17.1682 12.0592 17.1813 12.0004 17.175C11.8504 17.175 11.7285 17.025 11.7472 16.8843V15.8343C11.7544 15.7656 11.7874 15.7021 11.8396 15.6568C11.8919 15.6115 11.9594 15.5878 12.0285 15.5906C12.0848 15.5718 12.1691 15.6562 12.2066 15.5906C12.2629 15.5062 12.1691 15.45 12.1129 15.4031H11.9348ZM12.4785 15.7687C12.4327 15.8329 12.3714 15.8845 12.3004 15.9187V16.6218L12.4879 16.725V15.7687H12.4785Z" fill="#F8D80E" stroke="black" stroke-width="0.234375"/>
<path d="M10.575 3.6001H13.3219V8.58758H10.575V3.6001Z" fill="black"/>
<path d="M10.3875 3.5999V7.77178H11.2594V6.53426C11.2594 6.25302 11.4469 5.8499 12 5.8499C12.5531 5.8499 12.75 6.25302 12.75 6.53426V7.78114H13.6125V3.5999H10.3875ZM11.8688 4.06866H12.1312V5.49366H11.8688V4.06866ZM11.0906 4.3499H11.3719V5.39054H11.0906V4.3499ZM12.6375 4.3499H12.9094V5.39054H12.6281L12.6375 4.3499ZM10.0875 2.9999V3.59053H13.9125V2.9999H10.0875ZM9.73124 2.30615V2.9999H14.2781V2.30615H13.7062V2.68115H13.05V2.30615H12.3188V2.68115H11.6812V2.30615H10.9406V2.68115H10.3125V2.30615H9.73124ZM8.88752 9.16866V9.5999H15.1219V9.16866H8.88752Z" fill="#DA000C" stroke="black" stroke-width="0.234375"/>
<path d="M8.625 7.77197V9.17821H15.375V7.77197H14.7375V8.31573H13.875V7.77197H12.7312V8.31573H11.25V7.77197H10.1062V8.31573H9.26252V7.77197H8.625Z" fill="#DA000C" stroke="black" stroke-width="0.234375"/>
<path d="M9.44064 9.6001V14.7001H10.6406V12.7876C10.6406 11.897 11.2406 11.4751 12 11.4751C12.7312 11.4751 13.3594 11.897 13.3594 12.7876V14.7001H14.5594V9.6001H9.44064Z" fill="#DA000C" stroke="black" stroke-width="0.234375" stroke-linejoin="round"/>
</g>
</g>
</g>
<defs>
<clipPath id="clip0_69_6346">
<rect width="24" height="24" rx="12" fill="white"/>
</clipPath>
<clipPath id="clip1_69_6346">
<rect width="32" height="24" fill="white" transform="translate(-4)"/>
</clipPath>
</defs>
</svg>
