<svg width="24" height="24" viewBox="0 0 24 24" fill="none" xmlns="http://www.w3.org/2000/svg">
<g clip-path="url(#clip0_69_6402)">
<path d="M0 -3.19995H24V27.6H0V-3.19995Z" fill="white"/>
<path d="M0 12.2H24V21.2L12 27.6L0 21.2V12.2ZM3 12.2C3 13.7912 3.63213 15.3174 4.75737 16.4426C5.88258 17.5678 7.40871 18.2 9 18.2C10.5913 18.2 12.1174 17.5678 13.2426 16.4426C14.3679 15.3174 15 13.7912 15 12.2C15 10.6087 14.3679 9.08253 13.2426 7.95732C12.1174 6.83208 10.5913 6.19995 9 6.19995C7.40871 6.19995 5.88258 6.83208 4.75737 7.95732C3.63213 9.08253 3 10.6087 3 12.2Z" fill="#D00C33"/>
</g>
<defs>
<clipPath id="clip0_69_6402">
<rect width="24" height="24" rx="12" fill="white"/>
</clipPath>
</defs>
</svg>
