<svg width="24" height="24" viewBox="0 0 24 24" fill="none" xmlns="http://www.w3.org/2000/svg">
<g clip-path="url(#clip0_69_5609)">
<g clip-path="url(#clip1_69_5609)">
<mask id="mask0_69_5609" style="mask-type:luminance" maskUnits="userSpaceOnUse" x="0" y="0" width="32" height="24">
<path d="M32 0H0V24H32V0Z" fill="white"/>
</mask>
<g mask="url(#mask0_69_5609)">
<path d="M0 0H32V24H0V0Z" fill="#E32118"/>
<path d="M0 0H32V16H0V0Z" fill="white"/>
<path d="M0 0H32V8H0V0Z" fill="#3E9A00"/>
<path d="M0 0V24L9 12L0 0Z" fill="#0073CE"/>
<path d="M14.0797 9.58911H17.9097V13.5991C17.9097 14.9491 16.1497 13.9091 15.9997 14.6291C15.7397 13.8891 14.0897 14.9591 14.0897 13.5191L14.0797 9.58911Z" fill="white" stroke="black" stroke-width="0.125"/>
<path d="M16.2697 13.9892C16.2697 13.9892 16.2197 14.0392 16.1297 13.9992C16.0397 13.9592 16.0297 11.4292 16.0297 11.4292C16.2297 11.2092 16.3897 11.1392 16.3897 11.1392L16.5097 11.2392C16.0597 11.4692 16.0997 11.7992 16.1397 12.3692C16.1497 12.5792 16.1497 12.8492 16.1997 13.1092C16.2697 13.4392 16.4097 13.7192 16.4197 13.9292C16.4297 14.0592 16.2697 13.9892 16.2697 13.9892Z" fill="#73452B" stroke="black" stroke-width="0.025"/>
<path d="M15.9587 11.0796H16.1387C15.9887 12.5296 16.1187 13.3896 16.1187 13.8096C16.1187 13.9496 16.1987 13.9996 16.1887 13.9996C16.0087 14.1996 15.9187 13.9896 15.9187 13.9896L15.9587 11.0796Z" fill="#73452B" stroke="black" stroke-width="0.025"/>
<path d="M15.6789 13.9899C15.5089 14.0699 15.4889 13.9099 15.4989 13.8899C15.8689 13.1399 16.0289 11.4899 15.6889 11.3099L15.7089 11.1499C15.8389 11.1899 15.9589 11.3599 15.9589 11.3599C16.0089 13.2099 15.9589 13.9699 15.9289 13.9999C15.7489 14.1899 15.6789 13.9699 15.6689 13.9499" fill="#A36629"/>
<path d="M15.6789 13.9899C15.5089 14.0699 15.4889 13.9099 15.4989 13.8899C15.8689 13.1399 16.0289 11.4899 15.6889 11.3099L15.7089 11.1499C15.8389 11.1899 15.9589 11.3599 15.9589 11.3599C16.0089 13.2099 15.9589 13.9699 15.9289 13.9999C15.7489 14.1899 15.6789 13.9699 15.6689 13.9499" stroke="black" stroke-width="0.025"/>
<path d="M15.6694 13.9595C15.6394 13.7995 15.9294 13.3895 15.9094 12.9595M16.1594 13.3095C16.2494 13.5595 16.2894 13.7795 16.2694 13.9895" stroke="black" stroke-width="0.025"/>
<path d="M16.5491 10.3992C16.6091 10.3292 16.6091 10.3292 16.7191 10.3292C16.7391 10.1792 16.9891 10.1792 17.0091 10.3692C17.2091 10.3292 17.2491 10.4492 17.1691 10.5692C17.3591 10.5192 17.5291 10.5692 17.4791 10.7892C17.8191 10.8792 17.6891 11.1192 17.5391 11.1692C17.5191 11.3192 17.3791 11.3692 17.1891 11.3092C16.9491 11.4792 16.8091 11.4192 16.6991 11.2492C16.4291 11.2892 16.4091 11.2292 16.2891 11.0792C16.0791 11.1692 16.0391 11.1692 15.8591 11.0592C15.8491 11.1992 15.7991 11.1592 15.7091 11.1492C15.7191 11.3292 15.6491 11.4092 15.4891 11.3492C15.6091 11.5992 15.2991 11.7092 15.1491 11.4992C15.0091 11.5092 14.9991 11.4692 14.9291 11.4192C14.8691 11.6192 14.6491 11.5892 14.6091 11.4792C14.3291 11.4392 14.3591 11.2892 14.5891 11.2792C14.6091 11.1192 14.7491 11.1492 14.8391 11.1692C14.8491 11.0692 14.9091 11.0892 14.9591 11.1092C14.9291 11.0392 14.9491 10.9992 15.0391 10.9792C14.9091 10.8092 14.9891 10.7492 15.1191 10.6892C15.0491 10.5292 15.1691 10.5392 15.2591 10.5292C15.2491 10.3592 15.2991 10.3292 15.4791 10.3092C15.4591 10.2492 15.4891 10.1992 15.5891 10.1992C15.5291 10.0292 15.6091 9.98915 15.7891 10.0192C15.8191 9.76915 16.3491 9.88915 16.3091 10.2292C16.4591 10.2492 16.5091 10.2792 16.5491 10.3992Z" fill="#009A3B" stroke="black" stroke-width="0.025"/>
<path d="M15.4794 10.3097C15.5194 10.3297 15.5694 10.3097 15.5794 10.4197C15.6594 10.2797 15.7594 10.3597 15.7594 10.5197M16.3094 10.2297C16.2694 10.2897 16.1194 10.2897 16.1394 10.4497C16.0894 10.3797 15.9894 10.3597 15.9494 10.4297M16.5494 10.3997C16.5494 10.4397 16.5394 10.5597 16.4994 10.6197M17.1694 10.5697C17.1794 10.5797 17.0294 10.5697 16.9594 10.6197M17.5394 11.1697C17.4994 11.1497 17.4194 11.0997 17.3594 11.1797C17.3594 11.1397 17.3594 11.0297 17.2494 11.0297M17.1894 11.3097C17.1894 11.2097 17.1694 11.1797 17.1494 11.1497M16.8594 11.1697C16.7794 11.1097 16.6994 11.1997 16.6994 11.2497M16.2794 11.0797C16.2794 11.0397 16.2494 10.9597 16.3194 10.9297M15.1394 11.4997C15.1594 11.3997 15.2294 11.3997 15.2194 11.3497M15.2194 11.3497C15.2094 11.2697 15.1194 11.1997 15.0094 11.3097M15.2194 11.3497C15.2794 11.3297 15.3394 11.3397 15.3594 11.3697M15.0494 10.9797C15.0894 10.9397 15.1894 10.9497 15.2494 10.9797M15.2494 10.7397C15.2994 10.7397 15.3894 10.7197 15.4194 10.8097C15.5294 10.6397 15.6094 10.6597 15.6294 10.6997M15.8294 10.6797C15.9094 10.6497 16.0494 10.7297 16.1294 10.8697C16.1694 10.7597 16.2294 10.7797 16.2894 10.7697M16.6694 10.8697C16.7994 10.8097 16.8794 10.9297 16.9194 10.9797C16.9794 10.8997 17.0294 10.8997 17.0894 10.8997M15.4594 11.1097C15.4894 11.0597 15.5594 11.0497 15.6094 11.0797C15.5994 10.9897 15.6594 10.9497 15.6994 10.9697" stroke="black" stroke-width="0.025"/>
<path d="M15.87 9.02447L15.65 9.03447L15.54 9.23447L15.42 9.04447L15.2 9.05447L15.3 8.85447L15.18 8.66947L15.41 8.65947L15.51 8.45947L15.63 8.64947L15.85 8.63947L15.75 8.83947L15.87 9.02447ZM14.93 9.09947L14.71 9.14947L14.65 9.36447L14.49 9.20447L14.28 9.25447L14.34 9.04447L14.19 8.88447L14.4 8.82947L14.46 8.61447L14.62 8.77447L14.84 8.72447L14.77 8.93947L14.93 9.09947ZM14.02 9.28447L13.82 9.38447L13.81 9.60447L13.62 9.48447L13.42 9.58447L13.44 9.35947L13.25 9.23947L13.45 9.13947L13.47 8.91447L13.65 9.03947L13.85 8.93947L13.84 9.15947L14.02 9.28447ZM16.16 9.02447L16.38 9.03447L16.48 9.23447L16.6 9.04447L16.82 9.05447L16.72 8.85447L16.84 8.66947L16.62 8.65947L16.51 8.45947L16.39 8.64947L16.17 8.63947L16.27 8.83947L16.16 9.02447ZM17.1 9.09947L17.31 9.14947L17.37 9.36447L17.53 9.20447L17.74 9.25447L17.68 9.04447L17.84 8.88447L17.62 8.82947L17.56 8.61447L17.4 8.77447L17.19 8.72447L17.25 8.93947L17.1 9.09947ZM18 9.28447L18.2 9.38447L18.21 9.60447L18.4 9.48447L18.6 9.58447L18.59 9.35947L18.77 9.23947L18.57 9.13947L18.56 8.91447L18.37 9.03947L18.17 8.93947L18.19 9.15947L18 9.28447Z" fill="#FFD700" stroke="black" stroke-width="0.0875"/>
<path d="M18.2691 13.52L18.5191 13.88L18.7491 13.54L18.5891 13.25L18.2691 13.52ZM16.6791 14.57L16.6991 14.93C16.6991 14.93 16.7991 14.93 16.8891 14.9C16.9691 14.87 17.0391 14.81 17.0391 14.81L17.0291 14.62L16.6791 14.57ZM15.3391 14.57L15.3191 14.92C15.3191 14.92 15.2291 14.92 15.1391 14.9C15.0591 14.88 14.9891 14.83 14.9891 14.83L14.8891 14.59L15.3391 14.57ZM13.7291 13.52L13.4691 13.88L13.1891 13.42L13.3991 13.2L13.7291 13.52Z" fill="white" stroke="black" stroke-width="0.0875"/>
<path d="M14.9797 15.2893C14.9797 15.6293 17.0397 15.6293 17.0397 15.2893V14.8093C17.0397 15.0593 14.9797 15.0093 14.9797 14.8093V15.2893Z" fill="white" stroke="black" stroke-width="0.0875"/>
<path d="M13.139 14.18C13.319 15.1 14.979 15.12 14.979 15.12V14.81C14.939 14.69 15.009 14.65 15.279 14.61C15.389 14.6 15.339 14.44 15.339 14.44C15.339 14.44 14.619 14.57 14.109 14.37C13.419 14.09 13.319 13.55 13.319 13.55C13.319 13.55 13.269 13.97 13.139 14.18ZM18.869 14.18C18.699 15.1 17.039 15.12 17.039 15.12V14.81C17.069 14.69 16.999 14.65 16.729 14.61C16.619 14.6 16.679 14.44 16.679 14.44C16.679 14.44 17.399 14.57 17.909 14.37C18.589 14.09 18.669 13.55 18.669 13.55C18.669 13.55 18.739 13.97 18.869 14.18Z" fill="white" stroke="black" stroke-width="0.0875"/>
<path d="M13.2692 13.8296C12.8092 13.5796 13.1692 13.3196 13.2092 12.5796C13.2792 13.0296 13.7892 13.2196 13.7292 13.5096C13.5192 13.5196 13.4192 13.1996 13.3192 13.5496L13.2692 13.8296ZM18.7392 13.8296C19.1992 13.5696 18.8192 13.3196 18.7792 12.5796C18.7092 13.0296 18.2092 13.2196 18.2692 13.5096C18.4692 13.5196 18.5692 13.1996 18.6692 13.5496L18.7392 13.8196V13.8296Z" fill="white" stroke="black" stroke-width="0.0875"/>
<path d="M13.5494 14.1699L13.5994 14.2099L13.4894 14.3299C13.4394 14.3799 13.4344 14.4099 13.4644 14.4399C13.4994 14.4749 13.5294 14.4599 13.5644 14.4199L13.6894 14.2899L13.7294 14.3299L13.6094 14.4699C13.5444 14.5449 13.4844 14.5299 13.4294 14.4799C13.3894 14.4399 13.3594 14.3799 13.4294 14.3049L13.5494 14.1699ZM13.7494 14.3399L13.7994 14.3699L13.7894 14.6099L13.8994 14.4399L13.9494 14.4699L13.7894 14.7299L13.7294 14.6999L13.7394 14.4599L13.6294 14.6299L13.5794 14.5999L13.7494 14.3399ZM13.8394 14.7599L13.9794 14.4799L14.0294 14.5099L13.8994 14.7799L13.8394 14.7599ZM14.0594 14.5199L13.9494 14.8099L14.0594 14.8499C14.1594 14.8849 14.2094 14.8399 14.2394 14.7549C14.2744 14.6649 14.2594 14.6049 14.1594 14.5599L14.0594 14.5199ZM14.0994 14.5899C14.1994 14.6249 14.2094 14.6649 14.1794 14.7399C14.1494 14.8049 14.1294 14.8299 14.0294 14.7799L14.0994 14.5899ZM14.3894 14.6299L14.2094 14.8999L14.2794 14.9199L14.3194 14.8499L14.4394 14.8799L14.4494 14.9499L14.5194 14.9599L14.4494 14.6399L14.3894 14.6299ZM14.4094 14.6999L14.4294 14.8199L14.3494 14.8099L14.4094 14.6999ZM14.5594 14.6549L14.5494 14.9649H14.6644C14.7744 14.9699 14.8044 14.9149 14.8094 14.8149C14.8094 14.7249 14.7744 14.6649 14.6644 14.6649L14.5594 14.6549ZM14.6194 14.7049C14.7294 14.7099 14.7444 14.7449 14.7444 14.8199C14.7394 14.8949 14.7244 14.9249 14.6144 14.9099V14.7099L14.6194 14.7049ZM15.6094 15.0899V15.4099H15.6794V15.2899C15.6794 15.2899 15.7394 15.2899 15.7894 15.2799C15.8244 15.2699 15.8544 15.2449 15.8544 15.1799C15.8544 15.1199 15.8194 15.0899 15.7594 15.0899H15.6094ZM15.6794 15.1399H15.7494C15.8044 15.1399 15.7994 15.2299 15.7494 15.2299H15.6794V15.1399ZM15.9694 15.0899L15.8394 15.4099H15.9094L15.9394 15.3299H16.0694L16.0994 15.4099H16.1694L16.0394 15.0899H15.9694ZM15.9994 15.1599L16.0494 15.2799H15.9594L15.9994 15.1599ZM16.1694 15.3499L16.3394 15.1399H16.1894V15.0899H16.4294V15.1399L16.2494 15.3499H16.4294V15.4099H16.1694V15.3499ZM17.1794 14.7299L17.2394 14.7199L17.2694 14.8999C17.2794 14.9649 17.2494 15.0049 17.2044 15.0249C17.1544 15.0449 17.0844 15.0249 17.0794 14.9399L17.1294 14.9299C17.1394 14.9799 17.1594 14.9849 17.1794 14.9799C17.2044 14.9699 17.2144 14.9399 17.2094 14.9099L17.1794 14.7299ZM17.2794 14.7099L17.3344 14.6999L17.3644 14.8499C17.3744 14.9149 17.3944 14.9399 17.4394 14.9349C17.4894 14.9249 17.4944 14.8949 17.4844 14.8349L17.4494 14.6799L17.5094 14.6699L17.5494 14.8349C17.5694 14.9349 17.5194 14.9699 17.4494 14.9849C17.3944 14.9949 17.3294 14.9849 17.3094 14.8849L17.2794 14.7099ZM17.5894 14.8499L17.6394 14.8299C17.6644 14.8749 17.6994 14.8699 17.7294 14.8599C17.7694 14.8399 17.7794 14.8049 17.7544 14.7899C17.7244 14.7749 17.6544 14.7999 17.6194 14.7899C17.5744 14.7699 17.5544 14.7399 17.5594 14.7049C17.5594 14.6549 17.5994 14.6349 17.6444 14.6199C17.6944 14.6049 17.7444 14.6099 17.7794 14.6699L17.7194 14.6899C17.6994 14.6549 17.6694 14.6599 17.6494 14.6699C17.6294 14.6799 17.5994 14.6949 17.6194 14.7199C17.6294 14.7449 17.7044 14.7299 17.7444 14.7299C17.7844 14.7299 17.8144 14.7599 17.8194 14.7949C17.8294 14.8499 17.8094 14.8799 17.7444 14.9049C17.6694 14.9349 17.5994 14.9049 17.5894 14.8499ZM17.8594 14.5999L17.7794 14.6399L17.7594 14.5899L17.9794 14.4999L17.9994 14.5399L17.9194 14.5799L18.0094 14.7999L17.9594 14.8299L17.8594 14.5999ZM17.9894 14.4899L18.0394 14.4599L18.1794 14.7199L18.1294 14.7499L17.9894 14.4899ZM18.3294 14.5099L18.3894 14.4899C18.3972 14.5088 18.3999 14.5294 18.3975 14.5497C18.395 14.57 18.3874 14.5893 18.3754 14.6058C18.3634 14.6223 18.3473 14.6355 18.3288 14.6441C18.3102 14.6527 18.2898 14.6564 18.2694 14.6549C18.1194 14.6549 18.0994 14.4849 18.1244 14.4299C18.1644 14.3349 18.2744 14.3399 18.3244 14.3899L18.2744 14.4299C18.2444 14.3899 18.1744 14.4149 18.1744 14.4499C18.1678 14.4791 18.1711 14.5097 18.1838 14.5369C18.1964 14.5641 18.2178 14.5862 18.2444 14.5999C18.2944 14.6199 18.3644 14.5599 18.3294 14.5099ZM18.2994 14.2999L18.3494 14.2599L18.5294 14.4999L18.4794 14.5399L18.2994 14.2999ZM18.4894 14.1499L18.4394 14.1899L18.5494 14.4899L18.5994 14.4399L18.5694 14.3799L18.6594 14.2999L18.7194 14.3299L18.7694 14.2899L18.4894 14.1499ZM18.5094 14.2199L18.6094 14.2699L18.5494 14.3299L18.5094 14.2199Z" fill="black"/>
</g>
</g>
</g>
<defs>
<clipPath id="clip0_69_5609">
<rect width="24" height="24" rx="12" fill="white"/>
</clipPath>
<clipPath id="clip1_69_5609">
<rect width="32" height="24" fill="white"/>
</clipPath>
</defs>
</svg>
