<svg width="24" height="24" viewBox="0 0 24 24" fill="none" xmlns="http://www.w3.org/2000/svg">
<g clip-path="url(#clip0_69_11293)">
<g clip-path="url(#clip1_69_11293)">
<mask id="mask0_69_11293" style="mask-type:luminance" maskUnits="userSpaceOnUse" x="-4" y="0" width="32" height="24">
<path d="M28 0H-4V24H28V0Z" fill="white"/>
</mask>
<g mask="url(#mask0_69_11293)">
<path d="M-4 0H28V24H-4V0Z" fill="#000066"/>
<path d="M19.5506 17.2496C19.5506 17.2496 19.4206 17.5896 19.3506 17.5896C19.2706 17.5896 19.0006 17.4396 19.0006 17.4396C19.0006 17.4396 18.8056 17.7596 18.7006 17.7746C18.6006 17.7946 18.3306 17.7296 18.3306 17.7296C18.3306 17.7296 18.0706 17.7296 18.0606 17.6946C18.0506 17.6546 18.0707 17.5796 18.0707 17.5796C18.0707 17.5796 17.6956 17.8796 17.6156 17.8596C17.5306 17.8446 17.2506 17.4896 17.2506 17.4896L17.2006 17.6746L16.6707 17.6546L16.2056 17.3546C16.2056 17.3546 15.9456 17.7846 15.9356 17.7746C15.9256 17.7696 15.4806 17.8796 15.4806 17.8796L15.4506 17.7946L15.1506 17.6196C15.1506 17.6196 15.3856 17.2946 15.3856 17.2846C15.3856 17.2746 15.2756 17.2346 15.2756 17.2346L15.1056 17.3746L14.7606 17.5996L14.4156 17.4396L14.5656 17.1596L14.5856 16.9596L14.8556 16.5446L18.1656 13.3296L19.7957 16.3396L19.5506 17.2496Z" fill="#6A4C2D" stroke="black" stroke-width="0.125"/>
<path d="M21.9 17.4393L22.765 17.4093L22.395 17.2293L25.68 17.1043L25.215 16.9293L24.805 16.3693L23.105 16.2443C23.105 16.2443 22.975 16.1443 22.77 16.1943C22.76 16.0643 22.6 15.8943 22.6 15.8943L21.55 15.8093L20.9 16.2593L21.34 17.3893L21.9 17.4393Z" fill="white" stroke="black" stroke-width="0.125"/>
<path d="M18.55 7.79979L18.64 7.49979C18.64 7.49979 18.79 7.24979 18.79 7.12979C18.79 7.01979 18.905 6.88479 18.905 6.88479C18.905 6.88479 19.25 6.78479 19.325 6.99979C19.695 6.43479 20.135 6.96979 20.135 6.96979L20.255 6.82979L20.505 6.52979C20.505 6.52979 20.855 6.85479 20.855 6.90979C20.865 6.96979 20.92 6.92979 20.92 6.92979L21.3 6.89979C21.2875 6.97483 21.2943 7.05178 21.3197 7.12347C21.345 7.19518 21.3881 7.25927 21.445 7.30979C21.58 7.38979 21.7 7.85979 21.7 7.85979L18.55 7.79979Z" fill="url(#paint0_linear_69_11293)" stroke="black" stroke-width="0.125"/>
<path d="M21.8994 11.3053C21.9694 11.2653 22.1744 11.2003 22.1494 10.8953C22.1244 10.5953 21.8644 10.5553 21.7144 10.5653C21.5644 10.5753 21.4394 10.7053 21.4394 10.7053L20.9494 10.3953C20.9494 10.3953 21.1944 8.86026 21.4494 8.76526C21.6994 8.59026 21.7394 8.51526 21.7394 8.47526C21.7394 8.43026 21.6494 8.33026 21.6494 8.33026L20.0644 8.14526L18.5644 8.32026C18.5644 8.32026 18.4544 8.50026 18.4644 8.57026C18.4844 8.64026 18.4894 8.71526 18.7544 8.92026C19.0544 9.15026 19.2544 10.4603 19.2544 10.4603C19.2544 10.4603 18.8394 10.6703 18.8094 10.6403C18.7844 10.6153 18.6594 10.5903 18.5944 10.6003C18.5294 10.6103 18.3094 10.7253 18.3094 11.0103C18.3094 11.3003 18.5294 11.4653 18.5294 11.4653C18.5294 11.4653 19.9594 11.3003 20.1744 11.6953C20.3794 11.2203 21.7394 11.3853 21.9044 11.3053H21.8994Z" fill="#656263" stroke="black" stroke-width="0.125"/>
<path d="M23.445 9.7099C23.445 9.7099 23.46 9.5449 23.58 9.4649C23.7 9.3849 24.49 9.3449 24.68 9.4649C24.87 9.5849 24.94 10.1699 24.94 10.1699C24.94 10.1699 25.06 10.3749 25.07 10.5299C25.075 10.6799 25.095 10.7799 25.095 10.7799C25.095 10.7799 25.725 11.6049 25.735 12.3499C25.805 12.8549 25.79 14.2099 25.59 14.7249C25.5913 15.0976 25.4966 15.4644 25.315 15.7899C25.315 15.7899 25.38 15.8999 25.37 16.0199C25.36 16.1349 25.3 16.2499 25.3 16.2499L26.225 16.7049L25.885 16.5799L26.225 16.8649L25.84 16.6849L26.065 16.9149C26.06 16.9049 25.505 16.6599 25.505 16.6599L25.755 16.8949L25.33 16.6949C25.33 16.6949 25.58 16.9699 25.58 16.9549C25.4591 16.8961 25.3356 16.8427 25.21 16.7949L25.23 16.9299C25.23 16.9299 24.94 16.9149 24.94 16.6999C24.852 16.6495 24.7727 16.5854 24.705 16.5099L24.045 16.3999L23.3 14.1699L23.475 10.4099L23.525 10.2199L23.445 9.7099Z" fill="black" stroke="black" stroke-width="0.125" stroke-linejoin="round"/>
<path d="M22.9489 21.7403C22.9489 21.7403 22.5639 20.9403 22.3739 20.9253C22.2039 20.5953 22.9739 17.9253 24.4589 17.7703C25.2739 17.8353 24.5239 18.7103 23.9889 18.4403C24.0712 18.6476 24.1842 18.8414 24.3239 19.0153C24.3239 19.0153 23.2589 19.4753 22.9439 21.7403H22.9489ZM17.8339 21.8553C17.8339 21.8553 18.1489 20.9403 18.3389 20.9303C18.5339 20.9203 17.8339 17.8853 16.3089 17.8653C15.4889 17.9303 16.2439 18.8103 16.7839 18.5403C16.7 18.7478 16.5854 18.9417 16.4439 19.1153C16.4439 19.1153 17.5189 19.5753 17.8339 21.8553Z" fill="#FFBB00" stroke="black" stroke-width="0.125"/>
<path d="M19.2298 16.1505C19.2298 16.1405 18.8498 16.2655 19.0948 16.6755C19.1098 16.5155 19.2798 16.4255 19.2798 16.4255C19.2798 16.4255 19.0248 16.7255 19.2948 16.9805C19.3298 16.7405 19.4848 16.6654 19.4848 16.6654C19.4848 16.6654 19.2898 17.2254 19.4848 17.3404C19.5098 17.1154 19.6498 17.0154 19.6498 17.0154C19.6498 17.0154 19.4798 17.5155 19.6348 17.6305C19.6498 17.4405 19.7798 17.3555 19.7798 17.3555C19.7798 17.3555 19.7048 17.8804 19.9048 17.9154C19.9048 17.7304 20.0548 17.5505 20.0548 17.5505C20.0548 17.5505 19.9898 17.9755 20.3048 17.9955C20.3048 17.8355 20.3648 17.6505 20.3648 17.6505C20.3648 17.6505 20.5098 18.1005 20.7148 18.0305V17.6455C20.7148 17.6455 20.8498 18.0755 21.0998 17.9955C21.0648 17.8755 21.1148 17.7305 21.1148 17.7305C21.1148 17.7305 21.2448 18.0005 21.4848 17.9105C21.5248 17.8305 21.4748 17.6705 21.4748 17.6705C21.4748 17.6705 21.8248 18.0304 21.9248 17.8154C22.0348 17.6004 21.6498 17.5255 21.6498 17.5255H21.9098C21.9098 17.5255 21.8248 17.3055 21.4748 17.2555C21.5948 17.2055 21.7198 17.2455 21.7198 17.2455C21.7198 17.2455 21.6448 16.9704 21.2848 16.9404C21.4248 16.8904 21.5848 16.9255 21.5848 16.9255C21.5848 16.9255 21.5348 16.6654 21.1348 16.5904C21.1998 16.5204 21.3698 16.5404 21.3698 16.5404C21.3698 16.5404 21.2098 16.2955 21.0298 16.3105C20.8498 16.3255 19.2298 16.1455 19.2298 16.1505Z" fill="#00713D" stroke="black" stroke-width="0.125"/>
<path d="M20.83 17.4751C20.83 17.4751 20.98 17.5451 20.97 17.6051M20.915 17.3601C20.915 17.3601 21.1 17.4901 21.095 17.5851M21.08 17.2951C21.08 17.2951 21.225 17.3851 21.23 17.5301M21.325 17.3501C21.325 17.3501 21.395 17.5101 21.375 17.5401M21.47 17.4351C21.48 17.5601 21.46 17.5751 21.46 17.5751M19.66 16.6501C19.66 16.6501 19.835 16.7601 19.82 16.9151M19.65 16.7801C19.65 16.7801 19.73 16.8601 19.715 16.9101M19.865 16.6501C19.865 16.6501 19.98 16.8101 19.94 16.9201M20.06 16.7551C20.06 16.7551 20.11 16.8551 20.06 16.9051M20.15 16.8001C20.15 16.8001 20.21 16.9001 20.155 16.9351M20.08 17.1301C20.08 17.1301 20.24 17.1651 20.265 17.2851M20.175 17.0201C20.175 17.0201 20.345 17.0301 20.365 17.2101M20.4 16.9551C20.4 16.9551 20.515 17.1551 20.495 17.2151M20.615 16.9751C20.615 16.9751 20.66 17.1601 20.625 17.2251M20.755 17.0501V17.2651M20.545 16.7551C20.545 16.7551 20.645 16.7951 20.645 16.9001M20.64 16.6601C20.64 16.6601 20.775 16.7351 20.765 16.8851M20.8 16.6001C20.8 16.6001 20.915 16.7351 20.875 16.8901M21 16.6301C21 16.6301 20.96 16.8051 20.98 16.8751M21.13 16.7501C21.13 16.7501 21.055 16.8051 21.095 16.8801M20.46 17.4201C20.46 17.4201 20.485 17.5501 20.46 17.5701M20.295 17.3401C20.295 17.3401 20.375 17.4901 20.345 17.5601M20.115 17.3351C20.115 17.3351 20.21 17.4451 20.205 17.5351M19.965 17.3551C19.965 17.3551 20.055 17.4401 20.045 17.4901M19.89 17.4851C19.89 17.4851 19.975 17.5751 19.97 17.5901" stroke="#3EC26D" stroke-width="0.125" stroke-linecap="round"/>
<path d="M18.0656 11.4645L19.2806 11.4395C19.2806 11.4395 20.0806 11.4395 20.1656 11.6995C20.3156 11.3545 21.0156 11.3745 21.0156 11.3745L22.2656 11.3345L22.2906 14.3645C22.0406 15.5445 21.1906 16.3745 20.2556 16.7295C19.7312 16.551 19.2639 16.236 18.9018 15.8167C18.5397 15.3975 18.2959 14.8893 18.1956 14.3445L18.0656 11.4645Z" fill="white" stroke="black" stroke-width="0.125"/>
<path d="M18.4988 11.4501L20.2638 16.1601L21.8638 11.3501C21.3638 11.3801 20.3038 11.2701 20.1688 11.7251C19.9688 11.3201 18.8488 11.4801 18.4938 11.4501H18.4988Z" fill="#006B00" stroke="black" stroke-width="0.125"/>
<path d="M19.7 14C19.77 14.035 19.765 12.725 19.855 12.685L19.925 12.41C19.85 12.275 19.505 12.28 19.375 12.4L19.46 12.64C19.635 12.92 19.6 14.03 19.7 14Z" fill="#FFC900" stroke="#006B00" stroke-width="0.0625" stroke-linecap="round"/>
<path d="M19.225 3.84939C19.225 3.84939 19.35 3.70439 19.355 3.67439C19.365 3.63939 19.925 3.61439 20.255 2.98939C20.445 2.66439 20.255 2.85439 20.255 2.85439L20.25 2.69939C20.25 2.69939 20.48 2.47939 20.4 2.35939C20.31 2.23939 20.34 2.50939 20.2 2.50939C20.065 2.50439 20.14 2.20939 20.14 2.20939C20.14 2.20939 20.13 2.17939 20.09 2.15939C20.035 2.16939 20.05 2.26939 20 2.27939C19.95 2.29439 19.9 2.04439 19.9 2.04439C19.9 2.04439 19.815 1.92939 19.745 2.28439C19.785 2.66939 20.025 2.59439 20.025 2.84439C20.025 3.09439 19.81 3.28439 19.75 3.29439C19.685 3.29439 19.71 3.07939 19.71 3.07939C19.71 3.07939 19.675 2.97939 19.655 2.97939C19.63 2.97939 19.78 2.95439 19.755 2.67439C19.705 2.33439 19.665 2.75439 19.575 2.73439C19.48 2.71939 19.55 2.42439 19.585 2.38439C19.62 2.35439 19.545 2.21439 19.345 2.57439C19.33 2.75439 19.305 2.52939 19.265 2.54439C19.2 2.68439 19.21 2.78439 19.305 2.91439C19.45 3.04939 19.54 3.17939 19.535 3.24439C19.53 3.31439 19.455 3.46939 19.35 3.46939C19.25 3.46939 19.355 3.27939 19.35 3.21939C19.35 3.15439 19.175 2.92939 19.175 2.92939C19.175 2.92939 19.055 2.73439 19.07 2.72939C19.08 2.72439 19.055 2.69439 19 2.89439C18.945 3.09439 18.875 2.76439 18.875 2.76439C18.875 2.76439 18.795 3.00939 18.965 3.15439C18.835 3.13939 18.825 3.18939 18.825 3.18939C18.825 3.25939 19 3.28939 19.025 3.40439C19.045 3.52439 18.84 3.59439 18.84 3.59439C18.84 3.59439 18.925 3.70939 19.165 3.47939C19.17 3.62939 19.075 3.72939 19.075 3.72939C19.155 3.76439 19.215 3.75939 19.225 3.85439V3.84939Z" fill="#CDAD56" stroke="black" stroke-width="0.125" stroke-linejoin="round"/>
<path d="M18.4494 3.85003C18.4494 3.85003 18.3394 3.69003 18.3344 3.66003C18.3344 3.63003 17.8144 3.70003 17.5694 3.07003C17.4094 2.77003 17.5694 2.94503 17.5694 2.94503L17.5794 2.80003C17.5794 2.80003 17.4094 2.59503 17.4794 2.48503C17.5544 2.37503 17.5294 2.62503 17.6194 2.62503C17.7344 2.62003 17.6694 2.35503 17.6694 2.35503C17.6694 2.35503 17.6794 2.32503 17.7194 2.31003C17.7644 2.31503 17.7844 2.47003 17.8244 2.48003C17.8694 2.49003 17.9594 2.30003 17.9894 2.26003C18.0294 2.25503 18.0244 2.10003 18.0894 2.42503C18.0544 2.77003 17.7694 2.70003 17.7694 2.92503C17.7694 3.15503 17.9494 3.33003 18.0044 3.33503C18.0544 3.34503 18.0394 3.14503 18.0394 3.14503C18.0394 3.14503 18.0694 3.05503 18.0894 3.05503C18.1044 3.05503 17.9194 3.09003 17.9394 2.83003C17.9794 2.59003 18.0744 2.84503 18.1544 2.83003C18.2294 2.81503 18.1444 2.58003 18.1644 2.54003C18.1694 2.50003 18.2844 2.34503 18.3294 2.69003C18.3444 2.85503 18.4294 2.55503 18.4644 2.56503C18.5244 2.69503 18.4394 2.86503 18.3594 2.98503C18.2394 3.10503 18.1844 3.23503 18.1894 3.29503C18.1894 3.36003 18.2194 3.43503 18.3094 3.43503C18.3944 3.43503 18.3344 3.32503 18.3394 3.27003C18.3444 3.21503 18.4894 3.03003 18.4894 3.03003C18.5194 2.98003 18.4944 2.90003 18.5244 2.86003C18.5744 2.86003 18.5944 2.79503 18.6394 2.97503C18.6894 3.15503 18.7444 2.85503 18.7444 2.85503C18.7444 2.85503 18.8144 3.08003 18.6694 3.21503C18.7794 3.20003 18.7894 3.24503 18.7894 3.24503C18.7894 3.30503 18.7394 3.33003 18.7194 3.44503C18.7144 3.47493 18.7167 3.50562 18.7263 3.5344C18.7359 3.56317 18.7524 3.58914 18.7744 3.61003C18.7744 3.61003 18.7044 3.72003 18.4994 3.51003C18.4989 3.59209 18.5272 3.67173 18.5794 3.73503C18.5094 3.77003 18.4594 3.76503 18.4494 3.85003Z" fill="#CDAD56" stroke="black" stroke-width="0.1125" stroke-linejoin="round"/>
<path d="M21.5656 12.15C21.4656 12.06 21.4506 12.14 21.3956 12.12C21.3706 12.11 21.3506 12.085 21.3306 12.065C21.3106 12.045 21.2856 12.035 21.2606 12.025L21.2306 12.11C21.2206 12.14 21.2606 12.185 21.2606 12.23C21.2506 12.295 21.2256 12.345 21.1456 12.365C21.1706 12.32 21.1806 12.32 21.1756 12.265C21.1756 12.24 21.0956 12.19 21.1056 12.165C21.1156 12.12 21.1406 12.075 21.1256 12.03C21.0906 12.055 21.0506 12.04 21.0156 12.055C20.9906 12.07 20.9856 12.12 20.9506 12.14C20.9106 12.16 20.8256 12.15 20.7506 12.11C20.7956 12.075 20.8306 12.1 20.8756 12.06C20.8956 12.05 20.8956 11.975 20.9206 11.96L21.0156 11.91C20.9956 11.885 20.9956 11.85 20.9756 11.83C20.9556 11.805 20.8706 11.81 20.8506 11.79C20.8106 11.74 20.8156 11.685 20.7806 11.64C20.8806 11.675 20.8656 11.725 20.8906 11.72C20.9406 11.695 20.9906 11.695 21.0156 11.705C21.0406 11.715 21.0856 11.78 21.1156 11.79L21.1456 11.695C21.1556 11.665 21.1056 11.62 21.1106 11.59C21.1306 11.535 21.1806 11.485 21.2006 11.425L21.2206 11.58C21.2256 11.61 21.2806 11.625 21.2806 11.65C21.2856 11.68 21.2556 11.74 21.2556 11.77C21.2856 11.765 21.3306 11.77 21.3556 11.76C21.3906 11.755 21.4056 11.685 21.4356 11.68C21.4956 11.67 21.5356 11.675 21.6006 11.68C21.5506 11.725 21.5206 11.72 21.4956 11.76C21.4706 11.775 21.5006 11.83 21.4406 11.87C21.4156 11.885 21.3506 11.87 21.3306 11.885L21.3906 11.95C21.4106 11.975 21.4956 11.985 21.5156 12.01C21.5556 12.05 21.5756 12.11 21.5656 12.155V12.15ZM18.8506 12.2C18.9506 12.105 18.9656 12.19 19.0206 12.165C19.0456 12.155 19.0656 12.135 19.0856 12.115C19.1056 12.09 19.1306 12.085 19.1556 12.07L19.1856 12.16C19.1956 12.185 19.1556 12.235 19.1556 12.275C19.1656 12.34 19.1906 12.39 19.2706 12.415C19.2456 12.365 19.2356 12.365 19.2406 12.315C19.2406 12.285 19.3206 12.235 19.3106 12.21C19.3006 12.17 19.2756 12.12 19.2906 12.08C19.3256 12.1 19.3656 12.09 19.4006 12.1C19.4256 12.115 19.4306 12.165 19.4656 12.185C19.5056 12.205 19.5906 12.195 19.6656 12.155C19.6206 12.12 19.5856 12.145 19.5406 12.11C19.5206 12.095 19.5206 12.02 19.4956 12.01C19.4756 11.99 19.4206 11.97 19.4006 11.955C19.4206 11.93 19.4206 11.895 19.4406 11.875C19.4606 11.85 19.5456 11.855 19.5656 11.835C19.6056 11.785 19.6006 11.73 19.6356 11.685C19.5356 11.72 19.5506 11.77 19.5256 11.765C19.4756 11.745 19.4256 11.74 19.4006 11.75C19.3756 11.76 19.3306 11.825 19.3006 11.835L19.2706 11.74C19.2606 11.715 19.3156 11.665 19.3056 11.64C19.2856 11.58 19.2356 11.53 19.2156 11.47L19.1956 11.63C19.1906 11.655 19.1356 11.67 19.1356 11.695C19.1306 11.725 19.1606 11.79 19.1606 11.815C19.1306 11.81 19.0856 11.815 19.0606 11.805C19.0256 11.805 19.0106 11.735 18.9806 11.725C18.9206 11.715 18.8806 11.72 18.8156 11.73C18.8656 11.77 18.8956 11.77 18.9256 11.805C18.9456 11.825 18.9156 11.88 18.9756 11.915C19.0006 11.93 19.0656 11.915 19.0856 11.93L19.0256 12C19.0056 12.02 18.9206 12.03 18.9006 12.05C18.8606 12.1 18.8406 12.15 18.8506 12.2Z" fill="#FFC900"/>
<path d="M21.47 12.4596C21.375 12.5346 20.755 12.6896 20.75 13.2246C20.745 13.7646 20.86 13.8846 20.745 13.8996C20.52 13.8996 20.49 13.2996 20.495 13.0346C20.5 12.7696 20.51 12.8096 20.51 12.8096C20.51 12.8096 20.66 12.8496 20.65 12.9796C20.635 13.1096 20.8 12.6596 20.745 12.5396C20.845 12.6396 20.98 12.5996 20.98 12.5896C20.98 12.5896 20.905 12.5046 20.87 12.4396C20.84 12.3846 20.985 12.4796 20.985 12.4796C20.985 12.4796 20.995 12.3796 20.865 12.3796C20.7 12.3796 20.89 12.3296 20.89 12.3296C20.89 12.3296 20.99 12.4146 21.05 12.3196C21.0011 12.2709 20.9434 12.2319 20.88 12.2046C20.88 12.2046 20.79 12.0346 20.67 12.0046C20.53 11.9696 20.545 12.0646 20.385 12.0496C20.355 12.1096 20.355 12.1196 20.42 12.1396C20.31 12.2146 20.37 12.3596 20.37 12.3596C20.37 12.3596 20.54 12.2896 20.535 12.4096C20.53 12.5346 20.435 12.5096 20.37 12.4346C20.31 12.4046 20.29 12.4696 20.29 12.4696L20.38 12.5696C20.38 12.5696 20.21 12.5596 20.165 12.6746C20.26 12.6696 20.315 12.6946 20.315 12.6946C20.315 12.6946 20.115 12.7846 20.095 12.8296C20.075 12.8796 20.07 12.7796 20.06 12.7796L19.87 12.7096L19.805 13.0046C19.805 13.0046 19.935 13.1296 20.005 13.0896C20.075 13.0496 20.205 12.9246 20.28 12.9596C20.055 13.1296 19.83 13.3746 19.71 13.4096C19.68 13.3796 19.57 13.2746 19.525 13.3296C19.48 13.3796 19.515 13.4496 19.575 13.4446C19.625 13.4346 19.385 13.4946 19.435 13.5996C19.485 13.6996 19.485 13.6946 19.525 13.6696C19.575 13.6396 19.49 13.6346 19.655 13.5846C19.82 13.5346 19.815 13.4896 19.815 13.4896C19.815 13.4896 19.78 13.5646 19.69 13.5896C19.605 13.6046 19.535 13.6046 19.55 13.6346C19.57 13.6596 19.61 13.7096 19.6 13.7346C19.585 13.7646 19.78 13.5946 19.835 13.7296C19.965 13.7196 20.055 13.5596 19.99 13.4646C20 13.5646 20.06 13.5996 20.025 13.6496C19.985 13.6946 20.325 13.4896 20.16 13.3696C20.2 13.4696 20.21 13.5496 20.21 13.5496C20.21 13.5496 20.285 13.5496 20.305 13.5196C20.325 13.4896 20.265 13.5946 20.29 13.6146C20.315 13.6346 20.44 13.7496 20.39 13.8296C20.355 13.7796 20.35 13.7096 20.31 13.7146C20.27 13.7196 20.11 13.8396 20.015 13.8446C19.92 13.8496 20.13 14.1946 20.13 14.1946C20.13 14.1946 19.985 14.1796 19.965 14.1946C19.945 14.2046 19.85 14.0696 19.835 14.1496C19.8 14.2496 19.865 14.2096 19.865 14.2096C19.865 14.2096 19.78 14.1696 19.735 14.2196C19.69 14.2696 19.65 14.3146 19.68 14.3346C19.71 14.3546 19.85 14.3546 19.87 14.3496C19.89 14.3396 19.71 14.3596 19.7 14.3796C19.685 14.3996 19.66 14.4796 19.7 14.5046C19.735 14.5296 19.835 14.4896 19.84 14.4696C19.845 14.4496 19.85 14.5446 19.85 14.5446C19.85 14.5446 20.015 14.5596 20.015 14.3896C20.015 14.2196 20.03 14.5096 20.03 14.5096C20.03 14.5096 20.195 14.5396 20.2 14.3696C20.21 14.1996 20.22 14.4846 20.22 14.4846C20.22 14.4846 20.33 14.4496 20.33 14.4246C20.33 14.3946 20.325 14.7596 20.245 14.8646C20.125 14.7846 20.045 14.9146 20.045 14.9146C20.045 14.9146 20.055 15.1146 20.045 15.1646C20.03 15.2146 20.125 15.1346 20.13 15.1146C20.14 15.0946 20.255 15.0396 20.26 15.0296L20.3 14.9446C20.3 14.9446 20.27 15.0446 20.23 15.0546C20.18 15.0696 20.14 15.1146 20.16 15.1546C20.175 15.1996 20.245 15.2246 20.27 15.2646C20.3 15.3046 20.385 15.0296 20.385 15.0296L20.395 15.0896C20.395 15.0896 20.51 15.0596 20.52 15.0046C20.535 14.9546 20.4 14.9046 20.51 14.8146C20.615 14.7296 20.51 14.8996 20.51 14.8996C20.51 14.8996 20.545 15.0296 20.57 15.0296C20.6 15.0296 20.66 14.7796 20.6 14.7196C20.535 14.6596 20.695 14.7946 20.695 14.7946C20.695 14.7946 20.785 14.5446 20.685 14.5096L20.545 14.4596C20.545 14.4596 20.595 14.3946 20.57 14.3896C20.545 14.3796 20.705 14.5396 20.73 14.4946C20.755 14.4546 20.795 14.3346 20.61 14.2646C20.425 14.1996 20.605 14.0096 20.605 14.0096C20.605 14.0096 20.72 14.1446 20.805 14.0696C20.885 13.9946 20.795 13.9946 20.795 13.9946C20.795 13.9946 21.03 13.8446 21.04 13.7696C20.99 13.7646 20.915 13.7746 20.915 13.7746C20.915 13.7746 21.05 13.6896 21.015 13.5446C20.965 13.6196 20.895 13.6196 20.895 13.6196C20.895 13.6196 21.01 13.5046 20.995 13.3946C20.925 13.4496 20.93 13.4946 20.885 13.4796C20.84 13.4646 20.765 13.0346 20.94 13.0096C21.12 12.9796 21.025 13.2196 21.03 13.2196C21.04 13.2196 21.3 13.1096 21.03 12.9346C21.095 12.9146 21.23 13.0346 21.23 13.0346C21.23 13.0346 21.17 12.7346 20.88 12.9196C20.955 12.8446 21 12.7996 21.055 12.8096C21.115 12.8246 21.32 12.8046 21.32 12.7446C21.27 12.7046 21.16 12.7646 21.1 12.7446C21.045 12.7246 21.51 12.6896 21.47 12.4596Z" fill="#FFC900" stroke="#006B00" stroke-width="0.0625" stroke-linecap="round" stroke-linejoin="round"/>
<path d="M19.45 12.6348C19.45 12.6348 19.705 12.4898 19.83 12.6698M19.935 12.9398C19.93 12.9398 19.845 13.0298 19.825 13.0298M20.105 13.2248C20.105 13.2248 20.345 13.2448 20.495 12.9948" stroke="#006B00" stroke-width="0.0625" stroke-linecap="round"/>
<path d="M20.3588 13.1499C20.3588 13.1499 20.3788 13.2849 20.4188 13.2849C20.4538 13.2849 20.3538 13.3199 20.3188 13.2949C20.3588 13.3549 20.3838 13.4649 20.3188 13.5049" stroke="#006B00" stroke-width="0.0625" stroke-linecap="round"/>
<path d="M20.2412 14.8657C20.2412 14.8657 20.1612 14.9607 20.0562 14.9657L20.2412 14.8657Z" fill="#E80000"/>
<path d="M20.2412 14.8657C20.2412 14.8657 20.1612 14.9607 20.0562 14.9657" stroke="#006B00" stroke-width="0.0625" stroke-linecap="round"/>
<path d="M20.3358 14.4301C20.3358 14.4301 20.2858 14.1551 20.3158 14.0901C20.3358 14.0001 20.4158 13.9651 20.4858 13.8501" stroke="#006B00" stroke-width="0.0625" stroke-linecap="round"/>
<path d="M20.3106 14.2301C20.3106 14.2301 20.2456 14.3951 19.9656 14.3401M20.3856 13.8251C20.3856 13.8251 20.4056 14.0401 20.1506 13.9601M20.0756 12.8501C20.0756 12.8501 19.9756 12.9401 20.0106 13.0701" stroke="#006B00" stroke-width="0.0625" stroke-linecap="round"/>
<path d="M20.4562 12.605C20.4562 12.605 20.5912 12.555 20.6162 12.525C20.6518 12.4906 20.6806 12.4499 20.7012 12.405C20.7112 12.365 20.6112 12.305 20.6612 12.215C20.6962 12.17 20.7412 12.165 20.8112 12.215C20.8912 12.265 20.7462 12.065 20.6712 12.055C20.5912 12.05 20.5412 12.11 20.5212 12.095C20.5012 12.085 20.5262 12.15 20.4962 12.15C20.4662 12.15 20.5612 12.205 20.5562 12.24C20.5462 12.275 20.6562 12.39 20.6512 12.415C20.6412 12.445 20.4912 12.6 20.4562 12.605Z" fill="#006B00"/>
<path d="M20.55 12.1603C20.61 12.1453 20.62 12.1603 20.61 12.2103C20.5877 12.1985 20.5688 12.1813 20.555 12.1603H20.55Z" fill="#FFC900" stroke="#FFC900" stroke-width="0.0625" stroke-linecap="round" stroke-linejoin="round"/>
<path d="M20.1487 15.1851C20.1487 15.1851 20.1237 15.3301 20.1737 15.3401C20.1737 15.2901 20.1887 15.2501 20.1987 15.2351L20.1487 15.1851ZM20.0237 15.0101C19.9737 15.0051 19.8987 15.0501 19.9237 15.1001C19.9587 15.0651 19.9937 15.1001 20.0237 15.0651V15.0151V15.0101ZM20.0237 14.9101C20.0237 14.9101 19.9487 14.9001 19.9387 14.9551C19.9887 14.9451 20.0087 14.9401 20.0237 14.9551V14.9101Z" fill="#E80000" stroke="#006B00" stroke-width="0.0625" stroke-linejoin="round"/>
<path d="M19.7062 14.1099C19.7062 14.1099 19.7562 14.1249 19.7662 14.1749C19.8012 14.1549 19.8162 14.0449 19.7062 14.1099ZM19.5912 14.2299C19.5912 14.2299 19.6912 14.1699 19.6962 14.2299C19.6762 14.2449 19.6712 14.2599 19.6562 14.2649C19.6412 14.2649 19.6162 14.2249 19.5912 14.2299ZM19.5862 14.4249C19.5862 14.4249 19.6462 14.3749 19.6662 14.4049C19.6912 14.4449 19.6462 14.4399 19.6462 14.4399L19.5862 14.4249ZM19.5012 13.3299C19.5012 13.3299 19.4262 13.2999 19.3962 13.3549C19.4462 13.3649 19.4612 13.3799 19.4862 13.3999C19.4762 13.3749 19.4662 13.3399 19.5012 13.3299ZM19.3562 13.7449C19.3562 13.7449 19.3562 13.6499 19.4062 13.6149C19.4262 13.6299 19.4312 13.6499 19.4462 13.6749C19.4162 13.6849 19.3762 13.6849 19.3562 13.7449ZM19.5512 13.6799C19.5512 13.6799 19.4712 13.7199 19.5012 13.7649C19.5262 13.7299 19.5562 13.7399 19.5562 13.7399V13.6799H19.5512Z" fill="#E80000" stroke="#006B00" stroke-width="0.075" stroke-linejoin="round"/>
<path d="M19.4356 12.7896C19.4056 12.8246 19.4706 12.8996 19.5406 12.8896C19.5606 12.8096 19.4556 12.7646 19.4406 12.7896H19.4356Z" fill="#FFC900" stroke="#006B00" stroke-width="0.075" stroke-linejoin="round"/>
<path d="M19.5094 12.7293C19.5094 12.7293 19.5244 12.7943 19.5844 12.7793C19.5767 12.7437 19.5594 12.7108 19.5344 12.6843C19.5344 12.6993 19.5394 12.7243 19.5094 12.7293ZM19.5494 12.9143C19.5494 12.9143 19.5844 12.9543 19.6494 12.8793C19.6194 12.8843 19.5694 12.8593 19.5694 12.8593C19.5694 12.8593 19.5694 12.9093 19.5494 12.9143Z" fill="#E80000" stroke="#006B00" stroke-width="0.075" stroke-linejoin="round"/>
<path d="M19.4294 12.6406C19.4044 12.6756 19.4444 12.7256 19.5144 12.7156C19.5294 12.6306 19.4494 12.6156 19.4294 12.6406Z" fill="#FFC900" stroke="#006B00" stroke-width="0.075" stroke-linejoin="round"/>
<path d="M19.4594 12.3156C19.4594 12.3156 19.7344 12.2356 19.8794 12.3556C20.0294 12.4706 20.0294 12.3656 20.0294 12.3656C20.0294 12.3656 20.2394 12.4456 20.2994 12.4256C20.3594 12.4106 20.2544 12.4356 20.3394 12.3806C20.4244 12.3306 20.1694 12.3956 20.1494 12.2856C20.1094 12.2206 20.1494 12.1356 20.0644 12.1656C20.0044 12.0856 20.1044 12.0306 20.0794 11.9456C20.0194 11.9956 19.9844 11.9306 19.9344 12.0456C19.8194 12.0206 19.9194 11.8556 19.7894 11.8406C19.7894 11.9556 19.6944 11.9606 19.6894 12.0306C19.6344 12.0706 19.3894 12.2156 19.4594 12.3156Z" fill="url(#paint1_linear_69_11293)"/>
<path d="M16.3006 21.2504C16.4806 21.2004 17.4456 21.4604 17.8156 21.8604C17.7356 21.1454 17.5406 20.6054 17.5406 20.6054C17.5406 20.6054 16.9656 20.4404 16.8906 20.5204C16.6666 20.7384 16.4686 20.9817 16.3006 21.2454V21.2504ZM16.0056 17.9654C15.9406 17.9754 15.8706 18.0204 15.8056 18.1354C15.7256 18.3254 15.6706 18.8104 15.5556 18.9254C15.4456 19.0354 15.3406 19.0454 15.3406 19.1504C15.3406 19.2504 15.3556 19.4854 15.6556 19.5754C15.9606 19.5904 16.4456 19.0904 16.4456 19.0904C16.4456 19.0904 16.6956 18.8204 16.7956 18.5304C16.2106 18.7304 15.7956 18.1904 16.0056 17.9654ZM24.4856 21.1354C23.9278 21.1717 23.3958 21.3834 22.9656 21.7404C23.0456 21.0354 23.2406 20.4904 23.2406 20.4904C23.3056 20.4754 23.8056 20.3304 23.8806 20.4104C23.9956 20.5304 24.3656 20.8954 24.4856 21.1354ZM24.7606 17.8704C24.8256 17.8804 24.8506 17.9704 24.9106 18.0804C24.9856 18.2754 25.0606 18.5504 25.1756 18.6604C25.2906 18.7754 25.3906 18.9404 25.3906 19.0404C25.3906 19.1404 25.3656 19.2804 25.0656 19.3704C24.7656 19.3804 24.3256 18.9904 24.3256 18.9904C24.3256 18.9904 24.0756 18.7254 23.9756 18.4304C24.5606 18.6304 24.9356 18.1154 24.7606 17.8704Z" fill="#C01500" stroke="black" stroke-width="0.125"/>
<path d="M15.6706 20.6242C15.6706 20.6242 16.2756 21.0442 16.2906 21.2342C17.9256 18.8092 22.0957 18.0542 24.4756 21.0642C24.7907 20.6492 25.1156 20.5142 25.1156 20.5142C22.6156 17.2442 17.6306 17.6492 15.6656 20.6242H15.6706Z" fill="#FFBB00" stroke="black" stroke-width="0.125"/>
<path d="M21.8694 11.3502L22.1094 11.3452L21.6844 11.8852L22.1944 12.4802L21.1894 13.7452L22.1394 14.8852C22.0424 15.1355 21.9112 15.3711 21.7494 15.5852L21.2044 14.9852L22.1994 13.7502L21.3894 12.8302L21.8694 11.3502ZM18.4644 11.4602H18.2144L18.6894 11.9802L18.1844 12.6102L19.2344 13.7502L18.3644 14.9152C18.4644 15.1652 18.6144 15.4552 18.7794 15.6652L19.2944 15.0102L18.2344 13.8302L19.0094 12.8452L18.4644 11.4602Z" fill="#1E5AA6" stroke="black" stroke-width="0.125"/>
<path d="M19.6494 14.5193L19.2694 15.0193L20.6094 16.5693C20.8494 16.4493 21.0344 16.3143 21.2344 16.1493L20.5344 15.3443L20.8194 14.5093L21.2294 14.9793L19.9544 16.6093C19.7394 16.5193 19.5044 16.3793 19.2894 16.1993L19.9644 15.3443L19.6494 14.5193ZM19.2344 13.7443L19.4744 14.0493L19.3194 13.6343L19.2344 13.7443ZM20.9794 14.0143L21.1794 13.7543L21.1044 13.6543L20.9794 14.0143Z" fill="#1E5AA6" stroke="black" stroke-width="0.125"/>
<path d="M23.8 9.75005C23.8 9.75005 24.04 9.55005 24.205 9.55005" stroke="#FFF700" stroke-width="0.125" stroke-linecap="round"/>
<path d="M23.8344 9.7251C23.8394 9.7201 25.2394 9.5251 25.2844 9.4751M23.8393 9.7351L25.4094 9.6001M23.8344 9.7401C23.8344 9.7401 25.4994 9.6651 25.5994 9.7501" stroke="#FFF700" stroke-width="0.125" stroke-linecap="round"/>
<path d="M23.8288 9.73438C23.8288 9.73438 25.4588 9.74937 25.4888 9.78437M23.8338 9.73438L25.4038 9.86438M23.8188 9.74938C23.8188 9.74938 25.4188 9.88938 25.5688 10.0894" stroke="#FFF700" stroke-width="0.125" stroke-linecap="round"/>
<path d="M25.6556 10.3758C25.6556 10.3708 25.1156 9.73084 23.8156 9.74084" stroke="#FFF700" stroke-width="0.125" stroke-linecap="round"/>
<path d="M23.8188 9.75C23.8188 9.75 24.7188 9.815 25.0038 10.13" stroke="#FFF700" stroke-width="0.125" stroke-linecap="round"/>
<path d="M23.8344 9.74021C23.8344 9.74021 24.4194 9.63021 25.0294 10.3652" stroke="#FFF700" stroke-width="0.125" stroke-linecap="round"/>
<path d="M23.471 10.4094C23.471 10.4094 24.276 10.4394 24.276 10.5194C24.276 10.5994 23.676 10.7494 23.666 11.0794C23.661 11.4144 24.126 11.4394 24.161 11.8594C24.191 12.2794 23.796 12.3394 23.711 12.4544C23.636 12.5044 23.446 13.1044 23.471 13.4544C23.496 13.7994 23.596 14.9794 23.781 15.2194C23.921 15.3294 24.131 15.6844 24.366 15.5694C24.596 15.4644 24.436 15.0594 24.416 14.9494C24.391 14.8394 24.506 14.6544 24.506 14.4894C24.506 14.3194 24.421 14.1894 24.431 14.1494C24.436 14.1094 25.071 14.2994 25.031 14.9244C24.991 15.5494 24.736 15.3594 24.736 15.3594C24.736 15.3594 24.816 16.1294 24.621 16.2294C24.261 16.4194 24.001 16.1894 24.001 16.1894L24.036 16.3494L23.761 16.2094C23.761 16.2094 23.411 15.7094 23.336 15.4844C23.2336 15.0165 23.185 14.5384 23.191 14.0594C23.226 13.8444 23.246 12.5944 23.231 12.5294C23.216 12.4694 23.151 11.4244 23.191 11.2644C23.231 11.1044 23.476 10.4094 23.471 10.4094Z" fill="url(#paint2_linear_69_11293)" stroke="black" stroke-width="0.125"/>
<path d="M22.5988 10.1995C22.5988 10.1995 23.1587 9.6545 23.4837 9.7195C23.6487 9.7195 23.4938 9.8395 23.4938 9.8395C23.4938 9.8395 23.7788 9.8595 23.8188 9.9895C23.8238 10.0395 23.6837 10.0595 23.6837 10.0595C23.6837 10.0595 23.7987 10.0845 23.8087 10.1845C23.8187 10.2895 22.6088 10.2095 22.5938 10.2045L22.5988 10.1995Z" fill="#FF7000" stroke="black" stroke-width="0.125"/>
<path d="M22.6312 10.1802C22.6312 10.1802 23.2312 10.1002 23.4862 9.84521" stroke="black" stroke-width="0.125"/>
<path d="M23.2406 10.0151C23.2406 10.0151 23.6856 9.9951 23.6856 10.0651" stroke="black" stroke-width="0.125"/>
<path d="M24.715 13.3499C24.715 13.3499 24.765 13.6399 24.625 13.8399C24.555 13.9199 24.34 14.0549 24.34 14.1499C24.34 14.2449 24.42 14.3699 24.405 14.4799C24.39 14.5899 24.27 14.7049 24.275 14.7999C24.275 14.8949 24.41 15.3999 24.395 15.4099M24.015 12.3999C24.015 12.3999 23.715 12.4999 23.65 12.7999" stroke="white" stroke-width="0.125" stroke-linecap="round"/>
<path d="M23.8906 10.0142C23.8906 10.0142 23.9906 10.2992 24.3256 10.0292C24.1106 9.73422 23.8906 10.0192 23.8906 10.0142Z" fill="#C75B00" stroke="black" stroke-width="0.125"/>
<path d="M21.1706 9.35053C21.1706 9.35053 21.8006 10.0355 22.2056 10.0255C22.2806 10.2255 22.0206 10.4155 21.9206 10.5005C21.7106 10.4355 21.5206 10.5155 21.0406 9.92053C21.0706 9.54053 21.1756 9.37053 21.1706 9.35053ZM22.0206 7.76053C22.1056 7.51053 22.2707 7.31053 22.4107 7.28553C22.3707 7.09553 22.7056 6.24053 23.6756 5.91553C23.7356 6.35053 23.2607 6.78553 23.2607 6.78553C23.2607 6.78553 24.6957 6.53553 24.9857 6.17553C24.9557 6.33553 24.6657 7.35553 23.1357 7.34553C23.7157 7.89553 22.9506 8.33553 22.6256 8.20053C23.2256 7.74053 22.4506 7.46553 22.0256 7.76053H22.0206Z" fill="white" stroke="black" stroke-width="0.125"/>
<path d="M22.5094 7.40555C22.7994 7.22055 22.9044 7.22055 23.1444 7.25555L22.9694 7.28555C22.9694 7.28555 22.9544 7.31055 23.0594 7.40555C22.9394 7.37555 22.8394 7.30555 22.5094 7.40555Z" fill="#CCCCCD" stroke="#CCCCCC" stroke-width="0.125"/>
<path d="M22.4 7.2849C22.4 7.2849 22.97 6.9849 23.29 6.7749" stroke="black" stroke-width="0.125"/>
<path d="M21.9115 10.5003C21.9115 10.5003 22.6965 10.7153 22.7865 9.59032C22.6165 9.10032 22.3815 8.04032 22.7415 7.74032C22.4115 7.51032 22.0415 7.75032 22.0415 7.75032C22.0215 7.80032 21.7265 8.22532 22.1265 8.96532C21.1765 8.71532 21.5615 9.61532 21.5615 9.61532C21.6015 9.46532 22.1065 9.33532 22.2315 10.0553C22.2815 10.2353 21.8915 10.5053 21.9115 10.5053V10.5003Z" fill="#0000FF" stroke="black" stroke-width="0.125"/>
<path d="M22.7938 9.6001C22.7938 9.6001 23.6238 9.1501 23.6038 8.1001C22.8938 8.1201 22.6438 9.0301 22.6438 9.0301L22.7938 9.6001Z" fill="#0000FF" stroke="black" stroke-width="0.125"/>
<path d="M19.0656 9.54541C19.0656 9.54541 18.4506 10.0804 18.1006 9.91041C17.8456 10.0604 17.5406 9.79041 17.5406 9.79041C17.5406 9.79041 17.8906 11.1054 19.1706 10.1554C19.1582 9.94917 19.1247 9.74477 19.0706 9.54541H19.0656Z" fill="white" stroke="black" stroke-width="0.125"/>
<path d="M18.0946 9.88505C18.1446 9.61005 18.3596 9.47505 18.5346 9.73505C18.7646 9.78505 18.9946 8.83505 18.1746 8.99505C18.4046 7.76005 17.7146 7.30005 17.7146 7.30005C17.7146 7.30005 17.4696 8.67005 17.5846 8.92005C17.6946 9.17005 17.4196 8.45505 16.5346 8.25005C16.5196 9.28505 17.5246 9.76505 17.5246 9.76505C17.5246 9.76505 17.8046 10.025 18.0946 9.88505Z" fill="#0000FF" stroke="black" stroke-width="0.125"/>
<path d="M18.175 8.98531C18.175 8.98531 17.79 9.31531 17.875 9.76031M17.59 8.94531C17.59 8.94531 17.5 9.26031 17.69 9.71531" stroke="black" stroke-width="0.125"/>
<path d="M17.5312 9.8205C17.5312 9.8205 17.7113 9.5305 18.0963 9.9005" stroke="black" stroke-width="0.125"/>
<path d="M17.6062 7.81558C17.6062 7.80558 17.0212 7.81558 17.3662 8.41058C17.1112 8.49058 16.5312 8.11058 16.9312 7.61058C15.6162 7.57558 15.0812 6.94558 15.0812 6.36558C15.4662 6.76558 16.3912 6.60558 16.7162 6.85058C16.3162 6.48058 16.3962 5.96558 16.3962 5.96558C16.3962 5.96558 17.5162 6.30058 17.7162 7.29558C17.6512 7.49058 17.6212 7.83058 17.6062 7.81558Z" fill="white" stroke="black" stroke-width="0.125"/>
<path d="M16.7 6.82495C16.92 7.04495 17.475 7.10995 17.755 7.35495" stroke="black" stroke-width="0.125"/>
<path d="M16.9594 7.47513C16.9594 7.47513 17.4194 7.41513 17.5544 7.57513C17.3744 7.57513 17.3144 7.53013 17.0544 7.62513C17.1244 7.59013 17.1044 7.52513 17.1444 7.52513C17.1844 7.52513 16.9794 7.47513 16.9594 7.47513Z" fill="#CCCCCD" stroke="#CCCCCC" stroke-width="0.0875"/>
<path d="M19.2488 3.8751C19.2488 3.8751 19.5038 3.6501 19.7788 3.8501C19.6538 4.22011 19.2088 4.08011 19.2088 4.08011C19.2088 4.08011 19.2238 4.26511 19.1788 4.35511C19.2688 4.42511 19.3388 4.64511 19.3388 4.64511C19.3388 4.64511 19.7988 4.53511 19.8988 4.73511C20.0738 4.71011 20.1988 4.73511 20.1988 4.73511C20.1988 4.73511 20.5588 4.64511 20.6838 4.64511C20.8088 4.64511 21.2088 4.74511 21.2488 4.82511C21.2838 4.89511 21.4188 5.39511 21.5088 5.38511C21.5988 5.38011 21.2938 5.50511 21.2088 5.38011C21.1288 5.25511 21.1538 5.54511 21.1538 5.54511C21.1538 5.54511 21.4038 5.81011 21.4338 5.87011C21.4638 5.93011 21.2788 6.41011 21.4188 6.74511C21.2938 6.75511 21.2838 6.88511 21.2838 6.88511C21.2788 7.03511 21.0938 7.07011 21.0938 7.07011L21.0438 6.87011L20.9238 6.94511L20.9738 6.79011C20.9738 6.79011 21.1438 6.37511 21.1588 6.24011C21.1738 6.10511 21.0038 5.87011 20.8688 5.87011C20.7338 5.87011 20.6388 6.29511 20.6388 6.29511C20.6388 6.29511 20.5738 6.61011 20.5938 6.64511L20.5038 6.54011C20.5038 6.54011 20.4488 6.73011 20.4038 6.79011C20.3538 6.85011 20.2588 6.87011 20.2588 6.87011C20.2588 6.87011 20.1938 6.68011 20.2188 6.60511C20.2388 6.53011 20.5788 6.24011 20.5488 6.03511C20.5188 5.82511 20.5488 5.87511 20.5438 5.87011C20.5338 5.86011 20.3638 5.71511 20.3588 5.63011C20.3488 5.55011 20.1338 5.73511 19.8538 5.68011C19.7688 5.83011 19.7538 6.20511 19.7538 6.20511C19.7538 6.20511 19.7288 6.65511 19.7838 6.70511C19.8438 6.76011 19.6338 6.87011 19.6338 6.87011L19.4888 7.07011L19.4388 6.95511L19.3338 7.03011L19.3938 6.88011C19.3888 6.76511 19.5388 6.46011 19.5388 6.20011C19.5388 5.94011 19.5538 5.66011 19.5538 5.66011C19.5538 5.66011 19.2838 5.64511 19.2888 5.93011C19.2938 6.21011 19.2238 6.23011 19.2388 6.30511C19.2538 6.39011 19.3238 6.62011 19.3038 6.68511C19.2838 6.75511 19.1938 6.77511 19.1938 6.77511L19.1688 6.81011C19.1688 6.81011 18.8938 6.94011 18.9038 6.99011L18.8938 6.84011L18.8788 6.62511C18.8788 6.62511 19.0438 6.52511 19.0438 6.26511C19.0438 6.00511 19.0088 5.96511 19.0138 5.90511C19.0188 5.84511 19.0588 5.63011 19.0488 5.60511C19.0438 5.58511 18.8988 5.67011 18.8488 5.67011C18.8038 5.67011 18.9338 5.51511 18.9488 5.40011C18.9638 5.29011 18.7988 5.50511 18.6638 5.38011C18.7288 5.24511 18.8188 5.20011 18.8338 5.10011C18.8488 4.99511 18.7338 5.18511 18.6288 5.11011C18.6388 5.01011 18.7388 4.92511 18.7388 4.92511C18.7388 4.92511 18.6538 4.91511 18.6188 4.92511C18.5538 4.90511 18.6938 4.80011 18.7038 4.65011C18.7088 4.50011 18.6188 4.44511 18.6188 4.43511C18.6188 4.43011 18.4688 4.30511 18.4488 4.25011C18.4288 4.20011 18.4288 4.14011 18.4288 4.14011C18.4288 4.14011 18.1788 4.32011 17.8938 3.9401C18.1588 3.7151 18.4438 3.8801 18.4438 3.8801C18.4438 3.8801 18.5188 3.67009 18.8588 3.68509C19.1988 3.70009 19.2688 3.8951 19.2538 3.8751H19.2488Z" fill="#923F00" stroke="black" stroke-width="0.125"/>
<path d="M21.1212 7.70947C21.1262 7.70947 21.7512 7.72947 21.7562 8.06447C21.7662 8.39947 21.5662 8.31447 21.5562 8.31447L21.1062 8.25447L21.1212 7.70947Z" fill="#0000FF" stroke="black" stroke-width="0.125"/>
<path d="M20.5156 7.62037C20.5156 7.62037 21.2956 7.61537 21.2506 7.95537C21.2056 8.29537 21.0106 8.22536 21.0106 8.22536L20.6306 8.19537L20.5156 7.62037Z" fill="#FFFEFF" stroke="black" stroke-width="0.125"/>
<path d="M20.0738 7.58447L20.5238 7.61947C20.5238 7.61947 20.7988 7.65447 20.7838 7.91947C20.7738 8.17447 20.5088 8.17947 20.5088 8.17947L20.0688 8.15447L20.0738 7.58447Z" fill="#0000FF" stroke="black" stroke-width="0.125"/>
<path d="M19.0212 7.70947C19.0112 7.70947 18.3912 7.72947 18.3812 8.06447C18.3812 8.39947 18.5762 8.31447 18.5812 8.31447L19.0362 8.25447L19.0212 7.70947Z" fill="white" stroke="black" stroke-width="0.125"/>
<path d="M19.6244 7.62037C19.6244 7.62037 18.8444 7.61537 18.8894 7.95537C18.9294 8.29537 19.1294 8.22536 19.1294 8.22536L19.5044 8.19537L19.6244 7.62037Z" fill="#0000FF" stroke="black" stroke-width="0.125"/>
<path d="M20.0653 7.58447L19.6153 7.61947C19.6153 7.61947 19.3403 7.65447 19.3503 7.91947C19.3653 8.17447 19.6303 8.17947 19.6303 8.17947L20.0703 8.15447L20.0653 7.58447Z" fill="white" stroke="black" stroke-width="0.125"/>
<path d="M21.2692 11.3349C21.2692 11.3349 21.5942 10.8599 21.7342 10.9099C21.8542 10.9499 21.7592 11.3199 21.7042 11.3549L21.2692 11.3349ZM19.0492 11.4199C18.9442 11.2799 18.7992 10.8849 18.6592 10.9949C18.5392 11.0349 18.6292 11.4049 18.6892 11.4399L19.0492 11.4199Z" fill="#5E0043" stroke="black" stroke-width="0.125"/>
<path d="M19.2594 10.4754C19.2594 10.4754 19.8944 10.8654 20.0994 10.8754C20.3094 10.8854 20.9644 10.3704 20.9644 10.3704" stroke="black" stroke-width="0.125"/>
<path d="M19.325 8.95005L19.445 8.80005L20.05 9.10005L20.67 8.82505L20.79 8.95505L20.1 9.44005L19.325 8.95005Z" fill="#5E0043" stroke="black" stroke-width="0.125"/>
<path d="M18.8413 8.9399C19.077 9.21174 19.2525 9.53038 19.3563 9.8749C19.4263 10.2699 19.3163 9.3299 19.3163 9.3299C19.3163 9.3299 19.8013 9.5699 19.8163 9.7199C19.8313 9.8699 20.0463 9.7099 20.0563 9.6849L18.6562 8.7749L18.8413 8.9399ZM21.2413 8.9149C21.2413 8.9149 20.7313 9.5849 20.7913 10.3149C20.6863 9.9649 20.7713 9.3899 20.7713 9.3899L20.6613 9.4599C20.6613 9.4599 20.5413 9.9549 20.3963 10.0299C20.3713 9.9699 20.3763 9.9499 20.3763 9.9499C20.3763 9.9499 20.2213 10.1499 20.1913 10.1699C20.1613 10.1899 20.2013 10.8549 20.2013 10.8549C20.2013 10.8549 20.2513 11.3349 20.3113 11.3299C20.2601 11.3561 20.2101 11.3845 20.1613 11.4149L20.0963 10.1349L20.2413 9.9899C20.2413 9.9899 20.4313 9.7549 20.4463 9.5299C20.3663 9.5999 20.2713 9.6199 20.2713 9.6199C20.2713 9.6199 20.2463 9.9449 20.1713 9.9899C20.0913 10.0399 20.0913 10.1199 20.0913 10.1199L20.0713 9.6949L21.2413 8.9149Z" fill="#474747" stroke="#474747" stroke-width="0.125" stroke-linejoin="round"/>
<path d="M20.0688 9.69067L20.1688 11.7157" stroke="black" stroke-width="0.125" stroke-linecap="round"/>
<path d="M18.825 10.6594C18.825 10.6594 19.06 10.7944 19.145 11.2094C19.905 11.1544 20.145 11.4194 20.145 11.4194C20.145 11.4194 20.765 11.1194 21.055 11.1794C21.155 10.9644 21.445 10.6944 21.445 10.6944" stroke="black" stroke-width="0.125"/>
<path d="M18.5091 8.67465L20.0691 9.69465L21.4791 8.74965C21.4791 8.74965 21.7691 8.58965 21.7441 8.47465C21.7191 8.35465 21.6191 8.39965 21.5691 8.42465C21.5191 8.43965 20.0941 9.44965 20.0941 9.44965L18.5841 8.48966C18.5841 8.48966 18.4741 8.45466 18.4541 8.52966C18.4341 8.59966 18.4941 8.63965 18.5091 8.67465Z" fill="#B4B6B9" stroke="black" stroke-width="0.125"/>
<path d="M21.2988 8.40959C21.2988 8.40959 20.8988 8.23959 20.8988 8.38459C20.8988 8.53459 20.9138 8.54959 20.9788 8.64459C21.0438 8.73459 20.9288 8.79459 20.9288 8.79459L20.8888 8.69459C20.8688 8.62959 20.6538 8.58459 20.6388 8.50459C20.6138 8.42959 20.6788 8.30959 20.5538 8.29459C20.4238 8.27959 20.2988 8.34459 20.2738 8.49459C20.223 8.66327 20.1578 8.82719 20.0788 8.98459L20.1038 8.20459C20.3838 8.22459 20.9038 8.28459 21.3088 8.33459C21.1888 8.31459 21.3588 8.33959 21.3488 8.38459C21.3388 8.41459 21.2988 8.41959 21.2988 8.40959ZM19.8888 8.21459C19.7118 8.22119 19.5367 8.25319 19.3688 8.30959C19.2788 8.35959 19.5188 8.44459 19.4838 8.50959C19.4538 8.58459 19.4488 8.72959 19.3338 8.69959C19.2238 8.66959 18.8438 8.47959 18.8338 8.41459C18.8188 8.35459 18.7438 8.34959 18.7438 8.34959C18.7438 8.34959 19.8338 8.19959 19.8888 8.21459Z" fill="#474747" stroke="#474747" stroke-width="0.125" stroke-linejoin="round"/>
<path d="M20.06 8.12536V9.08036M19.325 6.99536L18.875 7.72536" stroke="black" stroke-width="0.125"/>
<path d="M20.1312 6.9751C20.1312 6.9751 20.3212 7.2351 20.3012 7.3101C20.3762 7.3701 20.4662 7.6101 20.4662 7.6101" fill="url(#paint3_linear_69_11293)"/>
<path d="M20.1312 6.9751C20.1312 6.9751 20.3212 7.2351 20.3012 7.3101C20.3762 7.3701 20.4662 7.6101 20.4662 7.6101" stroke="black" stroke-width="0.125"/>
<path d="M20.8658 6.93433C20.8658 6.93433 20.4558 7.51433 20.4658 7.55933" stroke="black" stroke-width="0.125"/>
<path d="M18.7547 4.17014C18.7447 4.20014 18.6947 4.21514 18.6397 4.20014C18.5847 4.18014 18.5447 4.14014 18.5547 4.11014C18.5647 4.07514 18.6197 4.06014 18.6747 4.08014C18.7247 4.09514 18.7647 4.13514 18.7547 4.17014ZM18.9247 4.16014C18.9347 4.19014 18.9847 4.20514 19.0397 4.18514C19.0947 4.17014 19.1347 4.13014 19.1247 4.09514C19.1147 4.06514 19.0597 4.05014 19.0047 4.07014C18.9547 4.08514 18.9147 4.12514 18.9247 4.16014Z" fill="black"/>
<path d="M23.75 16.2C23.75 16.2 23.59 16.225 23.6 16.24C23.6 16.255 23.15 16.27 23.145 16.255C23.135 16.24 23.075 16.33 23.075 16.33L23.15 16.285C23.15 16.285 23.26 16.4 23.29 16.39C23.325 16.385 23.275 16.44 23.29 16.445C23.295 16.455 23.33 16.425 23.33 16.425L24.07 16.415L23.75 16.2ZM24.02 16.425L23.42 16.445C23.42 16.445 23.265 16.585 23.255 16.615C23.245 16.65 23.355 16.66 23.355 16.66L23.385 16.775L23.465 16.745C23.465 16.745 23.98 16.82 24.45 16.715C24.69 16.635 24.735 16.535 24.565 16.47C24.4 16.41 24.025 16.43 24.02 16.425Z" fill="#FF7000" stroke="black" stroke-width="0.125" stroke-linejoin="round"/>
<path d="M21.95 17.6702L23.035 17.6202L22.835 17.4502L25.785 17.3302L25.685 17.0952L22.38 17.2302L22.78 17.4152L21.88 17.4402L21.91 17.5352L21.675 17.5252C21.675 17.5252 21.94 17.6252 21.945 17.6752L21.95 17.6702Z" fill="url(#paint4_linear_69_11293)" stroke="black" stroke-width="0.125"/>
<path d="M23.17 11.6447C23.085 11.5997 22.7 11.5447 22.275 11.8247L22.295 12.8047C22.295 12.8047 22.92 12.4697 23.22 12.5447C23.205 12.2447 23.205 11.8547 23.17 11.6447Z" fill="url(#paint5_linear_69_11293)" stroke="black" stroke-width="0.125"/>
<path d="M17.1356 14.6204L14.5656 17.1704M18.2856 14.6354L16.1956 17.3854M18.1906 13.9204L15.4056 17.2954M15.3206 17.2504L15.5906 16.9304M18.7206 15.6154L17.6406 17.1054M17.5956 17.3004L17.6206 17.8704M19.2156 16.1354L18.0656 17.5754M19.0106 17.4604L19.4756 16.6954M19.1906 16.5504L18.6306 17.1804M19.0206 15.9504L18.6406 16.4154M18.5256 15.2704C18.5256 15.2704 17.3606 16.9754 17.3806 17.1204M18.4056 15.0504C18.3756 15.0654 17.4006 16.3604 17.4006 16.3604M17.3456 16.7704L17.1656 16.9854M16.9406 17.3104L16.6706 17.6654" stroke="black" stroke-width="0.125"/>
<path d="M17.0109 10.6899C17.0109 10.6899 16.9309 10.9399 17.0109 11.0649C17.0909 11.1899 17.5859 12.1899 17.5859 12.1899C17.5859 12.1899 17.9259 11.7749 18.0509 11.7649C18.1709 11.7499 18.1159 12.8449 18.1159 12.8449C18.1159 12.8449 17.9159 13.0349 17.7909 13.0249C17.6659 13.0149 18.0909 13.4549 18.0809 13.8249C18.0709 14.1999 17.5209 16.0499 17.3159 16.0799C17.1159 16.1149 17.4059 15.7449 17.3959 15.6399C17.3809 15.5399 17.3259 15.6099 17.2809 15.4949C17.2359 15.3849 17.3509 15.2149 17.3309 15.0999C17.3059 14.9899 17.2009 15.0099 17.1909 14.9299C17.1809 14.8499 17.2609 14.8299 17.2459 14.7399C17.2359 14.6499 17.1109 14.6699 17.1259 14.5899C17.1359 14.5149 17.1459 14.5499 17.1359 14.3999C17.1259 14.2549 17.1009 14.4999 16.9759 14.5149C16.8509 14.5249 16.7509 14.8099 16.7509 14.8099C16.7509 14.8099 16.5009 15.1599 16.2559 14.9999C16.4059 15.3149 16.2909 15.4499 16.2309 15.4599C16.1809 15.4749 16.2809 15.7099 16.1409 15.7199C16.0059 15.7299 16.2409 16.2499 16.0909 16.2949C16.2559 16.3749 16.1209 16.4749 16.1209 16.4749C16.1209 16.4749 15.7309 16.5099 15.8159 17.0199C14.6659 16.6099 14.1009 15.9149 14.1159 15.1999C14.1259 14.4899 14.3509 13.8499 14.9009 13.6149C15.0609 13.0249 15.3309 12.3949 15.3309 12.3949C15.3309 12.3949 15.2859 12.1349 15.3209 11.9649C15.3578 11.8402 15.4228 11.7256 15.5109 11.6299C15.5109 11.6299 15.4909 11.2199 15.5009 11.0199C15.5109 10.8199 15.5909 10.7249 15.6009 10.6149C15.6109 10.4999 15.5659 9.92494 15.6809 9.82494C15.7909 9.72494 16.0059 9.73494 16.1209 9.66494C16.2309 9.59994 16.3809 9.47494 16.5259 9.48494C16.6759 9.49494 16.7959 9.59994 16.7959 9.59994C16.7959 9.59994 17.3459 9.59994 17.3809 9.80994C17.4159 10.0249 17.2709 10.1099 17.2709 10.1099C17.2709 10.1099 17.3509 10.4099 17.0109 10.6899Z" fill="#8A9396" stroke="#2B2B2B" stroke-width="0.125"/>
<path d="M16.5202 9.91054C16.5352 9.94554 16.4952 10.0005 16.4302 10.0355C16.3602 10.0705 16.2952 10.0755 16.2802 10.0455C16.2602 10.0105 16.3002 9.95554 16.3652 9.92054C16.4352 9.88054 16.5002 9.88054 16.5152 9.91054H16.5202Z" fill="#CECFCF" stroke="#2B2B2B" stroke-width="0.125"/>
<path d="M16.4256 9.96969C16.4256 9.98969 16.4056 10.0047 16.3856 10.0047C16.3606 10.0047 16.3406 9.98969 16.3406 9.96969C16.3406 9.94469 16.3606 9.92969 16.3856 9.92969C16.4056 9.92969 16.4256 9.94469 16.4256 9.96969Z" fill="black"/>
<path d="M17.25 10.3404C17.25 10.3404 17.385 10.9504 17.225 11.3754M17.295 10.0754C17.295 10.0754 17.56 10.4254 17.525 10.8654M17.32 10.0004C17.325 10.0004 17.545 10.1854 17.535 10.3154M17.37 9.92041C17.37 9.92041 17.52 10.0204 17.55 10.1254" stroke="#2B2B2B" stroke-width="0.0625"/>
<path d="M17.2989 9.85938C17.2989 9.85938 16.7739 10.7094 16.8439 11.2444" stroke="black" stroke-width="0.125"/>
<path d="M17.3344 9.82959C17.3344 9.82959 16.6344 10.2446 16.5094 11.5996" stroke="#2B2B2B" stroke-width="0.0625"/>
<path d="M17.2612 10.0796L16.9812 10.2896" stroke="black" stroke-width="0.125"/>
<path d="M16.25 11.6746C16.25 11.6746 16.64 10.0646 17.325 9.82959" stroke="#2B2B2B" stroke-width="0.0625"/>
<path d="M17.5936 12.2206C17.5936 12.2206 17.9636 11.7556 18.0486 11.7706C18.1336 11.7906 18.1086 12.8506 18.1086 12.8506C18.1086 12.8506 17.8336 13.0556 17.7736 13.0506C17.7136 13.0406 18.0836 13.5506 18.0736 13.7356C18.0686 13.9256 18.0586 13.9256 18.0586 13.9256C18.0586 13.9256 18.0586 13.8156 17.9736 13.6356C17.8836 13.4506 17.9386 13.2456 17.3736 12.7856C17.2386 12.5056 17.6536 12.9606 17.7386 12.8906C17.8236 12.8256 17.5886 12.2306 17.5886 12.2206H17.5936Z" fill="#2B2B2B" stroke="#2B2B2B" stroke-width="0.125"/>
<path d="M16.9362 9.6001C16.9362 9.6001 16.7812 9.6401 16.7612 9.7001C16.7362 9.7701 16.6462 9.8301 16.5962 9.8101C16.5462 9.7901 16.4562 9.7101 16.4562 9.7101" stroke="#2B2B2B" stroke-width="0.125"/>
<path d="M16.0514 10.1453C16.0514 10.1453 15.8164 10.3753 15.9314 10.4053C16.0464 10.4353 16.1664 10.2203 16.1664 10.2203C16.1664 10.2203 16.1664 10.5853 16.2664 10.5253C16.3664 10.4703 16.6514 10.2653 16.6514 10.2653C16.6514 10.2653 16.7514 10.2553 16.7764 10.2653C16.7964 10.2703 17.0414 10.4853 17.2064 10.4053C17.1114 10.6453 17.0064 10.6753 17.0064 10.6753C17.0064 10.6753 16.8364 10.8953 16.6164 10.8453C16.3964 10.7953 16.3414 10.7053 16.3414 10.7053C16.3414 10.7053 16.1564 10.7153 16.1014 10.6303L16.0214 10.5003C16.0214 10.5003 15.9214 10.6003 15.8864 10.5503C15.8614 10.5003 15.8864 10.2153 16.0514 10.1453Z" fill="#2B2B2B" stroke="#2B2B2B" stroke-width="0.125" stroke-linejoin="round"/>
<path d="M17.3744 9.8202C17.3744 9.8202 16.9444 9.6902 16.7944 9.9052C16.6444 10.1152 16.6794 10.2352 16.7594 10.2552" stroke="#2B2B2B" stroke-width="0.125"/>
<path d="M17.4413 9.80558C17.4413 9.85558 17.4063 9.90058 17.3613 9.90058C17.3113 9.90058 17.2812 9.85558 17.2812 9.80558C17.2812 9.75558 17.3163 9.71558 17.3613 9.71558C17.4063 9.71558 17.4413 9.75558 17.4413 9.80558Z" fill="black"/>
<path d="M16.1848 10.9104C16.1848 10.9104 16.3598 11.1804 16.5698 11.2554C16.7798 11.3304 16.4198 11.3904 16.2148 11.2554C16.0648 11.0454 16.1048 10.8954 16.1048 10.8954C16.1048 10.8954 16.1448 10.8554 16.1848 10.9104ZM17.6898 12.5054C17.6898 12.5054 17.1948 11.8204 17.0548 11.7804C16.9098 11.7454 17.1648 11.7154 17.3148 11.8604C17.4648 12.0104 17.2748 11.6254 17.2748 11.6254L17.6898 12.5054Z" fill="#2B2B2B" stroke="#2B2B2B" stroke-width="0.125"/>
<path d="M16.135 16.4799C16.325 16.4299 17.155 16.9549 17.335 17.0849C17.525 17.2199 17.915 17.1349 17.915 17.1349C17.915 17.1349 17.735 17.2449 17.625 17.2699C17.51 17.2949 17.955 17.2949 17.955 17.2949C17.955 17.2949 16.9 17.5899 15.825 17.0249C15.725 16.5849 16.055 16.4849 16.135 16.4799Z" fill="#2B2B2B" stroke="#2B2B2B" stroke-width="0.125" stroke-linejoin="round"/>
<path d="M17.3513 12.6746C17.3513 12.6746 17.2063 12.6496 17.1363 12.5696C17.0663 12.4846 16.9663 12.2846 16.8613 12.1996C16.7563 12.1196 16.2313 11.8296 16.0413 11.8496C15.8513 11.8696 15.7913 11.8296 15.7663 11.8046C15.7463 11.7796 15.6663 11.8146 15.6813 11.9146C15.6963 12.0146 15.5313 12.2296 15.5913 12.3296C15.7006 12.5194 15.8296 12.6971 15.9763 12.8596C16.0263 12.8746 15.9963 13.0996 15.9963 13.0996C15.9963 13.0996 16.2363 13.3446 16.2963 13.3546C16.3563 13.3696 16.4213 13.4146 16.4113 13.4746C16.4063 13.5296 16.1463 13.8446 16.1463 13.8446C16.1463 13.8446 15.8713 13.9946 15.8663 14.0696C15.8663 14.1546 15.9363 14.3196 16.1563 14.3746C16.4361 14.4195 16.7221 14.4059 16.9963 14.3346C17.0263 14.2846 17.0763 13.9846 17.0563 13.9496C17.0363 13.9196 16.8913 13.8296 16.8163 13.8396C16.7413 13.8546 16.6713 13.9146 16.6813 13.9296C16.6863 13.9446 16.5763 13.9996 16.5763 13.9446C16.5763 13.8946 16.7963 13.6446 16.8163 13.6696C16.8363 13.6896 17.1463 13.7196 17.2063 13.8746C17.2613 14.0296 17.2613 14.1446 17.4263 14.1246C17.5863 14.1096 17.8163 13.9596 17.8363 13.6496C17.844 13.5458 17.8267 13.4417 17.7858 13.346C17.745 13.2503 17.6817 13.1658 17.6013 13.0996C17.5513 13.0646 17.3813 12.9646 17.3663 12.9146C17.3563 12.8646 17.3163 12.7146 17.3463 12.6746H17.3513Z" fill="#2B2B2B" stroke="#2B2B2B" stroke-width="0.125"/>
<path d="M14.4138 14.0505C14.4138 14.0505 14.9388 13.9155 15.0738 13.9205C15.2088 13.9205 15.7238 14.1605 15.8738 14.3055C16.0238 14.4555 16.3238 14.7955 16.5238 14.7655C16.7238 14.7355 16.7838 14.6955 16.7838 14.6955L16.7038 14.8455C16.7038 14.8455 16.5438 14.8905 16.4588 14.8705C16.3788 14.8505 16.2188 14.7955 16.0588 14.6405C15.9038 14.4905 15.4088 14.0655 14.9938 14.0955C14.5788 14.1255 14.3388 14.5355 14.3388 14.5355C14.3388 14.5355 14.3388 14.3355 14.3588 14.2905C14.3738 14.2505 14.2688 14.3905 14.2688 14.3905L14.4138 14.0505Z" fill="#2B2B2B" stroke="#2B2B2B" stroke-width="0.125"/>
<path d="M16.3498 14.46C16.3498 14.46 16.4798 14.495 16.6998 14.495C16.9148 14.495 17.0298 14.4 17.0298 14.4L17.0148 14.315L17.0498 14.2C17.0498 14.2 17.2148 14.365 17.2148 14.4C17.2148 14.435 17.1448 14.45 17.1448 14.45L17.1198 14.365L17.0648 14.44C17.0648 14.44 16.7498 14.69 16.5748 14.65C16.4048 14.615 16.2448 14.5 16.2898 14.475C16.3348 14.45 16.3548 14.46 16.3498 14.46ZM15.5848 14.9C15.5848 14.9 15.3948 14.9 15.3098 14.94C15.2248 14.98 15.1948 15.03 15.1348 15.025C15.0798 15.015 15.0348 14.945 15.0498 14.915C15.0748 14.865 15.1898 14.805 15.3998 14.82C15.6148 14.84 15.5848 14.9 15.5848 14.9ZM16.2498 15.415C16.2498 15.405 16.2348 15.14 16.1298 15.03C16.0932 14.9912 16.0475 14.9622 15.9968 14.9457C15.9462 14.9291 15.8922 14.9254 15.8398 14.935C15.7798 14.95 16.0498 15.07 16.0798 15.145C16.1048 15.225 16.1948 15.445 16.1698 15.495C16.1448 15.545 16.1048 15.345 15.9348 15.285C15.7698 15.225 15.5398 15.26 15.5848 15.335C15.6348 15.405 15.8198 15.335 15.9148 15.5C15.9763 15.6048 16.0314 15.7134 16.0798 15.825L16.1148 15.71L16.1948 15.69L16.2098 15.47L16.2498 15.415Z" fill="#2B2B2B" stroke="#2B2B2B" stroke-width="0.125"/>
<path d="M16.1147 16.2852L15.9397 15.9352C15.9397 15.9352 15.8897 15.7202 15.7397 15.6602C15.5897 15.5952 15.3997 15.6102 15.3997 15.6802C15.3947 15.7552 15.7097 15.8502 15.7297 15.8902C15.7497 15.9302 15.7397 16.0002 15.7147 16.0052C15.6847 16.0052 15.5447 15.9552 15.4747 15.9702C15.4047 15.9852 15.3647 16.0802 15.2597 16.0502C15.1547 16.0252 15.0647 15.6902 15.1097 15.6502C15.1447 15.6202 15.0297 15.7152 15.0047 15.6252C14.9797 15.5402 15.0397 15.2652 14.9997 15.2302C14.9597 15.1952 14.7597 15.0802 14.7597 15.0552C14.7547 15.0302 14.7697 13.7052 15.8747 14.8052C15.3997 14.2402 15.2147 14.3052 15.1247 14.3002C15.0647 14.3002 14.6297 14.3352 14.5247 14.8852C14.4147 15.4352 14.2847 15.0902 14.2847 15.0902C14.2847 15.0902 14.2647 15.3302 14.3797 15.3952C14.4947 15.4652 14.3247 15.6602 14.3247 15.6602C14.3247 15.6602 14.1147 15.1602 14.1497 14.9352C14.1047 15.1102 14.1097 15.5502 14.3697 16.0252C14.7413 16.4463 15.2074 16.7736 15.7297 16.9802C16.1297 16.3652 16.1147 16.2902 16.1147 16.2802V16.2852Z" fill="#2B2B2B" stroke="#2B2B2B" stroke-width="0.125" stroke-linejoin="round"/>
<path d="M15.3888 16.2896C15.3888 16.2896 15.6088 16.3146 15.6688 16.4296C15.7338 16.5446 15.7588 16.7196 15.7588 16.7196C15.7988 16.6446 15.8088 16.5846 15.8888 16.5296C15.9638 16.4746 16.0188 16.4646 16.0138 16.4296C16.0138 16.3846 15.7738 16.1396 15.6588 16.1246C15.5388 16.1096 15.3338 16.2546 15.3338 16.2546C15.3338 16.2546 15.2938 16.3046 15.3838 16.2896H15.3888Z" fill="#8A9396" stroke="#2B2B2B" stroke-width="0.125" stroke-linejoin="round"/>
<path d="M15.9 16.8704C15.9 16.8704 16.48 17.1354 17.43 17.1504" stroke="#8A9396" stroke-width="0.125" stroke-linecap="round"/>
<path d="M17.8344 14.1797C17.8344 14.1797 17.7844 14.6647 17.4094 15.6297" stroke="#2B2B2B" stroke-width="0.125" stroke-linecap="round"/>
<path d="M17.7594 14.4797C17.7594 14.4797 17.6444 14.8297 17.3344 15.0897" stroke="#2B2B2B" stroke-width="0.125"/>
<path d="M16.0656 20.5146L16.1656 20.4046L16.1956 20.4296L16.1906 20.4396L16.1806 20.4546V20.4646L16.1906 20.4746L16.3206 20.5896L16.3306 20.5996H16.3406L16.3456 20.5896C16.359 20.5763 16.3673 20.563 16.3706 20.5496C16.3773 20.5363 16.379 20.523 16.3756 20.5096C16.3756 20.493 16.369 20.4763 16.3556 20.4596L16.3956 20.4396L16.4556 20.5396L16.2956 20.7196L16.2656 20.6946L16.2756 20.6796L16.2806 20.6696V20.6596L16.2706 20.6496L16.1406 20.5346L16.1256 20.5246H16.1206L16.1056 20.5346L16.0956 20.5446L16.0656 20.5146ZM16.2856 20.2696L16.4706 20.0896L16.5606 20.1346L16.5456 20.1696L16.4956 20.1596L16.4656 20.1696C16.4556 20.173 16.4456 20.1813 16.4356 20.1946L16.4006 20.2246L16.4506 20.2796L16.4656 20.2696C16.4756 20.263 16.4806 20.2563 16.4806 20.2496V20.2396L16.4706 20.2246L16.4606 20.2146L16.4906 20.1846L16.5806 20.2796L16.5506 20.3046L16.5406 20.2996L16.5256 20.2846H16.5156L16.4956 20.2996L16.4856 20.3096L16.5356 20.3596L16.5456 20.3696H16.5506L16.5606 20.3596L16.5806 20.3446L16.6106 20.3046C16.6173 20.2913 16.619 20.2746 16.6156 20.2546C16.6156 20.2413 16.6106 20.2263 16.6006 20.2096L16.6406 20.1896L16.6906 20.3046L16.5006 20.4896L16.4706 20.4596H16.4806L16.4906 20.4396V20.4296L16.4806 20.4146L16.3606 20.2946L16.3456 20.2846H16.3356L16.3256 20.2896L16.3156 20.2996L16.2856 20.2696ZM16.6706 19.8996C16.7106 19.8663 16.7506 19.8513 16.7906 19.8546C16.834 19.858 16.8706 19.878 16.9006 19.9146C16.9206 19.938 16.934 19.963 16.9406 19.9896C16.9473 20.0196 16.9456 20.0463 16.9356 20.0696C16.9256 20.0963 16.9073 20.1213 16.8806 20.1446C16.8473 20.1746 16.8106 20.1896 16.7706 20.1896C16.724 20.1896 16.684 20.1696 16.6506 20.1296C16.6173 20.0963 16.604 20.058 16.6106 20.0146C16.614 19.9713 16.634 19.933 16.6706 19.8996ZM16.7056 19.9346C16.689 19.9513 16.6806 19.9713 16.6806 19.9946C16.6806 20.0213 16.6923 20.048 16.7156 20.0746C16.739 20.1013 16.764 20.118 16.7906 20.1246C16.8106 20.1246 16.829 20.118 16.8456 20.1046C16.8656 20.0913 16.8756 20.0746 16.8756 20.0546C16.8756 20.0246 16.8623 19.9963 16.8356 19.9696C16.8223 19.953 16.8056 19.9396 16.7856 19.9296C16.7723 19.923 16.7573 19.9196 16.7406 19.9196C16.7273 19.9196 16.7156 19.9246 16.7056 19.9346ZM17.0106 19.6246L17.0356 19.6096L17.0406 19.6146L17.1856 19.5146V19.5046L17.2056 19.4896L17.3006 19.5546L17.2756 19.5896L17.2406 19.5746C17.2273 19.568 17.214 19.5663 17.2006 19.5696L17.1806 19.5746L17.1756 19.5796V19.5896L17.2806 19.7396L17.2906 19.7546H17.3056L17.3306 19.7396L17.3506 19.7746L17.2306 19.8646L17.2056 19.8296L17.2106 19.8246L17.2256 19.8096V19.7996L17.2206 19.7846L17.1156 19.6346L17.1056 19.6246L17.1006 19.6296C17.094 19.633 17.089 19.6396 17.0856 19.6496C17.079 19.6596 17.0756 19.6713 17.0756 19.6846L17.0806 19.7246L17.0406 19.7346L17.0106 19.6246ZM17.2906 19.4496L17.5106 19.3096L17.5956 19.3746L17.5656 19.4096L17.5256 19.3896H17.4906C17.4806 19.3896 17.469 19.3946 17.4556 19.4046L17.4156 19.4296L17.4556 19.4946L17.4656 19.4846L17.4856 19.4746V19.4596L17.4806 19.4396L17.4756 19.4296L17.5106 19.4096L17.5756 19.5246L17.5406 19.5446L17.5356 19.5296L17.5206 19.5146H17.5106L17.4906 19.5246L17.4756 19.5296L17.5156 19.5946L17.5206 19.6046H17.5256L17.5406 19.5996L17.5606 19.5846L17.6006 19.5546L17.6156 19.5096V19.4596L17.6556 19.4496L17.6806 19.5696L17.4506 19.7096L17.4306 19.6746L17.4356 19.6696L17.4506 19.6546C17.454 19.6546 17.454 19.6513 17.4506 19.6446V19.6296L17.3606 19.4846L17.3456 19.4696H17.3406L17.3256 19.4746L17.3156 19.4796L17.2906 19.4446V19.4496ZM17.6006 19.2596L17.7756 19.1696L17.8106 19.1546C17.824 19.148 17.839 19.1463 17.8556 19.1496C17.869 19.1496 17.8806 19.153 17.8906 19.1596L17.9156 19.1896C17.929 19.213 17.9306 19.2346 17.9206 19.2546C17.914 19.2746 17.9006 19.2913 17.8806 19.3046L17.9706 19.3446H17.9756L17.9906 19.3496H18.0056L18.0156 19.3446L18.0306 19.3396L18.0456 19.3746L17.9606 19.4246L17.8106 19.3496L17.7856 19.3596L17.8156 19.4146L17.8256 19.4346H17.8506L17.8606 19.4246L17.8806 19.4646L17.7456 19.5346L17.7256 19.4946L17.7406 19.4896L17.7506 19.4796L17.7556 19.4696L17.7506 19.4546L17.6706 19.2996L17.6606 19.2896C17.6606 19.2863 17.6573 19.2863 17.6506 19.2896H17.6356L17.6256 19.2946L17.6056 19.2596H17.6006ZM17.7306 19.2496L17.7656 19.3196L17.8056 19.2996C17.8223 19.293 17.834 19.2846 17.8406 19.2746L17.8506 19.2546V19.2296L17.8306 19.2146H17.8106L17.7756 19.2246L17.7256 19.2496H17.7306ZM17.9506 19.0796L18.1306 18.9996L18.1656 18.9896H18.2106C18.224 18.9896 18.2356 18.993 18.2456 18.9996L18.2706 19.0346C18.2806 19.0546 18.2806 19.0746 18.2706 19.0946C18.2606 19.1146 18.2456 19.1313 18.2256 19.1446L18.3156 19.1896L18.3356 19.1946H18.3606L18.3706 19.1846L18.3906 19.2246L18.3006 19.2646L18.1506 19.1846L18.1306 19.1946L18.1556 19.2496L18.1656 19.2696H18.1856L18.2006 19.2646L18.2156 19.2996L18.0806 19.3646L18.0606 19.3246L18.0756 19.3196L18.0856 19.3096L18.0906 19.2996L18.0856 19.2846L18.0156 19.1246C18.0156 19.118 18.0123 19.113 18.0056 19.1096H17.9806L17.9706 19.1196L17.9556 19.0796H17.9506ZM18.0806 19.0796L18.1106 19.1546L18.1556 19.1346L18.1906 19.1146C18.1973 19.108 18.2006 19.0996 18.2006 19.0896V19.0696L18.1856 19.0496H18.1606L18.1256 19.0596L18.0756 19.0796H18.0806ZM18.4206 18.8846L18.4856 18.8596L18.6556 19.0546L18.6756 19.0696H18.7006L18.7106 19.1096L18.5756 19.1596L18.5606 19.1196L18.5706 19.1146C18.5773 19.1146 18.5823 19.1113 18.5856 19.1046V19.0946L18.5756 19.0846L18.5556 19.0596L18.4706 19.0896V19.1396L18.4856 19.1446L18.5056 19.1396L18.5206 19.1796L18.4056 19.2196L18.3906 19.1796C18.3973 19.1796 18.4023 19.1763 18.4056 19.1696L18.4106 19.1646V19.1446L18.4206 18.8846ZM18.4706 19.0446L18.5256 19.0246L18.4706 18.9546V19.0446ZM18.6606 18.7996L18.7956 18.7596L18.9006 18.9246V18.7246L19.0406 18.6896L19.0506 18.7296L19.0356 18.7346C19.029 18.7346 19.024 18.738 19.0206 18.7446V18.7646L19.0706 18.9346L19.0756 18.9446L19.0856 18.9496H19.1156L19.1256 18.9846L18.9806 19.0296L18.9706 18.9846H18.9806C18.9906 18.9846 18.9956 18.9813 18.9956 18.9746L19.0006 18.9696V18.9546L18.9506 18.7696L18.9456 19.0396L18.9056 19.0496L18.7656 18.8296L18.8156 19.0146L18.8206 19.0196L18.8306 19.0246H18.8456L18.8606 19.0196L18.8706 19.0596L18.7506 19.0946L18.7356 19.0546H18.7506L18.7656 19.0446V19.0196L18.7156 18.8546V18.8396L18.7056 18.8346H18.6756L18.6606 18.7996ZM19.2806 18.6346L19.4406 18.6046H19.4906C19.5073 18.6046 19.5206 18.608 19.5306 18.6146C19.544 18.6213 19.554 18.6296 19.5606 18.6396L19.5756 18.6746C19.579 18.7013 19.5723 18.7246 19.5556 18.7446C19.539 18.768 19.514 18.783 19.4806 18.7896L19.4306 18.7996L19.4406 18.8546V18.8696H19.4806L19.4856 18.9096L19.3356 18.9396V18.8996H19.3406L19.3606 18.8896V18.8646L19.3306 18.6996V18.6796L19.3206 18.6746H19.2906L19.2806 18.6346ZM19.4006 18.6646L19.4206 18.7496H19.4456L19.4806 18.7346L19.4956 18.7146V18.6896C19.4956 18.6763 19.489 18.6663 19.4756 18.6596C19.4656 18.6563 19.4523 18.6563 19.4356 18.6596H19.4006V18.6646ZM19.6106 18.5746L19.8006 18.5496H19.8406L19.8806 18.5596C19.894 18.5663 19.904 18.5746 19.9106 18.5846C19.9206 18.5946 19.9256 18.6063 19.9256 18.6196C19.929 18.643 19.924 18.663 19.9106 18.6796C19.894 18.6963 19.8756 18.7096 19.8556 18.7196L19.9256 18.7846L19.9406 18.7946L19.9506 18.7996H19.9806V18.8396L19.8856 18.8546L19.7706 18.7346H19.7456L19.7556 18.7946V18.8146L19.7656 18.8246H19.7956V18.8646L19.6456 18.8846V18.8396H19.6556L19.6706 18.8346L19.6806 18.8246V18.8096L19.6556 18.6346V18.6196H19.6156L19.6106 18.5746ZM19.7306 18.6096L19.7406 18.6896H19.7906L19.8256 18.6746L19.8456 18.6596V18.6346L19.8406 18.6146L19.8206 18.6046H19.7806L19.7306 18.6096ZM20.1706 18.5146C20.2173 18.5113 20.2573 18.523 20.2906 18.5496C20.324 18.5796 20.3406 18.618 20.3406 18.6646C20.3406 18.698 20.3356 18.7263 20.3256 18.7496C20.3123 18.773 20.2956 18.793 20.2756 18.8096C20.249 18.823 20.219 18.8313 20.1856 18.8346C20.139 18.8346 20.1006 18.8246 20.0706 18.8046C20.034 18.7746 20.014 18.7346 20.0106 18.6846C20.0106 18.638 20.024 18.598 20.0506 18.5646C20.0806 18.5313 20.1206 18.5146 20.1706 18.5146ZM20.1706 18.5646C20.1473 18.5646 20.1306 18.5746 20.1206 18.5946C20.1006 18.6146 20.0923 18.643 20.0956 18.6796C20.0956 18.713 20.1056 18.7396 20.1256 18.7596C20.139 18.7763 20.1573 18.7846 20.1806 18.7846C20.204 18.7846 20.2223 18.7746 20.2356 18.7546C20.2523 18.7346 20.259 18.7063 20.2556 18.6696C20.2556 18.6463 20.2506 18.6263 20.2406 18.6096C20.234 18.593 20.224 18.5813 20.2106 18.5746C20.1973 18.5646 20.184 18.5613 20.1706 18.5646ZM20.4006 18.5096H20.5706L20.6206 18.5146L20.6556 18.5346L20.6756 18.5646L20.6856 18.6046C20.6856 18.6313 20.6756 18.653 20.6556 18.6696C20.6356 18.6863 20.6073 18.6946 20.5706 18.6946H20.5206V18.7696L20.5406 18.7746H20.5556V18.8196H20.4056V18.7746H20.4306L20.4356 18.7696V18.7496L20.4406 18.5796V18.5596L20.4356 18.5546H20.4056V18.5046L20.4006 18.5096ZM20.5156 18.5596V18.6496H20.5456L20.5806 18.6446L20.5956 18.6296C20.6023 18.623 20.6056 18.6146 20.6056 18.6046C20.6056 18.588 20.6006 18.5763 20.5906 18.5696C20.5806 18.563 20.5673 18.5596 20.5506 18.5596H20.5156ZM20.7406 18.5096L20.9306 18.5246L20.9706 18.5296L21.0106 18.5496C21.0206 18.5563 21.029 18.5663 21.0356 18.5796L21.0406 18.6196C21.0406 18.643 21.0306 18.6596 21.0106 18.6696C20.994 18.6863 20.974 18.6963 20.9506 18.6996L21.0106 18.7746V18.7796L21.0206 18.7946H21.0306L21.0456 18.7996H21.0606V18.8446L20.9606 18.8396L20.8656 18.6996H20.8406V18.7796H20.8706V18.8296L20.7206 18.8146V18.7746H20.7506L20.7606 18.7646V18.7496L20.7706 18.5746V18.5596L20.7556 18.5496H20.7356V18.5046L20.7406 18.5096ZM20.8506 18.5696L20.8456 18.6496H20.8906C20.9073 18.653 20.9206 18.653 20.9306 18.6496C20.9406 18.6496 20.9473 18.6463 20.9506 18.6396C20.9573 18.633 20.9606 18.6246 20.9606 18.6146V18.5946L20.9406 18.5796L20.9006 18.5746H20.8506V18.5696ZM21.1206 18.5396L21.2706 18.5596V18.6046H21.2556C21.2456 18.6013 21.239 18.6013 21.2356 18.6046L21.2256 18.6246L21.2056 18.7946V18.8146H21.2106L21.2256 18.8246H21.2406L21.2356 18.8696L21.0856 18.8496L21.0906 18.8046H21.1006C21.1106 18.808 21.1173 18.808 21.1206 18.8046H21.1256L21.1306 18.7896L21.1506 18.6146V18.5896H21.1306L21.1156 18.5846L21.1206 18.5396ZM21.4456 18.5846L21.5156 18.5996L21.5656 18.8496C21.5656 18.863 21.569 18.8713 21.5756 18.8746L21.5956 18.8846L21.5856 18.9246L21.4406 18.8996L21.4506 18.8596H21.4756L21.4806 18.8546V18.8046L21.3806 18.7896L21.3656 18.8196V18.8296C21.3623 18.833 21.3623 18.8363 21.3656 18.8396H21.3706L21.3906 18.8496L21.3856 18.8896L21.2656 18.8696L21.2706 18.8296H21.2906L21.3006 18.8246L21.3106 18.8096L21.4456 18.5846ZM21.4056 18.7496L21.4706 18.7596L21.4556 18.6696L21.4056 18.7496ZM21.7006 18.6296L21.8356 18.6646L21.8456 18.8646L21.9456 18.6946L22.0806 18.7296L22.0706 18.7696H22.0556C22.049 18.763 22.044 18.763 22.0406 18.7696C22.034 18.7696 22.0306 18.7746 22.0306 18.7846L21.9856 18.9546V18.9746L22.0006 18.9796L22.0156 18.9846L22.0056 19.0296L21.8606 18.9896L21.8706 18.9496H21.8856L21.9006 18.9546H21.9106V18.9346L21.9606 18.7496L21.8256 18.9846L21.7856 18.9696L21.7706 18.7146L21.7256 18.8946V18.9046L21.7306 18.9146H21.7456L21.7606 18.9196L21.7506 18.9646L21.6256 18.9346L21.6356 18.8896H21.6506L21.6656 18.8946H21.6706L21.6806 18.8746L21.7206 18.7046V18.6846L21.7056 18.6796L21.6906 18.6746L21.7006 18.6296ZM22.3256 18.8046L22.4756 18.8596L22.5256 18.8846L22.5506 18.9146L22.5606 18.9496L22.5556 18.9896C22.5456 19.013 22.529 19.0296 22.5056 19.0396C22.479 19.0496 22.449 19.0496 22.4156 19.0396L22.3656 19.0196L22.3456 19.0696V19.0946L22.3606 19.1046H22.3756L22.3606 19.1496L22.2156 19.0996L22.2306 19.0546H22.2406L22.2606 19.0646H22.2656L22.2756 19.0446L22.3356 18.8846V18.8596L22.3206 18.8496H22.3106L22.3256 18.8046ZM22.4106 18.8896L22.3806 18.9746L22.4056 18.9846L22.4406 18.9896L22.4656 18.9846L22.4806 18.9596C22.484 18.9463 22.4823 18.9346 22.4756 18.9246C22.469 18.9146 22.459 18.908 22.4456 18.9046L22.4106 18.8896ZM22.6406 18.9196L22.8156 18.9996L22.8506 19.0196C22.864 19.0263 22.874 19.0363 22.8806 19.0496L22.8956 19.0846L22.8856 19.1246C22.8756 19.148 22.8606 19.163 22.8406 19.1696H22.7756L22.8006 19.2646L22.8106 19.2796L22.8156 19.2896L22.8306 19.2996H22.8406L22.8256 19.3446L22.7356 19.3046L22.6956 19.1396L22.6706 19.1296L22.6456 19.1846V19.2146L22.6556 19.2196L22.6706 19.2296L22.6506 19.2646L22.5156 19.2046L22.5306 19.1646L22.5456 19.1696L22.5606 19.1746H22.5706L22.5756 19.1596L22.6456 18.9996L22.6506 18.9846V18.9746L22.6406 18.9696H22.6306L22.6206 18.9646L22.6406 18.9196ZM22.7256 19.0146L22.6906 19.0896L22.7356 19.1046C22.749 19.1146 22.7606 19.1196 22.7706 19.1196L22.7956 19.1146C22.8023 19.1113 22.8073 19.1046 22.8106 19.0946C22.814 19.088 22.814 19.0813 22.8106 19.0746L22.8056 19.0546L22.7706 19.0346L22.7206 19.0146H22.7256ZM23.1506 19.1596C23.194 19.183 23.2223 19.2146 23.2356 19.2546C23.249 19.2946 23.244 19.3363 23.2206 19.3796C23.2073 19.4063 23.189 19.4263 23.1656 19.4396C23.1423 19.4563 23.1156 19.4646 23.0856 19.4646C23.059 19.4646 23.0306 19.4563 23.0006 19.4396C22.9606 19.4196 22.9323 19.3913 22.9156 19.3546C22.899 19.3113 22.904 19.268 22.9306 19.2246C22.9506 19.1813 22.9823 19.153 23.0256 19.1396C23.0656 19.1296 23.1073 19.1363 23.1506 19.1596ZM23.1306 19.2046C23.1106 19.1913 23.089 19.1896 23.0656 19.1996C23.0423 19.2096 23.0223 19.2313 23.0056 19.2646C22.989 19.2946 22.9823 19.323 22.9856 19.3496C22.989 19.3696 23.0023 19.3863 23.0256 19.3996C23.0456 19.4096 23.0656 19.4096 23.0856 19.3996C23.109 19.3896 23.129 19.3696 23.1456 19.3396C23.159 19.3163 23.1656 19.2963 23.1656 19.2796C23.1656 19.2596 23.1623 19.243 23.1556 19.2296L23.1306 19.2046ZM23.3806 19.2796L23.4056 19.2946V19.3046L23.5556 19.3996L23.5606 19.3946L23.5856 19.4096L23.5606 19.5196L23.5206 19.5096V19.4696C23.5206 19.4563 23.5173 19.4446 23.5106 19.4346L23.4956 19.4146H23.4856L23.4806 19.4246L23.3856 19.5746L23.3756 19.5946V19.5996L23.3806 19.6046L23.4006 19.6196L23.3806 19.6546L23.2506 19.5746L23.2756 19.5396L23.2806 19.5446L23.3006 19.5546H23.3056L23.3206 19.5346L23.4206 19.3846V19.3696H23.4156C23.409 19.363 23.399 19.3596 23.3856 19.3596L23.3556 19.3646L23.3206 19.3846L23.2906 19.3546L23.3806 19.2796ZM23.6606 19.4696L23.8706 19.6196L23.8406 19.7196L23.8006 19.7096V19.6596L23.7906 19.6296C23.784 19.6196 23.774 19.6113 23.7606 19.6046L23.7256 19.5746L23.6756 19.6396L23.6906 19.6496L23.7106 19.6596H23.7256L23.7356 19.6396L23.7456 19.6296L23.7756 19.6546L23.7006 19.7596L23.6706 19.7396L23.6756 19.7296L23.6856 19.7096V19.6996L23.6656 19.6796L23.6506 19.6746L23.6106 19.7296L23.6056 19.7446L23.6156 19.7596L23.6356 19.7746L23.6856 19.7946C23.699 19.798 23.7123 19.798 23.7256 19.7946C23.7423 19.7913 23.759 19.783 23.7756 19.7696L23.7956 19.8046L23.6956 19.8746L23.4806 19.7246L23.5056 19.6846L23.5106 19.6896L23.5306 19.6996H23.5406L23.5506 19.6846L23.6506 19.5446L23.6606 19.5296V19.5246L23.6456 19.5096L23.6356 19.5046L23.6606 19.4696ZM24.0056 19.9096L24.1206 20.0096L24.0956 20.0396L24.0856 20.0346L24.0756 20.0246H24.0656L24.0506 20.0396L23.9906 20.1146L23.9556 20.0846L23.9606 20.0596L23.9106 20.0496L23.8756 20.0246C23.8523 20.0046 23.8356 19.983 23.8256 19.9596C23.819 19.933 23.819 19.9063 23.8256 19.8796C23.8256 19.853 23.8356 19.8263 23.8556 19.7996C23.8756 19.7763 23.899 19.7596 23.9256 19.7496C23.9523 19.7396 23.979 19.738 24.0056 19.7446C24.0323 19.748 24.0573 19.758 24.0806 19.7746L24.1056 19.8046L24.1256 19.8396L24.1406 19.8346L24.1656 19.8546L24.1206 19.9546L24.0806 19.9346V19.8796L24.0756 19.8446L24.0556 19.8196L24.0156 19.8046L23.9706 19.8146C23.9573 19.8213 23.9423 19.8346 23.9256 19.8546L23.8956 19.9046V19.9596C23.899 19.973 23.9073 19.9846 23.9206 19.9946L23.9456 20.0096H23.9706L23.9906 19.9996L23.9956 19.9896L24.0056 19.9746V19.9696L23.9906 19.9546L23.9806 19.9446L24.0056 19.9096ZM24.3406 20.0096L24.3906 20.0596L24.2956 20.2996C24.289 20.3096 24.2873 20.318 24.2906 20.3246L24.3006 20.3396L24.2706 20.3746L24.1706 20.2746L24.1956 20.2396L24.2006 20.2496L24.2156 20.2546H24.2256L24.2356 20.2396L24.2456 20.2146L24.1756 20.1496L24.1456 20.1646L24.1356 20.1696V20.1846L24.1506 20.1996L24.1206 20.2296L24.0356 20.1496L24.0656 20.1196L24.0756 20.1296H24.0856L24.1056 20.1246L24.3406 20.0096ZM24.2206 20.1246L24.2656 20.1696L24.3006 20.0846L24.2206 20.1246ZM24.5456 20.1946L24.5656 20.2146L24.5606 20.2246L24.6806 20.3496H24.6906L24.7106 20.3646L24.6606 20.4646L24.6206 20.4496L24.6306 20.4096V20.3746C24.6306 20.3646 24.6273 20.3563 24.6206 20.3496H24.6106L24.6006 20.3546L24.4756 20.4796L24.4606 20.4946V20.5046L24.4756 20.5246L24.4456 20.5546L24.3456 20.4446L24.3756 20.4146V20.4246L24.3956 20.4346H24.4056L24.4206 20.4246L24.5506 20.2996L24.5556 20.2896V20.2846L24.5306 20.2696H24.4956L24.4556 20.2796L24.4406 20.2396L24.5406 20.1896L24.5456 20.1946Z" fill="black"/>
<path d="M-4 0H12V12H-4V0Z" fill="#012169"/>
<path d="M-2.125 0L3.975 4.525L10.05 0H12V1.55L6 6.025L12 10.475V12H10L4 7.525L-1.975 12H-4V10.5L1.975 6.05L-4 1.6V0H-2.125Z" fill="white"/>
<path d="M6.6 7.025L12 11V12L5.225 7.025H6.6ZM2 7.525L2.15 8.4L-2.65 12H-4L2 7.525ZM12 0V0.075L5.775 4.775L5.825 3.675L10.75 0H12ZM-4 0L1.975 4.4H0.475L-4 1.05V0Z" fill="#C8102E"/>
<path d="M2.025 0V12H6.025V0H2.025ZM-4 4V8H12V4H-4Z" fill="white"/>
<path d="M-4 4.825V7.225H12V4.825H-4ZM2.825 0V12H5.225V0H2.825Z" fill="#C8102E"/>
</g>
</g>
</g>
<defs>
<linearGradient id="paint0_linear_69_11293" x1="21.8377" y1="7.47007" x2="21.8553" y2="6.32223" gradientUnits="userSpaceOnUse">
<stop stop-color="#474747"/>
<stop offset="1" stop-color="#FF5500"/>
</linearGradient>
<linearGradient id="paint1_linear_69_11293" x1="21.4468" y1="11.7793" x2="21.4488" y2="12.4278" gradientUnits="userSpaceOnUse">
<stop stop-color="#B50000"/>
<stop offset="1" stop-color="#FFC500"/>
</linearGradient>
<linearGradient id="paint2_linear_69_11293" x1="24.2952" y1="12.1744" x2="25.3544" y2="12.1605" gradientUnits="userSpaceOnUse">
<stop stop-color="#D5DFFF"/>
<stop offset="1" stop-color="white"/>
</linearGradient>
<linearGradient id="paint3_linear_69_11293" x1="21.6372" y1="7.25262" x2="22.0186" y2="7.25262" gradientUnits="userSpaceOnUse">
<stop stop-color="#474747"/>
<stop offset="1" stop-color="#FF5500"/>
</linearGradient>
<linearGradient id="paint4_linear_69_11293" x1="27.1547" y1="17.5015" x2="26.9691" y2="16.3478" gradientUnits="userSpaceOnUse">
<stop stop-color="#D5DFFF"/>
<stop offset="1" stop-color="white"/>
</linearGradient>
<linearGradient id="paint5_linear_69_11293" x1="24.551" y1="12.5699" x2="24.0776" y2="11.8065" gradientUnits="userSpaceOnUse">
<stop stop-color="#D5DFFF"/>
<stop offset="1" stop-color="white"/>
</linearGradient>
<clipPath id="clip0_69_11293">
<rect width="24" height="24" rx="12" fill="white"/>
</clipPath>
<clipPath id="clip1_69_11293">
<rect width="32" height="24" fill="white" transform="translate(-4)"/>
</clipPath>
</defs>
</svg>
