<svg width="24" height="24" viewBox="0 0 24 24" fill="none" xmlns="http://www.w3.org/2000/svg">
<g clip-path="url(#clip0_69_6526)">
<g clip-path="url(#clip1_69_6526)">
<mask id="mask0_69_6526" style="mask-type:luminance" maskUnits="userSpaceOnUse" x="-4" y="0" width="32" height="24">
<path d="M28 0H-4V24H28V0Z" fill="white"/>
</mask>
<g mask="url(#mask0_69_6526)">
<path d="M-4 0H28V24H-4V0Z" fill="#4997D0"/>
<path d="M6.66563 0H17.3356V24H6.66563V0Z" fill="white"/>
<path d="M10.8715 15.1979C10.981 15.1814 11.0418 15.1483 11.1148 15.1235M11.2082 14.9541C11.262 15.0091 11.3036 15.0754 11.3299 15.1483M11.0013 14.9376C11.0528 14.9866 11.0942 15.0456 11.123 15.1111M9.11493 9.4668C9.07437 9.53292 8.99325 9.57836 8.92021 9.60728M8.90805 9.59904C8.90805 9.5412 8.89993 9.47508 8.90805 9.41724M8.83097 9.62384C8.83097 9.64036 8.84721 9.68168 8.85533 9.70648M8.94049 9.7478L8.85937 9.7602M8.69709 9.723C8.69709 9.83044 8.70929 9.9544 8.71737 10.0494M8.64437 10.0081C8.66465 10.0412 8.68493 10.0701 8.70929 10.0866M8.52269 10.3552C8.54297 10.3924 8.56325 10.4378 8.57541 10.5205M8.72549 10.3263L8.64437 10.3882M8.71333 10.57C8.67277 10.6072 8.62409 10.632 8.57133 10.6568M8.41721 12.3262C8.45841 12.401 8.51353 12.467 8.57945 12.5204M8.60381 12.5906C8.56093 12.5852 8.51957 12.5712 8.48209 12.5493M8.66061 12.9005L8.72957 12.9418M8.71333 13.0823C8.76201 13.1154 8.81473 13.1774 8.86341 13.2434M8.80665 13.3592C8.86341 13.3716 8.90805 13.3881 8.93645 13.4005M8.89589 13.5038H8.97701M9.02977 13.2848L9.00945 13.4583M9.05005 13.5244L9.06625 13.4583M9.25693 13.7062L9.25285 13.8385M10.8431 14.9913L10.7944 15.0574M10.697 14.8963L10.6686 14.8219" stroke="#24420E" stroke-width="0.0409415"/>
<path d="M12.2494 15.5075C12.2158 15.4583 12.1694 15.4197 12.1155 15.3959C11.8032 15.2306 11.4908 15.1521 11.1419 15.0943C11.0567 15.0819 10.9756 15.0034 10.8904 14.9621C10.6876 14.867 10.4645 14.8298 10.2698 14.7265C10.2576 14.7224 10.2089 14.6935 10.1886 14.6645C10.1075 14.5737 9.96552 14.5447 9.88032 14.4579C9.53956 14.1357 9.18256 13.8381 8.99596 13.4043C8.7688 12.8795 8.48888 12.3382 8.5254 11.7432C8.54972 11.3631 8.497 10.9829 8.58624 10.6276C8.72416 10.0904 8.89456 9.56566 9.21096 9.12354L9.15824 9.15658C8.8578 9.6113 8.64576 10.1205 8.53352 10.6565C8.4402 11.016 8.49292 11.4003 8.47264 11.7721C8.43208 12.3713 8.71604 12.9126 8.93916 13.4373C9.12576 13.8671 9.4868 14.1687 9.82352 14.4951C9.91276 14.5778 10.0507 14.6067 10.1318 14.7017C10.1562 14.7258 10.1835 14.7466 10.213 14.7637C10.4117 14.8629 10.6348 14.9001 10.8377 14.9993C10.9188 15.0406 11 15.1149 11.0811 15.1315C11.4222 15.1746 11.754 15.2751 12.0628 15.429C12.1165 15.4531 12.1628 15.4917 12.1966 15.5405L12.2494 15.5033" fill="#406325"/>
<path d="M12.2494 15.5075C12.2158 15.4583 12.1694 15.4197 12.1155 15.3959C11.8032 15.2306 11.4908 15.1521 11.1419 15.0943C11.0567 15.0819 10.9756 15.0034 10.8904 14.9621C10.6876 14.867 10.4645 14.8298 10.2698 14.7265C10.2576 14.7224 10.2089 14.6935 10.1886 14.6645C10.1075 14.5737 9.96552 14.5447 9.88032 14.4579C9.53956 14.1357 9.18256 13.8381 8.99596 13.4043C8.7688 12.8795 8.48888 12.3382 8.5254 11.7432C8.54972 11.3631 8.497 10.9829 8.58624 10.6276C8.72416 10.0904 8.89456 9.56566 9.21096 9.12354L9.15824 9.15658C8.8578 9.6113 8.64576 10.1205 8.53352 10.6565C8.4402 11.016 8.49292 11.4003 8.47264 11.7721C8.43208 12.3713 8.71604 12.9126 8.93916 13.4373C9.12576 13.8671 9.4868 14.1687 9.82352 14.4951C9.91276 14.5778 10.0507 14.6067 10.1318 14.7017C10.1562 14.7258 10.1835 14.7466 10.213 14.7637C10.4117 14.8629 10.6348 14.9001 10.8377 14.9993C10.9188 15.0406 11 15.1149 11.0811 15.1315C11.4222 15.1746 11.754 15.2751 12.0628 15.429C12.1165 15.4531 12.1628 15.4917 12.1966 15.5405L12.2494 15.5033" stroke="#24420E" stroke-width="0.0204708"/>
<path d="M9.01325 13.3006C8.92969 12.9829 8.92688 12.6487 9.00512 12.3296C9.27692 12.8667 9.18769 13.3089 9.01325 13.3006ZM10.8752 15.1766C10.5445 15.2538 10.2386 15.4159 9.98684 15.6476C10.5994 15.6517 10.9604 15.346 10.8752 15.1766ZM11.1795 14.9989C10.9024 14.6886 10.707 14.3119 10.6116 13.9039C11.2201 14.3543 11.3783 14.9079 11.1795 14.9989Z" fill="#67923D" stroke="#24420E" stroke-width="0.0204708"/>
<path d="M10.9726 15.0038C10.6806 14.7516 10.4571 14.4272 10.3236 14.0618C10.9442 14.4006 11.1471 14.8964 10.9726 15.0038ZM10.3398 14.7229C10.3804 14.4006 10.1126 13.7229 10.0356 13.6486C9.91384 14.3303 10.1572 14.789 10.3398 14.7229ZM9.23232 13.7188C9.1668 13.4325 9.1738 13.1339 9.2526 12.8511C9.47572 13.3345 9.38648 13.727 9.23232 13.7188ZM8.67656 10.5454C8.89864 10.2527 9.19244 10.0247 9.52844 9.88428C9.2526 10.4876 8.79828 10.7066 8.67656 10.5454Z" fill="#67923D" stroke="#24420E" stroke-width="0.0204708"/>
<path d="M8.70455 10.3139C8.86547 9.98075 9.10872 9.69599 9.4104 9.48755C9.26032 10.1363 8.85463 10.4461 8.70455 10.3139ZM9.83635 14.4129C9.64891 14.0805 9.54703 13.7053 9.54019 13.322C9.99455 13.8385 10.027 14.3674 9.83227 14.4129H9.83635ZM8.67207 12.9047C8.38811 12.9501 7.80395 12.7146 7.73907 12.6444C8.33131 12.5121 8.72887 12.727 8.67207 12.9047ZM8.58283 12.5039C8.61527 12.2766 8.93172 11.851 9.00068 11.818C8.96012 12.3138 8.70047 12.5865 8.58283 12.5039ZM10.6639 14.9252C10.2688 15.0149 9.90367 15.2087 9.60511 15.4872C10.3353 15.4913 10.7694 15.1277 10.6639 14.9252Z" fill="#67923D" stroke="#24420E" stroke-width="0.0204708"/>
<path d="M9.01632 13.2976C9.18668 13.3058 9.27592 12.8678 9.00412 12.3307C9.05536 12.6506 9.05944 12.9765 9.01632 13.2976ZM9.47065 14.124C9.22049 13.8962 8.91756 13.737 8.59036 13.6612C8.9514 14.1612 9.39765 14.2851 9.47065 14.124ZM8.48084 11.934C8.36572 11.5573 8.15924 11.2162 7.88044 10.9424C7.94128 11.653 8.31044 12.0456 8.48084 11.934ZM8.8216 13.3513C8.61876 13.1984 8.05084 13.1282 7.96968 13.153C8.38348 13.5 8.78912 13.5042 8.8216 13.3513ZM8.44028 12.3266C8.26504 12.0783 8.02852 11.8816 7.75468 11.7564C7.9778 12.2687 8.34696 12.4588 8.44028 12.3224V12.3266ZM8.55384 10.3597C8.58632 10.0457 8.32668 9.39284 8.25364 9.31848C8.136 9.9796 8.37128 10.4217 8.5498 10.3597H8.55384ZM8.73236 9.74408C8.84188 9.47548 8.7648 8.81848 8.71204 8.73584C8.45244 9.29368 8.55792 9.75232 8.73236 9.74408Z" fill="#406325" stroke="#24420E" stroke-width="0.0204708"/>
<path d="M8.93568 9.42563C9.04744 9.17451 9.09623 8.89907 9.07767 8.62399C8.78559 9.02483 8.79372 9.40495 8.93568 9.42563ZM9.17908 9.17355C9.35916 8.96967 9.48488 8.72211 9.5442 8.45459C9.15072 8.74383 9.04928 9.10747 9.17908 9.17355ZM8.52596 10.9586C8.53004 10.9958 8.4854 10.6198 8.12032 10.2024C8.13652 10.814 8.37184 11.0454 8.52596 10.9586ZM9.84844 14.5038C9.5258 14.3323 9.16568 14.247 8.80184 14.2559C9.31296 14.6857 9.81192 14.6939 9.84844 14.5038ZM10.3393 14.7228C10.1527 14.7848 9.91336 14.3303 10.031 13.6485C10.0836 14.0191 10.186 14.3806 10.3352 14.7228H10.3393ZM10.8788 15.1774C10.96 15.3468 10.603 15.6526 9.99447 15.6484C10.4813 15.4418 10.8545 15.2393 10.8788 15.1815V15.1774ZM11.175 14.9956C11.3738 14.9005 11.2196 14.3551 10.607 13.9047C10.9559 14.4501 11.1952 14.9212 11.175 14.9956Z" fill="#406325" stroke="#24420E" stroke-width="0.0204708"/>
<path d="M10.9726 15.0004C11.143 14.8889 10.9442 14.4013 10.3236 14.0625C10.709 14.5252 10.9808 14.9302 10.9726 15.0004ZM9.23636 13.7195C9.38648 13.7278 9.47976 13.3352 9.25668 12.8518C9.28504 13.3063 9.27288 13.6782 9.23636 13.7195ZM8.67656 10.5503C8.79828 10.7073 9.24448 10.4924 9.5244 9.88916C9.27488 10.1504 8.98928 10.3731 8.67656 10.5503Z" fill="#406325" stroke="#24420E" stroke-width="0.0204708"/>
<path d="M8.71264 10.3139C8.85868 10.4461 9.26032 10.1363 9.4104 9.48755C9.08588 9.95443 8.77756 10.3057 8.71264 10.3139ZM9.83635 14.4087C10.027 14.3633 9.99859 13.8385 9.54019 13.322C9.74303 13.8798 9.86475 14.3467 9.83635 14.4087ZM8.66395 12.9047C8.72075 12.727 8.32727 12.5163 7.73907 12.6444C8.23803 12.7353 8.63151 12.851 8.66395 12.9047ZM8.58691 12.508C8.70455 12.5824 8.95603 12.3138 9.00471 11.818C8.89863 12.0672 8.75791 12.2996 8.58691 12.508ZM10.6639 14.9294C10.7653 15.136 10.3394 15.4955 9.60915 15.4913C10.1852 15.2475 10.6355 15.0037 10.6639 14.9294Z" fill="#406325" stroke="#24420E" stroke-width="0.0204708"/>
<path d="M8.7334 13.0826C8.56352 12.8072 8.32572 12.5822 8.04376 12.4297C8.2466 12.9916 8.6198 13.2189 8.7334 13.0826Z" fill="#406325" stroke="#24420E" stroke-width="0.0204708"/>
<path d="M8.44836 10.9222C8.61064 10.728 9.15828 10.542 9.24348 10.5503C8.91896 10.9842 8.51328 11.0709 8.44836 10.9222ZM9.4666 14.1245C9.39356 14.2898 8.9514 14.1658 8.58632 13.6658C8.8564 13.8613 9.15292 14.0158 9.4666 14.1245ZM8.47676 11.9345C8.3064 12.0461 7.94536 11.6535 7.88044 10.9428C8.1482 11.4924 8.4078 11.9138 8.47676 11.9345ZM8.81752 13.3518C8.78912 13.5047 8.38348 13.5005 7.97376 13.1576C8.24432 13.2635 8.52852 13.3289 8.81752 13.3518ZM8.43216 12.3229C8.33884 12.4551 7.9778 12.2692 7.75468 11.7568C8.08732 12.0874 8.38348 12.3229 8.4362 12.3229H8.43216ZM8.54572 10.3561C8.36724 10.4222 8.136 9.98419 8.2496 9.32307C8.35912 9.88091 8.493 10.323 8.54572 10.3561ZM8.72828 9.74039C8.55384 9.75279 8.44836 9.29415 8.708 8.73631C8.67556 9.26523 8.68772 9.69907 8.72828 9.74039ZM8.93112 9.42639C8.7932 9.40159 8.78105 9.02555 9.07717 8.62475C8.98945 8.88303 8.9402 9.15323 8.93112 9.42639ZM9.17452 9.17431C9.04876 9.10407 9.14612 8.74459 9.5396 8.45947C9.38392 8.67811 9.26092 8.91899 9.17452 9.17431Z" fill="#67923D" stroke="#24420E" stroke-width="0.0204708"/>
<path d="M8.52588 10.9593C8.36764 11.046 8.13644 10.8147 8.1202 10.2031C8.32304 10.6866 8.46908 10.9386 8.52588 10.9593ZM9.84428 14.5045C9.80776 14.6946 9.31284 14.6864 8.80172 14.2608C9.3372 14.4384 9.78748 14.5376 9.84428 14.5045ZM9.51164 14.112C9.35848 13.8746 9.26644 13.6018 9.24388 13.3186C9.609 13.6781 9.65768 14.0666 9.51972 14.112H9.51164ZM8.83012 13.079C8.68408 12.8394 8.66784 12.2154 8.7084 12.1286C9.04512 12.6204 9.00456 13.0666 8.83012 13.079ZM8.7206 13.0831C8.61104 13.2195 8.23784 12.9964 8.03908 12.4303C8.23292 12.6814 8.46264 12.9014 8.7206 13.0831Z" fill="#67923D" stroke="#24420E" stroke-width="0.0204708"/>
<path d="M8.45 10.921C8.51492 11.0697 8.91244 10.9829 9.24104 10.5532C8.75424 10.8342 8.5636 10.9582 8.45 10.921ZM8.82728 13.0696C9.00172 13.0572 9.04228 12.6151 8.70556 12.1275C8.79536 12.4343 8.83648 12.7537 8.82728 13.0737V13.0696ZM9.51688 14.1109C9.65484 14.0695 9.60616 13.677 9.24512 13.3175C9.4236 13.7183 9.5372 14.0613 9.51688 14.1109Z" fill="#406325" stroke="#24420E" stroke-width="0.0204708"/>
<path d="M8.52253 11.6562C8.60369 11.3091 8.45357 10.7223 8.34809 10.5984C8.15745 11.2347 8.34001 11.6975 8.52253 11.6562Z" fill="#406325" stroke="#24420E" stroke-width="0.0204708"/>
<path d="M8.51353 11.7401C8.27013 11.7938 8.16061 11.2443 8.34721 10.6204C8.38777 11.1782 8.46077 11.6988 8.50945 11.736L8.51353 11.7401Z" fill="#67923D" stroke="#24420E" stroke-width="0.0204708"/>
<path d="M8.46092 11.7362C8.49656 11.3701 8.62212 11.0191 8.82604 10.7156C8.90716 11.3684 8.64348 11.8023 8.46092 11.7362Z" fill="#67923D" stroke="#24420E" stroke-width="0.0204708"/>
<path d="M8.46564 11.732C8.64816 11.7981 8.9078 11.3684 8.82668 10.7156C8.68468 11.2651 8.5224 11.699 8.46564 11.732Z" fill="#406325" stroke="#24420E" stroke-width="0.0204708"/>
<path d="M8.5172 12.1324C8.57336 11.7731 8.72172 11.4352 8.9472 11.1531C8.97964 11.8225 8.69164 12.2233 8.5172 12.1324Z" fill="#67923D" stroke="#24420E" stroke-width="0.0204708"/>
<path d="M8.52188 12.1365C8.69224 12.2274 8.98028 11.8308 8.94784 11.1655C8.76932 11.6944 8.58272 12.1117 8.52188 12.1365Z" fill="#406325" stroke="#24420E" stroke-width="0.0204708"/>
<path d="M8.62743 10.0284C8.65207 10.0284 8.67203 10.008 8.67203 9.98294C8.67203 9.95782 8.65207 9.9375 8.62743 9.9375C8.60279 9.9375 8.58279 9.95782 8.58279 9.98294C8.58279 10.008 8.60279 10.0284 8.62743 10.0284Z" fill="#BA1F3E" stroke="#511124" stroke-width="0.0204708"/>
<path d="M8.96809 9.77207C8.99273 9.77207 9.01269 9.75171 9.01269 9.72663C9.01269 9.70151 8.99273 9.68115 8.96809 9.68115C8.94341 9.68115 8.92345 9.70151 8.92345 9.72663C8.92345 9.75171 8.94341 9.77207 8.96809 9.77207Z" fill="#BA1F3E" stroke="#511124" stroke-width="0.0204708"/>
<path d="M8.82121 9.63141C8.84585 9.63141 8.86581 9.61105 8.86581 9.58597C8.86581 9.56085 8.84585 9.54053 8.82121 9.54053C8.79657 9.54053 8.77657 9.56085 8.77657 9.58597C8.77657 9.61105 8.79657 9.63141 8.82121 9.63141Z" fill="#BA1F3E" stroke="#511124" stroke-width="0.0204708"/>
<path d="M8.45271 12.5903C8.48187 12.5903 8.50547 12.5663 8.50547 12.5366C8.50547 12.507 8.48187 12.4829 8.45271 12.4829C8.42359 12.4829 8.39999 12.507 8.39999 12.5366C8.39999 12.5663 8.42359 12.5903 8.45271 12.5903Z" fill="#BA1F3E" stroke="#511124" stroke-width="0.0204708"/>
<path d="M8.55428 11.9292C8.58344 11.9292 8.60704 11.9051 8.60704 11.8755C8.60704 11.8458 8.58344 11.8218 8.55428 11.8218C8.52516 11.8218 8.50156 11.8458 8.50156 11.8755C8.50156 11.9051 8.52516 11.9292 8.55428 11.9292Z" fill="#BA1F3E" stroke="#511124" stroke-width="0.0204708"/>
<path d="M9.09024 13.4746C9.11936 13.4746 9.14296 13.4505 9.14296 13.4209C9.14296 13.3912 9.11936 13.3672 9.09024 13.3672C9.06112 13.3672 9.03752 13.3912 9.03752 13.4209C9.03752 13.4505 9.06112 13.4746 9.09024 13.4746Z" fill="#BA1F3E" stroke="#511124" stroke-width="0.0204708"/>
<path d="M8.85428 13.5528C8.88344 13.5528 8.90704 13.5287 8.90704 13.499C8.90704 13.4694 8.88344 13.4453 8.85428 13.4453C8.82516 13.4453 8.80156 13.4694 8.80156 13.499C8.80156 13.5287 8.82516 13.5528 8.85428 13.5528Z" fill="#BA1F3E" stroke="#511124" stroke-width="0.0204708"/>
<path d="M10.6512 14.8418C10.6803 14.8418 10.7039 14.8178 10.7039 14.7881C10.7039 14.7585 10.6803 14.7344 10.6512 14.7344C10.622 14.7344 10.5984 14.7585 10.5984 14.7881C10.5984 14.8178 10.622 14.8418 10.6512 14.8418Z" fill="#BA1F3E" stroke="#511124" stroke-width="0.0204708"/>
<path d="M10.7684 15.1355C10.7975 15.1355 10.8211 15.1115 10.8211 15.0818C10.8211 15.0521 10.7975 15.0281 10.7684 15.0281C10.7392 15.0281 10.7156 15.0521 10.7156 15.0818C10.7156 15.1115 10.7392 15.1355 10.7684 15.1355Z" fill="#BA1F3E" stroke="#511124" stroke-width="0.0204708"/>
<path d="M15.2914 10.3011C15.3198 10.3259 15.3401 10.3342 15.3848 10.3796M15.117 9.59869C15.117 9.54081 15.0927 9.44581 15.0805 9.39209M15.2225 9.51605C15.2225 9.59453 15.2103 9.66893 15.1779 9.73917M15.0075 9.71849C15.0805 9.78461 15.1495 9.84245 15.2225 9.87965M15.3766 9.92925C15.3807 10.0119 15.3726 10.0945 15.3482 10.1772M15.3645 10.2391L15.4172 10.1441M15.3401 10.6482C15.3969 10.6606 15.4537 10.7309 15.4821 10.7928M15.5024 10.7391L15.5673 10.6482M15.6363 11.9209C15.6079 11.9705 15.5753 12.0175 15.5389 12.0613M15.3766 12.0613C15.4091 12.1192 15.4416 12.1853 15.4821 12.2266M15.5835 12.4704C15.536 12.5391 15.4735 12.5957 15.401 12.6357M15.4091 12.8217C15.3645 12.8547 15.3077 12.9456 15.259 13.0159M15.5998 12.1812L15.5146 12.2184M15.4578 11.9126L15.5064 11.9539M15.1292 13.4993H15.048M14.9629 13.4249L14.9872 13.491M14.6789 13.7018C14.6667 13.7803 14.6748 13.8546 14.683 13.9331M14.8574 13.5613L14.898 13.6522M15.0562 13.648L14.9548 13.6605M13.7053 14.7058L13.6647 14.7802M14.1475 14.6149C14.0866 14.6232 14.0339 14.6149 13.9812 14.6066M13.758 14.8546C13.7175 14.8339 13.6769 14.8257 13.6363 14.8133M13.04 14.9248C13.0035 14.9537 12.9589 15.024 12.9183 15.0901M12.894 14.9042C12.7966 14.9579 12.7642 15.057 12.7155 15.1438M12.8291 15.2595C12.7642 15.243 12.6911 15.2099 12.6141 15.1769M13.2915 15.148C13.1982 15.0984 13.1009 15.1066 13.0035 15.0901M13.4416 15.0736C13.2915 15.0447 13.1576 15.0488 13.0238 15.0695M13.3402 14.962L13.2834 14.9372M13.0562 15.1645L12.9629 15.1108M15.3117 13.0778C15.263 13.1109 15.2103 13.1728 15.1616 13.239M15.2346 9.94989L15.1454 9.91685" stroke="#24420E" stroke-width="0.0409415"/>
<path d="M11.775 15.5026C11.8074 15.4489 11.8602 15.4199 11.9089 15.391C12.2212 15.2257 12.5336 15.1514 12.8825 15.0935C12.9676 15.077 13.0488 14.9985 13.134 14.9613C13.3368 14.8621 13.5599 14.8249 13.7546 14.7258C13.7668 14.7175 13.8155 14.6886 13.8358 14.6597C13.9169 14.5687 14.0589 14.5398 14.1441 14.4531C14.4848 14.1308 14.8418 13.8333 15.0284 13.3994C15.2556 12.8746 15.5355 12.3333 15.499 11.7383C15.4747 11.3582 15.5274 10.9781 15.4382 10.6227C15.3256 10.0855 15.1136 9.57501 14.8134 9.11865L14.8662 9.15169C15.167 9.60765 15.3792 10.1183 15.4909 10.6557C15.5842 11.0111 15.5314 11.3954 15.5518 11.7714C15.5923 12.3664 15.3084 12.9077 15.0852 13.4366C14.8986 13.8663 14.5376 14.1638 14.2009 14.4903C14.1116 14.5729 13.9737 14.6018 13.8926 14.6969C13.8682 14.7209 13.8409 14.7417 13.8114 14.7588C13.6127 14.858 13.3896 14.8993 13.1867 14.9943C13.1056 15.0357 13.0244 15.1101 12.9433 15.1266C12.6022 15.1697 12.2704 15.2702 11.9616 15.4241C11.9079 15.4483 11.8616 15.4868 11.8277 15.5357L11.775 15.5026Z" fill="#406325" stroke="#24420E" stroke-width="0.0204708"/>
<path d="M14.9869 13.425C15.1005 13.1192 14.9869 12.4002 14.9301 12.3093C14.6583 12.9457 14.7922 13.4498 14.9869 13.425Z" fill="#406325" stroke="#24420E" stroke-width="0.0204708"/>
<path d="M14.6992 13.7134C14.7925 13.482 14.7276 12.9159 14.683 12.8457C14.4599 13.3291 14.5491 13.7258 14.6992 13.7134ZM15.3848 10.6516C15.1801 10.3842 14.9102 10.1762 14.6018 10.0483C14.8534 10.5979 15.2712 10.8004 15.3848 10.6516Z" fill="#406325" stroke="#24420E" stroke-width="0.0204708"/>
<path d="M15.3195 10.3214C15.1854 10.0434 14.9826 9.80563 14.7312 9.63135C14.857 10.1685 15.1937 10.4288 15.3195 10.3214ZM15.5101 10.9371C15.3682 10.7718 14.8935 10.6106 14.8205 10.6189C15.1045 10.9908 15.4533 11.0693 15.5101 10.9371ZM15.3966 12.8543C15.6868 12.8522 15.9712 12.7709 16.22 12.6188C15.6967 12.5031 15.3479 12.6973 15.3966 12.8543ZM15.3884 12.6188C15.3884 12.3874 15.1328 11.9246 15.0639 11.875C15.0436 12.3709 15.2627 12.6808 15.3884 12.6188Z" fill="#406325" stroke="#24420E" stroke-width="0.0204708"/>
<path d="M15.4094 12.0533C15.3525 11.6954 15.2042 11.3591 14.9794 11.0781C14.947 11.7475 15.235 12.1442 15.4094 12.0533ZM13.2594 15.1647C13.515 15.3943 13.8257 15.5511 14.16 15.6192C13.803 15.111 13.3446 14.9953 13.2634 15.1647H13.2594Z" fill="#406325" stroke="#24420E" stroke-width="0.0204708"/>
<path d="M14.9879 13.4169C14.7891 13.4417 14.6593 12.9458 14.9311 12.3095C14.9108 12.8962 14.9392 13.3714 14.9879 13.4169ZM12.8216 15.2184C13.1522 15.2985 13.4576 15.4619 13.71 15.6936C13.0975 15.6977 12.7364 15.3919 12.8176 15.2225L12.8216 15.2184ZM12.8216 14.892C12.9028 14.5614 13.4301 14.016 13.5315 13.9788C13.3855 14.6854 12.9758 15.0325 12.8216 14.892ZM13.6857 14.7226C13.696 14.344 13.8006 13.9743 13.9899 13.6483C14.1116 14.3259 13.8682 14.7845 13.6857 14.7226ZM14.5579 14.1193C14.8069 13.8921 15.1084 13.7329 15.4341 13.6565C15.0731 14.1565 14.6309 14.2805 14.5538 14.1193H14.5579ZM15.6004 11.9169C15.641 11.6566 15.9939 11.1773 16.071 11.136C16.0223 11.6979 15.7343 12.0037 15.6004 11.9211V11.9169Z" fill="#67923D" stroke="#24420E" stroke-width="0.0204708"/>
<path d="M15.1266 13.4916C15.4326 13.3325 15.773 13.2544 16.1164 13.2643C15.6377 13.6652 15.1631 13.6693 15.1266 13.4916ZM15.5444 12.4792C15.7282 12.2201 15.9759 12.0148 16.2624 11.8842C16.0271 12.4214 15.6418 12.6198 15.5444 12.4792ZM15.4836 10.5951C15.4836 10.281 15.8081 9.65713 15.8892 9.59513C15.9338 10.2604 15.658 10.6777 15.4836 10.5951ZM15.2036 9.52489C15.1343 9.25413 15.1329 8.96993 15.1996 8.69849C15.4227 9.14889 15.3497 9.52489 15.1996 9.52489H15.2036Z" fill="#67923D" stroke="#24420E" stroke-width="0.0204708"/>
<path d="M15.029 9.43342C14.816 9.1695 14.671 8.85566 14.6071 8.52026C15.0858 8.90454 15.1913 9.36318 15.029 9.43342ZM15.5036 10.859C15.4914 10.8961 15.6253 10.5408 16.0797 10.2268C15.9174 10.8177 15.6334 10.9829 15.5036 10.859ZM14.1203 14.5736C14.4864 14.3825 14.8936 14.2873 15.3048 14.2968C14.7288 14.7844 14.1609 14.7926 14.1203 14.5736ZM14.7004 13.7142C14.5503 13.7225 14.457 13.3299 14.6801 12.8465C14.6517 13.301 14.6639 13.6729 14.7004 13.7142ZM15.386 10.6524C15.2764 10.8011 14.8586 10.6028 14.6071 10.0491C14.8348 10.2897 15.0975 10.4932 15.386 10.6524ZM15.317 10.3218C15.1913 10.4292 14.8586 10.1731 14.7329 9.63178C15.0047 10.0202 15.2602 10.3135 15.317 10.3218ZM15.5118 10.9416C15.455 11.0697 15.1101 10.9953 14.8262 10.6235C15.248 10.8672 15.4144 10.9705 15.5158 10.9416H15.5118ZM15.4063 12.8506C15.3535 12.6936 15.7024 12.5076 16.2257 12.6233C15.9428 12.6562 15.6665 12.7328 15.4063 12.8506ZM15.39 12.6192C15.2602 12.6812 15.0452 12.3754 15.0655 11.8796C15.138 12.1421 15.2474 12.3926 15.39 12.6233V12.6192Z" fill="#67923D" stroke="#24420E" stroke-width="0.0204708"/>
<path d="M15.405 12.0616C15.2306 12.1525 14.9466 11.7558 14.9791 11.0906C15.1576 11.6195 15.3442 12.0368 15.405 12.0616ZM13.2672 15.1647C13.3483 14.9912 13.7986 15.1069 14.1596 15.611C13.7134 15.3341 13.328 15.1441 13.2672 15.1647Z" fill="#67923D" stroke="#24420E" stroke-width="0.0204708"/>
<path d="M13.6859 14.714C13.8726 14.7801 14.1119 14.3256 13.9942 13.6438C13.8806 14.2223 13.7427 14.6809 13.6859 14.7181V14.714Z" fill="#406325" stroke="#24420E" stroke-width="0.0204708"/>
<path d="M14.1037 14.4993C14.2573 14.1493 14.3215 13.7656 14.2903 13.3836C13.8847 13.9456 13.909 14.4703 14.1037 14.4993ZM12.8178 15.2223C12.7366 15.3918 13.0896 15.6975 13.7021 15.6893C13.2153 15.4909 12.8421 15.2843 12.8178 15.2223ZM12.8259 14.8877C12.98 15.0281 13.3857 14.6852 13.5318 13.9786C13.2032 14.491 12.8948 14.8794 12.8259 14.8877ZM14.5581 14.1191C14.6311 14.2844 15.0733 14.1604 15.4384 13.6605C15.1683 13.8559 14.8718 14.0104 14.5581 14.1191ZM15.6047 11.9167C15.7386 12.0035 16.0225 11.6978 16.0712 11.1399C15.9542 11.4209 15.797 11.6827 15.6047 11.9167ZM15.126 13.4911C15.1666 13.6729 15.6331 13.6646 16.1158 13.2638C15.6088 13.4291 15.1828 13.52 15.13 13.4911H15.126ZM15.5479 12.4746C15.6493 12.6151 16.0306 12.4167 16.2659 11.8796C16.0578 12.1141 15.8156 12.3147 15.5479 12.4746ZM15.4911 10.5904C15.6615 10.673 15.9373 10.2598 15.8886 9.5987C15.7264 10.1359 15.5479 10.5615 15.487 10.5904H15.4911ZM15.2071 9.52018C15.3491 9.52434 15.4262 9.1483 15.199 8.69378C15.2396 9.12766 15.2396 9.48302 15.2071 9.52018ZM15.0327 9.4293C15.195 9.35906 15.0895 8.90454 14.6108 8.52026C14.7952 8.8001 14.9374 9.10654 15.0327 9.4293ZM15.5033 10.8631C15.6331 10.9871 15.917 10.8218 16.0793 10.2268C15.7629 10.6441 15.5641 10.8548 15.5033 10.8631ZM14.124 14.5778C14.1646 14.7926 14.7284 14.7844 15.3004 14.3009C14.696 14.4993 14.1889 14.6149 14.124 14.5778Z" fill="#406325" stroke="#24420E" stroke-width="0.0204708"/>
<path d="M14.3996 14.2598C14.5163 13.9999 14.5666 13.7142 14.5457 13.4293C14.2414 13.8425 14.2536 14.235 14.3996 14.2557V14.2598ZM15.1948 13.0739C15.3408 12.8384 15.357 12.2103 15.3164 12.1235C14.9798 12.6153 15.0203 13.0615 15.1948 13.0739Z" fill="#406325" stroke="#24420E" stroke-width="0.0204708"/>
<path d="M14.1037 14.4943C13.909 14.4695 13.8887 13.9447 14.2862 13.3869C14.1402 13.9571 14.0672 14.4365 14.1037 14.4943ZM15.5316 11.6721C15.4911 11.3499 15.6939 10.8416 15.7994 10.7425C15.9049 11.3375 15.6899 11.7341 15.5316 11.6721ZM14.3998 14.2547C14.2538 14.234 14.2416 13.8415 14.5459 13.4283C14.4565 13.6946 14.4072 13.9733 14.3998 14.2547ZM15.3491 9.9491C15.2598 9.70118 15.3491 9.1227 15.3978 9.04834C15.6128 9.55246 15.5032 9.9615 15.3491 9.9491ZM12.9922 14.9117C13.0936 14.5811 13.6494 14.0439 13.7548 14.0026C13.5804 14.7257 13.1464 15.0604 12.9922 14.9117ZM15.2071 13.1927C15.3759 12.918 15.6122 12.6929 15.8927 12.5399C15.6899 13.1018 15.3166 13.3291 15.2031 13.1927H15.2071ZM15.199 13.0688C15.0246 13.0523 14.984 12.6143 15.3207 12.1225C15.2309 12.4293 15.1898 12.7488 15.199 13.0688Z" fill="#67923D" stroke="#24420E" stroke-width="0.0204708"/>
<path d="M15.5312 11.7468C15.7422 11.8254 15.8964 11.3419 15.799 10.7593C15.7515 11.1001 15.6615 11.4334 15.5312 11.751V11.7468Z" fill="#406325" stroke="#24420E" stroke-width="0.0204708"/>
<path d="M15.5632 11.73C15.5834 11.4201 15.2792 10.7797 15.1981 10.7094C15.117 11.3623 15.3806 11.7961 15.5632 11.73ZM15.3482 9.94498C15.5064 9.9615 15.6118 9.55658 15.3968 9.04834C15.4131 9.5235 15.3887 9.90778 15.3482 9.94498ZM12.9953 14.9075C13.1495 15.0604 13.5795 14.7257 13.7539 14.0067C13.3969 14.515 13.0643 14.8993 12.9953 14.9075ZM15.2102 13.1927C15.3238 13.3291 15.697 13.106 15.8999 12.5399C15.7036 12.7916 15.4711 13.0117 15.2102 13.1927Z" fill="#406325" stroke="#24420E" stroke-width="0.0204708"/>
<path d="M15.5591 11.7264C15.3766 11.7967 15.117 11.367 15.1981 10.7141C15.3401 11.2595 15.5024 11.6934 15.5591 11.7264Z" fill="#67923D" stroke="#24420E" stroke-width="0.0204708"/>
<path d="M15.4337 10.1769C15.4583 10.1769 15.4783 10.1565 15.4783 10.1314C15.4783 10.1063 15.4583 10.0859 15.4337 10.0859C15.409 10.0859 15.3891 10.1063 15.3891 10.1314C15.3891 10.1565 15.409 10.1769 15.4337 10.1769Z" fill="#BA1F3E" stroke="#511124" stroke-width="0.0204708"/>
<path d="M15.5868 10.669C15.6114 10.669 15.6314 10.6487 15.6314 10.6236C15.6314 10.5985 15.6114 10.5781 15.5868 10.5781C15.5622 10.5781 15.5422 10.5985 15.5422 10.6236C15.5422 10.6487 15.5622 10.669 15.5868 10.669Z" fill="#BA1F3E" stroke="#511124" stroke-width="0.0204708"/>
<path d="M15.6449 12.2261C15.674 12.2261 15.6976 12.202 15.6976 12.1724C15.6976 12.1427 15.674 12.1187 15.6449 12.1187C15.6158 12.1187 15.5922 12.1427 15.5922 12.1724C15.5922 12.202 15.6158 12.2261 15.6449 12.2261Z" fill="#BA1F3E" stroke="#511124" stroke-width="0.0204708"/>
<path d="M15.434 11.937C15.4631 11.937 15.4867 11.913 15.4867 11.8833C15.4867 11.8536 15.4631 11.8296 15.434 11.8296C15.4049 11.8296 15.3812 11.8536 15.3812 11.8833C15.3812 11.913 15.4049 11.937 15.434 11.937Z" fill="#BA1F3E" stroke="#511124" stroke-width="0.0204708"/>
<path d="M14.8371 13.5855C14.8662 13.5855 14.8898 13.5614 14.8898 13.5317C14.8898 13.5021 14.8662 13.478 14.8371 13.478C14.808 13.478 14.7844 13.5021 14.7844 13.5317C14.7844 13.5614 14.808 13.5855 14.8371 13.5855Z" fill="#BA1F3E" stroke="#511124" stroke-width="0.0204708"/>
<path d="M15.0934 13.698C15.1225 13.698 15.1461 13.6739 15.1461 13.6443C15.1461 13.6146 15.1225 13.5906 15.0934 13.5906C15.0642 13.5906 15.0406 13.6146 15.0406 13.6443C15.0406 13.6739 15.0642 13.698 15.0934 13.698Z" fill="#BA1F3E" stroke="#511124" stroke-width="0.0204708"/>
<path d="M13.373 15.0357C13.4022 15.0357 13.4258 15.0116 13.4258 14.9819C13.4258 14.9523 13.4022 14.9282 13.373 14.9282C13.3439 14.9282 13.3203 14.9523 13.3203 14.9819C13.3203 15.0116 13.3439 15.0357 13.373 15.0357Z" fill="#BA1F3E" stroke="#511124" stroke-width="0.0204708"/>
<path d="M13.0887 15.2434C13.1178 15.2434 13.1414 15.2194 13.1414 15.1897C13.1414 15.1601 13.1178 15.136 13.0887 15.136C13.0596 15.136 13.0359 15.1601 13.0359 15.1897C13.0359 15.2194 13.0596 15.2434 13.0887 15.2434Z" fill="#BA1F3E" stroke="#511124" stroke-width="0.0204708"/>
<path d="M15.129 9.94566C15.1536 9.94566 15.1736 9.9253 15.1736 9.90018C15.1736 9.8751 15.1536 9.85474 15.129 9.85474C15.1044 9.85474 15.0844 9.8751 15.0844 9.90018C15.0844 9.9253 15.1044 9.94566 15.129 9.94566Z" fill="#BA1F3E" stroke="#511124" stroke-width="0.0204708"/>
<path d="M10.1495 13.4955C10.1414 13.5368 10.1819 13.5905 10.2306 13.5781C10.2509 13.5781 10.259 13.5574 10.2387 13.5574C10.2225 13.5657 10.2022 13.5574 10.19 13.545C10.1803 13.534 10.1737 13.5206 10.1708 13.506C10.168 13.4915 10.169 13.4764 10.1738 13.4624L10.1495 13.4955Z" fill="#8C959D" stroke="#485654" stroke-width="0.0102354"/>
<path d="M10.266 13.5775C10.2254 13.627 10.1646 13.6477 10.128 13.6146C10.1037 13.5899 10.0956 13.5651 10.1078 13.532L10.0672 13.5857C10.0672 13.5857 10.0915 13.6394 10.1321 13.6601C10.1848 13.6808 10.2538 13.6477 10.2944 13.594C10.3268 13.5527 10.3593 13.4948 10.3349 13.4452C10.3164 13.4132 10.2878 13.3884 10.2538 13.375L10.2132 13.4163C10.2335 13.408 10.2619 13.4163 10.2822 13.4328C10.3349 13.4742 10.3065 13.5362 10.266 13.5775Z" fill="#8C959D"/>
<path d="M10.2669 13.5784C10.2547 13.5949 10.2396 13.6089 10.2223 13.6197C10.202 13.628 10.1817 13.6363 10.1614 13.6321C10.1507 13.632 10.1405 13.6275 10.133 13.6197C10.1282 13.6172 10.1239 13.6137 10.1204 13.6095C10.1169 13.6052 10.1143 13.6003 10.1128 13.5949C10.1046 13.5867 10.1046 13.5784 10.1006 13.566C10.1006 13.5536 10.1006 13.5454 10.1087 13.533L10.1128 13.5371L10.0681 13.5908V13.5867L10.1087 13.6404L10.1371 13.6569L10.1695 13.6611C10.1926 13.6606 10.2152 13.6534 10.2344 13.6404C10.2547 13.6321 10.275 13.6156 10.2872 13.5991L10.3278 13.5412C10.3358 13.5206 10.344 13.4999 10.3399 13.4751C10.3399 13.4627 10.3399 13.4545 10.3318 13.4421C10.3132 13.4126 10.2864 13.3896 10.2547 13.3759H10.2588L10.2182 13.4214H10.2142C10.2223 13.4131 10.2344 13.4131 10.2426 13.4131L10.275 13.4214C10.2912 13.4338 10.3075 13.4503 10.3115 13.471C10.3156 13.4917 10.3115 13.5123 10.3034 13.5288C10.2953 13.5495 10.2831 13.566 10.2669 13.5784ZM10.2669 13.5784C10.2831 13.566 10.2912 13.5495 10.2994 13.5288C10.3075 13.5123 10.3115 13.4875 10.3075 13.471C10.3034 13.4503 10.2872 13.4379 10.271 13.4297C10.2547 13.4173 10.2304 13.4131 10.2182 13.4214H10.2142L10.2547 13.3718C10.2884 13.3858 10.3169 13.4104 10.3358 13.4421C10.344 13.4503 10.348 13.4627 10.348 13.4751C10.348 13.4999 10.344 13.5247 10.3318 13.5453C10.3237 13.566 10.3115 13.5867 10.2912 13.6032C10.2791 13.6239 10.2588 13.6363 10.2385 13.6487C10.2182 13.6611 10.1979 13.6693 10.1695 13.6693C10.1576 13.6698 10.1458 13.6679 10.1346 13.6636C10.1235 13.6593 10.1133 13.6529 10.1046 13.6445C10.0879 13.6278 10.0742 13.6082 10.0641 13.5867L10.1046 13.533H10.1128L10.1087 13.566C10.1087 13.5743 10.1087 13.5867 10.1168 13.5949L10.1371 13.6156C10.1411 13.6239 10.1533 13.628 10.1614 13.628C10.1817 13.6321 10.202 13.628 10.2223 13.6197L10.2669 13.5784Z" fill="#485654"/>
<path d="M13.4305 9.90109L11.8038 11.5333L10.1365 13.153L9.94993 13.3761C9.86881 13.4711 9.77145 13.5951 9.65785 13.7067C9.63757 13.7356 9.61325 13.7232 9.58889 13.7397C9.51589 13.7811 9.43881 13.8554 9.38605 13.9174L8.88709 14.4752C8.85869 14.5124 8.84653 14.5331 8.87089 14.5579L9.13861 14.9215C9.18729 14.9711 9.24409 14.9959 9.26841 14.9545C9.39417 14.7273 9.71465 14.3843 9.83637 14.1157C9.90533 13.9505 9.99457 13.6571 10.0595 13.5869C10.1406 13.4959 10.3475 13.2645 10.5382 13.0621L10.5787 13.0208C10.5868 13.0042 10.599 12.9919 10.6152 12.9795C11.5685 11.9878 12.672 10.7853 13.4752 9.93829L13.4346 9.89697L13.4305 9.90109Z" fill="#6C301E" stroke="#351710" stroke-width="0.0204708" stroke-linejoin="round"/>
<path d="M10.052 13.1562C10.0033 13.1562 9.97088 13.1273 9.93436 13.0984C9.98304 13.1149 10.0317 13.1314 10.0764 13.1108L10.052 13.1562Z" fill="#8C959D" stroke="#485654" stroke-width="0.0102354"/>
<path d="M15.1262 8.69385L13.8362 9.77641C13.824 9.79297 13.8119 9.78881 13.7997 9.77641L13.6821 9.67725V9.65245L13.7388 9.59461C13.747 9.58637 13.7388 9.58221 13.7348 9.56981L13.7104 9.54505C13.6983 9.54089 13.6902 9.54505 13.6821 9.55329L13.6253 9.61529C13.5969 9.61529 13.5725 9.64005 13.5685 9.67313C12.7896 10.4458 12.1162 11.1358 11.3414 11.8961L10.4246 12.7886C10.3921 12.83 10.2501 12.9085 10.1568 12.9704C10.1244 12.9911 10.096 13.0118 10.0838 13.0324L10.0108 13.2597C9.98644 13.3093 9.90936 13.425 9.90936 13.4332L10.0635 13.5861L10.5138 13.0944L10.5503 13.0531C10.5205 13.011 10.485 12.9734 10.4448 12.9415L10.4164 12.9209C10.4124 12.9126 10.4286 12.9002 10.4367 12.892C11.5077 11.8342 12.6679 10.673 13.609 9.72685C13.6221 9.73193 13.6366 9.73193 13.6496 9.72685L13.7672 9.85493C13.7916 9.88385 13.8159 9.88385 13.8362 9.87145L15.1303 8.69385H15.1262Z" fill="#B2B6BA" stroke="#485654" stroke-width="0.0204708"/>
<path d="M10.015 13.2518H10.0393L10.0596 13.2476L10.088 13.1485L10.1205 13.0493L10.0921 13.1485L10.0637 13.2476L10.0393 13.2559L10.0109 13.2518H10.015Z" fill="#485654"/>
<path d="M10.3072 13.1809C10.3206 13.1809 10.3315 13.1698 10.3315 13.1561C10.3315 13.1425 10.3206 13.1313 10.3072 13.1313C10.2937 13.1313 10.2828 13.1425 10.2828 13.1561C10.2828 13.1698 10.2937 13.1809 10.3072 13.1809Z" stroke="#485654" stroke-width="0.0204708"/>
<path d="M10.1525 13.3386C10.1659 13.3386 10.1768 13.3275 10.1768 13.3138C10.1768 13.3001 10.1659 13.2891 10.1525 13.2891C10.139 13.2891 10.1281 13.3001 10.1281 13.3138C10.1281 13.3275 10.139 13.3386 10.1525 13.3386Z" stroke="#485654" stroke-width="0.0204708"/>
<path d="M10.4199 12.9209C10.3934 12.9014 10.3689 12.8793 10.3469 12.8547C10.3734 12.8741 10.3979 12.8963 10.4199 12.9209Z" fill="#485654"/>
<path d="M12.9031 10.3005L13.0451 10.4451L13.0694 10.4203L12.9275 10.2798L12.9031 10.3046V10.3005Z" fill="#8C959D" stroke="#485654" stroke-width="0.0102354"/>
<path d="M13.188 13.5518C13.1941 13.5935 13.151 13.6451 13.103 13.6303C13.0828 13.6293 13.0756 13.6083 13.0959 13.6093C13.1117 13.6183 13.1324 13.6111 13.1451 13.5993C13.1554 13.5888 13.1626 13.5757 13.1662 13.5613C13.1697 13.5469 13.1694 13.5318 13.1653 13.5176L13.188 13.5518Z" fill="#8C959D" stroke="#485654" stroke-width="0.0102354"/>
<path d="M13.0668 13.6284C13.1049 13.6799 13.1647 13.7036 13.2027 13.6724C13.2282 13.6488 13.2375 13.6245 13.227 13.5909L13.2649 13.6465C13.2649 13.6465 13.238 13.699 13.1965 13.7176C13.1428 13.7356 13.0755 13.6992 13.0376 13.6435C13.0072 13.6006 12.9775 13.5412 13.0042 13.4929C13.0242 13.4618 13.054 13.4385 13.0886 13.4268L13.1272 13.4701C13.1073 13.4608 13.0785 13.4676 13.0575 13.4831C13.0028 13.5218 13.0282 13.5851 13.0668 13.6284Z" fill="#8C959D"/>
<path d="M13.0672 13.6291C13.0786 13.6462 13.093 13.6609 13.1098 13.6726C13.1296 13.6819 13.1495 13.6911 13.17 13.688C13.1806 13.6884 13.1911 13.6844 13.1989 13.677C13.2039 13.6747 13.2083 13.6715 13.212 13.6674C13.2157 13.6633 13.2185 13.6585 13.2204 13.6533C13.2289 13.6454 13.2293 13.6372 13.2339 13.625C13.2345 13.6126 13.2349 13.6043 13.2274 13.5916L13.2231 13.5955L13.2651 13.6514L13.2653 13.6472L13.2222 13.6989L13.1931 13.714L13.1605 13.7165C13.1374 13.7149 13.1152 13.7066 13.0966 13.6926C13.0768 13.6833 13.0573 13.6658 13.0459 13.6487L13.0082 13.5889C13.0011 13.5679 12.994 13.5469 12.9992 13.5223C12.9998 13.5099 13.0002 13.5017 13.0089 13.4897C13.0288 13.4612 13.0568 13.4395 13.089 13.4275L13.085 13.4273L13.1234 13.4747L13.1274 13.4749C13.1197 13.4662 13.1075 13.4656 13.0994 13.4652L13.0666 13.4719C13.0498 13.4834 13.0328 13.4991 13.0278 13.5196C13.0227 13.54 13.0258 13.5609 13.0331 13.5777C13.0402 13.5988 13.0516 13.6159 13.0672 13.6291ZM13.0672 13.6291C13.0516 13.6159 13.0443 13.599 13.0372 13.5779C13.0298 13.5611 13.027 13.5361 13.0318 13.5198C13.0369 13.4993 13.0537 13.4878 13.0703 13.4803C13.0871 13.4687 13.1116 13.4658 13.1234 13.4747L13.1274 13.4749L13.0892 13.4233C13.0549 13.4356 13.0253 13.4588 13.0048 13.4895C12.9964 13.4973 12.9917 13.5095 12.9911 13.5219C12.9899 13.5467 12.9928 13.5716 13.004 13.5929C13.011 13.6139 13.0222 13.6351 13.0417 13.6527C13.0528 13.6739 13.0725 13.6873 13.0922 13.7007C13.1118 13.7141 13.1317 13.7233 13.1601 13.7247C13.1719 13.7258 13.1839 13.7245 13.1952 13.7208C13.2066 13.7171 13.217 13.7111 13.2261 13.7032C13.2436 13.6873 13.2582 13.6684 13.2694 13.6475L13.2314 13.5918L13.2233 13.5914L13.2258 13.6246C13.2254 13.6328 13.2248 13.6452 13.2163 13.6531L13.1951 13.6727C13.1906 13.6807 13.1783 13.6843 13.1702 13.6839C13.1497 13.687 13.1296 13.6819 13.1098 13.6726L13.0672 13.6291Z" fill="#485654"/>
<path d="M10.0825 9.79851L11.629 11.5096L13.2166 13.2104L13.3923 13.4425C13.4688 13.5415 13.5601 13.6702 13.6682 13.7873C13.6871 13.8172 13.712 13.806 13.7355 13.8237C13.8064 13.8686 13.8799 13.9467 13.9296 14.0113L14.4012 14.5932C14.4278 14.6318 14.4389 14.653 14.4134 14.6766L14.1286 15.0264C14.0776 15.0736 14.0197 15.0955 13.9973 15.053C13.8826 14.8197 13.579 14.4613 13.4703 14.187C13.4094 14.0184 13.3343 13.721 13.2728 13.6476C13.1962 13.5527 13.0006 13.3114 12.8199 13.0996L12.7814 13.0563C12.774 13.0394 12.7625 13.0264 12.7468 13.0133C11.8422 11.9753 10.7978 10.7194 10.0362 9.83343L10.0787 9.79419L10.0825 9.79851Z" fill="#6C301E" stroke="#351710" stroke-width="0.0204708" stroke-linejoin="round"/>
<path d="M13.3016 13.2174C13.3502 13.2198 13.384 13.1926 13.4219 13.1655C13.3725 13.1796 13.323 13.1937 13.2795 13.1708L13.3016 13.2174Z" fill="#8C959D" stroke="#485654" stroke-width="0.0102354"/>
<path d="M8.4472 8.50923L9.68376 9.65471C9.69512 9.67183 9.70748 9.66831 9.7202 9.65655L9.84248 9.56335L9.84364 9.53859L9.78972 9.47799C9.782 9.46931 9.79032 9.46559 9.79496 9.45343L9.82044 9.42987C9.8328 9.42635 9.84071 9.43087 9.84839 9.43955L9.90216 9.50427C9.93052 9.50567 9.95364 9.53167 9.95612 9.56487C10.697 10.3754 11.3365 11.0981 12.074 11.896L12.9468 12.8331C12.9773 12.876 13.1153 12.9615 13.2056 13.028C13.237 13.0503 13.2644 13.0723 13.2755 13.0936L13.3376 13.3242C13.3595 13.3749 13.4309 13.4943 13.4305 13.5026L13.2692 13.6476L12.843 13.1341L12.8086 13.091C12.8404 13.0504 12.8776 13.0147 12.9192 12.9848L12.9486 12.9656C12.9531 12.9575 12.9374 12.9444 12.9298 12.9357C11.9108 11.8259 10.8077 10.6084 9.91304 9.61651C9.89972 9.62095 9.88532 9.62023 9.87252 9.61447L9.74884 9.73655C9.72316 9.76423 9.69884 9.76303 9.6792 9.74963L8.44312 8.50903L8.4472 8.50923Z" fill="#B2B6BA" stroke="#485654" stroke-width="0.0204708"/>
<path d="M13.3339 13.3154L13.3096 13.3142L13.2895 13.309L13.2659 13.2086L13.2382 13.1079L13.2618 13.2084L13.2854 13.3088L13.3094 13.3183L13.3379 13.3156L13.3339 13.3154Z" fill="#485654"/>
<path d="M13.0452 13.2295C13.0318 13.2288 13.0214 13.2172 13.0221 13.2035C13.0227 13.1898 13.0341 13.1793 13.0476 13.18C13.061 13.1806 13.0714 13.1922 13.0707 13.2059C13.07 13.2196 13.0586 13.2302 13.0452 13.2295Z" stroke="#485654" stroke-width="0.0204708"/>
<path d="M13.1921 13.3953C13.1786 13.3946 13.1683 13.3829 13.1689 13.3693C13.1696 13.3556 13.181 13.3451 13.1944 13.3457C13.2079 13.3464 13.2182 13.358 13.2176 13.3717C13.2169 13.3854 13.2055 13.3959 13.1921 13.3953Z" stroke="#485654" stroke-width="0.0204708"/>
<path d="M12.9442 12.964C12.9716 12.9459 12.9971 12.925 13.0203 12.9016C12.9929 12.9197 12.9674 12.9406 12.9442 12.964Z" fill="#485654"/>
<path d="M10.5896 10.2237L10.4409 10.3611L10.4178 10.3351L10.5663 10.2019L10.5894 10.2279L10.5896 10.2237Z" fill="#8C959D" stroke="#485654" stroke-width="0.0102354"/>
<path d="M10.137 14.6977C9.74468 14.602 9.33432 14.6148 8.94844 14.7349C9.60968 15.0654 10.1452 14.9249 10.133 14.6935L10.137 14.6977ZM13.7474 14.8341C14.0639 14.6977 14.8346 14.8051 14.9279 14.8754C14.2708 15.2018 13.7312 15.0613 13.7434 14.8341H13.7474Z" fill="#67923D" stroke="#24420E" stroke-width="0.0204708"/>
<path d="M10.1289 14.7026C10.1411 14.9299 9.60968 15.0704 8.94844 14.7398C9.56912 14.7811 10.0762 14.7563 10.1249 14.6985L10.1289 14.7026ZM13.7474 14.839C13.7394 15.0662 14.2708 15.2067 14.932 14.8762C14.3113 14.9175 13.8042 14.8927 13.7515 14.8348L13.7474 14.839Z" fill="#406325" stroke="#24420E" stroke-width="0.0204708"/>
<path d="M13.159 14.4741C12.342 13.3207 11.2886 12.362 10.0719 11.6644C10.2138 11.6561 10.5343 11.8255 10.6682 11.9123C11.6378 12.5486 12.4653 13.3915 13.3294 14.3832C13.2807 14.4328 13.2482 14.4658 13.1914 14.5072L13.159 14.4741Z" fill="#B2B6BA" stroke="#485654" stroke-width="0.0204708"/>
<path d="M13.2436 14.4655L13.1786 14.5151C12.2456 13.2921 10.9475 12.1227 10.0672 11.6641C11.2882 12.2343 12.3146 13.3871 13.2314 14.4573H13.2354L13.2436 14.4655Z" fill="#8C959D"/>
<path d="M13.2436 14.466L13.1786 14.5156C12.7475 13.9517 12.2698 13.4264 11.7507 12.9455C11.3626 12.5825 10.9505 12.247 10.5175 11.9414C10.3714 11.8422 10.2214 11.7472 10.0672 11.6645V11.6562C10.3917 11.8091 10.6919 11.9951 10.9799 12.2058C11.2639 12.4124 11.5316 12.6479 11.7913 12.8917C12.0477 13.1373 12.2953 13.3923 12.5336 13.6561C12.777 13.9206 13.0042 14.1933 13.2395 14.4619L13.2436 14.466ZM13.2436 14.466C13.0082 14.1933 12.777 13.9288 12.5336 13.6644C12.2954 13.4004 12.0478 13.1455 11.7913 12.9C11.5316 12.6562 11.2639 12.4248 10.9799 12.2141C10.696 12.0075 10.3917 11.8174 10.0712 11.6687V11.6604C10.3772 11.8373 10.6712 12.0347 10.9515 12.2512C11.5103 12.6857 12.029 13.1712 12.5012 13.7016C12.7393 13.9646 12.9667 14.2376 13.1827 14.5197L13.2436 14.466Z" fill="#485654"/>
<path d="M13.524 14.2671C13.4428 14.2918 13.3739 14.3208 13.309 14.3621C13.3009 14.42 13.2278 14.4861 13.167 14.4984L13.1426 14.4654H13.1346L13.1102 14.4778C13.0859 14.4778 13.0575 14.4861 13.0453 14.5191C13.0291 14.5604 13.0575 14.6142 13.094 14.6472C13.1346 14.6761 13.1508 14.6885 13.1913 14.6885C13.236 14.6761 13.2603 14.6348 13.2725 14.6224C13.4226 14.8084 13.5362 14.9116 13.7268 15.0604C13.812 15.0604 13.8566 15.0067 13.8282 14.9447C13.8201 14.924 13.7958 14.9116 13.7755 14.9199V14.8993C13.8728 14.8084 13.9175 14.6927 13.812 14.4943C13.7228 14.329 13.6214 14.2712 13.528 14.2712H13.524V14.2671ZM13.7755 14.4571C13.7958 14.4861 13.8039 14.515 13.8161 14.5398C13.881 14.6637 13.8282 14.8166 13.7228 14.8621H13.7146C13.7309 14.8332 13.6822 14.7712 13.6578 14.7919C13.67 14.7629 13.6294 14.7092 13.597 14.7216C13.6132 14.6927 13.5767 14.6431 13.5402 14.6596C13.5564 14.6307 13.528 14.5853 13.4875 14.5935C13.4996 14.5605 13.4712 14.5191 13.4347 14.5274C13.4347 14.4943 13.4266 14.4778 13.4144 14.4654C13.455 14.4324 13.5078 14.3786 13.5524 14.3538C13.6619 14.3042 13.7309 14.3952 13.7755 14.4571Z" fill="#FAB81C" stroke="#6C301E" stroke-width="0.0204708"/>
<path d="M13.8238 14.589C13.8035 14.5766 13.7913 14.556 13.7994 14.5436C13.8075 14.527 13.8278 14.5229 13.8481 14.5353C13.8684 14.5436 13.8806 14.5642 13.8765 14.5766C13.8684 14.5932 13.844 14.5973 13.8238 14.589Z" fill="#FAB81C" stroke="#6C301E" stroke-width="0.0102354"/>
<path d="M13.8112 14.5488C13.791 14.5364 13.7788 14.5157 13.7869 14.4992C13.795 14.4868 13.8153 14.4826 13.8356 14.495C13.8559 14.5033 13.868 14.524 13.864 14.5364C13.8559 14.5529 13.8315 14.557 13.8112 14.5488Z" fill="#FAB81C" stroke="#6C301E" stroke-width="0.0102354"/>
<path d="M13.7878 14.4985C13.7675 14.4903 13.7554 14.4696 13.7635 14.4572C13.7716 14.4407 13.7919 14.4365 13.8122 14.4448C13.8324 14.4572 13.8446 14.4778 13.8365 14.4902C13.8324 14.5068 13.8081 14.5109 13.7878 14.4985Z" fill="#FAB81C" stroke="#6C301E" stroke-width="0.0102354"/>
<path d="M13.755 14.4579C13.7347 14.4455 13.7226 14.4249 13.7307 14.4125C13.7388 14.4001 13.7591 14.3959 13.7794 14.4042C13.7996 14.4166 13.8118 14.4373 13.8078 14.4497C13.7996 14.4621 13.7753 14.4703 13.755 14.4579Z" fill="#FAB81C" stroke="#6C301E" stroke-width="0.0102354"/>
<path d="M13.7149 14.4152C13.6906 14.4069 13.6824 14.3821 13.6906 14.3738V14.3656C13.6986 14.3697 13.719 14.3738 13.7149 14.3614C13.7149 14.3532 13.7108 14.349 13.7149 14.3532L13.7392 14.3614C13.7595 14.3738 13.7717 14.3945 13.7636 14.4069C13.7595 14.4234 13.7352 14.4276 13.7149 14.4152Z" fill="#FAB81C" stroke="#6C301E" stroke-width="0.0102354"/>
<path d="M13.2719 14.6226C13.3003 14.5482 13.353 14.4821 13.4138 14.4656L13.2719 14.6226ZM13.28 14.635C13.3327 14.6433 13.4138 14.5813 13.4342 14.5275L13.28 14.635ZM13.3287 14.6928C13.3936 14.7093 13.4625 14.6433 13.4909 14.5937L13.3287 14.6928ZM13.3895 14.7589C13.4706 14.7589 13.5153 14.7052 13.5396 14.6598L13.3895 14.7589ZM13.4504 14.8209C13.5193 14.8209 13.5802 14.7672 13.5964 14.7217L13.4504 14.8209ZM13.5072 14.8788C13.5842 14.8788 13.6329 14.8416 13.6572 14.7961L13.5072 14.8788ZM13.5761 14.9366C13.6451 14.9407 13.6978 14.8994 13.714 14.8622L13.5761 14.9366ZM13.6492 14.9986C13.714 14.9986 13.7587 14.9573 13.7749 14.9159L13.6492 14.9986Z" fill="#FAB81C"/>
<path d="M13.2719 14.6226C13.2899 14.5703 13.3223 14.5244 13.3652 14.4903C13.3774 14.478 13.3936 14.4697 13.4138 14.4656C13.3964 14.471 13.3799 14.4794 13.3652 14.4903C13.3501 14.5025 13.3365 14.5163 13.3246 14.5317C13.3024 14.5589 13.2846 14.5896 13.2719 14.6226ZM13.28 14.635C13.2962 14.635 13.3124 14.635 13.3287 14.6267L13.3692 14.6019L13.4098 14.5689L13.4342 14.5275C13.4302 14.5435 13.4218 14.5579 13.4098 14.5689C13.3876 14.5943 13.3598 14.6141 13.3287 14.6267C13.3124 14.635 13.2962 14.6391 13.28 14.635ZM13.3287 14.6928H13.3774L13.4179 14.668C13.4461 14.6488 13.4696 14.6234 13.4869 14.5937L13.4585 14.635L13.422 14.6722L13.3814 14.6928H13.3287ZM13.3895 14.7589C13.4058 14.7589 13.422 14.7589 13.4342 14.7507L13.4747 14.73L13.5153 14.6969L13.5396 14.6556C13.5278 14.6876 13.5065 14.715 13.4788 14.7341L13.4382 14.7548H13.3895V14.7589ZM13.4504 14.8209C13.4828 14.8209 13.5112 14.8085 13.5356 14.7879C13.5602 14.7705 13.581 14.7479 13.5964 14.7217C13.5924 14.7341 13.5842 14.7507 13.5721 14.7631L13.5396 14.792L13.499 14.8168C13.4833 14.8215 13.4667 14.8229 13.4504 14.8209ZM13.5072 14.8788C13.5234 14.8788 13.5396 14.8788 13.5518 14.8705C13.5818 14.8637 13.6096 14.8495 13.6329 14.8292L13.6572 14.792L13.6329 14.8333C13.6208 14.8416 13.6086 14.854 13.5924 14.8581C13.568 14.8746 13.5396 14.8788 13.5112 14.8788H13.5072ZM13.5761 14.9366C13.6044 14.9362 13.6322 14.9291 13.6572 14.9159L13.6897 14.8953C13.6978 14.8829 13.71 14.8746 13.714 14.8622C13.714 14.8746 13.7019 14.887 13.6938 14.8953C13.6779 14.9112 13.6587 14.9231 13.6376 14.9303C13.6165 14.9375 13.5941 14.9396 13.5721 14.9366H13.5761ZM13.6492 14.9986L13.6897 14.9945L13.7222 14.9779L13.7506 14.9531L13.7749 14.9201C13.7653 14.9454 13.7478 14.9668 13.725 14.9809C13.7023 14.9951 13.6756 15.0013 13.6492 14.9986Z" fill="#6C301E"/>
<path d="M10.7 14.3669C11.5827 13.2649 12.69 12.3716 13.9453 11.7486C13.804 11.7318 13.4743 11.8815 13.3356 11.9601C12.3307 12.5367 11.4555 13.3282 10.5352 14.2659C10.581 14.3183 10.6114 14.3533 10.6657 14.398L10.7 14.3669Z" fill="#B2B6BA" stroke="#485654" stroke-width="0.0204708"/>
<path d="M10.6161 14.3532L10.678 14.4067C11.6806 13.2421 13.0446 12.1532 13.95 11.7485C12.6979 12.244 11.6062 13.3328 10.6288 14.3457L10.6247 14.3455L10.6161 14.3532Z" fill="#8C959D"/>
<path d="M10.6156 14.3536L10.6776 14.4071C11.1407 13.8702 11.6482 13.3746 12.1944 12.9259C12.603 12.5871 13.0338 12.2771 13.4839 11.9981C13.6355 11.9079 13.7908 11.8221 13.9495 11.749L13.95 11.7407C13.6171 11.8737 13.3066 12.0412 13.0069 12.2342C12.7114 12.4232 12.4304 12.6422 12.157 12.8698C11.8868 13.0996 11.6247 13.3391 11.3714 13.5881C11.1131 13.8374 10.8704 14.0959 10.6199 14.3498L10.6156 14.3536ZM10.6156 14.3536C10.8664 14.0956 11.1126 13.8456 11.371 13.5963C11.6241 13.3472 11.8862 13.1076 12.1566 12.8781C12.4299 12.6504 12.7106 12.4356 13.0064 12.2424C13.3019 12.0533 13.6166 11.882 13.9452 11.7528L13.9457 11.7446C13.63 11.9027 13.325 12.082 13.0326 12.2812C12.4495 12.6812 11.9034 13.1344 11.4012 13.6354C11.1482 13.8836 10.9053 14.1423 10.6732 14.4109L10.6156 14.3536Z" fill="#485654"/>
<path d="M10.3472 14.1379C10.4267 14.1676 10.4939 14.2006 10.5563 14.2458C10.561 14.304 10.63 14.3744 10.6901 14.3905L10.7163 14.3589L10.7244 14.3595L10.748 14.3733C10.7722 14.3747 10.8001 14.3847 10.8104 14.4185C10.8241 14.4607 10.7927 14.5126 10.7543 14.5434C10.7121 14.5698 10.6952 14.5812 10.6547 14.5787C10.6109 14.5637 10.589 14.5209 10.5776 14.5079C10.4169 14.6844 10.2975 14.7807 10.0985 14.9176C10.0135 14.9125 9.97204 14.8562 10.004 14.796C10.0133 14.7759 10.0383 14.765 10.0581 14.7745L10.0593 14.7538C9.9674 14.6572 9.9296 14.539 10.0464 14.3474C10.1452 14.1878 10.2498 14.1362 10.3429 14.1418L10.3469 14.1421L10.3472 14.1379ZM10.085 14.3125C10.0631 14.3401 10.0533 14.3685 10.0397 14.3925C9.96772 14.5123 10.0115 14.6681 10.1141 14.7199L10.1222 14.7204C10.1077 14.6905 10.1599 14.6316 10.183 14.6537C10.1725 14.6241 10.2162 14.5729 10.2478 14.5872C10.2333 14.5574 10.2726 14.5101 10.3081 14.5288C10.2936 14.4989 10.3246 14.4553 10.3646 14.466C10.3544 14.4323 10.3852 14.3927 10.4211 14.4032C10.423 14.3702 10.4321 14.3542 10.445 14.3425C10.4064 14.3071 10.3569 14.2503 10.3138 14.2228C10.2073 14.1667 10.1332 14.2533 10.085 14.3125Z" fill="#FAB81C" stroke="#6C301E" stroke-width="0.0204708"/>
<path d="M10.029 14.442C10.05 14.4309 10.0633 14.411 10.0559 14.3982C10.0488 14.3812 10.0288 14.3758 10.0078 14.387C9.98708 14.394 9.97376 14.4139 9.97708 14.4265C9.9842 14.4435 10.0083 14.4491 10.029 14.442Z" fill="#FAB81C" stroke="#6C301E" stroke-width="0.0102354"/>
<path d="M10.043 14.4017C10.064 14.3906 10.0774 14.3707 10.0702 14.3537C10.0628 14.3408 10.0428 14.3355 10.0219 14.3466C10.0012 14.3537 9.9878 14.3736 9.99112 14.3862C9.99824 14.4032 10.0223 14.4088 10.043 14.4017Z" fill="#FAB81C" stroke="#6C301E" stroke-width="0.0102354"/>
<path d="M10.0698 14.353C10.0905 14.346 10.1039 14.3261 10.0965 14.3133C10.0894 14.2963 10.0694 14.2909 10.0486 14.2979C10.0277 14.3091 10.0143 14.329 10.0217 14.3418C10.0248 14.3586 10.0488 14.3642 10.0698 14.353Z" fill="#FAB81C" stroke="#6C301E" stroke-width="0.0102354"/>
<path d="M10.1057 14.3141C10.1267 14.3029 10.14 14.283 10.1327 14.2702C10.1253 14.2573 10.1053 14.252 10.0846 14.259C10.0636 14.2701 10.0502 14.29 10.0536 14.3026C10.0609 14.3155 10.0848 14.3252 10.1057 14.3141Z" fill="#FAB81C" stroke="#6C301E" stroke-width="0.0102354"/>
<path d="M10.1486 14.2743C10.1734 14.2675 10.183 14.2433 10.1754 14.2345L10.1758 14.2263C10.1675 14.2299 10.147 14.2328 10.1518 14.2207C10.1522 14.2125 10.1566 14.2086 10.1522 14.2125L10.1275 14.2192C10.1065 14.2304 10.0932 14.2503 10.1005 14.2631C10.1036 14.2799 10.1277 14.2854 10.1486 14.2743Z" fill="#FAB81C" stroke="#6C301E" stroke-width="0.0102354"/>
<path d="M10.5784 14.5083C10.5544 14.4324 10.5056 14.3632 10.4458 14.343L10.5784 14.5083ZM10.5695 14.5202C10.5164 14.5253 10.439 14.4585 10.4219 14.4037L10.5695 14.5202ZM10.5176 14.575C10.4518 14.5876 10.3868 14.5174 10.3614 14.4662L10.5176 14.575ZM10.453 14.6373C10.372 14.6324 10.3306 14.5761 10.3089 14.5293L10.453 14.6373ZM10.3886 14.6955C10.3198 14.6914 10.2622 14.6341 10.2486 14.5877L10.3886 14.6955ZM10.3286 14.7499C10.2516 14.7452 10.2052 14.7051 10.1836 14.6583L10.3286 14.7499ZM10.2564 14.8034C10.1873 14.8034 10.137 14.7589 10.123 14.7209L10.2564 14.8034ZM10.1799 14.8609C10.1151 14.857 10.0729 14.813 10.0591 14.7708L10.1799 14.8609Z" fill="#FAB81C"/>
<path d="M10.5784 14.5083C10.5634 14.4551 10.5338 14.4073 10.4929 14.3707C10.4815 14.3576 10.4658 14.3483 10.4458 14.343C10.4629 14.3495 10.4788 14.3588 10.4929 14.3707C10.5073 14.3837 10.52 14.3983 10.531 14.4144C10.5516 14.4429 10.5676 14.4746 10.5784 14.5083ZM10.5695 14.5202C10.5533 14.5192 10.5371 14.5183 10.5214 14.509L10.4824 14.4818L10.4438 14.4464L10.4219 14.4037C10.4249 14.4198 10.4325 14.4347 10.4438 14.4464C10.4645 14.4731 10.4911 14.4946 10.5214 14.509C10.5371 14.5183 10.5531 14.5233 10.5695 14.5202ZM10.5176 14.575L10.469 14.5721L10.4299 14.5449C10.403 14.524 10.3809 14.4972 10.3654 14.4665L10.3914 14.5094L10.4256 14.5487L10.4649 14.5718L10.5176 14.575ZM10.453 14.6373C10.4368 14.6363 10.4206 14.6354 10.4089 14.6264L10.3696 14.6033L10.331 14.5679L10.3092 14.5251C10.3191 14.5577 10.3388 14.5864 10.3653 14.6072L10.4046 14.6303L10.4532 14.6332L10.453 14.6373ZM10.3886 14.6955C10.3562 14.6936 10.3286 14.6795 10.3055 14.6574C10.2819 14.6385 10.2625 14.6148 10.2486 14.5877C10.252 14.6003 10.2591 14.6173 10.2705 14.6304L10.3012 14.6613L10.3403 14.6885C10.3558 14.6941 10.3722 14.6965 10.3886 14.6955ZM10.3286 14.7499C10.3124 14.7489 10.2962 14.7479 10.2845 14.7389C10.255 14.7303 10.228 14.7145 10.2059 14.6927L10.1838 14.6541L10.2057 14.6969C10.2174 14.7059 10.2288 14.719 10.2447 14.7241C10.2681 14.7421 10.2962 14.7479 10.3245 14.7496L10.3286 14.7499ZM10.2564 14.8034C10.2282 14.8013 10.2009 14.7926 10.1766 14.7779L10.1454 14.7553C10.138 14.7425 10.1263 14.7335 10.123 14.7209C10.1223 14.7332 10.1337 14.7463 10.1413 14.7551C10.1562 14.7719 10.1747 14.785 10.1954 14.7934C10.216 14.8018 10.2382 14.8053 10.2604 14.8037L10.2564 14.8034ZM10.1799 14.8609L10.1396 14.8543L10.1082 14.8359L10.0813 14.8094L10.0589 14.7749C10.067 14.8007 10.0833 14.8232 10.1051 14.8387C10.127 14.8542 10.1532 14.862 10.1799 14.8609Z" fill="#6C301E"/>
<path d="M9.13051 9.51625C9.45199 9.34273 9.72435 9.08805 9.92155 8.77661C9.28871 8.95017 9.00071 9.36749 9.13051 9.52037V9.51625ZM15.0451 9.71045C14.9068 9.38565 14.6889 9.10253 14.4123 8.88817C14.5259 9.51625 14.8991 9.83029 15.0451 9.71457V9.71045Z" fill="#406325" stroke="#24420E" stroke-width="0.0204708"/>
<path d="M9.1306 9.51677C8.99676 9.36801 9.28476 8.95481 9.9176 8.78125C9.47136 9.12833 9.13872 9.45065 9.1306 9.51677ZM15.0452 9.71097C14.8951 9.83493 14.53 9.52089 14.4164 8.89697C14.7085 9.35149 14.9844 9.70269 15.0452 9.71097Z" fill="#67923D" stroke="#24420E" stroke-width="0.0204708"/>
<path d="M10.8745 12.7441C10.8745 12.7441 10.6271 12.773 10.554 12.4218C10.481 12.0458 10.769 12.0086 10.769 12.0086C10.769 12.0086 11.0976 11.9714 11.3045 11.9673L11.3938 12.711L10.8745 12.7441Z" fill="url(#paint0_radial_69_6526)" stroke="#999270" stroke-width="0.0204708"/>
<path d="M10.9075 12.6311C10.9075 12.6311 10.7452 12.66 10.7128 12.3997C10.6884 12.2137 10.802 12.189 10.802 12.189L11.1752 12.255V12.5939L10.9075 12.6311Z" fill="url(#paint1_radial_69_6526)" stroke="#999270" stroke-width="0.0204708"/>
<path d="M10.8016 12.1893C10.8016 12.1893 11.045 12.1728 11.1667 12.1562L11.2194 12.3918L10.9314 12.4083C10.9314 12.4083 10.9111 12.1976 10.8016 12.1893Z" fill="url(#paint2_radial_69_6526)" stroke="#999270" stroke-width="0.0204708"/>
<path d="M10.7531 12.0119C10.7531 12.0119 11.0574 11.9334 11.098 12.2764C11.106 12.3673 11.0574 12.5739 10.9073 12.6317L11.4712 12.5698L11.4184 11.95L11.2318 11.9665C11.2318 11.9665 10.8262 11.9789 10.7531 12.0078V12.0119Z" fill="url(#paint3_radial_69_6526)" stroke="#999270" stroke-width="0.0204708"/>
<path d="M10.8752 12.7438C10.8752 12.7438 12.9806 12.5991 13.1956 12.6074C13.8366 12.2521 13.1956 10.8513 12.6561 10.0662C12.7169 9.88854 11.4431 9.49186 10.8711 9.52906C10.794 9.52906 10.7251 9.53734 10.6602 9.54146C10.3478 9.5745 10.3438 9.98358 10.4695 10.2439C10.5912 10.4918 11.7028 12.5165 10.9239 12.7355L10.8752 12.7438Z" fill="#F9F0AA" stroke="#999270" stroke-width="0.0204708"/>
<path d="M13.1307 10.8926C12.9887 10.591 12.8183 10.3017 12.6561 10.0662C12.7169 9.88854 11.4431 9.49186 10.8711 9.52906C10.794 9.52906 10.7251 9.53734 10.6602 9.54146C10.3478 9.5745 10.3438 9.98358 10.4695 10.2439C10.5101 10.3183 10.644 10.5745 10.79 10.8926" fill="url(#paint4_linear_69_6526)"/>
<path d="M13.1307 10.8926C12.9887 10.591 12.8183 10.3017 12.6561 10.0662C12.7169 9.88854 11.4431 9.49186 10.8711 9.52906C10.794 9.52906 10.7251 9.53734 10.6602 9.54146C10.3478 9.5745 10.3438 9.98358 10.4695 10.2439C10.5101 10.3183 10.644 10.5745 10.79 10.8926" stroke="#999270" stroke-width="0.0204708"/>
<path d="M10.9886 11.3754C11.2158 11.9787 11.3415 12.615 10.9237 12.7349L10.875 12.7431C10.875 12.7431 12.9844 12.5985 13.1954 12.6068C13.5443 12.4126 13.5118 11.9126 13.3252 11.3672" fill="url(#paint5_linear_69_6526)"/>
<path d="M10.9886 11.3754C11.2158 11.9787 11.3415 12.615 10.9237 12.7349L10.875 12.7431C10.875 12.7431 12.9844 12.5985 13.1954 12.6068C13.5443 12.4126 13.5118 11.9126 13.3252 11.3672" stroke="#999270" stroke-width="0.0204708"/>
<path d="M10.6806 9.66126C10.5305 9.66126 10.49 9.81002 10.494 9.90094C10.4981 10.1489 10.6806 10.1571 10.6806 10.1571L10.924 10.1447L11.0376 9.64062L10.6806 9.66126Z" fill="url(#paint6_radial_69_6526)" stroke="#999270" stroke-width="0.0204708"/>
<path d="M10.6812 9.66126L11.0382 9.64062L11.0788 10.0166L10.7624 10.0331C10.7624 10.0331 10.8638 9.7315 10.6812 9.66126Z" fill="url(#paint7_linear_69_6526)" stroke="#999270" stroke-width="0.0204708"/>
<path d="M12.6568 10.0657C12.9286 10.0244 12.9246 9.65251 12.738 9.49963C12.1092 9.47483 11.2857 9.49547 10.6853 9.54095C10.7543 9.54095 10.9449 9.55747 10.9652 9.80951C10.9694 9.86415 10.9605 9.91903 10.9393 9.96939C10.9181 10.0198 10.8852 10.0641 10.8435 10.0987C10.7966 10.1347 10.7399 10.1549 10.6812 10.1566H10.8273L10.949 10.1401C11.8009 10.0285 12.6528 10.0657 12.6528 10.0657H12.6568Z" fill="url(#paint8_linear_69_6526)" stroke="#999270" stroke-width="0.0204708"/>
<path d="M11.1315 10.648C11.1234 10.6356 11.1153 10.6191 11.099 10.6149C11.0909 10.6149 11.0747 10.6149 11.0788 10.5984H11.1112L11.1761 10.5902C11.1924 10.5943 11.1883 10.6108 11.1761 10.6108C11.1558 10.6108 11.168 10.6315 11.1721 10.6439L11.2248 10.7678C11.2289 10.7844 11.241 10.7968 11.2532 10.7968L11.2978 10.7926C11.31 10.7844 11.3059 10.7678 11.3059 10.7513C11.3019 10.7389 11.3262 10.743 11.3262 10.7513L11.3424 10.8092C11.3424 10.8174 11.3343 10.8133 11.3262 10.8133L11.2045 10.8215C11.1924 10.8215 11.1721 10.8339 11.164 10.8215C11.164 10.805 11.1883 10.8133 11.1883 10.8009L11.1761 10.7596L11.1315 10.648ZM11.3262 10.6315C11.3222 10.6232 11.314 10.6067 11.2978 10.6026C11.2897 10.6026 11.2735 10.6026 11.2735 10.586C11.2816 10.5778 11.2938 10.586 11.3019 10.586L11.3708 10.5778C11.383 10.5778 11.3871 10.5984 11.3708 10.5943C11.3587 10.5943 11.3587 10.6108 11.3627 10.6232L11.4236 10.7637C11.4236 10.772 11.4317 10.7844 11.4439 10.7885C11.452 10.7885 11.4682 10.7885 11.4722 10.8009C11.4722 10.8133 11.456 10.805 11.4479 10.805C11.4276 10.805 11.4074 10.805 11.383 10.8133C11.3749 10.8133 11.3627 10.8133 11.3627 10.8009C11.3627 10.7885 11.383 10.8009 11.3871 10.7844C11.3871 10.772 11.379 10.7596 11.3708 10.743L11.3262 10.6356V10.6315ZM11.5088 10.6645C11.5088 10.6728 11.525 10.6645 11.529 10.6645C11.5412 10.6645 11.5534 10.6604 11.5534 10.648C11.5534 10.6273 11.5412 10.6067 11.525 10.5984C11.5128 10.586 11.4966 10.5902 11.4804 10.5902L11.4844 10.6108L11.5088 10.6645ZM11.5331 10.7306C11.5412 10.743 11.5453 10.7596 11.5574 10.772C11.5656 10.7802 11.5818 10.7761 11.5899 10.772C11.6021 10.772 11.6102 10.7596 11.6061 10.7513C11.6021 10.7224 11.5858 10.6976 11.5574 10.6893H11.5169L11.525 10.71L11.5331 10.7306ZM11.452 10.6315C11.4439 10.6191 11.4398 10.5984 11.4236 10.5902C11.4155 10.5902 11.3992 10.5943 11.3952 10.5819C11.3952 10.5695 11.4195 10.5778 11.4276 10.5736C11.4642 10.5736 11.5006 10.5612 11.5331 10.5736C11.5615 10.5819 11.5899 10.6067 11.594 10.6397C11.594 10.6562 11.5818 10.6686 11.5696 10.6728L11.5899 10.6769C11.6142 10.6852 11.6345 10.7017 11.6467 10.7265C11.6548 10.743 11.6589 10.7637 11.6467 10.7802C11.6305 10.7968 11.6061 10.7968 11.5899 10.7968C11.5574 10.7968 11.529 10.7968 11.4966 10.805C11.4844 10.805 11.4804 10.7844 11.4966 10.7844C11.5088 10.7844 11.5088 10.7678 11.5047 10.7596L11.452 10.6356V10.6315ZM11.7522 10.553C11.7643 10.553 11.7684 10.5654 11.7724 10.5736L11.7846 10.6108C11.7724 10.6191 11.7643 10.6026 11.7603 10.5943C11.7522 10.586 11.744 10.5736 11.7319 10.5778H11.6832C11.6751 10.586 11.6832 10.5943 11.6873 10.6026L11.7116 10.6604C11.7197 10.6604 11.736 10.6604 11.744 10.648C11.744 10.6397 11.7319 10.6191 11.7522 10.6232C11.7643 10.6315 11.7603 10.648 11.7684 10.6604L11.7887 10.7058C11.7765 10.7182 11.7684 10.7017 11.7643 10.6893C11.7562 10.6769 11.736 10.6769 11.7238 10.6769C11.7156 10.6769 11.7238 10.6852 11.7238 10.6893L11.7481 10.7513C11.7562 10.7637 11.7765 10.7637 11.7887 10.7637C11.8008 10.7637 11.8211 10.7637 11.8292 10.7472C11.8374 10.7389 11.8171 10.7182 11.8292 10.7141C11.8455 10.7141 11.8455 10.7306 11.8495 10.7389C11.8495 10.7513 11.8576 10.7637 11.8617 10.772C11.8617 10.7802 11.8495 10.7802 11.8455 10.7802L11.7238 10.7885C11.7076 10.7885 11.6873 10.7968 11.6832 10.7802C11.6832 10.7678 11.7116 10.7761 11.7076 10.7596L11.6913 10.7182L11.6467 10.6067C11.6386 10.5943 11.6305 10.5778 11.6142 10.5778C11.6061 10.5778 11.5899 10.5778 11.598 10.5612H11.6386L11.7522 10.553ZM11.8455 10.6067C11.8414 10.5943 11.8333 10.5778 11.8171 10.5695C11.809 10.5695 11.7887 10.5695 11.7887 10.553C11.8008 10.5447 11.8171 10.553 11.8292 10.553C11.8617 10.553 11.8942 10.5406 11.9266 10.553C11.959 10.5571 11.9874 10.5902 11.9915 10.6273C11.9915 10.6439 11.9794 10.6562 11.9631 10.6604C11.951 10.6604 11.9712 10.6645 11.9753 10.6686C12.0037 10.681 12.0158 10.7058 12.0321 10.7306C12.0361 10.7389 12.0524 10.7596 12.0564 10.7389C12.0564 10.7182 12.0808 10.7389 12.0767 10.7513C12.0767 10.7678 12.0605 10.7761 12.0483 10.7761C12.0321 10.7761 12.0118 10.7678 12.0037 10.7513C11.9874 10.7265 11.9753 10.6976 11.951 10.681C11.9468 10.6768 11.9416 10.6738 11.9358 10.6723C11.9301 10.6709 11.9241 10.671 11.9185 10.6728V10.6934L11.9428 10.743C11.951 10.7554 11.9672 10.7554 11.9834 10.7554C11.9956 10.7596 11.9915 10.7802 11.9753 10.7761H11.9063C11.8942 10.7844 11.8698 10.7761 11.8779 10.7637C11.8901 10.7637 11.9063 10.7554 11.8982 10.743L11.8576 10.6356L11.8455 10.6067ZM11.9023 10.648C11.9104 10.6562 11.9266 10.648 11.9388 10.648C11.951 10.648 11.951 10.6273 11.9469 10.6191C11.9428 10.5984 11.9307 10.5778 11.9104 10.5695C11.9023 10.5695 11.8779 10.5612 11.8739 10.5736L11.9023 10.6397V10.6439V10.648ZM12.1944 10.7141C12.1984 10.7265 12.2065 10.7389 12.2187 10.743C12.2268 10.743 12.243 10.743 12.2471 10.7554C12.2471 10.7678 12.2308 10.7596 12.2227 10.7637H12.1578C12.1457 10.7678 12.1335 10.7637 12.1335 10.7513C12.1416 10.743 12.1619 10.7513 12.1619 10.7348L12.1416 10.6893L12.097 10.5695C12.0929 10.5571 12.0767 10.5571 12.0686 10.5571C12.0564 10.5571 12.0402 10.5571 12.0402 10.5736C12.0402 10.586 12.0483 10.5984 12.0402 10.6067C12.028 10.6067 12.024 10.5943 12.0199 10.586C12.0199 10.5736 12.0118 10.5612 12.0037 10.5447C12.0037 10.5364 12.0199 10.5406 12.024 10.5406L12.1944 10.5323C12.2065 10.5323 12.2146 10.5406 12.2146 10.553L12.2308 10.5943C12.2268 10.6067 12.2106 10.5943 12.2065 10.5819C12.2024 10.5695 12.1862 10.553 12.17 10.553C12.1619 10.553 12.1457 10.553 12.1376 10.5612L12.1457 10.5902L12.1944 10.7141ZM12.3485 10.6769C12.3404 10.6769 12.3444 10.6893 12.3444 10.6934V10.7265C12.3485 10.743 12.3647 10.7389 12.3769 10.743C12.385 10.743 12.381 10.7637 12.3688 10.7596H12.3201C12.3079 10.7637 12.2876 10.7554 12.2998 10.743C12.3079 10.743 12.316 10.7389 12.3201 10.7306V10.524C12.3282 10.5116 12.3404 10.524 12.3444 10.5323L12.4905 10.7182C12.4986 10.7265 12.5108 10.7348 12.5229 10.7348C12.5351 10.7348 12.5392 10.7554 12.5229 10.7513H12.4621C12.454 10.7513 12.4418 10.7596 12.4337 10.7513C12.4256 10.7472 12.4337 10.7348 12.4418 10.7348C12.454 10.7348 12.4418 10.7182 12.4378 10.71L12.4134 10.6769H12.3485ZM12.3931 10.6562C12.4012 10.6562 12.3931 10.6521 12.3931 10.648L12.3404 10.5778V10.6604H12.3931V10.6562ZM12.5189 10.5819C12.5148 10.5654 12.5067 10.5406 12.4864 10.5406C12.4742 10.5406 12.458 10.5323 12.4661 10.524H12.5351C12.5635 10.5199 12.5919 10.5199 12.6162 10.5282C12.6771 10.5488 12.7258 10.6026 12.7379 10.6686C12.7379 10.6934 12.7339 10.7224 12.7136 10.7348C12.6812 10.7554 12.6446 10.7513 12.6122 10.7472L12.5554 10.7513C12.5432 10.7513 12.5392 10.7306 12.5554 10.7348C12.5716 10.7348 12.5716 10.7141 12.5635 10.7058L12.5189 10.5819ZM12.6 10.6852C12.6041 10.6976 12.6081 10.7141 12.6203 10.7265H12.6608C12.6812 10.7265 12.6892 10.7058 12.6892 10.6893C12.6875 10.6589 12.6792 10.6293 12.6649 10.6026C12.6487 10.5736 12.6244 10.553 12.5919 10.5447C12.5785 10.5424 12.5648 10.5424 12.5513 10.5447C12.5473 10.5447 12.5513 10.553 12.5513 10.5612L12.6 10.6852ZM11.744 11.1976C11.744 11.21 11.7603 11.2224 11.7765 11.2224C11.7846 11.2224 11.8049 11.2224 11.8049 11.2389C11.7968 11.2471 11.7806 11.2389 11.7724 11.2389L11.7116 11.2471H11.6751C11.667 11.2471 11.667 11.2306 11.6792 11.2306C11.6913 11.2306 11.7035 11.2265 11.7035 11.2141L11.6954 11.181L11.6467 11.0653C11.6467 11.0529 11.6305 11.0529 11.6183 11.0529C11.6102 11.0529 11.594 11.0571 11.5899 11.0447C11.5899 11.0323 11.6102 11.0364 11.6183 11.0281L11.6589 11.0158C11.667 11.0158 11.671 11.0199 11.671 11.0281L11.744 11.1934V11.1976ZM11.7724 11.0116H11.8536C11.8698 11.0116 11.8617 10.991 11.8698 10.991C11.886 10.991 11.886 11.0116 11.886 11.0199C11.886 11.0364 11.8739 11.0488 11.8617 11.0447H11.8008L11.8211 11.0942L11.8455 11.086C11.886 11.086 11.9347 11.1108 11.951 11.1521C11.959 11.1728 11.9631 11.1934 11.951 11.2141C11.9347 11.2347 11.9104 11.2389 11.886 11.2389C11.8658 11.2389 11.8455 11.2347 11.8292 11.2141C11.8252 11.2058 11.8252 11.1852 11.8374 11.1893C11.8536 11.1893 11.8658 11.1976 11.8658 11.2141C11.8698 11.2224 11.886 11.2182 11.8942 11.2182C11.9063 11.2182 11.9185 11.21 11.9185 11.1976C11.9185 11.1769 11.9104 11.1562 11.8982 11.1397C11.8901 11.1232 11.8698 11.1108 11.8455 11.1108L11.813 11.1149C11.8008 11.1149 11.8008 11.1025 11.7968 11.0942L11.7684 11.0158L11.7765 11.0116H11.7724ZM12.0524 11.0529C12.0442 11.0364 12.0361 11.0158 12.0158 11.0116C12.0077 11.0116 11.9874 11.0075 11.9996 10.9951H12.0645C12.0929 10.9868 12.1254 10.991 12.1497 10.9992C12.2106 11.0199 12.2592 11.0736 12.2714 11.1397C12.2714 11.1645 12.2674 11.1893 12.243 11.2058C12.2146 11.2224 12.1781 11.2182 12.1457 11.2182L12.0929 11.2265C12.0808 11.2265 12.0767 11.2058 12.0929 11.2058C12.1051 11.2058 12.1051 11.1893 12.101 11.1769L12.0524 11.0529ZM12.1335 11.1562C12.1376 11.1686 12.1457 11.1852 12.1578 11.1976H12.1984C12.2146 11.1934 12.2227 11.1728 12.2227 11.1562C12.2227 11.1273 12.2106 11.0984 12.1944 11.0694C12.1781 11.0405 12.1538 11.0199 12.1213 11.0158C12.1079 11.0134 12.0942 11.0134 12.0808 11.0158V11.0323L12.1335 11.1562ZM12.3931 10.9786C12.4053 10.9786 12.4094 10.991 12.4134 10.9992C12.4134 11.0116 12.4215 11.0199 12.4256 11.0323C12.4174 11.0447 12.4053 11.0323 12.4012 11.0199C12.3972 11.0116 12.3891 10.9992 12.3769 10.9992H12.3242C12.316 11.0075 12.3242 11.0199 12.3242 11.024L12.3485 11.0818C12.3607 11.0818 12.3728 11.0818 12.381 11.0736C12.3891 11.0653 12.3688 11.0447 12.3891 11.0488C12.4012 11.0488 12.4012 11.0694 12.4053 11.0818L12.4256 11.1273C12.4215 11.1438 12.4053 11.1273 12.4012 11.1149C12.3972 11.1025 12.381 11.1025 12.3688 11.1025C12.3607 11.1025 12.3526 11.1025 12.3607 11.1108L12.385 11.1728C12.3931 11.1893 12.4134 11.1852 12.4256 11.1852C12.4418 11.1852 12.458 11.1852 12.4661 11.1728C12.4742 11.1645 12.458 11.148 12.4661 11.1397C12.4824 11.1397 12.4864 11.1521 12.4864 11.1604L12.4986 11.2017C12.4986 11.2058 12.4864 11.2017 12.4824 11.2017L12.3566 11.21C12.3444 11.21 12.3282 11.2182 12.3201 11.2058C12.312 11.1893 12.3404 11.1976 12.3444 11.1852L12.3323 11.148L12.2876 11.0281C12.2795 11.0158 12.2714 11.0034 12.2552 10.9992C12.2471 10.9992 12.2308 10.9992 12.239 10.9827H12.2795L12.3931 10.9786ZM11.2897 11.5694C11.2938 11.5901 11.314 11.5984 11.3303 11.6025C11.3627 11.6108 11.3992 11.6232 11.4195 11.6479C11.4317 11.6645 11.4398 11.6851 11.4398 11.7058C11.4398 11.7264 11.4195 11.743 11.3992 11.7471C11.379 11.7554 11.3546 11.7512 11.3303 11.743C11.3222 11.7388 11.3262 11.7595 11.31 11.7554C11.3019 11.7471 11.3059 11.7306 11.3019 11.7182C11.2973 11.7041 11.2919 11.6903 11.2856 11.6769C11.2856 11.6645 11.3019 11.6769 11.3059 11.6851C11.3181 11.7099 11.3424 11.7264 11.3708 11.7306C11.3871 11.7306 11.4033 11.7223 11.4033 11.7058C11.4033 11.6851 11.3871 11.6645 11.3708 11.6562C11.3424 11.6438 11.314 11.6397 11.2897 11.6232C11.2781 11.6164 11.2684 11.6068 11.2613 11.5953C11.2542 11.5837 11.25 11.5706 11.2492 11.557C11.2492 11.5405 11.2654 11.524 11.2816 11.5198C11.3019 11.5116 11.3222 11.5116 11.3465 11.5198C11.3546 11.5198 11.3587 11.5074 11.3708 11.5157C11.3708 11.524 11.3708 11.5322 11.379 11.5405L11.3911 11.5777C11.383 11.586 11.3708 11.5777 11.3708 11.5694C11.3587 11.5529 11.3506 11.5364 11.3303 11.5364C11.314 11.5364 11.2978 11.5364 11.2897 11.5488V11.5694ZM11.5574 11.4992C11.5737 11.4992 11.5737 11.5116 11.5777 11.5198L11.5858 11.5529C11.5858 11.5653 11.5696 11.5529 11.5656 11.5446C11.5615 11.5364 11.5534 11.524 11.5372 11.524H11.4885C11.4804 11.5322 11.4885 11.5446 11.4885 11.5488L11.5088 11.6066C11.5209 11.6066 11.5331 11.6066 11.5412 11.5984C11.5493 11.5901 11.5331 11.5736 11.5453 11.5694C11.5615 11.5694 11.5615 11.5901 11.5656 11.5984C11.5656 11.6149 11.5777 11.6314 11.5818 11.6521C11.5777 11.6645 11.5615 11.6521 11.5615 11.6397C11.5574 11.6273 11.5412 11.6232 11.529 11.6273C11.5209 11.6273 11.5128 11.6273 11.5169 11.6356L11.5412 11.6975C11.5453 11.7099 11.5574 11.7099 11.5696 11.7099C11.5858 11.7099 11.6061 11.7099 11.6183 11.6975C11.6264 11.6892 11.6183 11.6727 11.6183 11.6645C11.6305 11.6562 11.6426 11.6645 11.6426 11.6769L11.6508 11.7182C11.6508 11.7264 11.6386 11.7264 11.6345 11.7264L11.5128 11.7347C11.4966 11.7347 11.4804 11.7471 11.4722 11.7347C11.4722 11.7182 11.4926 11.7223 11.4966 11.7099C11.4966 11.7016 11.4966 11.6892 11.4885 11.6769L11.4479 11.5529C11.4479 11.5405 11.4358 11.5281 11.4195 11.5281C11.4114 11.5281 11.3952 11.524 11.4033 11.5116H11.4439L11.5574 11.4992ZM11.7278 11.6727C11.7319 11.6851 11.74 11.6975 11.7522 11.7016C11.7643 11.7016 11.7806 11.6975 11.7846 11.7099C11.7846 11.7264 11.7643 11.7182 11.7562 11.7182C11.7319 11.7182 11.7156 11.7182 11.6913 11.7264C11.6832 11.7264 11.671 11.7264 11.667 11.7182C11.667 11.7016 11.6873 11.7099 11.6913 11.7016L11.6873 11.6686L11.6467 11.5446C11.6386 11.5322 11.6345 11.5157 11.6183 11.5157C11.6102 11.5157 11.594 11.5157 11.598 11.4992C11.6021 11.4909 11.6142 11.4992 11.6264 11.4992C11.6548 11.4992 11.6832 11.4868 11.7156 11.4909C11.7305 11.492 11.7448 11.4971 11.757 11.5058C11.7691 11.5146 11.7787 11.5266 11.7846 11.5405C11.7927 11.557 11.7927 11.5818 11.7846 11.5942C11.7643 11.6108 11.74 11.6149 11.7156 11.619C11.7076 11.619 11.7156 11.6273 11.7156 11.6314L11.7278 11.6727ZM11.7035 11.5984H11.7319C11.744 11.5942 11.7522 11.5818 11.7481 11.5694C11.7481 11.5488 11.74 11.5322 11.7278 11.5198C11.7156 11.5074 11.6954 11.5074 11.6832 11.5116C11.6751 11.5157 11.6832 11.524 11.6832 11.5322L11.7035 11.5984ZM11.955 11.6603C11.955 11.6686 11.9631 11.6851 11.9753 11.6851C11.9834 11.6851 12.0037 11.6851 12.0037 11.6975C12.0037 11.7099 11.9834 11.7058 11.9753 11.7058L11.9104 11.7099C11.9023 11.7099 11.8901 11.7099 11.8901 11.6975C11.8982 11.6892 11.9185 11.6975 11.9185 11.681L11.9063 11.6314L11.8658 11.5116C11.8658 11.4992 11.8495 11.5033 11.8374 11.5033C11.8292 11.5033 11.813 11.5033 11.809 11.5157V11.5488C11.8008 11.557 11.7887 11.5488 11.7927 11.5364L11.7765 11.495C11.7765 11.4826 11.7887 11.4868 11.7968 11.4826L11.9631 11.4744C11.9753 11.4744 11.9834 11.4826 11.9834 11.495L11.9996 11.5364C11.9956 11.5446 11.9794 11.5364 11.9794 11.5281C11.9712 11.5157 11.959 11.4992 11.9388 11.4992C11.9307 11.4992 11.9185 11.495 11.9063 11.4992L11.9144 11.5281L11.955 11.6603ZM12.0402 11.524C12.0361 11.5116 12.0321 11.495 12.0158 11.4909C12.0077 11.4909 11.9915 11.4909 11.9915 11.4744C11.9956 11.4661 12.0077 11.4744 12.0158 11.4744L12.0889 11.4661C12.101 11.462 12.1092 11.4826 12.097 11.4826C12.0848 11.4826 12.0726 11.4909 12.0767 11.5033L12.097 11.5694L12.1254 11.6603C12.1254 11.6686 12.1376 11.6769 12.1457 11.6769C12.1578 11.6769 12.1741 11.6769 12.17 11.6934H12.1416L12.0767 11.7016C12.0686 11.7016 12.0524 11.6934 12.0605 11.6851C12.0686 11.681 12.0848 11.6851 12.0848 11.6686L12.0726 11.619L12.0402 11.524ZM12.2755 11.4579C12.2876 11.4579 12.2876 11.4703 12.2917 11.4785L12.2998 11.5116C12.2958 11.524 12.2795 11.5116 12.2795 11.5033C12.2755 11.4909 12.2674 11.4785 12.2511 11.4785H12.2065C12.1984 11.4868 12.2065 11.4992 12.2065 11.5074L12.2268 11.5612C12.2349 11.5612 12.2471 11.5612 12.2592 11.5529C12.2674 11.5488 12.2511 11.5281 12.2633 11.5281C12.2795 11.5281 12.2795 11.5446 12.2836 11.5529C12.2836 11.5736 12.2958 11.5901 12.2998 11.6066C12.2958 11.619 12.2795 11.6066 12.2795 11.5984C12.2755 11.586 12.2592 11.5818 12.2471 11.5818C12.243 11.5818 12.2268 11.5818 12.2349 11.5901L12.2552 11.6521C12.2592 11.6645 12.2755 11.6686 12.2836 11.6686C12.2998 11.6686 12.3201 11.6686 12.3323 11.6562C12.3404 11.6479 12.3323 11.6314 12.3363 11.619C12.3485 11.6149 12.3566 11.6232 12.3566 11.6356L12.3647 11.6769C12.3647 11.6851 12.3566 11.6851 12.3485 11.6851L12.2268 11.6892C12.2106 11.6892 12.1984 11.6975 12.1862 11.6892C12.1822 11.6727 12.2065 11.6769 12.2106 11.6686C12.2122 11.6631 12.2126 11.6573 12.212 11.6516C12.2112 11.646 12.2094 11.6405 12.2065 11.6356L12.166 11.5116C12.166 11.4992 12.1538 11.4826 12.1376 11.4826C12.1294 11.4826 12.1132 11.4744 12.1213 11.4661H12.1619L12.2795 11.4579H12.2755ZM12.3566 11.4992C12.3526 11.4826 12.3404 11.4703 12.3242 11.4703C12.312 11.4744 12.3039 11.4455 12.3242 11.4537H12.385L12.4134 11.4909L12.5026 11.6108C12.4945 11.6108 12.5026 11.6025 12.4986 11.5984L12.5148 11.4496C12.5229 11.4413 12.5432 11.4496 12.5554 11.4413C12.5676 11.4413 12.596 11.4413 12.5878 11.4579C12.5716 11.4579 12.5554 11.4661 12.5635 11.4826L12.6122 11.6314C12.6122 11.6479 12.6284 11.6562 12.6446 11.6521C12.6568 11.6521 12.6568 11.6769 12.6446 11.6727H12.5716C12.5594 11.6769 12.5392 11.6769 12.5432 11.6603C12.5554 11.6603 12.5757 11.6521 12.5676 11.6356L12.527 11.5033C12.531 11.5074 12.527 11.5157 12.527 11.5198L12.5189 11.6438L12.5148 11.6769C12.5026 11.681 12.4986 11.6727 12.4945 11.6645L12.3769 11.5116L12.385 11.524C12.3972 11.5653 12.4053 11.6066 12.4215 11.6438C12.4215 11.6603 12.4418 11.6645 12.454 11.6645C12.4702 11.6727 12.458 11.6851 12.4458 11.681H12.385C12.3728 11.681 12.3728 11.6645 12.385 11.6645C12.4053 11.6645 12.4012 11.6438 12.3931 11.6314L12.3526 11.4992H12.3566ZM12.7095 11.5322C12.7095 11.5405 12.7258 11.5322 12.7298 11.5322C12.742 11.5322 12.7542 11.5322 12.7582 11.5157C12.7582 11.4992 12.7501 11.4744 12.7379 11.4661C12.7217 11.4537 12.7055 11.4579 12.6892 11.4579V11.4785L12.7095 11.5322ZM12.7298 11.5984L12.746 11.6397C12.7582 11.6479 12.7704 11.6438 12.7826 11.6438C12.7907 11.6438 12.8028 11.6356 12.7988 11.6232C12.7988 11.5984 12.7866 11.5694 12.7623 11.5612H12.7217V11.5736L12.7298 11.5984ZM12.6528 11.4992C12.6487 11.4826 12.6446 11.4661 12.6284 11.4579C12.6203 11.4579 12.6041 11.4579 12.6041 11.4455C12.6041 11.4331 12.6244 11.4455 12.6325 11.4413C12.673 11.4413 12.7055 11.4331 12.742 11.4413C12.7704 11.4496 12.7947 11.4785 12.7947 11.5074C12.7947 11.524 12.7785 11.5364 12.7663 11.5446C12.7663 11.5364 12.7826 11.5446 12.7866 11.5446C12.8069 11.5529 12.8272 11.5694 12.8353 11.5942C12.8434 11.6108 12.8475 11.6314 12.8353 11.6479C12.8191 11.6645 12.7947 11.6645 12.7744 11.6645L12.6812 11.6686C12.669 11.6686 12.6649 11.6479 12.6812 11.6521C12.6933 11.6521 12.6974 11.6356 12.6892 11.6232L12.6528 11.4992ZM12.8596 11.4909C12.8596 11.4785 12.8515 11.4579 12.8353 11.4496C12.8272 11.4496 12.811 11.4496 12.811 11.4372C12.8191 11.4248 12.8353 11.4372 12.8515 11.4331H12.9326C12.9651 11.4331 12.9935 11.4579 13.0016 11.4909C13.0057 11.5074 13.0016 11.5322 12.9854 11.5405L12.9692 11.5488C12.9935 11.557 13.0138 11.5777 13.026 11.5984L13.0462 11.6314C13.0544 11.6397 13.0584 11.6273 13.0584 11.619C13.0746 11.6108 13.0828 11.6314 13.0746 11.6438C13.0706 11.6603 13.0462 11.6645 13.0341 11.6603C13.0268 11.6599 13.0199 11.6574 13.0142 11.653C13.0084 11.6485 13.004 11.6425 13.0016 11.6356L12.961 11.5653C12.9489 11.5612 12.9367 11.5529 12.9246 11.5612V11.5777L12.9448 11.6273C12.9489 11.6397 12.9651 11.6438 12.9773 11.6438C12.9935 11.6438 12.9935 11.6645 12.9773 11.6603H12.9042C12.8962 11.6603 12.8799 11.6686 12.8759 11.6603C12.8678 11.6397 12.8921 11.6479 12.9002 11.6397L12.8921 11.6025L12.8596 11.4909ZM12.9124 11.5322C12.9164 11.5446 12.9367 11.5322 12.9448 11.5322C12.957 11.5322 12.9651 11.5198 12.961 11.5116C12.961 11.4909 12.9529 11.4703 12.9408 11.4579C12.9286 11.4496 12.9124 11.4496 12.9002 11.4537C12.8921 11.4537 12.8962 11.4661 12.9002 11.4744L12.9124 11.5281V11.5322ZM13.1923 11.4248C13.2044 11.4248 13.2044 11.4372 13.2085 11.4455C13.2085 11.4579 13.2166 11.4703 13.2207 11.4785C13.2126 11.4909 13.2004 11.4785 13.1963 11.4703C13.1963 11.462 13.1882 11.4455 13.172 11.4455H13.1192C13.1112 11.4496 13.1192 11.462 13.1192 11.4703L13.1355 11.5281C13.1476 11.5281 13.1598 11.5281 13.168 11.5198C13.1801 11.5157 13.1639 11.4992 13.176 11.4909C13.1923 11.4909 13.1923 11.5074 13.1923 11.5198C13.1923 11.5405 13.2044 11.557 13.2085 11.5736C13.2044 11.586 13.1882 11.5736 13.1882 11.5653C13.1882 11.5529 13.172 11.5446 13.1598 11.5488C13.1558 11.5488 13.1396 11.5405 13.1436 11.5488L13.1639 11.619C13.1679 11.6314 13.1801 11.6314 13.1923 11.6314C13.2085 11.6314 13.2288 11.6314 13.241 11.6232C13.2491 11.6149 13.241 11.5984 13.245 11.5901C13.2572 11.5818 13.2694 11.5901 13.2653 11.6025L13.2734 11.6438C13.2734 11.6521 13.2612 11.6521 13.2572 11.6521H13.1314C13.1192 11.6521 13.1071 11.6603 13.099 11.6521C13.0868 11.6356 13.1071 11.6397 13.1152 11.6314C13.1233 11.6232 13.1152 11.6108 13.1152 11.6025L13.0787 11.4744C13.0787 11.462 13.0665 11.4455 13.0544 11.4455C13.0422 11.4455 13.03 11.4413 13.0341 11.429H13.0746L13.1963 11.4248H13.1923ZM11.8617 11.9661C11.8617 11.9537 11.8536 11.933 11.8374 11.9248C11.8252 11.9248 11.809 11.9248 11.8171 11.9124L11.8576 11.9082C11.8901 11.9082 11.9226 11.9 11.955 11.9082C12.0037 11.9165 12.0483 11.9578 12.0605 12.0033C12.0686 12.0364 12.0726 12.0694 12.0524 12.0983C12.0321 12.1231 11.9956 12.1314 11.9631 12.1314C11.9347 12.1314 11.9104 12.1314 11.886 12.1396C11.8779 12.1438 11.8617 12.1355 11.8698 12.1231C11.882 12.1231 11.8982 12.119 11.8942 12.1024L11.8779 12.0405L11.8617 11.9661ZM11.9266 12.0694C11.9307 12.0818 11.9347 12.0983 11.9428 12.1066C11.955 12.1148 11.9712 12.1107 11.9834 12.1066C11.9996 12.1066 12.0158 12.0901 12.0199 12.0694C12.0231 12.0382 12.0175 12.0066 12.0037 11.9785C11.9984 11.9657 11.9901 11.9544 11.9795 11.9458C11.9688 11.9371 11.9562 11.9313 11.9428 11.9289C11.9281 11.9261 11.913 11.9261 11.8982 11.9289C11.8942 11.9289 11.8982 11.9372 11.8982 11.9454L11.9266 12.0694ZM12.2146 11.8835C12.2268 11.8835 12.2268 11.8958 12.2308 11.9041L12.239 11.9413C12.2308 11.9496 12.2187 11.9413 12.2187 11.933C12.2146 11.9206 12.2065 11.9082 12.1944 11.9082H12.1416C12.1335 11.9124 12.1416 11.9248 12.1416 11.933C12.1416 11.9537 12.1497 11.9744 12.1538 11.9909C12.166 11.9909 12.1781 11.9909 12.1862 11.9826C12.1944 11.9744 12.1822 11.9578 12.1944 11.9537C12.2106 11.9537 12.2065 11.9744 12.2106 11.9826L12.2227 12.0364C12.2227 12.0488 12.2024 12.0364 12.2024 12.0281C12.2024 12.0157 12.1862 12.0074 12.1741 12.0116C12.17 12.0116 12.1538 12.0074 12.1619 12.0157C12.1619 12.0364 12.17 12.057 12.1781 12.0818C12.1781 12.0942 12.1944 12.0942 12.2065 12.0942C12.2228 12.0942 12.243 12.0942 12.2552 12.0818C12.2633 12.0735 12.2552 12.057 12.2633 12.0488C12.2714 12.0405 12.2795 12.0529 12.2795 12.0653C12.2795 12.0777 12.2795 12.0901 12.2876 12.1066C12.2836 12.1148 12.2755 12.1107 12.2674 12.1107L12.1457 12.119C12.1335 12.119 12.1213 12.1272 12.1092 12.119C12.101 12.1107 12.1132 12.1024 12.1254 12.1024C12.1376 12.0983 12.1335 12.0818 12.1294 12.0735L12.101 11.9413C12.097 11.9289 12.0889 11.9124 12.0767 11.9124C12.0645 11.9124 12.0524 11.9082 12.0564 11.8958H12.097L12.2146 11.8835ZM12.4783 12.0529C12.4783 12.0653 12.4905 12.0777 12.5026 12.0818C12.5108 12.0818 12.527 12.0818 12.531 12.0901C12.5351 12.1024 12.5148 12.0983 12.5067 12.0983L12.4378 12.1024C12.4256 12.1024 12.4134 12.1066 12.4053 12.1024C12.3931 12.1024 12.3972 12.0859 12.4094 12.0859C12.4215 12.0859 12.4337 12.0818 12.4378 12.0694L12.4337 12.0364L12.4053 11.9206C12.4053 11.9082 12.3931 11.9082 12.381 11.9082C12.3728 11.9082 12.3566 11.9165 12.3526 11.9041C12.3526 11.8876 12.3728 11.8917 12.381 11.8876L12.4256 11.8711C12.4337 11.8711 12.4378 11.8752 12.4378 11.8835L12.4783 12.0529ZM12.6284 11.9165C12.6284 11.9 12.6162 11.8835 12.6 11.8835C12.5878 11.8835 12.5716 11.8835 12.5676 11.8958C12.5635 11.9124 12.5676 11.9289 12.5838 11.9372L12.6203 11.9578L12.6284 11.933V11.9165ZM12.6608 12.0364C12.6608 12.0157 12.6365 12.0033 12.6203 11.995C12.6122 11.995 12.6041 11.9868 12.6 11.9909C12.5937 11.9955 12.5888 12.0018 12.586 12.0091C12.5831 12.0165 12.5823 12.0245 12.5838 12.0322C12.5919 12.057 12.6041 12.0735 12.6244 12.0735C12.6406 12.0777 12.6568 12.0735 12.6649 12.057V12.0364H12.6608ZM12.7014 12.0281C12.7014 12.0488 12.6933 12.0694 12.6771 12.0818C12.6568 12.0983 12.6244 12.0983 12.596 12.0901C12.5716 12.0859 12.5554 12.0653 12.5473 12.0405C12.5473 12.0198 12.5513 11.9992 12.5676 11.9826C12.5716 11.9826 12.5878 11.9785 12.5757 11.9744C12.5554 11.9661 12.5351 11.9496 12.5351 11.9248C12.527 11.9041 12.5351 11.8835 12.5554 11.8711C12.5734 11.8616 12.5941 11.8594 12.6136 11.8648C12.6331 11.8701 12.65 11.8827 12.6608 11.9C12.669 11.9165 12.669 11.9372 12.6608 11.9496L12.6365 11.9702C12.6568 11.9702 12.6771 11.9868 12.6852 12.0033C12.6933 12.0074 12.6974 12.0198 12.6974 12.0281H12.7014ZM12.8312 12.0529C12.8394 12.0529 12.8515 12.0446 12.8515 12.0364C12.8556 12.0281 12.8515 12.0074 12.8637 12.0116C12.8759 12.0116 12.8718 12.024 12.8759 12.0364C12.8759 12.0529 12.8759 12.0694 12.8596 12.0818C12.8515 12.0901 12.8394 12.0859 12.8272 12.0859H12.7582C12.7501 12.0859 12.7379 12.0942 12.7298 12.0859C12.7217 12.0777 12.7298 12.0653 12.7298 12.057C12.7379 12.0281 12.7542 12.0074 12.7704 11.9909C12.7866 11.9785 12.8028 11.9661 12.8028 11.9454C12.8028 11.9289 12.8028 11.9124 12.7947 11.8958C12.7918 11.8912 12.7881 11.8872 12.7836 11.884C12.7792 11.8808 12.7742 11.8786 12.7689 11.8775C12.7636 11.8763 12.7581 11.8762 12.7528 11.8773C12.7475 11.8783 12.7424 11.8804 12.7379 11.8835C12.7258 11.8876 12.7176 11.9041 12.7258 11.9124C12.7339 11.9206 12.7501 11.9124 12.7542 11.9289C12.7623 11.9372 12.7542 11.9537 12.742 11.9537C12.7258 11.9537 12.7095 11.9413 12.7014 11.9248C12.6974 11.9041 12.7055 11.8793 12.7258 11.8669C12.746 11.8545 12.7704 11.8545 12.7947 11.8587C12.815 11.8669 12.8353 11.8835 12.8434 11.9082C12.8475 11.9248 12.8475 11.9454 12.8394 11.962C12.8231 11.9909 12.7907 12.0033 12.7704 12.0322C12.7663 12.0364 12.7623 12.0446 12.7663 12.057C12.7663 12.0446 12.7826 12.0488 12.7866 12.0488H12.8272L12.8312 12.0529ZM12.9894 12.0364C12.9894 12.0446 13.0016 12.057 13.0138 12.0611C13.0219 12.0611 13.0381 12.0611 13.0422 12.0694C13.0503 12.0818 13.03 12.0818 13.0219 12.0818H12.9124C12.9042 12.0777 12.9124 12.0611 12.9205 12.0653C12.9326 12.0653 12.9448 12.0611 12.9489 12.0488V12.0157L12.9205 11.9C12.9205 11.8876 12.9083 11.8876 12.9002 11.8876C12.888 11.8876 12.8759 11.8958 12.8718 11.8876C12.8637 11.8711 12.884 11.8711 12.8921 11.8669L12.9408 11.8504C12.9529 11.8504 12.9529 11.8545 12.957 11.8628L12.9894 12.0322V12.0364Z" fill="#B07E09"/>
<path d="M11.8319 8.66553L11.6778 8.85557C11.6291 9.07045 11.7508 9.23573 11.9902 9.37621C12.1808 9.50017 12.5378 9.52909 12.6514 9.42993L12.0956 8.89277L11.8319 8.66965V8.66553Z" fill="url(#paint9_radial_69_6526)" stroke="#4C0505" stroke-width="0.0204708"/>
<path d="M12.9592 14.2391L12.8781 14.1358C12.5255 14.6233 12.0728 15.0265 11.5516 15.3175C12.1641 15.144 12.5657 14.6895 12.9592 14.2391ZM12.3304 15.7142C12.5587 15.2593 12.805 14.8141 13.0688 14.3796L12.9836 14.268C12.6834 14.7721 12.3345 15.3713 12.3345 15.7142H12.3304ZM14.0261 10.9831C13.9876 10.798 13.9291 10.6179 13.8517 10.4459C13.4167 9.69905 12.8061 9.07425 12.0749 8.62785V8.61545H12.0911L12.087 8.61129H12.1033L12.0952 8.59889H12.1114L12.0992 8.58237H12.1154L12.1033 8.56997H12.1236L12.1114 8.55345H12.1276L12.1114 8.54105L12.1357 8.53693L12.1154 8.52453L12.1357 8.52041L12.1195 8.50801L12.1438 8.49973L12.1236 8.48733L12.1479 8.47493L12.1236 8.45841L12.152 8.45017L12.1195 8.43777L12.1479 8.42125H12.1154L12.1357 8.39229H12.1073L12.1195 8.37165H12.0952L12.1073 8.35097L12.0789 8.35513L12.0911 8.33033L12.0668 8.34685L12.0749 8.31793L12.0465 8.33445L12.0505 8.30553L12.0262 8.32621L12.0302 8.29729L12.01 8.31793V8.28901L11.9897 8.31381V8.28489L11.9734 8.30553L11.9654 8.28073L11.9491 8.30553L11.945 8.27661L11.9329 8.30553L11.9248 8.27661L11.9126 8.30553L11.9045 8.28073L11.8964 8.30553L11.8883 8.28073L11.8802 8.31381L11.872 8.28489L11.8599 8.31793L11.8477 8.28901V8.32205L11.8315 8.29313V8.32621L11.8112 8.30141V8.33445L11.795 8.30965V8.33861L11.7787 8.32621L11.7868 8.35513L11.7666 8.34273L11.7747 8.36753L11.7584 8.35925L11.7625 8.38405H11.7463L11.7544 8.40057H11.7422L11.7503 8.41709C11.7356 8.46373 11.7301 8.51289 11.7341 8.56173C11.7341 8.56997 11.7584 8.57825 11.7625 8.58653C11.7747 8.60305 11.7706 8.61129 11.7706 8.61129C11.7057 8.71873 11.6489 8.80137 11.6449 8.92533C11.6936 8.85921 11.7503 8.77657 11.8234 8.77657C11.7868 8.83857 11.7706 9.02865 11.8112 9.05757L11.8436 9.00385C11.8436 9.04517 11.8477 9.07821 11.8599 9.09889C11.872 9.07409 11.8842 9.04517 11.9004 9.02865C11.9004 9.09061 11.9086 9.14021 11.9248 9.16501C11.945 9.13193 11.9654 9.11541 11.9897 9.09889C11.9816 9.13605 11.9694 9.16913 11.9775 9.21045C12.0018 9.16913 12.0262 9.14021 12.0546 9.10713C12.0384 9.17325 12.0546 9.22285 12.0708 9.29309C12.087 9.21045 12.0952 9.19805 12.1317 9.16501C12.1357 9.24349 12.1236 9.31373 12.1398 9.35921C12.1722 9.28897 12.1966 9.29721 12.2209 9.25177C12.2128 9.31789 12.2006 9.38813 12.2209 9.44597C12.2327 9.40169 12.2602 9.36345 12.298 9.33853C12.298 9.42945 12.3183 9.41293 12.2655 9.49141C12.2899 9.49969 12.367 9.47489 12.4116 9.45425C12.3913 9.50381 12.3954 9.54101 12.3751 9.57821C12.4156 9.55341 12.4562 9.51621 12.4927 9.47901C12.4765 9.53689 12.4318 9.59473 12.4521 9.64845C12.4643 9.59473 12.5049 9.55341 12.5454 9.54513C12.5373 9.57405 12.5333 9.63605 12.4927 9.66497C12.5901 9.67321 12.6306 9.60713 12.6793 9.55341C12.6752 9.60713 12.6793 9.65257 12.7442 9.73109C12.732 9.63189 12.7523 9.65257 12.797 9.59473C12.8213 9.68149 12.8456 9.77653 12.9349 9.84265C12.8943 9.74761 12.8943 9.69801 12.9106 9.64017C12.9227 9.70217 12.9795 9.77653 12.9917 9.83025C13.0038 9.76825 13.012 9.70629 13.0322 9.66497C13.062 9.73889 13.0812 9.81685 13.089 9.89637C13.1093 9.85505 13.1256 9.81373 13.1336 9.77241C13.9369 10.6195 14.1154 11.7021 13.2351 12.8466C13.5515 12.6317 13.6326 12.2888 13.8071 11.9954C13.6367 12.3797 13.5637 12.8094 13.2594 13.1276C13.5515 12.8714 13.6124 12.6359 13.7868 12.388C13.6042 12.9045 13.3406 13.4705 12.9836 13.9912L13.1783 14.2061L13.3406 13.9209C13.7219 13.2846 14.3425 12.3714 14.0302 10.9831H14.0261Z" fill="#448127" stroke="#34541F" stroke-width="0.0204708"/>
<path d="M11.7268 8.49602C11.6862 8.50426 11.67 8.52082 11.6375 8.55386C11.6781 8.56214 11.7065 8.56626 11.743 8.56626C11.7511 8.56626 11.7552 8.54974 11.7552 8.54146L11.747 8.50014C11.747 8.49186 11.7227 8.49602 11.7146 8.50014L11.7268 8.49602Z" fill="#EAC102" stroke="#A08307" stroke-width="0.0204708"/>
<path d="M11.6375 8.55339C11.6664 8.54307 11.6963 8.53611 11.7268 8.53271C11.6979 8.54307 11.6679 8.55003 11.6375 8.55339Z" fill="#A08307"/>
<path d="M11.909 8.53337C11.9269 8.53337 11.9415 8.51857 11.9415 8.50033C11.9415 8.48209 11.9269 8.46729 11.909 8.46729C11.8911 8.46729 11.8766 8.48209 11.8766 8.50033C11.8766 8.51857 11.8911 8.53337 11.909 8.53337Z" fill="black" stroke="black" stroke-width="0.0102354"/>
<path d="M11.9168 8.51282C11.9236 8.51282 11.929 8.50542 11.929 8.49626C11.929 8.48714 11.9236 8.47974 11.9168 8.47974C11.9101 8.47974 11.9047 8.48714 11.9047 8.49626C11.9047 8.50542 11.9101 8.51282 11.9168 8.51282Z" fill="url(#paint10_radial_69_6526)"/>
<path d="M12.3354 15.7023C12.409 15.4547 12.5097 15.2162 12.6356 14.9916C12.7258 14.8201 12.8218 14.652 12.9237 14.4875L13.0292 14.3222L12.9277 14.4875C12.8302 14.6552 12.7355 14.8246 12.6438 14.9957C12.5251 15.2223 12.4221 15.457 12.3354 15.6981V15.7023ZM11.5688 15.3097C12.0427 15.0998 12.4571 14.7715 12.7736 14.3552C12.6138 14.5095 12.4621 14.6722 12.3192 14.8428C12.0944 15.0372 11.8412 15.1947 11.5688 15.3097ZM13.0819 14.0991C13.1143 14.0577 13.1427 14.0081 13.1711 13.9627C13.2582 13.8259 13.3394 13.6853 13.4145 13.5412C13.4713 13.4462 13.52 13.347 13.5687 13.252L13.7188 12.9627L13.6498 13.1074L13.5768 13.2561C13.4784 13.4494 13.3743 13.6396 13.2644 13.8263C13.2074 13.9199 13.1465 14.0108 13.0819 14.0991ZM13.3212 13.0619C13.4604 12.8942 13.5764 12.7079 13.666 12.5082C13.7979 12.2072 13.8801 11.8861 13.9094 11.5579C13.9061 11.6129 13.9047 11.668 13.9054 11.7231C13.8712 11.9965 13.7917 12.262 13.6701 12.5082C13.5785 12.7078 13.4612 12.894 13.3212 13.0619Z" fill="#34541F"/>
<path d="M13.2562 12.8228C13.3982 12.6692 13.517 12.4952 13.6092 12.3063C13.677 12.1654 13.7366 12.0206 13.7877 11.8725L13.7998 11.8353L13.812 11.7981L13.8364 11.7237C13.8779 11.514 13.8807 11.2982 13.8445 11.0874C13.847 11.194 13.8564 11.3002 13.8729 11.4056C13.8729 11.513 13.8648 11.6204 13.8445 11.7237C13.8323 11.7485 13.8282 11.7774 13.8201 11.8022L13.808 11.8394L13.7917 11.8766C13.7358 12.0241 13.6763 12.1701 13.6132 12.3146C13.5685 12.4092 13.517 12.5004 13.4591 12.5873C13.4 12.6743 13.332 12.7546 13.2562 12.827V12.8228Z" fill="#34541F"/>
<path d="M13.0172 14.0294C13.0699 13.9633 13.1146 13.8931 13.1632 13.8228L13.2362 13.7195L13.3052 13.6162L13.4269 13.3931L13.5324 13.1659C13.6054 13.0129 13.6744 12.8601 13.7352 12.6989C13.8566 12.3845 13.9291 12.0527 13.9502 11.7155C13.9844 11.3783 13.9485 11.0376 13.8448 10.7156C13.9592 11.0352 13.9981 11.3777 13.9583 11.7155C13.9368 12.054 13.8643 12.3871 13.7433 12.7031C13.6825 12.8601 13.6135 13.0129 13.5405 13.1659L13.4269 13.3931C13.3904 13.4716 13.3539 13.546 13.3093 13.6162C13.289 13.6575 13.2646 13.6865 13.2403 13.7237L13.1673 13.827L13.0212 14.0336L13.0172 14.0294Z" fill="#34541F"/>
<path d="M13.1309 14.1569C13.3217 13.839 13.503 13.5152 13.6745 13.1859C13.9222 12.6842 14.0435 12.1276 14.0274 11.5662C14.0274 11.3803 14.0112 11.1943 13.9787 11.0125C13.9801 11.0125 13.9814 11.0125 13.9828 11.0125C14.0193 11.1943 14.0314 11.3844 14.0314 11.5662C14.0304 11.9389 13.9814 12.3098 13.8854 12.6694C13.832 12.8484 13.7642 13.0225 13.6826 13.1901C13.5097 13.518 13.3271 13.8404 13.1349 14.1569H13.1309ZM12.0031 8.72339H12.0599C12.1177 8.73263 12.1738 8.75075 12.2262 8.77711C12.3618 8.85051 12.485 8.94535 12.5913 9.05807C12.4836 8.94927 12.3605 8.85739 12.2262 8.78535C12.1554 8.75339 12.0801 8.73251 12.0031 8.72339Z" fill="#34541F"/>
<path d="M12.6667 9.16917C12.6667 9.16917 12.7884 9.24353 12.8574 9.35097C12.8574 9.35097 12.6667 9.31381 12.5328 9.16089" fill="#448127"/>
<path d="M12.6676 9.16917C12.7453 9.21385 12.8119 9.27601 12.8623 9.35097L12.8664 9.35925H12.8583C12.7952 9.34461 12.7348 9.31949 12.6798 9.28485C12.623 9.25181 12.5743 9.21049 12.5297 9.16089C12.5964 9.23153 12.6783 9.28533 12.769 9.31793L12.8583 9.34685V9.35513C12.8338 9.31629 12.8037 9.28149 12.769 9.25181C12.7378 9.22121 12.7038 9.19353 12.6676 9.16917Z" fill="#34541F"/>
<path d="M12.3906 9.13135C12.3906 9.13135 12.6827 9.32143 12.7273 9.33795C12.7273 9.33795 12.6584 9.19335 12.5204 9.13135" fill="#448127"/>
<path d="M12.3906 9.13058L12.557 9.2339C12.5986 9.25918 12.6405 9.28398 12.6827 9.30826L12.7233 9.33306V9.33718C12.7017 9.29266 12.6729 9.25214 12.6381 9.21738C12.6039 9.1819 12.5642 9.15258 12.5204 9.13058C12.5664 9.14886 12.6079 9.17702 12.6421 9.21322C12.6771 9.24942 12.7059 9.2913 12.7273 9.33718L12.7354 9.34546L12.7233 9.34134L12.6381 9.29174C12.5543 9.23866 12.4718 9.18354 12.3906 9.12646V9.13058Z" fill="#34541F"/>
<path d="M12.5082 9.03589C12.5082 9.03589 12.6583 9.10201 12.6948 9.21357C12.6948 9.21357 12.419 9.09789 12.3703 9.03589" fill="#448127"/>
<path d="M12.5082 9.03589C12.5492 9.05197 12.5874 9.07425 12.6218 9.10201L12.6664 9.15161L12.6989 9.21357V9.22185H12.6908C12.5936 9.17585 12.4988 9.12485 12.4068 9.06897L12.3703 9.03589L12.4068 9.06485L12.4474 9.08961C12.5258 9.13881 12.6087 9.18029 12.6948 9.21357H12.6908C12.6827 9.19705 12.6746 9.17225 12.6583 9.15985C12.6482 9.14077 12.6344 9.12393 12.6178 9.11029C12.5852 9.08001 12.5482 9.05493 12.5082 9.03589Z" fill="#34541F"/>
<path d="M12.2781 9.15625C12.2781 9.15625 12.5459 9.35045 12.627 9.35045C12.627 9.35045 12.5459 9.21409 12.4079 9.15625" fill="#448127"/>
<path d="M12.2781 9.15625C12.3762 9.21897 12.4763 9.27825 12.5783 9.33393L12.627 9.34633L12.623 9.35461C12.5976 9.31157 12.5661 9.27261 12.5296 9.23889C12.493 9.20573 12.4521 9.17793 12.4079 9.15625C12.4776 9.18393 12.5391 9.22949 12.5864 9.28849L12.627 9.35045L12.6351 9.35461H12.627C12.6067 9.35461 12.5905 9.35045 12.5743 9.34221L12.5337 9.32153C12.4427 9.27637 12.357 9.22093 12.2781 9.15625Z" fill="#34541F"/>
<path d="M12.2781 9.21352C12.2781 9.21352 12.416 9.33748 12.4972 9.33748C12.4972 9.33748 12.416 9.20112 12.2781 9.13916" fill="#448127"/>
<path d="M12.2781 9.21404C12.3296 9.25248 12.3839 9.287 12.4404 9.31732L12.4647 9.3256L12.4972 9.33388L12.4931 9.338C12.4674 9.29644 12.436 9.25888 12.3998 9.22644C12.3632 9.19324 12.3223 9.16544 12.2781 9.1438C12.3474 9.17028 12.4088 9.2144 12.4566 9.27188L12.4972 9.33388L12.5053 9.34212H12.4972C12.4746 9.34128 12.4526 9.33564 12.4323 9.3256C12.3942 9.30716 12.3587 9.28352 12.3268 9.25536C12.3081 9.24496 12.2915 9.23092 12.2781 9.21404Z" fill="#34541F"/>
<path d="M12.2047 8.94531C12.2047 8.94531 12.4968 9.15603 12.5292 9.27175C12.5292 9.27175 12.2696 9.14779 12.2209 9.08579" fill="#448127"/>
<path d="M12.2047 8.94531C12.3145 9.02595 12.4164 9.11731 12.5089 9.21803L12.5373 9.26759V9.27999L12.5292 9.27587C12.4347 9.22679 12.3427 9.17303 12.2534 9.11471L12.2939 9.13951C12.3712 9.18819 12.4527 9.22967 12.5373 9.26347L12.5292 9.27175L12.5008 9.22215C12.4416 9.14519 12.3736 9.07583 12.298 9.01555L12.2047 8.94531Z" fill="#34541F"/>
<path d="M10.5822 14.9C10.3272 15.0359 10.0425 15.1041 9.75468 15.0983C10.1604 14.7595 10.5538 14.7512 10.5822 14.9ZM13.4138 15.0859C13.6247 15.2801 14.2657 15.4164 14.3671 15.3917C13.9371 14.9495 13.4706 14.9041 13.4138 15.0859Z" fill="#406325" stroke="#24420E" stroke-width="0.0204708"/>
<path d="M10.5822 14.9C10.5538 14.7472 10.1563 14.7596 9.75468 15.0984C10.0191 14.9901 10.2982 14.9232 10.5822 14.9ZM13.4178 15.0818C13.4746 14.9 13.9371 14.9455 14.3671 15.3917C14.0673 15.2416 13.7475 15.1372 13.4178 15.0818Z" fill="#67923D" stroke="#24420E" stroke-width="0.0204708"/>
</g>
</g>
</g>
<defs>
<radialGradient id="paint0_radial_69_6526" cx="0" cy="0" r="1" gradientUnits="userSpaceOnUse" gradientTransform="translate(10.6798 12.3392) scale(0.669348 0.68178)">
<stop offset="0.2" stop-color="#F9F0AA"/>
<stop offset="1" stop-color="#B07E09"/>
</radialGradient>
<radialGradient id="paint1_radial_69_6526" cx="0" cy="0" r="1" gradientUnits="userSpaceOnUse" gradientTransform="translate(10.8507 12.5319) scale(0.442175 0.450388)">
<stop offset="0.2" stop-color="#F9F0AA"/>
<stop offset="1" stop-color="#B07E09"/>
</radialGradient>
<radialGradient id="paint2_radial_69_6526" cx="0" cy="0" r="1" gradientUnits="userSpaceOnUse" gradientTransform="translate(10.9516 12.3504) scale(0.397553 0.404936)">
<stop offset="0.2" stop-color="#F9F0AA"/>
<stop offset="1" stop-color="#B07E09"/>
</radialGradient>
<radialGradient id="paint3_radial_69_6526" cx="0" cy="0" r="1" gradientUnits="userSpaceOnUse" gradientTransform="translate(11.1263 12.2888) scale(0.705855 0.718968)">
<stop offset="0.2" stop-color="#F9F0AA"/>
<stop offset="1" stop-color="#B07E09"/>
</radialGradient>
<linearGradient id="paint4_linear_69_6526" x1="11.7555" y1="10.31" x2="11.6924" y2="9.18622" gradientUnits="userSpaceOnUse">
<stop offset="0.2" stop-color="#B07E09" stop-opacity="0"/>
<stop offset="1" stop-color="#B07E09"/>
</linearGradient>
<linearGradient id="paint5_linear_69_6526" x1="12.1285" y1="11.8589" x2="12.2295" y2="13.0941" gradientUnits="userSpaceOnUse">
<stop offset="0.2" stop-color="#B07E09" stop-opacity="0"/>
<stop offset="1" stop-color="#B07E09"/>
</linearGradient>
<radialGradient id="paint6_radial_69_6526" cx="0" cy="0" r="1" gradientUnits="userSpaceOnUse" gradientTransform="translate(10.6238 10.029) scale(0.527365 0.537159)">
<stop offset="0.2" stop-color="#F9F0AA"/>
<stop offset="1" stop-color="#B07E09"/>
</radialGradient>
<linearGradient id="paint7_linear_69_6526" x1="10.8476" y1="9.90918" x2="11.0107" y2="9.54366" gradientUnits="userSpaceOnUse">
<stop offset="0.2" stop-color="#F9F0AA"/>
<stop offset="1" stop-color="#B07E09"/>
</linearGradient>
<linearGradient id="paint8_linear_69_6526" x1="11.7319" y1="9.40047" x2="11.8413" y2="10.7719" gradientUnits="userSpaceOnUse">
<stop offset="0.2" stop-color="#F9F0AA"/>
<stop offset="1" stop-color="#B07E09"/>
</linearGradient>
<radialGradient id="paint9_radial_69_6526" cx="0" cy="0" r="1" gradientUnits="userSpaceOnUse" gradientTransform="translate(11.9171 8.49609) scale(0.01217 0.012396)">
<stop offset="0.3" stop-color="#A50A0A"/>
<stop offset="1" stop-color="#4C0505"/>
</radialGradient>
<radialGradient id="paint10_radial_69_6526" cx="0" cy="0" r="1" gradientUnits="userSpaceOnUse" gradientTransform="translate(11.9162 8.49354) scale(0.0118913 0.012687)">
<stop stop-color="white"/>
<stop offset="1" stop-color="white" stop-opacity="0"/>
</radialGradient>
<clipPath id="clip0_69_6526">
<rect width="24" height="24" rx="12" fill="white"/>
</clipPath>
<clipPath id="clip1_69_6526">
<rect width="32" height="24" fill="white" transform="translate(-4)"/>
</clipPath>
</defs>
</svg>
