<svg width="24" height="24" viewBox="0 0 24 24" fill="none" xmlns="http://www.w3.org/2000/svg">
<g clip-path="url(#clip0_69_6497)">
<path fill-rule="evenodd" clip-rule="evenodd" d="M0 12C0 5.37258 5.37258 0 12 0C18.6274 0 24 5.37258 24 12C24 18.6274 18.6274 24 12 24C5.37258 24 0 18.6274 0 12Z" fill="#3B5AA3"/>
<path fill-rule="evenodd" clip-rule="evenodd" d="M0.8 12C0.8 18.1856 5.81441 23.2 12 23.2C18.1856 23.2 23.2 18.1856 23.2 12C23.2 5.81441 18.1856 0.8 12 0.8C5.81441 0.8 0.8 5.81441 0.8 12ZM12 0C5.37258 0 0 5.37258 0 12C0 18.6274 5.37258 24 12 24C18.6274 24 24 18.6274 24 12C24 5.37258 18.6274 0 12 0Z" fill="#BE0027"/>
<path fill-rule="evenodd" clip-rule="evenodd" d="M11.7203 20.6605C11.7858 20.6917 11.8572 20.7083 11.9298 20.7092C12.0023 20.7101 12.0741 20.6951 12.1403 20.6655C19.0303 17.0005 19.0303 6.95046 12.1453 3.33546C12.0767 3.30424 12.002 3.28893 11.9267 3.29066C11.8514 3.29239 11.7774 3.31112 11.7103 3.34546C4.99532 7.01546 4.97532 16.9505 11.7153 20.6605H11.7203Z" fill="#CBE0E5"/>
<path fill-rule="evenodd" clip-rule="evenodd" d="M11.7192 20.8447C11.8192 20.9297 12.0392 20.9197 12.1392 20.8447C17.2142 17.0447 17.2392 14.6797 17.0192 14.6797H6.96924C6.81924 14.6797 7.05924 17.0897 11.7192 20.8447Z" fill="#ADD2D9"/>
<path fill-rule="evenodd" clip-rule="evenodd" d="M7.76436 16.5597C8.22404 16.4156 8.7206 16.4459 9.15936 16.6446C9.53936 16.8446 9.75936 16.8446 10.1694 16.8446C10.5994 16.8546 10.9344 17.1697 11.3994 17.1847C12.2544 17.2047 12.6144 17.6297 11.9494 17.6347C11.6394 17.6347 10.9644 17.4196 10.6394 17.4646C9.95936 17.5346 9.52936 17.6846 8.88936 18.3996L9.62936 18.8996C10.2694 18.6446 10.3744 18.3496 10.7294 18.3396C11.1294 18.3246 11.2644 18.0797 11.7294 18.0797C12.2845 18.126 12.8435 18.0718 13.3794 17.9196C14.1194 17.7496 13.7694 17.2296 13.3194 17.0446C12.9544 16.8896 12.2794 17.0397 11.8594 16.8847C11.5394 16.7597 11.7994 16.5596 11.9744 16.5196C12.1444 16.4846 12.3294 16.5447 12.5444 16.5796C12.9294 16.6097 13.4144 16.5746 13.7494 16.5196C14.4494 16.4146 14.4194 16.2096 14.7494 16.2046C14.9994 16.1896 15.1844 16.1196 15.3494 15.9996C15.5494 15.8646 15.7544 15.5997 15.9944 15.6097L16.6294 15.6347L15.7294 17.6547L13.1944 20.2396L11.8794 20.7396L8.98936 18.8547L7.53436 16.6196L7.76936 16.5597H7.76436Z" fill="#FDF9A1"/>
<path fill-rule="evenodd" clip-rule="evenodd" d="M11.0894 14.5994L16.8894 14.5694L16.9894 14.0544C16.9894 14.0544 16.7844 14.0244 16.6144 14.0144C16.4094 13.9994 16.0494 14.2344 15.8144 14.2294C15.6394 14.2294 15.4494 13.9294 15.2794 13.9294C14.9794 13.9294 14.9594 14.1944 14.6794 14.2044C14.4544 14.1944 14.3594 14.0244 14.0644 14.0444C13.7644 14.0594 13.7844 14.2294 13.3994 14.2194C12.8894 14.2044 12.6844 13.7644 12.2744 13.7594C11.5944 13.7494 11.5744 14.4094 11.0844 14.5944L11.0894 14.5994Z" fill="#179A3B"/>
<path fill-rule="evenodd" clip-rule="evenodd" d="M11.09 14.7198L17.06 14.6898V14.5298L10.95 14.5598L11.085 14.7198H11.09Z" fill="#FDF9A1"/>
<path fill-rule="evenodd" clip-rule="evenodd" d="M13.54 16.5156C13.635 16.8656 13.73 16.9856 14.1 17.0806C14.465 17.1656 15.025 16.8106 14.68 16.4656C14.35 16.1456 14 16.0656 13.705 15.7756C13.08 15.1606 12.14 13.6506 12.14 12.5856C12.14 11.6706 12.05 9.79563 12.05 8.02063C12.05 7.90563 11.7 8.34063 11.7 8.46063C11.72 10.0256 11.72 11.2106 11.78 12.7906C11.88 13.9456 12.43 14.7256 12.915 15.4256C13.13 15.7656 13.445 16.1256 13.54 16.5156Z" fill="#A79270"/>
<path d="M9.77596 11.5677C9.76268 11.5269 9.74516 11.4905 9.7234 11.4582C9.70204 11.4256 9.67644 11.3978 9.6466 11.3748C9.6172 11.3518 9.58372 11.3343 9.54624 11.3222C9.50876 11.3101 9.46768 11.3041 9.42292 11.3041C9.34956 11.3041 9.28288 11.323 9.2228 11.3609C9.16276 11.3988 9.115 11.4546 9.07956 11.5283C9.04408 11.6021 9.02636 11.6926 9.02636 11.7998C9.02636 11.907 9.04428 11.9975 9.08016 12.0712C9.116 12.145 9.1646 12.2008 9.22584 12.2387C9.28712 12.2766 9.35604 12.2955 9.4326 12.2955C9.50352 12.2955 9.566 12.2804 9.62 12.2502C9.6744 12.2195 9.71672 12.1764 9.74696 12.1208C9.7776 12.0648 9.79292 11.9989 9.79292 11.9231L9.83884 11.9328H9.46644V11.7998H9.938V11.9328C9.938 12.0348 9.91624 12.1234 9.87272 12.1988C9.8296 12.2742 9.76992 12.3326 9.69376 12.3741C9.618 12.4152 9.53092 12.4358 9.4326 12.4358C9.32296 12.4358 9.22664 12.41 9.14364 12.3584C9.061 12.3068 8.99652 12.2335 8.95016 12.1383C8.90424 12.0432 8.88124 11.9304 8.88124 11.7998C8.88124 11.7019 8.89436 11.6138 8.92056 11.5356C8.94716 11.457 8.98464 11.3901 9.033 11.3349C9.08136 11.2797 9.1386 11.2374 9.20468 11.2079C9.27076 11.1785 9.34352 11.1638 9.42292 11.1638C9.4882 11.1638 9.54908 11.1737 9.60548 11.1934C9.66232 11.2128 9.71292 11.2404 9.75724 11.2763C9.80196 11.3117 9.83924 11.3543 9.86908 11.4038C9.89892 11.453 9.91944 11.5076 9.93076 11.5677H9.77596Z" fill="#BD0728"/>
<path d="M9.77596 11.5676L9.7254 11.5842L9.7374 11.6208H9.77596V11.5676ZM9.7234 11.4582L9.67888 11.4873L9.67928 11.488L9.7234 11.4582ZM9.79292 11.9231L9.80388 11.871L9.73972 11.8575V11.9231H9.79292ZM9.83884 11.9328V11.986L9.8498 11.8807L9.83884 11.9328ZM9.46644 11.9328H9.41324V11.986H9.46644V11.9328ZM9.46644 11.7998V11.7466H9.41324V11.7998H9.46644ZM9.938 11.7998H9.9912V11.7466H9.938V11.7998ZM9.60548 11.1934L9.58792 11.2436L9.58836 11.2438L9.60548 11.1934ZM9.75724 11.2762L9.72376 11.3176L9.7242 11.3179L9.75724 11.2762ZM9.93076 11.5676V11.6208H9.99488L9.98304 11.5578L9.93076 11.5676ZM9.82656 11.5511C9.81188 11.5062 9.79228 11.4652 9.76748 11.4284L9.67928 11.488C9.69804 11.5157 9.71348 11.5477 9.7254 11.5842L9.82656 11.5511ZM9.76792 11.4291C9.7434 11.3916 9.7138 11.3594 9.67908 11.3326L9.61388 11.4167C9.6388 11.4359 9.66064 11.4595 9.67888 11.4873L9.76792 11.4291ZM9.67908 11.3326C9.64448 11.3056 9.60568 11.2854 9.5626 11.2716L9.52992 11.3728C9.5618 11.3831 9.58964 11.3978 9.61388 11.4167L9.67908 11.3326ZM9.5626 11.2716C9.51916 11.2576 9.47248 11.2508 9.42292 11.2508V11.3572C9.46284 11.3572 9.49836 11.3626 9.52992 11.3728L9.5626 11.2716ZM9.42292 11.2508C9.33988 11.2508 9.26328 11.2724 9.19444 11.3159L9.2512 11.4059C9.30248 11.3735 9.35928 11.3572 9.42292 11.3572V11.2508ZM9.19444 11.3159C9.12472 11.3599 9.07072 11.4239 9.0316 11.5053L9.12748 11.5514C9.15928 11.4852 9.20084 11.4376 9.2512 11.4059L9.19444 11.3159ZM9.0316 11.5053C8.99176 11.5881 8.97316 11.687 8.97316 11.7998H9.07956C9.07956 11.6982 9.09636 11.6161 9.12748 11.5514L9.0316 11.5053ZM8.97316 11.7998C8.97316 11.9127 8.992 12.0116 9.03232 12.0945L9.128 12.048C9.09656 11.9833 9.07956 11.9013 9.07956 11.7998H8.97316ZM9.03232 12.0945C9.07196 12.176 9.12688 12.24 9.19788 12.2839L9.25384 12.1934C9.20228 12.1616 9.16008 12.1139 9.128 12.048L9.03232 12.0945ZM9.19788 12.2839C9.26808 12.3273 9.3468 12.3487 9.4326 12.3487V12.2423C9.36524 12.2423 9.30612 12.2258 9.25384 12.1934L9.19788 12.2839ZM9.4326 12.3487C9.51128 12.3487 9.58296 12.3319 9.646 12.2966L9.59404 12.2037C9.54904 12.2289 9.49576 12.2423 9.4326 12.2423V12.3487ZM9.646 12.2966C9.70924 12.261 9.75876 12.2105 9.79372 12.1462L9.70028 12.0953C9.67476 12.1422 9.6396 12.1781 9.59404 12.2037L9.646 12.2966ZM9.79372 12.1462C9.82936 12.081 9.84612 12.0061 9.84612 11.9231H9.73972C9.73972 11.9916 9.72588 12.0484 9.70028 12.0953L9.79372 12.1462ZM9.78196 11.9752L9.82788 11.9848L9.8498 11.8807L9.80388 11.871L9.78196 11.9752ZM9.83884 11.8796H9.46644V11.986H9.83884V11.8796ZM9.51964 11.9328V11.7998H9.41324V11.9328H9.51964ZM9.46644 11.853H9.938V11.7466H9.46644V11.853ZM9.8848 11.7998V11.9328H9.9912V11.7998H9.8848ZM9.8848 11.9328C9.8848 12.027 9.86476 12.1062 9.82664 12.1722L9.91876 12.2254C9.96772 12.1406 9.9912 12.0425 9.9912 11.9328H9.8848ZM9.82664 12.1722C9.7884 12.239 9.7358 12.2906 9.66832 12.3274L9.71912 12.4208C9.80396 12.3746 9.87076 12.3093 9.91876 12.2254L9.82664 12.1722ZM9.66832 12.3274C9.60136 12.3637 9.52332 12.3826 9.4326 12.3826V12.489C9.53852 12.489 9.63452 12.4668 9.71912 12.4208L9.66832 12.3274ZM9.4326 12.3826C9.33164 12.3826 9.24532 12.3589 9.17172 12.3132L9.11544 12.4035C9.20788 12.461 9.31428 12.489 9.4326 12.489V12.3826ZM9.17172 12.3132C9.09828 12.2674 9.04036 12.202 8.998 12.115L8.90228 12.1615C8.9526 12.2648 9.02364 12.3462 9.11544 12.4035L9.17172 12.3132ZM8.998 12.115C8.95624 12.0286 8.93444 11.9242 8.93444 11.7998H8.82804C8.82804 11.9365 8.85212 12.0576 8.90228 12.1615L8.998 12.115ZM8.93444 11.7998C8.93444 11.7065 8.94692 11.6243 8.971 11.5525L8.87016 11.5185C8.8418 11.6031 8.82804 11.6972 8.82804 11.7998H8.93444ZM8.971 11.5525C8.99568 11.4796 9.0298 11.4192 9.073 11.3699L8.99296 11.2998C8.93944 11.361 8.89872 11.4342 8.87016 11.5185L8.971 11.5525ZM9.073 11.3699C9.11636 11.3204 9.16736 11.2828 9.22632 11.2565L9.18304 11.1593C9.1098 11.1919 9.04632 11.2389 8.99296 11.2998L9.073 11.3699ZM9.22632 11.2565C9.28496 11.2304 9.35024 11.217 9.42292 11.217V11.1106C9.3368 11.1106 9.2566 11.1266 9.18304 11.1593L9.22632 11.2565ZM9.42292 11.217C9.4828 11.217 9.53764 11.226 9.58792 11.2436L9.62308 11.1432C9.56052 11.1213 9.49364 11.1106 9.42292 11.1106V11.217ZM9.58836 11.2438C9.63956 11.2612 9.68456 11.2859 9.72376 11.3176L9.79072 11.2349C9.74124 11.1949 9.68508 11.1643 9.62264 11.143L9.58836 11.2438ZM9.7242 11.3179C9.76384 11.3494 9.79692 11.387 9.82348 11.4312L9.91468 11.3764C9.8816 11.3214 9.84008 11.274 9.79028 11.2346L9.7242 11.3179ZM9.82348 11.4312C9.84976 11.4746 9.86828 11.5233 9.87844 11.5774L9.98304 11.5578C9.97064 11.4919 9.94804 11.4313 9.91468 11.3764L9.82348 11.4312ZM9.93076 11.5144H9.77596V11.6208H9.93076V11.5144Z" fill="white"/>
<path d="M11.2718 11.1885H11.4217V12.0082C11.4217 12.0929 11.4018 12.1685 11.3619 12.235C11.3224 12.301 11.2666 12.3532 11.1944 12.3915C11.1223 12.4294 11.0376 12.4484 10.9405 12.4484C10.8434 12.4484 10.7588 12.4294 10.6866 12.3915C10.6145 12.3532 10.5584 12.301 10.5186 12.235C10.479 12.1685 10.4593 12.0929 10.4593 12.0082V11.1885H10.6092V11.9962C10.6092 12.0566 10.6225 12.1104 10.6491 12.1576C10.6757 12.2043 10.7136 12.2412 10.7628 12.2682C10.8124 12.2948 10.8716 12.3081 10.9405 12.3081C11.0094 12.3081 11.0687 12.2948 11.1182 12.2682C11.1678 12.2412 11.2057 12.2043 11.2319 12.1576C11.2585 12.1104 11.2718 12.0566 11.2718 11.9962V11.1885Z" fill="#BD0728"/>
<path d="M11.2718 11.1885V11.1353H11.2186V11.1885H11.2718ZM11.4217 11.1885H11.4749V11.1353H11.4217V11.1885ZM10.4593 11.1885V11.1353H10.4061V11.1885H10.4593ZM10.6092 11.1885H10.6624V11.1353H10.6092V11.1885ZM10.7628 12.2682L10.7372 12.3148L10.7376 12.3151L10.7628 12.2682ZM11.2718 11.2417H11.4217V11.1353H11.2718V11.2417ZM11.3685 11.1885V12.0082H11.4749V11.1885H11.3685ZM11.3685 12.0082C11.3685 12.0841 11.3508 12.1501 11.3163 12.2076L11.4075 12.2623C11.4528 12.1868 11.4749 12.1016 11.4749 12.0082H11.3685ZM11.3163 12.2076C11.282 12.2648 11.2336 12.3105 11.1695 12.3445L11.2192 12.4386C11.2994 12.3961 11.3627 12.3373 11.4075 12.2623L11.3163 12.2076ZM11.1695 12.3445C11.1063 12.3777 11.0307 12.3951 10.9405 12.3951V12.5015C11.0446 12.5015 11.138 12.4812 11.2192 12.4386L11.1695 12.3445ZM10.9405 12.3951C10.8504 12.3951 10.7745 12.3776 10.7114 12.3444L10.6617 12.4385C10.7428 12.4811 10.8364 12.5015 10.9405 12.5015V12.3951ZM10.7114 12.3444C10.6472 12.3104 10.5987 12.2648 10.5641 12.2075L10.4728 12.2621C10.518 12.3369 10.5815 12.396 10.6617 12.4385L10.7114 12.3444ZM10.5641 12.2075C10.5299 12.1499 10.5125 12.0843 10.5125 12.0082H10.4061C10.4061 12.1015 10.428 12.1866 10.4728 12.2621L10.5641 12.2075ZM10.5125 12.0082V11.1885H10.4061V12.0082H10.5125ZM10.4593 11.2417H10.6092V11.1353H10.4593V11.2417ZM10.556 11.1885V11.9961H10.6624V11.1885H10.556ZM10.556 11.9961C10.556 12.0647 10.5712 12.1277 10.6028 12.1837L10.6955 12.1314C10.6739 12.0931 10.6624 12.0485 10.6624 11.9961H10.556ZM10.6028 12.1837C10.6345 12.2394 10.6798 12.2833 10.7372 12.3148L10.7884 12.2216C10.7474 12.1991 10.717 12.1692 10.6955 12.1314L10.6028 12.1837ZM10.7376 12.3151C10.7965 12.3467 10.8648 12.3613 10.9405 12.3613V12.2549C10.8784 12.2549 10.8282 12.2429 10.7879 12.2213L10.7376 12.3151ZM10.9405 12.3613C11.0163 12.3613 11.0846 12.3467 11.1434 12.3151L11.0931 12.2213C11.0528 12.2429 11.0026 12.2549 10.9405 12.2549V12.3613ZM11.1434 12.3151C11.2013 12.2835 11.247 12.2395 11.2783 12.1836L11.1856 12.1314C11.1645 12.169 11.1344 12.1988 11.0931 12.2213L11.1434 12.3151ZM11.2783 12.1836C11.3099 12.1275 11.325 12.0647 11.325 11.9961H11.2186C11.2186 12.0485 11.2072 12.0931 11.1856 12.1314L11.2783 12.1836ZM11.325 11.9961V11.1885H11.2186V11.9961H11.325Z" fill="white"/>
<path d="M12.3648 12.4266H12.2076L12.6622 11.1885H12.817L13.2716 12.4266H13.1144L12.7444 11.3844H12.7348L12.3648 12.4266ZM12.4228 11.943H13.0564V12.076H12.4228V11.943Z" fill="#BD0728"/>
<path d="M12.3648 12.4266V12.4798H12.4023L12.4149 12.4444L12.3648 12.4266ZM12.2076 12.4266L12.1576 12.4083L12.1314 12.4798H12.2076V12.4266ZM12.6622 11.1885V11.1353H12.6251L12.6123 11.1701L12.6622 11.1885ZM12.817 11.1885L12.8669 11.1701L12.8541 11.1353H12.817V11.1885ZM13.2716 12.4266V12.4798H13.3478L13.3215 12.4083L13.2716 12.4266ZM13.1144 12.4266L13.0643 12.4444L13.0768 12.4798H13.1144V12.4266ZM12.7444 11.3843L12.7946 11.3665L12.782 11.3311H12.7444V11.3843ZM12.7348 11.3843V11.3311H12.6972L12.6846 11.3665L12.7348 11.3843ZM12.4228 11.9429V11.8897H12.3696V11.9429H12.4228ZM13.0564 11.9429H13.1096V11.8897H13.0564V11.9429ZM13.0564 12.0759V12.1291H13.1096V12.0759H13.0564ZM12.4228 12.0759H12.3696V12.1291H12.4228V12.0759ZM12.3648 12.3734H12.2076V12.4798H12.3648V12.3734ZM12.2575 12.4449L12.7122 11.2068L12.6123 11.1701L12.1576 12.4083L12.2575 12.4449ZM12.6622 11.2417H12.817V11.1353H12.6622V11.2417ZM12.767 11.2068L13.2216 12.4449L13.3215 12.4083L12.8669 11.1701L12.767 11.2068ZM13.2716 12.3734H13.1144V12.4798H13.2716V12.3734ZM13.1646 12.4088L12.7946 11.3665L12.6943 11.4021L13.0643 12.4444L13.1646 12.4088ZM12.7444 11.3311H12.7348V11.4375H12.7444V11.3311ZM12.6846 11.3665L12.3146 12.4088L12.4149 12.4444L12.7849 11.4021L12.6846 11.3665ZM12.4228 11.9961H13.0564V11.8897H12.4228V11.9961ZM13.0032 11.9429V12.0759H13.1096V11.9429H13.0032ZM13.0564 12.0227H12.4228V12.1291H13.0564V12.0227ZM12.476 12.0759V11.9429H12.3696V12.0759H12.476Z" fill="white"/>
<path d="M13.8765 11.1807H14.0554L14.4762 12.2084H14.4907L14.9115 11.1807H15.0904V12.4188H14.9502V11.4781H14.9381L14.5512 12.4188H14.4158L14.0288 11.4781H14.0168V12.4188H13.8765V11.1807Z" fill="#BD0728"/>
<path d="M13.8765 11.1806V11.1274H13.8233V11.1806H13.8765ZM14.0554 11.1806L14.1047 11.1605L14.0912 11.1274H14.0554V11.1806ZM14.4762 12.2084L14.427 12.2285L14.4405 12.2616H14.4762V12.2084ZM14.4907 12.2084V12.2616H14.5264L14.54 12.2285L14.4907 12.2084ZM14.9115 11.1806V11.1274H14.8758L14.8622 11.1605L14.9115 11.1806ZM15.0904 11.1806H15.1436V11.1274H15.0904V11.1806ZM15.0904 12.4188V12.472H15.1436V12.4188H15.0904ZM14.9502 12.4188H14.897V12.472H14.9502V12.4188ZM14.9502 11.4781H15.0034V11.4249H14.9502V11.4781ZM14.9381 11.4781V11.4249H14.9024L14.8889 11.4578L14.9381 11.4781ZM14.5512 12.4188V12.472H14.5868L14.6004 12.439L14.5512 12.4188ZM14.4158 12.4188L14.3666 12.439L14.3801 12.472H14.4158V12.4188ZM14.0288 11.4781L14.078 11.4578L14.0645 11.4249H14.0288V11.4781ZM14.0168 11.4781V11.4249H13.9636V11.4781H14.0168ZM14.0168 12.4188V12.472H14.07V12.4188H14.0168ZM13.8765 12.4188H13.8233V12.472H13.8765V12.4188ZM13.8765 11.2338H14.0554V11.1274H13.8765V11.2338ZM14.0062 11.2008L14.427 12.2285L14.5254 12.1882L14.1047 11.1605L14.0062 11.2008ZM14.4762 12.2616H14.4907V12.1552H14.4762V12.2616ZM14.54 12.2285L14.9607 11.2008L14.8622 11.1605L14.4415 12.1882L14.54 12.2285ZM14.9115 11.2338H15.0904V11.1274H14.9115V11.2338ZM15.0372 11.1806V12.4188H15.1436V11.1806H15.0372ZM15.0904 12.3656H14.9502V12.472H15.0904V12.3656ZM15.0034 12.4188V11.4781H14.897V12.4188H15.0034ZM14.9502 11.4249H14.9381V11.5313H14.9502V11.4249ZM14.8889 11.4578L14.502 12.3985L14.6004 12.439L14.9873 11.4983L14.8889 11.4578ZM14.5512 12.3656H14.4158V12.472H14.5512V12.3656ZM14.465 12.3985L14.078 11.4578L13.9796 11.4983L14.3666 12.439L14.465 12.3985ZM14.0288 11.4249H14.0168V11.5313H14.0288V11.4249ZM13.9636 11.4781V12.4188H14.07V11.4781H13.9636ZM14.0168 12.3656H13.8765V12.472H14.0168V12.3656ZM13.9297 12.4188V11.1806H13.8233V12.4188H13.9297Z" fill="white"/>
<path fill-rule="evenodd" clip-rule="evenodd" d="M8.97932 8.04417C8.90432 8.19417 9.15932 7.99917 9.21932 7.97917C9.55432 7.85917 9.68432 7.43917 10.2593 7.69417C10.7093 7.88917 11.3143 7.77417 10.9993 7.97417C10.6093 8.20917 9.82432 8.46917 9.80932 9.63417C9.87432 9.74417 9.87932 9.72917 9.93432 9.60417C10.0543 9.33417 10.6193 8.59917 10.8993 8.65917C11.0143 8.68917 11.3443 8.32417 11.3493 8.42917C11.3843 8.71917 10.8993 9.30917 10.9093 10.0942C10.9093 10.2792 11.1343 10.3392 11.2393 10.2092C11.3493 10.0942 11.4093 9.97917 11.5993 9.82917C11.9293 9.55917 11.8393 8.39917 11.8793 8.45417C12.1143 8.75417 12.1493 9.61917 12.4993 9.96917C12.7943 10.2642 13.0293 10.1192 12.9643 9.71917C12.8393 8.89917 12.4543 9.13417 12.2693 8.28917C12.2293 8.12417 12.2193 7.97917 12.4393 8.04417C12.7043 8.12417 12.8643 8.24417 13.0593 8.54417C13.2593 8.83417 13.6293 9.10917 13.8443 9.27417C14.2193 9.56417 14.3543 9.31417 14.1743 8.94417C13.9457 8.52397 13.5728 8.20073 13.1243 8.03417C12.8143 7.92417 12.7043 7.91417 12.4343 7.86417C12.3593 7.84917 12.2843 7.69417 12.4143 7.60917C12.7035 7.40069 13.0405 7.26829 13.3943 7.22417C13.7293 7.21417 13.9943 7.48421 14.2293 7.55421C14.6993 7.67421 14.6993 7.37921 14.4893 7.15421C14.3193 6.96921 13.9593 6.65417 13.6243 6.69917C12.9493 6.78417 12.9943 6.76417 12.5743 7.03917C12.4243 7.12917 12.2543 7.22917 12.3193 7.11917C12.4693 6.84417 12.3293 6.89417 12.5643 6.61417C12.7443 6.41417 12.8793 6.26417 13.0643 6.21417C13.2343 6.16917 13.4643 5.98917 13.5293 5.89417C13.6993 5.66417 13.5543 5.52917 13.2943 5.60917C13.0643 5.66917 12.9443 5.81917 12.7943 5.85917C12.4243 5.97917 12.1293 6.80921 12.0843 6.92921C12.0293 7.06921 11.9643 6.99921 11.9743 6.87921C12.0243 6.29421 12.0743 5.30417 11.8743 4.89917C11.5543 4.29917 11.5843 4.57917 11.4643 4.86417C11.2843 5.31417 11.3493 5.73917 11.4643 6.17917C11.5143 6.39917 11.6943 6.64917 11.7293 6.82417C11.7543 6.95917 11.6493 6.78417 11.5893 6.69917C11.3943 6.39917 11.2493 6.19917 10.9293 6.03417C10.6097 5.90269 10.2585 5.86793 9.91932 5.93417C9.82932 5.96417 10.0193 6.09417 10.0943 6.15417C10.3093 6.32417 10.7143 6.37917 10.9943 6.54917C11.2243 6.69417 11.4043 6.78417 11.4843 6.98417C11.5143 7.13417 11.5643 7.35417 11.4643 7.34917C11.2093 7.33417 10.8143 7.10917 9.99432 7.19917C9.57432 7.25917 9.21432 7.61417 8.97932 8.04417Z" fill="#239E46"/>
<path fill-rule="evenodd" clip-rule="evenodd" d="M10.7656 15.5298H11.0006V15.9248H10.7656V15.5298Z" fill="black"/>
<path fill-rule="evenodd" clip-rule="evenodd" d="M9.585 12.8953C10.525 14.1953 12.035 14.9553 12.065 15.5453H9.125C9.8 14.7353 10.215 14.1853 9.585 12.8953Z" fill="#FDF9FF"/>
<path fill-rule="evenodd" clip-rule="evenodd" d="M8.73032 15.5744C10.0103 15.8594 11.5353 16.0194 12.5103 15.5344C12.5203 15.8194 12.1953 16.2344 11.9253 16.2344H9.47532C9.76032 16.1894 9.92532 16.1044 10.3853 16.0844L9.08532 16.0944C8.93532 16.0994 8.68532 15.7144 8.73032 15.5744Z" fill="#A68861"/>
<path fill-rule="evenodd" clip-rule="evenodd" d="M11.6303 21.2503C11.7603 21.3253 11.9653 21.3203 12.0803 21.2603C19.4703 17.3253 19.4753 6.54034 12.0903 2.66035C12.0164 2.62612 11.9356 2.60923 11.8542 2.61096C11.7727 2.61269 11.6927 2.63301 11.6203 2.67035C4.42032 6.61034 4.40032 17.2703 11.6303 21.2553V21.2503ZM11.6653 20.3653C11.7274 20.3959 11.7956 20.4122 11.8648 20.4131C11.934 20.4139 12.0025 20.3993 12.0653 20.3703C18.2453 16.7303 18.3203 7.11534 12.0703 3.67035C11.9503 3.58035 11.7753 3.61035 11.6553 3.67035C5.73532 7.17534 5.40532 16.3953 11.6653 20.3653Z" fill="#BE0027"/>
<path d="M9.44064 11.2703C9.55396 11.2703 9.65396 11.2936 9.74064 11.3403C9.85728 11.4003 9.92896 11.5103 9.95564 11.6703H9.80064C9.78064 11.5836 9.73728 11.5169 9.67064 11.4703C9.61064 11.4303 9.53228 11.4103 9.43564 11.4103C9.32564 11.4103 9.23064 11.4553 9.15064 11.5453C9.07396 11.6286 9.03564 11.7553 9.03564 11.9253C9.03564 12.0653 9.06728 12.1819 9.13064 12.2753C9.19728 12.3653 9.30228 12.4103 9.44564 12.4103C9.55564 12.4103 9.64564 12.3786 9.71564 12.3153C9.79228 12.2519 9.83064 12.1486 9.83064 12.0053H9.45064V11.8703H9.98064V12.5203H9.87564L9.83564 12.3603C9.78228 12.4236 9.73228 12.4686 9.68564 12.4953C9.61228 12.5353 9.52064 12.5553 9.41064 12.5553C9.26728 12.5553 9.14228 12.5086 9.03564 12.4153C8.92228 12.2953 8.86564 12.1336 8.86564 11.9303C8.86564 11.7269 8.92064 11.5653 9.03064 11.4453C9.13728 11.3286 9.27396 11.2703 9.44064 11.2703Z" fill="#BD0728"/>
<path d="M10.62 11.305V12.065C10.62 12.1517 10.6367 12.2234 10.67 12.28C10.7167 12.37 10.8 12.415 10.92 12.415C11.0567 12.415 11.1517 12.3684 11.205 12.275C11.2317 12.2217 11.245 12.1517 11.245 12.065V11.3H11.415V11.99C11.415 12.1367 11.3917 12.2534 11.345 12.34C11.275 12.4834 11.1383 12.555 10.935 12.555C10.725 12.555 10.5833 12.4817 10.51 12.335C10.47 12.2517 10.45 12.1367 10.45 11.99V11.3L10.62 11.305Z" fill="#BD0728"/>
<path d="M12.9206 12.025L12.7356 11.49L12.5356 12.025H12.9206ZM12.6506 11.3H12.8356L13.2856 12.525H13.0956L12.9756 12.16H12.4906L12.3556 12.525H12.1906L12.6506 11.3Z" fill="#BD0728"/>
<path d="M13.85 11.3H14.095L14.44 12.335L14.79 11.3H15.025V12.52H14.865V11.49L14.515 12.52H14.36L14.01 11.49V12.52H13.85V11.3Z" fill="#BD0728"/>
</g>
<defs>
<clipPath id="clip0_69_6497">
<rect width="24" height="24" rx="12" fill="white"/>
</clipPath>
</defs>
</svg>
