<svg width="24" height="24" viewBox="0 0 24 24" fill="none" xmlns="http://www.w3.org/2000/svg">
<g clip-path="url(#clip0_69_7182)">
<path d="M0 -3.6001H24V27.9999H0" fill="#EC1B2E"/>
<path d="M12.986 7.06564C10.0123 6.87439 8.64727 10.7706 11.4598 12.2106C10.4848 11.3706 10.6873 10.1369 11.081 9.49564L11.1523 9.53689C10.6348 10.4181 10.7323 11.5131 11.5685 12.1994C11.0923 11.7381 11.2123 10.7369 12.0223 10.3656C12.8323 9.99439 12.9073 8.89189 12.6373 8.52439C12.2698 7.8844 12.386 7.39816 12.986 7.06564ZM11.546 9.34939L11.3698 9.62689L11.3023 9.30439L10.9798 9.21814L11.2723 9.05689L11.2498 8.72314L11.4935 8.95189L11.8048 8.82814L11.666 9.13189L11.876 9.38689L11.546 9.34939Z" fill="white"/>
<path d="M17.118 11.9096C16.3809 9.0223 12.2536 8.92813 11.7532 12.048C12.2508 10.8611 13.4867 10.6724 14.2182 10.8488L14.201 10.9293C13.203 10.7094 12.1917 11.1405 11.7975 12.1479C12.089 11.5524 13.0783 11.3571 13.6817 12.0128C14.2851 12.6684 15.3568 12.399 15.6229 12.0287C16.118 11.4814 16.6164 11.4417 17.118 11.9096ZM14.501 11.2458L14.1826 11.1639L14.4685 11.0001L14.4509 10.6667L14.6946 10.8951L15.0051 10.7705L14.8629 11.073L15.0767 11.3308L14.745 11.2927L14.5673 11.5713L14.501 11.2458Z" fill="white"/>
<path d="M13.7876 17.3351C16.3059 15.7419 15.12 11.7874 11.9983 12.2756C13.2808 12.382 13.8421 13.4992 13.9005 14.2494L13.8186 14.2579C13.7193 13.2408 12.9968 12.4122 11.9169 12.3486C12.5733 12.4418 13.0647 13.3224 12.6276 14.0988C12.1906 14.8753 12.7779 15.8113 13.2124 15.9499C13.8859 16.2517 14.0776 16.7134 13.7876 17.3351ZM13.6103 14.6411L13.5898 14.313L13.8339 14.5342L14.1455 14.4144L14.0037 14.7168L14.2181 14.9736L13.8864 14.9318L13.7073 15.2148L13.641 14.8875L13.3213 14.8047L13.6103 14.6411Z" fill="white"/>
<path d="M7.59875 15.845C9.89216 17.7477 13.2866 15.3979 11.8577 12.5797C12.1527 13.8324 11.2637 14.7115 10.5682 14.9988L10.5349 14.9236C11.4715 14.5148 12.0362 13.5716 11.7631 12.5249C11.8773 13.178 11.1916 13.9175 10.3181 13.7417C9.44463 13.566 8.7359 14.4138 8.73833 14.8699C8.65946 15.6036 8.2796 15.9287 7.59875 15.845ZM10.1061 14.8438L10.4118 14.7229L10.2768 15.0235L10.487 15.2829L10.1556 15.2414L9.97766 15.5246L9.91491 15.1963L9.59037 15.1135L9.88116 14.9493L9.86115 14.6195L10.1061 14.8438Z" fill="white"/>
<path d="M7.10318 9.49902C6.00236 12.2681 9.2861 14.7703 11.5247 12.5405C10.4245 13.2082 9.31376 12.6343 8.82557 12.0617L8.88683 12.0067C9.56501 12.7712 10.6366 13.0168 11.5477 12.4336C10.9618 12.744 10.0466 12.3204 9.94385 11.4353C9.84107 10.5503 8.81573 10.1383 8.38277 10.2815C7.66052 10.4332 7.23401 10.1724 7.10318 9.49902ZM8.83016 11.5742L9.03962 11.8276L8.71205 11.7922L8.53037 12.0722L8.4674 11.7442L8.14304 11.6625L8.4359 11.5013L8.41439 11.1671L8.66039 11.3929L8.96783 11.272L8.83016 11.5742Z" fill="white"/>
</g>
<defs>
<clipPath id="clip0_69_7182">
<rect width="24" height="24" rx="12" fill="white"/>
</clipPath>
</defs>
</svg>
