<svg width="24" height="24" viewBox="0 0 24 24" fill="none" xmlns="http://www.w3.org/2000/svg">
<g clip-path="url(#clip0_69_6904)">
<g clip-path="url(#clip1_69_6904)">
<mask id="mask0_69_6904" style="mask-type:luminance" maskUnits="userSpaceOnUse" x="-4" y="0" width="32" height="24">
<path d="M28 0H-4V24H28V0Z" fill="white"/>
</mask>
<g mask="url(#mask0_69_6904)">
<path d="M-4 0H28V24H-4V0Z" fill="#00008B"/>
<path d="M-2.125 0L3.975 4.525L10.05 0H12V1.55L6 6.025L12 10.475V12H10L4 7.525L-1.975 12H-4V10.5L1.975 6.05L-4 1.6V0H-2.125Z" fill="white"/>
<path d="M6.6 7.025L12 11V12L5.225 7.025H6.6ZM2 7.525L2.15 8.4L-2.65 12H-4L2 7.525ZM12 0V0.075L5.775 4.775L5.825 3.675L10.75 0H12ZM-4 0L1.975 4.4H0.475L-4 1.05V0Z" fill="#FF0000"/>
<path d="M2.025 0V12H6.025V0H2.025ZM-4 4V8H12V4H-4Z" fill="white"/>
<path d="M-4 4.825V7.225H12V4.825H-4ZM2.825 0V12H5.225V0H2.825Z" fill="#FF0000"/>
<path d="M22.3497 19.8354L21.3247 19.9654L21.4347 20.9904L20.6947 20.2704L19.9597 20.9954L20.0597 19.9704L19.0347 19.8504L19.8997 19.2904L19.3547 18.4154L20.3347 18.7404L20.6797 17.7654L21.0347 18.7354L22.0097 18.4004L21.4747 19.2804L22.3447 19.8354H22.3497ZM22.1647 13.9754L22.2997 13.3254L21.8097 12.8754L22.4697 12.8004L22.7447 12.1954L23.0197 12.8004L23.6797 12.8754L23.1897 13.3254L23.3247 13.9754L22.7447 13.6454L22.1647 13.9754ZM16.9597 10.9754L15.9447 11.0854L16.0347 12.1004L15.3147 11.3754L14.5747 12.0804L14.6947 11.0654L13.6847 10.9304L14.5497 10.3904L14.0247 9.51542L14.9897 9.85542L15.3497 8.90042L15.6847 9.86542L16.6547 9.55042L16.1097 10.4154L16.9647 10.9754H16.9597ZM27.1497 9.33542L26.1047 9.47042L26.2197 10.5154L25.4647 9.78042L24.7147 10.5204L24.8197 9.47042L23.7747 9.35042L24.6597 8.77542L24.1047 7.88042L25.1047 8.21542L25.4547 7.22542L25.8147 8.21542L26.8097 7.87042L26.2597 8.77042L27.1497 9.33542ZM22.3447 5.16042L21.3097 5.27542L21.4047 6.31542L20.6697 5.57542L19.9147 6.29542L20.0347 5.26042L18.9997 5.12042L19.8847 4.57042L19.3497 3.67541L20.3347 4.02042L20.6997 3.04541L21.0397 4.03042L22.0297 3.70541L21.4747 4.58542L22.3447 5.16042ZM7.69969 19.2854L5.40969 19.5554L5.63969 21.8504L3.99969 20.2304L2.34969 21.8404L2.59469 19.5454L0.304688 19.2554L2.24969 18.0154L1.04969 16.0454L3.22969 16.7954L4.01969 14.6254L4.79469 16.8004L6.97969 16.0654L5.76469 18.0254L7.70469 19.2804L7.69969 19.2854Z" fill="white"/>
</g>
</g>
</g>
<defs>
<clipPath id="clip0_69_6904">
<rect width="24" height="24" rx="12" fill="white"/>
</clipPath>
<clipPath id="clip1_69_6904">
<rect width="32" height="24" fill="white" transform="translate(-4)"/>
</clipPath>
</defs>
</svg>
