<svg width="24" height="24" viewBox="0 0 24 24" fill="none" xmlns="http://www.w3.org/2000/svg">
<g clip-path="url(#clip0_69_7124)">
<g clip-path="url(#clip1_69_7124)">
<mask id="mask0_69_7124" style="mask-type:luminance" maskUnits="userSpaceOnUse" x="-4" y="0" width="32" height="24">
<path d="M28 0H-4V24H28V0Z" fill="white"/>
</mask>
<g mask="url(#mask0_69_7124)">
<path d="M-4 0H28V24H-4V0Z" fill="#18C3DF"/>
<path d="M-4 8H28V16H-4V8Z" fill="white"/>
<path d="M11.6 12.0006L12.2667 12.1339L12 10.6672L11.6 12.0006Z" fill="#18C3DF"/>
<path d="M12.4 12.0006L11.7333 12.1339L12 10.6672L12.4 12.0006Z" fill="#18C3DF"/>
<path d="M11.8757 11.6197L11.9549 12.295L13.2674 11.5881L11.8757 11.6197Z" fill="#18C3DF"/>
<path d="M12.1226 12.3808L11.7897 11.788L13.267 11.5884L12.1226 12.3808Z" fill="#18C3DF"/>
<path d="M11.8759 12.3808L12.2087 11.788L10.7314 11.5884L11.8759 12.3808Z" fill="#18C3DF"/>
<path d="M12.1228 11.6197L12.0436 12.295L10.7311 11.5881L12.1228 11.6197Z" fill="#18C3DF"/>
<path d="M12.3225 11.7651L11.7048 12.0491L12.7826 13.0789L12.3225 11.7651Z" fill="#18C3DF"/>
<path d="M11.6757 12.2353L12.1366 11.7356L12.783 13.0789L11.6757 12.2353Z" fill="#18C3DF"/>
<path d="M12.3228 12.2353L11.8618 11.7356L11.2155 13.0789L12.3228 12.2353Z" fill="#18C3DF"/>
<path d="M11.6759 11.7651L12.2936 12.0491L11.2158 13.0789L11.6759 11.7651Z" fill="#18C3DF"/>
<path d="M18.2656 9.86461L18.9323 9.99793L18.6656 8.53125L18.2656 9.86461Z" fill="#18C3DF"/>
<path d="M19.0657 9.86461L18.399 9.99793L18.6657 8.53125L19.0657 9.86461Z" fill="#18C3DF"/>
<path d="M18.5413 9.48399L18.6205 10.1592L19.933 9.45239L18.5413 9.48399Z" fill="#18C3DF"/>
<path d="M18.7882 10.2448L18.4554 9.65199L19.9327 9.45239L18.7882 10.2448Z" fill="#18C3DF"/>
<path d="M18.5415 10.2448L18.8743 9.65199L17.397 9.45239L18.5415 10.2448Z" fill="#18C3DF"/>
<path d="M18.7884 9.48399L18.7092 10.1592L17.3967 9.45239L18.7884 9.48399Z" fill="#18C3DF"/>
<path d="M18.9881 9.62915L18.3704 9.91315L19.4483 10.943L18.9881 9.62915Z" fill="#18C3DF"/>
<path d="M18.3413 10.0993L18.8023 9.59961L19.4486 10.9429L18.3413 10.0993Z" fill="#18C3DF"/>
<path d="M18.9884 10.0993L18.5274 9.59961L17.8811 10.9429L18.9884 10.0993Z" fill="#18C3DF"/>
<path d="M18.3415 9.62915L18.9592 9.91315L17.8814 10.943L18.3415 9.62915Z" fill="#18C3DF"/>
<path d="M18.2656 13.8646L18.9323 13.9979L18.6656 12.5312L18.2656 13.8646Z" fill="#18C3DF"/>
<path d="M19.0657 13.8646L18.399 13.9979L18.6657 12.5312L19.0657 13.8646Z" fill="#18C3DF"/>
<path d="M18.5413 13.484L18.6205 14.1592L19.933 13.4524L18.5413 13.484Z" fill="#18C3DF"/>
<path d="M18.7882 14.2448L18.4554 13.652L19.9327 13.4524L18.7882 14.2448Z" fill="#18C3DF"/>
<path d="M18.5415 14.2448L18.8743 13.652L17.397 13.4524L18.5415 14.2448Z" fill="#18C3DF"/>
<path d="M18.7884 13.484L18.7092 14.1592L17.3967 13.4524L18.7884 13.484Z" fill="#18C3DF"/>
<path d="M18.9881 13.6292L18.3704 13.9132L19.4483 14.943L18.9881 13.6292Z" fill="#18C3DF"/>
<path d="M18.3413 14.0993L18.8023 13.5996L19.4486 14.9429L18.3413 14.0993Z" fill="#18C3DF"/>
<path d="M18.9884 14.0993L18.5274 13.5996L17.8811 14.9429L18.9884 14.0993Z" fill="#18C3DF"/>
<path d="M18.3415 13.6292L18.9592 13.9132L17.8814 14.943L18.3415 13.6292Z" fill="#18C3DF"/>
<path d="M4.93591 9.86461L5.60259 9.99793L5.33591 8.53125L4.93591 9.86461Z" fill="#18C3DF"/>
<path d="M5.73591 9.86461L5.06927 9.99793L5.33591 8.53125L5.73591 9.86461Z" fill="#18C3DF"/>
<path d="M5.21161 9.48399L5.29081 10.1592L6.60329 9.45239L5.21161 9.48399Z" fill="#18C3DF"/>
<path d="M5.45847 10.2448L5.12567 9.65199L6.60295 9.45239L5.45847 10.2448Z" fill="#18C3DF"/>
<path d="M5.21183 10.2448L5.54463 9.65199L4.06735 9.45239L5.21183 10.2448Z" fill="#18C3DF"/>
<path d="M5.45867 9.48399L5.37947 10.1592L4.06699 9.45239L5.45867 9.48399Z" fill="#18C3DF"/>
<path d="M5.65849 9.62915L5.04077 9.91315L6.11861 10.943L5.65849 9.62915Z" fill="#18C3DF"/>
<path d="M5.0116 10.0993L5.47256 9.59961L6.11892 10.9429L5.0116 10.0993Z" fill="#18C3DF"/>
<path d="M5.65871 10.0993L5.19775 9.59961L4.55139 10.9429L5.65871 10.0993Z" fill="#18C3DF"/>
<path d="M5.01185 9.62915L5.62957 9.91315L4.55173 10.943L5.01185 9.62915Z" fill="#18C3DF"/>
<path d="M4.93591 13.8646L5.60259 13.9979L5.33591 12.5312L4.93591 13.8646Z" fill="#18C3DF"/>
<path d="M5.73591 13.8646L5.06927 13.9979L5.33591 12.5312L5.73591 13.8646Z" fill="#18C3DF"/>
<path d="M5.21161 13.484L5.29081 14.1592L6.60329 13.4524L5.21161 13.484Z" fill="#18C3DF"/>
<path d="M5.45847 14.2448L5.12567 13.652L6.60295 13.4524L5.45847 14.2448Z" fill="#18C3DF"/>
<path d="M5.21183 14.2448L5.54463 13.652L4.06735 13.4524L5.21183 14.2448Z" fill="#18C3DF"/>
<path d="M5.45867 13.484L5.37947 14.1592L4.06699 13.4524L5.45867 13.484Z" fill="#18C3DF"/>
<path d="M5.65849 13.6292L5.04077 13.9132L6.11861 14.943L5.65849 13.6292Z" fill="#18C3DF"/>
<path d="M5.0116 14.0993L5.47256 13.5996L6.11892 14.9429L5.0116 14.0993Z" fill="#18C3DF"/>
<path d="M5.65871 14.0993L5.19775 13.5996L4.55139 14.9429L5.65871 14.0993Z" fill="#18C3DF"/>
<path d="M5.01185 13.6292L5.62957 13.9132L4.55173 14.943L5.01185 13.6292Z" fill="#18C3DF"/>
</g>
</g>
</g>
<defs>
<clipPath id="clip0_69_7124">
<rect width="24" height="24" rx="12" fill="white"/>
</clipPath>
<clipPath id="clip1_69_7124">
<rect width="32" height="24" fill="white" transform="translate(-4)"/>
</clipPath>
</defs>
</svg>
