<svg width="24" height="24" viewBox="0 0 24 24" fill="none" xmlns="http://www.w3.org/2000/svg">
<g clip-path="url(#clip0_69_6724)">
<g clip-path="url(#clip1_69_6724)">
<mask id="mask0_69_6724" style="mask-type:luminance" maskUnits="userSpaceOnUse" x="-4" y="0" width="32" height="24">
<path d="M28 0H-4V24H28V0Z" fill="white"/>
</mask>
<g mask="url(#mask0_69_6724)">
<path d="M-4 0H28V24H-4V0Z" fill="#D21034"/>
<path d="M-4 0H28V12H-4V0Z" fill="#00209F"/>
<path d="M8.21408 8.98438H15.7841V15.0094H8.21408V8.98438Z" fill="white"/>
<path d="M13.5244 13.3391L11.9744 13.3891L10.4394 13.4041C10.4394 13.4041 9.64935 13.6941 9.32435 13.7591C9.00435 13.8241 9.04435 13.9291 8.79935 13.9891C8.59935 14.0341 8.57435 14.0441 8.45935 14.0541C8.38435 14.0541 8.29935 14.1141 8.20935 14.1741V15.0091H15.7843V14.2141C15.7043 14.1691 15.6244 14.1391 15.5444 14.1141C15.4344 14.0741 15.3594 14.0341 15.1594 13.9891C14.9094 13.9341 14.9493 13.8241 14.6293 13.7591C14.3043 13.6941 13.5244 13.3391 13.5244 13.3391Z" fill="#016A16" stroke="#016A16" stroke-width="0.0375"/>
<path d="M11.5594 11.478H11.6714L11.8794 12.334L11.8314 12.606L11.5594 11.486V11.478Z" fill="#F1B517" stroke="black" stroke-width="0.04"/>
<path d="M11.4406 10.9031L11.5206 11.5671H11.6006L11.4406 10.9111V10.9031Z" fill="white" stroke="black" stroke-width="0.04"/>
<path d="M11.6565 12.367L11.3125 11.447L11.4405 11.439L11.8405 12.559L11.6565 12.367Z" fill="#F1B517" stroke="black" stroke-width="0.04"/>
<path d="M11.1516 10.9187L11.2956 11.5587H11.4076L11.1516 10.9187Z" fill="white" stroke="black" stroke-width="0.04"/>
<path d="M11.3516 12.0466L11.1516 11.6066L11.2316 11.5906L11.6076 12.3106L11.3516 12.0466Z" fill="#F1B517" stroke="black" stroke-width="0.04"/>
<path d="M10.8797 11.103L11.1117 11.711H11.2237L10.8877 11.103H10.8797Z" fill="white" stroke="black" stroke-width="0.04"/>
<path d="M11.3845 12.1108L10.4645 11.1108C10.1765 11.3348 10.2325 11.7508 10.2325 11.7508L11.2725 12.5668L11.3765 12.1108H11.3845Z" fill="#0A328C" stroke="black" stroke-width="0.04"/>
<path d="M11.912 12.6553L11.232 11.9673C10.944 11.9833 11.168 12.4073 11.184 12.4633L11.904 13.0793V12.6553H11.912Z" fill="#D20014" stroke="black" stroke-width="0.04"/>
<path d="M11.8484 12.543L10.4484 11.039L10.3924 11.079L11.8804 12.727L11.8484 12.543ZM10.3684 10.943L10.3364 10.903V10.831L10.0484 10.647L10.1764 10.943L10.2804 10.959L10.3044 10.991L10.3684 10.943Z" fill="#F1B517" stroke="black" stroke-width="0.04"/>
<path d="M10.2156 11.0464C10.2745 10.9732 10.3481 10.9133 10.4316 10.8704L10.5116 10.9904L10.3356 11.1344L10.2156 11.0544V11.0464Z" fill="#F1B517" stroke="black" stroke-width="0.04"/>
<path d="M10.0641 11.303L10.1121 11.383C10.1441 11.375 10.4321 11.103 10.4321 11.103H10.6481L10.7041 11.031C10.5441 10.871 10.4081 11.055 10.4081 11.055L10.0641 11.295V11.303Z" fill="#0A328C" stroke="#0A328C" stroke-width="0.04"/>
<path d="M10.2405 11.4393C10.2405 11.3593 10.3845 11.1833 10.4005 11.1753C10.5045 11.2073 10.6005 11.2712 10.7125 11.0312C10.6165 11.1432 10.4325 11.0312 10.4325 11.0312L10.3525 11.0952V11.1272L10.1125 11.3512L10.2325 11.4393H10.2405Z" fill="#D20014" stroke="#D20014" stroke-width="0.04"/>
<path d="M10.9844 12.3744L9.83239 11.4624C9.63239 11.6624 9.80039 12.2784 9.80039 12.2784L10.9204 12.8864L10.9764 12.3744H10.9844Z" fill="#0A328C" stroke="black" stroke-width="0.04"/>
<path d="M11.9355 13.1196L10.9835 12.3516C10.6635 12.3996 10.9195 12.8716 10.9355 12.9276L11.9355 13.4716V13.1116V13.1196Z" fill="#D20014" stroke="black" stroke-width="0.04"/>
<path d="M11.8964 12.9588L9.84837 11.4228L9.80837 11.4708L11.9524 13.1508L11.8964 12.9588ZM9.75237 11.3428L9.72037 11.3108L9.70437 11.2468L9.38437 11.1108L9.56837 11.3748H9.67237L9.70437 11.4068L9.75237 11.3428Z" fill="#F1B517" stroke="black" stroke-width="0.04"/>
<path d="M9.62344 11.4705C9.66924 11.3888 9.73196 11.3179 9.80744 11.2625L9.90344 11.3665L9.75944 11.5345L9.62344 11.4705Z" fill="#F1B517" stroke="black" stroke-width="0.04"/>
<path d="M9.52052 11.7275V11.8155C9.55252 11.7995 9.81652 11.5195 9.81652 11.5195L10.0165 11.4795L10.0645 11.4155C9.92052 11.2475 9.76852 11.4715 9.76852 11.4715L9.51248 11.7275H9.52052Z" fill="#0A328C" stroke="#0A328C" stroke-width="0.04"/>
<path d="M9.68011 11.8784C9.66411 11.7984 9.77611 11.5744 9.79211 11.5584C9.92011 11.5984 10.0321 11.6544 10.0721 11.3984C9.99211 11.5264 9.79211 11.4304 9.79211 11.4304L9.72811 11.5104V11.5504L9.52811 11.8144L9.68011 11.8784Z" fill="#D20014" stroke="#D20014" stroke-width="0.04"/>
<path d="M10.8968 12.9352C10.4024 12.6571 9.90912 12.3771 9.41684 12.0952C9.31284 12.2792 9.40884 12.5352 9.45684 12.5752C9.45684 12.6952 9.40884 12.7592 9.51284 13.0152C9.54484 13.1752 9.61684 13.3272 9.72884 13.4152C9.85684 13.9272 10.3848 13.9672 10.5848 13.5432L10.9048 12.9352H10.8968Z" fill="#0A328C" stroke="black" stroke-width="0.04"/>
<path d="M11.8648 13.4793L10.8648 12.8953C10.5448 12.9353 10.8648 13.5353 10.8888 13.5913L11.8648 13.9353V13.4793Z" fill="#D20014" stroke="black" stroke-width="0.04"/>
<path d="M11.6961 13.2633L9.43213 12.0633L9.39213 12.1113L11.7921 13.4473L11.6961 13.2633ZM9.32013 11.9993L9.28013 11.9753L9.25613 11.9113L8.92813 11.8313L9.14413 12.0633L9.24013 12.0473L9.28813 12.0713L9.32013 11.9993Z" fill="#F1B517" stroke="black" stroke-width="0.04"/>
<path d="M9.21564 12.1431C9.24764 12.0631 9.27964 11.9911 9.35964 11.9031L9.47164 11.9911L9.35964 12.1831L9.21564 12.1431Z" fill="#F1B517" stroke="black" stroke-width="0.04"/>
<path d="M9.12811 12.4147L9.17611 12.5107L9.41611 12.1427L9.61611 12.0707L9.65611 11.9907C9.49611 11.8467 9.37611 12.1027 9.37611 12.1027L9.12811 12.4147Z" fill="#0A328C" stroke="#0A328C" stroke-width="0.04"/>
<path d="M9.34436 12.5427C9.32836 12.4627 9.38436 12.2067 9.40036 12.1987C9.52036 12.2387 9.62436 12.2467 9.65636 11.9907C9.57636 12.1107 9.39236 12.0707 9.39236 12.0707L9.33636 12.1507L9.34436 12.1827L9.18436 12.5027L9.34436 12.5427Z" fill="#D20014" stroke="#D20014" stroke-width="0.04"/>
<path d="M12.4328 11.478H12.3208L12.1128 12.334L12.1608 12.606L12.4328 11.486V11.478Z" fill="#F1B517" stroke="black" stroke-width="0.04"/>
<path d="M12.5516 10.9031L12.4716 11.5671H12.3916L12.5516 10.9111V10.9031Z" fill="white" stroke="black" stroke-width="0.04"/>
<path d="M12.3357 12.367L12.6797 11.447L12.5517 11.439L12.1517 12.559L12.3357 12.367Z" fill="#F1B517" stroke="black" stroke-width="0.04"/>
<path d="M12.8407 10.9187L12.6967 11.5587H12.5847L12.8407 10.9187Z" fill="white" stroke="black" stroke-width="0.04"/>
<path d="M12.6406 12.0466L12.8406 11.6066L12.7606 11.5906L12.3846 12.3106L12.6406 12.0466Z" fill="#F1B517" stroke="black" stroke-width="0.04"/>
<path d="M13.1125 11.103L12.8805 11.711H12.7685L13.1045 11.103H13.1125Z" fill="white" stroke="black" stroke-width="0.04"/>
<path d="M12.6077 12.1108L13.5277 11.1108C13.8157 11.3348 13.7597 11.7508 13.7597 11.7508L12.7197 12.5668L12.6157 12.1108H12.6077Z" fill="#0A328C" stroke="black" stroke-width="0.04"/>
<path d="M12.0802 12.6553L12.7602 11.9673C13.0482 11.9833 12.8242 12.4073 12.8082 12.4633L12.0882 13.0793V12.6553H12.0802Z" fill="#D20014" stroke="black" stroke-width="0.04"/>
<path d="M12.1438 12.543L13.5438 11.039L13.5998 11.079L12.1118 12.727L12.1438 12.543ZM13.6238 10.943L13.6558 10.903V10.831L13.9438 10.647L13.8158 10.943L13.7118 10.959L13.6878 10.991L13.6238 10.943Z" fill="#F1B517" stroke="black" stroke-width="0.04"/>
<path d="M13.7766 11.0464C13.7176 10.9732 13.6441 10.9133 13.5606 10.8704L13.4806 10.9904L13.6566 11.1344L13.7766 11.0544V11.0464Z" fill="#F1B517" stroke="black" stroke-width="0.04"/>
<path d="M13.9281 11.303L13.8801 11.383C13.8481 11.375 13.5601 11.103 13.5601 11.103H13.3441L13.2881 11.031C13.4481 10.871 13.5841 11.055 13.5841 11.055L13.9281 11.295V11.303Z" fill="#0A328C" stroke="#0A328C" stroke-width="0.04"/>
<path d="M13.7517 11.4393C13.7517 11.3593 13.6077 11.1833 13.5917 11.1753C13.4877 11.2073 13.3917 11.2712 13.2797 11.0312C13.3757 11.1432 13.5597 11.0312 13.5597 11.0312L13.6397 11.0952V11.1272L13.8797 11.3512L13.7597 11.4393H13.7517Z" fill="#D20014" stroke="#D20014" stroke-width="0.04"/>
<path d="M13.0078 12.3744L14.1598 11.4624C14.3598 11.6624 14.1918 12.2784 14.1918 12.2784L13.0718 12.8864L13.0158 12.3744H13.0078Z" fill="#0A328C" stroke="black" stroke-width="0.04"/>
<path d="M12.0567 13.1196L13.0087 12.3516C13.3287 12.3996 13.0727 12.8716 13.0567 12.9276L12.0567 13.4716V13.1116V13.1196Z" fill="#D20014" stroke="black" stroke-width="0.04"/>
<path d="M12.0958 12.9588L14.1438 11.4228L14.1838 11.4708L12.0398 13.1508L12.0958 12.9588ZM14.2398 11.3428L14.2718 11.3108L14.2878 11.2468L14.6078 11.1108L14.4238 11.3748H14.3198L14.2878 11.4068L14.2398 11.3428Z" fill="#F1B517" stroke="black" stroke-width="0.04"/>
<path d="M14.3687 11.4705C14.3229 11.3888 14.2602 11.3179 14.1847 11.2625L14.0887 11.3665L14.2327 11.5345L14.3687 11.4705Z" fill="#F1B517" stroke="black" stroke-width="0.04"/>
<path d="M14.4717 11.7275V11.8155C14.4397 11.7995 14.1757 11.5195 14.1757 11.5195L13.9757 11.4795L13.9277 11.4155C14.0717 11.2475 14.2237 11.4715 14.2237 11.4715L14.4797 11.7275H14.4717Z" fill="#0A328C" stroke="#0A328C" stroke-width="0.04"/>
<path d="M14.3121 11.8784C14.3281 11.7984 14.2161 11.5744 14.2001 11.5584C14.0721 11.5984 13.9601 11.6544 13.9201 11.3984C14.0001 11.5264 14.2001 11.4304 14.2001 11.4304L14.2641 11.5104V11.5504L14.4641 11.8144L14.3121 11.8784Z" fill="#D20014" stroke="#D20014" stroke-width="0.04"/>
<path d="M13.0953 12.9352C13.5897 12.6571 14.0831 12.3771 14.5753 12.0952C14.6793 12.2792 14.5833 12.5352 14.5353 12.5752C14.5353 12.6952 14.5833 12.7592 14.4793 13.0152C14.4473 13.1752 14.3753 13.3272 14.2633 13.4152C14.1353 13.9272 13.6073 13.9672 13.4073 13.5432L13.0873 12.9352H13.0953Z" fill="#0A328C" stroke="black" stroke-width="0.04"/>
<path d="M12.1274 13.4793L13.1274 12.8953C13.4474 12.9353 13.1274 13.5353 13.1034 13.5913L12.1274 13.9353V13.4793Z" fill="#D20014" stroke="black" stroke-width="0.04"/>
<path d="M12.2961 13.2633L14.5601 12.0633L14.6001 12.1113L12.2001 13.4473L12.2961 13.2633ZM14.6721 11.9993L14.7121 11.9753L14.7361 11.9113L15.0641 11.8313L14.8481 12.0633L14.7521 12.0473L14.7041 12.0713L14.6721 11.9993Z" fill="#F1B517" stroke="black" stroke-width="0.04"/>
<path d="M14.7766 12.1431C14.7446 12.0631 14.7126 11.9911 14.6326 11.9031L14.5206 11.9911L14.6326 12.1831L14.7766 12.1431Z" fill="#F1B517" stroke="black" stroke-width="0.04"/>
<path d="M14.8641 12.4147L14.8161 12.5107L14.5761 12.1427L14.3761 12.0707L14.3361 11.9907C14.4961 11.8467 14.6161 12.1027 14.6161 12.1027L14.8641 12.4147Z" fill="#0A328C" stroke="#0A328C" stroke-width="0.04"/>
<path d="M14.6478 12.5427C14.6638 12.4627 14.6078 12.2067 14.5918 12.1987C14.4718 12.2387 14.3678 12.2467 14.3358 11.9907C14.4158 12.1107 14.5998 12.0707 14.5998 12.0707L14.6558 12.1507L14.6478 12.1827L14.8078 12.5027L14.6478 12.5427Z" fill="#D20014" stroke="#D20014" stroke-width="0.04"/>
<path d="M11.9037 10.0478L11.8637 10.7678H12.0957L12.0637 10.0478L12.3037 10.0238L12.2797 9.73584L11.6797 9.75984V10.0158L11.9037 10.0478Z" fill="#016A16" stroke="#016A16" stroke-width="0.04"/>
<path d="M11.9834 9.75085C11.3594 9.12685 10.8714 9.43085 10.7594 9.51885C10.8394 9.53485 10.9034 9.48685 10.9434 9.47885L10.8634 9.57485C10.8634 9.57485 11.0634 9.49485 11.0874 9.49485C11.0554 9.51885 11.0234 9.57485 11.0234 9.57485C11.0394 9.57485 11.1514 9.48685 11.1674 9.48685C11.1354 9.51885 11.1274 9.60685 11.1274 9.60685L11.2234 9.56685C11.2474 9.58285 11.2154 9.61485 11.2314 9.61485C11.3914 9.59885 11.6074 9.75085 11.6314 9.79885" fill="#016A16"/>
<path d="M11.9834 9.75085C11.3594 9.12685 10.8714 9.43085 10.7594 9.51885C10.8394 9.53485 10.9034 9.48685 10.9434 9.47885L10.8634 9.57485C10.8634 9.57485 11.0634 9.49485 11.0874 9.49485C11.0554 9.51885 11.0234 9.57485 11.0234 9.57485C11.0394 9.57485 11.1514 9.48685 11.1674 9.48685C11.1354 9.51885 11.1274 9.60685 11.1274 9.60685L11.2234 9.56685C11.2474 9.58285 11.2154 9.61485 11.2314 9.61485C11.3914 9.59885 11.6074 9.75085 11.6314 9.79885" stroke="black" stroke-width="0.04"/>
<path d="M11.8317 9.86226C11.7677 9.71826 10.5838 9.46226 10.3438 9.88626C10.4398 9.91026 10.5277 9.80626 10.5277 9.80626V9.90226L10.6798 9.77426L10.6237 9.90226L10.7438 9.79826V9.90226L10.9037 9.74226L10.8798 9.83026L11.0157 9.77426L10.9997 9.85426" fill="#016A16"/>
<path d="M11.8317 9.86226C11.7677 9.71826 10.5838 9.46226 10.3438 9.88626C10.4397 9.91026 10.5277 9.80626 10.5277 9.80626V9.90226L10.6798 9.77426L10.6237 9.90226L10.7438 9.79826V9.90226L10.9037 9.74226L10.8798 9.83026L11.0157 9.77426L10.9997 9.85426" stroke="black" stroke-width="0.04"/>
<path d="M11.7765 9.88724C11.4725 9.68724 11.0085 9.82324 11.0085 9.82324C10.7045 9.98324 10.5445 9.95924 10.5125 10.2712C10.5365 10.2632 10.6165 10.1592 10.6165 10.1592L10.6805 10.2792L10.6965 10.1112L10.7445 10.2472L10.8245 10.0232L10.8405 10.1752L10.9525 10.0232L11.0005 10.0712L11.0485 9.95124L11.0965 10.0312C11.0965 10.0312 11.1765 9.98324 11.2165 10.0072L11.2965 9.91124L11.3205 9.98324L11.4005 9.90324L11.4245 9.95924L11.4965 9.89524V9.94324H11.7365" fill="#016A16"/>
<path d="M11.7765 9.88724C11.4725 9.68724 11.0085 9.82324 11.0085 9.82324C10.7045 9.98324 10.5445 9.95924 10.5125 10.2712C10.5365 10.2632 10.6165 10.1592 10.6165 10.1592L10.6805 10.2792L10.6965 10.1112L10.7445 10.2472L10.8245 10.0232L10.8405 10.1752L10.9525 10.0232L11.0005 10.0712L11.0485 9.95124L11.0965 10.0312C11.0965 10.0312 11.1765 9.98324 11.2165 10.0072L11.2965 9.91124L11.3205 9.98324L11.4005 9.90324L11.4245 9.95924L11.4965 9.89524V9.94324H11.7365" stroke="black" stroke-width="0.04"/>
<path d="M11.7119 9.9187C11.4959 9.9187 10.8879 10.1507 10.7359 10.3827C10.7697 10.3648 10.8045 10.3488 10.8399 10.3347L10.8639 10.4307L10.9039 10.3347L10.9119 10.4147C10.9359 10.3507 10.9599 10.3507 11.0079 10.4067L11.0239 10.3187L11.0479 10.3987L11.0879 10.3107C11.0879 10.3107 11.1119 10.4067 11.1279 10.4067C11.1279 10.4067 11.1919 10.2307 11.2239 10.2227L11.2319 10.3347L11.2719 10.2227L11.3119 10.3027V10.1907L11.3599 10.2707C11.3599 10.2707 11.3759 10.1907 11.4079 10.1747L11.4719 10.2307L11.7439 10.0307" fill="#016A16"/>
<path d="M11.7119 9.9187C11.4959 9.9187 10.8879 10.1507 10.7359 10.3827C10.7697 10.3648 10.8045 10.3488 10.8399 10.3347L10.8639 10.4307L10.9039 10.3347L10.9119 10.4147C10.9359 10.3507 10.9599 10.3507 11.0079 10.4067L11.0239 10.3187L11.0479 10.3987L11.0879 10.3107C11.0879 10.3107 11.1119 10.4067 11.1279 10.4067C11.1279 10.4067 11.1919 10.2307 11.2239 10.2227L11.2319 10.3347L11.2719 10.2227L11.3119 10.3027V10.1907L11.3599 10.2707C11.3599 10.2707 11.3759 10.1907 11.4079 10.1747L11.4719 10.2307L11.7439 10.0307" stroke="black" stroke-width="0.04"/>
<path d="M11.7511 9.9751C11.4711 10.0791 11.2151 10.4711 11.2391 10.6311C11.3591 10.4711 11.3351 10.4951 11.3911 10.6791C11.3911 10.6791 11.4071 10.5191 11.4311 10.5031L11.4711 10.6151L11.4791 10.4631H11.5191L11.5111 10.3751L11.5671 10.4151C11.5511 10.3591 11.5431 10.3431 11.5991 10.2951C11.5991 10.2951 11.5191 10.3031 11.5831 10.1751L11.6391 10.2231C11.6391 10.2231 11.6231 10.1671 11.6391 10.1431L11.8471 10.0791" fill="#016A16"/>
<path d="M11.7511 9.9751C11.4711 10.0791 11.2151 10.4711 11.2391 10.6311C11.3591 10.4711 11.3351 10.4951 11.3911 10.6791C11.3911 10.6791 11.4071 10.5191 11.4311 10.5031L11.4711 10.6151L11.4791 10.4631H11.5191L11.5111 10.3751L11.5671 10.4151C11.5511 10.3591 11.5431 10.3431 11.5991 10.2951C11.5991 10.2951 11.5191 10.3031 11.5831 10.1751L11.6391 10.2231C11.6391 10.2231 11.6231 10.1671 11.6391 10.1431L11.8471 10.0791" stroke="black" stroke-width="0.04"/>
<path d="M11.7761 9.99854L11.6721 10.2065L11.7281 10.2225L11.6001 10.3105L11.7041 10.3025C11.7041 10.3025 11.5441 10.3585 11.5281 10.5185L11.6881 10.4385C11.6881 10.4385 11.5521 10.5825 11.5281 10.6705L11.6321 10.5905C11.6321 10.5905 11.5361 10.6865 11.5521 10.8305L11.6241 10.7505C11.6081 10.9345 11.6081 10.9505 11.6881 11.0865C11.6881 11.0865 11.6721 10.8785 11.6881 10.8465L11.8721 11.0385L11.7761 10.7745C11.7761 10.7745 11.8881 10.9345 11.9521 10.9265L11.8081 10.7105L11.9521 10.8225L11.7921 10.5825L11.9361 10.6305C11.9361 10.6305 11.8321 10.4945 11.8401 10.4065L11.9441 10.5185C11.9441 10.5185 11.9041 10.3985 11.9121 10.3585L11.9681 10.3665L11.8641 10.2545L11.9361 10.2385L11.9281 10.1585L11.9761 10.1505V10.0625M11.8881 10.0625C11.7121 10.3025 11.8001 10.6625 11.6961 10.8545L11.8881 10.0625Z" fill="#016A16"/>
<path d="M11.7761 9.99854L11.6721 10.2065L11.7281 10.2225L11.6001 10.3105L11.7041 10.3025C11.7041 10.3025 11.5441 10.3585 11.5281 10.5185L11.6881 10.4385C11.6881 10.4385 11.5521 10.5825 11.5281 10.6705L11.6321 10.5905C11.6321 10.5905 11.5361 10.6865 11.5521 10.8305L11.6241 10.7505C11.6081 10.9345 11.6081 10.9505 11.6881 11.0865C11.6881 11.0865 11.6721 10.8785 11.6881 10.8465L11.8721 11.0385L11.7761 10.7745C11.7761 10.7745 11.8881 10.9345 11.9521 10.9265L11.8081 10.7105L11.9521 10.8225L11.7921 10.5825L11.9361 10.6305C11.9361 10.6305 11.8321 10.4945 11.8401 10.4065L11.9441 10.5185C11.9441 10.5185 11.9041 10.3985 11.9121 10.3585L11.9681 10.3665L11.8641 10.2545L11.9361 10.2385L11.9281 10.1585L11.9761 10.1505V10.0625M11.8881 10.0625C11.7121 10.3025 11.8001 10.6625 11.6961 10.8545" stroke="black" stroke-width="0.04"/>
<path d="M12.0088 9.75085C12.6328 9.12685 13.1208 9.43085 13.2328 9.51885C13.1528 9.53485 13.0888 9.48685 13.0488 9.47885L13.1288 9.57485C13.1288 9.57485 12.9288 9.49485 12.9048 9.49485C12.9368 9.51885 12.9688 9.57485 12.9688 9.57485C12.9528 9.57485 12.8408 9.48685 12.8248 9.48685C12.8568 9.51885 12.8648 9.60685 12.8648 9.60685L12.7688 9.56685C12.7448 9.58285 12.7768 9.61485 12.7608 9.61485C12.6008 9.59885 12.3848 9.75085 12.3608 9.79885" fill="#016A16"/>
<path d="M12.0088 9.75085C12.6328 9.12685 13.1208 9.43085 13.2328 9.51885C13.1528 9.53485 13.0888 9.48685 13.0488 9.47885L13.1288 9.57485C13.1288 9.57485 12.9288 9.49485 12.9048 9.49485C12.9368 9.51885 12.9688 9.57485 12.9688 9.57485C12.9528 9.57485 12.8408 9.48685 12.8248 9.48685C12.8568 9.51885 12.8648 9.60685 12.8648 9.60685L12.7688 9.56685C12.7448 9.58285 12.7768 9.61485 12.7608 9.61485C12.6008 9.59885 12.3848 9.75085 12.3608 9.79885" stroke="black" stroke-width="0.04"/>
<path d="M12.1604 9.86226C12.2244 9.71826 13.4084 9.46226 13.6484 9.88626C13.5524 9.91026 13.4644 9.80626 13.4644 9.80626V9.90226L13.3124 9.77426L13.3684 9.90226L13.2484 9.79826V9.90226L13.0884 9.74226L13.1124 9.83026L12.9764 9.77426L12.9924 9.85426" fill="#016A16"/>
<path d="M12.1604 9.86226C12.2244 9.71826 13.4084 9.46226 13.6484 9.88626C13.5524 9.91026 13.4644 9.80626 13.4644 9.80626V9.90226L13.3124 9.77426L13.3684 9.90226L13.2484 9.79826V9.90226L13.0884 9.74226L13.1124 9.83026L12.9764 9.77426L12.9924 9.85426" stroke="black" stroke-width="0.04"/>
<path d="M12.2157 9.88724C12.5197 9.68724 12.9837 9.82324 12.9837 9.82324C13.2877 9.98324 13.4477 9.95924 13.4797 10.2712C13.4557 10.2632 13.3757 10.1592 13.3757 10.1592L13.3117 10.2792L13.2957 10.1112L13.2477 10.2472L13.1677 10.0232L13.1517 10.1752L13.0397 10.0232L12.9917 10.0712L12.9437 9.95124L12.8957 10.0312C12.8957 10.0312 12.8157 9.98324 12.7757 10.0072L12.6957 9.91124L12.6717 9.98324L12.5917 9.90324L12.5677 9.95924L12.4957 9.89524V9.94324H12.2557" fill="#016A16"/>
<path d="M12.2157 9.88724C12.5197 9.68724 12.9837 9.82324 12.9837 9.82324C13.2877 9.98324 13.4477 9.95924 13.4797 10.2712C13.4557 10.2632 13.3757 10.1592 13.3757 10.1592L13.3117 10.2792L13.2957 10.1112L13.2477 10.2472L13.1677 10.0232L13.1517 10.1752L13.0397 10.0232L12.9917 10.0712L12.9437 9.95124L12.8957 10.0312C12.8957 10.0312 12.8157 9.98324 12.7757 10.0072L12.6957 9.91124L12.6717 9.98324L12.5917 9.90324L12.5677 9.95924L12.4957 9.89524V9.94324H12.2557" stroke="black" stroke-width="0.04"/>
<path d="M12.2802 9.9187C12.4962 9.9187 13.1042 10.1507 13.2562 10.3827C13.2225 10.3648 13.1877 10.3488 13.1522 10.3347L13.1282 10.4307L13.0882 10.3347L13.0802 10.4147C13.0562 10.3507 13.0322 10.3507 12.9842 10.4067L12.9682 10.3187L12.9442 10.3987L12.9042 10.3107C12.9042 10.3107 12.8802 10.4067 12.8642 10.4067C12.8642 10.4067 12.8002 10.2307 12.7682 10.2227L12.7602 10.3347L12.7202 10.2227L12.6802 10.3027V10.1907L12.6322 10.2707C12.6322 10.2707 12.6162 10.1907 12.5842 10.1747L12.5202 10.2307L12.2482 10.0307" fill="#016A16"/>
<path d="M12.2802 9.9187C12.4962 9.9187 13.1042 10.1507 13.2562 10.3827C13.2225 10.3648 13.1877 10.3488 13.1522 10.3347L13.1282 10.4307L13.0882 10.3347L13.0802 10.4147C13.0562 10.3507 13.0322 10.3507 12.9842 10.4067L12.9682 10.3187L12.9442 10.3987L12.9042 10.3107C12.9042 10.3107 12.8802 10.4067 12.8642 10.4067C12.8642 10.4067 12.8002 10.2307 12.7682 10.2227L12.7602 10.3347L12.7202 10.2227L12.6802 10.3027V10.1907L12.6322 10.2707C12.6322 10.2707 12.6162 10.1907 12.5842 10.1747L12.5202 10.2307L12.2482 10.0307" stroke="black" stroke-width="0.04"/>
<path d="M12.2411 9.9751C12.5211 10.0791 12.7771 10.4711 12.7531 10.6311C12.6331 10.4711 12.6571 10.4951 12.6011 10.6791C12.6011 10.6791 12.5851 10.5191 12.5611 10.5031L12.5211 10.6151L12.5131 10.4631H12.4731L12.4811 10.3751L12.4251 10.4151C12.4411 10.3591 12.4491 10.3431 12.3931 10.2951C12.3931 10.2951 12.4731 10.3031 12.4091 10.1751L12.3531 10.2231C12.3531 10.2231 12.3691 10.1671 12.3531 10.1431L12.1451 10.0791" fill="#016A16"/>
<path d="M12.2411 9.9751C12.5211 10.0791 12.7771 10.4711 12.7531 10.6311C12.6331 10.4711 12.6571 10.4951 12.6011 10.6791C12.6011 10.6791 12.5851 10.5191 12.5611 10.5031L12.5211 10.6151L12.5131 10.4631H12.4731L12.4811 10.3751L12.4251 10.4151C12.4411 10.3591 12.4491 10.3431 12.3931 10.2951C12.3931 10.2951 12.4731 10.3031 12.4091 10.1751L12.3531 10.2231C12.3531 10.2231 12.3691 10.1671 12.3531 10.1431L12.1451 10.0791" stroke="black" stroke-width="0.04"/>
<path d="M12.2161 9.99854L12.3201 10.2065L12.2641 10.2225L12.3921 10.3105L12.2881 10.3025C12.2881 10.3025 12.4481 10.3585 12.4641 10.5185L12.3041 10.4385C12.3041 10.4385 12.4401 10.5825 12.4641 10.6705L12.3601 10.5905C12.3601 10.5905 12.4561 10.6865 12.4401 10.8305L12.3681 10.7505C12.3841 10.9345 12.3841 10.9505 12.3041 11.0865C12.3041 11.0865 12.3201 10.8785 12.3041 10.8465L12.1201 11.0385L12.2161 10.7745C12.2161 10.7745 12.1041 10.9345 12.0401 10.9265L12.1841 10.7105L12.0401 10.8225L12.2001 10.5825L12.0561 10.6305C12.0561 10.6305 12.1601 10.4945 12.1521 10.4065L12.0481 10.5185C12.0481 10.5185 12.0881 10.3985 12.0801 10.3585L12.0241 10.3665L12.1281 10.2545L12.0561 10.2385L12.0641 10.1585L12.0161 10.1505V10.0625M12.1041 10.0625C12.2801 10.3025 12.1921 10.6625 12.2961 10.8545L12.1041 10.0625Z" fill="#016A16"/>
<path d="M12.2161 9.99854L12.3201 10.2065L12.2641 10.2225L12.3921 10.3105L12.2881 10.3025C12.2881 10.3025 12.4481 10.3585 12.4641 10.5185L12.3041 10.4385C12.3041 10.4385 12.4401 10.5825 12.4641 10.6705L12.3601 10.5905C12.3601 10.5905 12.4561 10.6865 12.4401 10.8305L12.3681 10.7505C12.3841 10.9345 12.3841 10.9505 12.3041 11.0865C12.3041 11.0865 12.3201 10.8785 12.3041 10.8465L12.1201 11.0385L12.2161 10.7745C12.2161 10.7745 12.1041 10.9345 12.0401 10.9265L12.1841 10.7105L12.0401 10.8225L12.2001 10.5825L12.0561 10.6305C12.0561 10.6305 12.1601 10.4945 12.1521 10.4065L12.0481 10.5185C12.0481 10.5185 12.0881 10.3985 12.0801 10.3585L12.0241 10.3665L12.1281 10.2545L12.0561 10.2385L12.0641 10.1585L12.0161 10.1505V10.0625M12.1041 10.0625C12.2801 10.3025 12.1921 10.6625 12.2961 10.8545" stroke="black" stroke-width="0.04"/>
<path d="M12.0793 13.3188C12.0793 13.3188 12.1673 12.5188 12.1673 12.1828C12.1673 11.9108 12.1033 11.3188 12.1033 11.3188H11.8393C11.8393 11.3188 11.7993 11.9108 11.8073 12.1828C11.8073 12.5188 11.8953 13.3188 11.8953 13.3188H12.0793Z" fill="#F1B517" stroke="black" stroke-width="0.04"/>
<path d="M11.8156 11.3598H12.1356L12.0956 11.1438H11.8636L11.8156 11.3518V11.3598Z" fill="#F1B517" stroke="black" stroke-width="0.04"/>
<path d="M11.8392 11.1833H12.1192L12.0632 10.9673H11.8872L11.8312 11.1833H11.8392Z" fill="#F1B517" stroke="black" stroke-width="0.04"/>
<path d="M11.8562 11.016H12.0962L12.0482 10.8H11.8962L11.8562 11.016Z" fill="#F1B517" stroke="black" stroke-width="0.04"/>
<path d="M12.0562 10.7749H11.8962L11.8722 10.8549H12.0722L12.0562 10.7749Z" fill="#F1B517"/>
<path d="M12.0882 13.1509H11.8802M12.1042 12.9909H11.8642M12.1362 12.8309H11.8322M12.1522 12.6629H11.8322M12.1522 12.4869H11.8242M12.1602 12.3269H11.8082M12.1602 12.1909H11.7922M12.1602 12.0149H11.7922M12.1522 11.8469H11.7922M12.1362 11.6709H11.8082M12.1202 11.5109H11.8242M12.0562 10.7749H11.8962L11.8722 10.8549H12.0722L12.0562 10.7749Z" stroke="black" stroke-width="0.04"/>
<path d="M11.9995 9.51921C11.9355 9.49521 11.8155 9.41521 11.8475 9.36721L11.9035 9.27121C11.9835 9.09521 11.9035 9.1592 11.9035 9.1112C11.8875 9.0472 12.2075 9.0952 12.2075 9.2152C12.2075 9.2552 12.1835 9.23121 12.1915 9.42321L12.1275 9.54321C12.0816 9.54921 12.0348 9.54373 11.9915 9.52721L11.9995 9.51921Z" fill="#0A328C" stroke="#0A328C" stroke-width="0.04"/>
<path d="M12.0316 9.99938L11.9516 9.92738L11.9756 9.35938L12.0556 9.38338L12.0316 9.99137V9.99938Z" fill="#F1B517" stroke="black" stroke-width="0.04"/>
<path d="M12.1358 9.54249C12.1838 9.51049 12.2158 9.42245 12.1838 9.37445C12.1038 9.27045 12.0478 9.31049 11.9118 9.26245C11.8878 9.29449 11.8318 9.34245 11.8398 9.39045C12.0238 9.47045 11.9518 9.40645 12.0158 9.41445C12.0478 9.41445 12.0638 9.45445 12.1358 9.53445V9.54249Z" fill="#D20014" stroke="#D20014" stroke-width="0.04"/>
<path d="M11.0783 12.8236C11.0623 12.7836 10.9983 12.7516 10.9183 12.7516C10.8383 12.7516 10.7823 12.7836 10.7583 12.8236C10.7555 12.8131 10.7555 12.802 10.7583 12.7916C10.7583 12.7356 10.8303 12.6956 10.9183 12.6956C11.0143 12.6956 11.0863 12.7356 11.0863 12.7916C11.089 12.802 11.089 12.8131 11.0863 12.8236H11.0783Z" fill="#016A16" stroke="white" stroke-width="0.04" stroke-linecap="round"/>
<path d="M11.071 12.9431C11.071 13.0391 10.999 13.1271 10.919 13.1271C10.839 13.1271 10.775 13.0471 10.775 12.9351V12.8391H11.071V12.9351V12.9431Z" fill="#016A16" stroke="white" stroke-width="0.04" stroke-linecap="round"/>
<path d="M10.919 12.8784C10.9985 12.8784 11.063 12.8462 11.063 12.8064C11.063 12.7666 10.9985 12.7344 10.919 12.7344C10.8395 12.7344 10.775 12.7666 10.775 12.8064C10.775 12.8462 10.8395 12.8784 10.919 12.8784Z" fill="white"/>
<path d="M10.8865 12.8795L10.8625 12.6235H10.9745L10.9585 12.8875H10.8865V12.8795Z" fill="#016A16" stroke="#F1B517" stroke-width="0.04"/>
<path d="M11.0783 12.8062C11.0623 12.8462 10.9983 12.8782 10.9183 12.8782C10.8383 12.8782 10.7823 12.8462 10.7583 12.8062C10.7555 12.8167 10.7555 12.8277 10.7583 12.8382C10.7583 12.8942 10.8303 12.9342 10.9183 12.9342C11.0143 12.9342 11.0863 12.8942 11.0863 12.8382C11.089 12.8277 11.089 12.8167 11.0863 12.8062H11.0783Z" fill="#016A16" stroke="white" stroke-width="0.04" stroke-linecap="round"/>
<path d="M11.6784 13.8229L11.1184 13.6469L10.8704 13.2229L9.99844 13.1829L10.0304 13.5029L10.7744 13.6389L10.8384 13.7669L11.6944 14.0069L11.6784 13.8229Z" fill="#F1B517" stroke="black" stroke-width="0.04"/>
<path d="M11.0954 13.9435L10.1994 12.6235L10.1594 12.6635L11.0394 13.9755L11.0954 13.9435Z" fill="#503200" stroke="black" stroke-width="0.04"/>
<path d="M10.2866 12.679L10.1906 12.519C10.1666 12.487 10.1426 12.479 10.1026 12.503C10.0626 12.519 10.0706 12.559 10.0866 12.591L10.1666 12.743L10.2866 12.679Z" fill="white" stroke="black" stroke-width="0.04"/>
<path d="M11.1996 13.1278L9.39956 12.9438L9.35156 13.2078L11.1436 13.3918L11.1996 13.1278Z" fill="#F1B517" stroke="black" stroke-width="0.04"/>
<path d="M9.35876 12.8796L9.31876 13.2396H9.39875L9.44676 12.9116L9.36676 12.8796H9.35876ZM9.66275 12.9356L9.64676 13.2636H9.69476L9.73475 12.9836L9.67075 12.9356H9.66275ZM10.8868 13.0796L10.8388 13.3836H10.9268L10.9668 13.0796H10.8868ZM11.1508 13.0876L11.0948 13.4396L11.1908 13.4556L11.2228 13.2716C11.2228 13.3116 11.2628 13.3356 11.3028 13.3356C11.3508 13.3356 11.3828 13.2956 11.3828 13.2556C11.3828 13.2076 11.3508 13.1756 11.3028 13.1756C11.2861 13.1743 11.2694 13.1782 11.255 13.1868C11.2407 13.1954 11.2294 13.2083 11.2228 13.2236L11.2468 13.0956L11.1508 13.0876ZM10.5108 13.1436L10.2548 13.4236L10.2868 13.4556L10.6068 13.2396L10.5028 13.1436H10.5108ZM9.91876 13.8396L10.1668 13.5596L10.1428 13.5276L9.82276 13.7436L9.91876 13.8396ZM10.5668 13.7676L10.2708 13.5356L10.2388 13.5596L10.4788 13.8636L10.5668 13.7676ZM9.82276 13.2316L10.1348 13.4556L10.1668 13.4316L9.92675 13.1276L9.82276 13.2316ZM10.1588 13.0476L10.1908 13.4156H10.2308L10.3268 13.0556L10.1588 13.0476ZM10.2548 13.9276L10.2308 13.5676H10.1828L10.1268 13.9356H10.2548V13.9276ZM10.6628 13.4476L10.2788 13.4796V13.5196L10.6628 13.5676V13.4396V13.4476ZM9.75076 13.5676L10.1268 13.5116V13.4796L9.74276 13.4396V13.5676H9.75076Z" fill="#F1B517" stroke="black" stroke-width="0.04"/>
<path d="M10.2149 13.5826C10.2724 13.5826 10.3189 13.5396 10.3189 13.4866C10.3189 13.4336 10.2724 13.3906 10.2149 13.3906C10.1575 13.3906 10.1109 13.4336 10.1109 13.4866C10.1109 13.5396 10.1575 13.5826 10.2149 13.5826Z" fill="#F1B517" stroke="black" stroke-width="0.04"/>
<path fill-rule="evenodd" clip-rule="evenodd" d="M10.7501 13.4873C10.7501 13.7673 10.5101 14.0073 10.2141 14.0073C10.1448 14.0084 10.0759 13.9958 10.0115 13.9702C9.94701 13.9447 9.88821 13.9067 9.83841 13.8584C9.78865 13.8101 9.74889 13.7525 9.72137 13.6888C9.69385 13.6251 9.67917 13.5567 9.67813 13.4873C9.67813 13.1993 9.91813 12.9673 10.2141 12.9673C10.2835 12.9663 10.3523 12.9789 10.4168 13.0045C10.4813 13.03 10.5401 13.068 10.5899 13.1163C10.6396 13.1646 10.6794 13.2222 10.7069 13.2859C10.7344 13.3495 10.7491 13.418 10.7501 13.4873ZM10.6461 13.4873C10.6451 13.543 10.6331 13.598 10.6108 13.649C10.5885 13.7001 10.5564 13.7462 10.5163 13.7849C10.4762 13.8235 10.4289 13.8538 10.377 13.8741C10.3252 13.8945 10.2698 13.9044 10.2141 13.9033C10.1578 13.9044 10.1018 13.8942 10.0494 13.8734C9.99705 13.8526 9.94937 13.8215 9.90913 13.782C9.86893 13.7425 9.83697 13.6955 9.81517 13.6435C9.79337 13.5915 9.78213 13.5357 9.78213 13.4793C9.78629 13.3683 9.83393 13.2633 9.91469 13.187C9.99549 13.1107 10.103 13.0692 10.2141 13.0713C10.2698 13.0703 10.3252 13.0802 10.377 13.1005C10.4289 13.1209 10.4762 13.1512 10.5163 13.1899C10.5564 13.2285 10.5885 13.2747 10.6108 13.3257C10.6331 13.3767 10.6451 13.4317 10.6461 13.4873Z" fill="#F1B517" stroke="black" stroke-width="0.04" stroke-linecap="round"/>
<path d="M11.6944 12.9673L11.7824 13.4473L11.7104 13.4793L11.6304 12.9753H11.6944V12.9673Z" fill="#F1B517"/>
<path d="M9.87843 13.2233L9.79843 13.1593M10.4784 13.1593L10.5584 13.0793M10.6384 13.8153L10.5504 13.7433M9.87843 13.8953L9.95843 13.8153M11.6944 12.9673L11.7824 13.4473L11.7104 13.4793L11.6304 12.9753H11.6944V12.9673Z" stroke="black" stroke-width="0.04"/>
<path d="M11.6465 12.9102C11.6065 12.8862 11.5505 12.9182 11.4545 12.8062C11.3025 12.9422 11.4545 12.9662 11.4705 13.1022C11.5105 13.1182 11.5425 12.9902 11.6545 12.9822L11.8385 12.9662L11.7985 12.9102H11.6385H11.6465Z" fill="white" stroke="black" stroke-width="0.04"/>
<path d="M11.7101 12.9995L11.6941 12.8635C11.6701 12.8075 11.6141 12.8555 11.6141 12.8795L11.6301 13.0155L11.7101 12.9995Z" fill="white" stroke="black" stroke-width="0.04"/>
<path fill-rule="evenodd" clip-rule="evenodd" d="M11.2627 13.3906V13.5186C11.2147 13.5346 11.2227 13.5666 11.2227 13.6146V13.9906C11.2147 14.0226 11.1667 14.0226 11.1427 14.0386C11.1187 14.0626 11.1267 14.1026 11.2227 14.1186L11.3027 14.1266C11.4227 14.1026 11.4467 14.0626 11.3827 14.0466C11.3587 14.0306 11.3107 14.0146 11.3027 13.9986V13.9026H11.3827C11.3987 13.9026 11.4387 13.8546 11.4387 13.8146V13.6146C11.4387 13.5026 11.3587 13.4866 11.3267 13.4946V13.3906H11.2627ZM11.3907 13.6066C11.3907 13.5746 11.3427 13.5426 11.3267 13.5426C11.3107 13.5426 11.2707 13.5826 11.2707 13.6146V13.6946C11.2707 13.7266 11.2947 13.8226 11.3427 13.8306C11.3587 13.8306 11.3907 13.7986 11.3907 13.7666V13.6066Z" fill="#F1B517" stroke="black" stroke-width="0.04"/>
<path d="M10.7432 13.7828C10.6872 13.7668 10.6872 13.8788 10.6872 13.8788H10.7672C10.8072 13.8948 10.8312 13.9428 10.8152 13.9748C10.7912 13.9908 10.6392 13.9348 10.6312 13.9748C10.6552 14.1268 10.8632 14.1828 10.9352 14.1188C11.0072 14.0468 11.0232 13.8788 10.7912 13.8228L10.7432 13.7828Z" fill="white"/>
<path d="M10.7672 13.8788H10.6872C10.6872 13.8788 10.6872 13.7668 10.7432 13.7828L10.7912 13.8228C11.0232 13.8788 11.0072 14.0468 10.9352 14.1188C10.8632 14.1828 10.6552 14.1268 10.6312 13.9748C10.6392 13.9348 10.7912 13.9908 10.8152 13.9748C10.8312 13.9428 10.8072 13.8948 10.7672 13.8788ZM10.7672 13.8788L10.7912 13.8308" stroke="black" stroke-width="0.04"/>
<path d="M9.19893 13.839L9.11893 13.519M9.28693 13.823L9.16693 13.575M9.48693 13.759L9.22293 13.615M9.60693 13.727L9.11093 13.511" stroke="black" stroke-width="0.04"/>
<path d="M8.81483 13.2798L8.60683 13.2878C8.59083 13.2958 8.64683 13.3598 8.63883 13.3758C8.59083 13.4638 8.28683 13.4558 8.26283 13.4398C8.22283 13.3998 8.54283 13.3758 8.55083 13.3598C8.55083 13.3278 8.50283 13.2638 8.51083 13.2238C8.51083 13.1678 8.64683 13.1438 8.64683 13.1438L8.81483 13.2798Z" fill="#D20014" stroke="#D20014" stroke-width="0.04"/>
<path d="M9.05493 13.4383L8.65493 13.1023C8.65493 13.1023 8.63093 13.0863 8.61493 13.1023C8.59893 13.1183 8.61493 13.1343 8.61493 13.1343L9.04693 13.4863L9.05493 13.4463V13.4383Z" fill="#503200" stroke="black" stroke-width="0.04"/>
<path d="M9.45479 13.7743L9.11879 13.4863L9.09479 13.4062L9.03079 13.4543C9.00679 13.4703 8.98279 13.5183 8.98279 13.5183H9.07079L9.35879 13.7903L9.44679 13.7743H9.45479Z" fill="#F1B517" stroke="black" stroke-width="0.04"/>
<path d="M10.5982 14.2228C10.6291 14.2228 10.6542 14.1978 10.6542 14.1668C10.6542 14.1359 10.6291 14.1108 10.5982 14.1108C10.5672 14.1108 10.5422 14.1359 10.5422 14.1668C10.5422 14.1978 10.5672 14.2228 10.5982 14.2228Z" fill="#F1B517" stroke="black" stroke-width="0.04"/>
<path d="M10.4466 14.1105C10.4775 14.1105 10.5026 14.0855 10.5026 14.0545C10.5026 14.0236 10.4775 13.9985 10.4466 13.9985C10.4157 13.9985 10.3906 14.0236 10.3906 14.0545C10.3906 14.0855 10.4157 14.1105 10.4466 14.1105Z" fill="#F1B517" stroke="black" stroke-width="0.04"/>
<path d="M10.2466 14.1823C10.2776 14.1823 10.3026 14.1572 10.3026 14.1263C10.3026 14.0954 10.2776 14.0703 10.2466 14.0703C10.2157 14.0703 10.1906 14.0954 10.1906 14.1263C10.1906 14.1572 10.2157 14.1823 10.2466 14.1823Z" fill="#F1B517" stroke="black" stroke-width="0.04"/>
<path d="M9.93411 14.2463C9.96503 14.2463 9.99011 14.2212 9.99011 14.1903C9.99011 14.1594 9.96503 14.1343 9.93411 14.1343C9.90319 14.1343 9.87811 14.1594 9.87811 14.1903C9.87811 14.2212 9.90319 14.2463 9.93411 14.2463Z" fill="#F1B517" stroke="black" stroke-width="0.04"/>
<path d="M9.79819 14.2636C9.82911 14.2636 9.85419 14.2385 9.85419 14.2076C9.85419 14.1767 9.82911 14.1516 9.79819 14.1516C9.76723 14.1516 9.74219 14.1767 9.74219 14.2076C9.74219 14.2385 9.76723 14.2636 9.79819 14.2636Z" fill="#F1B517" stroke="black" stroke-width="0.04"/>
<path d="M9.66223 14.2636C9.69315 14.2636 9.71823 14.2385 9.71823 14.2076C9.71823 14.1767 9.69315 14.1516 9.66223 14.1516C9.63131 14.1516 9.60623 14.1767 9.60623 14.2076C9.60623 14.2385 9.63131 14.2636 9.66223 14.2636Z" fill="#F1B517" stroke="black" stroke-width="0.04"/>
<path d="M9.53412 14.2636C9.56504 14.2636 9.59012 14.2385 9.59012 14.2076C9.59012 14.1767 9.56504 14.1516 9.53412 14.1516C9.5032 14.1516 9.47812 14.1767 9.47812 14.2076C9.47812 14.2385 9.5032 14.2636 9.53412 14.2636Z" fill="#F1B517" stroke="black" stroke-width="0.04"/>
<path d="M9.59821 14.1589C9.62913 14.1589 9.65421 14.1338 9.65421 14.1029C9.65421 14.072 9.62913 14.0469 9.59821 14.0469C9.56725 14.0469 9.54221 14.072 9.54221 14.1029C9.54221 14.1338 9.56725 14.1589 9.59821 14.1589Z" fill="#F1B517" stroke="black" stroke-width="0.04"/>
<path d="M9.72632 14.1667C9.75724 14.1667 9.78232 14.1416 9.78232 14.1107C9.78232 14.0798 9.75724 14.0547 9.72632 14.0547C9.6954 14.0547 9.67032 14.0798 9.67032 14.1107C9.67032 14.1416 9.6954 14.1667 9.72632 14.1667Z" fill="#F1B517" stroke="black" stroke-width="0.04"/>
<path d="M9.84665 14.1511C9.87757 14.1511 9.90265 14.126 9.90265 14.0951C9.90265 14.0641 9.87757 14.0391 9.84665 14.0391C9.81569 14.0391 9.79065 14.0641 9.79065 14.0951C9.79065 14.126 9.81569 14.1511 9.84665 14.1511Z" fill="#F1B517" stroke="black" stroke-width="0.04"/>
<path d="M9.79037 14.0558C9.82133 14.0558 9.84637 14.0308 9.84637 13.9998C9.84637 13.9689 9.82133 13.9438 9.79037 13.9438C9.75945 13.9438 9.73438 13.9689 9.73438 13.9998C9.73438 14.0308 9.75945 14.0558 9.79037 14.0558Z" fill="#F1B517" stroke="black" stroke-width="0.04"/>
<path d="M9.66223 14.0463C9.69315 14.0463 9.71823 14.0213 9.71823 13.9903C9.71823 13.9594 9.69315 13.9343 9.66223 13.9343C9.63131 13.9343 9.60623 13.9594 9.60623 13.9903C9.60623 14.0213 9.63131 14.0463 9.66223 14.0463Z" fill="#F1B517" stroke="black" stroke-width="0.04"/>
<path fill-rule="evenodd" clip-rule="evenodd" d="M10.9187 14.2383C10.9187 14.2143 10.8547 14.2223 10.8547 14.1903C10.8547 14.1583 10.9507 14.1903 10.9587 14.2143C11.0147 14.1663 11.0387 14.1983 11.0707 14.2143C11.1187 14.1503 11.1747 14.1503 11.2307 14.1983C11.2627 14.1663 11.3427 14.1743 11.3667 14.2143C11.4227 14.1663 11.4707 14.1743 11.5027 14.2143C11.5187 14.1903 11.5427 14.1903 11.5587 14.2143C11.5827 14.1583 11.6547 14.1743 11.6867 14.2143C11.7107 14.1823 11.7427 14.2063 11.7747 14.2223C11.7987 14.2063 11.8387 14.2063 11.8387 14.2223C11.8387 14.2543 11.7907 14.2463 11.7907 14.2703C11.7907 14.2863 11.8227 14.2703 11.8227 14.3023C11.8227 14.3263 11.7747 14.3343 11.7667 14.3023C11.7427 14.3343 11.6787 14.3183 11.6707 14.2863C11.6647 14.2931 11.6573 14.2986 11.649 14.3023C11.6408 14.306 11.6318 14.308 11.6227 14.308C11.6136 14.308 11.6046 14.306 11.5964 14.3023C11.5881 14.2986 11.5807 14.2931 11.5747 14.2863C11.5507 14.3023 11.5187 14.3023 11.5107 14.2863C11.4707 14.3263 11.3987 14.3183 11.3747 14.2703H11.3507C11.3432 14.2788 11.334 14.2856 11.3236 14.2903C11.3132 14.295 11.302 14.2974 11.2907 14.2974C11.2793 14.2974 11.2681 14.295 11.2578 14.2903C11.2474 14.2856 11.2382 14.2788 11.2307 14.2703C11.1587 14.3183 11.1187 14.3023 11.0787 14.2703C11.0387 14.3263 10.9667 14.3263 10.9587 14.2703C10.9267 14.2943 10.8627 14.3023 10.8627 14.2703C10.8627 14.2543 10.9187 14.2623 10.9187 14.2383ZM11.0467 14.2463C11.0467 14.2623 11.0307 14.2703 11.0147 14.2703C10.9987 14.2703 10.9827 14.2623 10.9827 14.2463C10.9827 14.2303 10.9907 14.2303 11.0147 14.2303C11.0387 14.2303 11.0467 14.2383 11.0467 14.2463ZM11.1987 14.2303C11.1987 14.2463 11.1747 14.2543 11.1507 14.2543C11.1267 14.2543 11.1107 14.2463 11.1107 14.2303C11.1107 14.2223 11.1267 14.2063 11.1507 14.2063C11.1747 14.2063 11.1907 14.2223 11.1907 14.2303H11.1987ZM11.4787 14.2463C11.4787 14.2623 11.4627 14.2703 11.4387 14.2703C11.4147 14.2703 11.4067 14.2623 11.4067 14.2463C11.4067 14.2383 11.4227 14.2223 11.4387 14.2223C11.4547 14.2223 11.4787 14.2303 11.4787 14.2463ZM11.3267 14.2463C11.3267 14.2623 11.3107 14.2703 11.2867 14.2703C11.2627 14.2703 11.2547 14.2623 11.2547 14.2383C11.2547 14.2223 11.2707 14.2063 11.2867 14.2063C11.3027 14.2063 11.3267 14.2223 11.3267 14.2383V14.2463ZM11.6467 14.2463C11.6467 14.2543 11.6387 14.2703 11.6227 14.2703C11.5987 14.2703 11.5827 14.2543 11.5827 14.2383C11.5827 14.2223 11.5987 14.2143 11.6227 14.2143C11.6387 14.2143 11.6547 14.2223 11.6547 14.2383L11.6467 14.2463ZM11.5507 14.2463C11.5507 14.2623 11.5507 14.2703 11.5347 14.2703C11.5187 14.2703 11.5107 14.2623 11.5107 14.2463C11.5107 14.2303 11.5187 14.2303 11.5347 14.2303L11.5507 14.2463ZM11.7427 14.2543C11.7427 14.2703 11.7427 14.2863 11.7187 14.2863C11.7107 14.2863 11.6947 14.2703 11.6947 14.2543C11.6947 14.2383 11.7107 14.2303 11.7187 14.2303C11.7347 14.2303 11.7427 14.2383 11.7427 14.2543Z" fill="#F1B517" stroke="black" stroke-width="0.04"/>
<path d="M12.3106 13.8229L12.8706 13.6469L13.1186 13.2229L13.9906 13.1829L13.9586 13.5029L13.2146 13.6389L13.1506 13.7669L12.2946 14.0069L12.3106 13.8229Z" fill="#F1B517" stroke="black" stroke-width="0.04"/>
<path d="M12.8937 13.9435L13.7897 12.6235L13.8297 12.6635L12.9497 13.9755L12.8937 13.9435Z" fill="#503200" stroke="black" stroke-width="0.04"/>
<path d="M13.7025 12.679L13.7985 12.519C13.8225 12.487 13.8465 12.479 13.8865 12.503C13.9265 12.519 13.9185 12.559 13.9025 12.591L13.8225 12.743L13.7025 12.679Z" fill="white" stroke="black" stroke-width="0.04"/>
<path d="M12.7895 13.1278L14.5895 12.9438L14.6375 13.2078L12.8455 13.3918L12.7895 13.1278Z" fill="#F1B517" stroke="black" stroke-width="0.04"/>
<path d="M14.6303 12.8796L14.6703 13.2396H14.5903L14.5423 12.9116L14.6223 12.8796H14.6303ZM14.3263 12.9356L14.3423 13.2636H14.2943L14.2543 12.9836L14.3183 12.9356H14.3263ZM13.1023 13.0796L13.1503 13.3836H13.0623L13.0223 13.0796H13.1023ZM12.8383 13.0876L12.8943 13.4396L12.7983 13.4556L12.7663 13.2716C12.7663 13.3116 12.7263 13.3356 12.6863 13.3356C12.6383 13.3356 12.6063 13.2956 12.6063 13.2556C12.6063 13.2076 12.6383 13.1756 12.6863 13.1756C12.703 13.1743 12.7197 13.1782 12.734 13.1868C12.7484 13.1954 12.7597 13.2083 12.7663 13.2236L12.7423 13.0956L12.8383 13.0876ZM13.4783 13.1436L13.7343 13.4236L13.7023 13.4556L13.3823 13.2396L13.4863 13.1436H13.4783ZM14.0703 13.8396L13.8223 13.5596L13.8463 13.5276L14.1663 13.7436L14.0703 13.8396ZM13.4223 13.7676L13.7183 13.5356L13.7503 13.5596L13.5103 13.8636L13.4223 13.7676ZM14.1663 13.2316L13.8543 13.4556L13.8223 13.4316L14.0623 13.1276L14.1663 13.2316ZM13.8303 13.0476L13.7983 13.4156H13.7583L13.6623 13.0556L13.8303 13.0476ZM13.7343 13.9276L13.7583 13.5676H13.8063L13.8623 13.9356H13.7343V13.9276ZM13.3263 13.4476L13.7103 13.4796V13.5196L13.3263 13.5676V13.4396V13.4476ZM14.2383 13.5676L13.8623 13.5116V13.4796L14.2463 13.4396V13.5676H14.2383Z" fill="#F1B517" stroke="black" stroke-width="0.04"/>
<path d="M13.7741 13.5826C13.7167 13.5826 13.6701 13.5396 13.6701 13.4866C13.6701 13.4336 13.7167 13.3906 13.7741 13.3906C13.8315 13.3906 13.8781 13.4336 13.8781 13.4866C13.8781 13.5396 13.8315 13.5826 13.7741 13.5826Z" fill="#F1B517" stroke="black" stroke-width="0.04"/>
<path fill-rule="evenodd" clip-rule="evenodd" d="M13.2389 13.4873C13.2389 13.7673 13.4789 14.0073 13.7749 14.0073C13.8443 14.0084 13.9132 13.9958 13.9776 13.9702C14.0421 13.9447 14.1009 13.9067 14.1506 13.8584C14.2004 13.8101 14.2402 13.7525 14.2677 13.6888C14.2952 13.6251 14.3099 13.5567 14.3109 13.4873C14.3109 13.1993 14.0709 12.9673 13.7749 12.9673C13.7056 12.9663 13.6367 12.9789 13.5723 13.0045C13.5078 13.03 13.449 13.068 13.3992 13.1163C13.3494 13.1646 13.3097 13.2222 13.2822 13.2859C13.2547 13.3495 13.24 13.418 13.2389 13.4873ZM13.3429 13.4873C13.344 13.543 13.356 13.598 13.3782 13.649C13.4005 13.7001 13.4326 13.7462 13.4728 13.7849C13.5129 13.8235 13.5602 13.8538 13.612 13.8741C13.6639 13.8945 13.7192 13.9044 13.7749 13.9033C13.8313 13.9044 13.8873 13.8942 13.9396 13.8734C13.992 13.8526 14.0397 13.8215 14.0799 13.782C14.1202 13.7425 14.1521 13.6955 14.1739 13.6435C14.1957 13.5915 14.207 13.5357 14.2069 13.4793C14.2028 13.3683 14.1552 13.2633 14.0744 13.187C13.9936 13.1107 13.886 13.0692 13.7749 13.0713C13.7192 13.0703 13.6639 13.0802 13.612 13.1005C13.5602 13.1209 13.5129 13.1512 13.4728 13.1899C13.4326 13.2285 13.4005 13.2747 13.3782 13.3257C13.356 13.3767 13.344 13.4317 13.3429 13.4873Z" fill="#F1B517" stroke="black" stroke-width="0.04" stroke-linecap="round"/>
<path d="M12.2946 12.9673L12.2066 13.4473L12.2786 13.4793L12.3586 12.9753H12.2946V12.9673Z" fill="#F1B517"/>
<path d="M14.1106 13.2233L14.1906 13.1593M13.5106 13.1593L13.4306 13.0793M13.3506 13.8153L13.4386 13.7433M14.1106 13.8953L14.0306 13.8153M12.2946 12.9673L12.2066 13.4473L12.2786 13.4793L12.3586 12.9753H12.2946V12.9673Z" stroke="black" stroke-width="0.04"/>
<path d="M12.3426 12.9102C12.3826 12.8862 12.4386 12.9182 12.5346 12.8062C12.6866 12.9422 12.5346 12.9662 12.5186 13.1022C12.4786 13.1182 12.4466 12.9902 12.3346 12.9822L12.1506 12.9662L12.1906 12.9102H12.3506H12.3426Z" fill="white" stroke="black" stroke-width="0.04"/>
<path d="M12.279 12.9995L12.295 12.8635C12.319 12.8075 12.375 12.8555 12.375 12.8795L12.359 13.0155L12.279 12.9995Z" fill="white" stroke="black" stroke-width="0.04"/>
<path fill-rule="evenodd" clip-rule="evenodd" d="M12.7264 13.3906V13.5186C12.7744 13.5346 12.7664 13.5666 12.7664 13.6146V13.9906C12.7744 14.0226 12.8224 14.0226 12.8464 14.0386C12.8704 14.0626 12.8624 14.1026 12.7664 14.1186L12.6864 14.1266C12.5664 14.1026 12.5424 14.0626 12.6064 14.0466C12.6304 14.0306 12.6784 14.0146 12.6864 13.9986V13.9026H12.6064C12.5904 13.9026 12.5504 13.8546 12.5504 13.8146V13.6146C12.5504 13.5026 12.6304 13.4866 12.6624 13.4946V13.3906H12.7264ZM12.5984 13.6066C12.5984 13.5746 12.6464 13.5426 12.6624 13.5426C12.6784 13.5426 12.7184 13.5826 12.7184 13.6146V13.6946C12.7184 13.7266 12.6944 13.8226 12.6464 13.8306C12.6304 13.8306 12.5984 13.7986 12.5984 13.7666V13.6066Z" fill="#F1B517" stroke="black" stroke-width="0.04"/>
<path d="M13.2458 13.7828C13.3018 13.7668 13.3018 13.8788 13.3018 13.8788H13.2218C13.1818 13.8948 13.1578 13.9428 13.1738 13.9748C13.1978 13.9908 13.3498 13.9348 13.3578 13.9748C13.3338 14.1268 13.1258 14.1828 13.0538 14.1188C12.9818 14.0468 12.9658 13.8788 13.1978 13.8228L13.2458 13.7828Z" fill="white"/>
<path d="M13.2218 13.8788H13.3018C13.3018 13.8788 13.3018 13.7668 13.2458 13.7828L13.1978 13.8228C12.9658 13.8788 12.9818 14.0468 13.0538 14.1188C13.1258 14.1828 13.3338 14.1268 13.3578 13.9748C13.3498 13.9348 13.1978 13.9908 13.1738 13.9748C13.1578 13.9428 13.1818 13.8948 13.2218 13.8788ZM13.2218 13.8788L13.1978 13.8308" stroke="black" stroke-width="0.04"/>
<path d="M14.7901 13.839L14.8701 13.519M14.7021 13.823L14.8221 13.575M14.5021 13.759L14.7661 13.615M14.3821 13.727L14.8781 13.511" stroke="black" stroke-width="0.04"/>
<path d="M15.1743 13.2798L15.3823 13.2878C15.3983 13.2958 15.3423 13.3598 15.3503 13.3758C15.3983 13.4638 15.7023 13.4558 15.7263 13.4398C15.7663 13.3998 15.4463 13.3758 15.4383 13.3598C15.4383 13.3278 15.4863 13.2638 15.4783 13.2238C15.4783 13.1678 15.3423 13.1438 15.3423 13.1438L15.1743 13.2798Z" fill="#D20014" stroke="#D20014" stroke-width="0.04"/>
<path d="M14.9341 13.4383L15.3341 13.1023C15.3341 13.1023 15.3581 13.0863 15.3741 13.1023C15.3901 13.1183 15.3741 13.1343 15.3741 13.1343L14.9421 13.4863L14.9341 13.4463V13.4383Z" fill="#503200" stroke="black" stroke-width="0.04"/>
<path d="M14.5342 13.7743L14.8702 13.4863L14.8942 13.4062L14.9582 13.4543C14.9822 13.4703 15.0062 13.5183 15.0062 13.5183H14.9182L14.6302 13.7903L14.5422 13.7743H14.5342Z" fill="#F1B517" stroke="black" stroke-width="0.04"/>
<path d="M13.3909 14.2228C13.3599 14.2228 13.3349 14.1978 13.3349 14.1668C13.3349 14.1359 13.3599 14.1108 13.3909 14.1108C13.4218 14.1108 13.4469 14.1359 13.4469 14.1668C13.4469 14.1978 13.4218 14.2228 13.3909 14.2228Z" fill="#F1B517" stroke="black" stroke-width="0.04"/>
<path d="M13.5424 14.1105C13.5115 14.1105 13.4865 14.0855 13.4865 14.0545C13.4865 14.0236 13.5115 13.9985 13.5424 13.9985C13.5734 13.9985 13.5985 14.0236 13.5985 14.0545C13.5985 14.0855 13.5734 14.1105 13.5424 14.1105Z" fill="#F1B517" stroke="black" stroke-width="0.04"/>
<path d="M13.7424 14.1823C13.7115 14.1823 13.6864 14.1572 13.6864 14.1263C13.6864 14.0954 13.7115 14.0703 13.7424 14.0703C13.7734 14.0703 13.7984 14.0954 13.7984 14.1263C13.7984 14.1572 13.7734 14.1823 13.7424 14.1823Z" fill="#F1B517" stroke="black" stroke-width="0.04"/>
<path d="M14.0549 14.2463C14.024 14.2463 13.9989 14.2212 13.9989 14.1903C13.9989 14.1594 14.024 14.1343 14.0549 14.1343C14.0859 14.1343 14.1109 14.1594 14.1109 14.1903C14.1109 14.2212 14.0859 14.2463 14.0549 14.2463Z" fill="#F1B517" stroke="black" stroke-width="0.04"/>
<path d="M14.1909 14.2636C14.16 14.2636 14.1349 14.2385 14.1349 14.2076C14.1349 14.1767 14.16 14.1516 14.1909 14.1516C14.2218 14.1516 14.2469 14.1767 14.2469 14.2076C14.2469 14.2385 14.2218 14.2636 14.1909 14.2636Z" fill="#F1B517" stroke="black" stroke-width="0.04"/>
<path d="M14.3268 14.2636C14.2959 14.2636 14.2708 14.2385 14.2708 14.2076C14.2708 14.1767 14.2959 14.1516 14.3268 14.1516C14.3578 14.1516 14.3828 14.1767 14.3828 14.2076C14.3828 14.2385 14.3578 14.2636 14.3268 14.2636Z" fill="#F1B517" stroke="black" stroke-width="0.04"/>
<path d="M14.4549 14.2636C14.424 14.2636 14.3989 14.2385 14.3989 14.2076C14.3989 14.1767 14.424 14.1516 14.4549 14.1516C14.4859 14.1516 14.5109 14.1767 14.5109 14.2076C14.5109 14.2385 14.4859 14.2636 14.4549 14.2636Z" fill="#F1B517" stroke="black" stroke-width="0.04"/>
<path d="M14.3909 14.1589C14.3599 14.1589 14.3349 14.1338 14.3349 14.1029C14.3349 14.072 14.3599 14.0469 14.3909 14.0469C14.4218 14.0469 14.4469 14.072 14.4469 14.1029C14.4469 14.1338 14.4218 14.1589 14.3909 14.1589Z" fill="#F1B517" stroke="black" stroke-width="0.04"/>
<path d="M14.2628 14.1667C14.2318 14.1667 14.2068 14.1416 14.2068 14.1107C14.2068 14.0798 14.2318 14.0547 14.2628 14.0547C14.2937 14.0547 14.3188 14.0798 14.3188 14.1107C14.3188 14.1416 14.2937 14.1667 14.2628 14.1667Z" fill="#F1B517" stroke="black" stroke-width="0.04"/>
<path d="M14.1424 14.1511C14.1115 14.1511 14.0864 14.126 14.0864 14.0951C14.0864 14.0641 14.1115 14.0391 14.1424 14.0391C14.1733 14.0391 14.1984 14.0641 14.1984 14.0951C14.1984 14.126 14.1733 14.1511 14.1424 14.1511Z" fill="#F1B517" stroke="black" stroke-width="0.04"/>
<path d="M14.1987 14.0558C14.1677 14.0558 14.1427 14.0308 14.1427 13.9998C14.1427 13.9689 14.1677 13.9438 14.1987 13.9438C14.2296 13.9438 14.2547 13.9689 14.2547 13.9998C14.2547 14.0308 14.2296 14.0558 14.1987 14.0558Z" fill="#F1B517" stroke="black" stroke-width="0.04"/>
<path d="M14.3268 14.0463C14.2959 14.0463 14.2708 14.0213 14.2708 13.9903C14.2708 13.9594 14.2959 13.9343 14.3268 13.9343C14.3578 13.9343 14.3828 13.9594 14.3828 13.9903C14.3828 14.0213 14.3578 14.0463 14.3268 14.0463Z" fill="#F1B517" stroke="black" stroke-width="0.04"/>
<path fill-rule="evenodd" clip-rule="evenodd" d="M13.0704 14.2383C13.0704 14.2143 13.1344 14.2223 13.1344 14.1903C13.1344 14.1583 13.0384 14.1903 13.0304 14.2143C12.9744 14.1663 12.9504 14.1983 12.9184 14.2143C12.8704 14.1503 12.8144 14.1503 12.7584 14.1983C12.7264 14.1663 12.6464 14.1743 12.6224 14.2143C12.5664 14.1663 12.5184 14.1743 12.4864 14.2143C12.4704 14.1903 12.4464 14.1903 12.4304 14.2143C12.4064 14.1583 12.3344 14.1743 12.3024 14.2143C12.2784 14.1823 12.2464 14.2063 12.2144 14.2223C12.1904 14.2063 12.1504 14.2063 12.1504 14.2223C12.1504 14.2543 12.1984 14.2463 12.1984 14.2703C12.1984 14.2863 12.1664 14.2703 12.1664 14.3023C12.1664 14.3263 12.2144 14.3343 12.2224 14.3023C12.2464 14.3343 12.3104 14.3183 12.3184 14.2863C12.3244 14.2931 12.3318 14.2986 12.34 14.3023C12.3483 14.306 12.3573 14.308 12.3664 14.308C12.3754 14.308 12.3844 14.306 12.3927 14.3023C12.401 14.2986 12.4084 14.2931 12.4144 14.2863C12.4384 14.3023 12.4704 14.3023 12.4784 14.2863C12.5184 14.3263 12.5904 14.3183 12.6144 14.2703H12.6384C12.6459 14.2788 12.6551 14.2856 12.6655 14.2903C12.6758 14.295 12.687 14.2974 12.6984 14.2974C12.7097 14.2974 12.721 14.295 12.7313 14.2903C12.7416 14.2856 12.7509 14.2788 12.7584 14.2703C12.8304 14.3183 12.8704 14.3023 12.9104 14.2703C12.9504 14.3263 13.0224 14.3263 13.0304 14.2703C13.0624 14.2943 13.1264 14.3023 13.1264 14.2703C13.1264 14.2543 13.0704 14.2623 13.0704 14.2383ZM12.9424 14.2463C12.9424 14.2623 12.9584 14.2703 12.9744 14.2703C12.9904 14.2703 13.0064 14.2623 13.0064 14.2463C13.0064 14.2303 12.9984 14.2303 12.9744 14.2303C12.9504 14.2303 12.9424 14.2383 12.9424 14.2463ZM12.7904 14.2303C12.7904 14.2463 12.8144 14.2543 12.8384 14.2543C12.8624 14.2543 12.8784 14.2463 12.8784 14.2303C12.8784 14.2223 12.8624 14.2063 12.8384 14.2063C12.8144 14.2063 12.7984 14.2223 12.7984 14.2303H12.7904ZM12.5104 14.2463C12.5104 14.2623 12.5264 14.2703 12.5504 14.2703C12.5744 14.2703 12.5824 14.2623 12.5824 14.2463C12.5824 14.2383 12.5664 14.2223 12.5504 14.2223C12.5344 14.2223 12.5104 14.2303 12.5104 14.2463ZM12.6624 14.2463C12.6624 14.2623 12.6784 14.2703 12.7024 14.2703C12.7264 14.2703 12.7344 14.2623 12.7344 14.2383C12.7344 14.2223 12.7184 14.2063 12.7024 14.2063C12.6864 14.2063 12.6624 14.2223 12.6624 14.2383V14.2463ZM12.3424 14.2463C12.3424 14.2543 12.3504 14.2703 12.3664 14.2703C12.3904 14.2703 12.4064 14.2543 12.4064 14.2383C12.4064 14.2223 12.3904 14.2143 12.3664 14.2143C12.3504 14.2143 12.3344 14.2223 12.3344 14.2383L12.3424 14.2463ZM12.4384 14.2463C12.4384 14.2623 12.4384 14.2703 12.4544 14.2703C12.4704 14.2703 12.4784 14.2623 12.4784 14.2463C12.4784 14.2303 12.4704 14.2303 12.4544 14.2303L12.4384 14.2463ZM12.2464 14.2543C12.2464 14.2703 12.2464 14.2863 12.2704 14.2863C12.2784 14.2863 12.2944 14.2703 12.2944 14.2543C12.2944 14.2383 12.2784 14.2303 12.2704 14.2303C12.2544 14.2303 12.2464 14.2383 12.2464 14.2543Z" fill="#F1B517" stroke="black" stroke-width="0.04"/>
<path d="M11.9834 13.2546C11.7834 13.2546 11.6234 13.3346 11.6234 13.4226C11.6234 13.4386 11.6234 13.4546 11.6394 13.4706C11.6794 13.5186 11.8234 13.5506 11.9914 13.5506C12.1514 13.5506 12.2794 13.5266 12.3274 13.4786C12.3434 13.4626 12.3514 13.4466 12.3514 13.4226C12.3514 13.3346 12.1914 13.2626 11.9834 13.2626V13.2546Z" fill="#0A328C" stroke="#0A328C" stroke-width="0.04"/>
<path d="M12.3514 13.439V13.999C12.3514 14.071 12.1914 14.119 11.9914 14.119C11.7914 14.119 11.6234 14.071 11.6234 13.999V13.439C11.6234 13.503 11.7834 13.559 11.9834 13.559C12.1914 13.559 12.3514 13.503 12.3514 13.439Z" fill="#F1B517" stroke="black" stroke-width="0.04"/>
<path d="M11.6234 13.439V13.519L11.7994 14.079L11.9434 13.647L12.1034 14.087L12.2074 13.671L12.3514 13.951V13.799L12.2234 13.527C12.2076 13.5329 12.1916 13.5382 12.1754 13.543L12.0954 13.847L11.9754 13.559C11.9568 13.5594 11.9381 13.5594 11.9194 13.559L11.7994 13.847L11.6714 13.495C11.6394 13.479 11.6234 13.455 11.6234 13.439Z" fill="#D20014" stroke="#D20014" stroke-width="0.04"/>
<path d="M12.3514 13.8953V13.9993C12.3514 14.0713 12.1914 14.1193 11.9914 14.1193C11.7914 14.1193 11.6234 14.0713 11.6234 13.9993V13.8953C11.6234 13.9673 11.7834 14.0153 11.9834 14.0153C12.1914 14.0153 12.3514 13.9673 12.3514 13.8953Z" fill="#0A328C" stroke="#0A328C" stroke-width="0.04"/>
<path d="M12.1354 13.9993L12.0474 14.0153V14.1193L12.1434 14.1113V14.0073L12.1354 13.9993ZM11.7514 13.9913V14.0953L11.8394 14.1113V14.0073C11.8098 14.0038 11.7804 13.9984 11.7514 13.9913ZM11.6234 13.8953V13.9993C11.6234 14.0233 11.6394 14.0393 11.6634 14.0553V13.9513C11.6394 13.9353 11.6234 13.9193 11.6234 13.8953ZM12.3514 13.9113C12.3514 13.9273 12.3194 13.9513 12.2874 13.9673V14.0713C12.3274 14.0553 12.3514 14.0313 12.3514 13.9993V13.9193V13.9113Z" fill="#F1B517" stroke="black" stroke-width="0.04"/>
<path d="M12.3514 13.439V13.999C12.3514 14.071 12.1914 14.119 11.9914 14.119C11.7914 14.119 11.6234 14.071 11.6234 13.999V13.439" stroke="black" stroke-width="0.04"/>
<path d="M12.2711 13.3987C12.2711 13.4387 12.1431 13.4787 11.9911 13.4787C11.8311 13.4787 11.7031 13.4387 11.7031 13.3987C11.7031 13.3587 11.8311 13.3267 11.9831 13.3267C12.1431 13.3267 12.2711 13.3587 12.2711 13.4067V13.3987Z" fill="white" stroke="white" stroke-width="0.04"/>
<path d="M11.8941 13.4543L11.9101 13.5503H11.9901L11.9981 13.4543H11.8941ZM12.2221 13.4303L12.1421 13.4463L12.1501 13.5423L12.2301 13.5263V13.4383L12.2221 13.4303ZM11.7901 13.2703L11.7341 13.2943L11.7421 13.3743L11.7901 13.3583V13.2783V13.2703ZM11.9821 13.2463H11.9581L11.9741 13.3423H12.0221L12.0381 13.2463C12.0194 13.2457 12.0007 13.2457 11.9821 13.2463ZM12.1981 13.2783L12.1901 13.3583L12.2461 13.3823V13.3023C12.2306 13.2933 12.2146 13.2853 12.1981 13.2783ZM11.6781 13.5023L11.6941 13.3983L11.6141 13.3583V13.4783L11.6781 13.5023ZM12.3501 13.4783V13.3743L12.2861 13.3983L12.3501 13.4783ZM13.0941 12.7983C13.1581 12.7983 13.2541 12.8783 13.2621 12.9983C13.2621 13.0783 13.1261 13.0783 13.1261 13.0783C13.1261 13.1183 13.0461 13.1503 12.9821 13.1583C12.9181 13.1583 12.9981 13.0383 12.9981 13.0383C12.9581 12.9343 13.0141 12.8223 13.0141 12.8223L13.0941 12.7983Z" fill="#F1B517" stroke="black" stroke-width="0.04"/>
<path d="M12.9984 13.0393H13.0624C13.0624 13.0393 13.0624 13.0633 13.0784 13.0633C13.0944 13.0633 13.1024 13.0312 13.1024 13.0312H13.1984" fill="#F1B517"/>
<path d="M12.9984 13.0393H13.0624C13.0624 13.0393 13.0624 13.0633 13.0784 13.0633C13.0944 13.0633 13.1024 13.0312 13.1024 13.0312H13.1984" stroke="black" stroke-width="0.04"/>
<path d="M13.126 12.8715C13.182 12.8315 13.134 12.7515 13.094 12.7515H13.014C12.966 12.7515 12.902 12.7995 12.91 12.8315C12.91 12.8715 12.942 12.8875 12.974 12.8795C12.99 12.8795 13.022 12.8315 13.038 12.8315C13.062 12.8315 13.118 12.8795 13.126 12.8715Z" fill="#D20014" stroke="#F1B517" stroke-width="0.04"/>
<path fill-rule="evenodd" clip-rule="evenodd" d="M9.13519 13.9829C9.08719 13.9909 9.07919 14.0469 9.09519 14.1029C8.88719 14.1589 8.69519 14.2389 8.50319 14.2949C8.49519 14.2549 8.59919 14.1509 8.59919 14.1509C8.62319 14.1589 8.64719 14.2229 8.64719 14.2229C8.64719 14.0949 8.77519 14.0149 8.77519 14.0149C8.69519 13.9989 8.47919 14.0949 8.45519 14.1269C8.45519 14.1269 8.53519 14.1109 8.55119 14.1269C8.55119 14.1269 8.37519 14.3109 8.36719 14.3669C8.39919 14.4229 8.68719 14.4709 8.68719 14.4709C8.68719 14.4869 8.60719 14.5509 8.60719 14.5509C8.72719 14.5669 8.90319 14.4869 8.95119 14.4389C8.95119 14.4389 8.81519 14.4229 8.71119 14.3349C8.71119 14.3349 8.72719 14.3909 8.71119 14.4149C8.71119 14.4149 8.55119 14.3669 8.52719 14.3349C8.52719 14.3349 8.92719 14.2389 9.11919 14.1749C9.12719 14.2149 9.16719 14.2789 9.21519 14.2629C9.23919 14.2549 9.23119 14.1989 9.21519 14.1509C9.22167 14.1567 9.22927 14.1611 9.23751 14.1639C9.24579 14.1666 9.25451 14.1677 9.26319 14.1669C9.29519 14.1669 9.31919 14.1429 9.31919 14.1109C9.31919 14.0789 9.29519 14.0549 9.26319 14.0549C9.25099 14.0556 9.23927 14.0597 9.22935 14.0667C9.21943 14.0738 9.21175 14.0836 9.20719 14.0949C9.19919 14.0549 9.17519 13.9829 9.14319 13.9909L9.13519 13.9829ZM9.29519 14.1109C9.29519 14.1269 9.27919 14.1349 9.26319 14.1349C9.25943 14.1362 9.25543 14.1366 9.25151 14.136C9.24763 14.1354 9.24391 14.1339 9.24075 14.1315C9.23755 14.1291 9.23503 14.126 9.23335 14.1224C9.23171 14.1188 9.23095 14.1149 9.23119 14.1109C9.23119 14.0949 9.24719 14.0789 9.26319 14.0789C9.27919 14.0789 9.28719 14.0949 9.28719 14.1109H9.29519Z" fill="#F1B517" stroke="black" stroke-width="0.04"/>
<path d="M15.4381 14.2305C15.4541 14.1985 15.4381 14.0545 15.4381 14.0545C15.3981 14.0545 15.3581 14.1105 15.3581 14.1105C15.3981 13.9825 15.2941 13.7905 15.2941 13.7905C15.3661 13.7985 15.6061 14.0305 15.6141 14.0785C15.6141 14.0785 15.5101 14.0385 15.4941 14.0465C15.5181 14.1665 15.5981 14.2225 15.6301 14.2865C15.6301 14.2865 15.4941 14.3105 15.5021 14.4305H15.4141C15.3821 14.3905 15.4221 14.3265 15.4221 14.3265L14.8061 14.0705C14.7661 14.0545 14.6781 14.0065 14.6941 13.9585C14.7021 13.9185 14.8541 13.9825 14.8861 13.9985L15.4461 14.2305H15.4381Z" fill="#F1B517" stroke="black" stroke-width="0.04"/>
<path d="M14.8472 14.1194L14.9272 13.9914C14.9512 13.9514 14.8952 13.9114 14.8552 13.9594L14.7752 14.0794C14.7432 14.1514 14.8152 14.1674 14.8552 14.1194H14.8472Z" fill="#F1B517" stroke="black" stroke-width="0.04"/>
<path d="M10.5103 14.4298L10.5053 14.2798L10.3303 14.2948L10.3203 14.4498L10.5103 14.4298Z" fill="white" stroke="black" stroke-width="0.0375"/>
<path d="M9.21967 14.6338L8.98468 14.4988C9.95468 14.5888 10.1547 14.2488 10.3897 14.2338C10.5397 14.2188 10.5547 14.3938 10.2747 14.3088L10.3497 14.4888C10.3497 14.4888 9.65968 14.8788 8.97968 14.7188L9.21967 14.6338ZM13.4597 14.4288L13.4647 14.2788L13.6797 14.2888L13.6897 14.4438L13.4597 14.4288Z" fill="white" stroke="black" stroke-width="0.0375"/>
<path d="M14.7953 14.5994L15.0203 14.4744C13.9003 14.5094 14.1553 14.2944 13.6003 14.2344C13.4503 14.2144 13.3503 14.4044 13.7103 14.3094L13.6403 14.4894H13.8153C14.1953 14.7394 14.7053 14.7644 15.0453 14.6844L14.7953 14.5994Z" fill="white" stroke="black" stroke-width="0.0375"/>
<path d="M10.275 14.314V14.564C10.275 14.564 10.89 14.794 11.995 14.794C13.105 14.794 13.715 14.564 13.715 14.564V14.314C13.715 14.314 13.25 14.529 11.995 14.529C10.745 14.529 10.275 14.314 10.275 14.314Z" fill="white" stroke="black" stroke-width="0.0375"/>
<path d="M10.3641 14.5646L10.4191 14.3796L10.4441 14.3896L10.3941 14.5496L10.4941 14.5746L10.4841 14.5996L10.3641 14.5646ZM10.5441 14.4846V14.4496L10.5541 14.4146L10.5841 14.4246L10.5741 14.4546L10.5591 14.4896L10.5441 14.4846ZM10.8091 14.4696L10.8341 14.4796L10.8141 14.5846L10.7941 14.6346C10.7877 14.6434 10.779 14.6504 10.7691 14.6546H10.7191C10.7026 14.6518 10.6872 14.645 10.6741 14.6346C10.6639 14.6275 10.6568 14.6168 10.6541 14.6046L10.6591 14.5546L10.6841 14.4446L10.7091 14.4496L10.6841 14.5596C10.6815 14.5728 10.6815 14.5864 10.6841 14.5996C10.6851 14.6072 10.6886 14.6142 10.6941 14.6196L10.7191 14.6296H10.7691L10.7891 14.5796L10.8091 14.4696ZM10.8391 14.6696L10.8691 14.4846H10.8991L10.9741 14.6546L10.9991 14.5046H11.0241L10.9941 14.6996L10.9691 14.6946L10.8891 14.5296L10.8641 14.6796L10.8391 14.6746V14.6696ZM11.0391 14.7046L11.0691 14.5146H11.0941L11.0691 14.7046H11.0441H11.0391ZM11.1191 14.6196C11.1191 14.5896 11.1341 14.5646 11.1541 14.5496C11.174 14.5344 11.199 14.5273 11.2241 14.5296C11.2441 14.5296 11.2591 14.5346 11.2741 14.5446L11.2991 14.5846C11.3091 14.5996 11.3091 14.6196 11.3041 14.6346C11.3032 14.6523 11.298 14.6694 11.2891 14.6846C11.2798 14.7003 11.2658 14.7126 11.2491 14.7196C11.2331 14.7256 11.2159 14.7273 11.1991 14.7246C11.1814 14.7242 11.1641 14.719 11.1491 14.7096C11.1371 14.699 11.1284 14.6851 11.1241 14.6696C11.1184 14.6536 11.1166 14.6365 11.1191 14.6196ZM11.1441 14.6196C11.1441 14.6446 11.1441 14.6696 11.1591 14.6796C11.1691 14.6946 11.1841 14.7046 11.2041 14.7046C11.2241 14.7046 11.2391 14.7046 11.2541 14.6896C11.2691 14.6796 11.2741 14.6596 11.2791 14.6396C11.2835 14.6233 11.2835 14.606 11.2791 14.5896C11.2734 14.579 11.2647 14.5703 11.2541 14.5646C11.2442 14.5563 11.232 14.551 11.2191 14.5496C11.2041 14.5496 11.1841 14.5496 11.1691 14.5646C11.1591 14.5746 11.1491 14.5946 11.1441 14.6246V14.6196ZM11.3291 14.7346L11.3441 14.5446H11.3741L11.4641 14.7046L11.4741 14.5546H11.4991L11.4841 14.7496H11.4591L11.3641 14.5896L11.3541 14.7396H11.3291V14.7346ZM11.6091 14.7546L11.6141 14.5646L11.7491 14.5696V14.5946L11.6441 14.5896L11.6391 14.6446L11.7341 14.6496V14.6746L11.6341 14.6696V14.7596H11.6091V14.7546ZM11.7591 14.7596L11.8341 14.5696H11.8641L11.9391 14.7696H11.9091L11.8891 14.7046H11.8041L11.7841 14.7646H11.7541L11.7591 14.7596ZM11.8091 14.6846H11.8791L11.8591 14.6346C11.855 14.6198 11.8517 14.6048 11.8491 14.5896L11.8391 14.6296L11.8141 14.6846H11.8091ZM11.9641 14.7646V14.5746H11.9941V14.7646H11.9641ZM12.0891 14.7646V14.5996H12.0241V14.5796H12.1791V14.5996H12.1141V14.7696H12.0891V14.7646ZM12.2891 14.7646L12.2741 14.5646H12.3041L12.3091 14.7346H12.4091V14.7546L12.2841 14.7596L12.2891 14.7646ZM12.4191 14.7546L12.4791 14.5546H12.5091L12.6091 14.7396H12.5741L12.5491 14.6896H12.4641L12.4491 14.7546H12.4191ZM12.4691 14.6696H12.5391L12.5141 14.6196L12.4941 14.5746C12.4935 14.5881 12.4918 14.6015 12.4891 14.6146L12.4691 14.6696ZM12.7041 14.7296L12.6841 14.5396L12.8141 14.5246L12.8191 14.5496L12.7141 14.5596V14.6196L12.8141 14.6096V14.6346L12.7191 14.6446L12.7291 14.7296H12.7041ZM12.8541 14.6246C12.8501 14.6114 12.8489 14.5974 12.8506 14.5836C12.8524 14.5698 12.8569 14.5566 12.8641 14.5446C12.8805 14.5251 12.9037 14.5126 12.9291 14.5096L12.9791 14.5146C12.9991 14.5196 13.0091 14.5296 13.0191 14.5446L13.0391 14.5946L13.0341 14.6446C13.0286 14.6608 13.0181 14.6749 13.0041 14.6846C12.991 14.695 12.9755 14.7018 12.9591 14.7046C12.9422 14.7073 12.925 14.7056 12.9091 14.6996C12.893 14.6939 12.8791 14.6834 12.8691 14.6696C12.8582 14.655 12.8513 14.6378 12.8491 14.6196L12.8541 14.6246ZM12.8791 14.6196C12.8791 14.6396 12.8891 14.6596 12.9041 14.6696C12.9191 14.6846 12.9341 14.6846 12.9541 14.6846C12.9741 14.6846 12.9891 14.6746 13.0041 14.6596C13.0141 14.6446 13.0141 14.6246 13.0141 14.5996C13.012 14.5854 13.0069 14.5718 12.9991 14.5596C12.9919 14.5484 12.9814 14.5397 12.9691 14.5346C12.9576 14.5317 12.9456 14.5317 12.9341 14.5346C12.9141 14.5346 12.8991 14.5396 12.8841 14.5546C12.8791 14.5696 12.8741 14.5896 12.8791 14.6196ZM13.0841 14.6846L13.0541 14.4946L13.1391 14.4796H13.1791C13.1891 14.4796 13.1991 14.4796 13.2041 14.4896L13.2191 14.5196C13.2191 14.5346 13.2191 14.5446 13.2091 14.5546C13.2041 14.5646 13.1891 14.5746 13.1741 14.5796C13.1792 14.5808 13.1843 14.5824 13.1891 14.5846L13.2141 14.6096L13.2641 14.6546H13.2291L13.1941 14.6246C13.1861 14.6159 13.1778 14.6076 13.1691 14.5996C13.1646 14.5956 13.1595 14.5922 13.1541 14.5896C13.1491 14.5887 13.144 14.5887 13.1391 14.5896H13.1241L13.0941 14.5946L13.1141 14.6796H13.0841V14.6846ZM13.0941 14.5746L13.1441 14.5646C13.1546 14.5632 13.1648 14.5598 13.1741 14.5546C13.1793 14.5517 13.1835 14.5473 13.1862 14.5419C13.1888 14.5366 13.1898 14.5306 13.1891 14.5246C13.1884 14.517 13.1848 14.5098 13.1791 14.5046H13.1441L13.0791 14.5096L13.0941 14.5746ZM13.4091 14.5546H13.4341C13.4341 14.5746 13.4291 14.5946 13.4191 14.6046C13.4058 14.6194 13.3883 14.6298 13.3691 14.6346C13.3527 14.6389 13.3355 14.6389 13.3191 14.6346C13.3029 14.6292 13.2888 14.6187 13.2791 14.6046C13.2672 14.59 13.2587 14.5729 13.2541 14.5546C13.2502 14.5382 13.2502 14.5211 13.2541 14.5046C13.2541 14.4846 13.2691 14.4696 13.2791 14.4596L13.3241 14.4396H13.3741C13.3941 14.4496 13.4041 14.4596 13.4141 14.4796L13.3891 14.4896C13.3834 14.479 13.3747 14.4703 13.3641 14.4646C13.3527 14.4608 13.3404 14.4608 13.3291 14.4646C13.3159 14.4648 13.3033 14.4702 13.2941 14.4796C13.285 14.4892 13.2797 14.5016 13.2791 14.5146V14.5496C13.283 14.5642 13.2898 14.5778 13.2991 14.5896C13.3041 14.5996 13.3141 14.6096 13.3291 14.6096H13.3641C13.3754 14.6079 13.3859 14.6026 13.3941 14.5946C13.4041 14.5846 13.4091 14.5696 13.4091 14.5546ZM13.4791 14.6046L13.4291 14.4196L13.5641 14.3846L13.5741 14.4046L13.4591 14.4346L13.4741 14.4896L13.5791 14.4646L13.5891 14.4846L13.4791 14.5146L13.4991 14.5746L13.6191 14.5446V14.5646L13.4791 14.6046Z" fill="black"/>
</g>
</g>
</g>
<defs>
<clipPath id="clip0_69_6724">
<rect width="24" height="24" rx="12" fill="white"/>
</clipPath>
<clipPath id="clip1_69_6724">
<rect width="32" height="24" fill="white" transform="translate(-4)"/>
</clipPath>
</defs>
</svg>
