<svg width="24" height="24" viewBox="0 0 24 24" fill="none" xmlns="http://www.w3.org/2000/svg">
<g clip-path="url(#clip0_69_7893)">
<path fill-rule="evenodd" clip-rule="evenodd" d="M24.8 25.2H-0.799988V-2.80005H24.8V25.2Z" fill="#BA0000"/>
<path fill-rule="evenodd" clip-rule="evenodd" d="M12.635 16.4542C12.642 16.433 12.6561 16.2145 12.6491 16.2145C12.642 16.2145 12.3177 15.8302 12.3248 15.8302C12.3318 15.8302 12.7407 15.9219 12.7407 15.9078C12.7407 15.8937 12.9064 15.5024 12.9064 15.4954L13.1038 15.9712L13.5092 16.1475L13.2272 16.3837L13.2871 16.8419C13.2871 16.8525 13.0051 16.574 13.0051 16.574L12.6914 16.6093C12.6914 16.6093 12.6491 16.4683 12.635 16.4542Z" fill="#FFEF00" stroke="black" stroke-width="0.2585"/>
<path fill-rule="evenodd" clip-rule="evenodd" d="M10.4391 10.4929C10.1677 10.6339 9.13481 11.8148 8.99381 11.9981C8.84984 12.3077 8.64896 12.5875 8.40161 12.8229C8.1443 13.0168 8.0033 13.2812 8.03855 13.5279C8.03855 13.8452 8.21126 14.0567 8.34875 14.2717C8.42981 14.3739 8.54261 14.4374 8.65895 14.4479C8.90216 14.4761 8.92331 14.5537 9.0467 14.596C9.51905 15.2446 10.2311 15.724 10.7387 16.1012C10.9723 16.2119 11.1865 16.3595 11.3732 16.5383C11.5213 16.8273 11.4931 17.1023 11.4719 17.2433L11.0947 18.6744C11.0278 19.0622 11.3697 18.9776 11.3873 18.9C11.5389 18.6991 11.768 18.8401 12.0923 17.6909L12.5435 17.0882C12.5435 17.0882 12.7162 17.0177 12.7162 17C12.9806 16.6828 12.7797 16.5065 12.6281 16.4466L12.3038 16.3268C12.3038 16.3268 11.9231 15.9461 11.9055 15.9461C11.7257 15.4208 10.8374 14.3034 10.633 14.1483C10.492 13.9967 10.4215 13.9368 10.2875 13.8522C10.0795 13.7535 10.0126 13.7183 9.88565 13.6689C9.7799 13.6266 9.85391 13.5103 9.9209 13.4574C10.6259 13.0732 11.1793 12.6502 11.8526 12.2201L11.9584 12.1496L11.7151 10.7678L10.5942 10.373C10.5343 10.4118 10.4884 10.4541 10.4391 10.4929Z" fill="white" stroke="black" stroke-width="0.3055"/>
<path fill-rule="evenodd" clip-rule="evenodd" d="M11.3768 17.7621C11.3768 17.748 12.0818 17.6211 12.0818 17.6211L11.9937 17.8819L11.2993 18.0934L11.3768 17.7656V17.7621Z" fill="#FFEC00"/>
<path d="M9.55432 15.1315C9.62623 14.9665 9.73078 14.8177 9.86161 14.6942C9.99244 14.5706 10.1469 14.4748 10.3157 14.4124" stroke="black" stroke-width="0.2585"/>
<path d="M11.3511 17.7693C11.397 17.7588 11.5979 17.6988 11.6543 17.6883C11.7177 17.6742 11.7777 17.6601 11.8376 17.6389C11.9081 17.6248 11.9504 17.6107 12.0209 17.6001C12.0785 17.5798 12.1374 17.5633 12.1971 17.5508M11.2242 18.2029C11.2509 18.1763 11.2805 18.1526 11.3124 18.1324C11.3511 18.1183 11.4886 18.0619 11.5415 18.0513C11.5974 18.0374 11.6527 18.0209 11.7072 18.002L11.8693 17.9597C11.9222 17.9385 11.9715 17.9244 12.0244 17.9103" stroke="black" stroke-width="0.282"/>
<path d="M11.5072 15.2346H11.5001C11.5283 15.2346 11.5107 15.2346 11.4684 15.2839C11.4543 15.3227 11.3274 15.4144 11.2287 15.4144C11.1737 15.4204 11.1184 15.4239 11.063 15.4249L11.0172 15.4144M11.5001 17.3002H11.5495C11.6023 17.3002 11.6552 17.3108 11.6975 17.3108C11.7504 17.3108 11.7998 17.3249 11.8491 17.3249C11.902 17.332 11.9619 17.3284 12.0148 17.339C12.0712 17.339 12.1205 17.3496 12.1805 17.3496M12.1805 17.3496C12.2298 17.3531 12.258 17.3602 12.3109 17.3602L12.1805 17.3496ZM11.1582 18.5234C11.1825 18.497 11.2097 18.4733 11.2393 18.4529C11.2745 18.4423 11.4014 18.3824 11.4508 18.3754C11.5009 18.3601 11.5504 18.3425 11.5988 18.3225L11.7504 18.2872C11.7962 18.2626 11.842 18.2485 11.8914 18.2344M12.0959 16.7821C12.0677 16.8631 12.1064 16.8843 12.1205 16.9195C12.1749 16.9776 12.2446 17.0191 12.3215 17.0394C12.3638 17.05 12.3919 17.0605 12.4413 17.0817C12.473 17.0817 12.4871 17.0923 12.5118 17.0993M8.12673 13.7576H8.13729C8.10555 13.7576 8.1267 13.7611 8.17605 13.7224C8.2113 13.6836 8.23599 13.666 8.26773 13.6272M8.7753 14.4732C8.78235 14.4732 9.36048 14.1841 9.42039 14.1207L9.5508 14.0185C9.58605 14.0008 9.61074 13.9797 9.64248 13.9585C9.66714 13.9233 9.70239 13.8986 9.72354 13.8634C9.75879 13.8316 9.74118 13.7999 9.77289 13.7611L9.81873 13.6272M10.5519 14.0572C10.5554 14.0784 10.5448 14.1418 10.5448 14.1912C10.5448 14.2476 10.4708 14.4203 10.3827 14.4732" stroke="black" stroke-width="0.2585"/>
<path d="M9.51875 14.05L9.75494 14.124C9.93119 14.1875 10.2978 14.4201 10.3366 14.4519C10.3718 14.4801 10.4423 14.5083 10.4635 14.54C10.5058 14.5752 10.5339 14.614 10.5657 14.6528C10.6009 14.6951 10.6362 14.7339 10.6538 14.7726C10.8463 15.0399 11.005 15.33 11.1262 15.6363C11.1508 15.6609 11.1614 15.6962 11.1861 15.735C11.2072 15.7843 11.2319 15.8055 11.2566 15.8442C11.2918 15.8689 11.3341 15.9147 11.3764 15.9359C11.4222 15.9747 11.4645 15.9888 11.4998 16.017C11.5456 16.0381 12.0744 16.3695 12.0991 16.3871C12.1484 16.4259 12.2929 16.5774 12.1907 16.6902C12.1484 16.7255 12.1061 16.7784 12.0708 16.796C12.0321 16.8383 11.9792 16.8559 11.9334 16.8735C11.6972 16.944 11.5738 16.9194 11.528 16.9194H11.4786M8.34845 12.8691C8.41895 12.8973 8.39075 12.8762 8.45069 12.9044C8.49299 12.922 8.52119 12.922 8.55644 12.9396C8.60225 12.9502 8.7221 12.9749 8.7785 13.0313C8.8208 13.0665 8.849 13.1018 8.89835 13.1265C8.94884 13.161 9.00329 13.1894 9.0605 13.2111C9.1169 13.2322 9.18035 13.2569 9.23675 13.2569H9.5117H9.3707" stroke="black" stroke-width="0.2585"/>
<path fill-rule="evenodd" clip-rule="evenodd" d="M8.33384 13.5385C8.48189 13.5279 8.73215 13.5737 8.7392 13.5737L9.07055 13.5667C9.2468 13.5526 9.28205 13.4856 9.31025 13.4363C9.37724 13.3376 9.41954 13.3023 9.4724 13.2248C9.54995 13.1684 9.66275 13.3058 9.66629 13.3058C9.94829 13.5737 9.72269 13.898 9.70859 13.9086C9.56759 14.039 9.53585 14.0461 9.45125 13.965C9.36665 13.8628 9.34199 13.817 9.27149 13.7817C9.134 13.7183 8.85554 13.7676 8.84849 13.7676L8.70395 13.824C8.63345 13.8487 8.59115 13.9086 8.47484 13.9298C8.35145 13.9368 8.31269 13.9262 8.25275 13.8275C8.17169 13.7042 8.21045 13.5526 8.33384 13.5385Z" fill="#FFE606" stroke="black" stroke-width="0.2585"/>
<path fill-rule="evenodd" clip-rule="evenodd" d="M16.1885 7.45478C16.1674 7.45478 15.9664 7.55348 15.97 7.56053C15.9735 7.56407 15.8008 8.03642 15.7972 8.03288C15.7937 8.02583 15.6739 7.62047 15.6598 7.62752C15.6492 7.63457 15.2262 7.68392 15.2227 7.68743L15.5399 7.28207L15.4941 6.84143L15.8395 6.97538L16.2097 6.69338C16.2167 6.68987 16.1145 7.07408 16.1145 7.07408L16.2978 7.32788C16.2978 7.32788 16.192 7.43363 16.1885 7.45478Z" fill="#FFEF00" stroke="black" stroke-width="0.2585"/>
<path fill-rule="evenodd" clip-rule="evenodd" d="M12.0702 12.2911C12.3205 12.4568 13.8574 12.7811 14.09 12.8128C14.4302 12.7868 14.7722 12.825 15.0982 12.9256C15.3907 13.0525 15.6904 13.0455 15.8913 12.8904C16.1662 12.7423 16.2649 12.4885 16.3848 12.2559C16.4101 12.2006 16.4232 12.1405 16.4232 12.0796C16.4232 12.0188 16.4101 11.9587 16.3848 11.9034C16.2931 11.6778 16.3495 11.6214 16.3284 11.4945C16.6597 10.7613 16.7302 9.90825 16.8078 9.27729C16.8007 8.90715 16.8395 8.62515 16.8783 8.51235C17.0151 8.3121 17.2129 8.16129 17.4423 8.0823L18.877 7.70865C19.2506 7.5747 19.0074 7.3209 18.9298 7.34205C18.6831 7.3068 18.6901 7.0389 17.5304 7.31739L16.7831 7.2222C16.7831 7.2222 16.6421 7.10589 16.6245 7.11645C16.2191 7.04244 16.1627 7.30329 16.1839 7.4619L16.2403 7.80735C16.2403 7.80735 16.0957 8.322 16.1028 8.3361C15.7327 8.75205 15.1863 10.0845 15.151 10.3418C15.1334 10.5815 15.0453 10.5357 15.0664 10.7719C15.0664 10.9552 15.0453 10.8424 15.1052 11.216C15.1228 11.3288 14.9818 11.3218 14.9043 11.2865C14.2275 10.8635 13.5859 10.585 12.8774 10.2114L12.7681 10.155L11.6824 11.0433L11.8869 12.2136C11.9503 12.2488 12.0067 12.2665 12.0667 12.2911H12.0702Z" fill="white" stroke="black" stroke-width="0.3055"/>
<path fill-rule="evenodd" clip-rule="evenodd" d="M17.9474 7.90897C17.7862 7.7323 17.6299 7.55128 17.4785 7.36612L17.7464 7.31323L18.2681 7.81732L17.9474 7.90897Z" fill="#FFEC00"/>
<path d="M16.5472 10.7863C16.368 10.8047 16.187 10.7868 16.015 10.7334C15.8429 10.6801 15.6834 10.5926 15.5461 10.4761" stroke="black" stroke-width="0.2585"/>
<path d="M17.9641 7.9268C17.9289 7.89506 17.7808 7.75055 17.7456 7.7012C17.7028 7.65476 17.6581 7.61006 17.6116 7.56725C17.5658 7.51436 17.5306 7.48265 17.4847 7.42625C17.4396 7.38689 17.3972 7.3445 17.3578 7.29935M18.4012 7.8281C18.3907 7.8281 18.3307 7.80341 18.2955 7.7858C18.2673 7.75406 18.1474 7.66595 18.1157 7.62365C18.0764 7.58186 18.0352 7.54187 17.9923 7.5038C17.95 7.45796 17.9183 7.4333 17.876 7.38041C17.8335 7.34822 17.7934 7.31285 17.7562 7.27466" stroke="black" stroke-width="0.282"/>
<path d="M15.6765 9.03371L15.68 9.04427C15.6659 9.01607 15.673 9.03371 15.74 9.04427C15.7823 9.03722 15.9233 9.10421 15.9691 9.18881C15.9973 9.22757 16.0396 9.28751 16.0607 9.32981C16.0678 9.34037 16.0678 9.36506 16.0748 9.37562M17.4848 8.02907L17.4778 8.02202L17.4566 7.98677L17.3932 7.84931C17.3685 7.80701 17.3579 7.75412 17.3333 7.71182C17.3121 7.66247 17.2804 7.61312 17.2628 7.56377C17.2346 7.51091 17.2205 7.46507 17.1923 7.40867M17.1923 7.40867C17.1676 7.36637 17.1641 7.33817 17.1359 7.29236L17.1923 7.40867ZM18.7151 7.72592C18.6808 7.7183 18.6477 7.70648 18.6164 7.69067C18.5882 7.66601 18.4754 7.58492 18.4401 7.54967C18.403 7.51259 18.3642 7.47731 18.3238 7.44392C18.2885 7.39811 18.2568 7.37342 18.218 7.32761C18.1779 7.29893 18.1402 7.2671 18.1052 7.23242M16.734 7.76117C16.8221 7.74707 16.8221 7.70477 16.8433 7.67306C16.8609 7.63781 16.875 7.54967 16.8503 7.44041L16.8292 7.31702C16.8151 7.28531 16.8151 7.26767 16.8116 7.24652M16.0466 12.7032L16.0431 12.6962C16.0572 12.7244 16.0502 12.7068 15.9867 12.6786L15.8633 12.6433M16.3533 11.7867C16.3498 11.7797 15.814 11.4201 15.7294 11.399C15.68 11.3743 15.6342 11.3637 15.5778 11.3355L15.4791 11.2862C15.4333 11.2791 15.3945 11.2615 15.3557 11.2615C15.3134 11.2474 15.2888 11.2756 15.2429 11.2686L15.1019 11.2932M15.1196 10.4437C15.1337 10.4296 15.1971 10.4085 15.2394 10.3838C15.2888 10.3591 15.4756 10.338 15.5637 10.3873" stroke="black" stroke-width="0.2585"/>
<path d="M15.6206 11.35L15.5677 11.1032C15.5469 10.8828 15.5469 10.6609 15.5677 10.4405C15.5748 10.3947 15.5677 10.3207 15.5853 10.2819C15.5959 10.2326 15.6135 10.1867 15.6312 10.1409C15.6523 10.088 15.6699 10.0422 15.6911 10.0034C15.7158 9.86243 16.1141 9.29492 16.1423 9.26672C16.1645 9.23408 16.1881 9.20234 16.2128 9.17153C16.2234 9.13628 16.248 9.10808 16.2692 9.06578C16.3044 9.02702 16.3115 8.99528 16.3326 8.95298C16.3362 8.91422 16.3538 8.85077 16.3538 8.80493C16.3644 8.74502 16.3538 8.69918 16.3644 8.66042C16.3573 8.60753 16.389 7.98362 16.3926 7.95542C16.4031 7.89197 16.4631 7.69103 16.6111 7.72628C16.664 7.74392 16.7274 7.75448 16.7662 7.77917C16.8156 7.79327 16.8579 7.83203 16.8966 7.86023C17.0729 8.03297 17.1117 8.14928 17.1363 8.19158L17.161 8.23388M15.1588 12.9292L15.1553 12.9221C15.1694 12.9468 15.1623 12.9327 15.1447 12.8834C15.1412 12.8375 15.1271 12.7776 15.12 12.7353C15.1095 12.6895 15.0883 12.6401 15.0954 12.6119C15.0777 12.5661 15.0883 12.5309 15.0954 12.485C15.1059 12.4286 15.113 12.3899 15.113 12.337C15.12 12.2665 15.113 12.2242 15.1165 12.1607C15.0989 12.1079 15.0954 12.0656 15.0707 12.0127L15.0002 11.8717L14.9297 11.7483L15.0002 11.8682" stroke="black" stroke-width="0.2585"/>
<path fill-rule="evenodd" clip-rule="evenodd" d="M15.7538 12.6332C15.6728 12.5063 15.5882 12.2666 15.5846 12.2631L15.419 11.9741C15.3203 11.8331 15.2427 11.8331 15.1863 11.8331C15.0665 11.8225 15.0136 11.7978 14.9255 11.7943C14.8338 11.752 14.9008 11.5863 14.8973 11.5828C14.9924 11.2091 15.3908 11.2444 15.4049 11.2514C15.5846 11.3114 15.6058 11.336 15.5776 11.4488C15.5318 11.5722 15.5071 11.618 15.5071 11.6956C15.5177 11.8436 15.701 12.0657 15.701 12.0692L15.8208 12.1679C15.8772 12.2173 15.9512 12.2243 16.0253 12.3195C16.0922 12.4217 16.1028 12.4605 16.0464 12.5592C15.9759 12.6932 15.8279 12.7319 15.7538 12.6332Z" fill="#FFE606" stroke="black" stroke-width="0.2585"/>
<path fill-rule="evenodd" clip-rule="evenodd" d="M6.43773 9.14615C6.45537 9.16025 6.64218 9.27656 6.64923 9.26951C6.65628 9.26246 7.14273 9.14966 7.13568 9.15671C7.12863 9.16376 6.86073 9.48455 6.87483 9.4916C6.88893 9.49865 7.15683 9.82295 7.16388 9.82646L6.65277 9.78416L6.30732 10.0591L6.22977 9.69956L5.79618 9.54446C5.78913 9.54095 6.16632 9.41756 6.16632 9.41756L6.27912 9.125C6.27912 9.125 6.42363 9.14966 6.44478 9.14615H6.43773Z" fill="#FFEF00" stroke="black" stroke-width="0.2585"/>
<path fill-rule="evenodd" clip-rule="evenodd" d="M12.7405 9.94318C12.7405 9.63649 12.1694 8.17363 12.0707 7.96564C11.8625 7.6951 11.707 7.38778 11.6125 7.05973C11.5596 6.74248 11.3904 6.49573 11.1542 6.41113C10.8757 6.26659 10.6078 6.32299 10.3505 6.34768C10.2236 6.37234 10.1143 6.44284 10.0544 6.54154C9.91341 6.74248 9.83937 6.72484 9.74067 6.81298C8.94756 6.93634 8.19672 7.34524 7.62567 7.62373C7.41975 7.77943 7.19001 7.90084 6.94536 7.98328C6.7029 7.97971 6.46806 7.89814 6.27561 7.75063L5.17932 6.75304C4.86207 6.51688 4.78452 6.85879 4.84446 6.91168C4.95021 7.13728 4.72107 7.27474 5.59176 8.09608L5.91957 8.77288C5.91957 8.77288 5.90196 8.95618 5.91957 8.96323C6.07467 9.34393 6.32847 9.24874 6.44832 9.14299L6.70566 8.90683C6.70566 8.90683 7.21677 8.74468 7.22382 8.73058C7.77372 8.81164 9.19077 8.54374 9.42342 8.43094C9.63492 8.31463 9.64551 8.41333 9.82881 8.26528C9.98037 8.16304 9.89931 8.24413 10.1813 7.98679C10.2659 7.91629 10.3329 8.03263 10.3505 8.11723C10.3646 8.91739 10.4845 9.60478 10.5585 10.4014L10.5726 10.5248L11.9121 10.9478L12.7792 10.137L12.744 9.93964L12.7405 9.94318Z" fill="white" stroke="black" stroke-width="0.3055"/>
<path fill-rule="evenodd" clip-rule="evenodd" d="M5.85577 7.4229C5.86633 7.43346 5.65837 8.1138 5.65837 8.1138L5.46802 7.91991L5.60197 7.20435L5.85577 7.4229Z" fill="#FFEC00"/>
<path d="M9.03168 7.02148C9.28548 7.30348 9.36654 7.76878 9.32073 8.02963" stroke="black" stroke-width="0.2585"/>
<path d="M5.86642 7.39833C5.85583 7.44417 5.81353 7.65213 5.79592 7.70502C5.77927 7.7667 5.76517 7.82901 5.75362 7.89183L5.70427 8.07513C5.69722 8.13507 5.68663 8.19147 5.66902 8.25138M5.53858 7.08813C5.54212 7.09872 5.55622 7.15863 5.55973 7.19742C5.55268 7.23972 5.54212 7.38777 5.52448 7.44063C5.51137 7.49655 5.50078 7.55298 5.49277 7.60983L5.45752 7.77198C5.45224 7.82667 5.44282 7.88088 5.42932 7.93413" stroke="black" stroke-width="0.282"/>
<path d="M8.04196 8.71016L8.0455 8.69957C8.0314 8.72777 8.0455 8.71016 8.0173 8.65022C7.98556 8.61497 7.96795 8.46341 8.01025 8.37527C8.03155 8.32376 8.05507 8.27318 8.08075 8.22371C8.08426 8.21312 8.1019 8.19902 8.10895 8.18846M6.2125 7.74782L6.20896 7.75487L6.18781 7.79012C6.16666 7.83947 6.13141 7.88177 6.11026 7.92056C6.08911 7.96637 6.05035 8.00162 6.0292 8.04746L5.9446 8.18846C5.91286 8.23781 5.88115 8.27657 5.85295 8.32946L5.78245 8.44226M5.2819 6.88067C5.28895 6.88772 5.30656 6.94766 5.3101 6.98642C5.30305 7.02167 5.296 7.16267 5.2819 7.20851L5.25721 7.36361C5.24311 7.42001 5.2396 7.45877 5.22196 7.51517C5.2201 7.56491 5.21419 7.61444 5.20435 7.66322M6.3958 8.52333C6.33586 8.45637 6.30061 8.48102 6.26185 8.47751C6.18451 8.49875 6.11485 8.54153 6.06091 8.60087C6.03271 8.63261 6.00805 8.65727 5.96926 8.68901C5.95165 8.71721 5.93755 8.72426 5.91991 8.74187M10.9078 6.38717L10.9043 6.39776C10.9184 6.36956 10.9078 6.38366 10.9219 6.45062C10.9395 6.49646 10.9395 6.52817 10.9571 6.57047M9.97366 6.63392C9.97366 6.64097 9.9631 7.28606 9.9913 7.37066C9.99835 7.42352 10.0124 7.46582 10.0195 7.53281C10.0195 7.56806 10.0301 7.60331 10.0336 7.63856C10.0547 7.68086 10.0583 7.72316 10.0829 7.75487C10.0935 7.80071 10.1288 7.80422 10.1499 7.84301C10.1746 7.87472 10.2204 7.92761 10.2486 7.94876M9.526 8.40348C9.50485 8.39643 9.4555 8.35412 9.4132 8.33297C9.36385 8.30477 9.24046 8.16026 9.23695 8.05802" stroke="black" stroke-width="0.2585"/>
<path d="M10.0089 7.48583L9.83264 7.66208C9.6596 7.80143 9.473 7.92305 9.27569 8.02517C9.23339 8.04632 9.1805 8.09567 9.13469 8.09918C9.08885 8.12033 9.0395 8.12738 8.99369 8.13797C8.66006 8.19842 8.32013 8.21618 7.982 8.19083C7.94198 8.19008 7.90202 8.18771 7.86215 8.18378C7.8269 8.19083 7.79165 8.18732 7.74584 8.19083C7.68944 8.18732 7.66124 8.19788 7.6154 8.20142C7.58015 8.22257 7.52024 8.24018 7.47794 8.26838C7.42505 8.28953 7.3898 8.32127 7.35104 8.33888C7.31579 8.37062 6.77294 8.68433 6.74474 8.69843C6.68834 8.72312 6.4874 8.78657 6.43454 8.64203C6.42044 8.58563 6.39929 8.52572 6.39575 8.48342C6.37814 8.43407 6.3887 8.37767 6.3887 8.32832C6.43805 8.08508 6.5156 7.98992 6.53675 7.94762L6.56144 7.90532M11.5775 7.00643L11.574 7.01702C11.5845 6.99233 11.581 7.00292 11.5458 7.04522C11.5105 7.07342 11.4682 7.11572 11.4365 7.15097C11.4012 7.17917 11.373 7.22147 11.3448 7.23557C11.3166 7.27082 11.2814 7.28492 11.2391 7.30607C11.1922 7.32356 11.1473 7.34603 11.1051 7.37303C11.0452 7.40123 11.01 7.43297 10.9571 7.46468C10.9218 7.50698 10.8866 7.53518 10.8584 7.58453C10.8302 7.63037 10.802 7.66913 10.7773 7.72202L10.7139 7.84538M11.1263 10.4222L11.1369 10.4045C11.1192 10.4398 11.1228 10.4292 11.1404 10.3728C11.1404 10.3094 11.158 10.2283 11.158 10.1684C11.1686 10.1049 11.1792 10.0379 11.1792 9.97448C11.1756 9.90398 11.1756 9.83348 11.1651 9.76298C11.1651 9.69953 11.1545 9.63257 11.1545 9.56558C11.1545 9.50213 11.1474 9.44927 11.1333 9.38933C11.1333 9.33266 11.1286 9.27605 11.1192 9.22013C11.1228 9.17783 11.1122 9.13553 11.1016 9.10028L11.0593 8.92052L11.0241 8.77598C11.017 8.71958 10.9888 8.64908 10.9747 8.60327C10.9566 8.5652 10.9436 8.52491 10.9359 8.48342C10.9183 8.44463 10.8936 8.39882 10.8901 8.35652L10.8337 8.22608L10.7844 8.09918C10.7667 8.04983 10.7456 8.00753 10.7315 7.95818C10.7139 7.94057 10.7103 7.92293 10.7033 7.90883" stroke="black" stroke-width="0.2585"/>
<path fill-rule="evenodd" clip-rule="evenodd" d="M11.0098 6.67237C10.9483 6.79318 10.8751 6.90772 10.7913 7.01428L10.6432 7.31038C10.5798 7.47253 10.6185 7.53952 10.6467 7.58533C10.7067 7.69108 10.7172 7.74748 10.7595 7.82503C10.7772 7.92373 10.6009 7.95898 10.6009 7.96252C10.2343 8.08942 10.0475 7.73692 10.0475 7.71928C9.99814 7.53598 10.0052 7.50778 10.118 7.46902C10.2449 7.43728 10.2942 7.43377 10.3577 7.39147C10.4811 7.29982 10.5657 7.02838 10.5692 7.02487L10.5833 6.86977C10.5939 6.79927 10.5621 6.72877 10.5974 6.61597C10.6467 6.50317 10.6749 6.47497 10.7877 6.46438C10.9358 6.45382 11.0521 6.55603 11.0098 6.67237Z" fill="#FFE606" stroke="black" stroke-width="0.2585"/>
<path fill-rule="evenodd" clip-rule="evenodd" d="M10.5306 10.2392C10.4742 10.1863 11.567 10.634 11.7186 10.6375C11.923 10.5635 12.7725 9.8479 12.7725 9.8479C12.7796 9.9184 12.8113 10.0982 12.8924 10.137C12.5646 10.4013 12.2685 10.6587 11.9406 10.923C11.9618 11.346 11.8878 11.7937 12.0993 12.2625C12.0993 12.2625 11.8455 12.2696 11.8455 12.2625C11.6199 12.0369 11.5388 10.9512 11.5388 10.9512L10.4601 10.4718C10.513 10.4366 10.5518 10.3344 10.5306 10.2357V10.2392Z" fill="#FFEF00" stroke="black" stroke-width="0.2585"/>
<path d="M11.5699 11.3532C11.5875 11.3391 11.3725 11.4519 11.3161 11.4801C10.3256 12.0088 9.81444 12.7843 9.78273 12.8125L9.70518 12.9324L9.62409 13.0381C9.58452 13.0953 9.54216 13.1506 9.49719 13.2038C9.49014 13.2249 9.51129 13.1932 9.50424 13.2108M12.2502 10.7222C12.3237 10.7812 12.4002 10.8365 12.4793 10.8879C13.4029 11.5294 14.3229 11.6316 14.3652 11.6457C14.4005 11.6457 14.4533 11.6563 14.5062 11.6634C14.5485 11.6634 14.5979 11.6775 14.6402 11.681C14.6895 11.688 14.7953 11.7092 14.8446 11.7233C14.8658 11.7162 14.827 11.7127 14.8446 11.7092" stroke="black" stroke-width="0.2585"/>
</g>
<defs>
<clipPath id="clip0_69_7893">
<rect width="24" height="24" rx="12" fill="white"/>
</clipPath>
</defs>
</svg>
