<svg width="24" height="24" viewBox="0 0 24 24" fill="none" xmlns="http://www.w3.org/2000/svg">
<g clip-path="url(#clip0_69_7214)">
<g clip-path="url(#clip1_69_7214)">
<mask id="mask0_69_7214" style="mask-type:luminance" maskUnits="userSpaceOnUse" x="-4" y="0" width="32" height="24">
<path d="M28 0H-4V24H28V0Z" fill="white"/>
</mask>
<g mask="url(#mask0_69_7214)">
<path d="M-4 0H28V8H-4V0Z" fill="#FF9933"/>
<path d="M-4 8H28V16H-4V8Z" fill="white"/>
<path d="M-4 16H28V24H-4V16Z" fill="#128807"/>
<path d="M12 15.2C13.7673 15.2 15.2 13.7674 15.2 12C15.2 10.2327 13.7673 8.80005 12 8.80005C10.2327 8.80005 8.79999 10.2327 8.79999 12C8.79999 13.7674 10.2327 15.2 12 15.2Z" fill="#000088"/>
<path d="M12 14.8C13.5464 14.8 14.8 13.5464 14.8 12C14.8 10.4536 13.5464 9.19995 12 9.19995C10.4536 9.19995 9.20001 10.4536 9.20001 12C9.20001 13.5464 10.4536 14.8 12 14.8Z" fill="white"/>
<path d="M11.9991 12.559C12.3084 12.559 12.5591 12.3082 12.5591 11.999C12.5591 11.6897 12.3084 11.439 11.9991 11.439C11.6898 11.439 11.4391 11.6897 11.4391 11.999C11.4391 12.3082 11.6898 12.559 11.9991 12.559Z" fill="#000088"/>
<path d="M14.7583 12.5075C14.8371 12.5179 14.9095 12.4623 14.9199 12.3835C14.9302 12.3047 14.8747 12.2323 14.7959 12.2219C14.717 12.2116 14.6447 12.2671 14.6343 12.3459C14.6239 12.4248 14.6794 12.4971 14.7583 12.5075Z" fill="#000088"/>
<path d="M12.0007 14.7988L12.0967 13.1188L12.0007 12.3188L11.9047 13.1188L12.0007 14.7988Z" fill="#000088"/>
<path d="M14.5322 13.2041C14.6057 13.2345 14.6899 13.1996 14.7204 13.1262C14.7508 13.0527 14.7159 12.9684 14.6424 12.938C14.5689 12.9076 14.4847 12.9424 14.4543 13.0159C14.4239 13.0894 14.4587 13.1736 14.5322 13.2041Z" fill="#000088"/>
<path d="M11.2758 14.7031L11.8034 13.1052L11.9177 12.3076L11.6179 13.0555L11.2758 14.7031Z" fill="#000088"/>
<path d="M14.1327 13.8178C14.1957 13.8662 14.2861 13.8543 14.3345 13.7912C14.383 13.7281 14.3711 13.6377 14.308 13.5893C14.2449 13.5409 14.1545 13.5528 14.1061 13.6159C14.0577 13.679 14.0695 13.7694 14.1327 13.8178Z" fill="#000088"/>
<path d="M10.5994 14.4239L11.5225 13.017L11.8394 12.2761L11.3563 12.921L10.5994 14.4239Z" fill="#000088"/>
<path d="M13.5889 14.3098C13.6373 14.3729 13.7277 14.3848 13.7907 14.3364C13.8539 14.288 13.8657 14.1976 13.8173 14.1345C13.7689 14.0714 13.6785 14.0595 13.6154 14.1079C13.5523 14.1563 13.5404 14.2467 13.5889 14.3098Z" fill="#000088"/>
<path d="M10.019 13.9792L11.2748 12.8592L11.7726 12.2256L11.139 12.7234L10.019 13.9792Z" fill="#000088"/>
<path d="M12.9375 14.6418C12.9679 14.7152 13.0521 14.7501 13.1256 14.7197C13.1991 14.6893 13.2339 14.605 13.2035 14.5316C13.1731 14.4581 13.0889 14.4232 13.0154 14.4536C12.9419 14.484 12.907 14.5683 12.9375 14.6418Z" fill="#000088"/>
<path d="M9.57526 13.3997L11.0782 12.6428L11.723 12.1597L10.9822 12.4765L9.57526 13.3997Z" fill="#000088"/>
<path d="M12.2223 14.7944C12.2327 14.8733 12.305 14.9288 12.3839 14.9184C12.4627 14.908 12.5182 14.8357 12.5078 14.7568C12.4975 14.678 12.4252 14.6225 12.3463 14.6328C12.2674 14.6432 12.212 14.7156 12.2223 14.7944Z" fill="#000088"/>
<path d="M9.29651 12.7237L10.9441 12.3815L11.692 12.0818L10.8944 12.1961L9.29651 12.7237Z" fill="#000088"/>
<path d="M11.4926 14.7568C11.4822 14.8357 11.5377 14.908 11.6165 14.9184C11.6954 14.9288 11.7677 14.8732 11.7781 14.7944C11.7885 14.7156 11.733 14.6432 11.6541 14.6328C11.5753 14.6225 11.5029 14.678 11.4926 14.7568Z" fill="#000088"/>
<path d="M9.20123 11.9991L10.8812 12.0951L11.6812 11.9991L10.8812 11.9031L9.20123 11.9991Z" fill="#000088"/>
<path d="M10.796 14.5306C10.7655 14.6041 10.8005 14.6883 10.8739 14.7187C10.9474 14.7491 11.0316 14.7143 11.0621 14.6408C11.0925 14.5673 11.0576 14.4831 10.9841 14.4527C10.9107 14.4222 10.8264 14.4571 10.796 14.5306Z" fill="#000088"/>
<path d="M9.29681 11.2742L10.8947 11.8017L11.6923 11.916L10.9444 11.6163L9.29681 11.2742Z" fill="#000088"/>
<path d="M10.1807 14.1328C10.1323 14.1959 10.1442 14.2863 10.2073 14.3347C10.2704 14.3831 10.3608 14.3712 10.4092 14.3081C10.4576 14.245 10.4457 14.1546 10.3826 14.1062C10.3195 14.0578 10.2291 14.0697 10.1807 14.1328Z" fill="#000088"/>
<path d="M9.57458 10.5994L10.9815 11.5225L11.7223 11.8394L11.0775 11.3562L9.57458 10.5994Z" fill="#000088"/>
<path d="M9.68855 13.5889C9.62547 13.6373 9.61355 13.7277 9.66195 13.7907C9.71039 13.8539 9.80079 13.8657 9.86387 13.8173C9.92695 13.7689 9.93887 13.6785 9.89047 13.6154C9.84203 13.5523 9.75163 13.5404 9.68855 13.5889Z" fill="#000088"/>
<path d="M10.0191 10.019L11.1391 11.2748L11.7727 11.7726L11.2749 11.1391L10.0191 10.019Z" fill="#000088"/>
<path d="M9.35676 12.9358C9.28328 12.9662 9.2484 13.0504 9.2788 13.1239C9.30924 13.1974 9.39348 13.2323 9.46696 13.2019C9.54044 13.1714 9.57532 13.0872 9.54488 13.0137C9.51444 12.9402 9.43024 12.9054 9.35676 12.9358Z" fill="#000088"/>
<path d="M10.5987 9.57373L11.3556 11.0767L11.8387 11.7215L11.5219 10.9807L10.5987 9.57373Z" fill="#000088"/>
<path d="M9.204 12.2207C9.12516 12.2311 9.06968 12.3035 9.08004 12.3823C9.09044 12.4611 9.16276 12.5167 9.2416 12.5063C9.32044 12.4959 9.37596 12.4236 9.36556 12.3447C9.3552 12.2659 9.28288 12.2103 9.204 12.2207Z" fill="#000088"/>
<path d="M11.2748 9.29492L11.6169 10.9425L11.9167 11.6904L11.8023 10.8928L11.2748 9.29492Z" fill="#000088"/>
<path d="M9.24166 11.4925C9.16282 11.4821 9.0905 11.5376 9.0801 11.6164C9.06974 11.6953 9.12522 11.7676 9.2041 11.778C9.28294 11.7883 9.35526 11.7329 9.36566 11.654C9.37602 11.5751 9.32054 11.5028 9.24166 11.4925Z" fill="#000088"/>
<path d="M11.9993 9.20117L11.9033 10.8812L11.9993 11.6812L12.0953 10.8812L11.9993 9.20117Z" fill="#000088"/>
<path d="M9.46777 10.7959C9.39429 10.7655 9.31005 10.8004 9.27961 10.8738C9.24917 10.9473 9.28409 11.0316 9.35757 11.062C9.43105 11.0924 9.51525 11.0576 9.54569 10.9841C9.57613 10.9106 9.54125 10.8264 9.46777 10.7959Z" fill="#000088"/>
<path d="M12.7242 9.29688L12.1966 10.8948L12.0823 11.6924L12.382 10.9445L12.7242 9.29688Z" fill="#000088"/>
<path d="M9.86734 10.1823C9.80426 10.1339 9.71386 10.1458 9.66546 10.2089C9.61702 10.272 9.62894 10.3624 9.69202 10.4108C9.75514 10.4593 9.8455 10.4473 9.89394 10.3843C9.94234 10.3212 9.93046 10.2308 9.86734 10.1823Z" fill="#000088"/>
<path d="M13.4006 9.57617L12.4775 10.9831L12.1606 11.7239L12.6437 11.0791L13.4006 9.57617Z" fill="#000088"/>
<path d="M10.4111 9.69013C10.3627 9.62705 10.2723 9.61513 10.2093 9.66357C10.1461 9.71197 10.1343 9.80237 10.1827 9.86545C10.2311 9.92853 10.3215 9.94045 10.3846 9.89205C10.4477 9.84361 10.4596 9.75321 10.4111 9.69013Z" fill="#000088"/>
<path d="M13.981 10.0208L12.7252 11.1408L12.2274 11.7744L12.861 11.2766L13.981 10.0208Z" fill="#000088"/>
<path d="M11.0625 9.35676C11.0321 9.28328 10.9479 9.2484 10.8744 9.2788C10.8009 9.30924 10.766 9.39348 10.7964 9.46696C10.8269 9.54044 10.9111 9.57532 10.9846 9.54488C11.0581 9.51444 11.093 9.43024 11.0625 9.35676Z" fill="#000088"/>
<path d="M14.4247 10.5986L12.9218 11.3555L12.277 11.8386L13.0178 11.5218L14.4247 10.5986Z" fill="#000088"/>
<path d="M11.7777 9.20406C11.7673 9.12522 11.695 9.06974 11.6161 9.0801C11.5373 9.0905 11.4818 9.16282 11.4922 9.24166C11.5025 9.3205 11.5748 9.37602 11.6537 9.36562C11.7326 9.35526 11.788 9.28294 11.7777 9.20406Z" fill="#000088"/>
<path d="M14.7035 11.2747L13.0559 11.6168L12.308 11.9165L13.1056 11.8022L14.7035 11.2747Z" fill="#000088"/>
<path d="M12.5075 9.24166C12.5179 9.16282 12.4623 9.0905 12.3835 9.0801C12.3047 9.06974 12.2323 9.12522 12.2219 9.2041C12.2116 9.28294 12.2671 9.35526 12.3459 9.36566C12.4248 9.37602 12.4971 9.32054 12.5075 9.24166Z" fill="#000088"/>
<path d="M14.7988 11.9993L13.1188 11.9033L12.3188 11.9993L13.1188 12.0953L14.7988 11.9993Z" fill="#000088"/>
<path d="M13.204 9.46771C13.2345 9.39423 13.1995 9.30999 13.1261 9.27955C13.0526 9.24911 12.9684 9.28403 12.9379 9.35751C12.9075 9.43099 12.9424 9.51519 13.0159 9.54563C13.0893 9.57607 13.1736 9.54119 13.204 9.46771Z" fill="#000088"/>
<path d="M14.7031 12.7242L13.1052 12.1966L12.3076 12.0823L13.0555 12.382L14.7031 12.7242Z" fill="#000088"/>
<path d="M13.8193 9.86569C13.8677 9.80261 13.8558 9.71221 13.7927 9.66381C13.7296 9.61537 13.6392 9.62729 13.5908 9.69037C13.5424 9.75345 13.5543 9.84385 13.6174 9.89229C13.6805 9.94069 13.7709 9.92881 13.8193 9.86569Z" fill="#000088"/>
<path d="M14.4255 13.3989L13.0186 12.4758L12.2777 12.1589L12.9226 12.6421L14.4255 13.3989Z" fill="#000088"/>
<path d="M14.3114 10.4096C14.3745 10.3612 14.3864 10.2708 14.338 10.2077C14.2896 10.1446 14.1992 10.1327 14.1361 10.1811C14.073 10.2296 14.0611 10.3199 14.1095 10.383C14.158 10.4461 14.2484 10.458 14.3114 10.4096Z" fill="#000088"/>
<path d="M13.9809 13.9794L12.8608 12.7236L12.2272 12.2258L12.7251 12.8594L13.9809 13.9794Z" fill="#000088"/>
<path d="M14.6432 11.0625C14.7167 11.032 14.7516 10.9478 14.7212 10.8743C14.6907 10.8009 14.6065 10.766 14.533 10.7964C14.4595 10.8268 14.4247 10.9111 14.4551 10.9845C14.4855 11.058 14.5697 11.0929 14.6432 11.0625Z" fill="#000088"/>
<path d="M13.4013 14.4249L12.6444 12.9219L12.1613 12.2771L12.4781 13.0179L13.4013 14.4249Z" fill="#000088"/>
<path d="M14.796 11.7777C14.8748 11.7673 14.9303 11.695 14.92 11.6162C14.9096 11.5373 14.8372 11.4818 14.7584 11.4922C14.6796 11.5026 14.624 11.5749 14.6344 11.6538C14.6448 11.7326 14.7171 11.7881 14.796 11.7777Z" fill="#000088"/>
<path d="M12.7253 14.7034L12.3831 13.0557L12.0834 12.3079L12.1977 13.1055L12.7253 14.7034Z" fill="#000088"/>
</g>
</g>
</g>
<defs>
<clipPath id="clip0_69_7214">
<rect width="24" height="24" rx="12" fill="white"/>
</clipPath>
<clipPath id="clip1_69_7214">
<rect width="32" height="24" fill="white" transform="translate(-4)"/>
</clipPath>
</defs>
</svg>
