<svg width="24" height="24" viewBox="0 0 24 24" fill="none" xmlns="http://www.w3.org/2000/svg">
<g clip-path="url(#clip0_69_7872)">
<g clip-path="url(#clip1_69_7872)">
<mask id="mask0_69_7872" style="mask-type:luminance" maskUnits="userSpaceOnUse" x="-4" y="0" width="32" height="24">
<path d="M28 0H-4V24H28V0Z" fill="white"/>
</mask>
<g mask="url(#mask0_69_7872)">
<path d="M-4 8H28V16H-4V8Z" fill="white"/>
<path d="M-4 0H28V8H-4V0Z" fill="#CE1126"/>
<path d="M-4 16H28V24H-4V16Z" fill="black"/>
<path d="M15.5452 10.5314C15.4995 10.5095 15.4581 10.4799 15.4225 10.4438C15.3963 10.4 15.4138 10.4 15.5277 10.4263C15.7291 10.4876 15.8605 10.4613 15.9919 10.3562L16.1057 10.2599L16.2371 10.3212C16.316 10.365 16.3948 10.3913 16.4123 10.3825C16.4736 10.365 16.5963 10.2073 16.5875 10.1548C16.5875 10.0934 16.6401 10.111 16.6751 10.181C16.7277 10.3212 16.6488 10.4876 16.4999 10.5226C16.4386 10.5402 16.3773 10.5314 16.2722 10.4964C16.1495 10.4526 16.1233 10.4526 16.0619 10.4964C15.9885 10.5518 15.9006 10.5847 15.8088 10.5909C15.717 10.5972 15.6254 10.5765 15.5452 10.5314ZM16.0532 10.0672C15.9939 9.96005 15.9637 9.83925 15.9656 9.71681C15.9744 9.66429 15.9919 9.64677 16.0357 9.66429C16.1233 9.69053 16.1408 9.75185 16.1233 9.92705C16.1233 10.0847 16.097 10.1285 16.0532 10.0672ZM10.1321 9.90077C10.1233 10.0146 10.3423 10.3037 10.4386 10.3562C10.3685 10.3825 10.2897 10.3738 10.2284 10.4C9.87803 10.7504 8.61671 11.9767 8.38899 12.2745C9.07219 12.292 9.82547 12.2657 10.4649 12.2394C10.4649 11.7752 10.9029 11.7489 11.2007 11.5825C11.3495 11.819 11.7262 11.8015 11.7787 12.1606V13.7022H5.95395C5.93191 13.8191 5.88559 13.93 5.81795 14.0279C5.75035 14.1258 5.66291 14.2083 5.56135 14.2702C5.45979 14.3322 5.34639 14.3721 5.22843 14.3874C5.11047 14.4027 4.99059 14.3931 4.87659 14.3591C5.05179 14.184 5.34959 14.1139 5.45471 13.8599C5.54227 13.2993 5.27951 12.9577 5.10431 12.6336C5.32467 12.563 5.53183 12.4564 5.71747 12.3183C5.51599 12.9314 6.26055 12.8701 6.80359 12.8526C6.82111 12.6424 6.81235 12.3971 6.65471 12.3621C6.85615 12.2832 6.89119 12.257 7.23279 11.9767V12.8175L11.2707 12.8088C11.2707 12.546 11.3408 12.1168 11.1306 12.1168C10.9379 12.1168 11.1306 12.6599 10.9729 12.6599H7.84591V12.1343C7.97731 11.9942 7.95979 12.003 8.86199 11.1008C8.94959 11.0132 9.58899 10.4351 10.1408 9.90077H10.1321ZM17.9364 9.87449C18.1554 9.99713 18.3305 10.1548 18.5933 10.2248C18.5671 10.3387 18.4619 10.3825 18.4357 10.4964V12.8613C18.7335 12.9226 18.8035 12.7475 18.9437 12.6599C18.9787 13.0365 19.224 13.4044 19.2065 13.711H17.9364V9.88325V9.87449ZM16.2371 11.1446C16.2371 11.1446 16.7014 10.7504 16.7014 10.7329V12.7913H17.0342L17.0255 10.4876C17.1569 10.3475 17.4284 10.1548 17.4897 10.0146V13.6934H14.5641C14.5203 12.9314 14.5116 12.1431 15.405 12.3095V12.003C15.3787 11.9504 15.3262 12.0117 15.3174 11.9416C15.4576 11.8015 15.5014 11.7664 15.8868 11.4336L15.8955 12.7913H16.2371V11.1446ZM15.1335 12.7738C15.1948 12.8613 15.4138 12.8613 15.3963 12.7037C15.37 12.5723 15.0897 12.6161 15.1335 12.7738Z" fill="#007A3D"/>
<path d="M6.65488 14.3159C6.7516 14.3159 6.83004 14.2375 6.83004 14.1407C6.83004 14.044 6.7516 13.9656 6.65488 13.9656C6.55812 13.9656 6.47968 14.044 6.47968 14.1407C6.47968 14.2375 6.55812 14.3159 6.65488 14.3159Z" fill="#007A3D"/>
<path d="M12.1735 9.88281C12.3924 9.99669 12.5676 10.1631 12.8391 10.2332C12.8041 10.3383 12.7078 10.3821 12.6815 10.496V12.8609C12.9793 12.9223 13.0406 12.7558 13.1807 12.6595C13.2245 13.0361 13.4611 13.4127 13.4523 13.7105H12.1735V9.88281Z" fill="#007A3D"/>
</g>
</g>
</g>
<defs>
<clipPath id="clip0_69_7872">
<rect width="24" height="24" rx="12" fill="white"/>
</clipPath>
<clipPath id="clip1_69_7872">
<rect width="32" height="24" fill="white" transform="translate(-4)"/>
</clipPath>
</defs>
</svg>
