<svg width="24" height="24" viewBox="0 0 24 24" fill="none" xmlns="http://www.w3.org/2000/svg">
<g clip-path="url(#clip0_69_7726)">
<g clip-path="url(#clip1_69_7726)">
<mask id="mask0_69_7726" style="mask-type:luminance" maskUnits="userSpaceOnUse" x="-4" y="0" width="32" height="24">
<path d="M28 0H-4V24H28V0Z" fill="white"/>
</mask>
<g mask="url(#mask0_69_7726)">
<mask id="mask1_69_7726" style="mask-type:luminance" maskUnits="userSpaceOnUse" x="-4" y="0" width="33" height="24">
<path d="M-3.99841 0H28.0031V24H-3.99841V0Z" fill="white"/>
</mask>
<g mask="url(#mask1_69_7726)">
<path fill-rule="evenodd" clip-rule="evenodd" d="M-9 0H33V24H-9V0Z" fill="white"/>
<path fill-rule="evenodd" clip-rule="evenodd" d="M-9 16.1157H33V24.0001H-9V16.1157Z" fill="#DA0000"/>
<path fill-rule="evenodd" clip-rule="evenodd" d="M-1.01251 16.4531H1.28435V16.6078H-1.01251V16.4531ZM-0.670324 17.2406H-0.510948V17.3953H-0.670324V17.2406ZM1.29375 17.2406V17.3953H0.834348V17.2359L1.29375 17.2406ZM1.53751 16.4531H1.69687V17.3906H1.53751V16.4531Z" fill="white"/>
<path fill-rule="evenodd" clip-rule="evenodd" d="M2.45621 17.236V17.3954H1.58433V17.236H2.45621ZM0.834331 16.8657H0.984331V17.3954H0.829651L0.834331 16.8657Z" fill="white"/>
<path fill-rule="evenodd" clip-rule="evenodd" d="M2.32499 16.4531H2.48435V17.3906H2.32499V16.4531ZM1.93123 16.4531H2.08591V17.3906H1.93123V16.4531ZM-0.168764 16.8281V16.9875H-1.01251V16.8281H-0.168764ZM1.67343 16.8281V16.9875H0.829668V16.8281H1.67343Z" fill="white"/>
<path fill-rule="evenodd" clip-rule="evenodd" d="M0.834331 16.8704H0.984331V17.3907H0.829651L0.834331 16.8704Z" fill="white"/>
<path fill-rule="evenodd" clip-rule="evenodd" d="M0.834331 16.8704H0.984331V17.3907H0.829651L0.834331 16.8704Z" fill="white"/>
<path fill-rule="evenodd" clip-rule="evenodd" d="M0.834359 16.8704H0.984359V17.3907H0.829679L0.834359 16.8704ZM-1.00781 16.8704H-0.853125V17.3907H-1.00781V16.8704ZM0.342199 16.8704H0.501559V17.3907H0.342199V16.8704ZM-0.328124 16.8704H-0.168753V17.3907H-0.328124V16.8704Z" fill="white"/>
<path fill-rule="evenodd" clip-rule="evenodd" d="M0.45 17.2359V17.3953H-0.257812V17.2359H0.45ZM0.49688 16.8281V16.9875H0.0468796V16.8281H0.49688Z" fill="white"/>
<path fill-rule="evenodd" clip-rule="evenodd" d="M2.73279 16.4531H5.02967V16.6078H2.73279V16.4531ZM3.07499 17.2406H3.23435V17.3953H3.07499V17.2406ZM5.03907 17.2406V17.3953H4.57967V17.2359L5.03907 17.2406ZM5.28751 16.4531H5.44687V17.3906H5.28751V16.4531Z" fill="white"/>
<path fill-rule="evenodd" clip-rule="evenodd" d="M6.20153 17.236V17.3954H5.32965V17.236H6.20153ZM4.57965 16.8657H4.73905V17.3954H4.57965V16.8657Z" fill="white"/>
<path fill-rule="evenodd" clip-rule="evenodd" d="M6.07031 16.4531H6.22967V17.3906H6.07031V16.4531ZM5.67655 16.4531H5.83591V17.3906H5.67187L5.67655 16.4531ZM3.57655 16.8281V16.9875H2.73279V16.8281H3.57655ZM5.41875 16.8281V16.9875H4.57499V16.8281H5.41875Z" fill="white"/>
<path fill-rule="evenodd" clip-rule="evenodd" d="M4.57965 16.8704H4.73905V17.3907H4.57965V16.8704Z" fill="white"/>
<path fill-rule="evenodd" clip-rule="evenodd" d="M4.57965 16.8704H4.73905V17.3907H4.57965V16.8704Z" fill="white"/>
<path fill-rule="evenodd" clip-rule="evenodd" d="M4.57971 16.8704H4.73911V17.3907H4.57971V16.8704ZM2.73755 16.8704H2.89691V17.3907H2.73755V16.8704ZM4.08751 16.8704H4.24691V17.3907H4.08751V16.8704ZM3.41723 16.8704H3.57659V17.3907H3.41723V16.8704Z" fill="white"/>
<path fill-rule="evenodd" clip-rule="evenodd" d="M4.20003 17.2359V17.3953H3.48755V17.2359H4.20003ZM4.24691 16.8281V16.9875H3.79691V16.8281H4.24691Z" fill="white"/>
<path fill-rule="evenodd" clip-rule="evenodd" d="M6.50159 16.4531H8.80315V16.6078H6.50627L6.50159 16.4531ZM6.84847 17.2406H7.00315V17.3953H6.84847V17.2406ZM8.80783 17.2406V17.3953H8.34847V17.2359L8.80783 17.2406ZM9.05627 16.4531H9.21567V17.3906H9.05627V16.4531Z" fill="white"/>
<path fill-rule="evenodd" clip-rule="evenodd" d="M9.97501 17.236V17.3954H9.10313V17.236H9.97501ZM8.34845 16.8657H8.50781V17.3954H8.34845V16.8657Z" fill="white"/>
<path fill-rule="evenodd" clip-rule="evenodd" d="M9.84375 16.4531H10.0031V17.3906H9.84375V16.4531ZM9.44531 16.4531H9.60467V17.3906H9.44531V16.4531ZM7.34531 16.8281V16.9875H6.50623V16.8281H7.34531ZM9.18747 16.8281V16.9875H8.34843V16.8281H9.18747Z" fill="white"/>
<path fill-rule="evenodd" clip-rule="evenodd" d="M8.34845 16.8704H8.50781V17.3907H8.34845V16.8704Z" fill="white"/>
<path fill-rule="evenodd" clip-rule="evenodd" d="M8.34845 16.8704H8.50781V17.3907H8.34845V16.8704Z" fill="white"/>
<path fill-rule="evenodd" clip-rule="evenodd" d="M8.34843 16.8704H8.50779V17.3907H8.34843V16.8704ZM6.50623 16.8704H6.66563V17.3907H6.50623V16.8704ZM7.85623 16.8704H8.01563V17.3907H7.85623V16.8704ZM7.19063 16.8704H7.34531V17.3907H7.19063V16.8704Z" fill="white"/>
<path fill-rule="evenodd" clip-rule="evenodd" d="M7.96877 17.2359V17.3953H7.26093V17.2359H7.96877ZM8.01565 16.8281V16.9875H7.56565V16.8281H8.01565Z" fill="white"/>
<path fill-rule="evenodd" clip-rule="evenodd" d="M10.2891 16.4531H12.5859V16.6078H10.2891V16.4531ZM10.6312 17.2406H10.7906V17.3953H10.6312V17.2406ZM12.5953 17.2406V17.3953H12.1359V17.2359L12.5953 17.2406ZM12.8437 16.4531H12.9984V17.3906H12.8437V16.4531Z" fill="white"/>
<path fill-rule="evenodd" clip-rule="evenodd" d="M13.7578 17.236V17.3954H12.8859V17.236H13.7578ZM12.1359 16.8657H12.2953V17.3954H12.1359V16.8657Z" fill="white"/>
<path fill-rule="evenodd" clip-rule="evenodd" d="M13.6265 16.4531H13.7859V17.3906H13.6265V16.4531ZM13.2328 16.4531H13.3922V17.3906H13.2328V16.4531ZM11.1328 16.8281V16.9875H10.2891V16.8281H11.1328ZM12.975 16.8281V16.9875H12.1312V16.8281H12.975Z" fill="white"/>
<path fill-rule="evenodd" clip-rule="evenodd" d="M12.1359 16.8704H12.2953V17.3907H12.1359V16.8704Z" fill="white"/>
<path fill-rule="evenodd" clip-rule="evenodd" d="M12.1359 16.8704H12.2953V17.3907H12.1359V16.8704Z" fill="white"/>
<path fill-rule="evenodd" clip-rule="evenodd" d="M12.1359 16.8704H12.2953V17.3907H12.1359V16.8704ZM10.2938 16.8704H10.4484V17.3907H10.2938V16.8704ZM11.6438 16.8704H11.8031V17.3907H11.6438V16.8704ZM10.9734 16.8704H11.1328V17.3907H10.9688L10.9734 16.8704Z" fill="white"/>
<path fill-rule="evenodd" clip-rule="evenodd" d="M11.7562 17.2359V17.3953H11.0438V17.2359H11.7562ZM11.8031 16.8281V16.9875H11.3438V16.8281H11.8031Z" fill="white"/>
<path fill-rule="evenodd" clip-rule="evenodd" d="M-9 0H33V7.88436H-9V0Z" fill="#239F40"/>
<path fill-rule="evenodd" clip-rule="evenodd" d="M14.0953 16.4531H16.3922V16.6078H14.0953V16.4531ZM14.4375 17.2406H14.5969V17.3953H14.4375V17.2406ZM16.4016 17.2406V17.3953H15.9375V17.2359L16.4016 17.2406ZM16.65 16.4531H16.8047V17.3906H16.65V16.4531Z" fill="white"/>
<path fill-rule="evenodd" clip-rule="evenodd" d="M17.5641 17.236V17.3954H16.6922V17.236H17.5641ZM15.9422 16.8657H16.1015V17.3954H15.9375L15.9422 16.8657Z" fill="white"/>
<path fill-rule="evenodd" clip-rule="evenodd" d="M17.4375 16.4531H17.5922V17.3906H17.4375V16.4531ZM17.0391 16.4531H17.1985V17.3906H17.0391V16.4531ZM14.9391 16.8281V16.9875H14.0953V16.8281H14.9391ZM16.7813 16.8281V16.9875H15.9375V16.8281H16.7813Z" fill="white"/>
<path fill-rule="evenodd" clip-rule="evenodd" d="M15.9375 16.8704H16.1015V17.3907H15.9375V16.8704Z" fill="white"/>
<path fill-rule="evenodd" clip-rule="evenodd" d="M15.9375 16.8704H16.1015V17.3907H15.9375V16.8704Z" fill="white"/>
<path fill-rule="evenodd" clip-rule="evenodd" d="M15.9375 16.8704H16.1015V17.3907H15.9375V16.8704ZM14.1 16.8704H14.2593V17.3907H14.1V16.8704ZM15.45 16.8704H15.6093V17.3907H15.45V16.8704ZM14.7797 16.8704H14.9391V17.3907H14.7797V16.8704Z" fill="white"/>
<path fill-rule="evenodd" clip-rule="evenodd" d="M15.5625 17.2359V17.3953H14.85V17.2359H15.5625ZM15.6093 16.8281V16.9875H15.1593V16.8281H15.6093Z" fill="white"/>
<path fill-rule="evenodd" clip-rule="evenodd" d="M17.8781 16.4531H20.175V16.6078H17.8781V16.4531ZM18.2203 17.2406H18.3797V17.3953H18.2203V17.2406ZM20.1891 17.2406V17.3953H19.725V17.2359L20.1891 17.2406ZM20.4328 16.4531H20.5922V17.3906H20.4328V16.4531Z" fill="white"/>
<path fill-rule="evenodd" clip-rule="evenodd" d="M21.3469 17.236V17.3954H20.475V17.236H21.3469ZM19.725 16.8657H19.8843V17.3954H19.725V16.8657Z" fill="white"/>
<path fill-rule="evenodd" clip-rule="evenodd" d="M21.2203 16.4531H21.375V17.3906H21.2203V16.4531ZM20.8219 16.4531H20.9813V17.3906H20.8219V16.4531ZM18.7219 16.8281V16.9875H17.8828V16.8281H18.7219ZM20.5641 16.8281V16.9875H19.725V16.8281H20.5641Z" fill="white"/>
<path fill-rule="evenodd" clip-rule="evenodd" d="M19.725 16.8704H19.8843V17.3907H19.725V16.8704Z" fill="white"/>
<path fill-rule="evenodd" clip-rule="evenodd" d="M19.725 16.8704H19.8843V17.3907H19.725V16.8704Z" fill="white"/>
<path fill-rule="evenodd" clip-rule="evenodd" d="M19.725 16.8704H19.8844V17.3907H19.725V16.8704ZM17.8828 16.8704H18.0422V17.3907H17.8828V16.8704ZM19.2328 16.8704H19.3922V17.3907H19.2328V16.8704ZM18.5625 16.8704H18.7219V17.3907H18.5672L18.5625 16.8704Z" fill="white"/>
<path fill-rule="evenodd" clip-rule="evenodd" d="M19.3453 17.2359V17.3953H18.6375V17.2359H19.3453ZM19.3922 16.8281V16.9875H18.9375V16.8281H19.3922Z" fill="white"/>
<path fill-rule="evenodd" clip-rule="evenodd" d="M21.6656 16.4531H23.9625V16.6078H21.6656V16.4531ZM22.0078 17.2406H22.1672V17.3953H22.0078V17.2406ZM23.9719 17.2406V17.3953H23.5125V17.2359L23.9719 17.2406ZM24.2156 16.4531H24.375V17.3906H24.2156V16.4531Z" fill="white"/>
<path fill-rule="evenodd" clip-rule="evenodd" d="M25.1344 17.236V17.3954H24.2625V17.236H25.1344ZM23.5078 16.8657H23.6672V17.3954H23.5078V16.8657Z" fill="white"/>
<path fill-rule="evenodd" clip-rule="evenodd" d="M25.0031 16.4531H25.1625V17.3906H25.0031V16.4531ZM24.6094 16.4531H24.7641V17.3906H24.6094V16.4531ZM22.5094 16.8281V16.9875H21.6656V16.8281H22.5094ZM24.3516 16.8281V16.9875H23.5078V16.8281H24.3516Z" fill="white"/>
<path fill-rule="evenodd" clip-rule="evenodd" d="M23.5125 16.8704H23.6672V17.3907H23.5125V16.8704Z" fill="white"/>
<path fill-rule="evenodd" clip-rule="evenodd" d="M23.5125 16.8704H23.6672V17.3907H23.5125V16.8704Z" fill="white"/>
<path fill-rule="evenodd" clip-rule="evenodd" d="M23.5125 16.8704H23.6672V17.3907H23.5125V16.8704ZM21.6656 16.8704H21.825V17.3907H21.6656V16.8704ZM23.0203 16.8704H23.175V17.3907H23.0203V16.8704ZM22.35 16.8704H22.5094V17.3907H22.35V16.8704Z" fill="white"/>
<path fill-rule="evenodd" clip-rule="evenodd" d="M23.1281 17.2359V17.3953H22.4203V17.2359H23.1281ZM23.175 16.8281V16.9875H22.725V16.8281H23.175Z" fill="white"/>
<path fill-rule="evenodd" clip-rule="evenodd" d="M-1.01251 6.72192H1.28435V6.88128H-1.01251V6.72192ZM-0.670324 7.5188H-0.510948V7.6688H-0.670324V7.5188ZM1.29375 7.5094V7.6688H0.834348V7.5094H1.29375ZM1.53751 6.72192H1.69687V7.6688H1.53751V6.72192Z" fill="white"/>
<path fill-rule="evenodd" clip-rule="evenodd" d="M2.45621 7.50944V7.66884H1.58433V7.50944H2.45621ZM0.834331 7.13916H0.984331V7.66884H0.829651L0.834331 7.13916Z" fill="white"/>
<path fill-rule="evenodd" clip-rule="evenodd" d="M2.32499 6.72192H2.48435V7.6688H2.32499V6.72192ZM1.93123 6.72192H2.08591V7.6688H1.93123V6.72192ZM-0.168764 7.09692V7.25628H-1.01251V7.1016L-0.168764 7.09692ZM1.67343 7.09692V7.25628H0.829668V7.1016L1.67343 7.09692Z" fill="white"/>
<path fill-rule="evenodd" clip-rule="evenodd" d="M0.834331 7.13916H0.984331V7.66884H0.829651L0.834331 7.13916Z" fill="white"/>
<path fill-rule="evenodd" clip-rule="evenodd" d="M0.834331 7.13916H0.984331V7.66884H0.829651L0.834331 7.13916Z" fill="white"/>
<path fill-rule="evenodd" clip-rule="evenodd" d="M0.834359 7.13916H0.984359V7.66884H0.829679L0.834359 7.13916ZM-1.00781 7.13916H-0.853125V7.66884H-1.00781V7.13916ZM0.342199 7.13916H0.501559V7.66884H0.342199V7.13916ZM-0.328124 7.13916H-0.168753V7.66884H-0.328124V7.13916Z" fill="white"/>
<path fill-rule="evenodd" clip-rule="evenodd" d="M0.45 7.50936V7.66876H-0.257812V7.50936H0.45ZM0.49688 7.10156V7.25624H0.0468796V7.10156H0.49688Z" fill="white"/>
<path fill-rule="evenodd" clip-rule="evenodd" d="M2.73279 6.72192H5.02967V6.88128H2.73279V6.72192ZM3.07499 7.5188H3.23435V7.6688H3.07499V7.5188ZM5.03907 7.5094V7.6688H4.57967V7.5094H5.03907ZM5.28751 6.72192H5.44687V7.6688H5.28751V6.72192Z" fill="white"/>
<path fill-rule="evenodd" clip-rule="evenodd" d="M6.20153 7.50944V7.66884H5.32965V7.50944H6.20153ZM4.57965 7.13916H4.73905V7.66884H4.57965V7.13916Z" fill="white"/>
<path fill-rule="evenodd" clip-rule="evenodd" d="M6.07031 6.72192H6.22967V7.6688H6.07031V6.72192ZM5.67655 6.72192H5.83591V7.6688H5.67187L5.67655 6.72192ZM3.57655 7.09692V7.25628H2.73279V7.1016L3.57655 7.09692ZM5.41875 7.09692V7.25628H4.57499V7.1016L5.41875 7.09692Z" fill="white"/>
<path fill-rule="evenodd" clip-rule="evenodd" d="M4.57965 7.13916H4.73905V7.66884H4.57965V7.13916Z" fill="white"/>
<path fill-rule="evenodd" clip-rule="evenodd" d="M4.57965 7.13916H4.73905V7.66884H4.57965V7.13916Z" fill="white"/>
<path fill-rule="evenodd" clip-rule="evenodd" d="M4.57971 7.13916H4.73911V7.66884H4.57971V7.13916ZM2.73755 7.13916H2.89691V7.66884H2.73755V7.13916ZM4.08751 7.13916H4.24691V7.66884H4.08751V7.13916ZM3.41723 7.13916H3.57659V7.66884H3.41723V7.13916Z" fill="white"/>
<path fill-rule="evenodd" clip-rule="evenodd" d="M4.20003 7.50936V7.66876H3.48755V7.50936H4.20003ZM4.24691 7.10156V7.25624H3.79691V7.10156H4.24691Z" fill="white"/>
<path fill-rule="evenodd" clip-rule="evenodd" d="M6.50159 6.72192H8.80315V6.88128H6.50627L6.50159 6.72192ZM6.84847 7.5188H7.00315V7.6688H6.84847V7.5188ZM8.80783 7.5094V7.6688H8.34847V7.5094H8.80783ZM9.05627 6.72192H9.21567V7.6688H9.05627V6.72192Z" fill="white"/>
<path fill-rule="evenodd" clip-rule="evenodd" d="M9.97501 7.50944V7.66884H9.10313V7.50944H9.97501ZM8.34845 7.13916H8.50781V7.66884H8.34845V7.13916Z" fill="white"/>
<path fill-rule="evenodd" clip-rule="evenodd" d="M9.84375 6.72192H10.0031V7.6688H9.84375V6.72192ZM9.44531 6.72192H9.60467V7.6688H9.44531V6.72192ZM7.34531 7.09692V7.25628H6.50623V7.1016L7.34531 7.09692ZM9.18747 7.09692V7.25628H8.34843V7.1016L9.18747 7.09692Z" fill="white"/>
<path fill-rule="evenodd" clip-rule="evenodd" d="M8.34845 7.13916H8.50781V7.66884H8.34845V7.13916Z" fill="white"/>
<path fill-rule="evenodd" clip-rule="evenodd" d="M8.34845 7.13916H8.50781V7.66884H8.34845V7.13916Z" fill="white"/>
<path fill-rule="evenodd" clip-rule="evenodd" d="M8.34843 7.13916H8.50779V7.66884H8.34843V7.13916ZM6.50623 7.13916H6.66563V7.66884H6.50623V7.13916ZM7.85623 7.13916H8.01563V7.66884H7.85623V7.13916ZM7.19063 7.13916H7.34531V7.66884H7.19063V7.13916Z" fill="white"/>
<path fill-rule="evenodd" clip-rule="evenodd" d="M7.96877 7.50936V7.66876H7.26093V7.50936H7.96877ZM8.01565 7.10156V7.25624H7.56565V7.10156H8.01565Z" fill="white"/>
<path fill-rule="evenodd" clip-rule="evenodd" d="M10.2891 6.72192H12.5859V6.88128H10.2891V6.72192ZM10.6312 7.5188H10.7906V7.6688H10.6312V7.5188ZM12.5953 7.5094V7.6688H12.1359V7.5094H12.5953ZM12.8437 6.72192H12.9984V7.6688H12.8437V6.72192Z" fill="white"/>
<path fill-rule="evenodd" clip-rule="evenodd" d="M13.7578 7.50944V7.66884H12.8859V7.50944H13.7578ZM12.1359 7.13916H12.2953V7.66884H12.1359V7.13916Z" fill="white"/>
<path fill-rule="evenodd" clip-rule="evenodd" d="M13.6265 6.72192H13.7859V7.6688H13.6265V6.72192ZM13.2328 6.72192H13.3922V7.6688H13.2328V6.72192ZM11.1328 7.09692V7.25628H10.2891V7.1016L11.1328 7.09692ZM12.975 7.09692V7.25628H12.1312V7.1016L12.975 7.09692Z" fill="white"/>
<path fill-rule="evenodd" clip-rule="evenodd" d="M12.1359 7.13916H12.2953V7.66884H12.1359V7.13916Z" fill="white"/>
<path fill-rule="evenodd" clip-rule="evenodd" d="M12.1359 7.13916H12.2953V7.66884H12.1359V7.13916Z" fill="white"/>
<path fill-rule="evenodd" clip-rule="evenodd" d="M12.1359 7.13916H12.2953V7.66884H12.1359V7.13916ZM10.2938 7.13916H10.4484V7.66884H10.2938V7.13916ZM11.6438 7.13916H11.8031V7.66884H11.6438V7.13916ZM10.9734 7.13916H11.1328V7.66884H10.9688L10.9734 7.13916Z" fill="white"/>
<path fill-rule="evenodd" clip-rule="evenodd" d="M11.7562 7.50936V7.66876H11.0438V7.50936H11.7562ZM11.8031 7.10156V7.25624H11.3438V7.10156H11.8031Z" fill="white"/>
<path fill-rule="evenodd" clip-rule="evenodd" d="M14.0953 6.72192H16.3922V6.88128H14.0953V6.72192ZM14.4375 7.5188H14.5969V7.6688H14.4375V7.5188ZM16.4016 7.5094V7.6688H15.9375V7.5094H16.4016ZM16.65 6.72192H16.8047V7.6688H16.65V6.72192Z" fill="white"/>
<path fill-rule="evenodd" clip-rule="evenodd" d="M17.5641 7.50944V7.66884H16.6922V7.50944H17.5641ZM15.9422 7.13916H16.1015V7.66884H15.9375L15.9422 7.13916Z" fill="white"/>
<path fill-rule="evenodd" clip-rule="evenodd" d="M17.4375 6.72192H17.5922V7.6688H17.4375V6.72192ZM17.0391 6.72192H17.1985V7.6688H17.0391V6.72192ZM14.9391 7.09692V7.25628H14.0953V7.1016L14.9391 7.09692ZM16.7813 7.09692V7.25628H15.9375V7.1016L16.7813 7.09692Z" fill="white"/>
<path fill-rule="evenodd" clip-rule="evenodd" d="M15.9375 7.13916H16.1015V7.66884H15.9375V7.13916Z" fill="white"/>
<path fill-rule="evenodd" clip-rule="evenodd" d="M15.9375 7.13916H16.1015V7.66884H15.9375V7.13916Z" fill="white"/>
<path fill-rule="evenodd" clip-rule="evenodd" d="M15.9375 7.13916H16.1015V7.66884H15.9375V7.13916ZM14.1 7.13916H14.2593V7.66884H14.1V7.13916ZM15.45 7.13916H15.6093V7.66884H15.45V7.13916ZM14.7797 7.13916H14.9391V7.66884H14.7797V7.13916Z" fill="white"/>
<path fill-rule="evenodd" clip-rule="evenodd" d="M15.5625 7.50936V7.66876H14.85V7.50936H15.5625ZM15.6093 7.10156V7.25624H15.1593V7.10156H15.6093Z" fill="white"/>
<path fill-rule="evenodd" clip-rule="evenodd" d="M17.8781 6.72192H20.175V6.88128H17.8781V6.72192ZM18.2203 7.5188H18.3797V7.6688H18.2203V7.5188ZM20.1891 7.5094V7.6688H19.725V7.5094H20.1891ZM20.4328 6.72192H20.5922V7.6688H20.4328V6.72192Z" fill="white"/>
<path fill-rule="evenodd" clip-rule="evenodd" d="M21.3469 7.50944V7.66884H20.475V7.50944H21.3469ZM19.725 7.13916H19.8843V7.66884H19.725V7.13916Z" fill="white"/>
<path fill-rule="evenodd" clip-rule="evenodd" d="M21.2203 6.72192H21.375V7.6688H21.2203V6.72192ZM20.8219 6.72192H20.9813V7.6688H20.8219V6.72192ZM18.7219 7.09692V7.25628H17.8828V7.1016L18.7219 7.09692ZM20.5641 7.09692V7.25628H19.725V7.1016L20.5641 7.09692Z" fill="white"/>
<path fill-rule="evenodd" clip-rule="evenodd" d="M19.725 7.13916H19.8843V7.66884H19.725V7.13916Z" fill="white"/>
<path fill-rule="evenodd" clip-rule="evenodd" d="M19.725 7.13916H19.8843V7.66884H19.725V7.13916Z" fill="white"/>
<path fill-rule="evenodd" clip-rule="evenodd" d="M19.725 7.13916H19.8844V7.66884H19.725V7.13916ZM17.8828 7.13916H18.0422V7.66884H17.8828V7.13916ZM19.2328 7.13916H19.3922V7.66884H19.2328V7.13916ZM18.5625 7.13916H18.7219V7.66884H18.5672L18.5625 7.13916Z" fill="white"/>
<path fill-rule="evenodd" clip-rule="evenodd" d="M19.3453 7.50936V7.66876H18.6375V7.50936H19.3453ZM19.3922 7.10156V7.25624H18.9375V7.10156H19.3922Z" fill="white"/>
<path fill-rule="evenodd" clip-rule="evenodd" d="M21.6656 6.72192H23.9625V6.88128H21.6656V6.72192ZM22.0078 7.5188H22.1672V7.6688H22.0078V7.5188ZM23.9719 7.5094V7.6688H23.5125V7.5094H23.9719ZM24.2156 6.72192H24.375V7.6688H24.2156V6.72192Z" fill="white"/>
<path fill-rule="evenodd" clip-rule="evenodd" d="M25.1344 7.50944V7.66884H24.2625V7.50944H25.1344ZM23.5078 7.13916H23.6672V7.66884H23.5078V7.13916Z" fill="white"/>
<path fill-rule="evenodd" clip-rule="evenodd" d="M25.0031 6.72192H25.1625V7.6688H25.0031V6.72192ZM24.6094 6.72192H24.7641V7.6688H24.6094V6.72192ZM22.5094 7.09692V7.25628H21.6656V7.1016L22.5094 7.09692ZM24.3516 7.09692V7.25628H23.5078V7.1016L24.3516 7.09692Z" fill="white"/>
<path fill-rule="evenodd" clip-rule="evenodd" d="M23.5125 7.13916H23.6672V7.66884H23.5125V7.13916Z" fill="white"/>
<path fill-rule="evenodd" clip-rule="evenodd" d="M23.5125 7.13916H23.6672V7.66884H23.5125V7.13916Z" fill="white"/>
<path fill-rule="evenodd" clip-rule="evenodd" d="M23.5125 7.13916H23.6672V7.66884H23.5125V7.13916ZM21.6656 7.13916H21.825V7.66884H21.6656V7.13916ZM23.0203 7.13916H23.175V7.66884H23.0203V7.13916ZM22.35 7.13916H22.5094V7.66884H22.35V7.13916Z" fill="white"/>
<path fill-rule="evenodd" clip-rule="evenodd" d="M23.1281 7.50936V7.66876H22.4203V7.50936H23.1281ZM23.175 7.10156V7.25624H22.725V7.10156H23.175Z" fill="white"/>
<path fill-rule="evenodd" clip-rule="evenodd" d="M-3.225 15.9141H-2.94375V16.4062H-3.225V15.9141ZM4.29844 15.9141H4.57968V16.4062H4.29844V15.9141ZM-9 15.9141H-8.71876V16.4062H-9V15.9141ZM-5.17969 15.9141H-4.89844V16.4062H-5.17969V15.9141ZM-1.3875 15.9141H-1.10625V16.4062H-1.3875V15.9141ZM0.48748 15.9141H0.76876V16.4062H0.48748V15.9141ZM2.40468 15.9141H2.68592V16.4062H2.40468V15.9141ZM6.17344 15.9141H6.45468V16.4062H6.17344V15.9141ZM15.6891 15.9141H15.975V16.4062H15.6938L15.6891 15.9141ZM8.09064 15.9141H8.37188V16.4062H8.09064V15.9141ZM9.96564 15.9141H10.2469V16.4062H9.96564V15.9141ZM11.8641 15.9141H12.1453V16.4062H11.8641V15.9141ZM13.7578 15.9141H14.0391V16.4062H13.7578V15.9141ZM28.9078 15.9141H29.1891V16.4062H28.9078V15.9141ZM17.5312 15.9141H17.8125V16.4062H17.5312V15.9141ZM19.4438 15.9141H19.725V16.4062H19.4438V15.9141ZM21.3797 15.9141H21.6609V16.4062H21.3797V15.9141ZM23.1984 15.9141H23.4797V16.4062H23.1984V15.9141ZM25.1344 15.9141H25.4156V16.4062H25.1344V15.9141ZM27.0281 15.9141H27.3094V16.4062H27.0281V15.9141ZM32.6391 15.9141H32.9203V16.4062H32.6391V15.9141ZM30.8203 15.9141H31.1016V16.4062H30.8203V15.9141ZM-7.09688 15.9141H-6.81562V16.4062H-7.09688V15.9141Z" fill="#D90000"/>
<path fill-rule="evenodd" clip-rule="evenodd" d="M-3.225 7.62183H-2.94375V8.11403H-3.225V7.62183ZM4.29844 7.62183H4.57968V8.11403H4.29844V7.62183ZM-9 7.62183H-8.71876V8.11403H-9V7.62183ZM-5.17969 7.62183H-4.89844V8.11403H-5.17969V7.62183ZM-1.3875 7.62183H-1.10625V8.11403H-1.3875V7.62183ZM0.48748 7.62183H0.76876V8.11403H0.48748V7.62183ZM2.40468 7.62183H2.68592V8.11403H2.40468V7.62183ZM6.17344 7.62183H6.45468V8.11403H6.17344V7.62183ZM15.6891 7.62183H15.975V8.11403H15.6938L15.6891 7.62183ZM8.09064 7.62183H8.37188V8.11403H8.09064V7.62183ZM9.96564 7.62183H10.2469V8.11403H9.96564V7.62183ZM11.8641 7.62183H12.1453V8.11403H11.8641V7.62183ZM13.7578 7.62183H14.0391V8.11403H13.7578V7.62183ZM28.9078 7.62183H29.1891V8.11403H28.9078V7.62183ZM17.5312 7.62183H17.8125V8.11403H17.5312V7.62183ZM19.4438 7.62183H19.725V8.11403H19.4438V7.62183ZM21.3797 7.62183H21.6609V8.11403H21.3797V7.62183ZM23.1984 7.62183H23.4797V8.11403H23.1984V7.62183ZM25.1344 7.62183H25.4156V8.11403H25.1344V7.62183ZM27.0281 7.62183H27.3094V8.11403H27.0281V7.62183ZM32.6391 7.62183H32.9203V8.11403H32.6391V7.62183ZM30.8203 7.62183H31.1016V8.11403H30.8203V7.62183ZM-7.09688 7.62183H-6.81562V8.11403H-7.09688V7.62183Z" fill="#239E3F"/>
<path fill-rule="evenodd" clip-rule="evenodd" d="M13.1146 9.25781C13.5083 9.74533 14.7318 12.4266 12.3787 14.1891C11.2677 15.0235 11.9568 15.0609 11.9896 15.2016C13.7709 14.2594 14.3474 12.975 14.3333 11.8266C14.324 10.6828 13.7146 9.67033 13.1146 9.25781Z" fill="#DA0000"/>
<path fill-rule="evenodd" clip-rule="evenodd" d="M13.3493 9.13135C13.7843 9.39599 14.1549 9.75399 14.4345 10.1794C14.7142 10.6048 14.8958 11.0871 14.9662 11.5913C15.0366 12.0955 14.9941 12.609 14.8418 13.0948C14.6894 13.5806 14.431 14.0264 14.0853 14.4001C15.3603 14.1189 16.9915 10.3501 13.3493 9.13135ZM10.6493 9.13135C10.2148 9.39639 9.84453 9.75467 9.56533 10.1803C9.28617 10.6059 9.10505 11.0883 9.03505 11.5924C8.96509 12.0966 9.00801 12.61 9.16073 13.0956C9.31345 13.5812 9.57213 14.0267 9.91809 14.4001C8.63841 14.1189 7.01185 10.3501 10.6493 9.13135Z" fill="#DA0000"/>
<path fill-rule="evenodd" clip-rule="evenodd" d="M10.8831 9.25781C10.4893 9.74533 9.26587 12.4266 11.619 14.1891C12.7252 15.0235 12.0409 15.0609 12.0081 15.2016C10.2268 14.2594 9.65023 12.975 9.66431 11.8266C9.67367 10.6828 10.2831 9.67033 10.8831 9.25781Z" fill="#DA0000"/>
<path fill-rule="evenodd" clip-rule="evenodd" d="M14.2593 14.9579C13.5609 14.9673 12.6843 14.8641 12.0328 14.5219C12.1406 14.7329 12.2297 14.8641 12.3375 15.0704C12.9562 15.1313 13.8141 15.2016 14.2593 14.9579ZM9.80621 14.9579C10.5047 14.9673 11.3812 14.8641 12.0328 14.5219C11.925 14.7329 11.8359 14.8641 11.7281 15.0704C11.1093 15.1313 10.2515 15.2016 9.80621 14.9579ZM11.0859 8.4563C11.2265 8.8313 11.5969 8.88754 11.9906 8.66726C12.2812 8.83598 12.7265 8.85006 12.8812 8.47506C12.9984 9.40318 12.0234 9.17818 11.9906 9.00006C11.625 9.35162 10.95 9.15006 11.0859 8.4563Z" fill="#DA0000"/>
<path fill-rule="evenodd" clip-rule="evenodd" d="M12.0188 15.5439L12.3844 15.122L12.4359 9.49231L12 9.10791L11.5641 9.47355L11.6531 15.1454L12.0188 15.5439Z" fill="#DA0000"/>
</g>
</g>
</g>
</g>
<defs>
<clipPath id="clip0_69_7726">
<rect width="24" height="24" rx="12" fill="white"/>
</clipPath>
<clipPath id="clip1_69_7726">
<rect width="32" height="24" fill="white" transform="translate(-4)"/>
</clipPath>
</defs>
</svg>
