<svg width="24" height="24" viewBox="0 0 24 24" fill="none" xmlns="http://www.w3.org/2000/svg">
<g clip-path="url(#clip0_69_7201)">
<g clip-path="url(#clip1_69_7201)">
<mask id="mask0_69_7201" style="mask-type:luminance" maskUnits="userSpaceOnUse" x="-4" y="0" width="32" height="24">
<path d="M28 0H-4V24H28V0Z" fill="white"/>
</mask>
<g mask="url(#mask0_69_7201)">
<mask id="mask1_69_7201" style="mask-type:luminance" maskUnits="userSpaceOnUse" x="-4" y="0" width="32" height="24">
<path d="M-4 0H28V24H-4V0Z" fill="white"/>
</mask>
<g mask="url(#mask1_69_7201)">
<path fill-rule="evenodd" clip-rule="evenodd" d="M-4 0H29.335V24H-4V0Z" fill="#003897"/>
<path fill-rule="evenodd" clip-rule="evenodd" d="M-4 9.335H5.335V0H10.665V9.335H29.335V14.665H10.665V24H5.335V14.665H-4V9.335Z" fill="white"/>
<path fill-rule="evenodd" clip-rule="evenodd" d="M-4 10.665H6.665V0H9.335V10.665H29.335V13.335H9.335V24H6.665V13.335H-4V10.665Z" fill="#D72828"/>
</g>
</g>
</g>
</g>
<defs>
<clipPath id="clip0_69_7201">
<rect width="24" height="24" rx="12" fill="white"/>
</clipPath>
<clipPath id="clip1_69_7201">
<rect width="32" height="24" fill="white" transform="translate(-4)"/>
</clipPath>
</defs>
</svg>
