<svg width="24" height="24" viewBox="0 0 24 24" fill="none" xmlns="http://www.w3.org/2000/svg">
<g clip-path="url(#clip0_69_7972)">
<g clip-path="url(#clip1_69_7972)">
<mask id="mask0_69_7972" style="mask-type:luminance" maskUnits="userSpaceOnUse" x="-4" y="0" width="32" height="24">
<path d="M28 0H-4V24H28V0Z" fill="white"/>
</mask>
<g mask="url(#mask0_69_7972)">
<mask id="mask1_69_7972" style="mask-type:luminance" maskUnits="userSpaceOnUse" x="-4" y="0" width="32" height="24">
<path d="M-4 0H28V24H-4V0Z" fill="white"/>
</mask>
<g mask="url(#mask1_69_7972)">
<path d="M-4 0H28V24H-4V0Z" fill="white"/>
<path fill-rule="evenodd" clip-rule="evenodd" d="M-8 0V1.6L9.52 12L-7.92 22.4V24H-5.36L12.08 13.6L29.44 24H32V22.4L14.64 12L32.08 1.6V0H29.44L12 10.4L-5.36 0H-7.92H-8Z" fill="#DF112D"/>
<path d="M14.0803 3.59983C14.6403 5.67985 14.3203 8.23985 12.0003 9.67985C9.68035 8.23985 9.36035 5.67985 9.92035 3.59983C10.4803 3.11983 12.9603 2.79983 14.0803 3.59983Z" fill="#E8112D"/>
<path d="M12.0006 3.19933C12.8006 3.19933 13.4406 3.35933 14.0806 3.67933C14.1958 2.98624 14.4696 2.32915 14.8806 1.75933C14.4806 1.75933 14.3206 1.91933 14.3206 2.15933C14.2406 1.91933 13.8406 1.91933 13.6806 2.07933C14.1606 2.31933 13.8406 2.87933 13.4406 2.79933C13.2006 2.71933 13.1206 2.55933 13.1206 2.39933C13.18 2.38929 13.2334 2.35734 13.2702 2.30979C13.3071 2.26225 13.3248 2.20258 13.3198 2.14261C13.3148 2.08265 13.2874 2.02676 13.2431 1.98602C13.1988 1.94529 13.1408 1.92268 13.0806 1.92268C13.0204 1.92268 12.9625 1.94529 12.9182 1.98602C12.8739 2.02676 12.8465 2.08265 12.8415 2.14261C12.8364 2.20258 12.8541 2.26225 12.891 2.30979C12.9279 2.35734 12.9813 2.38929 13.0406 2.39933C12.8929 2.55006 12.6916 2.63632 12.4806 2.63933C12.3888 2.59588 12.3104 2.52826 12.2541 2.4437C12.1977 2.35914 12.1654 2.26084 12.1606 2.15933C12.1606 1.75933 12.6406 1.67933 12.7206 1.75933C12.7206 1.51933 12.2406 1.19933 12.1606 1.51933C12.2432 1.36398 12.2723 1.18574 12.2434 1.01219C12.2145 0.83865 12.1292 0.679478 12.0006 0.559326C11.8894 0.67339 11.8147 0.81809 11.7862 0.974874C11.7576 1.13166 11.7766 1.29339 11.8406 1.43933C11.6806 1.19933 11.2806 1.43933 11.2806 1.75933C11.3606 1.67933 11.7606 1.75933 11.7606 2.15933C11.7606 2.31933 11.7606 2.55933 11.5206 2.55933C11.4226 2.59773 11.3148 2.60287 11.2136 2.57396C11.1124 2.54505 11.0235 2.48369 10.9606 2.39933L11.1206 2.31933C11.1664 2.29291 11.2021 2.25213 11.2224 2.20332C11.2426 2.15451 11.2461 2.10039 11.2324 2.04936C11.2188 1.99833 11.1886 1.95324 11.1467 1.92107C11.1048 1.88891 11.0534 1.87148 11.0006 1.87148C10.9478 1.87148 10.8964 1.88891 10.8545 1.92107C10.8126 1.95324 10.7825 1.99833 10.7688 2.04936C10.7551 2.10039 10.7587 2.15451 10.7789 2.20332C10.7991 2.25213 10.8349 2.29291 10.8806 2.31933C10.8806 2.55933 10.7206 2.71933 10.5606 2.71933C10.4767 2.71933 10.3948 2.69291 10.3268 2.64382C10.2586 2.59473 10.2077 2.52546 10.1812 2.44582C10.1546 2.36617 10.1538 2.28019 10.1788 2.20006C10.2038 2.11992 10.2535 2.0497 10.3206 1.99933C10.1606 1.83933 9.76065 1.83933 9.68065 2.15933C9.68065 1.91933 9.52065 1.75933 9.04065 1.75933C9.45165 2.32915 9.72545 2.98624 9.84065 3.67933C10.5054 3.33096 11.2508 3.16532 12.0006 3.19933Z" fill="#F9DD16"/>
<path d="M13.84 5.27888H13.68H13.92C14 5.27888 14.08 5.19888 14 5.11888H14.16L14 4.95888H14.16L14 4.79888H14.08C14.066 4.77456 14.0586 4.74696 14.0586 4.71888C14.0586 4.6908 14.066 4.6632 14.08 4.63888H13.52L13.12 4.55888L13.6 4.31888C13.6 4.15888 13.36 3.91889 12.96 4.07888L12.08 3.99889L12.64 3.83889L13.28 3.75889H12.72C12.48 3.75889 11.92 3.67889 11.92 3.99889C11.92 4.31888 12.48 4.23888 13.04 4.15888L13.52 4.23888L13.04 4.39888C12.8031 4.3442 12.5569 4.3442 12.32 4.39888H11.76C11.6 4.39888 11.36 4.39888 11.2 4.23888C11.2 4.23888 10.88 4.39888 10.88 4.55888V4.79888C11.04 4.95888 10.88 4.87888 10.72 4.87888L10.32 4.79888C10.24 4.63888 10.16 4.55888 10 4.63888V4.79888H10.16C10.1357 4.78484 10.1081 4.77744 10.08 4.77744C10.0519 4.77744 10.0243 4.78484 10 4.79888V4.95888H10.24H10.08V5.03888H10.4C10.3576 5.03888 10.3169 5.05576 10.2869 5.08576C10.2568 5.11576 10.24 5.15644 10.24 5.19888C10.32 5.11888 10.4 5.19888 10.56 5.19888L10.4 5.27888C10.48 5.27888 10.96 5.35888 10.96 5.19888V5.27888C10.96 5.27888 11.2 5.27888 11.2 5.11888V5.27888C11.2 5.27888 11.36 5.27888 11.44 5.11888V4.95888H11.84C12 4.79888 12.08 4.95888 12.16 4.87888H12.32C12.4 4.87888 12.48 4.87888 12.56 4.71888C12.72 4.79888 12.96 4.87888 13.44 4.79888C13.68 4.79888 13.84 4.87888 13.84 5.03888H13.44C13.44 5.03888 13.36 5.11888 13.44 5.19888C13.52 5.27888 13.44 5.19888 13.52 5.19888C13.52 5.19888 13.44 5.27888 13.52 5.35888L13.76 5.27888H13.84ZM10.64 3.91889V3.99889L10.72 4.15888L10.8 3.91889H10.64Z" fill="#F9DD16"/>
<path d="M11.2 3.9987C11.28 3.9187 11.36 3.9187 11.36 3.9987L11.28 4.15871L11.2 3.9187V3.9987Z" fill="#F9DD16"/>
<path d="M10.9606 3.83911C11.2006 3.83911 11.2806 3.99911 11.2806 4.15913L11.1206 4.47913L10.9606 4.55913L10.8006 4.47913C10.8006 4.23913 10.6406 4.31913 10.6406 4.15913C10.6406 3.99911 10.6406 3.83911 10.9606 3.83911Z" fill="#F9DD16"/>
<path d="M10.3203 4.47955H10.1603C10.2403 4.47955 10.2403 4.63955 10.4803 4.63955H10.3203C10.4003 4.63955 10.4803 4.79955 10.7203 4.79955C10.7203 4.87955 10.8803 4.79955 10.9603 4.95955C10.9603 4.87955 10.8003 4.71955 10.9603 4.55955C10.6403 4.55955 10.5603 4.39955 10.4803 4.31955C10.3203 4.23955 10.3203 4.07955 10.2403 3.91954C10.2403 3.91954 10.1603 3.75954 10.0803 3.83954V3.99954H10.0003C10.0803 3.99954 10.0003 4.15955 10.1603 4.23955C10.0803 4.15955 10.0003 4.07955 9.92032 4.15955H10.0003L10.3203 4.47955ZM12.4003 5.27955H12.8003L12.9603 5.19955V5.03955C12.8803 5.03955 12.8003 4.95955 12.8803 4.87955C12.6403 4.55955 12.1603 4.71955 12.1603 4.87955L12.4803 5.03955H12.5603H12.0003L12.0803 5.11955L11.9203 5.19955C11.9203 5.35955 12.0803 5.19955 12.0803 5.19955V5.27955C12.0803 5.27955 12.0803 5.35955 12.1603 5.27955C12.2121 5.26123 12.2686 5.26123 12.3203 5.27955H12.4003Z" fill="#F9DD16"/>
<path d="M10.96 4.47885H11.04V4.31885H10.8V4.39885L10.96 4.47885Z" fill="#FF0016"/>
<path d="M10.0806 3.83878C10.0806 3.75878 9.92064 3.83878 9.92064 3.83878H10.0806ZM10.0806 3.91878L9.84064 3.99878H10.0006L10.0806 3.91878ZM10.0806 4.15878H9.84064H10.0006H10.0806ZM10.0806 4.71878C10.0006 4.71878 9.92064 4.71878 9.92064 4.87878C9.92064 4.79878 10.0006 4.87878 10.0806 4.87878V4.71878ZM10.0806 4.87878L9.92064 5.03878L10.0806 4.95878V4.79878V4.87878ZM10.0806 4.95878C10.0806 4.95878 10.0006 5.03878 10.0806 5.11878V4.87878V4.95878ZM12.0806 5.19878C12.0006 5.19878 11.9206 5.19878 11.9206 5.35878L12.0806 5.27878V5.19878ZM12.1606 5.19878C12.0806 5.19878 12.0006 5.35878 12.0806 5.43878L12.1606 5.35878V5.27878V5.19878ZM12.1606 5.03878C12.0006 5.03878 11.9206 5.03878 11.9206 5.19878L12.0806 5.11878L12.1606 5.03878ZM13.4406 5.19878C13.4406 5.19878 13.2806 5.27878 13.3606 5.35878L13.4406 5.27878V5.19878ZM13.4406 5.11878L13.2806 5.19878H13.4406V4.95878V5.11878ZM13.4406 5.27878C13.4406 5.27878 13.3606 5.43878 13.4406 5.43878H13.5206V5.19878L13.4406 5.27878ZM11.0406 4.47878V4.79878C10.8806 4.79878 10.8806 4.79878 10.8806 4.63878V4.47878H10.9606H11.0406Z" fill="#0051BA"/>
<path d="M13.5209 6.95885H13.6809C13.6809 6.95885 13.7609 6.95885 13.6809 6.87885H13.8409L13.7609 6.71885H13.8409L13.7609 6.55885C13.7469 6.53453 13.7395 6.50693 13.7395 6.47885C13.7395 6.45077 13.7469 6.42317 13.7609 6.39885H13.3609L12.9609 6.31885C13.2009 6.39885 13.4409 6.23885 13.4409 6.07885C13.4409 5.91885 13.2009 5.75885 12.8809 5.91885L12.0009 5.83885L12.4809 5.67885H13.1209L12.5609 5.59885C12.3209 5.51885 11.8409 5.59885 11.8409 5.83885C11.8409 6.07885 12.4009 6.07885 12.8809 5.99885H13.2809L12.8809 6.15885C12.6703 6.11085 12.4516 6.11085 12.2409 6.15885L11.6809 6.23885C11.6009 6.23885 11.3609 6.23885 11.2009 6.07885L10.8809 6.31885L10.9609 6.63885C11.0409 6.71885 10.9609 6.63885 10.8009 6.63885H10.4009C10.4009 6.47885 10.2409 6.39885 10.1609 6.47885V6.55885H10.3209C10.2966 6.54481 10.269 6.53741 10.2409 6.53741C10.2128 6.53741 10.1853 6.54481 10.1609 6.55885V6.71885H10.3209H10.2409C10.4009 6.71885 10.4009 6.87885 10.4809 6.79885C10.4547 6.79205 10.4272 6.79205 10.4009 6.79885C10.4009 6.79885 10.5609 6.95885 10.6409 6.87885L10.5609 7.03885C10.5609 6.95885 11.0409 7.03885 11.0409 6.87885V7.03885C11.0409 7.03885 11.2009 7.03885 11.2809 6.87885H11.4409V6.71885H11.6009L11.8409 6.63885H12.2409C12.3209 6.63885 12.4009 6.63885 12.4809 6.47885C12.6409 6.55885 12.8009 6.63885 13.2809 6.55885C13.4409 6.55885 13.5209 6.55885 13.5209 6.71885V6.79885H13.2009V6.95885C13.2009 7.03885 13.2809 6.95885 13.3609 6.95885C13.2809 6.95885 13.2009 6.95885 13.2809 7.03885H13.3609L13.5209 6.95885ZM10.8009 5.75885H10.6409L10.7209 5.99885L10.8009 5.75885Z" fill="#F9DD16"/>
<path d="M11.2016 5.75928H11.3616L11.2816 5.99928L11.2016 5.75928Z" fill="#F9DD16"/>
<path d="M11.0419 5.67822C11.2819 5.67822 11.2819 5.83822 11.2819 5.99822C11.2819 6.15822 11.2019 5.99822 11.1219 6.23822L10.9619 6.31822H10.8819C10.8819 6.07822 10.7219 6.07822 10.7219 5.99822C10.7219 5.91822 10.7219 5.67822 11.0419 5.67822Z" fill="#F9DD16"/>
<path d="M10.4012 6.23822H10.3212C10.3212 6.23822 10.3212 6.39822 10.5612 6.39822H10.4012L10.7212 6.55822L11.0412 6.71822C11.0412 6.55822 10.8812 6.47822 10.9612 6.31822C10.7212 6.31822 10.6412 6.15822 10.5612 6.07822C10.4012 6.07822 10.4012 5.91822 10.4012 5.75822L10.2412 5.67822V5.83822H10.1612L10.2412 5.99822H10.0812C10.2412 5.99822 10.3212 6.23822 10.4012 6.23822ZM12.3212 6.95822H12.2412H12.8812V6.79822C12.8012 6.79822 12.7212 6.71822 12.8012 6.55822C12.5612 6.31822 12.1612 6.47822 12.1612 6.55822L12.4812 6.71822C12.4812 6.71822 12.6412 6.71822 12.4812 6.79822H12.3212C12.1612 6.79822 12.0812 6.71822 12.0012 6.79822V6.95822H12.0812C12.0812 6.95822 12.0812 7.03822 12.1612 6.95822C12.213 6.93994 12.2695 6.93994 12.3212 6.95822Z" fill="#F9DD16"/>
<path d="M11.0412 6.23959C11.0412 6.23959 11.1212 6.15959 11.0412 6.07959C11.0412 6.15959 11.1212 6.15959 11.0412 6.07959C11.0412 6.15959 10.8812 6.15959 10.8812 6.07959V6.23959H11.0412Z" fill="#FF0016"/>
<path d="M10.8 6.07959L10.88 6.11959L10.96 6.07959H10.8Z" fill="black"/>
<path d="M11.2 6.07959L11.12 6.11959L11.04 6.07959H11.2Z" fill="black"/>
<path d="M10.24 5.6001L10.08 5.6801H10.24V5.6001ZM10.24 5.7601L10 5.8401H10.16L10.24 5.7601ZM10.16 6.0001C10.16 5.9201 10 6.0001 10 6.0001H10.16ZM10.16 6.4801L10 6.5601H10.24L10.16 6.4801ZM10.16 6.6401C10.16 6.6401 10 6.6401 10.16 6.8001V6.6401ZM10.32 6.6401L10.16 6.8801L10.32 6.8001V6.7201V6.6401ZM11.92 6.8801C11.92 6.8801 11.84 6.8801 11.92 7.0401L12 6.9601V6.8801H11.92ZM12.08 6.9601C12.08 6.9601 11.92 7.0401 12 7.1201L12.08 7.0401V6.9601ZM12.08 6.7201C12 6.7201 11.84 6.8001 11.92 6.8801H12V6.8001L12.08 6.7201ZM13.2 6.9601C13.2 6.9601 13.12 6.9601 13.2 7.0401V6.8801V6.9601ZM13.2 6.8001L13.12 6.8801H13.28V6.8001H13.2ZM13.28 7.0401C13.28 7.0401 13.2 7.0401 13.28 7.1201V7.0401ZM11.04 6.2401V6.5601V6.4001C11.04 6.3201 11.04 6.2401 10.96 6.3201V6.2401H11.04Z" fill="#0051BA"/>
<path d="M13.5183 8.34394C13.4735 8.34394 13.4735 8.40394 13.4623 8.40394C13.5519 8.40394 13.5967 8.36794 13.6191 8.31994V8.39194C13.6863 8.36794 13.7087 8.30794 13.6863 8.27194L13.7647 8.29594C13.7199 8.25994 13.7535 8.17594 13.6751 8.12794C13.6975 8.12794 13.7423 8.15194 13.7647 8.18794C13.7535 8.10394 13.7423 8.05594 13.6751 8.00794H13.7311C13.7165 7.99754 13.7047 7.98318 13.6968 7.96634C13.6889 7.9495 13.6853 7.93074 13.6863 7.91194C13.6863 7.86394 13.6639 7.86394 13.6191 7.87594L13.4175 7.88794C13.3055 7.88794 13.1935 7.88794 13.1039 7.81594C13.2495 7.88794 13.4399 7.74394 13.4399 7.63594C13.4399 7.51594 13.2831 7.39594 12.9919 7.46794C12.7007 7.53994 12.3423 7.51594 12.3423 7.40794C12.3423 7.29994 12.5999 7.28794 12.7343 7.31194C12.8687 7.33594 12.9583 7.34794 13.2047 7.25194C13.1487 7.27594 12.9471 7.28794 12.7903 7.23994C12.6335 7.19194 12.2527 7.19194 12.2527 7.40794C12.2527 7.63594 12.6559 7.61194 13.0143 7.55194C13.2159 7.52794 13.3279 7.55194 13.3279 7.61194C13.3279 7.68394 13.1375 7.70794 12.9919 7.69594C12.8382 7.67374 12.6818 7.68602 12.5327 7.73194C12.3871 7.77994 12.2863 7.73194 12.1295 7.76794C12.0511 7.76794 11.8607 7.76794 11.7711 7.59994C11.7151 7.64794 11.5471 7.73194 11.5135 7.82794C11.4799 7.89994 11.5135 7.98394 11.5583 8.06794C11.6255 8.16394 11.5247 8.15194 11.4463 8.15194C11.3567 8.15194 11.2223 8.15194 11.1551 8.05594C11.0879 7.98394 11.0095 7.92394 10.9423 7.97194C10.9087 8.00794 10.9423 8.04394 10.9647 8.03194L11.0543 8.05594C11.0363 8.04718 11.0165 8.04366 10.9968 8.04578C10.9771 8.0479 10.9583 8.05554 10.9423 8.06794C10.9087 8.09194 10.9423 8.13994 10.9759 8.12794C10.9983 8.11594 11.0543 8.10394 11.0879 8.12794C11.0543 8.12794 11.0095 8.12794 10.9983 8.15194C10.9871 8.17594 10.9983 8.19994 11.0319 8.19994C11.0991 8.19994 11.1103 8.24794 11.1775 8.23594C11.1619 8.23686 11.1466 8.2417 11.133 8.25002C11.1194 8.25834 11.1078 8.26998 11.0991 8.28394C11.1663 8.24794 11.2223 8.33194 11.3007 8.30794C11.2783 8.31994 11.2223 8.35594 11.2223 8.37994C11.2671 8.31994 11.5807 8.42794 11.5807 8.29594L11.5695 8.39194C11.6031 8.36794 11.7263 8.35594 11.7711 8.27194C11.7711 8.29594 11.7711 8.33194 11.7487 8.34394C11.7823 8.34394 11.8383 8.31994 11.8943 8.23594C11.9167 8.19994 11.9167 8.17594 11.9167 8.15194C11.9727 8.15194 12.0063 8.13994 12.0511 8.10394C12.0959 8.06794 12.1407 8.13994 12.2191 8.07994C12.2863 8.03194 12.3535 8.07994 12.3983 8.05594C12.4319 8.03194 12.4879 8.05594 12.5327 8.03194C12.5775 8.00794 12.6447 8.04394 12.7119 7.98394C12.8239 8.03194 12.9695 8.10394 13.2943 8.04394C13.4735 8.00794 13.5407 8.07994 13.5407 8.16394C13.5407 8.23594 13.4959 8.23594 13.4735 8.23594C13.3615 8.24794 13.3279 8.19994 13.2831 8.21194C13.2607 8.22394 13.2383 8.27194 13.2831 8.29594C13.2495 8.30794 13.2495 8.34394 13.2719 8.35594C13.2943 8.36794 13.3279 8.35594 13.3615 8.34394C13.3167 8.35594 13.2831 8.39194 13.3055 8.42794C13.3167 8.45194 13.3503 8.46394 13.3839 8.42794C13.4175 8.37994 13.4735 8.34394 13.5183 8.34394ZM11.4351 7.38394C11.3455 7.34794 11.3231 7.34794 11.3343 7.43194C11.3343 7.46794 11.3679 7.51594 11.3903 7.53994C11.3903 7.50394 11.4015 7.41994 11.4351 7.39594V7.38394Z" fill="#F9DD16" stroke="black" stroke-width="0.0289828"/>
<path d="M11.7375 7.39645C11.8271 7.34845 11.8607 7.34845 11.8383 7.43245C11.8383 7.46845 11.8047 7.51645 11.7823 7.54045C11.7823 7.50445 11.7823 7.42045 11.7375 7.39645Z" fill="#F9DD16" stroke="black" stroke-width="0.0289828"/>
<path d="M11.5922 7.33594C11.7714 7.33594 11.7938 7.43194 11.7826 7.53994C11.7826 7.65994 11.7266 7.61194 11.693 7.77994C11.6818 7.82794 11.637 7.83994 11.581 7.83994C11.5474 7.83994 11.5026 7.83994 11.4802 7.76794C11.4466 7.61194 11.3906 7.64794 11.3906 7.52794C11.3906 7.43194 11.413 7.33594 11.5922 7.33594Z" fill="#F9DD16" stroke="black" stroke-width="0.0289828"/>
<path d="M11.1333 7.78019C11.0885 7.75619 11.0549 7.78019 11.0325 7.78019C11.0997 7.79219 11.0997 7.87619 11.2341 7.90019C11.2005 7.90019 11.1893 7.92419 11.1557 7.90019C11.2117 7.94819 11.2677 8.00819 11.4021 8.00819C11.4805 8.00819 11.4245 8.04419 11.3797 8.02019C11.4245 8.08019 11.5253 8.03219 11.5925 8.14019C11.5925 8.05619 11.4805 7.93619 11.5365 7.85219C11.3461 7.84019 11.3349 7.73219 11.2341 7.64819C11.1445 7.57619 11.1333 7.50419 11.0997 7.37219C11.0885 7.31219 11.0213 7.27619 10.9877 7.28819C10.9541 7.28819 10.9317 7.32419 10.9653 7.34819C10.9877 7.37219 11.0325 7.37219 11.0325 7.43219C10.9989 7.38419 10.9429 7.37219 10.9205 7.39619C10.9093 7.42019 10.9205 7.45619 10.9429 7.45619C10.9989 7.45619 10.9653 7.52819 11.0213 7.57619C10.9653 7.51619 10.9205 7.50419 10.8869 7.54019C10.8757 7.56419 10.8869 7.60019 10.9317 7.60019C10.9877 7.60019 11.0437 7.74419 11.1333 7.78019ZM12.5893 8.33219C12.5669 8.33219 12.5781 8.39219 12.5333 8.39219C12.6229 8.39219 12.6789 8.36819 12.7125 8.33219L12.6901 8.39219C12.7349 8.35619 12.8581 8.34419 12.9141 8.35619C12.9701 8.36819 12.9813 8.34419 13.0037 8.30819C13.0261 8.26019 13.0037 8.23619 12.9701 8.21219C12.9365 8.17619 12.9253 8.12819 12.9365 8.05619C12.7797 7.81619 12.4885 7.93619 12.4885 8.03219C12.5893 8.16419 12.6005 8.15219 12.6901 8.16419C12.7685 8.18819 12.8245 8.18819 12.7685 8.23619C12.7461 8.26019 12.6565 8.23619 12.6005 8.24819C12.4549 8.24819 12.3765 8.14019 12.3429 8.20019C12.3093 8.24819 12.3429 8.27219 12.4101 8.27219C12.3653 8.27219 12.2981 8.27219 12.3093 8.32019C12.3317 8.40419 12.3989 8.30819 12.4325 8.33219C12.4101 8.33219 12.3653 8.34419 12.3653 8.36819C12.3653 8.39219 12.4213 8.42819 12.4773 8.36819C12.5098 8.34311 12.5492 8.33043 12.5893 8.33219Z" fill="#F9DD16" stroke="black" stroke-width="0.0289828"/>
<path d="M12.7119 7.98299C12.6671 7.95899 12.6111 7.94699 12.5551 7.95899M11.9279 7.95899C11.8831 8.05499 11.9055 8.10299 11.9167 8.15099M11.4688 7.47899C11.4912 7.50299 11.5135 7.45499 11.5583 7.50299M11.5583 7.50299C11.5471 7.49099 11.5247 7.53899 11.4911 7.50299M11.5583 7.50299V7.53899C11.5471 7.62299 11.5247 7.65899 11.5807 7.65899C11.6479 7.65899 11.6255 7.62299 11.6143 7.53899V7.50299M11.6143 7.50299C11.6591 7.45499 11.6815 7.49099 11.7151 7.49099M11.6143 7.50299C11.6255 7.49099 11.6479 7.53899 11.6815 7.50299" stroke="black" stroke-width="0.0289828"/>
<path d="M11.5926 7.80297C11.6374 7.80297 11.6598 7.80297 11.6598 7.73097C11.6598 7.70697 11.6934 7.69497 11.671 7.64697C11.6934 7.69497 11.5926 7.69497 11.5926 7.67097C11.5926 7.69497 11.4806 7.69497 11.503 7.64697C11.4918 7.69497 11.5254 7.70697 11.5142 7.73097C11.5142 7.80297 11.5366 7.80297 11.5926 7.80297Z" fill="#FF0016" stroke="black" stroke-width="0.0289828"/>
<path d="M11.425 7.62354L11.537 7.65954H11.425M11.537 7.67154L11.4362 7.70754M11.7386 7.62354L11.6266 7.65954H11.761M11.6266 7.67154L11.7386 7.70754" stroke="black" stroke-width="0.0289828"/>
<path d="M10.6412 7.59937H10.4812H10.5612H10.6412ZM10.6412 8.07937C10.6412 7.99937 10.5612 8.07937 10.5612 8.07937H10.6412ZM10.6412 8.07937C10.6412 8.07937 10.5612 8.23937 10.6412 8.23937V8.15937V8.07937ZM12.0012 8.31937C12.0012 8.31937 11.8412 8.39937 11.9212 8.47937V8.31937H12.0012ZM12.0012 8.39937V8.55937V8.47937V8.39937ZM12.0012 8.23937L11.9212 8.31937H12.0012V8.23937ZM12.8812 8.47937V8.55937H12.9612V8.47937H12.8812Z" fill="#0051BA"/>
</g>
</g>
</g>
</g>
<defs>
<clipPath id="clip0_69_7972">
<rect width="24" height="24" rx="12" fill="white"/>
</clipPath>
<clipPath id="clip1_69_7972">
<rect width="32" height="24" fill="white" transform="translate(-4)"/>
</clipPath>
</defs>
</svg>
