<svg width="24" height="24" viewBox="0 0 24 24" fill="none" xmlns="http://www.w3.org/2000/svg">
<g clip-path="url(#clip0_69_7950)">
<g clip-path="url(#clip1_69_7950)">
<mask id="mask0_69_7950" style="mask-type:luminance" maskUnits="userSpaceOnUse" x="-4" y="0" width="32" height="24">
<path d="M28 0H-4V24H28V0Z" fill="white"/>
</mask>
<g mask="url(#mask0_69_7950)">
<path fill-rule="evenodd" clip-rule="evenodd" d="M-4 0L12 12L-4 24V0ZM28 0L12 12L28 24V0Z" fill="black"/>
<path fill-rule="evenodd" clip-rule="evenodd" d="M-4 0L12 12L28 0H-4ZM-4 24L12 12L28 24H-4Z" fill="#009900"/>
<path fill-rule="evenodd" clip-rule="evenodd" d="M28 0H25.02L-4 21.765V24H-1.02L28 2.235V0Z" fill="#FFCC00"/>
<path fill-rule="evenodd" clip-rule="evenodd" d="M-4 0V2.235L25.02 24H28V21.765L-1.02 0H-4Z" fill="#FFCC00"/>
</g>
</g>
</g>
<defs>
<clipPath id="clip0_69_7950">
<rect width="24" height="24" rx="12" fill="white"/>
</clipPath>
<clipPath id="clip1_69_7950">
<rect width="32" height="24" fill="white" transform="translate(-4)"/>
</clipPath>
</defs>
</svg>
