<svg width="24" height="24" viewBox="0 0 24 24" fill="none" xmlns="http://www.w3.org/2000/svg">
<g clip-path="url(#clip0_69_7960)">
<g clip-path="url(#clip1_69_7960)">
<mask id="mask0_69_7960" style="mask-type:luminance" maskUnits="userSpaceOnUse" x="-4" y="0" width="32" height="24">
<path d="M28 0H-4V24H28V0Z" fill="white"/>
</mask>
<g mask="url(#mask0_69_7960)">
<mask id="mask1_69_7960" style="mask-type:luminance" maskUnits="userSpaceOnUse" x="-4" y="0" width="32" height="24">
<path d="M-4 0H28V24H-4V0Z" fill="white"/>
</mask>
<g mask="url(#mask1_69_7960)">
<path fill-rule="evenodd" clip-rule="evenodd" d="M-6 0H30V24H-6V0Z" fill="white"/>
<path d="M12.0023 19.4609C16.1225 19.4609 19.4625 16.1208 19.4625 12.0007C19.4625 7.88057 16.1225 4.54053 12.0023 4.54053C7.88222 4.54053 4.54218 7.88057 4.54218 12.0007C4.54218 16.1208 7.88222 19.4609 12.0023 19.4609Z" fill="#BC002D"/>
</g>
</g>
</g>
</g>
<defs>
<clipPath id="clip0_69_7960">
<rect width="24" height="24" rx="12" fill="white"/>
</clipPath>
<clipPath id="clip1_69_7960">
<rect width="32" height="24" fill="white" transform="translate(-4)"/>
</clipPath>
</defs>
</svg>
