<svg width="24" height="24" viewBox="0 0 24 24" fill="none" xmlns="http://www.w3.org/2000/svg">
<g clip-path="url(#clip0_69_8074)">
<g clip-path="url(#clip1_69_8074)">
<mask id="mask0_69_8074" style="mask-type:luminance" maskUnits="userSpaceOnUse" x="-4" y="0" width="32" height="24">
<path d="M28 0H-4V24H28V0Z" fill="white"/>
</mask>
<g mask="url(#mask0_69_8074)">
<path d="M-4 0H28V24H-4V0Z" fill="white"/>
<path d="M-4 0H28V7.2H-4V0Z" fill="black"/>
<path d="M-4 16.8H28V24H-4V16.8Z" fill="#006600"/>
<path d="M7.70935 19.1251L7.97935 19.2751L14.9844 7.1251C15.3893 7.0351 15.6144 6.6451 15.8394 6.2551C15.9894 5.9851 16.5894 4.9501 16.8444 3.6001C16.1327 4.2325 15.5297 4.97738 15.0594 5.8051C14.8344 6.1951 14.6094 6.5851 14.7144 6.9901L7.70935 19.1251Z" fill="black" stroke="black" stroke-width="0.375"/>
<path d="M7.70935 19.1251L7.97935 19.2751L14.9844 7.1251C15.3893 7.0351 15.6144 6.6451 15.8394 6.2551C15.9894 5.9851 16.5894 4.9501 16.8444 3.6001C16.1327 4.2325 15.5297 4.97738 15.0594 5.8051C14.8344 6.1951 14.6094 6.5851 14.7144 6.9901L7.70935 19.1251Z" fill="white"/>
<path d="M16.2906 19.1251L16.0206 19.2751L9.01564 7.1251C8.61064 7.0351 8.38564 6.6451 8.16064 6.2551C8.01064 5.9851 7.41064 4.9501 7.15564 3.6001C7.86728 4.2325 8.47028 4.97738 8.94064 5.8051C9.16564 6.1951 9.39064 6.5851 9.28564 6.9901L16.2906 19.1251Z" fill="black" stroke="black" stroke-width="0.375"/>
<path d="M16.2906 19.1251L16.0206 19.2751L9.01564 7.1251C8.61064 7.0351 8.38564 6.6451 8.16064 6.2551C8.01064 5.9851 7.41064 4.9501 7.15564 3.6001C7.86728 4.2325 8.47028 4.97738 8.94064 5.8051C9.16564 6.1951 9.39064 6.5851 9.28564 6.9901L16.2906 19.1251Z" fill="white"/>
<path d="M28.0256 8.40005H14.8506C14.4006 7.20005 12.9006 4.80005 12.0006 4.80005C11.1006 4.80005 9.60065 7.20005 9.15064 8.40005H-4.00937V15.6H9.15064C9.60065 16.8 11.1006 19.2 12.0006 19.2C12.9006 19.2 14.4006 16.8 14.8506 15.6H28.0256V8.40005Z" fill="#BB0000"/>
<path d="M14.85 15.5999C15.3 14.3999 15.6 13.1999 15.6 11.9999C15.6 10.7999 15.3 9.5999 14.85 8.3999C14.4 9.5999 14.1 10.7999 14.1 11.9999C14.1 13.1999 14.4 14.3999 14.85 15.5999Z" fill="black"/>
<path d="M9.14999 15.5999C8.69999 14.3999 8.39999 13.1999 8.39999 11.9999C8.39999 10.7999 8.69999 9.5999 9.14999 8.3999C9.59999 9.5999 9.89999 10.7999 9.89999 11.9999C9.89999 13.1999 9.59999 14.3999 9.14999 15.5999Z" fill="black"/>
<path d="M12 12.9001C12.3314 12.9001 12.6 12.4971 12.6 12.0001C12.6 11.5031 12.3314 11.1001 12 11.1001C11.6686 11.1001 11.4 11.5031 11.4 12.0001C11.4 12.4971 11.6686 12.9001 12 12.9001Z" fill="white"/>
<path d="M12.15 12.8704C12.15 12.8704 12.75 14.0704 12.75 16.0204C12.75 17.9704 12.15 19.1704 12.15 19.1704V12.8704Z" fill="white"/>
<path d="M11.85 11.1296C11.85 11.1296 11.25 9.92959 11.25 7.97959C11.25 6.02959 11.85 4.82959 11.85 4.82959V11.1296Z" fill="white"/>
<path d="M11.85 12.8704C11.85 12.8704 11.25 14.0704 11.25 16.0204C11.25 17.9704 11.85 19.1704 11.85 19.1704V12.8704Z" fill="white"/>
<path d="M12.15 11.1296C12.15 11.1296 12.75 9.92959 12.75 7.97959C12.75 6.02959 12.15 4.82959 12.15 4.82959V11.1296Z" fill="white"/>
</g>
</g>
</g>
<defs>
<clipPath id="clip0_69_8074">
<rect width="24" height="24" rx="12" fill="white"/>
</clipPath>
<clipPath id="clip1_69_8074">
<rect width="32" height="24" fill="white" transform="translate(-4)"/>
</clipPath>
</defs>
</svg>
