<svg width="24" height="24" viewBox="0 0 24 24" fill="none" xmlns="http://www.w3.org/2000/svg">
<g clip-path="url(#clip0_69_8151)">
<g clip-path="url(#clip1_69_8151)">
<mask id="mask0_69_8151" style="mask-type:luminance" maskUnits="userSpaceOnUse" x="-4" y="0" width="32" height="24">
<path d="M28 0H-4V24H28V0Z" fill="white"/>
</mask>
<g mask="url(#mask0_69_8151)">
<mask id="mask1_69_8151" style="mask-type:luminance" maskUnits="userSpaceOnUse" x="-5" y="0" width="33" height="24">
<path d="M-4.00468 0H27.9969V24H-4.00468V0Z" fill="white"/>
</mask>
<g mask="url(#mask1_69_8151)">
<path fill-rule="evenodd" clip-rule="evenodd" d="M-6.02031 0H30.0172V24H-6.02031V0Z" fill="#FF0000"/>
<path fill-rule="evenodd" clip-rule="evenodd" d="M4.925 12.2391C5.56248 11.4609 6.88908 12.2203 7.97188 11.6625C6.68748 11.7328 5.98908 11.0438 4.97656 11.1422C6.02656 10.4953 6.92188 11.3531 8.09376 11.0109C6.5422 10.8797 6.6078 10.1812 5.1922 10.0828C6.44844 9.54844 7.0672 10.6359 8.3 10.3875C6.84688 10.0547 6.65936 9.20156 5.58124 9.01875C7.15624 8.78435 7.05312 9.71251 8.59532 9.825C7.02968 9.15468 7.43748 8.56876 6.12968 8.0578C7.59688 8.025 7.49844 9.04219 8.98908 9.30468C7.71408 8.49844 7.86876 7.76252 6.82344 7.18591C8.06564 7.20936 8.1828 8.47967 9.45312 8.87343C8.32344 7.97811 8.61876 7.21875 7.64376 6.41719C8.88124 6.70779 8.69844 7.80468 9.98748 8.5078C9.03124 7.44844 9.39688 6.68907 8.5672 5.82188C9.7578 6.20156 9.30312 7.24688 10.5359 8.24064C9.8328 7.07344 10.2688 6.32812 9.57032 5.34844C10.6766 5.91564 10.1422 6.98435 11.1641 8.04376C10.6812 6.84843 11.1641 6.1078 10.6719 5.04844C11.6188 5.75156 11.0562 6.89063 11.8203 7.97811C11.5391 6.47811 12.1859 6.23435 11.9844 4.92188C12.7016 5.80312 11.9 6.68436 12.4531 7.9828C12.3828 6.50624 13.1703 6.16408 13.0344 4.98279C13.7422 6.04219 12.6359 6.96564 13.1 8.1C13.2172 6.70312 14.1359 6.33752 14.15 5.25C14.7125 6.24844 13.4938 6.97032 13.6906 8.29688C14.0891 6.83436 15.0688 6.65624 15.1906 5.67188C15.5234 6.825 14.1875 7.35935 14.2672 8.64375C14.6656 7.34531 15.8891 7.19064 16.1422 6.23436C16.2969 7.45312 15.0922 7.67343 14.75 9.02344C15.3828 7.92187 16.4938 7.83279 16.9906 6.96092C16.9531 8.17032 15.5938 8.32967 15.1766 9.45935C15.9594 8.49843 16.9438 8.66252 17.7266 7.81408C17.6422 8.90624 16.2594 8.84532 15.5234 9.975C16.3719 9.19219 17.6516 9.42656 18.3031 8.75156C18.2703 9.7172 16.5734 9.64219 15.7719 10.5094C16.7562 9.96563 18.0125 10.2844 18.7344 9.7828C18.6031 10.6266 16.8125 10.4297 15.9547 11.0953C17.1359 10.7672 18.05 11.2688 19.0016 10.9078C18.5375 11.7281 16.9109 11.2078 16.0484 11.7422C17.0797 11.5688 18.1672 12.1922 19.1 11.9906C18.7953 12.7031 17.0094 11.9438 16.0531 12.3891C17.1969 12.3797 17.9422 13.1156 19.0062 13.0641C18.4297 13.7109 16.8641 12.825 15.95 12.975C17.0656 13.2094 17.9188 14.1281 18.7625 14.175C18.0641 14.7047 16.7703 13.4953 15.7156 13.6453C16.8031 13.9359 17.7125 15.1688 18.3312 15.1969C17.6609 15.6562 16.3391 14.1422 15.4344 14.1984C16.5359 14.6953 17.0375 15.9562 17.7641 16.1344C16.8688 16.4203 15.9875 14.7656 15.0266 14.7047C16.1422 15.4078 16.2031 16.4859 17.0609 16.9641C16.1562 17.1844 15.5141 15.3141 14.5625 15.1547C15.4766 15.825 15.6172 17.2641 16.2219 17.7141C15.3031 17.7609 14.9703 15.8062 14.0281 15.525C14.8344 16.2 14.6422 17.6625 15.2703 18.2906C14.3141 18.0891 14.4359 16.3875 13.4375 15.8109C14.1547 16.7203 13.7891 18.0094 14.2578 18.7359C13.325 18.3609 13.7281 16.8328 12.8422 15.9703C13.325 16.9359 12.8047 18.0609 13.1891 18.9938C12.3359 18.5766 12.9078 16.7719 12.2562 16.0547C12.5562 17.1703 12.0031 18.0938 12.2281 19.0922C11.3562 18.0844 12.3594 17.0672 11.6047 16.0406C11.8016 17.2172 10.9766 18.0422 11.1078 19.0266C10.4188 18.2203 11.4828 16.9312 10.9438 15.9141C11.0562 17.0719 9.9922 18.0891 10.0672 18.8203C9.50468 17.8828 10.6906 16.7766 10.3719 15.7125C10.3062 16.8188 9.22812 17.4188 9.02656 18.4266C8.66564 17.3156 9.94532 16.5141 9.8328 15.4219C9.4672 16.4578 8.42656 16.875 8.06092 17.8828C7.76092 16.7719 9.27968 16.1859 9.3172 15.0234C8.84844 16.1109 7.60624 16.3547 7.19376 17.1891C7.03908 16.0875 8.77812 15.5953 8.84376 14.55C8.28124 15.5531 6.92188 15.5953 6.45312 16.3922C6.3828 15.2953 8.21564 15.1594 8.50156 14.0109C7.94376 14.8641 6.45312 14.7562 5.82968 15.45C5.92812 14.4328 7.91092 14.3719 8.22968 13.4531C7.48908 14.1656 6.12032 13.875 5.34688 14.4375C5.77812 13.4344 7.63908 13.6453 8.05624 12.9234C7.23592 13.35 5.77812 12.9328 5.05624 13.3641C5.71252 12.4172 7.15624 12.9844 7.97656 12.3328C6.64532 12.525 5.84376 11.9953 4.92032 12.2391H4.925Z" fill="#FFFF00"/>
<path fill-rule="evenodd" clip-rule="evenodd" d="M16.6672 12.0047C16.6672 13.2386 16.177 14.422 15.3046 15.2945C14.4321 16.1669 13.2487 16.6571 12.0148 16.6571C10.781 16.6571 9.59765 16.1669 8.72517 15.2945C7.85265 14.422 7.36253 13.2386 7.36249 12.0047C7.36253 10.7715 7.85241 9.58874 8.72445 8.7167C9.59649 7.84466 10.7792 7.35474 12.0125 7.35474C13.2458 7.35474 14.4285 7.84466 15.3006 8.7167C16.1726 9.58874 16.6625 10.7715 16.6625 12.0047H16.6672Z" fill="#FFFF00"/>
<path fill-rule="evenodd" clip-rule="evenodd" d="M16.0672 12.0141C16.0672 13.087 15.641 14.1159 14.8824 14.8745C14.1237 15.6331 13.0948 16.0594 12.0219 16.0594C10.949 16.0594 9.92004 15.6331 9.1614 14.8745C8.40276 14.1159 7.97656 13.087 7.97656 12.0141C7.97656 10.9412 8.40276 9.91223 9.1614 9.15359C9.92004 8.39495 10.949 7.96875 12.0219 7.96875C13.0948 7.96875 14.1237 8.39495 14.8824 9.15359C15.641 9.91223 16.0672 10.9412 16.0672 12.0141Z" fill="#FF0000"/>
<path fill-rule="evenodd" clip-rule="evenodd" d="M15.5047 12.0235C15.5047 12.9447 15.1387 13.8282 14.4874 14.4796C13.836 15.131 12.9525 15.4969 12.0312 15.4969C11.11 15.4969 10.2266 15.131 9.57516 14.4796C8.92376 13.8282 8.5578 12.9447 8.5578 12.0235C8.5578 11.1023 8.92376 10.2188 9.57516 9.56741C10.2266 8.91601 11.11 8.55005 12.0312 8.55005C12.9525 8.55005 13.836 8.91601 14.4874 9.56741C15.1387 10.2188 15.5047 11.1023 15.5047 12.0235Z" fill="#FFFF00"/>
<path fill-rule="evenodd" clip-rule="evenodd" d="M9.07344 9.75004C10.0344 9.7266 11.2297 9.81568 12.0219 10.4438C12.8682 9.9156 13.8646 9.68008 14.8578 9.77348L15.3734 10.7157C14.5722 10.6426 13.7656 10.7748 13.0297 11.1C13.5556 11.488 13.9785 11.9988 14.2612 12.588C14.544 13.1772 14.678 13.8268 14.6516 14.4797C14.525 14.6391 14.3234 14.8125 14.1969 14.9719C14.3844 13.636 13.6812 12.1454 12.6547 11.3625C13.4891 12.5626 13.9812 13.6407 13.8453 15.1313L13.3766 15.4313C13.5922 14.1188 13.2828 12.5719 12.3125 11.6813C12.875 12.5016 13.4281 13.9782 13.0812 15.4782C12.9312 15.525 12.6969 15.6516 12.5469 15.6938C12.7306 15.0784 12.7806 14.4308 12.6932 13.7944C12.6059 13.1581 12.3834 12.5479 12.0406 12.0047C11.3938 12.9328 11.1828 14.3485 11.5484 15.661C11.3703 15.6141 11.2344 15.5578 11.0516 15.5157C10.7844 14.1094 11.1547 12.5157 11.7969 11.686C11.1406 12.0657 10.5266 13.6875 10.7 15.3422L10.2641 15.1407C10.0531 13.9078 10.6109 12.3 11.4125 11.3719C10.5031 11.9438 9.76248 13.3547 9.88908 14.8688C9.74844 14.7469 9.62188 14.686 9.48124 14.5594C9.32188 13.2376 10.0906 11.9063 10.9859 11.1094C10.2312 10.7672 9.57968 10.7016 8.6422 10.7157C8.78748 10.411 8.92344 10.0547 9.07344 9.74536V9.75004Z" fill="#FF0000"/>
</g>
</g>
</g>
</g>
<defs>
<clipPath id="clip0_69_8151">
<rect width="24" height="24" rx="12" fill="white"/>
</clipPath>
<clipPath id="clip1_69_8151">
<rect width="32" height="24" fill="white" transform="translate(-4)"/>
</clipPath>
</defs>
</svg>
