<svg width="24" height="24" viewBox="0 0 24 24" fill="none" xmlns="http://www.w3.org/2000/svg">
<g clip-path="url(#clip0_69_3594)">
<g clip-path="url(#clip1_69_3594)">
<mask id="mask0_69_3594" style="mask-type:luminance" maskUnits="userSpaceOnUse" x="-4" y="0" width="32" height="24">
<path d="M28 0H-4V24H28V0Z" fill="white"/>
</mask>
<g mask="url(#mask0_69_3594)">
<path d="M-4 0H28V24H-4V0Z" fill="#032EA1"/>
<path d="M-4 6H28V18H-4V6Z" fill="#E00025"/>
<path d="M8.6203 11.311H15.4483V13.939H8.6203V11.311Z" fill="white" stroke="black" stroke-width="0.15" stroke-linejoin="bevel"/>
<path d="M15.1003 12.7576H15.3103V13.7476H15.1003V12.7576ZM8.6203 12.2716H15.4483V12.5716H8.6203V12.2716ZM8.6203 11.8516H15.4483V12.1276H8.6203V11.8516Z" fill="white" stroke="black" stroke-width="0.15" stroke-linejoin="bevel"/>
<path d="M8.6203 11.4421H15.4483V11.7001H8.6203V11.4421Z" fill="white" stroke="black" stroke-width="0.135" stroke-linejoin="bevel"/>
<path d="M10.4197 12.7563H10.6357V13.7463H10.4197V12.7563ZM13.3597 12.7563H13.5757V13.7463H13.3597V12.7563ZM8.67969 12.7563H8.88969V13.7463H8.67969V12.7563ZM9.09969 12.7563H9.30969V13.7463H9.09969V12.7563ZM9.54969 12.7563H9.75969V13.7463H9.54969V12.7563ZM9.99969 12.7563H10.2097V13.7463H9.99969V12.7563ZM13.7677 12.7563H13.9837V13.7463H13.7677V12.7563ZM14.2177 12.7563H14.4337V13.7463H14.2177V12.7563ZM14.6677 12.7563H14.8837V13.7463H14.6677V12.7563Z" fill="white" stroke="black" stroke-width="0.15" stroke-linejoin="bevel"/>
<path d="M5.95001 14.0712C6.07545 14.0029 6.16997 13.8891 6.21401 13.7532H17.8C17.8441 13.8891 17.9386 14.0029 18.064 14.0712H5.95001Z" fill="white" stroke="black" stroke-width="0.15"/>
<path d="M11.8597 7.30815C11.8597 7.30815 11.8537 7.06215 11.9977 7.05615C12.1357 7.05615 12.1297 7.30815 12.1297 7.30815H11.8597ZM11.1097 10.5782V10.2482C11.1097 10.0802 10.9417 10.0682 10.9417 9.94815C10.9417 9.94815 10.9177 9.76815 10.9657 9.68415C11.0317 9.92415 11.1457 9.88215 11.1457 9.78015C11.1457 9.69615 11.0857 9.61215 10.9477 9.40215C10.8997 9.33615 10.9297 9.12615 10.9897 9.04815C11.0137 9.22815 11.0437 9.31815 11.1217 9.31815C11.1697 9.31815 11.2057 9.28815 11.2057 9.19815C11.2057 9.07815 11.1277 9.01815 11.0857 8.91015C11.065 8.85643 11.0602 8.79783 11.0719 8.74147C11.0836 8.68507 11.1113 8.63323 11.1517 8.59215C11.1817 8.77215 11.1757 8.84415 11.2537 8.84415C11.4157 8.79015 11.2537 8.55615 11.2177 8.49615C11.1817 8.43015 11.2777 8.29215 11.2777 8.29215C11.3257 8.45415 11.3377 8.46615 11.3977 8.44815C11.4697 8.43015 11.4577 8.32815 11.3737 8.24415C11.3197 8.18415 11.3257 8.10615 11.3857 8.04615C11.4457 8.16015 11.5177 8.15415 11.5237 8.08215L11.4757 7.81815H12.5197L12.4657 8.07615C12.4537 8.14815 12.5497 8.16615 12.6097 8.04615C12.6697 8.10615 12.6757 8.19015 12.6217 8.24415C12.5377 8.32815 12.5257 8.43015 12.5977 8.44815C12.6577 8.46615 12.6697 8.44815 12.7177 8.29215C12.7177 8.29215 12.8077 8.38215 12.7777 8.49615C12.7417 8.55615 12.5797 8.79615 12.7417 8.84415C12.8197 8.84415 12.8137 8.77215 12.8437 8.59215C12.883 8.63387 12.9096 8.68603 12.9202 8.74239C12.9309 8.79875 12.9251 8.85695 12.9037 8.91015C12.8677 9.01815 12.7837 9.07815 12.7837 9.19815C12.7837 9.28815 12.8257 9.31815 12.8737 9.31815C12.9517 9.31815 12.9817 9.23415 13.0057 9.04815C13.0657 9.12615 13.0957 9.33615 13.0477 9.40815C12.9097 9.61215 12.8437 9.69615 12.8437 9.78015C12.8437 9.88215 12.9637 9.92415 13.0237 9.68415C13.0777 9.76815 13.0537 9.94815 13.0537 9.94815C13.0537 10.0682 12.8917 10.0802 12.8857 10.2482V10.5782H11.1097ZM11.5417 7.81815L11.5177 7.63215H12.4717L12.4477 7.81815H11.5417ZM11.6017 7.62615L11.5897 7.47615H12.3997L12.3817 7.62615H11.6017ZM11.7397 7.47015L11.7217 7.31415H12.2617L12.2557 7.47015H11.7397ZM13.7197 14.0702C13.5997 14.0282 13.4197 13.8962 13.4197 13.7702V12.3122L13.5757 12.1082H10.4197L10.5697 12.3122V13.7702C10.5697 13.8962 10.4497 14.0282 10.3297 14.0702H13.7197Z" fill="white" stroke="black" stroke-width="0.15"/>
<path d="M10.9719 12.7563H11.1879V13.7463H10.9719V12.7563ZM12.7959 12.7563H13.0119V13.7463H12.7959V12.7563Z" fill="white" stroke="black" stroke-width="0.15" stroke-linejoin="bevel"/>
<path d="M10.3591 10.4517V12.1077H13.5991V10.4517C13.5617 10.4653 13.5281 10.4877 13.5009 10.5169C13.4738 10.5461 13.454 10.5813 13.4431 10.6197V11.3277H10.5211V10.6197C10.5211 10.6197 10.4851 10.4997 10.3531 10.4517H10.3591Z" fill="white" stroke="black" stroke-width="0.15"/>
<path d="M13.1563 14.0703C13.0483 14.0283 12.8203 13.8963 12.8203 13.7703V12.1383C12.8443 12.0483 12.9643 11.9943 13.0423 11.9343H10.9003C11.0023 11.9943 11.1163 12.0363 11.1583 12.1383V13.7703C11.1583 13.8963 10.9783 14.0283 10.8703 14.0703H13.1563Z" fill="white" stroke="black" stroke-width="0.15"/>
<path d="M13.4439 11.9526V10.7766H13.1499V10.6626H10.8219V10.7826H10.5219V11.9526H13.4439ZM12.6999 14.0706C12.5919 14.0286 12.4419 13.8966 12.4419 13.7706V12.3786L12.5259 12.2526H11.4639L11.5539 12.3726V13.7706C11.5539 13.8966 11.3979 14.0286 11.2959 14.0706H12.6999Z" fill="white" stroke="black" stroke-width="0.15"/>
<path d="M11.7219 12.2515H12.2619V14.0695H11.7219V12.2515Z" fill="white" stroke="black" stroke-width="0.15"/>
<path d="M12.5429 11.8498C12.5429 11.7298 12.8909 11.7238 13.0709 11.6218H10.9109C11.0909 11.7238 11.4329 11.7298 11.4329 11.8498L11.5049 12.0838L12.4049 12.1198L12.5429 11.8498Z" fill="white" stroke="black" stroke-width="0.15" stroke-linejoin="bevel"/>
<path d="M12.9632 10.5779C12.9632 10.2839 12.9752 10.1759 13.0652 10.1759V11.0999C12.8432 11.1839 12.6872 11.4599 12.6872 11.4599H11.2952C11.2952 11.4599 11.1392 11.1839 10.9172 11.0999V10.1699C11.0252 10.1699 11.0252 10.2899 11.0252 10.5719L12.9632 10.5779ZM13.0652 10.4579C13.0652 10.1219 13.3592 10.0859 13.3592 10.0859V10.3859C13.2452 10.3799 13.1912 10.4819 13.1912 10.6259C13.1912 10.7759 13.2812 10.7759 13.2812 10.7759V11.6279H13.0652V10.4579Z" fill="white" stroke="black" stroke-width="0.15"/>
<path d="M10.9174 10.4579C10.9174 10.1219 10.6234 10.0859 10.6234 10.0859V10.3859C10.7374 10.3799 10.7914 10.4819 10.7914 10.6259C10.7914 10.7759 10.7014 10.7759 10.7014 10.7759V11.6279H10.9174V10.4579Z" fill="white" stroke="black" stroke-width="0.15"/>
<path d="M11.4877 8.13599H12.5197M11.3677 8.45999H12.6277M11.2477 8.84999H12.7417M11.1217 9.32403H12.8917M11.0797 9.86403H12.9037" stroke="black" stroke-width="0.12"/>
<path d="M10.5281 11.6406H13.4441M11.4521 11.6406H12.5321V12.0366H11.4521V11.6406Z" stroke="black" stroke-width="0.15"/>
<path d="M11.3203 10.7518C11.5003 10.9678 11.4763 11.3338 11.4763 11.5498H12.5203C12.5203 11.3338 12.4963 10.9678 12.6763 10.7518H11.3203ZM11.9023 8.29185L11.7583 8.21385V8.00385C11.8183 8.02185 11.8783 8.02785 11.8903 8.12385C11.9083 7.98585 11.9503 7.99785 12.0043 7.94385C12.0643 7.99785 12.0943 7.98585 12.1183 8.12385C12.1183 8.02785 12.1903 8.02185 12.2443 8.00385V8.21385L12.1063 8.28585L11.9023 8.29185Z" fill="white" stroke="black" stroke-width="0.15"/>
<path d="M11.89 8.63364L11.65 8.46564V8.27964C11.74 8.29764 11.83 8.30964 11.842 8.41164C11.866 8.26164 11.92 8.18964 12.004 8.12964C12.082 8.18964 12.136 8.26164 12.166 8.41164C12.172 8.30964 12.268 8.29764 12.346 8.27964V8.47164L12.112 8.63364H11.89Z" fill="white" stroke="black" stroke-width="0.15"/>
<path d="M11.8721 9.16905L11.6021 8.92905V8.64705C11.6981 8.67105 11.8061 8.68305 11.8181 8.83305C11.8481 8.62305 11.9081 8.50905 11.9981 8.42505C12.0941 8.50905 12.1541 8.62305 12.1901 8.83305C12.2021 8.68305 12.3101 8.67105 12.4061 8.64705V8.92905L12.1301 9.16905H11.8721ZM12.3761 9.48705L12.1361 9.82905H11.8541L11.6081 9.48705H12.3761ZM11.4641 10.057C11.5841 10.123 11.6321 10.261 11.6441 10.513H12.3401C12.3521 10.261 12.4001 10.123 12.5201 10.057H11.4641Z" fill="white" stroke="black" stroke-width="0.15"/>
<path d="M12.5315 9.48076V9.14476C12.4799 9.1558 12.4319 9.17972 12.392 9.21436C12.3521 9.249 12.3217 9.29316 12.3035 9.34276C12.3035 9.22276 12.1535 8.96476 11.9915 8.83276C11.8295 8.97676 11.6735 9.21676 11.6795 9.33676C11.6495 9.24676 11.5715 9.17476 11.4515 9.14476V9.48676L12.5315 9.48076Z" fill="white" stroke="black" stroke-width="0.15" stroke-linejoin="bevel"/>
<path d="M12.5791 10.0557V9.71971C12.4531 9.75571 12.3691 9.82171 12.3331 9.91771C12.3331 9.79771 12.1711 9.53971 11.9911 9.40771C11.8111 9.55771 11.6431 9.79171 11.6491 9.91771C11.6191 9.82771 11.5291 9.75571 11.4031 9.71971V10.0617L12.5791 10.0557Z" fill="white" stroke="black" stroke-width="0.15" stroke-linejoin="bevel"/>
<path d="M12.7231 10.7585V10.3625C12.5982 10.4015 12.4902 10.4819 12.4171 10.5905C12.4171 10.3805 12.1771 10.0505 11.9911 9.94849C11.7991 10.0565 11.5651 10.3925 11.5651 10.5905C11.4901 10.4812 11.38 10.4007 11.2531 10.3625V10.7585H12.7231Z" fill="white" stroke="black" stroke-width="0.15" stroke-linejoin="bevel"/>
<path d="M12.6397 11.6403V11.2323C12.4957 11.2863 12.4597 11.4183 12.4117 11.5143C12.4297 11.1003 12.1837 10.6623 11.9917 10.5483C11.7997 10.6623 11.5477 11.1123 11.5717 11.5083C11.5237 11.4243 11.4817 11.2863 11.3438 11.2323V11.6343L12.6397 11.6403Z" fill="white" stroke="black" stroke-width="0.15" stroke-linejoin="bevel"/>
<path d="M12.5431 12.2515V11.8435C12.3931 11.8795 12.3871 11.9335 12.3391 12.0235C12.3571 11.7775 12.1831 11.4955 11.9911 11.3875C11.7991 11.4955 11.6311 11.7775 11.6431 12.0235C11.5951 11.9335 11.5891 11.8795 11.4391 11.8435V12.2515H12.5431Z" fill="white" stroke="black" stroke-width="0.15"/>
<path d="M6.21979 13.753V12.529C6.17779 12.373 6.03979 12.229 5.94379 12.205V11.125L6.16579 11.245L6.42379 12.379V13.759L6.21979 13.753Z" fill="white" stroke="black" stroke-width="0.15"/>
<path d="M6.21979 13.7592V12.5292C6.17779 12.3732 6.03979 12.2292 5.94379 12.2052V11.0532C6.09379 11.0532 6.16579 11.2452 6.16579 11.2452L6.42379 12.3792V13.7532L6.21979 13.7592Z" fill="white" stroke="black" stroke-width="0.15"/>
<path d="M6.0578 14.0717C6.1598 14.0297 6.3098 13.8977 6.3098 13.7717V12.2357L6.2378 12.1157H8.8598L8.7578 12.2357V13.7717C8.7622 13.8353 8.7834 13.8966 8.81928 13.9493C8.85512 14.002 8.90428 14.0442 8.9618 14.0717H6.0578Z" fill="white" stroke="black" stroke-width="0.15"/>
<path d="M8.42765 14.0714C8.32565 14.0294 8.17565 13.8974 8.17565 13.7714V12.3134L8.39165 12.1094H6.61565L6.83165 12.3134V13.7714C6.83165 13.8974 6.68165 14.0294 6.57965 14.0714H8.42765Z" fill="white" stroke="black" stroke-width="0.15"/>
<path d="M8.18101 14.0712C8.07901 14.0292 7.92301 13.8972 7.92301 13.7712V12.4512L8.06701 12.2532H6.93901L7.08301 12.4512V13.7712C7.08301 13.8972 6.93301 14.0292 6.82501 14.0712H8.18101Z" fill="white" stroke="black" stroke-width="0.15"/>
<path d="M7.24038 12.2532H7.77438V14.0772H7.23438L7.24038 12.2532Z" fill="white" stroke="black" stroke-width="0.15"/>
<path d="M6.50161 12.757H6.71761V13.747H6.50161V12.757ZM8.34961 12.757H8.55961V13.747H8.34361L8.34961 12.757ZM6.31561 11.089H6.57961V12.109H6.31561V11.089ZM6.31561 10.897H6.57361V11.089H6.31561V10.897ZM8.45161 11.311H8.81761V12.091H8.45161V11.311Z" fill="white"/>
<path d="M6.31561 11.089H6.57961V12.109H6.31561V11.089ZM6.31561 11.089H6.57361V10.897H6.31561V11.089ZM6.50161 12.757H6.71761V13.747H6.50161V12.757ZM8.34961 12.757H8.55961V13.747H8.34361L8.34961 12.757ZM8.45161 11.311H8.81761V12.091H8.45161V11.311Z" stroke="black" stroke-width="0.15" stroke-linejoin="bevel"/>
<path d="M6.57336 12.0969V10.3569C6.64536 10.3569 6.65736 10.6149 6.82536 10.6149C6.91536 10.6149 6.90936 10.5069 6.85536 10.4229C6.81336 10.3449 6.75936 10.2429 6.83136 10.0449C6.88536 10.1949 7.01736 10.2429 6.99336 10.1529C6.95136 9.99087 6.82536 9.96088 6.92136 9.71488C6.95136 9.91888 7.08336 9.91287 7.05336 9.79287C7.01736 9.65487 6.93936 9.59487 7.03536 9.40287C7.08936 9.62487 7.15536 9.61287 7.15536 9.47487C7.15536 9.27087 7.15536 9.05487 7.40736 8.97687C7.40736 8.97687 7.42536 8.79688 7.52136 8.79688C7.61136 8.79688 7.62936 8.97687 7.62936 8.97687C7.88736 9.05487 7.88136 9.27687 7.88136 9.47487C7.88136 9.61287 7.94736 9.62487 8.00136 9.40287C8.09736 9.59487 8.01936 9.65487 7.98336 9.79287C7.95336 9.91287 8.08536 9.91888 8.11536 9.71488C8.21136 9.96088 8.08536 9.99087 8.04336 10.1529C8.01936 10.2429 8.15136 10.1949 8.20536 10.0449C8.27736 10.2429 8.22336 10.3449 8.18136 10.4229C8.13336 10.5069 8.12136 10.6149 8.21136 10.6149C8.37936 10.6149 8.39136 10.3629 8.46336 10.3629V12.0969H6.57336ZM6.15936 10.7829V12.1089H6.30936V10.7829C6.25536 10.7529 6.20736 10.7529 6.15936 10.7829Z" fill="white" stroke="black" stroke-width="0.15"/>
<path d="M6.17188 11.6416C6.35787 11.7376 6.54387 11.8516 6.59187 12.1096H6.17188V11.6416ZM8.76387 11.2456V12.1096H8.88388V11.2456C8.84788 11.2276 8.79387 11.2216 8.76387 11.2456Z" fill="white" stroke="black" stroke-width="0.15"/>
<path d="M8.88432 11.6411C8.69832 11.7311 8.51232 11.8391 8.46432 12.1031H8.88432V11.6411ZM7.64832 9.61906L7.75632 9.52906V9.40906C7.72032 9.40906 7.69632 9.42706 7.66632 9.46906C7.65468 9.4305 7.6354 9.3947 7.6096 9.36378C7.58384 9.33286 7.55212 9.30746 7.51632 9.28906C7.48 9.30614 7.44748 9.33034 7.42068 9.36022C7.39388 9.3901 7.37336 9.42506 7.36032 9.46306C7.33032 9.42106 7.31232 9.41506 7.27032 9.40306V9.52306L7.37832 9.61906H7.64832Z" fill="white" stroke="black" stroke-width="0.15"/>
<path d="M7.70832 9.91208L7.75632 9.79808V9.64808C7.72032 9.64808 7.69632 9.66608 7.66632 9.70808C7.65468 9.66956 7.6354 9.63376 7.6096 9.60284C7.58384 9.57192 7.55212 9.54648 7.51632 9.52808C7.48 9.54516 7.44748 9.5694 7.42068 9.59928C7.39388 9.62916 7.37336 9.66412 7.36032 9.70208C7.33032 9.66008 7.31232 9.65408 7.27032 9.64808V9.79808L7.31832 9.91208H7.70832Z" fill="white" stroke="black" stroke-width="0.15"/>
<path d="M7.72002 10.3096L7.87602 10.1116V9.9196C7.81602 9.9196 7.78602 9.9496 7.74402 10.0156C7.70202 9.8776 7.62402 9.8536 7.51602 9.7876C7.40202 9.8476 7.32402 9.8776 7.28802 10.0096C7.24002 9.9436 7.21002 9.9256 7.15002 9.9196V10.1116L7.31202 10.3096H7.72002Z" fill="white" stroke="black" stroke-width="0.15"/>
<path d="M7.76161 10.6995C7.76161 10.6995 7.95361 10.5375 7.95961 10.4475V10.2375C7.88761 10.2435 7.82161 10.2615 7.76761 10.3515C7.71961 10.1775 7.64761 10.1295 7.51561 10.0515C7.37761 10.1295 7.30561 10.1775 7.26361 10.3515C7.20361 10.2615 7.14361 10.2435 7.06561 10.2315V10.4475C7.11597 10.5427 7.18305 10.628 7.26361 10.6995H7.76161Z" fill="white" stroke="black" stroke-width="0.15"/>
<path d="M7.83988 11.4187C7.83988 11.4187 8.10387 11.1367 8.10987 11.0227V10.6987C8.01387 10.7107 7.91787 10.7767 7.84587 10.9147C7.78587 10.6447 7.68987 10.4587 7.51587 10.3267C7.33587 10.4587 7.23987 10.6447 7.17987 10.9147C7.10787 10.7767 7.01788 10.7107 6.92188 10.6987V11.0227C6.93988 11.1367 7.18587 11.4187 7.18587 11.4187H7.83988Z" fill="white" stroke="black" stroke-width="0.15"/>
<path d="M7.83988 11.8448C7.83988 11.8448 8.06187 11.6228 8.10987 11.5268V11.2028C8.01387 11.2148 7.91787 11.2808 7.84587 11.4128C7.82983 11.3037 7.79239 11.1987 7.73579 11.104C7.67915 11.0093 7.60443 10.9267 7.51587 10.8608C7.33587 10.9928 7.23987 11.1428 7.17987 11.4128C7.10787 11.2808 7.01788 11.2148 6.92188 11.2028V11.5268C6.98188 11.6228 7.18587 11.8448 7.18587 11.8448H7.83988Z" fill="white" stroke="black" stroke-width="0.15"/>
<path d="M7.9299 12.0973C7.8699 11.8153 7.8099 11.6053 7.5039 11.3953C7.1919 11.6053 7.1379 11.8153 7.0719 12.0973H7.9299Z" fill="white" stroke="black" stroke-width="0.15"/>
<path d="M8.09187 12.2528V11.8448C7.94787 11.9048 7.82187 11.9828 7.77387 12.0728C7.72587 11.8448 7.62387 11.7488 7.49787 11.6108C7.37187 11.7488 7.28787 11.8508 7.23387 12.0728C7.18587 11.9828 7.05987 11.8988 6.92188 11.8448V12.2528H8.09187Z" fill="white" stroke="black" stroke-width="0.15"/>
<path d="M17.7818 13.753V12.529C17.8238 12.373 17.9618 12.229 18.0578 12.205V11.125L17.8358 11.245L17.5778 12.379V13.759L17.7818 13.753Z" fill="white" stroke="black" stroke-width="0.15"/>
<path d="M17.7818 13.7592V12.5292C17.8238 12.3732 17.9618 12.2292 18.0578 12.2052V11.0532C17.9078 11.0532 17.8358 11.2452 17.8358 11.2452L17.5778 12.3792V13.7532L17.7818 13.7592Z" fill="white" stroke="black" stroke-width="0.15"/>
<path d="M17.9437 14.0717C17.8417 14.0297 17.6917 13.8977 17.6917 13.7717V12.2357L17.7637 12.1157H15.1417L15.2437 12.2357V13.7717C15.2393 13.8353 15.2181 13.8966 15.1823 13.9493C15.1465 14.002 15.0973 14.0442 15.0397 14.0717H17.9437Z" fill="white" stroke="black" stroke-width="0.15"/>
<path d="M15.5739 14.0714C15.6759 14.0294 15.8259 13.8974 15.8259 13.7714V12.3134L15.6099 12.1094H17.3859L17.1699 12.3134V13.7714C17.1699 13.8974 17.3199 14.0294 17.4219 14.0714H15.5739Z" fill="white" stroke="black" stroke-width="0.15"/>
<path d="M15.8206 14.0712C15.9226 14.0292 16.0786 13.8972 16.0786 13.7712V12.4512L15.9346 12.2532H17.0626L16.9186 12.4512V13.7712C16.9186 13.8972 17.0686 14.0292 17.1766 14.0712H15.8206Z" fill="white" stroke="black" stroke-width="0.15"/>
<path d="M16.7612 12.2532H16.2272V14.0772H16.7672L16.7612 12.2532Z" fill="white" stroke="black" stroke-width="0.15"/>
<path d="M17.4999 12.757H17.2839V13.747H17.4999V12.757ZM15.6519 12.757H15.4419V13.747H15.6579L15.6519 12.757ZM17.6859 11.089H17.4219V12.109H17.6859V11.089ZM17.6859 10.897H17.4279V11.089H17.6859V10.897ZM15.5499 11.311H15.1839V12.091H15.5499V11.311Z" fill="white"/>
<path d="M17.6859 11.089H17.4219V12.109H17.6859V11.089ZM17.6859 11.089H17.4279V10.897H17.6859V11.089ZM17.4999 12.757H17.2839V13.747H17.4999V12.757ZM15.6519 12.757H15.4419V13.747H15.6579L15.6519 12.757ZM15.5499 11.311H15.1839V12.091H15.5499V11.311Z" stroke="black" stroke-width="0.15" stroke-linejoin="bevel"/>
<path d="M17.4282 12.0969V10.3569C17.3562 10.3569 17.3442 10.6149 17.1762 10.6149C17.0862 10.6149 17.0922 10.5069 17.1462 10.4229C17.1882 10.3449 17.2422 10.2429 17.1702 10.0449C17.1162 10.1949 16.9842 10.2429 17.0082 10.1529C17.0502 9.99087 17.1762 9.96088 17.0802 9.71488C17.0502 9.91888 16.9182 9.91287 16.9482 9.79287C16.9842 9.65487 17.0622 9.59487 16.9662 9.40287C16.9122 9.62487 16.8462 9.61287 16.8462 9.47487C16.8462 9.27087 16.8462 9.05487 16.5942 8.97687C16.5942 8.97687 16.5762 8.79688 16.4802 8.79688C16.3902 8.79688 16.3722 8.97687 16.3722 8.97687C16.1142 9.05487 16.1202 9.27687 16.1202 9.47487C16.1202 9.61287 16.0542 9.62487 16.0002 9.40287C15.9042 9.59487 15.9822 9.65487 16.0182 9.79287C16.0482 9.91287 15.9162 9.91888 15.8862 9.71488C15.7902 9.96088 15.9162 9.99087 15.9582 10.1529C15.9822 10.2429 15.8502 10.1949 15.7962 10.0449C15.7242 10.2429 15.7782 10.3449 15.8202 10.4229C15.8682 10.5069 15.8802 10.6149 15.7902 10.6149C15.6222 10.6149 15.6102 10.3629 15.5382 10.3629V12.0969H17.4282ZM17.8422 10.7829V12.1089H17.6922V10.7829C17.7462 10.7529 17.7942 10.7529 17.8422 10.7829Z" fill="white" stroke="black" stroke-width="0.15"/>
<path d="M17.8297 11.6416C17.6437 11.7376 17.4577 11.8516 17.4097 12.1096H17.8297V11.6416ZM15.2377 11.2456V12.1096H15.1177V11.2456C15.1537 11.2276 15.2077 11.2216 15.2377 11.2456Z" fill="white" stroke="black" stroke-width="0.15"/>
<path d="M15.1172 11.6411C15.3032 11.7311 15.4892 11.8391 15.5372 12.1031H15.1172V11.6411ZM16.3532 9.61906L16.2452 9.52906V9.40906C16.2812 9.40906 16.3052 9.42706 16.3352 9.46906C16.3469 9.4305 16.3662 9.3947 16.392 9.36378C16.4177 9.33286 16.4494 9.30746 16.4852 9.28906C16.5216 9.30614 16.5541 9.33034 16.5809 9.36022C16.6077 9.3901 16.6282 9.42506 16.6412 9.46306C16.6712 9.42106 16.6892 9.41506 16.7312 9.40306V9.52306L16.6232 9.61906H16.3532Z" fill="white" stroke="black" stroke-width="0.15"/>
<path d="M16.2932 9.91208L16.2452 9.79808V9.64808C16.2812 9.64808 16.3052 9.66608 16.3352 9.70808C16.3469 9.66956 16.3662 9.63376 16.392 9.60284C16.4177 9.57192 16.4494 9.54648 16.4852 9.52808C16.5216 9.54516 16.5541 9.5694 16.5809 9.59928C16.6077 9.62916 16.6282 9.66412 16.6412 9.70208C16.6712 9.66008 16.6892 9.65408 16.7312 9.64808V9.79808L16.6832 9.91208H16.2932Z" fill="white" stroke="black" stroke-width="0.15"/>
<path d="M16.2815 10.3096L16.1255 10.1116V9.9196C16.1855 9.9196 16.2156 9.9496 16.2576 10.0156C16.2996 9.8776 16.3775 9.8536 16.4855 9.7876C16.5995 9.8476 16.6775 9.8776 16.7135 10.0096C16.7615 9.9436 16.7915 9.9256 16.8515 9.9196V10.1116L16.6895 10.3096H16.2815Z" fill="white" stroke="black" stroke-width="0.15"/>
<path d="M16.2399 10.6995C16.2399 10.6995 16.0479 10.5375 16.0419 10.4475V10.2375C16.1139 10.2435 16.1799 10.2615 16.2339 10.3515C16.2819 10.1775 16.3539 10.1295 16.4859 10.0515C16.6239 10.1295 16.6959 10.1775 16.7379 10.3515C16.7979 10.2615 16.8579 10.2435 16.9359 10.2315V10.4475C16.8856 10.5427 16.8185 10.628 16.7379 10.6995H16.2399Z" fill="white" stroke="black" stroke-width="0.15"/>
<path d="M16.1617 11.4187C16.1617 11.4187 15.8977 11.1367 15.8917 11.0227V10.6987C15.9877 10.7107 16.0837 10.7767 16.1557 10.9147C16.2157 10.6447 16.3117 10.4587 16.4857 10.3267C16.6657 10.4587 16.7617 10.6447 16.8217 10.9147C16.8937 10.7767 16.9837 10.7107 17.0797 10.6987V11.0227C17.0617 11.1367 16.8157 11.4187 16.8157 11.4187H16.1617Z" fill="white" stroke="black" stroke-width="0.15"/>
<path d="M16.1617 11.8448C16.1617 11.8448 15.9397 11.6228 15.8917 11.5268V11.2028C15.9877 11.2148 16.0837 11.2808 16.1557 11.4128C16.1717 11.3037 16.2091 11.1987 16.2657 11.104C16.3224 11.0093 16.3971 10.9267 16.4857 10.8608C16.6657 10.9928 16.7617 11.1428 16.8217 11.4128C16.8937 11.2808 16.9837 11.2148 17.0797 11.2028V11.5268C17.0197 11.6228 16.8157 11.8448 16.8157 11.8448H16.1617Z" fill="white" stroke="black" stroke-width="0.15"/>
<path d="M16.0717 12.0973C16.1317 11.8153 16.1917 11.6053 16.4977 11.3953C16.8097 11.6053 16.8637 11.8153 16.9297 12.0973H16.0717Z" fill="white" stroke="black" stroke-width="0.15"/>
<path d="M15.9097 12.2528V11.8448C16.0537 11.9048 16.1797 11.9828 16.2277 12.0728C16.2757 11.8448 16.3777 11.7488 16.5037 11.6108C16.6297 11.7488 16.7137 11.8508 16.7677 12.0728C16.8157 11.9828 16.9417 11.8988 17.0797 11.8448V12.2528H15.9097Z" fill="white" stroke="black" stroke-width="0.15"/>
<path d="M4.64159 15.5577H19.3596V16.3077H4.64159V15.5577ZM4.25159 16.3077H19.7496V17.0577H4.25159V16.3077ZM5.41559 14.4297H18.5796V14.9157H5.41559V14.4297Z" fill="white" stroke="black" stroke-width="0.15"/>
<path d="M5.03125 14.9159H18.9753V15.5519H5.03125V14.9159ZM5.64325 14.0579H18.3633V14.4299H5.64325V14.0579Z" fill="white" stroke="black" stroke-width="0.15"/>
<path d="M7.02344 14.0579H7.98344V17.0579H7.02344V14.0579Z" fill="white" stroke="black" stroke-width="0.15"/>
<path d="M7.23879 14.0579H7.77279V17.0579H7.23279L7.23879 14.0579ZM11.4988 14.0579H12.4588V17.0579H11.4988V14.0579Z" fill="white" stroke="black" stroke-width="0.15"/>
<path d="M11.7219 14.0579H12.2619V17.0579H11.7219V14.0579ZM16.0119 14.0579H16.9719V17.0579H16.0119V14.0579Z" fill="white" stroke="black" stroke-width="0.15"/>
<path d="M16.2219 14.0579H16.7619V17.0579H16.2219V14.0579Z" fill="white" stroke="black" stroke-width="0.15"/>
<path d="M6.22034 13.7515H17.8003M7.22834 16.6795H7.78034M7.22834 16.3015H7.78034M7.22834 15.9295H7.78034M7.22834 15.5515H7.78034M7.22834 15.1795H7.78034M7.22834 14.8015H7.78034M7.22834 14.4295H7.78034M11.7283 16.6795H12.2443M11.7283 16.3015H12.2443M11.7283 15.9295H12.2443M11.7283 15.5515H12.2443M11.7283 15.1795H12.2443M11.7283 14.8015H12.2443M11.7283 14.4295H12.2443M16.2163 16.6795H16.7683M16.2163 16.3015H16.7683M16.2163 15.9295H16.7683M16.2163 15.5515H16.7683M16.2163 15.1795H16.7683M16.2163 14.8015H16.7683M16.2163 14.4295H16.7683" stroke="black" stroke-width="0.15"/>
</g>
</g>
</g>
<defs>
<clipPath id="clip0_69_3594">
<rect width="24" height="24" rx="12" fill="white"/>
</clipPath>
<clipPath id="clip1_69_3594">
<rect width="32" height="24" fill="white" transform="translate(-4)"/>
</clipPath>
</defs>
</svg>
