<svg width="24" height="24" viewBox="0 0 24 24" fill="none" xmlns="http://www.w3.org/2000/svg">
<g clip-path="url(#clip0_69_8095)">
<g clip-path="url(#clip1_69_8095)">
<mask id="mask0_69_8095" style="mask-type:luminance" maskUnits="userSpaceOnUse" x="-4" y="0" width="32" height="24">
<path d="M28 0H-4V24H28V0Z" fill="white"/>
</mask>
<g mask="url(#mask0_69_8095)">
<mask id="mask1_69_8095" style="mask-type:luminance" maskUnits="userSpaceOnUse" x="-4" y="0" width="33" height="24">
<path d="M-3.9953 0H28.0016V24H-3.9953V0Z" fill="white"/>
</mask>
<g mask="url(#mask1_69_8095)">
<path fill-rule="evenodd" clip-rule="evenodd" d="M-7.65155 0H31.5266V14.3672H-7.65155V0Z" fill="#E73E2D"/>
<path fill-rule="evenodd" clip-rule="evenodd" d="M9.62658 13.2235C8.71722 12.511 7.02035 12.7548 6.73911 10.8188C8.03755 11.8266 7.80314 10.7626 9.7391 11.7235L9.62658 13.2235Z" fill="#FEC74A" stroke="#D8AA3F" stroke-width="0.199219"/>
<path fill-rule="evenodd" clip-rule="evenodd" d="M9.86995 12.3468C9.21839 11.3905 7.52619 11.0999 7.85431 9.17334C8.78711 10.528 8.88555 9.44054 10.4418 10.9499L9.86995 12.3468Z" fill="#FEC74A" stroke="#D8AA3F" stroke-width="0.199219"/>
<path fill-rule="evenodd" clip-rule="evenodd" d="M10.165 11.7187C9.93061 10.5891 8.47749 9.67498 9.51809 8.01562C9.85561 9.62811 10.3618 8.66246 11.2244 10.65L10.165 11.7187Z" fill="#FEC74A" stroke="#D8AA3F" stroke-width="0.199219"/>
<path fill-rule="evenodd" clip-rule="evenodd" d="M10.8449 11.1374C10.9715 9.98897 9.8699 8.67177 11.3652 7.41553C11.1965 9.05145 11.9746 8.29209 12.1855 10.4436L10.8449 11.1374Z" fill="#FEC74A" stroke="#D8AA3F" stroke-width="0.199219"/>
<path fill-rule="evenodd" clip-rule="evenodd" d="M11.4547 10.6735C12.036 9.67508 11.5719 8.02508 13.4516 7.49072C12.6266 8.911 13.6485 8.536 12.9594 10.5844L11.4547 10.6735Z" fill="#FEC74A" stroke="#D8AA3F" stroke-width="0.199219"/>
<path fill-rule="evenodd" clip-rule="evenodd" d="M12.3313 10.7955C13.2031 10.0362 13.2875 8.32051 15.2375 8.40959C14.0047 9.49707 15.0969 9.46427 13.7844 11.194L12.3313 10.7955Z" fill="#FEC74A" stroke="#D8AA3F" stroke-width="0.199219"/>
<path fill-rule="evenodd" clip-rule="evenodd" d="M13.1094 11.2454C14.1641 10.772 14.7453 9.15947 16.5828 9.81575C15.0828 10.4954 16.1375 10.7861 14.3797 12.0517L13.1094 11.2454Z" fill="#FEC74A" stroke="#D8AA3F" stroke-width="0.199219"/>
<path fill-rule="evenodd" clip-rule="evenodd" d="M13.7609 11.9526C14.9047 11.7932 15.9172 10.4058 17.4969 11.5589C15.8703 11.7886 16.7938 12.3604 14.7547 13.0823L13.7609 11.9479V11.9526Z" fill="#FEC74A" stroke="#D8AA3F" stroke-width="0.199219"/>
<path fill-rule="evenodd" clip-rule="evenodd" d="M17.8391 12.1687L12.5844 12.2859L12.8047 13.7015L17.8391 12.1687Z" fill="#FEC74A" stroke="#D8AA3F" stroke-width="0.199219"/>
<path fill-rule="evenodd" clip-rule="evenodd" d="M17.0657 10.2375L12.2 12.1078L13.0109 13.6688L17.0657 10.2375Z" fill="#FEC74A" stroke="#D8AA3F" stroke-width="0.199219"/>
<path fill-rule="evenodd" clip-rule="evenodd" d="M13.2031 13.1578L15.7203 8.58276L11.8578 12.1781L13.2031 13.1578Z" fill="#FEC74A" stroke="#D8AA3F" stroke-width="0.199219"/>
<path fill-rule="evenodd" clip-rule="evenodd" d="M13.1516 12.778L13.9578 7.6499L11.4359 12.2061L13.1516 12.778Z" fill="#FEC74A" stroke="#D8AA3F" stroke-width="0.199219"/>
<path fill-rule="evenodd" clip-rule="evenodd" d="M12.8469 12.3609L12.0031 7.19531L11.0656 12.3844L12.8469 12.3609Z" fill="#FEC74A" stroke="#D8AA3F" stroke-width="0.199219"/>
<path fill-rule="evenodd" clip-rule="evenodd" d="M12.4109 11.9204L9.95938 7.60791L10.8969 12.8486L12.4109 11.9204Z" fill="#FEC74A" stroke="#D8AA3F" stroke-width="0.199219"/>
<path fill-rule="evenodd" clip-rule="evenodd" d="M12.0313 11.8875L8.22971 8.67651L10.9297 13.2703L12.0313 11.8875Z" fill="#FEC74A" stroke="#D8AA3F" stroke-width="0.199219"/>
<path fill-rule="evenodd" clip-rule="evenodd" d="M6.89377 10.261L10.9719 13.6313L11.6 11.8688L6.89377 10.261Z" fill="#FEC74A" stroke="#D8AA3F" stroke-width="0.199219"/>
<path fill-rule="evenodd" clip-rule="evenodd" d="M10.9297 12.2297L6.13437 12.1594L10.9109 13.7532L10.9297 12.2297Z" fill="#FEC74A" stroke="#D8AA3F" stroke-width="0.199219"/>
<path fill-rule="evenodd" clip-rule="evenodd" d="M14.8195 13.087C14.8352 13.4744 14.7724 13.861 14.6349 14.2235C14.4975 14.5861 14.2881 14.9171 14.0196 15.1968C13.751 15.4764 13.4287 15.6989 13.0719 15.8509C12.7153 16.0029 12.3315 16.0812 11.9438 16.0812C11.556 16.0812 11.1723 16.0029 10.8156 15.8509C10.4589 15.6989 10.1366 15.4764 9.86799 15.1968C9.59939 14.9171 9.39011 14.5861 9.25263 14.2235C9.11515 13.861 9.05235 13.4744 9.06799 13.087C9.09799 12.3444 9.41407 11.6421 9.95011 11.1273C10.4861 10.6125 11.2005 10.325 11.9438 10.325C12.687 10.325 13.4014 10.6125 13.9374 11.1273C14.4735 11.6421 14.7896 12.3444 14.8195 13.087Z" fill="#FEC74A" stroke="#D8AA3F" stroke-width="0.199219"/>
<path fill-rule="evenodd" clip-rule="evenodd" d="M-7.68904 14.2219H31.6813V24H-7.69373L-7.68904 14.2219Z" fill="#005989"/>
<path fill-rule="evenodd" clip-rule="evenodd" d="M-7.71248 21.2814C-6.98124 21.6189 -5.93123 22.4673 -4.80623 22.4673C-2.93123 22.4532 -2.88436 21.1829 -0.981232 21.2439C0.926577 21.2908 0.579696 22.6314 3.15314 22.6267C5.28126 22.6173 5.96566 21.0001 7.80314 21.1923C9.1625 21.122 9.71566 22.7251 11.8016 22.7486C13.9672 22.7954 14.7594 21.0001 16.1141 21.1501C17.5672 21.1501 18.0359 22.5939 20.0657 22.6032C22.6531 22.6173 23.1078 21.1032 24.7203 21.197C25.8735 21.1736 26.7828 22.3079 28.4703 22.336C29.8109 22.3595 30.9407 21.3423 31.7047 20.9767L31.7375 19.2517C30.9407 19.547 29.75 20.522 28.5641 20.5314C26.8485 20.597 25.7938 19.4064 24.6031 19.4204C23.1781 19.4345 22.6109 20.8876 20.1969 20.8876C17.9844 20.8876 17.4781 19.4204 16.0531 19.4204C14.6609 19.4298 14.2344 21.0142 11.8203 20.986C9.85158 20.9626 9.08754 19.472 7.69534 19.486C6.21878 19.486 4.69534 20.9345 3.0547 20.8642C0.804697 20.7704 0.312537 19.486 -1.16405 19.486C-2.26561 19.486 -3.46092 20.686 -4.78748 20.7048C-6.10936 20.7282 -7.5953 19.5095 -7.73123 19.486L-7.71248 21.2814ZM-7.71248 17.8595C-6.98124 18.2017 -5.93123 19.0501 -4.80623 19.0501C-2.93123 19.036 -2.88436 17.7658 -0.981232 17.822C0.926577 17.8689 0.579696 19.2142 3.15314 19.2048C5.28126 19.2048 5.96566 17.5829 7.80314 17.7751C9.1625 17.7048 9.71566 19.3079 11.8016 19.3267C13.9672 19.3736 14.7594 17.5829 16.1141 17.7329C17.5672 17.7329 18.0359 19.1767 20.0657 19.186C22.6531 19.2001 23.1078 17.686 24.7203 17.7798C25.8735 17.7564 26.7828 18.8908 28.4703 18.9189C29.8109 18.9423 30.9407 17.9251 31.7047 17.5595L31.7375 15.8345C30.9407 16.1298 29.75 17.1001 28.5641 17.1142C26.8485 17.1751 25.7938 15.9892 24.6031 16.0032C23.1781 16.0173 22.6109 17.4704 20.1969 17.4704C17.9844 17.4704 17.4781 16.0032 16.0531 16.0032C14.6609 16.0126 14.2344 17.597 11.8203 17.5689C9.85158 17.5454 9.08754 16.0548 7.69534 16.0689C6.21878 16.0689 4.69534 17.5126 3.0547 17.4423C0.804697 17.3486 0.312537 16.0642 -1.16405 16.0642C-2.26561 16.0642 -3.46092 17.2689 -4.78748 17.2876C-6.10936 17.3064 -7.5953 16.0923 -7.73123 16.0689L-7.71248 17.8642V17.8595Z" fill="white"/>
<path fill-rule="evenodd" clip-rule="evenodd" d="M-7.71248 14.4843C-6.98124 14.8218 -5.93123 15.6656 -4.81092 15.6656C-2.93592 15.6562 -2.88905 14.3812 -0.985919 14.4422C0.917217 14.489 0.570336 15.8296 3.14378 15.825C5.26722 15.8203 5.95626 14.1984 7.78438 14.3953C9.14378 14.325 9.6969 15.9281 11.7828 15.9468C13.9438 15.9937 14.7359 14.1984 16.0953 14.3484C17.5391 14.3484 18.0172 15.7922 20.0422 15.8015C22.6203 15.8156 23.075 14.3015 24.6922 14.3953C25.8407 14.3718 26.75 15.5062 28.4328 15.5343C29.7781 15.5578 30.9031 14.5406 31.6672 14.175L31.7 12.45C30.9031 12.75 29.7172 13.7203 28.5266 13.7296C26.8203 13.7953 25.7609 12.6093 24.5703 12.6187C23.15 12.6328 22.5828 14.0859 20.1641 14.0859C17.9609 14.0859 17.4547 12.6187 16.0297 12.6187C14.6375 12.6328 14.2109 14.2125 11.8063 14.1843C9.8375 14.1609 9.07346 12.675 7.68126 12.6843C6.2047 12.6843 4.68126 14.1328 3.05002 14.0624C0.795337 13.9687 0.307817 12.6843 -1.16874 12.6843C-2.2703 12.6843 -3.46092 13.8843 -4.78748 13.9031C-6.10936 13.9265 -7.59061 12.7125 -7.73123 12.6843L-7.71248 14.4796V14.4843Z" fill="white"/>
<path fill-rule="evenodd" clip-rule="evenodd" d="M6.46249 3.56245C9.32189 3.36557 8.80625 3.12183 9.95469 2.93433C11.4078 3.13589 11.5719 4.01243 12.3828 4.55151C12.3828 4.55151 12.0781 5.58275 11.0844 5.43747C10.9485 5.02495 11.5625 4.89371 9.79533 3.81557C8.76409 3.75464 6.92189 3.99839 6.46721 3.56245H6.46249ZM15.3359 5.15151L13.2735 5.23587V5.74683C14.6657 5.79371 14.9141 5.60619 15.3359 5.15151Z" fill="#FFC84B" stroke="#D8AA3F" stroke-width="0.210938"/>
<path fill-rule="evenodd" clip-rule="evenodd" d="M8.24377 5.06288C8.60469 4.88008 8.78281 4.95508 9.09689 4.94568C9.30781 5.33476 9.50937 5.36756 9.97813 5.41444C10.1855 5.72184 10.4636 5.97504 10.789 6.1528C11.1145 6.3306 11.4777 6.42784 11.8485 6.43632C13.25 6.3988 13.6953 5.41912 14.6375 5.31132H15.6313C15.4672 5.03008 15.3359 4.866 14.975 4.84724C14.2344 4.80976 13.2781 4.82848 12.4438 5.016L11.2672 5.31132C10.9203 5.14256 10.0813 4.26132 9.54221 4.28008C9.22813 4.36444 9.22814 4.47224 9.07346 4.59412C8.76878 4.72536 8.46409 4.65976 8.24377 5.06288Z" fill="#FFC84B" stroke="#D8AA3F" stroke-width="0.199219" stroke-linejoin="round"/>
<path fill-rule="evenodd" clip-rule="evenodd" d="M9.66331 4.64065C9.66719 4.66225 9.66627 4.68445 9.66063 4.70565C9.65499 4.72681 9.64475 4.74653 9.63067 4.76337C9.61659 4.78017 9.59899 4.79369 9.57915 4.80297C9.55927 4.81225 9.53759 4.81709 9.51567 4.81709C9.49371 4.81709 9.47207 4.81225 9.45219 4.80297C9.43231 4.79369 9.41471 4.78017 9.40063 4.76337C9.38655 4.74653 9.37635 4.72681 9.37071 4.70565C9.36507 4.68445 9.36415 4.66225 9.36799 4.64065C9.37419 4.60601 9.39239 4.57465 9.41939 4.55205C9.44639 4.52945 9.48047 4.51709 9.51567 4.51709C9.55087 4.51709 9.58495 4.52945 9.61195 4.55205C9.63891 4.57465 9.65711 4.60601 9.66331 4.64065Z" fill="#FFC84B" stroke="#D8AA3F" stroke-width="0.199219"/>
<path fill-rule="evenodd" clip-rule="evenodd" d="M10.6254 5.05307C12.7301 2.51714 14.5676 2.82652 16.9676 2.65308C17.0473 2.94839 17.0145 3.38902 15.8754 3.77808C14.3098 4.01243 11.5113 5.66247 11.4973 5.66247C10.977 5.63431 10.6113 5.09059 10.6254 5.05307Z" fill="#FFC84B" stroke="#D8AA3F" stroke-width="0.210938"/>
<path d="M14.9516 3.39844L16.5031 3.46875M14.7828 3.65625L15.9125 3.75" stroke="#D9A43E" stroke-width="0.210938" stroke-linecap="round"/>
</g>
</g>
</g>
</g>
<defs>
<clipPath id="clip0_69_8095">
<rect width="24" height="24" rx="12" fill="white"/>
</clipPath>
<clipPath id="clip1_69_8095">
<rect width="32" height="24" fill="white" transform="translate(-4)"/>
</clipPath>
</defs>
</svg>
