<svg width="24" height="24" viewBox="0 0 24 24" fill="none" xmlns="http://www.w3.org/2000/svg">
<g clip-path="url(#clip0_69_10498)">
<path fill-rule="evenodd" clip-rule="evenodd" d="M-2.70236 2.00806H26.6864V22.3802H-2.70236V2.00806Z" fill="#FFE900"/>
<path fill-rule="evenodd" clip-rule="evenodd" d="M-2.71829 2.00805L-2.68642 16.6945L20.1839 2.00008L8.7328 -5.24927L-2.71829 2.00805Z" fill="#35A100"/>
<path fill-rule="evenodd" clip-rule="evenodd" d="M26.721 22.3802L26.6652 7.11206L3.59561 22.3921L15.1583 28.7862L26.721 22.3802Z" fill="#C70000"/>
<path fill-rule="evenodd" clip-rule="evenodd" d="M-2.70767 17.8021L-2.68775 22.4001L2.30468 22.3921L26.6771 6.05221L26.6532 2.05587L21.7205 2.00806L-2.70369 17.8021H-2.70767Z" fill="black"/>
<path fill-rule="evenodd" clip-rule="evenodd" d="M16.7494 8.23954L16.3589 6.55811L17.6857 7.6339L19.1998 6.65375L18.5065 8.29928L19.8373 9.37507L18.0762 9.3153L17.3869 10.9609L16.9924 9.27947L15.2353 9.21969L16.7494 8.23954ZM5.78438 15.3716L5.38991 13.6862L6.7167 14.762L8.23078 13.7818L7.53749 15.4273L8.86828 16.5031L7.11116 16.4434L6.41787 18.0889L6.02741 16.4075L4.27029 16.3477L5.78438 15.3716Z" fill="white"/>
</g>
<defs>
<clipPath id="clip0_69_10498">
<rect width="24" height="24" rx="12" fill="white"/>
</clipPath>
</defs>
</svg>
