<svg width="24" height="24" viewBox="0 0 24 24" fill="none" xmlns="http://www.w3.org/2000/svg">
<g clip-path="url(#clip0_69_11412)">
<path fill-rule="evenodd" clip-rule="evenodd" d="M0 -0.399902H24V24.0001H0V-0.399902Z" fill="white"/>
<path fill-rule="evenodd" clip-rule="evenodd" d="M2.6297 8.26822L5.1265 4.52441L5.75047 4.94055L3.25366 8.68435L2.6297 8.26822ZM3.56566 8.8924L6.06244 5.14861L6.68641 5.56475L4.1896 9.30853L3.56566 8.8924ZM4.5016 9.51661L6.99841 5.77281L7.62235 6.18895L5.12557 9.93274L4.5016 9.51661Z" fill="black"/>
<path fill-rule="evenodd" clip-rule="evenodd" d="M16.357 17.4227L18.8538 13.679L19.4778 14.0951L16.981 17.8389L16.357 17.4227ZM17.293 18.047L19.7898 14.3031L20.4137 14.7193L17.917 18.4631L17.293 18.047ZM18.2289 18.6711L20.7257 14.9273L21.3497 15.3435L18.8529 19.0873L18.2289 18.6711Z" fill="black"/>
<path d="M17.2922 15.3428L20.412 17.4235" stroke="white" stroke-width="1.25"/>
<path fill-rule="evenodd" clip-rule="evenodd" d="M8.24533 9.30863C8.90752 8.31572 9.93703 7.62653 11.1074 7.39268C12.2777 7.1588 13.493 7.39946 14.4859 8.06165C15.4788 8.72384 16.168 9.75335 16.4019 10.9237C16.6357 12.094 16.3951 13.3093 15.7329 14.3023L8.24533 9.30863Z" fill="#CD2E3A"/>
<path fill-rule="evenodd" clip-rule="evenodd" d="M8.246 9.30908C7.58381 10.302 7.34318 11.5173 7.57703 12.6876C7.81088 13.858 8.5001 14.8875 9.49301 15.5497C10.4859 16.2119 11.7012 16.4525 12.8715 16.2187C14.0419 15.9848 15.0714 15.2956 15.7336 14.3027C16.0647 13.8062 16.185 13.1986 16.0681 12.6134C15.9512 12.0282 15.6066 11.5135 15.1101 11.1824C14.6136 10.8513 14.006 10.731 13.4208 10.8479C12.8356 10.9648 12.3209 11.3094 11.9898 11.8059L8.246 9.30908Z" fill="#0047A0"/>
<path d="M11.9883 11.805C12.6778 10.7712 12.3986 9.37422 11.3648 8.68473C10.331 7.99527 8.93397 8.27442 8.24448 9.30822C7.55502 10.342 7.83417 11.7391 8.868 12.4285C9.9018 13.118 11.2988 12.8389 11.9883 11.805Z" fill="#CD2E3A"/>
<path fill-rule="evenodd" clip-rule="evenodd" d="M5.13749 19.0892L2.64069 15.3455L3.26465 14.9293L5.76146 18.6731L5.13749 19.0892ZM6.07343 18.465L3.57665 14.7212L4.20059 14.3051L6.6974 18.0489L6.07343 18.465ZM7.0094 17.8408L4.51259 14.097L5.13656 13.6809L7.63334 17.4247L7.0094 17.8408Z" fill="black"/>
<path fill-rule="evenodd" clip-rule="evenodd" d="M18.8649 9.93444L16.368 6.19065L16.992 5.77452L19.4888 9.51831L18.8649 9.93444ZM19.8008 9.31026L17.304 5.56646L17.928 5.15032L20.4248 8.89413L19.8008 9.31026ZM20.7368 8.68605L18.24 4.94226L18.8639 4.52612L21.3607 8.26992L20.7368 8.68605Z" fill="black"/>
<path d="M4.66876 16.6973L5.6047 16.0731M17.3041 8.27059L18.396 7.54237M19.332 6.91816L20.2679 6.29395" stroke="white" stroke-width="1.25"/>
</g>
<defs>
<clipPath id="clip0_69_11412">
<rect width="24" height="24" rx="12" fill="white"/>
</clipPath>
</defs>
</svg>
