<svg width="24" height="24" viewBox="0 0 24 24" fill="none" xmlns="http://www.w3.org/2000/svg">
<g clip-path="url(#clip0_69_3712)">
<g clip-path="url(#clip1_69_3712)">
<mask id="mask0_69_3712" style="mask-type:luminance" maskUnits="userSpaceOnUse" x="-4" y="0" width="32" height="24">
<path d="M28 0H-4V24H28V0Z" fill="white"/>
</mask>
<g mask="url(#mask0_69_3712)">
<path d="M-4 0H28V24H-4V0Z" fill="#000066"/>
<path d="M-4 0H12V12H-4V0Z" fill="#012169"/>
<path d="M-2.125 0L3.975 4.525L10.05 0H12V1.55L6 6.025L12 10.475V12H10L4 7.525L-1.975 12H-4V10.5L1.975 6.05L-4 1.6V0H-2.125Z" fill="white"/>
<path d="M6.6 7.025L12 11V12L5.225 7.025H6.6ZM2 7.525L2.15 8.4L-2.65 12H-4L2 7.525ZM12 0V0.075L5.775 4.775L5.825 3.675L10.75 0H12ZM-4 0L1.975 4.4H0.475L-4 1.05V0Z" fill="#C8102E"/>
<path d="M2.025 0V12H6.025V0H2.025ZM-4 4V8H12V4H-4Z" fill="white"/>
<path d="M-4 4.825V7.225H12V4.825H-4ZM2.825 0V12H5.225V0H2.825Z" fill="#C8102E"/>
<path d="M23.7795 9.0903V13.1596C23.7795 16.6886 22.1108 17.8998 19.8758 18.8583C17.6407 17.8998 15.9547 16.6886 15.9547 13.1596V9.08594H23.7795V9.0903Z" fill="white" stroke="white" stroke-width="1.04563" stroke-linejoin="round"/>
<path d="M13.5273 18.5276C13.6536 18.8587 14.5511 19.2988 15.5968 18.7367C16.3069 18.3359 16.7644 17.7782 17.2044 16.7762C17.3264 16.5235 17.3918 16.2098 17.0998 16.0224C16.8689 15.8525 16.4899 15.6652 16.3243 15.4996C16.2416 15.4125 16.1588 15.3515 16.0978 15.2905C16.1414 15.3341 16.1806 15.3733 16.2198 15.4343C16.638 15.9353 16.2023 16.6672 15.7405 17.1073C15.405 17.421 14.8038 18.1921 13.9237 17.4602C13.7364 17.2946 13.2964 17.983 13.5316 18.5276H13.5273ZM26.223 18.5276C26.0748 18.8587 25.1774 19.2988 24.1535 18.7367C23.4477 18.3359 22.9859 17.7782 22.5284 16.7762C22.4238 16.5235 22.3585 16.2098 22.6504 16.0224C22.8813 15.8525 23.2604 15.6652 23.4259 15.4996C23.5087 15.4125 23.5697 15.3515 23.6525 15.2905C23.6089 15.3341 23.5697 15.3733 23.5305 15.4343C23.1122 15.9353 23.5479 16.6672 23.9879 17.1073C24.3234 17.421 24.9464 18.1921 25.8265 17.4602C26.0138 17.2946 26.4321 17.983 26.2186 18.5276H26.223Z" fill="#FCEA83" stroke="white" stroke-width="1.04563" stroke-linejoin="round"/>
<path d="M19.8746 20.3226C21.5433 20.3226 24.1137 19.5689 25.4949 16.9374C25.7214 16.5017 25.4949 16.2708 25.2204 16.127C24.9101 15.9708 24.6275 15.7647 24.3839 15.5171C24.7193 15.8526 24.654 16.0834 24.4275 16.4581C23.36 18.2357 21.9005 19.1332 19.8746 19.1332C17.8487 19.1332 16.3891 18.2357 15.3217 16.4581C15.0952 16.0834 15.0298 15.8526 15.3435 15.5215C15.1035 15.7721 14.8201 15.9773 14.507 16.127C14.2369 16.2708 14.006 16.5017 14.2369 16.9374C15.6137 19.5689 18.2016 20.3226 19.8746 20.3226Z" fill="#FCEA83" stroke="white" stroke-width="1.04563" stroke-linejoin="round"/>
<path d="M16.0112 16.7931C15.9676 16.584 15.7018 16.6667 15.6191 16.9194C15.5063 16.7749 15.4072 16.6203 15.3228 16.4576C15.0745 16.0829 15.0309 15.8302 15.3882 15.4773C15.5537 15.3118 15.8892 15.1201 16.1157 15.3292C16.595 15.7257 16.3466 16.3748 16.0112 16.7931ZM23.7184 16.7931C23.7619 16.584 24.0538 16.6667 24.1366 16.9194C24.2412 16.7713 24.3457 16.6275 24.4285 16.4576C24.6769 16.0829 24.7204 15.8302 24.3414 15.4773C24.1976 15.3118 23.8621 15.1201 23.6138 15.3292C23.152 15.7257 23.3829 16.3748 23.7184 16.7931ZM13.5278 18.5271C13.3187 18.2134 13.1531 17.3943 13.1096 17.1896C13.0486 17.0022 13.0268 16.8323 13.2577 16.7539C13.4886 16.6667 13.6934 16.9586 13.7979 17.2113C13.9025 17.4597 14.0724 17.8344 14.2598 18.2962C13.7979 18.026 13.4232 18.209 13.5278 18.5271ZM26.2235 18.5271C26.4108 18.2134 26.5764 17.3943 26.6418 17.1896C26.6853 17.0022 26.7246 16.8323 26.4936 16.7539C26.2627 16.6667 26.058 16.9586 25.9534 17.2113C25.8488 17.4597 25.6789 17.8344 25.4916 18.2962C25.9534 18.026 26.3063 18.209 26.2235 18.5271Z" fill="#C8102E" stroke="white" stroke-width="1.04563" stroke-linejoin="round"/>
<path d="M18.2676 9.06959C17.9975 9.13059 17.8101 9.15235 17.5575 8.92147C17.3919 8.75591 17.4311 8.46399 17.601 8.35507C17.7884 8.23307 17.9539 8.15031 18.1848 8.21131C18.4157 8.27663 19.0213 8.83867 18.8732 8.86047C18.7251 8.86047 18.4985 9.00423 18.2676 9.06959ZM18.9124 8.06751C18.9995 8.00215 19.1041 7.96295 19.3743 7.93683C19.6269 7.91939 19.8099 7.91939 19.8753 8.11107C19.9624 8.33763 20.0234 8.60775 20.189 8.73411C20.0844 8.79511 19.5616 8.86047 19.3743 8.75591C19.1259 8.62955 19.0605 8.14595 18.9168 8.06751H18.9124ZM20.7118 8.08931C20.7946 8.02395 20.8991 8.02395 21.1693 8.04575C21.4394 8.06751 21.5439 8.08931 21.6049 8.27663C21.6703 8.48579 21.6049 8.75591 21.7356 8.94323C21.6049 8.98679 21.191 8.98679 21.0429 8.83867C20.8163 8.67311 20.8338 8.18951 20.7118 8.08495V8.08931Z" fill="white" stroke="white" stroke-width="1.04563" stroke-linejoin="round"/>
<path d="M21.963 8.21058C21.7757 8.16702 21.6493 8.14962 21.5709 8.21058C21.6711 8.33694 21.5883 8.83798 21.7974 9.00354C21.9412 9.1081 22.3203 9.13422 22.403 8.89898C22.5076 8.68986 22.5076 8.37614 21.9673 8.21058H21.963ZM19.8151 8.00146C19.8761 7.94046 20.0024 7.9187 20.2508 7.9187C20.5253 7.9187 20.6865 7.96226 20.7736 8.12782C20.8607 8.33694 20.8346 8.60706 20.9827 8.77698C20.9217 8.85974 20.3553 8.85974 20.1898 8.73342C19.9589 8.5853 19.9371 8.10602 19.8151 8.00146ZM18.0419 8.18882C18.0419 8.08426 18.1857 8.06682 18.5647 8.04502C18.935 8.00146 18.9568 8.02326 19.0831 8.29338C19.1441 8.4415 19.2269 8.68986 19.3968 8.77262C18.935 8.88154 18.7869 8.94254 18.5385 8.79442C18.3572 8.68098 18.2073 8.52362 18.1029 8.33694C18.0811 8.27594 18.0811 8.21058 18.0375 8.18882H18.0419Z" fill="#073163" stroke="white" stroke-width="1.04563" stroke-linejoin="round"/>
<path d="M18.0806 6.33247C17.9324 6.33247 17.8104 6.27147 17.7233 6.16691C17.5796 5.97523 17.1831 5.89243 17.0132 6.06235C16.9522 6.10591 16.8694 6.10591 16.8084 6.12335C16.7038 6.12335 16.5775 6.22791 16.6167 6.43703C16.7038 6.37167 16.7212 6.43703 16.7866 6.43703C16.8302 6.41527 16.8084 6.45883 16.8084 6.49803C16.8084 6.60259 17.035 6.81171 17.2441 6.78995C17.475 6.78995 17.5796 6.87707 17.6188 6.92063C17.6841 6.97727 17.6405 6.95987 17.6841 7.06443C17.7451 7.12543 17.7669 7.14718 17.6623 7.22998C17.6148 7.26962 17.5765 7.31927 17.5502 7.37535C17.524 7.43147 17.5104 7.49263 17.5104 7.55455C17.5104 7.61651 17.524 7.67767 17.5502 7.73375C17.5765 7.78983 17.6148 7.83946 17.6623 7.87914C17.9324 8.0839 18.6208 8.40195 19.3963 7.79199C20.1457 7.20819 21.3133 7.54367 21.4004 7.74843C21.505 7.96191 21.5442 8.0839 21.566 8.18846C21.5878 8.27558 21.6924 8.35839 21.8405 8.33659C21.9843 8.33659 22.1498 8.39759 22.2326 8.46295C22.3415 8.52395 22.4853 8.50651 22.4461 8.31483C22.359 7.73099 22.006 7.64823 21.9668 7.37811C22.1716 7.39555 22.3154 7.39555 22.4025 7.31275C22.4635 7.22999 22.5463 7.08183 22.6334 7.04263C22.6944 6.99907 22.6944 6.95551 22.6116 6.97727C22.5071 6.99907 22.4461 7.04263 22.2544 7.02087C21.2959 6.91627 18.6034 6.18435 18.0806 6.33247Z" fill="#059334" stroke="white" stroke-width="1.04563" stroke-linejoin="round"/>
<path d="M22.3414 7.04284C22.1822 7.1552 22.0461 7.2972 21.9406 7.46108C21.7358 7.7312 21.1084 8.00132 20.3329 8.00132C19.5835 8.00132 19.1261 7.87932 18.7906 7.6092C18.6474 7.49468 18.4926 7.3954 18.3288 7.31296C18.1023 7.2084 18.0587 6.97748 18.1197 6.79012C18.0587 6.89468 18.0195 6.99928 17.8931 6.97748C17.806 6.97748 17.6404 6.97748 17.684 7.0646C17.6622 7.02104 17.6622 6.96004 17.6404 6.93392L17.5969 6.89468C17.6622 6.93828 17.8103 6.81192 17.9149 6.81192C17.9977 6.83372 18.1023 6.72912 18.0805 6.6028L18.0195 6.33268C18.185 6.24552 20.3765 6.64636 20.8165 6.68556C21.2522 6.70736 22.507 6.89468 22.3414 7.04284Z" fill="black" stroke="white" stroke-width="1.04563" stroke-linejoin="round"/>
<path d="M18.3732 6.24992C18.5823 6.0408 18.8307 5.93624 19.0834 5.99724H19.1444C19.2751 5.89268 19.5626 5.87088 19.7325 5.95368H19.8153C20.0636 5.87088 20.5429 5.95368 20.7128 6.1236L20.7738 6.16716C21.3402 6.1236 21.6713 6.37192 22.0678 6.77276C22.1114 6.81632 22.1724 6.89476 22.2769 6.91652C22.4032 6.93832 22.425 7.00368 22.3205 7.06468C22.153 7.16828 22.0054 7.30108 21.8848 7.45676C21.6931 7.70948 21.0875 7.96216 20.3338 7.96216C19.6062 7.96216 19.1662 7.83144 18.8307 7.58312C18.6433 7.43936 18.4996 7.35656 18.395 7.2912C18.2686 7.24764 18.1031 7.08208 18.1641 6.91652C18.2076 6.75096 18.1031 6.54184 18.0203 6.33272C18.0813 6.28916 18.2469 6.22816 18.3296 6.27172L18.3732 6.24992Z" fill="#059334" stroke="white" stroke-width="1.04563" stroke-linejoin="round"/>
<path d="M22.068 6.77276C21.6759 6.37192 21.3404 6.1236 20.774 6.1628C20.774 6.1846 20.774 6.24992 20.7522 6.29352C21.1469 6.47064 21.4969 6.73416 21.7761 7.06468C21.8632 6.97752 22.007 6.87732 22.068 6.77276ZM20.713 6.1236C20.5431 5.95804 20.0639 5.87088 19.8155 5.95804C19.8155 6.0408 19.8155 6.16716 19.7719 6.24992C19.9201 6.31092 20.0421 6.45908 20.1684 6.60284C20.2555 6.58104 20.4603 6.52008 20.5649 6.49828C20.6273 6.37892 20.6769 6.25336 20.713 6.1236ZM19.7327 5.95368C19.5628 5.87088 19.2709 5.89268 19.1446 5.99724C19.101 6.0844 19.0836 6.24992 19.0836 6.33272C19.1707 6.33272 19.2927 6.39372 19.3319 6.43728C19.4626 6.39372 19.6282 6.31092 19.6892 6.24992C19.7109 6.1628 19.7502 6.0408 19.7327 5.95804V5.95368ZM18.3734 6.24992C18.5825 6.0408 18.8309 5.93624 19.0836 5.99724C19.04 6.0626 19.0226 6.1846 19.0226 6.31092C18.7917 6.28916 18.4998 6.35452 18.3734 6.43728V6.24992Z" fill="#00493D" stroke="white" stroke-width="1.04563" stroke-linejoin="round"/>
<path d="M21.6931 7.1041C21.4307 6.79334 21.1035 6.54354 20.7346 6.37218C20.7346 6.39394 20.6911 6.47674 20.6693 6.5421C20.7956 6.72942 21.0439 7.1477 21.1485 7.37858C21.2531 7.33502 21.545 7.2087 21.6931 7.1041ZM20.1073 7.56594C20.1433 7.28118 20.1637 6.99466 20.1682 6.70766C20.2728 6.68586 20.4819 6.62486 20.5647 6.6031C20.6693 6.77302 20.922 7.21302 21.0265 7.41782C20.7738 7.47882 20.3556 7.58338 20.1073 7.56594ZM19.3753 6.56386C19.4799 6.5203 19.628 6.43318 19.7282 6.35474C19.8153 6.41574 19.9809 6.56386 20.0419 6.64666C20.0419 6.83398 19.9809 7.37858 19.9591 7.56158C19.7935 7.56158 19.5234 7.52238 19.3753 7.43958C19.3971 7.1259 19.4189 6.77302 19.3753 6.56386ZM18.3297 6.81222C18.3515 6.76866 18.3732 6.62486 18.3732 6.56386C18.5388 6.4593 18.9571 6.35474 19.2707 6.5203C19.2925 6.72942 19.2707 7.25226 19.2489 7.37858C18.9695 7.15134 18.662 6.96098 18.334 6.81222H18.3297Z" fill="#00493D" stroke="white" stroke-width="1.04563" stroke-linejoin="round"/>
<path d="M17.2871 6.43304C17.2435 6.43304 17.2217 6.31104 17.1389 6.31104C17.1172 6.31104 17.0562 6.33284 17.0344 6.31104C17.0344 6.35464 17.0562 6.39819 17.078 6.41563C17.0997 6.47659 17.2043 6.4374 17.2871 6.4374V6.43304Z" fill="black"/>
<path d="M17.2871 6.7901C17.5354 6.7901 17.579 6.47642 17.7053 6.45898M17.4308 6.8119C17.6182 6.89902 17.7663 6.45898 17.9101 6.47642M17.0562 6.27166C17.1172 6.27166 17.1607 6.1845 17.2653 6.28906C17.3088 6.33266 17.3698 6.35442 17.4134 6.35442M17.3698 6.58098C17.2827 6.7117 17.1389 6.7901 17.0562 6.7509M17.0126 6.0625C16.9516 6.1061 16.9124 6.1845 16.8688 6.24986M16.8078 6.37186V6.47642" stroke="white" stroke-width="1.04563" stroke-linejoin="round"/>
<path d="M19.0437 6.06319C18.6036 5.72771 18.0808 5.41403 17.6016 5.35303C18.1016 5.68643 18.5764 6.05631 19.0219 6.45967" fill="black"/>
<path d="M19.0437 6.06319C18.6036 5.72771 18.0808 5.41403 17.6016 5.35303C18.1016 5.68643 18.5764 6.05631 19.0219 6.45967" stroke="white" stroke-width="1.04563" stroke-linejoin="round"/>
<path d="M19.2919 5.74915C18.7691 5.39191 18.1635 4.99543 17.5797 4.95623C18.126 5.27283 18.6126 5.68275 19.0174 6.16739M19.9585 5.16535C20.1943 4.62919 20.5437 4.15059 20.9823 3.76245C20.7732 4.20247 20.5467 5.09999 20.4377 5.45723" fill="black"/>
<path d="M19.2919 5.74915C18.7691 5.39191 18.1635 4.99543 17.5797 4.95623C18.126 5.27283 18.6126 5.68275 19.0174 6.16739M19.9585 5.16535C20.1943 4.62919 20.5437 4.15059 20.9823 3.76245C20.7732 4.20247 20.5467 5.09999 20.4377 5.45723" stroke="white" stroke-width="1.04563" stroke-linejoin="round"/>
<path d="M20.4203 5.06095C20.6222 4.56999 21.0018 4.17327 21.4834 3.94995C21.1216 4.40131 20.8522 4.91943 20.6905 5.47483" fill="black"/>
<path d="M20.4203 5.06095C20.6222 4.56999 21.0018 4.17327 21.4834 3.94995C21.1216 4.40131 20.8522 4.91943 20.6905 5.47483" stroke="white" stroke-width="1.04563" stroke-linejoin="round"/>
<path d="M20.6078 5.47515C21.0078 4.86283 21.5811 4.38351 22.2547 4.09839C21.7319 4.62119 20.9607 5.57971 20.7733 5.95875M20.8997 5.93695C21.2744 5.72783 22.0281 5.39235 22.5683 5.50127C22.2372 5.62327 21.2352 6.08075 20.7951 6.50335" fill="black"/>
<path d="M20.6078 5.47515C21.0078 4.86283 21.5811 4.38351 22.2547 4.09839C21.7319 4.62119 20.9607 5.57971 20.7733 5.95875M20.8997 5.93695C21.2744 5.72783 22.0281 5.39235 22.5683 5.50127C22.2372 5.62327 21.2352 6.08075 20.7951 6.50335" stroke="white" stroke-width="1.04563" stroke-linejoin="round"/>
<path d="M20.817 5.78868C21.1699 5.414 21.8191 4.85196 22.5074 4.62108C22.0064 5.10032 20.939 6.18952 20.7952 6.35508M19.815 5.56212C19.5622 4.78664 19.1876 4.05904 18.6255 3.82812C19.0732 4.46816 19.3846 5.19328 19.5405 5.9586M19.3313 5.54036C18.9174 5.03932 18.351 4.53828 17.7062 4.43372C18.3381 4.8472 18.8373 5.43412 19.144 6.12416" fill="black"/>
<path d="M20.817 5.78868C21.1699 5.414 21.8191 4.85196 22.5074 4.62108C22.0064 5.10032 20.939 6.18952 20.7952 6.35508M19.815 5.56212C19.5622 4.78664 19.1876 4.05904 18.6255 3.82812C19.0732 4.46816 19.3846 5.19328 19.5405 5.9586M19.3313 5.54036C18.9174 5.03932 18.351 4.53828 17.7062 4.43372C18.3381 4.8472 18.8373 5.43412 19.144 6.12416" stroke="white" stroke-width="1.04563" stroke-linejoin="round"/>
<path d="M19.5658 5.51906C19.043 4.57802 18.6422 4.41246 18.4156 4.2251C18.603 4.57802 19.0604 5.51906 19.3306 5.91554" fill="black"/>
<path d="M19.5658 5.51906C19.043 4.57802 18.6422 4.41246 18.4156 4.2251C18.603 4.57802 19.0604 5.51906 19.3306 5.91554" stroke="white" stroke-width="1.04563" stroke-linejoin="round"/>
<path d="M18.5203 5.45776C18.8183 5.64516 19.0736 5.89304 19.2697 6.18536" stroke="white" stroke-width="1.04563" stroke-linejoin="round"/>
<path d="M18.5203 5.89242C18.6423 5.99698 18.8732 6.12334 19.0824 6.31066L18.5203 5.89242ZM21.0037 6.2061C21.2128 6.04054 21.6703 5.77042 21.9012 5.6833L21.0037 6.2061ZM20.8556 6.06234C21.0647 5.78786 21.4829 5.41318 21.6311 5.28682L20.8556 6.06234ZM21.4394 4.76402C21.1586 5.07862 20.894 5.40726 20.6464 5.74866L21.4394 4.76402ZM20.8991 4.57666C20.7014 4.86914 20.5266 5.1765 20.3763 5.49594L20.8991 4.57666ZM19.2479 4.62022C19.3742 4.9557 19.6052 5.51774 19.6836 5.74866L19.2479 4.62022ZM19.0606 4.97314C19.1477 5.10382 19.3132 5.39138 19.3742 5.6005L19.0606 4.97314Z" fill="black"/>
<path d="M18.5203 5.89242C18.6423 5.99698 18.8732 6.12334 19.0824 6.31066M21.0037 6.2061C21.2128 6.04054 21.6703 5.77042 21.9012 5.6833M20.8556 6.06234C21.0647 5.78786 21.4829 5.41318 21.6311 5.28682M21.4394 4.76402C21.1586 5.07862 20.894 5.40726 20.6464 5.74866M20.8991 4.57666C20.7014 4.86914 20.5266 5.1765 20.3763 5.49594M19.2479 4.62022C19.3742 4.9557 19.6052 5.51774 19.6836 5.74866M19.0606 4.97314C19.1477 5.10382 19.3132 5.39138 19.3742 5.6005" stroke="white" stroke-width="1.04563" stroke-linejoin="round"/>
<path d="M19.7719 4.86868C19.7719 4.68132 19.8982 4.47656 20.0245 4.47656C20.1683 4.47656 20.2729 4.72492 20.2729 4.86868C20.2729 5.0386 20.1465 5.18236 20.0245 5.18236C19.8939 5.18236 19.7719 5.06036 19.7719 4.86868Z" fill="black" stroke="white" stroke-width="1.04563" stroke-linejoin="round"/>
<path d="M19.5014 5.03965C19.5231 4.83053 19.6669 4.66497 19.7933 4.68241C19.9196 4.70417 19.9806 4.95689 19.9588 5.10065C19.9371 5.26621 19.7933 5.39257 19.6887 5.37077C19.5841 5.37077 19.4796 5.22701 19.5014 5.03965ZM20.0634 5.10065C20.0198 4.91333 20.1069 4.70853 20.2333 4.68241C20.3553 4.66497 20.4817 4.86973 20.5034 5.03965C20.547 5.20521 20.4381 5.37077 20.3335 5.37077C20.2333 5.39257 20.0852 5.28801 20.0634 5.10065Z" fill="black" stroke="white" stroke-width="1.04563" stroke-linejoin="round"/>
<path d="M19.75 5.26566C19.75 5.06086 19.8764 4.87354 20.0027 4.87354C20.1465 4.87354 20.251 5.1001 20.251 5.26566C20.251 5.43558 20.129 5.57934 20.0027 5.57934C19.8764 5.57934 19.75 5.45734 19.75 5.26566Z" fill="black" stroke="white" stroke-width="1.04563" stroke-linejoin="round"/>
<path d="M19.375 5.37014C19.375 5.18282 19.5231 4.97802 19.6451 4.97802C19.7758 4.97802 19.8978 5.22638 19.8978 5.37014C19.8978 5.54006 19.7497 5.68382 19.6451 5.68382C19.5231 5.68382 19.375 5.56186 19.375 5.37014ZM20.1462 5.28738C20.1462 5.10002 20.2768 4.89526 20.3988 4.89526C20.5426 4.89526 20.6472 5.14358 20.6472 5.28738C20.6472 5.45726 20.5252 5.60106 20.3988 5.60106C20.2725 5.60106 20.1462 5.4747 20.1462 5.28738Z" fill="black" stroke="white" stroke-width="1.04563" stroke-linejoin="round"/>
<path d="M20.0641 5.45752C20.0641 5.2484 20.2122 5.06104 20.3342 5.06104C20.4649 5.06104 20.5869 5.2876 20.5869 5.45316C20.5869 5.62308 20.4605 5.7712 20.3342 5.7712C20.2122 5.7712 20.0641 5.64052 20.0641 5.45752Z" fill="black" stroke="white" stroke-width="1.04563" stroke-linejoin="round"/>
<path d="M19.7322 5.6448C19.7322 5.43568 19.8542 5.24836 19.9805 5.24836C20.1287 5.24836 20.2332 5.49668 20.2332 5.64044C20.2332 5.81472 20.1025 5.95852 19.9805 5.95852C19.8542 5.95852 19.7278 5.8278 19.7278 5.6448H19.7322ZM19.2094 5.6448C19.2094 5.43568 19.3139 5.24836 19.4185 5.24836C19.5231 5.24836 19.6058 5.49668 19.6058 5.64044C19.6058 5.81472 19.5013 5.95852 19.4185 5.95852C19.3139 5.95852 19.2094 5.8278 19.2094 5.6448ZM20.377 5.6056C20.377 5.41392 20.4816 5.22656 20.5861 5.22656C20.6907 5.22656 20.7952 5.45748 20.7952 5.60124C20.7952 5.7886 20.6689 5.91492 20.5861 5.91492C20.4816 5.91492 20.377 5.7886 20.377 5.60124V5.6056Z" fill="black" stroke="white" stroke-width="1.04563" stroke-linejoin="round"/>
<path d="M20.5039 5.95422C20.5475 5.74946 20.6695 5.57953 20.7523 5.60569C20.8394 5.62309 20.8568 5.87146 20.8176 6.01958C20.7958 6.20694 20.6695 6.31149 20.5867 6.28969C20.4996 6.27225 20.4604 6.12414 20.4996 5.95857L20.5039 5.95422Z" fill="black" stroke="white" stroke-width="1.04563" stroke-linejoin="round"/>
<path d="M20.1069 5.89368C20.1287 5.70636 20.2507 5.519 20.3552 5.5408C20.4816 5.5408 20.5425 5.78912 20.5251 5.93292C20.5033 6.1246 20.3944 6.25096 20.2942 6.22916C20.1897 6.22916 20.0851 6.08104 20.1069 5.89368ZM19.5231 5.95468C19.4577 5.74992 19.3314 5.60616 19.2486 5.62356C19.1658 5.64536 19.144 5.89368 19.1876 6.04184C19.2312 6.2074 19.3531 6.31196 19.4359 6.29016C19.5013 6.27272 19.5666 6.1246 19.5231 5.95904V5.95468Z" fill="black" stroke="white" stroke-width="1.04563" stroke-linejoin="round"/>
<path d="M19.375 5.91521C19.375 5.72785 19.4796 5.54053 19.5841 5.54053C19.7105 5.54053 19.7932 5.77141 19.7932 5.91521C19.7932 6.10253 19.6887 6.22889 19.5841 6.22889C19.497 6.22889 19.375 6.10253 19.375 5.91521Z" fill="black" stroke="white" stroke-width="1.04563" stroke-linejoin="round"/>
<path d="M19.6886 5.99752C19.6886 5.78836 19.815 5.6054 19.937 5.6054C20.0851 5.6054 20.1896 5.83196 20.1896 5.99752C20.1896 6.16744 20.0633 6.3112 19.937 6.3112C19.815 6.3112 19.6886 6.18484 19.6886 5.99752ZM19.7932 3.70147C19.7496 3.86703 19.6058 4.01516 19.706 4.24608C19.5231 4.18072 19.3575 4.15892 19.2094 4.32884C19.3967 4.30708 19.5623 4.3724 19.645 4.4944C19.4795 4.47264 19.3967 4.55976 19.3532 4.66432C19.5013 4.62076 19.645 4.5772 19.7104 4.59896C19.645 4.66432 19.5405 4.76452 19.5231 4.85168C19.645 4.74712 19.7932 4.76452 19.876 4.70352C19.815 4.85168 19.937 4.99544 20.0415 5.1392C20.0241 4.93444 20.1461 4.79068 20.0851 4.68176C20.2724 4.72532 20.2942 4.89088 20.5644 4.89088C20.4598 4.82988 20.3988 4.62076 20.2724 4.62076C20.3334 4.59896 20.5861 4.5772 20.6297 4.62076C20.5861 4.5336 20.438 4.4552 20.3552 4.4552C20.4424 4.36808 20.5861 4.20252 20.6907 4.15892C20.5426 4.18072 20.316 4.20252 20.2332 4.32884C20.438 4.15892 20.3988 3.8496 20.6253 3.80604C20.5034 3.78425 20.316 3.86703 20.1679 4.01516C20.2332 3.88881 20.2332 3.72326 20.316 3.67969C20.1461 3.72326 19.9588 3.93238 19.8978 4.03696C19.8887 3.91865 19.853 3.80395 19.7932 3.70147Z" fill="black" stroke="white" stroke-width="1.04563" stroke-linejoin="round"/>
<path d="M19.8984 4.03739C19.8984 4.09839 19.8984 4.22475 19.8766 4.26395L19.8984 4.03739ZM20.1685 4.01562C20.1249 4.05919 20.0421 4.20295 20.0421 4.32931L20.1685 4.01562Z" fill="black"/>
<path d="M19.8984 4.03739C19.8984 4.09839 19.8984 4.22475 19.8766 4.26395M20.1685 4.01562C20.1249 4.05919 20.0421 4.20295 20.0421 4.32931" stroke="white" stroke-width="1.04563" stroke-linejoin="round"/>
<path d="M20.2934 4.26416C20.2216 4.30704 20.1687 4.37552 20.1453 4.45584" stroke="white" stroke-width="1.04563" stroke-linejoin="round"/>
<path d="M13.5273 18.5293C13.6536 18.8604 14.5511 19.3005 15.5968 18.7384C16.3069 18.3376 16.7644 17.78 17.2044 16.7779C17.3264 16.5252 17.3918 16.2115 17.0998 16.0242C16.8689 15.8542 16.4899 15.6669 16.3243 15.5014C16.2416 15.4142 16.1588 15.3532 16.0978 15.2922C16.1414 15.3358 16.1806 15.375 16.2198 15.436C16.638 15.937 16.2023 16.669 15.7405 17.109C15.405 17.4227 14.8038 18.1938 13.9237 17.4619C13.7364 17.2964 13.2964 17.9847 13.5316 18.5293H13.5273ZM26.223 18.5293C26.0748 18.8604 25.1774 19.3005 24.1535 18.7384C23.4477 18.3376 22.9859 17.78 22.5284 16.7779C22.4238 16.5252 22.3585 16.2115 22.6504 16.0242C22.8813 15.8542 23.2604 15.6669 23.4259 15.5014C23.5087 15.4142 23.5697 15.3532 23.6525 15.2922C23.6089 15.3358 23.5697 15.375 23.5305 15.436C23.1122 15.937 23.5479 16.669 23.9879 17.109C24.3234 17.4227 24.9464 18.1938 25.8265 17.4619C26.0138 17.2964 26.4321 17.9847 26.2186 18.5293H26.223Z" fill="#FCEA83" stroke="black" stroke-width="0.152488"/>
<path d="M19.8746 20.3243C21.5433 20.3243 24.1137 19.5706 25.4949 16.9391C25.7214 16.5034 25.4949 16.2725 25.2204 16.1288C24.9101 15.9725 24.6275 15.7664 24.3839 15.5188C24.7193 15.8543 24.654 16.0852 24.4275 16.4598C23.36 18.2374 21.9005 19.1349 19.8746 19.1349C17.8487 19.1349 16.3891 18.2374 15.3217 16.4598C15.0952 16.0852 15.0298 15.8543 15.3435 15.5232C15.1035 15.7738 14.8201 15.979 14.507 16.1288C14.2369 16.2725 14.006 16.5034 14.2369 16.9391C15.6137 19.5706 18.2016 20.3243 19.8746 20.3243Z" fill="#FCEA83" stroke="black" stroke-width="0.152488"/>
<path d="M16.0112 16.7946C15.9676 16.5854 15.7018 16.6682 15.6191 16.9209C15.5063 16.7764 15.4072 16.6218 15.3228 16.4591C15.0745 16.0844 15.0309 15.8317 15.3882 15.4788C15.5537 15.3132 15.8892 15.1216 16.1157 15.3307C16.595 15.7272 16.3466 16.3763 16.0112 16.7946ZM23.7184 16.7946C23.7619 16.5854 24.0538 16.6682 24.1366 16.9209C24.2412 16.7728 24.3457 16.629 24.4285 16.4591C24.6769 16.0844 24.7204 15.8317 24.3414 15.4788C24.1976 15.3132 23.8621 15.1216 23.6138 15.3307C23.152 15.7272 23.3829 16.3763 23.7184 16.7946ZM13.5278 18.5285C13.3187 18.2149 13.1531 17.3958 13.1096 17.191C13.0486 17.0037 13.0268 16.8338 13.2577 16.7554C13.4886 16.6682 13.6934 16.9601 13.7979 17.2128C13.9025 17.4612 14.0724 17.8358 14.2598 18.2976C13.7979 18.0275 13.4232 18.2105 13.5278 18.5285ZM26.2235 18.5285C26.4108 18.2149 26.5764 17.3958 26.6418 17.191C26.6853 17.0037 26.7246 16.8338 26.4936 16.7554C26.2627 16.6682 26.058 16.9601 25.9534 17.2128C25.8488 17.4612 25.6789 17.8358 25.4916 18.2976C25.9534 18.0275 26.3063 18.2105 26.2235 18.5285Z" fill="#C8102E" stroke="black" stroke-width="0.152488"/>
<path d="M14.7387 16.6466L14.5731 16.7337C14.5295 16.7511 14.5295 16.7947 14.5295 16.8165H14.5078L14.425 16.6291H14.4468C14.4468 16.6466 14.4685 16.6727 14.5078 16.6466L14.865 16.4593C14.9086 16.4375 14.9086 16.4157 14.8868 16.3983L14.9042 16.3765L15.0088 16.5856H14.9914C14.9696 16.5638 14.9478 16.542 14.9042 16.5638L14.7605 16.6509L14.8215 16.7729L14.9914 16.7119C15.0349 16.6901 15.0088 16.6466 15.0088 16.6248H15.0306L15.1177 16.8165C15.0959 16.7947 15.0741 16.7729 15.0306 16.7947L14.6777 16.9821C14.6341 17.0039 14.6341 17.0256 14.6559 17.0431L14.6341 17.0648L14.5295 16.8775L14.5513 16.8557C14.5731 16.8775 14.5949 16.8993 14.6385 16.8775L14.804 16.7903L14.7387 16.6466ZM15.0959 16.9211C15.1395 16.8993 15.1395 16.8775 15.1133 16.8339H15.1351L15.3443 17.1476L15.2005 17.2522V17.2347C15.2833 17.1694 15.2833 17.0866 15.2615 17.0648C15.2397 17.0431 15.2179 17.0213 15.2179 17.0039C15.2005 17.0039 15.2005 16.9821 15.1569 17.0256L15.0088 17.1302C15.0306 17.1476 15.0523 17.213 15.1569 17.1476H15.1787L14.9478 17.3175V17.2957C15.0523 17.2086 15.0088 17.1476 14.9914 17.1302L14.8432 17.2347C14.7997 17.2522 14.7997 17.2783 14.7997 17.2957C14.8215 17.2957 14.8215 17.3175 14.8432 17.3393C14.865 17.3829 14.9304 17.4221 15.0306 17.3829L15.0524 17.4003L14.8868 17.4613L14.6777 17.1302H14.6995C14.7169 17.1476 14.743 17.1737 14.7822 17.1476L15.0959 16.9211ZM15.4271 17.714L15.2833 17.836C15.2615 17.8578 15.2615 17.9013 15.2833 17.9231H15.2615L15.1133 17.775L15.1351 17.7532C15.1569 17.775 15.1787 17.7968 15.2223 17.7532L15.4924 17.4831C15.536 17.4613 15.536 17.4395 15.5098 17.3959L15.6579 17.5702C15.6362 17.5441 15.5969 17.5441 15.5708 17.5702L15.4488 17.6922L15.5534 17.7968L15.6797 17.6922C15.7233 17.6487 15.7015 17.6312 15.6797 17.6051L15.7015 17.5877L15.8453 17.7532H15.8235C15.8061 17.7532 15.7799 17.7358 15.7407 17.775L15.4706 18.0277C15.4271 18.0713 15.4271 18.0887 15.4488 18.1105V18.1323L15.3051 17.9623C15.3225 17.9623 15.3661 17.9841 15.3878 17.9623L15.5316 17.8186L15.4271 17.714ZM15.7407 18.154L15.8061 18.215L15.8889 18.0277C15.8889 18.0277 15.8235 18.0451 15.7189 18.1105L15.7407 18.154L15.7189 18.1715L15.6754 18.1279C15.6579 18.1497 15.6362 18.1497 15.6144 18.1715C15.5534 18.215 15.5708 18.2368 15.597 18.2586V18.276L15.4924 18.1715H15.5098L15.597 18.1497L16.0109 17.9231L16.0327 17.9405C16.0327 17.9405 16.0109 17.9623 15.8235 18.3806C15.8235 18.4241 15.8061 18.4416 15.8235 18.4851L15.6579 18.3414L15.6797 18.3196C15.7015 18.3632 15.7407 18.3632 15.7625 18.3196C15.7625 18.2978 15.7843 18.2543 15.7843 18.2325L15.7189 18.1715L15.7407 18.1497V18.154ZM15.9063 18.5679L15.9281 18.5461C15.9499 18.5679 15.9717 18.5679 16.0152 18.5461L16.2853 18.1933L16.2635 18.1715C16.22 18.1497 16.159 18.1497 16.098 18.215V18.1933L16.1808 18.0887L16.4945 18.3196L16.3899 18.4416H16.3681C16.4291 18.3806 16.4117 18.2978 16.3681 18.276V18.2543L16.098 18.6115C16.0544 18.6333 16.0762 18.6725 16.098 18.6943H16.0762L15.9063 18.5679Z" fill="#00493D"/>
<path d="M16.4513 18.6514L16.3468 18.7996C16.325 18.8431 16.3468 18.8606 16.3686 18.8867L16.3468 18.9041L16.1812 18.7778V18.756C16.2248 18.7778 16.2422 18.7778 16.264 18.7386L16.4949 18.4249C16.5123 18.3813 16.4949 18.3595 16.4731 18.3378L16.4949 18.3203L16.6605 18.4423V18.4641C16.6169 18.4423 16.5995 18.4423 16.5733 18.4859L16.4731 18.634L16.5995 18.7168L16.7041 18.5686C16.7215 18.5251 16.7041 18.5076 16.6823 18.4859L16.7041 18.4641L16.8696 18.5904V18.6122C16.8478 18.5904 16.8086 18.5904 16.7825 18.634L16.5777 18.9651C16.5341 18.9869 16.5559 19.0087 16.5777 19.0305V19.0479L16.3903 18.9259H16.4121C16.4296 18.9259 16.4557 18.9259 16.4731 18.9041L16.5777 18.7386L16.4513 18.6514ZM16.8696 19.2396L16.8914 19.2178C16.9132 19.2396 16.9524 19.2396 16.9742 19.196L17.1397 18.8431C17.1615 18.7996 17.1397 18.7778 17.1179 18.756L17.4752 18.9259L17.3881 19.0915L17.3706 19.0697C17.4316 18.9869 17.3706 18.9041 17.3489 18.8824C17.3271 18.8824 17.3053 18.8606 17.2879 18.8606C17.2661 18.8606 17.2661 18.8606 17.2443 18.9041C17.2225 18.9259 17.1615 19.0479 17.1615 19.0479C17.1833 19.0697 17.2225 19.1132 17.3097 19.0043H17.3271L17.2051 19.257L17.1833 19.2396C17.2443 19.1089 17.1615 19.0915 17.1397 19.0915L17.0569 19.257C17.0352 19.3006 17.0569 19.3224 17.0787 19.3224V19.3442L16.8696 19.2396ZM17.4752 19.5315C17.4142 19.4879 17.4142 19.3616 17.4752 19.2396C17.5188 19.1089 17.6015 19.0087 17.6843 19.0479C17.7453 19.0697 17.7279 19.196 17.6843 19.3224C17.619 19.4662 17.5362 19.5489 17.4752 19.5315H17.4534C17.6015 19.5925 17.7061 19.5097 17.7671 19.3616C17.8281 19.2396 17.8107 19.0915 17.68 19.0305C17.558 18.9651 17.4316 19.0479 17.3706 19.196C17.3097 19.3442 17.3271 19.4879 17.4578 19.5315H17.4752ZM18.12 19.5707L18.2071 19.3224C18.2246 19.2788 18.2071 19.257 18.1853 19.2352L18.2899 19.257V19.2788C18.2681 19.2788 18.2463 19.2788 18.2246 19.3224L18.1418 19.5707C18.0982 19.6753 18.0372 19.758 17.9152 19.7188C17.8281 19.6971 17.7671 19.5925 17.8107 19.4879L17.9152 19.2178C17.9327 19.1742 17.9152 19.1525 17.8935 19.1307V19.1132L18.0808 19.196V19.2178C18.059 19.196 18.0198 19.196 18.0198 19.2396L17.9109 19.5054C17.8891 19.5882 17.8891 19.6709 17.9545 19.6927C18.0155 19.7145 18.0764 19.6709 18.1157 19.5664L18.12 19.5707ZM18.3117 19.3006C18.3117 19.2788 18.3117 19.2788 18.2899 19.2788L18.4337 19.3006L18.5644 19.6971L18.6254 19.4444C18.6428 19.4008 18.6254 19.3834 18.6036 19.3616L18.7256 19.3834L18.7082 19.4052C18.6864 19.4052 18.6646 19.4052 18.6428 19.4487L18.5383 19.9062H18.5208L18.3509 19.4052L18.2463 19.7406C18.2463 19.8016 18.2681 19.8016 18.2899 19.8234V19.8452L18.1636 19.8016V19.7798C18.1853 19.8016 18.2246 19.7798 18.2246 19.7363L18.3291 19.3616L18.3117 19.3006ZM19.0219 19.7188C18.9783 19.9062 18.8911 19.9498 18.8519 19.9498H18.8084C18.8084 19.9498 18.7909 19.928 18.8084 19.9062L18.8737 19.4879C18.8955 19.4662 18.8955 19.4444 18.9173 19.4662H18.9609C19.0001 19.4662 19.0393 19.5533 19.0219 19.7188L19.0829 19.7406C19.1264 19.5315 19.0393 19.4444 18.9347 19.427C18.8519 19.4052 18.7256 19.3834 18.7256 19.3834V19.4052C18.7474 19.427 18.7909 19.427 18.7692 19.4923L18.7082 19.8626C18.6864 19.9062 18.6646 19.928 18.6428 19.928H18.6254L18.8302 19.9716C18.9347 19.989 19.0393 19.9715 19.0829 19.7406L19.0219 19.7188ZM19.2092 19.5489C19.2092 19.5054 19.1656 19.4879 19.1439 19.4879V19.4662L19.5229 19.5097L19.5011 19.6753C19.5011 19.5707 19.4357 19.5315 19.3965 19.5315C19.3748 19.5097 19.353 19.5097 19.3312 19.5097C19.3138 19.5097 19.3138 19.5097 19.3138 19.5707L19.292 19.7406C19.3138 19.7406 19.3748 19.758 19.4183 19.6361L19.3965 19.9062H19.3748C19.3748 19.7798 19.3138 19.7798 19.2876 19.7798L19.2702 19.9672C19.2702 20.0108 19.2702 20.0108 19.292 20.0108L19.3355 20.0325C19.3965 20.0325 19.4575 20.0108 19.5011 19.8844H19.5229L19.4793 20.05L19.0829 20.0064C19.1264 20.0064 19.1439 19.989 19.17 19.9498L19.2092 19.5489ZM19.8976 19.8016C19.8976 19.989 19.8322 20.05 19.7712 20.05C19.7495 20.0325 19.7495 20.0325 19.7277 20.0325L19.7102 20.0108L19.732 19.5751C19.732 19.5489 19.732 19.5489 19.7495 19.5489H19.793C19.8366 19.5489 19.8976 19.6143 19.8976 19.8016H19.9804C19.9804 19.5925 19.8758 19.5315 19.7712 19.5315C19.6841 19.5097 19.5621 19.5097 19.5621 19.5097V19.5315C19.5839 19.5315 19.6275 19.5489 19.6275 19.5925L19.6057 19.989C19.6057 20.0325 19.5839 20.05 19.5621 20.05V20.0718H19.7495C19.854 20.0718 19.9586 20.0282 19.9804 19.8016H19.8932H19.8976ZM20.5032 19.9672C20.5032 20.0108 20.525 20.0108 20.5642 20.0108V20.0325L20.3333 20.05C20.3551 20.0325 20.3986 20.0064 20.3986 19.9672L20.3551 19.5751C20.3333 19.5315 20.3115 19.5315 20.2723 19.5315V19.5097L20.5032 19.4879C20.4814 19.5097 20.4378 19.5315 20.4596 19.5751L20.5032 19.9672ZM20.7123 20.0108V19.989C20.7341 19.989 20.7559 19.9672 20.7559 19.928L20.6687 19.4923H20.6469C20.6034 19.5097 20.5642 19.5489 20.5859 19.6361H20.5642L20.5424 19.4879L20.9214 19.427L20.9389 19.5707H20.9214C20.9214 19.4879 20.8561 19.4662 20.7907 19.4662H20.7733L20.8604 19.9018C20.8604 19.9454 20.8779 19.9672 20.9214 19.9672V19.989L20.7123 20.0108ZM21.6098 19.5925L21.5227 19.3442C21.5227 19.3006 21.4835 19.3006 21.4617 19.3006V19.2788L21.5662 19.2352V19.257C21.5445 19.2788 21.5445 19.2788 21.5445 19.3224L21.6316 19.5925C21.649 19.6796 21.649 19.8016 21.527 19.8452C21.4399 19.8626 21.3397 19.8234 21.3179 19.6971L21.2308 19.427C21.2133 19.3834 21.1915 19.3834 21.1698 19.3834L21.148 19.3616L21.3571 19.3006V19.3224C21.3397 19.3442 21.3135 19.366 21.3397 19.4052L21.4007 19.6753C21.4225 19.7624 21.4878 19.8016 21.5445 19.8016C21.6098 19.7798 21.6316 19.6971 21.6098 19.5925ZM21.8407 19.4444C21.9409 19.4008 21.9235 19.3442 21.9017 19.2788C21.8799 19.2178 21.8407 19.1742 21.7971 19.196C21.7754 19.196 21.7536 19.2178 21.7754 19.2396L21.8407 19.4444L21.8581 19.4662L21.9017 19.6361C21.9235 19.6796 21.9627 19.6796 21.9889 19.6535V19.6753L21.7971 19.7624L21.7754 19.7406C21.8189 19.7188 21.8189 19.6971 21.8189 19.6535L21.6708 19.3006C21.649 19.2396 21.6272 19.257 21.588 19.257V19.2396L21.7971 19.1525C21.8843 19.135 21.9627 19.1525 22.0063 19.2396C22.0281 19.3442 21.9845 19.4052 21.9017 19.4487C21.8799 19.4487 21.8581 19.4662 21.8581 19.4662L21.8407 19.4444Z" fill="#00493D"/>
<path d="M22.3594 19.5052C22.2984 19.5314 22.2156 19.4442 22.1503 19.3005C22.0893 19.1741 22.0893 19.0478 22.1503 19.0303C22.2156 19.0085 22.2984 19.0913 22.3594 19.2177C22.4248 19.344 22.4248 19.466 22.3594 19.5096C22.4901 19.466 22.5293 19.3223 22.464 19.1741C22.403 19.0478 22.2766 18.965 22.1503 19.0085C22.121 19.0233 22.0949 19.0437 22.0736 19.0687C22.0524 19.0937 22.0364 19.1227 22.0267 19.1541C22.0169 19.1854 22.0136 19.2183 22.0168 19.251C22.0201 19.2836 22.0299 19.3153 22.0457 19.344C22.1111 19.4878 22.2374 19.5706 22.3594 19.5096V19.5052ZM22.3812 18.9258H22.342L22.464 18.8387L22.843 19.0478L22.7123 18.8212C22.6949 18.7777 22.6513 18.7777 22.6339 18.7777V18.7559L22.7384 18.7123C22.7166 18.7384 22.6949 18.7559 22.7384 18.7994L22.9476 19.2177L22.9258 19.2395L22.464 18.9868L22.6339 19.3005C22.6513 19.344 22.6949 19.344 22.7166 19.3223V19.344L22.6121 19.405V19.3833C22.6339 19.3615 22.6339 19.3397 22.6121 19.3005L22.4465 18.965L22.3812 18.9214V18.9258ZM23.3222 18.9868V18.965C23.3222 18.9432 23.344 18.9214 23.3222 18.8822L23.0696 18.5293H23.0478C23.0042 18.5467 22.9868 18.6339 23.0478 18.6949L23.0304 18.7167L22.9432 18.5685L23.2569 18.3594L23.344 18.4901C23.2787 18.4247 23.2133 18.4247 23.1741 18.4465L23.1523 18.4639L23.405 18.8212C23.4268 18.8648 23.466 18.8648 23.4922 18.843V18.8604L23.3222 18.9868Z" fill="#00493D"/>
<path d="M23.5525 18.4854L23.6745 18.6335C23.6963 18.6509 23.7398 18.6509 23.7616 18.6335V18.6509L23.5917 18.799V18.7772C23.6135 18.7555 23.6135 18.7337 23.5917 18.6945L23.3434 18.3808C23.3216 18.3372 23.2998 18.359 23.2562 18.359L23.4261 18.2152V18.237C23.4261 18.2544 23.4043 18.2806 23.4261 18.3198L23.5307 18.4418L23.6527 18.359L23.5525 18.2152C23.5307 18.1717 23.4871 18.1934 23.4653 18.1934L23.6353 18.0453V18.0671C23.6135 18.0889 23.6135 18.1107 23.6353 18.1542L23.8836 18.4636C23.9054 18.4854 23.9272 18.4854 23.9489 18.4636L23.9664 18.4854L23.8008 18.6335L23.7791 18.6117C23.8008 18.5899 23.8226 18.5681 23.8008 18.5246L23.6745 18.3808L23.5525 18.4854ZM23.7398 18.0453C23.7181 18.0279 23.6745 18.0279 23.6527 18.0453V18.0279L23.9272 17.7752L24.0535 17.9016H24.0317C23.9664 17.8144 23.8836 17.858 23.8444 17.8798C23.8444 17.9016 23.8226 17.9016 23.8008 17.9233C23.8008 17.9233 23.8008 17.9408 23.8226 17.9843L23.9489 18.1107C23.9664 18.0889 24.0317 18.0453 23.9489 17.9408H23.9664L24.1363 18.1324V18.1499C24.0317 18.0453 23.9882 18.1063 23.9664 18.1324L24.0971 18.2544C24.1145 18.298 24.1363 18.298 24.1363 18.298L24.1973 18.237C24.2191 18.2152 24.2409 18.1499 24.1973 18.0279H24.2191L24.3019 18.1717L24.0317 18.4418L24.0099 18.4244C24.0317 18.4026 24.0535 18.3808 24.0099 18.3372L23.7398 18.0453ZM24.2409 17.4615C24.2191 17.4833 24.2191 17.5268 24.2583 17.5486C24.3019 17.5878 24.3454 17.5878 24.4282 17.5486C24.4718 17.5268 24.5502 17.5051 24.6155 17.5661C24.7201 17.6706 24.6765 17.7534 24.6591 17.797C24.6373 17.8188 24.5938 17.8406 24.572 17.858C24.5502 17.858 24.5502 17.858 24.5502 17.8798V17.9016L24.4064 17.7752H24.4282C24.511 17.8188 24.5938 17.8362 24.6373 17.7752C24.6809 17.7316 24.6373 17.688 24.6155 17.6706C24.572 17.6271 24.5284 17.6271 24.4674 17.6706C24.4064 17.6924 24.3237 17.6924 24.2583 17.6488C24.1755 17.5661 24.1755 17.5051 24.2147 17.4397L24.3019 17.3787C24.3237 17.3787 24.3237 17.3787 24.3019 17.3352L24.45 17.4397H24.4282C24.3237 17.3962 24.2583 17.4223 24.2409 17.4615ZM24.4282 17.296C24.3846 17.2742 24.3629 17.296 24.3411 17.3177H24.3237L24.5545 16.9822L24.6983 17.0868L24.6765 17.1086C24.6505 17.0862 24.6173 17.0739 24.5829 17.0739C24.5485 17.0739 24.5153 17.0862 24.4892 17.1086C24.4892 17.1304 24.4674 17.1522 24.4674 17.1696C24.45 17.1696 24.45 17.1914 24.4892 17.2132C24.511 17.235 24.6373 17.3177 24.6373 17.3177C24.6591 17.296 24.6983 17.2524 24.6155 17.1696V17.1478L24.8247 17.3177C24.6983 17.2524 24.6765 17.3177 24.6591 17.3352L24.8029 17.4397C24.8465 17.4615 24.8639 17.4615 24.8639 17.4615C24.8639 17.4397 24.8857 17.4179 24.9075 17.4005C24.9292 17.357 24.951 17.296 24.8639 17.2132L24.8857 17.1914L24.9902 17.3177L24.7811 17.6314H24.7593C24.7811 17.5878 24.7811 17.5661 24.7419 17.5268L24.4282 17.296ZM24.9902 16.9213L24.9292 17.0258C24.8421 16.9387 24.8029 16.8777 24.8029 16.8777L24.9902 16.9213H25.0338C25.0556 16.9213 25.0948 16.9387 25.1166 16.9387C25.1776 16.9605 25.1601 16.9822 25.1384 17.0258H25.1601L25.2647 16.8341C25.2211 16.8777 25.1994 16.8559 25.1601 16.8559C24.7201 16.7731 24.6809 16.7514 24.6809 16.7514V16.7731L25.012 17.1478C25.0338 17.1696 25.0338 17.2132 25.0338 17.235H25.0556L25.1166 17.1304L25.0948 17.1086C25.073 17.1522 25.0512 17.1696 25.012 17.1086L24.9685 17.065L25.0338 16.9213H24.9902ZM24.8639 16.4594C24.8465 16.4812 24.8465 16.5248 24.9075 16.5466C24.9685 16.564 24.9946 16.5466 25.0556 16.503C25.1166 16.4594 25.1776 16.4159 25.2603 16.4594C25.3911 16.5248 25.3649 16.6294 25.3475 16.6686L25.2821 16.7557V16.7949L25.1166 16.7078C25.2211 16.7296 25.3039 16.7078 25.3257 16.6468C25.3475 16.6032 25.3039 16.564 25.2821 16.5422C25.2386 16.5248 25.1994 16.5422 25.1384 16.5858C25.073 16.6468 25.0077 16.6729 24.9292 16.6294C24.8421 16.5858 24.8029 16.5248 24.8421 16.4594C24.8421 16.4159 24.8857 16.3984 24.9075 16.3767C24.9075 16.3549 24.9075 16.3549 24.8857 16.3331V16.3157L25.0556 16.3984H25.0338C24.9293 16.3767 24.8639 16.4202 24.8639 16.4594Z" fill="#00493D"/>
<path d="M18.2676 9.06959C17.9975 9.13059 17.8101 9.15235 17.5575 8.92147C17.3919 8.75591 17.4311 8.46399 17.601 8.35507C17.7884 8.23307 17.9539 8.15031 18.1848 8.21131C18.4157 8.27663 19.0213 8.83867 18.8732 8.86047C18.7251 8.86047 18.4985 9.00423 18.2676 9.06959ZM18.9124 8.06751C18.9995 8.00215 19.1041 7.96295 19.3743 7.93683C19.6269 7.91939 19.8099 7.91939 19.8753 8.11107C19.9624 8.33763 20.0234 8.60775 20.189 8.73411C20.0844 8.79511 19.5616 8.86047 19.3743 8.75591C19.1259 8.62955 19.0605 8.14595 18.9168 8.06751H18.9124ZM20.7118 8.08931C20.7946 8.02395 20.8991 8.02395 21.1693 8.04575C21.4394 8.06751 21.5439 8.08931 21.6049 8.27663C21.6703 8.48579 21.6049 8.75591 21.7356 8.94323C21.6049 8.98679 21.191 8.98679 21.0429 8.83867C20.8163 8.67311 20.8338 8.18951 20.7118 8.08495V8.08931Z" fill="white" stroke="black" stroke-width="0.152488"/>
<path d="M21.963 8.21058C21.7757 8.16702 21.6493 8.14962 21.5709 8.21058C21.6711 8.33694 21.5883 8.83798 21.7974 9.00354C21.9412 9.1081 22.3203 9.13422 22.403 8.89898C22.5076 8.68986 22.5076 8.37614 21.9673 8.21058H21.963ZM19.8151 8.00146C19.8761 7.94046 20.0024 7.9187 20.2508 7.9187C20.5253 7.9187 20.6865 7.96226 20.7736 8.12782C20.8607 8.33694 20.8346 8.60706 20.9827 8.77698C20.9217 8.85974 20.3553 8.85974 20.1898 8.73342C19.9589 8.5853 19.9371 8.10602 19.8151 8.00146ZM18.0419 8.18882C18.0419 8.08426 18.1857 8.06682 18.5647 8.04502C18.935 8.00146 18.9568 8.02326 19.0831 8.29338C19.1441 8.4415 19.2269 8.68986 19.3968 8.77262C18.935 8.88154 18.7869 8.94254 18.5385 8.79442C18.3572 8.68098 18.2073 8.52362 18.1029 8.33694C18.0811 8.27594 18.0811 8.21058 18.0375 8.18882H18.0419Z" fill="#073163" stroke="black" stroke-width="0.152488"/>
<path d="M19.0437 6.06319C18.6036 5.72771 18.0808 5.41403 17.6016 5.35303C18.1016 5.68643 18.5764 6.05631 19.0219 6.45967" fill="#F9D050"/>
<path d="M19.0437 6.06319C18.6036 5.72771 18.0808 5.41403 17.6016 5.35303C18.1016 5.68643 18.5764 6.05631 19.0219 6.45967" stroke="black" stroke-width="0.065352"/>
<path d="M19.2919 5.74915C18.7691 5.39191 18.1635 4.99543 17.5797 4.95623C18.126 5.27283 18.6126 5.68275 19.0174 6.16739M19.9585 5.16535C20.1943 4.62919 20.5437 4.15059 20.9823 3.76245C20.7732 4.20247 20.5467 5.09999 20.4377 5.45723" fill="#F9D050"/>
<path d="M19.2919 5.74915C18.7691 5.39191 18.1635 4.99543 17.5797 4.95623C18.126 5.27283 18.6126 5.68275 19.0174 6.16739M19.9585 5.16535C20.1943 4.62919 20.5437 4.15059 20.9823 3.76245C20.7732 4.20247 20.5467 5.09999 20.4377 5.45723" stroke="black" stroke-width="0.065352"/>
<path d="M20.4203 5.06095C20.6222 4.56999 21.0018 4.17327 21.4834 3.94995C21.1216 4.40131 20.8522 4.91943 20.6905 5.47483" fill="#F9D050"/>
<path d="M20.4203 5.06095C20.6222 4.56999 21.0018 4.17327 21.4834 3.94995C21.1216 4.40131 20.8522 4.91943 20.6905 5.47483" stroke="black" stroke-width="0.065352"/>
<path d="M20.6078 5.47515C21.0078 4.86283 21.5811 4.38351 22.2547 4.09839C21.7319 4.62119 20.9607 5.57971 20.7733 5.95875M20.8997 5.93695C21.2744 5.72783 22.0281 5.39235 22.5683 5.50127C22.2372 5.62327 21.2352 6.08075 20.7951 6.50335" fill="#F9D050"/>
<path d="M20.6078 5.47515C21.0078 4.86283 21.5811 4.38351 22.2547 4.09839C21.7319 4.62119 20.9607 5.57971 20.7733 5.95875M20.8997 5.93695C21.2744 5.72783 22.0281 5.39235 22.5683 5.50127C22.2372 5.62327 21.2352 6.08075 20.7951 6.50335" stroke="black" stroke-width="0.065352"/>
<path d="M20.817 5.78868C21.1699 5.414 21.8191 4.85196 22.5074 4.62108C22.0064 5.10032 20.939 6.18952 20.7952 6.35508M19.815 5.56212C19.5622 4.78664 19.1876 4.05904 18.6255 3.82812C19.0732 4.46816 19.3846 5.19328 19.5405 5.9586M19.3313 5.54036C18.9174 5.03932 18.351 4.53828 17.7062 4.43372C18.3381 4.8472 18.8373 5.43412 19.144 6.12416" fill="#F9D050"/>
<path d="M20.817 5.78868C21.1699 5.414 21.8191 4.85196 22.5074 4.62108C22.0064 5.10032 20.939 6.18952 20.7952 6.35508M19.815 5.56212C19.5622 4.78664 19.1876 4.05904 18.6255 3.82812C19.0732 4.46816 19.3846 5.19328 19.5405 5.9586M19.3313 5.54036C18.9174 5.03932 18.351 4.53828 17.7062 4.43372C18.3381 4.8472 18.8373 5.43412 19.144 6.12416" stroke="black" stroke-width="0.065352"/>
<path d="M19.5658 5.51906C19.043 4.57802 18.6422 4.41246 18.4156 4.2251C18.603 4.57802 19.0604 5.51906 19.3306 5.91554" fill="#F9D050"/>
<path d="M19.5658 5.51906C19.043 4.57802 18.6422 4.41246 18.4156 4.2251C18.603 4.57802 19.0604 5.51906 19.3306 5.91554" stroke="black" stroke-width="0.065352"/>
<path d="M18.5203 5.45776C18.8183 5.64516 19.0736 5.89304 19.2697 6.18536" stroke="black" stroke-width="0.065352"/>
<path d="M18.5203 5.89242C18.6423 5.99698 18.8732 6.12334 19.0824 6.31066L18.5203 5.89242ZM21.0037 6.2061C21.2128 6.04054 21.6703 5.77042 21.9012 5.6833L21.0037 6.2061ZM20.8556 6.06234C21.0647 5.78786 21.4829 5.41318 21.6311 5.28682L20.8556 6.06234ZM21.4394 4.76402C21.1586 5.07862 20.894 5.40726 20.6464 5.74866L21.4394 4.76402ZM20.8991 4.57666C20.7014 4.86914 20.5266 5.1765 20.3763 5.49594L20.8991 4.57666ZM19.2479 4.62022C19.3742 4.9557 19.6052 5.51774 19.6836 5.74866L19.2479 4.62022ZM19.0606 4.97314C19.1477 5.10382 19.3132 5.39138 19.3742 5.6005L19.0606 4.97314Z" fill="#F9D050"/>
<path d="M18.5203 5.89242C18.6423 5.99698 18.8732 6.12334 19.0824 6.31066M21.0037 6.2061C21.2128 6.04054 21.6703 5.77042 21.9012 5.6833M20.8556 6.06234C21.0647 5.78786 21.4829 5.41318 21.6311 5.28682M21.4394 4.76402C21.1586 5.07862 20.894 5.40726 20.6464 5.74866M20.8991 4.57666C20.7014 4.86914 20.5266 5.1765 20.3763 5.49594M19.2479 4.62022C19.3742 4.9557 19.6052 5.51774 19.6836 5.74866M19.0606 4.97314C19.1477 5.10382 19.3132 5.39138 19.3742 5.6005" stroke="black" stroke-width="0.065352"/>
<path d="M19.7719 4.86868C19.7719 4.68132 19.8982 4.47656 20.0245 4.47656C20.1683 4.47656 20.2729 4.72492 20.2729 4.86868C20.2729 5.0386 20.1465 5.18236 20.0245 5.18236C19.8939 5.18236 19.7719 5.06036 19.7719 4.86868Z" fill="#F9D050" stroke="black" stroke-width="0.065352"/>
<path d="M19.5014 5.03965C19.5231 4.83053 19.6669 4.66497 19.7933 4.68241C19.9196 4.70417 19.9806 4.95689 19.9588 5.10065C19.9371 5.26621 19.7933 5.39257 19.6887 5.37077C19.5841 5.37077 19.4796 5.22701 19.5014 5.03965ZM20.0634 5.10065C20.0198 4.91333 20.1069 4.70853 20.2333 4.68241C20.3553 4.66497 20.4817 4.86973 20.5034 5.03965C20.547 5.20521 20.4381 5.37077 20.3335 5.37077C20.2333 5.39257 20.0852 5.28801 20.0634 5.10065Z" fill="#F9D050" stroke="black" stroke-width="0.065352"/>
<path d="M19.75 5.26566C19.75 5.06086 19.8764 4.87354 20.0027 4.87354C20.1465 4.87354 20.251 5.1001 20.251 5.26566C20.251 5.43558 20.129 5.57934 20.0027 5.57934C19.8764 5.57934 19.75 5.45734 19.75 5.26566Z" fill="#F9D050" stroke="black" stroke-width="0.065352"/>
<path d="M19.375 5.37014C19.375 5.18282 19.5231 4.97802 19.6451 4.97802C19.7758 4.97802 19.8978 5.22638 19.8978 5.37014C19.8978 5.54006 19.7497 5.68382 19.6451 5.68382C19.5231 5.68382 19.375 5.56186 19.375 5.37014ZM20.1462 5.28738C20.1462 5.10002 20.2768 4.89526 20.3988 4.89526C20.5426 4.89526 20.6472 5.14358 20.6472 5.28738C20.6472 5.45726 20.5252 5.60106 20.3988 5.60106C20.2725 5.60106 20.1462 5.4747 20.1462 5.28738Z" fill="#F9D050" stroke="black" stroke-width="0.065352"/>
<path d="M20.0641 5.45752C20.0641 5.2484 20.2122 5.06104 20.3342 5.06104C20.4649 5.06104 20.5869 5.2876 20.5869 5.45316C20.5869 5.62308 20.4605 5.7712 20.3342 5.7712C20.2122 5.7712 20.0641 5.64052 20.0641 5.45752Z" fill="#F9D050" stroke="black" stroke-width="0.065352"/>
<path d="M19.7322 5.6448C19.7322 5.43568 19.8542 5.24836 19.9805 5.24836C20.1287 5.24836 20.2332 5.49668 20.2332 5.64044C20.2332 5.81472 20.1025 5.95852 19.9805 5.95852C19.8542 5.95852 19.7278 5.8278 19.7278 5.6448H19.7322ZM19.2094 5.6448C19.2094 5.43568 19.3139 5.24836 19.4185 5.24836C19.5231 5.24836 19.6058 5.49668 19.6058 5.64044C19.6058 5.81472 19.5013 5.95852 19.4185 5.95852C19.3139 5.95852 19.2094 5.8278 19.2094 5.6448ZM20.377 5.6056C20.377 5.41392 20.4816 5.22656 20.5861 5.22656C20.6907 5.22656 20.7952 5.45748 20.7952 5.60124C20.7952 5.7886 20.6689 5.91492 20.5861 5.91492C20.4816 5.91492 20.377 5.7886 20.377 5.60124V5.6056Z" fill="#F9D050" stroke="black" stroke-width="0.065352"/>
<path d="M20.5039 5.95422C20.5475 5.74946 20.6695 5.57953 20.7523 5.60569C20.8394 5.62309 20.8568 5.87146 20.8176 6.01958C20.7958 6.20694 20.6695 6.31149 20.5867 6.28969C20.4996 6.27225 20.4604 6.12414 20.4996 5.95857L20.5039 5.95422Z" fill="#F9D050" stroke="black" stroke-width="0.065352"/>
<path d="M20.1069 5.89368C20.1287 5.70636 20.2507 5.519 20.3552 5.5408C20.4816 5.5408 20.5425 5.78912 20.5251 5.93292C20.5033 6.1246 20.3944 6.25096 20.2942 6.22916C20.1897 6.22916 20.0851 6.08104 20.1069 5.89368ZM19.5231 5.95468C19.4577 5.74992 19.3314 5.60616 19.2486 5.62356C19.1658 5.64536 19.144 5.89368 19.1876 6.04184C19.2312 6.2074 19.3531 6.31196 19.4359 6.29016C19.5013 6.27272 19.5666 6.1246 19.5231 5.95904V5.95468Z" fill="#F9D050" stroke="black" stroke-width="0.065352"/>
<path d="M19.375 5.91521C19.375 5.72785 19.4796 5.54053 19.5841 5.54053C19.7105 5.54053 19.7932 5.77141 19.7932 5.91521C19.7932 6.10253 19.6887 6.22889 19.5841 6.22889C19.497 6.22889 19.375 6.10253 19.375 5.91521Z" fill="#F9D050" stroke="black" stroke-width="0.065352"/>
<path d="M19.6886 5.99752C19.6886 5.78836 19.815 5.6054 19.937 5.6054C20.0851 5.6054 20.1896 5.83196 20.1896 5.99752C20.1896 6.16744 20.0633 6.3112 19.937 6.3112C19.815 6.3112 19.6886 6.18484 19.6886 5.99752ZM19.7932 3.70147C19.7496 3.86703 19.6058 4.01516 19.706 4.24608C19.5231 4.18072 19.3575 4.15892 19.2094 4.32884C19.3967 4.30708 19.5623 4.3724 19.645 4.4944C19.4795 4.47264 19.3967 4.55976 19.3532 4.66432C19.5013 4.62076 19.645 4.5772 19.7104 4.59896C19.645 4.66432 19.5405 4.76452 19.5231 4.85168C19.645 4.74712 19.7932 4.76452 19.876 4.70352C19.815 4.85168 19.937 4.99544 20.0415 5.1392C20.0241 4.93444 20.1461 4.79068 20.0851 4.68176C20.2724 4.72532 20.2942 4.89088 20.5644 4.89088C20.4598 4.82988 20.3988 4.62076 20.2724 4.62076C20.3334 4.59896 20.5861 4.5772 20.6297 4.62076C20.5861 4.5336 20.438 4.4552 20.3552 4.4552C20.4424 4.36808 20.5861 4.20252 20.6907 4.15892C20.5426 4.18072 20.316 4.20252 20.2332 4.32884C20.438 4.15892 20.3988 3.8496 20.6253 3.80604C20.5034 3.78425 20.316 3.86703 20.1679 4.01516C20.2332 3.88881 20.2332 3.72326 20.316 3.67969C20.1461 3.72326 19.9588 3.93238 19.8978 4.03696C19.8887 3.91865 19.853 3.80395 19.7932 3.70147Z" fill="#F9D050" stroke="black" stroke-width="0.065352"/>
<path d="M19.8984 4.03739C19.8984 4.09839 19.8984 4.22475 19.8766 4.26395L19.8984 4.03739ZM20.1685 4.01562C20.1249 4.05919 20.0421 4.20295 20.0421 4.32931L20.1685 4.01562Z" fill="#F9D050"/>
<path d="M19.8984 4.03739C19.8984 4.09839 19.8984 4.22475 19.8766 4.26395M20.1685 4.01562C20.1249 4.05919 20.0421 4.20295 20.0421 4.32931" stroke="black" stroke-width="0.065352"/>
<path d="M20.2934 4.26416C20.2216 4.30704 20.1687 4.37552 20.1453 4.45584" stroke="black" stroke-width="0.065352"/>
<path d="M18.0806 6.33247C17.9324 6.33247 17.8104 6.27147 17.7233 6.16691C17.5796 5.97523 17.1831 5.89243 17.0132 6.06235C16.9522 6.10591 16.8694 6.10591 16.8084 6.12335C16.7038 6.12335 16.5775 6.22791 16.6167 6.43703C16.7038 6.37167 16.7212 6.43703 16.7866 6.43703C16.8302 6.41527 16.8084 6.45883 16.8084 6.49803C16.8084 6.60259 17.035 6.81171 17.2441 6.78995C17.475 6.78995 17.5796 6.87707 17.6188 6.92063C17.6841 6.97727 17.6405 6.95987 17.6841 7.06443C17.7451 7.12543 17.7669 7.14718 17.6623 7.22998C17.6148 7.26962 17.5765 7.31927 17.5502 7.37535C17.524 7.43147 17.5104 7.49263 17.5104 7.55455C17.5104 7.61651 17.524 7.67767 17.5502 7.73375C17.5765 7.78983 17.6148 7.83946 17.6623 7.87914C17.9324 8.0839 18.6208 8.40195 19.3963 7.79199C20.1457 7.20819 21.3133 7.54367 21.4004 7.74843C21.505 7.96191 21.5442 8.0839 21.566 8.18846C21.5878 8.27558 21.6924 8.35839 21.8405 8.33659C21.9843 8.33659 22.1498 8.39759 22.2326 8.46295C22.3415 8.52395 22.4853 8.50651 22.4461 8.31483C22.359 7.73099 22.006 7.64823 21.9668 7.37811C22.1716 7.39555 22.3154 7.39555 22.4025 7.31275C22.4635 7.22999 22.5463 7.08183 22.6334 7.04263C22.6944 6.99907 22.6944 6.95551 22.6116 6.97727C22.5071 6.99907 22.4461 7.04263 22.2544 7.02087C21.2959 6.91627 18.6034 6.18435 18.0806 6.33247Z" fill="#059334" stroke="black" stroke-width="0.152488"/>
<path d="M22.3414 7.04284C22.1822 7.1552 22.0461 7.2972 21.9406 7.46108C21.7358 7.7312 21.1084 8.00132 20.3329 8.00132C19.5835 8.00132 19.1261 7.87932 18.7906 7.6092C18.6474 7.49468 18.4926 7.3954 18.3288 7.31296C18.1023 7.2084 18.0587 6.97748 18.1197 6.79012C18.0587 6.89468 18.0195 6.99928 17.8931 6.97748C17.806 6.97748 17.6404 6.97748 17.684 7.0646C17.6622 7.02104 17.6622 6.96004 17.6404 6.93392L17.5969 6.89468C17.6622 6.93828 17.8103 6.81192 17.9149 6.81192C17.9977 6.83372 18.1023 6.72912 18.0805 6.6028L18.0195 6.33268C18.185 6.24552 20.3765 6.64636 20.8165 6.68556C21.2522 6.70736 22.507 6.89468 22.3414 7.04284Z" fill="black" stroke="black" stroke-width="0.152488"/>
<path d="M18.3732 6.24992C18.5823 6.0408 18.8307 5.93624 19.0834 5.99724H19.1444C19.2751 5.89268 19.5626 5.87088 19.7325 5.95368H19.8153C20.0636 5.87088 20.5429 5.95368 20.7128 6.1236L20.7738 6.16716C21.3402 6.1236 21.6713 6.37192 22.0678 6.77276C22.1114 6.81632 22.1724 6.89476 22.2769 6.91652C22.4032 6.93832 22.425 7.00368 22.3205 7.06468C22.153 7.16828 22.0054 7.30108 21.8848 7.45676C21.6931 7.70948 21.0875 7.96216 20.3338 7.96216C19.6062 7.96216 19.1662 7.83144 18.8307 7.58312C18.6433 7.43936 18.4996 7.35656 18.395 7.2912C18.2686 7.24764 18.1031 7.08208 18.1641 6.91652C18.2076 6.75096 18.1031 6.54184 18.0203 6.33272C18.0813 6.28916 18.2469 6.22816 18.3296 6.27172L18.3732 6.24992Z" fill="#059334" stroke="black" stroke-width="0.152488"/>
<path d="M22.068 6.77276C21.6759 6.37192 21.3404 6.1236 20.774 6.1628C20.774 6.1846 20.774 6.24992 20.7522 6.29352C21.1469 6.47064 21.4969 6.73416 21.7761 7.06468C21.8632 6.97752 22.007 6.87732 22.068 6.77276ZM20.713 6.1236C20.5431 5.95804 20.0639 5.87088 19.8155 5.95804C19.8155 6.0408 19.8155 6.16716 19.7719 6.24992C19.9201 6.31092 20.0421 6.45908 20.1684 6.60284C20.2555 6.58104 20.4603 6.52008 20.5649 6.49828C20.6273 6.37892 20.6769 6.25336 20.713 6.1236ZM19.7327 5.95368C19.5628 5.87088 19.2709 5.89268 19.1446 5.99724C19.101 6.0844 19.0836 6.24992 19.0836 6.33272C19.1707 6.33272 19.2927 6.39372 19.3319 6.43728C19.4626 6.39372 19.6282 6.31092 19.6892 6.24992C19.7109 6.1628 19.7502 6.0408 19.7327 5.95804V5.95368ZM18.3734 6.24992C18.5825 6.0408 18.8309 5.93624 19.0836 5.99724C19.04 6.0626 19.0226 6.1846 19.0226 6.31092C18.7917 6.28916 18.4998 6.35452 18.3734 6.43728V6.24992Z" fill="#00493D" stroke="black" stroke-width="0.152488"/>
<path d="M21.6931 7.1041C21.4307 6.79334 21.1035 6.54354 20.7346 6.37218C20.7346 6.39394 20.6911 6.47674 20.6693 6.5421C20.7956 6.72942 21.0439 7.1477 21.1485 7.37858C21.2531 7.33502 21.545 7.2087 21.6931 7.1041ZM20.1073 7.56594C20.1433 7.28118 20.1637 6.99466 20.1682 6.70766C20.2728 6.68586 20.4819 6.62486 20.5647 6.6031C20.6693 6.77302 20.922 7.21302 21.0265 7.41782C20.7738 7.47882 20.3556 7.58338 20.1073 7.56594ZM19.3753 6.56386C19.4799 6.5203 19.628 6.43318 19.7282 6.35474C19.8153 6.41574 19.9809 6.56386 20.0419 6.64666C20.0419 6.83398 19.9809 7.37858 19.9591 7.56158C19.7935 7.56158 19.5234 7.52238 19.3753 7.43958C19.3971 7.1259 19.4189 6.77302 19.3753 6.56386ZM18.3297 6.81222C18.3515 6.76866 18.3732 6.62486 18.3732 6.56386C18.5388 6.4593 18.9571 6.35474 19.2707 6.5203C19.2925 6.72942 19.2707 7.25226 19.2489 7.37858C18.9695 7.15134 18.662 6.96098 18.334 6.81222H18.3297Z" fill="#00493D" stroke="black" stroke-width="0.152488"/>
<path d="M17.2871 6.43304C17.2435 6.43304 17.2217 6.31104 17.1389 6.31104C17.1172 6.31104 17.0562 6.33284 17.0344 6.31104C17.0344 6.35464 17.0562 6.39819 17.078 6.41563C17.0997 6.47659 17.2043 6.4374 17.2871 6.4374V6.43304Z" fill="black"/>
<path d="M17.2871 6.7901C17.5354 6.7901 17.579 6.47642 17.7053 6.45898M17.4308 6.8119C17.6182 6.89902 17.7663 6.45898 17.9101 6.47642M17.0562 6.27166C17.1172 6.27166 17.1607 6.1845 17.2653 6.28906C17.3088 6.33266 17.3698 6.35442 17.4134 6.35442M17.3698 6.58098C17.2827 6.7117 17.1389 6.7901 17.0562 6.7509M17.0126 6.0625C16.9516 6.1061 16.9124 6.1845 16.8688 6.24986M16.8078 6.37186V6.47642" stroke="black" stroke-width="0.152488"/>
<path d="M23.7795 9.09172V13.161C23.7795 16.69 22.1108 17.9012 19.8758 18.8597C17.6407 17.9012 15.9547 16.69 15.9547 13.161V9.0874H23.7795V9.09172Z" fill="white"/>
<path d="M19.8755 12.5341C20.0628 12.5341 20.3547 12.3686 20.6075 12.1159C20.8776 11.824 21.3394 11.7238 21.8186 12.1159C22.2979 12.5124 22.5898 12.3468 22.8425 12.1159C23.0908 11.8893 23.2999 11.8022 23.7792 11.8022V9.09229H15.95V11.8066C16.4293 11.8066 16.6384 11.8937 16.8911 12.1202C17.1394 12.3512 17.4313 12.5167 17.9149 12.1202C18.416 11.7281 18.8517 11.8283 19.1435 12.1202C19.3745 12.3729 19.6664 12.5385 19.8755 12.5385V12.5341Z" fill="#C8102E"/>
<path d="M19.8755 14.6247C20.1282 14.6247 20.6292 14.3502 20.7512 14.2893C21.213 14.0148 21.5441 14.2675 21.8186 14.3938C22.1105 14.5158 22.6508 14.6639 22.9863 14.3938C23.3217 14.1193 23.5091 14.1411 23.74 14.1411C23.7835 13.8274 23.7835 13.5137 23.7835 13.1608V12.9081C23.4873 12.8471 23.3435 12.9299 23.0298 13.2044C22.7161 13.4745 22.3589 13.4135 21.8971 13.248C21.4614 13.0563 21.0257 12.7251 20.5857 13.248C20.4031 13.4519 20.1485 13.5769 19.8755 13.5965C19.5618 13.5965 19.2917 13.3917 19.1653 13.248C18.7079 12.7251 18.2896 13.0563 17.8496 13.248C17.3921 13.4135 17.0131 13.4745 16.7037 13.2044C16.4119 12.9299 16.2637 12.8471 15.95 12.9081V13.1608C15.95 13.5137 15.9718 13.8274 16.011 14.1411C16.2419 14.1411 16.4119 14.1193 16.7429 14.3938C17.0784 14.6639 17.6405 14.5158 17.9149 14.3938C18.2069 14.2675 18.5379 14.0148 18.9998 14.2893C19.1261 14.3502 19.6054 14.6203 19.8755 14.6203V14.6247ZM19.8755 15.5222C20.2373 15.5027 20.5887 15.395 20.8993 15.2085C21.3176 14.9776 21.6095 15.0778 22.0277 15.2913C22.4634 15.5004 22.8207 15.4351 23.0734 15.2913C23.1954 15.2042 23.2999 15.0386 23.5701 15.104C23.4481 15.6268 23.2564 16.0843 23.0298 16.4589C22.8518 16.5179 22.6639 16.541 22.4769 16.5268C22.2899 16.5126 22.1077 16.4614 21.9406 16.3761C21.5049 16.167 20.9603 16.0407 20.6684 16.228C20.4317 16.3821 20.1577 16.4694 19.8755 16.4807C19.6446 16.4807 19.3527 16.3936 19.0826 16.228C18.7907 16.0407 18.2461 16.167 17.8104 16.3761C17.6437 16.4621 17.4615 16.5141 17.2745 16.529C17.0875 16.544 16.8995 16.5216 16.7212 16.4633C16.4946 16.0843 16.3073 15.6224 16.1809 15.104C16.4511 15.0386 16.5556 15.2085 16.682 15.2913C16.8382 15.3795 17.0145 15.4258 17.1939 15.4258C17.3733 15.4258 17.5496 15.3795 17.7058 15.2913C18.1415 15.0822 18.4334 14.9776 18.8517 15.2042C19.1619 15.3922 19.5134 15.5013 19.8755 15.5222ZM19.8755 18.8595C20.683 18.5466 21.437 18.11 22.1105 17.5655C21.9406 17.5045 21.8404 17.5438 21.6923 17.4392C21.5441 17.3347 21.1085 17.2954 20.7338 17.5045C20.4739 17.6561 20.1785 17.736 19.8777 17.736C19.5769 17.736 19.2814 17.6561 19.0216 17.5045C18.6425 17.2954 18.2069 17.3347 18.0631 17.4392C17.9149 17.5438 17.8104 17.5045 17.6405 17.5699C18.3113 18.1172 19.066 18.5527 19.8755 18.8595Z" fill="#0B50A0"/>
<path d="M19.3319 10.1116C19.3537 10.1552 19.3145 10.2597 19.3319 10.2989C19.3755 10.386 19.3755 10.4296 19.4365 10.4688H19.5846C20.0421 10.4688 20.5867 10.2815 21.0441 10.2815C21.4842 10.2815 21.7543 10.4253 22.0026 10.4253C22.1508 10.4253 22.2771 10.3207 22.2771 10.2161C22.2771 10.1116 22.1115 10.0506 21.7543 10.0506C21.2532 10.0506 20.9831 10.1769 20.5649 10.1769C19.9375 10.1769 19.8329 9.946 19.8329 9.84144C19.8329 9.73688 19.9375 9.59312 20.273 9.59312C20.3775 9.59312 20.4603 9.57132 20.5039 9.52776C20.5257 9.4842 20.5866 9.4014 20.713 9.34044C20.8568 9.25328 21.1487 9.34044 21.2968 9.23584C21.2968 9.323 21.1705 9.445 21.0659 9.48856C21.275 9.4232 21.5016 9.4232 21.5452 9.59312C21.4406 9.52776 21.275 9.57132 21.214 9.59312C21.1269 9.61056 21.0877 9.63668 21.0049 9.65412C21.0877 9.63232 21.1313 9.79788 21.2532 9.79788C21.1313 9.90244 20.9221 9.90244 20.713 9.81968C20.6476 9.79788 20.4821 9.73688 20.3775 9.73688C20.1684 9.73688 20.0421 9.78044 20.0421 9.86324C20.0421 9.9678 20.1728 10.0288 20.5431 10.0288C20.9221 10.0288 21.1312 9.92424 21.6933 9.92424C21.6497 9.86324 21.7151 9.79788 21.6323 9.73688C21.8414 9.73688 22.068 9.79788 22.1551 9.946C22.1333 9.79788 22.2553 9.67588 22.2161 9.54956C22.3424 9.57132 22.447 9.69332 22.4644 9.79788C22.4644 9.73688 22.5516 9.73688 22.5516 9.67588C22.6098 9.7074 22.657 9.75608 22.6866 9.81532C22.7162 9.87456 22.7269 9.94148 22.7171 10.007C22.7781 9.90244 22.8435 9.946 22.8827 9.81968C22.9263 9.9068 22.9045 10.1552 22.7564 10.2379C22.887 10.1508 23.07 10.1508 23.1964 10.2989C23.07 10.2815 23.009 10.3425 22.948 10.3643C22.644 10.5196 22.3043 10.5918 21.9634 10.5734C21.6323 10.5516 21.5887 10.4862 21.3796 10.4862C21.506 10.508 21.7543 10.7607 21.9896 10.7607C22.1333 10.7607 22.2379 10.7607 22.2989 10.739C22.3599 10.7172 22.4644 10.739 22.5472 10.7825C22.6125 10.8435 22.7389 10.9045 22.8217 10.8871C22.7999 10.9699 22.7563 11.0091 22.6953 11.0308C22.7999 11.0962 22.7389 11.1354 22.8435 11.2182C22.7999 11.2182 22.7563 11.2618 22.6953 11.24C22.7563 11.301 22.7564 11.3881 22.8217 11.4273C22.7999 11.4273 22.7345 11.4491 22.6953 11.4273C22.7563 11.5145 22.6954 11.6147 22.7564 11.6582C22.8217 11.7454 22.6954 11.8456 22.5908 11.7628C22.6126 11.8238 22.5472 11.8892 22.4862 11.8674C22.4252 11.8456 22.3817 11.7802 22.3991 11.7628C22.3991 11.741 22.3991 11.741 22.4252 11.7192C22.3817 11.7846 22.2989 11.7846 22.2553 11.7628C22.2379 11.741 22.2117 11.7192 22.2117 11.7018C22.0679 11.7454 22.007 11.6147 22.0288 11.5537C22.0462 11.4927 22.1725 11.4665 22.2161 11.4927C22.2597 11.5101 22.2989 11.5362 22.3424 11.4927C22.386 11.4709 22.4034 11.4273 22.4034 11.3881C22.4034 11.3228 22.3424 11.1354 22.068 11.1572C21.7543 11.179 21.2532 11.0962 21.0049 11.0091C20.9831 10.9916 20.9614 10.9916 20.9396 10.9655C20.9396 11.0526 20.8568 11.0962 20.8568 11.179C20.8568 11.2836 20.9004 11.3663 21.0267 11.4056C20.9614 11.5101 20.8568 11.4927 20.8176 11.4273C20.8176 11.4927 20.7304 11.5319 20.7304 11.6147C20.713 11.5711 20.6869 11.5537 20.6694 11.5101C20.6084 11.6582 20.4385 11.741 20.3558 11.7018C20.2512 11.7846 20.1292 11.7628 20.0856 11.68C20.0246 11.7236 19.9375 11.7236 19.8983 11.68C19.8983 11.741 19.8547 11.7236 19.8329 11.8064C19.8329 11.8499 19.7502 11.8674 19.711 11.8499C19.6674 11.8238 19.6456 11.741 19.6892 11.7018C19.6282 11.7454 19.5628 11.7454 19.5236 11.7018C19.5236 11.6582 19.5236 11.5972 19.5672 11.5711H19.6064C19.5628 11.5537 19.5018 11.5711 19.4582 11.5537C19.4147 11.5101 19.4147 11.4665 19.4365 11.4273C19.4582 11.4056 19.5236 11.3663 19.5672 11.4056L19.5846 11.4273C19.5846 11.3838 19.6064 11.3446 19.6282 11.3446C19.6717 11.3228 19.7284 11.3228 19.7937 11.3881C19.8373 11.4491 19.8765 11.4491 20.0028 11.4317C20.1074 11.4317 20.273 11.3228 20.395 11.2182C20.0464 11.1572 20.2512 10.9263 20.3558 10.8435C20.273 10.8217 20.1466 10.8217 20.0638 10.8653C19.6282 11.0962 19.1664 11.3663 18.8744 11.2836C18.8785 11.3272 18.8935 11.3692 18.918 11.4056C18.8526 11.4056 18.7263 11.4056 18.6871 11.3446C18.6653 11.3881 18.6261 11.4927 18.6653 11.5754C18.6218 11.5319 18.4998 11.4883 18.4344 11.4709C18.478 11.5145 18.4344 11.5972 18.4562 11.6582C18.3952 11.5972 18.2906 11.5537 18.247 11.5972C18.2035 11.6408 18.1207 11.6582 18.0597 11.6408C18.0191 11.6982 17.961 11.741 17.8942 11.7628C17.8942 11.7192 17.8942 11.6582 17.8724 11.6364C17.8506 11.7018 17.7852 11.7846 17.7068 11.8238C17.7068 11.7802 17.7068 11.7192 17.685 11.68C17.685 11.7628 17.5195 11.8064 17.4977 11.8674C17.5195 11.8064 17.5195 11.741 17.5195 11.7018C17.4964 11.7388 17.4658 11.7707 17.4299 11.7954C17.3939 11.8202 17.3532 11.8372 17.3104 11.8456C17.3278 11.802 17.3539 11.7584 17.3278 11.7192C17.3104 11.8064 17.184 11.8499 17.0794 11.8238C17.0794 11.8674 16.9923 11.9284 16.8921 11.8674C16.8268 11.8456 16.7875 11.7802 16.8268 11.741C16.744 11.741 16.6612 11.6582 16.7048 11.5972C16.7048 11.5754 16.7222 11.5537 16.7222 11.5319C16.6612 11.4883 16.6394 11.4056 16.7048 11.3446C16.7222 11.3228 16.7875 11.3228 16.8268 11.3228C16.8268 11.1572 16.9749 11.1572 17.0359 11.2792C17.0794 11.3446 17.2058 11.4491 17.3104 11.4273C17.3539 11.4273 17.3714 11.4056 17.4149 11.4056C17.6023 11.3436 17.7788 11.2524 17.9377 11.1354C17.9552 11.0744 17.9552 11.0308 17.9552 10.9916C17.8724 11.0352 17.7896 11.0744 17.746 11.1354V11.0744C17.685 11.0744 17.5805 11.0526 17.5369 11.0526C17.5587 11.0308 17.5805 10.9263 17.624 10.9045C17.5195 10.9263 17.4149 10.9045 17.3278 10.8871C17.3714 10.8435 17.3714 10.7825 17.3931 10.7172C17.3496 10.739 17.245 10.6998 17.1622 10.7172C17.184 10.6562 17.2058 10.5734 17.2668 10.5516C17.1796 10.5734 17.0794 10.5516 16.9749 10.508C17.062 10.508 17.1012 10.4035 17.1622 10.4035C16.9966 10.4035 16.9531 10.3207 16.8703 10.2815C16.9313 10.2989 16.9749 10.2379 17.0359 10.2379C16.9749 10.2161 16.8703 10.1116 16.9139 10.0506C16.8921 10.0724 16.8703 10.1116 16.8268 10.1377C16.7832 10.1552 16.7048 10.1377 16.6394 10.0724C16.5958 9.98524 16.6176 9.88504 16.7048 9.86324C16.6856 9.862 16.6673 9.85532 16.6518 9.84396C16.6364 9.83264 16.6245 9.81708 16.6176 9.7992C16.6108 9.78132 16.6092 9.76184 16.613 9.74308C16.6169 9.72432 16.626 9.70704 16.6394 9.69332C16.6612 9.64976 16.744 9.59312 16.7875 9.64976L16.8485 9.73688C16.8268 9.69332 16.8268 9.61056 16.8268 9.54956C16.8485 9.48856 16.8921 9.48856 16.9574 9.4624C17.0141 9.4624 17.0576 9.52776 17.0576 9.59312C17.0576 9.65412 17.0794 9.69332 17.1012 9.78044L17.1186 9.69332C17.1186 9.61056 17.2232 9.63232 17.2886 9.64976C17.3496 9.67588 17.3714 9.79788 17.2886 9.86324C17.245 9.9068 17.2668 9.9678 17.3104 10.007C17.4541 10.2379 17.7024 10.4253 17.916 10.447C17.916 10.3599 17.9595 10.2815 18.0205 10.2161C18.0205 10.1726 18.0379 10.1116 18.0641 10.0724C18.0815 9.946 18.1425 9.88504 18.2253 9.92424C18.2078 9.90244 18.1817 9.88068 18.1817 9.86324C18.1207 9.79788 18.0597 9.69332 18.1033 9.61056C18.1468 9.52776 18.2688 9.54956 18.3124 9.59312C18.2906 9.4624 18.4344 9.3622 18.4344 9.29684C18.4562 9.3622 18.4998 9.445 18.478 9.50596C18.4998 9.4232 18.6435 9.31864 18.7481 9.27944C18.7045 9.34044 18.8352 9.445 18.8134 9.50596C18.857 9.4014 19.0226 9.34044 19.1446 9.34044C19.101 9.384 19.101 9.46676 19.101 9.50596C19.1664 9.50596 19.2753 9.48856 19.3145 9.4232C19.3145 9.51032 19.2709 9.59312 19.2273 9.63232C19.2491 9.61056 19.3319 9.61056 19.3972 9.61056C19.3319 9.67588 19.3537 9.74124 19.2927 9.78044C19.3755 9.73688 19.48 9.73688 19.5018 9.82404C19.5454 9.88504 19.48 9.9896 19.4365 10.0506C19.3929 10.0724 19.3537 10.1116 19.3319 10.1116Z" fill="#F9D050" stroke="black" stroke-width="0.152488"/>
<path d="M18.0416 10.364C17.8935 10.425 17.8499 10.5731 17.8281 10.6559" stroke="black" stroke-width="0.152488"/>
<path d="M18.0199 10.5078C17.8107 10.6385 17.7236 10.7387 17.7672 10.9697M18.1201 11.1396C18.2508 11.096 18.3292 11.0524 18.4337 10.8651" stroke="black" stroke-width="0.152488"/>
<path d="M18.3735 10.9485C18.3299 11.0356 18.3735 11.1794 18.3125 11.2404C18.3685 11.2125 18.4169 11.1713 18.4534 11.1204C18.4898 11.0696 18.5133 11.0105 18.5217 10.9485" stroke="black" stroke-width="0.152488"/>
<path d="M18.4172 11.1791C18.4999 11.1355 18.6263 11.0092 18.6873 10.8654C18.6655 10.9264 18.6873 11.0309 18.6437 11.0963C18.7483 10.9917 18.7919 10.9264 18.8136 10.8218L18.8311 10.909C18.8746 10.8654 18.9182 10.8218 18.9182 10.7391M18.9139 10.8V10.9046C19.001 10.8436 19.0228 10.7608 19.0228 10.6562" stroke="black" stroke-width="0.152488"/>
<path d="M19.0009 10.783C19.1272 10.6958 19.1446 10.5738 19.1446 10.3865M19.1446 10.5956C19.2318 10.5303 19.2492 10.4911 19.2492 10.2994M18.9791 9.73734C18.9355 9.73734 18.8919 9.7591 18.8919 9.82446C18.8919 9.8637 18.8309 9.92466 18.8309 9.99002C18.8135 10.0728 18.7699 10.0946 18.7089 10.0728C18.6436 10.0292 18.6436 10.0292 18.6436 9.96826C18.6436 9.8811 18.7482 9.8637 18.7482 9.7809C18.7699 9.73734 18.7917 9.67634 18.8135 9.67634C18.7089 9.73734 18.5608 9.69378 18.5391 9.57178" stroke="black" stroke-width="0.152488"/>
<path d="M19.1655 9.79863C19.1219 9.82039 19.0784 9.75503 19.0217 9.78119C18.9999 9.78119 18.9346 9.79863 18.9172 9.78119" stroke="black" stroke-width="0.152488"/>
<path d="M18.8741 9.90293C18.8959 9.92473 19.0005 9.96829 19.1051 9.92473C19.0179 9.94653 18.9569 9.84193 19.0397 9.78097M18.6868 9.69381C18.5997 9.69381 18.5387 9.75917 18.5605 9.82453C18.5823 9.88553 18.665 9.88553 18.726 9.84193M18.5387 10.7395C18.5605 10.7177 18.5823 10.6785 18.5823 10.6523C18.6258 10.6523 18.6694 10.6349 18.6868 10.6131C18.7696 10.6131 18.8306 10.5521 18.8524 10.4911C18.8959 10.4911 18.9177 10.3865 18.9395 10.343C18.9569 10.3648 19.0005 10.343 19.0223 10.2559C19.0659 10.282 19.1269 10.2559 19.1443 10.1949M18.2903 10.0511C18.2903 10.0729 18.2468 10.1121 18.2032 10.1382C18.225 10.1774 18.2032 10.282 18.164 10.2994C18.1858 10.343 18.164 10.404 18.1422 10.4475C18.1422 10.4693 18.164 10.5347 18.164 10.5521M18.3731 9.63281C18.3295 9.73737 18.3513 9.86373 18.4341 9.88553" stroke="black" stroke-width="0.152488"/>
<path d="M18.4169 9.96415C18.3951 10.0731 18.3951 10.2168 18.3733 10.2822C18.3515 10.3257 18.3123 10.4695 18.4779 10.5087C18.6652 10.5523 18.7698 10.5305 18.8743 10.2168M19.1881 11.0315C19.1881 11.0533 19.1663 11.0969 19.1271 11.0969M19.3318 10.9923C19.3318 11.0359 19.2883 11.0969 19.2708 11.1143M19.4799 10.9487C19.4799 10.9923 19.4799 11.0533 19.4364 11.0751M18.2078 9.65479C18.2252 9.65479 18.2513 9.69835 18.2687 9.73759C18.2078 9.69399 18.1424 9.79859 18.1816 9.86391M18.1424 10.0077L18.0596 10.0731M18.0814 10.195C18.0596 10.195 18.0379 10.2168 18.0204 10.2168M17.0793 9.82035C17.0793 9.79859 17.0793 9.79859 17.1011 9.77679M16.892 9.75935C16.8702 9.75935 16.8702 9.75935 16.8485 9.73759M16.9094 10.0513H16.953M16.8267 9.92491C16.7936 9.89207 16.7508 9.87067 16.7047 9.86391M17.9769 10.7004C17.8287 10.8224 17.7677 10.927 17.7459 11.0751M18.1206 10.8006C18.0836 10.8782 18.0265 10.9444 17.9551 10.9923M17.3103 11.428C17.2405 11.4505 17.1665 11.4567 17.0941 11.4461C17.0215 11.4355 16.9524 11.4085 16.892 11.367C16.8702 11.3452 16.8485 11.3452 16.8267 11.3235M17.9333 11.1405C17.9159 11.2189 17.8897 11.3235 17.8505 11.3452C18.0204 11.2581 18.1642 11.1361 18.186 10.9487M16.7221 11.5326C16.7875 11.5108 16.8528 11.5543 16.892 11.5108M20.3557 10.8442C20.3992 10.866 20.4602 10.8878 20.482 10.9052C20.5038 10.8616 20.5866 10.8006 20.6476 10.7832M18.8743 11.2842C18.8526 11.1971 18.8961 11.0969 19.0225 11.0533M18.0596 11.6371C18.0814 11.5936 18.0814 11.5326 18.1032 11.4933M17.1403 11.7025C17.1186 11.7461 17.0793 11.7853 17.0793 11.8245M16.8267 11.7417C16.8267 11.7417 16.8267 11.7199 16.8485 11.7199C16.892 11.7025 16.953 11.6589 16.9748 11.6153M19.6673 11.4498C19.6237 11.4716 19.6063 11.4498 19.5845 11.428M19.6455 11.5543C19.6455 11.5543 19.6281 11.5761 19.6019 11.5761M19.7501 11.6589C19.7283 11.6807 19.7065 11.7025 19.6891 11.7025M20.3557 11.7025C20.3992 11.6807 20.421 11.6371 20.4428 11.5543M20.0855 11.6807C20.1465 11.6589 20.1901 11.6153 20.2511 11.5543M20.6693 11.5108C20.6693 11.4672 20.6693 11.428 20.6911 11.3888M22.216 11.7025C22.1725 11.6589 22.1724 11.5979 22.2378 11.5543C22.2814 11.5326 22.2988 11.5108 22.3424 11.4933" stroke="black" stroke-width="0.152488"/>
<path d="M20.939 10.9662C20.6079 10.8224 20.6296 10.6351 20.3551 10.6569M22.4246 11.6197C22.4464 11.6371 22.4246 11.7025 22.4246 11.7199M22.612 11.6197C22.5902 11.6807 22.5902 11.7025 22.5902 11.7635M21.0043 9.65479H20.8301M19.2485 10.3649C19.2485 10.4085 19.3139 10.4913 19.4794 10.4913C19.4577 10.4913 19.4359 10.4695 19.4359 10.4695M19.3313 10.1123C19.3139 10.134 19.2877 10.1123 19.2877 10.1123C19.2485 10.0687 19.3139 9.99027 19.3749 9.94671C19.3139 9.96847 19.2703 9.96847 19.2267 9.96847C19.1832 10.0948 19.0612 10.1558 18.9784 10.0731C18.9566 10.1558 18.8521 10.2604 18.7693 10.2386C18.6821 10.195 18.6647 10.134 18.6821 10.0731C18.5819 10.195 18.4556 10.1166 18.4164 10.0731C18.3946 10.0295 18.4164 9.92491 18.4599 9.79859" stroke="black" stroke-width="0.152488"/>
<path d="M20.6689 10.9048C20.6079 10.9483 20.5426 10.9048 20.4816 10.9701C20.438 11.0137 20.5034 11.0311 20.5426 11.0311C20.5251 11.0965 20.5251 11.1183 20.6297 11.1183C20.5861 11.1793 20.7125 11.2011 20.6907 11.2838C20.717 11.2566 20.735 11.2225 20.7427 11.1855C20.7504 11.1485 20.7475 11.1101 20.7343 11.0747C20.7125 11.0093 20.6036 10.9701 20.6689 10.9048Z" fill="black"/>
<path d="M18.7693 10.238C18.6822 10.1944 18.6647 10.1334 18.6822 10.0724C18.6647 10.116 18.6255 10.1334 18.582 10.1334C18.4948 10.3208 18.3946 10.4907 18.2682 10.4907C18.1201 10.5081 18.1419 10.6562 18.2465 10.6562C18.4774 10.6998 18.582 10.6127 18.7693 10.238ZM16.7042 9.73695C16.7652 9.67595 16.7216 9.61063 16.6824 9.59319C16.617 9.57139 16.495 9.59319 16.4297 9.69339C16.495 9.67595 16.5604 9.67595 16.5778 9.71519C16.5996 9.75875 16.6388 9.80231 16.7042 9.73695ZM16.8087 9.36227C16.9525 9.36227 16.9961 9.38407 17.0135 9.44507C17.0353 9.48863 16.9961 9.54963 16.9525 9.54963C16.8915 9.54963 16.8262 9.50607 16.8479 9.48863C16.8697 9.44507 16.8697 9.38407 16.8044 9.35791L16.8087 9.36227ZM17.2226 9.69339C17.3272 9.71519 17.3708 9.64983 17.3098 9.57139C17.288 9.50607 17.2226 9.46683 17.1181 9.48427C17.2226 9.54963 17.1181 9.65419 17.2226 9.69339ZM16.4515 10.0507C16.4702 10.0877 16.5016 10.1169 16.54 10.1328C16.5783 10.1488 16.6211 10.1506 16.6606 10.1378C16.7216 10.1116 16.7477 10.0507 16.7216 10.0071C16.678 9.94611 16.617 9.92431 16.5996 10.0071C16.556 10.0942 16.495 10.0724 16.4515 10.0507ZM16.7652 11.3228C16.7216 11.2401 16.5996 11.2401 16.495 11.3228C16.5386 11.3011 16.617 11.3228 16.6388 11.3664C16.6606 11.41 16.7042 11.41 16.726 11.41C16.7434 11.3882 16.787 11.3664 16.7652 11.3228ZM16.9307 11.2008C16.9307 11.0963 16.787 11.0702 16.7042 11.1137C16.7477 11.1137 16.8087 11.1573 16.8087 11.2008C16.8262 11.2444 16.8697 11.2618 16.8915 11.2618C16.9351 11.2401 16.9525 11.2183 16.9351 11.2008H16.9307ZM16.7216 11.5756C16.5996 11.5538 16.5342 11.7019 16.5342 11.8021C16.556 11.7411 16.6214 11.7019 16.6824 11.7193C16.7434 11.7193 16.7652 11.7019 16.7652 11.6583C16.787 11.6147 16.7652 11.5973 16.7216 11.5712V11.5756ZM16.7434 11.9284C16.787 11.9502 16.8305 11.9067 16.8479 11.8457C16.8479 11.8021 16.9351 11.8021 16.9525 11.8239C16.9961 11.8457 16.9961 11.9284 16.9307 11.972C16.8872 11.9938 16.787 12.0156 16.7434 11.9284ZM19.645 11.3011C19.6014 11.2836 19.5012 11.2401 19.4184 11.3011C19.4794 11.2836 19.523 11.3228 19.5404 11.3664C19.5404 11.41 19.6058 11.4274 19.6276 11.3882C19.645 11.3664 19.6712 11.3228 19.645 11.3011ZM19.4577 11.4492C19.3749 11.4056 19.2703 11.5102 19.2485 11.5973C19.2911 11.5626 19.3423 11.54 19.3967 11.5319C19.4402 11.5537 19.4794 11.5319 19.4794 11.4884C19.5012 11.471 19.5012 11.4492 19.4577 11.4492ZM19.5666 11.6191C19.5012 11.6191 19.4184 11.7019 19.4184 11.7847C19.4359 11.7411 19.4794 11.7193 19.523 11.7411C19.5666 11.7411 19.6276 11.7193 19.6276 11.6801C19.6276 11.6365 19.6058 11.6147 19.5622 11.6147L19.5666 11.6191ZM19.7496 11.7847C19.706 11.7629 19.645 11.7847 19.645 11.8457C19.645 11.9067 19.645 11.972 19.6276 11.9938C19.6712 11.9502 19.7104 11.9284 19.7496 11.9067C19.7714 11.8892 19.7931 11.8239 19.7496 11.7847ZM22.111 11.5973C22.0674 11.5537 22.0064 11.5755 21.9846 11.6147C21.9628 11.6583 21.941 11.7629 21.9846 11.8457C21.9846 11.8021 22.0282 11.7411 22.0718 11.7411C22.1327 11.7193 22.1502 11.6365 22.111 11.5973ZM22.2373 11.6801C22.1502 11.7237 22.1502 11.8674 22.2155 11.9502C22.2155 11.9067 22.2373 11.8457 22.2765 11.8239C22.3419 11.8239 22.3636 11.7411 22.3419 11.7019C22.2983 11.6583 22.2547 11.6801 22.2373 11.6801ZM22.4856 11.7629C22.4421 11.7411 22.3985 11.7847 22.3985 11.8239C22.3811 11.8892 22.4246 11.972 22.4856 12.0112C22.4856 11.9676 22.5074 11.9284 22.5292 11.9067C22.5902 11.8631 22.5728 11.7847 22.4856 11.7629ZM22.673 11.7411C22.6294 11.7411 22.5902 11.8021 22.6294 11.8674C22.6512 11.911 22.6948 11.9284 22.7776 11.911C22.7558 11.911 22.7166 11.8457 22.734 11.8239C22.7558 11.7803 22.734 11.7411 22.673 11.7411Z" fill="#073163"/>
<path d="M16.8695 15.645L17.9151 12.4297L18.9607 15.645L16.2203 13.6627H19.6099L16.8695 15.645Z" fill="#F9D050"/>
<path d="M17.0792 15.3537L19.2488 13.7678H16.5781L18.726 15.3537L17.9157 12.8093L17.0792 15.3537Z" fill="#024919"/>
<path d="M20.7945 15.645L21.8401 12.4297L22.8857 15.645L20.1453 13.6627H23.5349L20.7945 15.645Z" fill="#F9D050"/>
<path d="M21.0042 15.3537L23.1738 13.7678H20.5031L22.651 15.3537L21.8407 12.8093L21.0042 15.3537Z" fill="#024919"/>
<path d="M18.8304 17.9184L19.876 14.7031L20.9217 17.9184L18.1812 15.9361H21.5708L18.8304 17.9184Z" fill="#F9D050"/>
<path d="M19.0401 17.6272L21.2098 16.0413H18.5391L20.6869 17.6272L19.8766 15.0828L19.0401 17.6272Z" fill="#024919"/>
<path d="M23.7795 9.09172V13.161C23.7795 16.69 22.1108 17.9012 19.8758 18.8597C17.6407 17.9012 15.9547 16.69 15.9547 13.161V9.0874H23.7795V9.09172Z" stroke="black" stroke-width="0.152488"/>
</g>
</g>
</g>
<defs>
<clipPath id="clip0_69_3712">
<rect width="24" height="24" rx="12" fill="white"/>
</clipPath>
<clipPath id="clip1_69_3712">
<rect width="32" height="24" fill="white" transform="translate(-4)"/>
</clipPath>
</defs>
</svg>
