<svg width="24" height="24" viewBox="0 0 24 24" fill="none" xmlns="http://www.w3.org/2000/svg">
<g clip-path="url(#clip0_69_8019)">
<g clip-path="url(#clip1_69_8019)">
<mask id="mask0_69_8019" style="mask-type:luminance" maskUnits="userSpaceOnUse" x="0" y="0" width="32" height="24">
<path d="M32 0H0V24H32V0Z" fill="white"/>
</mask>
<g mask="url(#mask0_69_8019)">
<path d="M0 0H32V24H0V0Z" fill="#00ABC2"/>
<path d="M14.0898 13.3109C15.8739 13.3109 17.3202 11.8646 17.3202 10.0805C17.3202 8.29638 15.8739 6.8501 14.0898 6.8501C12.3057 6.8501 10.8594 8.29638 10.8594 10.0805C10.8594 11.8646 12.3057 13.3109 14.0898 13.3109Z" fill="#FFEC2D"/>
<path d="M14.0906 6.41186C14.2826 6.40946 14.3546 6.28946 14.3546 6.14546C14.3546 5.95346 14.0906 5.03906 14.0906 5.03906C14.0906 5.03906 13.8266 5.95346 13.8266 6.14546C13.8266 6.28946 13.8986 6.41186 14.0906 6.41186Z" fill="#FFEC2D"/>
<path d="M17.7599 10.0811C17.7623 10.2731 17.8823 10.3451 18.0263 10.3451C18.2183 10.3451 19.1327 10.0811 19.1327 10.0811C19.1327 10.0811 18.2183 9.81714 18.0263 9.81714C17.8823 9.81714 17.7599 9.88914 17.7599 10.0811Z" fill="#FFEC2D"/>
<path d="M14.0908 13.7507C13.8988 13.7531 13.8268 13.8731 13.8268 14.0171C13.8268 14.2091 14.0908 15.1235 14.0908 15.1235C14.0908 15.1235 14.3548 14.2091 14.3548 14.0171C14.3548 13.8731 14.2828 13.7507 14.0908 13.7507Z" fill="#FFEC2D"/>
<path d="M10.4212 10.0814C10.4188 9.88938 10.2988 9.81738 10.1548 9.81738C9.96283 9.81738 9.04843 10.0814 9.04843 10.0814C9.04843 10.0814 9.96283 10.3454 10.1548 10.3454C10.2988 10.3454 10.4212 10.2734 10.4212 10.0814Z" fill="#FFEC2D"/>
<path d="M15.4936 6.68967C15.6719 6.76095 15.7844 6.67763 15.8394 6.54459C15.9129 6.36719 16.019 5.42139 16.019 5.42139C16.019 5.42139 15.4251 6.16515 15.3516 6.34251C15.2965 6.47555 15.3162 6.61619 15.4936 6.68967Z" fill="#FFEC2D"/>
<path d="M17.4806 11.4841C17.4093 11.6624 17.4927 11.7749 17.6257 11.83C17.8031 11.9035 18.7489 12.0095 18.7489 12.0095C18.7489 12.0095 18.0051 11.4156 17.8277 11.3422C17.6947 11.2871 17.5541 11.3067 17.4806 11.4841Z" fill="#FFEC2D"/>
<path d="M12.6861 13.4714C12.5078 13.4002 12.3953 13.4835 12.3402 13.6165C12.2667 13.7939 12.1607 14.7397 12.1607 14.7397C12.1607 14.7397 12.7545 13.996 12.828 13.8186C12.8831 13.6855 12.8635 13.5449 12.6861 13.4714Z" fill="#FFEC2D"/>
<path d="M10.6989 8.67673C10.7702 8.49841 10.6869 8.38597 10.5539 8.33089C10.3765 8.25741 9.43066 8.15137 9.43066 8.15137C9.43066 8.15137 10.1744 8.74521 10.3518 8.81869C10.4849 8.87377 10.6255 8.85413 10.6989 8.67673Z" fill="#FFEC2D"/>
<path d="M16.6847 7.48561C16.8221 7.61969 16.9579 7.58573 17.0597 7.48393C17.1955 7.34813 17.6554 6.51489 17.6554 6.51489C17.6554 6.51489 16.8221 6.97481 16.6864 7.11057C16.5846 7.21237 16.5489 7.34985 16.6847 7.48561Z" fill="#FFEC2D"/>
<path d="M16.6848 12.6752C16.5507 12.8127 16.5847 12.9485 16.6865 13.0503C16.8222 13.1861 17.6555 13.6459 17.6555 13.6459C17.6555 13.6459 17.1956 12.8127 17.0598 12.6769C16.958 12.5751 16.8206 12.5395 16.6848 12.6752Z" fill="#FFEC2D"/>
<path d="M11.4965 12.6755C11.359 12.5415 11.2233 12.5754 11.1214 12.6772C10.9857 12.813 10.5258 13.6462 10.5258 13.6462C10.5258 13.6462 11.359 13.1863 11.4948 13.0506C11.5966 12.9487 11.6323 12.8113 11.4965 12.6755Z" fill="#FFEC2D"/>
<path d="M11.4965 7.48561C11.6306 7.34817 11.5967 7.21237 11.4948 7.11057C11.3591 6.97481 10.5258 6.51489 10.5258 6.51489C10.5258 6.51489 10.9857 7.34817 11.1215 7.48393C11.2233 7.58573 11.3607 7.62137 11.4965 7.48561Z" fill="#FFEC2D"/>
<path d="M17.4796 8.67551C17.5553 8.85195 17.6937 8.87255 17.8267 8.81743C18.0041 8.74399 18.7479 8.15015 18.7479 8.15015C18.7479 8.15015 17.8021 8.25615 17.6247 8.32963C17.4916 8.38475 17.4061 8.49811 17.4796 8.67551Z" fill="#FFEC2D"/>
<path d="M15.4948 13.4702C15.3183 13.5458 15.2977 13.6842 15.3528 13.8173C15.4263 13.9947 16.0201 14.7384 16.0201 14.7384C16.0201 14.7384 15.9141 13.7926 15.8406 13.6152C15.7855 13.4822 15.6722 13.3967 15.4948 13.4702Z" fill="#FFEC2D"/>
<path d="M10.7001 11.4854C10.6244 11.3089 10.486 11.2883 10.3529 11.3435C10.1756 11.4169 9.43182 12.0108 9.43182 12.0108C9.43182 12.0108 10.3776 11.9047 10.555 11.8313C10.6881 11.7762 10.7736 11.6628 10.7001 11.4854Z" fill="#FFEC2D"/>
<path d="M12.6849 6.69068C12.8614 6.61496 12.882 6.47656 12.8269 6.34352C12.7534 6.16612 12.1596 5.42236 12.1596 5.42236C12.1596 5.42236 12.2656 6.3682 12.3391 6.54556C12.3942 6.6786 12.5075 6.76416 12.6849 6.69068Z" fill="#FFEC2D"/>
<path d="M14.8101 6.48239C14.9989 6.51767 15.093 6.41411 15.1212 6.27291C15.1589 6.08463 15.0791 5.13623 15.0791 5.13623C15.0791 5.13623 14.6411 5.98115 14.6035 6.16943C14.5753 6.31063 14.6219 6.44479 14.8101 6.48239Z" fill="#FFEC2D"/>
<path d="M17.6896 10.8009C17.6543 10.9897 17.7578 11.0838 17.899 11.112C18.0873 11.1496 19.0357 11.0699 19.0357 11.0699C19.0357 11.0699 18.1908 10.6319 18.0025 10.5943C17.8613 10.566 17.7272 10.6127 17.6896 10.8009Z" fill="#FFEC2D"/>
<path d="M13.3725 13.6803C13.1838 13.645 13.0897 13.7486 13.0614 13.8898C13.0238 14.0781 13.1035 15.0265 13.1035 15.0265C13.1035 15.0265 13.5416 14.1815 13.5792 13.9932C13.6074 13.852 13.5608 13.7179 13.3725 13.6803Z" fill="#FFEC2D"/>
<path d="M10.4933 9.3617C10.5285 9.17294 10.4249 9.07882 10.2837 9.05062C10.0955 9.01298 9.14706 9.0927 9.14706 9.0927C9.14706 9.0927 9.99202 9.53074 10.1803 9.56838C10.3215 9.59658 10.4556 9.54998 10.4933 9.3617Z" fill="#FFEC2D"/>
<path d="M16.1323 7.03143C16.2932 7.13623 16.4198 7.07655 16.4999 6.95691C16.6067 6.79735 16.896 5.89062 16.896 5.89062C16.896 5.89062 16.1679 6.50363 16.0611 6.66319C15.981 6.78283 15.9728 6.92459 16.1323 7.03143Z" fill="#FFEC2D"/>
<path d="M17.1405 12.1229C17.0357 12.2838 17.0953 12.4104 17.215 12.4905C17.3745 12.5973 18.2813 12.8866 18.2813 12.8866C18.2813 12.8866 17.6683 12.1585 17.5087 12.0517C17.3891 11.9716 17.2473 11.9633 17.1405 12.1229Z" fill="#FFEC2D"/>
<path d="M12.0506 13.131C11.8897 13.0262 11.7631 13.0859 11.683 13.2056C11.5762 13.3651 11.2869 14.2718 11.2869 14.2718C11.2869 14.2718 12.015 13.6588 12.1218 13.4993C12.2019 13.3796 12.2102 13.2378 12.0506 13.131Z" fill="#FFEC2D"/>
<path d="M11.0423 8.03956C11.1471 7.87868 11.0875 7.75212 10.9678 7.672C10.8083 7.5652 9.90155 7.27588 9.90155 7.27588C9.90155 7.27588 10.5145 8.00396 10.6741 8.11076C10.7938 8.19088 10.9355 8.19912 11.0423 8.03956Z" fill="#FFEC2D"/>
<path d="M17.1434 8.04395C17.2519 8.20235 17.3917 8.19567 17.5115 8.11575C17.6712 8.00923 18.2855 7.28223 18.2855 7.28223C18.2855 7.28223 17.3783 7.56995 17.2186 7.67647C17.0988 7.75639 17.0369 7.88419 17.1434 8.04395Z" fill="#FFEC2D"/>
<path d="M16.1266 13.1324C15.9682 13.2409 15.9749 13.3807 16.0548 13.5005C16.1613 13.6602 16.8883 14.2745 16.8883 14.2745C16.8883 14.2745 16.6006 13.3673 16.494 13.2075C16.4141 13.0877 16.2863 13.0258 16.1266 13.1324Z" fill="#FFEC2D"/>
<path d="M11.0378 12.1172C10.9293 11.9588 10.7895 11.9655 10.6697 12.0454C10.5099 12.1519 9.89569 12.8789 9.89569 12.8789C9.89569 12.8789 10.8029 12.5912 10.9627 12.4847C11.0825 12.4047 11.1443 12.2769 11.0378 12.1172Z" fill="#FFEC2D"/>
<path d="M12.0548 7.02689C12.2132 6.91837 12.2066 6.77857 12.1267 6.65877C12.0201 6.49905 11.2932 5.88477 11.2932 5.88477C11.2932 5.88477 11.5809 6.79201 11.6874 6.95173C11.7673 7.07153 11.8951 7.13341 12.0548 7.02689Z" fill="#FFEC2D"/>
<path d="M17.6905 9.36786C17.7302 9.55574 17.8619 9.60306 18.0031 9.5751C18.1915 9.53778 19.0372 9.10122 19.0372 9.10122C19.0372 9.10122 18.0889 9.01986 17.9006 9.05714C17.7593 9.0851 17.6533 9.17954 17.6905 9.36786Z" fill="#FFEC2D"/>
<path d="M14.8041 13.6797C14.6162 13.7193 14.5689 13.851 14.5969 13.9923C14.6341 14.1806 15.0707 15.0263 15.0707 15.0263C15.0707 15.0263 15.1521 14.078 15.1148 13.8897C15.0868 13.7484 14.9924 13.6423 14.8041 13.6797Z" fill="#FFEC2D"/>
<path d="M10.4906 10.793C10.451 10.6051 10.3193 10.5578 10.178 10.5858C9.98967 10.6231 9.14395 11.0596 9.14395 11.0596C9.14395 11.0596 10.0922 11.141 10.2806 11.1037C10.4218 11.0758 10.5279 10.9814 10.4906 10.793Z" fill="#FFEC2D"/>
<path d="M13.3787 6.4812C13.5666 6.44156 13.6139 6.30984 13.5859 6.1686C13.5486 5.98024 13.112 5.13452 13.112 5.13452C13.112 5.13452 13.0307 6.0828 13.068 6.27116C13.096 6.4124 13.1904 6.51848 13.3787 6.4812Z" fill="#FFEC2D"/>
<path d="M13.9795 15.721C13.8955 15.8722 13.8451 16.0474 13.7395 16.1842C13.4131 15.889 12.9427 15.8962 12.5299 15.8794C12.1891 15.8602 11.8195 15.829 11.5555 15.5866C11.2795 15.3586 11.0515 15.0658 10.7443 14.881C10.4556 14.8189 10.1843 14.6934 9.94991 14.5138C9.46511 14.1178 9.18671 13.5298 8.71151 13.1218C8.62271 13.0354 8.51471 12.9658 8.41391 12.8914C8.31791 12.9154 8.36111 13.1218 8.24351 13.0162C8.17871 12.9682 8.01791 12.9658 8.00351 13.0306C8.14751 13.2226 8.29391 13.4386 8.31551 13.6834C8.21471 13.693 8.03951 13.6618 7.99151 13.6978C8.12343 13.8957 8.28915 14.0687 8.48111 14.209C8.38991 14.2234 8.20991 14.2162 8.17391 14.2522C8.35363 14.4243 8.57547 14.546 8.81711 14.605C8.86511 14.6722 8.74271 14.8018 8.84831 14.8594C8.90831 14.8834 9.10991 14.9266 8.97071 14.9962C8.87471 15.0586 8.91071 15.2098 9.03311 15.205C9.10991 15.2458 9.28271 15.253 9.29711 15.325C9.22751 15.3922 9.01631 15.4738 9.19631 15.541C9.36603 15.6372 9.55591 15.6923 9.75071 15.7018C9.65471 15.7834 9.53471 15.829 9.43631 15.9058C9.88031 16.1674 10.3723 16.3378 10.8619 16.5058C11.0539 16.5682 11.2531 16.6282 11.4547 16.6666C10.8691 16.633 10.3027 16.4602 9.76991 16.2226C9.49391 16.1026 9.21791 15.985 8.93471 15.8818C9.05711 15.817 9.20111 15.8002 9.33071 15.745C9.06191 15.6922 8.77151 15.673 8.53871 15.529C8.57231 15.4618 8.70671 15.4594 8.78351 15.4258C8.92751 15.3922 9.01391 15.3538 8.81471 15.3394C8.61311 15.2842 8.38271 15.3082 8.20271 15.1882C8.21471 15.1162 8.40191 15.1402 8.47631 15.109C8.57231 15.0922 8.67791 15.0778 8.75471 15.013C8.44271 14.8858 8.03471 14.977 7.78991 14.701C7.73471 14.5954 7.96511 14.6794 8.02991 14.6626C8.19791 14.6626 8.37791 14.7154 8.53871 14.6482C8.08271 14.449 7.59551 14.2642 7.24991 13.8946C7.21151 13.8346 7.09631 13.6714 7.18991 13.6522C7.45871 13.6882 7.65311 13.981 7.94351 13.9354C7.98191 13.885 7.77551 13.801 7.72271 13.7266C7.28859 13.3778 6.90987 12.9651 6.59951 12.5026C6.58031 12.3418 6.82751 12.3178 6.89231 12.4402C7.21391 12.7522 7.50431 13.1122 7.90511 13.3234C8.04911 13.393 7.82351 13.2418 7.79471 13.1866C7.41351 12.764 7.08399 12.2976 6.81311 11.797C6.76511 11.7058 6.69071 11.5402 6.82991 11.4922C6.96671 11.4226 7.10591 11.5162 7.17551 11.6362C7.44671 11.9794 7.64831 12.3874 7.98671 12.673C7.69871 12.1138 7.38911 11.521 7.38191 10.8778C7.38911 10.753 7.39631 10.5658 7.56671 10.5682C7.71071 10.5466 7.68671 10.729 7.73471 10.8154C7.87391 11.2906 7.93391 11.8042 8.21471 12.2218C8.15471 11.8714 8.06111 11.509 8.12351 11.1514C8.13791 11.0314 8.26751 10.9978 8.35631 11.0698C8.42591 11.2378 8.44031 11.4514 8.50271 11.6338C8.87679 12.8762 9.66431 13.9534 10.7347 14.6866C11.6112 15.2864 12.6339 15.6372 13.6939 15.7018C13.7899 15.7114 13.8859 15.7138 13.9795 15.7186M17.2531 17.905C17.0803 18.0106 16.9459 17.8234 16.8019 17.7682C16.6963 17.8258 16.6867 18.013 16.5907 18.1042C16.4755 18.2362 16.3315 18.0658 16.3435 17.9362C16.2043 18.0538 16.1347 18.3202 15.9115 18.2818C15.8035 18.1954 15.7243 18.013 15.6427 18.2218C15.5779 18.3226 15.4027 18.4666 15.3091 18.313C15.2803 18.1786 15.2131 18.0202 15.1411 18.2338C15.0883 18.3874 14.9251 18.4978 14.7715 18.4306C14.6851 18.361 14.8387 18.1018 14.7307 18.1186C14.5675 18.229 14.4715 18.4954 14.2435 18.4738C14.1547 18.3778 14.2987 18.2074 14.2003 18.097C14.0875 18.2434 13.9603 18.4594 13.7611 18.4738C13.6651 18.397 13.7659 18.1738 13.7035 18.1426C13.5019 18.2626 13.2859 18.481 13.0315 18.4138C13.1299 18.0298 13.5475 17.8978 13.8955 17.869C14.4979 17.7946 15.1315 17.9314 15.7123 17.713C15.8059 17.6554 16.0315 17.5762 15.9523 17.4442C15.8803 17.3386 16.1371 17.3794 16.1611 17.257C16.1467 17.1034 16.2811 17.125 16.4107 17.113C16.9963 17.0866 17.5747 17.209 18.1579 17.2306C18.2011 17.5138 17.8867 17.713 17.6299 17.6266C17.5099 17.6458 17.3299 17.3482 17.3659 17.5642C17.3419 17.6794 17.3563 17.8282 17.2531 17.905ZM12.2755 17.3242C12.4099 17.4466 12.5059 17.3002 12.6331 17.245C13.0485 17.0824 13.4388 16.8618 13.7923 16.5898C14.0131 16.4074 14.2051 16.1698 14.5027 16.1098C15.0835 15.9346 15.7003 15.9562 16.2811 15.793C16.7251 15.1882 17.4763 14.9698 18.1075 14.6218C18.2491 14.5786 18.3043 14.461 18.3475 14.3338C18.5875 13.9522 18.9163 13.6162 19.3051 13.3858C19.4886 13.2774 19.7049 13.2383 19.9147 13.2754C19.8858 13.5202 19.7689 13.7462 19.5859 13.9114C19.7275 13.909 19.8499 13.8202 19.9891 13.825C20.0371 14.0794 19.7635 14.2114 19.6171 14.3698C19.6987 14.389 20.0107 14.413 19.8403 14.4946C19.6243 14.6434 19.3771 14.7466 19.1779 14.9218C19.3627 14.9554 19.3843 14.9938 19.1971 15.061C19.0939 15.1282 18.8995 15.1522 18.8803 15.2866C19.0195 15.373 18.8179 15.4546 18.7387 15.4834C18.5899 15.5194 18.4315 15.5842 18.6307 15.6994C18.5563 15.8122 18.3931 15.8362 18.2611 15.8242C18.3019 15.9538 18.3595 16.0978 18.1939 16.1554C17.8225 16.4491 17.3775 16.635 16.9075 16.693C17.4955 16.7362 18.1027 16.6282 18.6043 16.309C18.6715 16.2298 19.0195 16.1434 18.8251 16.0786C18.7339 16.0402 18.5371 15.997 18.5227 15.9274C18.7963 15.7594 19.1395 15.8194 19.4323 15.721C19.4395 15.625 19.2091 15.6514 19.1227 15.6298C18.9187 15.613 18.9307 15.5602 19.1276 15.541C19.3771 15.4738 19.6603 15.4618 19.8715 15.301C19.7011 15.2194 19.4851 15.289 19.3027 15.2242C19.6123 15.0898 19.9771 15.0754 20.2556 14.8714C20.3828 14.7298 20.0923 14.7754 20.0083 14.7778C19.8379 14.809 19.7587 14.725 19.9531 14.6554C20.2867 14.4082 20.7067 14.2498 20.9419 13.8946C20.9971 13.8154 21.0715 13.5754 20.8939 13.6594C20.6635 13.7386 20.4595 13.9978 20.1931 13.9186C20.7163 13.513 21.2107 13.0546 21.5683 12.4954C21.5875 12.3322 21.3331 12.3154 21.2683 12.4426C20.9323 12.7642 20.6299 13.1458 20.2003 13.3498C20.6053 12.945 20.9569 12.4901 21.2467 11.9962C21.3115 11.8522 21.4819 11.677 21.3907 11.5162C21.2395 11.3914 21.0524 11.5066 20.9755 11.653C20.714 11.9938 20.5171 12.3898 20.1835 12.6682C20.474 12.109 20.7788 11.5114 20.7836 10.8682C20.7836 10.7338 20.7595 10.537 20.5771 10.5634C20.4331 10.5874 20.4691 10.8034 20.4091 10.9114C20.2795 11.353 20.2171 11.8306 19.9531 12.2146C20.0131 11.857 20.1163 11.4826 20.0371 11.1226C19.9987 10.9594 19.7371 11.029 19.7731 11.1898C19.4611 12.7714 18.3979 14.1538 17.0131 14.953C16.3771 15.313 15.6691 15.5434 14.9443 15.649C14.7523 15.6898 14.5411 15.6658 14.3563 15.733C13.9051 16.0762 13.6339 16.6546 13.0651 16.8346C12.8083 16.9618 12.4771 16.9882 12.2947 17.2234C12.2799 17.2549 12.2734 17.2896 12.2755 17.3242ZM13.5163 17.077C13.4299 17.0818 13.3459 17.0914 13.2619 17.1178C13.1491 17.1346 13.0411 17.173 12.9307 17.1898L12.8851 17.1994L12.8107 17.2066C12.8204 17.2468 12.8204 17.2888 12.8107 17.329C12.8029 17.3472 12.7915 17.3635 12.7771 17.377C12.7627 17.3962 12.7459 17.4106 12.7243 17.4202C12.7048 17.4298 12.6836 17.4355 12.6619 17.437C12.6403 17.437 12.6187 17.437 12.5971 17.4274C12.5755 17.4202 12.5563 17.4082 12.5371 17.3914L12.4699 17.4034H12.4075L12.3403 17.3794C12.3186 17.3709 12.2977 17.3605 12.2779 17.3482C12.1963 17.3962 12.1051 17.4418 12.0547 17.5258C12.0313 17.5642 12.0181 17.608 12.0163 17.653C12.0115 17.7106 12.0259 17.7682 12.0499 17.821C12.0595 17.8354 12.0667 17.7658 12.0931 17.7562C12.1387 17.7178 12.1963 17.6914 12.2539 17.677C12.3019 17.653 12.2947 17.677 12.2755 17.7154C12.2707 17.737 12.2443 17.8114 12.2803 17.773C12.4463 17.711 12.6216 17.6778 12.7987 17.6746C13.0531 17.6482 13.3075 17.641 13.5619 17.6386L14.2819 17.653C14.3971 17.6578 14.5123 17.6818 14.6251 17.6626C14.6515 17.6554 14.6947 17.6554 14.7115 17.6386C14.6587 17.6098 14.5987 17.6074 14.5435 17.6002H14.0851C13.9579 17.5882 13.8259 17.5858 13.7059 17.5378C13.6723 17.5258 13.6435 17.4946 13.6123 17.5282C13.5666 17.5446 13.5191 17.555 13.4707 17.5594C13.3867 17.5642 13.3027 17.5474 13.2259 17.5162C13.2811 17.4394 13.3483 17.3722 13.4107 17.3002L13.2619 17.269C13.3507 17.209 13.4299 17.1394 13.5163 17.077Z" fill="#FFEC2D"/>
<path d="M12.6404 17.3606C12.6723 17.3606 12.698 17.3348 12.698 17.303C12.698 17.2712 12.6723 17.2454 12.6404 17.2454C12.6086 17.2454 12.5828 17.2712 12.5828 17.303C12.5828 17.3348 12.6086 17.3606 12.6404 17.3606Z" fill="#FFEC2D"/>
<path d="M12.6349 17.3168C12.6482 17.3168 12.6589 17.306 12.6589 17.2928C12.6589 17.2795 12.6482 17.2688 12.6349 17.2688C12.6217 17.2688 12.6109 17.2795 12.6109 17.2928C12.6109 17.306 12.6217 17.3168 12.6349 17.3168Z" fill="#FFEC2D" stroke="#FFEC2D" stroke-width="0.024"/>
<path d="M2.88094 1.75231C2.88094 1.75231 2.65054 1.55551 2.57134 1.65391C2.44654 1.80991 2.96014 2.58991 2.96014 2.86351C2.96014 3.31471 2.65774 3.43711 2.28814 3.49951C2.03854 3.54271 1.63294 3.48271 1.63294 3.48271C1.70974 3.37951 1.76014 3.34831 1.88734 3.34111C1.74334 3.26911 1.59934 3.10591 1.59934 2.85391C1.59934 2.46751 1.75774 2.30671 1.75774 1.86991C1.75774 1.63231 1.56094 1.32031 1.56094 1.32031C1.91134 1.35631 2.08414 1.68031 1.98574 1.93951C2.01276 1.94489 2.04067 1.94354 2.06704 1.93559C2.0934 1.92764 2.11741 1.91332 2.13694 1.89391C2.16094 1.96591 2.12254 2.04991 2.06734 2.12191C2.11054 2.14591 2.14414 2.13151 2.21134 2.11711C2.20654 2.18911 2.16334 2.27071 2.05294 2.34511C2.36974 2.26351 2.56174 2.48191 2.56174 2.71231C2.56174 2.88751 2.44174 3.01231 2.32174 3.01231C2.28334 3.01231 2.22574 2.99551 2.19454 2.97151C2.17054 3.01951 2.18494 3.08431 2.20654 3.13231C2.12014 3.10831 2.06254 3.05551 2.10334 2.94751C2.03614 2.94271 1.98334 2.91871 1.94734 2.87551C1.98334 2.82751 2.03854 2.80351 2.10334 2.80351C2.05534 2.70271 2.11054 2.64751 2.18974 2.60191C2.18974 2.60191 2.13934 2.80351 2.26654 2.80351C2.32414 2.80351 2.37694 2.78671 2.37694 2.70031C2.37694 2.62591 2.31214 2.52271 2.16094 2.52991C2.01214 2.53711 1.88974 2.63311 1.88974 2.87311C1.88974 3.09391 2.06974 3.20431 2.30494 3.20911C2.51614 3.21871 2.67694 3.10351 2.67694 2.88511C2.67694 2.59231 2.25694 1.92991 2.25694 1.67071C2.25694 1.47631 2.42974 1.36591 2.60254 1.36591C2.82334 1.36591 3.01054 1.58671 3.01054 1.58671L2.88094 1.74991V1.75231Z" fill="#FFEC2D"/>
<path d="M2.92861 7.01039C2.92861 7.49759 2.49181 7.74719 2.14861 7.74719C1.68781 7.74719 1.44061 7.47119 1.44061 7.10879C1.44061 6.90479 1.47901 6.77519 1.57261 6.58079L2.63341 4.37999C2.67184 4.28743 2.68827 4.18719 2.68141 4.08719C2.68141 3.8904 2.48941 3.7296 2.29021 3.7272C2.10781 3.72 1.90621 3.8952 1.90621 4.09439C1.90621 4.33679 2.03341 4.44479 2.16301 4.44479C2.32141 4.44479 2.38381 4.37999 2.38381 4.26719C2.38381 4.19039 2.34781 4.15679 2.29261 4.15679C2.15581 4.15679 2.19661 4.33919 2.19661 4.33919C2.17855 4.33587 2.16144 4.32859 2.14652 4.31787C2.1316 4.30715 2.11923 4.29327 2.11029 4.27723C2.10135 4.26119 2.09606 4.24335 2.0948 4.22503C2.09354 4.20671 2.09635 4.18831 2.10301 4.17119C2.05164 4.15967 2.00535 4.13191 1.97101 4.09199C2.00701 4.05599 2.05021 4.02959 2.10301 4.01999C2.07181 3.9144 2.11501 3.864 2.20621 3.84C2.1898 3.87608 2.18559 3.91652 2.19421 3.9552C2.33821 3.912 2.56141 3.9792 2.56141 4.22879C2.56141 4.47839 2.38861 4.68719 2.06461 4.63679C2.14141 4.67279 2.17981 4.74719 2.18941 4.83119C2.12941 4.80719 2.06461 4.80719 2.06461 4.80719C2.10301 4.87199 2.15581 4.92719 2.15341 5.06159C2.09341 5.03279 2.03581 4.98239 1.96141 5.01359C2.08141 5.25359 1.93261 5.57999 1.55341 5.65679C1.69261 5.49359 1.75981 5.32079 1.75981 5.14559C1.75981 4.58159 1.60381 4.48799 1.60381 4.09439C1.60628 4.00311 1.63042 3.91373 1.67424 3.83361C1.71805 3.75349 1.78029 3.68494 1.85581 3.6336V3.6408C1.80937 3.63126 1.76547 3.61201 1.727 3.58429C1.68853 3.55658 1.65636 3.52104 1.63261 3.48C1.89997 3.40632 2.1826 3.40881 2.44861 3.4872C2.53759 3.49979 2.6226 3.53221 2.69738 3.58206C2.77215 3.6319 2.83477 3.69791 2.88061 3.7752C2.92853 3.88454 2.95327 4.00263 2.95327 4.12199C2.95327 4.24139 2.92853 4.35947 2.88061 4.46879C2.72941 4.78079 2.02381 6.28319 1.80301 6.75359C1.75501 6.85439 1.72861 6.95999 1.72861 7.07519C1.72861 7.36319 1.99261 7.46399 2.14141 7.46399C2.32141 7.46399 2.50621 7.32719 2.50621 7.15679C2.50621 7.04879 2.44621 6.98159 2.36221 6.98159C2.15821 6.98159 2.17021 7.15439 2.21101 7.26479C2.08381 7.20719 2.01181 7.10639 2.03101 7.00079C1.95226 6.98759 1.88079 6.94675 1.82941 6.88559C1.87741 6.82319 1.93981 6.77519 2.03101 6.77279C1.99021 6.60719 2.10301 6.53759 2.21101 6.49919C2.17741 6.61919 2.15341 6.76079 2.36221 6.76079C2.51341 6.76079 2.63101 6.78479 2.70061 6.88559L2.71741 6.23759C2.72701 6.04319 2.45821 6.04559 2.28541 6.10559C2.35021 5.88239 2.48221 5.75999 2.78941 5.79119C2.74235 5.77311 2.70218 5.74063 2.67461 5.69843C2.64704 5.65619 2.63346 5.60639 2.63581 5.55599C2.63581 5.37359 2.78461 5.17199 2.88061 5.11199L2.92861 7.00799V7.01039Z" fill="#FFEC2D"/>
<path d="M2.92861 8.46922C2.92861 7.98202 2.49181 7.73242 2.14861 7.73242C1.68781 7.73242 1.44061 8.00842 1.44061 8.37082C1.44061 8.57482 1.47901 8.70442 1.57261 8.89882L2.63341 11.0996C2.67184 11.1922 2.68827 11.2924 2.68141 11.3924C2.68141 11.5892 2.48941 11.75 2.29021 11.7524C2.10781 11.7596 1.90621 11.5844 1.90621 11.3852C1.90621 11.1428 2.03341 11.0348 2.16301 11.0348C2.32141 11.0348 2.38381 11.0996 2.38381 11.2124C2.38381 11.2892 2.34781 11.3228 2.29261 11.3228C2.15581 11.3228 2.19661 11.1404 2.19661 11.1404C2.17855 11.1437 2.16144 11.1511 2.14652 11.1617C2.1316 11.1725 2.11923 11.1863 2.11029 11.2024C2.10135 11.2185 2.09606 11.2363 2.0948 11.2546C2.09354 11.2729 2.09635 11.2913 2.10301 11.3084C2.05164 11.3199 2.00535 11.3477 1.97101 11.3876C2.00701 11.4236 2.05021 11.45 2.10301 11.4596C2.07181 11.5652 2.11501 11.6156 2.20621 11.6396C2.1898 11.6035 2.18559 11.5631 2.19421 11.5244C2.33821 11.5676 2.56141 11.5004 2.56141 11.2508C2.56141 11.0012 2.38861 10.7924 2.06461 10.8428C2.14141 10.8068 2.17981 10.7324 2.18941 10.6484C2.12941 10.6724 2.06461 10.6724 2.06461 10.6724C2.10301 10.6076 2.15581 10.5524 2.15341 10.418C2.09341 10.4468 2.03581 10.4972 1.96141 10.466C2.08141 10.226 1.93261 9.89962 1.55341 9.82282C1.69261 9.98602 1.75981 10.1588 1.75981 10.334C1.75981 10.898 1.60381 10.9916 1.60381 11.3852C1.60628 11.4765 1.63042 11.5659 1.67424 11.646C1.71805 11.7261 1.78029 11.7947 1.85581 11.846V11.8388C1.80937 11.8483 1.76547 11.8676 1.727 11.8953C1.68853 11.9231 1.65636 11.9586 1.63261 11.9996C1.89997 12.0733 2.1826 12.0708 2.44861 11.9924C2.53759 11.9798 2.6226 11.9474 2.69738 11.8976C2.77215 11.8477 2.83477 11.7817 2.88061 11.7044C2.92853 11.5951 2.95327 11.477 2.95327 11.3576C2.95327 11.2382 2.92853 11.1201 2.88061 11.0108C2.72941 10.6988 2.02381 9.19642 1.80301 8.72602C1.75501 8.62522 1.72861 8.51962 1.72861 8.40442C1.72861 8.11642 1.99261 8.01562 2.14141 8.01562C2.32141 8.01562 2.50621 8.15242 2.50621 8.32282C2.50621 8.43082 2.44621 8.49802 2.36221 8.49802C2.15821 8.49802 2.17021 8.32522 2.21101 8.21482C2.08381 8.27242 2.01181 8.37322 2.03101 8.47882C1.95226 8.49202 1.88079 8.53286 1.82941 8.59402C1.87741 8.65642 1.93981 8.70442 2.03101 8.70682C1.99021 8.87242 2.10301 8.94202 2.21101 8.98042C2.17741 8.86042 2.15341 8.71882 2.36221 8.71882C2.51341 8.71882 2.63101 8.69482 2.70061 8.59402L2.71741 9.24202C2.72701 9.43642 2.45821 9.43402 2.28541 9.37402C2.35021 9.59722 2.48221 9.71962 2.78941 9.68842C2.74235 9.7065 2.70218 9.73898 2.67461 9.78118C2.64704 9.82342 2.63346 9.87326 2.63581 9.92362C2.63581 10.106 2.78461 10.3076 2.88061 10.3676L2.92861 8.47162V8.46922Z" fill="#FFEC2D"/>
<path d="M2.88 1.75231C2.88 1.75231 3.1104 1.55551 3.1896 1.65391C3.3144 1.80991 2.8008 2.58991 2.8008 2.86351C2.8008 3.31471 3.1032 3.43711 3.4728 3.49951C3.7224 3.54271 4.128 3.48271 4.128 3.48271C4.0512 3.37951 4.0008 3.34831 3.8736 3.34111C4.0176 3.26911 4.1616 3.10591 4.1616 2.85391C4.1616 2.46751 4.0032 2.30671 4.0032 1.86991C4.0032 1.63231 4.2 1.32031 4.2 1.32031C3.8496 1.35631 3.6768 1.68031 3.7752 1.93951C3.74819 1.94489 3.72027 1.94354 3.6939 1.93559C3.66754 1.92764 3.64353 1.91332 3.624 1.89391C3.6 1.96591 3.6384 2.04991 3.6936 2.12191C3.6504 2.14591 3.6168 2.13151 3.5496 2.11711C3.5544 2.18911 3.5976 2.27071 3.708 2.34511C3.3912 2.26351 3.1992 2.48191 3.1992 2.71231C3.1992 2.88751 3.3192 3.01231 3.4392 3.01231C3.4776 3.01231 3.5352 2.99551 3.5664 2.97151C3.5904 3.01951 3.576 3.08431 3.5544 3.13231C3.6408 3.10831 3.6984 3.05551 3.6576 2.94751C3.7248 2.94271 3.7776 2.91871 3.8136 2.87551C3.7776 2.82751 3.7224 2.80351 3.6576 2.80351C3.7056 2.70271 3.6504 2.64751 3.5712 2.60191C3.5712 2.60191 3.6216 2.80351 3.4944 2.80351C3.4368 2.80351 3.384 2.78671 3.384 2.70031C3.384 2.62591 3.4488 2.52271 3.6 2.52991C3.7488 2.53711 3.8712 2.63311 3.8712 2.87311C3.8712 3.09391 3.6912 3.20431 3.456 3.20911C3.2448 3.21871 3.084 3.10351 3.084 2.88511C3.084 2.59231 3.504 1.92991 3.504 1.67071C3.504 1.47631 3.3312 1.36591 3.1584 1.36591C2.9376 1.36591 2.7504 1.58671 2.7504 1.58671L2.88 1.74991V1.75231Z" fill="#FFEC2D"/>
<path d="M2.8323 7.01039C2.8323 7.49759 3.2691 7.74719 3.6123 7.74719C4.07311 7.74719 4.32031 7.47119 4.32031 7.10879C4.32031 6.90479 4.28191 6.77519 4.18831 6.58079L3.1275 4.37999C3.08908 4.28743 3.07264 4.18719 3.0795 4.08719C3.0795 3.8904 3.2715 3.7296 3.4707 3.7272C3.6531 3.72 3.8547 3.8952 3.8547 4.09439C3.8547 4.33679 3.7275 4.44479 3.5979 4.44479C3.4395 4.44479 3.3771 4.37999 3.3771 4.26719C3.3771 4.19039 3.4131 4.15679 3.4683 4.15679C3.6051 4.15679 3.5643 4.33919 3.5643 4.33919C3.58237 4.33587 3.59947 4.32859 3.61439 4.31787C3.62932 4.30715 3.64169 4.29327 3.65063 4.27723C3.65957 4.26119 3.66486 4.24335 3.66612 4.22503C3.66737 4.20671 3.66457 4.18831 3.6579 4.17119C3.70928 4.15967 3.75556 4.13191 3.7899 4.09199C3.7539 4.05599 3.7107 4.02959 3.6579 4.01999C3.6891 3.9144 3.6459 3.864 3.5547 3.84C3.57111 3.87608 3.57533 3.91652 3.5667 3.9552C3.4227 3.912 3.1995 3.9792 3.1995 4.22879C3.1995 4.47839 3.3723 4.68719 3.6963 4.63679C3.6195 4.67279 3.5811 4.74719 3.5715 4.83119C3.6315 4.80719 3.6963 4.80719 3.6963 4.80719C3.6579 4.87199 3.6051 4.92719 3.6075 5.06159C3.6675 5.03279 3.7251 4.98239 3.7995 5.01359C3.6795 5.25359 3.8283 5.57999 4.20751 5.65679C4.06831 5.49359 4.00111 5.32079 4.00111 5.14559C4.00111 4.58159 4.15711 4.48799 4.15711 4.09439C4.15463 4.00311 4.13051 3.91373 4.08667 3.83361C4.04287 3.75349 3.98063 3.68494 3.9051 3.6336V3.6408C3.95155 3.63126 3.99545 3.61201 4.03391 3.58429C4.07239 3.55658 4.10455 3.52104 4.12831 3.48C3.86095 3.40632 3.57832 3.40881 3.3123 3.4872C3.22332 3.49979 3.13831 3.53221 3.06354 3.58206C2.98877 3.6319 2.92615 3.69791 2.8803 3.7752C2.83239 3.88454 2.80765 4.00263 2.80765 4.12199C2.80765 4.24139 2.83239 4.35947 2.8803 4.46879C3.0315 4.78079 3.7371 6.28319 3.9579 6.75359C4.00591 6.85439 4.03231 6.95999 4.03231 7.07519C4.03231 7.36319 3.7683 7.46399 3.6195 7.46399C3.4395 7.46399 3.2547 7.32719 3.2547 7.15679C3.2547 7.04879 3.3147 6.98159 3.3987 6.98159C3.6027 6.98159 3.5907 7.15439 3.5499 7.26479C3.6771 7.20719 3.7491 7.10639 3.7299 7.00079C3.80866 6.98759 3.88013 6.94675 3.9315 6.88559C3.8835 6.82319 3.8211 6.77519 3.7299 6.77279C3.7707 6.60719 3.6579 6.53759 3.5499 6.49919C3.5835 6.61919 3.6075 6.76079 3.3987 6.76079C3.2475 6.76079 3.1299 6.78479 3.0603 6.88559L3.0435 6.23759C3.0339 6.04319 3.3027 6.04559 3.4755 6.10559C3.4107 5.88239 3.2787 5.75999 2.9715 5.79119C3.01857 5.77311 3.05874 5.74063 3.08631 5.69843C3.11388 5.65619 3.12746 5.60639 3.1251 5.55599C3.1251 5.37359 2.9763 5.17199 2.8803 5.11199L2.8323 7.00799V7.01039Z" fill="#FFEC2D"/>
<path d="M2.8323 8.46922C2.8323 7.98202 3.2691 7.73242 3.6123 7.73242C4.07311 7.73242 4.32031 8.00842 4.32031 8.37082C4.32031 8.57482 4.28191 8.70442 4.18831 8.89882L3.1275 11.0996C3.08908 11.1922 3.07264 11.2924 3.0795 11.3924C3.0795 11.5892 3.2715 11.75 3.4707 11.7524C3.6531 11.7596 3.8547 11.5844 3.8547 11.3852C3.8547 11.1428 3.7275 11.0348 3.5979 11.0348C3.4395 11.0348 3.3771 11.0996 3.3771 11.2124C3.3771 11.2892 3.4131 11.3228 3.4683 11.3228C3.6051 11.3228 3.5643 11.1404 3.5643 11.1404C3.58237 11.1437 3.59947 11.1511 3.61439 11.1617C3.62932 11.1725 3.64169 11.1863 3.65063 11.2024C3.65957 11.2185 3.66486 11.2363 3.66612 11.2546C3.66737 11.2729 3.66457 11.2913 3.6579 11.3084C3.70928 11.3199 3.75556 11.3477 3.7899 11.3876C3.7539 11.4236 3.7107 11.45 3.6579 11.4596C3.6891 11.5652 3.6459 11.6156 3.5547 11.6396C3.57111 11.6035 3.57533 11.5631 3.5667 11.5244C3.4227 11.5676 3.1995 11.5004 3.1995 11.2508C3.1995 11.0012 3.3723 10.7924 3.6963 10.8428C3.6195 10.8068 3.5811 10.7324 3.5715 10.6484C3.6315 10.6724 3.6963 10.6724 3.6963 10.6724C3.6579 10.6076 3.6051 10.5524 3.6075 10.418C3.6675 10.4468 3.7251 10.4972 3.7995 10.466C3.6795 10.226 3.8283 9.89962 4.20751 9.82282C4.06831 9.98602 4.00111 10.1588 4.00111 10.334C4.00111 10.898 4.15711 10.9916 4.15711 11.3852C4.15463 11.4765 4.13051 11.5659 4.08667 11.646C4.04287 11.7261 3.98063 11.7947 3.9051 11.846V11.8388C3.95155 11.8483 3.99545 11.8676 4.03391 11.8953C4.07239 11.9231 4.10455 11.9586 4.12831 11.9996C3.86095 12.0733 3.57832 12.0708 3.3123 11.9924C3.22332 11.9798 3.13831 11.9474 3.06354 11.8976C2.98877 11.8477 2.92615 11.7817 2.8803 11.7044C2.83239 11.5951 2.80765 11.477 2.80765 11.3576C2.80765 11.2382 2.83239 11.1201 2.8803 11.0108C3.0315 10.6988 3.7371 9.19642 3.9579 8.72602C4.00591 8.62522 4.03231 8.51962 4.03231 8.40442C4.03231 8.11642 3.7683 8.01562 3.6195 8.01562C3.4395 8.01562 3.2547 8.15242 3.2547 8.32282C3.2547 8.43082 3.3147 8.49802 3.3987 8.49802C3.6027 8.49802 3.5907 8.32522 3.5499 8.21482C3.6771 8.27242 3.7491 8.37322 3.7299 8.47882C3.80866 8.49202 3.88013 8.53286 3.9315 8.59402C3.8835 8.65642 3.8211 8.70442 3.7299 8.70682C3.7707 8.87242 3.6579 8.94202 3.5499 8.98042C3.5835 8.86042 3.6075 8.71882 3.3987 8.71882C3.2475 8.71882 3.1299 8.69482 3.0603 8.59402L3.0435 9.24202C3.0339 9.43642 3.3027 9.43402 3.4755 9.37402C3.4107 9.59722 3.2787 9.71962 2.9715 9.68842C3.01857 9.7065 3.05874 9.73898 3.08631 9.78118C3.11388 9.82342 3.12746 9.87326 3.1251 9.92362C3.1251 10.106 2.9763 10.3076 2.8803 10.3676L2.8323 8.47162V8.46922Z" fill="#FFEC2D"/>
<path d="M2.88094 22.2477C2.88094 22.2477 2.65054 22.4445 2.57134 22.3461C2.44654 22.1901 2.96014 21.4101 2.96014 21.1365C2.96014 20.6853 2.65774 20.5629 2.28814 20.5005C2.03854 20.4573 1.63294 20.5173 1.63294 20.5173C1.70974 20.6205 1.76014 20.6517 1.88734 20.6589C1.74334 20.7309 1.59934 20.8941 1.59934 21.1461C1.59934 21.5325 1.75774 21.6933 1.75774 22.1301C1.75774 22.3677 1.56094 22.6797 1.56094 22.6797C1.91134 22.6437 2.08414 22.3197 1.98574 22.0605C2.01276 22.0551 2.04067 22.0565 2.06704 22.0644C2.0934 22.0724 2.11741 22.0867 2.13694 22.1061C2.16094 22.0341 2.12254 21.9501 2.06734 21.8781C2.11054 21.8541 2.14414 21.8685 2.21134 21.8829C2.20654 21.8109 2.16334 21.7293 2.05294 21.6549C2.36974 21.7365 2.56174 21.5181 2.56174 21.2877C2.56174 21.1125 2.44174 20.9877 2.32174 20.9877C2.28334 20.9877 2.22574 21.0045 2.19454 21.0285C2.17054 20.9805 2.18494 20.9157 2.20654 20.8677C2.12014 20.8917 2.06254 20.9445 2.10334 21.0525C2.03614 21.0573 1.98334 21.0813 1.94734 21.1245C1.98334 21.1725 2.03854 21.1965 2.10334 21.1965C2.05534 21.2973 2.11054 21.3525 2.18974 21.3981C2.18974 21.3981 2.13934 21.1965 2.26654 21.1965C2.32414 21.1965 2.37694 21.2133 2.37694 21.2997C2.37694 21.3741 2.31214 21.4773 2.16094 21.4701C2.01214 21.4629 1.88974 21.3669 1.88974 21.1269C1.88974 20.9061 2.06974 20.7957 2.30494 20.7909C2.51614 20.7813 2.67694 20.8965 2.67694 21.1149C2.67694 21.4077 2.25694 22.0701 2.25694 22.3293C2.25694 22.5237 2.42974 22.6341 2.60254 22.6341C2.82334 22.6341 3.01054 22.4133 3.01054 22.4133L2.88094 22.2501V22.2477Z" fill="#FFEC2D"/>
<path d="M2.92861 16.9895C2.92861 16.5023 2.49181 16.2527 2.14861 16.2527C1.68781 16.2527 1.44061 16.5287 1.44061 16.8911C1.44061 17.0951 1.47901 17.2247 1.57261 17.4191L2.63341 19.6199C2.67184 19.7124 2.68827 19.8127 2.68141 19.9127C2.68141 20.1095 2.48941 20.2703 2.29021 20.2727C2.10781 20.2799 1.90621 20.1047 1.90621 19.9055C1.90621 19.6631 2.03341 19.5551 2.16301 19.5551C2.32141 19.5551 2.38381 19.6199 2.38381 19.7327C2.38381 19.8095 2.34781 19.8431 2.29261 19.8431C2.15581 19.8431 2.19661 19.6607 2.19661 19.6607C2.17855 19.664 2.16144 19.6713 2.14652 19.682C2.1316 19.6927 2.11923 19.7066 2.11029 19.7226C2.10135 19.7387 2.09606 19.7565 2.0948 19.7748C2.09354 19.7932 2.09635 19.8116 2.10301 19.8287C2.05164 19.8402 2.00535 19.868 1.97101 19.9079C2.00701 19.9439 2.05021 19.9703 2.10301 19.9799C2.07181 20.0855 2.11501 20.1359 2.20621 20.1599C2.1898 20.1238 2.18559 20.0834 2.19421 20.0447C2.33821 20.0879 2.56141 20.0207 2.56141 19.7711C2.56141 19.5215 2.38861 19.3127 2.06461 19.3631C2.14141 19.3271 2.17981 19.2527 2.18941 19.1687C2.12941 19.1927 2.06461 19.1927 2.06461 19.1927C2.10301 19.1279 2.15581 19.0727 2.15341 18.9383C2.09341 18.9671 2.03581 19.0175 1.96141 18.9863C2.08141 18.7463 1.93261 18.4199 1.55341 18.3431C1.69261 18.5063 1.75981 18.6791 1.75981 18.8543C1.75981 19.4183 1.60381 19.5119 1.60381 19.9055C1.60628 19.9968 1.63042 20.0862 1.67424 20.1663C1.71805 20.2464 1.78029 20.3149 1.85581 20.3663V20.3591C1.80937 20.3686 1.76547 20.3879 1.727 20.4156C1.68853 20.4433 1.65636 20.4788 1.63261 20.5199C1.89997 20.5936 2.1826 20.5911 2.44861 20.5127C2.53759 20.5001 2.6226 20.4677 2.69738 20.4178C2.77215 20.368 2.83477 20.302 2.88061 20.2247C2.92853 20.1153 2.95327 19.9972 2.95327 19.8779C2.95327 19.7585 2.92853 19.6404 2.88061 19.5311C2.72941 19.2191 2.02381 17.7167 1.80301 17.2463C1.75501 17.1455 1.72861 17.0399 1.72861 16.9247C1.72861 16.6367 1.99261 16.5359 2.14141 16.5359C2.32141 16.5359 2.50621 16.6727 2.50621 16.8431C2.50621 16.9511 2.44621 17.0183 2.36221 17.0183C2.15821 17.0183 2.17021 16.8455 2.21101 16.7351C2.08381 16.7927 2.01181 16.8935 2.03101 16.9991C1.95226 17.0123 1.88079 17.0531 1.82941 17.1143C1.87741 17.1767 1.93981 17.2247 2.03101 17.2271C1.99021 17.3927 2.10301 17.4623 2.21101 17.5007C2.17741 17.3807 2.15341 17.2391 2.36221 17.2391C2.51341 17.2391 2.63101 17.2151 2.70061 17.1143L2.71741 17.7623C2.72701 17.9567 2.45821 17.9543 2.28541 17.8943C2.35021 18.1175 2.48221 18.2399 2.78941 18.2087C2.74235 18.2268 2.70218 18.2592 2.67461 18.3014C2.64704 18.3437 2.63346 18.3935 2.63581 18.4439C2.63581 18.6263 2.78461 18.8279 2.88061 18.8879L2.92861 16.9919V16.9895Z" fill="#FFEC2D"/>
<path d="M2.92861 15.5307C2.92861 16.0179 2.49181 16.2675 2.14861 16.2675C1.68781 16.2675 1.44061 15.9915 1.44061 15.6291C1.44061 15.4251 1.47901 15.2955 1.57261 15.1011L2.63341 12.9003C2.67184 12.8077 2.68827 12.7075 2.68141 12.6075C2.68141 12.4107 2.48941 12.2499 2.29021 12.2475C2.10781 12.2403 1.90621 12.4155 1.90621 12.6147C1.90621 12.8571 2.03341 12.9651 2.16301 12.9651C2.32141 12.9651 2.38381 12.9003 2.38381 12.7875C2.38381 12.7107 2.34781 12.6771 2.29261 12.6771C2.15581 12.6771 2.19661 12.8595 2.19661 12.8595C2.17855 12.8561 2.16144 12.8488 2.14652 12.8381C2.1316 12.8274 2.11923 12.8135 2.11029 12.7975C2.10135 12.7814 2.09606 12.7636 2.0948 12.7453C2.09354 12.727 2.09635 12.7086 2.10301 12.6915C2.05164 12.6799 2.00535 12.6522 1.97101 12.6123C2.00701 12.5763 2.05021 12.5499 2.10301 12.5403C2.07181 12.4347 2.11501 12.3843 2.20621 12.3603C2.1898 12.3963 2.18559 12.4368 2.19421 12.4755C2.33821 12.4323 2.56141 12.4995 2.56141 12.7491C2.56141 12.9987 2.38861 13.2075 2.06461 13.1571C2.14141 13.1931 2.17981 13.2675 2.18941 13.3515C2.12941 13.3275 2.06461 13.3275 2.06461 13.3275C2.10301 13.3923 2.15581 13.4475 2.15341 13.5819C2.09341 13.5531 2.03581 13.5027 1.96141 13.5339C2.08141 13.7739 1.93261 14.1003 1.55341 14.1771C1.69261 14.0139 1.75981 13.8411 1.75981 13.6659C1.75981 13.1019 1.60381 13.0083 1.60381 12.6147C1.60628 12.5234 1.63042 12.434 1.67424 12.3539C1.71805 12.2737 1.78029 12.2052 1.85581 12.1539V12.1611C1.80937 12.1515 1.76547 12.1323 1.727 12.1045C1.68853 12.0768 1.65636 12.0413 1.63261 12.0003C1.89997 11.9266 2.1826 11.9291 2.44861 12.0075C2.53759 12.0201 2.6226 12.0525 2.69738 12.1023C2.77215 12.1522 2.83477 12.2182 2.88061 12.2955C2.92853 12.4048 2.95327 12.5229 2.95327 12.6423C2.95327 12.7617 2.92853 12.8797 2.88061 12.9891C2.72941 13.3011 2.02381 14.8035 1.80301 15.2739C1.75501 15.3747 1.72861 15.4803 1.72861 15.5955C1.72861 15.8835 1.99261 15.9843 2.14141 15.9843C2.32141 15.9843 2.50621 15.8475 2.50621 15.6771C2.50621 15.5691 2.44621 15.5019 2.36221 15.5019C2.15821 15.5019 2.17021 15.6747 2.21101 15.7851C2.08381 15.7275 2.01181 15.6267 2.03101 15.5211C1.95226 15.5079 1.88079 15.467 1.82941 15.4059C1.87741 15.3435 1.93981 15.2955 2.03101 15.2931C1.99021 15.1275 2.10301 15.0579 2.21101 15.0195C2.17741 15.1395 2.15341 15.2811 2.36221 15.2811C2.51341 15.2811 2.63101 15.3051 2.70061 15.4059L2.71741 14.7579C2.72701 14.5635 2.45821 14.5659 2.28541 14.6259C2.35021 14.4027 2.48221 14.2803 2.78941 14.3115C2.74235 14.2934 2.70218 14.2609 2.67461 14.2187C2.64704 14.1765 2.63346 14.1266 2.63581 14.0763C2.63581 13.8939 2.78461 13.6923 2.88061 13.6323L2.92861 15.5283V15.5307Z" fill="#FFEC2D"/>
<path d="M2.88 22.2477C2.88 22.2477 3.1104 22.4445 3.1896 22.3461C3.3144 22.1901 2.8008 21.4101 2.8008 21.1365C2.8008 20.6853 3.1032 20.5629 3.4728 20.5005C3.7224 20.4573 4.128 20.5173 4.128 20.5173C4.0512 20.6205 4.0008 20.6517 3.8736 20.6589C4.0176 20.7309 4.1616 20.8941 4.1616 21.1461C4.1616 21.5325 4.0032 21.6933 4.0032 22.1301C4.0032 22.3677 4.2 22.6797 4.2 22.6797C3.8496 22.6437 3.6768 22.3197 3.7752 22.0605C3.74819 22.0551 3.72027 22.0565 3.6939 22.0644C3.66754 22.0724 3.64353 22.0867 3.624 22.1061C3.6 22.0341 3.6384 21.9501 3.6936 21.8781C3.6504 21.8541 3.6168 21.8685 3.5496 21.8829C3.5544 21.8109 3.5976 21.7293 3.708 21.6549C3.3912 21.7365 3.1992 21.5181 3.1992 21.2877C3.1992 21.1125 3.3192 20.9877 3.4392 20.9877C3.4776 20.9877 3.5352 21.0045 3.5664 21.0285C3.5904 20.9805 3.576 20.9157 3.5544 20.8677C3.6408 20.8917 3.6984 20.9445 3.6576 21.0525C3.7248 21.0573 3.7776 21.0813 3.8136 21.1245C3.7776 21.1725 3.7224 21.1965 3.6576 21.1965C3.7056 21.2973 3.6504 21.3525 3.5712 21.3981C3.5712 21.3981 3.6216 21.1965 3.4944 21.1965C3.4368 21.1965 3.384 21.2133 3.384 21.2997C3.384 21.3741 3.4488 21.4773 3.6 21.4701C3.7488 21.4629 3.8712 21.3669 3.8712 21.1269C3.8712 20.9061 3.6912 20.7957 3.456 20.7909C3.2448 20.7813 3.084 20.8965 3.084 21.1149C3.084 21.4077 3.504 22.0701 3.504 22.3293C3.504 22.5237 3.3312 22.6341 3.1584 22.6341C2.9376 22.6341 2.7504 22.4133 2.7504 22.4133L2.88 22.2501V22.2477Z" fill="#FFEC2D"/>
<path d="M2.8323 16.9895C2.8323 16.5023 3.2691 16.2527 3.6123 16.2527C4.07311 16.2527 4.32031 16.5287 4.32031 16.8911C4.32031 17.0951 4.28191 17.2247 4.18831 17.4191L3.1275 19.6199C3.08908 19.7124 3.07264 19.8127 3.0795 19.9127C3.0795 20.1095 3.2715 20.2703 3.4707 20.2727C3.6531 20.2799 3.8547 20.1047 3.8547 19.9055C3.8547 19.6631 3.7275 19.5551 3.5979 19.5551C3.4395 19.5551 3.3771 19.6199 3.3771 19.7327C3.3771 19.8095 3.4131 19.8431 3.4683 19.8431C3.6051 19.8431 3.5643 19.6607 3.5643 19.6607C3.58237 19.664 3.59947 19.6713 3.61439 19.682C3.62932 19.6927 3.64169 19.7066 3.65063 19.7226C3.65957 19.7387 3.66486 19.7565 3.66612 19.7748C3.66737 19.7932 3.66457 19.8116 3.6579 19.8287C3.70928 19.8402 3.75556 19.868 3.7899 19.9079C3.7539 19.9439 3.7107 19.9703 3.6579 19.9799C3.6891 20.0855 3.6459 20.1359 3.5547 20.1599C3.57111 20.1238 3.57533 20.0834 3.5667 20.0447C3.4227 20.0879 3.1995 20.0207 3.1995 19.7711C3.1995 19.5215 3.3723 19.3127 3.6963 19.3631C3.6195 19.3271 3.5811 19.2527 3.5715 19.1687C3.6315 19.1927 3.6963 19.1927 3.6963 19.1927C3.6579 19.1279 3.6051 19.0727 3.6075 18.9383C3.6675 18.9671 3.7251 19.0175 3.7995 18.9863C3.6795 18.7463 3.8283 18.4199 4.20751 18.3431C4.06831 18.5063 4.00111 18.6791 4.00111 18.8543C4.00111 19.4183 4.15711 19.5119 4.15711 19.9055C4.15463 19.9968 4.13051 20.0862 4.08667 20.1663C4.04287 20.2464 3.98063 20.3149 3.9051 20.3663V20.3591C3.95155 20.3686 3.99545 20.3879 4.03391 20.4156C4.07239 20.4433 4.10455 20.4788 4.12831 20.5199C3.86095 20.5936 3.57832 20.5911 3.3123 20.5127C3.22332 20.5001 3.13831 20.4677 3.06354 20.4178C2.98877 20.368 2.92615 20.302 2.8803 20.2247C2.83239 20.1153 2.80765 19.9972 2.80765 19.8779C2.80765 19.7585 2.83239 19.6404 2.8803 19.5311C3.0315 19.2191 3.7371 17.7167 3.9579 17.2463C4.00591 17.1455 4.03231 17.0399 4.03231 16.9247C4.03231 16.6367 3.7683 16.5359 3.6195 16.5359C3.4395 16.5359 3.2547 16.6727 3.2547 16.8431C3.2547 16.9511 3.3147 17.0183 3.3987 17.0183C3.6027 17.0183 3.5907 16.8455 3.5499 16.7351C3.6771 16.7927 3.7491 16.8935 3.7299 16.9991C3.80866 17.0123 3.88013 17.0531 3.9315 17.1143C3.8835 17.1767 3.8211 17.2247 3.7299 17.2271C3.7707 17.3927 3.6579 17.4623 3.5499 17.5007C3.5835 17.3807 3.6075 17.2391 3.3987 17.2391C3.2475 17.2391 3.1299 17.2151 3.0603 17.1143L3.0435 17.7623C3.0339 17.9567 3.3027 17.9543 3.4755 17.8943C3.4107 18.1175 3.2787 18.2399 2.9715 18.2087C3.01857 18.2268 3.05874 18.2592 3.08631 18.3014C3.11388 18.3437 3.12746 18.3935 3.1251 18.4439C3.1251 18.6263 2.9763 18.8279 2.8803 18.8879L2.8323 16.9919V16.9895Z" fill="#FFEC2D"/>
<path d="M2.8323 15.5307C2.8323 16.0179 3.2691 16.2675 3.6123 16.2675C4.07311 16.2675 4.32031 15.9915 4.32031 15.6291C4.32031 15.4251 4.28191 15.2955 4.18831 15.1011L3.1275 12.9003C3.08908 12.8077 3.07264 12.7075 3.0795 12.6075C3.0795 12.4107 3.2715 12.2499 3.4707 12.2475C3.6531 12.2403 3.8547 12.4155 3.8547 12.6147C3.8547 12.8571 3.7275 12.9651 3.5979 12.9651C3.4395 12.9651 3.3771 12.9003 3.3771 12.7875C3.3771 12.7107 3.4131 12.6771 3.4683 12.6771C3.6051 12.6771 3.5643 12.8595 3.5643 12.8595C3.58237 12.8561 3.59947 12.8488 3.61439 12.8381C3.62932 12.8274 3.64169 12.8135 3.65063 12.7975C3.65957 12.7814 3.66486 12.7636 3.66612 12.7453C3.66737 12.727 3.66457 12.7086 3.6579 12.6915C3.70928 12.6799 3.75556 12.6522 3.7899 12.6123C3.7539 12.5763 3.7107 12.5499 3.6579 12.5403C3.6891 12.4347 3.6459 12.3843 3.5547 12.3603C3.57111 12.3963 3.57533 12.4368 3.5667 12.4755C3.4227 12.4323 3.1995 12.4995 3.1995 12.7491C3.1995 12.9987 3.3723 13.2075 3.6963 13.1571C3.6195 13.1931 3.5811 13.2675 3.5715 13.3515C3.6315 13.3275 3.6963 13.3275 3.6963 13.3275C3.6579 13.3923 3.6051 13.4475 3.6075 13.5819C3.6675 13.5531 3.7251 13.5027 3.7995 13.5339C3.6795 13.7739 3.8283 14.1003 4.20751 14.1771C4.06831 14.0139 4.00111 13.8411 4.00111 13.6659C4.00111 13.1019 4.15711 13.0083 4.15711 12.6147C4.15463 12.5234 4.13051 12.434 4.08667 12.3539C4.04287 12.2737 3.98063 12.2052 3.9051 12.1539V12.1611C3.95155 12.1515 3.99545 12.1323 4.03391 12.1045C4.07239 12.0768 4.10455 12.0413 4.12831 12.0003C3.86095 11.9266 3.57832 11.9291 3.3123 12.0075C3.22332 12.0201 3.13831 12.0525 3.06354 12.1023C2.98877 12.1522 2.92615 12.2182 2.8803 12.2955C2.83239 12.4048 2.80765 12.5229 2.80765 12.6423C2.80765 12.7617 2.83239 12.8797 2.8803 12.9891C3.0315 13.3011 3.7371 14.8035 3.9579 15.2739C4.00591 15.3747 4.03231 15.4803 4.03231 15.5955C4.03231 15.8835 3.7683 15.9843 3.6195 15.9843C3.4395 15.9843 3.2547 15.8475 3.2547 15.6771C3.2547 15.5691 3.3147 15.5019 3.3987 15.5019C3.6027 15.5019 3.5907 15.6747 3.5499 15.7851C3.6771 15.7275 3.7491 15.6267 3.7299 15.5211C3.80866 15.5079 3.88013 15.467 3.9315 15.4059C3.8835 15.3435 3.8211 15.2955 3.7299 15.2931C3.7707 15.1275 3.6579 15.0579 3.5499 15.0195C3.5835 15.1395 3.6075 15.2811 3.3987 15.2811C3.2475 15.2811 3.1299 15.3051 3.0603 15.4059L3.0435 14.7579C3.0339 14.5635 3.3027 14.5659 3.4755 14.6259C3.4107 14.4027 3.2787 14.2803 2.9715 14.3115C3.01857 14.2934 3.05874 14.2609 3.08631 14.2187C3.11388 14.1765 3.12746 14.1266 3.1251 14.0763C3.1251 13.8939 2.9763 13.6923 2.8803 13.6323L2.8323 15.5283V15.5307Z" fill="#FFEC2D"/>
</g>
</g>
</g>
<defs>
<clipPath id="clip0_69_8019">
<rect width="24" height="24" rx="12" fill="white"/>
</clipPath>
<clipPath id="clip1_69_8019">
<rect width="32" height="24" fill="white"/>
</clipPath>
</defs>
</svg>
