<svg width="24" height="24" viewBox="0 0 24 24" fill="none" xmlns="http://www.w3.org/2000/svg">
<g clip-path="url(#clip0_69_8297)">
<g clip-path="url(#clip1_69_8297)">
<mask id="mask0_69_8297" style="mask-type:luminance" maskUnits="userSpaceOnUse" x="-4" y="0" width="32" height="24">
<path d="M28 0H-4V24H28V0Z" fill="white"/>
</mask>
<g mask="url(#mask0_69_8297)">
<mask id="mask1_69_8297" style="mask-type:luminance" maskUnits="userSpaceOnUse" x="-4" y="0" width="32" height="24">
<path d="M-3.99844 0H27.9984V24H-3.99844V0Z" fill="white"/>
</mask>
<g mask="url(#mask1_69_8297)">
<path fill-rule="evenodd" clip-rule="evenodd" d="M-6 18H30V24H-6V18ZM-6 0H30V6H-6V0Z" fill="#EE161F"/>
<path fill-rule="evenodd" clip-rule="evenodd" d="M-6 6H30V18H-6V6Z" fill="white"/>
<path d="M11.8167 6.09379C11.451 6.82035 11.2073 6.82035 10.5979 7.31255C10.3542 7.55159 9.98856 7.67347 10.476 7.92191C9.98384 8.16095 9.74012 8.28283 9.49636 8.77035L9.61824 8.89223C9.61824 8.89223 10.087 8.66723 10.1057 8.77035C10.1901 8.86879 9.49636 9.23911 9.40728 9.30003L8.89168 9.62815C8.2776 10.111 7.90728 9.98911 7.54636 10.7204L8.76512 10.5985C9.00884 11.4516 8.15572 11.5735 7.54636 11.9391L6.56668 12.5485C6.81512 13.4016 7.54636 12.9141 8.15572 12.6704L8.2776 12.7922V13.036L7.05884 13.6454C7.05884 13.6454 5.61512 14.4704 5.59168 14.4985C5.58228 14.5454 5.59168 14.7422 5.59168 14.7422C6.07916 14.8641 6.8104 14.986 7.3026 14.7422C7.91196 14.4985 8.03384 14.2547 8.76512 14.2547C8.06128 14.8039 7.216 15.142 6.3276 15.2297V15.7172C7.05884 15.7172 7.54636 15.7172 8.15572 15.5954L9.74012 15.1078C10.1057 15.1078 10.476 15.4735 10.3495 15.8391C9.98856 17.1797 8.52136 16.936 8.03384 18.0328L9.98384 17.2969C10.4714 17.0532 10.9588 16.8141 11.5682 16.936C12.2995 17.1797 12.2995 17.6672 13.2745 17.911L13.0307 17.3016C13.2745 17.4235 13.5182 17.4235 13.7667 17.5454C14.376 17.7891 14.4979 18.0328 15.2292 17.911C14.6198 17.1797 14.4979 17.3016 14.0104 16.8141C13.5229 16.0828 13.2745 14.986 14.0104 14.8641L14.8636 15.1078C15.7167 15.2297 15.7167 14.986 16.9354 15.4735C17.6714 15.7172 17.9151 16.0828 18.7636 15.8391C18.4026 14.986 17.062 14.3766 16.2042 14.1328C17.1838 13.5235 16.9354 14.3766 18.2807 14.011V13.7672C17.3104 13.0313 16.9401 12.4219 15.5995 12.4219L17.676 12.1782V11.9344C17.676 11.9344 15.6276 11.4 15.5807 11.3766C15.5948 11.3157 15.6464 11.2219 15.7823 11.1657C16.1714 11.4188 17.3432 11.3907 17.4136 11.386C17.376 11.086 16.8182 10.8376 16.3354 10.5938C16.3354 10.5938 14.2401 9.30471 14.2307 9.19223C14.2729 8.86411 15.0886 9.24379 15.9651 9.49691C15.7214 9.00939 15.2338 8.76567 14.7464 8.64379L15.4776 8.52191C14.9901 7.42503 13.7714 7.54691 13.0401 7.05939C12.5479 6.69379 12.5479 6.45003 11.8167 6.08911V6.09379Z" fill="#00A850"/>
<path fill-rule="evenodd" clip-rule="evenodd" d="M10.5 14.2038C10.5891 13.9179 10.7062 13.6601 10.1625 13.4116C9.61876 13.1632 10.4344 14.4007 10.5 14.2085V14.2038ZM11.1422 13.6272C11.0344 13.6413 10.9734 14.0397 11.1938 14.1522C11.4375 14.1897 11.2406 13.6319 11.1422 13.6272ZM11.775 13.5803C11.6625 13.6179 11.6578 14.1803 12.0562 14.0772C12.4594 13.9788 12.0562 13.5382 11.775 13.5851V13.5803ZM12.5156 12.1413C12.6 12.0007 12.5109 11.4382 12.1688 11.6725C11.8219 11.9116 12.4031 12.1788 12.5156 12.1413ZM11.7656 11.6725C11.8734 11.6303 11.8828 11.2835 11.5781 11.3772C11.2828 11.4663 11.6859 11.7429 11.7656 11.6725ZM11.0906 11.8085C11.0906 11.8085 10.8797 11.5179 10.7156 11.5788C10.5141 11.7757 11.1047 11.8132 11.0906 11.8085ZM8.76564 12.7366C8.85468 12.746 9.51564 12.6288 9.74532 12.371C9.975 12.1132 8.56876 12.4788 8.56876 12.4835C8.56876 12.4882 8.7 12.7132 8.76564 12.7366ZM15.3797 11.096C15.4125 11.0351 15.0281 10.7632 14.7984 10.871C14.7375 11.0725 15.3797 11.1382 15.3797 11.096ZM14.0766 10.4397C14.1516 10.3366 13.9125 9.91006 13.4344 10.1491C12.9562 10.3835 13.9359 10.6085 14.0766 10.4444V10.4397ZM12.5719 10.1913C12.5719 10.1913 12.6891 9.80691 12.975 9.88191C13.3031 10.1303 12.5859 10.2053 12.5719 10.1913ZM12.2906 9.90067C12.2438 9.79287 11.9484 9.85379 11.6062 10.0835C11.2594 10.3038 12.3938 10.1491 12.2906 9.89599V9.90067ZM13.1672 8.86475C13.1672 8.86475 13.4719 8.72411 13.5656 8.86475C13.6922 9.06631 13.1625 8.86475 13.1672 8.86475ZM12.9094 8.72879C12.8484 8.60691 12.5109 8.59287 12.5203 8.77567C12.4641 8.91631 12.9609 8.88819 12.9094 8.72879ZM12.1031 8.72879C12.0703 8.65851 11.5875 8.72879 11.4469 9.01943C11.6812 9.13191 12.2109 8.91163 12.1031 8.72879ZM11.0719 9.02411C11.0719 9.02411 10.4438 9.41319 10.4016 9.69443C10.4203 9.93819 11.1891 9.25379 11.1891 9.25379C11.1891 9.25379 11.2547 8.98191 11.0766 9.02411H11.0719ZM10.3734 8.67255C10.3922 8.59287 10.6875 8.41007 10.7109 8.42411C10.7344 8.50379 10.4719 8.71943 10.3734 8.67255ZM10.575 10.1538C10.5891 10.0366 9.825 10.046 10.1109 10.3975C10.3547 10.6929 10.6266 10.2053 10.575 10.1538ZM9.87188 10.6553C9.83436 10.5803 9.77812 10.3741 9.675 10.3553C9.58592 10.3553 9.12656 10.4491 9.08908 10.5241C9.07032 10.5851 9.28124 10.9647 9.35156 10.9741C9.43592 11.0069 9.86248 10.6929 9.87656 10.6553H9.87188ZM14.0156 13.2429C14.0391 13.1585 14.8266 12.8913 15.0938 13.1491C15.4125 13.5851 13.9969 13.3835 14.0156 13.2429ZM16.1719 13.7538C16.3453 13.4632 15.6422 13.1163 15.3469 13.4491C15.45 13.8475 16.0312 13.9929 16.1719 13.7538Z" fill="white" stroke="white" stroke-width="0.375" stroke-linecap="round" stroke-linejoin="round"/>
</g>
</g>
</g>
</g>
<defs>
<clipPath id="clip0_69_8297">
<rect width="24" height="24" rx="12" fill="white"/>
</clipPath>
<clipPath id="clip1_69_8297">
<rect width="32" height="24" fill="white" transform="translate(-4)"/>
</clipPath>
</defs>
</svg>
