<svg width="24" height="24" viewBox="0 0 24 24" fill="none" xmlns="http://www.w3.org/2000/svg">
<g clip-path="url(#clip0_69_8352)">
<path d="M0 -3.19995H24V12.2H0V-3.19995Z" fill="#002B7F"/>
<path d="M0 12.2H24V27.5999H0V12.2Z" fill="#CE1126"/>
<path d="M6.49125 6.86975L6.43425 8.74475H4.53225C4.29825 8.28875 4.10625 7.90475 4.10625 7.37975C4.10625 6.94175 4.45125 6.59375 4.94625 6.59375C5.47125 6.59375 6.05025 6.77075 6.49125 6.86975Z" fill="#FFD83D"/>
<path d="M4.33476 6.956V8.036M4.48476 6.845V8.285M4.64076 6.77V8.486M4.79076 6.734V8.081M4.94376 6.728V8.087M5.09676 6.677V8.087M5.24976 6.677V8.087M5.40276 6.692V8.102M5.55576 6.707V8.114M5.70876 6.794V8.204M5.85876 6.809V8.396M6.01476 6.809V8.219M6.16476 6.809V8.219" stroke="black" stroke-width="0.15" stroke-linecap="round" stroke-linejoin="round"/>
<path d="M5.29119 6.74023C5.61519 6.79123 6.32319 7.12423 6.24219 7.57123C6.12819 8.20723 5.75619 7.95223 5.26419 7.86223L4.89219 7.98523C4.75719 8.12023 4.56219 8.24623 4.43019 8.08123H4.20819V8.94523H6.65019V6.86023L5.29119 6.74023Z" fill="black" stroke="black" stroke-width="0.15" stroke-linecap="round" stroke-linejoin="round"/>
<path d="M6.38257 6.73785C6.46375 6.73785 6.52957 6.67203 6.52957 6.59085C6.52957 6.50967 6.46375 6.44385 6.38257 6.44385C6.30136 6.44385 6.23557 6.50967 6.23557 6.59085C6.23557 6.67203 6.30136 6.73785 6.38257 6.73785Z" fill="#FFD83D" stroke="black" stroke-width="0.2" stroke-linecap="round" stroke-linejoin="round"/>
<path d="M6.04974 6.65582C6.13092 6.65582 6.19674 6.59 6.19674 6.50882C6.19674 6.42761 6.13092 6.36182 6.04974 6.36182C5.96856 6.36182 5.90274 6.42761 5.90274 6.50882C5.90274 6.59 5.96856 6.65582 6.04974 6.65582Z" fill="#FFD83D" stroke="black" stroke-width="0.2" stroke-linecap="round" stroke-linejoin="round"/>
<path d="M5.71107 6.57256C5.79225 6.57256 5.85807 6.50674 5.85807 6.42556C5.85807 6.34438 5.79225 6.27856 5.71107 6.27856C5.62989 6.27856 5.56407 6.34438 5.56407 6.42556C5.56407 6.50674 5.62989 6.57256 5.71107 6.57256Z" fill="#FFD83D" stroke="black" stroke-width="0.2" stroke-linecap="round" stroke-linejoin="round"/>
<path d="M5.3724 6.51519C5.45358 6.51519 5.5194 6.44937 5.5194 6.36819C5.5194 6.28701 5.45358 6.22119 5.3724 6.22119C5.29122 6.22119 5.2254 6.28701 5.2254 6.36819C5.2254 6.44937 5.29122 6.51519 5.3724 6.51519Z" fill="#FFD83D" stroke="black" stroke-width="0.2" stroke-linecap="round" stroke-linejoin="round"/>
<path d="M5.03256 6.48222C5.11374 6.48222 5.17956 6.41643 5.17956 6.33522C5.17956 6.25404 5.11374 6.18823 5.03256 6.18823C4.95135 6.18823 4.88556 6.25404 4.88556 6.33522C4.88556 6.41643 4.95135 6.48222 5.03256 6.48222Z" fill="#FFD83D" stroke="black" stroke-width="0.2" stroke-linecap="round" stroke-linejoin="round"/>
<path d="M4.70324 6.49981C4.78442 6.49981 4.85024 6.43402 4.85024 6.35281C4.85024 6.27163 4.78442 6.20581 4.70324 6.20581C4.62206 6.20581 4.55624 6.27163 4.55624 6.35281C4.55624 6.43402 4.62206 6.49981 4.70324 6.49981Z" fill="#FFD83D" stroke="black" stroke-width="0.2" stroke-linecap="round" stroke-linejoin="round"/>
<path d="M4.3845 6.60894C4.46568 6.60894 4.5315 6.54312 4.5315 6.46194C4.5315 6.38076 4.46568 6.31494 4.3845 6.31494C4.30332 6.31494 4.2375 6.38076 4.2375 6.46194C4.2375 6.54312 4.30332 6.60894 4.3845 6.60894Z" fill="#FFD83D" stroke="black" stroke-width="0.2" stroke-linecap="round" stroke-linejoin="round"/>
<path d="M4.1185 6.80572C4.19968 6.80572 4.2655 6.7399 4.2655 6.65872C4.2655 6.57751 4.19968 6.51172 4.1185 6.51172C4.03732 6.51172 3.9715 6.57751 3.9715 6.65872C3.9715 6.7399 4.03732 6.80572 4.1185 6.80572Z" fill="#FFD83D" stroke="black" stroke-width="0.2" stroke-linecap="round" stroke-linejoin="round"/>
<path d="M3.92865 7.07891C4.00983 7.07891 4.07565 7.01309 4.07565 6.93191C4.07565 6.85073 4.00983 6.78491 3.92865 6.78491C3.84744 6.78491 3.78165 6.85073 3.78165 6.93191C3.78165 7.01309 3.84744 7.07891 3.92865 7.07891Z" fill="#FFD83D" stroke="black" stroke-width="0.2" stroke-linecap="round" stroke-linejoin="round"/>
<path d="M3.83607 7.4034C3.91725 7.4034 3.98307 7.33758 3.98307 7.25637C3.98307 7.17519 3.91725 7.10938 3.83607 7.10938C3.75489 7.10938 3.68907 7.17519 3.68907 7.25637C3.68907 7.33758 3.75489 7.4034 3.83607 7.4034Z" fill="#FFD83D" stroke="black" stroke-width="0.2" stroke-linecap="round" stroke-linejoin="round"/>
<path d="M3.83958 7.73614C3.92076 7.73614 3.98658 7.67032 3.98658 7.58914C3.98658 7.50796 3.92076 7.44214 3.83958 7.44214C3.7584 7.44214 3.69258 7.50796 3.69258 7.58914C3.69258 7.67032 3.7584 7.73614 3.83958 7.73614Z" fill="#FFD83D" stroke="black" stroke-width="0.2" stroke-linecap="round" stroke-linejoin="round"/>
<path d="M3.90519 8.06329C3.9864 8.06329 4.05219 7.99747 4.05219 7.91629C4.05219 7.83508 3.9864 7.76929 3.90519 7.76929C3.82401 7.76929 3.75819 7.83508 3.75819 7.91629C3.75819 7.99747 3.82401 8.06329 3.90519 8.06329Z" fill="#FFD83D" stroke="black" stroke-width="0.2" stroke-linecap="round" stroke-linejoin="round"/>
<path d="M6.44865 6.78552L6.43365 6.98052C6.06465 6.92052 5.54265 6.71652 5.05365 6.71652C4.60365 6.71652 4.25565 6.89652 4.25565 7.35252C4.25565 7.79952 4.44465 8.20752 4.69665 8.62152L4.43565 8.74152C4.20165 8.29152 4.00665 7.90155 4.00665 7.37955C4.00665 6.94152 4.35165 6.50952 4.94565 6.50952C5.47065 6.50952 6.00765 6.68952 6.44865 6.78552Z" fill="#FFD83D" stroke="black" stroke-width="0.2" stroke-linecap="round" stroke-linejoin="round"/>
<path d="M6.8271 6.86975L6.8841 8.74475H8.7861C9.0201 8.28875 9.2121 7.90475 9.2121 7.37975C9.2121 6.94175 8.8671 6.59375 8.3721 6.59375C7.8471 6.59375 7.2681 6.77075 6.8271 6.86975Z" fill="#FFD83D"/>
<path d="M8.98359 6.956V8.036M8.83359 6.845V8.285M8.6776 6.77V8.486M8.5276 6.734V8.081M8.37459 6.728V8.087M8.22159 6.677V8.087M8.06859 6.677V8.087M7.91559 6.692V8.102M7.76259 6.707V8.114M7.60959 6.794V8.204M7.45959 6.809V8.396M7.30359 6.809V8.219M7.15359 6.809V8.219" stroke="black" stroke-width="0.15" stroke-linecap="round" stroke-linejoin="round"/>
<path d="M8.02715 6.74023C7.70315 6.79123 6.99515 7.12423 7.07615 7.57123C7.19015 8.20723 7.56215 7.95223 8.05415 7.86223L8.42615 7.98523C8.56115 8.12023 8.75615 8.24623 8.88815 8.08123H9.11015V8.94523H6.66815V6.86023L8.02715 6.74023Z" fill="black" stroke="black" stroke-width="0.15" stroke-linecap="round" stroke-linejoin="round"/>
<path d="M6.93582 6.73785C6.85464 6.73785 6.78882 6.67203 6.78882 6.59085C6.78882 6.50967 6.85464 6.44385 6.93582 6.44385C7.017 6.44385 7.08282 6.50967 7.08282 6.59085C7.08282 6.67203 7.017 6.73785 6.93582 6.73785Z" fill="#FFD83D" stroke="black" stroke-width="0.2" stroke-linecap="round" stroke-linejoin="round"/>
<path d="M7.26864 6.65582C7.18743 6.65582 7.12161 6.59 7.12161 6.50882C7.12161 6.42761 7.18743 6.36182 7.26864 6.36182C7.34982 6.36182 7.41564 6.42761 7.41564 6.50882C7.41564 6.59 7.34982 6.65582 7.26864 6.65582Z" fill="#FFD83D" stroke="black" stroke-width="0.2" stroke-linecap="round" stroke-linejoin="round"/>
<path d="M7.60731 6.57256C7.5261 6.57256 7.46031 6.50674 7.46031 6.42556C7.46031 6.34438 7.5261 6.27856 7.60731 6.27856C7.68849 6.27856 7.75431 6.34438 7.75431 6.42556C7.75431 6.50674 7.68849 6.57256 7.60731 6.57256Z" fill="#FFD83D" stroke="black" stroke-width="0.2" stroke-linecap="round" stroke-linejoin="round"/>
<path d="M7.94598 6.51519C7.86477 6.51519 7.79898 6.44937 7.79898 6.36819C7.79898 6.28701 7.86477 6.22119 7.94598 6.22119C8.02716 6.22119 8.09298 6.28701 8.09298 6.36819C8.09298 6.44937 8.02716 6.51519 7.94598 6.51519Z" fill="#FFD83D" stroke="black" stroke-width="0.2" stroke-linecap="round" stroke-linejoin="round"/>
<path d="M8.28582 6.48222C8.20464 6.48222 8.13882 6.41643 8.13882 6.33522C8.13882 6.25404 8.20464 6.18823 8.28582 6.18823C8.367 6.18823 8.43282 6.25404 8.43282 6.33522C8.43282 6.41643 8.367 6.48222 8.28582 6.48222Z" fill="#FFD83D" stroke="black" stroke-width="0.2" stroke-linecap="round" stroke-linejoin="round"/>
<path d="M8.61509 6.49981C8.53391 6.49981 8.46809 6.43402 8.46809 6.35281C8.46809 6.27163 8.53391 6.20581 8.61509 6.20581C8.69627 6.20581 8.76209 6.27163 8.76209 6.35281C8.76209 6.43402 8.69627 6.49981 8.61509 6.49981Z" fill="#FFD83D" stroke="black" stroke-width="0.2" stroke-linecap="round" stroke-linejoin="round"/>
<path d="M8.93385 6.60894C8.85267 6.60894 8.78685 6.54312 8.78685 6.46194C8.78685 6.38076 8.85267 6.31494 8.93385 6.31494C9.01506 6.31494 9.08085 6.38076 9.08085 6.46194C9.08085 6.54312 9.01506 6.60894 8.93385 6.60894Z" fill="#FFD83D" stroke="black" stroke-width="0.2" stroke-linecap="round" stroke-linejoin="round"/>
<path d="M9.19986 6.80572C9.11868 6.80572 9.05286 6.7399 9.05286 6.65872C9.05286 6.57751 9.11868 6.51172 9.19986 6.51172C9.28107 6.51172 9.34686 6.57751 9.34686 6.65872C9.34686 6.7399 9.28107 6.80572 9.19986 6.80572Z" fill="#FFD83D" stroke="black" stroke-width="0.2" stroke-linecap="round" stroke-linejoin="round"/>
<path d="M9.38974 7.07891C9.30853 7.07891 9.24274 7.01309 9.24274 6.93191C9.24274 6.85073 9.30853 6.78491 9.38974 6.78491C9.47092 6.78491 9.53674 6.85073 9.53674 6.93191C9.53674 7.01309 9.47092 7.07891 9.38974 7.07891Z" fill="#FFD83D" stroke="black" stroke-width="0.2" stroke-linecap="round" stroke-linejoin="round"/>
<path d="M9.48231 7.4034C9.4011 7.4034 9.33531 7.33758 9.33531 7.25637C9.33531 7.17519 9.4011 7.10938 9.48231 7.10938C9.56349 7.10938 9.62931 7.17519 9.62931 7.25637C9.62931 7.33758 9.56349 7.4034 9.48231 7.4034Z" fill="#FFD83D" stroke="black" stroke-width="0.2" stroke-linecap="round" stroke-linejoin="round"/>
<path d="M9.47877 7.73614C9.39759 7.73614 9.33177 7.67032 9.33177 7.58914C9.33177 7.50796 9.39759 7.44214 9.47877 7.44214C9.55998 7.44214 9.62577 7.50796 9.62577 7.58914C9.62577 7.67032 9.55998 7.73614 9.47877 7.73614Z" fill="#FFD83D" stroke="black" stroke-width="0.2" stroke-linecap="round" stroke-linejoin="round"/>
<path d="M9.41316 8.06329C9.33198 8.06329 9.26616 7.99747 9.26616 7.91629C9.26616 7.83508 9.33198 7.76929 9.41316 7.76929C9.49434 7.76929 9.56016 7.83508 9.56016 7.91629C9.56016 7.99747 9.49434 8.06329 9.41316 8.06329Z" fill="#FFD83D" stroke="black" stroke-width="0.2" stroke-linecap="round" stroke-linejoin="round"/>
<path d="M6.86974 6.78552L6.88474 6.98052C7.25374 6.92052 7.77574 6.71652 8.26474 6.71652C8.71474 6.71652 9.06274 6.89652 9.06274 7.35252C9.06274 7.79952 8.87374 8.20752 8.62174 8.62152L8.88274 8.74152C9.11674 8.29152 9.31174 7.90155 9.31174 7.37955C9.31174 6.94152 8.96674 6.50952 8.37274 6.50952C7.84774 6.50952 7.31074 6.68952 6.86974 6.78552Z" fill="#FFD83D" stroke="black" stroke-width="0.2" stroke-linecap="round" stroke-linejoin="round"/>
<path d="M6.65982 4.79328L6.50382 5.08428L6.65982 5.37228L6.81282 5.08428L6.65982 4.79028V4.79328ZM6.65982 5.52528L6.50382 5.81328L6.65982 6.10428L6.80982 5.81028L6.65682 5.52228L6.65982 5.52528ZM6.10782 5.45028L6.35082 5.60328L6.59382 5.45028L6.35382 5.29428L6.10782 5.45028ZM6.72282 5.45028L6.96582 5.60328L7.21182 5.45028L6.96582 5.29428L6.72582 5.45028H6.72282Z" fill="#FFD83D" stroke="black" stroke-width="0.2" stroke-linecap="round" stroke-linejoin="round"/>
<path d="M6.65957 5.57043C6.72419 5.57043 6.77657 5.51804 6.77657 5.45343C6.77657 5.38881 6.72419 5.33643 6.65957 5.33643C6.59495 5.33643 6.54257 5.38881 6.54257 5.45343C6.54257 5.51804 6.59495 5.57043 6.65957 5.57043Z" fill="#FFD83D" stroke="black" stroke-width="0.2" stroke-linecap="round" stroke-linejoin="round"/>
<path d="M6.65951 6.51476C6.83348 6.51476 6.97451 6.37373 6.97451 6.19977C6.97451 6.0258 6.83348 5.88477 6.65951 5.88477C6.48554 5.88477 6.34451 6.0258 6.34451 6.19977C6.34451 6.37373 6.48554 6.51476 6.65951 6.51476Z" fill="#FFD83D" stroke="black" stroke-width="0.2" stroke-linecap="round" stroke-linejoin="round"/>
<path d="M6.57891 5.89771V6.09571C6.50451 6.09929 6.43035 6.1073 6.35691 6.1197M6.96291 6.1197C6.88845 6.10715 6.81333 6.09914 6.73791 6.09571V5.89771M6.35391 6.27871C6.45498 6.26119 6.55734 6.25216 6.65991 6.25171C6.76191 6.25171 6.86391 6.26071 6.95991 6.27871" stroke="black" stroke-width="0.15" stroke-linecap="round" stroke-linejoin="round"/>
<path d="M6.3531 6.73096C6.3231 7.24096 6.2631 7.76596 6.0621 8.14396L6.3861 8.01196C6.5001 7.58296 6.5241 7.02796 6.5571 6.76396L6.3531 6.73096ZM6.9651 6.73096L6.7581 6.76396C6.7941 7.02796 6.8181 7.58296 6.9291 8.01196L7.2531 8.14396C7.0551 7.76596 6.9951 7.24396 6.9651 6.73096Z" fill="#FFD83D" stroke="black" stroke-width="0.2" stroke-linecap="round" stroke-linejoin="round"/>
<path d="M6.6595 7.8418C6.2695 7.8418 5.9845 8.0218 5.9695 8.4898C5.8735 8.3218 5.4745 7.7998 5.0995 7.8688C4.8775 7.9108 4.6795 8.2198 4.7155 8.5708C4.5295 8.0428 3.9925 7.9558 3.5965 8.2708C3.9475 8.5558 4.1035 9.4048 4.3975 9.7708H8.9185C9.2125 9.4048 9.3685 8.5558 9.7195 8.2708C9.3265 7.9558 8.7865 8.0428 8.6035 8.5708C8.6335 8.2198 8.4385 7.9108 8.2135 7.8688C7.8415 7.7998 7.4425 8.3218 7.3465 8.4898C7.3315 8.0248 7.0465 7.8418 6.6565 7.8418H6.6595Z" fill="#FFD83D" stroke="black" stroke-width="0.2" stroke-linecap="round" stroke-linejoin="round"/>
<path d="M8.91292 9.77038C8.91292 9.93838 7.90492 10.1214 6.65992 10.1214C5.41492 10.1214 4.40392 9.94138 4.40392 9.77038C4.40392 9.60538 5.41492 9.51538 6.65992 9.51538C7.90192 9.51538 8.91292 9.60538 8.91292 9.77038Z" fill="black" stroke="black" stroke-width="0.15" stroke-linecap="round" stroke-linejoin="round"/>
<path d="M6.65931 6.7371C6.7173 6.7371 6.76431 6.69009 6.76431 6.6321C6.76431 6.57411 6.7173 6.5271 6.65931 6.5271C6.60132 6.5271 6.55431 6.57411 6.55431 6.6321C6.55431 6.69009 6.60132 6.7371 6.65931 6.7371Z" fill="#FFD83D" stroke="black" stroke-width="0.15" stroke-linecap="round" stroke-linejoin="round"/>
<path d="M6.65943 6.97054C6.72075 6.97054 6.77043 6.92086 6.77043 6.85954C6.77043 6.79825 6.72075 6.74854 6.65943 6.74854C6.59814 6.74854 6.54843 6.79825 6.54843 6.85954C6.54843 6.92086 6.59814 6.97054 6.65943 6.97054Z" fill="#FFD83D" stroke="black" stroke-width="0.15" stroke-linecap="round" stroke-linejoin="round"/>
<path d="M6.65973 7.22891C6.72765 7.22891 6.78273 7.17383 6.78273 7.10591C6.78273 7.03796 6.72765 6.98291 6.65973 6.98291C6.59178 6.98291 6.53673 7.03796 6.53673 7.10591C6.53673 7.17383 6.59178 7.22891 6.65973 7.22891Z" fill="#FFD83D" stroke="black" stroke-width="0.15" stroke-linecap="round" stroke-linejoin="round"/>
<path d="M6.65897 7.52028C6.73682 7.52028 6.79997 7.45716 6.79997 7.37928C6.79997 7.30143 6.73682 7.23828 6.65897 7.23828C6.58109 7.23828 6.51797 7.30143 6.51797 7.37928C6.51797 7.45716 6.58109 7.52028 6.65897 7.52028Z" fill="#FFD83D" stroke="black" stroke-width="0.15" stroke-linecap="round" stroke-linejoin="round"/>
<path d="M6.65926 7.83505C6.74377 7.83505 6.81226 7.76656 6.81226 7.68205C6.81226 7.59754 6.74377 7.52905 6.65926 7.52905C6.57475 7.52905 6.50626 7.59754 6.50626 7.68205C6.50626 7.76656 6.57475 7.83505 6.65926 7.83505Z" fill="#FFD83D" stroke="black" stroke-width="0.15" stroke-linecap="round" stroke-linejoin="round"/>
<path d="M6.59955 7.97534C6.58155 7.97534 6.56655 7.99034 6.56955 8.01734L6.58755 8.14634C6.59355 8.19134 6.61755 8.17634 6.62655 8.14634C6.63255 8.11034 6.62955 8.08634 6.63255 8.02334C6.63255 7.99034 6.61455 7.97534 6.59655 7.97534H6.59955ZM6.71955 7.97534C6.70155 7.97534 6.68655 7.99034 6.68655 8.02334C6.68655 8.08634 6.68655 8.11034 6.69255 8.14334C6.69855 8.17934 6.72255 8.19134 6.73155 8.14334L6.74655 8.01734C6.75255 7.98734 6.73455 7.97534 6.71955 7.97534ZM6.48855 7.99334C6.4806 7.99334 6.47295 7.99649 6.46734 8.00213C6.4617 8.00774 6.45855 8.01536 6.45855 8.02334C6.45855 8.05334 6.46755 8.09234 6.47055 8.13734C6.47655 8.18234 6.50955 8.16734 6.51255 8.13734C6.51255 8.11334 6.51855 8.07134 6.51255 8.02034C6.51255 8.00234 6.50655 7.99334 6.49455 7.99034C6.49257 7.99007 6.49053 7.99007 6.48855 7.99034V7.99334ZM6.82155 7.99334C6.81255 7.99334 6.80355 8.00234 6.80055 8.02334C6.79893 8.06144 6.80094 8.0996 6.80655 8.13734C6.80655 8.16734 6.84255 8.18234 6.84555 8.13734C6.84555 8.09234 6.85755 8.05634 6.85755 8.02634C6.85755 8.00834 6.84255 7.99634 6.82755 7.99334C6.82557 7.99307 6.82353 7.99307 6.82155 7.99334ZM6.35955 8.04434C6.34455 8.04734 6.32955 8.06534 6.33555 8.08334C6.34455 8.12234 6.35355 8.16434 6.35355 8.20334C6.35355 8.23634 6.38055 8.22434 6.38355 8.20334C6.38589 8.16338 6.38688 8.12336 6.38655 8.08334C6.38655 8.05334 6.37155 8.04134 6.35655 8.04434H6.35955ZM6.94755 8.04434C6.93855 8.04734 6.92955 8.05934 6.92955 8.08334L6.93555 8.20334C6.93555 8.22434 6.96555 8.23634 6.96555 8.20334C6.96555 8.16434 6.97155 8.12234 6.98055 8.08334C6.98655 8.06534 6.97155 8.04734 6.95955 8.04434C6.95661 8.04356 6.95349 8.04356 6.95055 8.04434H6.94755ZM5.17755 8.05034C5.15955 8.05034 5.14755 8.07134 5.15955 8.09534C5.17755 8.13734 5.19855 8.16134 5.21655 8.20334C5.23155 8.24234 5.25855 8.21834 5.24955 8.19134L5.20755 8.08034C5.19855 8.05934 5.18655 8.05034 5.17755 8.05034ZM8.14155 8.05034C8.12955 8.05034 8.12055 8.05934 8.11155 8.08034C8.08455 8.13734 8.07555 8.16434 8.06655 8.19134C8.06055 8.22134 8.08455 8.24234 8.10255 8.20334L8.15655 8.09534C8.16855 8.07134 8.15655 8.05034 8.14155 8.05034ZM5.29755 8.05034C5.28255 8.05634 5.27655 8.07134 5.28255 8.08934C5.30055 8.12534 5.32155 8.16434 5.33655 8.20334C5.34855 8.23634 5.37855 8.22734 5.36655 8.19734L5.33655 8.08634C5.32455 8.05634 5.30655 8.04734 5.29755 8.05034ZM8.01255 8.05034C8.00055 8.05334 7.98855 8.06534 7.98255 8.08634C7.96155 8.14634 7.95855 8.16434 7.94955 8.19734C7.93755 8.22734 7.96755 8.23634 7.97955 8.20334L8.03355 8.08934C8.03955 8.07134 8.03355 8.05634 8.02155 8.05034C8.01861 8.04956 8.01549 8.04956 8.01255 8.05034ZM5.44755 8.08034C5.42955 8.08334 5.41755 8.10734 5.42955 8.13734C5.44155 8.17334 5.45955 8.20634 5.47755 8.24834C5.49555 8.29034 5.52255 8.28134 5.51655 8.25434C5.50755 8.22734 5.50155 8.18534 5.48055 8.11934C5.47155 8.08934 5.45955 8.07734 5.44755 8.08034ZM7.87155 8.08034C7.85955 8.08034 7.84455 8.08934 7.83555 8.11934C7.81755 8.18534 7.80555 8.22734 7.80255 8.25434C7.79355 8.28434 7.82355 8.29034 7.83855 8.24834C7.85655 8.20634 7.87455 8.17334 7.88655 8.13734C7.89855 8.10734 7.88655 8.08334 7.87155 8.08034ZM5.07555 8.10134C5.05755 8.10134 5.04555 8.13134 5.05455 8.15234C5.06955 8.18234 5.08155 8.19434 5.09655 8.23034C5.11455 8.26634 5.13255 8.23934 5.12655 8.21534C5.11755 8.19134 5.10855 8.16434 5.10255 8.13134C5.09655 8.10734 5.08455 8.10134 5.07255 8.10134H5.07555ZM8.24355 8.10134C8.23155 8.10134 8.22255 8.10734 8.21355 8.13134L8.19255 8.21534C8.18655 8.23934 8.20455 8.26634 8.22255 8.23034C8.23755 8.19434 8.24655 8.18534 8.26455 8.15234C8.27355 8.13134 8.25855 8.10434 8.24355 8.10134ZM6.23355 8.18534C6.21255 8.18534 6.19455 8.20934 6.20355 8.23034C6.20955 8.26634 6.22755 8.29634 6.23655 8.34134C6.24855 8.38034 6.27555 8.36234 6.27255 8.33534C6.27036 8.29502 6.26535 8.25494 6.25755 8.21534C6.25155 8.19434 6.24255 8.18534 6.23055 8.18534H6.23355ZM7.08555 8.18534C7.07655 8.18534 7.06455 8.19434 7.06155 8.21534C7.05273 8.25485 7.04673 8.29496 7.04355 8.33534C7.04355 8.36234 7.07055 8.38034 7.07955 8.34134L7.11555 8.23034C7.12155 8.20934 7.10355 8.18534 7.08555 8.18534ZM6.65955 8.22134C6.63555 8.22134 6.63255 8.25134 6.63255 8.27234C6.63072 8.34065 6.60996 8.40713 6.57255 8.46434C6.54255 8.50034 6.50355 8.49134 6.46755 8.47034C6.43266 8.45132 6.39951 8.42924 6.36855 8.40434C6.32655 8.37434 6.29655 8.39234 6.34455 8.46134C6.48255 8.65934 6.63255 8.82734 6.63255 9.15134C6.63255 9.19034 6.64155 9.20234 6.65955 9.20234C6.67755 9.20234 6.68355 9.19034 6.68355 9.14834C6.68355 8.82734 6.83355 8.65934 6.97155 8.45834C7.01955 8.39234 6.98955 8.37434 6.95055 8.40434C6.91971 8.42939 6.88656 8.4515 6.85155 8.47034C6.81255 8.49134 6.77355 8.50034 6.74655 8.46434C6.70914 8.40713 6.68838 8.34065 6.68655 8.27234C6.68355 8.25134 6.68055 8.22134 6.65655 8.22134H6.65955ZM5.60055 8.17334C5.59857 8.17301 5.59653 8.17301 5.59455 8.17334C5.58555 8.17634 5.58255 8.18534 5.58555 8.20334L5.61855 8.32034C5.62755 8.35034 5.66055 8.34134 5.65455 8.30534L5.63655 8.21234C5.63055 8.18834 5.61255 8.17334 5.60055 8.17334ZM7.71855 8.17334C7.70355 8.17334 7.68855 8.18834 7.68255 8.21234C7.67055 8.25434 7.67055 8.26634 7.66455 8.30234C7.65555 8.34134 7.69155 8.34734 7.69755 8.32034L7.73355 8.20034C7.73355 8.18534 7.73055 8.17634 7.72155 8.17334C7.71957 8.17301 7.71753 8.17301 7.71555 8.17334H7.71855ZM4.97055 8.18534C4.95255 8.18534 4.94055 8.20934 4.95855 8.23934C4.97655 8.27534 5.00955 8.31734 5.02455 8.34434C5.03955 8.36834 5.06655 8.35034 5.04855 8.32034C5.03055 8.29034 5.02455 8.25134 5.00055 8.20634C4.99857 8.20001 4.99455 8.19452 4.98912 8.19071C4.98369 8.18693 4.97718 8.18504 4.97055 8.18534ZM8.34555 8.18534C8.33655 8.18534 8.32455 8.19134 8.31555 8.20634C8.29455 8.25134 8.28555 8.28734 8.27055 8.32034C8.25255 8.35034 8.27655 8.36834 8.29155 8.34434C8.30655 8.31734 8.33955 8.27534 8.35755 8.23934C8.37555 8.20934 8.36355 8.18534 8.34555 8.18534ZM4.01955 8.28434C4.00155 8.28434 3.99555 8.32034 4.01355 8.34434C4.03686 8.3738 4.06296 8.40095 4.09155 8.42534C4.11555 8.44934 4.12155 8.41934 4.10955 8.39534L4.05555 8.31434C4.04055 8.29334 4.02855 8.28434 4.01955 8.28434ZM9.29655 8.28434C9.28755 8.28434 9.27555 8.29334 9.26355 8.31434L9.20655 8.39534C9.19455 8.41934 9.20055 8.44934 9.22755 8.42534C9.25617 8.40098 9.28227 8.37383 9.30555 8.34434C9.32355 8.32034 9.31755 8.28434 9.29655 8.28434ZM4.17255 8.31434C4.15455 8.31434 4.14255 8.32634 4.15755 8.35334L4.21455 8.46734C4.22955 8.49734 4.27455 8.50634 4.25655 8.46134L4.21755 8.34734C4.20855 8.32634 4.18755 8.31734 4.17255 8.31734V8.31434ZM9.14655 8.31434C9.12855 8.31434 9.10755 8.32634 9.09855 8.34734L9.06255 8.46134C9.04455 8.50634 9.08955 8.49734 9.10455 8.46734C9.11955 8.43734 9.14355 8.39234 9.15855 8.35334C9.17355 8.32634 9.16155 8.31434 9.14655 8.31434ZM3.87855 8.32634C3.85455 8.32634 3.85455 8.34734 3.87555 8.36234C3.90255 8.38334 3.93555 8.40434 3.96555 8.43134C4.00455 8.46134 4.01655 8.43134 3.99555 8.40734C3.97755 8.38334 3.95955 8.35934 3.90855 8.33234C3.89655 8.32634 3.88755 8.32634 3.87855 8.32634ZM9.43755 8.32634C9.43155 8.32634 9.41955 8.32634 9.40755 8.33234C9.35955 8.35934 9.33855 8.38334 9.31755 8.40734C9.29955 8.43434 9.31455 8.46134 9.35055 8.43134C9.38055 8.40434 9.41655 8.38334 9.44055 8.36234C9.46455 8.34734 9.46155 8.32634 9.44055 8.32634H9.43755ZM6.14955 8.34734C6.13455 8.34734 6.12555 8.36234 6.12855 8.38334L6.15855 8.49134C6.16455 8.52434 6.20355 8.52434 6.19755 8.49134C6.19155 8.46134 6.18855 8.42234 6.17655 8.37434C6.17355 8.35634 6.16455 8.34734 6.15255 8.34434C6.15156 8.34425 6.15054 8.34425 6.14955 8.34434V8.34734ZM7.16355 8.34734C7.15455 8.34734 7.14555 8.35634 7.13955 8.37734C7.12755 8.42234 7.12455 8.46134 7.11855 8.49434C7.11255 8.52434 7.15155 8.52434 7.15755 8.49134L7.18755 8.38334C7.19355 8.36234 7.18155 8.34734 7.16955 8.34734C7.16757 8.34701 7.16553 8.34701 7.16355 8.34734ZM5.24355 8.28734C5.23455 8.28734 5.22855 8.30834 5.23755 8.33834C5.26938 8.4248 5.28561 8.51621 5.28555 8.60834C5.27655 8.64434 5.25555 8.64734 5.22855 8.63834C5.19912 8.62382 5.17101 8.60675 5.14455 8.58734C5.12055 8.57234 5.09355 8.59034 5.12955 8.62034C5.30955 8.77034 5.43855 8.94134 5.48955 9.14834C5.49555 9.19034 5.52255 9.19634 5.51655 9.14834C5.47455 8.88734 5.46555 8.67134 5.52855 8.53934C5.55255 8.48834 5.52855 8.44034 5.49255 8.52134C5.46555 8.57534 5.42655 8.59634 5.39355 8.55134C5.34663 8.47811 5.30649 8.4008 5.27355 8.32034C5.26755 8.29934 5.25855 8.29034 5.24955 8.28734C5.24856 8.28716 5.24754 8.28716 5.24655 8.28734H5.24355ZM8.06655 8.28734C8.05755 8.28734 8.04855 8.29934 8.04255 8.31734C8.02155 8.37734 7.95555 8.50334 7.92255 8.55134C7.88955 8.59934 7.85055 8.57534 7.82655 8.52134C7.78755 8.44034 7.76655 8.48834 7.78755 8.53934C7.85055 8.67134 7.84155 8.88734 7.80255 9.14834C7.79355 9.19634 7.82055 9.19034 7.83255 9.14834C7.88805 8.93762 8.0127 8.75168 8.18655 8.62034C8.22255 8.59034 8.19555 8.57234 8.17155 8.59034C8.14494 8.60777 8.11683 8.62283 8.08755 8.63534C8.05755 8.64734 8.03955 8.64434 8.03055 8.60534C8.02455 8.56934 8.03655 8.48834 8.08155 8.33534C8.08755 8.31134 8.08155 8.29034 8.07255 8.28734C8.0706 8.28665 8.0685 8.28665 8.06655 8.28734ZM4.33155 8.35934C4.31655 8.35934 4.30155 8.37134 4.31055 8.39534C4.32255 8.43734 4.34655 8.47934 4.35555 8.50334C4.36455 8.53034 4.39155 8.51834 4.38555 8.48234L4.37055 8.38934C4.37055 8.37134 4.34955 8.35934 4.33155 8.35934ZM8.98455 8.35934C8.96655 8.35934 8.94855 8.37134 8.94555 8.38934L8.93355 8.48234C8.92755 8.51834 8.95455 8.53034 8.96355 8.50334C8.96955 8.47934 8.99355 8.43734 9.00555 8.39534C9.01455 8.37134 9.00255 8.35934 8.98455 8.35934ZM4.89555 8.30834C4.87755 8.30534 4.87455 8.35334 4.88955 8.37434L4.97355 8.46734C4.99755 8.49734 5.01255 8.47034 4.99755 8.44634L4.91955 8.33234C4.91055 8.31734 4.90155 8.30834 4.89555 8.30834ZM8.42055 8.30834C8.41455 8.30834 8.40555 8.31734 8.39655 8.33234L8.31855 8.44634C8.30355 8.47034 8.31855 8.49734 8.34555 8.46734L8.42655 8.37434C8.44155 8.35334 8.44155 8.30534 8.42055 8.30834ZM4.46055 8.42834C4.44855 8.42834 4.43955 8.43434 4.44555 8.45834C4.45155 8.49434 4.46055 8.51834 4.46955 8.55134C4.47855 8.58134 4.49955 8.57834 4.49955 8.54834L4.49055 8.45234C4.48923 8.44514 4.4856 8.4386 4.48017 8.43371C4.47474 8.42882 4.46784 8.42588 4.46055 8.42534V8.42834ZM8.85555 8.42834C8.84853 8.42819 8.84169 8.4305 8.8362 8.43491C8.83071 8.43929 8.82696 8.44544 8.82555 8.45234L8.81655 8.54834C8.81655 8.57834 8.84055 8.58434 8.84655 8.55134L8.87355 8.46134C8.87955 8.43434 8.86755 8.42534 8.85555 8.42534V8.42834ZM4.85355 8.47034C4.83555 8.47034 4.82055 8.49134 4.84155 8.51834C4.87455 8.56334 4.91355 8.59334 4.92855 8.60834C4.94055 8.62634 4.97355 8.62034 4.95255 8.58734L4.88355 8.48234C4.87755 8.47034 4.86555 8.46734 4.85355 8.47034ZM8.45355 8.47034C8.44755 8.47034 8.43855 8.47334 8.43555 8.48234L8.36355 8.58734C8.34255 8.62034 8.37555 8.62634 8.39055 8.61134C8.40255 8.59334 8.44155 8.56334 8.47755 8.51834C8.49855 8.48834 8.48055 8.47034 8.46255 8.47034C8.46057 8.4701 8.45853 8.4701 8.45655 8.47034H8.45355ZM4.23255 8.59334C4.22055 8.59334 4.21455 8.60534 4.23255 8.63234C4.27887 8.68853 4.31265 8.75399 4.33155 8.82434C4.33455 8.86634 4.31655 8.86634 4.29855 8.86634C4.24155 8.86634 4.21455 8.82434 4.16655 8.81234C4.11555 8.80334 4.10655 8.82734 4.14255 8.85434C4.31451 8.96309 4.46418 9.10358 4.58355 9.26834C4.61355 9.32534 4.65255 9.34334 4.63155 9.29234C4.57326 9.17534 4.54836 9.04454 4.55955 8.91434C4.57455 8.83034 4.59555 8.77634 4.59255 8.72834C4.59255 8.68334 4.56255 8.68634 4.55355 8.72834L4.52355 8.81234C4.51155 8.82734 4.46955 8.83634 4.43355 8.78534C4.38252 8.72273 4.32633 8.66453 4.26555 8.61134C4.25655 8.60234 4.24455 8.59634 4.23555 8.59334H4.23255ZM9.08355 8.59334C9.07455 8.59334 9.06255 8.59934 9.05055 8.61134C8.99082 8.66465 8.93565 8.72285 8.88555 8.78534C8.84655 8.83634 8.80455 8.82734 8.79555 8.81534C8.78187 8.78774 8.77179 8.75849 8.76555 8.72834C8.75355 8.68634 8.72655 8.68334 8.72355 8.72834C8.72355 8.77634 8.74155 8.83034 8.75655 8.91434C8.77155 8.99834 8.75655 9.13034 8.68755 9.29234C8.66355 9.34334 8.70555 9.32234 8.73555 9.26834C8.85381 9.10367 9.00249 8.96315 9.17355 8.85434C9.20955 8.82734 9.20355 8.80334 9.15255 8.81234C9.10155 8.82434 9.07455 8.86634 9.02055 8.86634C9.00255 8.86634 8.98155 8.86634 8.98455 8.82434C8.98755 8.78534 9.03855 8.69234 9.08355 8.63234C9.10155 8.60234 9.09855 8.59334 9.08355 8.59334Z" fill="black"/>
<path d="M4.50233 9.58123L4.56233 9.76423M4.62233 9.54523L4.67633 9.73123M4.75433 9.52123L4.79033 9.71323M4.87433 9.50023L4.91333 9.68923M5.02733 9.48523L5.05733 9.67723M5.19233 9.48523L5.22533 9.67423M5.35433 9.43123L5.37833 9.62323M5.50433 9.44023L5.52833 9.63223M5.65133 9.42223L5.67533 9.61423M5.79533 9.40423L5.81033 9.59923M5.95433 9.40423L5.96633 9.59923M6.09833 9.39523L6.10733 9.59023M6.25433 9.38623L6.26333 9.57823M6.43433 9.38023L6.44333 9.57523M8.81333 9.58123L8.75333 9.76423M8.69333 9.54523L8.64233 9.73123M8.56433 9.52123L8.52833 9.71323M8.44433 9.50023L8.40533 9.68923M8.28533 9.48523L8.25533 9.67723M8.12333 9.48523L8.09033 9.67723M7.96433 9.43123L7.94033 9.62323M7.81133 9.44023L7.78733 9.63223M7.66733 9.42223L7.64033 9.61423M7.52033 9.40423L7.50533 9.59923M7.36133 9.40423L7.34933 9.59923M7.22033 9.39523L7.21133 9.59023M7.06133 9.38623L7.05533 9.57823M6.88133 9.38023L6.87533 9.57523M6.65933 9.36523V9.58123" stroke="black" stroke-width="0.15" stroke-linecap="round" stroke-linejoin="round"/>
</g>
<defs>
<clipPath id="clip0_69_8352">
<rect width="24" height="24" rx="12" fill="white"/>
</clipPath>
</defs>
</svg>
