<svg width="24" height="24" viewBox="0 0 24 24" fill="none" xmlns="http://www.w3.org/2000/svg">
<g clip-path="url(#clip0_69_11998)">
<path d="M-1.20001 -1.09106H25.2V25.0908H-1.20001V-1.09106Z" fill="#FFB700"/>
<path d="M-0.979126 11.9993L2.65086 3.46729H7.16086V20.5313H2.65086L-0.979126 11.9993Z" fill="#FF5B00"/>
<path d="M-1.85913 3.46729H2.65086V20.5313H-1.85913V3.46729Z" fill="#005641"/>
<path d="M8.25916 3.46729H24.2105V20.5313H8.25916V3.46729Z" fill="#8D2029"/>
<path d="M22.6967 18.7437C22.6967 18.7437 22.8452 19.0357 23.0102 19.1597C23.2577 19.3357 23.7527 19.3197 23.9713 19.5317C24.2229 19.7757 23.9507 20.0997 23.9507 20.1317L23.9672 20.2997C23.9672 20.2997 23.7939 20.2997 23.7197 20.3117C23.6124 20.3277 23.5712 20.4157 23.3649 20.4037C22.8575 20.3717 22.8782 19.9237 22.8493 19.5437C22.8245 19.3997 22.7668 19.2077 22.7297 19.0637C22.7008 18.9437 22.6967 18.7437 22.6967 18.7437Z" fill="#FFB700" stroke="black" stroke-width="0.1375"/>
<path d="M9.77252 18.7437C9.77252 18.7437 9.62402 19.0357 9.45902 19.1597C9.21152 19.3357 8.71652 19.3197 8.4979 19.5317C8.24627 19.7757 8.51852 20.0997 8.51852 20.1317L8.50202 20.2997C8.50202 20.2997 8.67527 20.2997 8.74952 20.3117C8.85677 20.3277 8.89802 20.4157 9.10427 20.4037C9.61165 20.3717 9.59102 19.9237 9.6199 19.5437C9.64465 19.3997 9.7024 19.2077 9.73953 19.0637C9.7684 18.9437 9.77252 18.7437 9.77252 18.7437Z" fill="#FFB700" stroke="black" stroke-width="0.1375"/>
<path d="M22.6967 5.25609C22.6967 5.25609 22.8452 4.96409 23.0102 4.84009C23.2577 4.66409 23.7527 4.68009 23.9713 4.46809C24.2229 4.22409 23.9507 3.90009 23.9507 3.86809L23.9672 3.70009C23.9672 3.70009 23.7939 3.70009 23.7197 3.68809C23.6124 3.67209 23.5712 3.58409 23.3649 3.59609C22.8575 3.62809 22.8782 4.07609 22.8493 4.45609C22.8245 4.60009 22.7668 4.79209 22.7297 4.93609C22.7008 5.05609 22.6967 5.25609 22.6967 5.25609Z" fill="#FFB700" stroke="black" stroke-width="0.1375"/>
<path d="M9.77765 5.25609C9.77765 5.25609 9.62915 4.96409 9.46415 4.84009C9.21665 4.66409 8.72165 4.68009 8.50303 4.46809C8.2514 4.22409 8.52365 3.90009 8.52365 3.86809L8.50715 3.70009C8.50715 3.70009 8.6804 3.70009 8.75465 3.68809C8.8619 3.67209 8.90315 3.58409 9.1094 3.59609C9.61678 3.62809 9.59615 4.07609 9.62503 4.45609C9.64978 4.60009 9.70753 4.79209 9.74465 4.93609C9.77353 5.05609 9.77765 5.25609 9.77765 5.25609Z" fill="#FFB700" stroke="black" stroke-width="0.1375"/>
<path d="M13.7939 15.9923L13.8887 15.9363L13.93 15.9923C13.9836 16.0643 14.1362 16.0603 14.2352 15.9923L14.3136 15.9323L14.3796 15.9883C14.4621 16.0643 14.6189 16.0643 14.722 15.9883C14.7921 15.9403 14.8045 15.9363 14.8457 15.9763C14.8746 16.0003 14.9571 16.0243 15.0272 16.0363C15.1592 16.0523 15.1592 16.0523 15.2335 15.9403C15.2995 15.8483 15.3077 15.8123 15.2954 15.7203C15.2838 15.65 15.2756 15.5793 15.2706 15.5083C15.2624 15.4043 15.2665 15.4043 15.4191 15.3483C15.4949 15.3257 15.5693 15.2991 15.6419 15.2683C15.7037 15.2323 15.877 15.0363 15.877 14.9963C15.877 14.9883 15.811 14.9723 15.7285 14.9643C15.3985 14.9243 15.3449 14.7563 15.5594 14.4443C15.9017 13.9243 16.1121 13.4243 16.1121 13.1083C16.1121 12.9643 16.1245 12.9163 16.141 12.9483C16.2194 13.0723 16.0791 13.6043 15.8729 13.9883L15.7904 14.1403L15.8687 14.1243C15.91 14.1123 16.174 14.0043 16.4462 13.8843C17.197 13.5563 17.4527 13.4923 17.9395 13.5123C18.3479 13.5283 18.517 13.6043 18.8057 13.8963C18.9584 14.0563 19.1069 14.1643 19.375 14.3283C19.9442 14.6723 19.969 14.7043 19.9979 15.1123C20.0267 15.5243 20.0102 15.5483 19.6885 15.6163C19.4121 15.6763 19.2389 15.8003 19.1935 15.9763C19.1687 16.0643 19.2224 16.0683 19.3585 15.9803L19.4616 15.9163L19.507 15.9803C19.5689 16.0643 19.6926 16.0643 19.7957 15.9803L19.8782 15.9203L19.9607 15.9803C20.0845 16.0803 20.2495 16.0563 20.299 15.9323C20.3072 15.9123 20.332 15.9163 20.3815 15.9603C20.4764 16.0403 20.7115 16.0723 20.7362 16.0083C20.7445 15.9843 20.728 15.9283 20.695 15.8803C20.5589 15.6803 20.5135 15.5883 20.5135 15.4803C20.5135 15.3283 20.5547 15.2523 20.7362 15.1323C20.9507 14.9803 21.0167 14.7883 20.8517 14.7883C20.7527 14.7883 20.6496 14.7003 20.5836 14.5603C20.4516 14.2723 20.4805 13.9523 20.6785 13.4163C20.8303 13.1009 20.9064 12.7563 20.9012 12.4083C20.9012 12.1123 20.893 12.0643 20.827 11.9003C20.7754 11.7863 20.7118 11.6777 20.6372 11.5763L20.5217 11.4283L20.6661 11.3083C21.1116 10.9523 21.0209 10.3683 20.4846 10.1443C20.3196 10.0723 20.2784 10.0683 19.9896 10.0683C19.8246 10.0683 19.5565 10.0923 19.4121 10.1203C19.2183 10.15 19.0226 10.1661 18.8264 10.1683C18.5459 10.1683 18.4964 10.1603 18.3891 10.1043C18.2777 10.0483 18.2571 10.0203 18.2365 9.88431C18.2345 9.87147 18.2294 9.85931 18.2214 9.84885C18.2136 9.83842 18.2031 9.82997 18.1911 9.82431C18.1499 9.81231 17.9766 9.96031 17.9519 10.0243C17.9354 10.0603 17.9271 10.0563 17.89 10.0123C17.855 9.96869 17.8272 9.92011 17.8075 9.86831C17.7662 9.73631 17.8199 9.64031 17.9807 9.56431L18.1045 9.50831L18.0302 9.46431C17.8817 9.37231 17.626 9.43631 17.5352 9.58431C17.5064 9.62431 17.4775 9.66431 17.4692 9.66431C17.461 9.66431 17.4115 9.62431 17.362 9.57231C17.1681 9.38831 17.2341 9.11631 17.494 9.03631C17.6301 8.99231 17.7539 9.02431 17.7786 9.11631C17.8199 9.24831 17.9354 9.07231 17.9147 8.90831C17.9024 8.80031 17.9024 8.79631 17.9807 8.79631C18.088 8.79631 18.3107 8.93231 18.385 9.03631C18.4675 9.16031 18.4592 9.35631 18.3685 9.50031L18.2984 9.61231L18.3932 9.59631C18.5252 9.56831 18.6572 9.48831 18.7232 9.38831C18.758 9.32459 18.7776 9.25413 18.7804 9.18213C18.7833 9.1101 18.7694 9.03839 18.7397 8.97231C18.6779 8.86431 18.6861 8.84831 18.7769 8.88431C18.9254 8.94431 19.0079 9.01231 19.0656 9.12831C19.1234 9.23231 19.1275 9.25631 19.0986 9.36831C19.0789 9.4365 19.0483 9.50127 19.0079 9.56031C18.9584 9.62431 18.9542 9.63631 18.9955 9.63631C19.0697 9.63631 19.2182 9.56831 19.2719 9.51631C19.3007 9.48431 19.342 9.41631 19.3626 9.35631L19.4039 9.25631L19.4451 9.33631C19.507 9.44431 19.6307 9.54431 19.7792 9.60831C19.9401 9.67231 20.0061 9.67631 19.9236 9.61631C19.8659 9.57631 19.7586 9.27631 19.7957 9.24831C19.9738 9.34495 20.1364 9.46623 20.2784 9.60831C20.5135 9.81231 20.662 9.88031 20.8765 9.88031C21.1529 9.88031 21.3137 9.64831 21.19 9.42831C21.1199 9.30031 20.959 9.28031 20.86 9.38831C20.8187 9.44031 20.8064 9.48031 20.8187 9.53631C20.8352 9.60031 20.8311 9.60831 20.7692 9.60831C20.6867 9.60831 20.53 9.50831 20.2495 9.28031C19.8591 8.95445 19.4102 8.70091 18.9254 8.53231C18.5969 8.45867 18.2577 8.44107 17.923 8.48031C17.659 8.52831 17.3455 8.67631 17.1722 8.83231C16.8711 9.11231 16.867 9.48431 17.1599 9.82431L17.2424 9.92031L17.1887 10.0083C17.1484 10.0713 17.1284 10.1446 17.1314 10.2187C17.1343 10.2929 17.16 10.3645 17.2052 10.4243C17.2465 10.4803 17.2877 10.5243 17.3001 10.5243C17.3084 10.5243 17.3166 10.4883 17.3207 10.4443C17.329 10.3363 17.3785 10.2643 17.461 10.2363C17.5352 10.2083 17.5847 10.2243 17.923 10.3563C18.2819 10.4923 18.8717 10.5003 19.4987 10.3803C19.7705 10.3194 20.0533 10.3222 20.3237 10.3883C20.6207 10.5083 20.6867 10.8163 20.4722 11.0483C20.3774 11.1523 20.2907 11.1923 19.9896 11.2723C19.7275 11.3393 19.4549 11.3597 19.1852 11.3323C18.7397 11.3283 18.5789 11.3363 18.4015 11.3723C18.1994 11.4123 18.0797 11.4163 17.5022 11.4043L16.8299 11.3883L16.9041 11.4443C16.9439 11.4785 16.9867 11.5093 17.032 11.5363C17.0856 11.5643 17.0815 11.5683 17.0072 11.5963C16.966 11.6123 16.867 11.6243 16.7886 11.6243H16.6525L16.636 11.7363C16.6249 11.7891 16.6249 11.8435 16.636 11.8963C16.6525 11.9363 16.6442 11.9443 16.603 11.9283C16.5741 11.9163 16.4957 11.8963 16.4256 11.8843C16.3549 11.8696 16.2858 11.8481 16.2194 11.8203C16.141 11.7803 16.1327 11.7803 16.1039 11.8323C16.0791 11.8723 15.8481 12.0403 15.8151 12.0403C15.8002 11.9365 15.7696 11.8354 15.7244 11.7403C15.6831 11.6563 15.646 11.5603 15.6336 11.5323C15.6212 11.4883 15.613 11.4843 15.5924 11.5203C15.58 11.5403 15.5635 11.6003 15.5511 11.6483C15.5367 11.7131 15.5116 11.7752 15.4769 11.8323L15.415 11.9203L15.3737 11.8443C15.3325 11.7643 15.2665 11.6763 15.2417 11.6763C15.2335 11.6763 15.2211 11.7003 15.2129 11.7363C15.1922 11.8003 15.0314 11.9883 14.9901 11.9883C14.9777 11.9883 14.9654 11.9363 14.9654 11.8683C14.9654 11.8083 14.953 11.7523 14.9365 11.7523C14.92 11.7523 14.9076 11.7723 14.9076 11.7923C14.9076 11.8403 14.7715 11.9923 14.722 11.9923C14.7055 11.9923 14.6725 12.0083 14.6519 12.0323C14.6024 12.0843 14.5611 12.0763 14.5817 12.0163C14.5875 11.9651 14.5819 11.9132 14.5652 11.8643L14.524 11.7363C14.5157 11.7163 14.4662 11.7243 14.359 11.7563C14.194 11.8083 14.1362 11.7963 14.2229 11.7323C14.2559 11.7083 14.3054 11.6243 14.3301 11.5483C14.359 11.4683 14.4002 11.4003 14.4209 11.3923C14.4497 11.3843 14.4497 11.3923 14.4126 11.4403C14.3888 11.4707 14.3731 11.5065 14.3672 11.5443C14.3672 11.5643 14.3466 11.6163 14.326 11.6603C14.3012 11.7003 14.2847 11.7403 14.2889 11.7443C14.293 11.7483 14.359 11.7243 14.4332 11.6923L14.5652 11.6283V11.6843C14.5652 11.7163 14.5817 11.7963 14.6024 11.8643L14.6395 11.9843L14.7302 11.9443C14.821 11.9043 14.9076 11.7603 14.9076 11.6443C14.9076 11.5883 14.9406 11.5963 14.9571 11.6563C14.9571 11.6723 14.9819 11.7403 14.9984 11.8043L15.0396 11.9163L15.1015 11.8443C15.1386 11.8043 15.1799 11.7243 15.1964 11.6723C15.2294 11.5763 15.2789 11.5323 15.2789 11.6043C15.2789 11.6523 15.4191 11.8363 15.4439 11.8203C15.4604 11.8123 15.4851 11.7443 15.5057 11.6683C15.547 11.5083 15.6089 11.4043 15.6501 11.4283C15.6666 11.4363 15.6707 11.4523 15.6625 11.4683C15.6542 11.4763 15.6872 11.5803 15.7367 11.6923C15.7726 11.7762 15.8084 11.8602 15.844 11.9443C15.8605 11.9843 15.877 11.9843 15.9801 11.8923C16.042 11.8363 16.1039 11.7763 16.108 11.7563C16.1204 11.7243 16.1327 11.7283 16.1905 11.7643C16.3121 11.8266 16.4453 11.8647 16.5824 11.8763C16.5906 11.8683 16.5989 11.7963 16.5989 11.7163L16.603 11.5683L16.6855 11.5843C16.7267 11.5963 16.8216 11.5963 16.8917 11.5843L17.0155 11.5683L16.9041 11.4883C16.8422 11.4483 16.7804 11.3963 16.7639 11.3723C16.7515 11.3483 16.6937 11.3243 16.6319 11.3203C16.4627 11.3043 16.1616 11.1443 16.1616 11.0643C16.1616 11.0483 16.2029 11.0763 16.2524 11.1203C16.3679 11.2203 16.5246 11.2803 16.6649 11.2803H16.7639L16.702 11.2003C16.6579 11.1383 16.6297 11.067 16.6195 10.9923C16.6112 10.8723 16.5989 10.8563 16.471 10.7723C16.3968 10.7213 16.3278 10.6638 16.2647 10.6003L16.1946 10.5243L16.1575 10.6163C16.1369 10.6683 16.1162 10.7083 16.1039 10.7083C16.0956 10.7083 16.0544 10.6763 16.0214 10.6403C15.9982 10.6142 15.9702 10.5925 15.9389 10.5763C15.9265 10.5763 15.8976 10.6243 15.8646 10.6843L15.8069 10.7923L15.7656 10.7323C15.7289 10.6832 15.6875 10.6377 15.6419 10.5963C15.5924 10.5563 15.5717 10.5243 15.5882 10.5243C15.6047 10.5243 15.6584 10.5643 15.712 10.6163L15.8027 10.7083L15.844 10.6403C15.8678 10.5932 15.8751 10.5398 15.8646 10.4883C15.8481 10.4163 15.8522 10.4123 15.877 10.4603C15.9126 10.5054 15.9542 10.5458 16.0007 10.5803L16.0915 10.6523L16.1534 10.5443C16.2152 10.4323 16.2152 10.4323 16.24 10.5003C16.2812 10.5843 16.5494 10.8003 16.7762 10.9243C16.8175 10.9443 16.801 10.8803 16.735 10.7243C16.7152 10.673 16.704 10.619 16.702 10.5643C16.702 10.4923 16.6814 10.4603 16.5865 10.3883C16.5275 10.3517 16.4781 10.3023 16.4423 10.244C16.4065 10.1856 16.3853 10.12 16.3802 10.0523C16.3679 9.98431 16.3431 9.91231 16.3225 9.88831C16.2977 9.84831 16.2895 9.87231 16.2977 9.99231C16.306 10.0763 16.2936 10.1803 16.273 10.2243L16.24 10.3043L16.2152 10.2363C16.1987 10.2003 16.1327 10.1363 16.0709 10.0963C16.009 10.0563 15.9636 10.0163 15.9719 10.0083C15.9801 10.0003 16.0461 10.0363 16.1162 10.0883C16.2276 10.1723 16.2482 10.1803 16.2647 10.1443C16.2812 10.1043 16.2647 9.92031 16.2317 9.79231C16.2152 9.72831 16.2152 9.72831 16.2977 9.80831C16.3555 9.86431 16.3885 9.93631 16.4174 10.0563C16.4504 10.2083 16.4669 10.2363 16.6112 10.3603C16.6979 10.4363 16.7762 10.4923 16.7804 10.4883C16.7886 10.4803 16.7969 10.2883 16.8051 10.0563C16.8216 9.61231 16.8051 9.50431 16.6937 9.36831L16.636 9.29631L16.7267 9.20431C16.8284 9.11 16.8963 8.98667 16.9206 8.85231L16.9371 8.74431L16.8381 8.83631C16.7556 8.91231 16.7144 8.92831 16.6195 8.92831C16.5246 8.92831 16.4875 8.91231 16.4256 8.84831C16.3293 8.75832 16.2117 8.69243 16.0832 8.65631C16.0337 8.64031 16.0172 8.64831 16.0172 8.68031C16.0172 8.70431 15.9925 8.76831 15.9595 8.82831L15.9017 8.93231L15.778 8.81231C15.6996 8.74431 15.613 8.68431 15.5429 8.66831C15.3737 8.62831 15.3655 8.62831 15.3655 8.75231C15.3655 8.94031 15.283 8.97631 15.1345 8.85231C15.019 8.75631 14.9282 8.73231 14.7096 8.76031L14.5446 8.77631L14.5735 8.84831C14.5982 8.90831 14.5941 8.93631 14.5405 9.00431C14.4539 9.11631 14.3425 9.16431 14.1692 9.16431C14.0867 9.16431 13.9877 9.18031 13.9465 9.20031C13.9052 9.22031 13.798 9.24031 13.7114 9.24831C13.6289 9.25631 13.534 9.27231 13.5051 9.28031C13.4639 9.29631 13.4639 9.28031 13.4762 9.19231C13.4969 9.05631 13.3937 8.95231 13.2411 8.95231C13.039 8.95231 12.9482 9.12831 13.0266 9.36031C13.0427 9.41035 13.0564 9.46107 13.0679 9.51231C13.122 9.61231 13.1948 9.70181 13.2824 9.77631C13.3896 9.88031 13.4886 9.98831 13.5051 10.0163C13.5383 10.058 13.5806 10.0921 13.6289 10.1163L13.7196 10.1643L13.7072 10.0683C13.6949 9.96431 13.7155 9.94831 13.7732 10.0243C13.7939 10.0483 13.8475 10.0923 13.8887 10.1163C13.9589 10.1563 13.9712 10.1563 13.9712 10.1243C13.9712 10.1003 13.9836 10.0483 14.0001 10.0083L14.029 9.93631L14.0826 10.0363C14.1115 10.0923 14.2064 10.2163 14.293 10.3163C14.4621 10.5043 14.5694 10.7163 14.5157 10.7643C14.491 10.7843 14.4332 10.7843 14.3095 10.7603C14.2187 10.7443 14.1032 10.7323 14.0537 10.7403C13.9589 10.7523 13.9506 10.7403 14.0125 10.6683C14.0744 10.5883 14.062 10.5763 13.9382 10.5763C13.7939 10.5763 13.435 10.5083 13.2947 10.4563C13.1627 10.4043 13.1297 10.4163 13.0885 10.5403L13.0184 10.7643L12.9771 10.8843L13.1256 10.8723C13.2022 10.8645 13.278 10.8512 13.3525 10.8323C13.3817 10.8229 13.4125 10.8188 13.4432 10.8203C13.4515 10.8243 13.4309 10.8723 13.402 10.9283L13.3442 11.0243L13.435 11.0083C13.4845 10.9963 13.5587 10.9723 13.6 10.9523C13.6742 10.9203 13.6825 10.9203 13.7402 11.0123C13.8104 11.1203 13.864 11.1163 13.8764 11.0003C13.8887 10.8803 13.93 10.8963 14.0084 11.0563C14.0826 11.2083 14.1569 11.2643 14.1734 11.1763C14.1775 11.1443 14.2146 11.0963 14.26 11.0643C14.3507 11.0043 14.4167 11.0243 14.4539 11.1163C14.4951 11.2163 14.4044 11.3163 14.1486 11.4683C13.9118 11.5951 13.708 11.7728 13.5528 11.9877C13.3977 12.2026 13.2953 12.4491 13.2535 12.7083C13.1751 13.1803 13.4185 13.6683 13.897 14.0243C14.128 14.1923 14.4951 14.3683 14.4704 14.3043C14.3714 14.0123 14.3755 13.4643 14.4745 13.3723C14.491 13.3563 14.4869 13.4123 14.4621 13.4963C14.3796 13.8123 14.4209 14.0603 14.6271 14.6443C14.8086 15.1723 14.7839 15.4003 14.5199 15.5483C14.4374 15.5963 14.3837 15.6043 14.1569 15.6003C13.9094 15.6003 13.8805 15.6003 13.8021 15.6643C13.7074 15.7582 13.6453 15.8784 13.6247 16.0083C13.6247 16.0603 13.6825 16.0523 13.7897 15.9923H13.7939Z" fill="#FFB700" stroke="black" stroke-width="0.7"/>
<path d="M17.7962 15.9791L17.8993 15.9151L17.9695 15.9791C18.0602 16.0631 18.1716 16.0591 18.2582 15.9751C18.2995 15.9351 18.3325 15.9111 18.3366 15.9151L18.3737 15.9791C18.3943 16.0151 18.4397 16.0311 18.5222 16.0391C18.6171 16.0431 18.646 16.0391 18.6872 15.9831L18.7285 15.9151L18.8316 15.9791C19.1121 16.1551 19.2606 15.9711 19.1327 15.6071C19.0708 15.4231 19.108 15.3191 19.3101 15.0871C19.3967 14.9871 19.4668 14.8791 19.4668 14.8471C19.4668 14.8031 19.4503 14.7951 19.3348 14.7991C19.2276 14.7991 19.1946 14.7871 19.1368 14.7271C19.042 14.6271 19.0502 14.5111 19.1533 14.3831L19.2358 14.2831L19.0873 14.1871C18.9688 14.1022 18.8583 14.0072 18.7573 13.9031C18.6673 13.8001 18.5572 13.7153 18.4333 13.6535C18.3095 13.5917 18.1743 13.5542 18.0355 13.5431L17.8416 13.5231V13.6671C17.8416 13.8471 17.9323 14.0231 18.1716 14.3191C18.4438 14.6551 18.4603 14.7071 18.4727 15.1471L18.4851 15.5191L18.4026 15.5911C18.3325 15.6551 18.3036 15.6671 18.0726 15.6791C17.854 15.6911 17.8045 15.7031 17.7426 15.7591C17.6702 15.8104 17.6202 15.886 17.6023 15.9711C17.59 16.0311 17.5941 16.0431 17.6395 16.0431C17.6683 16.0431 17.7385 16.0151 17.7962 15.9791ZM11.9305 15.0191C11.9554 14.9836 11.9697 14.9421 11.9717 14.8991C11.9717 14.8591 11.9965 14.8431 12.1037 14.8271L12.2316 14.8111L12.1491 14.7431C12.046 14.6631 12.0336 14.6031 12.1243 14.6031C12.2151 14.6031 12.3636 14.5151 12.3883 14.4471C12.4007 14.4151 12.3883 14.3751 12.3718 14.3551C12.3223 14.2991 12.2275 14.3071 12.211 14.3711C12.1903 14.4351 12.1615 14.4351 12.0872 14.3711C11.9841 14.2711 11.98 14.0671 12.0872 13.9471C12.1326 13.8911 12.1326 13.8911 12.0707 13.8311C12.0047 13.7671 11.9552 13.6471 11.9882 13.6151C11.9965 13.6071 12.0501 13.6151 12.1037 13.6351C12.1862 13.6591 12.2151 13.6591 12.2481 13.6351C12.343 13.5591 12.2398 13.4631 12.0831 13.4871C12.0171 13.4951 11.9923 13.4871 11.9841 13.4551C11.9758 13.4311 11.9222 13.3991 11.8603 13.3831C11.749 13.3551 11.749 13.3551 11.749 13.4311C11.749 13.5111 11.6995 13.5271 11.6087 13.4751C11.5345 13.4351 11.4643 13.4671 11.4643 13.5431C11.4643 13.6151 11.5345 13.6471 11.6706 13.6391C11.7696 13.6351 11.7737 13.7071 11.6788 13.8111L11.6087 13.8911L11.6623 13.9671C11.7448 14.0791 11.7366 14.2671 11.65 14.3631L11.5798 14.4351L11.5345 14.3751C11.4685 14.2951 11.3818 14.2991 11.3571 14.3871C11.3447 14.4431 11.3571 14.4671 11.4313 14.5311C11.4808 14.5711 11.5551 14.6031 11.5922 14.6031C11.6871 14.6031 11.683 14.6791 11.584 14.7511L11.5015 14.8111L11.6252 14.8271C11.6912 14.8391 11.749 14.8551 11.749 14.8671C11.749 14.9191 11.8315 15.0751 11.8562 15.0751C11.8727 15.0751 11.9057 15.0471 11.9305 15.0151V15.0191Z" fill="#FFB700" stroke="black" stroke-width="0.7"/>
<path d="M13.5062 14.3556C13.6175 14.3156 13.8568 14.1156 13.8568 14.0716C13.8568 14.0556 13.7908 13.9836 13.7083 13.9116C13.5433 13.7676 13.3577 13.5156 13.3082 13.3716C13.2834 13.2916 13.1638 13.1636 12.8255 12.8436L12.3759 12.4236L12.248 12.4556C12.1738 12.4716 12.0872 12.4876 12.0542 12.4876C11.9923 12.4876 11.9923 12.4876 12.0748 12.5516L12.1573 12.6156L12.281 12.5516C12.3924 12.4876 12.3965 12.4876 12.4089 12.5396C12.4172 12.5676 12.4007 12.6196 12.3677 12.6556C12.3388 12.6916 12.3223 12.7356 12.3264 12.7476C12.3388 12.7596 12.3099 12.7876 12.2645 12.8116C12.182 12.8516 12.1202 12.9836 12.1862 12.9836C12.248 12.9836 12.38 12.8236 12.3635 12.7716C12.3553 12.7436 12.3635 12.7156 12.3718 12.7076C12.4254 12.6796 12.4213 12.8036 12.3718 12.8676C12.3388 12.8996 12.3223 12.9396 12.3305 12.9556C12.3388 12.9676 12.3099 12.9956 12.2645 13.0196C12.182 13.0596 12.1202 13.1916 12.1862 13.1916C12.2522 13.1916 12.38 13.0396 12.3677 12.9836C12.3594 12.9556 12.3594 12.9236 12.3718 12.9156C12.4089 12.8996 12.4254 12.9956 12.3965 13.0436C12.389 13.0571 12.385 13.0722 12.385 13.0876C12.385 13.103 12.389 13.1181 12.3965 13.1316C12.4254 13.1836 12.3965 13.2796 12.3429 13.3116C12.3223 13.3236 12.3347 13.3516 12.3924 13.3916C12.4749 13.4476 12.4749 13.4556 12.4749 13.7116C12.4749 13.9276 12.4832 13.9836 12.5244 14.0196C12.5657 14.0596 12.5739 14.0596 12.5739 14.0196C12.5739 13.9796 12.6564 13.9236 12.7183 13.9236C12.7389 13.9236 12.8585 14.0236 12.9864 14.1436C13.1143 14.2636 13.2504 14.3716 13.2875 14.3756L13.3783 14.3916C13.3907 14.3916 13.4484 14.3796 13.5062 14.3516V14.3556ZM12.1325 13.3116C12.1325 13.2436 11.984 13.1676 11.8067 13.1516C11.6623 13.1316 11.6623 13.1356 11.6623 13.2036C11.6623 13.2596 11.6829 13.2836 11.786 13.3236C11.9428 13.3916 12.1325 13.3836 12.1325 13.3116Z" fill="#FFB700" stroke="black" stroke-width="0.7"/>
<path d="M12.2935 13.3035C12.3677 13.2395 12.4007 13.1675 12.3553 13.1675C12.3058 13.1675 12.1738 13.2795 12.1738 13.3275C12.1738 13.3915 12.1986 13.3875 12.2976 13.3035H12.2935ZM12.1408 13.0995C12.145 13.0595 12.1202 13.0355 12.046 12.9995C11.881 12.9315 11.6912 12.8955 11.6458 12.9315C11.5592 12.9995 11.617 13.0875 11.7531 13.1035C11.8108 13.1075 11.8851 13.1235 11.9222 13.1395C12.0295 13.1795 12.1285 13.1595 12.1408 13.0995ZM12.1408 12.8875C12.1491 12.8355 12.112 12.8155 11.8108 12.7115C11.584 12.6315 11.485 12.6715 11.5592 12.8035C11.584 12.8475 11.6252 12.8675 11.7201 12.8835C11.7902 12.8915 11.8851 12.9115 11.9305 12.9275C12.0542 12.9675 12.1285 12.9515 12.1367 12.8875H12.1408ZM12.2893 12.6915C12.3347 12.6475 12.3718 12.5955 12.3718 12.5715C12.3718 12.5115 12.1945 12.6235 12.1697 12.7035C12.145 12.7955 12.1903 12.7915 12.2935 12.6915H12.2893ZM12.1408 12.6795C12.1491 12.6155 12.0418 12.5595 11.8273 12.5155C11.6665 12.4795 11.5963 12.4995 11.6087 12.5715C11.617 12.6115 11.6706 12.6395 11.815 12.6835C12.0583 12.7555 12.1285 12.7555 12.1408 12.6795ZM12.3471 12.3835C12.6276 12.2635 12.6482 11.9635 12.3883 11.8835C12.2811 11.8515 12.2151 11.8715 12.1738 11.9395C12.1408 11.9955 12.1615 12.0915 12.2027 12.0915C12.2192 12.0915 12.2316 12.1115 12.2316 12.1315C12.2316 12.2395 11.8108 12.2835 11.6376 12.1995C11.5757 12.1715 11.5551 12.0915 11.6005 12.0915C11.6417 12.0915 11.6665 12.0115 11.6458 11.9595C11.6211 11.8795 11.5386 11.8555 11.4272 11.8875C11.1673 11.9515 11.1756 12.2475 11.4396 12.3675C11.7317 12.4715 12.0513 12.4771 12.3471 12.3835Z" fill="#FFB700" stroke="black" stroke-width="0.7"/>
<path d="M12.179 12.1516C12.1955 12.1356 12.1872 12.1116 12.1625 12.0956C12.1047 12.0516 12.1088 11.9836 12.1707 11.9076C12.2202 11.8516 12.2243 11.7636 12.2408 10.9036C12.2697 9.41961 12.3852 8.30361 12.5337 8.03161C12.5956 7.92761 12.5873 7.92761 12.4306 8.03161C12.2249 8.17056 12.0589 8.35769 11.948 8.57561C11.6922 9.03561 11.6056 9.65561 11.6056 10.9836C11.6056 11.7356 11.6097 11.8356 11.6551 11.9036C11.6963 11.9756 11.6963 11.9996 11.6716 12.0716C11.651 12.1156 11.6427 12.1636 11.651 12.1716C11.7087 12.2236 12.1212 12.2116 12.179 12.1516ZM14.4931 10.7356C14.5055 10.7236 14.4848 10.6556 14.4518 10.5916C14.4023 10.4876 14.3817 10.4716 14.3116 10.4716C13.9818 10.4438 13.6601 10.357 13.3628 10.2156C13.1525 10.1236 13.0741 10.1036 13.0535 10.1276C12.9875 10.1876 13.0947 10.3276 13.2597 10.4036C13.5025 10.4885 13.7569 10.5383 14.0146 10.5516C14.126 10.5516 14.1301 10.5516 14.0641 10.6436L14.0228 10.7076H14.1466L14.3528 10.7316C14.4766 10.7596 14.4766 10.7596 14.4931 10.7356Z" fill="#FFB700" stroke="black" stroke-width="0.7"/>
<path d="M15.796 11.4034C15.796 11.3634 15.6763 11.2634 15.5608 11.1954C15.466 11.1434 15.4495 11.1394 15.4495 11.1834C15.4495 11.2474 15.3917 11.4114 15.367 11.4114C15.3546 11.4114 15.334 11.3794 15.3257 11.3434C15.3133 11.3034 15.268 11.2234 15.2226 11.1714L15.1401 11.0714L15.0823 11.1634C15.0246 11.2514 14.9215 11.3354 14.8761 11.3354C14.8678 11.3354 14.8637 11.2874 14.8761 11.2354C14.8802 11.1714 14.8761 11.1234 14.8555 11.1154C14.839 11.1034 14.8225 11.1074 14.8225 11.1234C14.8225 11.1554 14.6822 11.3074 14.6575 11.3074C14.641 11.3074 14.6245 11.2674 14.6162 11.2114L14.5832 11.0194C14.575 10.9714 14.5956 11.0034 14.6245 11.0994L14.6905 11.2634L14.7565 11.1634C14.7863 11.1221 14.8087 11.0761 14.8225 11.0274C14.8225 11.0074 14.8348 10.9994 14.8513 11.0074C14.8678 11.0154 14.8885 11.0834 14.8967 11.1554L14.9173 11.2914L14.9916 11.2114C15.0304 11.1713 15.0663 11.1286 15.0988 11.0834C15.1277 11.0354 15.1318 11.0354 15.1937 11.0834C15.2267 11.1154 15.2803 11.1834 15.3133 11.2394C15.3463 11.2954 15.3752 11.3354 15.3793 11.3314L15.4041 11.2034L15.4206 11.0834C15.4247 11.0634 15.6433 11.2034 15.7258 11.2714C15.7753 11.3154 15.8248 11.3474 15.8331 11.3394C15.8413 11.3314 15.8496 11.2674 15.8496 11.1914C15.8496 11.0794 15.8372 11.0474 15.7671 10.9874C15.6846 10.9154 15.6846 10.9154 15.6516 10.9674C15.6103 11.0354 15.565 11.0354 15.565 10.9674C15.565 10.9194 15.4082 10.7314 15.3711 10.7314C15.3587 10.7314 15.3257 10.7714 15.2968 10.8234C15.268 10.8754 15.235 10.9154 15.2267 10.9154C15.1855 10.9154 14.9668 10.6754 14.9668 10.6354C14.9668 10.6034 14.9833 10.6114 15.0205 10.6674C15.0573 10.72 15.1002 10.7683 15.1483 10.8114C15.2308 10.8834 15.2638 10.8674 15.2968 10.7274C15.3092 10.6874 15.3257 10.6554 15.3381 10.6554C15.3711 10.6554 15.5608 10.8514 15.5856 10.9154L15.6145 10.9794L15.6351 10.9074C15.6598 10.8194 15.6887 10.8194 15.73 10.8994C15.7465 10.9314 15.829 11.0034 15.9115 11.0514L16.0641 11.1474L16.093 11.0514C16.1095 10.9994 16.1342 10.9714 16.1425 10.9874C16.159 11.0074 16.1177 11.1674 16.0888 11.1994C16.0888 11.2034 16.0352 11.1754 15.9816 11.1394L15.8785 11.0674V11.1954C15.8785 11.2634 15.8702 11.3474 15.862 11.3794C15.8413 11.4434 15.7918 11.4594 15.7918 11.4034H15.796ZM15.0328 10.3874C14.8513 10.2434 14.8266 10.2114 14.8266 10.1394L14.8307 10.0674L14.8431 10.1354C14.8513 10.1754 14.9008 10.2394 14.9586 10.2874L15.0658 10.3674L15.1277 10.2954C15.1648 10.2554 15.1937 10.2074 15.1937 10.1914C15.1937 10.1434 15.202 10.1474 15.3257 10.2514C15.433 10.3434 15.4371 10.3434 15.4495 10.2834C15.4618 10.2514 15.4577 10.1874 15.4495 10.1434C15.4082 10.0234 15.4165 10.0074 15.4701 10.0794L15.5691 10.1914C15.6103 10.2354 15.6145 10.2354 15.631 10.1794C15.6433 10.1434 15.6516 10.0834 15.6516 10.0434V9.96743L15.7465 10.0754C15.8413 10.1794 15.8496 10.1834 15.8743 10.1314C15.895 10.1034 15.9073 10.0354 15.9073 9.98343C15.9073 9.91143 15.9156 9.89543 15.9321 9.91943C15.9651 9.96743 15.9445 10.0874 15.8867 10.1914L15.8455 10.2714L15.7918 10.1874C15.7217 10.0834 15.697 10.0834 15.6557 10.1954C15.6145 10.3034 15.5856 10.3114 15.5443 10.2274C15.5196 10.1754 15.5113 10.1834 15.4948 10.2954L15.4742 10.4154L15.3505 10.3234L15.2267 10.2314L15.1648 10.2914C15.136 10.3274 15.1112 10.3714 15.1112 10.3874C15.1112 10.4274 15.0782 10.4274 15.0328 10.3874ZM16.6416 9.84343C16.5797 9.78743 16.5343 9.73143 16.5426 9.72343C16.555 9.71143 16.5632 9.70743 16.5673 9.71543C16.6073 9.75671 16.6486 9.79671 16.6911 9.83543C16.8313 9.97943 16.8025 9.98343 16.6457 9.84343H16.6416ZM14.4966 9.62743C14.4388 9.54743 14.443 9.49943 14.5172 9.41143C14.5667 9.35143 14.5915 9.34343 14.6822 9.35543C14.7441 9.35943 14.872 9.41143 14.9668 9.46743C15.104 9.54689 15.2609 9.58836 15.4206 9.58743L15.3505 9.47543C15.2597 9.34343 15.2597 9.32743 15.367 9.40743C15.4742 9.49143 15.6021 9.51543 15.8908 9.50743L16.0311 9.50343L15.9486 9.42343C15.8372 9.31543 15.8702 9.30343 15.9981 9.41143C16.1136 9.51143 16.1095 9.51943 15.8578 9.54343C15.7529 9.5537 15.647 9.54695 15.5443 9.52343C15.4041 9.48343 15.3958 9.48743 15.4247 9.53143C15.4412 9.55943 15.466 9.57943 15.4783 9.57943C15.4948 9.57943 15.5072 9.59543 15.5072 9.61143C15.5072 9.66343 15.202 9.61543 15.0535 9.54743C14.7235 9.38343 14.6822 9.36743 14.5997 9.39143C14.5777 9.39966 14.5577 9.41201 14.5407 9.42778C14.5237 9.44359 14.5101 9.4625 14.5007 9.48343C14.4471 9.61543 14.641 9.71943 14.7193 9.60343C14.7441 9.56743 14.74 9.54743 14.6987 9.50343C14.641 9.44743 14.6492 9.43943 14.7235 9.46343C14.7771 9.48343 14.7812 9.60743 14.7317 9.65543C14.6781 9.70743 14.5461 9.69543 14.4966 9.62743Z" fill="black" stroke="black" stroke-width="0.7"/>
<path d="M15.8134 9.30317C15.7722 9.26317 15.8052 9.25517 15.9908 9.25117C16.2218 9.24717 16.362 9.21117 16.527 9.10717C16.659 9.02717 16.6962 9.04317 16.5683 9.12717C16.4569 9.20717 16.2795 9.26317 16.1022 9.27917L15.8918 9.30717C15.8588 9.31517 15.8217 9.31117 15.8093 9.30317H15.8134Z" fill="black" stroke="black" stroke-width="0.7"/>
<path d="M13.7939 15.9923L13.8887 15.9363L13.93 15.9923C13.9836 16.0643 14.1362 16.0603 14.2352 15.9923L14.3136 15.9323L14.3796 15.9883C14.4621 16.0643 14.6189 16.0643 14.722 15.9883C14.7921 15.9403 14.8045 15.9363 14.8457 15.9763C14.8746 16.0003 14.9571 16.0243 15.0272 16.0363C15.1592 16.0523 15.1592 16.0523 15.2335 15.9403C15.2995 15.8483 15.3077 15.8123 15.2954 15.7203C15.2838 15.65 15.2756 15.5793 15.2706 15.5083C15.2624 15.4043 15.2665 15.4043 15.4191 15.3483C15.4949 15.3257 15.5693 15.2991 15.6419 15.2683C15.7037 15.2323 15.877 15.0363 15.877 14.9963C15.877 14.9883 15.811 14.9723 15.7285 14.9643C15.3985 14.9243 15.3449 14.7563 15.5594 14.4443C15.9017 13.9243 16.1121 13.4243 16.1121 13.1083C16.1121 12.9643 16.1245 12.9163 16.141 12.9483C16.2194 13.0723 16.0791 13.6043 15.8729 13.9883L15.7904 14.1403L15.8687 14.1243C15.91 14.1123 16.174 14.0043 16.4462 13.8843C17.197 13.5563 17.4527 13.4923 17.9395 13.5123C18.3479 13.5283 18.517 13.6043 18.8057 13.8963C18.9584 14.0563 19.1069 14.1643 19.375 14.3283C19.9442 14.6723 19.969 14.7043 19.9979 15.1123C20.0267 15.5243 20.0102 15.5483 19.6885 15.6163C19.4121 15.6763 19.2389 15.8003 19.1935 15.9763C19.1687 16.0643 19.2224 16.0683 19.3585 15.9803L19.4616 15.9163L19.507 15.9803C19.5689 16.0643 19.6926 16.0643 19.7957 15.9803L19.8782 15.9203L19.9607 15.9803C20.0845 16.0803 20.2495 16.0563 20.299 15.9323C20.3072 15.9123 20.332 15.9163 20.3815 15.9603C20.4764 16.0403 20.7115 16.0723 20.7362 16.0083C20.7445 15.9843 20.728 15.9283 20.695 15.8803C20.5589 15.6803 20.5135 15.5883 20.5135 15.4803C20.5135 15.3283 20.5547 15.2523 20.7362 15.1323C20.9507 14.9803 21.0167 14.7883 20.8517 14.7883C20.7527 14.7883 20.6496 14.7003 20.5836 14.5603C20.4516 14.2723 20.4805 13.9523 20.6785 13.4163C20.8303 13.1009 20.9064 12.7563 20.9012 12.4083C20.9012 12.1123 20.893 12.0643 20.827 11.9003C20.7754 11.7863 20.7118 11.6777 20.6372 11.5763L20.5217 11.4283L20.6661 11.3083C21.1116 10.9523 21.0209 10.3683 20.4846 10.1443C20.3196 10.0723 20.2784 10.0683 19.9896 10.0683C19.8246 10.0683 19.5565 10.0923 19.4121 10.1203C19.2183 10.15 19.0226 10.1661 18.8264 10.1683C18.5459 10.1683 18.4964 10.1603 18.3891 10.1043C18.2777 10.0483 18.2571 10.0203 18.2365 9.88431C18.2345 9.87147 18.2294 9.85931 18.2214 9.84885C18.2136 9.83842 18.2031 9.82997 18.1911 9.82431C18.1499 9.81231 17.9766 9.96031 17.9519 10.0243C17.9354 10.0603 17.9271 10.0563 17.89 10.0123C17.855 9.96869 17.8272 9.92011 17.8075 9.86831C17.7662 9.73631 17.8199 9.64031 17.9807 9.56431L18.1045 9.50831L18.0302 9.46431C17.8817 9.37231 17.626 9.43631 17.5352 9.58431C17.5064 9.62431 17.4775 9.66431 17.4692 9.66431C17.461 9.66431 17.4115 9.62431 17.362 9.57231C17.1681 9.38831 17.2341 9.11631 17.494 9.03631C17.6301 8.99231 17.7539 9.02431 17.7786 9.11631C17.8199 9.24831 17.9354 9.07231 17.9147 8.90831C17.9024 8.80031 17.9024 8.79631 17.9807 8.79631C18.088 8.79631 18.3107 8.93231 18.385 9.03631C18.4675 9.16031 18.4592 9.35631 18.3685 9.50031L18.2984 9.61231L18.3932 9.59631C18.5252 9.56831 18.6572 9.48831 18.7232 9.38831C18.758 9.32459 18.7776 9.25413 18.7804 9.18213C18.7833 9.1101 18.7694 9.03839 18.7397 8.97231C18.6779 8.86431 18.6861 8.84831 18.7769 8.88431C18.9254 8.94431 19.0079 9.01231 19.0656 9.12831C19.1234 9.23231 19.1275 9.25631 19.0986 9.36831C19.0789 9.4365 19.0483 9.50127 19.0079 9.56031C18.9584 9.62431 18.9542 9.63631 18.9955 9.63631C19.0697 9.63631 19.2182 9.56831 19.2719 9.51631C19.3007 9.48431 19.342 9.41631 19.3626 9.35631L19.4039 9.25631L19.4451 9.33631C19.507 9.44431 19.6307 9.54431 19.7792 9.60831C19.9401 9.67231 20.0061 9.67631 19.9236 9.61631C19.8659 9.57631 19.7586 9.27631 19.7957 9.24831C19.9738 9.34495 20.1364 9.46623 20.2784 9.60831C20.5135 9.81231 20.662 9.88031 20.8765 9.88031C21.1529 9.88031 21.3137 9.64831 21.19 9.42831C21.1199 9.30031 20.959 9.28031 20.86 9.38831C20.8187 9.44031 20.8064 9.48031 20.8187 9.53631C20.8352 9.60031 20.8311 9.60831 20.7692 9.60831C20.6867 9.60831 20.53 9.50831 20.2495 9.28031C19.8591 8.95445 19.4102 8.70091 18.9254 8.53231C18.5969 8.45867 18.2577 8.44107 17.923 8.48031C17.659 8.52831 17.3455 8.67631 17.1722 8.83231C16.8711 9.11231 16.867 9.48431 17.1599 9.82431L17.2424 9.92031L17.1887 10.0083C17.1484 10.0713 17.1284 10.1446 17.1314 10.2187C17.1343 10.2929 17.16 10.3645 17.2052 10.4243C17.2465 10.4803 17.2877 10.5243 17.3001 10.5243C17.3084 10.5243 17.3166 10.4883 17.3207 10.4443C17.329 10.3363 17.3785 10.2643 17.461 10.2363C17.5352 10.2083 17.5847 10.2243 17.923 10.3563C18.2819 10.4923 18.8717 10.5003 19.4987 10.3803C19.7705 10.3194 20.0533 10.3222 20.3237 10.3883C20.6207 10.5083 20.6867 10.8163 20.4722 11.0483C20.3774 11.1523 20.2907 11.1923 19.9896 11.2723C19.7275 11.3393 19.4549 11.3597 19.1852 11.3323C18.7397 11.3283 18.5789 11.3363 18.4015 11.3723C18.1994 11.4123 18.0797 11.4163 17.5022 11.4043L16.8299 11.3883L16.9041 11.4443C16.9439 11.4785 16.9867 11.5093 17.032 11.5363C17.0856 11.5643 17.0815 11.5683 17.0072 11.5963C16.966 11.6123 16.867 11.6243 16.7886 11.6243H16.6525L16.636 11.7363C16.6249 11.7891 16.6249 11.8435 16.636 11.8963C16.6525 11.9363 16.6442 11.9443 16.603 11.9283C16.5741 11.9163 16.4957 11.8963 16.4256 11.8843C16.3549 11.8696 16.2858 11.8481 16.2194 11.8203C16.141 11.7803 16.1327 11.7803 16.1039 11.8323C16.0791 11.8723 15.8481 12.0403 15.8151 12.0403C15.8002 11.9365 15.7696 11.8354 15.7244 11.7403C15.6831 11.6563 15.646 11.5603 15.6336 11.5323C15.6212 11.4883 15.613 11.4843 15.5924 11.5203C15.58 11.5403 15.5635 11.6003 15.5511 11.6483C15.5367 11.7131 15.5116 11.7752 15.4769 11.8323L15.415 11.9203L15.3737 11.8443C15.3325 11.7643 15.2665 11.6763 15.2417 11.6763C15.2335 11.6763 15.2211 11.7003 15.2129 11.7363C15.1922 11.8003 15.0314 11.9883 14.9901 11.9883C14.9777 11.9883 14.9654 11.9363 14.9654 11.8683C14.9654 11.8083 14.953 11.7523 14.9365 11.7523C14.92 11.7523 14.9076 11.7723 14.9076 11.7923C14.9076 11.8403 14.7715 11.9923 14.722 11.9923C14.7055 11.9923 14.6725 12.0083 14.6519 12.0323C14.6024 12.0843 14.5611 12.0763 14.5817 12.0163C14.5875 11.9651 14.5819 11.9132 14.5652 11.8643L14.524 11.7363C14.5157 11.7163 14.4662 11.7243 14.359 11.7563C14.194 11.8083 14.1362 11.7963 14.2229 11.7323C14.2559 11.7083 14.3054 11.6243 14.3301 11.5483C14.359 11.4683 14.4002 11.4003 14.4209 11.3923C14.4497 11.3843 14.4497 11.3923 14.4126 11.4403C14.3888 11.4707 14.3731 11.5065 14.3672 11.5443C14.3672 11.5643 14.3466 11.6163 14.326 11.6603C14.3012 11.7003 14.2847 11.7403 14.2889 11.7443C14.293 11.7483 14.359 11.7243 14.4332 11.6923L14.5652 11.6283V11.6843C14.5652 11.7163 14.5817 11.7963 14.6024 11.8643L14.6395 11.9843L14.7302 11.9443C14.821 11.9043 14.9076 11.7603 14.9076 11.6443C14.9076 11.5883 14.9406 11.5963 14.9571 11.6563C14.9571 11.6723 14.9819 11.7403 14.9984 11.8043L15.0396 11.9163L15.1015 11.8443C15.1386 11.8043 15.1799 11.7243 15.1964 11.6723C15.2294 11.5763 15.2789 11.5323 15.2789 11.6043C15.2789 11.6523 15.4191 11.8363 15.4439 11.8203C15.4604 11.8123 15.4851 11.7443 15.5057 11.6683C15.547 11.5083 15.6089 11.4043 15.6501 11.4283C15.6666 11.4363 15.6707 11.4523 15.6625 11.4683C15.6542 11.4763 15.6872 11.5803 15.7367 11.6923C15.7726 11.7762 15.8084 11.8602 15.844 11.9443C15.8605 11.9843 15.877 11.9843 15.9801 11.8923C16.042 11.8363 16.1039 11.7763 16.108 11.7563C16.1204 11.7243 16.1327 11.7283 16.1905 11.7643C16.3121 11.8266 16.4453 11.8647 16.5824 11.8763C16.5906 11.8683 16.5989 11.7963 16.5989 11.7163L16.603 11.5683L16.6855 11.5843C16.7267 11.5963 16.8216 11.5963 16.8917 11.5843L17.0155 11.5683L16.9041 11.4883C16.8422 11.4483 16.7804 11.3963 16.7639 11.3723C16.7515 11.3483 16.6937 11.3243 16.6319 11.3203C16.4627 11.3043 16.1616 11.1443 16.1616 11.0643C16.1616 11.0483 16.2029 11.0763 16.2524 11.1203C16.3679 11.2203 16.5246 11.2803 16.6649 11.2803H16.7639L16.702 11.2003C16.6579 11.1383 16.6297 11.067 16.6195 10.9923C16.6112 10.8723 16.5989 10.8563 16.471 10.7723C16.3968 10.7213 16.3278 10.6638 16.2647 10.6003L16.1946 10.5243L16.1575 10.6163C16.1369 10.6683 16.1162 10.7083 16.1039 10.7083C16.0956 10.7083 16.0544 10.6763 16.0214 10.6403C15.9982 10.6142 15.9702 10.5925 15.9389 10.5763C15.9265 10.5763 15.8976 10.6243 15.8646 10.6843L15.8069 10.7923L15.7656 10.7323C15.7289 10.6832 15.6875 10.6377 15.6419 10.5963C15.5924 10.5563 15.5717 10.5243 15.5882 10.5243C15.6047 10.5243 15.6584 10.5643 15.712 10.6163L15.8027 10.7083L15.844 10.6403C15.8678 10.5932 15.8751 10.5398 15.8646 10.4883C15.8481 10.4163 15.8522 10.4123 15.877 10.4603C15.9126 10.5054 15.9542 10.5458 16.0007 10.5803L16.0915 10.6523L16.1534 10.5443C16.2152 10.4323 16.2152 10.4323 16.24 10.5003C16.2812 10.5843 16.5494 10.8003 16.7762 10.9243C16.8175 10.9443 16.801 10.8803 16.735 10.7243C16.7152 10.673 16.704 10.619 16.702 10.5643C16.702 10.4923 16.6814 10.4603 16.5865 10.3883C16.5275 10.3517 16.4781 10.3023 16.4423 10.244C16.4065 10.1856 16.3853 10.12 16.3802 10.0523C16.3679 9.98431 16.3431 9.91231 16.3225 9.88831C16.2977 9.84831 16.2895 9.87231 16.2977 9.99231C16.306 10.0763 16.2936 10.1803 16.273 10.2243L16.24 10.3043L16.2152 10.2363C16.1987 10.2003 16.1327 10.1363 16.0709 10.0963C16.009 10.0563 15.9636 10.0163 15.9719 10.0083C15.9801 10.0003 16.0461 10.0363 16.1162 10.0883C16.2276 10.1723 16.2482 10.1803 16.2647 10.1443C16.2812 10.1043 16.2647 9.92031 16.2317 9.79231C16.2152 9.72831 16.2152 9.72831 16.2977 9.80831C16.3555 9.86431 16.3885 9.93631 16.4174 10.0563C16.4504 10.2083 16.4669 10.2363 16.6112 10.3603C16.6979 10.4363 16.7762 10.4923 16.7804 10.4883C16.7886 10.4803 16.7969 10.2883 16.8051 10.0563C16.8216 9.61231 16.8051 9.50431 16.6937 9.36831L16.636 9.29631L16.7267 9.20431C16.8284 9.11 16.8963 8.98667 16.9206 8.85231L16.9371 8.74431L16.8381 8.83631C16.7556 8.91231 16.7144 8.92831 16.6195 8.92831C16.5246 8.92831 16.4875 8.91231 16.4256 8.84831C16.3293 8.75832 16.2117 8.69243 16.0832 8.65631C16.0337 8.64031 16.0172 8.64831 16.0172 8.68031C16.0172 8.70431 15.9925 8.76831 15.9595 8.82831L15.9017 8.93231L15.778 8.81231C15.6996 8.74431 15.613 8.68431 15.5429 8.66831C15.3737 8.62831 15.3655 8.62831 15.3655 8.75231C15.3655 8.94031 15.283 8.97631 15.1345 8.85231C15.019 8.75631 14.9282 8.73231 14.7096 8.76031L14.5446 8.77631L14.5735 8.84831C14.5982 8.90831 14.5941 8.93631 14.5405 9.00431C14.4539 9.11631 14.3425 9.16431 14.1692 9.16431C14.0867 9.16431 13.9877 9.18031 13.9465 9.20031C13.9052 9.22031 13.798 9.24031 13.7114 9.24831C13.6289 9.25631 13.534 9.27231 13.5051 9.28031C13.4639 9.29631 13.4639 9.28031 13.4762 9.19231C13.4969 9.05631 13.3937 8.95231 13.2411 8.95231C13.039 8.95231 12.9482 9.12831 13.0266 9.36031C13.0427 9.41035 13.0564 9.46107 13.0679 9.51231C13.122 9.61231 13.1948 9.70181 13.2824 9.77631C13.3896 9.88031 13.4886 9.98831 13.5051 10.0163C13.5383 10.058 13.5806 10.0921 13.6289 10.1163L13.7196 10.1643L13.7072 10.0683C13.6949 9.96431 13.7155 9.94831 13.7732 10.0243C13.7939 10.0483 13.8475 10.0923 13.8887 10.1163C13.9589 10.1563 13.9712 10.1563 13.9712 10.1243C13.9712 10.1003 13.9836 10.0483 14.0001 10.0083L14.029 9.93631L14.0826 10.0363C14.1115 10.0923 14.2064 10.2163 14.293 10.3163C14.4621 10.5043 14.5694 10.7163 14.5157 10.7643C14.491 10.7843 14.4332 10.7843 14.3095 10.7603C14.2187 10.7443 14.1032 10.7323 14.0537 10.7403C13.9589 10.7523 13.9506 10.7403 14.0125 10.6683C14.0744 10.5883 14.062 10.5763 13.9382 10.5763C13.7939 10.5763 13.435 10.5083 13.2947 10.4563C13.1627 10.4043 13.1297 10.4163 13.0885 10.5403L13.0184 10.7643L12.9771 10.8843L13.1256 10.8723C13.2022 10.8645 13.278 10.8512 13.3525 10.8323C13.3817 10.8229 13.4125 10.8188 13.4432 10.8203C13.4515 10.8243 13.4309 10.8723 13.402 10.9283L13.3442 11.0243L13.435 11.0083C13.4845 10.9963 13.5587 10.9723 13.6 10.9523C13.6742 10.9203 13.6825 10.9203 13.7402 11.0123C13.8104 11.1203 13.864 11.1163 13.8764 11.0003C13.8887 10.8803 13.93 10.8963 14.0084 11.0563C14.0826 11.2083 14.1569 11.2643 14.1734 11.1763C14.1775 11.1443 14.2146 11.0963 14.26 11.0643C14.3507 11.0043 14.4167 11.0243 14.4539 11.1163C14.4951 11.2163 14.4044 11.3163 14.1486 11.4683C13.9118 11.5951 13.708 11.7728 13.5528 11.9877C13.3977 12.2026 13.2953 12.4491 13.2535 12.7083C13.1751 13.1803 13.4185 13.6683 13.897 14.0243C14.128 14.1923 14.4951 14.3683 14.4704 14.3043C14.3714 14.0123 14.3755 13.4643 14.4745 13.3723C14.491 13.3563 14.4869 13.4123 14.4621 13.4963C14.3796 13.8123 14.4209 14.0603 14.6271 14.6443C14.8086 15.1723 14.7839 15.4003 14.5199 15.5483C14.4374 15.5963 14.3837 15.6043 14.1569 15.6003C13.9094 15.6003 13.8805 15.6003 13.8021 15.6643C13.7074 15.7582 13.6453 15.8784 13.6247 16.0083C13.6247 16.0603 13.6825 16.0523 13.7897 15.9923H13.7939Z" fill="#FFB700"/>
<path d="M17.7962 15.9791L17.8993 15.9151L17.9695 15.9791C18.0602 16.0631 18.1716 16.0591 18.2582 15.9751C18.2995 15.9351 18.3325 15.9111 18.3366 15.9151L18.3737 15.9791C18.3943 16.0151 18.4397 16.0311 18.5222 16.0391C18.6171 16.0431 18.646 16.0391 18.6872 15.9831L18.7285 15.9151L18.8316 15.9791C19.1121 16.1551 19.2606 15.9711 19.1327 15.6071C19.0708 15.4231 19.108 15.3191 19.3101 15.0871C19.3967 14.9871 19.4668 14.8791 19.4668 14.8471C19.4668 14.8031 19.4503 14.7951 19.3348 14.7991C19.2276 14.7991 19.1946 14.7871 19.1368 14.7271C19.042 14.6271 19.0502 14.5111 19.1533 14.3831L19.2358 14.2831L19.0873 14.1871C18.9688 14.1022 18.8583 14.0072 18.7573 13.9031C18.6673 13.8001 18.5572 13.7153 18.4333 13.6535C18.3095 13.5917 18.1743 13.5542 18.0355 13.5431L17.8416 13.5231V13.6671C17.8416 13.8471 17.9323 14.0231 18.1716 14.3191C18.4438 14.6551 18.4603 14.7071 18.4727 15.1471L18.4851 15.5191L18.4026 15.5911C18.3325 15.6551 18.3036 15.6671 18.0726 15.6791C17.854 15.6911 17.8045 15.7031 17.7426 15.7591C17.6702 15.8104 17.6202 15.886 17.6023 15.9711C17.59 16.0311 17.5941 16.0431 17.6395 16.0431C17.6683 16.0431 17.7385 16.0151 17.7962 15.9791ZM11.9305 15.0191C11.9554 14.9836 11.9697 14.9421 11.9717 14.8991C11.9717 14.8591 11.9965 14.8431 12.1037 14.8271L12.2316 14.8111L12.1491 14.7431C12.046 14.6631 12.0336 14.6031 12.1243 14.6031C12.2151 14.6031 12.3636 14.5151 12.3883 14.4471C12.4007 14.4151 12.3883 14.3751 12.3718 14.3551C12.3223 14.2991 12.2275 14.3071 12.211 14.3711C12.1903 14.4351 12.1615 14.4351 12.0872 14.3711C11.9841 14.2711 11.98 14.0671 12.0872 13.9471C12.1326 13.8911 12.1326 13.8911 12.0707 13.8311C12.0047 13.7671 11.9552 13.6471 11.9882 13.6151C11.9965 13.6071 12.0501 13.6151 12.1037 13.6351C12.1862 13.6591 12.2151 13.6591 12.2481 13.6351C12.343 13.5591 12.2398 13.4631 12.0831 13.4871C12.0171 13.4951 11.9923 13.4871 11.9841 13.4551C11.9758 13.4311 11.9222 13.3991 11.8603 13.3831C11.749 13.3551 11.749 13.3551 11.749 13.4311C11.749 13.5111 11.6995 13.5271 11.6087 13.4751C11.5345 13.4351 11.4643 13.4671 11.4643 13.5431C11.4643 13.6151 11.5345 13.6471 11.6706 13.6391C11.7696 13.6351 11.7737 13.7071 11.6788 13.8111L11.6087 13.8911L11.6623 13.9671C11.7448 14.0791 11.7366 14.2671 11.65 14.3631L11.5798 14.4351L11.5345 14.3751C11.4685 14.2951 11.3818 14.2991 11.3571 14.3871C11.3447 14.4431 11.3571 14.4671 11.4313 14.5311C11.4808 14.5711 11.5551 14.6031 11.5922 14.6031C11.6871 14.6031 11.683 14.6791 11.584 14.7511L11.5015 14.8111L11.6252 14.8271C11.6912 14.8391 11.749 14.8551 11.749 14.8671C11.749 14.9191 11.8315 15.0751 11.8562 15.0751C11.8727 15.0751 11.9057 15.0471 11.9305 15.0151V15.0191Z" fill="#FFB700"/>
<path d="M13.5062 14.3556C13.6175 14.3156 13.8568 14.1156 13.8568 14.0716C13.8568 14.0556 13.7908 13.9836 13.7083 13.9116C13.5433 13.7676 13.3577 13.5156 13.3082 13.3716C13.2834 13.2916 13.1638 13.1636 12.8255 12.8436L12.3759 12.4236L12.248 12.4556C12.1738 12.4716 12.0872 12.4876 12.0542 12.4876C11.9923 12.4876 11.9923 12.4876 12.0748 12.5516L12.1573 12.6156L12.281 12.5516C12.3924 12.4876 12.3965 12.4876 12.4089 12.5396C12.4172 12.5676 12.4007 12.6196 12.3677 12.6556C12.3388 12.6916 12.3223 12.7356 12.3264 12.7476C12.3388 12.7596 12.3099 12.7876 12.2645 12.8116C12.182 12.8516 12.1202 12.9836 12.1862 12.9836C12.248 12.9836 12.38 12.8236 12.3635 12.7716C12.3553 12.7436 12.3635 12.7156 12.3718 12.7076C12.4254 12.6796 12.4213 12.8036 12.3718 12.8676C12.3388 12.8996 12.3223 12.9396 12.3305 12.9556C12.3388 12.9676 12.3099 12.9956 12.2645 13.0196C12.182 13.0596 12.1202 13.1916 12.1862 13.1916C12.2522 13.1916 12.38 13.0396 12.3677 12.9836C12.3594 12.9556 12.3594 12.9236 12.3718 12.9156C12.4089 12.8996 12.4254 12.9956 12.3965 13.0436C12.389 13.0571 12.385 13.0722 12.385 13.0876C12.385 13.103 12.389 13.1181 12.3965 13.1316C12.4254 13.1836 12.3965 13.2796 12.3429 13.3116C12.3223 13.3236 12.3347 13.3516 12.3924 13.3916C12.4749 13.4476 12.4749 13.4556 12.4749 13.7116C12.4749 13.9276 12.4832 13.9836 12.5244 14.0196C12.5657 14.0596 12.5739 14.0596 12.5739 14.0196C12.5739 13.9796 12.6564 13.9236 12.7183 13.9236C12.7389 13.9236 12.8585 14.0236 12.9864 14.1436C13.1143 14.2636 13.2504 14.3716 13.2875 14.3756L13.3783 14.3916C13.3907 14.3916 13.4484 14.3796 13.5062 14.3516V14.3556ZM12.1325 13.3116C12.1325 13.2436 11.984 13.1676 11.8067 13.1516C11.6623 13.1316 11.6623 13.1356 11.6623 13.2036C11.6623 13.2596 11.6829 13.2836 11.786 13.3236C11.9428 13.3916 12.1325 13.3836 12.1325 13.3116Z" fill="#FFB700"/>
<path d="M12.2935 13.3035C12.3677 13.2395 12.4007 13.1675 12.3553 13.1675C12.3058 13.1675 12.1738 13.2795 12.1738 13.3275C12.1738 13.3915 12.1986 13.3875 12.2976 13.3035H12.2935ZM12.1408 13.0995C12.145 13.0595 12.1202 13.0355 12.046 12.9995C11.881 12.9315 11.6912 12.8955 11.6458 12.9315C11.5592 12.9995 11.617 13.0875 11.7531 13.1035C11.8108 13.1075 11.8851 13.1235 11.9222 13.1395C12.0295 13.1795 12.1285 13.1595 12.1408 13.0995ZM12.1408 12.8875C12.1491 12.8355 12.112 12.8155 11.8108 12.7115C11.584 12.6315 11.485 12.6715 11.5592 12.8035C11.584 12.8475 11.6252 12.8675 11.7201 12.8835C11.7902 12.8915 11.8851 12.9115 11.9305 12.9275C12.0542 12.9675 12.1285 12.9515 12.1367 12.8875H12.1408ZM12.2893 12.6915C12.3347 12.6475 12.3718 12.5955 12.3718 12.5715C12.3718 12.5115 12.1945 12.6235 12.1697 12.7035C12.145 12.7955 12.1903 12.7915 12.2935 12.6915H12.2893ZM12.1408 12.6795C12.1491 12.6155 12.0418 12.5595 11.8273 12.5155C11.6665 12.4795 11.5963 12.4995 11.6087 12.5715C11.617 12.6115 11.6706 12.6395 11.815 12.6835C12.0583 12.7555 12.1285 12.7555 12.1408 12.6795ZM12.3471 12.3835C12.6276 12.2635 12.6482 11.9635 12.3883 11.8835C12.2811 11.8515 12.2151 11.8715 12.1738 11.9395C12.1408 11.9955 12.1615 12.0915 12.2027 12.0915C12.2192 12.0915 12.2316 12.1115 12.2316 12.1315C12.2316 12.2395 11.8108 12.2835 11.6376 12.1995C11.5757 12.1715 11.5551 12.0915 11.6005 12.0915C11.6417 12.0915 11.6665 12.0115 11.6458 11.9595C11.6211 11.8795 11.5386 11.8555 11.4272 11.8875C11.1673 11.9515 11.1756 12.2475 11.4396 12.3675C11.7317 12.4715 12.0513 12.4771 12.3471 12.3835Z" fill="#FFB700"/>
<path d="M12.179 12.1516C12.1955 12.1356 12.1872 12.1116 12.1625 12.0956C12.1047 12.0516 12.1088 11.9836 12.1707 11.9076C12.2202 11.8516 12.2243 11.7636 12.2408 10.9036C12.2697 9.41961 12.3852 8.30361 12.5337 8.03161C12.5956 7.92761 12.5873 7.92761 12.4306 8.03161C12.2249 8.17056 12.0589 8.35769 11.948 8.57561C11.6922 9.03561 11.6056 9.65561 11.6056 10.9836C11.6056 11.7356 11.6097 11.8356 11.6551 11.9036C11.6963 11.9756 11.6963 11.9996 11.6716 12.0716C11.651 12.1156 11.6427 12.1636 11.651 12.1716C11.7087 12.2236 12.1212 12.2116 12.179 12.1516ZM14.4931 10.7356C14.5055 10.7236 14.4848 10.6556 14.4518 10.5916C14.4023 10.4876 14.3817 10.4716 14.3116 10.4716C13.9818 10.4438 13.6601 10.357 13.3628 10.2156C13.1525 10.1236 13.0741 10.1036 13.0535 10.1276C12.9875 10.1876 13.0947 10.3276 13.2597 10.4036C13.5025 10.4885 13.7569 10.5383 14.0146 10.5516C14.126 10.5516 14.1301 10.5516 14.0641 10.6436L14.0228 10.7076H14.1466L14.3528 10.7316C14.4766 10.7596 14.4766 10.7596 14.4931 10.7356Z" fill="#FFB700"/>
<path d="M15.796 11.4034C15.796 11.3634 15.6763 11.2634 15.5608 11.1954C15.466 11.1434 15.4495 11.1394 15.4495 11.1834C15.4495 11.2474 15.3917 11.4114 15.367 11.4114C15.3546 11.4114 15.334 11.3794 15.3257 11.3434C15.3133 11.3034 15.268 11.2234 15.2226 11.1714L15.1401 11.0714L15.0823 11.1634C15.0246 11.2514 14.9215 11.3354 14.8761 11.3354C14.8678 11.3354 14.8637 11.2874 14.8761 11.2354C14.8802 11.1714 14.8761 11.1234 14.8555 11.1154C14.839 11.1034 14.8225 11.1074 14.8225 11.1234C14.8225 11.1554 14.6822 11.3074 14.6575 11.3074C14.641 11.3074 14.6245 11.2674 14.6162 11.2114L14.5832 11.0194C14.575 10.9714 14.5956 11.0034 14.6245 11.0994L14.6905 11.2634L14.7565 11.1634C14.7863 11.1221 14.8087 11.0761 14.8225 11.0274C14.8225 11.0074 14.8348 10.9994 14.8513 11.0074C14.8678 11.0154 14.8885 11.0834 14.8967 11.1554L14.9173 11.2914L14.9916 11.2114C15.0304 11.1713 15.0663 11.1286 15.0988 11.0834C15.1277 11.0354 15.1318 11.0354 15.1937 11.0834C15.2267 11.1154 15.2803 11.1834 15.3133 11.2394C15.3463 11.2954 15.3752 11.3354 15.3793 11.3314L15.4041 11.2034L15.4206 11.0834C15.4247 11.0634 15.6433 11.2034 15.7258 11.2714C15.7753 11.3154 15.8248 11.3474 15.8331 11.3394C15.8413 11.3314 15.8496 11.2674 15.8496 11.1914C15.8496 11.0794 15.8372 11.0474 15.7671 10.9874C15.6846 10.9154 15.6846 10.9154 15.6516 10.9674C15.6103 11.0354 15.565 11.0354 15.565 10.9674C15.565 10.9194 15.4082 10.7314 15.3711 10.7314C15.3587 10.7314 15.3257 10.7714 15.2968 10.8234C15.268 10.8754 15.235 10.9154 15.2267 10.9154C15.1855 10.9154 14.9668 10.6754 14.9668 10.6354C14.9668 10.6034 14.9833 10.6114 15.0205 10.6674C15.0573 10.72 15.1002 10.7683 15.1483 10.8114C15.2308 10.8834 15.2638 10.8674 15.2968 10.7274C15.3092 10.6874 15.3257 10.6554 15.3381 10.6554C15.3711 10.6554 15.5608 10.8514 15.5856 10.9154L15.6145 10.9794L15.6351 10.9074C15.6598 10.8194 15.6887 10.8194 15.73 10.8994C15.7465 10.9314 15.829 11.0034 15.9115 11.0514L16.0641 11.1474L16.093 11.0514C16.1095 10.9994 16.1342 10.9714 16.1425 10.9874C16.159 11.0074 16.1177 11.1674 16.0888 11.1994C16.0888 11.2034 16.0352 11.1754 15.9816 11.1394L15.8785 11.0674V11.1954C15.8785 11.2634 15.8702 11.3474 15.862 11.3794C15.8413 11.4434 15.7918 11.4594 15.7918 11.4034H15.796ZM15.0328 10.3874C14.8513 10.2434 14.8266 10.2114 14.8266 10.1394L14.8307 10.0674L14.8431 10.1354C14.8513 10.1754 14.9008 10.2394 14.9586 10.2874L15.0658 10.3674L15.1277 10.2954C15.1648 10.2554 15.1937 10.2074 15.1937 10.1914C15.1937 10.1434 15.202 10.1474 15.3257 10.2514C15.433 10.3434 15.4371 10.3434 15.4495 10.2834C15.4618 10.2514 15.4577 10.1874 15.4495 10.1434C15.4082 10.0234 15.4165 10.0074 15.4701 10.0794L15.5691 10.1914C15.6103 10.2354 15.6145 10.2354 15.631 10.1794C15.6433 10.1434 15.6516 10.0834 15.6516 10.0434V9.96743L15.7465 10.0754C15.8413 10.1794 15.8496 10.1834 15.8743 10.1314C15.895 10.1034 15.9073 10.0354 15.9073 9.98343C15.9073 9.91143 15.9156 9.89543 15.9321 9.91943C15.9651 9.96743 15.9445 10.0874 15.8867 10.1914L15.8455 10.2714L15.7918 10.1874C15.7217 10.0834 15.697 10.0834 15.6557 10.1954C15.6145 10.3034 15.5856 10.3114 15.5443 10.2274C15.5196 10.1754 15.5113 10.1834 15.4948 10.2954L15.4742 10.4154L15.3505 10.3234L15.2267 10.2314L15.1648 10.2914C15.136 10.3274 15.1112 10.3714 15.1112 10.3874C15.1112 10.4274 15.0782 10.4274 15.0328 10.3874ZM16.6416 9.84343C16.5797 9.78743 16.5343 9.73143 16.5426 9.72343C16.555 9.71143 16.5632 9.70743 16.5673 9.71543C16.6073 9.75671 16.6486 9.79671 16.6911 9.83543C16.8313 9.97943 16.8025 9.98343 16.6457 9.84343H16.6416ZM14.4966 9.62743C14.4388 9.54743 14.443 9.49943 14.5172 9.41143C14.5667 9.35143 14.5915 9.34343 14.6822 9.35543C14.7441 9.35943 14.872 9.41143 14.9668 9.46743C15.104 9.54689 15.2609 9.58836 15.4206 9.58743L15.3505 9.47543C15.2597 9.34343 15.2597 9.32743 15.367 9.40743C15.4742 9.49143 15.6021 9.51543 15.8908 9.50743L16.0311 9.50343L15.9486 9.42343C15.8372 9.31543 15.8702 9.30343 15.9981 9.41143C16.1136 9.51143 16.1095 9.51943 15.8578 9.54343C15.7529 9.5537 15.647 9.54695 15.5443 9.52343C15.4041 9.48343 15.3958 9.48743 15.4247 9.53143C15.4412 9.55943 15.466 9.57943 15.4783 9.57943C15.4948 9.57943 15.5072 9.59543 15.5072 9.61143C15.5072 9.66343 15.202 9.61543 15.0535 9.54743C14.7235 9.38343 14.6822 9.36743 14.5997 9.39143C14.5777 9.39966 14.5577 9.41201 14.5407 9.42778C14.5237 9.44359 14.5101 9.4625 14.5007 9.48343C14.4471 9.61543 14.641 9.71943 14.7193 9.60343C14.7441 9.56743 14.74 9.54743 14.6987 9.50343C14.641 9.44743 14.6492 9.43943 14.7235 9.46343C14.7771 9.48343 14.7812 9.60743 14.7317 9.65543C14.6781 9.70743 14.5461 9.69543 14.4966 9.62743Z" fill="black"/>
<path d="M15.8134 9.30317C15.7722 9.26317 15.8052 9.25517 15.9908 9.25117C16.2218 9.24717 16.362 9.21117 16.527 9.10717C16.659 9.02717 16.6962 9.04317 16.5683 9.12717C16.4569 9.20717 16.2795 9.26317 16.1022 9.27917L15.8918 9.30717C15.8588 9.31517 15.8217 9.31117 15.8093 9.30317H15.8134Z" fill="black"/>
</g>
<defs>
<clipPath id="clip0_69_11998">
<rect width="24" height="24" rx="12" fill="white"/>
</clipPath>
</defs>
</svg>
