<svg width="24" height="24" viewBox="0 0 24 24" fill="none" xmlns="http://www.w3.org/2000/svg">
<g clip-path="url(#clip0_69_8323)">
<g clip-path="url(#clip1_69_8323)">
<mask id="mask0_69_8323" style="mask-type:luminance" maskUnits="userSpaceOnUse" x="0" y="0" width="32" height="24">
<path d="M32 0H0V24H32V0Z" fill="white"/>
</mask>
<g mask="url(#mask0_69_8323)">
<mask id="mask1_69_8323" style="mask-type:luminance" maskUnits="userSpaceOnUse" x="0" y="0" width="33" height="24">
<path d="M0 0H32.0016V24H0V0Z" fill="white"/>
</mask>
<g mask="url(#mask1_69_8323)">
<path fill-rule="evenodd" clip-rule="evenodd" d="M0 0H35.9953V24H0V0Z" fill="white"/>
<path fill-rule="evenodd" clip-rule="evenodd" d="M0 0H10.9078V10.9125H0V0Z" fill="#000066"/>
<path fill-rule="evenodd" clip-rule="evenodd" d="M0 21.7922H35.9953V24H0V21.7922Z" fill="#CC0000"/>
<path fill-rule="evenodd" clip-rule="evenodd" d="M0 21.8156H35.9953V24H0V21.8156ZM0 17.4609H35.9953V19.6266H0V17.4609ZM0 13.0922H35.9062V15.2812H0V13.0922ZM10.9078 0H35.9906V2.17969H10.9078V0ZM10.9078 8.71876H35.9906V10.9125H10.9078V8.71876ZM10.9078 4.37344H35.9906V6.55312H10.9078V4.37344Z" fill="#CC0000"/>
<path fill-rule="evenodd" clip-rule="evenodd" d="M7.79532 8.32037L5.41876 6.86725L3.05625 8.33441L3.93281 5.94849L1.575 4.47661L4.49532 4.45785L5.4 2.0813L6.32812 4.45317H9.24844L6.9 5.93913L7.79532 8.32037Z" fill="white"/>
</g>
</g>
</g>
</g>
<defs>
<clipPath id="clip0_69_8323">
<rect width="24" height="24" rx="12" fill="white"/>
</clipPath>
<clipPath id="clip1_69_8323">
<rect width="32" height="24" fill="white"/>
</clipPath>
</defs>
</svg>
