<svg width="24" height="24" viewBox="0 0 24 24" fill="none" xmlns="http://www.w3.org/2000/svg">
<g clip-path="url(#clip0_69_8311)">
<g clip-path="url(#clip1_69_8311)">
<mask id="mask0_69_8311" style="mask-type:luminance" maskUnits="userSpaceOnUse" x="-4" y="0" width="32" height="24">
<path d="M28 0H-4V24H28V0Z" fill="white"/>
</mask>
<g mask="url(#mask0_69_8311)">
<path d="M-4 0H28V24H-4V0Z" fill="white"/>
<path d="M-4 16.8H28V24H-4V16.8Z" fill="#009543"/>
<path d="M-4 0H28V7.2H-4V0Z" fill="#00209F"/>
<path d="M11.9797 7.65039C11.8447 7.65039 11.7097 7.80039 11.7097 7.80039L11.7247 9.42039L11.2097 9.95539H11.6247V10.8804L9.17468 14.1804L8.81468 14.0504L8.17968 15.4004C8.17968 15.4004 9.74468 16.3804 12.0147 16.3504C14.5047 16.3254 15.8597 15.3554 15.8597 15.3554L15.2097 14.0254L14.8847 14.1654L12.4047 10.8854V9.93039H12.8147L12.2547 9.40039V7.79039C12.2547 7.79039 12.1197 7.64039 11.9797 7.64539V7.65039Z" fill="black" stroke="black" stroke-width="0.2"/>
<path d="M12.8357 11.5196H11.1407C11.1407 11.5196 10.5307 10.2246 10.6257 9.31963C10.7257 8.39963 11.2557 7.96464 11.9557 7.95464C12.7857 7.94964 13.2157 8.35963 13.3457 9.28463C13.4757 10.1996 12.8357 11.5196 12.8357 11.5196Z" stroke="black"/>
<path d="M9.02564 14.6052C8.99564 14.6402 8.79064 15.0502 8.79064 15.0502L9.14064 14.9752L9.02564 14.6052ZM9.22564 15.1302L8.85564 15.2502L9.30064 15.4252L9.22564 15.1302ZM9.39064 14.6152L9.57564 15.1602L10.0256 15.0302L9.91064 14.7702L9.39064 14.6152ZM9.68064 15.3552L9.74064 15.5752L10.3406 15.7252L10.1006 15.2152L9.68064 15.3552ZM10.3406 14.8902L10.5556 15.4002L11.0056 15.2252L10.8556 15.0002L10.3406 14.8902ZM10.6406 15.5852L10.7106 15.7752L11.4106 15.8752L11.1156 15.4152L10.6356 15.5852H10.6406ZM11.3106 15.0352L11.5706 15.4902L12.2206 15.2502L12.1506 15.0752L11.3106 15.0402V15.0352ZM11.6906 15.6552L11.8256 15.8952L12.6356 15.8702L12.3356 15.4202L11.6856 15.6552H11.6906ZM12.5456 15.0552L12.7656 15.4352L13.2856 15.1852L13.1456 14.9852L12.5456 15.0552ZM13.3956 15.3452L12.8806 15.6002L13.0156 15.8252L13.7056 15.7152L13.3956 15.3452ZM13.5606 14.9452L13.8256 15.2802L14.2606 14.9352L14.1106 14.7852L13.5606 14.9452ZM14.3556 15.1202L13.9406 15.4352L14.0506 15.6302L14.6206 15.4802L14.3556 15.1202ZM14.9256 14.4702L15.0256 14.6152L14.7406 15.0402L14.4456 14.6602L14.9256 14.4702ZM15.1206 14.8352L15.2956 15.1852L14.9456 15.3052L14.9156 15.1402L15.1156 14.8402L15.1206 14.8352Z" fill="white"/>
</g>
</g>
</g>
<defs>
<clipPath id="clip0_69_8311">
<rect width="24" height="24" rx="12" fill="white"/>
</clipPath>
<clipPath id="clip1_69_8311">
<rect width="32" height="24" fill="white" transform="translate(-4)"/>
</clipPath>
</defs>
</svg>
