<svg width="24" height="24" viewBox="0 0 24 24" fill="none" xmlns="http://www.w3.org/2000/svg">
<g clip-path="url(#clip0_69_8338)">
<g clip-path="url(#clip1_69_8338)">
<mask id="mask0_69_8338" style="mask-type:luminance" maskUnits="userSpaceOnUse" x="-4" y="0" width="32" height="24">
<path d="M28 0H-4V24H28V0Z" fill="white"/>
</mask>
<g mask="url(#mask0_69_8338)">
<mask id="mask1_69_8338" style="mask-type:luminance" maskUnits="userSpaceOnUse" x="-4" y="0" width="32" height="24">
<path d="M-3.99844 0H27.9984V24H-3.99844V0Z" fill="white"/>
</mask>
<g mask="url(#mask1_69_8338)">
<path d="M-12 0H36V24H-12V0Z" fill="#239E46"/>
<path d="M-12 0H36V18H-12V0Z" fill="black"/>
<path d="M-12 0H36V6H-12V0Z" fill="#E70013"/>
<path d="M14.121 9.8784C13.7313 9.60028 13.2725 9.43488 12.795 9.4004C12.3174 9.36588 11.8396 9.46356 11.4139 9.68276C10.9882 9.90192 10.6312 10.2341 10.3818 10.6429C10.1326 11.0517 10.0007 11.5212 10.0007 12C10.0007 12.4788 10.1326 12.9483 10.3818 13.3571C10.6312 13.7659 10.9882 14.0981 11.4139 14.3172C11.8396 14.5364 12.3174 14.6341 12.795 14.5996C13.2725 14.5651 13.7313 14.3997 14.121 14.1216C13.7014 14.5411 13.1669 14.8267 12.585 14.9424C12.003 15.0581 11.3999 14.9986 10.8518 14.7716C10.3036 14.5445 9.83516 14.16 9.50552 13.6666C9.17592 13.1733 9 12.5933 9 12C9 11.4067 9.17592 10.8267 9.50552 10.3334C9.83516 9.84004 10.3036 9.45552 10.8518 9.22844C11.3999 9.00136 12.003 8.94188 12.585 9.0576C13.1669 9.17328 13.7014 9.45892 14.121 9.8784ZM13.4586 12L17.4954 10.6896L14.9994 14.1216V9.8784L17.4954 13.3104L13.4586 12Z" fill="white"/>
</g>
</g>
</g>
</g>
<defs>
<clipPath id="clip0_69_8338">
<rect width="24" height="24" rx="12" fill="white"/>
</clipPath>
<clipPath id="clip1_69_8338">
<rect width="32" height="24" fill="white" transform="translate(-4)"/>
</clipPath>
</defs>
</svg>
