<svg width="24" height="24" viewBox="0 0 24 24" fill="none" xmlns="http://www.w3.org/2000/svg">
<g clip-path="url(#clip0_69_8969)">
<g clip-path="url(#clip1_69_8969)">
<mask id="mask0_69_8969" style="mask-type:luminance" maskUnits="userSpaceOnUse" x="-4" y="0" width="32" height="24">
<path d="M28 0H-4V24H28V0Z" fill="white"/>
</mask>
<g mask="url(#mask0_69_8969)">
<path fill-rule="evenodd" clip-rule="evenodd" d="M-4 0H6.665V24H-4V0Z" fill="#00319C"/>
<path fill-rule="evenodd" clip-rule="evenodd" d="M6.66565 0H17.3356V24H6.66565V0Z" fill="#FFDE00"/>
<path fill-rule="evenodd" clip-rule="evenodd" d="M17.3344 0H27.9994V24H17.3344V0Z" fill="#DE2110"/>
<path fill-rule="evenodd" clip-rule="evenodd" d="M14.0203 16.0203L15.2303 17.7703C15.3003 17.8703 15.3653 17.9653 15.2653 18.0303C15.1653 18.0953 15.1953 18.3503 15.2653 18.4503C15.4003 18.6453 15.5653 18.6753 15.6653 18.6103L16.5853 18.0303C16.6853 17.9703 16.7203 17.8053 16.5853 17.6103C16.5103 17.5103 16.2853 17.3853 16.1853 17.4503C16.0803 17.5153 16.0103 17.4153 15.9453 17.3203L14.7303 15.5703" fill="#FF1900"/>
<path d="M14.0203 16.0203L15.2303 17.7703C15.3003 17.8703 15.3653 17.9653 15.2653 18.0303C15.1653 18.0953 15.1953 18.3503 15.2653 18.4503C15.4003 18.6453 15.5653 18.6753 15.6653 18.6103L16.5853 18.0303C16.6853 17.9703 16.7203 17.8053 16.5853 17.6103C16.5103 17.5103 16.2853 17.3853 16.1853 17.4503C16.0803 17.5153 16.0103 17.4153 15.9453 17.3203L14.7303 15.5703" stroke="black" stroke-width="0.0875"/>
<path fill-rule="evenodd" clip-rule="evenodd" d="M14.4947 14.7867C15.0359 15.4014 15.2241 16.1062 14.9157 16.3541C14.6072 16.6021 13.9128 16.3042 13.3716 15.6895C12.8305 15.0748 12.6448 14.3679 12.9533 14.1199C13.2617 13.872 13.954 14.1673 14.4973 14.7846L14.4947 14.7867Z" fill="#A77B3B" stroke="black" stroke-width="0.210595"/>
<path fill-rule="evenodd" clip-rule="evenodd" d="M9.10035 15.3047L8.02535 17.1397C7.96535 17.2397 7.90535 17.3397 7.80035 17.2897C7.69535 17.2297 7.47035 17.3747 7.41035 17.4797C7.29035 17.6797 7.33535 17.8397 7.44535 17.8997L8.40535 18.4097C8.50535 18.4647 8.67535 18.4197 8.79535 18.2197C8.85035 18.1097 8.86535 17.8547 8.76035 17.7997C8.65535 17.7447 8.71035 17.6397 8.77535 17.5397L9.84535 15.7047" fill="#FF1900"/>
<path d="M9.10035 15.3047L8.02535 17.1397C7.96535 17.2397 7.90535 17.3397 7.80035 17.2897C7.69535 17.2297 7.47035 17.3747 7.41035 17.4797C7.29035 17.6797 7.33535 17.8397 7.44535 17.8997L8.40535 18.4097C8.50535 18.4647 8.67535 18.4197 8.79535 18.2197C8.85035 18.1097 8.86535 17.8547 8.76035 17.7997C8.65535 17.7447 8.71035 17.6397 8.77535 17.5397L9.84535 15.7047" stroke="black" stroke-width="0.0875"/>
<path fill-rule="evenodd" clip-rule="evenodd" d="M12.5597 14.0293H11.5797C11.5497 14.0593 11.2697 15.8093 10.9697 16.4793C10.6047 17.2943 9.50966 18.0143 9.50966 18.0143C9.50966 18.0143 10.1647 18.2143 10.3597 18.3443C10.4097 18.3293 11.4597 18.1093 11.5797 16.8293C11.6997 18.1093 10.8497 18.6943 10.8497 18.6943C10.8497 18.6943 12.0697 19.0443 12.0697 19.8593C12.0697 19.0443 13.2897 18.6943 13.2897 18.6943C13.2897 18.6943 12.6797 18.1093 12.5547 16.8293C12.8047 18.1093 13.7297 18.3293 13.7797 18.3443C13.9747 18.2143 14.6297 18.0143 14.6297 18.0143C14.6297 18.0143 13.5347 17.2943 13.1697 16.4793C12.8697 15.8093 12.5897 14.0593 12.5597 14.0293ZM8.40966 8.19433L10.2397 8.77933C10.8447 8.77933 11.4597 8.19433 11.4597 7.60933C11.4797 6.30933 10.9697 5.85933 10.8497 5.85933L11.0897 5.62933L10.7247 5.27933C10.7247 5.27933 10.8497 4.67433 12.0697 4.69433C13.2897 4.71933 13.2897 5.27933 13.2897 5.85933C13.2897 6.43933 12.6797 6.44433 12.6797 7.60933C12.6797 8.19433 13.2897 8.77933 13.8997 8.77933L15.7297 8.19433V14.0293H8.40466V8.19433H8.40966Z" fill="#A77B3B" stroke="black" stroke-width="0.2125"/>
<path d="M11.2141 8.42822L11.3357 8.77902L11.4583 8.42822L11.58 8.77902L11.8242 8.42822L11.9435 8.79774L12.0685 8.42822L12.2485 8.79774L12.4344 8.42822L12.5561 8.77902L12.6787 8.42822" stroke="black" stroke-width="0.0174531"/>
<path d="M11.704 7.14697L11.4594 8.43089M11.8246 7.14697V8.43089M12.0692 7.14697V8.43089M12.3138 7.14697L12.4344 8.43089M12.5584 7.14697L12.679 8.43089" stroke="black" stroke-width="0.0168392"/>
<path fill-rule="evenodd" clip-rule="evenodd" d="M7.18381 4.69849C5.96417 5.28121 5.96417 6.44993 5.96417 7.03261C6.00553 7.56265 5.96417 18.6967 5.96417 18.6967C5.96417 18.6967 6.04341 18.0383 6.57397 17.5313L7.18037 16.9486L7.79017 16.3658C8.23805 15.9774 8.39997 15.1972 8.39997 14.6144V6.44993C8.39997 6.44993 8.39997 5.86389 7.18037 4.69849H7.18381Z" fill="#A77B3B" stroke="black" stroke-width="0.210489"/>
<path d="M8.40311 7.03267C8.38935 7.03267 7.79331 6.44995 7.79331 6.44995L7.18351 7.03267L6.57367 6.44995L5.96387 7.03267" stroke="black" stroke-width="0.210489"/>
<path d="M8.40311 7.61426C8.38935 7.61426 7.79331 8.19698 7.79331 8.19698L7.18351 7.61426L6.57367 8.19698L5.96387 7.61426" stroke="black" stroke-width="0.210489"/>
<path d="M8.40311 9.36251C8.38935 9.36251 7.79331 8.77979 7.79331 8.77979L7.18351 9.36251L6.57367 8.77979L5.96387 9.36251" stroke="black" stroke-width="0.210489"/>
<path d="M7.78687 6.44849L7.79375 16.3664" stroke="black" stroke-width="0.289918"/>
<path d="M7.18689 7.03125L7.19377 16.925" stroke="black" stroke-width="0.274663"/>
<path d="M6.57593 6.45166L6.58281 17.535" stroke="black" stroke-width="0.290705"/>
<path fill-rule="evenodd" clip-rule="evenodd" d="M16.9521 4.69849C18.1717 5.28121 18.1717 6.44993 18.1717 7.03261C18.1304 7.56265 18.1717 18.6967 18.1717 18.6967C18.1717 18.6967 18.0925 18.0383 17.5619 17.5313L16.9555 16.9486L16.3457 16.3658C15.8979 15.9774 15.7359 15.1972 15.7359 14.6144V6.44993C15.7359 6.44993 15.7359 5.86389 16.9555 4.69849H16.9521Z" fill="#A77B3B" stroke="black" stroke-width="0.210489"/>
<path d="M15.7328 7.03267C15.7466 7.03267 16.3426 6.44995 16.3426 6.44995L16.9524 7.03267L17.5622 6.44995L18.172 7.03267" stroke="black" stroke-width="0.210489"/>
<path d="M15.7328 7.61426C15.7466 7.61426 16.3426 8.19698 16.3426 8.19698L16.9524 7.61426L17.5622 8.19698L18.172 7.61426" stroke="black" stroke-width="0.210489"/>
<path d="M15.7328 9.36251C15.7466 9.36251 16.3426 8.77979 16.3426 8.77979L16.9524 9.36251L17.5622 8.77979L18.172 9.36251" stroke="black" stroke-width="0.210489"/>
<path d="M16.3491 6.44849L16.3422 16.3664" stroke="black" stroke-width="0.289918"/>
<path d="M16.9538 7.03125L16.9469 16.925" stroke="black" stroke-width="0.274663"/>
<path d="M17.5647 6.45166L17.5578 17.535" stroke="black" stroke-width="0.290705"/>
<path fill-rule="evenodd" clip-rule="evenodd" d="M10.4631 15.1434C10.1397 15.8849 9.57074 16.3681 9.19866 16.2199C8.82654 16.0718 8.78493 15.3455 9.10825 14.604C9.43157 13.8625 10.0038 13.3806 10.3759 13.5287C10.7479 13.6769 10.7909 14.4001 10.4663 15.1446L10.4631 15.1434Z" fill="#A77B3B" stroke="black" stroke-width="0.210544"/>
<path fill-rule="evenodd" clip-rule="evenodd" d="M8.40466 8.77979H15.7297V12.2798H8.40466V8.77979Z" fill="#FF0000"/>
<path fill-rule="evenodd" clip-rule="evenodd" d="M8.40502 12.2798H15.73V14.0298C15.73 15.1948 13.9 15.1948 12.07 16.3598C10.235 15.1998 8.40002 15.1998 8.40002 14.0298V12.2798H8.40502Z" fill="#564DFF"/>
<path d="M8.40625 8.77979H15.7308V14.0341C15.7308 15.1995 13.9014 15.1995 12.0686 16.3682C10.2391 15.1995 8.40625 15.1995 8.40625 14.0308V8.78307V8.77979Z" stroke="#FFFF00" stroke-width="0.168392"/>
<path fill-rule="evenodd" clip-rule="evenodd" d="M10.725 9.01245C10.725 9.01245 9.5047 9.87041 9.5047 10.6913C9.5047 11.5121 10.7853 11.7873 10.7853 11.7873C10.7853 11.7873 10.3585 11.7873 10.3585 12.8817C10.3585 13.4305 11.6391 13.1569 11.6391 13.4305C11.6391 13.7041 11.6222 14.3657 11.6391 14.8001C11.6391 15.0737 10.7853 14.8001 10.7853 15.0737C10.7853 15.2098 11.4268 15.8946 12.0683 15.8946C12.7099 15.8946 13.3489 15.2098 13.3489 15.0737C13.3489 14.8001 12.4952 15.0737 12.4952 14.8001V13.4305C12.4952 13.1569 13.7758 13.4305 13.7758 12.8817C13.7758 11.7873 13.3489 11.7873 13.3489 11.7873C13.3489 11.7873 14.632 11.5137 14.632 10.6913C14.632 9.86889 13.4093 9.01245 13.4093 9.01245C13.4093 9.01245 14.0966 10.1441 14.0966 10.6913C14.0966 10.9649 13.7758 11.5137 12.9221 11.5137C12.9221 11.5137 12.705 11.2385 12.4952 11.5137C12.4952 11.5137 12.2492 11.2385 12.0683 11.5137C12.0057 11.6064 11.8947 11.2385 11.6391 11.5137C11.5329 11.5863 11.4461 11.2385 11.2122 11.5137C10.7853 11.5137 9.93158 11.2385 9.93158 10.6913C9.93158 10.1441 10.725 9.01245 10.725 9.01245Z" fill="#FFFF00" stroke="black" stroke-width="0.120677"/>
<path fill-rule="evenodd" clip-rule="evenodd" d="M10.7499 13.9134C10.663 13.969 10.8608 14.861 10.9187 14.8996C11.0055 14.9537 11.5192 14.9537 11.6036 14.8996C11.6639 14.861 11.6036 14.0231 11.5192 13.969C11.4324 13.9134 10.8101 13.8763 10.7475 13.9134H10.7499Z" fill="#FFFF00" stroke="black" stroke-width="0.120677"/>
<path fill-rule="evenodd" clip-rule="evenodd" d="M13.3908 13.9134C13.4776 13.969 13.2798 14.861 13.222 14.8996C13.1352 14.9537 12.6214 14.9537 12.537 14.8996C12.4768 14.861 12.537 14.0231 12.6214 13.969C12.7083 13.9134 13.3305 13.8763 13.3932 13.9134H13.3908Z" fill="#FFFF00" stroke="black" stroke-width="0.120677"/>
<path fill-rule="evenodd" clip-rule="evenodd" d="M11.6277 13.5881C11.6277 13.6699 11.5809 13.7483 11.4978 13.8061C11.4146 13.864 11.3018 13.8965 11.1842 13.8965C11.0665 13.8965 10.9537 13.864 10.8705 13.8061C10.7874 13.7483 10.7407 13.6699 10.7407 13.5881C10.7407 13.5063 10.7874 13.4279 10.8705 13.3701C10.9537 13.3123 11.0665 13.2798 11.1842 13.2798C11.3018 13.2798 11.4146 13.3123 11.4978 13.3701C11.5809 13.4279 11.6277 13.5063 11.6277 13.5881Z" fill="#FFFF00" stroke="black" stroke-width="0.144454"/>
<path fill-rule="evenodd" clip-rule="evenodd" d="M13.3933 13.5881C13.3933 13.6699 13.3465 13.7483 13.2634 13.8062C13.1802 13.864 13.0674 13.8965 12.9497 13.8965C12.8321 13.8965 12.7193 13.864 12.6361 13.8062C12.5529 13.7483 12.5062 13.6699 12.5062 13.5881C12.5062 13.5063 12.5529 13.4279 12.6361 13.3701C12.7193 13.3123 12.8321 13.2798 12.9497 13.2798C13.0674 13.2798 13.1802 13.3123 13.2634 13.3701C13.3465 13.4279 13.3933 13.5063 13.3933 13.5881Z" fill="#FFFF00" stroke="black" stroke-width="0.144457"/>
<path fill-rule="evenodd" clip-rule="evenodd" d="M12.84 15.3757C12.84 15.4507 12.74 15.5107 12.625 15.5107C12.505 15.5107 12.41 15.4507 12.41 15.3757C12.41 15.3007 12.51 15.2407 12.625 15.2407C12.74 15.2407 12.84 15.3007 12.84 15.3757ZM11.725 15.3757C11.725 15.4507 11.63 15.5107 11.515 15.5107C11.395 15.5107 11.3 15.4507 11.3 15.3757C11.3 15.3007 11.395 15.2407 11.515 15.2407C11.63 15.2407 11.725 15.3007 11.725 15.3757Z" fill="black"/>
<path fill-rule="evenodd" clip-rule="evenodd" d="M12.0688 11.0007L11.8066 10.6698L11.3763 10.7244L11.4368 10.3133L11.0906 10.066L11.4368 9.81547L11.3763 9.40435L11.8066 9.46219L12.0688 9.13135L12.3309 9.46219L12.7578 9.40435L12.7007 9.81547L13.0435 10.066L12.7007 10.3165L12.7578 10.7244L12.3276 10.6698L12.0688 11.0007Z" fill="#FFFF00" stroke="black" stroke-width="0.0903568"/>
<path fill-rule="evenodd" clip-rule="evenodd" d="M13.8984 12.2801L14.6323 12.6324L15.3661 12.2801L14.6323 11.9312L13.9019 12.2801H13.8984Z" fill="#FFFF00" stroke="black" stroke-width="0.0926153"/>
<path fill-rule="evenodd" clip-rule="evenodd" d="M8.64844 12.2801L9.38228 12.6324L10.1161 12.2801L9.38228 11.9312L8.65188 12.2801H8.64844Z" fill="#FFFF00" stroke="black" stroke-width="0.0926153"/>
<path fill-rule="evenodd" clip-rule="evenodd" d="M15.0304 14.3678C14.8057 14.2253 14.4273 14.2963 14.2151 14.4127C14.003 14.5292 13.7909 14.6456 13.7624 15.0674C13.5187 14.662 13.7106 14.2872 14.0333 14.1101C14.2044 14.0297 14.4003 14.0118 14.5843 14.0598C14.7682 14.1078 14.9275 14.2183 15.0321 14.3706L15.0304 14.3678Z" fill="#FFFF00" stroke="black" stroke-width="0.0926513"/>
<path fill-rule="evenodd" clip-rule="evenodd" d="M9.9905 13.6806C9.9905 13.7421 9.9649 13.8012 9.91934 13.8447C9.87378 13.8882 9.81202 13.9127 9.74758 13.9127C9.68318 13.9127 9.62138 13.8882 9.57586 13.8447C9.5303 13.8012 9.5047 13.7421 9.5047 13.6806C9.5047 13.619 9.5303 13.56 9.57586 13.5164C9.62138 13.4729 9.68318 13.4485 9.74758 13.4485C9.81202 13.4485 9.87378 13.4729 9.91934 13.5164C9.9649 13.56 9.9905 13.619 9.9905 13.6806Z" fill="#FFFF00" stroke="black" stroke-width="0.0926153"/>
<path fill-rule="evenodd" clip-rule="evenodd" d="M9.74514 14.4946C9.74514 14.5561 9.71954 14.6152 9.67398 14.6587C9.62846 14.7022 9.56666 14.7267 9.50226 14.7267C9.43782 14.7267 9.37606 14.7022 9.3305 14.6587C9.28494 14.6152 9.25934 14.5561 9.25934 14.4946C9.25934 14.433 9.28494 14.374 9.3305 14.3305C9.37606 14.2869 9.43782 14.2625 9.50226 14.2625C9.56666 14.2625 9.62846 14.2869 9.67398 14.3305C9.71954 14.374 9.74514 14.433 9.74514 14.4946Z" fill="#FFFF00" stroke="black" stroke-width="0.0926153"/>
<path fill-rule="evenodd" clip-rule="evenodd" d="M9.62486 14.0304C9.62486 14.092 9.59926 14.151 9.55374 14.1945C9.50818 14.2381 9.44638 14.2625 9.38198 14.2625C9.31754 14.2625 9.25578 14.2381 9.21022 14.1945C9.16466 14.151 9.1391 14.092 9.1391 14.0304C9.1391 13.9689 9.16466 13.9099 9.21022 13.8663C9.25578 13.8228 9.31754 13.7983 9.38198 13.7983C9.44638 13.7983 9.50818 13.8228 9.55374 13.8663C9.59926 13.9099 9.62486 13.9689 9.62486 14.0304Z" fill="#FFFF00" stroke="black" stroke-width="0.0926153"/>
<path fill-rule="evenodd" clip-rule="evenodd" d="M10.2358 14.4946C10.2358 14.5561 10.2102 14.6152 10.1646 14.6587C10.1191 14.7022 10.0573 14.7267 9.99288 14.7267C9.92848 14.7267 9.86668 14.7022 9.82116 14.6587C9.7756 14.6152 9.75 14.5561 9.75 14.4946C9.75 14.433 9.7756 14.374 9.82116 14.3305C9.86668 14.2869 9.92848 14.2625 9.99288 14.2625C10.0573 14.2625 10.1191 14.2869 10.1646 14.3305C10.2102 14.374 10.2358 14.433 10.2358 14.4946Z" fill="#FFFF00" stroke="black" stroke-width="0.0926153"/>
<path fill-rule="evenodd" clip-rule="evenodd" d="M10.3561 14.0304C10.3561 14.092 10.3305 14.151 10.2849 14.1945C10.2394 14.2381 10.1776 14.2625 10.1132 14.2625C10.0488 14.2625 9.98698 14.2381 9.94142 14.1945C9.8959 14.151 9.8703 14.092 9.8703 14.0304C9.8703 13.9689 9.8959 13.9099 9.94142 13.8663C9.98698 13.8228 10.0488 13.7983 10.1132 13.7983C10.1776 13.7983 10.2394 13.8228 10.2849 13.8663C10.3305 13.9099 10.3561 13.9689 10.3561 14.0304Z" fill="#FFFF00" stroke="black" stroke-width="0.0926153"/>
<path fill-rule="evenodd" clip-rule="evenodd" d="M9.9905 14.1447C9.9905 14.2063 9.9649 14.2653 9.91934 14.3088C9.87378 14.3524 9.81202 14.3768 9.74758 14.3768C9.68318 14.3768 9.62138 14.3524 9.57586 14.3088C9.5303 14.2653 9.5047 14.2063 9.5047 14.1447C9.5047 14.0832 9.5303 14.0241 9.57586 13.9806C9.62138 13.9371 9.68318 13.9126 9.74758 13.9126C9.81202 13.9126 9.87378 13.9371 9.91934 13.9806C9.9649 14.0241 9.9905 14.0832 9.9905 14.1447Z" fill="#FFFF00" stroke="black" stroke-width="0.0926153"/>
<path fill-rule="evenodd" clip-rule="evenodd" d="M10.8894 6.02135C10.2694 6.02135 10.1894 6.12135 9.90936 6.21635C9.90936 5.94635 10.5994 5.63135 11.2094 5.63135C11.2094 5.82635 11.0494 6.02135 10.8894 6.02135Z" fill="#DA4500"/>
<path fill-rule="evenodd" clip-rule="evenodd" d="M11.8244 5.40053C11.8244 5.52553 11.7144 5.63053 11.5794 5.63053C11.4444 5.63053 11.3344 5.52553 11.3344 5.39553C11.3344 5.26553 11.4444 5.16553 11.5794 5.16553C11.7144 5.16553 11.8244 5.26553 11.8244 5.39553V5.40053Z" fill="#CAC9C7"/>
<path fill-rule="evenodd" clip-rule="evenodd" d="M9.26125 4.5832V4.93216H9.87109V6.68028H10.2397V4.93216H10.8495V4.5832H10.2397V4.11572H9.86765V4.5832H9.25781H9.26125Z" fill="#FFFF00" stroke="black" stroke-width="0.0926153"/>
<path fill-rule="evenodd" clip-rule="evenodd" d="M11.215 5.63041C10.7187 5.60205 10.2216 5.66821 9.75 5.82541C9.75 5.46541 10.17 5.04541 10.89 5.04541C11.05 5.04541 11.215 5.43541 11.215 5.63041Z" fill="#DA4500"/>
<path fill-rule="evenodd" clip-rule="evenodd" d="M4.8631 11.8251C4.68742 11.4463 4.6915 11.3255 5.00406 11.7588L8.7693 18.897L8.65402 18.9295L4.86506 11.8265L4.8631 11.8251Z" fill="#008500" stroke="black" stroke-width="0.0321037"/>
<path fill-rule="evenodd" clip-rule="evenodd" d="M7.42115 16.5202C7.46115 15.9902 6.49115 15.4202 6.45115 15.4552C6.41615 15.4952 6.51115 15.8052 6.69615 15.9602C6.34615 15.7802 5.97615 15.6702 5.96615 15.7452C5.93615 15.8552 6.51615 16.1052 6.56615 16.2052C6.56615 16.2752 6.13615 16.2652 6.14615 16.3352C6.15615 16.4052 7.36115 17.0152 7.42115 16.5202ZM6.45115 14.9802C6.49115 14.4502 5.52115 13.8802 5.48615 13.9152C5.44615 13.9502 5.54115 14.2602 5.72615 14.4202C5.37615 14.2402 5.00615 14.1252 4.99615 14.2052C4.97115 14.3102 5.54615 14.5652 5.59615 14.6652C5.60115 14.7352 5.17115 14.7252 5.17615 14.7952C5.18615 14.8652 6.39115 15.4702 6.45115 14.9802ZM5.71115 13.5802C5.75115 13.0502 4.78115 12.4802 4.74115 12.5152C4.70615 12.5502 4.80115 12.8602 4.98615 13.0202C4.63615 12.8402 4.26615 12.7252 4.25615 12.8052C4.23115 12.9102 4.80615 13.1652 4.85615 13.2652C4.85615 13.3352 4.43115 13.3252 4.43615 13.3952C4.44615 13.4652 5.65115 14.0752 5.71115 13.5802ZM4.98115 12.0602C5.01615 11.5352 4.05115 10.9602 4.01115 10.9952C3.97115 11.0352 4.07115 11.3452 4.25115 11.5052C3.90115 11.3202 3.53115 11.2102 3.52615 11.2902C3.49615 11.3952 4.07615 11.6502 4.12115 11.7452C4.12615 11.8152 3.69615 11.8102 3.70615 11.8802C3.71115 11.9502 4.91615 12.5552 4.98115 12.0602Z" fill="#008F00"/>
<path fill-rule="evenodd" clip-rule="evenodd" d="M5.23039 11.9957C5.70039 11.7107 5.60539 10.6257 5.55539 10.6157C5.50039 10.6107 5.29539 10.8657 5.27039 11.1057C5.21539 10.7257 5.09039 10.3757 5.02039 10.4157C4.91539 10.4557 5.04038 11.0507 4.98538 11.1457C4.93538 11.1957 4.68538 10.8557 4.63538 10.9057C4.57538 10.9557 4.77538 12.2407 5.23538 11.9957H5.23039ZM5.91038 13.3257C6.45038 13.2057 6.74539 12.1557 6.69539 12.1307C6.64539 12.1057 6.36538 12.2807 6.26038 12.5007C6.34038 12.1257 6.34538 11.7557 6.26038 11.7707C6.14538 11.7757 6.06038 12.3757 5.97538 12.4457C5.91038 12.4757 5.79038 12.0807 5.72538 12.1057C5.65538 12.1357 5.39538 13.4107 5.91038 13.3257ZM6.72039 14.6857C7.21539 14.4457 7.22039 13.3557 7.17039 13.3457C7.12039 13.3307 6.89539 13.5707 6.84539 13.8057C6.82539 13.4207 6.73538 13.0657 6.66038 13.1007C6.55038 13.1307 6.62038 13.7307 6.56038 13.8207C6.50038 13.8657 6.28538 13.5057 6.22538 13.5507C6.16538 13.5907 6.24538 14.8907 6.72538 14.6857H6.72039ZM7.60038 16.4657C8.11538 16.2707 8.24039 15.1907 8.19039 15.1707C8.14039 15.1557 7.89038 15.3707 7.81538 15.6007C7.83538 15.2157 7.78539 14.8507 7.70538 14.8807C7.59038 14.9007 7.60038 15.5057 7.53039 15.5907C7.46538 15.6257 7.29039 15.2507 7.23039 15.2907C7.16539 15.3207 7.10538 16.6257 7.60038 16.4657Z" fill="#008F00"/>
<path fill-rule="evenodd" clip-rule="evenodd" d="M8.73433 18.3199C8.60333 18.5441 8.18897 18.5644 7.80393 18.359C7.41889 18.1535 7.21953 17.8059 7.35053 17.5816C7.48153 17.3574 7.89889 17.3388 8.28093 17.5426C8.66297 17.7464 8.86533 18.0957 8.73433 18.3199Z" fill="#FF1900" stroke="black" stroke-width="0.0926506"/>
<path fill-rule="evenodd" clip-rule="evenodd" d="M18.6751 10.8111L18.7399 10.6438L18.9145 10.6988L18.9793 10.5315L19.1539 10.5865L19.09 10.7514L19.2696 10.808L19.2039 10.9777L19.0243 10.9211L18.8627 11.3382L18.6881 11.2832L18.8497 10.8661L18.6751 10.8111ZM18.3001 12.2847L18.4747 12.3397L16.5984 17.1823L16.4238 17.1273L18.3001 12.2847Z" fill="#FFFF00" stroke="black" stroke-width="0.0321346"/>
<path fill-rule="evenodd" clip-rule="evenodd" d="M16.3661 17.0163L16.7203 17.1278L16.2026 18.464L15.8484 18.3524L16.3661 17.0163ZM18.4488 11.3953L18.9801 11.5626C19.3318 11.6734 18.5342 12.4534 18.5342 12.4534L18.1825 12.3426C18.1825 12.3426 18.0946 11.2837 18.4488 11.3953ZM18.9371 11.4063C18.9097 11.477 18.8105 11.5092 18.7132 11.4786C18.6159 11.4479 18.558 11.3662 18.5845 11.2979C18.611 11.2295 18.7111 11.195 18.8084 11.2256C18.9056 11.2562 18.9636 11.3379 18.9362 11.4086L18.9371 11.4063Z" fill="#FFFF00" stroke="black" stroke-width="0.0321346"/>
<path fill-rule="evenodd" clip-rule="evenodd" d="M16.6508 17.7099C16.7992 17.924 16.628 18.2851 16.2603 18.5177C15.8926 18.7504 15.4779 18.7602 15.3295 18.5461C15.1811 18.332 15.3552 17.9691 15.72 17.7383C16.0848 17.5074 16.5024 17.4958 16.6508 17.7099Z" fill="#FF1900" stroke="black" stroke-width="0.0926565"/>
</g>
</g>
</g>
<defs>
<clipPath id="clip0_69_8969">
<rect width="24" height="24" rx="12" fill="white"/>
</clipPath>
<clipPath id="clip1_69_8969">
<rect width="32" height="24" fill="white" transform="translate(-4)"/>
</clipPath>
</defs>
</svg>
