<svg width="24" height="24" viewBox="0 0 24 24" fill="none" xmlns="http://www.w3.org/2000/svg">
<g clip-path="url(#clip0_69_9614)">
<g clip-path="url(#clip1_69_9614)">
<mask id="mask0_69_9614" style="mask-type:luminance" maskUnits="userSpaceOnUse" x="-4" y="0" width="32" height="24">
<path d="M28 0H-4V24H28V0Z" fill="white"/>
</mask>
<g mask="url(#mask0_69_9614)">
<path d="M-4 0H28V24H-4V0Z" fill="#D20000"/>
<path d="M-4 0H0.8L12 11.57L23.2 0H28L-4 24H0.8L12 12.43L23.2 24H28L-4 0ZM28 9.6V14.4L-4 9.6V14.4L28 9.6ZM10 0L12 10.285L14 0H10ZM10 24L12 13.715L14 24H10Z" fill="#FFE600"/>
<path d="M12.0003 15.8553C14.1294 15.8553 15.8553 14.1293 15.8553 12.0003C15.8553 9.87118 14.1294 8.14526 12.0003 8.14526C9.87124 8.14526 8.14532 9.87118 8.14532 12.0003C8.14532 14.1293 9.87124 15.8553 12.0003 15.8553Z" fill="#FFE600" stroke="#D20000" stroke-width="2.1375"/>
</g>
</g>
</g>
<defs>
<clipPath id="clip0_69_9614">
<rect width="24" height="24" rx="12" fill="white"/>
</clipPath>
<clipPath id="clip1_69_9614">
<rect width="32" height="24" fill="white" transform="translate(-4)"/>
</clipPath>
</defs>
</svg>
