<svg width="24" height="24" viewBox="0 0 24 24" fill="none" xmlns="http://www.w3.org/2000/svg">
<g clip-path="url(#clip0_69_9039)">
<g clip-path="url(#clip1_69_9039)">
<mask id="mask0_69_9039" style="mask-type:luminance" maskUnits="userSpaceOnUse" x="-4" y="0" width="32" height="24">
<path d="M28 0H-4V24H28V0Z" fill="white"/>
</mask>
<g mask="url(#mask0_69_9039)">
<path d="M0 0H24V24H0V0Z" fill="#DA2032"/>
<path d="M8 0H16V24H8V0Z" fill="#0066B3"/>
<path d="M3.8656 10.918C4.49125 10.918 4.99842 10.4108 4.99842 9.78516C4.99842 9.15951 4.49125 8.65234 3.8656 8.65234C3.23996 8.65234 2.73279 9.15951 2.73279 9.78516C2.73279 10.4108 3.23996 10.918 3.8656 10.918Z" fill="#FFD900"/>
<path d="M3.86581 10.5042C4.54777 10.5042 5.10058 9.9514 5.10058 9.26944C5.10058 8.58748 4.54777 8.03467 3.86581 8.03467C3.18388 8.03467 2.63104 8.58748 2.63104 9.26944C2.63104 9.9514 3.18388 10.5042 3.86581 10.5042Z" fill="#DA2032"/>
<path d="M3.86581 10.3006C4.32097 10.3006 4.68993 9.93161 4.68993 9.47647C4.68993 9.0213 4.32097 8.65234 3.86581 8.65234C3.41066 8.65234 3.04169 9.0213 3.04169 9.47647C3.04169 9.93161 3.41066 10.3006 3.86581 10.3006Z" fill="#FFD900"/>
<path d="M3.95057 6.80005C3.90876 6.81834 3.87285 6.84789 3.84684 6.88539C3.82086 6.9229 3.80577 6.96687 3.8033 7.01246C3.79764 7.08326 3.82879 7.16256 3.83162 7.23052C3.83162 7.34947 3.70984 7.38912 3.70984 7.55621C3.70984 7.61285 3.76365 7.67799 3.76365 7.82809C3.75232 7.90738 3.70701 7.92721 3.65886 7.93287C3.64525 7.93287 3.63174 7.93015 3.61919 7.92485C3.60664 7.91955 3.59527 7.91178 3.58575 7.90201C3.57626 7.89225 3.56881 7.88067 3.56384 7.86796C3.5589 7.85527 3.55655 7.8417 3.55691 7.82809C3.55684 7.80171 3.56699 7.77634 3.58523 7.75729C3.58881 7.75418 3.59259 7.75135 3.59656 7.74879C3.61922 7.7233 3.6532 7.7148 3.6532 7.6525C3.6532 7.62135 3.63054 7.59019 3.61072 7.53355C3.5909 7.47691 3.60506 7.38629 3.65037 7.33248C3.57674 7.3608 3.53425 7.42877 3.50877 7.49107C3.48611 7.56754 3.50877 7.61002 3.47478 7.67516C3.45496 7.7148 3.4323 7.7318 3.40964 7.76578C3.38132 7.80543 3.353 7.89039 3.353 7.93287C3.36266 8.0626 3.421 8.1839 3.51631 8.2724C3.61165 8.36092 3.73694 8.41013 3.86703 8.41013C3.99712 8.41013 4.12239 8.36092 4.21773 8.2724C4.31307 8.1839 4.37141 8.0626 4.38104 7.93287C4.38104 7.89039 4.34988 7.80543 4.3244 7.76578C4.29891 7.7318 4.27625 7.7148 4.25643 7.67516C4.22244 7.61002 4.2451 7.56754 4.21961 7.49107C4.19695 7.42877 4.15447 7.3608 4.08084 7.33248C4.12615 7.38912 4.13748 7.47974 4.12049 7.53355C4.10066 7.59019 4.08084 7.61851 4.08084 7.6525C4.08084 7.7148 4.11199 7.7233 4.13748 7.74879C4.14049 7.75144 4.14333 7.75429 4.14598 7.75729C4.16424 7.77634 4.17439 7.80171 4.1743 7.82809C4.17468 7.8417 4.17233 7.85527 4.16736 7.86796C4.16243 7.88067 4.15497 7.89225 4.14546 7.90201C4.13596 7.91178 4.12459 7.91955 4.11204 7.92485C4.09949 7.93015 4.08598 7.93287 4.07234 7.93287C4.0157 7.92438 3.97322 7.89889 3.96756 7.82809C3.96756 7.62984 4.05252 7.61851 4.05252 7.47125C4.05252 7.26168 3.8656 7.16256 3.8656 7.00962C3.8656 6.95865 3.87693 6.86802 3.95057 6.80005ZM1.59998 11.1218H2.62801V16.0637H1.59998V11.1218ZM5.10038 11.1218H6.13124V16.0637H5.10038V11.1218ZM2.83475 11.1218H4.89364L3.8656 11.7391L2.83475 11.1218ZM2.83475 11.9431H4.89364V12.3565H2.83475V11.9431ZM2.83475 14.8289H4.89364V15.2424H2.83475V14.8289ZM2.83475 15.4463H4.89364L3.8656 16.0637L2.83475 15.4463Z" fill="#FFD900"/>
<path d="M3.86632 14.6276C4.43566 14.6276 4.89719 14.1661 4.89719 13.5968C4.89719 13.0275 4.43566 12.5659 3.86632 12.5659C3.29699 12.5659 2.83545 13.0275 2.83545 13.5968C2.83545 14.1661 3.29699 14.6276 3.86632 14.6276Z" fill="#FFD900"/>
<path d="M3.86448 13.2549C3.97821 13.2549 4.07045 13.1627 4.07045 13.049C4.07045 12.9352 3.97821 12.843 3.86448 12.843C3.75072 12.843 3.65851 12.9352 3.65851 13.049C3.65851 13.1627 3.75072 13.2549 3.86448 13.2549Z" fill="#DA2032"/>
<path d="M3.86448 14.346C3.97821 14.346 4.07045 14.2538 4.07045 14.1401C4.07045 14.0263 3.97821 13.9341 3.86448 13.9341C3.75072 13.9341 3.65851 14.0263 3.65851 14.1401C3.65851 14.2538 3.75072 14.346 3.86448 14.346Z" fill="#DA2032"/>
<path d="M3.86431 12.4412C4.02547 12.4412 4.18001 12.5052 4.29397 12.6191C4.40791 12.7331 4.47193 12.8876 4.47193 13.0488C4.47193 13.2099 4.40791 13.3645 4.29397 13.4784C4.18001 13.5924 4.02547 13.6564 3.86431 13.6564C3.73594 13.6564 3.61285 13.7074 3.52207 13.7981C3.4313 13.8889 3.3803 14.012 3.3803 14.1404C3.3803 14.2688 3.4313 14.3919 3.52207 14.4826C3.61285 14.5734 3.73594 14.6244 3.86431 14.6244V14.748C3.70318 14.748 3.54864 14.684 3.43468 14.57C3.32074 14.4561 3.25671 14.3015 3.25671 14.1404C3.25671 13.9792 3.32074 13.8247 3.43468 13.7108C3.54864 13.5968 3.70318 13.5328 3.86431 13.5328C3.99268 13.5328 4.1158 13.4818 4.20658 13.391C4.29734 13.3002 4.34834 13.1771 4.34834 13.0488C4.34834 12.9204 4.29734 12.7973 4.20658 12.7065C4.1158 12.6158 3.99268 12.5648 3.86431 12.5648V12.4412Z" fill="#DA2032"/>
</g>
</g>
</g>
<defs>
<clipPath id="clip0_69_9039">
<rect width="24" height="24" rx="12" fill="white"/>
</clipPath>
<clipPath id="clip1_69_9039">
<rect width="32" height="24" fill="white" transform="translate(-4)"/>
</clipPath>
</defs>
</svg>
