<svg width="24" height="24" viewBox="0 0 24 24" fill="none" xmlns="http://www.w3.org/2000/svg">
<g clip-path="url(#clip0_69_8425)">
<g clip-path="url(#clip1_69_8425)">
<mask id="mask0_69_8425" style="mask-type:luminance" maskUnits="userSpaceOnUse" x="-4" y="0" width="32" height="24">
<path d="M28 0H-4V24H28V0Z" fill="white"/>
</mask>
<g mask="url(#mask0_69_8425)">
<path d="M-4 0H28V24H-4V0Z" fill="#00785E"/>
<path d="M10.75 5.4349L12.775 6.9099L12 4.5249L11.225 6.9099L13.255 5.4349H10.75Z" fill="#FBD116"/>
<path d="M11.9994 16.5797H6.87436C6.8098 16.5142 6.74644 16.4476 6.68436 16.3797H11.9994C12.02 16.387 12.0378 16.4006 12.0504 16.4185C12.063 16.4364 12.0696 16.4578 12.0694 16.4797C12.0694 16.5197 12.0444 16.5647 11.9994 16.5797ZM11.9994 15.0147C12.0573 14.897 12.0782 14.7645 12.0594 14.6347C12.0498 14.5685 12.0295 14.5044 11.9994 14.4447C11.5387 14.8831 10.9824 15.2083 10.3744 15.3947C9.99344 15.5104 9.59752 15.5694 9.19936 15.5697H6.04436C6.13644 15.7063 6.23316 15.8397 6.33436 15.9697H9.38436C10.3844 15.9697 11.2944 15.6097 11.9994 15.0147ZM6.51936 13.7797C6.3638 13.8378 6.20024 13.8715 6.03436 13.8797C6.41436 14.3116 6.882 14.6577 7.4062 14.8948C7.9304 15.1319 8.49908 15.2546 9.07436 15.2547C9.62108 15.2548 10.1622 15.1441 10.6649 14.9293C11.1676 14.7144 11.6216 14.3999 11.9994 14.0047C12.1399 13.0308 12.215 12.0486 12.2244 11.0647C12.2364 9.93225 12.1612 8.80057 11.9994 7.67969C11.6694 7.97969 11.0494 8.61469 10.7594 9.59469C10.6506 9.96997 10.5967 10.359 10.5994 10.7497C10.5992 11.5511 10.8377 12.3344 11.2844 12.9997C10.734 12.292 10.4349 11.4212 10.4344 10.5247C10.4344 9.90469 10.5744 9.31469 10.8244 8.78969C10.6504 8.60525 10.522 8.38265 10.4494 8.13969C10.1036 8.74945 9.92268 9.43873 9.92436 10.1397C9.92436 11.0397 10.2194 11.8747 10.7194 12.5447C10.2491 12.0505 9.67788 11.6634 9.04456 11.4097C8.41128 11.1561 7.7308 11.0418 7.04936 11.0747C7.18752 11.2023 7.30256 11.3528 7.38936 11.5197C8.03072 11.5204 8.66528 11.6511 9.25476 11.9038C9.84428 12.1564 10.3765 12.5258 10.8194 12.9897C9.96456 12.273 8.88484 11.8801 7.76936 11.8797C7.13956 11.8785 6.5158 12.0026 5.93436 12.2447C6.2462 13.069 6.8178 13.7696 7.56284 14.2404C8.30792 14.7113 9.18596 14.9269 10.0644 14.8547C9.82936 14.8947 9.58936 14.9197 9.34436 14.9197C8.29176 14.9216 7.27996 14.5126 6.52436 13.7797H6.51936ZM11.9994 18.2197H9.34436C10.1894 18.5547 11.0904 18.726 11.9994 18.7247C12.0406 18.6477 12.0629 18.562 12.0644 18.4747C12.0637 18.3857 12.0414 18.2982 11.9994 18.2197ZM11.9994 16.9947H7.31936C7.44576 17.1025 7.57584 17.2059 7.70936 17.3047H11.9994C12.0398 17.2631 12.063 17.2077 12.0644 17.1497C12.0654 17.1207 12.0602 17.0918 12.049 17.065C12.0377 17.0383 12.0208 17.0142 11.9994 16.9947ZM11.9994 17.6197H8.16436C8.39652 17.7667 8.63692 17.9002 8.88436 18.0197H11.9994C12.0395 17.9571 12.0604 17.884 12.0594 17.8097C12.0569 17.7421 12.0362 17.6764 11.9994 17.6197Z" fill="white"/>
<path d="M6.02499 8.74036L7.29499 9.92036L6.95999 8.22036L6.22999 9.79036L7.74499 8.95036L6.02499 8.74036ZM7.86999 7.14036L9.60499 7.17036L8.21999 6.12036L8.72499 7.78536L9.28999 6.14036L7.86999 7.14036Z" fill="#FBD116"/>
<path d="M12.0006 16.5797H17.1256C17.1902 16.5142 17.2536 16.4476 17.3156 16.3797H12.0006C11.98 16.387 11.9622 16.4006 11.9496 16.4185C11.937 16.4364 11.9304 16.4578 11.9306 16.4797C11.9306 16.5197 11.9556 16.5647 12.0006 16.5797ZM12.0006 15.0147C11.9427 14.897 11.9218 14.7645 11.9406 14.6347C11.9502 14.5685 11.9705 14.5044 12.0006 14.4447C12.4613 14.8831 13.0176 15.2083 13.6256 15.3947C14.0066 15.5104 14.4025 15.5694 14.8006 15.5697H17.9556C17.8636 15.7063 17.7668 15.8397 17.6656 15.9697H14.6156C13.6156 15.9697 12.7056 15.6097 12.0006 15.0147ZM17.4806 13.7797C17.6362 13.8378 17.7998 13.8715 17.9656 13.8797C17.5856 14.3116 17.118 14.6577 16.5938 14.8948C16.0696 15.1319 15.5009 15.2546 14.9256 15.2547C14.3789 15.2548 13.8378 15.1441 13.3351 14.9293C12.8324 14.7144 12.3784 14.3999 12.0006 14.0047C11.8601 13.0308 11.7849 12.0486 11.7756 11.0647C11.7636 9.93225 11.8388 8.80057 12.0006 7.67969C12.3306 7.97969 12.9506 8.61469 13.2406 9.59469C13.3494 9.96997 13.4033 10.359 13.4006 10.7497C13.4008 11.5511 13.1623 12.3344 12.7156 12.9997C13.266 12.292 13.5651 11.4212 13.5656 10.5247C13.5656 9.90469 13.4256 9.31469 13.1756 8.78969C13.3496 8.60525 13.478 8.38265 13.5506 8.13969C13.8964 8.74945 14.0773 9.43873 14.0756 10.1397C14.0756 11.0397 13.7806 11.8747 13.2806 12.5447C13.7509 12.0505 14.3221 11.6634 14.9554 11.4097C15.5887 11.1561 16.2692 11.0418 16.9506 11.0747C16.8125 11.2023 16.6974 11.3528 16.6106 11.5197C15.9693 11.5204 15.3347 11.6511 14.7452 11.9038C14.1557 12.1564 13.6235 12.5258 13.1806 12.9897C14.0354 12.273 15.1152 11.8801 16.2306 11.8797C16.8604 11.8785 17.4842 12.0026 18.0656 12.2447C17.7538 13.069 17.1822 13.7696 16.4372 14.2404C15.6921 14.7113 14.814 14.9269 13.9356 14.8547C14.1706 14.8947 14.4106 14.9197 14.6556 14.9197C15.7082 14.9216 16.72 14.5126 17.4756 13.7797H17.4806ZM12.0006 18.2197H14.6556C13.8106 18.5547 12.9096 18.726 12.0006 18.7247C11.9594 18.6477 11.9371 18.562 11.9356 18.4747C11.9363 18.3857 11.9586 18.2982 12.0006 18.2197ZM12.0006 16.9947H16.6806C16.5542 17.1025 16.4242 17.2059 16.2906 17.3047H12.0006C11.9601 17.2631 11.937 17.2077 11.9356 17.1497C11.9346 17.1207 11.9398 17.0918 11.951 17.065C11.9623 17.0383 11.9792 17.0142 12.0006 16.9947ZM12.0006 17.6197H15.8356C15.6035 17.7667 15.3631 17.9002 15.1156 18.0197H12.0006C11.9605 17.9571 11.9396 17.884 11.9406 17.8097C11.9431 17.7421 11.9638 17.6764 12.0006 17.6197Z" fill="white"/>
<path d="M17.975 8.74036L16.705 9.92036L17.04 8.22036L17.77 9.79036L16.255 8.95036L17.975 8.74036ZM16.13 7.14036L14.395 7.17036L15.78 6.12036L15.275 7.78536L14.71 6.14036L16.13 7.14036Z" fill="#FBD116"/>
</g>
</g>
</g>
<defs>
<clipPath id="clip0_69_8425">
<rect width="24" height="24" rx="12" fill="white"/>
</clipPath>
<clipPath id="clip1_69_8425">
<rect width="32" height="24" fill="white" transform="translate(-4)"/>
</clipPath>
</defs>
</svg>
