<svg width="24" height="24" viewBox="0 0 24 24" fill="none" xmlns="http://www.w3.org/2000/svg">
<g clip-path="url(#clip0_69_9749)">
<g clip-path="url(#clip1_69_9749)">
<mask id="mask0_69_9749" style="mask-type:luminance" maskUnits="userSpaceOnUse" x="-4" y="0" width="32" height="24">
<path d="M28 0H-4V24H28V0Z" fill="white"/>
</mask>
<g mask="url(#mask0_69_9749)">
<mask id="mask1_69_9749" style="mask-type:luminance" maskUnits="userSpaceOnUse" x="-4" y="0" width="32" height="24">
<path d="M-4 0H28V24H-4V0Z" fill="white"/>
</mask>
<g mask="url(#mask1_69_9749)">
<path fill-rule="evenodd" clip-rule="evenodd" d="M-12 0H36V24H-12V0Z" fill="#0071BC"/>
<path fill-rule="evenodd" clip-rule="evenodd" d="M14.5002 18.2846C14.5002 18.2846 15.2602 17.4796 15.9902 17.6346C16.2102 16.7846 17.0402 16.7146 17.0402 16.7146C17.0402 16.7146 16.9552 15.7796 18.0152 15.5746C18.0452 14.9396 18.6902 14.4096 18.6902 14.4096C18.6902 14.4096 18.5602 13.4246 19.2302 13.1946C18.8202 12.4146 19.3702 11.8446 19.3652 11.8296C19.3552 11.8146 18.6652 10.5896 19.2852 10.2396C18.6352 9.68963 18.8452 9.06963 18.8452 9.06963C18.8452 9.06963 18.1352 8.88463 18.3902 8.03463C17.8052 7.93463 17.6902 6.98963 17.6902 6.98963C17.6902 6.98963 16.7902 7.17463 16.6802 6.38963C16.0802 6.48463 16.0202 5.89963 16.0102 5.89963C16.0052 5.89963 14.8352 6.21463 14.6002 5.32963C14.1452 5.56463 13.9502 5.14463 13.9502 5.14463C13.9502 5.14463 13.3002 5.46963 12.9102 4.84463C12.1352 5.32963 11.7002 4.82463 11.7002 4.82463C11.7002 4.82463 10.6852 5.49463 10.3502 4.97463C9.75024 5.58463 9.21024 5.32463 9.21024 5.32463C9.21024 5.32463 8.76024 6.12463 8.02524 5.92463C7.86024 6.66963 7.01524 6.68463 7.01524 6.68463C7.01524 6.68463 7.10524 7.33963 6.09524 7.51963C5.96524 8.29463 5.43524 8.41963 5.43524 8.41963C5.43524 8.41963 5.48524 9.17963 5.01024 9.41963C5.18024 9.84463 4.74024 10.3646 4.74024 10.3646C4.74024 10.3646 5.21024 10.9496 4.57024 11.6096C5.18524 11.7696 4.74024 12.8296 4.74024 12.8296C4.74024 12.8296 5.59024 13.2096 5.05524 13.9146C5.66524 14.1146 5.47524 14.5946 5.48024 14.8796C5.87024 15.0546 6.21024 14.9696 6.04524 15.7496C7.23524 15.8846 6.67524 16.5396 6.67524 16.5396C6.67524 16.5396 7.22524 16.5646 7.01024 17.0046C8.02524 16.9796 8.17524 17.7646 8.17524 17.7646C8.17524 17.7646 9.11524 17.5146 9.24024 17.8796C9.36524 18.2446 8.83024 20.7146 8.83024 20.7146C8.83024 20.7146 8.03024 20.7146 7.44024 20.0746C6.05024 20.0396 6.36024 19.1246 6.34024 19.1246C6.31524 19.1246 5.87524 19.2946 5.65024 18.5296C4.72024 18.7196 4.75024 17.9396 4.74024 17.9296C4.73524 17.9246 4.32524 17.7396 4.47524 17.3546C3.52024 17.4396 3.59024 16.5046 3.59024 16.5046C3.38024 16.4196 3.30524 16.2246 3.33524 16.0296C3.21024 15.9846 2.36024 15.9696 2.80024 14.8496C1.99024 14.3596 2.49524 13.7996 2.49524 13.7996C2.49524 13.7996 1.37524 13.2196 2.24024 12.5496C1.59024 11.5996 2.29024 11.1246 2.29024 11.1246C2.29024 11.1246 1.39524 10.2196 2.30524 9.57463C2.15524 8.19963 2.97524 7.86963 2.97524 7.86963C2.97524 7.86963 2.54524 6.74963 3.71524 6.27963C3.79024 5.14463 4.61024 5.11463 4.61024 5.11463C4.61024 5.11463 4.63024 4.21463 5.92024 4.30463C6.17024 3.49963 7.04524 3.65963 7.04524 3.65963C7.04524 3.65963 7.31524 2.68463 8.51024 3.15463C9.11524 1.96963 10.0202 2.57463 10.0202 2.57463C10.0202 2.57463 10.5902 2.20463 10.8702 2.32463C11.2352 1.69963 12.0102 2.29463 12.5052 2.41963C12.6902 2.34463 13.3352 1.85963 13.8302 2.46963C14.4902 2.04463 15.0552 2.81963 15.0552 2.81963C15.0552 2.81963 15.9602 2.35963 16.3852 3.40963C18.3102 3.23463 18.0352 4.49463 18.0352 4.49463C18.0352 4.49463 19.5452 4.14963 19.2152 5.65963C20.5952 5.75463 20.4552 6.65963 20.4552 6.65963C20.4552 6.65963 21.3252 7.31963 20.9452 7.90963C21.7202 7.94963 21.4352 8.69463 21.4352 8.69463C21.4352 8.69463 22.0302 8.92463 21.5352 9.84463C22.6702 10.7496 21.7552 11.6546 21.7502 11.6446C21.7402 11.6396 22.3552 12.3746 21.8002 13.2246C21.9702 14.5746 21.2902 14.9146 21.2902 14.9146C21.2902 14.9146 21.4652 15.7896 20.7052 16.0346C20.6902 17.0596 19.7202 17.1846 19.7202 17.1846C19.7202 17.1846 19.9802 17.6346 19.0202 18.0996C18.9802 18.7846 17.9802 18.8396 17.9802 18.8396C17.9802 18.8396 17.8852 20.0996 16.6102 19.7596C16.3052 20.7696 14.8102 20.4696 14.7802 20.4596C14.7552 20.4446 14.4952 18.2896 14.4952 18.2846H14.5002Z" fill="white" stroke="black" stroke-width="0.2375"/>
<path fill-rule="evenodd" clip-rule="evenodd" d="M5.24989 6.19995C5.24989 6.19995 5.56989 6.47995 5.50989 6.89995C5.44989 7.31495 5.20989 7.89495 5.25989 8.32495C5.28989 8.49995 5.27489 8.80995 5.27489 8.80995C5.27489 8.80995 4.98989 8.39995 4.98489 7.95995C4.97989 7.51995 5.29489 7.10495 5.29489 6.77995C5.29489 6.45495 5.23989 6.19495 5.24489 6.20495L5.24989 6.19995ZM5.08989 6.32995C5.08989 6.32995 4.66989 6.72995 4.61489 7.11495C4.57489 7.31495 4.56489 8.24995 4.55489 8.66495C4.54489 8.78995 4.49489 9.28995 4.48489 9.47495C4.46989 9.65495 4.78989 9.16495 4.80989 8.75995C4.79989 8.34495 4.79989 7.46995 4.83989 7.33495C4.87989 7.16495 4.86989 6.97995 4.92989 6.80995L5.08989 6.32995Z" fill="#217900" stroke="black" stroke-width="0.2375" stroke-linejoin="round"/>
<path fill-rule="evenodd" clip-rule="evenodd" d="M14.3006 5.02574C14.3006 5.02574 14.8406 4.77574 15.0006 4.30574C15.1606 3.83572 14.5256 3.83572 14.4456 3.98572C14.3606 4.13574 14.5156 4.50074 14.4756 4.60074C14.4356 4.70074 14.2156 4.93074 14.3006 5.02074V5.02574Z" fill="#FFD200" stroke="#EF8A10" stroke-width="0.2375"/>
<path fill-rule="evenodd" clip-rule="evenodd" d="M9.49031 5.19543C9.49031 5.19543 9.84031 4.71043 9.75031 4.22543C9.65531 3.74541 9.11031 4.04543 9.11031 4.21543C9.11031 4.38543 9.42031 4.63043 9.43531 4.73543C9.45031 4.84043 9.37031 5.15543 9.48531 5.19043L9.49031 5.19543ZM8.53531 5.48043C8.53531 5.48043 8.88531 4.99543 8.79531 4.51543C8.70531 4.03043 8.15531 4.33043 8.15531 4.50043C8.15531 4.67043 8.47031 4.92043 8.48531 5.02543C8.49531 5.12543 8.42031 5.44043 8.53531 5.48043ZM7.48031 5.80543C7.48031 5.80543 7.83031 5.32543 7.74031 4.84043C7.64531 4.35543 7.10031 4.65543 7.10031 4.82543C7.10031 4.99543 7.41031 5.24543 7.42531 5.35043C7.44031 5.45043 7.36031 5.76543 7.47531 5.80543H7.48031ZM6.73031 6.55043C6.73031 6.55043 7.08531 6.06543 6.99531 5.58543C6.90531 5.10043 6.35531 5.40043 6.35531 5.57043C6.35531 5.74043 6.67031 5.99043 6.68031 6.09543C6.69531 6.19543 6.61531 6.51043 6.73031 6.55043ZM5.95031 7.27043C5.95031 7.27043 6.30031 6.78543 6.21031 6.30043C6.12031 5.81543 5.57031 6.12043 5.57031 6.29043C5.57031 6.46043 5.88531 6.70543 5.90031 6.81043C5.91031 6.91543 5.83531 7.23043 5.95031 7.27043Z" fill="#FFD200" stroke="#EF8A10" stroke-width="0.3125"/>
<path fill-rule="evenodd" clip-rule="evenodd" d="M7.75 3.08522C7.75 3.08522 7.28 3.45522 7.24 3.94522C7.2 4.43522 7.805 4.29522 7.85 4.13022C7.9 3.96521 7.665 3.64521 7.68 3.54021C7.695 3.44021 7.855 3.15521 7.75 3.09021V3.08522ZM9.315 2.60521C9.315 2.60521 8.85 2.97521 8.805 3.46521C8.765 3.95521 9.37 3.81521 9.42 3.65022C9.465 3.48521 9.23 3.16021 9.245 3.05521C9.26 2.95521 9.42 2.67021 9.315 2.60521ZM3.48 6.83022C3.48 6.83022 3.58 7.42022 3.99 7.69522C4.4 7.96522 4.565 7.36522 4.445 7.24522C4.325 7.12522 3.93 7.17522 3.845 7.11522C3.76 7.05022 3.595 6.77522 3.48 6.83022ZM2.7 8.83022C2.7 8.83022 2.7 9.43022 3.065 9.76522C3.425 10.0952 3.685 9.53022 3.585 9.39522C3.485 9.26022 3.085 9.24522 3.015 9.17022C2.94 9.09022 2.815 8.79522 2.7 8.83522V8.83022ZM4.5 11.0702C4.5 11.0702 4.29 10.5102 3.835 10.3202C3.38 10.1402 3.335 10.7602 3.475 10.8552C3.62 10.9452 3.995 10.8202 4.09 10.8652C4.19 10.9102 4.405 11.1452 4.505 11.0652L4.5 11.0702ZM4.13 10.1002C4.13 10.1002 4.49 9.62522 4.41 9.14522C4.325 8.66022 3.775 8.94522 3.77 9.11522C3.77 9.28522 4.07 9.54022 4.085 9.64522C4.095 9.75022 4.01 10.0602 4.13 10.1052V10.1002ZM15.41 5.50522C15.41 5.50522 15.95 5.25522 16.11 4.79022C16.27 4.32522 15.635 4.32022 15.555 4.46522C15.47 4.61522 15.625 4.98522 15.585 5.08022C15.545 5.18022 15.325 5.41522 15.41 5.50522ZM17.05 6.32522C17.05 6.32522 17.37 5.82022 17.245 5.34522C17.12 4.87022 16.595 5.20522 16.605 5.37522C16.615 5.54022 16.945 5.77022 16.965 5.87522C16.985 5.97522 16.93 6.29522 17.05 6.32522ZM21.53 10.9752C21.53 10.9752 21.315 10.4202 20.86 10.2302C20.405 10.0452 20.36 10.6702 20.5 10.7602C20.645 10.8552 21.025 10.7252 21.115 10.7702C21.215 10.8202 21.43 11.0552 21.53 10.9752ZM19.34 11.3252C19.34 11.3252 19.35 10.7252 19.715 10.3952C20.08 10.0652 20.335 10.6402 20.235 10.7752C20.13 10.9102 19.735 10.9152 19.655 10.9902C19.585 11.0652 19.455 11.3602 19.34 11.3202V11.3252ZM18.99 4.98522C18.99 4.98522 18.425 4.77022 17.99 4.98522C17.54 5.20522 17.98 5.65522 18.14 5.61022C18.305 5.56022 18.46 5.19522 18.56 5.15522C18.66 5.11522 18.98 5.10522 18.985 4.98522H18.99ZM17.7 3.91521C17.7 3.91521 17.145 3.70021 16.7 3.91521C16.26 4.13522 16.695 4.58522 16.86 4.54022C17.02 4.49022 17.18 4.12522 17.275 4.08522C17.375 4.04522 17.695 4.03522 17.7 3.91521ZM15.8 2.89521C15.8 2.89521 15.325 3.26022 15.28 3.74522C15.23 4.23522 15.84 4.10022 15.89 3.94021C15.94 3.77521 15.705 3.45022 15.72 3.34522C15.74 3.24522 15.9 2.96521 15.8 2.89521ZM14.56 2.59521C14.56 2.59521 14.34 3.15022 14.555 3.59522C14.77 4.04022 15.22 3.60522 15.175 3.44522C15.13 3.28022 14.765 3.12021 14.725 3.02521C14.685 2.92521 14.68 2.60021 14.56 2.59521ZM11.035 4.74522C11.035 4.74522 11.42 4.28522 11.365 3.79522C11.31 3.31022 10.74 3.57021 10.73 3.74021C10.715 3.91021 11.01 4.18022 11.015 4.28522C11.02 4.38522 10.92 4.69522 11.035 4.74022V4.74522Z" fill="#FFD200" stroke="#EF8A10" stroke-width="0.2375"/>
<path fill-rule="evenodd" clip-rule="evenodd" d="M13.1403 5.72007C13.1403 5.72007 14.0653 5.78007 14.1103 6.31007C14.1553 6.84007 13.8903 7.16507 13.8903 7.16507C13.8903 7.16507 14.0053 8.31507 13.1003 8.65007C12.1303 8.76507 10.6053 8.67507 10.6053 8.67507C10.6053 8.67507 10.1553 8.78507 9.97532 7.86007C9.87112 7.33779 9.79432 6.81039 9.74532 6.28007C9.74532 6.28007 9.83532 5.76007 10.4903 5.73007C11.1403 5.69507 13.1303 5.73007 13.1403 5.72007Z" fill="#8C8A8C" stroke="black" stroke-width="0.2375"/>
<path d="M13.8848 7.15942C13.8848 7.15942 13.3848 7.77942 13.4348 8.03442" stroke="black" stroke-width="0.2375" stroke-linecap="round"/>
<path fill-rule="evenodd" clip-rule="evenodd" d="M13.2156 8.61572C13.3406 8.72072 13.4556 8.83572 13.4806 9.21572L13.5306 9.98572L14.1806 15.8157L14.7506 20.0307L14.7906 20.6807C14.7906 20.6807 14.6556 21.1657 14.2706 21.2057C13.9956 21.7857 12.4856 21.9557 12.3356 21.9507C12.2006 21.9407 11.7206 21.7407 11.4306 21.7657C11.1356 21.7907 10.6306 21.9857 10.4056 21.9557C10.1806 21.9207 9.66564 21.7457 9.57564 21.3757C8.94064 21.1757 8.84064 20.6907 8.84064 20.6907L9.52564 15.8157L10.1906 9.64572C10.1906 9.64572 10.2706 8.82572 10.6006 8.70072C10.9456 8.67072 12.7206 8.73572 13.2156 8.61572Z" fill="#8C8A8C" stroke="black" stroke-width="0.2375"/>
<path d="M9.71937 17.0547L9.58437 21.3697M13.9094 17.6247L14.2894 21.1847" stroke="black" stroke-width="0.2375"/>
<path d="M2.83064 14.8144L2.81564 14.8644M20.7506 14.6594L20.7656 14.7094" stroke="black" stroke-width="0.125"/>
<path d="M2.35004 8.99072C2.35004 8.99072 2.63004 9.38572 2.68504 9.61072C2.73504 9.83572 2.83004 10.2807 2.95004 10.4607C3.07504 10.6457 3.78004 11.6557 3.82004 12.0757C3.82504 12.3557 3.52504 12.8257 3.08504 12.8357C2.80504 12.8257 2.09504 12.6457 2.06504 12.0357C2.03504 11.4207 2.28004 11.4107 2.31504 11.0357C2.34004 10.6657 2.35004 9.00072 2.35004 8.99072Z" stroke="#6B18B5" stroke-width="0.2375" stroke-linejoin="round"/>
<path d="M7.2248 3.64058C7.2248 3.64058 6.9248 3.66058 6.7048 3.78558C6.5298 3.89058 6.2298 4.05058 6.0248 4.33558C5.4948 4.74558 4.6998 4.93558 4.4498 5.28558C4.2998 5.51558 4.3098 6.07058 4.6848 6.31058C4.9248 6.44558 5.6348 6.66058 5.9748 6.15558C6.3148 5.64558 6.1098 5.50558 6.2748 5.17558C6.51044 4.61798 6.83088 4.10022 7.2248 3.64058ZM14.3498 2.90058C14.3498 2.90058 14.1298 2.70058 13.8848 2.62558C13.6848 2.57558 13.3548 2.59558 13.0098 2.56058C12.3448 2.47058 11.6598 1.99058 11.2448 2.05058C10.9748 2.10058 10.5798 2.50058 10.6698 2.93058C10.7348 3.20058 11.0348 3.74058 11.6398 3.63558C12.2398 3.53058 12.2398 3.39558 12.5898 3.28558C13.4598 2.80058 14.3398 2.90058 14.3498 2.90058ZM21.4198 9.77058C21.4698 9.65558 21.3748 9.44058 21.3098 9.19558C21.2498 8.99558 21.1548 8.69558 20.9248 8.42058C20.6548 7.81058 20.6998 6.97058 20.4248 6.65058C20.2398 6.45058 19.6948 6.32058 19.3748 6.63058C19.1798 6.83058 18.8048 7.46058 19.2148 7.91558C19.6248 8.36558 19.8048 8.20058 20.0848 8.44058C20.7598 8.89058 21.0848 9.69058 21.4198 9.77058ZM21.1748 15.1006C21.2698 14.9756 21.4348 14.7306 21.4148 14.5256C21.3998 14.3656 21.4898 13.8756 21.4998 13.6606C21.5598 12.9956 21.9748 12.4506 21.8598 11.8756C21.7948 11.6056 21.3998 11.2256 20.9698 11.3356C20.7098 11.4156 20.1198 11.7356 20.2548 12.3356C20.3898 12.9356 20.5848 12.9206 20.7098 13.2706C21.0748 13.9956 20.8448 14.8556 21.1748 15.1006Z" stroke="#6B18B5" stroke-width="0.125" stroke-linejoin="round"/>
<path d="M16.2747 19.3396C16.2747 19.3396 16.1597 19.5596 16.6147 19.7496M17.1797 18.8296C17.1797 18.8296 17.6797 18.7046 18.0197 18.8296M18.6797 17.5596C18.6797 17.5696 18.6097 17.7846 19.0097 18.0996M18.9697 16.9996C18.9697 16.9996 19.2647 17.2146 19.7597 17.1996M15.9897 17.6296C15.9897 17.6296 16.0047 18.2046 15.7097 18.4696M16.9797 16.7446C16.9797 16.7446 17.4647 16.8646 17.8647 16.6646M20.0947 15.8996C20.0947 15.8996 20.1997 16.0496 20.7397 16.0246M17.9947 15.5596C18.0097 15.5696 18.6297 15.7696 19.0197 15.5896M19.2297 13.1996C19.2297 13.1996 19.2547 13.1646 19.4447 13.8346M19.7047 11.3146C19.7047 11.3146 19.6797 11.6696 19.3947 11.8246M21.5397 9.85458C21.5397 9.85458 21.1197 10.1946 21.1997 10.3296M19.4647 9.60958C19.4647 9.60958 19.6797 9.97458 19.3247 10.2246M18.4097 8.04958C18.4097 8.04958 18.7847 8.03458 18.9497 8.35458M17.7097 6.98958H17.9947M19.1947 5.68958C19.1947 5.69458 19.2697 5.76458 19.1247 5.91458M16.5247 5.72458C16.5247 5.72458 16.7247 6.03458 16.6897 6.41958M17.6797 4.66458C17.7697 4.65458 18.0647 4.52458 18.0647 4.52458M16.3947 3.42459C16.3897 3.42459 16.2847 3.80959 16.4747 3.94959M15.9197 5.19958C15.9197 5.61958 16.2497 5.51458 16.0197 5.91458M15.1097 4.84958C14.9177 4.98426 14.743 5.14214 14.5897 5.31958M13.7697 4.63458C13.7697 4.63458 13.9897 4.84958 13.9347 5.14458M13.1347 4.45958C13.1347 4.45958 13.0247 4.78958 12.8797 4.87458M11.9797 4.37458C11.9747 4.38958 11.7997 4.76458 11.6797 4.82958M10.3997 4.37958C10.4097 4.37958 10.5747 4.72958 10.3597 4.97958M10.0347 2.57959C10.0447 2.58959 10.0697 2.84959 9.90469 3.07959M8.46969 3.17459C8.46969 3.17959 8.53968 3.46959 8.07968 3.56459M7.58469 5.82458C7.59469 5.83958 8.02968 5.90958 8.02968 5.90958M6.49969 6.82958C6.50969 6.81958 7.02968 6.66458 7.02968 6.66458M5.65968 7.47958C5.67468 7.47958 6.02469 7.54458 6.10969 7.49958M5.40968 7.79958C5.40968 7.79958 5.52468 7.86458 5.42968 8.44958M3.71968 6.27458L3.92968 6.58458M3.00468 7.88458C3.00468 7.87458 3.21468 8.19458 3.49468 8.25458M4.64468 9.51458C4.7806 9.49254 4.9144 9.4591 5.04468 9.41458M4.49969 10.6896C4.50969 10.6896 4.49468 10.4746 4.75968 10.3246M4.14969 11.2346C4.14969 11.2446 4.39969 11.5546 4.57469 11.5996M3.99968 11.8346C4.02968 11.8246 4.29968 11.5896 4.60968 11.6096M3.91468 12.6396C3.91468 12.6396 3.92468 12.9096 4.72469 12.8396M3.99468 13.5896C3.99468 13.5796 4.22968 13.0496 4.70468 12.8496M4.63468 14.2696C4.63468 14.2696 4.70468 14.0396 5.10468 13.8846M5.07968 15.1596C5.07968 15.1596 5.36468 14.9246 5.46968 14.8946M5.43468 15.8596C5.43468 15.8596 5.60968 16.0396 6.04468 15.7246M3.34468 16.0046C3.39468 15.9946 4.02968 15.8496 4.24468 16.1796M3.59468 16.5296C3.59468 16.5296 4.26469 16.4396 4.34969 16.5096M5.98469 16.6646C5.98469 16.6646 5.89468 16.8496 6.71968 16.5446M7.00969 16.9946C6.85969 17.2446 7.04469 17.4446 6.84969 17.5596M4.49969 17.3446C4.52469 17.3246 4.79968 17.2296 4.75968 16.8296M4.74969 17.9446C4.78469 17.9346 5.24468 17.7346 5.33968 17.8396M5.65468 18.5246C5.65468 18.5246 5.71468 18.1146 5.84468 18.0746M6.34468 19.1396C6.34468 19.1396 6.72968 19.1346 6.89468 19.0096M7.08469 17.7596C7.09469 17.7696 7.43969 17.9496 8.18469 17.7696M7.36468 19.4196C7.36468 19.4196 7.46468 19.9496 7.46468 20.0696" stroke="black" stroke-width="0.2375"/>
<path fill-rule="evenodd" clip-rule="evenodd" d="M20.6999 11.2712C20.6792 11.1054 20.5941 10.9477 20.4872 10.8769C20.3632 10.7998 20.2345 10.8159 20.1494 10.9191C20.0642 11.0223 20.0115 11.1889 20.0322 11.3546C20.054 11.5287 20.138 11.6781 20.246 11.7572C20.37 11.8343 20.4987 11.8182 20.5838 11.715C20.6689 11.6117 20.7297 11.4442 20.7009 11.2795L20.6999 11.2712Z" fill="#DE2010" stroke="black" stroke-width="0.30858"/>
<path fill-rule="evenodd" clip-rule="evenodd" d="M20.6296 10.3869C20.6089 10.2212 20.5238 10.0634 20.4169 9.9926C20.2929 9.91552 20.1642 9.9316 20.079 10.0348C19.9939 10.1381 19.9412 10.3046 19.9619 10.4704C19.9837 10.6444 20.0677 10.7938 20.1756 10.873C20.2996 10.95 20.4284 10.934 20.5135 10.8307C20.5986 10.7275 20.6594 10.56 20.6306 10.3952L20.6296 10.3869Z" fill="#DE2010" stroke="black" stroke-width="0.30858"/>
<path fill-rule="evenodd" clip-rule="evenodd" d="M20.4431 9.43852C20.4079 9.27524 20.3093 9.1256 20.1966 9.06444C20.0663 8.99856 19.9395 9.02588 19.8638 9.1362C19.788 9.24652 19.7502 9.41704 19.7854 9.58032C19.8223 9.7518 19.9192 9.89328 20.0336 9.9626C20.1639 10.0285 20.2907 10.0012 20.3665 9.89084C20.4422 9.78052 20.488 9.60828 20.4449 9.44668L20.4431 9.43852Z" fill="#DE2010" stroke="black" stroke-width="0.308582"/>
<path fill-rule="evenodd" clip-rule="evenodd" d="M20.1218 8.46183C20.0462 8.31291 19.9127 8.19335 19.7881 8.16295C19.6453 8.13247 19.5297 8.19123 19.4846 8.31719C19.4394 8.44319 19.4463 8.61771 19.522 8.76663C19.6014 8.92303 19.7311 9.03511 19.8594 9.07295C20.0023 9.10347 20.1179 9.04471 20.163 8.91875C20.2081 8.79275 20.2085 8.61455 20.1256 8.46927L20.1218 8.46183Z" fill="#DE2010" stroke="black" stroke-width="0.308581"/>
<path fill-rule="evenodd" clip-rule="evenodd" d="M19.7718 7.66642C19.6962 7.5175 19.5627 7.39794 19.4381 7.36754C19.2953 7.33706 19.1797 7.39582 19.1346 7.52178C19.0894 7.64778 19.0963 7.8223 19.172 7.97122C19.2514 8.12762 19.3811 8.23974 19.5094 8.27758C19.6523 8.30806 19.7679 8.2493 19.813 8.12334C19.8581 7.99734 19.8585 7.81914 19.7756 7.6739L19.7718 7.66642Z" fill="#DE2010" stroke="black" stroke-width="0.308581"/>
<path fill-rule="evenodd" clip-rule="evenodd" d="M19.2767 6.87475C19.1887 6.73279 19.0455 6.62495 18.9188 6.60523C18.774 6.58691 18.6637 6.65527 18.6294 6.78463C18.5952 6.91395 18.6168 7.08727 18.7048 7.22927C18.7972 7.37835 18.9359 7.47907 19.067 7.50591C19.2119 7.52423 19.3221 7.45587 19.3564 7.32651C19.3907 7.19719 19.376 7.01959 19.2811 6.88187L19.2767 6.87475Z" fill="#DE2010" stroke="black" stroke-width="0.308581"/>
<path fill-rule="evenodd" clip-rule="evenodd" d="M18.7238 6.10371C18.6225 5.97091 18.4696 5.87743 18.3416 5.87003C18.1956 5.86583 18.0925 5.94451 18.0709 6.07655C18.0493 6.20859 18.0875 6.37903 18.1889 6.51183C18.2952 6.65131 18.4431 6.73815 18.5762 6.75215C18.7221 6.75639 18.8252 6.67771 18.8469 6.54563C18.8685 6.41359 18.8367 6.23823 18.7289 6.11035L18.7238 6.10371Z" fill="#DE2010" stroke="black" stroke-width="0.308581"/>
<path fill-rule="evenodd" clip-rule="evenodd" d="M18.062 5.39304C17.9425 5.27632 17.7776 5.206 17.6499 5.21724C17.5049 5.23424 17.4142 5.327 17.412 5.4608C17.4098 5.5946 17.4723 5.75768 17.5918 5.8744C17.7173 5.99696 17.8762 6.06144 18.0098 6.05604C18.1549 6.03904 18.2455 5.94628 18.2478 5.81248C18.25 5.67868 18.1931 5.5098 18.068 5.39888L18.062 5.39304Z" fill="#DE2010" stroke="black" stroke-width="0.308582"/>
<path fill-rule="evenodd" clip-rule="evenodd" d="M17.322 4.73851C17.1923 4.63327 17.0217 4.57843 16.8956 4.60135C16.7527 4.63163 16.671 4.73235 16.6811 4.86579C16.6912 4.99923 16.7684 5.15587 16.8982 5.26111C17.0344 5.37159 17.1985 5.42119 17.3312 5.40351C17.474 5.37323 17.5557 5.27251 17.5456 5.13907C17.5356 5.00563 17.4634 4.84271 17.3285 4.74379L17.322 4.73851Z" fill="#DE2010" stroke="black" stroke-width="0.308581"/>
<path fill-rule="evenodd" clip-rule="evenodd" d="M16.5376 4.21481C16.3922 4.13257 16.2148 4.10677 16.0942 4.15033C15.9584 4.20389 15.8945 4.31681 15.9266 4.44673C15.9587 4.57661 16.0609 4.71825 16.2063 4.80049C16.359 4.88685 16.529 4.90853 16.6569 4.86905C16.7928 4.81549 16.8566 4.70261 16.8245 4.57269C16.7924 4.44277 16.6942 4.29409 16.5448 4.21893L16.5376 4.21481Z" fill="#DE2010" stroke="black" stroke-width="0.308582"/>
<path fill-rule="evenodd" clip-rule="evenodd" d="M15.6576 3.74908C15.5053 3.68042 15.3264 3.67089 15.2102 3.72524C15.0798 3.79095 15.0265 3.9092 15.0703 4.03566C15.1141 4.1621 15.2288 4.29382 15.381 4.3625C15.541 4.43458 15.7123 4.4407 15.836 4.38978C15.9664 4.32406 16.0198 4.20582 15.976 4.07938C15.9322 3.95292 15.8208 3.81379 15.6652 3.75252L15.6576 3.74908Z" fill="#DE2010" stroke="black" stroke-width="0.308581"/>
<path fill-rule="evenodd" clip-rule="evenodd" d="M14.7954 3.40169C14.6389 3.3434 14.4597 3.34588 14.3475 3.4079C14.2218 3.4822 14.1765 3.60375 14.2287 3.72698C14.2808 3.85021 14.4041 3.97397 14.5606 4.03226C14.725 4.09346 14.8964 4.0881 15.0164 4.02898C15.1421 3.95468 15.1874 3.83312 15.1352 3.70989C15.0831 3.58666 14.9627 3.45531 14.8033 3.40461L14.7954 3.40169Z" fill="#DE2010" stroke="black" stroke-width="0.308581"/>
<path fill-rule="evenodd" clip-rule="evenodd" d="M13.9192 3.13009C13.7587 3.08391 13.5802 3.10006 13.473 3.17047C13.3534 3.25414 13.3175 3.3788 13.3789 3.49769C13.4403 3.61658 13.5727 3.73057 13.7332 3.77674C13.9018 3.82523 14.0722 3.80677 14.1874 3.73868C14.3071 3.655 14.3429 3.53035 14.2815 3.41145C14.2201 3.29257 14.09 3.17079 13.9272 3.1324L13.9192 3.13009Z" fill="#DE2010" stroke="black" stroke-width="0.308581"/>
<path fill-rule="evenodd" clip-rule="evenodd" d="M12.9575 2.96369C12.7918 2.94278 12.618 2.98623 12.5229 3.07229C12.4176 3.1734 12.4013 3.30209 12.4803 3.41011C12.5593 3.51812 12.7076 3.61037 12.8733 3.63127C13.0474 3.65322 13.2129 3.60873 13.3162 3.52371C13.4216 3.4226 13.4378 3.29391 13.3589 3.18589C13.2799 3.07788 13.1326 2.97759 12.9658 2.96473L12.9575 2.96369Z" fill="#DE2010" stroke="black" stroke-width="0.308581"/>
<path fill-rule="evenodd" clip-rule="evenodd" d="M12.0038 2.91117C11.8368 2.90446 11.6673 2.96256 11.58 3.05642C11.4836 3.16614 11.4784 3.29574 11.5663 3.39664C11.6542 3.49753 11.8098 3.5768 11.9768 3.5835C12.152 3.59054 12.3132 3.5321 12.4089 3.43858C12.5053 3.32887 12.5105 3.19926 12.4226 3.09837C12.3347 2.99748 12.1794 2.9101 12.0121 2.9115L12.0038 2.91117Z" fill="#DE2010" stroke="black" stroke-width="0.308582"/>
<path fill-rule="evenodd" clip-rule="evenodd" d="M11.1288 2.94095C10.9618 2.93425 10.7923 2.99235 10.705 3.0862C10.6086 3.19592 10.6034 3.32553 10.6913 3.42642C10.7792 3.52731 10.9348 3.60658 11.1018 3.61329C11.277 3.62033 11.4382 3.56189 11.5339 3.46837C11.6303 3.35865 11.6355 3.22905 11.5476 3.12815C11.4597 3.02726 11.3044 2.93989 11.1371 2.94129L11.1288 2.94095Z" fill="#DE2010" stroke="black" stroke-width="0.308582"/>
<path fill-rule="evenodd" clip-rule="evenodd" d="M10.1087 3.06215C9.94588 3.09938 9.79748 3.19983 9.73772 3.31328C9.67344 3.44439 9.70236 3.57084 9.8136 3.6452C9.92488 3.71956 10.0958 3.75533 10.2587 3.7181C10.4297 3.67902 10.5699 3.58042 10.6378 3.46512C10.7021 3.334 10.6732 3.20755 10.562 3.13319C10.4507 3.05883 10.2779 3.01516 10.1169 3.06029L10.1087 3.06215Z" fill="#DE2010" stroke="black" stroke-width="0.308581"/>
<path fill-rule="evenodd" clip-rule="evenodd" d="M9.17896 3.29438C9.01972 3.34491 8.88012 3.45726 8.82992 3.57524C8.77668 3.71122 8.81592 3.83485 8.93292 3.89978C9.04992 3.96472 9.22328 3.98626 9.38248 3.93572C9.54968 3.88267 9.68132 3.77285 9.73948 3.65233C9.79272 3.51636 9.75348 3.39272 9.63648 3.32779C9.51948 3.26286 9.34368 3.23359 9.18692 3.29185L9.17896 3.29438Z" fill="#DE2010" stroke="black" stroke-width="0.308582"/>
<path fill-rule="evenodd" clip-rule="evenodd" d="M8.33164 3.65947C8.17956 3.72861 8.05432 3.85678 8.01856 3.97991C7.98188 4.12126 8.03556 4.23934 8.15944 4.28986C8.28336 4.34042 8.45804 4.34114 8.61012 4.27202C8.76976 4.19942 8.8874 4.0747 8.9308 3.94811C8.96744 3.80676 8.91376 3.68868 8.78988 3.63815C8.66596 3.58761 8.48796 3.5795 8.33924 3.65601L8.33164 3.65947Z" fill="#DE2010" stroke="black" stroke-width="0.30858"/>
<path fill-rule="evenodd" clip-rule="evenodd" d="M7.48504 4.09228C7.3394 4.17412 7.22556 4.31252 7.20044 4.43824C7.17596 4.5822 7.23952 4.69528 7.36728 4.73504C7.49504 4.77483 7.66912 4.76068 7.81476 4.6788C7.96764 4.59288 8.0742 4.45856 8.10664 4.32876C8.13112 4.1848 8.06756 4.07172 7.93976 4.03192C7.812 3.99215 7.63396 3.99924 7.49232 4.08816L7.48504 4.09228Z" fill="#DE2010" stroke="black" stroke-width="0.308579"/>
<path fill-rule="evenodd" clip-rule="evenodd" d="M6.68232 4.63682C6.54644 4.73402 6.44832 4.88398 6.437 5.0117C6.42832 5.15746 6.5038 5.26294 6.63512 5.28862C6.76644 5.31426 6.93796 5.28126 7.07384 5.1841C7.21648 5.08202 7.3078 4.93694 7.32592 4.80438C7.33464 4.65858 7.25916 4.5531 7.12784 4.52746C6.99648 4.50178 6.82024 4.52818 6.68912 4.63198L6.68232 4.63682Z" fill="#DE2010" stroke="black" stroke-width="0.30858"/>
<path fill-rule="evenodd" clip-rule="evenodd" d="M5.94484 5.19877C5.81772 5.30713 5.7326 5.46485 5.73212 5.59305C5.7358 5.73905 5.81996 5.83777 5.95296 5.85221C6.086 5.86669 6.25412 5.81929 6.38128 5.71093C6.51476 5.59717 6.59352 5.44489 6.60036 5.31125C6.59668 5.16529 6.51252 5.06653 6.37952 5.05209C6.24648 5.03765 6.07312 5.07885 5.9512 5.19337L5.94484 5.19877Z" fill="#DE2010" stroke="black" stroke-width="0.308579"/>
<path fill-rule="evenodd" clip-rule="evenodd" d="M5.2888 5.88237C5.16976 5.99957 5.0962 6.16297 5.10492 6.29089C5.11904 6.43621 5.21004 6.52865 5.34376 6.53353C5.47748 6.53841 5.64176 6.47909 5.7608 6.36193C5.88584 6.23889 5.95344 6.08133 5.95068 5.94753C5.93652 5.80221 5.84556 5.70977 5.71184 5.70489C5.57808 5.70001 5.40812 5.75357 5.29476 5.87653L5.2888 5.88237Z" fill="#DE2010" stroke="black" stroke-width="0.30858"/>
<path fill-rule="evenodd" clip-rule="evenodd" d="M4.7268 6.64401C4.61796 6.77073 4.55833 6.93973 4.57773 7.06649C4.60397 7.21013 4.7024 7.29465 4.83604 7.28829C4.96972 7.28197 5.12845 7.20909 5.23729 7.08237C5.35157 6.94929 5.40573 6.78665 5.39181 6.65357C5.36553 6.50993 5.26712 6.42541 5.13344 6.43173C4.9998 6.43805 4.83493 6.50565 4.73225 6.63769L4.7268 6.64401Z" fill="#DE2010" stroke="black" stroke-width="0.308581"/>
<path fill-rule="evenodd" clip-rule="evenodd" d="M4.21052 7.41775C4.11584 7.55539 4.07456 7.72975 4.10736 7.85371C4.1488 7.99375 4.25564 8.06727 4.38788 8.04671C4.52008 8.02619 4.67016 7.93679 4.76484 7.79919C4.86428 7.65467 4.9008 7.48715 4.87276 7.35635C4.83132 7.21631 4.72448 7.14279 4.59224 7.16331C4.46004 7.18387 4.30328 7.26867 4.21528 7.41087L4.21052 7.41775Z" fill="#DE2010" stroke="black" stroke-width="0.308581"/>
<path fill-rule="evenodd" clip-rule="evenodd" d="M3.78344 8.29753C3.7138 8.44937 3.70308 8.62825 3.75668 8.74473C3.82156 8.87553 3.93944 8.92961 4.06616 8.88669C4.19292 8.84373 4.3254 8.72989 4.39504 8.57805C4.46816 8.41861 4.47536 8.24733 4.42524 8.12325C4.3604 7.99241 4.24248 7.93833 4.11576 7.98129C3.98904 8.02425 3.8492 8.13469 3.78692 8.28993L3.78344 8.29753Z" fill="#DE2010" stroke="black" stroke-width="0.30858"/>
<path fill-rule="evenodd" clip-rule="evenodd" d="M3.44461 9.22038C3.38901 9.3779 3.39457 9.55702 3.45853 9.66814C3.53497 9.79258 3.65729 9.83574 3.77957 9.78146C3.90189 9.72722 4.02353 9.60182 4.07913 9.4443C4.13749 9.2789 4.12913 9.10766 4.06797 8.98862C3.99153 8.86422 3.86921 8.82106 3.74689 8.87534C3.62457 8.92958 3.49533 9.05226 3.44737 9.2125L3.44461 9.22038Z" fill="#DE2010" stroke="black" stroke-width="0.30858"/>
<path fill-rule="evenodd" clip-rule="evenodd" d="M3.14993 10.968C3.13453 11.1013 3.18364 11.2395 3.2728 11.3133C3.37732 11.3951 3.50649 11.4047 3.61185 11.3385C3.71721 11.2724 3.80453 11.1511 3.81993 11.0178C3.83613 10.8778 3.78621 10.7463 3.69785 10.6657C3.59333 10.584 3.46417 10.5744 3.35881 10.6405C3.25345 10.7067 3.15809 10.8273 3.15073 10.9613L3.14993 10.968Z" fill="#DE2010" stroke="black" stroke-width="0.276403"/>
<path fill-rule="evenodd" clip-rule="evenodd" d="M3.22708 10.1542C3.18996 10.3171 3.21608 10.4944 3.29236 10.5975C3.3826 10.7123 3.50904 10.7411 3.62432 10.6731C3.7396 10.6052 3.846 10.4667 3.88312 10.3038C3.92212 10.1328 3.89416 9.96363 3.81972 9.85243C3.72948 9.73763 3.603 9.70879 3.48776 9.77675C3.37248 9.84471 3.25816 9.98143 3.22896 10.1461L3.22708 10.1542Z" fill="#DE2010" stroke="black" stroke-width="0.308579"/>
<path fill-rule="evenodd" clip-rule="evenodd" d="M19.9998 9.73427C20.1098 9.61927 20.2098 9.58427 20.3348 9.62927C20.2848 9.32427 20.1948 9.21927 20.0748 9.25927C19.9598 9.29427 19.9048 9.44927 19.9998 9.73427ZM20.1648 10.6443C20.2798 10.5393 20.3798 10.5143 20.5048 10.5643C20.4848 10.2643 20.3948 10.1493 20.2748 10.1793C20.1548 10.2043 20.0948 10.3593 20.1648 10.6443ZM19.7748 8.89427C19.8498 8.75927 19.9398 8.70427 20.0748 8.70927C19.9498 8.42927 19.8348 8.35427 19.7248 8.41927C19.6248 8.48427 19.6148 8.64927 19.7748 8.89927V8.89427ZM19.3698 8.06427C19.4448 7.92427 19.5348 7.86927 19.6698 7.87927C19.5448 7.59427 19.4248 7.51927 19.3198 7.58427C19.2198 7.64927 19.2098 7.81427 19.3698 8.06427ZM18.3948 6.53927C18.4448 6.38927 18.5248 6.31927 18.6548 6.30927C18.4898 6.04927 18.3598 5.99427 18.2698 6.07427C18.1798 6.15427 18.1948 6.32427 18.3948 6.53927ZM17.7498 5.87427C17.7998 5.72427 17.8698 5.65427 17.9998 5.63427C17.8298 5.38427 17.6998 5.33427 17.6098 5.41427C17.5198 5.49927 17.5398 5.66427 17.7498 5.87427ZM16.4148 4.74927C16.4148 4.58927 16.4648 4.49927 16.5798 4.43927C16.3398 4.25427 16.1948 4.24927 16.1398 4.35427C16.0848 4.45927 16.1498 4.60927 16.4148 4.74927ZM17.1148 5.27427C17.1348 5.11927 17.1998 5.03427 17.3298 4.99927C17.1198 4.77427 16.9848 4.73927 16.9098 4.83427C16.8348 4.93427 16.8748 5.08927 17.1098 5.27427H17.1148ZM15.6148 4.30927C15.5998 4.15427 15.6398 4.05927 15.7498 3.98427C15.4898 3.82427 15.3498 3.83427 15.2998 3.94427C15.2548 4.05927 15.3398 4.19927 15.6198 4.30927H15.6148ZM14.8098 3.94927C14.7698 3.79927 14.7948 3.69927 14.8948 3.60927C14.6148 3.48927 14.4748 3.51427 14.4448 3.63427C14.4148 3.75427 14.5198 3.87927 14.8098 3.94927ZM13.9348 3.67927C13.8798 3.52927 13.8948 3.42927 13.9898 3.32927C13.6998 3.23427 13.5648 3.27427 13.5398 3.39427C13.5248 3.51427 13.6398 3.63427 13.9348 3.67927ZM13.0698 3.50927C13.0098 3.36927 13.0198 3.25927 13.1048 3.15927C12.8048 3.08427 12.6748 3.13427 12.6648 3.25927C12.6498 3.37927 12.7748 3.48927 13.0698 3.50927ZM12.1598 3.43927C12.0798 3.30427 12.0798 3.19927 12.1598 3.08927C11.8548 3.04427 11.7248 3.10927 11.7298 3.22927C11.7298 3.35427 11.8648 3.44927 12.1598 3.43927ZM10.3748 3.57427C10.2648 3.46427 10.2398 3.35927 10.2848 3.23427C9.98476 3.26427 9.87476 3.35427 9.90476 3.47427C9.93476 3.59427 10.0898 3.65427 10.3748 3.57427ZM11.2548 3.45927C11.1598 3.33427 11.1448 3.22927 11.2098 3.10927C10.9048 3.09927 10.7848 3.17427 10.7998 3.29927C10.8148 3.41927 10.9598 3.49927 11.2498 3.45927H11.2548ZM9.50976 3.75927C9.38976 3.66427 9.34476 3.56927 9.37476 3.43927C9.07476 3.51427 8.98476 3.61927 9.02976 3.72927C9.07976 3.84427 9.23976 3.87927 9.50976 3.75927ZM7.85976 4.51927C7.71976 4.44927 7.65976 4.36427 7.66476 4.22927C7.38476 4.35927 7.31476 4.47927 7.38476 4.57927C7.44976 4.67927 7.61476 4.68927 7.85976 4.51927ZM8.65976 4.11427C8.52476 4.02927 8.47976 3.93427 8.49976 3.80427C8.20476 3.89427 8.11976 4.00427 8.17476 4.11427C8.22976 4.22427 8.39476 4.25427 8.65476 4.11427H8.65976ZM6.37976 5.55427C6.22976 5.51427 6.14976 5.43927 6.12976 5.30427C5.87976 5.49427 5.83976 5.62427 5.92476 5.70927C6.01476 5.79427 6.17476 5.76927 6.37476 5.55427H6.37976ZM7.08476 4.97427C6.93476 4.92427 6.86476 4.84427 6.85476 4.71427C6.59476 4.87427 6.53976 5.00427 6.61976 5.09927C6.69976 5.18927 6.86976 5.17427 7.08476 4.97427ZM5.74976 6.17427C5.59976 6.14427 5.51476 6.07927 5.47976 5.94927C5.24976 6.15427 5.21976 6.29427 5.31476 6.36927C5.40976 6.44927 5.56476 6.40427 5.74976 6.16927V6.17427ZM5.18476 6.89927C5.02476 6.88927 4.93476 6.83427 4.89476 6.70927C4.68476 6.93427 4.66476 7.06927 4.76476 7.13927C4.86476 7.20927 5.01976 7.14927 5.18476 6.89927ZM4.71476 7.64927C4.55476 7.65927 4.46476 7.61427 4.39476 7.49927C4.22476 7.75427 4.22476 7.89927 4.33476 7.94927C4.44476 7.99927 4.58976 7.91927 4.71476 7.64927ZM4.29976 8.44927C4.14976 8.47927 4.04976 8.44927 3.96476 8.33927C3.82976 8.61427 3.84976 8.75427 3.96476 8.78927C4.07976 8.82927 4.21476 8.72927 4.29976 8.44427V8.44927ZM3.96976 9.26427C3.81976 9.31927 3.71976 9.30427 3.61976 9.21427C3.52976 9.50427 3.56976 9.63927 3.69476 9.65927C3.81476 9.67427 3.92976 9.55927 3.96976 9.25927V9.26427ZM3.74476 10.1743C3.60476 10.2393 3.49976 10.2343 3.39476 10.1493C3.32476 10.4493 3.37476 10.5743 3.49476 10.5843C3.61976 10.5993 3.72976 10.4743 3.74476 10.1743ZM3.65476 10.9343C3.52476 11.0043 3.41976 11.0143 3.30476 10.9593C3.26976 11.2043 3.33476 11.2993 3.45476 11.2893C3.57476 11.2793 3.66976 11.1693 3.65476 10.9343ZM19.0048 7.32427C19.0598 7.17427 19.1398 7.10427 19.2698 7.09427C19.1098 6.83427 18.9848 6.77927 18.8898 6.85427C18.7948 6.93427 18.8098 7.10427 19.0048 7.32427ZM20.2648 11.5743C20.3798 11.4643 20.4848 11.4393 20.6048 11.4943C20.5848 11.1893 20.4948 11.0793 20.3748 11.1043C20.2598 11.1343 20.1948 11.2843 20.2648 11.5743Z" fill="#FFE300"/>
<path fill-rule="evenodd" clip-rule="evenodd" d="M19.0649 6.6001C19.0649 6.6001 18.7149 6.9451 18.7799 7.3601C18.8399 7.7751 19.1049 8.2901 19.0549 8.7251C19.0049 9.1551 18.9299 9.4401 18.9299 9.4401C18.9299 9.4401 19.3299 8.9851 19.3299 8.5401C19.3399 8.1051 19.0599 7.5251 19.0599 7.2051C19.0599 6.8851 19.0749 6.5951 19.0649 6.6051V6.6001ZM19.6999 8.0001C19.6999 8.0001 19.4349 8.2001 19.4599 8.6501C19.4849 9.1051 19.9599 9.9401 19.9599 9.9401C19.9599 9.9401 20.2999 10.6401 20.2849 10.8251C20.2749 11.0101 20.3499 10.6501 20.3149 10.2501C20.2799 9.8501 19.7649 8.9601 19.7649 8.9601C19.7649 8.9601 19.6549 8.7801 19.6649 8.4751C19.6749 8.1751 19.7049 8.0051 19.7049 8.0001H19.6999Z" fill="#217900" stroke="black" stroke-width="0.2375" stroke-linejoin="round"/>
<path fill-rule="evenodd" clip-rule="evenodd" d="M11.6494 2.36995C11.6494 2.27995 11.5394 2.19995 11.4094 2.19995C11.2794 2.19995 11.1744 2.27995 11.1744 2.36995C11.1744 2.45995 11.2744 2.53995 11.4094 2.53995C11.5444 2.53995 11.6444 2.46495 11.6444 2.36995H11.6494ZM11.7494 2.76995C11.7494 2.67995 11.6394 2.60495 11.4994 2.60495C11.3694 2.60495 11.2594 2.67495 11.2594 2.76495C11.2594 2.85495 11.3694 2.92995 11.5044 2.92995C11.6394 2.92995 11.7444 2.85495 11.7444 2.76495L11.7494 2.76995ZM12.0494 2.29995C12.0494 2.29995 11.7694 2.50495 11.8844 2.58995C11.9994 2.67495 12.3144 2.40995 12.3144 2.40995L12.0494 2.29995ZM20.2144 7.06995C20.2144 7.00995 20.1894 6.95495 20.1444 6.92495C20.1225 6.90947 20.0963 6.90115 20.0694 6.90115C20.0426 6.90115 20.0164 6.90947 19.9944 6.92495C19.9494 6.95495 19.9244 7.00995 19.9244 7.06995C19.9244 7.12995 19.9494 7.18495 19.9944 7.21495C20.0164 7.23043 20.0426 7.23875 20.0694 7.23875C20.0963 7.23875 20.1225 7.23043 20.1444 7.21495C20.1894 7.18495 20.2144 7.12995 20.2144 7.06995ZM20.1094 6.66995C20.1094 6.56995 20.0394 6.49495 19.9594 6.49495C19.8794 6.49495 19.8044 6.57495 19.8044 6.67495C19.8044 6.77495 19.8744 6.84995 19.9544 6.84995C20.0344 6.84995 20.1094 6.76995 20.1094 6.67495V6.66995ZM20.1844 7.47995C20.1844 7.42995 20.1544 7.38995 20.1244 7.38995C20.0944 7.38995 20.0644 7.42995 20.0644 7.47995C20.0644 7.52995 20.0894 7.57495 20.1244 7.57495C20.1594 7.57495 20.1844 7.52995 20.1844 7.47995ZM20.4294 6.75995C20.4294 6.69995 20.3994 6.65495 20.3694 6.65495C20.3344 6.65495 20.3094 6.69995 20.3094 6.75495C20.3094 6.80995 20.3344 6.86495 20.3694 6.86495C20.3994 6.86495 20.4294 6.81495 20.4294 6.75995ZM19.7594 6.82995C19.7594 6.77995 19.7294 6.74495 19.6994 6.74495C19.6694 6.74495 19.6394 6.78495 19.6394 6.82995C19.6394 6.87495 19.6644 6.91995 19.6994 6.91995C19.7344 6.91995 19.7594 6.87995 19.7594 6.82995ZM19.8644 7.39995C19.8644 7.32495 19.8094 7.26495 19.7394 7.26495C19.6694 7.26495 19.6144 7.32495 19.6144 7.39995C19.6144 7.47995 19.6644 7.53995 19.7394 7.53995C19.8144 7.53995 19.8644 7.47995 19.8644 7.39995ZM19.5344 7.14995C19.5344 7.08495 19.4844 7.02995 19.4294 7.02995C19.3694 7.02995 19.3194 7.07995 19.3194 7.14995C19.3194 7.21995 19.3694 7.26995 19.4294 7.26995C19.4844 7.26995 19.5294 7.21995 19.5294 7.14995H19.5344ZM19.4844 6.80995C19.4842 6.79267 19.4794 6.77575 19.4706 6.76087C19.4619 6.74595 19.4494 6.73359 19.4344 6.72495C19.4202 6.71607 19.4037 6.71139 19.387 6.71139C19.3702 6.71139 19.3537 6.71607 19.3394 6.72495C19.3254 6.73419 19.3139 6.74683 19.3061 6.76167C19.2982 6.77655 19.2942 6.79315 19.2944 6.80995C19.2938 6.82807 19.2982 6.84603 19.307 6.86187C19.3158 6.87775 19.3287 6.89091 19.3444 6.89995C19.3581 6.90783 19.3736 6.91199 19.3894 6.91199C19.4052 6.91199 19.4208 6.90783 19.4344 6.89995C19.4644 6.87995 19.4844 6.84995 19.4844 6.80995ZM20.9894 8.52995C20.8544 8.34995 20.6344 8.27495 20.4994 8.35995C20.3694 8.44495 20.3694 8.65995 20.5094 8.84495C20.6444 9.02495 20.8594 9.09995 20.9944 9.01495C21.1294 8.92495 21.1294 8.71495 20.9944 8.52995H20.9894ZM21.3794 11.865C21.4044 11.64 21.2994 11.445 21.1394 11.425C20.9794 11.41 20.8294 11.575 20.7994 11.795C20.7744 12.015 20.8844 12.21 21.0444 12.23C21.2044 12.25 21.3544 12.08 21.3794 11.865ZM21.4594 13.805C21.5094 13.585 21.4144 13.38 21.2594 13.345C21.0994 13.315 20.9344 13.465 20.8894 13.685C20.8444 13.9 20.9394 14.105 21.0894 14.135C21.2494 14.17 21.4144 14.02 21.4594 13.8V13.805ZM21.8344 11.985C21.8344 11.9 21.7744 11.83 21.7044 11.83C21.6344 11.83 21.5694 11.9 21.5694 11.985C21.5694 12.075 21.6294 12.145 21.7044 12.145C21.7794 12.145 21.8344 12.075 21.8344 11.985ZM21.5094 12.35L21.2394 12.66C21.2394 12.66 20.9844 12.665 20.9994 12.75C21.0094 12.83 21.3494 13.08 21.3494 13.18C21.3444 13.28 21.5694 13.155 21.5694 13.155L21.7544 12.6C21.7544 12.6 21.7444 12.215 21.6444 12.22C21.5444 12.23 21.5194 12.345 21.5094 12.35ZM3.63944 12.23C3.6432 12.2111 3.64272 12.1916 3.63804 12.173C3.6334 12.1544 3.62464 12.137 3.61244 12.1221C3.60024 12.1073 3.58492 12.0953 3.56752 12.0871C3.55016 12.0788 3.53116 12.0746 3.51196 12.0746C3.49272 12.0746 3.47376 12.0788 3.45636 12.0871C3.439 12.0953 3.42364 12.1073 3.41144 12.1221C3.39928 12.137 3.39052 12.1544 3.38584 12.173C3.38116 12.1916 3.38068 12.2111 3.38444 12.23C3.39032 12.2594 3.40624 12.286 3.42948 12.3051C3.45272 12.3242 3.48188 12.3346 3.51196 12.3346C3.54204 12.3346 3.57116 12.3242 3.5944 12.3051C3.61768 12.286 3.6336 12.2594 3.63944 12.23ZM3.76444 11.83C3.76444 11.76 3.70444 11.7 3.63444 11.7C3.56444 11.7 3.50444 11.76 3.50444 11.835C3.50444 11.91 3.56444 11.97 3.63444 11.97C3.6694 11.9687 3.70244 11.9539 3.72668 11.9287C3.75092 11.9035 3.76448 11.8699 3.76444 11.835V11.83ZM2.69944 9.95995C2.64944 9.84995 2.54944 9.78995 2.47444 9.82495C2.39944 9.85995 2.37444 9.97495 2.42444 10.085C2.47444 10.195 2.57444 10.255 2.64944 10.22C2.72944 10.185 2.74944 10.07 2.69944 9.95995ZM3.02444 11.13C2.95444 10.99 2.81944 10.91 2.71444 10.955C2.60944 11 2.57943 11.15 2.64443 11.29C2.70943 11.43 2.84444 11.51 2.95444 11.465C3.06444 11.42 3.08944 11.27 3.02444 11.13ZM3.36444 11.99C3.38944 11.815 3.31444 11.65 3.20444 11.63C3.08944 11.605 2.98444 11.73 2.95944 11.905C2.93944 12.08 3.00944 12.24 3.12444 12.265C3.23444 12.29 3.34444 12.165 3.36444 11.99ZM2.81444 12.115C2.88444 11.95 2.85944 11.775 2.75944 11.725C2.65944 11.675 2.51944 11.76 2.44944 11.925C2.37944 12.09 2.40444 12.26 2.50944 12.315C2.61444 12.37 2.74444 12.28 2.81444 12.115Z" fill="#6B18B5"/>
<path fill-rule="evenodd" clip-rule="evenodd" d="M2.56573 11.7405C2.56573 11.6555 2.50073 11.5905 2.42073 11.5905C2.34073 11.5905 2.27573 11.6605 2.27573 11.7405C2.27573 11.8205 2.34073 11.8905 2.42573 11.8905C2.51073 11.8905 2.56573 11.8255 2.56573 11.7405ZM2.45073 11.3655C2.45073 11.2905 2.39073 11.2305 2.32073 11.2305C2.30301 11.2311 2.28557 11.2353 2.26945 11.2426C2.25329 11.25 2.23877 11.2605 2.22669 11.2735C2.21465 11.2865 2.20525 11.3018 2.19905 11.3184C2.19289 11.3351 2.19005 11.3527 2.19073 11.3705C2.19073 11.4405 2.25073 11.5055 2.32073 11.5055C2.39073 11.5055 2.45073 11.4405 2.45073 11.3655ZM2.57073 10.6505C2.57073 10.5205 2.51573 10.4205 2.44573 10.4205C2.37573 10.4205 2.32073 10.5205 2.32073 10.6505C2.32073 10.7755 2.37573 10.8805 2.44573 10.8805C2.51573 10.8805 2.57073 10.7805 2.57073 10.6505ZM2.96073 10.5955C2.97573 10.4705 2.93573 10.3605 2.86073 10.3455C2.79573 10.3405 2.72573 10.4355 2.71073 10.5605C2.69073 10.6855 2.73573 10.7955 2.80573 10.8055C2.87073 10.8155 2.94073 10.7205 2.95573 10.5955H2.96073ZM5.71073 5.09546C5.76573 4.91546 5.71073 4.73546 5.59573 4.69546C5.48073 4.65046 5.34573 4.76046 5.29573 4.94046C5.24573 5.12046 5.29573 5.30046 5.41073 5.34046C5.52573 5.38546 5.66073 5.27546 5.71073 5.09546ZM5.19073 5.89046C5.34073 5.75546 5.41073 5.57546 5.34073 5.48546C5.26573 5.39046 5.08073 5.42546 4.92573 5.55546C4.77073 5.68546 4.71073 5.86546 4.78073 5.95546C4.85573 6.05046 5.04073 6.02046 5.19073 5.89046ZM4.89073 5.45046C5.04073 5.33546 5.10073 5.18046 5.03073 5.10046C4.96073 5.02046 4.78073 5.05046 4.63073 5.16046C4.47573 5.27546 4.41073 5.43046 4.48073 5.51046C4.55073 5.59046 4.73073 5.56046 4.88573 5.45046H4.89073ZM6.06573 4.67546C6.16573 4.59546 6.21073 4.48546 6.16573 4.43046C6.11573 4.38046 5.99073 4.39546 5.88573 4.47546C5.78073 4.55546 5.74073 4.66046 5.79073 4.71546C5.84073 4.77046 5.96073 4.75046 6.06573 4.67546Z" fill="#6B18B5"/>
<path fill-rule="evenodd" clip-rule="evenodd" d="M5.45024 5.4245C5.52024 5.3145 5.52524 5.19949 5.46024 5.16449C5.39524 5.12949 5.28524 5.18449 5.21524 5.29449C5.14524 5.40449 5.14024 5.5195 5.20524 5.5545C5.27024 5.5895 5.38024 5.5295 5.45024 5.4245ZM6.33524 4.9595C6.44524 4.86449 6.48524 4.74449 6.43524 4.68449C6.37524 4.62449 6.23524 4.65449 6.12524 4.74449C6.01524 4.83449 5.97524 4.95949 6.03024 5.01949C6.09024 5.07949 6.22524 5.04949 6.33524 4.9595ZM4.73524 6.03949C4.83524 6.03949 4.91524 5.9845 4.90524 5.9245C4.90524 5.8695 4.81024 5.8245 4.70524 5.8295C4.60524 5.8345 4.52524 5.88949 4.53524 5.94449C4.54024 6.00449 4.63524 6.04449 4.73524 6.04449V6.03949ZM6.67024 4.38449C6.74024 4.27449 6.74524 4.1595 6.68024 4.1245C6.62024 4.0895 6.51024 4.1445 6.44024 4.2545C6.37024 4.3645 6.36524 4.47949 6.43024 4.51449C6.49524 4.54949 6.60024 4.49449 6.67024 4.38449Z" fill="#6B18B5"/>
<path fill-rule="evenodd" clip-rule="evenodd" d="M18.3402 7.66964C18.3402 7.66964 18.6602 7.16464 18.5402 6.68464C18.4152 6.20964 17.8902 6.54964 17.9002 6.71964C17.9102 6.88464 18.2402 7.11464 18.2602 7.21964C18.2802 7.31964 18.2202 7.63464 18.3402 7.66964Z" fill="#FFD200" stroke="#EF8A10" stroke-width="0.125"/>
<path fill-rule="evenodd" clip-rule="evenodd" d="M12.2453 3.46575C12.2453 3.46575 13.3953 3.51075 13.4003 4.25577C13.4003 4.37077 13.4003 4.50577 13.3603 4.84077C13.5903 4.71577 13.7403 4.37577 13.7103 4.15577C13.7153 3.40075 12.6853 2.88075 12.2453 3.46575Z" fill="#217900" stroke="black" stroke-width="0.2875" stroke-linejoin="round"/>
<path fill-rule="evenodd" clip-rule="evenodd" d="M11.5156 3.43019C11.5156 3.43019 12.4406 3.24019 12.4506 3.98019C12.4556 4.7302 12.1506 4.8452 12.1506 4.8452C12.1506 4.8452 12.8656 4.6952 12.8706 3.94019C12.8706 3.18019 11.9556 2.84519 11.5156 3.43019Z" fill="#217900" stroke="black" stroke-width="0.2875" stroke-linejoin="round"/>
<path fill-rule="evenodd" clip-rule="evenodd" d="M14.6644 19.5C14.6644 19.5 19.0044 18.27 20.3144 12.95C19.5494 18.405 14.7994 20.15 14.7994 20.15L14.6594 19.5H14.6644Z" fill="#F7DF73" stroke="black" stroke-width="0.3125" stroke-linejoin="round"/>
<path fill-rule="evenodd" clip-rule="evenodd" d="M15.11 19.83C15.245 19.83 15.575 19.46 15.765 19.42C15.955 19.38 15.975 19.185 15.76 19.18C15.54 19.17 15.35 19.43 15.35 19.43C15.35 19.43 15.16 19.59 14.96 19.61C14.76 19.63 14.89 19.88 15.11 19.83Z" fill="#8C1800"/>
<path fill-rule="evenodd" clip-rule="evenodd" d="M17.6096 17.9653C17.6096 17.9653 17.1596 18.2253 17.2196 18.2903C17.2846 18.3553 17.6846 18.0403 17.6946 18.0403C17.6996 18.0303 17.8646 17.8303 17.6096 17.9653Z" fill="#8C1800" stroke="#8C1800" stroke-width="0.3125"/>
<path fill-rule="evenodd" clip-rule="evenodd" d="M16.0354 19.1493C16.0354 19.1493 15.9004 19.0993 16.2454 18.9693C16.5954 18.8343 16.5704 18.6793 16.6854 18.6143C16.7954 18.5493 17.0354 18.3793 17.0854 18.4793C17.1354 18.5793 16.8354 18.7793 16.7604 18.7993C16.6904 18.8193 16.3454 19.1393 16.2454 19.1643C16.1454 19.1943 16.0754 19.1793 16.0354 19.1493Z" fill="#8C1800"/>
<path d="M18.2797 17.3C17.9797 17.635 17.9797 17.625 17.9797 17.625" stroke="#8C1800" stroke-width="0.375" stroke-linecap="round"/>
<path d="M18.7256 16.7593L18.4406 17.1043" stroke="#8C1800" stroke-width="0.35" stroke-linecap="round"/>
<path d="M19.17 16.05L18.85 16.56" stroke="#8C1800" stroke-width="0.3125" stroke-linecap="round"/>
<path d="M19.5447 15.3296L19.2797 15.8546M19.7097 14.9546L19.6297 15.1346" stroke="#8C1800" stroke-width="0.2875" stroke-linecap="round"/>
<path d="M19.8997 14.45L19.8297 14.67" stroke="#8C1800" stroke-width="0.175" stroke-linecap="round"/>
<path fill-rule="evenodd" clip-rule="evenodd" d="M8.97344 19.3874C8.97344 19.3874 4.66972 18.1374 3.3786 12.7124C4.13176 18.282 8.841 20.0421 8.841 20.0421L8.97344 19.3874Z" fill="#F7DF73" stroke="black" stroke-width="0.314587" stroke-linejoin="round"/>
<path fill-rule="evenodd" clip-rule="evenodd" d="M8.53536 19.7197C8.40036 19.7197 8.07536 19.3447 7.88536 19.3047C7.69536 19.2597 7.67536 19.0647 7.89036 19.0547C8.11036 19.0547 8.29536 19.3097 8.29536 19.3097C8.29536 19.3097 8.48536 19.4747 8.68036 19.4997C8.88036 19.5197 8.75036 19.7697 8.53536 19.7197Z" fill="#8C1800"/>
<path fill-rule="evenodd" clip-rule="evenodd" d="M6.05947 17.8215C6.05947 17.8215 6.50639 18.0936 6.44019 18.1617C6.38223 18.2212 5.98499 17.9066 5.97671 17.8981C5.96843 17.8895 5.81115 17.6855 6.05947 17.8215Z" fill="#8C1800" stroke="#8C1800" stroke-width="0.314587"/>
<path fill-rule="evenodd" clip-rule="evenodd" d="M7.61931 19.0296C7.61931 19.0296 7.74931 18.9796 7.40931 18.8446C7.06931 18.7096 7.08431 18.5446 6.97431 18.4846C6.86431 18.4196 6.62431 18.2496 6.57431 18.3496C6.52431 18.4496 6.82431 18.6496 6.89931 18.6696C6.96931 18.6946 7.30931 19.0196 7.40931 19.0446C7.50931 19.0746 7.57431 19.0596 7.61931 19.0296Z" fill="#8C1800"/>
<path d="M5.39784 17.1499L5.68752 17.4815" stroke="#8C1800" stroke-width="0.377504" stroke-linecap="round"/>
<path d="M4.94984 16.5984L5.23124 16.947" stroke="#8C1800" stroke-width="0.356532" stroke-linecap="round"/>
<path d="M4.51204 15.875L4.82656 16.3937" stroke="#8C1800" stroke-width="0.314587" stroke-linecap="round"/>
<path d="M4.13984 15.1443L4.40468 15.68M3.97432 14.7532L4.05708 14.9403" stroke="#8C1800" stroke-width="0.293614" stroke-linecap="round"/>
<path d="M3.78333 14.2422L3.85781 14.4717" stroke="#8C1800" stroke-width="0.16778" stroke-linecap="round"/>
<path fill-rule="evenodd" clip-rule="evenodd" d="M20.5206 11.9656C20.5456 12.3006 20.8706 12.6156 20.7406 13.2006C20.5806 13.8656 20.0006 15.4356 20.1006 15.7106C19.9306 15.4756 19.9606 15.2606 19.9506 14.9306C19.9306 14.6056 20.4206 13.3856 20.4656 12.9756C20.4656 12.6056 20.5006 12.1006 20.5206 11.9656Z" fill="#217900" stroke="black" stroke-width="0.2875" stroke-linejoin="round"/>
<path fill-rule="evenodd" clip-rule="evenodd" d="M20.5204 11.9702C20.5204 11.9702 21.0554 12.6452 21.0254 13.1802C21.0004 13.7152 20.7004 14.3402 20.8004 14.6152C20.6422 14.4132 20.5607 14.1616 20.5704 13.9052C20.5554 13.5802 20.8354 13.2152 20.7754 12.8602C20.7204 12.5102 20.5154 11.9702 20.5254 11.9702H20.5204ZM3.05544 12.1202C3.03544 12.4552 2.78544 12.7552 2.91544 13.3352C3.07544 14.0002 3.66544 14.8352 3.56544 15.7952C3.74044 15.5602 3.79044 15.2952 3.80544 14.9702C3.81544 14.6452 3.15544 13.5452 3.11544 13.1302C3.11544 12.7602 3.07544 12.2552 3.05544 12.1202Z" fill="#217900" stroke="black" stroke-width="0.2875" stroke-linejoin="round"/>
<path fill-rule="evenodd" clip-rule="evenodd" d="M3.05532 12.13C3.05532 12.13 2.53532 12.78 2.56532 13.315C2.57032 13.67 3.22532 15.155 3.12532 15.435C3.30032 15.2 3.34532 15.23 3.34032 14.875C3.15032 13.96 2.80532 13.38 2.86532 13.025C2.92032 12.67 3.06532 12.125 3.05532 12.125V12.13Z" fill="#217900" stroke="black" stroke-width="0.2875" stroke-linejoin="round"/>
<path d="M11.9262 6.1499L13.2079 10.1237H17.4025L14.0235 12.5826L15.311 16.5564L11.9321 14.1033L8.55312 16.5564L9.8348 12.5826L6.45 10.1237H10.6329L11.9262 6.1499Z" fill="white" stroke="black" stroke-width="0.247616" stroke-linecap="square" stroke-linejoin="round"/>
</g>
</g>
</g>
</g>
<defs>
<clipPath id="clip0_69_9749">
<rect width="24" height="24" rx="12" fill="white"/>
</clipPath>
<clipPath id="clip1_69_9749">
<rect width="32" height="24" fill="white" transform="translate(-4)"/>
</clipPath>
</defs>
</svg>
