<svg width="24" height="24" viewBox="0 0 24 24" fill="none" xmlns="http://www.w3.org/2000/svg">
<g clip-path="url(#clip0_69_9174)">
<g clip-path="url(#clip1_69_9174)">
<mask id="mask0_69_9174" style="mask-type:luminance" maskUnits="userSpaceOnUse" x="-4" y="0" width="32" height="24">
<path d="M28 0H-4V24H28V0Z" fill="white"/>
</mask>
<g mask="url(#mask0_69_9174)">
<path d="M-4 0H28V24H-4V0Z" fill="#012169"/>
<path d="M15.2447 5.55005H25.5197L25.5047 12.865C25.5897 15.8 23.7597 17.625 20.3897 18.45C17.9947 17.85 15.2397 16.625 15.2297 12.95L15.2447 5.55005Z" fill="white"/>
<path d="M15.4694 5.77026H25.2893L25.2794 12.7803C25.3594 15.5953 23.6094 17.3403 20.3894 18.1303C18.0994 17.5603 15.4644 16.3803 15.4594 12.8603L15.4694 5.77026Z" fill="#00A2BD" stroke="black" stroke-width="0.225"/>
<path d="M25.2156 13.6094C24.8556 16.2944 22.7856 17.4694 20.3906 18.0944C18.2656 17.5244 15.9806 16.6144 15.5406 13.6194L25.2156 13.6094Z" fill="#A53D08"/>
<path d="M19.9994 7.07531L19.9844 6.19531L20.6844 6.20031L20.6894 7.07531H22.5993L22.6044 7.76031L20.6894 7.77031L20.6744 15.8403L19.9944 15.8453L19.9844 7.76031L18.0844 7.77031V7.07031L19.9994 7.07531Z" fill="black"/>
<path fill-rule="evenodd" clip-rule="evenodd" d="M18.4499 13.9403L20.1999 15.7553C20.8049 15.0903 20.3849 12.6053 19.5899 12.1503C19.4949 12.4453 19.3349 12.8003 19.1599 12.9103C18.7849 13.1703 17.8549 13.4703 18.1649 13.6603C18.2349 13.5653 18.4199 13.4753 18.5099 13.6903C18.6099 14.0353 18.1199 14.0553 18.1199 14.0553C18.1199 14.0553 17.8099 14.0153 17.7549 13.7053C17.7049 13.3853 18.2199 13.0953 18.2649 13.0753C18.3049 13.0603 18.9799 12.8753 19.0949 12.2803C19.2399 11.6903 19.3849 11.7803 19.4099 11.7703C20.2949 11.8553 20.8699 13.4353 20.9049 14.5453C20.9349 15.6553 20.4549 16.3953 20.3649 16.4453C20.2799 16.4903 18.2649 14.0503 18.2649 14.0503L18.4549 13.9403H18.4499Z" fill="#FF9A08" stroke="black" stroke-width="0.1"/>
<path d="M19.7294 12.25L19.7394 15.525M19.5294 12.315L19.5444 15.285M19.3194 12.745L19.3294 15.105M19.1444 12.91L19.1544 14.865M18.9594 13V14.65M18.7594 13.13V14.435M18.5844 13.235V14.235" stroke="black" stroke-width="0.1"/>
<path d="M18.425 14.1499L20.225 16.2099" stroke="#FFDF00" stroke-width="0.1" stroke-linecap="round"/>
<path d="M20.3156 12.8501C20.3156 12.8501 21.1356 14.6351 20.3756 16.1001M18.2156 13.7701C18.2156 13.7701 18.2756 13.6151 18.3506 13.6801M18.0756 13.3151C18.0756 13.3151 17.7456 13.6001 17.9256 13.7901" stroke="#FFDF00" stroke-width="0.175" stroke-linecap="round"/>
<path d="M20.7002 8.76951C20.8152 8.66951 20.8802 8.60451 20.9552 8.61951C21.0302 8.62951 21.1302 8.61951 21.2052 8.59951C21.402 8.55379 21.6058 8.54703 21.8052 8.57951C21.8552 8.58951 21.9302 8.61451 22.0352 8.70451C22.1402 8.79451 22.2952 8.95451 22.2452 9.38451C22.1952 9.81451 22.2102 9.99951 22.1852 10.2445C22.1452 10.6695 22.0502 11.0195 21.8852 10.9945C22.1102 11.3945 22.1352 11.7445 22.2852 12.0195C22.4352 12.2945 22.5252 12.8595 22.4702 13.4695C22.4102 14.0845 22.2502 15.4545 22.7352 16.3795C22.6552 16.4345 22.4602 16.3795 22.2852 16.1945C22.1102 16.0095 22.0352 16.0145 21.8952 16.1245C21.4552 16.4595 21.0452 16.8645 20.4402 16.4595C20.3002 16.3695 20.2602 16.2595 20.3602 15.9745C20.6102 15.2745 20.7352 14.3045 20.6952 13.8545V8.76951H20.7002Z" fill="#008021" stroke="black" stroke-width="0.0375"/>
<path d="M21.1144 8.34015C21.1543 8.45027 21.1525 8.57119 21.1094 8.68015C21.079 8.74687 21.0654 8.82003 21.0698 8.89323C21.0741 8.96643 21.0963 9.03747 21.1344 9.10015C21.2694 8.90015 21.4644 8.94015 21.5844 8.83015C21.6944 8.71515 21.7194 8.60515 21.8044 8.58015C21.7194 8.50515 21.5894 8.42015 21.6144 8.20515C21.6444 7.98515 21.9494 7.80515 21.6744 7.47515C21.6333 7.42231 21.5796 7.38063 21.5182 7.35395C21.4568 7.32727 21.3897 7.31639 21.323 7.32239C21.2564 7.32835 21.1922 7.35095 21.1366 7.38811C21.0809 7.42531 21.0354 7.47583 21.0044 7.53515C20.9894 7.57515 21.0144 7.65515 20.9694 7.70515C20.9408 7.74459 20.9052 7.77847 20.8644 7.80515C20.8394 7.82515 20.8244 7.85015 20.8544 7.88515C20.8644 7.90015 20.8844 7.90015 20.9044 7.90515L20.8644 7.98015C20.8494 7.99515 20.8544 8.01015 20.8744 8.03015C20.8494 8.09515 20.8944 8.10515 20.8644 8.15515C20.8344 8.20015 20.8044 8.25515 20.8944 8.30515C20.9244 8.32015 21.0444 8.34515 21.1144 8.34015ZM19.9894 9.49015C19.8294 9.53015 19.5694 9.46015 19.3744 9.48015C19.2844 9.49015 19.2144 9.44515 19.2244 9.36015C19.2394 9.27515 19.2544 9.14015 19.2344 9.02015C19.2362 8.76163 19.3015 8.50755 19.4244 8.28015C19.5232 8.10031 19.5877 7.90359 19.6144 7.70015C19.6144 7.60515 19.6244 7.50515 19.7044 7.45015C19.7644 7.41515 19.7744 7.38015 19.7944 7.35015C19.8444 7.27515 19.8944 7.26015 19.8944 7.30015C19.8994 7.32515 19.8944 7.35015 19.8694 7.38015C19.9194 7.34015 20.0094 7.29015 20.0294 7.28015C20.0494 7.26015 20.1494 7.19015 20.1544 7.26015C20.1944 7.24015 20.2244 7.24015 20.2344 7.26015C20.2444 7.28515 20.2344 7.29515 20.2194 7.31015C20.2494 7.31015 20.2794 7.35515 20.2194 7.40015C20.2544 7.39015 20.2844 7.44015 20.2294 7.48515C20.1794 7.53515 20.1094 7.56515 20.0944 7.60515C20.0744 7.64515 19.9344 7.75015 19.8794 7.77015C19.8244 7.79515 19.8194 7.82515 19.8194 7.90515C19.8194 8.79515 19.7194 8.72015 19.7194 8.94015C19.7194 8.99015 19.7044 9.04515 19.7594 9.03015C19.8332 9.00319 19.9108 8.98799 19.9894 8.98515V9.48515V9.49015ZM20.0244 11.4002C20.2844 11.2702 20.5844 11.2202 20.7394 11.1802C20.919 11.1227 21.0931 11.049 21.2594 10.9602C21.3844 10.8952 21.4844 10.8102 21.5544 10.7852C21.6364 10.7591 21.7048 10.7015 21.7444 10.6252C21.9414 10.293 22.0594 9.92011 22.0894 9.53515C22.0894 9.33515 22.0394 9.10515 21.8394 9.26515C21.6354 9.44099 21.4833 9.66919 21.3994 9.92515C21.3194 10.2452 21.2494 10.3202 21.2344 10.3802C21.2144 10.4452 21.1544 10.4452 21.0744 10.4602C20.8218 10.4995 20.5857 10.6106 20.3944 10.7802C20.1675 10.9481 19.9304 11.1017 19.6844 11.2402C19.4994 11.3452 19.4644 11.3552 19.4244 11.4402C19.3844 11.5202 19.3444 11.5902 19.3144 11.6202C19.2744 11.6602 19.2644 11.7002 19.2744 11.7502C19.2794 11.7902 19.2644 11.9602 19.2594 12.0202C19.2594 12.0802 19.2744 12.0902 19.2944 12.0952C19.3144 12.0952 19.3444 12.0852 19.3594 12.0152C19.3494 12.0852 19.4444 12.0652 19.4494 12.0102C19.4494 12.0852 19.5494 12.0402 19.5494 11.9702C19.5494 12.0202 19.6344 11.9852 19.6344 11.9702C19.6544 11.9052 19.6694 11.8452 19.6944 11.8002C19.7244 11.7302 19.7594 11.6402 19.8294 11.6002C19.9044 11.5402 19.8694 11.4802 20.0244 11.4002ZM21.8944 16.1252C21.9094 16.1902 21.9444 16.2602 21.9544 16.3052C21.9644 16.3452 21.9444 16.3602 21.9344 16.3852C21.8672 16.5245 21.8201 16.6726 21.7944 16.8252C21.7944 16.8852 21.7444 16.9452 21.7294 16.9852C21.7044 17.0252 21.7144 17.0602 21.7694 17.1002C21.7894 17.1152 21.8694 17.0902 21.8744 17.0502C21.9094 17.0802 21.9544 17.0702 21.9794 17.0252C22.0094 17.0502 22.0544 17.0352 22.0794 16.9902C22.1044 17.0052 22.1444 16.9752 22.1594 16.9502C22.1994 16.9702 22.2394 16.9502 22.2394 16.8702C22.2394 16.8502 22.2544 16.8202 22.2644 16.8052C22.2744 16.7852 22.2794 16.7502 22.2794 16.7202C22.2794 16.6852 22.2944 16.6202 22.3244 16.5802C22.3544 16.5302 22.3994 16.4552 22.3794 16.3802C22.3594 16.3102 22.3294 16.3152 22.3044 16.2202C22.2394 16.1502 22.1544 16.0602 22.0644 16.0502C21.9744 16.0502 21.9244 16.1052 21.8944 16.1252ZM20.2494 16.6202C20.3344 16.7002 20.5144 16.7002 20.6394 16.5702C20.5944 16.5502 20.4894 16.5002 20.4494 16.4702C20.3936 16.5332 20.3256 16.5842 20.2494 16.6202Z" fill="#FFE1CF" stroke="black" stroke-width="0.0375"/>
<path d="M21.0703 7.44946C21.1003 7.24946 21.2453 7.24946 21.3353 7.27446C21.3753 7.27946 21.4653 7.28946 21.5553 7.26446C21.7253 7.21946 21.8553 7.27946 21.8353 7.44446C21.8853 7.47946 21.9353 7.55946 21.9203 7.62946C21.9153 7.69946 21.9303 7.72946 21.9903 7.73446C22.0553 7.74446 22.1903 7.82446 22.1003 7.93446C22.1853 7.98446 22.2503 8.11946 22.2053 8.20446C22.1603 8.29446 22.0253 8.30946 21.9653 8.22946C21.9003 8.25946 21.8003 8.26446 21.7353 8.19946C21.6903 8.24946 21.5853 8.24446 21.5603 8.19946C21.5403 8.14946 21.5103 8.12946 21.4653 8.11446C21.4203 8.09946 21.4153 7.97446 21.4853 7.95946C21.4803 7.91946 21.4853 7.87946 21.5003 7.85946C21.5153 7.83946 21.5003 7.79946 21.4603 7.76946C21.4203 7.73446 21.3853 7.61946 21.4253 7.54946C21.3553 7.57446 21.2053 7.50446 21.1753 7.45946C21.1403 7.40946 21.0953 7.40946 21.0703 7.44946Z" fill="#870F00" stroke="black" stroke-width="0.0375"/>
<path d="M21.115 8.34003C21.225 8.32503 21.265 8.26003 21.345 8.26003M20.875 8.02503L20.9 8.04003C20.92 8.05503 20.95 8.06003 20.97 8.06003M20.905 7.90503L20.955 7.93503M21.165 7.45003C21.1 7.38503 21.275 7.26003 21.465 7.44003C21.505 7.48003 21.59 7.48003 21.615 7.47003M21.425 7.55003C21.515 7.53003 21.64 7.53003 21.68 7.63003C21.72 7.73003 21.795 7.66003 21.855 7.78003C21.915 7.89503 22.005 8.02003 22.105 7.93003M21.735 8.20003C21.7208 8.17619 21.7116 8.14967 21.7082 8.12211C21.7047 8.09455 21.707 8.06659 21.715 8.04003C21.68 8.00003 21.695 7.91503 21.715 7.87503M21.485 7.96003C21.485 7.99503 21.535 8.06003 21.605 8.07003M21.965 8.23003C21.925 8.18003 21.93 8.13003 21.94 8.07003" stroke="black" stroke-width="0.0375"/>
<path d="M21.545 7.64885C21.545 7.70385 21.575 7.77385 21.625 7.79885C21.64 7.82885 21.695 7.90885 21.815 7.89885M21.835 7.44885C21.7617 7.38277 21.6719 7.33785 21.575 7.31885M21.135 9.09885C21.035 9.23385 20.975 9.41885 21.015 9.67885C21.065 9.93885 21.135 10.3188 20.95 10.4888M21.88 10.9938C21.75 10.9588 21.56 10.9588 21.455 11.0388C21.355 11.1138 21.175 11.1188 21.06 11.0588" stroke="black" stroke-width="0.0375"/>
<path d="M21.5992 10.98C21.4842 11 21.4342 11.085 21.4342 11.3C21.4342 11.51 21.3842 11.82 21.4242 12.13M21.3942 11.075C21.3142 11.095 21.2342 11.095 21.2542 11.3M20.9992 11.3C21.0042 11.18 21.0492 11.06 21.1292 11.085M21.8342 11.33C21.8342 11.05 21.7742 10.975 21.6942 10.98C21.8042 10.98 21.8792 10.995 21.9292 11.44C21.9592 11.78 22.0292 11.89 22.1142 12.16C22.3192 12.84 22.2142 13.885 22.3192 14.26M21.6742 11.41C21.9604 12.2079 21.9533 13.0817 21.6542 13.875C21.8942 14.545 22.1342 15.03 22.1792 15.305M20.9842 12.905C21.0242 12.76 20.8742 12.745 21.0042 12.24C21.0592 12.02 21.0692 11.89 21.0342 11.82" stroke="black" stroke-width="0.0375"/>
<path d="M21.0338 12.1187C20.9838 12.3387 21.1988 12.7587 21.0938 13.0687M20.8188 13.1237C20.8188 13.3237 20.8638 13.5737 20.8538 13.7737C20.8438 13.9687 20.9238 14.0587 21.0138 14.2437C21.3538 14.9137 21.5738 15.3887 21.5488 16.0187C21.5388 16.1387 21.5788 16.3787 21.4588 16.4487M20.8288 16.6187C20.8638 16.6187 20.8988 16.5987 20.9438 16.4987C21.0524 16.1256 21.0931 15.7361 21.0638 15.3487M21.1338 15.8287C21.1538 15.9587 21.1538 16.2287 21.0688 16.4487" stroke="black" stroke-width="0.0375"/>
<path d="M21.3543 15.4343C21.4043 15.7143 21.4043 15.9693 21.3593 16.1493M21.2393 16.1493C21.2493 16.2593 21.2993 16.5493 21.2143 16.5743M21.6743 14.8093C21.8893 15.1443 22.0543 15.9693 22.2343 16.1393M21.8543 16.0093C21.8543 15.9193 21.8493 15.7893 21.7943 15.7293M19.5493 11.9693C19.5543 11.9093 19.5443 11.8493 19.6143 11.7493M19.4493 12.0093C19.4593 11.7893 19.4543 11.7693 19.5193 11.7093M19.3593 12.0143C19.3593 11.8543 19.3443 11.7993 19.4093 11.6993M20.1543 7.25928L19.9293 7.42928M20.2193 7.30928C20.1943 7.30928 20.1143 7.37928 19.9693 7.48928M20.2243 7.39928C20.1743 7.41928 20.0943 7.49928 20.0143 7.55928M19.8693 7.38428L19.7893 7.46428M21.8743 17.0493C21.8643 17.0393 21.8643 16.9843 21.8893 16.9293M21.9843 17.0243C21.9643 17.0093 21.9843 16.9393 21.9943 16.8943M22.0793 16.9893C22.0593 16.9793 22.0543 16.9393 22.0793 16.8893M22.1543 16.9493C22.1443 16.9493 22.1393 16.9193 22.1593 16.8593" stroke="black" stroke-width="0.0375"/>
<path d="M21.0242 7.63459C21.0642 7.68459 21.1092 7.68459 21.1142 7.71459C21.1242 7.75459 21.1292 7.75459 21.1342 7.76459C21.1442 7.77459 21.1142 7.77459 21.1042 7.76459H21.0342C21.0142 7.76459 20.9942 7.73959 21.0042 7.73959C21.0192 7.73459 21.0192 7.72959 21.0142 7.71959C21.0142 7.70459 21.0242 7.68959 21.0342 7.68459L21.0292 7.66959C21.0192 7.65459 21.0142 7.61959 21.0242 7.62959V7.63459ZM21.0492 7.57959C21.1126 7.58867 21.1718 7.61651 21.2192 7.65959C21.2542 7.69959 21.2242 7.68959 21.2092 7.68959C21.1942 7.68959 21.1592 7.67959 21.1392 7.65959C21.113 7.63207 21.0804 7.61143 21.0442 7.59959C21.0292 7.59959 21.0142 7.57959 21.0442 7.57959H21.0492Z" fill="black"/>
<path d="M-4 0H12V12H-4V0Z" fill="#012169"/>
<path d="M-2.125 0L3.975 4.525L10.05 0H12V1.55L6 6.025L12 10.475V12H10L4 7.525L-1.975 12H-4V10.5L1.975 6.05L-4 1.6V0H-2.125Z" fill="white"/>
<path d="M6.6 7.025L12 11V12L5.225 7.025H6.6ZM2 7.525L2.15 8.4L-2.65 12H-4L2 7.525ZM12 0V0.075L5.775 4.775L5.825 3.675L10.75 0H12ZM-4 0L1.975 4.4H0.475L-4 1.05V0Z" fill="#C8102E"/>
<path d="M2.025 0V12H6.025V0H2.025ZM-4 4V8H12V4H-4Z" fill="white"/>
<path d="M-4 4.825V7.225H12V4.825H-4ZM2.825 0V12H5.225V0H2.825Z" fill="#C8102E"/>
</g>
</g>
</g>
<defs>
<clipPath id="clip0_69_9174">
<rect width="24" height="24" rx="12" fill="white"/>
</clipPath>
<clipPath id="clip1_69_9174">
<rect width="32" height="24" fill="white" transform="translate(-4)"/>
</clipPath>
</defs>
</svg>
