<svg width="24" height="24" viewBox="0 0 24 24" fill="none" xmlns="http://www.w3.org/2000/svg">
<g clip-path="url(#clip0_69_8502)">
<g clip-path="url(#clip1_69_8502)">
<mask id="mask0_69_8502" style="mask-type:luminance" maskUnits="userSpaceOnUse" x="0" y="0" width="32" height="24">
<path d="M32 0H0V24H32V0Z" fill="white"/>
</mask>
<g mask="url(#mask0_69_8502)">
<path fill-rule="evenodd" clip-rule="evenodd" d="M16 0H32V24H16V0Z" fill="#CE0000"/>
<path fill-rule="evenodd" clip-rule="evenodd" d="M0 0H16V24H0V0Z" fill="white"/>
<path fill-rule="evenodd" clip-rule="evenodd" d="M7.75563 7.09312C7.75563 7.16504 7.68371 7.213 7.59579 7.213C7.49987 7.213 7.43591 7.16504 7.43591 7.10112C7.43591 7.03716 7.49987 6.9812 7.59579 6.9812C7.68371 6.9812 7.75563 7.03716 7.75563 7.10112V7.09312Z" fill="#F1EEEE"/>
<path fill-rule="evenodd" clip-rule="evenodd" d="M2.63281 6.53338V9.50678H5.6142C5.6142 10.0023 6.10976 10.4979 6.60532 10.4979V13.4713H9.58672V10.4979C10.0823 10.4979 10.5778 10.0023 10.5778 9.50678H13.5512V6.53338H10.5699C10.5699 6.03782 10.0743 5.54226 9.57872 5.54226V2.56885H6.60532V5.54226C6.10176 5.54226 5.6062 6.03782 5.6062 6.53338H2.63281Z" fill="#CC0000"/>
<path fill-rule="evenodd" clip-rule="evenodd" d="M2.73755 6.6286V9.41016H5.71093C5.71093 9.90572 6.20653 10.4013 6.70209 10.4013V13.3747H9.47565V10.4093C9.97121 10.4093 10.4668 9.91372 10.4668 9.41816H13.4482V6.6366H10.4748C10.4748 6.141 9.97921 5.64544 9.48365 5.64544V2.66406H6.70209V5.63744C6.20653 5.63744 5.71093 6.13304 5.71093 6.6286H2.73755Z" fill="#FFE600"/>
<path fill-rule="evenodd" clip-rule="evenodd" d="M2.83276 6.73333V9.30709H5.80615C5.80615 9.80265 6.30171 10.2982 6.79731 10.2982V13.2716H9.37903V10.2982C9.87459 10.2982 10.3702 9.80265 10.3702 9.30709H13.3436V6.73333H10.3702C10.3702 6.23777 9.87459 5.74221 9.37903 5.74221V2.7688H6.79731V5.73421C6.30171 5.73421 5.80615 6.22977 5.80615 6.72533H2.83276V6.73333Z" fill="#707070"/>
<path fill-rule="evenodd" clip-rule="evenodd" d="M2.93609 6.82855V9.21047H5.9095C5.9095 9.70603 6.40506 10.2016 6.90062 10.2016V13.167H9.27454V10.1936C9.7701 10.1936 10.2657 9.69803 10.2657 9.20247H13.2391V6.82055H10.2657C10.2657 6.32499 9.7701 5.82943 9.27454 5.82943V2.86401H6.90062V5.83739C6.40506 5.83739 5.9095 6.33299 5.9095 6.82855H2.9281H2.93609Z" fill="#A0A0A0"/>
<path fill-rule="evenodd" clip-rule="evenodd" d="M6.92546 5.59027C7.0933 5.76611 6.95742 6.18975 6.60574 6.54147C6.25406 6.89315 5.83842 7.02103 5.66258 6.86119C5.48674 6.67735 5.63058 6.25371 5.9823 5.90203C6.33398 5.55031 6.74962 5.42243 6.92546 5.59027Z" fill="#D0D0D0"/>
<path fill-rule="evenodd" clip-rule="evenodd" d="M6.7095 5.79836C6.88534 5.9742 6.83738 6.30192 6.60558 6.54172C6.37378 6.78148 6.04606 6.82148 5.87022 6.6456C5.69438 6.46976 5.74234 6.14204 5.97414 5.91028C6.20594 5.67848 6.53366 5.63052 6.7095 5.79836Z" fill="#808080"/>
<path fill-rule="evenodd" clip-rule="evenodd" d="M5.83911 6.32515L5.90303 6.26123L6.18279 6.39711L6.04691 6.11735L6.11883 6.04539L6.39859 6.60491L5.83911 6.32515ZM6.25471 5.90951L6.33467 5.82959L6.75031 6.26123L6.67835 6.32515L6.25471 5.90951Z" fill="#D0D0D0"/>
<path fill-rule="evenodd" clip-rule="evenodd" d="M10.5146 6.85355C10.3388 7.02939 9.91517 6.88555 9.57145 6.53383C9.22777 6.18215 9.07589 5.76651 9.25173 5.59067C9.42757 5.41483 9.85121 5.55871 10.2029 5.91039C10.5546 6.26207 10.6825 6.67771 10.5226 6.85355H10.5146Z" fill="#D0D0D0"/>
<path fill-rule="evenodd" clip-rule="evenodd" d="M10.3065 6.6454C10.1307 6.82124 9.80296 6.77328 9.57116 6.54148C9.33936 6.30972 9.2914 5.982 9.45924 5.80616C9.63512 5.63028 9.9708 5.67824 10.2026 5.91004C10.4344 6.14184 10.4824 6.46956 10.3065 6.6454Z" fill="#808080"/>
<path fill-rule="evenodd" clip-rule="evenodd" d="M9.77976 5.76709L9.85168 5.83901L9.7078 6.11877L9.98756 5.97489L10.0675 6.05481L9.5 6.32657L9.77976 5.76709ZM10.2034 6.19069L10.2673 6.25465L9.85168 6.67829L9.77976 6.60633L10.2034 6.19069Z" fill="#D0D0D0"/>
<path fill-rule="evenodd" clip-rule="evenodd" d="M9.25156 10.4503C9.07572 10.2745 9.2196 9.85085 9.57128 9.49917C9.923 9.14749 10.3386 9.01161 10.5145 9.17945C10.6903 9.35529 10.5464 9.77893 10.1948 10.1306C9.84304 10.4823 9.4274 10.6182 9.25156 10.4503Z" fill="#D0D0D0"/>
<path fill-rule="evenodd" clip-rule="evenodd" d="M9.46714 10.2345C9.2913 10.0587 9.33926 9.73096 9.57106 9.49916C9.80286 9.26736 10.1306 9.2194 10.3064 9.39524C10.4823 9.57108 10.4343 9.8988 10.2025 10.1306C9.9707 10.3624 9.64298 10.4104 9.45914 10.2345H9.46714Z" fill="#808080"/>
<path fill-rule="evenodd" clip-rule="evenodd" d="M10.3392 9.70627L10.2672 9.78619L9.98743 9.64231L10.1313 9.92207L10.0594 9.98603L9.77963 9.42651L10.3392 9.70627ZM9.93151 10.1299L9.85155 10.2018L9.43591 9.77819L9.50787 9.70627L9.93151 10.1299Z" fill="#D0D0D0"/>
<path fill-rule="evenodd" clip-rule="evenodd" d="M5.66196 9.18611C5.83784 9.01023 6.26144 9.15411 6.60516 9.49783C6.94884 9.84151 7.09272 10.2731 6.92488 10.441C6.74904 10.6168 6.3254 10.4809 5.97372 10.1293C5.622 9.77759 5.49412 9.35395 5.654 9.18611H5.66196Z" fill="#D0D0D0"/>
<path fill-rule="evenodd" clip-rule="evenodd" d="M5.87022 9.39378C6.04606 9.21794 6.37378 9.2659 6.60558 9.4977C6.83738 9.7295 6.88534 10.0572 6.7095 10.2331C6.54162 10.4089 6.20594 10.3609 5.97414 10.1291C5.74234 9.89734 5.69438 9.56962 5.87022 9.39378Z" fill="#808080"/>
<path fill-rule="evenodd" clip-rule="evenodd" d="M6.3969 10.2738L6.32494 10.1938L6.46882 9.92207L6.18906 10.0579L6.10914 9.98603L6.67666 9.70627L6.3969 10.2658V10.2738ZM5.97326 9.85015L5.9093 9.77819L6.32494 9.36255L6.3969 9.42651L5.97326 9.85015Z" fill="#D0D0D0"/>
<path d="M10.1762 8.02223C10.1762 9.16931 9.24428 10.1038 8.09376 10.1038C6.9432 10.1038 6.01404 9.17211 6.01404 8.02223C6.01404 6.87231 6.94592 5.94067 8.09648 5.94067C9.24704 5.94067 10.179 6.87231 10.179 8.02223H10.1762Z" stroke="#707070" stroke-width="0.0921716"/>
<path d="M9.67116 8.01711C9.67116 8.89107 8.96112 9.60307 8.08452 9.60307C7.20796 9.60307 6.5 8.89323 6.5 8.01711C6.5 7.14099 7.21004 6.43115 8.0866 6.43115C8.9632 6.43115 9.67324 7.14099 9.67324 8.01711H9.67116Z" stroke="#707070" stroke-width="0.0702257"/>
<path fill-rule="evenodd" clip-rule="evenodd" d="M7.39674 9.70612C7.39674 9.73264 7.38618 9.75804 7.36746 9.77676C7.3487 9.79552 7.3233 9.80604 7.29682 9.80604C7.2703 9.80604 7.2449 9.79552 7.22614 9.77676C7.20742 9.75804 7.1969 9.73264 7.1969 9.70612C7.1969 9.67964 7.20742 9.6542 7.22614 9.63548C7.2449 9.61672 7.2703 9.6062 7.29682 9.6062C7.3233 9.6062 7.3487 9.61672 7.36746 9.63548C7.38618 9.6542 7.39674 9.67964 7.39674 9.70612ZM8.97934 9.70612C8.97934 9.73264 8.96882 9.75804 8.95006 9.77676C8.93134 9.79552 8.9059 9.80604 8.87942 9.80604C8.85294 9.80604 8.8275 9.79552 8.80878 9.77676C8.79002 9.75804 8.7795 9.73264 8.7795 9.70612C8.7795 9.67964 8.79002 9.6542 8.80878 9.63548C8.8275 9.61672 8.85294 9.6062 8.87942 9.6062C8.9059 9.6062 8.93134 9.61672 8.95006 9.63548C8.96882 9.6542 8.97934 9.67964 8.97934 9.70612ZM8.02018 9.70612V9.81004H7.8923C7.75642 9.81004 7.75642 9.91396 7.8923 9.91396H8.02018V10.0098C8.02018 10.1218 8.14006 10.1298 8.14806 10.0178V9.90596H8.28394C8.41982 9.90596 8.41982 9.81004 8.28394 9.81004H8.15606V9.70612C8.15606 9.6022 8.02018 9.6022 8.02018 9.70612Z" fill="#D0D0D0"/>
<path fill-rule="evenodd" clip-rule="evenodd" d="M7.59623 8.23606V8.30002C7.59623 8.30002 7.56427 8.33998 7.36443 8.35594C7.16463 8.37194 7.13267 8.35594 7.13267 8.35594C7.14063 8.4119 7.18059 8.50782 7.16463 8.61974C7.17263 8.75562 7.13267 8.8755 7.13267 8.8755C7.13267 8.8835 7.10867 8.8915 7.06871 8.8835C7.10067 8.85154 7.10067 8.77158 7.10067 8.6437C7.10067 8.53182 6.98079 8.34798 7.00475 8.30002C7.02875 8.25206 7.59623 8.23606 7.59623 8.23606ZM8.37955 8.02826L8.89911 8.02026C8.89911 8.02026 8.97903 8.1801 8.97103 8.26006C8.97103 8.33998 8.93907 8.4199 8.90711 8.37994C8.86715 8.33998 8.92307 8.34798 8.93107 8.26006C8.93107 8.16414 8.86715 8.07622 8.86715 8.07622C8.86715 8.07622 8.72327 8.13214 8.51543 8.12418C8.30763 8.10818 8.40355 8.02826 8.37955 8.02826Z" fill="#D0D0D0" stroke="#707070" stroke-width="0.0199825"/>
<path fill-rule="evenodd" clip-rule="evenodd" d="M8.44307 8.17969C8.63491 8.17173 8.76279 8.19569 8.76279 8.19569C8.76279 8.19569 8.84271 8.35553 8.84271 8.43549C8.83471 8.51541 8.81075 8.59533 8.77079 8.55537C8.73883 8.52341 8.78679 8.53141 8.79475 8.43549C8.79475 8.34757 8.73083 8.25165 8.73083 8.25165C8.73083 8.25165 8.59495 8.30761 8.38711 8.29961C8.17931 8.28361 8.24323 8.27561 8.21927 8.26761C8.19527 8.26761 8.18731 8.33157 7.87555 8.33957C7.55583 8.33957 7.39599 8.26761 7.39599 8.26761C7.39599 8.26761 7.36403 8.31557 7.17219 8.33157H6.93239C6.94039 8.37953 6.98035 8.47545 6.97235 8.59533C6.97235 8.72321 6.93239 8.85113 6.93239 8.85113H6.87643C6.90843 8.82713 6.90043 8.73921 6.90843 8.61933C6.90843 8.49941 6.78051 8.32357 6.80451 8.26761C6.83647 8.21965 6.98035 8.26761 7.00435 8.24365C7.02831 8.21169 6.87643 8.02785 6.90843 7.85997C6.93239 7.69213 7.10023 7.74009 7.30007 7.74009C7.49991 7.74809 7.93951 7.80405 8.05143 7.74009C8.16331 7.68413 8.11535 7.46833 8.21127 7.33245C8.24311 7.29357 8.28347 7.26257 8.32919 7.24177C8.37491 7.22097 8.42483 7.21097 8.47503 7.21257C8.54699 7.21257 8.63491 7.45233 8.63491 7.50829L8.61091 7.54025H8.57895V7.56425C8.49903 7.57225 8.49103 7.50029 8.44307 7.45233C8.42707 7.53229 8.50703 7.80405 8.50703 7.97989C8.50703 8.12377 8.45107 8.18769 8.44307 8.17969Z" fill="#D0D0D0" stroke="#707070" stroke-width="0.0199825"/>
<path fill-rule="evenodd" clip-rule="evenodd" d="M7.81152 7.92414C7.81152 7.9801 7.56372 8.11598 7.53976 8.16394C7.52376 8.2199 7.60368 8.24386 7.57972 8.27582C7.55576 8.30782 7.53176 8.29182 7.52376 8.29982L7.42784 8.09998C7.42784 8.09998 7.66764 7.9881 7.65964 7.94014C7.65164 7.89218 7.4838 7.86018 7.45184 7.7483C7.41988 7.63638 7.43584 7.40458 7.41188 7.35662C7.38788 7.3087 7.09216 7.26074 7.09216 7.19678C7.09216 7.11686 7.39588 6.92502 7.42784 6.89306C7.45984 6.86106 7.4918 6.92502 7.45984 6.94898C7.42784 6.98098 7.19604 7.16482 7.19604 7.18878C7.19604 7.22074 7.38788 7.25274 7.45184 7.25274C7.52376 7.25274 7.55576 7.22074 7.55576 7.18878C7.55576 7.16482 7.4838 7.16482 7.4838 7.10886C7.4838 7.0529 7.52376 7.01294 7.58772 7.01294C7.61968 7.01294 7.68364 7.0529 7.68364 7.10086C7.68364 7.14882 7.62768 7.15682 7.61968 7.18878C7.61168 7.22874 7.68364 7.25274 7.74756 7.25274C7.81152 7.25274 8.03532 7.42058 8.06728 7.45254C8.10724 7.47654 8.13924 7.47654 8.10724 7.5085C8.07528 7.54046 8.09128 7.57246 8.05932 7.54046C8.04372 7.5251 8.03268 7.50574 8.02732 7.48454C8.02732 7.46054 7.78752 7.34066 7.74756 7.36462C7.7156 7.39662 7.74756 7.7483 7.74756 7.78026C7.74756 7.83622 7.81952 7.83622 7.81152 7.92414Z" fill="#D0D0D0" stroke="#707070" stroke-width="0.0199825"/>
<path fill-rule="evenodd" clip-rule="evenodd" d="M7.39685 7.24536H7.79649V7.653H7.39685V7.24536Z" fill="#A7A7A7"/>
<path d="M8.66824 8.71627L7.35652 6.74727C7.34428 6.72891 7.32804 6.71739 7.32028 6.72155C7.31248 6.72567 7.31608 6.74395 7.32832 6.76231L8.64004 8.73131C8.65228 8.74967 8.66852 8.76119 8.67632 8.75707C8.68408 8.75291 8.68048 8.73463 8.66824 8.71627Z" fill="#808080"/>
<path fill-rule="evenodd" clip-rule="evenodd" d="M7.50001 6.9244C7.50001 6.94 7.49309 6.95492 7.48077 6.96592C7.46849 6.97692 7.45177 6.98312 7.43437 6.98312C7.41697 6.98312 7.40029 6.97692 7.38797 6.96592C7.37569 6.95492 7.36877 6.94 7.36877 6.9244C7.36877 6.90884 7.37569 6.89392 7.38797 6.88292C7.40029 6.87188 7.41697 6.86572 7.43437 6.86572C7.45177 6.86572 7.46849 6.87188 7.48077 6.88292C7.49309 6.89392 7.50001 6.90884 7.50001 6.9244Z" fill="#D0D0D0" stroke="#707070" stroke-width="0.02914"/>
<path fill-rule="evenodd" clip-rule="evenodd" d="M8.64295 7.45215C8.64295 7.47615 8.48311 7.50811 8.31523 7.50811C8.13939 7.50811 7.98755 7.47615 7.98755 7.45215C7.98755 7.42819 8.13939 7.49215 8.30727 7.49215C8.49107 7.49215 8.64295 7.42819 8.64295 7.45215Z" fill="#808080"/>
<path fill-rule="evenodd" clip-rule="evenodd" d="M7.4281 7.65161H7.75582V7.77149H7.4361L7.4281 7.65161Z" fill="#A7A7A7"/>
<path fill-rule="evenodd" clip-rule="evenodd" d="M8.49206 7.36524C8.46006 7.4292 8.4361 7.46916 8.4281 7.46116C8.4281 7.46116 8.4441 7.3972 8.47606 7.34128L8.54002 7.24536C8.54802 7.25336 8.52402 7.30928 8.49206 7.36524ZM8.57198 7.52512L8.50802 7.56508C8.52462 7.53728 8.5463 7.51284 8.57198 7.49312C8.61194 7.46116 8.6439 7.44516 8.6439 7.45316L8.57998 7.51712L8.57198 7.52512Z" fill="#808080"/>
<path fill-rule="evenodd" clip-rule="evenodd" d="M8.53895 7.44393L8.57891 7.53985L8.51499 7.45989L8.47503 7.36401L8.53895 7.44393ZM8.50699 7.69969C8.50699 7.69969 8.41107 7.71569 8.28319 7.71569C8.15531 7.71569 8.05139 7.70769 8.05139 7.69969L8.28319 7.68373C8.41107 7.68373 8.50699 7.68373 8.50699 7.69969ZM7.75563 7.66773C7.75563 7.67573 7.68371 7.68373 7.59579 7.68373C7.49987 7.68373 7.43591 7.68373 7.43591 7.66773C7.43591 7.66773 7.49987 7.65173 7.59579 7.65173C7.68371 7.65173 7.75563 7.65973 7.75563 7.66773Z" fill="#808080"/>
<path fill-rule="evenodd" clip-rule="evenodd" d="M7.03748 8.69098C7.03748 8.69098 7.0934 8.8189 7.3252 8.8189C7.549 8.8189 7.62896 8.7789 7.541 8.71498C7.45308 8.65102 7.26924 8.66702 7.30124 8.72298C7.3172 8.7869 7.22928 8.8029 7.21332 8.76294C7.18932 8.72298 7.1094 8.59506 7.25328 8.5871C7.40512 8.5791 7.71688 8.53114 7.7968 8.61906C7.87672 8.70698 7.70888 8.7789 7.83676 8.8029C7.95664 8.8189 7.98064 8.7789 8.19644 8.77094C8.41224 8.75494 8.50016 8.8109 8.57212 8.8029C8.65204 8.8029 8.63604 8.66702 8.57212 8.64302C8.51616 8.60306 8.40428 8.59506 8.37228 8.5631C8.34832 8.52314 8.2684 8.5631 8.27636 8.51514C8.27636 8.47518 8.38828 8.53914 8.38828 8.52314L8.40428 8.50714H8.38028L8.38828 8.49118L8.37228 8.49918L8.38028 8.48318C8.38028 8.48318 8.35632 8.49918 8.35632 8.48318H8.34032C8.35632 8.46718 8.34832 8.46718 8.34032 8.45918H8.31636V8.43522C8.30036 8.43522 8.30036 8.43522 8.29236 8.45122V8.41122C8.29236 8.40326 8.30836 8.39526 8.33232 8.39526C8.38828 8.39526 8.41224 8.45918 8.43624 8.45918C8.45224 8.45918 8.4762 8.39526 8.54812 8.41922L8.66804 8.46718C8.708 8.49118 8.64404 8.51514 8.66804 8.5471C8.692 8.5791 8.83588 8.68298 8.79592 8.8029C8.75596 8.91478 8.63608 8.93078 8.63608 8.97874C8.62008 9.0267 8.97976 9.0107 9.06768 9.0267C9.1288 9.03778 9.18328 9.07218 9.21956 9.12262L9.05968 9.13062C9.05968 9.13062 8.97976 9.09066 8.77992 9.08266C8.58012 9.08266 8.50816 9.00274 8.42824 8.98674L8.10852 9.0027L7.86872 8.97874C7.82076 8.97074 7.53304 9.10662 7.53304 9.13862H7.3412C7.3412 9.13862 7.36516 9.06666 7.47708 9.05866C7.581 9.0427 7.69288 8.99474 7.68488 8.96274L7.71688 8.75494C7.71688 8.70698 7.76484 8.67502 7.75684 8.65902C7.74884 8.62706 7.62096 8.60306 7.50104 8.60306C7.38116 8.60306 7.25328 8.61106 7.22928 8.63506C7.21332 8.66702 7.22928 8.75494 7.25328 8.73894C7.27724 8.73894 7.24528 8.67502 7.26924 8.66702C7.32104 8.6511 7.37492 8.64302 7.42912 8.64302C7.49308 8.64302 7.59696 8.69898 7.59696 8.72298C7.59696 8.73094 7.62896 8.7869 7.581 8.8109C7.5012 8.83734 7.41708 8.84818 7.3332 8.84286C7.24968 8.8385 7.168 8.81674 7.0934 8.7789C7.06144 8.75494 7.03748 8.69898 7.03748 8.69098Z" fill="#D0D0D0" stroke="#808080" stroke-width="0.0199825"/>
<path fill-rule="evenodd" clip-rule="evenodd" d="M8.49169 8.49125C8.49169 8.49441 8.49105 8.49753 8.48985 8.50045C8.48865 8.50333 8.48689 8.50597 8.48465 8.50821C8.48241 8.51045 8.47977 8.51221 8.47689 8.51341C8.47397 8.51461 8.47085 8.51525 8.46769 8.51525C8.46453 8.51525 8.46145 8.51461 8.45853 8.51341C8.45561 8.51221 8.45297 8.51045 8.45073 8.50821C8.44853 8.50597 8.44677 8.50333 8.44553 8.50045C8.44433 8.49753 8.44373 8.49441 8.44373 8.49125C8.44373 8.48489 8.44625 8.47881 8.45073 8.47429C8.45525 8.46981 8.46133 8.46729 8.46769 8.46729C8.47405 8.46729 8.48017 8.46981 8.48465 8.47429C8.48917 8.47881 8.49169 8.48489 8.49169 8.49125Z" fill="black"/>
<path d="M9.73055 8.11651L9.85843 8.14051L10.0743 7.99663L10.0583 8.07655L9.94635 8.14847L9.88243 8.18047L9.92239 8.24439L9.99431 8.35631L9.97835 8.43623L9.84247 8.20443L9.71455 8.18047L9.73055 8.11651ZM9.51475 7.17335L9.75455 7.06143L9.69059 6.91755L9.72255 6.90159L9.88243 7.25327L9.85843 7.26927L9.78651 7.11739L9.54671 7.23727L9.51475 7.17335ZM9.13107 6.70975L9.35487 6.50191L9.40283 6.54987V6.90159L9.57867 6.74171L9.61867 6.78967L9.39483 6.99751L9.34691 6.94955V6.59783L9.17103 6.75771L9.13107 6.70975ZM8.13995 6.31011L8.17991 6.00635H8.24387L8.20391 6.28611L8.44367 6.31011V6.35007L8.13995 6.31011ZM7.65239 6.35807L7.59643 6.05431L7.66035 6.03835L7.70831 6.31011L7.94811 6.26215V6.30211L7.65239 6.35807ZM6.74915 6.79767L6.72519 6.77367L6.88503 6.64579L6.96499 6.72575C6.94779 6.76027 6.92631 6.79251 6.90103 6.82163C6.88031 6.85103 6.85615 6.87787 6.82911 6.90159C6.79535 6.92859 6.75759 6.95015 6.71719 6.96551C6.67723 6.97351 6.63727 6.98151 6.61327 6.96551C6.58271 6.96223 6.55431 6.94807 6.53335 6.92555C6.51719 6.90207 6.50879 6.87411 6.50939 6.84563C6.50939 6.81367 6.51735 6.77367 6.54135 6.74171C6.55735 6.70975 6.58931 6.67779 6.62127 6.65379C6.64791 6.63123 6.67747 6.61239 6.70919 6.59783L6.78115 6.58187C6.79711 6.58187 6.82111 6.58187 6.83707 6.59783L6.80511 6.63779C6.78999 6.63139 6.77355 6.62863 6.75715 6.62983L6.70919 6.63779C6.68883 6.64855 6.67003 6.66199 6.65323 6.67779C6.62927 6.69375 6.60531 6.70975 6.59731 6.73371C6.58383 6.74763 6.57299 6.76387 6.56531 6.78167V6.82163C6.56531 6.84563 6.57331 6.86959 6.58931 6.88559L6.64527 6.92555L6.72519 6.91755C6.79875 6.88651 6.85843 6.82967 6.89303 6.75771L6.86107 6.70975L6.74915 6.79767ZM6.74119 9.01171L6.48539 9.19555L6.29355 8.92379L6.32555 8.89983L6.48539 9.11563L6.55735 9.05967L6.42943 8.87583L6.45343 8.85987L6.58931 9.04371L6.70119 8.96375L6.74119 9.01171ZM6.36551 8.61207C6.40547 8.60407 6.42943 8.58011 6.44543 8.54015V8.42023C6.43283 8.37899 6.40767 8.34267 6.37351 8.31635C6.34951 8.29235 6.30955 8.28435 6.27759 8.29235C6.25227 8.29787 6.22967 8.31199 6.21363 8.33231C6.20563 8.34831 6.18967 8.37227 6.18967 8.39627L6.19763 8.48419C6.21363 8.53215 6.22963 8.56411 6.26159 8.59611C6.28559 8.62007 6.32555 8.62807 6.36551 8.61207ZM6.38947 8.67603C6.36607 8.68347 6.34103 8.68443 6.31711 8.67883C6.29319 8.67319 6.27123 8.66119 6.25359 8.64407C6.21095 8.60563 6.18039 8.55563 6.16567 8.50019C6.14971 8.45223 6.14971 8.42023 6.14971 8.37227C6.14971 8.32431 6.16567 8.30835 6.18167 8.28435C6.19987 8.25587 6.22859 8.23575 6.26159 8.22843C6.28839 8.22243 6.31643 8.22523 6.34151 8.23639C6.37351 8.25239 6.39747 8.26839 6.42147 8.30035C6.47055 8.37015 6.49319 8.45515 6.48539 8.54015C6.48251 8.57171 6.47147 8.60199 6.45343 8.62807C6.43743 8.65203 6.41347 8.66803 6.38947 8.67603ZM6.41347 8.05255H6.09375V7.82875L6.10971 7.73283L6.14171 7.67691C6.14819 7.67111 6.15579 7.66671 6.16403 7.66395C6.17227 7.66123 6.18099 7.66019 6.18967 7.66091C6.21363 7.66091 6.22963 7.66891 6.24559 7.69287C6.25359 7.71687 6.26959 7.74883 6.26959 7.79679C6.28015 7.76307 6.29943 7.73271 6.32555 7.70887L6.41347 7.62895V7.70887L6.34951 7.76483L6.30155 7.81279C6.29203 7.82219 6.28395 7.83295 6.27759 7.84475C6.27623 7.85535 6.27623 7.86611 6.27759 7.87671V7.90871L6.26959 7.98863H6.41347V8.05255ZM6.23763 7.98063V7.84475C6.24031 7.82083 6.24031 7.79671 6.23763 7.77283C6.23475 7.76107 6.22931 7.75015 6.22163 7.74083C6.21591 7.73271 6.20735 7.72703 6.19763 7.72487C6.18167 7.72487 6.16567 7.73283 6.15767 7.74883L6.14171 7.82875V7.98863H6.24559L6.23763 7.98063ZM7.09287 6.62983V6.27011L7.15679 6.23015L7.48451 6.39003L7.42059 6.42999L7.32467 6.38203L7.15679 6.48595V6.59783L7.09287 6.62983ZM7.14883 6.44599L7.29267 6.36603L7.21275 6.31807C7.18799 6.30627 7.16395 6.29291 7.14083 6.27811L7.14883 6.34207V6.44599ZM8.63551 6.35007L8.97123 6.21419L9.02719 6.25415L9.00319 6.62183L8.94723 6.57387L8.95523 6.46995L8.79539 6.35007L8.69147 6.39003L8.63551 6.35007ZM8.82735 6.33407L8.96323 6.42999V6.33407C8.96695 6.30715 8.97227 6.28043 8.97923 6.25415C8.96219 6.26959 8.94339 6.28299 8.92327 6.29411L8.82735 6.33407ZM9.65063 7.47707L9.95435 7.40515L10.0023 7.62095L10.0183 7.71687L10.0023 7.77283C9.99823 7.78059 9.99255 7.78747 9.98567 7.79299C9.97879 7.79847 9.97087 7.80251 9.96235 7.80479C9.93839 7.80479 9.91439 7.80479 9.89839 7.78879C9.87199 7.76203 9.85275 7.72903 9.84247 7.69287C9.84379 7.70619 9.84379 7.71955 9.84247 7.73283L9.81047 7.79679L9.74655 7.89271L9.73055 7.81279L9.77851 7.73283L9.81047 7.68491C9.82131 7.66535 9.82683 7.64331 9.82647 7.62095C9.82471 7.60747 9.82207 7.59411 9.81847 7.58099L9.80251 7.50903L9.66663 7.54103L9.65063 7.47707ZM9.83447 7.50107L9.86643 7.63695C9.86643 7.66091 9.88243 7.68487 9.89043 7.70087C9.89043 7.71687 9.90639 7.72487 9.91439 7.73283L9.94635 7.74083C9.95435 7.74083 9.97035 7.72487 9.97035 7.70887C9.97679 7.68263 9.97679 7.65519 9.97035 7.62895L9.93039 7.47707L9.83447 7.50107Z" fill="#D0D0D0"/>
</g>
</g>
</g>
<defs>
<clipPath id="clip0_69_8502">
<rect width="24" height="24" rx="12" fill="white"/>
</clipPath>
<clipPath id="clip1_69_8502">
<rect width="32" height="24" fill="white"/>
</clipPath>
</defs>
</svg>
