<svg width="24" height="24" viewBox="0 0 24 24" fill="none" xmlns="http://www.w3.org/2000/svg">
<g clip-path="url(#clip0_69_8485)">
<path d="M0 -1.19995H24V25.6H0V-1.19995Z" fill="#D21034"/>
<path d="M4.5 7.69995H19.5V16.7H4.5V7.69995Z" fill="#007E3A"/>
<path d="M13.125 15.2C14.7818 15.2 16.125 13.8568 16.125 12.2C16.125 10.5431 14.7818 9.19995 13.125 9.19995C11.4682 9.19995 10.125 10.5431 10.125 12.2C10.125 13.8568 11.4682 15.2 13.125 15.2Z" fill="white"/>
<path d="M14.25 15.2C15.9068 15.2 17.25 13.8568 17.25 12.2C17.25 10.5431 15.9068 9.19995 14.25 9.19995C12.5932 9.19995 11.25 10.5431 11.25 12.2C11.25 13.8568 12.5932 15.2 14.25 15.2Z" fill="#007E3A"/>
</g>
<defs>
<clipPath id="clip0_69_8485">
<rect width="24" height="24" rx="12" fill="white"/>
</clipPath>
</defs>
</svg>
