<svg width="24" height="24" viewBox="0 0 24 24" fill="none" xmlns="http://www.w3.org/2000/svg">
<g clip-path="url(#clip0_69_8446)">
<g clip-path="url(#clip1_69_8446)">
<mask id="mask0_69_8446" style="mask-type:luminance" maskUnits="userSpaceOnUse" x="-4" y="0" width="32" height="24">
<path d="M28 0H-4V24H28V0Z" fill="white"/>
</mask>
<g mask="url(#mask0_69_8446)">
<path fill-rule="evenodd" clip-rule="evenodd" d="M-4 0H28V24H-4V0Z" fill="#F41408"/>
<path fill-rule="evenodd" clip-rule="evenodd" d="M-4 16H28V24H-4V16Z" fill="#21873B"/>
<path fill-rule="evenodd" clip-rule="evenodd" d="M-4 0H28V8H-4V0Z" fill="black"/>
<path fill-rule="evenodd" clip-rule="evenodd" d="M7.02444 7.04995C8.13944 4.58995 11.2494 3.40995 13.9644 4.42495C14.6016 4.64095 15.1877 4.98535 15.6865 5.43687C16.1853 5.88835 16.5862 6.43739 16.8644 7.04995H7.02444ZM5.72444 7.36995C4.84212 7.30987 3.966 7.17947 3.10444 6.97995C2.89944 6.91495 2.88944 6.79995 2.91444 6.71495C2.93944 6.62995 3.06944 6.53495 3.22444 6.56495C3.50444 6.63495 4.66444 6.91495 5.72444 7.36995ZM11.9544 3.07495C11.7444 2.02495 11.6944 0.874951 11.7144 0.674951C11.7344 0.479951 11.8494 0.449951 11.9494 0.449951C12.0494 0.449951 12.1844 0.539951 12.1844 0.684951C12.1844 0.949951 12.1794 2.03495 11.9544 3.08495V3.07495ZM12.5344 3.09995C12.4515 2.299 12.4465 1.49188 12.5194 0.689951C12.5594 0.494951 12.6794 0.469951 12.7744 0.479951C12.8744 0.484951 12.9994 0.584951 12.9844 0.729951C12.9594 0.994951 12.8544 2.07495 12.5344 3.09995ZM13.0544 3.16495C13.0444 2.09995 13.2044 0.949951 13.2594 0.764951C13.3144 0.569951 13.4394 0.554951 13.5344 0.569951C13.6344 0.584951 13.7494 0.694951 13.7244 0.834951C13.6744 1.09995 13.4644 2.16495 13.0544 3.16495ZM13.6044 3.27495C13.6944 2.21495 13.9694 1.08495 14.0444 0.899951C14.1194 0.714951 14.2444 0.709951 14.3344 0.729951C14.4344 0.754951 14.5344 0.869951 14.4994 1.00995C14.4194 1.26495 14.1144 2.30995 13.6094 3.27495H13.6044ZM14.1494 3.43495C14.3444 2.38495 14.7244 1.27995 14.8144 1.09995C14.9094 0.924951 15.0294 0.924951 15.1244 0.954951C15.2144 0.984951 15.3094 1.11495 15.2594 1.24495C14.9583 2.00785 14.5867 2.74102 14.1494 3.43495ZM14.6544 3.62495C14.9444 2.58995 15.4294 1.52495 15.5394 1.34995C15.6494 1.17995 15.7694 1.19495 15.8594 1.23495C15.9494 1.26995 16.0294 1.40495 15.9644 1.53495C15.8394 1.77495 15.3394 2.75495 14.6544 3.62495ZM15.1544 3.85995C15.4518 3.09557 15.8201 2.3607 16.2544 1.66495C16.3744 1.50495 16.4994 1.52995 16.5844 1.57495C16.6096 1.58986 16.6315 1.60962 16.649 1.63311C16.6664 1.65659 16.679 1.68331 16.686 1.71171C16.693 1.74011 16.6942 1.76961 16.6896 1.7985C16.6851 1.82739 16.6748 1.85508 16.6594 1.87995C16.5094 2.10995 15.9144 3.04995 15.1544 3.85995ZM15.6244 4.13495C16.1094 3.16495 16.7894 2.18495 16.9294 2.03495C17.0694 1.88495 17.1894 1.91995 17.2694 1.96995C17.2933 1.98685 17.3136 2.00833 17.329 2.03314C17.3445 2.05795 17.3548 2.0856 17.3595 2.11446C17.3642 2.14332 17.363 2.17282 17.3561 2.20124C17.3492 2.22965 17.3368 2.25641 17.3194 2.27995C17.1444 2.49995 16.4594 3.38495 15.6194 4.12995L15.6244 4.13495ZM16.0644 4.44495C16.6444 3.51495 17.4144 2.59495 17.5694 2.45995C17.7194 2.31995 17.8394 2.35995 17.9144 2.41995C17.9363 2.43898 17.9541 2.46224 17.9668 2.48833C17.9794 2.51442 17.9866 2.54279 17.988 2.57175C17.9894 2.60071 17.985 2.62966 17.9749 2.65684C17.9648 2.68403 17.9494 2.70889 17.9294 2.72995C17.7394 2.93495 16.9744 3.76495 16.0644 4.44495ZM16.4794 4.78995C16.9867 4.12123 17.5522 3.49879 18.1694 2.92995C18.3344 2.80495 18.4444 2.85495 18.5144 2.91495C18.5352 2.93609 18.5513 2.96128 18.5618 2.98894C18.5724 3.01661 18.5771 3.04615 18.5757 3.07573C18.5743 3.1053 18.5668 3.13426 18.5537 3.1608C18.5406 3.18734 18.5221 3.21088 18.4994 3.22995C18.2944 3.41995 17.4494 4.18495 16.4794 4.78995ZM16.8594 5.16495C17.4261 4.53799 18.0487 3.96397 18.7194 3.44995C18.8994 3.33495 19.0044 3.39495 19.0694 3.46495C19.1294 3.52995 19.1444 3.68495 19.0194 3.77495C18.3397 4.29799 17.6171 4.76299 16.8594 5.16495ZM17.1844 5.55495C17.8096 4.97299 18.4838 4.44603 19.1994 3.97995C19.3844 3.87995 19.4844 3.94995 19.5394 4.02495C19.5994 4.09495 19.5944 4.24995 19.4694 4.32995C19.2294 4.47995 18.2544 5.10995 17.1844 5.55495ZM17.4794 5.96995C18.1556 5.44239 18.8748 4.97239 19.6294 4.56495C19.8294 4.47995 19.9244 4.55495 19.9744 4.62995C20.0244 4.70995 20.0044 4.85995 19.8744 4.92995C19.1041 5.34139 18.3014 5.68919 17.4744 5.96995H17.4794ZM17.7494 6.44995C18.4777 5.98067 19.2437 5.57263 20.0394 5.22995C20.2444 5.15995 20.3294 5.24495 20.3694 5.32495C20.4144 5.40495 20.3844 5.55495 20.2394 5.61495C19.9744 5.72495 18.8894 6.18495 17.7494 6.44995ZM17.9594 6.90995C18.7297 6.49835 19.5324 6.15055 20.3594 5.86995C20.5694 5.81995 20.6444 5.90995 20.6794 5.99495C20.7094 6.07495 20.6644 6.22495 20.5194 6.26995C20.2444 6.36495 19.1194 6.73495 17.9594 6.90995ZM18.1294 7.39995C18.9352 7.05139 19.768 6.76879 20.6194 6.55495C20.8294 6.52495 20.8994 6.61495 20.9244 6.70495C20.9494 6.78995 20.8894 6.92995 20.7394 6.96995C20.4544 7.03495 19.2994 7.31995 18.1294 7.39995ZM11.3894 3.09995C11.1522 2.3273 10.9898 1.53366 10.9044 0.729951C10.9044 0.534951 11.0194 0.489951 11.1144 0.479951C11.2144 0.474951 11.3644 0.554951 11.3744 0.694951C11.3994 0.959951 11.5044 2.03995 11.3944 3.09995H11.3894ZM10.8394 3.16495C10.5267 2.41654 10.2872 1.63958 10.1244 0.844951C10.1044 0.644951 10.2144 0.594951 10.3094 0.579951C10.4094 0.564951 10.5594 0.629951 10.5894 0.769951C10.7458 1.55896 10.8295 2.36065 10.8394 3.16495ZM10.2894 3.27495C9.90544 2.55299 9.59072 1.79627 9.34944 1.01495C9.30944 0.819951 9.41444 0.759951 9.50944 0.734951C9.60444 0.714951 9.75944 0.764951 9.80444 0.904951C9.87944 1.15995 10.1894 2.20495 10.2844 3.26995L10.2894 3.27495ZM9.76444 3.42495C9.31768 2.73695 8.93604 2.0088 8.62444 1.24995C8.56944 1.05995 8.66444 0.989951 8.75444 0.959951C8.84944 0.929951 9.00944 0.969951 9.06444 1.09995C9.16444 1.34995 9.57444 2.36995 9.76444 3.41995V3.42495ZM9.25944 3.59995C8.74692 2.95102 8.29504 2.25645 7.90944 1.52495C7.83944 1.33995 7.92944 1.25995 8.01944 1.22495C8.10944 1.18495 8.26944 1.21495 8.33944 1.34495C8.46444 1.58495 8.96445 2.56995 9.25944 3.59995ZM8.74444 3.84995C8.16948 3.24491 7.65068 2.58888 7.19444 1.88995C7.10944 1.71495 7.18944 1.62995 7.27444 1.58495C7.35944 1.53995 7.52444 1.55495 7.60444 1.67995C7.75444 1.90995 8.35444 2.84495 8.74444 3.84995ZM8.27444 4.11995C7.64644 3.56036 7.0692 2.9463 6.54944 2.28495C6.44444 2.11495 6.51444 2.02495 6.59944 1.96995C6.67444 1.91995 6.84944 1.91995 6.93444 2.03995C7.10444 2.25495 7.78944 3.13995 8.27444 4.11495V4.11995ZM7.83944 4.41995C7.15972 3.91109 6.52564 3.34394 5.94444 2.72495C5.82444 2.56495 5.88944 2.47495 5.96444 2.41495C6.01728 2.3822 6.07968 2.36833 6.14144 2.37559C6.20316 2.38286 6.26064 2.41083 6.30444 2.45495C6.49444 2.65495 7.26444 3.48995 7.83944 4.41995ZM7.41444 4.76995C6.68844 4.31787 6.0026 3.80431 5.36444 3.23495C5.22444 3.08495 5.27944 2.98495 5.34944 2.91995C5.4 2.88266 5.4618 2.86382 5.5246 2.86655C5.58736 2.86928 5.64728 2.89341 5.69444 2.93495C5.90444 3.11995 6.74444 3.88495 7.41444 4.76495V4.76995ZM7.04444 5.11995C6.27892 4.72547 5.548 4.26719 4.85944 3.74995C4.70944 3.60995 4.75444 3.50995 4.81944 3.43995C4.87944 3.36995 5.04444 3.33495 5.16444 3.42495C5.8392 3.93605 6.46824 4.50487 7.04444 5.12495V5.11995ZM6.69444 5.52995C5.8928 5.19799 5.12012 4.79995 4.38444 4.33995C4.21944 4.21495 4.25444 4.10495 4.30944 4.03495C4.36444 3.95995 4.52444 3.90995 4.65444 3.98995C4.89444 4.14495 5.86944 4.76495 6.69444 5.52995ZM6.37944 5.96995C5.26944 5.61995 4.13444 5.08995 3.95944 4.97495C3.77944 4.86495 3.80944 4.75495 3.85444 4.67495C3.89944 4.59495 4.05444 4.53495 4.19444 4.60495C4.44444 4.73995 5.48444 5.27995 6.37944 5.96995ZM6.11444 6.41995C4.97444 6.15495 3.79944 5.71995 3.60944 5.61995C3.42444 5.51995 3.43444 5.40995 3.47944 5.32995C3.51944 5.24995 3.66444 5.17495 3.80944 5.22995C4.07444 5.34495 5.15944 5.79995 6.11444 6.41995ZM5.90444 6.86995C5.0328 6.73595 4.17332 6.53195 3.33444 6.25995C3.13444 6.17995 3.14444 6.06495 3.17444 5.98495C3.20944 5.89995 3.34944 5.81495 3.49444 5.85995C3.77444 5.95495 4.89444 6.32495 5.90444 6.86995Z" fill="#F31509"/>
<path fill-rule="evenodd" clip-rule="evenodd" d="M5.72444 7.36999C4.84212 7.30991 3.966 7.17947 3.10444 6.97999C2.89944 6.91499 2.88944 6.79999 2.91444 6.71499C2.93944 6.62999 3.06944 6.53499 3.22444 6.56499C3.50444 6.63499 4.66444 6.91499 5.72444 7.36999Z" fill="#F31509"/>
<path fill-rule="evenodd" clip-rule="evenodd" d="M2.47031 7.07495H21.5303V7.70495H2.47031V7.07495Z" fill="black"/>
</g>
</g>
</g>
<defs>
<clipPath id="clip0_69_8446">
<rect width="24" height="24" rx="12" fill="white"/>
</clipPath>
<clipPath id="clip1_69_8446">
<rect width="32" height="24" fill="white" transform="translate(-4)"/>
</clipPath>
</defs>
</svg>
