<svg width="24" height="24" viewBox="0 0 24 24" fill="none" xmlns="http://www.w3.org/2000/svg">
<g clip-path="url(#clip0_69_8458)">
<g clip-path="url(#clip1_69_8458)">
<mask id="mask0_69_8458" style="mask-type:luminance" maskUnits="userSpaceOnUse" x="0" y="0" width="32" height="24">
<path d="M32 0H0V24H32V0Z" fill="white"/>
</mask>
<g mask="url(#mask0_69_8458)">
<mask id="mask1_69_8458" style="mask-type:luminance" maskUnits="userSpaceOnUse" x="0" y="0" width="32" height="24">
<path d="M0 0H32V24H0V0Z" fill="white"/>
</mask>
<g mask="url(#mask1_69_8458)">
<path d="M0 0H32V24H0V0Z" fill="#CC0000"/>
<path d="M0 0H32V1.715H0V0Z" fill="#CC0000"/>
<path d="M0 1.71558H32V3.43058H0V1.71558Z" fill="white"/>
<path d="M0 3.42969H32V5.14468H0V3.42969Z" fill="#CC0000"/>
<path d="M0 5.14526H32V6.85026H0V5.14526Z" fill="white"/>
<path d="M0 6.85474H32V8.56974H0V6.85474Z" fill="#CC0000"/>
<path d="M0 8.57031H32V10.2853H0V8.57031Z" fill="white"/>
<path d="M0 10.2844H32V11.9994H0V10.2844Z" fill="#CC0000"/>
<path d="M0 12H32V13.715H0V12Z" fill="white"/>
<path d="M0 13.7156H32V15.4306H0V13.7156Z" fill="#CC0000"/>
<path d="M0 15.4297H32V17.1447H0V15.4297Z" fill="white"/>
<path d="M0 17.1453H32V18.8503H0V17.1453Z" fill="#CC0000"/>
<path d="M0 18.8547H32V20.5697H0V18.8547Z" fill="white"/>
<path d="M0 20.5703H32V22.2853H0V20.5703Z" fill="#CC0000"/>
<path d="M0 22.2844H32V23.9994H0V22.2844Z" fill="white"/>
<path d="M0 0.0249023H16V13.7399H0V0.0249023Z" fill="#000066"/>
<path d="M10.3747 3.69029L10.6747 5.72529L11.8247 4.02529L11.2047 5.98529L12.9797 4.94529L11.5747 6.44529L13.6247 6.28529L11.7097 7.02529L13.6247 7.76529L11.5747 7.60529L12.9797 9.10529L11.2047 8.06529L11.8197 10.0303L10.6697 8.32529L10.3697 10.3603L10.0747 8.32529L8.92469 10.0253L9.54469 8.06529L7.76969 9.10529L9.16969 7.60529L7.11969 7.76529L9.03969 7.02529L7.12469 6.28529L9.17469 6.44529L7.76969 4.94529L9.54469 5.98529L8.92469 4.02029L10.0747 5.72529L10.3747 3.69029ZM8.70969 3.77529C8.16829 3.53443 7.57525 3.43272 6.98453 3.47943C6.39381 3.52613 5.82409 3.71975 5.32725 4.04269C4.83041 4.36565 4.42221 4.80765 4.13969 5.32857C3.85719 5.84945 3.70938 6.43273 3.7097 7.02529C3.70938 7.61785 3.85719 8.20113 4.13969 8.72201C4.42221 9.24293 4.83041 9.68493 5.32725 10.0079C5.82409 10.3308 6.39381 10.5244 6.98453 10.5712C7.57525 10.6178 8.16829 10.5162 8.70969 10.2753C8.11193 10.7047 7.40729 10.9608 6.67329 11.0155C5.93933 11.0702 5.20449 10.9213 4.54969 10.5853C3.89564 10.2488 3.34704 9.73845 2.9642 9.11037C2.58136 8.48229 2.37912 7.76085 2.3797 7.02529C2.37994 6.28993 2.5829 5.56885 2.96626 4.94133C3.34962 4.31381 3.89854 3.80409 4.55273 3.46822C5.20689 3.13235 5.94101 2.98331 6.67437 3.03748C7.40773 3.09165 8.11197 3.34694 8.70969 3.77529Z" fill="#FFCC00"/>
</g>
</g>
</g>
</g>
<defs>
<clipPath id="clip0_69_8458">
<rect width="24" height="24" rx="12" fill="white"/>
</clipPath>
<clipPath id="clip1_69_8458">
<rect width="32" height="24" fill="white"/>
</clipPath>
</defs>
</svg>
