<svg width="24" height="24" viewBox="0 0 24 24" fill="none" xmlns="http://www.w3.org/2000/svg">
<g clip-path="url(#clip0_69_9212)">
<path fill-rule="evenodd" clip-rule="evenodd" d="M0 -4.2666H36V7.50007H0V-4.2666Z" fill="#009A00"/>
<path fill-rule="evenodd" clip-rule="evenodd" d="M0 7.5H36V8.25H0V7.5Z" fill="white"/>
<path fill-rule="evenodd" clip-rule="evenodd" d="M0 8.25H36V15.75H0V8.25Z" fill="black"/>
<path fill-rule="evenodd" clip-rule="evenodd" d="M0 15.75H36V16.5H0V15.75Z" fill="white"/>
<path fill-rule="evenodd" clip-rule="evenodd" d="M0 16.5H36V28.2667H0V16.5Z" fill="#FFCA00"/>
<path fill-rule="evenodd" clip-rule="evenodd" d="M0 0V24L15.75 12L0 0Z" fill="#FF0000"/>
<path fill-rule="evenodd" clip-rule="evenodd" d="M9.30468 15.6094L6.90468 13.8516L4.50468 15.6094L5.43752 12.7828L3.02344 11.0438L6 11.0532L6.90468 8.22192L7.81408 11.0578L10.7906 11.0438L8.37656 12.7828L9.30468 15.6094Z" fill="#FFCA00"/>
<path fill-rule="evenodd" clip-rule="evenodd" d="M4.81879 13.6359H6.55315C6.69379 13.7906 6.99847 13.8562 7.29379 13.6359C7.83755 13.3359 8.88755 13.6359 8.88755 13.6359L9.09379 13.4156L8.59223 11.7656L8.40939 11.5687C8.40939 11.5687 8.02035 11.3343 7.28439 11.4141C6.54847 11.4937 6.29067 11.3906 6.29067 11.3906C6.29067 11.3906 5.64847 11.4656 5.46567 11.5593L5.25939 11.7656L4.81879 13.6359Z" fill="white" stroke="black" stroke-width="0.128906" stroke-linecap="round" stroke-linejoin="round"/>
<path d="M5.17035 13.2093C5.17035 13.2093 6.82035 13.0031 7.29847 13.6359C7.03127 13.8234 6.79223 13.8374 6.53911 13.65C6.57659 13.5796 7.12971 13.0031 8.54067 13.1953" stroke="black" stroke-width="0.128906" stroke-linecap="round" stroke-linejoin="round"/>
<path d="M6.93751 11.5593L6.92343 13.3781M8.40935 11.5828L8.71875 13.0312" stroke="black" stroke-width="0.140625"/>
<path d="M5.48435 11.5593L5.31091 12.3093" stroke="black" stroke-width="0.128906" stroke-linecap="round" stroke-linejoin="round"/>
<path fill-rule="evenodd" clip-rule="evenodd" d="M3.69843 13.8328L4.10155 14.3109C4.14843 14.3391 4.19531 14.3391 4.23747 14.3109L4.83747 13.5891L5.09063 13.275C5.13279 13.2281 5.14219 13.1766 5.13747 13.1344L5.62499 12.6984L5.72811 12.7078C5.68123 12.6984 5.64843 12.675 5.68123 12.6234L5.79375 12.5391L5.87811 12.6469C5.87811 12.6469 5.75623 12.8062 5.74219 12.8062H5.61091L5.35779 13.0359L5.47031 13.1297L5.63435 13.5891L5.84063 13.4438L5.70935 12.975L5.99531 12.6609L5.88747 12.4922L5.96247 12.3984C5.96247 12.3984 6.96091 13.0266 7.34999 12.8578C7.35935 12.8578 7.37343 12.4078 7.37343 12.4078C7.37343 12.4078 6.33279 12.3 6.30935 12.0938C6.28591 11.8875 6.54375 11.8594 6.54375 11.8594L6.43123 11.7094L6.45467 11.625L6.63751 11.85L7.04531 11.5031L9.45935 14.25C9.59063 14.1984 9.61875 14.1656 9.62811 14.0344L7.26563 11.3203L7.44375 11.1281C7.48123 11.0859 7.49063 11.0719 7.49063 11.0062L7.77187 10.7672C7.84551 10.7924 7.90835 10.842 7.94999 10.9078L8.71875 10.2656C8.73747 10.2844 8.79843 10.3031 8.84063 10.2844L10.1015 9.07031L8.72811 10.0406L8.68123 10.0078C8.68123 9.96563 8.72811 9.96091 8.68123 9.88591C8.62499 9.82031 8.54531 9.94687 8.53591 9.94687C8.52187 9.94687 8.33435 9.88123 8.29219 9.79687L8.28279 10.0172L7.93123 10.3453L7.66407 10.3312L7.27967 10.7062L7.23279 10.8469L7.29375 10.9734C7.29375 10.9734 7.08747 11.1516 7.08747 11.1422C7.08747 11.1281 7.04531 11.0859 7.04063 11.0812L7.21875 10.9219L7.24219 10.8141L7.18591 10.7203C7.16719 10.7344 6.94219 10.9734 6.92811 10.9453L6.27187 10.2188L6.30935 10.0828L5.90155 9.63751C5.75155 9.58591 5.51247 9.57655 5.46563 9.90467C5.42811 9.97967 5.11875 9.91407 5.11875 9.91407L4.94999 9.95155L3.99374 11.2969L4.52343 11.9344L5.61091 10.5609L5.64375 10.1719L5.86875 10.425C5.94843 10.4344 6.01875 10.4391 6.08907 10.4016L6.73123 11.1188L6.62343 11.2266L6.71719 11.3297L6.82967 11.2547L6.87187 11.3156C6.82031 11.3438 6.77811 11.3859 6.72655 11.4141C6.64219 11.3578 6.55779 11.2875 6.56247 11.1797L6.20155 11.4797L6.18747 11.5359L5.11407 12.4266L5.02031 12.4406L4.99687 12.7219L5.69531 12.1406V12.0562L5.76563 12.1172L6.30935 11.6812C6.30935 11.6812 6.34687 11.7281 6.33279 11.7281C6.31875 11.7281 5.84999 12.1641 5.84999 12.1641L5.84063 12.2109L5.75623 12.2859L5.70935 12.2484L5.05311 12.8297H4.95935L4.59843 13.1906C4.50467 13.2 4.42499 13.2094 4.34531 13.2609L3.69843 13.8328Z" fill="black" stroke="black" stroke-width="0.128906" stroke-linecap="round" stroke-linejoin="round"/>
</g>
<defs>
<clipPath id="clip0_69_9212">
<rect width="24" height="24" rx="12" fill="white"/>
</clipPath>
</defs>
</svg>
