<svg width="24" height="24" viewBox="0 0 24 24" fill="none" xmlns="http://www.w3.org/2000/svg">
<g clip-path="url(#clip0_69_9242)">
<path fill-rule="evenodd" clip-rule="evenodd" d="M-6 -1.59985H30V25.6001H-6V-1.59985Z" fill="white"/>
<path fill-rule="evenodd" clip-rule="evenodd" d="M-2.28925 2.00838L-2.25625 16.4084L19.9404 2.00005L13 -4.19995L-2.28925 2.00838Z" fill="#3662A2"/>
<path fill-rule="evenodd" clip-rule="evenodd" d="M26.2882 21.984L26.2305 7.01318L3.84412 21.9924L11.6 28.2001L26.2841 21.984H26.2882Z" fill="#38A100"/>
<path fill-rule="evenodd" clip-rule="evenodd" d="M-2.27249 17.4924L-2.25599 22.0007L2.59088 21.9965L26.2478 5.9757L26.2189 2.05485L21.4339 2.01318L-2.27249 17.4882V17.4924Z" fill="#C70000"/>
<path fill-rule="evenodd" clip-rule="evenodd" d="M7.85775 9.16683L6.9585 8.61683L6.43875 9.53766L5.9355 8.61266L5.028 9.15016L5.05275 8.09183L4.005 8.10016L4.5495 7.19183L3.63788 6.671L4.55363 6.1585L4.02563 5.24183L5.07338 5.26683L5.06925 4.20433L5.96438 4.75433L6.48413 3.8335L6.98738 4.7585L7.89488 4.221L7.87013 5.27933L8.91788 5.271L8.37338 6.17933L9.285 6.70016L8.36925 7.21266L8.89725 8.12933L7.8495 8.10433L7.85775 9.16683Z" fill="#FFE700"/>
<path fill-rule="evenodd" clip-rule="evenodd" d="M8.38597 6.6828C8.38597 7.74947 7.52385 8.61197 6.46372 8.61197C5.4036 8.61197 4.54147 7.74947 4.54147 6.6828C4.54147 5.61613 5.39947 4.75781 6.46372 4.75781C7.52797 4.75781 8.38597 5.6203 8.38597 6.6828Z" fill="#3662A2"/>
<path fill-rule="evenodd" clip-rule="evenodd" d="M7.96911 6.68368C7.96911 7.08702 7.81047 7.47385 7.52809 7.75908C7.24574 8.04428 6.86278 8.20452 6.46348 8.20452C6.06415 8.20452 5.68118 8.04428 5.39883 7.75908C5.11645 7.47385 4.95786 7.08702 4.95786 6.68368C4.95786 6.28032 5.11645 5.89348 5.39883 5.60828C5.68118 5.32307 6.06415 5.16284 6.46348 5.16284C6.86278 5.16284 7.24574 5.32307 7.52809 5.60828C7.81047 5.89348 7.96911 6.28032 7.96911 6.68368Z" fill="#FFE700"/>
</g>
<defs>
<clipPath id="clip0_69_9242">
<rect width="24" height="24" rx="12" fill="white"/>
</clipPath>
</defs>
</svg>
