<svg width="24" height="24" viewBox="0 0 24 24" fill="none" xmlns="http://www.w3.org/2000/svg">
<g clip-path="url(#clip0_69_9279)">
<path d="M0 6.3999H24V24.3999H0V6.3999Z" fill="#009543"/>
<path d="M0 3.19995H24V15.2H0V3.19995Z" fill="#ED4135"/>
<path d="M0 -0.400146H24V9.19985H0V-0.400146Z" fill="#0035AD"/>
<path d="M8.99952 18.098C12.2573 18.098 14.8983 15.4571 14.8983 12.1993C14.8983 8.9415 12.2573 6.30054 8.99952 6.30054C5.74173 6.30054 3.10077 8.9415 3.10077 12.1993C3.10077 15.4571 5.74173 18.098 8.99952 18.098Z" fill="#FAE600" stroke="black" stroke-width="0.6625"/>
<path d="M7.99924 13.0806H9.99799M7.99924 11.5993H9.99799M9.00049 6.31934V16.3993" stroke="black" stroke-width="0.8"/>
<path d="M6.62225 17.615C9.02975 18.6012 11.2873 17.6787 11.2873 17.6787C11.2873 17.6787 10.436 16.7562 10.001 16.3962C9.5735 16.0437 8.321 16.0587 7.8935 16.3962C7.45046 16.7819 7.02623 17.1886 6.62225 17.615Z" fill="black"/>
<path d="M9.00024 15.8787C9.36474 15.8787 9.66024 15.4489 9.66024 14.9187C9.66024 14.3886 9.36474 13.9587 9.00024 13.9587C8.63574 13.9587 8.34024 14.3886 8.34024 14.9187C8.34024 15.4489 8.63574 15.8787 9.00024 15.8787Z" fill="black"/>
<path d="M8.99953 12.8443C9.44068 12.8443 9.79828 12.6176 9.79828 12.338C9.79828 12.0585 9.44068 11.8318 8.99953 11.8318C8.55841 11.8318 8.20078 12.0585 8.20078 12.338C8.20078 12.6176 8.55841 12.8443 8.99953 12.8443Z" fill="black"/>
<path d="M8.99953 10.7975C9.44068 10.7975 9.79828 10.4399 9.79828 9.9987C9.79828 9.55755 9.44068 9.19995 8.99953 9.19995C8.55841 9.19995 8.20078 9.55755 8.20078 9.9987C8.20078 10.4399 8.55841 10.7975 8.99953 10.7975Z" fill="black"/>
<path d="M9.95952 7.02157C9.95952 7.02157 10.027 7.13407 9.88452 7.39657C9.18702 8.65282 8.48577 8.67907 8.35452 8.78782C8.20452 8.90782 8.14452 8.90032 8.14452 8.90032C8.15577 8.79157 8.16327 8.35282 8.17077 8.31157C8.27952 7.72282 9.16452 7.73032 9.85827 7.13032C9.96702 7.03657 9.95952 7.01782 9.95952 7.01782V7.02157ZM7.61952 9.72157C7.61952 9.72157 7.78077 10.1716 7.79952 10.6216C7.83702 11.3416 8.52702 11.3603 8.99952 11.3603V10.9591C8.64327 10.9591 8.33577 10.9066 8.08077 10.3816C7.94661 10.1485 7.79226 9.92767 7.61952 9.72157ZM7.60077 15.5191C7.60077 15.5191 7.85202 15.2078 8.14827 14.4803C8.29827 14.1016 8.66577 13.8803 8.99952 13.8803V13.3178C8.23827 13.3178 7.87452 13.5991 7.83702 14.0153C7.78932 14.5209 7.71042 15.0231 7.60077 15.5191Z" fill="black"/>
<path d="M10.38 9.72144C10.38 9.72144 10.2187 10.1714 10.2 10.6214C10.1625 11.3414 9.4725 11.3602 9 11.3602V10.9627C9.35625 10.9627 9.66375 10.9102 9.91875 10.3814C10.0537 10.1489 10.2075 9.92769 10.38 9.72144ZM10.3987 15.5227C10.3987 15.5227 10.1475 15.2077 9.85125 14.4802C9.70125 14.1014 9.33375 13.8802 9 13.8802V13.3252C9.76125 13.3252 10.125 13.6064 10.1625 14.0227C10.2104 14.527 10.2893 15.028 10.3987 15.5227Z" fill="black"/>
</g>
<defs>
<clipPath id="clip0_69_9279">
<rect width="24" height="24" rx="12" fill="white"/>
</clipPath>
</defs>
</svg>
