<svg width="24" height="24" viewBox="0 0 24 24" fill="none" xmlns="http://www.w3.org/2000/svg">
<g clip-path="url(#clip0_69_9560)">
<g clip-path="url(#clip1_69_9560)">
<mask id="mask0_69_9560" style="mask-type:luminance" maskUnits="userSpaceOnUse" x="-4" y="0" width="32" height="24">
<path d="M28 0H-4V24H28V0Z" fill="white"/>
</mask>
<g mask="url(#mask0_69_9560)">
<path d="M-4 0H28V24H-4V0Z" fill="#0DB02B"/>
<path d="M-4 0H28V16H-4V0Z" fill="white"/>
<path d="M-4 0H28V8H-4V0Z" fill="#E05206"/>
<path d="M12 15.4001C13.8778 15.4001 15.4 13.8779 15.4 12.0001C15.4 10.1223 13.8778 8.6001 12 8.6001C10.1222 8.6001 8.6 10.1223 8.6 12.0001C8.6 13.8779 10.1222 15.4001 12 15.4001Z" fill="#E05206"/>
</g>
</g>
</g>
<defs>
<clipPath id="clip0_69_9560">
<rect width="24" height="24" rx="12" fill="white"/>
</clipPath>
<clipPath id="clip1_69_9560">
<rect width="32" height="24" fill="white" transform="translate(-4)"/>
</clipPath>
</defs>
</svg>
