<svg width="24" height="24" viewBox="0 0 24 24" fill="none" xmlns="http://www.w3.org/2000/svg">
<g clip-path="url(#clip0_69_9592)">
<path fill-rule="evenodd" clip-rule="evenodd" d="M7.2 0H16.8V24H7.2V0Z" fill="white"/>
<path fill-rule="evenodd" clip-rule="evenodd" d="M0 0H7.305V24H0V0ZM16.695 0H24V24H16.695V0Z" fill="#198200"/>
<path fill-rule="evenodd" clip-rule="evenodd" d="M11.7638 16.0337V17.9399L12.5357 17.9471C12.5357 17.9471 12.2893 16.2874 12.4234 16.0627C12.5575 15.8453 12.6843 15.8743 12.6843 15.8743C12.6843 15.8743 13.188 16.0265 13.2424 16.0011C13.2967 15.9794 13.2351 15.8127 13.5033 15.8344C13.5903 15.8018 13.5432 15.6532 13.6229 15.646C13.7026 15.6351 15.2355 16.0736 15.5689 15.6605C15.482 15.4285 15.1812 15.6423 15.1014 15.6532C15.029 15.6532 14.7282 15.5082 14.5542 15.6532C14.3948 15.5336 13.67 15.4539 13.67 15.4539C13.5758 15.3597 15.395 15.501 15.5001 15.4285C15.7139 15.2147 15.1014 15.2401 15.0072 15.3089C14.9302 15.2624 14.8426 15.236 14.7527 15.2323C14.6628 15.2285 14.5733 15.2473 14.4926 15.2872C14.431 15.1386 13.8403 15.2002 13.5142 15.1604C13.4055 15.0987 13.4236 15.0625 13.4961 15.0226C14.1846 15.0516 14.8659 15.1422 15.5544 15.1132C15.7393 14.8704 15.3189 14.7762 15.0616 14.9864C14.9094 14.7327 14.6013 14.9755 14.3948 14.9502C14.1882 14.9284 14.2861 14.6747 14.547 14.7146C14.8079 14.7509 15.2754 14.7001 15.3624 14.5805C15.4493 14.4609 15.3116 14.3377 14.8804 14.4537C14.7354 14.3087 14.4093 14.4537 14.2607 14.5008C14.0578 14.3885 13.5903 14.4827 13.4344 14.5225C13.2786 14.4283 14.2498 14.2689 14.2498 14.2689C14.6267 14.2616 14.8405 14.1964 14.9565 14.1674C15.5254 13.863 14.9492 13.8304 14.6521 14.0514C14.4673 13.9065 14.2897 14.0623 14.123 14.1167C13.9667 14.1696 13.8023 14.1941 13.6374 14.1891C13.6374 14.1674 14.094 13.8884 14.094 13.8884C14.094 13.8884 14.6485 13.8485 14.7608 13.834C14.8695 13.8159 15.4421 13.526 14.663 13.7217C14.3948 13.7434 14.2353 13.7289 14.1302 13.7362C13.5323 13.6746 14.1882 13.6166 14.1882 13.6166C14.1882 13.6166 15.0362 13.5405 15.0471 13.497C15.0616 13.1708 14.3549 13.323 14.3477 13.323C14.3477 13.0875 13.6881 13.3303 13.6881 13.323C13.5613 13.2506 13.7606 13.1745 13.7606 13.1745C13.9345 13.131 14.1955 13.1165 14.2643 13.0621C14.2643 13.0621 14.7572 13.0585 14.8152 12.928C14.6956 12.591 13.7715 12.986 13.6483 13.044C13.4816 13.044 13.757 12.7758 13.7678 12.7686C13.7751 12.7577 14.5289 12.7287 14.8876 12.2431C14.913 11.9496 14.4673 12.4098 14.4673 12.4098C14.431 12.0257 13.9817 12.4352 13.7207 12.4642C13.4562 12.5004 13.4489 12.3446 13.6301 12.3192C13.8113 12.2975 14.0215 12.3156 14.123 12.0365C14.2281 11.7575 14.5361 12.051 14.5941 11.9496C14.6485 11.8445 14.4818 11.7575 14.4818 11.7575C14.4818 11.7575 14.7137 11.5183 14.3368 11.5292C13.9672 11.5364 13.4816 11.4785 13.4816 11.4785C13.4816 11.4785 13.8693 11.3299 14.2353 11.3335C14.5977 11.3444 14.402 11.0762 14.0541 11.0762C13.7026 11.0762 13.5214 10.9566 13.5214 10.9566L14.1157 10.7319L14.0795 10.5652C14.0795 10.5652 14.4274 10.2862 13.9345 10.3514L13.3837 10.4239L12.3908 10.5725C12.3835 10.5725 12.1226 10.4928 12.3763 10.4275C12.6299 10.3623 13.5287 10.1847 13.6628 10.2318C13.7968 10.2789 13.6483 9.89844 13.1699 9.85133C12.6952 9.80422 12.398 9.97092 12.398 9.97092C12.398 9.97092 12.09 9.85858 12.3763 9.76435C12.6626 9.66651 13.1155 9.79697 13.1155 9.79697C13.1155 9.79697 13.6229 9.64477 13.2025 9.57954C12.7821 9.51793 12.6481 9.63752 12.456 9.64477C12.3799 9.54692 13.1155 9.52518 13.1627 9.44545C13.0829 9.30049 12.6263 9.44545 12.3581 9.44545C12.2494 9.39834 12.2386 9.31861 12.369 9.2715C12.6408 9.26063 12.8981 9.27513 13.1699 9.26425C13.1627 9.1193 13.1699 8.94898 13.1627 8.8004C12.8148 8.73879 12.4089 8.84751 12.2168 8.83663C12.2676 8.68081 13.0141 8.63732 13.0974 8.59383C13.2714 8.3764 12.369 8.59383 12.3581 8.59383C12.2023 8.57209 12.2132 8.47062 12.311 8.41264C12.543 8.38727 13.0576 8.44888 13.0213 8.28942C12.9923 8.14447 12.6589 8.22057 12.5285 8.25318C12.3908 8.2858 12.1914 8.26043 12.1914 8.26043C12.1081 8.14447 12.9706 8.19158 12.9633 8.10098C12.9525 7.99951 12.4161 8.07199 12.2313 8.07924C12.09 7.98139 12.9199 7.91616 12.9307 7.90529C12.9633 7.64074 12.3763 7.90529 12.2639 7.90529C12.1552 7.90529 12.2096 7.73859 12.2096 7.73859C12.2096 7.73859 12.4379 7.6335 12.4306 7.619C12.3711 7.58694 12.3078 7.56258 12.2422 7.54652C12.2241 7.54652 12.2422 7.36533 12.2422 7.36533C12.2422 7.36533 12.4306 7.22037 12.4161 7.18051C12.398 7.14064 12.1914 7.21312 12.1914 7.21312V7.05367C12.1914 7.05367 12.3437 7.03918 12.3581 6.9667C12.3763 6.89422 12.177 6.88697 12.177 6.88697L12.0972 6.05347L12.0247 6.83261L11.7638 6.86885C11.7638 6.86885 11.945 6.97395 11.9813 7.07904C12.0103 7.18051 11.7566 7.15152 11.7566 7.15152C11.7566 7.15152 11.9631 7.32546 11.9776 7.38707C11.9958 7.4523 11.6913 7.4668 11.6913 7.4668C11.6913 7.4668 11.945 7.64799 11.9631 7.75309C11.9776 7.85455 11.9631 7.91254 11.9631 7.91254C11.9631 7.91254 11.5428 7.54652 11.2746 7.64799C11.1296 7.72047 11.5935 7.75671 11.8979 8.02125C11.8979 8.08286 11.155 7.84006 11.1296 7.99226C11.1441 8.03213 11.9233 8.14447 11.9776 8.24594C11.695 8.25681 11.1079 8.18433 11.1296 8.27855C11.068 8.38727 11.6805 8.32566 11.9378 8.41264C12.0139 8.49961 12.0066 8.57209 11.8762 8.57934C11.6261 8.45975 11.0753 8.37277 11.0717 8.52498C11.0753 8.56122 11.6442 8.53947 11.8508 8.67356C11.5754 8.73879 10.6404 8.54672 10.6368 8.63732C10.6622 8.68443 10.8107 8.87287 11.0644 8.86562C11.3181 8.85838 11.9088 8.96709 11.9486 9.04682C11.9849 9.12655 11.184 8.88012 10.8832 9.02508C10.5788 9.17003 11.7493 9.07944 11.9378 9.25338C12.1298 9.43095 11.5573 9.23889 11.5573 9.23889C11.5573 9.23889 10.76 9.13017 10.644 9.18453C10.5245 9.23889 10.3904 9.36572 10.3904 9.36572C10.3904 9.36572 10.4701 9.52518 10.5498 9.49256C10.6295 9.45995 10.5245 9.59041 10.5245 9.59041C10.5245 9.59041 11.637 9.85858 11.8834 10.0978C12.1298 10.3369 10.4701 9.72449 10.4701 9.72449C10.4701 9.72449 9.79967 9.97092 10.5063 9.98541C10.4266 10.105 10.5498 10.1775 10.5498 10.1775C10.5498 10.1775 11.724 10.4239 11.8436 10.6123C11.9631 10.8044 11.0427 10.4312 10.8325 10.3261C10.6259 10.2246 10.0388 10.3913 10.0461 10.4312C10.057 10.4674 10.336 10.5254 10.3396 10.5979C10.3505 10.6703 9.99898 10.6921 9.99898 10.7573C9.99898 10.8189 11.4848 11.1306 11.8834 11.464C12.282 11.7974 10.7165 11.0653 10.7165 11.0653C10.7165 11.0653 10.8035 11.1849 10.7165 11.2175C10.6259 11.2502 10.3179 10.7718 9.81054 11.0653C9.71632 11.1886 10.2527 11.2828 10.3904 11.2973C10.3433 11.4169 10.3034 11.4567 10.4918 11.5763C10.6803 11.6959 10.1186 11.4024 10.1186 11.4169L10.1584 11.6234C9.98449 11.4785 9.77068 11.4386 9.57136 11.5836C9.57136 11.5836 9.56412 11.7285 9.77068 11.8155C9.65834 12.0438 9.89751 11.9713 10.278 12.1887C9.7127 12.0402 9.66558 12.3156 10.0715 12.3772C10.4773 12.4388 11.5899 12.4823 11.8508 12.8229C12.1153 13.1636 11.4775 12.6925 11.4051 12.678C11.3906 12.6888 11.3761 12.8555 11.3761 12.8555C11.2057 12.7577 11.0499 12.6671 10.847 12.6272C10.8289 12.6599 10.8361 12.7033 10.818 12.736C10.6368 12.6019 10.4737 12.5113 10.2055 12.4968L10.1729 12.6236C10.1729 12.6236 9.95187 12.3446 9.51338 12.6236C9.27058 12.8012 10.4375 12.6888 10.6259 12.8954C10.818 13.102 10.6658 13.1346 10.6658 13.1346L10.1911 12.957C10.1911 12.957 9.62572 12.8555 9.46627 12.9824C9.30682 13.1092 11.7856 13.4173 11.858 13.7615C11.9088 13.9427 11.2782 13.5658 10.731 13.4028L10.6658 13.584C10.6658 13.584 10.4483 13.3665 10.2055 13.3303C10.1983 13.3303 10.2527 13.5477 10.2527 13.5477C10.2527 13.5477 9.64384 13.2578 9.33218 13.41C9.02415 13.5622 10.4121 13.6419 10.5389 13.7833C10.6658 13.9282 10.1186 13.689 10.0678 13.7833C10.0244 13.8811 9.34668 13.6093 9.35755 13.7362C9.3648 13.863 9.45177 13.9355 9.45177 13.9355C9.45177 13.9355 10.8578 14.0696 10.905 14.2363C10.9521 14.403 10.1258 14.142 10.1258 14.142C10.1258 14.142 10.0461 14.2616 10.1113 14.316C10.1729 14.374 9.63297 14.0007 9.6837 14.2435C9.50613 14.1747 9.05314 13.9608 9.11837 14.1275C9.17998 14.2942 10.3976 14.5334 10.3976 14.5334C10.3976 14.5334 9.8649 14.5697 9.89027 14.7074C9.20172 14.2906 9.21984 14.5552 9.23796 14.5624C9.25246 14.5697 8.35373 14.3413 9.0314 14.7074C9.70907 15.0734 9.39379 15.0081 9.40466 15.0154C9.41191 15.0226 9.47714 15.1966 9.45902 15.1966C9.44453 15.1966 8.99879 14.961 8.84658 14.9429C8.698 14.9284 7.98047 15.1422 8.74511 15.4793C9.50976 15.8163 9.97724 15.3995 10.3976 15.443C10.818 15.4938 11.0137 15.5662 10.9774 15.6967C10.9376 15.8344 10.5462 15.2582 10.1367 15.7583C9.66558 15.6641 9.3503 15.6133 9.59311 15.954C8.83209 15.6677 8.36098 16.041 9.32494 16.1932C10.2672 16.2222 10.847 15.9612 10.847 15.9612C10.847 15.9612 11.0101 16.2548 11.2384 16.0482C11.4703 15.8416 11.4775 16.1279 11.4848 16.1279L11.7095 16.0337H11.7638Z" fill="#198200" stroke="black" stroke-width="0.0875" stroke-linecap="round" stroke-linejoin="round"/>
<path fill-rule="evenodd" clip-rule="evenodd" d="M11.8548 14.9066V14.7725C11.8548 14.7725 11.5577 14.7181 11.4091 14.7471C11.3258 14.7 11.2424 14.6348 11.1373 14.6891C11.1192 14.7326 11.3294 14.8449 11.3982 14.8449C11.5475 14.8894 11.7028 14.9102 11.8585 14.9066H11.8548ZM11.8548 15.124C11.8548 15.124 11.5541 15.0116 11.4345 15.1385C11.4526 15.2726 11.786 15.3378 11.8585 15.3016C11.9273 15.2653 11.8585 15.1276 11.8548 15.1204V15.124ZM12.3622 15.1747V15.2689C12.3622 15.2689 12.7173 15.3378 12.7826 15.2617C12.8442 15.1856 12.4927 15.1349 12.3586 15.1747H12.3622ZM12.3441 14.8051L12.3549 14.9102C12.3549 14.9102 12.6666 14.979 12.7862 14.8087C12.9058 14.6384 12.5144 14.8087 12.3441 14.8051ZM12.3586 14.4427V14.5152C12.3586 14.5152 12.5941 14.5514 12.6485 14.4499C12.6992 14.3485 12.3658 14.4499 12.3586 14.4427ZM11.873 14.2253C11.8367 14.1781 11.7099 14.0513 11.3729 14.0151C11.1373 14.0151 11.7969 14.3593 11.873 14.2289V14.2253ZM12.3513 13.8737L12.3441 13.9716C12.3441 13.9716 13.1413 13.7324 13.3262 13.7505C13.4929 13.7034 13.5291 13.5875 13.5218 13.5875C13.3769 13.4824 12.692 13.6708 12.3513 13.8737ZM12.3694 13.5911L12.3586 13.6853C12.3586 13.6853 12.9203 13.5766 13.0725 13.4679C13.2211 13.3591 12.3767 13.5947 12.3694 13.5911ZM12.3477 13.3157V13.4099C12.3477 13.4099 12.721 13.3954 12.8007 13.3229C12.8478 13.2468 12.4673 13.312 12.3477 13.3157ZM13.1305 14.102C13.1305 14.102 13.3262 14.131 13.3624 14.0731C13.3551 13.9716 13.1305 14.1093 13.1305 14.102ZM12.3622 12.9641L12.3658 13.1707C12.3658 13.1707 13.2682 12.8844 13.3262 12.8337C13.3805 12.7793 13.5073 12.6162 12.3622 12.9641ZM12.3368 12.6779V12.8301C12.3368 12.8301 12.6992 12.8011 12.8659 12.667C13.0326 12.5293 12.3368 12.6815 12.3368 12.6779ZM11.902 12.3408L11.9237 12.4749L10.7314 12.0908C10.7351 12.0908 10.6734 11.8951 11.902 12.3408ZM11.9201 11.8588C11.9201 11.8733 11.9201 11.9893 11.9128 11.9857C11.9128 11.9857 11.0866 11.6414 11.054 11.6704C10.9452 11.4167 11.9237 11.8661 11.9237 11.8588H11.9201ZM12.3223 12.0763L12.3368 12.1886C12.3368 12.1886 12.8442 12.0835 12.8732 12.0328C12.9022 11.9821 12.3223 12.0763 12.3223 12.0727V12.0763ZM12.3332 12.3445C12.3404 12.3698 12.3477 12.464 12.3477 12.464C12.3477 12.464 12.5506 12.4459 12.5832 12.3988C12.6122 12.3517 12.3332 12.3445 12.3332 12.3445ZM12.3042 11.7284V11.8371C12.3042 11.8371 12.8623 11.7284 12.9203 11.6777C12.9819 11.6233 12.2933 11.7284 12.3042 11.7284ZM12.3042 11.4204C12.3042 11.4276 12.2861 11.5327 12.3006 11.5327C12.3151 11.5327 12.9746 11.424 13.0797 11.3261C13.1812 11.2355 12.3187 11.4312 12.3078 11.4204H12.3042ZM12.297 10.8804V11C12.297 11 12.7246 10.9094 12.8043 10.8188C12.884 10.7282 12.297 10.8913 12.297 10.8804ZM12.2245 10.0976L12.2317 10.2716C12.2317 10.2716 12.8116 10.1919 12.8913 10.0976C12.9746 9.99978 12.2209 10.0976 12.2245 10.0976ZM11.9563 8.7749V8.88362C11.9563 8.88362 11.6845 8.87275 11.7498 8.82564C11.815 8.77853 11.9563 8.78577 11.9563 8.7749ZM12.21 8.91986L12.2172 9.07206C12.2172 9.07206 12.5688 9.03582 12.5941 8.98146C12.6231 8.92711 12.2172 8.92348 12.21 8.92348V8.91986ZM12.1882 9.13729C12.1882 9.13729 12.1955 9.23151 12.2027 9.23151C12.21 9.23151 12.3441 9.22064 12.3731 9.1844C12.4021 9.14816 12.2027 9.14816 12.1919 9.13729H12.1882ZM11.8911 9.56491C11.8911 9.57579 11.902 9.70987 11.8911 9.70262C11.8802 9.69538 11.1228 9.48156 11.0503 9.48519C10.9815 9.48519 10.9634 9.30762 11.8911 9.56491ZM11.9527 9.81496C11.9527 9.84033 11.9708 9.98166 11.9418 9.97442C11.9164 9.96717 11.4236 9.81134 11.4743 9.76423C11.5251 9.71712 11.9527 9.82584 11.9527 9.81496ZM11.9092 10.8659L11.9128 10.9927C11.9128 10.9927 11.054 10.7318 11.025 10.6883C10.996 10.6448 10.9126 10.4419 11.9092 10.8659ZM11.9454 11.1739V11.2935L10.7785 10.884C10.7785 10.884 10.6843 10.5796 11.9418 11.1739H11.9454Z" fill="white" stroke="black" stroke-width="0.1" stroke-linecap="round" stroke-linejoin="round"/>
<path fill-rule="evenodd" clip-rule="evenodd" d="M10.5613 15.2144L10.5541 15.3413C10.5541 15.3413 10.3294 15.2761 10.2569 15.1492C10.3874 15.113 10.565 15.2181 10.5613 15.2144Z" fill="white" stroke="black" stroke-width="0.1" stroke-linejoin="round"/>
</g>
<defs>
<clipPath id="clip0_69_9592">
<rect width="24" height="24" rx="12" fill="white"/>
</clipPath>
</defs>
</svg>
