<svg width="24" height="24" viewBox="0 0 24 24" fill="none" xmlns="http://www.w3.org/2000/svg">
<g clip-path="url(#clip0_69_9387)">
<g clip-path="url(#clip1_69_9387)">
<mask id="mask0_69_9387" style="mask-type:luminance" maskUnits="userSpaceOnUse" x="-4" y="0" width="32" height="24">
<path d="M28 0H-4V24H28V0Z" fill="white"/>
</mask>
<g mask="url(#mask0_69_9387)">
<path d="M-4 0H28V24H-4V0Z" fill="#0067C6"/>
<path d="M-4 8H28V16H-4V8Z" fill="white"/>
<path d="M8.39999 11.9749L8.79999 11.9999V11.9399L8.64999 11.9299L8.65999 11.7399L8.82499 11.6199L8.82999 11.5449L8.65499 11.6699C8.64999 11.6299 8.62499 11.5849 8.58499 11.5699C8.54499 11.5599 8.50499 11.5599 8.46999 11.5849C8.42999 11.6149 8.41999 11.6649 8.41999 11.7099L8.39999 11.9749ZM8.45999 11.9199L8.47499 11.7199C8.47999 11.6899 8.48499 11.6499 8.51499 11.6299C8.52135 11.6257 8.52855 11.6229 8.53611 11.6219C8.54367 11.6209 8.55139 11.6216 8.55863 11.624C8.56587 11.6264 8.57243 11.6305 8.57787 11.6358C8.58331 11.6412 8.58747 11.6477 8.58999 11.6549C8.60999 11.7049 8.59999 11.7599 8.59499 11.8149L8.58999 11.9249L8.45999 11.9199ZM8.44999 11.3599L8.83999 11.4499L8.92999 11.0699C8.91163 11.0666 8.89331 11.0633 8.87499 11.0599L8.79999 11.3799L8.67999 11.3549L8.74999 11.0649L8.69499 11.0499L8.62499 11.3399L8.52499 11.3149L8.59499 11.0049L8.53499 10.9949L8.44999 11.3599ZM8.58999 10.8349L8.96999 10.9699L8.98999 10.9149L8.83999 10.8649L8.89999 10.6899C8.90999 10.6399 8.91999 10.5899 8.89499 10.5399C8.88335 10.5244 8.86823 10.5118 8.85091 10.5031C8.83355 10.4944 8.81439 10.4899 8.79499 10.4899C8.74499 10.4899 8.71499 10.5249 8.69499 10.5649C8.66499 10.6149 8.64499 10.6749 8.62999 10.7349L8.58999 10.8349ZM8.66499 10.7999L8.72499 10.6299C8.73999 10.5999 8.75499 10.5649 8.78999 10.5549C8.79695 10.5535 8.80411 10.5535 8.81103 10.5551C8.81795 10.5566 8.82447 10.5596 8.83015 10.5639C8.83583 10.5681 8.84051 10.5735 8.84395 10.5797C8.84735 10.5859 8.84943 10.5928 8.84999 10.5999C8.85999 10.6499 8.83499 10.6999 8.81999 10.7499L8.78499 10.8449L8.66499 10.7999ZM8.79999 10.3499L9.01499 10.4799C9.05499 10.4999 9.10499 10.5099 9.14999 10.4899C9.20419 10.4531 9.24603 10.4009 9.26999 10.3399C9.28999 10.2899 9.30999 10.2299 9.27999 10.1799C9.24999 10.1299 9.19499 10.1099 9.14499 10.0799L9.00999 9.9999L8.97999 10.0499L9.17999 10.1699C9.21499 10.1899 9.23999 10.2199 9.23499 10.2649C9.22503 10.3107 9.20447 10.3535 9.17499 10.3899C9.15499 10.4199 9.11499 10.4449 9.07499 10.4399C9.03499 10.4299 8.99999 10.3999 8.96499 10.3799L8.82999 10.3049L8.79999 10.3549V10.3499ZM9.08999 9.8849L9.40499 10.1249L9.55499 9.9349C9.58499 9.8899 9.60499 9.8349 9.58999 9.7849C9.58071 9.76566 9.56663 9.7491 9.54911 9.73686C9.53159 9.72462 9.51127 9.71706 9.48999 9.7149C9.46499 9.7149 9.43999 9.7299 9.42999 9.7349C9.43999 9.6899 9.40499 9.6499 9.36999 9.6399C9.31999 9.6249 9.26999 9.6549 9.23999 9.6899L9.13999 9.8149L9.08999 9.8849ZM9.16999 9.8699C9.20499 9.8199 9.23999 9.7699 9.27999 9.7299C9.29999 9.7099 9.32999 9.6799 9.35499 9.6999C9.37999 9.7099 9.38999 9.7449 9.37499 9.7649C9.35499 9.8099 9.32499 9.8399 9.29499 9.8799L9.25499 9.9349L9.16999 9.8699ZM9.29999 9.9699L9.41499 9.8199C9.43499 9.7999 9.46499 9.7699 9.49499 9.7799C9.52499 9.7849 9.54499 9.8149 9.53499 9.8449C9.51999 9.8949 9.47999 9.9349 9.44499 9.9799L9.39499 10.0449L9.29499 9.9699H9.29999ZM9.44999 9.4599L9.72499 9.7499L9.95999 9.5249L9.91999 9.4849L9.72999 9.6649H9.72499L9.48999 9.4149L9.44999 9.4599ZM9.79999 9.1499L10.045 9.4649L10.095 9.4299L9.84499 9.1149L9.79999 9.1499ZM10.16 8.9049C10.1209 8.92782 10.0869 8.95846 10.06 8.9949C10.0373 9.02498 10.0246 9.06142 10.0237 9.0991C10.0228 9.13678 10.0338 9.17378 10.055 9.2049C10.0744 9.2367 10.102 9.26262 10.135 9.2799C10.1657 9.29606 10.2004 9.30302 10.235 9.2999C10.2832 9.29354 10.3293 9.27646 10.37 9.2499C10.4116 9.22606 10.4462 9.19154 10.47 9.1499C10.49 9.1099 10.495 9.0699 10.485 9.0299L10.435 9.0499C10.445 9.1299 10.395 9.1699 10.335 9.1999C10.245 9.2599 10.16 9.2549 10.105 9.1749C10.05 9.0799 10.105 9.0049 10.185 8.9549C10.24 8.9199 10.295 8.8949 10.345 8.9299L10.39 8.8899C10.361 8.86902 10.3258 8.85842 10.29 8.8599C10.245 8.8599 10.205 8.8799 10.16 8.9099V8.9049ZM10.635 8.6699L10.59 9.1199L10.655 9.0949L10.665 8.9549L10.865 8.8749L10.975 8.9649L11.035 8.9399L10.695 8.6449L10.635 8.6699ZM10.685 8.7199L10.82 8.8299L10.67 8.8899L10.685 8.7149V8.7199ZM11.51 8.4199L11.535 8.8199L11.75 8.8099C11.81 8.7999 11.87 8.7899 11.905 8.7399C11.955 8.6899 11.965 8.6049 11.94 8.5349C11.9305 8.5045 11.913 8.4773 11.8892 8.45614C11.8654 8.43498 11.8363 8.42074 11.805 8.4149C11.745 8.4049 11.685 8.4149 11.625 8.4149L11.51 8.4249V8.4199ZM11.57 8.4749L11.745 8.4699C11.7769 8.46846 11.8084 8.47718 11.835 8.4949C11.875 8.5249 11.9 8.5699 11.895 8.6199C11.8928 8.64778 11.882 8.67434 11.8641 8.69582C11.8462 8.71734 11.822 8.73274 11.795 8.7399C11.765 8.7499 11.73 8.7499 11.7 8.7549L11.59 8.7599L11.57 8.4749ZM12.07 8.3999L12.045 8.7999L12.435 8.8199V8.7649L12.105 8.7449L12.11 8.6249L12.41 8.6399V8.5849L12.115 8.5699L12.12 8.4599L12.44 8.4799V8.4199L12.065 8.3999H12.07ZM13.11 8.5649L12.965 8.9399L13.015 8.9599L13.135 8.6599V8.6499L13.145 8.6649L13.285 9.0649L13.35 9.0899L13.495 8.7149L13.445 8.6949L13.33 8.9949L13.325 9.0049L13.315 8.9899L13.18 8.5899L13.11 8.5649ZM13.65 8.7999L13.465 9.1499L13.415 9.1249L13.595 8.7699L13.65 8.7999ZM13.95 8.9749C13.9136 8.95054 13.8729 8.93358 13.83 8.9249C13.793 8.91442 13.7537 8.91602 13.7177 8.92954C13.6817 8.94302 13.651 8.9677 13.63 8.9999C13.6107 9.03154 13.6003 9.06782 13.6 9.1049C13.6 9.1399 13.605 9.1749 13.63 9.2099C13.65 9.2449 13.68 9.2749 13.73 9.3099C13.7703 9.33726 13.8166 9.35442 13.865 9.3599C13.9046 9.36102 13.9434 9.34866 13.975 9.3249L13.935 9.2799C13.865 9.3299 13.81 9.2949 13.755 9.2599C13.665 9.1999 13.63 9.1199 13.685 9.0349C13.745 8.9449 13.84 8.9699 13.92 9.0199C13.97 9.0549 14.02 9.0949 14.01 9.1549L14.06 9.1749C14.066 9.14082 14.0607 9.10574 14.045 9.0749C14.025 9.0349 13.995 9.0049 13.95 8.9749ZM14.33 9.2599L13.915 9.4299L13.965 9.4749L14.095 9.4249L14.26 9.5649L14.225 9.6999L14.275 9.7449L14.38 9.3049L14.33 9.2599ZM14.315 9.3299L14.275 9.4999L14.15 9.3999L14.315 9.3299ZM14.635 9.5399L14.325 9.7899L14.36 9.8399L14.485 9.7399L14.605 9.8899L14.57 10.0899L14.615 10.1449L14.655 9.9349C14.69 9.9599 14.74 9.9749 14.78 9.9549C14.815 9.9349 14.85 9.9049 14.85 9.8649C14.85 9.8099 14.815 9.7649 14.785 9.7249L14.635 9.5399ZM14.625 9.6199L14.755 9.7799C14.775 9.8099 14.8 9.8499 14.775 9.8799C14.76 9.9099 14.72 9.9099 14.695 9.8899C14.645 9.8549 14.615 9.8049 14.575 9.7599L14.525 9.7049L14.625 9.6199ZM15.1 10.1749L14.65 10.1949L14.685 10.2549L14.825 10.2499L14.935 10.4399L14.855 10.5549L14.89 10.6149L15.135 10.2349L15.1 10.1749ZM15.065 10.2349L14.965 10.3849L14.89 10.2449L15.065 10.2349ZM15.36 10.7049C15.335 10.6399 15.295 10.5699 15.225 10.5349C15.1872 10.5174 15.1447 10.5129 15.104 10.5219C15.0634 10.5309 15.0268 10.5531 15 10.5849C14.95 10.6349 14.95 10.7099 14.965 10.7799C14.98 10.8549 15.015 10.9299 15.065 10.9849L15.035 10.9949L15.055 11.0499L15.245 10.9849L15.17 10.7799L15.13 10.7949L15.18 10.9449L15.12 10.9699C15.0658 10.9193 15.029 10.8528 15.015 10.7799C15 10.7249 15 10.6599 15.04 10.6199C15.09 10.5699 15.17 10.5549 15.225 10.5949C15.28 10.6349 15.31 10.6999 15.325 10.7649C15.34 10.8099 15.335 10.8599 15.305 10.8949C15.295 10.8949 15.305 10.9099 15.31 10.9149L15.325 10.9399C15.3419 10.927 15.3557 10.9103 15.3652 10.8913C15.3748 10.8722 15.3798 10.8512 15.38 10.8299C15.381 10.7874 15.3742 10.745 15.36 10.7049ZM15.475 11.0199L15.25 11.0599C15.2154 11.0649 15.1828 11.0787 15.155 11.0999C15.1333 11.1195 15.1192 11.146 15.115 11.1749V11.2949C15.13 11.3449 15.145 11.3799 15.165 11.4099C15.18 11.4399 15.2 11.4599 15.225 11.4599C15.2578 11.4684 15.2922 11.4684 15.325 11.4599L15.55 11.4199L15.54 11.3649L15.32 11.4049C15.22 11.4249 15.19 11.3749 15.17 11.2849C15.155 11.1949 15.17 11.1349 15.265 11.1199L15.485 11.0749L15.475 11.0199ZM15.595 11.6999L15.18 11.5199L15.185 11.5899L15.315 11.6399L15.33 11.8599L15.21 11.9349L15.215 11.9999L15.6 11.7649L15.595 11.6999ZM15.535 11.7349L15.385 11.8299L15.375 11.6699L15.535 11.7349ZM8.70999 12.7349L8.64999 12.7499L8.71499 12.9949L8.77499 12.9799L8.70999 12.7349ZM15.29 12.7349L15.35 12.7499L15.285 12.9949L15.225 12.9799L15.29 12.7349ZM9.32999 13.7599L8.87999 13.8099L8.91999 13.8649L9.05999 13.8499L9.17999 14.0299L9.10999 14.1549L9.14999 14.2049L9.36499 13.8149L9.32999 13.7599ZM9.29499 13.8249L9.20999 13.9749L9.11999 13.8449L9.29499 13.8249ZM9.49999 14.0049L9.21499 14.2699L9.25499 14.3099L9.49499 14.0849L9.36499 14.4349L9.41499 14.4799L9.75499 14.3799L9.51999 14.5949L9.55999 14.6349L9.84499 14.3699L9.78499 14.3099L9.43499 14.4099L9.56499 14.0749L9.49999 14.0049ZM9.91499 14.4249L9.67499 14.7499L9.98499 14.9799L10.02 14.9349L9.75499 14.7349L9.82999 14.6349L10.065 14.8199L10.1 14.7699L9.86499 14.5949L9.92999 14.5099L10.18 14.6999L10.215 14.6499L9.91499 14.4249ZM10.305 14.7149L10.12 15.0649L10.17 15.0949L10.245 14.9549L10.415 15.0449L10.455 15.2449L10.52 15.2799L10.475 15.0699C10.52 15.0849 10.575 15.0749 10.6 15.0399C10.625 15.0099 10.645 14.9749 10.63 14.9349C10.62 14.8849 10.565 14.8549 10.525 14.8299L10.305 14.7149ZM10.33 14.7899L10.51 14.8899C10.54 14.9099 10.575 14.9349 10.57 14.9699C10.57 15.0049 10.535 15.0199 10.505 15.0149C10.445 15.0049 10.395 14.9699 10.345 14.9449L10.27 14.9049L10.33 14.7899ZM10.76 14.9499L10.61 15.3199L10.66 15.3449L10.81 14.9749L10.76 14.9499ZM11.12 15.0749C11.0784 15.0597 11.0342 15.0529 10.99 15.0549C10.9515 15.0555 10.9142 15.0685 10.8836 15.0919C10.853 15.1153 10.8307 15.1479 10.82 15.1849C10.8109 15.2193 10.8109 15.2555 10.82 15.2899C10.82 15.3299 10.84 15.3599 10.87 15.3899C10.9045 15.4205 10.9455 15.4427 10.99 15.4549C11.0365 15.4714 11.0867 15.4749 11.135 15.4649C11.1744 15.4573 11.2098 15.4361 11.235 15.4049L11.185 15.3749C11.135 15.4399 11.07 15.4249 11.005 15.3999C10.905 15.3649 10.85 15.2999 10.88 15.1999C10.915 15.0999 11.015 15.0999 11.1 15.1249C11.16 15.1449 11.215 15.1749 11.22 15.2299L11.28 15.2399C11.2772 15.2023 11.2613 15.1669 11.235 15.1399C11.2026 15.1091 11.1631 15.0867 11.12 15.0749ZM11.52 15.1649L11.26 15.5299L11.325 15.5399L11.405 15.4249L11.625 15.4599L11.67 15.5899L11.735 15.5999L11.585 15.1749L11.52 15.1649ZM11.545 15.2299L11.605 15.3999L11.445 15.3749L11.545 15.2299ZM12.46 15.1699C12.41 15.1749 12.375 15.1899 12.34 15.2149C12.307 15.2341 12.2809 15.2634 12.2656 15.2985C12.2503 15.3336 12.2466 15.3726 12.255 15.4099C12.26 15.4449 12.275 15.4749 12.305 15.5099C12.325 15.5349 12.355 15.5499 12.395 15.5599C12.43 15.5699 12.48 15.5699 12.535 15.5599C12.585 15.5499 12.635 15.5299 12.665 15.4999C12.6943 15.4739 12.7137 15.4386 12.72 15.3999H12.66C12.645 15.4799 12.585 15.4999 12.52 15.5099C12.415 15.5299 12.335 15.4949 12.315 15.3949C12.295 15.2899 12.38 15.2399 12.465 15.2199C12.53 15.2099 12.59 15.2049 12.625 15.2549L12.675 15.2349C12.6562 15.205 12.6281 15.1821 12.595 15.1699C12.5507 15.1585 12.5043 15.1585 12.46 15.1699ZM12.725 15.1199L12.84 15.5049L13.215 15.3949L13.195 15.3399L12.88 15.4349L12.845 15.3149L13.13 15.2299L13.115 15.1799L12.83 15.2599L12.8 15.1599L13.1 15.0699L13.085 15.0149L12.725 15.1199ZM13.16 14.9849L13.325 15.3499L13.375 15.3249L13.235 15.0249L13.625 15.1999H13.65L13.7 15.1749L13.53 14.8099L13.48 14.8349L13.62 15.1349L13.22 14.9549L13.16 14.9849ZM13.6 14.7799L13.63 14.8299L13.77 14.7299H13.78L13.965 15.0149L14.015 14.9799L13.83 14.6999V14.6949L13.975 14.5949L13.945 14.5499L13.6 14.7799ZM14 14.4999L14.27 14.7999L14.315 14.7549L14.21 14.6399L14.35 14.5099L14.55 14.5399L14.61 14.4899L14.395 14.4599C14.42 14.4249 14.43 14.3699 14.405 14.3299C14.385 14.2949 14.355 14.2649 14.31 14.2699C14.26 14.2699 14.21 14.3099 14.175 14.3399L14 14.5049V14.4999ZM14.08 14.5049L14.23 14.3649C14.26 14.3449 14.3 14.3199 14.33 14.3399C14.365 14.3549 14.365 14.3949 14.345 14.4199C14.315 14.4699 14.27 14.5049 14.225 14.5499L14.17 14.5999L14.08 14.4999V14.5049ZM14.465 14.0349L14.645 14.4499L14.685 14.3999L14.635 14.2699L14.77 14.0999L14.905 14.1299L14.95 14.0799L14.51 13.9799L14.465 14.0349ZM14.535 14.0499L14.71 14.0849L14.61 14.2099L14.535 14.0499ZM14.64 13.8099L14.975 14.0249L15.15 13.7549L15.1 13.7249L14.965 13.9399L14.96 13.9499H14.955L14.67 13.7599L14.64 13.8099Z" fill="#C8A400"/>
<mask id="mask1_69_9387" style="mask-type:luminance" maskUnits="userSpaceOnUse" x="9" y="9" width="6" height="5">
<path d="M11.9996 9.05615L9.45155 13.4682H14.5476L11.9996 9.05615Z" fill="white"/>
</mask>
<g mask="url(#mask1_69_9387)">
<path d="M11.9994 9.05615L10.7394 11.2362L10.1234 12.3042H13.8754L13.2874 11.2882L11.9994 9.05615Z" fill="white"/>
<path opacity="0.6" d="M11.9991 9.05615L11.9031 9.21615L11.9991 11.4162L12.0951 9.21615L11.9991 9.05615Z" fill="#17C0EB" stroke="#17C0EB" stroke-width="0.01"/>
<path d="M11.9993 11.0999H11.9953L11.9993 11.2199L12.0033 11.0999H11.9993Z" fill="white"/>
<path opacity="0.6" d="M14.2484 10.6895L14.0666 10.6477L12.0039 11.4188L14.1259 10.8303L14.2484 10.6895Z" fill="#17C0EB" stroke="#17C0EB" stroke-width="0.01"/>
<path d="M12.3044 11.3209L12.3031 11.3171L12.1902 11.358L12.3056 11.3247L12.3044 11.3209Z" fill="white"/>
<path opacity="0.6" d="M13.3895 13.3329L13.3731 13.147L12.0023 11.4236L13.2178 13.2598L13.3895 13.3329Z" fill="#17C0EB" stroke="#17C0EB" stroke-width="0.01"/>
<path d="M12.1874 11.6789L12.1906 11.6765L12.1168 11.5818L12.1842 11.6812L12.1874 11.6789Z" fill="white"/>
<path opacity="0.6" d="M10.6098 13.3326L10.7816 13.2596L11.997 11.4233L10.6262 13.1467L10.6098 13.3326Z" fill="#17C0EB" stroke="#17C0EB" stroke-width="0.01"/>
<path d="M11.8108 11.6789L11.8141 11.6812L11.8814 11.5818L11.8076 11.6765L11.8108 11.6789Z" fill="white"/>
<path opacity="0.6" d="M9.75156 10.6898L9.87404 10.8305L11.996 11.4191L9.93336 10.6479L9.75156 10.6898Z" fill="#17C0EB" stroke="#17C0EB" stroke-width="0.01"/>
<path d="M11.695 11.3212L11.6938 11.325L11.8091 11.3583L11.6962 11.3174L11.695 11.3212Z" fill="white"/>
<path opacity="0.6" d="M12.3294 9.07886L12.2121 9.22394L12.001 11.4159L12.4022 9.25066L12.3294 9.07886Z" fill="#17C0EB" stroke="#17C0EB" stroke-width="0.01"/>
<path d="M12.0446 11.1036L12.0406 11.103L12.0279 11.2224L12.0486 11.1041L12.0446 11.1036Z" fill="white"/>
<path opacity="0.6" d="M14.3276 11.0101L14.1534 10.9434L12.0035 11.4199L14.1867 11.1324L14.3276 11.0101Z" fill="#17C0EB" stroke="#17C0EB" stroke-width="0.01"/>
<path d="M12.3148 11.3648L12.3141 11.3608L12.1966 11.3856L12.3154 11.3687L12.3148 11.3648Z" fill="white"/>
<path opacity="0.6" d="M13.1106 13.5076L13.1202 13.3213L12.0026 11.4238L12.9507 13.4114L13.1106 13.5076Z" fill="#17C0EB" stroke="#17C0EB" stroke-width="0.01"/>
<path d="M12.1511 11.7034L12.1547 11.7015L12.0948 11.5974L12.1476 11.7053L12.1511 11.7034Z" fill="white"/>
<path opacity="0.6" d="M10.3575 13.1207L10.5377 13.0723L11.9969 11.4231L10.3996 12.939L10.3575 13.1207Z" fill="#17C0EB" stroke="#17C0EB" stroke-width="0.01"/>
<path d="M11.7768 11.6503L11.7797 11.653L11.8602 11.564L11.7739 11.6475L11.7768 11.6503Z" fill="white"/>
<path opacity="0.6" d="M9.87488 10.3838L9.9766 10.5402L11.996 11.4184L10.0608 10.3677L9.87488 10.3838Z" fill="#17C0EB" stroke="#17C0EB" stroke-width="0.01"/>
<path d="M11.7127 11.2807L11.7109 11.2843L11.8206 11.3333L11.7144 11.2771L11.7127 11.2807Z" fill="white"/>
<path opacity="0.6" d="M12.6501 9.14819L12.5137 9.27555L11.9996 11.4168L12.6983 9.32847L12.6501 9.14819Z" fill="#17C0EB" stroke="#17C0EB" stroke-width="0.01"/>
<path d="M12.0866 11.1134L12.0828 11.1123L12.0536 11.2288L12.0905 11.1145L12.0866 11.1134Z" fill="white"/>
<path opacity="0.6" d="M14.3612 11.3379L14.1979 11.2476L12.0026 11.4203L14.2046 11.4394L14.3612 11.3379Z" fill="#17C0EB" stroke="#17C0EB" stroke-width="0.01"/>
<path d="M12.3189 11.4085L12.3188 11.4045L12.199 11.4127L12.319 11.4125L12.3189 11.4085Z" fill="white"/>
<path opacity="0.6" d="M12.8082 13.642L12.8437 13.4588L12.001 11.4243L12.6633 13.5245L12.8082 13.642Z" fill="#17C0EB" stroke="#17C0EB" stroke-width="0.01"/>
<path d="M12.1088 11.7216L12.1125 11.7203L12.0677 11.6089L12.105 11.723L12.1088 11.7216Z" fill="white"/>
<path opacity="0.6" d="M10.1362 12.8758L10.3214 12.8529L11.9959 11.4229L10.2032 12.7017L10.1362 12.8758Z" fill="#17C0EB" stroke="#17C0EB" stroke-width="0.01"/>
<path d="M11.7475 11.6171L11.75 11.6203L11.8421 11.5432L11.7451 11.6139L11.7475 11.6171Z" fill="white"/>
<path opacity="0.6" d="M10.0396 10.0984L10.1186 10.2675L11.9962 11.4181L10.226 10.1083L10.0396 10.0984Z" fill="#17C0EB" stroke="#17C0EB" stroke-width="0.01"/>
<path d="M11.7335 11.2418L11.7312 11.2452L11.833 11.3089L11.7357 11.2385L11.7335 11.2418Z" fill="white"/>
<path opacity="0.6" d="M12.9611 9.26074L12.8084 9.36786L12.0012 11.4167L12.9838 9.44594L12.9611 9.26074Z" fill="#17C0EB" stroke="#17C0EB" stroke-width="0.01"/>
<path d="M12.1302 11.1281L12.1266 11.1265L12.0814 11.2377L12.1339 11.1297L12.1302 11.1281Z" fill="white"/>
<path opacity="0.6" d="M14.3509 11.6673L14.2018 11.5551L12.0038 11.4207L14.1817 11.7461L14.3509 11.6673Z" fill="#17C0EB" stroke="#17C0EB" stroke-width="0.01"/>
<path d="M12.3183 11.4539L12.3188 11.45L12.199 11.4414L12.3179 11.4579L12.3183 11.4539Z" fill="white"/>
<path opacity="0.6" d="M12.4905 13.7325L12.5511 13.556L11.9998 11.4241L12.3633 13.596L12.4905 13.7325Z" fill="#17C0EB" stroke="#17C0EB" stroke-width="0.01"/>
<path d="M12.0648 11.7336L12.0688 11.7327L12.0399 11.6162L12.0609 11.7344L12.0648 11.7336Z" fill="white"/>
<path opacity="0.6" d="M9.952 12.6026L10.1386 12.6057L11.9958 11.4226L10.0426 12.4395L9.952 12.6026Z" fill="#17C0EB" stroke="#17C0EB" stroke-width="0.01"/>
<path d="M11.7214 11.5808L11.7234 11.5842L11.8254 11.5208L11.7194 11.5773L11.7214 11.5808Z" fill="white"/>
<path opacity="0.6" d="M10.2424 9.83789L10.297 10.0163L11.9962 11.4171L10.4255 9.87361L10.2424 9.83789Z" fill="#17C0EB" stroke="#17C0EB" stroke-width="0.01"/>
<path d="M11.762 11.2063L11.7594 11.2093L11.8512 11.2866L11.7647 11.2034L11.762 11.2063Z" fill="white"/>
<path opacity="0.6" d="M13.2517 9.41479L13.0855 9.49963L12.0011 11.4162L13.2484 9.60135L13.2517 9.41479Z" fill="#17C0EB" stroke="#17C0EB" stroke-width="0.01"/>
<path d="M12.169 11.1488L12.1656 11.1467L12.1054 11.2506L12.1724 11.151L12.169 11.1488Z" fill="white"/>
<path opacity="0.6" d="M14.294 11.9916L14.162 11.8597L12.0041 11.4207L14.1155 12.0461L14.294 11.9916Z" fill="#17C0EB" stroke="#17C0EB" stroke-width="0.01"/>
<path d="M12.31 11.4975L12.3109 11.4937L12.1935 11.4685L12.309 11.5014L12.31 11.4975Z" fill="white"/>
<path opacity="0.6" d="M12.1636 13.7786L12.2482 13.6123L11.999 11.4243L12.0567 13.6256L12.1636 13.7786Z" fill="#17C0EB" stroke="#17C0EB" stroke-width="0.01"/>
<path d="M12.021 11.7393L12.025 11.7391L12.0126 11.6196L12.017 11.7396L12.021 11.7393Z" fill="white"/>
<path opacity="0.6" d="M9.8078 12.3047L9.99208 12.3338L11.996 11.4207L9.92016 12.1558L9.8078 12.3047Z" fill="#17C0EB" stroke="#17C0EB" stroke-width="0.01"/>
<path d="M11.7032 11.5384L11.7047 11.5421L11.8144 11.4934L11.7017 11.5346L11.7032 11.5384Z" fill="white"/>
<path opacity="0.6" d="M10.4798 9.6084L10.5091 9.79268L11.9968 11.4163L10.6562 9.66928L10.4798 9.6084Z" fill="#17C0EB" stroke="#17C0EB" stroke-width="0.01"/>
<path d="M11.7937 11.174L11.7906 11.1765L11.8708 11.2659L11.7968 11.1714L11.7937 11.174Z" fill="white"/>
<path opacity="0.6" d="M13.5204 9.61011L13.344 9.67095L12.0034 11.4179L13.4911 9.79435L13.5204 9.61011Z" fill="#17C0EB" stroke="#17C0EB" stroke-width="0.01"/>
<path d="M12.2062 11.1759L12.2031 11.1733L12.129 11.2678L12.2092 11.1785L12.2062 11.1759Z" fill="white"/>
<path opacity="0.6" d="M14.1922 12.3062L14.0798 12.1572L12.004 11.4221L14.0078 12.3353L14.1922 12.3062Z" fill="#17C0EB" stroke="#17C0EB" stroke-width="0.01"/>
<path d="M12.2969 11.5411L12.2984 11.5374L12.1857 11.4961L12.2954 11.5448L12.2969 11.5411Z" fill="white"/>
<path opacity="0.6" d="M11.8355 13.779L11.9424 13.6261L12.0001 11.4248L11.7509 13.6127L11.8355 13.779Z" fill="#17C0EB" stroke="#17C0EB" stroke-width="0.01"/>
<path d="M11.9788 11.7403L11.9828 11.7406L11.9872 11.6206L11.9748 11.74L11.9788 11.7403Z" fill="white"/>
<path opacity="0.6" d="M9.70648 11.9926L9.88492 12.047L11.9964 11.4216L9.83848 11.8607L9.70648 11.9926Z" fill="#17C0EB" stroke="#17C0EB" stroke-width="0.01"/>
<path d="M11.6896 11.4975L11.6906 11.5014L11.8061 11.4685L11.6887 11.4937L11.6896 11.4975Z" fill="white"/>
<path opacity="0.6" d="M10.747 9.41626L10.7504 9.60282L11.9976 11.4177L10.9132 9.50106L10.747 9.41626Z" fill="#17C0EB" stroke="#17C0EB" stroke-width="0.01"/>
<path d="M11.83 11.1493L11.8266 11.1515L11.8936 11.2511L11.8334 11.1472L11.83 11.1493Z" fill="white"/>
<path opacity="0.6" d="M13.7564 9.83838L13.5733 9.8741L12.0026 11.4175L13.7018 10.0168L13.7564 9.83838Z" fill="#17C0EB" stroke="#17C0EB" stroke-width="0.01"/>
<path d="M12.237 11.2061L12.2344 11.2031L12.1479 11.2864L12.2397 11.2091L12.237 11.2061Z" fill="white"/>
<path opacity="0.6" d="M14.0473 12.6019L13.9568 12.4388L12.0035 11.4219L13.8608 12.605L14.0473 12.6019Z" fill="#17C0EB" stroke="#17C0EB" stroke-width="0.01"/>
<path d="M12.2777 11.58L12.2797 11.5765L12.1738 11.52L12.2757 11.5835L12.2777 11.58Z" fill="white"/>
<path opacity="0.6" d="M11.5092 13.7315L11.6364 13.595L11.9999 11.4231L11.4486 13.5551L11.5092 13.7315Z" fill="#17C0EB" stroke="#17C0EB" stroke-width="0.01"/>
<path d="M11.9336 11.7319L11.9375 11.7327L11.9585 11.6145L11.9297 11.7311L11.9336 11.7319Z" fill="white"/>
<path opacity="0.6" d="M9.64935 11.6669L9.81847 11.7456L11.9964 11.4202L9.79843 11.5547L9.64935 11.6669Z" fill="#17C0EB" stroke="#17C0EB" stroke-width="0.01"/>
<path d="M11.6824 11.4537L11.6828 11.4577L11.8017 11.4412L11.682 11.4497L11.6824 11.4537Z" fill="white"/>
<path opacity="0.6" d="M11.0393 9.26099L11.0166 9.44619L11.9992 11.4169L11.192 9.36811L11.0393 9.26099Z" fill="#17C0EB" stroke="#17C0EB" stroke-width="0.01"/>
<path d="M11.8708 11.1281L11.8672 11.1297L11.9196 11.2377L11.8745 11.1265L11.8708 11.1281Z" fill="white"/>
<path opacity="0.6" d="M13.9599 10.0981L13.7736 10.1081L12.0034 11.4179L13.8809 10.2672L13.9599 10.0981Z" fill="#17C0EB" stroke="#17C0EB" stroke-width="0.01"/>
<path d="M12.2647 11.2408L12.2625 11.2375L12.1652 11.3079L12.267 11.2441L12.2647 11.2408Z" fill="white"/>
<path opacity="0.6" d="M13.8628 12.8756L13.7958 12.7014L12.0031 11.4226L13.6776 12.8527L13.8628 12.8756Z" fill="#17C0EB" stroke="#17C0EB" stroke-width="0.01"/>
<path d="M12.2522 11.6171L12.2547 11.614L12.1577 11.5432L12.2497 11.6203L12.2522 11.6171Z" fill="white"/>
<path opacity="0.6" d="M11.191 13.6405L11.3359 13.523L11.9982 11.4229L11.1555 13.4573L11.191 13.6405Z" fill="#17C0EB" stroke="#17C0EB" stroke-width="0.01"/>
<path d="M11.89 11.7204L11.8938 11.7218L11.931 11.6077L11.8862 11.719L11.89 11.7204Z" fill="white"/>
<path opacity="0.6" d="M9.63771 11.3367L9.79427 11.4382L11.9963 11.4191L9.80095 11.2463L9.63771 11.3367Z" fill="#17C0EB" stroke="#17C0EB" stroke-width="0.01"/>
<path d="M11.6798 11.4085L11.6797 11.4125L11.7998 11.4127L11.68 11.4045L11.6798 11.4085Z" fill="white"/>
<path opacity="0.6" d="M11.3485 9.14697L11.3004 9.32725L11.999 11.4156L11.4849 9.27433L11.3485 9.14697Z" fill="#17C0EB" stroke="#17C0EB" stroke-width="0.01"/>
<path d="M11.9116 11.1112L11.9078 11.1123L11.9447 11.2266L11.9155 11.1101L11.9116 11.1112Z" fill="white"/>
<path opacity="0.6" d="M14.1249 10.3846L13.939 10.3684L12.0038 11.4191L14.0232 10.541L14.1249 10.3846Z" fill="#17C0EB" stroke="#17C0EB" stroke-width="0.01"/>
<path d="M12.2877 11.28L12.2859 11.2764L12.1798 11.3326L12.2894 11.2836L12.2877 11.28Z" fill="white"/>
<path opacity="0.6" d="M13.6419 13.1212L13.5998 12.9395L12.0025 11.4236L13.4617 13.0728L13.6419 13.1212Z" fill="#17C0EB" stroke="#17C0EB" stroke-width="0.01"/>
<path d="M12.2221 11.651L12.225 11.6483L12.1387 11.5647L12.2192 11.6538L12.2221 11.651Z" fill="white"/>
<path opacity="0.6" d="M10.8902 13.5078L11.0501 13.4116L11.9982 11.4241L10.8806 13.3215L10.8902 13.5078Z" fill="#17C0EB" stroke="#17C0EB" stroke-width="0.01"/>
<path d="M11.8496 11.7026L11.8531 11.7045L11.9059 11.5967L11.8461 11.7008L11.8496 11.7026Z" fill="white"/>
<path opacity="0.6" d="M9.67291 11.0101L9.81379 11.1324L11.9971 11.4199L9.84715 10.9434L9.67291 11.0101Z" fill="#17C0EB" stroke="#17C0EB" stroke-width="0.01"/>
<path d="M11.6866 11.3648L11.6859 11.3687L11.8048 11.3856L11.6873 11.3608L11.6866 11.3648Z" fill="white"/>
<path opacity="0.6" d="M11.6716 9.08032L11.5988 9.25212L12.0001 11.4174L11.789 9.2254L11.6716 9.08032Z" fill="#17C0EB" stroke="#17C0EB" stroke-width="0.01"/>
<path d="M11.9555 11.1041L11.9516 11.1046L11.9722 11.2229L11.9595 11.1035L11.9555 11.1041Z" fill="white"/>
<path d="M11.9994 10.6328C11.5734 10.6323 11.1614 10.7857 10.8394 11.0648L10.2554 12.0808C10.2345 12.1903 10.2238 12.3014 10.2234 12.4128H10.4234C10.4438 12.0091 10.6185 11.6286 10.9115 11.3501C11.2044 11.0715 11.5932 10.9162 11.9974 10.9162C12.4017 10.9162 12.7905 11.0715 13.0834 11.3501C13.3764 11.6286 13.5511 12.0091 13.5714 12.4128H13.7714C13.7724 12.3015 13.763 12.1904 13.7434 12.0808L13.1594 11.0648C12.8373 10.7861 12.4255 10.6327 11.9994 10.6328Z" fill="#FF0000"/>
<path d="M12.0002 10.6687C11.5482 10.6677 11.1135 10.8428 10.7882 11.1567L10.3082 11.9927C10.2742 12.1288 10.2568 12.2685 10.2562 12.4087H10.4282C10.4566 12.0111 10.6346 11.6391 10.9262 11.3675C11.2179 11.0959 11.6017 10.9449 12.0002 10.9449C12.3988 10.9449 12.7826 11.0959 13.0742 11.3675C13.3659 11.6391 13.5439 12.0111 13.5722 12.4087H13.7442C13.7439 12.2671 13.7264 12.1261 13.6922 11.9887L13.2122 11.1567C12.887 10.8428 12.4523 10.6677 12.0002 10.6687Z" fill="#FF6600"/>
<path d="M12.0003 10.7C11.7587 10.6993 11.5196 10.75 11.2989 10.8486C11.0783 10.9472 10.8811 11.0915 10.7203 11.272L10.3723 11.872C10.3169 12.0465 10.2899 12.2288 10.2923 12.412H10.4243C10.4447 12.0082 10.6194 11.6278 10.9123 11.3492C11.2053 11.0707 11.5941 10.9153 11.9983 10.9153C12.4026 10.9153 12.7913 11.0707 13.0843 11.3492C13.3773 11.6278 13.552 12.0082 13.5723 12.412H13.7123C13.7123 12.224 13.6803 12.044 13.6283 11.876L13.2763 11.272C13.1162 11.0918 12.9197 10.9476 12.6997 10.849C12.4797 10.7504 12.2414 10.6996 12.0003 10.7Z" fill="#FFFF00"/>
<path d="M12.0003 10.732C11.7244 10.7319 11.4527 10.7997 11.2093 10.9294C10.9658 11.0592 10.758 11.2469 10.6043 11.476L10.4923 11.672C10.379 11.9022 10.3201 12.1554 10.3203 12.412H10.4283C10.4567 12.0145 10.6346 11.6425 10.9263 11.3709C11.218 11.0993 11.6018 10.9482 12.0003 10.9482C12.3989 10.9482 12.7826 11.0993 13.0743 11.3709C13.366 11.6425 13.5439 12.0145 13.5723 12.412H13.6803C13.6805 12.1554 13.6217 11.9022 13.5083 11.672L13.3963 11.472C13.2426 11.2429 13.0348 11.0552 12.7914 10.9254C12.5479 10.7957 12.2762 10.7279 12.0003 10.728V10.732Z" fill="#00FF00"/>
<path d="M11.9996 10.7607C11.7828 10.7607 11.5682 10.8035 11.368 10.8866C11.1678 10.9697 10.9859 11.0914 10.8328 11.2449C10.6798 11.3983 10.5584 11.5805 10.4759 11.7809C10.3933 11.9813 10.351 12.196 10.3516 12.4127H10.4276C10.456 12.0152 10.6339 11.6432 10.9256 11.3716C11.2172 11.1 11.601 10.949 11.9996 10.949C12.3981 10.949 12.7819 11.1 13.0736 11.3716C13.3652 11.6432 13.5432 12.0152 13.5716 12.4127H13.6476C13.6481 12.196 13.6058 11.9813 13.5233 11.7809C13.4407 11.5805 13.3194 11.3983 13.1663 11.2449C13.0132 11.0914 12.8314 10.9697 12.6312 10.8866C12.431 10.8035 12.2163 10.7607 11.9996 10.7607Z" fill="#00CCFF"/>
<path d="M12.0004 10.792C11.5718 10.792 11.1608 10.9622 10.8577 11.2653C10.5546 11.5684 10.3844 11.9794 10.3844 12.408H10.4404C10.4404 11.9942 10.6047 11.5974 10.8973 11.3049C11.1898 11.0124 11.5866 10.848 12.0004 10.848C12.4141 10.848 12.8109 11.0124 13.1035 11.3049C13.396 11.5974 13.5604 11.9942 13.5604 12.408H13.6164C13.6143 11.9808 13.4431 11.5718 13.1402 11.2705C12.8374 10.9692 12.4276 10.8 12.0004 10.8V10.792Z" fill="#0000FF"/>
<path d="M11.9999 10.829C11.7895 10.8289 11.5812 10.8708 11.3872 10.9522C11.1931 11.0335 11.0172 11.1527 10.8698 11.3028C10.7223 11.4528 10.6062 11.6308 10.5283 11.8262C10.4504 12.0216 10.4122 12.2306 10.4159 12.441H10.4479V12.409C10.4521 11.9974 10.6197 11.6043 10.9138 11.3162C11.2078 11.0282 11.6042 10.8687 12.0159 10.873C12.4275 10.8772 12.8206 11.0448 13.1086 11.3388C13.3967 11.6329 13.5561 12.0294 13.5519 12.441H13.5839V12.409C13.5839 12.201 13.5429 11.995 13.4633 11.8028C13.3837 11.6106 13.267 11.436 13.1199 11.2889C12.9728 11.1418 12.7982 11.0251 12.606 10.9455C12.4139 10.8659 12.2079 10.825 11.9999 10.825V10.829Z" fill="#800080"/>
<path d="M12.0159 11.524C11.9879 11.524 11.9679 11.504 11.9439 11.5C11.9322 11.5103 11.9235 11.5235 11.9185 11.5382C11.9137 11.553 11.9127 11.5688 11.9159 11.584C11.9279 11.588 11.9279 11.6 11.9519 11.62C11.9759 11.64 11.9719 11.648 11.9679 11.7C11.9679 11.716 11.9719 11.76 11.9919 11.764C12.0119 11.768 12.0319 11.752 12.0359 11.716C12.0399 11.688 12.0519 11.668 12.0639 11.652C12.0759 11.576 12.0559 11.548 12.0159 11.524Z" fill="#510000"/>
<path d="M11.8876 11.3408C11.8636 11.3408 11.8236 11.3808 11.8076 11.3608C11.7996 11.3488 11.7956 11.3248 11.8076 11.3048C11.8256 11.265 11.8566 11.2326 11.8956 11.2128C11.9876 11.1568 12.0516 11.1728 12.0956 11.2528C12.1396 11.3248 12.1836 11.4048 12.1876 11.4688C12.1876 11.4888 12.1996 11.5248 12.1796 11.5448C12.1276 11.6008 11.9956 11.4848 11.9196 11.5048C11.8956 11.5088 11.8636 11.5288 11.8396 11.5128C11.8236 11.5008 11.8396 11.4728 11.8516 11.4608C11.8756 11.4408 11.9116 11.3648 11.9076 11.3328C11.9076 11.3168 11.9076 11.3408 11.8876 11.3408Z" fill="#FF0000"/>
<path d="M11.8791 11.3046C11.8311 11.3206 11.8391 11.3446 11.8151 11.3646C11.8231 11.3686 11.8471 11.3766 11.8711 11.3526C11.8791 11.3446 11.8911 11.3406 11.8991 11.3406L11.8711 11.3686C11.8473 11.3881 11.8282 11.4127 11.8151 11.4406C11.8031 11.4726 11.7991 11.5086 11.8031 11.5126C11.8031 11.5126 11.8191 11.5446 11.8631 11.5606C11.9431 11.5926 11.9591 11.6606 12.0431 11.6606C12.1071 11.6606 12.0991 11.6166 12.1511 11.6246C12.1911 11.6326 12.2191 11.5966 12.1751 11.5766C12.1038 11.5625 12.0304 11.5625 11.9591 11.5766C11.9431 11.4166 11.9591 11.4726 11.9551 11.4006C11.9511 11.3326 11.9271 11.3286 11.9551 11.2686C11.9351 11.3086 11.9071 11.3006 11.8751 11.3006L11.8791 11.3046Z" fill="url(#paint0_linear_69_9387)"/>
<path d="M12.0399 11.1921L12.0359 11.2161L12.0479 11.2561L12.0559 11.2961C12.0559 11.3081 12.0719 11.3121 12.0839 11.3201C12.0999 11.3321 12.0839 11.3601 12.0959 11.3641C12.1039 11.3641 12.1159 11.3241 12.1159 11.3161V11.2881C12.1097 11.2759 12.103 11.2639 12.0959 11.2521C12.0935 11.248 12.0908 11.244 12.0879 11.2401C12.079 11.2267 12.0683 11.2145 12.0559 11.2041C12.052 11.2013 12.048 11.1986 12.0439 11.1961L12.0359 11.1921H12.0399Z" fill="#FF2A2A"/>
<path d="M12.0511 11.497L11.9711 11.469C11.9191 11.453 11.8671 11.421 11.8311 11.437C11.8191 11.441 11.8191 11.453 11.8151 11.473C11.8151 11.493 11.7951 11.525 11.8151 11.513C11.8391 11.497 11.9111 11.545 11.9351 11.557C11.9471 11.565 11.9751 11.581 11.9791 11.597C11.9871 11.621 11.9791 11.669 11.9791 11.693C11.9791 11.713 11.9871 11.765 12.0071 11.773C12.0311 11.777 12.0511 11.757 12.0591 11.721C12.0711 11.685 12.0751 11.665 12.0911 11.645C12.1071 11.625 12.1231 11.613 12.1431 11.609C12.1671 11.609 12.1991 11.629 12.1991 11.601C12.1991 11.585 12.1831 11.569 12.1911 11.545C12.1951 11.525 12.1751 11.529 12.1551 11.521L12.0471 11.497H12.0511Z" fill="url(#paint1_linear_69_9387)"/>
<path d="M11.936 11.5569C11.92 11.5489 11.844 11.4969 11.816 11.5169C11.804 11.5169 11.8 11.5169 11.8 11.5049L11.808 11.4689C11.808 11.4569 11.816 11.4369 11.828 11.4289C11.856 11.4049 11.92 11.4489 11.952 11.4609L11.936 11.5569Z" fill="#910000"/>
<path d="M12.0709 11.6558C12.1069 11.5918 12.1309 11.5998 12.1749 11.5998C12.1909 11.5998 12.1949 11.5878 12.1909 11.5718C12.1789 11.5958 12.1229 11.5718 12.0909 11.5838C12.0309 11.6118 12.0429 11.7318 12.0109 11.7438C12.0429 11.7718 12.0549 11.6758 12.0709 11.6558Z" fill="#FF3A3A"/>
<path d="M10.1234 12.3047L9.72343 12.9967H14.2794L13.8794 12.3087H10.1274L10.1234 12.3047Z" fill="white"/>
<path d="M9.98768 12.8546C9.92484 12.8545 9.86204 12.8585 9.79968 12.8666L9.77968 12.9026C9.87568 12.8906 9.96768 12.8746 10.0677 12.8746C10.1957 12.8746 10.3157 12.9066 10.4557 12.9066H10.6397C10.7797 12.9066 10.8957 12.8746 11.0277 12.8746C11.1597 12.8746 11.2797 12.9066 11.4197 12.9066H11.6037C11.7437 12.9066 11.8597 12.8746 11.9917 12.8746C12.1237 12.8746 12.2437 12.9066 12.3837 12.9066H12.5637C12.7037 12.9066 12.8237 12.8746 12.9557 12.8746C13.0877 12.8746 13.2077 12.9066 13.3477 12.9066H13.5277C13.6677 12.9066 13.7877 12.8746 13.9197 12.8746C14.0237 12.8746 14.1197 12.8946 14.2197 12.9026L14.1997 12.8626C14.1412 12.8566 14.0824 12.8539 14.0237 12.8546H13.8437C13.7037 12.8546 13.5837 12.8826 13.4517 12.8866C13.3197 12.8866 13.1997 12.8546 13.0597 12.8546H12.8797C12.7397 12.8546 12.6197 12.8826 12.4877 12.8866C12.3557 12.8866 12.2357 12.8546 12.0957 12.8546H11.9197C11.7797 12.8546 11.6597 12.8826 11.5277 12.8866C11.3957 12.8866 11.2757 12.8546 11.1357 12.8546H10.9557C10.8157 12.8546 10.6957 12.8826 10.5637 12.8866C10.4317 12.8866 10.3157 12.8546 10.1757 12.8546H9.99168H9.98768Z" fill="url(#paint2_linear_69_9387)"/>
<path d="M9.98768 12.8109C9.92484 12.8108 9.86204 12.8148 9.79968 12.8229L9.77968 12.8589C9.87568 12.8469 9.96768 12.8309 10.0677 12.8309C10.1957 12.8309 10.3157 12.8629 10.4557 12.8629H10.6397C10.7797 12.8629 10.8957 12.8309 11.0277 12.8309C11.1597 12.8309 11.2797 12.8629 11.4197 12.8629H11.6037C11.7437 12.8629 11.8597 12.8309 11.9917 12.8309C12.1237 12.8309 12.2437 12.8629 12.3837 12.8629H12.5637C12.7037 12.8629 12.8237 12.8309 12.9557 12.8309C13.0877 12.8309 13.2077 12.8629 13.3477 12.8629H13.5277C13.6677 12.8629 13.7877 12.8309 13.9197 12.8309C14.0237 12.8309 14.1197 12.8509 14.2197 12.8589L14.1997 12.8189C14.1412 12.8129 14.0824 12.8102 14.0237 12.8109H13.8437C13.7037 12.8109 13.5837 12.8389 13.4517 12.8429C13.3197 12.8429 13.1997 12.8109 13.0597 12.8109H12.8797C12.7397 12.8109 12.6197 12.8389 12.4877 12.8429C12.3557 12.8429 12.2357 12.8109 12.0957 12.8109H11.9197C11.7797 12.8109 11.6597 12.8389 11.5277 12.8429C11.3957 12.8429 11.2757 12.8109 11.1357 12.8109H10.9557C10.8157 12.8109 10.6957 12.8389 10.5637 12.8429C10.4317 12.8429 10.3157 12.8109 10.1757 12.8109H9.99168H9.98768Z" fill="url(#paint3_linear_69_9387)"/>
<path d="M9.98768 12.7672C9.92484 12.7671 9.86204 12.7711 9.79968 12.7792L9.77968 12.8152C9.87568 12.8032 9.96768 12.7872 10.0677 12.7872C10.1957 12.7872 10.3157 12.8192 10.4557 12.8192H10.6397C10.7797 12.8192 10.8957 12.7872 11.0277 12.7872C11.1597 12.7872 11.2797 12.8192 11.4197 12.8192H11.6037C11.7437 12.8192 11.8597 12.7872 11.9917 12.7872C12.1237 12.7872 12.2437 12.8192 12.3837 12.8192H12.5637C12.7037 12.8192 12.8237 12.7872 12.9557 12.7872C13.0877 12.7872 13.2077 12.8192 13.3477 12.8192H13.5277C13.6677 12.8192 13.7877 12.7872 13.9197 12.7872C14.0237 12.7872 14.1197 12.8072 14.2197 12.8152L14.1997 12.7752C14.1412 12.7691 14.0824 12.7665 14.0237 12.7672H13.8437C13.7037 12.7672 13.5837 12.7952 13.4517 12.7992C13.3197 12.7992 13.1997 12.7672 13.0597 12.7672H12.8797C12.7397 12.7672 12.6197 12.7952 12.4877 12.7992C12.3557 12.7992 12.2357 12.7672 12.0957 12.7672H11.9197C11.7797 12.7672 11.6597 12.7952 11.5277 12.7992C11.3957 12.7992 11.2757 12.7672 11.1357 12.7672H10.9557C10.8157 12.7672 10.6957 12.7952 10.5637 12.7992C10.4317 12.7992 10.3157 12.7672 10.1757 12.7672H9.99168H9.98768Z" fill="url(#paint4_linear_69_9387)"/>
<path d="M9.98768 12.7235C9.92484 12.7234 9.86204 12.7274 9.79968 12.7355L9.77968 12.7715C9.87568 12.7595 9.96768 12.7435 10.0677 12.7435C10.1957 12.7435 10.3157 12.7755 10.4557 12.7755H10.6397C10.7797 12.7755 10.8957 12.7435 11.0277 12.7435C11.1597 12.7435 11.2797 12.7755 11.4197 12.7755H11.6037C11.7437 12.7755 11.8597 12.7435 11.9917 12.7435C12.1237 12.7435 12.2437 12.7755 12.3837 12.7755H12.5637C12.7037 12.7755 12.8237 12.7435 12.9557 12.7435C13.0877 12.7435 13.2077 12.7755 13.3477 12.7755H13.5277C13.6677 12.7755 13.7877 12.7435 13.9197 12.7435C14.0237 12.7435 14.1197 12.7635 14.2197 12.7715L14.1997 12.7315C14.1412 12.7254 14.0824 12.7228 14.0237 12.7235H13.8437C13.7037 12.7235 13.5837 12.7515 13.4517 12.7555C13.3197 12.7555 13.1997 12.7235 13.0597 12.7235H12.8797C12.7397 12.7235 12.6197 12.7515 12.4877 12.7555C12.3557 12.7555 12.2357 12.7235 12.0957 12.7235H11.9197C11.7797 12.7235 11.6597 12.7515 11.5277 12.7555C11.3957 12.7555 11.2757 12.7235 11.1357 12.7235H10.9557C10.8157 12.7235 10.6957 12.7515 10.5637 12.7555C10.4317 12.7555 10.3157 12.7235 10.1757 12.7235H9.99168H9.98768Z" fill="url(#paint5_linear_69_9387)"/>
<path d="M9.98768 12.6798C9.92484 12.6797 9.86204 12.6837 9.79968 12.6918L9.77968 12.7278C9.87568 12.7158 9.96768 12.6998 10.0677 12.6998C10.1957 12.6998 10.3157 12.7318 10.4557 12.7318H10.6397C10.7797 12.7318 10.8957 12.6998 11.0277 12.6998C11.1597 12.6998 11.2797 12.7318 11.4197 12.7318H11.6037C11.7437 12.7318 11.8597 12.6998 11.9917 12.6998C12.1237 12.6998 12.2437 12.7318 12.3837 12.7318H12.5637C12.7037 12.7318 12.8237 12.6998 12.9557 12.6998C13.0877 12.6998 13.2077 12.7318 13.3477 12.7318H13.5277C13.6677 12.7318 13.7877 12.6998 13.9197 12.6998C14.0237 12.6998 14.1197 12.7198 14.2197 12.7278L14.1997 12.6878C14.1412 12.6818 14.0824 12.6791 14.0237 12.6798H13.8437C13.7037 12.6798 13.5837 12.7078 13.4517 12.7118C13.3197 12.7118 13.1997 12.6798 13.0597 12.6798H12.8797C12.7397 12.6798 12.6197 12.7078 12.4877 12.7118C12.3557 12.7118 12.2357 12.6798 12.0957 12.6798H11.9197C11.7797 12.6798 11.6597 12.7078 11.5277 12.7118C11.3957 12.7118 11.2757 12.6798 11.1357 12.6798H10.9557C10.8157 12.6798 10.6957 12.7078 10.5637 12.7118C10.4317 12.7118 10.3157 12.6798 10.1757 12.6798H9.99168H9.98768Z" fill="url(#paint6_linear_69_9387)"/>
<path d="M9.98768 12.6359C9.92484 12.6358 9.86204 12.6398 9.79968 12.6479L9.77968 12.6839C9.87568 12.6719 9.96768 12.6559 10.0677 12.6559C10.1957 12.6559 10.3157 12.6879 10.4557 12.6879H10.6397C10.7797 12.6879 10.8957 12.6559 11.0277 12.6559C11.1597 12.6559 11.2797 12.6879 11.4197 12.6879H11.6037C11.7437 12.6879 11.8597 12.6559 11.9917 12.6559C12.1237 12.6559 12.2437 12.6879 12.3837 12.6879H12.5637C12.7037 12.6879 12.8237 12.6559 12.9557 12.6559C13.0877 12.6559 13.2077 12.6879 13.3477 12.6879H13.5277C13.6677 12.6879 13.7877 12.6559 13.9197 12.6559C14.0237 12.6559 14.1197 12.6759 14.2197 12.6839L14.1997 12.6439C14.1412 12.6378 14.0824 12.6351 14.0237 12.6359H13.8437C13.7037 12.6359 13.5837 12.6639 13.4517 12.6679C13.3197 12.6679 13.1997 12.6359 13.0597 12.6359H12.8797C12.7397 12.6359 12.6197 12.6639 12.4877 12.6679C12.3557 12.6679 12.2357 12.6359 12.0957 12.6359H11.9197C11.7797 12.6359 11.6597 12.6639 11.5277 12.6679C11.3957 12.6679 11.2757 12.6359 11.1357 12.6359H10.9557C10.8157 12.6359 10.6957 12.6639 10.5637 12.6679C10.4317 12.6679 10.3157 12.6359 10.1757 12.6359H9.99168H9.98768Z" fill="url(#paint7_linear_69_9387)"/>
<path d="M9.98768 12.5875C9.92484 12.5874 9.86204 12.5914 9.79968 12.5996L9.77968 12.6356C9.87568 12.6236 9.96768 12.6075 10.0677 12.6075C10.1957 12.6075 10.3157 12.6396 10.4557 12.6396H10.6397C10.7797 12.6396 10.8957 12.6075 11.0277 12.6075C11.1597 12.6075 11.2797 12.6396 11.4197 12.6396H11.6037C11.7437 12.6396 11.8597 12.6075 11.9917 12.6075C12.1237 12.6075 12.2437 12.6396 12.3837 12.6396H12.5637C12.7037 12.6396 12.8237 12.6075 12.9557 12.6075C13.0877 12.6075 13.2077 12.6396 13.3477 12.6396H13.5277C13.6677 12.6396 13.7877 12.6075 13.9197 12.6075C14.0237 12.6075 14.1197 12.6276 14.2197 12.6356L14.1997 12.5956C14.1412 12.5895 14.0824 12.5868 14.0237 12.5875H13.8437C13.7037 12.5875 13.5837 12.6156 13.4517 12.6196C13.3197 12.6196 13.1997 12.5875 13.0597 12.5875H12.8797C12.7397 12.5875 12.6197 12.6156 12.4877 12.6196C12.3557 12.6196 12.2357 12.5875 12.0957 12.5875H11.9197C11.7797 12.5875 11.6597 12.6156 11.5277 12.6196C11.3957 12.6196 11.2757 12.5875 11.1357 12.5875H10.9557C10.8157 12.5875 10.6957 12.6156 10.5637 12.6196C10.4317 12.6196 10.3157 12.5875 10.1757 12.5875H9.99168H9.98768Z" fill="url(#paint8_linear_69_9387)"/>
<path d="M9.98768 12.5438C9.92484 12.5437 9.86204 12.5477 9.79968 12.5558L9.77968 12.5918C9.87568 12.5798 9.96768 12.5638 10.0677 12.5638C10.1957 12.5638 10.3157 12.5958 10.4557 12.5958H10.6397C10.7797 12.5958 10.8957 12.5638 11.0277 12.5638C11.1597 12.5638 11.2797 12.5958 11.4197 12.5958H11.6037C11.7437 12.5958 11.8597 12.5638 11.9917 12.5638C12.1237 12.5638 12.2437 12.5958 12.3837 12.5958H12.5637C12.7037 12.5958 12.8237 12.5638 12.9557 12.5638C13.0877 12.5638 13.2077 12.5958 13.3477 12.5958H13.5277C13.6677 12.5958 13.7877 12.5638 13.9197 12.5638C14.0237 12.5638 14.1197 12.5838 14.2197 12.5918L14.1997 12.5518C14.1412 12.5457 14.0824 12.5431 14.0237 12.5438H13.8437C13.7037 12.5438 13.5837 12.5718 13.4517 12.5758C13.3197 12.5758 13.1997 12.5438 13.0597 12.5438H12.8797C12.7397 12.5438 12.6197 12.5718 12.4877 12.5758C12.3557 12.5758 12.2357 12.5438 12.0957 12.5438H11.9197C11.7797 12.5438 11.6597 12.5718 11.5277 12.5758C11.3957 12.5758 11.2757 12.5438 11.1357 12.5438H10.9557C10.8157 12.5438 10.6957 12.5718 10.5637 12.5758C10.4317 12.5758 10.3157 12.5438 10.1757 12.5438H9.99168H9.98768Z" fill="url(#paint9_linear_69_9387)"/>
<path d="M9.98768 12.5001C9.92484 12.5 9.86204 12.504 9.79968 12.5121L9.77968 12.5481C9.87568 12.5361 9.96768 12.5201 10.0677 12.5201C10.1957 12.5201 10.3157 12.5521 10.4557 12.5521H10.6397C10.7797 12.5521 10.8957 12.5201 11.0277 12.5201C11.1597 12.5201 11.2797 12.5521 11.4197 12.5521H11.6037C11.7437 12.5521 11.8597 12.5201 11.9917 12.5201C12.1237 12.5201 12.2437 12.5521 12.3837 12.5521H12.5637C12.7037 12.5521 12.8237 12.5201 12.9557 12.5201C13.0877 12.5201 13.2077 12.5521 13.3477 12.5521H13.5277C13.6677 12.5521 13.7877 12.5201 13.9197 12.5201C14.0237 12.5201 14.1197 12.5401 14.2197 12.5481L14.1997 12.5081C14.1412 12.502 14.0824 12.4994 14.0237 12.5001H13.8437C13.7037 12.5001 13.5837 12.5281 13.4517 12.5321C13.3197 12.5321 13.1997 12.5001 13.0597 12.5001H12.8797C12.7397 12.5001 12.6197 12.5281 12.4877 12.5321C12.3557 12.5321 12.2357 12.5001 12.0957 12.5001H11.9197C11.7797 12.5001 11.6597 12.5281 11.5277 12.5321C11.3957 12.5321 11.2757 12.5001 11.1357 12.5001H10.9557C10.8157 12.5001 10.6957 12.5281 10.5637 12.5321C10.4317 12.5321 10.3157 12.5001 10.1757 12.5001H9.99168H9.98768Z" fill="url(#paint10_linear_69_9387)"/>
<path d="M10.1274 12.2998V12.3078H13.8754L13.8714 12.2998H10.1274ZM10.1194 12.3118L10.1154 12.3238H13.8794L13.8754 12.3118H10.1154H10.1194ZM10.1114 12.3278L10.1034 12.3398H13.8954L13.8874 12.3278H10.1114ZM10.0994 12.3478L10.0874 12.3678H13.9114L13.8994 12.3478H10.0994ZM10.0834 12.3758L10.0714 12.3958H13.9274L13.9154 12.3758H10.0834ZM10.0674 12.4038L10.0594 12.4198H13.9394L13.9314 12.4038H10.0674ZM10.0514 12.4318L10.0434 12.4478H13.9594L13.9474 12.4318H10.0514ZM10.0354 12.4598L10.0234 12.4838H13.9754L13.9634 12.4598H10.0394H10.0354Z" fill="url(#paint11_linear_69_9387)"/>
<path d="M10.2953 12.4922C10.4313 12.5202 10.4433 12.4922 10.4433 12.4922H10.2953ZM13.5553 12.4922C13.5553 12.4922 13.5673 12.5202 13.7033 12.4922H13.5553Z" fill="url(#paint12_linear_69_9387)"/>
<path d="M13.2229 11.8811C13.1549 11.8811 13.1349 11.9171 13.1349 11.9171C13.0269 12.3411 12.6629 12.7691 12.2309 12.7691H11.9109V13.2011H14.3669L14.1189 12.7611C13.7309 12.7051 13.4149 12.3091 13.3149 11.9171C13.3149 11.9171 13.2909 11.8811 13.2229 11.8811Z" fill="url(#paint13_linear_69_9387)"/>
<path d="M13.2234 11.9006C13.1914 11.9006 13.1754 11.9046 13.1634 11.9126L13.1514 11.9246C13.0915 12.146 12.9758 12.3485 12.8154 12.5126C12.6554 12.6766 12.4554 12.7886 12.2314 12.7886H11.9234V13.1846H14.3594L14.1314 12.7846C13.9434 12.7566 13.7714 12.6566 13.6354 12.5126C13.4751 12.3485 13.3594 12.146 13.2994 11.9246L13.2874 11.9126C13.2678 11.9023 13.2455 11.8981 13.2234 11.9006Z" fill="#97C924"/>
<path d="M13.2234 11.9014H13.2394V12.3334C13.2356 12.4242 13.208 12.5125 13.1594 12.5894C13.1394 12.6534 13.1194 12.6294 13.0674 12.7054C13 12.7286 12.9303 12.7447 12.8594 12.7534C12.7594 12.7694 12.5394 12.7854 12.4234 12.7574C12.5723 12.7118 12.7072 12.6292 12.8154 12.5174C12.8452 12.4856 12.8732 12.4522 12.8994 12.4174C12.944 12.362 12.9842 12.3031 13.0194 12.2414L13.0594 12.1614C13.0786 12.1235 13.0959 12.0848 13.1114 12.0454C13.1269 12.0061 13.1402 11.966 13.1514 11.9254L13.1634 11.9134L13.1874 11.9054L13.2274 11.9014H13.2234Z" fill="#EDE71F"/>
<path d="M13.1982 11.9578C13.1782 12.1978 13.1062 12.4858 12.9302 12.6698C12.8662 12.7218 12.7822 12.7738 12.7062 12.7618C12.9742 12.5418 13.1382 12.2018 13.1942 11.9578H13.1982Z" fill="#C6CB24"/>
<path d="M12.9789 12.3733C12.9389 12.4813 12.7869 12.6413 12.6269 12.7733H12.5109C12.6109 12.7653 12.8429 12.5733 12.9789 12.3733Z" fill="#9ECB34"/>
<path d="M12.612 11.8811C12.544 11.8811 12.524 11.9171 12.524 11.9171C12.416 12.3411 12.052 12.7691 11.62 12.7691H11.3V13.2011H13.756L13.508 12.7611C13.12 12.7051 12.804 12.3091 12.704 11.9171C12.704 11.9171 12.68 11.8811 12.612 11.8811Z" fill="url(#paint14_linear_69_9387)"/>
<path d="M12.6125 11.9006C12.5805 11.9006 12.5645 11.9046 12.5525 11.9126L12.5405 11.9246C12.4805 12.146 12.3648 12.3485 12.2045 12.5126C12.0445 12.6766 11.8445 12.7886 11.6205 12.7886H11.3125V13.1846H13.7485L13.5205 12.7846C13.3325 12.7566 13.1605 12.6566 13.0245 12.5126C12.8641 12.3485 12.7485 12.146 12.6885 11.9246L12.6765 11.9126C12.6568 11.9023 12.6345 11.8981 12.6125 11.9006Z" fill="#97C924"/>
<path d="M12.6125 11.9014H12.6285V12.3334C12.6247 12.4242 12.5971 12.5125 12.5485 12.5894C12.5285 12.6534 12.5085 12.6294 12.4565 12.7054C12.389 12.7286 12.3193 12.7447 12.2485 12.7534C12.1485 12.7694 11.9285 12.7854 11.8125 12.7574C11.9613 12.7118 12.0962 12.6292 12.2045 12.5174C12.2343 12.4856 12.2623 12.4522 12.2885 12.4174C12.3331 12.362 12.3732 12.3031 12.4085 12.2414L12.4485 12.1614C12.4676 12.1235 12.485 12.0848 12.5005 12.0454C12.5159 12.0061 12.5293 11.966 12.5405 11.9254L12.5525 11.9134L12.5765 11.9054L12.6165 11.9014H12.6125Z" fill="#EDE71F"/>
<path d="M12.5873 11.9578C12.5673 12.1978 12.4953 12.4858 12.3193 12.6698C12.2553 12.7218 12.1713 12.7738 12.0953 12.7618C12.3633 12.5418 12.5273 12.2018 12.5833 11.9578H12.5873Z" fill="#C6CB24"/>
<path d="M12.368 12.3733C12.328 12.4813 12.176 12.6413 12.016 12.7733H11.9C12 12.7653 12.232 12.5733 12.368 12.3733Z" fill="#9ECB34"/>
<path d="M12.0868 11.9217C12.1988 12.3417 12.5588 12.7697 12.9908 12.7697H13.3148V13.2017H10.6828V12.7697H11.0028C11.4348 12.7697 11.7988 12.3417 11.9068 11.9177C11.9068 11.9177 11.9308 11.8857 11.9988 11.8857C12.0668 11.8857 12.0868 11.9177 12.0868 11.9177V11.9217Z" fill="url(#paint15_linear_69_9387)"/>
<path d="M11.9984 11.9018C12.0304 11.9018 12.0464 11.9098 12.0584 11.9138L12.0704 11.9258C12.1304 12.1473 12.2461 12.3497 12.4064 12.5138C12.5664 12.6778 12.7664 12.7898 12.9904 12.7898H13.2984V13.1858H10.6984V12.7858H11.0064C11.2264 12.7858 11.4304 12.6778 11.5904 12.5138C11.7493 12.3493 11.8636 12.1469 11.9224 11.9258L11.9344 11.9138C11.9542 11.904 11.9764 11.8999 11.9984 11.9018Z" fill="#97C924"/>
<path d="M11.9704 11.9015C11.9664 11.9013 11.9624 11.9013 11.9584 11.9015L11.9344 11.9135L11.9224 11.9255C11.9113 11.9662 11.898 12.0062 11.8824 12.0455C11.8683 12.0862 11.8523 12.1263 11.8344 12.1655C11.8219 12.1912 11.8086 12.2166 11.7944 12.2415C11.7592 12.3032 11.719 12.3621 11.6744 12.4175C11.6481 12.4509 11.6201 12.483 11.5904 12.5135C11.4826 12.6268 11.3477 12.7108 11.1984 12.7575C11.3104 12.7855 11.3584 12.7575 11.4584 12.7415C11.5384 12.7295 11.6264 12.7175 11.6984 12.6935C11.7584 12.6135 11.7384 12.6415 11.7584 12.5775C11.8064 12.4895 11.8784 12.4095 11.8944 12.3095C11.9584 12.1895 11.9704 11.9655 11.9704 11.9015Z" fill="#EDE71F"/>
<path d="M11.9701 11.9578C11.9541 12.1978 11.8781 12.4858 11.7021 12.6698C11.6381 12.7218 11.5581 12.7738 11.4781 12.7618C11.7501 12.5418 11.9141 12.2018 11.9701 11.9578Z" fill="#C6CB24"/>
<path d="M11.7515 12.3733C11.6645 12.5306 11.5444 12.6671 11.3995 12.7733H11.2875C11.3875 12.7653 11.6155 12.5733 11.7515 12.3733Z" fill="#9ECB34"/>
<path d="M12.0386 11.9062L12.0586 11.9143L12.0746 11.9262C12.0859 11.9669 12.0993 12.0069 12.1146 12.0463C12.1286 12.087 12.1446 12.127 12.1626 12.1662L12.2026 12.2423C12.2378 12.304 12.278 12.3629 12.3226 12.4183C12.3489 12.4517 12.3769 12.4837 12.4066 12.5143C12.5136 12.6321 12.6484 12.7215 12.7986 12.7743C12.5066 12.7743 12.3826 12.7503 12.2786 12.6143C12.203 12.5342 12.1456 12.4386 12.1106 12.3342C12.0906 12.2542 12.0306 12.0742 12.0346 11.9062H12.0386Z" fill="#EDE71F"/>
<path d="M12.0594 11.9578C12.0754 12.1978 12.1474 12.4378 12.3234 12.6218C12.3874 12.6778 12.4674 12.7258 12.5474 12.7138C12.2961 12.5315 12.122 12.2618 12.0594 11.9578Z" fill="#C6CB24"/>
<path d="M11.3909 11.8811C11.3189 11.8811 11.2989 11.9171 11.2989 11.9171C11.1989 12.3091 10.8269 12.8091 10.4389 12.8691L10.2469 13.2011H12.2069V12.7491C11.8549 12.6531 11.5709 12.2811 11.4789 11.9171C11.4789 11.9171 11.4589 11.8851 11.3869 11.8851L11.3909 11.8811Z" fill="url(#paint16_linear_69_9387)"/>
<path d="M11.3914 11.9016C11.3594 11.9016 11.3394 11.9096 11.3274 11.9136L11.3154 11.9256C11.2481 12.1451 11.138 12.349 10.9914 12.5256C10.8554 12.6976 10.6034 12.8696 10.4314 12.8856L10.2594 13.1856H12.1794V12.7576C12.035 12.71 11.9045 12.6276 11.7994 12.5176C11.6384 12.3524 11.5227 12.1485 11.4634 11.9256L11.4514 11.9136C11.4328 11.9044 11.4121 11.9002 11.3914 11.9016Z" fill="#97C924"/>
<path d="M11.3344 11.9578C11.3104 12.3178 11.1104 12.7778 10.8824 12.8538C10.8064 12.8818 10.6784 12.8898 10.6344 12.8938C10.8108 12.7958 10.9646 12.6618 11.0858 12.5006C11.2071 12.3393 11.2932 12.1544 11.3384 11.9578H11.3344Z" fill="#93BC30"/>
<path d="M11.3903 11.9015H11.3703V12.3335C11.3703 12.4255 11.4063 12.5015 11.4503 12.5895L11.4583 12.6095C11.4783 12.6535 11.4903 12.6695 11.5503 12.7175C11.7221 12.8401 11.9322 12.8968 12.1423 12.8775C12.0983 12.8415 12.0503 12.8095 12.0063 12.7815L12.1863 12.7615C12.038 12.713 11.9045 12.6277 11.7983 12.5135C11.779 12.4941 11.7603 12.4741 11.7423 12.4535L11.7183 12.4215C11.671 12.365 11.6282 12.3048 11.5903 12.2415C11.5761 12.2153 11.5628 12.1886 11.5503 12.1615C11.5258 12.1108 11.5044 12.0588 11.4863 12.0055C11.4774 11.9791 11.4694 11.9524 11.4623 11.9255L11.4503 11.9135C11.4427 11.9097 11.4346 11.907 11.4263 11.9055C11.4132 11.9023 11.3998 11.9009 11.3863 11.9015H11.3903Z" fill="#EDE71F"/>
<path d="M11.4156 11.9578C11.4356 12.1978 11.5076 12.4858 11.6836 12.6698C11.7476 12.7218 11.8276 12.7738 11.9076 12.7618C11.6636 12.5518 11.4916 12.2706 11.4156 11.9578Z" fill="#CCD11E"/>
<path d="M11.5828 12.2931C11.7124 12.5465 11.9161 12.7543 12.1668 12.8891H12.2668C12.0908 12.7931 11.8068 12.6571 11.5868 12.2891L11.5828 12.2931Z" fill="#9ECB34"/>
<path d="M10.7752 11.8811C10.7032 11.8811 10.6832 11.9171 10.6832 11.9171C10.5832 12.3091 10.2112 12.8091 9.82324 12.8691L9.63124 13.2011H11.5912V12.7491C11.2392 12.6531 10.9552 12.2811 10.8632 11.9171C10.8632 11.9171 10.8432 11.8851 10.7712 11.8851L10.7752 11.8811Z" fill="url(#paint17_linear_69_9387)"/>
<path d="M10.7758 11.9016C10.7438 11.9016 10.7238 11.9096 10.7118 11.9136L10.6998 11.9256C10.6325 12.1451 10.5224 12.349 10.3758 12.5256C10.2398 12.6976 9.98775 12.8696 9.81575 12.8856L9.64375 13.1856H11.5638V12.7576C11.4193 12.71 11.2888 12.6276 11.1838 12.5176C11.0228 12.3524 10.9071 12.1485 10.8478 11.9256L10.8358 11.9136C10.8172 11.9044 10.7965 11.9002 10.7758 11.9016Z" fill="#97C924"/>
<path d="M10.7188 11.9578C10.6948 12.3178 10.4948 12.7778 10.2668 12.8538C10.1908 12.8818 10.0628 12.8898 10.0188 12.8938C10.1951 12.7958 10.3489 12.6618 10.4702 12.5006C10.5915 12.3393 10.6775 12.1544 10.7228 11.9578H10.7188Z" fill="#93BC30"/>
<path d="M10.7747 11.9015H10.7547V12.3335C10.7547 12.4255 10.7907 12.5015 10.8347 12.5895L10.8427 12.6095C10.8627 12.6535 10.8747 12.6695 10.9347 12.7175C11.1064 12.8401 11.3165 12.8968 11.5267 12.8775C11.4827 12.8415 11.4347 12.8095 11.3907 12.7815L11.5707 12.7615C11.4224 12.713 11.2889 12.6277 11.1827 12.5135C11.1633 12.4941 11.1447 12.4741 11.1267 12.4535L11.1027 12.4215C11.0553 12.365 11.0125 12.3048 10.9747 12.2415C10.9605 12.2153 10.9471 12.1886 10.9347 12.1615C10.9101 12.1108 10.8887 12.0588 10.8707 12.0055C10.8618 11.9791 10.8538 11.9524 10.8467 11.9255L10.8347 11.9135C10.8271 11.9097 10.819 11.907 10.8107 11.9055C10.7976 11.9023 10.7841 11.9009 10.7707 11.9015H10.7747Z" fill="#EDE71F"/>
<path d="M10.8 11.9578C10.82 12.1978 10.892 12.4858 11.068 12.6698C11.132 12.7218 11.212 12.7738 11.292 12.7618C11.048 12.5518 10.8759 12.2706 10.8 11.9578Z" fill="#C6CB24"/>
<path d="M10.9672 12.2931C11.0968 12.5465 11.3005 12.7543 11.5512 12.8891H11.6512C11.4752 12.7931 11.1912 12.6571 10.9712 12.2891L10.9672 12.2931Z" fill="#9ECB34"/>
<path d="M14.2596 12.9881C14.2356 12.9961 14.0836 12.9801 14.0036 12.9881L13.9516 13.0001H13.8196C13.6756 13.0001 13.5516 13.0401 13.4156 13.0401C13.2796 13.0401 13.1556 13.0001 13.0156 13.0001H12.8796C12.7356 13.0001 12.6116 13.0401 12.4756 13.0401C12.3396 13.0401 12.2156 13.0001 12.0756 13.0001H11.9396C11.7956 13.0001 11.6716 13.0401 11.5396 13.0401C11.3996 13.0401 11.2796 13.0001 11.1356 13.0001H10.9996C10.8556 13.0001 10.7356 13.0401 10.5996 13.0401C10.4596 13.0401 10.3396 13.0001 10.1956 13.0001H10.0596C9.94755 13.0001 9.81155 13.0241 9.70355 13.0321L9.45155 13.4681H14.5476L14.2596 12.9881Z" fill="white"/>
<path d="M13.9192 12.9248H13.8952C13.7672 12.9288 13.6712 12.9688 13.4472 12.9688C13.2232 12.9688 13.1992 12.9288 12.9432 12.9368C12.7032 12.9368 12.6072 12.9848 12.4752 12.9848C12.3472 12.9848 12.1392 12.9568 11.9752 12.9728C11.8152 12.9888 11.6232 13.0248 11.4952 13.0248C11.3392 13.0248 11.1832 12.9968 11.0232 13.0128C10.8592 13.0288 10.7832 13.0728 10.5792 13.0728C10.4032 13.0728 10.2192 13.0448 10.0672 13.0448C9.93124 13.0448 9.77924 13.0848 9.66724 13.1008L9.63124 13.1608C9.72324 13.1488 9.97524 13.1088 10.0632 13.1088C10.1592 13.1088 10.4912 13.1288 10.6752 13.1208C10.8632 13.1168 10.8832 13.0728 11.1032 13.0728C11.2552 13.0728 11.3672 13.0888 11.5232 13.0888C11.6232 13.0888 11.7112 13.0408 11.8592 13.0408L11.9712 13.0368C12.0952 13.0168 12.3072 13.0368 12.4512 13.0448C12.5832 13.0528 12.6712 13.0208 12.8112 13.0168L12.9872 13.0128C13.1272 13.0048 13.2432 13.0368 13.3752 13.0368C13.5032 13.0288 13.6312 12.9968 13.7672 12.9968L13.9472 12.9888C14.0392 12.9888 14.1832 12.9888 14.2792 13.0088L14.2472 12.9528C14.1512 12.9488 14.0352 12.9248 13.9192 12.9248Z" fill="url(#paint18_linear_69_9387)"/>
<path d="M10.0121 13.3929C9.87608 13.3929 9.75608 13.4249 9.62808 13.4289C9.57988 13.4276 9.5318 13.4236 9.48408 13.4169L9.46408 13.4489H9.70408C9.84408 13.4489 9.96008 13.4169 10.0881 13.4129C10.2201 13.4169 10.3361 13.4529 10.4761 13.4529H10.6561C10.7921 13.4529 10.9121 13.4169 11.0401 13.4129C11.1721 13.4169 11.2921 13.4529 11.4281 13.4529H11.6081C11.7481 13.4529 11.8641 13.4169 11.9961 13.4129C12.1241 13.4169 12.2401 13.4529 12.3801 13.4529H12.5601C12.6961 13.4529 12.8161 13.4169 12.9481 13.4129C13.0761 13.4169 13.1961 13.4529 13.3321 13.4529H13.5121C13.6521 13.4529 13.7681 13.4169 13.8961 13.4129C14.0281 13.4169 14.1441 13.4529 14.2841 13.4529H14.4641L14.5361 13.4489L14.5161 13.4169C14.4761 13.4209 14.4321 13.4289 14.3881 13.4289C14.2561 13.4289 14.1401 13.3889 14.0001 13.3889H13.8201C13.6841 13.3889 13.5641 13.4289 13.4361 13.4289C13.3041 13.4249 13.1881 13.3889 13.0481 13.3889H12.8681C12.7321 13.3889 12.6121 13.4289 12.4841 13.4289C12.3521 13.4249 12.2361 13.3889 12.0961 13.3889H11.9161C11.7761 13.3889 11.6601 13.4289 11.5321 13.4289C11.4001 13.4249 11.2841 13.3889 11.1441 13.3889H10.9641C10.8281 13.3889 10.7081 13.4289 10.5801 13.4289C10.4481 13.4249 10.3321 13.3889 10.1921 13.3889H10.0121V13.3929Z" fill="url(#paint19_linear_69_9387)"/>
<path d="M10.0121 13.3399C9.87608 13.3399 9.75608 13.3719 9.62808 13.3759C9.57988 13.3747 9.5318 13.3707 9.48408 13.3639L9.46408 13.3959H9.70408C9.84408 13.3959 9.96008 13.3639 10.0881 13.3599C10.2201 13.3639 10.3361 13.3999 10.4761 13.3999H10.6561C10.7921 13.3999 10.9121 13.3639 11.0401 13.3599C11.1721 13.3639 11.2921 13.3999 11.4281 13.3999H11.6081C11.7481 13.3999 11.8641 13.3639 11.9961 13.3599C12.1241 13.3639 12.2401 13.3999 12.3801 13.3999H12.5601C12.6961 13.3999 12.8161 13.3639 12.9481 13.3599C13.0761 13.3639 13.1961 13.3999 13.3321 13.3999H13.5121C13.6521 13.3999 13.7681 13.3639 13.8961 13.3599C14.0281 13.3639 14.1441 13.3999 14.2841 13.3999H14.4641L14.5361 13.3959L14.5161 13.3639C14.4761 13.3679 14.4321 13.3759 14.3881 13.3759C14.2561 13.3759 14.1401 13.3359 14.0001 13.3359H13.8201C13.6841 13.3359 13.5641 13.3759 13.4361 13.3759C13.3041 13.3719 13.1881 13.3359 13.0481 13.3359H12.8681C12.7321 13.3359 12.6121 13.3759 12.4841 13.3759C12.3521 13.3719 12.2361 13.3359 12.0961 13.3359H11.9161C11.7761 13.3359 11.6601 13.3759 11.5321 13.3759C11.4001 13.3719 11.2841 13.3359 11.1441 13.3359H10.9641C10.8281 13.3359 10.7081 13.3759 10.5801 13.3759C10.4481 13.3719 10.3321 13.3359 10.1921 13.3359H10.0121V13.3399Z" fill="url(#paint20_linear_69_9387)"/>
<path d="M10.0121 13.2882C9.87608 13.2882 9.75608 13.3202 9.62808 13.3242C9.57988 13.3229 9.5318 13.3189 9.48408 13.3122L9.46408 13.3442H9.70408C9.84408 13.3442 9.96008 13.3122 10.0881 13.3082C10.2201 13.3122 10.3361 13.3482 10.4761 13.3482H10.6561C10.7921 13.3482 10.9121 13.3122 11.0401 13.3082C11.1721 13.3122 11.2921 13.3482 11.4281 13.3482H11.6081C11.7481 13.3482 11.8641 13.3122 11.9961 13.3082C12.1241 13.3122 12.2401 13.3482 12.3801 13.3482H12.5601C12.6961 13.3482 12.8161 13.3122 12.9481 13.3082C13.0761 13.3122 13.1961 13.3482 13.3321 13.3482H13.5121C13.6521 13.3482 13.7681 13.3122 13.8961 13.3082C14.0281 13.3122 14.1441 13.3482 14.2841 13.3482H14.4641L14.5361 13.3442L14.5161 13.3122C14.4761 13.3162 14.4321 13.3242 14.3881 13.3242C14.2561 13.3242 14.1401 13.2842 14.0001 13.2842H13.8201C13.6841 13.2842 13.5641 13.3242 13.4361 13.3242C13.3041 13.3202 13.1881 13.2842 13.0481 13.2842H12.8681C12.7321 13.2842 12.6121 13.3242 12.4841 13.3242C12.3521 13.3202 12.2361 13.2842 12.0961 13.2842H11.9161C11.7761 13.2842 11.6601 13.3242 11.5321 13.3242C11.4001 13.3202 11.2841 13.2842 11.1441 13.2842H10.9641C10.8281 13.2842 10.7081 13.3242 10.5801 13.3242C10.4481 13.3202 10.3321 13.2842 10.1921 13.2842H10.0121V13.2882Z" fill="url(#paint21_linear_69_9387)"/>
<path d="M10.0121 13.2367C9.87608 13.2367 9.75608 13.2687 9.62808 13.2727C9.57988 13.2714 9.5318 13.2674 9.48408 13.2607L9.46408 13.2927H9.70408C9.84408 13.2927 9.96008 13.2607 10.0881 13.2567C10.2201 13.2607 10.3361 13.2967 10.4761 13.2967H10.6561C10.7921 13.2967 10.9121 13.2607 11.0401 13.2567C11.1721 13.2607 11.2921 13.2967 11.4281 13.2967H11.6081C11.7481 13.2967 11.8641 13.2607 11.9961 13.2567C12.1241 13.2607 12.2401 13.2967 12.3801 13.2967H12.5601C12.6961 13.2967 12.8161 13.2607 12.9481 13.2567C13.0761 13.2607 13.1961 13.2967 13.3321 13.2967H13.5121C13.6521 13.2967 13.7681 13.2607 13.8961 13.2567C14.0281 13.2607 14.1441 13.2967 14.2841 13.2967H14.4641L14.5361 13.2927L14.5161 13.2607C14.4761 13.2647 14.4321 13.2727 14.3881 13.2727C14.2561 13.2727 14.1401 13.2327 14.0001 13.2327H13.8201C13.6841 13.2327 13.5641 13.2727 13.4361 13.2727C13.3041 13.2687 13.1881 13.2327 13.0481 13.2327H12.8681C12.7321 13.2327 12.6121 13.2727 12.4841 13.2727C12.3521 13.2687 12.2361 13.2327 12.0961 13.2327H11.9161C11.7761 13.2327 11.6601 13.2727 11.5321 13.2727C11.4001 13.2687 11.2841 13.2327 11.1441 13.2327H10.9641C10.8281 13.2327 10.7081 13.2727 10.5801 13.2727C10.4481 13.2687 10.3321 13.2327 10.1921 13.2327H10.0121V13.2367Z" fill="url(#paint22_linear_69_9387)"/>
<path d="M10.0121 13.1837C9.87608 13.1837 9.75608 13.2157 9.62808 13.2197C9.57988 13.2184 9.5318 13.2144 9.48408 13.2077L9.46408 13.2397H9.70408C9.84408 13.2397 9.96008 13.2077 10.0881 13.2037C10.2201 13.2077 10.3361 13.2437 10.4761 13.2437H10.6561C10.7921 13.2437 10.9121 13.2077 11.0401 13.2037C11.1721 13.2077 11.2921 13.2437 11.4281 13.2437H11.6081C11.7481 13.2437 11.8641 13.2077 11.9961 13.2037C12.1241 13.2077 12.2401 13.2437 12.3801 13.2437H12.5601C12.6961 13.2437 12.8161 13.2077 12.9481 13.2037C13.0761 13.2077 13.1961 13.2437 13.3321 13.2437H13.5121C13.6521 13.2437 13.7681 13.2077 13.8961 13.2037C14.0281 13.2077 14.1441 13.2437 14.2841 13.2437H14.4641L14.5361 13.2397L14.5161 13.2077C14.4761 13.2117 14.4321 13.2197 14.3881 13.2197C14.2561 13.2197 14.1401 13.1797 14.0001 13.1797H13.8201C13.6841 13.1797 13.5641 13.2197 13.4361 13.2197C13.3041 13.2157 13.1881 13.1797 13.0481 13.1797H12.8681C12.7321 13.1797 12.6121 13.2197 12.4841 13.2197C12.3521 13.2157 12.2361 13.1797 12.0961 13.1797H11.9161C11.7761 13.1797 11.6601 13.2197 11.5321 13.2197C11.4001 13.2157 11.2841 13.1797 11.1441 13.1797H10.9641C10.8281 13.1797 10.7081 13.2197 10.5801 13.2197C10.4481 13.2157 10.3321 13.1797 10.1921 13.1797H10.0121V13.1837Z" fill="url(#paint23_linear_69_9387)"/>
<path d="M10.0121 13.1319C9.87608 13.1319 9.75608 13.1639 9.62808 13.1679C9.57988 13.1666 9.5318 13.1626 9.48408 13.1559L9.46408 13.1879H9.70408C9.84408 13.1879 9.96008 13.1559 10.0881 13.1519C10.2201 13.1559 10.3361 13.1919 10.4761 13.1919H10.6561C10.7921 13.1919 10.9121 13.1559 11.0401 13.1519C11.1721 13.1559 11.2921 13.1919 11.4281 13.1919H11.6081C11.7481 13.1919 11.8641 13.1559 11.9961 13.1519C12.1241 13.1559 12.2401 13.1919 12.3801 13.1919H12.5601C12.6961 13.1919 12.8161 13.1559 12.9481 13.1519C13.0761 13.1559 13.1961 13.1919 13.3321 13.1919H13.5121C13.6521 13.1919 13.7681 13.1559 13.8961 13.1519C14.0281 13.1559 14.1441 13.1919 14.2841 13.1919H14.4641L14.5361 13.1879L14.5161 13.1559C14.4761 13.1599 14.4321 13.1679 14.3881 13.1679C14.2561 13.1679 14.1401 13.1279 14.0001 13.1279H13.8201C13.6841 13.1279 13.5641 13.1679 13.4361 13.1679C13.3041 13.1639 13.1881 13.1279 13.0481 13.1279H12.8681C12.7321 13.1279 12.6121 13.1679 12.4841 13.1679C12.3521 13.1639 12.2361 13.1279 12.0961 13.1279H11.9161C11.7761 13.1279 11.6601 13.1679 11.5321 13.1679C11.4001 13.1639 11.2841 13.1279 11.1441 13.1279H10.9641C10.8281 13.1279 10.7081 13.1679 10.5801 13.1679C10.4481 13.1639 10.3321 13.1279 10.1921 13.1279H10.0121V13.1319Z" fill="url(#paint24_linear_69_9387)"/>
<path d="M10.0121 13.0851C9.87608 13.0851 9.75608 13.1171 9.62808 13.1211C9.57988 13.1198 9.5318 13.1158 9.48408 13.1091L9.46408 13.1411H9.70408C9.84408 13.1411 9.96008 13.1091 10.0881 13.1051C10.2201 13.1091 10.3361 13.1451 10.4761 13.1451H10.6561C10.7921 13.1451 10.9121 13.1091 11.0401 13.1051C11.1721 13.1091 11.2921 13.1451 11.4281 13.1451H11.6081C11.7481 13.1451 11.8641 13.1091 11.9961 13.1051C12.1241 13.1091 12.2401 13.1451 12.3801 13.1451H12.5601C12.6961 13.1451 12.8161 13.1091 12.9481 13.1051C13.0761 13.1091 13.1961 13.1451 13.3321 13.1451H13.5121C13.6521 13.1451 13.7681 13.1091 13.8961 13.1051C14.0281 13.1091 14.1441 13.1451 14.2841 13.1451H14.4641L14.5361 13.1411L14.5161 13.1091C14.4761 13.1131 14.4321 13.1211 14.3881 13.1211C14.2561 13.1211 14.1401 13.0811 14.0001 13.0811H13.8201C13.6841 13.0811 13.5641 13.1211 13.4361 13.1211C13.3041 13.1171 13.1881 13.0811 13.0481 13.0811H12.8681C12.7321 13.0811 12.6121 13.1211 12.4841 13.1211C12.3521 13.1171 12.2361 13.0811 12.0961 13.0811H11.9161C11.7761 13.0811 11.6601 13.1211 11.5321 13.1211C11.4001 13.1171 11.2841 13.0811 11.1441 13.0811H10.9641C10.8281 13.0811 10.7081 13.1211 10.5801 13.1211C10.4481 13.1171 10.3321 13.0811 10.1921 13.0811H10.0121V13.0851Z" fill="url(#paint25_linear_69_9387)"/>
<path d="M10.0121 13.0321C9.87608 13.0321 9.75608 13.0641 9.62808 13.0681C9.57988 13.0668 9.5318 13.0628 9.48408 13.0561L9.46408 13.0881H9.70408C9.84408 13.0881 9.96008 13.0561 10.0881 13.0521C10.2201 13.0561 10.3361 13.0921 10.4761 13.0921H10.6561C10.7921 13.0921 10.9121 13.0561 11.0401 13.0521C11.1721 13.0561 11.2921 13.0921 11.4281 13.0921H11.6081C11.7481 13.0921 11.8641 13.0561 11.9961 13.0521C12.1241 13.0561 12.2401 13.0921 12.3801 13.0921H12.5601C12.6961 13.0921 12.8161 13.0561 12.9481 13.0521C13.0761 13.0561 13.1961 13.0921 13.3321 13.0921H13.5121C13.6521 13.0921 13.7681 13.0561 13.8961 13.0521C14.0281 13.0561 14.1441 13.0921 14.2841 13.0921H14.4641L14.5361 13.0881L14.5161 13.0561C14.4761 13.0601 14.4321 13.0681 14.3881 13.0681C14.2561 13.0681 14.1401 13.0281 14.0001 13.0281H13.8201C13.6841 13.0281 13.5641 13.0681 13.4361 13.0681C13.3041 13.0641 13.1881 13.0281 13.0481 13.0281H12.8681C12.7321 13.0281 12.6121 13.0681 12.4841 13.0681C12.3521 13.0641 12.2361 13.0281 12.0961 13.0281H11.9161C11.7761 13.0281 11.6601 13.0681 11.5321 13.0681C11.4001 13.0641 11.2841 13.0281 11.1441 13.0281H10.9641C10.8281 13.0281 10.7081 13.0681 10.5801 13.0681C10.4481 13.0641 10.3321 13.0281 10.1921 13.0281H10.0121V13.0321Z" fill="url(#paint26_linear_69_9387)"/>
<path d="M10.0121 12.9806C9.87608 12.9806 9.75608 13.0126 9.62808 13.0166C9.57988 13.0153 9.5318 13.0113 9.48408 13.0046L9.46408 13.0366H9.70408C9.84408 13.0366 9.96008 13.0046 10.0881 13.0006C10.2201 13.0046 10.3361 13.0406 10.4761 13.0406H10.6561C10.7921 13.0406 10.9121 13.0046 11.0401 13.0006C11.1721 13.0046 11.2921 13.0406 11.4281 13.0406H11.6081C11.7481 13.0406 11.8641 13.0046 11.9961 13.0006C12.1241 13.0046 12.2401 13.0406 12.3801 13.0406H12.5601C12.6961 13.0406 12.8161 13.0046 12.9481 13.0006C13.0761 13.0046 13.1961 13.0406 13.3321 13.0406H13.5121C13.6521 13.0406 13.7681 13.0046 13.8961 13.0006C14.0281 13.0046 14.1441 13.0406 14.2841 13.0406H14.4641L14.5361 13.0366L14.5161 13.0046C14.4761 13.0086 14.4321 13.0166 14.3881 13.0166C14.2561 13.0166 14.1401 12.9766 14.0001 12.9766H13.8201C13.6841 12.9766 13.5641 13.0166 13.4361 13.0166C13.3041 13.0126 13.1881 12.9766 13.0481 12.9766H12.8681C12.7321 12.9766 12.6121 13.0166 12.4841 13.0166C12.3521 13.0126 12.2361 12.9766 12.0961 12.9766H11.9161C11.7761 12.9766 11.6601 13.0166 11.5321 13.0166C11.4001 13.0126 11.2841 12.9766 11.1441 12.9766H10.9641C10.8281 12.9766 10.7081 13.0166 10.5801 13.0166C10.4481 13.0126 10.3321 12.9766 10.1921 12.9766H10.0121V12.9806Z" fill="url(#paint27_linear_69_9387)"/>
<path d="M9.75623 12.989L9.65623 13.157C9.77223 13.137 9.94024 13.089 10.0842 13.089C10.2282 13.089 10.4042 13.125 10.5802 13.129C10.7802 13.129 10.8602 13.081 11.0202 13.065C11.1842 13.049 11.3402 13.085 11.5002 13.089C11.6242 13.089 11.8162 13.045 11.9802 13.029C12.1402 13.009 12.2882 13.041 12.4802 13.041C12.6762 13.045 12.7082 12.993 12.9442 12.989C13.2002 12.985 13.2242 13.025 13.4482 13.025C13.6162 13.033 13.7642 12.989 13.9162 12.981C14.0682 12.969 14.1362 12.981 14.2482 12.981L14.1722 12.853L10.1202 12.945L9.75623 12.989Z" fill="#97C924"/>
<path d="M14 12.9844L14.16 12.9964C14.1986 13.001 14.2373 13.005 14.276 13.0084L14.26 12.9884C14.236 12.9964 14.084 12.9804 14.004 12.9884L14 12.9844Z" fill="white"/>
</g>
<path d="M12 8.99536L10.715 11.2204L9.39999 13.5004H14.6L13.315 11.2704L12 9.00036V8.99536ZM12 9.11536L13.26 11.3004L14.495 13.4404H9.50499L10.765 11.2504L12 9.11536Z" fill="#C8A400"/>
</g>
</g>
</g>
<defs>
<linearGradient id="paint0_linear_69_9387" x1="11.9471" y1="11.5646" x2="12.0231" y2="11.3366" gradientUnits="userSpaceOnUse">
<stop stop-color="#510000"/>
<stop offset="0.3" stop-color="#8A0000"/>
<stop offset="1" stop-color="#AA0000"/>
</linearGradient>
<linearGradient id="paint1_linear_69_9387" x1="12.0551" y1="11.657" x2="12.1151" y2="11.497" gradientUnits="userSpaceOnUse">
<stop stop-color="#FF2A2A"/>
<stop offset="1" stop-color="#FF0000"/>
</linearGradient>
<linearGradient id="paint2_linear_69_9387" x1="9.77968" y1="12.6986" x2="17.3757" y2="12.6986" gradientUnits="userSpaceOnUse">
<stop stop-color="#002255"/>
<stop offset="0.5" stop-color="#0044AA"/>
<stop offset="1" stop-color="#002255"/>
</linearGradient>
<linearGradient id="paint3_linear_69_9387" x1="9.77968" y1="12.6549" x2="17.3757" y2="12.6549" gradientUnits="userSpaceOnUse">
<stop stop-color="#002255"/>
<stop offset="0.5" stop-color="#0044AA"/>
<stop offset="1" stop-color="#002255"/>
</linearGradient>
<linearGradient id="paint4_linear_69_9387" x1="9.77968" y1="12.6112" x2="17.3757" y2="12.6112" gradientUnits="userSpaceOnUse">
<stop stop-color="#002255"/>
<stop offset="0.5" stop-color="#0044AA"/>
<stop offset="1" stop-color="#002255"/>
</linearGradient>
<linearGradient id="paint5_linear_69_9387" x1="9.77968" y1="12.5675" x2="17.3757" y2="12.5675" gradientUnits="userSpaceOnUse">
<stop stop-color="#002255"/>
<stop offset="0.5" stop-color="#0044AA"/>
<stop offset="1" stop-color="#002255"/>
</linearGradient>
<linearGradient id="paint6_linear_69_9387" x1="9.77968" y1="12.5238" x2="17.3757" y2="12.5238" gradientUnits="userSpaceOnUse">
<stop stop-color="#002255"/>
<stop offset="0.5" stop-color="#0044AA"/>
<stop offset="1" stop-color="#002255"/>
</linearGradient>
<linearGradient id="paint7_linear_69_9387" x1="9.77968" y1="12.4799" x2="17.3757" y2="12.4799" gradientUnits="userSpaceOnUse">
<stop stop-color="#002255"/>
<stop offset="0.5" stop-color="#0044AA"/>
<stop offset="1" stop-color="#002255"/>
</linearGradient>
<linearGradient id="paint8_linear_69_9387" x1="9.77968" y1="12.4315" x2="17.3757" y2="12.4315" gradientUnits="userSpaceOnUse">
<stop stop-color="#002255"/>
<stop offset="0.5" stop-color="#0044AA"/>
<stop offset="1" stop-color="#002255"/>
</linearGradient>
<linearGradient id="paint9_linear_69_9387" x1="9.77968" y1="12.3878" x2="17.3757" y2="12.3878" gradientUnits="userSpaceOnUse">
<stop stop-color="#002255"/>
<stop offset="0.5" stop-color="#0044AA"/>
<stop offset="1" stop-color="#002255"/>
</linearGradient>
<linearGradient id="paint10_linear_69_9387" x1="9.77968" y1="12.3441" x2="17.3757" y2="12.3441" gradientUnits="userSpaceOnUse">
<stop stop-color="#002255"/>
<stop offset="0.5" stop-color="#0044AA"/>
<stop offset="1" stop-color="#002255"/>
</linearGradient>
<linearGradient id="paint11_linear_69_9387" x1="9.77944" y1="12.6998" x2="17.3754" y2="12.6998" gradientUnits="userSpaceOnUse">
<stop stop-color="#002255"/>
<stop offset="0.5" stop-color="#0044AA"/>
<stop offset="1" stop-color="#002255"/>
</linearGradient>
<linearGradient id="paint12_linear_69_9387" x1="9.77932" y1="12.7002" x2="17.3753" y2="12.7002" gradientUnits="userSpaceOnUse">
<stop stop-color="#002255"/>
<stop offset="0.5" stop-color="#0044AA"/>
<stop offset="1" stop-color="#002255"/>
</linearGradient>
<linearGradient id="paint13_linear_69_9387" x1="11.3909" y1="12.4691" x2="11.3909" y2="12.7051" gradientUnits="userSpaceOnUse">
<stop stop-color="#F5F549"/>
<stop offset="1" stop-color="#97C924"/>
</linearGradient>
<linearGradient id="paint14_linear_69_9387" x1="10.78" y1="12.4691" x2="10.78" y2="12.7051" gradientUnits="userSpaceOnUse">
<stop stop-color="#F5F549"/>
<stop offset="1" stop-color="#97C924"/>
</linearGradient>
<linearGradient id="paint15_linear_69_9387" x1="11.3908" y1="12.4697" x2="11.3908" y2="12.7057" gradientUnits="userSpaceOnUse">
<stop stop-color="#F5F549"/>
<stop offset="1" stop-color="#97C924"/>
</linearGradient>
<linearGradient id="paint16_linear_69_9387" x1="11.3909" y1="12.4691" x2="11.3909" y2="12.7051" gradientUnits="userSpaceOnUse">
<stop stop-color="#F5F549"/>
<stop offset="1" stop-color="#97C924"/>
</linearGradient>
<linearGradient id="paint17_linear_69_9387" x1="10.7752" y1="12.4691" x2="10.7752" y2="12.7051" gradientUnits="userSpaceOnUse">
<stop stop-color="#F5F549"/>
<stop offset="1" stop-color="#97C924"/>
</linearGradient>
<linearGradient id="paint18_linear_69_9387" x1="9.63172" y1="12.9257" x2="14.285" y2="12.9257" gradientUnits="userSpaceOnUse">
<stop stop-color="#002255"/>
<stop offset="0.5" stop-color="#0044AA"/>
<stop offset="1" stop-color="#002255"/>
</linearGradient>
<linearGradient id="paint19_linear_69_9387" x1="9.48176" y1="13.3905" x2="14.5182" y2="13.3905" gradientUnits="userSpaceOnUse">
<stop stop-color="#002255"/>
<stop offset="0.5" stop-color="#0044AA"/>
<stop offset="1" stop-color="#002255"/>
</linearGradient>
<linearGradient id="paint20_linear_69_9387" x1="9.48176" y1="13.3376" x2="14.5182" y2="13.3376" gradientUnits="userSpaceOnUse">
<stop stop-color="#002255"/>
<stop offset="0.5" stop-color="#0044AA"/>
<stop offset="1" stop-color="#002255"/>
</linearGradient>
<linearGradient id="paint21_linear_69_9387" x1="9.48176" y1="13.2858" x2="14.5182" y2="13.2858" gradientUnits="userSpaceOnUse">
<stop stop-color="#002255"/>
<stop offset="0.5" stop-color="#0044AA"/>
<stop offset="1" stop-color="#002255"/>
</linearGradient>
<linearGradient id="paint22_linear_69_9387" x1="9.48176" y1="13.2343" x2="14.5182" y2="13.2343" gradientUnits="userSpaceOnUse">
<stop stop-color="#002255"/>
<stop offset="0.5" stop-color="#0044AA"/>
<stop offset="1" stop-color="#002255"/>
</linearGradient>
<linearGradient id="paint23_linear_69_9387" x1="9.48176" y1="13.1813" x2="14.5182" y2="13.1813" gradientUnits="userSpaceOnUse">
<stop stop-color="#002255"/>
<stop offset="0.5" stop-color="#0044AA"/>
<stop offset="1" stop-color="#002255"/>
</linearGradient>
<linearGradient id="paint24_linear_69_9387" x1="9.48176" y1="13.1295" x2="14.5182" y2="13.1295" gradientUnits="userSpaceOnUse">
<stop stop-color="#002255"/>
<stop offset="0.5" stop-color="#0044AA"/>
<stop offset="1" stop-color="#002255"/>
</linearGradient>
<linearGradient id="paint25_linear_69_9387" x1="9.48176" y1="13.0827" x2="14.5182" y2="13.0827" gradientUnits="userSpaceOnUse">
<stop stop-color="#002255"/>
<stop offset="0.5" stop-color="#0044AA"/>
<stop offset="1" stop-color="#002255"/>
</linearGradient>
<linearGradient id="paint26_linear_69_9387" x1="9.48176" y1="13.0297" x2="14.5182" y2="13.0297" gradientUnits="userSpaceOnUse">
<stop stop-color="#002255"/>
<stop offset="0.5" stop-color="#0044AA"/>
<stop offset="1" stop-color="#002255"/>
</linearGradient>
<linearGradient id="paint27_linear_69_9387" x1="9.48176" y1="12.9782" x2="14.5182" y2="12.9782" gradientUnits="userSpaceOnUse">
<stop stop-color="#002255"/>
<stop offset="0.5" stop-color="#0044AA"/>
<stop offset="1" stop-color="#002255"/>
</linearGradient>
<clipPath id="clip0_69_9387">
<rect width="24" height="24" rx="12" fill="white"/>
</clipPath>
<clipPath id="clip1_69_9387">
<rect width="32" height="24" fill="white" transform="translate(-4)"/>
</clipPath>
</defs>
</svg>
