<svg width="24" height="24" viewBox="0 0 24 24" fill="none" xmlns="http://www.w3.org/2000/svg">
<g clip-path="url(#clip0_69_9264)">
<rect width="24" height="24" rx="12" fill="white"/>
<g clip-path="url(#clip1_69_9264)">
<path fill-rule="evenodd" clip-rule="evenodd" d="M0 25.2H19.5157L6.74396 11.8995L20 11.9154L0.00515167 -1.19995V25.2H0Z" fill="#CE0000"/>
<path fill-rule="evenodd" clip-rule="evenodd" d="M9.10563 17.0663L7.92437 17.46L8.85188 18.3263L7.60498 18.2475L8.11686 19.3938L7.00126 18.8556L7.02314 20.1069L6.20061 19.1925L5.73249 20.3562L5.33 19.2056L4.44187 20.1069L4.52062 18.895L3.34375 19.3938L3.895 18.3L2.61313 18.3263L3.55375 17.5256L2.35938 17.0663L3.54062 16.6725L2.60875 15.8063L3.85125 15.885L3.34375 14.7387L4.46375 15.2769L4.44187 14.0256L5.26437 14.94L5.73249 13.7763L6.13061 14.9269L7.02314 14.0256L6.94 15.2375L8.12126 14.7387L7.56563 15.8325L8.85188 15.8063L7.91126 16.6069L9.10563 17.0663ZM7.68812 8.98564L7.19375 9.35315L7.43874 9.55437C8.01367 9.15278 8.47612 8.61051 8.78188 7.97939C8.86061 8.91127 8.00751 10.9981 5.77625 11.02C5.36842 11.0252 4.96361 10.9496 4.58518 10.7975C4.20673 10.6454 3.86216 10.4199 3.57133 10.134C3.28051 9.84804 3.04919 9.50733 2.89074 9.13154C2.73228 8.7557 2.64982 8.35224 2.64813 7.94437C3.08562 8.74062 3.35687 9.12564 4.04813 9.54127L4.25375 9.34874L3.79 8.95939L4.38937 8.80188L4.06562 8.25939L4.69562 8.30315L4.61687 7.67315L5.16812 7.99686L5.34314 7.40625L5.73686 7.87874L6.10874 7.42813L6.31 8.04062L6.82624 7.68188L6.76061 8.30751L7.38188 8.23315L7.08874 8.81062L7.68812 8.98564Z" fill="white"/>
</g>
</g>
<defs>
<clipPath id="clip0_69_9264">
<rect width="24" height="24" rx="12" fill="white"/>
</clipPath>
<clipPath id="clip1_69_9264">
<rect width="32" height="24" fill="white" transform="translate(-0.799988 0.800049)"/>
</clipPath>
</defs>
</svg>
