<svg width="24" height="24" viewBox="0 0 24 24" fill="none" xmlns="http://www.w3.org/2000/svg">
<g clip-path="url(#clip0_69_9255)">
<path fill-rule="evenodd" clip-rule="evenodd" d="M-2.79999 -1.19995H33.2V24.8H-2.79999V-1.19995Z" fill="#002170"/>
<path fill-rule="evenodd" clip-rule="evenodd" d="M-2.99765 11.03H33.0024V12.5734H-2.99765V11.03Z" fill="#FFB20D"/>
<path fill-rule="evenodd" clip-rule="evenodd" d="M7.6125 18.1984L6.45234 17.0382L6.08319 18.6343L5.66133 17.0523L4.53984 18.2476L4.96524 16.6656L3.40077 17.1402L4.56093 15.98L2.96484 15.6074L4.54686 15.1855L3.35157 14.0675L4.93359 14.4894L4.45548 12.9249L5.61564 14.0851L5.98827 12.489L6.41016 14.071L7.52811 12.8757L7.10625 14.4578L8.67069 13.9831L7.51056 15.1433L9.10665 15.5124L7.5246 15.9343L8.71992 17.0593L7.1379 16.6304L7.6125 18.1984Z" fill="white"/>
</g>
<defs>
<clipPath id="clip0_69_9255">
<rect width="24" height="24" rx="12" fill="white"/>
</clipPath>
</defs>
</svg>
