<svg width="24" height="24" viewBox="0 0 24 24" fill="none" xmlns="http://www.w3.org/2000/svg">
<g clip-path="url(#clip0_69_9578)">
<g clip-path="url(#clip1_69_9578)">
<mask id="mask0_69_9578" style="mask-type:luminance" maskUnits="userSpaceOnUse" x="0" y="0" width="32" height="24">
<path d="M32 0H0V24H32V0Z" fill="white"/>
</mask>
<g mask="url(#mask0_69_9578)">
<path d="M0 0H32V24H0V0Z" fill="#FEDD00"/>
<path d="M0 0H16V12H0V0Z" fill="#012169"/>
<path d="M1.875 0L7.975 4.525L14.05 0H16V1.55L10 6.025L16 10.475V12H14L8 7.525L2.025 12H0V10.5L5.975 6.05L0 1.6V0H1.875Z" fill="white"/>
<path d="M10.6 7.025L16 11V12L9.225 7.025H10.6ZM6 7.525L6.15 8.4L1.35 12H0L6 7.525ZM16 0V0.075L9.775 4.775L9.825 3.675L14.75 0H16ZM0 0L5.975 4.4H4.475L0 1.05V0Z" fill="#C8102E"/>
<path d="M6.025 0V12H10.025V0H6.025ZM0 4V8H16V4H0Z" fill="white"/>
<path d="M0 4.825V7.225H16V4.825H0ZM6.825 0V12H9.225V0H6.825Z" fill="#C8102E"/>
<path d="M7.99936 8.03946C9.12604 8.03946 10.0394 7.12614 10.0394 5.99946C10.0394 4.87282 9.12604 3.95947 7.99936 3.95947C6.87272 3.95947 5.95936 4.87282 5.95936 5.99946C5.95936 7.12614 6.87272 8.03946 7.99936 8.03946Z" fill="#012169"/>
<path d="M8.00032 3.96053L9.20032 7.65054L6.06032 5.37054H9.94032L6.80032 7.65054M3.33531 4.91554L4.03532 7.08554L2.19531 5.75054H4.48032L2.63031 7.09054M12.6653 4.91554L13.3703 7.08554L11.5253 5.74554H13.8103L11.9603 7.08554M8.00032 8.91554L8.70532 11.0855L6.85532 9.74554H9.14032L7.29032 11.0855M8.00032 0.915527L8.70532 3.08553L6.85532 1.74553H9.14032L7.29032 3.08553" fill="#FEDD00"/>
</g>
</g>
</g>
<defs>
<clipPath id="clip0_69_9578">
<rect width="24" height="24" rx="12" fill="white"/>
</clipPath>
<clipPath id="clip1_69_9578">
<rect width="32" height="24" fill="white"/>
</clipPath>
</defs>
</svg>
