<svg width="24" height="24" viewBox="0 0 24 24" fill="none" xmlns="http://www.w3.org/2000/svg">
<g clip-path="url(#clip0_69_9295)">
<g clip-path="url(#clip1_69_9295)">
<mask id="mask0_69_9295" style="mask-type:luminance" maskUnits="userSpaceOnUse" x="-4" y="0" width="32" height="24">
<path d="M28 0H-4V24H28V0Z" fill="white"/>
</mask>
<g mask="url(#mask0_69_9295)">
<path fill-rule="evenodd" clip-rule="evenodd" d="M-4 0H28V24H-4V0Z" fill="#00247D"/>
<path d="M20.5219 5.35938V6.11785L22.0388 5.35938H20.5219Z" fill="white"/>
<path d="M20.8253 6.26954L20.5219 5.66278L22.0388 5.35938L20.8253 6.26954Z" fill="white"/>
<path d="M20.5219 5.35938V6.11785L19.005 5.35938H20.5219Z" fill="white"/>
<path d="M20.2185 6.26954L20.5219 5.66278L19.005 5.35938L20.2185 6.26954Z" fill="white"/>
<path d="M20.9547 5.67334L20.2334 5.9077L21.4234 7.11602L20.9547 5.67334Z" fill="white"/>
<path d="M20.1828 6.24313L20.6662 5.76709L21.4234 7.11601L20.1828 6.24313Z" fill="white"/>
<path d="M20.0891 5.67339L20.8104 5.90775L20.5578 4.23071L20.0891 5.67339Z" fill="white"/>
<path d="M21.0484 5.66611L20.3776 5.76715L20.5578 4.23071L21.0484 5.66611Z" fill="white"/>
<path d="M20.0891 5.67334L20.8104 5.9077L19.6203 7.11602L20.0891 5.67334Z" fill="white"/>
<path d="M20.8609 6.24313L20.3776 5.76709L19.6203 7.11601L20.8609 6.24313Z" fill="white"/>
<path d="M20.5219 5.51416V6.01532L21.5242 5.51416H20.5219Z" fill="#CC142B"/>
<path d="M20.7224 6.11556L20.5219 5.7146L21.5242 5.51416L20.7224 6.11556Z" fill="#CC142B"/>
<path d="M20.5219 5.51416V6.01532L19.5195 5.51416H20.5219Z" fill="#CC142B"/>
<path d="M20.3214 6.11556L20.5219 5.7146L19.5195 5.51416L20.3214 6.11556Z" fill="#CC142B"/>
<path d="M20.8078 5.72192L20.3312 5.8768L21.1176 6.67524L20.8078 5.72192Z" fill="#CC142B"/>
<path d="M20.2978 6.0985L20.6172 5.78394L21.1176 6.6753L20.2978 6.0985Z" fill="#CC142B"/>
<path d="M20.2344 5.72187L20.711 5.87675L20.5441 4.76855L20.2344 5.72187Z" fill="#CC142B"/>
<path d="M20.8683 5.71707L20.425 5.78383L20.5441 4.76855L20.8683 5.71707Z" fill="#CC142B"/>
<path d="M20.2344 5.72192L20.711 5.8768L19.9246 6.67524L20.2344 5.72192Z" fill="#CC142B"/>
<path d="M20.7444 6.0985L20.425 5.78394L19.9246 6.6753L20.7444 6.0985Z" fill="#CC142B"/>
<path d="M24.4969 8.86084V9.5358L23.147 8.86084H24.4969Z" fill="white"/>
<path d="M24.2269 9.67076L24.4969 9.13084L23.147 8.86084L24.2269 9.67076Z" fill="white"/>
<path d="M24.1109 9.14062L24.7528 9.34918L23.6938 10.4244L24.1109 9.14062Z" fill="white"/>
<path d="M24.7978 9.64776L24.3677 9.22412L23.6938 10.4245L24.7978 9.64776Z" fill="white"/>
<path d="M24.4969 9.01562V9.43326L23.6616 9.01562H24.4969Z" fill="#CC142B"/>
<path d="M24.3298 9.51678L24.4969 9.18266L23.6616 9.01562L24.3298 9.51678Z" fill="#CC142B"/>
<path d="M24.2578 9.1875L24.655 9.31654L23.9997 9.9819L24.2578 9.1875Z" fill="#CC142B"/>
<path d="M24.6828 9.50117L24.4167 9.23901L23.9997 9.98181L24.6828 9.50117Z" fill="#CC142B"/>
<path d="M15.8922 10.022V10.7804L17.4091 10.022H15.8922Z" fill="white"/>
<path d="M16.1956 10.9321L15.8922 10.3254L17.4091 10.022L16.1956 10.9321Z" fill="white"/>
<path d="M15.8922 10.022V10.7804L14.3752 10.022H15.8922Z" fill="white"/>
<path d="M15.5888 10.9321L15.8922 10.3254L14.3752 10.022L15.5888 10.9321Z" fill="white"/>
<path d="M16.325 10.3359L15.6036 10.5703L16.7938 11.7787L16.325 10.3359Z" fill="white"/>
<path d="M15.5532 10.9057L16.0365 10.4297L16.7938 11.7786L15.5532 10.9057Z" fill="white"/>
<path d="M15.4594 10.336L16.1807 10.5704L15.9281 8.89331L15.4594 10.336Z" fill="white"/>
<path d="M16.4187 10.3287L15.7479 10.4298L15.9281 8.89331L16.4187 10.3287Z" fill="white"/>
<path d="M15.4594 10.3359L16.1807 10.5703L14.9906 11.7787L15.4594 10.3359Z" fill="white"/>
<path d="M16.2312 10.9057L15.7479 10.4297L14.9906 11.7786L16.2312 10.9057Z" fill="white"/>
<path d="M15.8922 10.175V10.6762L16.8946 10.175H15.8922Z" fill="#CC142B"/>
<path d="M16.0927 10.7765L15.8922 10.3755L16.8946 10.175L16.0927 10.7765Z" fill="#CC142B"/>
<path d="M15.8922 10.175V10.6762L14.8898 10.175H15.8922Z" fill="#CC142B"/>
<path d="M15.6917 10.7765L15.8922 10.3755L14.8898 10.175L15.6917 10.7765Z" fill="#CC142B"/>
<path d="M16.1781 10.3828L15.7015 10.5377L16.4879 11.3361L16.1781 10.3828Z" fill="#CC142B"/>
<path d="M15.6681 10.7594L15.9875 10.4448L16.4879 11.3362L15.6681 10.7594Z" fill="#CC142B"/>
<path d="M15.6047 10.3828L16.0814 10.5376L15.9144 9.42944L15.6047 10.3828Z" fill="#CC142B"/>
<path d="M16.2386 10.378L15.7954 10.4447L15.9144 9.42944L16.2386 10.378Z" fill="#CC142B"/>
<path d="M15.6047 10.3828L16.0814 10.5377L15.2949 11.3361L15.6047 10.3828Z" fill="#CC142B"/>
<path d="M16.1147 10.7594L15.7954 10.4448L15.2949 11.3362L16.1147 10.7594Z" fill="#CC142B"/>
<path d="M20.5219 17.3391V18.1811L22.2059 17.3391H20.5219Z" fill="white"/>
<path d="M20.8587 18.3495L20.5219 17.6759L22.2059 17.3391L20.8587 18.3495Z" fill="white"/>
<path d="M20.5219 17.3391V18.1811L18.8379 17.3391H20.5219Z" fill="white"/>
<path d="M20.1851 18.3495L20.5219 17.6759L18.8379 17.3391L20.1851 18.3495Z" fill="white"/>
<path d="M21.0016 17.6875L20.2008 17.9477L21.522 19.2891L21.0016 17.6875Z" fill="white"/>
<path d="M20.1447 18.32L20.6812 17.7915L21.522 19.289L20.1447 18.32Z" fill="white"/>
<path d="M20.0406 17.6875L20.8414 17.9477L20.561 16.0859L20.0406 17.6875Z" fill="white"/>
<path d="M21.1056 17.6794L20.3609 17.7916L20.561 16.0859L21.1056 17.6794Z" fill="white"/>
<path d="M20.0406 17.6875L20.8414 17.9477L19.5202 19.2891L20.0406 17.6875Z" fill="white"/>
<path d="M20.8975 18.32L20.3609 17.7915L19.5202 19.289L20.8975 18.32Z" fill="white"/>
<path d="M20.5203 17.4937V18.0784L21.6898 17.4937H20.5203Z" fill="#CC142B"/>
<path d="M20.7542 18.1953L20.5203 17.7275L21.6898 17.4937L20.7542 18.1953Z" fill="#CC142B"/>
<path d="M20.5203 17.4937V18.0784L19.3509 17.4937H20.5203Z" fill="#CC142B"/>
<path d="M20.2864 18.1953L20.5203 17.7275L19.3509 17.4937L20.2864 18.1953Z" fill="#CC142B"/>
<path d="M20.8547 17.7358L20.2986 17.9166L21.2161 18.848L20.8547 17.7358Z" fill="#CC142B"/>
<path d="M20.2596 18.1751L20.6322 17.8081L21.2161 18.848L20.2596 18.1751Z" fill="#CC142B"/>
<path d="M20.1875 17.736L20.7436 17.9167L20.5489 16.6238L20.1875 17.736Z" fill="#CC142B"/>
<path d="M20.9271 17.7304L20.41 17.8083L20.5489 16.6238L20.9271 17.7304Z" fill="#CC142B"/>
<path d="M20.1875 17.7358L20.7436 17.9166L19.8261 18.848L20.1875 17.7358Z" fill="#CC142B"/>
<path d="M20.7826 18.1751L20.41 17.8081L19.8261 18.848L20.7826 18.1751Z" fill="#CC142B"/>
<path d="M-4 0H12V12H-4V0Z" fill="#012169"/>
<path d="M-2.125 0L3.975 4.525L10.05 0H12V1.55L6 6.025L12 10.475V12H10L4 7.525L-1.975 12H-4V10.5L1.975 6.05L-4 1.6V0H-2.125Z" fill="white"/>
<path d="M6.6 7.025L12 11V12L5.225 7.025H6.6ZM2 7.525L2.15 8.4L-2.65 12H-4L2 7.525ZM12 0V0.075L5.775 4.775L5.825 3.675L10.75 0H12ZM-4 0L1.975 4.4H0.475L-4 1.05V0Z" fill="#C8102E"/>
<path d="M2.025 0V12H6.025V0H2.025ZM-4 4V8H12V4H-4Z" fill="white"/>
<path d="M-4 4.825V7.225H12V4.825H-4ZM2.825 0V12H5.225V0H2.825Z" fill="#C8102E"/>
</g>
</g>
</g>
<defs>
<clipPath id="clip0_69_9295">
<rect width="24" height="24" rx="12" fill="white"/>
</clipPath>
<clipPath id="clip1_69_9295">
<rect width="32" height="24" fill="white" transform="translate(-4)"/>
</clipPath>
</defs>
</svg>
