<svg width="24" height="24" viewBox="0 0 24 24" fill="none" xmlns="http://www.w3.org/2000/svg">
<g clip-path="url(#clip0_69_9843)">
<path fill-rule="evenodd" clip-rule="evenodd" d="M-0.799988 -1.19995H38V26.4H-0.799988V-1.19995Z" fill="#EF2D29"/>
<path fill-rule="evenodd" clip-rule="evenodd" d="M11.9297 15.864H38.7147V26.249H11.9297V15.864Z" fill="#009025"/>
<path fill-rule="evenodd" clip-rule="evenodd" d="M11.93 -1.77026H40.175V7.72973H11.925L11.93 -1.77026Z" fill="white"/>
<path d="M10.2 6.67969H9.05276C8.99084 6.67969 8.94064 6.72656 8.94064 6.78438V7.32912C8.94064 7.38692 8.99084 7.4338 9.05276 7.4338H10.2C10.2619 7.4338 10.3121 7.38692 10.3121 7.32912V6.78438C10.3121 6.72656 10.2619 6.67969 10.2 6.67969Z" fill="white" stroke="#EF2D28" stroke-width="0.0328414"/>
<path d="M10.1714 6.71094H9.08276C9.02412 6.71094 8.97656 6.75423 8.97656 6.80765V7.30624C8.97656 7.35964 9.02412 7.40296 9.08276 7.40296H10.1714C10.23 7.40296 10.2776 7.35964 10.2776 7.30624V6.80765C10.2776 6.75423 10.23 6.71094 10.1714 6.71094Z" fill="white" stroke="#EF2D28" stroke-width="0.0304956"/>
<path fill-rule="evenodd" clip-rule="evenodd" d="M9.58101 6.89844L9.64657 6.90103L9.64925 6.93115L9.70333 6.95867L9.74525 6.92388L9.79593 6.9514L9.74861 6.98151L9.76009 7.02305L9.81957 7.02045V7.07496L9.77229 7.07289L9.74793 7.10715L9.80201 7.14609L9.76009 7.17828L9.71481 7.14402L9.64925 7.15751L9.65265 7.20788L9.58101 7.21308L9.57153 7.16427L9.51205 7.13934L9.47893 7.17361L9.42825 7.14817L9.45797 7.10923L9.42217 7.08431H9.37145L9.36877 7.01318L9.41945 7.01785L9.45529 6.97632L9.41337 6.94413L9.46745 6.90779L9.50597 6.93738L9.57153 6.92803L9.58101 6.89844Z" fill="white" stroke="#EF2D28" stroke-width="0.0192526"/>
<path d="M9.60066 7.11091C9.6407 7.11091 9.67314 7.08329 9.67314 7.04923C9.67314 7.01516 9.6407 6.98755 9.60066 6.98755C9.56062 6.98755 9.52814 7.01516 9.52814 7.04923C9.52814 7.08329 9.56062 7.11091 9.60066 7.11091Z" fill="white" stroke="#EF2D28" stroke-width="0.0207327"/>
<path d="M9.09915 6.78943L9.13412 6.75845L9.16936 6.78965L9.2046 6.75845L9.23959 6.78943L9.27498 6.7578L9.31003 6.78943L9.34502 6.75815L9.38026 6.78966L9.41548 6.75817L9.4507 6.78966L9.48594 6.75815L9.52118 6.78966L9.556 6.75853L9.59113 6.78965L9.62644 6.75778L9.62686 6.75815L9.66185 6.78943L9.69732 6.75802L9.7323 6.789L9.76761 6.75801L9.80202 6.78876L9.83724 6.75728L9.87247 6.78877L9.9077 6.75726L9.94344 6.78921L9.97866 6.75772L10.0139 6.78921L10.0491 6.75771L10.0844 6.78921L10.1196 6.75772L10.1548 6.78921L10.1196 6.82069L10.0844 6.78921L10.0491 6.82071L10.0139 6.78921L9.97866 6.82069L9.94344 6.78921L9.9082 6.82071L9.87247 6.78877L9.83726 6.82026L9.80202 6.78876L9.76719 6.8199L9.7323 6.789L9.6965 6.82041L9.66185 6.78943L9.62636 6.82086L9.59138 6.78987L9.5564 6.82114L9.53952 6.83623L9.55632 6.82107L9.52118 6.78966L9.48594 6.82116L9.4507 6.78966L9.41548 6.82114L9.38026 6.78966L9.3451 6.82109L9.31003 6.78943L9.27498 6.82077L9.23959 6.78943L9.20452 6.82079L9.16936 6.78965L9.13454 6.82049L9.09915 6.78943Z" fill="white"/>
<path d="M9.09988 7.32374L9.1347 7.29232L9.16936 7.32329L9.2046 7.2918L9.24032 7.32374L9.27588 7.29195L9.31053 7.32351L9.34552 7.29194L9.38076 7.32374L9.41598 7.29196L9.4512 7.32374L9.48644 7.29194L9.52192 7.32396L9.55698 7.29203L9.59212 7.32374L9.62686 7.29239L9.62736 7.29194L9.66235 7.32352L9.69683 7.29269L9.73156 7.32374L9.76728 7.2918L9.80351 7.32418L9.83864 7.29277L9.87346 7.32419L9.9087 7.29239L9.94344 7.32374L9.97866 7.29196L10.0139 7.32374L10.0491 7.29194L10.0844 7.32374L10.1196 7.29196L10.1548 7.32374L10.1196 7.35552L10.0844 7.32374L10.0491 7.35554L10.0139 7.32374L9.97866 7.35552L9.94344 7.32374L9.9082 7.35554L9.87346 7.32419L9.83866 7.35559L9.80351 7.32418L9.76778 7.35612L9.73156 7.32374L9.69692 7.35471L9.69642 7.35516L9.66185 7.32396L9.62694 7.35516L9.59212 7.32374L9.5569 7.35552L9.52192 7.32396L9.48684 7.3559L9.4512 7.32374L9.41598 7.35552L9.38076 7.32374L9.3456 7.35546L9.31053 7.32351L9.27546 7.35516L9.24032 7.32374L9.20509 7.35523L9.16936 7.32329L9.13421 7.35471L9.09988 7.32374Z" fill="white"/>
<path d="M9.15248 6.74219L9.04632 6.83623M9.22296 6.74219L9.11676 6.83623M9.29244 6.74219L9.18724 6.83623M9.36288 6.74219L9.25768 6.83623M9.43336 6.74219L9.32816 6.83623M9.5038 6.74219L9.3986 6.83623M9.57428 6.74219L9.46908 6.83623M9.64472 6.74219L9.53952 6.83623L9.64372 6.74219M9.7152 6.74219L9.609 6.83623M9.78564 6.74219L9.67848 6.83623M9.85412 6.74219L9.74892 6.83623M9.92456 6.74219L9.8194 6.83623M9.99604 6.74219L9.89084 6.83623M10.0665 6.74219L9.96128 6.83623M10.137 6.74219L10.0318 6.83623M10.2074 6.74219L10.1022 6.83623M10.1022 6.74219L10.2074 6.83623M10.0318 6.74219L10.137 6.83623M9.96128 6.74219L10.0665 6.83623M9.89084 6.74219L9.99604 6.83623M9.82036 6.74219L9.92556 6.83623M9.74992 6.74219L9.85512 6.83623M9.67944 6.74219L9.78564 6.83623M9.609 6.74219L9.7142 6.83623M9.53756 6.74219L9.64372 6.83623M9.46808 6.74219L9.57328 6.83623M9.3976 6.74219L9.5028 6.83623M9.32716 6.74219L9.43236 6.83623M9.25768 6.74219L9.36188 6.83623M9.18624 6.74219L9.29244 6.83623M9.11576 6.74219L9.22196 6.83623M9.04532 6.74219L9.15248 6.83623M9.15248 7.27628L9.04728 7.3712M9.22196 7.27628L9.11576 7.3712M9.2934 7.27628L9.18724 7.3712M9.36288 7.27628L9.25768 7.3712M9.43336 7.27628L9.32816 7.3712M9.5038 7.27628L9.3986 7.3712M9.57428 7.27628L9.47004 7.3712M9.64472 7.27628L9.53952 7.3712M9.7152 7.27628L9.609 7.3712M9.78464 7.27628L9.67848 7.3712M9.85708 7.27628L9.75092 7.3712M9.92656 7.27628L9.82136 7.3712M9.99604 7.27628L9.89084 7.3712M10.0665 7.27628L9.96128 7.3712M10.137 7.27628L10.0318 7.3712M10.2074 7.27628L10.1022 7.3712M10.1022 7.27628L10.2074 7.3712M10.0318 7.27628L10.137 7.3712M9.96128 7.27628L10.0665 7.3712M9.89084 7.27628L9.99604 7.3712M9.82036 7.27628L9.92556 7.3712M9.74992 7.27628L9.85612 7.3712M9.67848 7.27628L9.78464 7.3712M9.609 7.27628L9.7142 7.3712M9.53952 7.27628L9.64472 7.3712M9.46908 7.27628L9.57428 7.3712M9.3986 7.27628L9.5038 7.3712M9.32816 7.27628L9.43336 7.3712M9.61 7.27628L9.7152 7.3712M9.25868 7.27628L9.36288 7.3712M9.18724 7.27628L9.2934 7.3712M9.11676 7.27628L9.22296 7.3712M9.04728 7.27628L9.15248 7.3712" stroke="#EF2D28" stroke-width="0.0304956"/>
<path d="M5.58907 6.65015H4.44185C4.37992 6.65015 4.32971 6.69702 4.32971 6.75483V7.29959C4.32971 7.35739 4.37992 7.40427 4.44185 7.40427H5.58907C5.651 7.40427 5.70121 7.35739 5.70121 7.29959V6.75483C5.70121 6.69702 5.651 6.65015 5.58907 6.65015Z" fill="white" stroke="#EF2D28" stroke-width="0.0328414"/>
<path d="M5.56048 6.6814H4.47182C4.41318 6.6814 4.36563 6.7247 4.36563 6.7781V7.27671C4.36563 7.33011 4.41318 7.37343 4.47182 7.37343H5.56048C5.61913 7.37343 5.66667 7.33011 5.66667 7.27671V6.7781C5.66667 6.7247 5.61913 6.6814 5.56048 6.6814Z" fill="white" stroke="#EF2D28" stroke-width="0.0304956"/>
<path fill-rule="evenodd" clip-rule="evenodd" d="M4.97005 6.8689L5.03561 6.87149L5.03831 6.9016L5.09238 6.92912L5.13429 6.89434L5.18498 6.92185L5.13767 6.95196L5.14916 6.9935L5.20864 6.9909V7.04542L5.16133 7.04334L5.137 7.07761L5.19107 7.11655L5.14916 7.14874L5.10388 7.11447L5.03831 7.12797L5.04169 7.17833L4.97005 7.18352L4.96058 7.13472L4.9011 7.1098L4.86798 7.14406L4.81729 7.11862L4.84703 7.07968L4.81121 7.05476H4.76052L4.75781 6.98364L4.8085 6.98831L4.84433 6.94677L4.80242 6.91458L4.8565 6.87824L4.89502 6.90783L4.96058 6.89849L4.97005 6.8689Z" fill="white" stroke="#EF2D28" stroke-width="0.0192526"/>
<path d="M4.98971 7.08112C5.02975 7.08112 5.06221 7.05351 5.06221 7.01944C5.06221 6.98538 5.02975 6.95776 4.98971 6.95776C4.94967 6.95776 4.91721 6.98538 4.91721 7.01944C4.91721 7.05351 4.94967 7.08112 4.98971 7.08112Z" fill="white" stroke="#EF2D28" stroke-width="0.0207327"/>
<path d="M4.48823 6.75989L4.52321 6.72891L4.55844 6.76011L4.59367 6.72891L4.62865 6.75989L4.66404 6.72825L4.69911 6.75989L4.73409 6.72862L4.76932 6.76011L4.80455 6.72862L4.83978 6.76011L4.87501 6.72862L4.91024 6.76011L4.94506 6.72898L4.98021 6.76011L5.01552 6.72825L5.01593 6.72862L5.05091 6.75989L5.08639 6.72847L5.12138 6.75945L5.15669 6.72847L5.19109 6.75923L5.22632 6.72773L5.26155 6.75923L5.29678 6.72773L5.33251 6.75967L5.36774 6.72817L5.40297 6.75967L5.4382 6.72817L5.47343 6.75967L5.50866 6.72817L5.54389 6.75967L5.50866 6.79116L5.47343 6.75967L5.4382 6.79116L5.40297 6.75967L5.36774 6.79116L5.33251 6.75967L5.29728 6.79117L5.26155 6.75923L5.22632 6.79072L5.19109 6.75923L5.15627 6.79036L5.12138 6.75945L5.08557 6.79087L5.05091 6.75989L5.01544 6.79131L4.98046 6.76033L4.94547 6.79161L4.9286 6.80669L4.94539 6.79154L4.91024 6.76011L4.87501 6.79161L4.83978 6.76011L4.80455 6.79161L4.76932 6.76011L4.73417 6.79154L4.69911 6.75989L4.66405 6.79124L4.62865 6.75989L4.59359 6.79124L4.55844 6.76011L4.52362 6.79094L4.48823 6.75989Z" fill="white"/>
<path d="M4.48897 7.29421L4.52379 7.26279L4.55844 7.29376L4.59367 7.26227L4.62939 7.29421L4.66496 7.26242L4.69961 7.29398L4.73459 7.26242L4.76982 7.29421L4.80505 7.26242L4.84028 7.29421L4.87551 7.26242L4.91099 7.29443L4.94605 7.26249L4.9812 7.29421L5.01593 7.26286L5.01643 7.26242L5.05141 7.29398L5.0859 7.26316L5.12063 7.29421L5.15636 7.26227L5.19258 7.29465L5.22772 7.26324L5.26254 7.29465L5.29778 7.26287L5.33251 7.29421L5.36774 7.26242L5.40297 7.29421L5.4382 7.26242L5.47343 7.29421L5.50866 7.26242L5.54389 7.29421L5.50866 7.32599L5.47343 7.29421L5.4382 7.326L5.40297 7.29421L5.36774 7.32599L5.33251 7.29421L5.29728 7.326L5.26254 7.29465L5.22773 7.32607L5.19258 7.29465L5.15685 7.32659L5.12063 7.29421L5.08598 7.32518L5.08549 7.32562L5.05091 7.29443L5.01602 7.32562L4.9812 7.29421L4.94597 7.326L4.91099 7.29443L4.87593 7.32637L4.84028 7.29421L4.80505 7.326L4.76982 7.29421L4.73467 7.32592L4.69961 7.29398L4.66454 7.32562L4.62939 7.29421L4.59416 7.3257L4.55844 7.29376L4.52329 7.32518L4.48897 7.29421Z" fill="white"/>
<path d="M4.54157 6.71265L4.43538 6.80669M4.61203 6.71265L4.50584 6.80669M4.6815 6.71265L4.5763 6.80669M4.75196 6.71265L4.64676 6.80669M4.82242 6.71265L4.71722 6.80669M4.89288 6.71265L4.78768 6.80669M4.96334 6.71265L4.85814 6.80669M5.0338 6.71265L4.9286 6.80669L5.0328 6.71265M5.10426 6.71265L4.99807 6.80669M5.17472 6.71265L5.06754 6.80669M5.24319 6.71265L5.138 6.80669M5.31365 6.71265L5.20846 6.80669M5.38511 6.71265L5.27991 6.80669M5.45557 6.71265L5.35037 6.80669M5.52603 6.71265L5.42083 6.80669M5.59649 6.71265L5.49129 6.80669M5.49129 6.71265L5.59649 6.80669M5.42083 6.71265L5.52603 6.80669M5.35037 6.71265L5.45557 6.80669M5.27991 6.71265L5.38511 6.80669M5.20945 6.71265L5.31464 6.80669M5.13899 6.71265L5.24418 6.80669M5.06853 6.71265L5.17472 6.80669M4.99807 6.71265L5.10326 6.80669M4.92662 6.71265L5.0328 6.80669M4.85715 6.71265L4.96234 6.80669M4.78669 6.71265L4.89188 6.80669M4.71623 6.71265L4.82142 6.80669M4.64676 6.71265L4.75096 6.80669M4.57531 6.71265L4.6815 6.80669M4.50485 6.71265L4.61104 6.80669M4.43439 6.71265L4.54157 6.80669M4.54157 7.24675L4.43637 7.34167M4.61104 7.24675L4.50485 7.34167M4.68249 7.24675L4.5763 7.34167M4.75196 7.24675L4.64676 7.34167M4.82242 7.24675L4.71722 7.34167M4.89288 7.24675L4.78768 7.34167M4.96334 7.24675L4.85914 7.34167M5.0338 7.24675L4.9286 7.34167M5.10426 7.24675L4.99807 7.34167M5.17372 7.24675L5.06754 7.34167M5.24617 7.24675L5.13998 7.34167M5.31564 7.24675L5.21044 7.34167M5.38511 7.24675L5.27991 7.34167M5.45557 7.24675L5.35037 7.34167M5.52603 7.24675L5.42083 7.34167M5.59649 7.24675L5.49129 7.34167M5.49129 7.24675L5.59649 7.34167M5.42083 7.24675L5.52603 7.34167M5.35037 7.24675L5.45557 7.34167M5.27991 7.24675L5.38511 7.34167M5.20945 7.24675L5.31464 7.34167M5.13899 7.24675L5.24518 7.34167M5.06754 7.24675L5.17372 7.34167M4.99807 7.24675L5.10326 7.34167M4.9286 7.24675L5.0338 7.34167M4.85814 7.24675L4.96334 7.34167M4.78768 7.24675L4.89288 7.34167M4.71722 7.24675L4.82242 7.34167M4.99906 7.24675L5.10426 7.34167M4.64775 7.24675L4.75196 7.34167M4.5763 7.24675L4.68249 7.34167M4.50584 7.24675L4.61203 7.34167M4.43637 7.24675L4.54157 7.34167" stroke="#EF2D28" stroke-width="0.0304956"/>
<path fill-rule="evenodd" clip-rule="evenodd" d="M6.48405 8.22833C4.77757 9.90197 4.0496 10.1134 4.39185 10.2485C4.7341 10.3836 5.8327 9.51961 6.97566 8.37309C8.11862 7.22653 8.81874 6.20531 8.4765 6.07022C8.13422 5.93514 8.29958 6.44983 6.48405 8.22833Z" fill="white" stroke="#EF2D28" stroke-width="0.0510375"/>
<path fill-rule="evenodd" clip-rule="evenodd" d="M5.04841 9.44531L5.64683 9.60235C5.08413 10.1373 4.45098 10.3565 4.27533 10.2624C4.09968 10.1684 4.59191 9.94835 5.0494 9.44619L5.04841 9.44531Z" fill="white" stroke="#EF2D28" stroke-width="0.0281498"/>
<path fill-rule="evenodd" clip-rule="evenodd" d="M5.04911 9.50781L5.54213 9.63321C4.99401 10.1477 4.45169 10.2935 4.31152 10.2304C4.17038 10.1681 4.60443 9.99153 5.04911 9.50781Z" fill="white" stroke="#EF2D28" stroke-width="0.0295141"/>
<path d="M6.88115 8.15625C6.87976 8.16433 6.87556 8.20033 6.87207 8.21461C6.87207 8.23445 6.86997 8.24937 6.86788 8.26489C6.86228 8.27853 6.86298 8.29097 6.84621 8.29593C6.83846 8.30833 6.82612 8.31797 6.81126 8.32321C6.79783 8.33281 6.78302 8.34073 6.76723 8.34681C6.75071 8.35321 6.73227 8.35449 6.71482 8.35053C6.69944 8.34121 6.68826 8.33129 6.67568 8.32321C6.67288 8.31081 6.67009 8.29281 6.66659 8.28041C6.67205 8.29697 6.6751 8.31405 6.67568 8.33129C6.67428 8.34993 6.66659 8.35861 6.6582 8.37349" stroke="#EF2D28" stroke-width="0.0296388"/>
<path d="M6.72374 8.41584L6.71955 8.41212C6.73003 8.4214 6.72584 8.41708 6.70207 8.40404C6.6853 8.3966 6.66713 8.39288 6.64546 8.38916H6.58396C6.5602 8.38916 6.54412 8.39224 6.52735 8.3966C6.51477 8.40776 6.4966 8.41396 6.48332 8.42392C6.47152 8.43184 6.46254 8.4426 6.45746 8.45492C6.44558 8.46548 6.43789 8.48164 6.42671 8.48968C6.42181 8.50768 6.41203 8.50708 6.40504 8.52072C6.42601 8.52196 6.44208 8.52444 6.45327 8.53624C6.47144 8.54432 6.43789 8.52816 6.4309 8.52072C6.41692 8.517 6.41343 8.51328 6.39176 8.51328C6.37219 8.50708 6.35961 8.51764 6.33935 8.52072C6.32747 8.52692 6.32397 8.5288 6.30859 8.5288" stroke="#EF2D28" stroke-width="0.0296388"/>
<path d="M6.4875 8.60938C6.47842 8.60938 6.43788 8.61622 6.4218 8.60938C6.40363 8.60506 6.39385 8.59698 6.38266 8.5821C6.37707 8.57154 6.38266 8.6007 6.38266 8.61314C6.38057 8.6361 6.37288 8.6361 6.3603 8.65162C6.34772 8.65906 6.33444 8.66898 6.32116 8.67518C6.30952 8.68362 6.29626 8.69014 6.28202 8.69442C6.26804 8.70062 6.25337 8.70562 6.24288 8.71366C6.22821 8.72298 6.22891 8.73414 6.22052 8.74906C6.22262 8.76766 6.22611 8.77886 6.23799 8.78754C6.24358 8.80058 6.25477 8.81362 6.26455 8.8223C6.27504 8.8409 6.28762 8.84898 6.26036 8.85334C6.24498 8.85954 6.2366 8.85458 6.22052 8.85334" stroke="#EF2D28" stroke-width="0.0296388"/>
<path d="M6.21103 8.88032C6.19985 8.87784 6.16211 8.86668 6.14533 8.86108H6.08383C6.06077 8.86296 6.05587 8.86916 6.0363 8.8766C6.02302 8.8884 6.01464 8.89648 5.99647 8.90392C5.98738 8.91448 5.96851 8.93308 5.96152 8.94676C5.95577 8.9628 5.95294 8.97956 5.95313 8.9964C5.95313 9.01936 5.96012 9.02372 5.96152 9.0436C5.96641 9.06064 5.97548 9.07656 5.98808 9.09012C5.99017 9.09512 5.99157 9.09636 5.99647 9.0976" stroke="#EF2D28" stroke-width="0.0296388"/>
<path d="M6.00479 9.14747C6.00281 9.14747 5.99883 9.15723 5.99239 9.16559C5.97799 9.18027 5.97651 9.18127 5.95517 9.18127C5.93532 9.18027 5.9378 9.17343 5.92391 9.16899C5.91746 9.15919 5.90952 9.15139 5.90208 9.13815C5.89711 9.13031 5.89265 9.11807 5.88719 9.11071C5.88123 9.10139 5.87429 9.09455 5.86833 9.08619C5.86238 9.08375 5.86039 9.08131 5.85246 9.07983C5.87032 9.08279 5.8723 9.08915 5.88372 9.09847C5.88934 9.10731 5.89448 9.11647 5.8991 9.12591C5.90108 9.13911 5.90505 9.14943 5.90555 9.16559C5.90555 9.18271 5.90555 9.19447 5.8991 9.20871C5.89165 9.21603 5.88669 9.22387 5.87727 9.23027C5.86942 9.23775 5.86228 9.24595 5.85593 9.25475L5.82765 9.27287C5.81871 9.27827 5.80829 9.28367 5.79391 9.28511C5.77555 9.28367 5.77009 9.27875 5.75669 9.27287C5.74478 9.26455 5.73585 9.25915 5.72543 9.25131C5.71688 9.24435 5.70951 9.23607 5.7036 9.22683C5.68722 9.22291 5.67631 9.22439 5.66638 9.23319C5.65796 9.23899 5.65073 9.24631 5.64505 9.25475C5.64008 9.25719 5.63115 9.26455 5.62619 9.26699" stroke="#EF2D28" stroke-width="0.0283512"/>
<path d="M5.66201 9.27808C5.66694 9.27992 5.68545 9.29276 5.69286 9.29704C5.69779 9.31356 5.70581 9.32212 5.70828 9.33984C5.7126 9.35572 5.7126 9.37408 5.7126 9.39304C5.70828 9.4126 5.70026 9.42668 5.69286 9.44196C5.68052 9.45052 5.67435 9.45664 5.65831 9.4652C5.64289 9.46764 5.62746 9.46948 5.60834 9.46948C5.596 9.47312 5.57379 9.47496 5.56207 9.46948C5.5448 9.46704 5.53184 9.46028 5.51951 9.4542C5.50532 9.44624 5.49668 9.43828 5.48126 9.43096C5.47324 9.41996 5.46152 9.40956 5.45041 9.39672C5.44054 9.38388 5.43376 9.37652 5.42697 9.36248C5.43314 9.37836 5.44116 9.39304 5.4461 9.40832C5.45535 9.42424 5.46028 9.43032 5.46152 9.44992C5.46769 9.4658 5.46584 9.48536 5.46584 9.50372C5.46398 9.51592 5.46337 9.53916 5.45782 9.54956V9.5612" stroke="#EF2D28" stroke-width="0.029173"/>
<path d="M5.09214 9.62035V9.62655C5.09214 9.61147 5.09214 9.61859 5.09909 9.64875C5.11001 9.66115 5.13878 9.66471 5.16062 9.65939C5.18047 9.64431 5.18047 9.63275 5.21619 9.62655C5.25192 9.62835 5.26581 9.63719 5.28566 9.64875C5.30677 9.65575 5.32437 9.66927 5.33528 9.68687C5.34223 9.70551 5.3462 9.71883 5.32238 9.72591C5.30164 9.73835 5.27776 9.74595 5.25291 9.74811C5.22512 9.74811 5.20428 9.74543 5.19138 9.75963C5.17154 9.77739 5.17352 9.78803 5.17352 9.81995C5.16657 9.82971 5.16558 9.85899 5.16062 9.87055C5.14354 9.87859 5.12431 9.88227 5.10504 9.88119C5.0981 9.86343 5.09115 9.83327 5.08619 9.81463C5.08123 9.79511 5.08024 9.76675 5.06733 9.75343C5.05595 9.73815 5.04148 9.72491 5.02466 9.71439C5.01462 9.70423 5.00154 9.69683 4.98695 9.69311C5.01176 9.70375 5.01474 9.71615 5.01771 9.74279C4.99687 9.75167 4.99092 9.75875 4.95618 9.75963C4.92145 9.75699 4.91351 9.74899 4.90061 9.73123C4.89763 9.75963 4.88771 9.76851 4.88076 9.79335C4.86885 9.80931 4.86389 9.82619 4.85099 9.84835C4.85595 9.87499 4.86786 9.87587 4.86885 9.90867C4.87679 9.93087 4.87679 9.95127 4.89366 9.96459C4.9016 9.97347 4.90756 9.97435 4.92542 9.97523C4.88969 9.97523 4.86786 9.97167 4.84404 9.95927C4.82618 9.94863 4.81229 9.93619 4.79442 9.92555C4.77204 9.91047 4.74684 9.89903 4.71999 9.89183C4.69121 9.89183 4.67037 9.88915 4.65846 9.90335C4.6406 9.91491 4.62869 9.93443 4.62075 9.95927C4.61579 9.98763 4.61282 10.0071 4.6277 10.0258C4.63762 10.0471 4.6406 10.0551 4.6277 10.0808C4.61282 10.0985 4.59197 10.1012 4.55823 10.1083C4.53541 10.1074 4.51258 10.103 4.4967 10.0977" stroke="#EF2D28" stroke-width="0.0281498"/>
<path fill-rule="evenodd" clip-rule="evenodd" d="M8.43321 6.7195C9.19001 5.40957 9.69193 4.29334 9.55505 4.23015C9.41681 4.16632 8.69057 5.17897 7.93381 6.4889L8.43321 6.7195Z" fill="white" stroke="#EF2D28" stroke-width="0.0387692"/>
<path fill-rule="evenodd" clip-rule="evenodd" d="M8.38313 6.69667C9.11321 5.43296 9.61601 4.36471 9.50653 4.31415C9.39593 4.26309 8.71369 5.24848 7.98361 6.51218" fill="white"/>
<path d="M8.38313 6.69667C9.11321 5.43296 9.61601 4.36471 9.50653 4.31415C9.39593 4.26309 8.71369 5.24848 7.98361 6.51218" stroke="#EF2D28" stroke-width="0.0340592"/>
<path fill-rule="evenodd" clip-rule="evenodd" d="M8.25752 6.03784C8.16864 6.18552 8.07448 6.35472 7.9834 6.51238L8.38404 6.69738C8.47512 6.53973 8.57496 6.37313 8.6582 6.22284L8.25752 6.03784Z" fill="white" stroke="#EF2D28" stroke-width="0.0386549"/>
<path fill-rule="evenodd" clip-rule="evenodd" d="M8.2919 6.08789C8.20254 6.23636 8.14118 6.34881 8.04962 6.50725L8.3487 6.64535C8.43978 6.48769 8.50774 6.37627 8.59098 6.22599L8.2919 6.08789Z" fill="white" stroke="#EF2D28" stroke-width="0.0386549"/>
<path fill-rule="evenodd" clip-rule="evenodd" d="M8.51059 6.25921L8.31023 6.16671L8.13263 6.47413L8.33295 6.56663L8.51059 6.25921Z" fill="white"/>
<path d="M8.51059 6.25921L8.31023 6.16671M8.51059 6.25921L8.33295 6.56663M8.51059 6.25921L8.13263 6.47413M8.31023 6.16671L8.13263 6.47413M8.31023 6.16671L8.33295 6.56663M8.33295 6.56663L8.13263 6.47413M9.41411 4.69528L9.21375 4.60278" stroke="#EF2D28" stroke-width="0.0386549"/>
<path d="M9.41152 4.54975C9.38076 4.55753 9.35016 4.54189 9.3432 4.51482C9.33628 4.48774 9.3556 4.45949 9.38636 4.4517C9.41716 4.44392 9.44772 4.45956 9.45468 4.48664C9.46164 4.51371 9.44232 4.54197 9.41152 4.54975Z" fill="#EF0000" stroke="#EF2D28" stroke-width="0.0500864"/>
<path fill-rule="evenodd" clip-rule="evenodd" d="M8.13621 8.19855C9.84269 9.87219 10.5706 10.0836 10.2284 10.2187C9.88617 10.3538 8.78757 9.48983 7.64461 8.34327C6.50164 7.19676 5.80153 6.17552 6.14378 6.04044C6.48603 5.90535 6.32069 6.42004 8.13621 8.19855Z" fill="white" stroke="#EF2D28" stroke-width="0.0510375"/>
<path fill-rule="evenodd" clip-rule="evenodd" d="M9.57029 9.41577L8.97189 9.57277C9.53457 10.1078 10.1677 10.3269 10.3434 10.2329C10.5191 10.1388 10.0268 9.91881 9.56929 9.41665L9.57029 9.41577Z" fill="white" stroke="#EF2D28" stroke-width="0.0281498"/>
<path fill-rule="evenodd" clip-rule="evenodd" d="M9.57117 9.47339L9.07812 9.59879C9.62624 10.1132 10.1686 10.2591 10.3087 10.1959C10.4499 10.1337 10.0158 9.95711 9.57117 9.47339Z" fill="white" stroke="#EF2D28" stroke-width="0.0295141"/>
<path d="M7.73752 8.12183C7.73888 8.12991 7.74308 8.16591 7.7466 8.18019C7.7466 8.20003 7.74868 8.21495 7.75076 8.23043C7.75636 8.24411 7.75568 8.25651 7.77244 8.26147C7.7802 8.27391 7.79252 8.28355 7.8074 8.28879C7.82084 8.29835 7.83564 8.30631 7.85144 8.31239C7.86796 8.31875 7.8864 8.32007 7.90384 8.31611C7.9192 8.30679 7.9304 8.29687 7.94296 8.28879C7.94576 8.27639 7.94856 8.25839 7.95208 8.24595C7.9466 8.26251 7.94356 8.27963 7.94296 8.29687C7.94436 8.31547 7.95208 8.32419 7.96044 8.33907" stroke="#EF2D28" stroke-width="0.0296388"/>
<path d="M7.89653 8.38142L7.90073 8.3777C7.89025 8.38702 7.89445 8.38266 7.91821 8.36966C7.93497 8.36218 7.95317 8.35846 7.97481 8.35474H8.03633C8.06009 8.35474 8.07617 8.35786 8.09293 8.36218C8.10553 8.37338 8.12369 8.37958 8.13697 8.3895C8.14877 8.39742 8.15773 8.40822 8.16281 8.42054C8.17469 8.4311 8.18241 8.44722 8.19357 8.4553C8.19845 8.4733 8.20825 8.4727 8.21525 8.48634C8.19429 8.48758 8.17821 8.49006 8.16701 8.50186C8.14885 8.50994 8.18241 8.49378 8.18937 8.48634C8.20337 8.48262 8.20685 8.4789 8.22853 8.4789C8.24809 8.4727 8.26065 8.48322 8.28093 8.48634C8.29281 8.49254 8.29633 8.49442 8.31169 8.49442" stroke="#EF2D28" stroke-width="0.0296388"/>
<path d="M8.13126 8.57962C8.14034 8.57962 8.1809 8.58646 8.19698 8.57962C8.21514 8.5753 8.22494 8.56722 8.2361 8.5523C8.2417 8.54178 8.2361 8.57094 8.2361 8.58334C8.23822 8.6063 8.2459 8.6063 8.25846 8.62182C8.27106 8.6293 8.28434 8.63922 8.29762 8.64542C8.30926 8.65386 8.3225 8.66038 8.33674 8.66466C8.35074 8.67086 8.36542 8.67582 8.3759 8.6839C8.39058 8.69322 8.38986 8.70438 8.39826 8.7193C8.39614 8.7379 8.39266 8.74906 8.38078 8.75778C8.37518 8.77082 8.36402 8.78382 8.35422 8.79254C8.34374 8.81114 8.33114 8.81922 8.35842 8.82358C8.37378 8.82978 8.38218 8.82482 8.39826 8.82358" stroke="#EF2D28" stroke-width="0.0296388"/>
<path d="M8.40784 8.85054C8.41904 8.84806 8.45676 8.8369 8.47356 8.8313H8.53504C8.55812 8.83318 8.563 8.83938 8.58256 8.84682C8.59584 8.85862 8.60424 8.8667 8.6224 8.87414C8.63152 8.8847 8.65036 8.9033 8.65736 8.91698C8.66312 8.93302 8.66596 8.94978 8.66576 8.96662C8.66576 8.98958 8.65876 8.99394 8.65736 9.01378C8.65248 9.03086 8.6434 9.04674 8.6308 9.06034C8.62872 9.0653 8.62732 9.06654 8.6224 9.06778" stroke="#EF2D28" stroke-width="0.0296388"/>
<path d="M8.62033 9.11765C8.62229 9.11765 8.62629 9.12745 8.63273 9.13581C8.64713 9.15049 8.64861 9.15145 8.66993 9.15145C8.68981 9.15049 8.68729 9.14365 8.70121 9.13921C8.70765 9.12941 8.71561 9.12157 8.72305 9.10837C8.72801 9.10053 8.73245 9.08825 8.73793 9.08093C8.74389 9.07161 8.75081 9.06473 8.75677 9.05641C8.76273 9.05397 8.76473 9.05153 8.77265 9.05005C8.75481 9.05297 8.75281 9.05937 8.74141 9.06865C8.73577 9.07753 8.73065 9.08669 8.72601 9.09609C8.72401 9.10933 8.72005 9.11961 8.71957 9.13581C8.71957 9.15293 8.71957 9.16469 8.72601 9.17889C8.73345 9.18625 8.73841 9.19409 8.74785 9.20045C8.75569 9.20797 8.76281 9.21617 8.76917 9.22497L8.79745 9.24309C8.80641 9.24849 8.81681 9.25385 8.83121 9.25533C8.84957 9.25385 8.85501 9.24897 8.86841 9.24309C8.88033 9.23477 8.88925 9.22937 8.89969 9.22153C8.90825 9.21457 8.91561 9.20629 8.92153 9.19705C8.93789 9.19313 8.94881 9.19457 8.95873 9.20341C8.96713 9.20921 8.97437 9.21653 8.98005 9.22497C8.98501 9.22741 8.99397 9.23477 8.99893 9.23721" stroke="#EF2D28" stroke-width="0.0283512"/>
<path d="M8.95844 9.24219C8.95352 9.24403 8.935 9.25687 8.9276 9.26115C8.92264 9.27763 8.91464 9.28619 8.91216 9.30395C8.90784 9.31983 8.90784 9.33819 8.90784 9.35715C8.91216 9.37671 8.9202 9.39075 8.9276 9.40603C8.93992 9.41459 8.94612 9.42071 8.96212 9.42927C8.97756 9.43171 8.993 9.43355 9.01212 9.43355C9.02444 9.43723 9.04664 9.43907 9.05836 9.43355C9.07564 9.43111 9.0886 9.42439 9.10096 9.41827C9.11512 9.41031 9.12376 9.40239 9.1392 9.39503C9.1472 9.38403 9.15892 9.37363 9.17004 9.36079C9.17992 9.34795 9.18668 9.34063 9.19348 9.32655C9.18732 9.34247 9.17928 9.35715 9.17436 9.37243C9.16508 9.38831 9.16016 9.39443 9.15892 9.41399C9.15276 9.42991 9.1546 9.44947 9.1546 9.46779C9.15648 9.48003 9.15708 9.50327 9.16264 9.51367V9.52527" stroke="#EF2D28" stroke-width="0.029173"/>
<path d="M9.5266 9.59057V9.59677C9.5266 9.58169 9.52661 9.58877 9.51965 9.61897C9.50873 9.63137 9.47996 9.63493 9.45812 9.62961C9.43828 9.61453 9.43829 9.60297 9.40257 9.59677C9.36685 9.59853 9.35292 9.60741 9.33308 9.61897C9.31196 9.62597 9.29437 9.63949 9.28349 9.65709C9.27653 9.67573 9.27257 9.68905 9.29637 9.69613C9.31713 9.70857 9.34101 9.71617 9.36585 9.71833C9.39365 9.71833 9.41449 9.71565 9.42737 9.72985C9.44721 9.74761 9.44525 9.75825 9.44525 9.79017C9.45217 9.79993 9.45316 9.82921 9.45812 9.84077C9.4752 9.84881 9.49444 9.85249 9.51372 9.85141C9.52064 9.83365 9.52761 9.80349 9.53257 9.78485C9.53753 9.76533 9.53853 9.73693 9.55141 9.72365C9.56281 9.70837 9.57729 9.69513 9.59409 9.68461C9.60413 9.67441 9.61721 9.66705 9.63181 9.66333C9.60701 9.67397 9.604 9.68637 9.60104 9.71301C9.62188 9.72185 9.62785 9.72897 9.66257 9.72985C9.69729 9.72717 9.70524 9.71921 9.71812 9.70145C9.72112 9.72985 9.73104 9.73873 9.738 9.76357C9.74988 9.77953 9.75484 9.79641 9.76776 9.81857C9.7628 9.84517 9.75089 9.84609 9.74989 9.87889C9.74197 9.90109 9.74197 9.92149 9.72509 9.93481C9.71717 9.94365 9.7112 9.94457 9.69332 9.94545C9.72904 9.94545 9.75089 9.94189 9.77473 9.92949C9.79257 9.91881 9.80645 9.90641 9.82433 9.89577C9.84673 9.88069 9.87193 9.86925 9.89877 9.86205C9.92753 9.86205 9.94836 9.85937 9.96028 9.87357C9.97816 9.88509 9.99005 9.90461 9.99801 9.92949C10.003 9.95785 10.0059 9.97737 9.99105 9.99601C9.98113 10.0173 9.97817 10.0253 9.99105 10.051C10.0059 10.0688 10.0268 10.0714 10.0605 10.0785C10.0833 10.0777 10.1062 10.0732 10.122 10.0679" stroke="#EF2D28" stroke-width="0.0281498"/>
<path fill-rule="evenodd" clip-rule="evenodd" d="M6.18711 6.68972C5.43033 5.37979 4.92842 4.26356 5.06527 4.20037C5.20353 4.13653 5.92975 5.14919 6.68654 6.45912L6.18711 6.68972Z" fill="white" stroke="#EF2D28" stroke-width="0.0387692"/>
<path fill-rule="evenodd" clip-rule="evenodd" d="M6.2372 6.66688C5.50712 5.40318 5.00434 4.33492 5.11382 4.28437C5.22442 4.2333 5.90666 5.2187 6.63674 6.4824" fill="white"/>
<path d="M6.2372 6.66688C5.50712 5.40318 5.00434 4.33492 5.11382 4.28437C5.22442 4.2333 5.90666 5.2187 6.63674 6.4824" stroke="#EF2D28" stroke-width="0.0340592"/>
<path fill-rule="evenodd" clip-rule="evenodd" d="M6.36279 6.0083C6.45169 6.15598 6.54586 6.32518 6.63695 6.48284L6.23628 6.66784C6.1452 6.51018 6.04538 6.34358 5.96213 6.1933L6.36279 6.0083Z" fill="white" stroke="#EF2D28" stroke-width="0.0386549"/>
<path fill-rule="evenodd" clip-rule="evenodd" d="M6.32838 6.05835C6.41773 6.20682 6.47912 6.31927 6.57066 6.47771L6.27157 6.61581C6.18049 6.45815 6.11254 6.34673 6.0293 6.19645L6.32838 6.05835Z" fill="white" stroke="#EF2D28" stroke-width="0.0386549"/>
<path fill-rule="evenodd" clip-rule="evenodd" d="M6.10979 6.22967L6.31012 6.13717L6.48773 6.44459L6.2874 6.53709L6.10979 6.22967Z" fill="white"/>
<path d="M6.10979 6.22967L6.31012 6.13717M6.10979 6.22967L6.2874 6.53709M6.10979 6.22967L6.48773 6.44459M6.31012 6.13717L6.48773 6.44459M6.31012 6.13717L6.2874 6.53709M6.2874 6.53709L6.48773 6.44459M5.20627 4.66574L5.4066 4.57324" stroke="#EF2D28" stroke-width="0.0386549"/>
<path d="M5.20863 4.51996C5.23941 4.52774 5.27 4.5121 5.27695 4.48503C5.28389 4.45796 5.26457 4.4297 5.23379 4.42192C5.20301 4.41414 5.17242 4.42978 5.16548 4.45685C5.15853 4.48392 5.17785 4.51218 5.20863 4.51996Z" fill="#EF0000" stroke="#EF2D28" stroke-width="0.0500864"/>
<path fill-rule="evenodd" clip-rule="evenodd" d="M6.79137 6.02197C6.79137 7.1221 6.79798 7.53642 6.71727 7.59322C6.64053 7.65442 4.50626 7.59322 4.50626 7.90726C4.50626 8.22134 6.26342 8.53718 6.79137 8.53718C7.49529 8.53718 7.84593 8.22222 7.84593 7.59322V6.02286H6.79137V6.02197Z" fill="white" stroke="#EF2D28" stroke-width="0.0352129"/>
<path fill-rule="evenodd" clip-rule="evenodd" d="M6.79221 6.33594V6.49297C7.14108 6.54527 7.49726 6.54527 7.84614 6.49297V6.33594C7.49726 6.38824 7.14108 6.38824 6.79221 6.33594Z" fill="white" stroke="#EF2D28" stroke-width="0.0304956"/>
<path fill-rule="evenodd" clip-rule="evenodd" d="M6.79221 6.02197V6.179C7.14108 6.2313 7.49726 6.2313 7.84614 6.179V6.02197C7.49726 6.07427 7.14108 6.07427 6.79221 6.02197Z" fill="white" stroke="#EF2D28" stroke-width="0.0304956"/>
<path fill-rule="evenodd" clip-rule="evenodd" d="M6.79221 6.17822V6.33525C7.14108 6.38755 7.49726 6.38755 7.84614 6.33525V6.17822C7.49726 6.23052 7.14108 6.23052 6.79221 6.17822Z" fill="white" stroke="#EF2D28" stroke-width="0.0304956"/>
<path fill-rule="evenodd" clip-rule="evenodd" d="M6.79221 6.49219V6.64922C7.14108 6.70152 7.49726 6.70152 7.84614 6.64922V6.49219C7.49726 6.54448 7.14108 6.54448 6.79221 6.49219Z" fill="white" stroke="#EF2D28" stroke-width="0.0304956"/>
<path d="M6.84038 6.3008C6.86699 6.3008 6.88856 6.2856 6.88856 6.26685C6.88856 6.24811 6.86699 6.23291 6.84038 6.23291C6.81377 6.23291 6.79221 6.24811 6.79221 6.26685C6.79221 6.2856 6.81377 6.3008 6.84038 6.3008Z" fill="white" stroke="#EF2D28" stroke-width="0.0289101"/>
<path d="M7.03099 6.31789C7.0576 6.31789 7.07917 6.30269 7.07917 6.28394C7.07917 6.2652 7.0576 6.25 7.03099 6.25C7.00439 6.25 6.98282 6.2652 6.98282 6.28394C6.98282 6.30269 7.00439 6.31789 7.03099 6.31789Z" fill="white" stroke="#EF2D28" stroke-width="0.0289101"/>
<path d="M7.22318 6.33522C7.24982 6.33522 7.27138 6.32002 7.27138 6.30128C7.27138 6.28253 7.24982 6.26733 7.22318 6.26733C7.19659 6.26733 7.17502 6.28253 7.17502 6.30128C7.17502 6.32002 7.19659 6.33522 7.22318 6.33522Z" fill="white" stroke="#EF2D28" stroke-width="0.0289101"/>
<path d="M7.41535 6.33522C7.44195 6.33522 7.46351 6.32002 7.46351 6.30128C7.46351 6.28253 7.44195 6.26733 7.41535 6.26733C7.38875 6.26733 7.36719 6.28253 7.36719 6.30128C7.36719 6.32002 7.38875 6.33522 7.41535 6.33522Z" fill="white" stroke="#EF2D28" stroke-width="0.0289101"/>
<path d="M7.60603 6.31789C7.63263 6.31789 7.65419 6.30269 7.65419 6.28394C7.65419 6.2652 7.63263 6.25 7.60603 6.25C7.57943 6.25 7.55783 6.2652 7.55783 6.28394C7.55783 6.30269 7.57943 6.31789 7.60603 6.31789Z" fill="white" stroke="#EF2D28" stroke-width="0.0289101"/>
<path d="M7.79816 6.3008C7.8248 6.3008 7.84636 6.2856 7.84636 6.26685C7.84636 6.24811 7.8248 6.23291 7.79816 6.23291C7.77156 6.23291 7.75 6.24811 7.75 6.26685C7.75 6.2856 7.77156 6.3008 7.79816 6.3008Z" fill="white" stroke="#EF2D28" stroke-width="0.0289101"/>
<path d="M7.72867 7.56136L7.78734 7.60862L7.84549 7.65547L7.78666 7.70294L7.84494 7.74995L7.7893 7.79437L7.73002 7.8417L7.79105 7.89068L7.73465 7.93652L7.67581 7.98433L7.73596 8.03241L7.6789 8.07775L7.62185 8.12307L7.6854 8.17353L7.62934 8.21786L7.57267 8.26267L7.51739 8.30638L7.45997 8.35178L7.38849 8.40829L7.32598 8.35815L7.27053 8.31367L7.20487 8.26101L7.14981 8.21684L7.09382 8.17194L7.03502 8.12478L6.97675 8.07804L6.91861 8.03141L6.86062 7.9849L6.80144 7.93743L6.74321 7.89073L6.68548 7.84442L6.74516 7.79585L6.68497 7.74904L6.74396 7.70117L6.80071 7.65512L6.74068 7.60788L6.79696 7.56271L6.85623 7.51514L6.79278 7.46476L6.85092 7.4196L6.91098 7.37296L6.85195 7.32577L6.79214 7.27797L6.85287 7.23323L6.79157 7.18434L6.85521 7.13961L6.79218 7.08902L6.85702 7.04696L6.81282 7.01152L6.87646 6.9689L6.83302 6.93387L6.8948 6.88956L6.95086 6.84936L6.99849 6.88718L7.05277 6.85083L7.10127 6.8885L7.15943 6.85077L7.21072 6.88971L7.26551 6.8512L7.31851 6.89024L7.37153 6.85118L7.42597 6.88945L7.47721 6.8505L7.53523 6.88815L7.58379 6.85044L7.63873 6.88711L7.68555 6.84953L7.74297 6.89048L7.79086 6.85161L7.84549 6.90044L7.80412 6.9341L7.76133 6.96893L7.826 7.01208L7.78169 7.04803L7.84549 7.08942L7.78284 7.1403L7.84491 7.18393L7.78426 7.23329L7.72584 7.28082L7.78666 7.327L7.72756 7.37497L7.78624 7.42055L7.84543 7.46652L7.78744 7.51362L7.72867 7.56136Z" fill="white"/>
<path d="M6.79157 6.8064L7.84549 7.65547L6.75485 8.53555M6.89676 6.8064L7.84649 7.56051M7.03669 6.83834L7.84649 7.46735M7.14188 6.83745L7.84649 7.37243M7.24805 6.83834L7.84549 7.27839M7.35325 6.83834L7.84549 7.18434M7.45845 6.83834L7.84549 7.08942L6.68439 8.03251M7.56565 6.83834L7.84749 7.02642M7.66985 6.83834L7.84649 6.96432M7.77601 6.83834L7.84549 6.90044L6.68439 7.84531M6.79157 6.90044L7.84549 7.75039M7.84549 6.80728L6.68439 7.74951M7.73929 6.8064L6.72011 7.62439M7.59937 6.83834L6.79057 7.46647M7.49321 6.83834L6.79057 7.37243M7.38897 6.83834L6.79157 7.27839M7.28381 6.83834L6.79157 7.18434L7.77601 7.96951M7.1786 6.83834L6.79157 7.08942M7.07142 6.83834L6.79057 7.02642M6.96623 6.83834L6.79057 6.96432M6.86004 6.83834L6.79057 6.90044M7.84549 6.99626L6.68439 7.93847M7.84549 7.18346L6.68439 8.12831M7.84549 7.27927L6.68439 8.22147M7.84549 7.37243L6.68439 8.31551M7.84549 7.46647L6.68439 8.40959M7.84549 7.56139L6.68439 8.50451M7.84549 7.74951L6.86104 8.53555M7.80977 7.87547L7.03569 8.50451M7.77601 8.00059L7.14287 8.50363M7.70557 8.15759L7.38801 8.40867M6.79157 6.99448L7.81077 7.81159M6.79157 7.08853L7.81077 7.90651M6.79157 7.27751L7.77601 8.06443M6.79157 7.37243L7.74029 8.12655M6.75584 7.43543L7.70557 8.18955M6.75584 7.53035L7.63509 8.22239M6.7211 7.59247L7.60037 8.28447M6.68439 7.65455L7.52793 8.31463M6.68439 7.74859L7.49321 8.37763M6.68439 7.84355L7.38897 8.40867" stroke="#EF2D28" stroke-width="0.0304956"/>
<path fill-rule="evenodd" clip-rule="evenodd" d="M6.79221 6.65015V6.80718C7.14108 6.85947 7.49726 6.85947 7.84614 6.80718V6.65015C7.49726 6.70244 7.14108 6.70244 6.79221 6.65015Z" fill="white" stroke="#EF2D28" stroke-width="0.0304956"/>
<path d="M6.68538 7.93921L7.31853 8.44225M6.68538 8.03413L7.24805 8.47329M6.68538 8.12729L7.17761 8.50521M6.68538 8.22133L7.03768 8.50521M6.68439 8.31625L6.96623 8.53629M6.68439 8.41029L6.86004 8.53629" stroke="#EF2D28" stroke-width="0.0304956"/>
<path d="M6.84038 6.77272C6.86699 6.77272 6.88856 6.75752 6.88856 6.73878C6.88856 6.72003 6.86699 6.70483 6.84038 6.70483C6.81377 6.70483 6.79221 6.72003 6.79221 6.73878C6.79221 6.75752 6.81377 6.77272 6.84038 6.77272Z" fill="white" stroke="#EF2D28" stroke-width="0.0289101"/>
<path d="M7.03099 6.78981C7.0576 6.78981 7.07917 6.77461 7.07917 6.75587C7.07917 6.73712 7.0576 6.72192 7.03099 6.72192C7.00439 6.72192 6.98282 6.73712 6.98282 6.75587C6.98282 6.77461 7.00439 6.78981 7.03099 6.78981Z" fill="white" stroke="#EF2D28" stroke-width="0.0289101"/>
<path d="M7.22318 6.8069C7.24982 6.8069 7.27138 6.7917 7.27138 6.77295C7.27138 6.75421 7.24982 6.73901 7.22318 6.73901C7.19659 6.73901 7.17502 6.75421 7.17502 6.77295C7.17502 6.7917 7.19659 6.8069 7.22318 6.8069Z" fill="white" stroke="#EF2D28" stroke-width="0.0289101"/>
<path d="M7.41535 6.8069C7.44195 6.8069 7.46351 6.7917 7.46351 6.77295C7.46351 6.75421 7.44195 6.73901 7.41535 6.73901C7.38875 6.73901 7.36719 6.75421 7.36719 6.77295C7.36719 6.7917 7.38875 6.8069 7.41535 6.8069Z" fill="white" stroke="#EF2D28" stroke-width="0.0289101"/>
<path d="M7.60603 6.78981C7.63263 6.78981 7.65419 6.77461 7.65419 6.75587C7.65419 6.73712 7.63263 6.72192 7.60603 6.72192C7.57943 6.72192 7.55783 6.73712 7.55783 6.75587C7.55783 6.77461 7.57943 6.78981 7.60603 6.78981Z" fill="white" stroke="#EF2D28" stroke-width="0.0289101"/>
<path d="M7.79816 6.77272C7.8248 6.77272 7.84636 6.75752 7.84636 6.73878C7.84636 6.72003 7.8248 6.70483 7.79816 6.70483C7.77156 6.70483 7.75 6.72003 7.75 6.73878C7.75 6.75752 7.77156 6.77272 7.79816 6.77272Z" fill="white" stroke="#EF2D28" stroke-width="0.0289101"/>
<path d="M5.27957 8.28508L6.54488 7.625M5.20911 8.25312L6.40496 7.625M5.17438 8.19016L6.26404 7.625M5.13865 8.12804L6.08838 7.625M5.0672 8.06504L5.94647 7.625M5.10292 7.971L5.70035 7.65604M5.0672 7.90712L5.5237 7.65604M5.0672 7.81308L5.38477 7.65604M5.38477 8.31612L6.57962 7.68712M5.49096 8.3472L6.61534 7.75008M5.59615 8.37912L6.65107 7.81308M5.70134 8.41016L6.58061 7.93908M5.84127 8.41016L6.61534 8.00208M5.94647 8.44212L6.61435 8.09612M6.05166 8.47316L6.57962 8.19016M6.19258 8.47404L6.61435 8.25312M6.3335 8.50512L6.61534 8.3472M6.47641 8.50512L6.65206 8.41104" stroke="#EF2D28" stroke-width="0.0304956"/>
<path fill-rule="evenodd" clip-rule="evenodd" d="M6.72032 7.59375H6.54467C6.48617 7.90563 6.48617 8.22407 6.54467 8.53595H6.72032C6.66182 8.22407 6.66182 7.90563 6.72032 7.59375Z" fill="white" stroke="#EF2D28" stroke-width="0.0304956"/>
<path d="M4.64688 8.03279L5.06865 7.71875M4.64688 7.81279L5.06865 8.18983" stroke="#EF2D28" stroke-width="0.0304956"/>
<path fill-rule="evenodd" clip-rule="evenodd" d="M5.27973 7.65479L5.06855 7.68627C5.02171 7.88575 5.02171 8.05319 5.06855 8.25263L5.27973 8.31503C5.23289 8.11611 5.23289 7.85427 5.27973 7.65479Z" fill="white" stroke="#EF2D28" stroke-width="0.0217069"/>
<path fill-rule="evenodd" clip-rule="evenodd" d="M7.84642 6.08298V5.92417C7.68734 5.92595 7.58174 5.83102 7.58174 5.73608L7.05539 5.73697C7.05539 5.83102 6.95131 5.92595 6.79221 5.92595V6.08298H7.84642Z" fill="white" stroke="#EF2D28" stroke-width="0.0373282"/>
<path fill-rule="evenodd" clip-rule="evenodd" d="M7.09219 5.549H7.54473V5.73798H7.09219V5.549ZM7.1309 5.36003H7.50701V5.549H7.12991L7.1309 5.36003ZM7.1309 5.17194H7.50701V5.36003H7.12991L7.1309 5.17194ZM7.16861 4.91998H7.46929V5.17194H7.16861V4.91998ZM7.15571 4.69995H7.48321V4.91998H7.15571V4.69995Z" fill="white"/>
<path d="M7.50701 5.36003H7.1309L7.12991 5.549H7.50701V5.36003ZM7.50701 5.36003V5.17194H7.1309L7.12991 5.36003H7.50701ZM7.09219 5.549H7.54473V5.73798H7.09219V5.549ZM7.16861 4.91998H7.46929V5.17194H7.16861V4.91998ZM7.15571 4.69995H7.48321V4.91998H7.15571V4.69995Z" stroke="#EF2D28" stroke-width="0.0328414"/>
<path d="M7.33582 4.79499C7.57654 4.79499 7.77166 4.66113 7.77166 4.49601C7.77166 4.33088 7.57654 4.19702 7.33582 4.19702C7.09514 4.19702 6.90002 4.33088 6.90002 4.49601C6.90002 4.66113 7.09514 4.79499 7.33582 4.79499Z" fill="white" stroke="#EF2D28" stroke-width="0.0309992"/>
<path fill-rule="evenodd" clip-rule="evenodd" d="M7.55336 4.48062C7.55336 4.56313 7.66204 4.70064 7.66204 4.70064C7.58308 4.75565 7.45492 4.79557 7.33492 4.79557C7.21496 4.79557 7.06524 4.77251 7.00781 4.70064C7.00781 4.70064 7.11651 4.56401 7.11651 4.48151C7.11651 4.39899 7.00781 4.29253 7.00781 4.29253C7.10299 4.23202 7.21784 4.19911 7.33596 4.19849C7.45492 4.19849 7.58208 4.23841 7.66204 4.29253C7.66204 4.29253 7.55336 4.39899 7.55336 4.48151V4.48062Z" fill="white" stroke="#EF2D28" stroke-width="0.0309992"/>
<path fill-rule="evenodd" clip-rule="evenodd" d="M7.48118 4.48062C7.48118 4.56313 7.5899 4.73258 7.5899 4.73258C7.51094 4.78581 7.45658 4.79469 7.33558 4.79469C7.21458 4.79469 7.1387 4.80445 7.08127 4.73258C7.08127 4.73258 7.18997 4.56401 7.18997 4.48062C7.18997 4.39722 7.08127 4.26059 7.08127 4.26059C7.16023 4.20736 7.21458 4.19849 7.33558 4.19849C7.45554 4.19849 7.51094 4.20736 7.5899 4.26059C7.5899 4.26059 7.48118 4.39811 7.48118 4.48062Z" fill="white" stroke="#EF2D28" stroke-width="0.0309992"/>
<path d="M6.89935 4.60532C6.95938 4.60532 7.00805 4.56322 7.00805 4.51128C7.00805 4.45934 6.95938 4.41724 6.89935 4.41724C6.83932 4.41724 6.79065 4.45934 6.79065 4.51128C6.79065 4.56322 6.83932 4.60532 6.89935 4.60532Z" fill="white" stroke="#EF2D28" stroke-width="0.0309992"/>
<path d="M7.77274 4.60532C7.83278 4.60532 7.88142 4.56322 7.88142 4.51128C7.88142 4.45934 7.83278 4.41724 7.77274 4.41724C7.7127 4.41724 7.66406 4.45934 7.66406 4.51128C7.66406 4.56322 7.7127 4.60532 7.77274 4.60532Z" fill="white" stroke="#EF2D28" stroke-width="0.0309992"/>
<path d="M7.33687 4.60532C7.39687 4.60532 7.44555 4.56322 7.44555 4.51128C7.44555 4.45934 7.39687 4.41724 7.33687 4.41724C7.27683 4.41724 7.22815 4.45934 7.22815 4.51128C7.22815 4.56322 7.27683 4.60532 7.33687 4.60532Z" fill="white" stroke="#EF2D28" stroke-width="0.0309992"/>
<path d="M7.33687 4.29136C7.39687 4.29136 7.44555 4.24926 7.44555 4.19732C7.44555 4.14538 7.39687 4.10327 7.33687 4.10327C7.27683 4.10327 7.22815 4.14538 7.22815 4.19732C7.22815 4.24926 7.27683 4.29136 7.33687 4.29136Z" fill="white" stroke="#EF2D28" stroke-width="0.0309992"/>
<path d="M7.01727 6.08335C7.07945 6.08335 7.12985 6.04125 7.12985 5.98931C7.12985 5.93737 7.07945 5.89526 7.01727 5.89526C6.9551 5.89526 6.90469 5.93737 6.90469 5.98931C6.90469 6.04125 6.9551 6.08335 7.01727 6.08335Z" fill="white" stroke="#EF2D28" stroke-width="0.0315479"/>
<path d="M7.61886 6.08335C7.68102 6.08335 7.73142 6.04125 7.73142 5.98931C7.73142 5.93737 7.68102 5.89526 7.61886 5.89526C7.55666 5.89526 7.50626 5.93737 7.50626 5.98931C7.50626 6.04125 7.55666 6.08335 7.61886 6.08335Z" fill="white" stroke="#EF2D28" stroke-width="0.0315479"/>
<path fill-rule="evenodd" clip-rule="evenodd" d="M7.05469 5.73755H7.58148L7.31808 6.02056L7.05469 5.73755Z" fill="white" stroke="#EF2D28" stroke-width="0.0315479"/>
<path d="M7.3173 6.08207C7.40022 6.08207 7.46742 6.02594 7.46742 5.95669C7.46742 5.88744 7.40022 5.8313 7.3173 5.8313C7.23442 5.8313 7.16721 5.88744 7.16721 5.95669C7.16721 6.02594 7.23442 6.08207 7.3173 6.08207Z" fill="white" stroke="#EF2D28" stroke-width="0.0420643"/>
<path d="M7.50677 6.89844H6.78331C6.75974 6.89844 6.74063 6.91313 6.74063 6.93127V7.05459C6.74063 7.07271 6.75974 7.08741 6.78331 7.08741H7.50677C7.53033 7.08741 7.54945 7.07271 7.54945 7.05459V6.93127C7.54945 6.91313 7.53033 6.89844 7.50677 6.89844Z" fill="white" stroke="#EF2D28" stroke-width="0.0281498"/>
<path fill-rule="evenodd" clip-rule="evenodd" d="M7.79598 6.74141C7.69874 6.74141 7.62034 6.81505 7.62034 6.90554V7.04838C7.6197 7.0695 7.6237 7.09053 7.63222 7.11024C7.6407 7.12996 7.6535 7.14797 7.66982 7.16324C7.68618 7.1785 7.70574 7.19072 7.72738 7.19918C7.74906 7.20766 7.77238 7.21218 7.79598 7.2125C7.81962 7.21218 7.84294 7.20766 7.86462 7.19918C7.88626 7.19072 7.90582 7.1785 7.92214 7.16324C7.9385 7.14797 7.9513 7.12996 7.95978 7.11024C7.96826 7.09053 7.9723 7.0695 7.97166 7.04838V6.90643C7.97246 6.88524 7.9685 6.86412 7.96006 6.8443C7.95162 6.82448 7.93886 6.80636 7.92254 6.791C7.90618 6.77564 7.88658 6.76334 7.86482 6.75483C7.8431 6.74631 7.8197 6.74175 7.79598 6.74141ZM7.79598 6.80352C7.73746 6.80352 7.69082 6.86296 7.69082 6.93571V7.01822C7.69082 7.09097 7.73746 7.14952 7.79598 7.14952C7.85454 7.14952 7.90118 7.09097 7.90118 7.01822V6.93571C7.90118 6.86296 7.85454 6.8044 7.79598 6.8044V6.80352ZM6.88199 6.77246C6.82245 6.77246 6.7768 6.83102 6.7768 6.90466V7.05016C6.7768 7.12291 6.82344 7.18146 6.88199 7.18146C6.94054 7.18146 6.98719 7.12291 6.98719 7.05016V6.90377C6.98719 6.83013 6.94054 6.77158 6.88199 6.77158V6.77246ZM6.88199 6.71036C6.85836 6.7107 6.83504 6.71524 6.81339 6.72369C6.79173 6.73215 6.77217 6.74437 6.75583 6.75963C6.73949 6.7749 6.7267 6.79291 6.71821 6.81263C6.70971 6.83234 6.70568 6.85337 6.70634 6.87449V7.08032C6.70568 7.10144 6.70971 7.12247 6.71821 7.14218C6.7267 7.1619 6.73949 7.17991 6.75583 7.19518C6.77217 7.21046 6.79173 7.22266 6.81339 7.23114C6.83504 7.23958 6.85836 7.2441 6.88199 7.24446C6.97925 7.24446 7.05765 7.17082 7.05765 7.08032V6.87449C7.05844 6.8533 7.05451 6.83218 7.04607 6.81236C7.03763 6.79254 7.02487 6.77442 7.00852 6.75906C6.99217 6.7437 6.97256 6.7314 6.95083 6.72289C6.92911 6.71437 6.90571 6.70981 6.88199 6.70947V6.71036Z" fill="white" stroke="#EF2D28" stroke-width="0.0281498"/>
<path fill-rule="evenodd" clip-rule="evenodd" d="M6.60074 6.83496C6.54219 6.83496 6.49555 6.89352 6.49555 6.96627V7.00087C6.49555 7.07362 6.54219 7.13217 6.60074 7.13217C6.66029 7.13217 6.70693 7.07362 6.70693 7.00087V6.96627C6.70693 6.89352 6.6593 6.83496 6.60074 6.83496ZM6.60074 6.77286C6.57712 6.7732 6.5538 6.77774 6.53214 6.78619C6.51048 6.79465 6.49092 6.80687 6.47458 6.82213C6.45824 6.8374 6.44546 6.85541 6.43696 6.87513C6.42846 6.89484 6.42443 6.91587 6.42509 6.93699V7.03103C6.42443 7.05215 6.42846 7.07318 6.43696 7.0929C6.44546 7.11261 6.45824 7.13062 6.47458 7.14589C6.49092 7.16116 6.51048 7.17337 6.53214 7.18183C6.5538 7.19029 6.57712 7.19482 6.60074 7.19516C6.698 7.19516 6.77739 7.12153 6.77739 7.03103V6.93699C6.77819 6.91572 6.77422 6.89453 6.76572 6.87465C6.75723 6.85478 6.74437 6.83662 6.72792 6.82124C6.71146 6.80587 6.69173 6.79359 6.66989 6.78513C6.64806 6.77667 6.62454 6.7722 6.60074 6.77197V6.77286Z" fill="white" stroke="#EF2D28" stroke-width="0.0281498"/>
<path fill-rule="evenodd" clip-rule="evenodd" d="M6.17911 6.74862C6.07193 6.74862 5.98797 6.81406 5.98797 6.89537V7.05897C5.98797 7.13929 6.07371 7.20574 6.17911 7.20574C6.28271 7.20574 6.36846 7.14028 6.36846 7.05798V6.89537C6.36846 6.81406 6.28271 6.74862 6.17911 6.74862ZM6.17911 6.67921C6.13658 6.67947 6.09456 6.68441 6.05549 6.69374C6.01642 6.70307 5.98108 6.71662 5.9515 6.73359C5.92193 6.75055 5.89871 6.77061 5.88321 6.7926C5.86769 6.81458 5.86019 6.83805 5.86114 6.86166V7.09169C5.85971 7.11538 5.8668 7.13899 5.88198 7.16113C5.89716 7.18328 5.92014 7.20354 5.94957 7.2207C5.97901 7.23786 6.0143 7.25162 6.05341 7.26114C6.09251 7.27066 6.13463 7.27574 6.17732 7.27614C6.35417 7.27614 6.49529 7.19382 6.49529 7.09169V6.86166C6.49647 6.83805 6.48921 6.81455 6.47392 6.79252C6.45863 6.77049 6.43561 6.75035 6.4062 6.73329C6.37679 6.71623 6.34158 6.70258 6.3026 6.69313C6.26362 6.68367 6.22164 6.67861 6.17911 6.67822V6.67921Z" fill="white" stroke="#EF2D28" stroke-width="0.0299444"/>
<path fill-rule="evenodd" clip-rule="evenodd" d="M8.46501 6.77987C8.35785 6.77987 8.27389 6.84531 8.27389 6.92662V7.09022C8.27389 7.17054 8.35965 7.23698 8.46501 7.23698C8.56865 7.23698 8.65437 7.17153 8.65437 7.08923V6.92662C8.65437 6.84531 8.56865 6.77987 8.46501 6.77987ZM8.46501 6.71046C8.42249 6.71072 8.38049 6.71566 8.34141 6.72499C8.30233 6.73432 8.26701 6.74787 8.23741 6.76484C8.20785 6.7818 8.18465 6.80186 8.16913 6.82384C8.15361 6.84583 8.14613 6.8693 8.14705 6.8929V7.12294C8.14565 7.14663 8.15273 7.17023 8.16789 7.19238C8.18309 7.21454 8.20605 7.23478 8.23549 7.25194C8.26493 7.2691 8.30021 7.28286 8.33933 7.29238C8.37841 7.3019 8.42057 7.30698 8.46325 7.30738C8.64009 7.30738 8.78121 7.22506 8.78121 7.12294V6.8929C8.78241 6.8693 8.77513 6.8458 8.75985 6.82377C8.74457 6.80173 8.72153 6.7816 8.69213 6.76454C8.66273 6.74748 8.62749 6.73383 8.58853 6.72437C8.54953 6.71492 8.50757 6.70986 8.46501 6.70947V6.71046Z" fill="white" stroke="#EF2D28" stroke-width="0.0299444"/>
<path d="M8.26611 6.89844H7.88999C7.87739 6.89844 7.86719 6.91313 7.86719 6.93127V7.05459C7.86719 7.07271 7.87739 7.08741 7.88999 7.08741H8.26611C8.27871 7.08741 8.28895 7.07271 8.28895 7.05459V6.93127C8.28895 6.91313 8.27871 6.89844 8.26611 6.89844Z" fill="white" stroke="#EF2D28" stroke-width="0.0281498"/>
<path d="M7.71295 6.86719H7.49263C7.48551 6.86719 7.47971 6.88665 7.47971 6.91066V7.07568C7.47971 7.09969 7.48551 7.11915 7.49263 7.11915H7.71295C7.72007 7.11915 7.72583 7.09969 7.72583 7.07568V6.91066C7.72583 6.88665 7.72007 6.86719 7.71295 6.86719Z" fill="white" stroke="#EF2D28" stroke-width="0.0281498"/>
<path d="M6.55197 6.86719H6.33166C6.32453 6.86719 6.31876 6.88665 6.31876 6.91066V7.07568C6.31876 7.09969 6.32453 7.11915 6.33166 7.11915H6.55197C6.55909 7.11915 6.56487 7.09969 6.56487 7.07568V6.91066C6.56487 6.88665 6.55909 6.86719 6.55197 6.86719Z" fill="white" stroke="#EF2D28" stroke-width="0.0281498"/>
<path d="M6.01175 6.83594H5.57112C5.55687 6.83594 5.54532 6.86017 5.54532 6.89006V7.09589C5.54532 7.12578 5.55687 7.15001 5.57112 7.15001H6.01175C6.026 7.15001 6.03755 7.12578 6.03755 7.09589V6.89006C6.03755 6.86017 6.026 6.83594 6.01175 6.83594Z" fill="white" stroke="#EF2D28" stroke-width="0.0281498"/>
<path d="M9.03739 6.86719H8.62951C8.61583 6.86719 8.60471 6.89142 8.60471 6.92131V7.12714C8.60471 7.15703 8.61583 7.18126 8.62951 7.18126H9.03739C9.05111 7.18126 9.06223 7.15703 9.06223 7.12714V6.92131C9.06223 6.89142 9.05111 6.86719 9.03739 6.86719Z" fill="white" stroke="#EF2D28" stroke-width="0.0281498"/>
</g>
<defs>
<clipPath id="clip0_69_9843">
<rect width="24" height="24" rx="12" fill="white"/>
</clipPath>
</defs>
</svg>
