<svg width="24" height="24" viewBox="0 0 24 24" fill="none" xmlns="http://www.w3.org/2000/svg">
<g clip-path="url(#clip0_69_6071)">
<g clip-path="url(#clip1_69_6071)">
<mask id="mask0_69_6071" style="mask-type:luminance" maskUnits="userSpaceOnUse" x="-4" y="0" width="32" height="24">
<path d="M28 0H-4V24H28V0Z" fill="white"/>
</mask>
<g mask="url(#mask0_69_6071)">
<mask id="mask1_69_6071" style="mask-type:luminance" maskUnits="userSpaceOnUse" x="-4" y="0" width="32" height="24">
<path d="M-4 0H28V24H-4V0Z" fill="white"/>
</mask>
<g mask="url(#mask1_69_6071)">
<path d="M-4 0H28V24H-4V0Z" fill="white"/>
<path d="M0 0H24V24H0V0Z" fill="white"/>
<path fill-rule="evenodd" clip-rule="evenodd" d="M9.86489 17.0405C9.86489 17.0405 10.4049 16.6005 10.9349 16.6005C11.4649 16.6005 11.6049 16.9655 11.9749 16.9955C12.3399 17.0255 12.6449 16.6305 13.0999 16.6155C13.5549 16.6005 14.1249 16.9355 14.1249 16.9355L12.1349 17.5355L9.86489 17.0355V17.0405ZM8.71989 16.3905L15.4899 16.4255C15.4899 16.4255 14.9049 15.7905 14.2149 15.7755C13.5249 15.7655 13.7149 16.0755 13.1899 16.1155C12.6599 16.1605 12.5299 15.7955 12.0449 15.8055C11.5649 15.8205 11.2849 16.1155 10.9199 16.1305C10.5499 16.1455 10.0849 15.7655 9.80488 15.7805C9.52488 15.7955 8.52988 16.2155 8.52988 16.2155L8.71989 16.3955V16.3905ZM7.85488 15.5905L16.2049 15.6155C16.3399 15.4255 15.7949 14.9705 15.2999 14.9305C14.8899 14.9455 14.5999 15.3555 14.2599 15.3705C13.9199 15.3855 13.5399 14.9455 13.1599 14.9605C12.7799 14.9755 12.3849 15.3705 12.0049 15.3705C11.6199 15.3705 11.3449 14.9455 10.8599 14.9455C10.3749 14.9455 10.1599 15.4105 9.78989 15.3855C9.42489 15.3555 9.09989 14.9155 8.74989 14.9155C8.39989 14.9155 7.81489 15.4405 7.69989 15.4155C7.57989 15.3805 7.84488 15.6305 7.85488 15.5855V15.5905Z" fill="#083D9C" stroke="#083D9C" stroke-width="0.333333"/>
<path fill-rule="evenodd" clip-rule="evenodd" d="M11.065 10.9451L12.985 11.4551V8.71508C12.105 8.76508 11.375 7.04508 12.925 6.93008C11.4 6.71008 11.225 7.10508 11.05 7.53008L11.065 10.9451Z" fill="#FF0000" stroke="black" stroke-width="0.3125" stroke-linejoin="round"/>
<path d="M9.85001 12.9343L14.185 12.9493" stroke="#083D9C" stroke-width="0.625" stroke-linecap="round"/>
<path d="M10.0547 11.9001L10.5697 12.5851M10.0547 12.5851L10.6097 11.9101M10.3497 11.8501L10.3347 12.2751M10.8747 11.8951L11.3897 12.5851M10.8747 12.5851L11.4297 11.9101M11.1697 11.8501L11.1547 12.2751M11.7097 11.8951L12.2247 12.5851M11.7097 12.5851L12.2647 11.9101M12.0047 11.8501L11.9897 12.2751M12.5747 11.8951L13.0847 12.5851M12.5747 12.5851L13.1297 11.9101M12.8647 11.8501L12.8547 12.2751M13.4047 11.8951L13.9197 12.5851M13.4097 12.5851L13.9647 11.9101M13.6997 11.8501L13.6847 12.2751" stroke="black" stroke-width="0.5" stroke-linecap="round"/>
<path fill-rule="evenodd" clip-rule="evenodd" d="M6.93532 12.9794L8.78032 12.9944V11.8394L6.67032 11.7344L6.93532 12.9794ZM6.84532 11.3794L8.81032 11.5744L8.79532 10.7544L6.87532 9.98938L6.84532 11.3844V11.3794ZM7.24532 9.74438L8.75032 10.4744L8.96532 10.2494C8.96532 10.2494 8.82532 10.1544 8.83532 10.0644C8.83532 9.97938 8.97532 9.96438 8.97532 9.86438C8.97532 9.77938 8.82532 9.76438 8.82032 9.67938C8.81032 9.57938 8.94032 9.47938 8.94032 9.47938L7.58032 8.29438L7.24032 9.74438H7.24532ZM17.1453 12.9944H15.1953L15.1803 11.8644L17.3203 11.7044L17.1453 12.9944ZM15.2103 11.5994L17.5253 11.3194L17.0253 9.98438L15.1953 10.7644L15.2103 11.5994ZM16.8953 9.61938L15.2253 10.4994C15.2003 10.3994 15.1803 10.3094 15.0653 10.2344C15.0653 10.2344 15.1653 10.1744 15.1653 10.0744C15.1653 9.97438 15.0353 9.95438 15.0353 9.89938C15.0353 9.84438 15.1553 9.78938 15.1653 9.65438C15.1503 9.56438 15.0353 9.43438 15.0553 9.40937L16.3553 8.41938L16.8953 9.61938ZM13.2753 11.5744L14.1103 11.5394L14.1253 11.2044L13.2753 11.5744ZM10.7253 11.5494L9.85032 11.5244V11.1744L10.7303 11.5494H10.7253ZM10.7253 11.4494L9.85032 10.9994V10.4094C9.85032 10.4094 9.75032 10.4244 9.76032 10.3094C9.76532 10.0644 10.4053 10.7544 10.7303 10.9794L10.7253 11.4494ZM13.2753 11.3944V11.0094C13.2753 11.0094 14.0653 10.2994 14.2303 10.1644C14.2303 10.3144 14.1403 10.4244 14.1403 10.4244V10.9844L13.2753 11.3944ZM8.15032 8.18938L9.04032 9.17438C9.06032 9.08438 9.26532 9.06938 9.47032 9.08438C9.67032 9.09938 9.83532 9.06938 9.83532 9.21438C9.83532 9.35938 9.73532 9.33938 9.73532 9.44438C9.73532 9.54938 9.88532 9.53938 9.88532 9.66938C9.88532 9.79938 9.77532 9.77438 9.77532 9.87438C9.77532 9.95938 9.89532 9.96438 9.89532 9.96438L10.7253 10.7694V9.90937L9.01532 7.22438L8.15032 8.18938ZM9.52032 7.16938L10.6853 9.54438C10.6853 9.54438 10.6953 7.35438 10.8903 7.23938L10.5653 6.63938L9.52032 7.16938ZM14.5703 7.26438L13.2703 9.57438V8.59938C13.2703 8.59938 13.3803 8.43938 13.2103 8.44938C13.0403 8.46438 12.8353 8.43938 12.8353 8.43938L13.3553 6.60938L14.5703 7.25938V7.26438ZM15.9003 8.24938C15.8853 8.27438 15.0253 9.14938 15.0253 9.14938C14.9853 9.04938 14.7253 9.09938 14.4753 9.09938C14.2303 9.09938 14.1953 9.17938 14.2103 9.24438C14.2353 9.40938 14.3203 9.28438 14.3203 9.44438C14.3203 9.59938 14.2003 9.54438 14.1853 9.65438C14.2003 9.78938 14.3753 9.75438 14.2703 9.85438L13.2753 10.8144V9.90438L15.1303 7.02438L15.9003 8.24938Z" fill="#EF7D08"/>
<path fill-rule="evenodd" clip-rule="evenodd" d="M11.49 13.4198C11.075 14.1098 9.95999 13.9048 9.69499 13.4198C9.61999 13.3998 9.66499 10.4448 9.66499 10.4448C9.66499 10.4448 9.53999 10.3898 9.53499 10.2948C9.52999 10.2048 9.70499 10.1948 9.70499 10.0798C9.70499 9.96479 9.52499 10.0098 9.51999 9.88979C9.51999 9.77979 9.71499 9.78979 9.70499 9.68979C9.69499 9.56979 9.48999 9.58979 9.47999 9.47979C9.47999 9.39479 9.62999 9.31979 9.66999 9.27979C9.62331 9.28087 9.57667 9.28087 9.52999 9.27979L9.20999 9.28479C8.97999 9.28479 9.20999 9.33479 9.20999 9.46479C9.20999 9.54979 9.09499 9.60979 9.08499 9.67979C9.07999 9.75979 9.24499 9.80979 9.24999 9.90479C9.24999 9.98479 9.08499 9.98979 9.08999 10.0698C9.09999 10.1948 9.23999 10.2248 9.23499 10.3048C9.23499 10.3798 9.05499 10.4098 9.04999 10.4698C9.05999 10.5898 9.07999 13.5098 9.07999 13.5098C9.36499 14.9998 11.02 15.3748 11.49 13.4198ZM12.585 13.4198C13 14.1098 14.115 13.9048 14.375 13.4198C14.455 13.3998 14.41 10.4448 14.41 10.4448C14.41 10.4448 14.535 10.3898 14.54 10.2948C14.545 10.2048 14.38 10.1948 14.38 10.0798C14.38 9.96479 14.55 10.0098 14.55 9.88979C14.55 9.77979 14.375 9.78979 14.385 9.67979C14.395 9.56479 14.535 9.57979 14.54 9.46979C14.545 9.37479 14.455 9.31979 14.41 9.27979H14.545L14.865 9.28479C15.09 9.28479 14.865 9.33479 14.865 9.46479C14.865 9.54979 14.98 9.60979 14.99 9.67979C14.99 9.75979 14.83 9.80979 14.825 9.90479C14.825 9.98479 14.99 9.98979 14.985 10.0698C14.975 10.1948 14.835 10.2248 14.835 10.3048C14.84 10.3798 15.02 10.4098 15.02 10.4698L14.995 13.5098C14.71 14.9998 13.05 15.3748 12.585 13.4198Z" fill="#FF0000" stroke="black" stroke-width="0.3125" stroke-linejoin="round"/>
<path fill-rule="evenodd" clip-rule="evenodd" d="M11.0847 14.78H12.9497C12.9647 14.765 12.5297 14.13 12.0197 14.18C11.4447 14.195 11.0547 14.78 11.0847 14.78ZM17.0297 14.73H14.4797C14.4797 14.73 14.8097 14.54 14.8997 14.36C15.0647 14.45 15.0197 14.54 15.3497 14.555C15.6797 14.57 15.9947 14.18 16.3097 14.195C16.6247 14.21 17.0297 14.745 17.0297 14.735V14.73ZM6.97968 14.73H9.52968C9.52968 14.73 9.19968 14.54 9.10968 14.36C8.94468 14.45 8.98968 14.54 8.65968 14.555C8.32968 14.57 8.00968 14.18 7.69968 14.195C7.38468 14.21 6.97968 14.745 6.97968 14.735V14.73ZM7.16968 13.93L8.98468 13.945C8.98468 13.945 8.86968 13.695 8.85468 13.39C8.38468 13.23 8.00468 13.74 7.66468 13.755C7.32968 13.77 6.97968 13.39 6.97968 13.39L7.16968 13.93ZM16.8697 13.93L15.0497 13.945C15.0497 13.945 15.1647 13.695 15.1797 13.39C15.6497 13.23 16.0297 13.74 16.3697 13.755C16.7047 13.77 17.0547 13.39 17.0547 13.39L16.8647 13.93H16.8697ZM11.5497 13.95L12.4697 13.925C12.4697 13.925 12.4847 13.645 12.0047 13.645C11.5247 13.645 11.5647 13.965 11.5497 13.95ZM10.9897 13.555C11.1653 13.4782 11.3098 13.3443 11.3997 13.175L10.7697 13.19C10.7697 13.19 10.4797 13.365 10.3347 13.555H10.9897ZM13.0297 13.555C12.8541 13.4782 12.7096 13.3443 12.6197 13.175L13.2497 13.19C13.2497 13.19 13.5397 13.365 13.6847 13.555H13.0297Z" fill="#083D9C" stroke="#083D9C" stroke-width="0.333333"/>
<path fill-rule="evenodd" clip-rule="evenodd" d="M-6 18H30V24H-6V18ZM-6 0H30V6H-6V0Z" fill="#DE2010"/>
</g>
</g>
</g>
</g>
<defs>
<clipPath id="clip0_69_6071">
<rect width="24" height="24" rx="12" fill="white"/>
</clipPath>
<clipPath id="clip1_69_6071">
<rect width="32" height="24" fill="white" transform="translate(-4)"/>
</clipPath>
</defs>
</svg>
