<svg width="24" height="24" viewBox="0 0 24 24" fill="none" xmlns="http://www.w3.org/2000/svg">
<g clip-path="url(#clip0_69_9978)">
<path fill-rule="evenodd" clip-rule="evenodd" d="M-1.13428 2L-1.15491 22L12.0451 25.2L25.2451 22L-1.13428 2Z" fill="black"/>
<path fill-rule="evenodd" clip-rule="evenodd" d="M25.2245 22L25.2451 2.00005L12.0451 -1.19995L-1.15491 2.00005L25.2245 22Z" fill="#FF0000"/>
<path d="M15.1444 6.97719L14.7964 6.95876C14.6865 6.70073 14.3843 6.60856 14.192 6.71916C13.8379 6.71923 13.4838 6.71306 13.1298 6.70073L13.78 6.98643C13.9539 7.43803 14.5034 7.53019 14.5034 7.53019C14.4484 8.34123 13.6884 7.42883 13.0474 7.88963C12.5896 8.16613 12.5896 8.48869 12.3423 9.02326C12.2599 9.17073 11.9394 9.55779 11.9394 9.55779L12.4797 9.51173L12.3057 9.74213L12.9467 9.64996L12.8093 9.779C12.9009 9.79743 13.5419 9.62233 13.5419 9.62233L13.4961 9.83429L14.2287 9.56703C14.2287 9.56703 14.3752 9.68683 14.5034 9.74213L14.5949 9.37346L14.9612 9.46563L15.0528 9.097C15.6022 9.8343 15.7853 10.5716 16.7926 10.7559L16.7011 10.3873C16.9688 10.5053 17.2344 10.6282 17.4977 10.7559L17.5801 10.5993C18.0197 10.9126 18.3768 10.9034 18.624 10.9403L18.4409 10.4795L18.624 10.5716L18.3493 9.83429L18.624 9.92646L18.2578 9.37346L18.3951 9.28133L18.3493 9.00483C18.8988 9.18916 19.6313 9.46563 19.7229 10.1108C19.8144 11.1246 18.7156 11.4011 17.983 11.3089C18.5325 11.7698 19.5398 11.5854 19.9976 11.1246C20.1807 10.9403 20.2723 10.6638 20.3639 10.3873C20.4554 10.6638 20.6386 11.0324 20.6386 11.4011C20.547 12.2306 19.4482 12.5071 18.7156 12.5992C19.5398 13.06 21.0049 12.5071 21.0964 11.3089C21.0964 10.2951 20.4554 9.83429 20.1807 9.37346L20.0892 8.87579L20.3639 9.00483C20.3639 9.00483 20.1991 8.7007 20.1807 8.63616C20.1807 8.63616 19.8969 7.85276 19.7961 7.67766L19.9976 7.71453L19.2467 6.76523L19.4573 6.74679C19.4573 6.74679 18.5874 6.05556 18.3493 5.96339L18.624 5.87123C18.0746 5.59476 17.4336 5.77906 16.8842 6.14773L16.9758 5.87123L16.811 5.88966V5.56709L16.9758 5.31825L16.7011 5.22609L16.8842 4.76527L16.6095 4.85743L16.7011 4.39661C16.7011 4.39661 16.4996 4.48878 16.3714 4.47956C16.424 4.37693 16.4729 4.27241 16.5179 4.1662C16.4263 4.02795 16.5179 3.75146 16.5179 3.75146C15.8769 3.84363 15.7853 3.93579 15.4191 4.48878C14.8697 5.50259 15.0528 5.96339 15.1444 6.97719Z" fill="#FFCC00" stroke="#FFCC00" stroke-width="0.304688"/>
<path fill-rule="evenodd" clip-rule="evenodd" d="M18.6064 8.48828C18.6522 8.57125 19.1741 8.82008 19.5588 9.04128C19.458 8.61731 18.698 8.52515 18.6064 8.48828Z" fill="#FF0000" stroke="#FF0000" stroke-width="0.387784"/>
<path fill-rule="evenodd" clip-rule="evenodd" d="M6.01925 18.6257L5.4335 18.2507L4.64975 18.6299L4.82713 17.9549L4.229 17.3257L4.91788 17.284L5.33038 16.5174L5.582 17.1632L6.43588 17.3215L5.89963 17.7632L6.01925 18.6257ZM7.5125 15.334L7.24025 15.209L6.98038 15.359L7.02163 15.059L6.79888 14.8548L7.09175 14.8007L7.2155 14.5257L7.35988 14.7923L7.65688 14.8257L7.45063 15.0423L7.5125 15.334ZM8.8325 13.4507L8.23438 13.159L7.661 13.484L7.75588 12.8299L7.26913 12.3798L7.91675 12.2632L8.189 11.6632L8.5025 12.2465L9.15425 12.3215L8.7005 12.8007L8.8325 13.4507ZM6.11825 10.8257L5.417 10.4715L4.73638 10.8507L4.85188 10.0757L4.28263 9.53402L5.054 9.40902L5.384 8.70068L5.74288 9.39652L6.51838 9.49235L5.96975 10.0507L6.11825 10.8257ZM3.61025 13.5507L2.909 13.134L2.20775 13.5632L2.38513 12.759L1.76224 12.2174L2.57488 12.1423L2.8925 11.3798L3.21838 12.1382L4.03513 12.2048L3.4205 12.7465L3.61025 13.5507Z" fill="white"/>
</g>
<defs>
<clipPath id="clip0_69_9978">
<rect width="24" height="24" rx="12" fill="white"/>
</clipPath>
</defs>
</svg>
