<svg width="24" height="24" viewBox="0 0 24 24" fill="none" xmlns="http://www.w3.org/2000/svg">
<g clip-path="url(#clip0_69_10196)">
<path d="M2.40002 0H26.4V12.2H2.40002V0Z" fill="#0038A8"/>
<path d="M2.40002 12.2H26.4V24.4H2.40002V12.2Z" fill="#CE1126"/>
<path d="M17.9888 12.2L2.40002 21.2V3.19995" fill="white"/>
<path d="M3.4013 4.79028L3.93755 5.26278L4.56005 4.91778L4.28255 5.57403L4.80755 6.06153L4.09505 6.00153L3.7913 6.64654L3.63005 5.95278L2.92505 5.86278L3.5363 5.48778L3.4013 4.79028ZM15.5438 11.2515L15.5588 11.964L16.2338 12.2003L15.5588 12.4328L15.5438 13.1453L15.1125 12.579L14.43 12.7853L14.835 12.2003L14.43 11.6153L15.1125 11.8215L15.5438 11.2515ZM3.79505 17.754L4.09505 18.399L4.80755 18.339L4.2863 18.8265L4.5638 19.4828L3.9413 19.1415L3.4013 19.6065L3.5363 18.9053L2.92505 18.5378L3.6338 18.4478L3.79505 17.754ZM8.07755 8.41654L7.84505 8.64904L7.9613 10.4115L7.8488 10.4228L7.63505 8.81404L7.4438 9.00154L7.7288 10.4415C7.49834 10.4869 7.27913 10.5774 7.0838 10.7078L6.27005 9.49279H6.00005L6.99005 10.779C6.95924 10.803 6.92924 10.8281 6.90005 10.854L5.7338 9.52279H5.4038V9.85279L6.7313 11.0153L6.6563 11.109L5.37005 10.1228V10.389L6.5888 11.2028C6.4613 11.3978 6.36755 11.6153 6.32255 11.8478L4.8863 11.5628L4.69505 11.7503L6.3038 11.964C6.2963 12.0015 6.29255 12.0428 6.29255 12.0803L4.53005 11.9678L4.29755 12.2003L4.53005 12.4328L6.29255 12.3165L6.3038 12.4328L4.69505 12.6465L4.88255 12.834L6.32255 12.549C6.36791 12.7795 6.45839 12.9987 6.5888 13.194L5.37005 14.0078V14.2778L6.6563 13.2915C6.68033 13.3224 6.70532 13.3524 6.7313 13.3815L5.4038 14.544V14.874H5.73755L6.90005 13.5465L6.9938 13.6215L6.00005 14.9078H6.27005L7.0838 13.689C7.27505 13.8165 7.4963 13.9103 7.7288 13.9553L7.4438 15.3953L7.6313 15.5828L7.84505 13.974C7.88255 13.9815 7.92005 13.9853 7.9613 13.9853L7.8488 15.7478L8.07755 15.9803L8.3138 15.7478L8.19755 13.9853L8.31005 13.974L8.5238 15.5865L8.71505 15.3953L8.43005 13.9553C8.66051 13.9099 8.87972 13.8194 9.07505 13.689L9.8888 14.9078H10.1588L9.1688 13.6215C9.19961 13.5975 9.22961 13.5725 9.2588 13.5465L10.425 14.874H10.755V14.544L9.42755 13.3815L9.50255 13.2915L10.7888 14.2778V14.0078L9.57005 13.194C9.69755 13.0028 9.7913 12.7815 9.8363 12.549L11.2725 12.834L11.4638 12.6465L9.85505 12.4328C9.86255 12.3953 9.8663 12.3578 9.8663 12.3165L11.6288 12.429L11.8613 12.2003L11.6288 11.9678L9.8663 12.0803L9.85505 11.9678L11.4638 11.754L11.2763 11.5665L9.8363 11.8478C9.79094 11.6173 9.70046 11.3981 9.57005 11.2028L10.7888 10.389V10.1228L9.50255 11.109C9.47852 11.0782 9.45353 11.0482 9.42755 11.019L10.755 9.85654V9.52279H10.425L9.26255 10.854C9.23213 10.828 9.20087 10.803 9.1688 10.779L10.1588 9.49279H9.8888L9.07505 10.7078C8.8838 10.5803 8.66255 10.4865 8.43005 10.4415L8.71505 9.00529L8.52755 8.81779L8.3138 10.4228L8.19755 10.4115L8.31005 8.64904L8.07755 8.41654Z" fill="#FCD116"/>
</g>
<defs>
<clipPath id="clip0_69_10196">
<rect width="24" height="24" rx="12" fill="white"/>
</clipPath>
</defs>
</svg>
