<svg width="24" height="24" viewBox="0 0 24 24" fill="none" xmlns="http://www.w3.org/2000/svg">
<g clip-path="url(#clip0_69_9949)">
<path fill-rule="evenodd" clip-rule="evenodd" d="M-1.60001 -1.19995H25.6V25.6H-1.60001V-1.19995Z" fill="#0C590B"/>
<path fill-rule="evenodd" clip-rule="evenodd" d="M-1.60001 -3.19995H5.19999V27.6H-1.60001V-3.19995Z" fill="white"/>
<path fill-rule="evenodd" clip-rule="evenodd" d="M16.0301 11.1243L14.9332 10.8923L14.3566 11.852L14.2371 10.7411L13.1472 10.488L14.1668 10.0309L14.0718 8.9165L14.8242 9.74618L15.8543 9.31025L15.2953 10.2806L16.0336 11.1243H16.0301Z" fill="white"/>
<path fill-rule="evenodd" clip-rule="evenodd" d="M16.4414 13.9578C16.2074 14.4683 15.8748 14.9275 15.4628 15.3091C15.0507 15.6906 14.5673 15.987 14.0403 16.1811C13.5133 16.3751 12.9531 16.4631 12.392 16.4399C11.8309 16.4168 11.2799 16.2829 10.7707 16.046C9.73756 15.5677 8.9368 14.6986 8.54452 13.6298C8.15221 12.5611 8.20054 11.3803 8.67886 10.3472C8.91643 9.81614 9.26248 9.34067 9.69478 8.95133C10.1271 8.56202 10.6361 8.26748 11.189 8.08667C11.0443 8.20718 10.9058 8.3351 10.7742 8.46986C10.0883 9.22949 9.72418 10.2258 9.75862 11.2486C9.79306 12.2715 10.2234 13.2411 10.9588 13.9528C11.6943 14.6645 12.6774 15.0629 13.7009 15.0638C14.7243 15.0647 15.7082 14.6682 16.4449 13.9578H16.4414Z" fill="white"/>
</g>
<defs>
<clipPath id="clip0_69_9949">
<rect width="24" height="24" rx="12" fill="white"/>
</clipPath>
</defs>
</svg>
