<svg width="24" height="24" viewBox="0 0 24 24" fill="none" xmlns="http://www.w3.org/2000/svg">
<g clip-path="url(#clip0_69_10204)">
<g clip-path="url(#clip1_69_10204)">
<mask id="mask0_69_10204" style="mask-type:luminance" maskUnits="userSpaceOnUse" x="-4" y="0" width="32" height="24">
<path d="M28 0H-4V24H28V0Z" fill="white"/>
</mask>
<g mask="url(#mask0_69_10204)">
<path d="M-4 0H28V24H-4V0Z" fill="#00247D"/>
<path d="M-4 0H12V12H-4V0Z" fill="#012169"/>
<path d="M-2.125 0L3.975 4.525L10.05 0H12V1.55L6 6.025L12 10.475V12H10L4 7.525L-1.975 12H-4V10.5L1.975 6.05L-4 1.6V0H-2.125Z" fill="white"/>
<path d="M6.6 7.025L12 11V12L5.225 7.025H6.6ZM2 7.525L2.15 8.4L-2.65 12H-4L2 7.525ZM12 0V0.075L5.775 4.775L5.825 3.675L10.75 0H12ZM-4 0L1.975 4.4H0.475L-4 1.05V0Z" fill="#C8102E"/>
<path d="M2.025 0V12H6.025V0H2.025ZM-4 4V8H12V4H-4Z" fill="white"/>
<path d="M-4 4.825V7.225H12V4.825H-4ZM2.825 0V12H5.225V0H2.825Z" fill="#C8102E"/>
<path d="M16.5044 12.6158C16.0538 12.9718 15.7224 13.4567 15.5544 14.0058C15.2694 15.3708 14.8894 15.6758 14.3044 15.3808C14.3044 16.1158 14.9494 16.1708 15.2294 15.7458C15.2294 16.4308 15.4794 17.0258 16.0394 17.5358C16.2794 17.7508 16.3244 17.6058 16.2094 17.3658C16.0994 17.1308 16.0994 16.3658 15.8744 15.9258C16.2344 16.1808 16.7644 16.0358 16.7244 15.3258C16.2594 15.5958 15.7994 15.5858 15.7494 14.9408C15.6944 14.1908 15.9844 13.0908 16.5044 12.6158ZM15.9544 7.18578C15.9894 6.91078 15.9294 6.63578 15.7294 6.46078C15.3494 6.12578 14.9744 6.23578 14.6944 6.51078C14.2794 6.28078 14.0544 7.08078 13.5844 6.94578C13.6594 7.20578 13.7844 7.31578 14.0244 7.22578C13.7744 7.45078 14.0244 7.72578 13.7294 7.99578C14.2594 8.16578 14.5394 7.87078 14.5194 7.36078C14.5663 7.4041 14.6215 7.43758 14.6816 7.4593C14.7416 7.48102 14.8054 7.49054 14.8692 7.48726C14.933 7.48402 14.9955 7.46806 15.0531 7.4403C15.1106 7.41258 15.1621 7.37366 15.2044 7.32578C14.9244 7.23578 14.9244 6.99078 15.0344 6.76578C15.2044 6.42578 15.9994 6.44078 15.9544 7.18578Z" fill="#F7E017" stroke="black" stroke-width="0.05"/>
<path d="M17.1806 11.1051C16.5806 11.4251 15.4906 11.2901 15.3856 10.5051C15.2856 9.7301 16.0406 9.3801 16.2456 9.2801C16.5606 9.1201 16.8106 9.4051 16.7056 9.7301C17.0556 9.6101 17.1356 9.2001 16.9656 8.9651C17.4306 9.0001 17.8556 8.6501 18.0356 8.1551C17.8756 8.3051 17.4356 8.2051 17.0706 8.1801C17.1806 8.0551 17.1806 7.8151 17.1456 7.6901C16.7656 8.0851 16.2106 7.9051 15.4806 9.0401C15.6521 8.42482 15.8122 7.80638 15.9606 7.1851C16.0006 6.4351 15.2106 6.4251 15.0406 6.7651C15.2256 6.9751 15.1256 7.2151 15.0606 7.5901C14.9806 8.0251 14.8106 9.0401 14.6656 9.3801C14.6206 8.8501 14.2706 8.8151 14.2056 8.5551C14.1056 8.6251 14.0456 8.8051 14.0706 8.9301C13.9456 8.7951 13.5156 8.9651 13.3556 8.7601C13.1906 9.0951 13.4556 9.4351 13.7406 9.5851C13.5756 9.5951 13.5406 9.7901 13.3556 9.7901C13.6006 10.0751 13.8506 10.1901 14.1356 10.2101C14.4256 10.2301 14.6356 10.3401 14.8106 10.6901C15.0956 11.2551 16.1706 11.6201 17.1806 11.1051Z" fill="#337321" stroke="black" stroke-width="0.05"/>
<path d="M18.6705 10.4203C18.3305 11.3553 17.4055 12.0203 16.9905 12.1203C16.2805 12.2953 14.8305 13.0003 14.4405 13.3603C14.3835 13.3492 14.3292 13.3271 14.2805 13.2953C14.0905 13.1603 13.9305 12.7203 14.2705 12.3453C15.3305 11.3553 16.4705 11.7853 17.1805 11.1053C16.5805 11.4203 15.4905 11.2853 15.3905 10.5053C15.8755 10.6313 16.3856 10.6225 16.8658 10.4798C17.3461 10.337 17.7782 10.0658 18.1155 9.69531C18.321 9.91931 18.5052 10.162 18.6655 10.4203H18.6705Z" fill="#F7E017" stroke="black" stroke-width="0.05"/>
<path d="M16.5057 12.6156C15.9707 13.0656 15.6957 14.1856 15.7507 14.9406C15.7657 15.1506 15.8257 15.2906 15.9157 15.3806C15.9557 14.9506 16.2507 13.8456 17.0157 13.3506C17.6557 12.9356 18.6607 12.0006 19.0307 10.9256C18.9592 10.7294 18.8188 10.5659 18.6357 10.4656C18.2657 11.4756 17.2807 11.9606 16.5057 12.6156Z" fill="#337321" stroke="black" stroke-width="0.05"/>
<path d="M18.3243 9.98495C18.0585 10.3544 17.6973 10.6447 17.2793 10.825C17.3582 10.729 17.4023 10.6092 17.4043 10.485C16.7453 10.6732 16.0479 10.6818 15.3843 10.51C15.87 10.637 16.3811 10.6286 16.8624 10.4858C17.3436 10.343 17.7766 10.0713 18.1143 9.69995C18.2 9.78239 18.271 9.87875 18.3243 9.98495Z" fill="#316D3A" stroke="black" stroke-width="0.05"/>
<path d="M14.2694 12.3502C13.4094 13.1502 13.9794 13.8602 14.3194 14.0152C14.2244 14.5802 14.7544 14.5152 14.7444 14.9852C14.9594 14.8652 15.0144 14.5352 14.9794 14.2752C15.2544 14.5702 15.9394 14.2402 16.0844 14.7852C16.1794 14.1852 15.7144 13.5852 15.1394 13.6452C15.3794 13.4302 15.2394 13.0802 15.0144 12.9902C14.9694 13.4302 14.4744 13.4302 14.2844 13.2902C14.0894 13.1602 13.9344 12.7202 14.2694 12.3452V12.3502Z" fill="#337321" stroke="black" stroke-width="0.05"/>
<path d="M16.1346 17.4799C16.0446 17.5299 16.0496 17.6549 16.1096 17.7299C16.2246 17.8899 16.0246 18.2499 16.4096 18.3249C16.5196 18.3499 16.6096 18.2749 16.6496 18.1499C16.7696 17.7949 16.3896 17.7549 16.3546 17.5849C16.3246 17.4149 16.2146 17.4349 16.1346 17.4799Z" fill="#F7E017" stroke="black" stroke-width="0.05"/>
<path d="M16.4593 18.145C16.3343 18.205 16.2193 18.285 16.2743 18.695C16.2943 18.86 16.2843 19.265 16.1343 19.27C16.2243 19.32 16.4193 19.37 16.4993 19.26C16.5743 19.39 16.7493 19.35 16.8143 19.195C16.9043 19.265 17.0293 19.145 17.0293 19.035C17.1043 19.085 17.2643 19.015 17.2243 18.77C17.3243 18.805 17.4443 18.735 17.4893 18.675C17.3493 18.645 16.9893 18.455 16.9093 18.305C16.8243 18.15 16.6093 18.075 16.4593 18.145Z" fill="#F7E017" stroke="black" stroke-width="0.05"/>
<path d="M14.5 6.73464C14.56 6.65464 14.625 6.57464 14.7 6.50464M16.65 8.22964C16.75 8.17464 16.9 8.16464 17.07 8.17964M16.5 19.2596C16.46 19.2046 16.445 18.9696 16.47 18.8246M16.815 19.1946C16.75 19.1446 16.635 18.9796 16.615 18.8396M17.03 19.0346C16.8838 18.9203 16.7743 18.7656 16.715 18.5896M17.225 18.7696C17.13 18.7496 16.845 18.5646 16.725 18.3696" stroke="black" stroke-width="0.05"/>
<path d="M22.425 12.3594C23.81 13.5194 23.9 14.4444 23.69 14.9844C23.575 14.4794 23 13.6894 22.4 13.4844L22.425 12.3594Z" fill="#F7E017" stroke="black" stroke-width="0.05"/>
<path d="M19.9453 11.7H22.5153V14.75C22.5153 17.345 21.0753 18.875 19.6053 19.69C18.7074 19.2207 17.9592 18.509 17.4457 17.6358C16.9321 16.7625 16.6739 15.7627 16.7003 14.75V11.7H18.5003C18.5003 11.86 18.5203 12.1 18.7003 12.335C19.1303 12.295 19.6103 11.975 19.9453 11.705V11.7Z" fill="#337321" stroke="black" stroke-width="0.05"/>
<path d="M22.5153 11.7V14.75C22.5153 15.53 22.3853 16.22 22.1653 16.815L19.6003 12.13L17.0503 16.815C16.8253 16.215 16.6953 15.53 16.6953 14.75V11.7H22.5153Z" fill="#006EC7" stroke="black" stroke-width="0.05"/>
<path d="M22.24 16.5952C22.1844 16.7647 22.121 16.9315 22.05 17.0952L19.6 12.5502L17.165 17.1002C17.1 16.9602 17.02 16.7352 16.975 16.6002L19.61 11.7202L22.24 16.5952Z" fill="#F7E017"/>
<path d="M20.7646 18.2657L21.0146 18.3807C21.1436 18.0676 21.1818 17.7245 21.1246 17.3907C20.9796 17.7607 20.4846 17.7507 20.3496 17.9757C20.4296 18.0157 20.5096 18.0757 20.5746 18.1207C20.4046 18.2907 20.0096 18.5707 19.7846 18.6407V16.2207C19.7846 16.0507 19.7246 15.9107 19.7246 15.7707V15.2707C19.7246 15.1557 19.7046 14.9907 19.6046 14.9907C19.5046 14.9907 19.4796 15.1557 19.4796 15.2707V15.7707C19.4796 15.9107 19.4246 16.0707 19.4246 16.2207V18.6407C19.2996 18.2807 18.8146 18.4007 18.5896 18.0407C18.6781 18.0199 18.7698 18.0165 18.8596 18.0307C18.6896 17.4557 18.2246 17.4107 18.1396 17.2407C18.1396 17.4807 18.0396 18.0307 18.1946 18.2707C18.2296 18.2257 18.2846 18.1807 18.3446 18.1457C18.5396 18.5607 19.3996 18.5607 19.6046 19.2507C19.7696 19.0007 20.3546 18.7007 20.7646 18.2657Z" fill="#F7E017" stroke="black" stroke-width="0.05"/>
<path d="M19.6047 16.2495C19.7947 16.2495 20.4047 16.1895 20.6247 16.1895C20.6847 16.1895 20.7297 16.0995 20.7297 15.9945C20.7297 15.8945 20.6847 15.8045 20.6297 15.8045C20.4047 15.8045 19.7997 15.7445 19.6047 15.7445C19.4147 15.7445 18.8047 15.8045 18.5847 15.8045C18.5247 15.8045 18.4797 15.8895 18.4797 15.9945C18.4797 16.0995 18.5297 16.1895 18.5797 16.1895C18.8047 16.1895 19.4147 16.2495 19.6047 16.2495ZM19.4797 15.2595C19.4397 15.2245 19.3897 15.2095 19.3297 15.2095C19.1997 15.2095 19.0947 15.2995 19.0947 15.4145C19.0947 15.5345 19.1997 15.6295 19.3297 15.6295C19.4547 15.6295 19.5597 15.5295 19.5597 15.4145C19.5597 15.3245 19.6897 15.3245 19.6897 15.4145C19.6897 15.5995 19.5297 15.7495 19.3297 15.7495C19.1297 15.7495 18.9647 15.5995 18.9647 15.4145C18.9647 15.2345 19.1297 15.0845 19.3297 15.0845C19.3869 15.0859 19.4432 15.0995 19.4947 15.1245C19.4947 15.1545 19.4797 15.2095 19.4797 15.2595Z" fill="#F7E017" stroke="black" stroke-width="0.05"/>
<path d="M18.5844 16.1897C18.6394 16.1897 18.6844 16.0997 18.6844 15.9947C18.6844 15.8947 18.6394 15.8047 18.5844 15.8047" fill="#F7E017"/>
<path d="M18.5844 16.1897C18.6394 16.1897 18.6844 16.0997 18.6844 15.9947C18.6844 15.8947 18.6394 15.8047 18.5844 15.8047" stroke="black" stroke-width="0.05"/>
<path d="M18.67 16.19C18.725 16.19 18.77 16.1 18.77 15.995C18.77 15.895 18.725 15.805 18.67 15.805M19.225 16.225C19.295 16.225 19.35 16.125 19.35 15.995C19.35 15.87 19.3 15.765 19.225 15.765M19.355 16.235C19.43 16.235 19.485 16.13 19.485 15.995C19.485 15.86 19.43 15.755 19.355 15.755M19.79 16.24C19.865 16.24 19.92 16.13 19.92 15.995C19.92 15.86 19.86 15.75 19.79 15.75M19.925 16.23C19.995 16.23 20.055 16.13 20.055 15.995C20.055 15.865 19.995 15.76 19.925 15.76M20.53 16.19C20.59 16.19 20.635 16.105 20.635 15.995C20.635 15.885 20.59 15.795 20.535 15.795M18.35 18.145C18.415 18.1 18.5 18.065 18.59 18.045L18.35 18.145ZM20.765 18.265C20.925 18.095 21.055 17.9 21.13 17.68L20.765 18.265Z" fill="#F7E017"/>
<path d="M18.67 16.19C18.725 16.19 18.77 16.1 18.77 15.995C18.77 15.895 18.725 15.805 18.67 15.805M19.225 16.225C19.295 16.225 19.35 16.125 19.35 15.995C19.35 15.87 19.3 15.765 19.225 15.765M19.355 16.235C19.43 16.235 19.485 16.13 19.485 15.995C19.485 15.86 19.43 15.755 19.355 15.755M19.79 16.24C19.865 16.24 19.92 16.13 19.92 15.995C19.92 15.86 19.86 15.75 19.79 15.75M19.925 16.23C19.995 16.23 20.055 16.13 20.055 15.995C20.055 15.865 19.995 15.76 19.925 15.76M20.53 16.19C20.59 16.19 20.635 16.105 20.635 15.995C20.635 15.885 20.59 15.795 20.535 15.795M18.35 18.145C18.415 18.1 18.5 18.065 18.59 18.045M20.645 18.165L20.575 18.115M20.765 18.265C20.925 18.095 21.055 17.9 21.13 17.68" stroke="black" stroke-width="0.05"/>
<path d="M19.0906 13.8604C19.0906 13.8004 19.1356 13.7804 19.1906 13.7404C19.2506 13.6904 19.2756 13.6704 19.3356 13.6704H20.0756C20.1256 13.6704 20.1406 13.6854 20.1406 13.7354V14.7354C20.1406 14.7854 20.1306 14.8054 20.0756 14.8054H19.0906V13.8454" fill="white"/>
<path d="M19.0906 13.8604C19.0906 13.8004 19.1356 13.7804 19.1906 13.7404C19.2506 13.6904 19.2756 13.6704 19.3356 13.6704H20.0756C20.1256 13.6704 20.1406 13.6854 20.1406 13.7354V14.7354C20.1406 14.7854 20.1306 14.8054 20.0756 14.8054H19.0906V13.8454" stroke="black" stroke-width="0.05"/>
<path d="M19.8897 14.8895C19.9897 14.8895 19.9697 14.8895 20.0397 14.8195C20.1097 14.7495 20.1047 14.7545 20.1047 14.6895V13.7695C20.1047 13.7195 20.0897 13.7095 20.0397 13.7095H19.3547C19.3047 13.7095 19.2797 13.7295 19.2197 13.7745C19.1697 13.8145 19.1297 13.8345 19.1297 13.8845V14.8895H19.8897Z" fill="#E5E5E5" stroke="black" stroke-width="0.05"/>
<path d="M19.9656 14.87C19.9656 14.92 19.9506 14.935 19.8956 14.935H19.1556C19.1006 14.935 19.0906 14.92 19.0906 14.87V13.865C19.0906 13.815 19.1006 13.8 19.1556 13.8H19.8956C19.9506 13.8 19.9656 13.815 19.9656 13.865V14.87Z" fill="white" stroke="black" stroke-width="0.05"/>
<path d="M21.3993 11.1155C21.5393 11.2755 21.5893 11.4905 21.5093 11.7055H21.2993C21.3893 11.4305 21.3343 11.1755 20.9493 11.1405C20.3793 11.0905 19.7093 12.2005 18.7043 12.3355C18.4143 11.9855 18.4293 11.3205 18.8043 11.0055C18.6113 10.4729 18.31 9.98593 17.9193 9.57553C17.7426 9.54645 17.5634 9.53473 17.3843 9.54053C17.5343 9.22053 17.9493 8.89053 18.2893 8.75553C18.3434 8.67861 18.4001 8.60357 18.4593 8.53053C18.4943 8.09553 20.5593 8.29553 20.9943 8.56553C20.9943 9.05553 21.1893 10.6755 21.4043 11.1155H21.3993Z" fill="#96877D" stroke="black" stroke-width="0.05"/>
<path d="M18.9007 11.4096C18.8507 10.6596 18.5457 10.0396 18.1157 9.61963C18.2681 9.65587 18.4262 9.6613 18.5808 9.63554C18.7354 9.60978 18.8832 9.55335 19.0157 9.46963C19.3907 9.21963 20.3657 8.78962 20.7157 8.97462C20.7457 9.03962 20.7657 9.17463 20.7407 9.26963C20.6557 9.04463 19.7207 9.38962 19.4557 9.49962C19.2057 9.61462 19.0907 9.77463 19.1807 10.1296C19.0307 10.0046 19.0807 9.88962 18.9307 9.79962C18.9907 9.94462 19.0407 10.2096 19.0607 10.4246C19.0007 10.2746 18.9007 9.94462 18.6807 9.74962C18.9124 10.2987 19.0084 10.8955 18.9607 11.4896C19.1107 11.4896 19.4507 11.3396 19.5807 11.2396C19.4657 11.4046 19.1207 11.5246 18.9057 11.5696C18.7959 11.7467 18.7387 11.9513 18.7407 12.1596C18.7257 11.9496 18.7907 11.4446 18.8957 11.4096H18.9007ZM21.4007 11.1146C21.2107 10.9046 20.8657 10.7946 20.4207 10.9146C20.5286 10.8619 20.6429 10.8232 20.7607 10.7996C20.7457 10.6846 20.6407 10.1746 20.6207 10.0496L20.7457 9.99962C20.8107 10.3046 20.8857 10.6546 20.9357 10.7996C20.9757 10.8046 21.0657 10.8246 21.1457 10.8646C21.1107 10.7446 20.9207 9.89463 20.9257 9.80463L21.0957 9.71462C21.1468 10.1904 21.2474 10.6596 21.3957 11.1146H21.4007Z" fill="black"/>
<path d="M21.3003 11.7005C21.3853 11.4355 21.3303 11.1755 20.9503 11.1405C20.6503 11.1155 20.3303 11.4055 19.9503 11.7055L21.3003 11.7005ZM18.8053 9.27553C18.5562 9.29173 18.3061 9.26641 18.0653 9.20053C18.0753 9.15053 18.0953 9.10053 18.1203 9.04053C17.966 9.13701 17.8233 9.25109 17.6953 9.38053C17.9653 9.44053 18.5253 9.46553 18.8053 9.27553Z" fill="#96877D" stroke="black" stroke-width="0.05"/>
<path d="M18.8006 10.9996C18.8606 11.1846 18.9006 11.3596 18.9056 11.5146M18.2856 8.75464C18.1856 8.90464 18.0956 9.06464 18.0656 9.20464C18.3071 9.2666 18.5568 9.2902 18.8056 9.27464" stroke="black" stroke-width="0.05"/>
<path d="M17.9203 9.57531C17.9903 9.59031 18.0603 9.60031 18.1203 9.62031C18.3203 9.67531 18.7353 9.67531 19.0203 9.47031C19.3003 9.27031 20.0703 8.63531 20.9353 8.57031" stroke="black" stroke-width="0.05"/>
<path d="M17.6953 9.37942C17.9653 9.43942 18.5253 9.46442 18.8053 9.27442C19.3652 8.8561 20.0295 8.6001 20.7253 8.53442" stroke="black" stroke-width="0.05"/>
<path d="M22.425 12.36C23.375 13.01 24.075 13.645 24.275 14.66C24.475 15.675 24.86 15.945 25.335 15.675C25.225 16.26 24.635 16.325 24.14 15.875C24.19 16.555 23.915 17.365 23.215 17.66C23.17 17.255 23.44 16.93 23.365 16.6C23.33 16.45 23.315 16.115 23.51 15.955C23.135 16.08 22.55 15.845 22.495 15.29C22.925 15.49 23.475 15.525 23.69 14.985C23.9 14.445 23.81 13.52 22.425 12.36ZM23.62 7.08004C23.915 6.31504 24.68 6.39504 24.94 6.72004C25.695 6.29004 25.8 7.26004 26.44 7.07004C26.43 7.25004 26.215 7.42004 25.98 7.40504C26.23 7.63004 25.88 7.97004 26.405 8.17504C25.955 8.40004 25.325 8.16504 25.155 7.54004C25.005 7.83504 24.48 7.83504 24.265 7.60004C24.725 7.47504 24.695 7.05004 24.435 6.87504C24.17 6.70504 23.71 6.77504 23.62 7.08004ZM21.335 8.77004C21.5524 9.43552 21.9362 10.0345 22.45 10.51C22.99 11.01 23.805 10.88 24.265 10.41C24.275 11.35 23.295 11.425 22.755 11.13C22.515 11 22.32 11.065 22.55 11.28C22.9 11.59 23.665 11.83 24.57 12.02C26.145 12.36 25.585 13.61 25.12 13.6C25.255 13.6 25.365 13.455 25.17 13.285C23.8 12.05 21.02 12.535 21.06 9.78504C20.77 10.51 19.56 10.225 20.125 9.37004C20.305 9.51504 20.625 9.52504 20.71 9.30004C20.78 9.12504 20.735 8.82004 20.42 8.55504C20.47 8.55504 20.585 8.55504 20.57 8.42504C20.585 8.50504 20.655 8.61504 20.835 8.57504C20.885 8.66004 20.935 8.71004 21.01 8.68004C21.025 8.68004 21.065 8.65504 21.05 8.57504C21.06 8.72504 21.24 8.78004 21.335 8.77004Z" fill="#337321" stroke="black" stroke-width="0.05"/>
<path d="M22.7504 11.1298C23.4054 11.5548 24.1504 11.5548 24.8254 10.7698C25.0404 10.5198 25.3754 10.3048 25.6154 10.2848C25.8554 10.2598 25.8404 10.0348 26.0204 9.98482C25.9104 9.95482 25.8654 9.81982 25.6954 9.83482C26.1204 9.68982 25.9954 9.34982 26.2004 9.18482C26.0304 9.24982 25.7704 8.99982 25.5254 9.31982C25.5904 9.16982 25.5004 8.99982 25.4404 8.92982C25.4654 9.09982 25.1104 9.12982 25.0404 9.55982C25.0054 9.79982 24.8704 9.78982 24.8504 9.41482C24.8354 9.14482 24.7004 8.38982 24.5504 8.00482C24.3904 7.62482 24.3504 7.09482 24.5654 7.01982C24.5345 6.96294 24.4898 6.91482 24.4354 6.87982C24.1704 6.70982 23.7104 6.77982 23.6204 7.07982C23.3304 7.84982 24.1504 8.28982 24.0854 9.12482C23.9604 8.50482 22.9554 8.34482 22.9654 7.73482C22.6404 7.88482 22.6854 8.15482 22.8104 8.36982C22.6104 8.05482 22.1454 8.56982 21.7504 8.14482C21.7004 8.70982 22.2004 8.91982 22.6054 8.94482C22.4054 9.30482 22.6754 9.60982 22.9454 9.70982C22.9554 9.07982 24.2504 9.33482 24.2654 10.4198C24.2754 11.3448 23.2804 11.4198 22.7504 11.1298ZM24.5704 12.0198C26.1454 12.3598 25.5854 13.6098 25.1204 13.5998C24.8254 13.5898 24.5454 13.3448 24.5304 13.1298C24.1904 13.3098 24.2804 13.6648 24.5404 13.8048C23.8304 13.7248 23.5304 14.1898 23.5154 14.7048C23.6454 14.4648 24.0354 14.4548 24.1854 14.5048C24.3354 14.5548 24.7104 14.5798 24.8604 14.4048C24.7354 14.5148 24.9404 14.7648 24.7604 14.9548C25.3604 14.9348 25.6154 14.3798 25.5104 14.1398C26.2804 13.4398 26.1354 12.2998 24.5704 12.0198ZM23.3654 17.3798C23.4654 17.4398 23.4554 17.5798 23.3854 17.6648C23.2454 17.8348 23.4554 18.2398 23.0254 18.3148C22.9004 18.3298 22.8054 18.2498 22.7654 18.1048C22.6454 17.7048 23.0704 17.6748 23.1154 17.4898C23.1654 17.2998 23.2804 17.3248 23.3654 17.3798Z" fill="#F7E017" stroke="black" stroke-width="0.05"/>
<path d="M22.9797 18.1048C23.1147 18.1748 23.2347 18.2748 23.1647 18.7248C23.1297 18.9098 23.1247 19.3648 23.2897 19.3748C23.1897 19.4248 22.9697 19.4698 22.8897 19.3498C22.7947 19.4898 22.6047 19.4398 22.5397 19.2598C22.4297 19.3398 22.2997 19.1948 22.3047 19.0748C22.2147 19.1248 22.0397 19.0398 22.0947 18.7748C21.9847 18.8048 21.8497 18.7248 21.8047 18.6548C21.9597 18.6248 22.3647 18.4298 22.4697 18.2648C22.5697 18.0948 22.8197 18.0248 22.9797 18.1048Z" fill="#F7E017" stroke="black" stroke-width="0.05"/>
<path d="M22.8853 19.3502C22.9353 19.2902 22.9603 19.0252 22.9353 18.8652M22.5353 19.2602C22.6103 19.2102 22.7453 19.0352 22.7753 18.8752M22.3003 19.0752C22.4669 18.9517 22.5952 18.7835 22.6703 18.5902M22.0953 18.7752C22.1953 18.7552 22.5253 18.5602 22.6653 18.3452" stroke="black" stroke-width="0.05"/>
<path d="M21.0607 9.78969C21.0407 10.9397 21.5207 11.5297 22.1907 11.9097C21.9407 11.7597 22.0507 11.2547 21.7157 11.0897C21.7957 11.0847 21.9157 11.1947 22.1157 11.1497C22.0157 10.9397 21.8657 10.6097 21.4957 10.5647C21.5957 10.5547 21.7957 10.5897 21.9357 10.5397C21.7457 10.2397 21.2357 10.3847 21.0607 9.78969ZM20.9407 8.68969C20.9007 8.67469 20.8657 8.63469 20.8357 8.57969C20.6557 8.61969 20.5857 8.50469 20.5707 8.42969C20.5857 8.55969 20.4707 8.55469 20.4207 8.55969C20.7357 8.81969 20.7807 9.12469 20.7107 9.29969C20.6207 9.52469 20.3107 9.51469 20.1257 9.36969C20.1007 9.84969 20.7257 10.0047 20.9507 9.40469C20.9507 9.50469 21.0807 9.49469 21.1107 9.62969C21.2707 9.36969 21.1507 8.99469 20.9407 8.68969Z" fill="#F7E017" stroke="black" stroke-width="0.05"/>
<path d="M19.9504 6.39956C19.6979 6.14948 19.5541 5.80992 19.5504 5.45456C19.5604 5.20456 19.6604 4.93956 20.0254 5.05456C19.9104 5.05456 19.9904 5.27456 19.8754 5.29956C19.9654 5.33456 20.0954 5.25456 20.1154 5.19956C20.1354 5.27956 20.2854 5.25956 20.2954 5.34956C20.3504 5.30456 20.2904 5.08456 20.2054 5.03956C20.2654 5.00456 20.3054 4.82956 20.2754 4.74456C20.2154 4.75456 20.1304 4.83456 20.1154 4.94956C20.1454 4.85956 20.1104 4.63456 19.9504 4.59956C19.9054 4.65956 19.8954 4.81456 19.9554 4.89956C19.8104 4.86456 19.5954 4.95956 19.5454 5.08456C19.5554 4.93456 19.5754 4.71956 19.6704 4.58456C19.7004 4.54456 19.6204 4.46456 19.5654 4.56956C19.4554 4.35456 19.1654 4.24456 19.0304 4.34956C18.9004 4.45956 18.7304 4.29956 18.6204 4.46956C18.5154 4.63956 18.1504 4.65456 18.1704 4.83456C18.1804 4.94456 18.1554 5.10956 18.1004 5.16956C17.9704 5.31456 18.1654 5.41956 18.2004 5.54956C18.1754 5.12456 18.8554 4.28956 19.5404 4.61456C19.4573 4.79704 19.4115 4.9942 19.4054 5.19456C19.3754 5.57956 19.4354 6.11956 19.8054 6.43956L19.9504 6.39956Z" fill="#337321" stroke="black" stroke-width="0.05"/>
<path d="M20.15 5.05509C20.15 4.95509 20.325 4.82009 20.56 4.82509C20.845 4.82509 21.06 5.08509 21.29 5.06009C21.52 5.03509 21.41 5.16009 21.36 5.20009C21.31 5.23009 21.285 5.28009 21.3 5.34509C21.315 5.40509 21.29 5.44509 21.2 5.39009C20.995 5.26009 20.79 5.44009 20.52 5.34009C20.295 5.25509 20.16 5.20509 20.15 5.05509Z" fill="#C8102E" stroke="black" stroke-width="0.05"/>
<path d="M18.9897 7.72005C18.8404 7.36549 18.5763 7.07137 18.2397 6.88505L18.2297 6.69505C18.4134 6.59025 18.5831 6.46257 18.7347 6.31505C19.5847 6.71505 20.7347 6.14505 21.2647 5.55005L21.4647 5.67005L21.3647 5.80505L21.2597 5.75005C21.0258 6.00669 20.7716 6.24413 20.4997 6.46005C20.6947 6.51005 20.9647 6.54505 21.0397 6.54005C21.5097 6.20005 21.8847 5.89505 22.0647 5.87505L22.2147 6.07505L22.0797 6.17505L21.9747 6.11005C21.4023 6.65389 20.9552 7.31589 20.6647 8.05005C20.3497 7.98005 19.2197 8.02505 18.9897 7.72005Z" fill="#96877D" stroke="black" stroke-width="0.05"/>
<path d="M20.5003 6.4599C20.4253 6.4399 20.3603 6.4199 20.3253 6.3999C20.1437 6.51238 19.934 6.5713 19.7203 6.5699" stroke="black" stroke-width="0.05"/>
<path d="M19.0344 7.59553C18.9594 7.17553 19.0844 6.70553 19.2944 6.56553C19.5591 6.72061 19.8612 6.80025 20.1679 6.79585C20.4746 6.79145 20.7743 6.70313 21.0344 6.54053" stroke="black" stroke-width="0.05"/>
<path d="M19.0344 7.37438C19.3944 7.36438 20.1844 7.42438 20.3694 7.44938C20.5644 7.47938 20.8844 7.55938 20.8394 7.65438M19.1994 7.31438L19.3044 7.21438L19.2044 7.10938L19.0994 7.20937L19.1994 7.31438Z" stroke="black" stroke-width="0.05"/>
<path d="M19.4497 5.21445C19.3197 5.03445 18.9597 4.97445 18.8847 5.21445C18.8497 5.32445 18.7997 5.43945 18.7147 5.48945C18.6297 5.53945 18.6497 5.69445 18.6847 5.75945C18.7747 5.92445 18.6947 6.08445 18.8697 6.18945C18.8697 6.05945 19.0647 5.92445 19.2247 5.88945C19.3897 5.85945 19.6397 5.70945 19.6747 5.54945C19.7047 5.37945 19.7647 5.24945 19.4497 5.21445Z" fill="#337321" stroke="black" stroke-width="0.05"/>
<path d="M18.6353 6.84058H18.6853V7.14558L18.7103 7.16058L18.9753 7.01058L19.0003 7.04558L18.7303 7.20058V7.23058L19.0003 7.38058L18.9753 7.42058L18.7053 7.27058C18.7003 7.27558 18.6903 7.28558 18.6803 7.28558V7.59558H18.6353V7.28558C18.6263 7.28182 18.6179 7.27674 18.6103 7.27058L18.3453 7.42558L18.3203 7.38558L18.5853 7.23558V7.20058L18.3203 7.05058L18.3453 7.01058L18.6103 7.16058L18.6353 7.14558V6.84058Z" fill="#96877D" stroke="black" stroke-width="0.05"/>
<path d="M19.0344 7.59061C18.9578 7.66821 18.8593 7.72053 18.7521 7.74057C18.645 7.76061 18.5343 7.74745 18.4348 7.70285C18.3353 7.65821 18.2518 7.58425 18.1955 7.49089C18.1393 7.39753 18.1128 7.28917 18.1198 7.18037C18.1268 7.07157 18.1669 6.96749 18.2347 6.88209C18.3025 6.79669 18.3947 6.73405 18.4991 6.70253C18.6035 6.67101 18.7149 6.67213 18.8187 6.70577C18.9224 6.73937 19.0133 6.80385 19.0794 6.89061C19.0479 6.98281 19.0277 7.07853 19.0194 7.17561C19.0126 7.10533 18.9856 7.03849 18.9416 6.98325C18.8976 6.92801 18.8385 6.88669 18.7715 6.86437C18.7045 6.84201 18.6325 6.83961 18.5641 6.85741C18.4958 6.87517 18.4341 6.91241 18.3865 6.96461C18.3389 7.01677 18.3074 7.08161 18.2959 7.15133C18.2845 7.22101 18.2935 7.29253 18.3218 7.35721C18.3502 7.42189 18.3967 7.47693 18.4557 7.51573C18.5148 7.55449 18.5838 7.57529 18.6544 7.57561C18.8244 7.57561 18.9694 7.46061 19.0144 7.30561C19.0144 7.37561 19.0144 7.53561 19.0344 7.59061Z" fill="#96877D" stroke="black" stroke-width="0.05"/>
<path d="M18.4298 8.10053C18.3998 8.06053 18.3348 7.95053 18.3448 7.87553C18.4149 7.87753 18.4821 7.90405 18.5348 7.95053C18.5298 7.89053 18.5048 7.77053 18.5198 7.71053C18.5798 7.73553 18.7098 7.81053 18.7548 7.89053C18.7448 7.83553 18.7198 7.69053 18.7448 7.60053C18.8098 7.64053 18.9248 7.74553 18.9448 7.82053C18.9548 7.70553 18.9948 7.52053 19.0248 7.47053C19.0748 7.52053 19.1548 7.57053 19.2048 7.64053C19.2148 7.54553 19.2648 7.44053 19.3298 7.41553C19.3798 7.46553 19.4598 7.60053 19.4798 7.74553C19.5298 7.73053 19.5948 7.64553 19.6248 7.59553C19.6498 7.64553 19.6798 7.72053 19.6598 7.82053C19.7248 7.76053 19.7998 7.68553 19.8098 7.61553C19.8598 7.65053 19.9448 7.73553 19.9648 7.82553C19.9548 7.75053 19.9648 7.62053 19.9398 7.54553C20.0198 7.59553 20.0898 7.67053 20.1048 7.75553C20.1298 7.67553 20.1798 7.53553 20.2248 7.50553C20.2698 7.59553 20.3148 7.70553 20.3098 7.79053C20.3398 7.73553 20.3798 7.63053 20.4248 7.61053C20.4648 7.67053 20.4598 7.81053 20.4498 7.88053C20.4898 7.82553 20.5648 7.75553 20.6098 7.73053C20.6098 7.77053 20.6198 7.83553 20.6098 7.88553C20.6816 7.81169 20.7362 7.72289 20.7698 7.62553C20.8498 7.66553 20.9298 7.80053 20.9348 7.87053C20.9948 7.84553 21.1048 7.74553 21.1348 7.69053C21.1348 7.73053 21.1548 7.84053 21.1348 7.92053C21.1698 7.88553 21.1998 7.82053 21.2198 7.79053C21.2398 7.84553 21.2198 7.98053 21.1998 8.05553C21.2471 8.01317 21.3066 7.98689 21.3698 7.98053C21.3555 8.11773 21.3129 8.25053 21.2448 8.37053C20.7048 8.22053 19.5698 8.16553 18.4298 8.10053Z" fill="#337321" stroke="black" stroke-width="0.05"/>
<path d="M20.3203 5.11474C20.3203 5.06974 20.4103 4.97974 20.5753 4.97974C20.7753 4.97974 20.9603 5.12974 21.1203 5.11474C21.2803 5.10474 21.2003 5.15974 21.1703 5.16974C21.1303 5.18474 21.1153 5.20474 21.1203 5.22974C21.1353 5.25974 21.1203 5.27474 21.0503 5.24974C20.9103 5.19974 20.7653 5.26974 20.5803 5.22974C20.4203 5.19474 20.3253 5.17974 20.3203 5.11474Z" fill="#F7E017"/>
<path d="M18.6044 8.43978C18.4394 8.63978 18.2694 8.60979 18.2344 8.47978C18.1994 8.34979 18.3244 8.28979 18.2794 8.17479C18.2344 8.05979 18.3544 8.00979 18.4094 8.05979C18.4644 8.10979 18.6494 7.94979 18.7244 8.11979C18.8044 8.28979 18.8644 8.40479 18.8244 8.46979C18.7744 8.53979 18.6394 8.50478 18.6044 8.43978ZM19.3344 8.13479C19.3044 8.05979 19.4794 7.91479 19.5694 8.01979C19.6594 8.11979 19.7994 7.90979 19.8794 8.06979C19.9594 8.22979 19.9794 8.31479 20.0244 8.40479C20.0594 8.49479 19.8094 8.53978 19.7294 8.46478C19.7394 8.51478 19.5094 8.55979 19.4494 8.40479L19.3344 8.13479ZM20.5044 8.22979C20.4644 8.14978 20.6694 8.03478 20.7794 8.17978C20.8044 8.11978 21.0094 8.10978 21.0244 8.27979L21.0494 8.62479C21.0544 8.68979 20.9244 8.75479 20.8344 8.57978C20.6644 8.61479 20.5894 8.51979 20.5694 8.42479C20.5494 8.32479 20.5294 8.27479 20.5044 8.22479V8.22979Z" fill="#F7E017" stroke="black" stroke-width="0.05"/>
<path d="M18.7149 8.11532C18.6899 8.06032 18.8649 7.94532 18.9749 8.03032C19.0899 8.11532 19.2499 7.96032 19.3249 8.11032C19.4599 8.42032 19.4649 8.44032 19.4249 8.50032C19.3849 8.56032 19.1999 8.53532 19.1549 8.45032C19.1499 8.51032 18.9899 8.50032 18.9099 8.45532C18.8199 8.40532 18.7549 8.21532 18.7149 8.11532ZM19.8999 8.13032C19.8649 8.04032 20.1299 7.96532 20.2499 8.12032C20.3049 8.06532 20.4349 8.06032 20.5049 8.23032C20.5799 8.39532 20.5899 8.48532 20.5399 8.53032C20.4999 8.56032 20.3649 8.58032 20.3199 8.50532C20.2549 8.54532 20.0649 8.51032 20.0199 8.40532C19.9799 8.30032 19.9449 8.20532 19.9049 8.13032H19.8999ZM21.0249 8.30032C21.0249 8.21532 21.1649 8.18032 21.2199 8.30032C21.2699 8.41032 21.4449 8.30532 21.4599 8.50032C21.4599 8.53532 21.4399 8.67532 21.3849 8.74532C21.3349 8.81032 21.0699 8.74532 21.0499 8.60032L21.0249 8.30032Z" fill="#337321" stroke="black" stroke-width="0.05"/>
<path d="M18.6047 8.44036C18.5447 8.35536 18.4597 8.22036 18.3547 8.36536M19.1597 8.45036C19.1197 8.40536 19.0747 8.32536 19.0597 8.26536M19.7297 8.46536C19.6897 8.43536 19.6297 8.38036 19.5997 8.32036M19.6797 8.17036C19.7797 8.18036 19.8447 8.27036 19.8747 8.31536C19.9047 8.35536 19.9747 8.43536 20.0247 8.44036M20.3197 8.50536C20.2847 8.45536 20.2497 8.40536 20.2447 8.36536M20.2497 8.12036C20.2797 8.17036 20.3047 8.20536 20.3247 8.25036M20.8297 8.58036C20.7912 8.49992 20.7305 8.43224 20.6547 8.38536M20.8097 8.27036C20.8147 8.43536 21.0347 8.45036 21.0447 8.57036M21.2197 8.30036C21.2397 8.34036 21.2497 8.38036 21.2497 8.45036" stroke="black" stroke-width="0.05"/>
</g>
</g>
</g>
<defs>
<clipPath id="clip0_69_10204">
<rect width="24" height="24" rx="12" fill="white"/>
</clipPath>
<clipPath id="clip1_69_10204">
<rect width="32" height="24" fill="white" transform="translate(-4)"/>
</clipPath>
</defs>
</svg>
