<svg width="24" height="24" viewBox="0 0 24 24" fill="none" xmlns="http://www.w3.org/2000/svg">
<g clip-path="url(#clip0_69_10272)">
<path d="M9.59998 -0.400146H24V24.7999H9.59998V-0.400146Z" fill="#FF0000"/>
<path d="M0 -2.40015H9.6V26.7999H0V-2.40015Z" fill="#006600"/>
<path fill-rule="evenodd" clip-rule="evenodd" d="M12.7312 14.683C11.52 14.6455 5.98123 11.188 5.94373 10.633L6.24748 10.1267C6.79873 10.9255 12.4612 14.2892 13.02 14.1692L12.7312 14.683Z" fill="#FFFF00" stroke="black" stroke-width="0.075" stroke-linecap="round" stroke-linejoin="round"/>
<path fill-rule="evenodd" clip-rule="evenodd" d="M6.18414 10.0554C6.07539 10.3479 7.63164 11.3079 9.49914 12.4479C11.3704 13.5842 12.9829 14.2854 13.0991 14.1879L13.1554 14.0829C13.1329 14.1204 13.0804 14.1317 12.9941 14.1054C12.4879 13.9592 11.1716 13.3554 9.54039 12.3654C7.90539 11.3754 6.48789 10.4642 6.26664 10.0779C6.24942 10.0417 6.24165 10.0017 6.24414 9.96167H6.23664L6.19164 10.0442L6.18414 10.0554ZM12.7579 14.6979C12.7391 14.7354 12.6979 14.7354 12.6266 14.7279C12.1766 14.6792 10.8041 14.0117 9.18039 13.0404C7.29039 11.9079 5.73039 10.8804 5.90289 10.6104L5.94789 10.5279L5.95539 10.5317C5.80539 10.9892 9.03414 12.8342 9.22539 12.9542C11.0929 14.1092 12.6679 14.7879 12.8066 14.6117L12.7579 14.6979Z" fill="#FFFF00" stroke="black" stroke-width="0.075" stroke-linecap="round" stroke-linejoin="round"/>
<path fill-rule="evenodd" clip-rule="evenodd" d="M9.60799 10.9699C10.8155 10.9586 12.308 10.8049 13.1705 10.4599L12.983 10.1599C12.4767 10.4411 10.9767 10.6286 9.59674 10.6549C7.96924 10.6399 6.81799 10.4861 6.24049 10.0999L6.06799 10.4224C7.12549 10.8724 8.21299 10.9661 9.60799 10.9699Z" fill="#FFFF00" stroke="black" stroke-width="0.075" stroke-linecap="round" stroke-linejoin="round"/>
<path fill-rule="evenodd" clip-rule="evenodd" d="M13.2183 10.4684C13.1883 10.5171 12.6258 10.7084 11.8008 10.8509C11.0735 10.9611 10.3388 11.015 9.60327 11.0121C8.89854 11.0148 8.19444 10.9697 7.49577 10.8771C6.62952 10.7421 6.18327 10.5546 6.01452 10.4871L6.05577 10.4046C6.53202 10.5921 6.98202 10.7046 7.50702 10.7871C8.20059 10.8808 8.89968 10.9271 9.59952 10.9259C10.3313 10.9267 11.062 10.8728 11.7858 10.7646C12.6295 10.6259 13.0908 10.4496 13.1583 10.3709L13.2183 10.4721V10.4684ZM13.0533 10.1646C12.9633 10.2396 12.5058 10.4009 11.7033 10.5284C11.0103 10.6286 10.311 10.6788 9.61077 10.6784C8.78577 10.6784 8.10702 10.6184 7.59327 10.5434C6.77577 10.4384 6.34077 10.2434 6.18327 10.1909L6.23202 10.1084C6.35577 10.1721 6.77202 10.3409 7.60077 10.4571C8.26701 10.5464 8.93862 10.589 9.61077 10.5846C10.306 10.5848 11.0003 10.5347 11.6883 10.4346C12.4945 10.3221 12.9295 10.1196 12.997 10.0671L13.0533 10.1646ZM5.63577 12.4259C6.37827 12.8271 8.03202 13.0259 9.59577 13.0409C11.0208 13.0446 12.8733 12.8234 13.567 12.4559L13.5483 12.0546C13.3308 12.3921 11.3433 12.7184 9.58077 12.7071C7.81827 12.6921 6.17952 12.4221 5.63202 12.0696V12.4259" fill="#FFFF00"/>
<path d="M5.63577 12.4259C6.37827 12.8271 8.03202 13.0259 9.59577 13.0409C11.0208 13.0446 12.8733 12.8234 13.567 12.4559L13.5483 12.0546C13.3308 12.3921 11.3433 12.7184 9.58077 12.7071C7.81827 12.6921 6.17952 12.4221 5.63202 12.0696V12.4259M13.2183 10.4684C13.1883 10.5171 12.6258 10.7084 11.8008 10.8509C11.0735 10.9611 10.3388 11.015 9.60327 11.0121C8.89854 11.0148 8.19444 10.9697 7.49577 10.8771C6.62952 10.7421 6.18327 10.5546 6.01452 10.4871L6.05577 10.4046C6.53202 10.5921 6.98202 10.7046 7.50702 10.7871C8.20059 10.8808 8.89968 10.9271 9.59952 10.9259C10.3313 10.9267 11.062 10.8728 11.7858 10.7646C12.6295 10.6259 13.0908 10.4496 13.1583 10.3709L13.2183 10.4721V10.4684ZM13.0533 10.1646C12.9633 10.2396 12.5058 10.4009 11.7033 10.5284C11.0103 10.6286 10.311 10.6788 9.61077 10.6784C8.78577 10.6784 8.10702 10.6184 7.59327 10.5434C6.77577 10.4384 6.34077 10.2434 6.18327 10.1909L6.23202 10.1084C6.35577 10.1721 6.77202 10.3409 7.60077 10.4571C8.26701 10.5464 8.93862 10.589 9.61077 10.5846C10.306 10.5848 11.0003 10.5347 11.6883 10.4346C12.4945 10.3221 12.9295 10.1196 12.997 10.0671L13.0533 10.1646Z" stroke="black" stroke-width="0.075" stroke-linecap="round" stroke-linejoin="round"/>
<path fill-rule="evenodd" clip-rule="evenodd" d="M13.605 12.3696V12.4633C13.5 12.5908 12.8475 12.7783 12.03 12.9133C11.2179 13.0301 10.398 13.0852 9.57752 13.0783C8.7995 13.085 8.02217 13.0311 7.25252 12.9171C6.67823 12.8507 6.11705 12.699 5.58752 12.4671V12.3583C5.95127 12.5983 6.93377 12.7783 7.26377 12.8308C7.85627 12.9208 8.61752 12.9883 9.57752 12.9883C10.5863 12.9883 11.3925 12.9171 12.015 12.8233C12.6038 12.7371 13.44 12.5158 13.605 12.3696ZM13.605 12.0321V12.1258C13.5 12.2496 12.8475 12.4371 12.03 12.5721C11.218 12.6901 10.3981 12.7465 9.57752 12.7408C8.79956 12.7454 8.02238 12.6915 7.25252 12.5796C6.67823 12.5132 6.11705 12.3615 5.58752 12.1296V12.0171C5.95127 12.2608 6.93752 12.4371 7.26377 12.4896C8.02982 12.6018 8.80331 12.6557 9.57752 12.6508C10.5863 12.6508 11.3963 12.5758 12.015 12.4821C12.6038 12.3996 13.44 12.1783 13.605 12.0321ZM9.59252 14.6121C7.88252 14.6046 6.41627 14.1471 6.10502 14.0721L6.33002 14.4246C7.38185 14.7971 8.4918 14.9787 9.60752 14.9608C10.9088 14.9233 12.045 14.8221 12.8438 14.4321L13.0763 14.0646C12.5325 14.3233 10.6763 14.6121 9.58877 14.6121" fill="#FFFF00"/>
<path d="M9.59252 14.6121C7.88252 14.6046 6.41627 14.1471 6.10502 14.0721L6.33002 14.4246C7.38185 14.7971 8.49179 14.9787 9.60753 14.9608C10.9088 14.9233 12.045 14.8221 12.8438 14.4321L13.0763 14.0646C12.5325 14.3233 10.6763 14.6121 9.58877 14.6121M13.605 12.3696V12.4633C13.5 12.5908 12.8475 12.7783 12.03 12.9133C11.2179 13.0301 10.398 13.0852 9.57752 13.0783C8.7995 13.085 8.02217 13.0311 7.25252 12.9171C6.67823 12.8507 6.11705 12.699 5.58752 12.4671V12.3583C5.95127 12.5983 6.93377 12.7783 7.26377 12.8308C7.85627 12.9208 8.61752 12.9883 9.57752 12.9883C10.5863 12.9883 11.3925 12.9171 12.015 12.8233C12.6038 12.7371 13.44 12.5158 13.605 12.3696ZM13.605 12.0321V12.1258C13.5 12.2496 12.8475 12.4371 12.03 12.5721C11.218 12.6901 10.3981 12.7465 9.57752 12.7408C8.79956 12.7454 8.02238 12.6915 7.25252 12.5796C6.67823 12.5132 6.11705 12.3615 5.58752 12.1296V12.0171C5.95127 12.2608 6.93752 12.4371 7.26377 12.4896C8.02982 12.6018 8.80331 12.6557 9.57752 12.6508C10.5863 12.6508 11.3963 12.5758 12.015 12.4821C12.6038 12.3996 13.44 12.1783 13.605 12.0321Z" stroke="black" stroke-width="0.075" stroke-linecap="round" stroke-linejoin="round"/>
<path fill-rule="evenodd" clip-rule="evenodd" d="M12.9337 14.3489C12.8996 14.3995 12.8646 14.4495 12.8287 14.4989C12.4537 14.6339 11.8537 14.7764 11.6062 14.8139C10.9421 14.9376 10.268 15.0004 9.59248 15.0014C8.07748 14.9789 6.83623 14.6826 6.25498 14.4276L6.20623 14.3489L6.21373 14.3339L6.29248 14.3676C7.35973 14.7208 8.47582 14.9043 9.59998 14.9114C10.305 14.9114 11.0062 14.8326 11.5725 14.7314C12.4425 14.5551 12.795 14.4239 12.9037 14.3639L12.93 14.3489H12.9337ZM13.1325 14.0189C13.1078 14.0628 13.0828 14.1065 13.0575 14.1501C12.855 14.2251 12.3075 14.3826 11.5087 14.4951C10.9837 14.5664 10.6575 14.6376 9.61123 14.6564C8.41522 14.6444 7.22656 14.4677 6.07873 14.1314L6.03748 14.0376C7.20367 14.3599 8.40535 14.5363 9.61498 14.5626C10.5712 14.5439 10.98 14.4726 11.5012 14.4014C12.4312 14.2589 12.9 14.1014 13.0387 14.0601C13.0388 14.0576 13.0388 14.0551 13.0387 14.0526L13.1362 14.0151L13.1325 14.0189Z" fill="#FFFF00" stroke="black" stroke-width="0.075" stroke-linecap="round" stroke-linejoin="round"/>
<path fill-rule="evenodd" clip-rule="evenodd" d="M13.1545 12.11C13.1583 13.235 12.5808 14.2475 12.1195 14.69C11.4383 15.3544 10.5285 15.7328 9.57703 15.7475C8.44078 15.7662 7.37202 15.0275 7.08327 14.7012C6.43728 14.0162 6.06963 13.1151 6.05202 12.1737C6.11952 10.9437 6.60327 10.0887 7.30077 9.49995C7.97833 8.94216 8.83069 8.64078 9.70828 8.6487C10.2206 8.67354 10.722 8.80512 11.1805 9.03501C11.639 9.2649 12.0444 9.58803 12.3708 9.9837C12.8395 10.5537 13.0458 11.1725 13.1545 12.11ZM9.58452 8.26245C10.6336 8.26242 11.6401 8.67708 12.3847 9.41607C13.1293 10.1551 13.5516 11.1584 13.5595 12.2075C13.5595 12.728 13.457 13.2434 13.2578 13.7243C13.0586 14.2052 12.7666 14.6422 12.3986 15.0102C12.0305 15.3783 11.5935 15.6703 11.1126 15.8695C10.6317 16.0687 10.1163 16.1712 9.59578 16.1712C9.07525 16.1712 8.55982 16.0687 8.07892 15.8695C7.59799 15.6703 7.16103 15.3783 6.79296 15.0102C6.42489 14.6422 6.13293 14.2052 5.93373 13.7243C5.73453 13.2434 5.63202 12.728 5.63202 12.2075C5.62827 10.0325 7.40577 8.26245 9.58452 8.26245Z" fill="#FFFF00" stroke="black" stroke-width="0.075" stroke-linecap="round" stroke-linejoin="round"/>
<path fill-rule="evenodd" clip-rule="evenodd" d="M9.59651 8.24365C11.779 8.24365 13.5565 10.0212 13.5565 12.2037C13.5565 14.3862 11.779 16.1637 9.60026 16.1637C7.42151 16.1637 5.64026 14.3862 5.64026 12.2037C5.64026 10.0212 7.41776 8.24365 9.60026 8.24365H9.59651ZM5.72276 12.1999C5.72276 14.3299 7.47401 16.0737 9.59651 16.0737C11.719 16.0737 13.4703 14.3299 13.4703 12.1999C13.4703 10.0699 11.719 8.32615 9.59651 8.32615C7.47401 8.32615 5.72276 10.0699 5.72276 12.1999Z" fill="#FFFF00" stroke="black" stroke-width="0.075" stroke-linecap="round" stroke-linejoin="round"/>
<path fill-rule="evenodd" clip-rule="evenodd" d="M9.60049 8.57397C10.5613 8.57694 11.4819 8.95992 12.1614 9.63933C12.8408 10.3187 13.2238 11.2394 13.2267 12.2002C13.2238 13.1614 12.8409 14.0824 12.1616 14.7624C11.4823 15.4424 10.5617 15.8263 9.60049 15.8302C7.61299 15.8302 5.97424 14.1952 5.97424 12.2002C5.97817 11.2397 6.36151 10.3196 7.04071 9.64044C7.71988 8.96124 8.63995 8.5779 9.60049 8.57397ZM6.06049 12.2002C6.06049 14.1502 7.65799 15.7402 9.60049 15.7402C11.543 15.7402 13.1405 14.1465 13.1405 12.2002C13.1405 10.2502 11.543 8.66022 9.60049 8.66022C8.66284 8.66415 7.7647 9.0384 7.10167 9.7014C6.43867 10.3644 6.06442 11.2626 6.06049 12.2002Z" fill="#FFFF00" stroke="black" stroke-width="0.075" stroke-linecap="round" stroke-linejoin="round"/>
<path fill-rule="evenodd" clip-rule="evenodd" d="M9.76074 8.22485H9.41949V16.1861H9.75699L9.76074 8.22485Z" fill="#FFFF00" stroke="black" stroke-width="0.075" stroke-linecap="round" stroke-linejoin="round"/>
<path fill-rule="evenodd" clip-rule="evenodd" d="M9.72422 8.18042H9.81047V16.2317H9.72797V8.18042H9.72422ZM9.38672 8.18042H9.47672V16.2317H9.39047V8.18042H9.38672Z" fill="#FFFF00" stroke="black" stroke-width="0.075" stroke-linecap="round" stroke-linejoin="round"/>
<path fill-rule="evenodd" clip-rule="evenodd" d="M13.5602 12.3573V12.0648L13.3202 11.8398L11.959 11.4798L10.0015 11.281L7.63896 11.401L5.95896 11.7985L5.62146 12.0498V12.346L6.48021 11.9598L8.52021 11.641H10.4815L11.9215 11.7985L12.919 12.0385L13.5602 12.3573Z" fill="#FFFF00" stroke="black" stroke-width="0.075" stroke-linecap="round" stroke-linejoin="round"/>
<path fill-rule="evenodd" clip-rule="evenodd" d="M9.60002 11.5925C10.5338 11.5925 11.4375 11.6787 12.1613 11.8175C12.9038 11.9675 13.425 12.155 13.605 12.3612V12.4662C13.3875 12.2037 12.6863 12.0162 12.1425 11.9037C11.43 11.7687 10.53 11.6787 9.59627 11.6787C8.61752 11.6787 7.70252 11.7762 6.99752 11.9112C6.43502 12.0237 5.68127 12.2487 5.58752 12.4662V12.3575C5.63627 12.2075 6.19877 11.9825 6.98627 11.8212C7.69502 11.6825 8.61002 11.5925 9.59627 11.5925H9.60002ZM9.60002 11.2512C10.4588 11.2495 11.316 11.3248 12.1613 11.4762C12.9038 11.6262 13.425 11.8137 13.605 12.0237V12.125C13.3875 11.8662 12.6863 11.675 12.1425 11.5662C11.43 11.4275 10.53 11.3412 9.59627 11.3412C8.72594 11.3385 7.85723 11.4163 7.00127 11.5737C6.45752 11.675 5.67377 11.9075 5.58752 12.125V12.02C5.64002 11.87 6.21002 11.6337 6.98627 11.4837C7.69877 11.345 8.61002 11.2512 9.60002 11.2512ZM9.57752 9.51875C11.0513 9.51125 12.3375 9.725 12.9263 10.025L13.14 10.4C12.63 10.1225 11.2425 9.8375 9.58127 9.875C8.22752 9.88625 6.78002 10.025 6.05627 10.415L6.31127 9.9875C6.90752 9.67625 8.31002 9.51875 9.57752 9.51875Z" fill="#FFFF00" stroke="black" stroke-width="0.075" stroke-linecap="round" stroke-linejoin="round"/>
<path fill-rule="evenodd" clip-rule="evenodd" d="M9.60046 9.82666C10.3699 9.81367 11.1391 9.86761 11.8992 9.98791C12.4992 10.1004 13.073 10.2654 13.1555 10.3554L13.2192 10.4679C13.0205 10.3404 12.5217 10.1942 11.8842 10.0742C11.2467 9.95416 10.433 9.91291 9.59671 9.91666C8.64796 9.91291 7.90921 9.96166 7.27921 10.0742C6.8449 10.135 6.42325 10.2654 6.03046 10.4604L6.09421 10.3442C6.31921 10.2317 6.66796 10.0929 7.26046 9.98416C7.91671 9.86416 8.66296 9.83041 9.60046 9.82666ZM9.60046 9.48916C10.403 9.48166 11.198 9.52666 11.8167 9.63916C12.2176 9.69868 12.6055 9.82546 12.9642 10.0142L13.058 10.1642C12.9005 9.98791 12.308 9.81916 11.7792 9.72916C11.1642 9.62041 10.403 9.57916 9.60046 9.57166C8.85343 9.565 8.10712 9.62017 7.36921 9.73666C6.98335 9.79042 6.60862 9.90562 6.25921 10.0779L6.34171 9.95416C6.55921 9.84166 6.91171 9.73666 7.35421 9.65041C8.09698 9.53239 8.84839 9.47722 9.60046 9.48541V9.48916ZM11.5655 13.8504C10.9155 13.7379 10.2562 13.6876 9.59671 13.7004C7.14046 13.7304 6.34921 14.2067 6.25171 14.3492L6.06421 14.0492C6.69421 13.5992 8.02921 13.3442 9.61171 13.3667C10.433 13.3817 11.1417 13.4379 11.7342 13.5542L11.5655 13.8542" fill="#FFFF00"/>
<path d="M11.5655 13.8504C10.9155 13.7379 10.2562 13.6876 9.59671 13.7004C7.14046 13.7304 6.34921 14.2067 6.25171 14.3492L6.06421 14.0492C6.69421 13.5992 8.02921 13.3442 9.61171 13.3667C10.433 13.3817 11.1417 13.4379 11.7342 13.5542L11.5655 13.8542M9.60046 9.82666C10.3699 9.81367 11.1391 9.86761 11.8992 9.98791C12.4992 10.1004 13.073 10.2654 13.1555 10.3554L13.2192 10.4679C13.0205 10.3404 12.5217 10.1942 11.8842 10.0742C11.2467 9.95416 10.433 9.91291 9.59671 9.91666C8.64796 9.91291 7.90921 9.96166 7.27921 10.0742C6.8449 10.135 6.42325 10.2654 6.03046 10.4604L6.09421 10.3442C6.31921 10.2317 6.66796 10.0929 7.26046 9.98416C7.91671 9.86416 8.66296 9.83041 9.60046 9.82666ZM9.60046 9.48916C10.403 9.48166 11.198 9.52666 11.8167 9.63916C12.2176 9.69868 12.6055 9.82546 12.9642 10.0142L13.058 10.1642C12.9005 9.98791 12.308 9.81916 11.7792 9.72916C11.1642 9.62041 10.403 9.57916 9.60046 9.57166C8.85343 9.565 8.10712 9.62017 7.36921 9.73666C6.98335 9.79042 6.60862 9.90562 6.25921 10.0779L6.34171 9.95416C6.55921 9.84166 6.91171 9.73666 7.35421 9.65041C8.09698 9.53239 8.84839 9.47722 9.60046 9.48541V9.48916Z" stroke="black" stroke-width="0.075" stroke-linecap="round" stroke-linejoin="round"/>
<path fill-rule="evenodd" clip-rule="evenodd" d="M9.58525 13.6592C10.2677 13.6705 10.9352 13.6967 11.584 13.8167L11.539 13.8992C10.939 13.7867 10.294 13.7492 9.589 13.7492C8.67775 13.7417 7.76275 13.828 6.964 14.0567C6.71275 14.128 6.2965 14.2892 6.2515 14.4242L6.2065 14.3492C6.2215 14.2667 6.469 14.1017 6.9415 13.9742C7.8565 13.7117 8.7115 13.663 9.58525 13.6592ZM9.61525 13.3142C10.3356 13.3135 11.0546 13.3762 11.764 13.5017L11.7152 13.588C11.0226 13.4609 10.3195 13.3994 9.61525 13.4042C8.70775 13.4042 7.744 13.4717 6.8665 13.7267C6.58525 13.8092 6.094 13.9892 6.079 14.128L6.034 14.0455C6.0415 13.918 6.46525 13.7492 6.84775 13.6405C7.729 13.3817 8.6965 13.318 9.61525 13.3142Z" fill="#FFFF00" stroke="black" stroke-width="0.075" stroke-linecap="round" stroke-linejoin="round"/>
<path fill-rule="evenodd" clip-rule="evenodd" d="M13.103 14.0942L12.8105 14.5554L11.9592 13.8017L9.76173 12.3204L7.27923 10.9592L5.99298 10.5204L6.26673 10.0104L6.36048 9.96167L7.15923 10.1604L9.79923 11.5217L11.3217 12.4817L12.6005 13.4004L13.1217 14.0004L13.103 14.0942Z" fill="#FFFF00" stroke="black" stroke-width="0.075" stroke-linecap="round" stroke-linejoin="round"/>
<path fill-rule="evenodd" clip-rule="evenodd" d="M5.94798 10.5312C6.17298 10.3812 7.83048 11.1162 9.57048 12.1662C11.2992 13.2162 12.9567 14.4012 12.8067 14.6225L12.758 14.7012L12.7355 14.72C12.7392 14.7162 12.7655 14.6825 12.7355 14.6037C12.6605 14.36 11.483 13.4225 9.53673 12.245C7.63548 11.1162 6.05298 10.4337 5.89923 10.6287L5.94798 10.5312ZM13.163 14.09C13.3055 13.805 11.768 12.6462 9.85923 11.5175C7.90923 10.4112 6.49923 9.75871 6.24048 9.95371L6.18798 10.0625C6.18798 10.0662 6.18798 10.055 6.20298 10.0437C6.24798 10.0062 6.32673 10.0062 6.36048 10.0062C6.80298 10.0137 8.06673 10.595 9.84048 11.6112C10.6205 12.0612 13.1255 13.6737 13.1142 14.1237C13.1142 14.1612 13.118 14.1687 13.103 14.1912L13.1667 14.0937L13.163 14.09Z" fill="#FFFF00" stroke="black" stroke-width="0.075" stroke-linecap="round" stroke-linejoin="round"/>
<path d="M7.22345 12.6415C7.22405 12.952 7.28621 13.2593 7.40639 13.5456C7.52654 13.8319 7.70228 14.0916 7.92347 14.3095C8.14193 14.5314 8.40215 14.7078 8.6891 14.8286C8.97608 14.9494 9.28412 15.0123 9.59546 15.0135C10.2256 15.0135 10.8299 14.7631 11.2755 14.3175C11.4959 14.0984 11.6708 13.8379 11.7902 13.5509C11.9097 13.264 11.9713 12.9563 11.9715 12.6455V9.47749L7.22345 9.46948V12.6415Z" fill="white" stroke="black" stroke-width="0.0933336"/>
<path d="M7.31134 12.6457C7.31218 12.9436 7.372 13.2383 7.48735 13.5129C7.60267 13.7876 7.77124 14.0366 7.98334 14.2458C8.40922 14.6739 8.9875 14.9155 9.59134 14.9178C10.1941 14.9181 10.7724 14.6793 11.1993 14.2537C11.4107 14.0443 11.5785 13.7951 11.6932 13.5205C11.8078 13.2459 11.867 12.9513 11.8674 12.6537V9.57373H7.31935V12.6457M10.9593 10.4977V12.4537L10.9554 12.6577C10.9567 12.8364 10.922 13.0136 10.8532 13.1785C10.7845 13.3435 10.6832 13.4929 10.5554 13.6177C10.301 13.873 9.95569 14.0169 9.59533 14.0178C9.21934 14.0178 8.88733 13.8577 8.63935 13.6098C8.38408 13.3554 8.24023 13.0101 8.23933 12.6498V10.4897L10.9593 10.4977Z" fill="#FF0000"/>
<path d="M7.31134 12.6457C7.31218 12.9436 7.372 13.2383 7.48735 13.5129C7.60267 13.7876 7.77124 14.0366 7.98334 14.2458C8.40922 14.6739 8.9875 14.9155 9.59134 14.9178C10.1941 14.9181 10.7724 14.6793 11.1993 14.2537C11.4107 14.0443 11.5785 13.7951 11.6932 13.5205C11.8078 13.2459 11.867 12.9513 11.8674 12.6537V9.57373H7.31935V12.6457M10.9593 10.4977V12.4537L10.9554 12.6577C10.9567 12.8364 10.922 13.0136 10.8532 13.1785C10.7845 13.3435 10.6832 13.4929 10.5554 13.6177C10.301 13.873 9.95569 14.0169 9.59533 14.0178C9.21934 14.0178 8.88733 13.8577 8.63935 13.6098C8.38408 13.3554 8.24023 13.0101 8.23933 12.6498V10.4897L10.9593 10.4977Z" stroke="black" stroke-width="0.0666669"/>
<path d="M7.60785 10.3777C7.61184 10.1577 7.76784 10.1057 7.76784 10.1057C7.77183 10.1057 7.93983 10.1617 7.93983 10.3817H7.60785" fill="#FFFF00"/>
<path d="M7.4714 10.1097L7.44341 10.3617H7.61141C7.61141 10.1537 7.7714 10.1217 7.7714 10.1217C7.77542 10.1217 7.93142 10.1657 7.93541 10.3617H8.10341L8.0714 10.1057H7.4714V10.1097ZM7.43141 10.3657H8.11142C8.12342 10.3657 8.13542 10.3777 8.13542 10.3937C8.13542 10.4137 8.12342 10.4257 8.11142 10.4257H7.43141C7.41941 10.4257 7.40741 10.4137 7.40741 10.3937C7.40741 10.3777 7.41941 10.3657 7.4354 10.3657H7.43141Z" fill="#FFFF00" stroke="black" stroke-width="0.0666669"/>
<path d="M7.67982 10.3616C7.67982 10.2296 7.77183 10.1936 7.77183 10.1936C7.77183 10.1936 7.86384 10.2335 7.86384 10.3616H7.67982ZM7.44783 10.0016H8.09982C8.11182 10.0016 8.12382 10.0175 8.12382 10.0336C8.12382 10.0456 8.11182 10.0575 8.09982 10.0575H7.44783C7.43583 10.0575 7.42383 10.0455 7.42383 10.0295C7.42383 10.0175 7.43583 10.0055 7.44783 10.0055V10.0016ZM7.46382 10.0616H8.07984C8.09184 10.0616 8.10384 10.0736 8.10384 10.0895C8.10384 10.1056 8.09184 10.1175 8.07984 10.1175H7.45983C7.44384 10.1175 7.43583 10.1056 7.43583 10.0895C7.43583 10.0736 7.44384 10.0616 7.45983 10.0616H7.46382ZM7.66383 9.63753H7.71183V9.66955H7.74783V9.63753H7.79982V9.67354H7.83582V9.63354H7.88382V9.71356C7.88382 9.72955 7.87584 9.73756 7.86384 9.73756H7.68783C7.67583 9.73756 7.66383 9.72955 7.66383 9.71755V9.63753ZM7.84782 9.74554L7.85982 10.0016H7.68783L7.69983 9.74155H7.84782" fill="#FFFF00"/>
<path d="M7.84782 9.74554L7.85982 10.0016H7.68783L7.69983 9.74155H7.84782M7.67982 10.3616C7.67982 10.2296 7.77183 10.1936 7.77183 10.1936C7.77183 10.1936 7.86384 10.2335 7.86384 10.3616H7.67982ZM7.44783 10.0016H8.09982C8.11182 10.0016 8.12382 10.0175 8.12382 10.0336C8.12382 10.0456 8.11182 10.0575 8.09982 10.0575H7.44783C7.43583 10.0575 7.42383 10.0455 7.42383 10.0295C7.42383 10.0175 7.43583 10.0055 7.44783 10.0055V10.0016ZM7.46382 10.0616H8.07984C8.09184 10.0616 8.10384 10.0736 8.10384 10.0895C8.10384 10.1056 8.09184 10.1175 8.07984 10.1175H7.45983C7.44384 10.1175 7.43583 10.1056 7.43583 10.0895C7.43583 10.0736 7.44384 10.0616 7.45983 10.0616H7.46382ZM7.66383 9.63753H7.71183V9.66955H7.74783V9.63753H7.79982V9.67354H7.83582V9.63354H7.88382V9.71356C7.88382 9.72955 7.87584 9.73756 7.86384 9.73756H7.68783C7.67583 9.73756 7.66383 9.72955 7.66383 9.71755V9.63753Z" stroke="black" stroke-width="0.0666669"/>
<path d="M7.63887 9.86548V10.0015H7.47888V9.86548H7.63887Z" fill="#FFFF00" stroke="black" stroke-width="0.0666669"/>
<path d="M8.06313 9.86548V10.0015H7.90314V9.86548H8.06313Z" fill="#FFFF00" stroke="black" stroke-width="0.0666669"/>
<path d="M7.45197 9.76123H7.49997V9.80122H7.53597V9.76123H7.58397V9.80122H7.61997V9.76123H7.66797V9.84124C7.66797 9.85723 7.65999 9.86524 7.64799 9.86524H7.47597C7.46961 9.86524 7.46352 9.86269 7.45902 9.85819C7.45452 9.85369 7.45197 9.8476 7.45197 9.84124V9.76123Z" fill="#FFFF00" stroke="black" stroke-width="0.0666669"/>
<path d="M7.875 9.76123H7.923V9.80122H7.959V9.76123H8.007V9.80122H8.043V9.76123H8.091V9.84124C8.091 9.85723 8.08299 9.86524 8.07099 9.86524H7.899C7.89264 9.86524 7.88652 9.86269 7.88202 9.85819C7.87752 9.85369 7.875 9.8476 7.875 9.84124V9.76123Z" fill="#FFFF00" stroke="black" stroke-width="0.0666669"/>
<path d="M7.75549 9.82488C7.75549 9.80088 7.79149 9.80088 7.79149 9.82488V9.8889H7.75549V9.82488Z" fill="black"/>
<path d="M7.54333 9.914C7.54333 9.89 7.57534 9.89 7.57534 9.914V9.962H7.54333V9.914Z" fill="black"/>
<path d="M7.96759 9.914C7.96759 9.89 7.9996 9.89 7.9996 9.914V9.962H7.96759V9.914Z" fill="black"/>
<path d="M7.60785 12.2293C7.61184 12.0093 7.76784 11.9573 7.76784 11.9573C7.77183 11.9573 7.93983 12.0133 7.93983 12.2333H7.60785" fill="#FFFF00"/>
<path d="M7.4714 11.9613L7.44341 12.2133H7.61141C7.61141 12.0053 7.7714 11.9733 7.7714 11.9733C7.77542 11.9733 7.93142 12.0173 7.93541 12.2133H8.10341L8.0714 11.9573H7.4714V11.9613ZM7.43141 12.2173H8.11142C8.12342 12.2173 8.13542 12.2293 8.13542 12.2453C8.13542 12.2653 8.12342 12.2773 8.11142 12.2773H7.43141C7.41941 12.2773 7.40741 12.2653 7.40741 12.2453C7.40741 12.2293 7.41941 12.2173 7.4354 12.2173H7.43141Z" fill="#FFFF00" stroke="black" stroke-width="0.0666669"/>
<path d="M7.67982 12.2131C7.67982 12.0811 7.77183 12.0451 7.77183 12.0451C7.77183 12.0451 7.86384 12.0851 7.86384 12.2131H7.67982ZM7.44783 11.8531H8.09982C8.11182 11.8531 8.12382 11.8691 8.12382 11.8851C8.12382 11.8971 8.11182 11.9091 8.09982 11.9091H7.44783C7.43583 11.9091 7.42383 11.8971 7.42383 11.8811C7.42383 11.8691 7.43583 11.8571 7.44783 11.8571V11.8531ZM7.46382 11.9131H8.07984C8.09184 11.9131 8.10384 11.9251 8.10384 11.9411C8.10384 11.9571 8.09184 11.9691 8.07984 11.9691H7.45983C7.44384 11.9691 7.43583 11.9571 7.43583 11.9411C7.43583 11.9251 7.44384 11.9131 7.45983 11.9131H7.46382ZM7.66383 11.4891H7.71183V11.5211H7.74783V11.4891H7.79982V11.5251H7.83582V11.4851H7.88382V11.5651C7.88382 11.5811 7.87584 11.5891 7.86384 11.5891H7.68783C7.67583 11.5891 7.66383 11.5811 7.66383 11.5691V11.4891ZM7.84782 11.5971L7.85982 11.8531H7.68783L7.69983 11.5931H7.84782" fill="#FFFF00"/>
<path d="M7.84782 11.5971L7.85982 11.8531H7.68783L7.69983 11.5931H7.84782M7.67982 12.2131C7.67982 12.0811 7.77183 12.0451 7.77183 12.0451C7.77183 12.0451 7.86384 12.0851 7.86384 12.2131H7.67982ZM7.44783 11.8531H8.09982C8.11182 11.8531 8.12382 11.8691 8.12382 11.8851C8.12382 11.8971 8.11182 11.9091 8.09982 11.9091H7.44783C7.43583 11.9091 7.42383 11.8971 7.42383 11.8811C7.42383 11.8691 7.43583 11.8571 7.44783 11.8571V11.8531ZM7.46382 11.9131H8.07984C8.09184 11.9131 8.10384 11.9251 8.10384 11.9411C8.10384 11.9571 8.09184 11.9691 8.07984 11.9691H7.45983C7.44384 11.9691 7.43583 11.9571 7.43583 11.9411C7.43583 11.9251 7.44384 11.9131 7.45983 11.9131H7.46382ZM7.66383 11.4891H7.71183V11.5211H7.74783V11.4891H7.79982V11.5251H7.83582V11.4851H7.88382V11.5651C7.88382 11.5811 7.87584 11.5891 7.86384 11.5891H7.68783C7.67583 11.5891 7.66383 11.5811 7.66383 11.5691V11.4891Z" stroke="black" stroke-width="0.0666669"/>
<path d="M7.63887 11.717V11.8531H7.47888V11.717H7.63887Z" fill="#FFFF00" stroke="black" stroke-width="0.0666669"/>
<path d="M8.06313 11.717V11.8531H7.90314V11.717H8.06313Z" fill="#FFFF00" stroke="black" stroke-width="0.0666669"/>
<path d="M7.45197 11.6128H7.49997V11.6528H7.53597V11.6128H7.58397V11.6528H7.61997V11.6128H7.66797V11.6928C7.66797 11.7088 7.65999 11.7168 7.64799 11.7168H7.47597C7.46961 11.7168 7.46352 11.7143 7.45902 11.7098C7.45452 11.7053 7.45197 11.6992 7.45197 11.6928V11.6128Z" fill="#FFFF00" stroke="black" stroke-width="0.0666669"/>
<path d="M7.875 11.6128H7.923V11.6528H7.959V11.6128H8.007V11.6528H8.043V11.6128H8.091V11.6928C8.091 11.7088 8.08299 11.7168 8.07099 11.7168H7.899C7.89264 11.7168 7.88652 11.7143 7.88202 11.7098C7.87752 11.7053 7.875 11.6992 7.875 11.6928V11.6128Z" fill="#FFFF00" stroke="black" stroke-width="0.0666669"/>
<path d="M7.75549 11.6764C7.75549 11.6524 7.79149 11.6524 7.79149 11.6764V11.7404H7.75549V11.6764Z" fill="black"/>
<path d="M7.54333 11.7656C7.54333 11.7416 7.57534 11.7416 7.57534 11.7656V11.8136H7.54333V11.7656Z" fill="black"/>
<path d="M7.96759 11.7656C7.96759 11.7416 7.9996 11.7416 7.9996 11.7656V11.8136H7.96759V11.7656Z" fill="black"/>
<path d="M8.32932 14.1598C8.17605 14.0019 8.24907 13.8546 8.24907 13.8546C8.25189 13.8517 8.40999 13.772 8.56611 13.927L8.33217 14.1626" fill="#FFFF00"/>
<path d="M8.04365 14.0675L8.20274 14.2649L8.32112 14.1457C8.17352 13.9991 8.26355 13.863 8.26355 13.863C8.26637 13.8602 8.40752 13.7805 8.54942 13.9158L8.6678 13.7966L8.46359 13.6389L8.04083 14.0646L8.04365 14.0675ZM8.19713 14.2762L8.67629 13.7937C8.68472 13.7852 8.7017 13.7852 8.71307 13.7964C8.72726 13.8105 8.72732 13.8275 8.71886 13.836L8.2397 14.3185C8.23124 14.327 8.21426 14.3271 8.20007 14.313C8.18873 14.3017 8.18867 14.2848 8.19995 14.2734L8.19713 14.2762Z" fill="#FFFF00" stroke="black" stroke-width="0.0666669"/>
<path d="M8.36924 14.0967C8.27558 14.0037 8.31485 13.9131 8.31485 13.9131C8.31485 13.9131 8.40806 13.8759 8.4989 13.9662L8.36924 14.0967ZM7.95032 14.0076L8.40974 13.545C8.4182 13.5365 8.438 13.5393 8.44937 13.5505C8.45789 13.559 8.45792 13.5759 8.44949 13.5845L7.99007 14.0471C7.98161 14.0556 7.96463 14.0557 7.95329 14.0444C7.94477 14.036 7.94471 14.019 7.95317 14.0105L7.95032 14.0076ZM8.00417 14.0386L8.43821 13.6015C8.44667 13.593 8.46365 13.5929 8.47499 13.6042C8.48636 13.6155 8.48642 13.6324 8.47796 13.641L8.0411 14.0809C8.02982 14.0922 8.01566 14.0895 8.00432 14.0782C7.99295 14.0669 7.99007 14.0528 8.00135 14.0414L8.00417 14.0386ZM7.84424 13.5979L7.87805 13.5639L7.90076 13.5864L7.92614 13.5609L7.90343 13.5383L7.94006 13.5014L7.96562 13.5268L7.99097 13.5012L7.96259 13.473L7.99643 13.439L8.05319 13.4953C8.06453 13.5066 8.06459 13.5179 8.05613 13.5264L7.93211 13.6513C7.92365 13.6599 7.90952 13.6627 7.901 13.6543L7.84424 13.5979ZM8.05052 13.5435L8.24063 13.7153L8.11943 13.8374L7.94339 13.6456L8.0477 13.5406" fill="#FFFF00"/>
<path d="M8.05052 13.5435L8.24063 13.7153L8.11943 13.8374L7.94339 13.6456L8.0477 13.5406M8.36924 14.0967C8.27558 14.0037 8.31485 13.9131 8.31485 13.9131C8.31485 13.9131 8.40806 13.8759 8.4989 13.9662L8.36924 14.0967ZM7.95032 14.0076L8.40974 13.545C8.4182 13.5365 8.438 13.5393 8.44937 13.5505C8.45789 13.559 8.45792 13.5759 8.44949 13.5845L7.99007 14.0471C7.98161 14.0556 7.96463 14.0557 7.95329 14.0444C7.94477 14.036 7.94471 14.019 7.95317 14.0105L7.95032 14.0076ZM8.00417 14.0386L8.43821 13.6015C8.44667 13.593 8.46365 13.5929 8.47499 13.6042C8.48636 13.6155 8.48642 13.6324 8.47796 13.641L8.0411 14.0809C8.02982 14.0922 8.01566 14.0895 8.00432 14.0782C7.99295 14.0669 7.99007 14.0528 8.00135 14.0414L8.00417 14.0386ZM7.84424 13.5979L7.87805 13.5639L7.90076 13.5864L7.92614 13.5609L7.90343 13.5383L7.94006 13.5014L7.96562 13.5268L7.99097 13.5012L7.96259 13.473L7.99643 13.439L8.05319 13.4953C8.06453 13.5066 8.06459 13.5179 8.05613 13.5264L7.93211 13.6513C7.92365 13.6599 7.90952 13.6627 7.901 13.6543L7.84424 13.5979Z" stroke="black" stroke-width="0.0666669"/>
<path d="M7.9889 13.7761L8.08541 13.8719L7.97267 13.9855L7.87616 13.8896L7.9889 13.7761Z" fill="#FFFF00" stroke="black" stroke-width="0.0666669"/>
<path d="M8.28773 13.4751L8.38424 13.5709L8.2715 13.6844L8.17499 13.5886L8.28773 13.4751Z" fill="#FFFF00" stroke="black" stroke-width="0.0666669"/>
<path d="M7.78241 13.8359L7.81622 13.8018L7.84463 13.83L7.86998 13.8045L7.8416 13.7763L7.87541 13.7422L7.90382 13.7704L7.92917 13.7449L7.90079 13.7167L7.9346 13.6826L7.99139 13.739C8.00273 13.7503 8.00276 13.7616 7.99433 13.7701L7.87313 13.8921C7.86863 13.8967 7.86254 13.8992 7.85618 13.8992C7.84982 13.8992 7.8437 13.8968 7.83917 13.8923L7.78241 13.8359Z" fill="#FFFF00" stroke="black" stroke-width="0.0666669"/>
<path d="M8.08124 13.5358L8.11505 13.5018L8.14346 13.53L8.16881 13.5044L8.14043 13.4762L8.17424 13.4422L8.20265 13.4704L8.228 13.4448L8.19962 13.4166L8.23343 13.3826L8.29022 13.4389C8.30156 13.4502 8.30159 13.4615 8.29313 13.47L8.17196 13.5921C8.16746 13.5966 8.16137 13.5992 8.15501 13.5992C8.14865 13.5992 8.14253 13.5967 8.138 13.5922L8.08124 13.5358Z" fill="#FFFF00" stroke="black" stroke-width="0.0666669"/>
<path d="M8.04245 13.6656C8.02541 13.6487 8.05079 13.6232 8.06783 13.6401L8.11322 13.6852L8.08787 13.7107L8.04245 13.6656Z" fill="black"/>
<path d="M7.95453 13.8778C7.93752 13.8609 7.96005 13.8382 7.97709 13.8551L8.01114 13.8889L7.98861 13.9116L7.95453 13.8778Z" fill="black"/>
<path d="M8.25336 13.5765C8.23635 13.5596 8.25888 13.5369 8.27592 13.5538L8.30997 13.5876L8.28744 13.6103L8.25336 13.5765Z" fill="black"/>
<path d="M9.43591 10.3777C9.43993 10.1577 9.59593 10.1057 9.59593 10.1057C9.59992 10.1057 9.76792 10.1617 9.76792 10.3817H9.43591" fill="#FFFF00"/>
<path d="M9.29952 10.1097L9.27153 10.3617H9.43953C9.43953 10.1537 9.59952 10.1217 9.59952 10.1217C9.60351 10.1217 9.75951 10.1657 9.76353 10.3617H9.93154L9.89952 10.1057H9.29952V10.1097ZM9.25953 10.3657H9.93952C9.95152 10.3657 9.96351 10.3777 9.96351 10.3937C9.96351 10.4137 9.95152 10.4257 9.93952 10.4257H9.25953C9.24753 10.4257 9.23553 10.4137 9.23553 10.3937C9.23553 10.3777 9.24753 10.3657 9.26352 10.3657H9.25953Z" fill="#FFFF00" stroke="black" stroke-width="0.0666669"/>
<path d="M9.50797 10.3616C9.50797 10.2296 9.59995 10.1936 9.59995 10.1936C9.59995 10.1936 9.69196 10.2335 9.69196 10.3616H9.50797ZM9.27595 10.0016H9.92797C9.93997 10.0016 9.95197 10.0175 9.95197 10.0336C9.95197 10.0456 9.93997 10.0575 9.92797 10.0575H9.27595C9.26395 10.0575 9.25195 10.0455 9.25195 10.0295C9.25195 10.0175 9.26395 10.0055 9.27595 10.0055V10.0016ZM9.29197 10.0616H9.90796C9.91996 10.0616 9.93196 10.0736 9.93196 10.0895C9.93196 10.1056 9.91996 10.1175 9.90796 10.1175H9.28795C9.27196 10.1175 9.26395 10.1056 9.26395 10.0895C9.26395 10.0736 9.27196 10.0616 9.28795 10.0616H9.29197ZM9.49195 9.63753H9.53995V9.66955H9.57595V9.63753H9.62797V9.67354H9.66397V9.63354H9.71197V9.71356C9.71197 9.72955 9.70396 9.73756 9.69196 9.73756H9.51595C9.50395 9.73756 9.49195 9.72955 9.49195 9.71755V9.63753ZM9.67597 9.74554L9.68797 10.0016H9.51595L9.52795 9.74155H9.67597" fill="#FFFF00"/>
<path d="M9.67597 9.74554L9.68797 10.0016H9.51595L9.52795 9.74155H9.67597M9.50797 10.3616C9.50797 10.2296 9.59995 10.1936 9.59995 10.1936C9.59995 10.1936 9.69196 10.2335 9.69196 10.3616H9.50797ZM9.27595 10.0016H9.92797C9.93997 10.0016 9.95197 10.0175 9.95197 10.0336C9.95197 10.0456 9.93997 10.0575 9.92797 10.0575H9.27595C9.26395 10.0575 9.25195 10.0455 9.25195 10.0295C9.25195 10.0175 9.26395 10.0055 9.27595 10.0055V10.0016ZM9.29197 10.0616H9.90796C9.91996 10.0616 9.93196 10.0736 9.93196 10.0895C9.93196 10.1056 9.91996 10.1175 9.90796 10.1175H9.28795C9.27196 10.1175 9.26395 10.1056 9.26395 10.0895C9.26395 10.0736 9.27196 10.0616 9.28795 10.0616H9.29197ZM9.49195 9.63753H9.53995V9.66955H9.57595V9.63753H9.62797V9.67354H9.66397V9.63354H9.71197V9.71356C9.71197 9.72955 9.70396 9.73756 9.69196 9.73756H9.51595C9.50395 9.73756 9.49195 9.72955 9.49195 9.71755V9.63753Z" stroke="black" stroke-width="0.0666669"/>
<path d="M9.46703 9.86548V10.0015H9.30701V9.86548H9.46703Z" fill="#FFFF00" stroke="black" stroke-width="0.0666669"/>
<path d="M9.89125 9.86548V10.0015H9.73126V9.86548H9.89125Z" fill="#FFFF00" stroke="black" stroke-width="0.0666669"/>
<path d="M9.28009 9.76123H9.32809V9.80122H9.36409V9.76123H9.41209V9.80122H9.44809V9.76123H9.49609V9.84124C9.49609 9.85723 9.48808 9.86524 9.47608 9.86524H9.30409C9.29773 9.86524 9.29161 9.86269 9.28711 9.85819C9.28261 9.85369 9.28009 9.8476 9.28009 9.84124V9.76123Z" fill="#FFFF00" stroke="black" stroke-width="0.0666669"/>
<path d="M9.70312 9.76123H9.75112V9.80122H9.78709V9.76123H9.83512V9.80122H9.87113V9.76123H9.91913V9.84124C9.91913 9.85723 9.91112 9.86524 9.89912 9.86524H9.72709C9.72073 9.86524 9.71464 9.86269 9.71014 9.85819C9.70564 9.85369 9.70312 9.8476 9.70312 9.84124V9.76123Z" fill="#FFFF00" stroke="black" stroke-width="0.0666669"/>
<path d="M9.58362 9.82488C9.58362 9.80088 9.61962 9.80088 9.61962 9.82488V9.8889H9.58362V9.82488Z" fill="black"/>
<path d="M9.37146 9.914C9.37146 9.89 9.40344 9.89 9.40344 9.914V9.962H9.37146V9.914Z" fill="black"/>
<path d="M9.79572 9.914C9.79572 9.89 9.82772 9.89 9.82772 9.914V9.962H9.79572V9.914Z" fill="black"/>
<path d="M11.5828 10.3777C11.5788 10.1577 11.4228 10.1057 11.4228 10.1057C11.4188 10.1057 11.2508 10.1617 11.2508 10.3817H11.5828" fill="#FFFF00"/>
<path d="M11.7192 10.1097L11.7472 10.3617H11.5792C11.5792 10.1537 11.4192 10.1217 11.4192 10.1217C11.4152 10.1217 11.2592 10.1657 11.2552 10.3617H11.0872L11.1192 10.1057H11.7192V10.1097ZM11.7592 10.3657H11.0792C11.0672 10.3657 11.0552 10.3777 11.0552 10.3937C11.0552 10.4137 11.0672 10.4257 11.0792 10.4257H11.7592C11.7712 10.4257 11.7832 10.4137 11.7832 10.3937C11.7832 10.3777 11.7712 10.3657 11.7552 10.3657H11.7592Z" fill="#FFFF00" stroke="black" stroke-width="0.0666669"/>
<path d="M11.5108 10.3616C11.5108 10.2296 11.4188 10.1936 11.4188 10.1936C11.4188 10.1936 11.3268 10.2335 11.3268 10.3616H11.5108ZM11.7428 10.0016H11.0908C11.0788 10.0016 11.0668 10.0175 11.0668 10.0336C11.0668 10.0456 11.0788 10.0575 11.0908 10.0575H11.7428C11.7548 10.0575 11.7668 10.0455 11.7668 10.0295C11.7668 10.0175 11.7548 10.0055 11.7428 10.0055V10.0016ZM11.7268 10.0616H11.1108C11.0988 10.0616 11.0868 10.0736 11.0868 10.0895C11.0868 10.1056 11.0988 10.1175 11.1108 10.1175H11.7308C11.7468 10.1175 11.7548 10.1056 11.7548 10.0895C11.7548 10.0736 11.7468 10.0616 11.7308 10.0616H11.7268ZM11.5268 9.63753H11.4788V9.66955H11.4428V9.63753H11.3908V9.67354H11.3548V9.63354H11.3068V9.71356C11.3068 9.72955 11.3148 9.73756 11.3268 9.73756H11.5028C11.5148 9.73756 11.5268 9.72955 11.5268 9.71755V9.63753ZM11.3428 9.74554L11.3308 10.0016H11.5028L11.4908 9.74155H11.3428" fill="#FFFF00"/>
<path d="M11.3428 9.74554L11.3308 10.0016H11.5028L11.4908 9.74155H11.3428M11.5108 10.3616C11.5108 10.2296 11.4188 10.1936 11.4188 10.1936C11.4188 10.1936 11.3268 10.2335 11.3268 10.3616H11.5108ZM11.7428 10.0016H11.0908C11.0788 10.0016 11.0668 10.0175 11.0668 10.0336C11.0668 10.0456 11.0788 10.0575 11.0908 10.0575H11.7428C11.7548 10.0575 11.7668 10.0455 11.7668 10.0295C11.7668 10.0175 11.7548 10.0055 11.7428 10.0055V10.0016ZM11.7268 10.0616H11.1108C11.0988 10.0616 11.0868 10.0736 11.0868 10.0895C11.0868 10.1056 11.0988 10.1175 11.1108 10.1175H11.7308C11.7468 10.1175 11.7548 10.1056 11.7548 10.0895C11.7548 10.0736 11.7468 10.0616 11.7308 10.0616H11.7268ZM11.5268 9.63753H11.4788V9.66955H11.4428V9.63753H11.3908V9.67354H11.3548V9.63354H11.3068V9.71356C11.3068 9.72955 11.3148 9.73756 11.3268 9.73756H11.5028C11.5148 9.73756 11.5268 9.72955 11.5268 9.71755V9.63753Z" stroke="black" stroke-width="0.0666669"/>
<path d="M11.5517 9.86548V10.0015H11.7117V9.86548H11.5517Z" fill="#FFFF00" stroke="black" stroke-width="0.0666669"/>
<path d="M11.1275 9.86548V10.0015H11.2875V9.86548H11.1275Z" fill="#FFFF00" stroke="black" stroke-width="0.0666669"/>
<path d="M11.7386 9.76123H11.6906V9.80122H11.6546V9.76123H11.6066V9.80122H11.5706V9.76123H11.5226V9.84124C11.5226 9.85723 11.5307 9.86524 11.5427 9.86524H11.7146C11.721 9.86524 11.7271 9.86269 11.7316 9.85819C11.7361 9.85369 11.7386 9.8476 11.7386 9.84124V9.76123Z" fill="#FFFF00" stroke="black" stroke-width="0.0666669"/>
<path d="M11.3156 9.76123H11.2676V9.80122H11.2316V9.76123H11.1836V9.80122H11.1476V9.76123H11.0996V9.84124C11.0996 9.85723 11.1076 9.86524 11.1196 9.86524H11.2916C11.298 9.86524 11.3041 9.86269 11.3086 9.85819C11.3131 9.85369 11.3156 9.8476 11.3156 9.84124V9.76123Z" fill="#FFFF00" stroke="black" stroke-width="0.0666669"/>
<path d="M11.4352 9.82488C11.4352 9.80088 11.3992 9.80088 11.3992 9.82488V9.8889H11.4352V9.82488Z" fill="black"/>
<path d="M11.6473 9.914C11.6473 9.89 11.6153 9.89 11.6153 9.914V9.962H11.6473V9.914Z" fill="black"/>
<path d="M11.223 9.914C11.223 9.89 11.191 9.89 11.191 9.914V9.962H11.223V9.914Z" fill="black"/>
<path d="M11.5828 12.2293C11.5788 12.0093 11.4228 11.9573 11.4228 11.9573C11.4188 11.9573 11.2508 12.0133 11.2508 12.2333H11.5828" fill="#FFFF00"/>
<path d="M11.7192 11.9613L11.7472 12.2133H11.5792C11.5792 12.0053 11.4192 11.9733 11.4192 11.9733C11.4152 11.9733 11.2592 12.0173 11.2552 12.2133H11.0872L11.1192 11.9573H11.7192V11.9613ZM11.7592 12.2173H11.0792C11.0672 12.2173 11.0552 12.2293 11.0552 12.2453C11.0552 12.2653 11.0672 12.2773 11.0792 12.2773H11.7592C11.7712 12.2773 11.7832 12.2653 11.7832 12.2453C11.7832 12.2293 11.7712 12.2173 11.7552 12.2173H11.7592Z" fill="#FFFF00" stroke="black" stroke-width="0.0666669"/>
<path d="M11.5108 12.2131C11.5108 12.0811 11.4188 12.0451 11.4188 12.0451C11.4188 12.0451 11.3268 12.0851 11.3268 12.2131H11.5108ZM11.7428 11.8531H11.0908C11.0788 11.8531 11.0668 11.8691 11.0668 11.8851C11.0668 11.8971 11.0788 11.9091 11.0908 11.9091H11.7428C11.7548 11.9091 11.7668 11.8971 11.7668 11.8811C11.7668 11.8691 11.7548 11.8571 11.7428 11.8571V11.8531ZM11.7268 11.9131H11.1108C11.0988 11.9131 11.0868 11.9251 11.0868 11.9411C11.0868 11.9571 11.0988 11.9691 11.1108 11.9691H11.7308C11.7468 11.9691 11.7548 11.9571 11.7548 11.9411C11.7548 11.9251 11.7468 11.9131 11.7308 11.9131H11.7268ZM11.5268 11.4891H11.4788V11.5211H11.4428V11.4891H11.3908V11.5251H11.3548V11.4851H11.3068V11.5651C11.3068 11.5811 11.3148 11.5891 11.3268 11.5891H11.5028C11.5148 11.5891 11.5268 11.5811 11.5268 11.5691V11.4891ZM11.3428 11.5971L11.3308 11.8531H11.5028L11.4908 11.5931H11.3428" fill="#FFFF00"/>
<path d="M11.3428 11.5971L11.3308 11.8531H11.5028L11.4908 11.5931H11.3428M11.5108 12.2131C11.5108 12.0811 11.4188 12.0451 11.4188 12.0451C11.4188 12.0451 11.3268 12.0851 11.3268 12.2131H11.5108ZM11.7428 11.8531H11.0908C11.0788 11.8531 11.0668 11.8691 11.0668 11.8851C11.0668 11.8971 11.0788 11.9091 11.0908 11.9091H11.7428C11.7548 11.9091 11.7668 11.8971 11.7668 11.8811C11.7668 11.8691 11.7548 11.8571 11.7428 11.8571V11.8531ZM11.7268 11.9131H11.1108C11.0988 11.9131 11.0868 11.9251 11.0868 11.9411C11.0868 11.9571 11.0988 11.9691 11.1108 11.9691H11.7308C11.7468 11.9691 11.7548 11.9571 11.7548 11.9411C11.7548 11.9251 11.7468 11.9131 11.7308 11.9131H11.7268ZM11.5268 11.4891H11.4788V11.5211H11.4428V11.4891H11.3908V11.5251H11.3548V11.4851H11.3068V11.5651C11.3068 11.5811 11.3148 11.5891 11.3268 11.5891H11.5028C11.5148 11.5891 11.5268 11.5811 11.5268 11.5691V11.4891Z" stroke="black" stroke-width="0.0666669"/>
<path d="M11.5517 11.717V11.8531H11.7117V11.717H11.5517Z" fill="#FFFF00" stroke="black" stroke-width="0.0666669"/>
<path d="M11.1275 11.717V11.8531H11.2875V11.717H11.1275Z" fill="#FFFF00" stroke="black" stroke-width="0.0666669"/>
<path d="M11.7386 11.6128H11.6906V11.6528H11.6546V11.6128H11.6066V11.6528H11.5706V11.6128H11.5226V11.6928C11.5226 11.7088 11.5307 11.7168 11.5427 11.7168H11.7146C11.721 11.7168 11.7271 11.7143 11.7316 11.7098C11.7361 11.7053 11.7386 11.6992 11.7386 11.6928V11.6128Z" fill="#FFFF00" stroke="black" stroke-width="0.0666669"/>
<path d="M11.3156 11.6128H11.2676V11.6528H11.2316V11.6128H11.1836V11.6528H11.1476V11.6128H11.0996V11.6928C11.0996 11.7088 11.1076 11.7168 11.1196 11.7168H11.2916C11.298 11.7168 11.3041 11.7143 11.3086 11.7098C11.3131 11.7053 11.3156 11.6992 11.3156 11.6928V11.6128Z" fill="#FFFF00" stroke="black" stroke-width="0.0666669"/>
<path d="M11.4352 11.6764C11.4352 11.6524 11.3992 11.6524 11.3992 11.6764V11.7404H11.4352V11.6764Z" fill="black"/>
<path d="M11.6473 11.7656C11.6473 11.7416 11.6153 11.7416 11.6153 11.7656V11.8136H11.6473V11.7656Z" fill="black"/>
<path d="M11.223 11.7656C11.223 11.7416 11.191 11.7416 11.191 11.7656V11.8136H11.223V11.7656Z" fill="black"/>
<path d="M10.8613 14.1598C11.0146 14.0019 10.9416 13.8546 10.9416 13.8546C10.9387 13.8517 10.7806 13.772 10.6245 13.927L10.8584 14.1626" fill="#FFFF00"/>
<path d="M11.147 14.0675L10.9879 14.2649L10.8695 14.1457C11.0171 13.9991 10.9271 13.863 10.9271 13.863C10.9243 13.8602 10.7831 13.7805 10.6412 13.9158L10.5228 13.7966L10.727 13.6389L11.1498 14.0646L11.147 14.0675ZM10.9935 14.2762L10.5144 13.7937C10.5059 13.7852 10.4889 13.7852 10.4776 13.7964C10.4634 13.8105 10.4633 13.8275 10.4718 13.836L10.951 14.3185C10.9594 14.327 10.9764 14.3271 10.9906 14.313C11.0019 14.3017 11.002 14.2848 10.9907 14.2734L10.9935 14.2762Z" fill="#FFFF00" stroke="black" stroke-width="0.0666669"/>
<path d="M10.8214 14.0967C10.9151 14.0037 10.8758 13.9131 10.8758 13.9131C10.8758 13.9131 10.7826 13.8759 10.6918 13.9662L10.8214 14.0967ZM11.2404 14.0076L10.7809 13.545C10.7725 13.5365 10.7526 13.5393 10.7413 13.5505C10.7328 13.559 10.7327 13.5759 10.7412 13.5845L11.2006 14.0471C11.2091 14.0556 11.226 14.0557 11.2374 14.0444C11.2459 14.036 11.246 14.019 11.2375 14.0105L11.2404 14.0076ZM11.1865 14.0386L10.7524 13.6015C10.744 13.593 10.727 13.5929 10.7157 13.6042C10.7043 13.6155 10.7043 13.6324 10.7127 13.641L11.1496 14.0809C11.1609 14.0922 11.175 14.0895 11.1864 14.0782C11.1977 14.0669 11.2006 14.0528 11.1893 14.0414L11.1865 14.0386ZM11.3464 13.5979L11.3126 13.5639L11.2899 13.5864L11.2645 13.5609L11.2872 13.5383L11.2506 13.5014L11.2251 13.5268L11.1997 13.5012L11.2281 13.473L11.1942 13.439L11.1375 13.4953C11.1261 13.5066 11.1261 13.5179 11.1345 13.5264L11.2586 13.6513C11.267 13.6599 11.2812 13.6627 11.2896 13.6543L11.3464 13.5979ZM11.1401 13.5435L10.95 13.7153L11.0712 13.8374L11.2473 13.6456L11.143 13.5406" fill="#FFFF00"/>
<path d="M11.1401 13.5435L10.95 13.7153L11.0712 13.8374L11.2473 13.6456L11.143 13.5406M10.8214 14.0967C10.9151 14.0037 10.8758 13.9131 10.8758 13.9131C10.8758 13.9131 10.7826 13.8759 10.6918 13.9662L10.8214 14.0967ZM11.2404 14.0076L10.7809 13.545C10.7725 13.5365 10.7526 13.5393 10.7413 13.5505C10.7328 13.559 10.7327 13.5759 10.7412 13.5845L11.2006 14.0471C11.2091 14.0556 11.226 14.0557 11.2374 14.0444C11.2459 14.036 11.246 14.019 11.2375 14.0105L11.2404 14.0076ZM11.1865 14.0386L10.7524 13.6015C10.744 13.593 10.727 13.5929 10.7157 13.6042C10.7043 13.6155 10.7043 13.6324 10.7127 13.641L11.1496 14.0809C11.1609 14.0922 11.175 14.0895 11.1864 14.0782C11.1977 14.0669 11.2006 14.0528 11.1893 14.0414L11.1865 14.0386ZM11.3464 13.5979L11.3126 13.5639L11.2899 13.5864L11.2645 13.5609L11.2872 13.5383L11.2506 13.5014L11.2251 13.5268L11.1997 13.5012L11.2281 13.473L11.1942 13.439L11.1375 13.4953C11.1261 13.5066 11.1261 13.5179 11.1345 13.5264L11.2586 13.6513C11.267 13.6599 11.2812 13.6627 11.2896 13.6543L11.3464 13.5979Z" stroke="black" stroke-width="0.0666669"/>
<path d="M11.2017 13.7761L11.1052 13.8719L11.218 13.9855L11.3144 13.8896L11.2017 13.7761Z" fill="#FFFF00" stroke="black" stroke-width="0.0666669"/>
<path d="M10.9029 13.4751L10.8064 13.5709L10.9191 13.6844L11.0156 13.5886L10.9029 13.4751Z" fill="#FFFF00" stroke="black" stroke-width="0.0666669"/>
<path d="M11.4082 13.8359L11.3744 13.8018L11.346 13.83L11.3206 13.8045L11.349 13.7763L11.3152 13.7422L11.2868 13.7704L11.2614 13.7449L11.2898 13.7167L11.256 13.6826L11.1993 13.739C11.1879 13.7503 11.1879 13.7616 11.1963 13.7701L11.3175 13.8921C11.322 13.8967 11.3281 13.8992 11.3345 13.8992C11.3408 13.8992 11.3469 13.8968 11.3514 13.8923L11.4082 13.8359Z" fill="#FFFF00" stroke="black" stroke-width="0.0666669"/>
<path d="M11.1094 13.5358L11.0756 13.5018L11.0472 13.53L11.0218 13.5044L11.0502 13.4762L11.0164 13.4422L10.988 13.4704L10.9626 13.4448L10.991 13.4166L10.9572 13.3826L10.9004 13.4389C10.8891 13.4502 10.889 13.4615 10.8975 13.47L11.0187 13.5921C11.0232 13.5966 11.0293 13.5992 11.0356 13.5992C11.042 13.5992 11.0481 13.5967 11.0526 13.5922L11.1094 13.5358Z" fill="#FFFF00" stroke="black" stroke-width="0.0666669"/>
<path d="M11.1482 13.6656C11.1652 13.6487 11.1399 13.6232 11.1228 13.6401L11.0774 13.6852L11.1028 13.7107L11.1482 13.6656Z" fill="black"/>
<path d="M11.2361 13.8778C11.2531 13.8609 11.2305 13.8382 11.2135 13.8551L11.1794 13.8889L11.202 13.9116L11.2361 13.8778Z" fill="black"/>
<path d="M10.9372 13.5765C10.9543 13.5596 10.9317 13.5369 10.9147 13.5538L10.8806 13.5876L10.9032 13.6103L10.9372 13.5765Z" fill="black"/>
<path d="M9.30354 12.298C9.30279 12.3824 9.33426 12.4639 9.39153 12.526C9.41823 12.5558 9.4509 12.5798 9.48741 12.5963C9.52389 12.6129 9.56346 12.6216 9.60354 12.622C9.68754 12.622 9.76353 12.582 9.81552 12.526C9.87279 12.4639 9.90426 12.3824 9.90354 12.298V11.866H9.30354V12.298Z" fill="#003399"/>
<path d="M9.44318 12.0902C9.47633 12.0902 9.50318 12.0633 9.50318 12.0302C9.50318 11.9971 9.47633 11.9702 9.44318 11.9702C9.41006 11.9702 9.38318 11.9971 9.38318 12.0302C9.38318 12.0633 9.41006 12.0902 9.44318 12.0902Z" fill="white"/>
<path d="M9.776 12.0902C9.80915 12.0902 9.836 12.0633 9.836 12.0302C9.836 11.9971 9.80915 11.9702 9.776 11.9702C9.74288 11.9702 9.716 11.9971 9.716 12.0302C9.716 12.0633 9.74288 12.0902 9.776 12.0902Z" fill="white"/>
<path d="M9.60724 12.2496C9.64039 12.2496 9.66724 12.2228 9.66724 12.1896C9.66724 12.1565 9.64039 12.1296 9.60724 12.1296C9.57412 12.1296 9.54724 12.1565 9.54724 12.1896C9.54724 12.2228 9.57412 12.2496 9.60724 12.2496Z" fill="white"/>
<path d="M9.44318 12.4183C9.47633 12.4183 9.50318 12.3915 9.50318 12.3583C9.50318 12.3252 9.47633 12.2983 9.44318 12.2983C9.41006 12.2983 9.38318 12.3252 9.38318 12.3583C9.38318 12.3915 9.41006 12.4183 9.44318 12.4183Z" fill="white"/>
<path d="M9.776 12.4183C9.80915 12.4183 9.836 12.3915 9.836 12.3583C9.836 12.3252 9.80915 12.2983 9.776 12.2983C9.74288 12.2983 9.716 12.3252 9.716 12.3583C9.716 12.3915 9.74288 12.4183 9.776 12.4183Z" fill="white"/>
<path d="M9.30354 11.2572C9.30279 11.3416 9.33426 11.4232 9.39153 11.4852C9.41823 11.515 9.4509 11.539 9.48741 11.5555C9.52389 11.5721 9.56346 11.5808 9.60354 11.5812C9.68754 11.5812 9.76353 11.5412 9.81552 11.4852C9.87279 11.4232 9.90426 11.3416 9.90354 11.2572V10.8252H9.30354V11.2572Z" fill="#003399"/>
<path d="M9.44318 11.0494C9.47633 11.0494 9.50318 11.0226 9.50318 10.9894C9.50318 10.9563 9.47633 10.9294 9.44318 10.9294C9.41006 10.9294 9.38318 10.9563 9.38318 10.9894C9.38318 11.0226 9.41006 11.0494 9.44318 11.0494Z" fill="white"/>
<path d="M9.776 11.0494C9.80915 11.0494 9.836 11.0226 9.836 10.9894C9.836 10.9563 9.80915 10.9294 9.776 10.9294C9.74288 10.9294 9.716 10.9563 9.716 10.9894C9.716 11.0226 9.74288 11.0494 9.776 11.0494Z" fill="white"/>
<path d="M9.60724 11.2089C9.64039 11.2089 9.66724 11.182 9.66724 11.1489C9.66724 11.1157 9.64039 11.0889 9.60724 11.0889C9.57412 11.0889 9.54724 11.1157 9.54724 11.1489C9.54724 11.182 9.57412 11.2089 9.60724 11.2089Z" fill="white"/>
<path d="M9.44318 11.3776C9.47633 11.3776 9.50318 11.3507 9.50318 11.3176C9.50318 11.2844 9.47633 11.2576 9.44318 11.2576C9.41006 11.2576 9.38318 11.2844 9.38318 11.3176C9.38318 11.3507 9.41006 11.3776 9.44318 11.3776Z" fill="white"/>
<path d="M9.776 11.3776C9.80915 11.3776 9.836 11.3507 9.836 11.3176C9.836 11.2844 9.80915 11.2576 9.776 11.2576C9.74288 11.2576 9.716 11.2844 9.716 11.3176C9.716 11.3507 9.74288 11.3776 9.776 11.3776Z" fill="white"/>
<path d="M8.47151 12.298C8.47079 12.3824 8.50226 12.4639 8.55953 12.526C8.58623 12.5558 8.61887 12.5798 8.65538 12.5963C8.69189 12.6129 8.73146 12.6216 8.77151 12.622C8.85551 12.622 8.93153 12.582 8.98352 12.526C9.04076 12.4639 9.07223 12.3824 9.07151 12.298V11.866H8.47151V12.298Z" fill="#003399"/>
<path d="M8.61115 12.0902C8.6443 12.0902 8.67115 12.0633 8.67115 12.0302C8.67115 11.9971 8.6443 11.9702 8.61115 11.9702C8.578 11.9702 8.55115 11.9971 8.55115 12.0302C8.55115 12.0633 8.578 12.0902 8.61115 12.0902Z" fill="white"/>
<path d="M8.94397 12.0902C8.97709 12.0902 9.00397 12.0633 9.00397 12.0302C9.00397 11.9971 8.97709 11.9702 8.94397 11.9702C8.91082 11.9702 8.88397 11.9971 8.88397 12.0302C8.88397 12.0633 8.91082 12.0902 8.94397 12.0902Z" fill="white"/>
<path d="M8.77521 12.2496C8.80833 12.2496 8.83521 12.2228 8.83521 12.1896C8.83521 12.1565 8.80833 12.1296 8.77521 12.1296C8.74206 12.1296 8.71521 12.1565 8.71521 12.1896C8.71521 12.2228 8.74206 12.2496 8.77521 12.2496Z" fill="white"/>
<path d="M8.61115 12.4183C8.6443 12.4183 8.67115 12.3915 8.67115 12.3583C8.67115 12.3252 8.6443 12.2983 8.61115 12.2983C8.578 12.2983 8.55115 12.3252 8.55115 12.3583C8.55115 12.3915 8.578 12.4183 8.61115 12.4183Z" fill="white"/>
<path d="M8.94397 12.4183C8.97709 12.4183 9.00397 12.3915 9.00397 12.3583C9.00397 12.3252 8.97709 12.2983 8.94397 12.2983C8.91082 12.2983 8.88397 12.3252 8.88397 12.3583C8.88397 12.3915 8.91082 12.4183 8.94397 12.4183Z" fill="white"/>
<path d="M10.1356 12.298C10.1349 12.3824 10.1663 12.4639 10.2236 12.526C10.2503 12.5558 10.2829 12.5798 10.3194 12.5963C10.356 12.6129 10.3955 12.6216 10.4356 12.622C10.5196 12.622 10.5956 12.582 10.6476 12.526C10.7048 12.4639 10.7363 12.3824 10.7356 12.298V11.866H10.1356V12.298Z" fill="#003399"/>
<path d="M10.2752 12.0902C10.3083 12.0902 10.3352 12.0633 10.3352 12.0302C10.3352 11.9971 10.3083 11.9702 10.2752 11.9702C10.2421 11.9702 10.2152 11.9971 10.2152 12.0302C10.2152 12.0633 10.2421 12.0902 10.2752 12.0902Z" fill="white"/>
<path d="M10.608 12.0902C10.6412 12.0902 10.668 12.0633 10.668 12.0302C10.668 11.9971 10.6412 11.9702 10.608 11.9702C10.5749 11.9702 10.548 11.9971 10.548 12.0302C10.548 12.0633 10.5749 12.0902 10.608 12.0902Z" fill="white"/>
<path d="M10.4393 12.2496C10.4725 12.2496 10.4993 12.2228 10.4993 12.1896C10.4993 12.1565 10.4725 12.1296 10.4393 12.1296C10.4062 12.1296 10.3793 12.1565 10.3793 12.1896C10.3793 12.2228 10.4062 12.2496 10.4393 12.2496Z" fill="white"/>
<path d="M10.2752 12.4183C10.3083 12.4183 10.3352 12.3915 10.3352 12.3583C10.3352 12.3252 10.3083 12.2983 10.2752 12.2983C10.2421 12.2983 10.2152 12.3252 10.2152 12.3583C10.2152 12.3915 10.2421 12.4183 10.2752 12.4183Z" fill="white"/>
<path d="M10.608 12.4183C10.6412 12.4183 10.668 12.3915 10.668 12.3583C10.668 12.3252 10.6412 12.2983 10.608 12.2983C10.5749 12.2983 10.548 12.3252 10.548 12.3583C10.548 12.3915 10.5749 12.4183 10.608 12.4183Z" fill="white"/>
<path d="M9.30354 13.3292C9.30279 13.4136 9.33426 13.4952 9.39153 13.5572C9.41823 13.5871 9.4509 13.6111 9.48741 13.6276C9.52389 13.6441 9.56346 13.6529 9.60354 13.6532C9.68754 13.6532 9.76353 13.6132 9.81552 13.5572C9.87279 13.4952 9.90426 13.4136 9.90354 13.3292V12.8972H9.30354V13.3292Z" fill="#003399"/>
<path d="M9.44318 13.1215C9.47633 13.1215 9.50318 13.0946 9.50318 13.0615C9.50318 13.0283 9.47633 13.0015 9.44318 13.0015C9.41006 13.0015 9.38318 13.0283 9.38318 13.0615C9.38318 13.0946 9.41006 13.1215 9.44318 13.1215Z" fill="white"/>
<path d="M9.776 13.1215C9.80915 13.1215 9.836 13.0946 9.836 13.0615C9.836 13.0283 9.80915 13.0015 9.776 13.0015C9.74288 13.0015 9.716 13.0283 9.716 13.0615C9.716 13.0946 9.74288 13.1215 9.776 13.1215Z" fill="white"/>
<path d="M9.60724 13.2809C9.64039 13.2809 9.66724 13.254 9.66724 13.2209C9.66724 13.1878 9.64039 13.1609 9.60724 13.1609C9.57412 13.1609 9.54724 13.1878 9.54724 13.2209C9.54724 13.254 9.57412 13.2809 9.60724 13.2809Z" fill="white"/>
<path d="M9.44318 13.4496C9.47633 13.4496 9.50318 13.4227 9.50318 13.3896C9.50318 13.3565 9.47633 13.3296 9.44318 13.3296C9.41006 13.3296 9.38318 13.3565 9.38318 13.3896C9.38318 13.4227 9.41006 13.4496 9.44318 13.4496Z" fill="white"/>
<path d="M9.776 13.4496C9.80915 13.4496 9.836 13.4227 9.836 13.3896C9.836 13.3565 9.80915 13.3296 9.776 13.3296C9.74288 13.3296 9.716 13.3565 9.716 13.3896C9.716 13.4227 9.74288 13.4496 9.776 13.4496Z" fill="white"/>
</g>
<defs>
<clipPath id="clip0_69_10272">
<rect width="24" height="24" rx="12" fill="white"/>
</clipPath>
</defs>
</svg>
