<svg width="24" height="24" viewBox="0 0 24 24" fill="none" xmlns="http://www.w3.org/2000/svg">
<g clip-path="url(#clip0_69_9959)">
<path fill-rule="evenodd" clip-rule="evenodd" d="M-4 -0.400146H28V24.7999H-4V-0.400146Z" fill="#4AADD6"/>
<path fill-rule="evenodd" clip-rule="evenodd" d="M15.2215 11.9034C15.2399 12.555 15.1218 13.2035 14.8741 13.8107C14.6264 14.4178 14.2541 14.9713 13.7792 15.4384C13.3044 15.9056 12.7365 16.2768 12.1093 16.5303C11.482 16.7839 10.808 16.9145 10.1271 16.9145C9.44621 16.9145 8.77223 16.7839 8.14496 16.5303C7.51769 16.2768 6.94985 15.9056 6.47495 15.4384C6.00008 14.9713 5.62778 14.4178 5.38007 13.8107C5.13236 13.2035 5.01425 12.555 5.03273 11.9034C5.01425 11.2518 5.13236 10.6033 5.38007 9.99616C5.62778 9.38899 6.00008 8.83552 6.47495 8.36839C6.94985 7.90126 7.51769 7.52998 8.14496 7.27648C8.77223 7.02295 9.44621 6.89233 10.1271 6.89233C10.808 6.89233 11.482 7.02295 12.1093 7.27648C12.7365 7.52998 13.3044 7.90126 13.7792 8.36839C14.2541 8.83552 14.6264 9.38899 14.8741 9.99616C15.1218 10.6033 15.2399 11.2518 15.2215 11.9034Z" fill="#FFDE00"/>
</g>
<defs>
<clipPath id="clip0_69_9959">
<rect width="24" height="24" rx="12" fill="white"/>
</clipPath>
</defs>
</svg>
