<svg width="24" height="24" viewBox="0 0 24 24" fill="none" xmlns="http://www.w3.org/2000/svg">
<g clip-path="url(#clip0_69_9987)">
<g clip-path="url(#clip1_69_9987)">
<mask id="mask0_69_9987" style="mask-type:luminance" maskUnits="userSpaceOnUse" x="-4" y="0" width="32" height="24">
<path d="M28 0H-4V24H28V0Z" fill="white"/>
</mask>
<g mask="url(#mask0_69_9987)">
<path d="M-4 15.9844H28V23.9994H-4V15.9844Z" fill="#0038A8"/>
<path d="M-4 8H28V16H-4V8Z" fill="white"/>
<path d="M-4 0H28V8H-4V0Z" fill="#D52B1E"/>
<path d="M11.9988 15.0694C13.6938 15.0694 15.0679 13.6953 15.0679 12.0003C15.0679 10.3052 13.6938 8.93115 11.9988 8.93115C10.3038 8.93115 8.92969 10.3052 8.92969 12.0003C8.92969 13.6953 10.3038 15.0694 11.9988 15.0694Z" stroke="black" stroke-width="0.200001"/>
<path d="M11.9986 14.5238C13.3924 14.5238 14.5223 13.394 14.5223 12.0002C14.5223 10.6064 13.3924 9.47656 11.9986 9.47656C10.6049 9.47656 9.47501 10.6064 9.47501 12.0002C9.47501 13.394 10.6049 14.5238 11.9986 14.5238Z" stroke="black" stroke-width="0.0909094"/>
<path d="M11.9986 13.9348C13.067 13.9348 13.9332 13.0686 13.9332 12.0002C13.9332 10.9318 13.067 10.0657 11.9986 10.0657C10.9302 10.0657 10.0641 10.9318 10.0641 12.0002C10.0641 13.0686 10.9302 13.9348 11.9986 13.9348Z" stroke="black" stroke-width="0.0727275"/>
<path d="M10.3653 13.185L10.0103 13.395L9.90031 13.21C9.88491 13.1852 9.87315 13.1582 9.86531 13.13C9.85967 13.1084 9.86143 13.0855 9.87031 13.065C9.88031 13.045 9.89531 13.03 9.92031 13.015C9.94031 13.005 9.95531 13 9.97531 13C9.99419 12.9988 10.0131 13.0022 10.0303 13.01L10.0703 13.04V12.975L10.0853 12.95L10.1603 12.835L10.2303 12.96L10.1603 13.08L10.1453 13.12L10.1503 13.15L10.1553 13.16L10.3053 13.075L10.3653 13.185ZM10.0903 13.2L10.0603 13.15L10.0403 13.125C10.037 13.1218 10.0331 13.1192 10.0288 13.1176C10.0245 13.1158 10.0199 13.115 10.0153 13.115C10.0066 13.1139 9.99787 13.1157 9.99031 13.12L9.97031 13.15C9.97031 13.16 9.97531 13.175 9.99031 13.195L10.0153 13.245L10.0903 13.2ZM9.75531 12.925L9.64531 12.6L9.73031 12.57L9.79531 12.775L9.86031 12.755L9.79531 12.565L9.87531 12.54L9.94031 12.725L10.0153 12.7L9.94531 12.49L10.0353 12.465L10.1453 12.795L9.75531 12.925ZM9.61031 12.44L9.59031 12.23C9.58031 12.18 9.59031 12.15 9.61031 12.125C9.63031 12.095 9.66031 12.08 9.70031 12.075C9.74031 12.075 9.77531 12.08 9.80031 12.105C9.82531 12.125 9.84031 12.165 9.85031 12.215L9.85531 12.285L10.0053 12.265L10.0253 12.395L9.61031 12.44ZM9.77531 12.29L9.77031 12.26C9.77031 12.235 9.76031 12.22 9.75031 12.21C9.74567 12.2057 9.74011 12.2026 9.73399 12.2008C9.72791 12.1991 9.72151 12.1988 9.71531 12.2C9.70315 12.2028 9.69247 12.2099 9.68531 12.22C9.67531 12.225 9.67531 12.245 9.67531 12.27L9.68031 12.305L9.77531 12.29ZM9.60031 11.665L9.61531 11.535L9.85531 11.565C9.87963 11.5676 9.90331 11.5744 9.92531 11.585C9.94531 11.595 9.96531 11.605 9.97531 11.625C9.99531 11.64 10.0003 11.66 10.0053 11.675C10.0153 11.705 10.0153 11.735 10.0103 11.77L10.0003 11.835C9.99531 11.86 9.98531 11.875 9.97531 11.89C9.95471 11.9224 9.92251 11.9457 9.88531 11.955H9.81531L9.57031 11.93L9.58531 11.805L9.83531 11.83C9.85531 11.83 9.87531 11.83 9.88531 11.82C9.90531 11.81 9.91031 11.79 9.91531 11.77C9.91695 11.7521 9.91155 11.7342 9.90031 11.72C9.89031 11.7 9.87031 11.695 9.85031 11.69L9.60031 11.665ZM9.65031 11.365L9.73531 11.135C9.74531 11.095 9.76531 11.07 9.79031 11.06C9.80223 11.0529 9.81547 11.0484 9.82927 11.0466C9.84303 11.0449 9.85699 11.0461 9.87031 11.05C9.89531 11.06 9.91031 11.075 9.92031 11.095C9.93031 11.11 9.93531 11.125 9.93531 11.145C9.95031 11.12 9.97031 11.105 9.99031 11.095C10.0129 11.0866 10.0378 11.0866 10.0603 11.095C10.08 11.1014 10.0975 11.1133 10.1108 11.1292C10.1241 11.1452 10.1326 11.1645 10.1353 11.185V11.235L10.1203 11.285L10.0453 11.495L9.65031 11.365ZM9.85031 11.295L9.87031 11.24C9.87031 11.22 9.87531 11.205 9.87031 11.2C9.87031 11.19 9.86031 11.18 9.85031 11.175C9.84563 11.1728 9.84051 11.1717 9.83531 11.1717C9.83011 11.1717 9.82499 11.1728 9.82031 11.175C9.81031 11.185 9.80031 11.195 9.79531 11.215L9.77531 11.265L9.85031 11.295ZM10.0003 11.345L10.0253 11.285C10.0303 11.265 10.0353 11.25 10.0253 11.235C10.0213 11.2262 10.0142 11.219 10.0053 11.215C9.99999 11.212 9.99395 11.2104 9.98779 11.2104C9.98167 11.2104 9.97563 11.212 9.97031 11.215L9.94531 11.26L9.92531 11.32L10.0003 11.345ZM9.85031 10.865L9.91531 10.755L10.1853 10.915L10.2853 10.745L10.3753 10.795L10.2053 11.075L9.85031 10.865ZM10.1003 10.485L10.1803 10.385L10.5003 10.65L10.4203 10.75L10.1003 10.485ZM10.6553 10.27L10.7653 10.22C10.7803 10.25 10.7853 10.28 10.7903 10.305C10.7916 10.3309 10.7865 10.3567 10.7753 10.38C10.761 10.4091 10.7405 10.4346 10.7153 10.455C10.688 10.4827 10.6533 10.5018 10.6153 10.51C10.5827 10.5198 10.5479 10.5198 10.5153 10.51C10.4752 10.4932 10.4406 10.4654 10.4153 10.43C10.3653 10.38 10.3453 10.33 10.3503 10.275C10.3531 10.2467 10.3617 10.2192 10.3754 10.1943C10.3892 10.1694 10.4078 10.1475 10.4303 10.13C10.4626 10.102 10.5028 10.0846 10.5453 10.08C10.5803 10.075 10.6203 10.08 10.6603 10.105L10.5903 10.2C10.5813 10.1933 10.5711 10.1882 10.5603 10.185C10.5488 10.1823 10.5368 10.1823 10.5253 10.185C10.5138 10.1892 10.5035 10.196 10.4953 10.205C10.4845 10.213 10.476 10.2236 10.4708 10.236C10.4655 10.2482 10.4636 10.2618 10.4653 10.275C10.4653 10.295 10.4853 10.32 10.5053 10.345C10.5353 10.38 10.5603 10.4 10.5853 10.405C10.6053 10.405 10.6253 10.405 10.6453 10.385C10.6653 10.37 10.6753 10.355 10.6753 10.335C10.6753 10.315 10.6703 10.295 10.6553 10.27ZM11.0953 10.11L10.9703 10.18L10.9853 10.25L10.8703 10.31L10.8103 9.87505L10.9353 9.81005L11.2653 10.1L11.1453 10.165L11.0953 10.11ZM11.0303 10.045L10.9203 9.93505L10.9503 10.085L11.0303 10.045ZM11.4203 9.62005L11.6103 9.59005C11.64 9.58413 11.6706 9.58413 11.7003 9.59005C11.7253 9.59505 11.7503 9.60505 11.7653 9.62505C11.7803 9.64505 11.8003 9.66005 11.8103 9.68505C11.8203 9.70505 11.8303 9.73505 11.8303 9.76005C11.8403 9.80505 11.8403 9.84005 11.8353 9.86005C11.8307 9.88537 11.8205 9.90929 11.8053 9.93005C11.7927 9.94901 11.7755 9.96449 11.7553 9.97505C11.7315 9.98665 11.7063 9.99505 11.6803 10L11.4953 10.03L11.4203 9.62005ZM11.5653 9.69005L11.6053 9.91505L11.6353 9.91005C11.6603 9.90505 11.6803 9.90005 11.6853 9.89005C11.7003 9.88505 11.7053 9.87005 11.7103 9.85505V9.78505C11.7003 9.74005 11.6853 9.71505 11.6703 9.70005C11.6553 9.68505 11.6303 9.68005 11.5953 9.68505L11.5653 9.69005ZM11.9553 9.55005L12.2953 9.56505V9.65505L12.0803 9.64505L12.0753 9.71005L12.2753 9.72005L12.2703 9.80505L12.0703 9.79505V9.87505L12.2903 9.88505L12.2853 9.98005L11.9353 9.96505L11.9553 9.55005ZM12.4553 9.59005L12.5753 9.62005L12.5003 9.92005L12.7003 9.97005L12.6703 10.07L12.3553 9.99005L12.4553 9.59005ZM13.1153 9.81005L13.3003 9.92005C13.3403 9.94005 13.3653 9.97005 13.3703 10C13.3803 10.03 13.3703 10.065 13.3553 10.1C13.3468 10.1165 13.3348 10.1308 13.3201 10.1421C13.3054 10.1533 13.2884 10.1612 13.2703 10.165C13.2403 10.17 13.2003 10.165 13.1553 10.135L13.0953 10.1L13.0153 10.23L12.9053 10.165L13.1153 9.81005ZM13.1353 10.03L13.1653 10.045L13.2153 10.06C13.2215 10.0593 13.2275 10.0571 13.2327 10.0536C13.2379 10.0501 13.2422 10.0455 13.2453 10.04C13.2495 10.0288 13.2495 10.0163 13.2453 10.005C13.2453 9.99005 13.2353 9.98005 13.2153 9.96505L13.1853 9.95005L13.1353 10.03ZM13.4953 10.51L13.3903 10.41L13.3303 10.445L13.2303 10.36L13.6303 10.16L13.7303 10.26L13.5603 10.665L13.4603 10.575L13.4953 10.51ZM13.5353 10.425L13.6053 10.285L13.4703 10.365L13.5353 10.425ZM13.5853 10.7L13.9303 10.465L14.0453 10.64L14.0953 10.725L14.0903 10.785C14.0802 10.8084 14.0626 10.8278 14.0403 10.84C14.0253 10.855 14.0053 10.86 13.9903 10.86C13.9698 10.8622 13.949 10.8587 13.9303 10.85C13.9203 10.85 13.9053 10.835 13.8903 10.825L13.9003 10.86L13.8903 10.89C13.888 10.9003 13.8846 10.9104 13.8803 10.92L13.8153 11.035L13.7353 10.92L13.8003 10.79L13.8153 10.755C13.8165 10.7425 13.8129 10.73 13.8053 10.72L13.8003 10.71L13.6603 10.81L13.5853 10.7ZM13.8603 10.67L13.8953 10.715L13.9153 10.735C13.9253 10.745 13.9303 10.745 13.9403 10.745C13.949 10.7462 13.9578 10.7444 13.9653 10.74C13.9698 10.7364 13.9735 10.7319 13.9761 10.7267C13.9787 10.7215 13.9801 10.7158 13.9803 10.71C13.9803 10.7 13.9803 10.685 13.9653 10.665L13.9303 10.62L13.8603 10.67ZM13.9903 11.29L13.9403 11.15L13.8653 11.16L13.8153 11.035L14.2603 11.03L14.3103 11.16L13.9853 11.46L13.9353 11.33L13.9903 11.29ZM14.0653 11.23L14.1853 11.13L14.0303 11.145L14.0653 11.23ZM14.1703 11.68L14.2553 11.67L14.2853 11.865L14.1103 11.89C14.0846 11.8632 14.0627 11.8329 14.0453 11.8C14.0302 11.7684 14.0201 11.7347 14.0153 11.7C14.0064 11.6586 14.0081 11.6156 14.0203 11.575C14.0346 11.5432 14.057 11.5156 14.0853 11.495C14.1177 11.4712 14.1555 11.4558 14.1953 11.45C14.2355 11.4436 14.2767 11.447 14.3153 11.46C14.3503 11.4739 14.38 11.4984 14.4003 11.53C14.4203 11.56 14.4303 11.595 14.4403 11.64V11.74C14.4364 11.764 14.426 11.7865 14.4103 11.805C14.3953 11.825 14.3753 11.835 14.3503 11.85L14.3103 11.73C14.3253 11.725 14.3353 11.715 14.3453 11.7C14.3553 11.685 14.3503 11.67 14.3453 11.65C14.344 11.6381 14.3402 11.6266 14.3342 11.6163C14.3282 11.606 14.32 11.597 14.3103 11.59C14.2903 11.575 14.2603 11.57 14.2103 11.58C14.179 11.5825 14.1493 11.5948 14.1253 11.615C14.1053 11.635 14.1003 11.665 14.1053 11.69C14.1053 11.705 14.1103 11.72 14.1203 11.73L14.1453 11.77H14.1853L14.1703 11.68ZM14.4403 12.28L14.4303 12.41L14.1803 12.39C14.1577 12.387 14.1358 12.3802 14.1153 12.37C14.096 12.3605 14.0789 12.3468 14.0653 12.33C14.0516 12.314 14.0413 12.2953 14.0353 12.275C14.0266 12.2459 14.0232 12.2154 14.0253 12.185L14.0353 12.12L14.0603 12.06C14.071 12.0443 14.0846 12.0307 14.1003 12.02C14.1154 12.01 14.1324 12.0032 14.1503 12C14.173 11.9933 14.1966 11.99 14.2203 11.99L14.4703 12.015L14.4553 12.14L14.2053 12.12C14.1803 12.12 14.1603 12.12 14.1503 12.135C14.1429 12.1412 14.1369 12.1488 14.1326 12.1574C14.1283 12.166 14.1258 12.1754 14.1253 12.185C14.1253 12.205 14.1253 12.225 14.1403 12.235C14.1503 12.25 14.1653 12.26 14.1903 12.26L14.4403 12.28ZM13.9853 12.72L14.0303 12.58L13.9703 12.54L14.0103 12.415L14.3603 12.695L14.3103 12.825L13.8703 12.845L13.9153 12.72H13.9853ZM14.0803 12.72L14.2303 12.725L14.1053 12.635L14.0803 12.72ZM14.2303 13.06L14.1553 13.18H13.9903L14.0653 13.325L13.9953 13.445L13.8703 13.185L13.7203 13.095L13.7903 12.985L13.9403 13.075L14.2303 13.06Z" fill="black"/>
<path d="M12.4054 10.5657C12.4054 10.5657 13.5754 11.0707 13.3704 12.1107C13.1704 13.1507 12.5204 13.1407 12.2604 13.2607C12.0104 13.3707 11.8304 13.5357 11.7304 13.5107C11.6304 13.4907 11.4954 13.4107 11.4954 13.4107C11.4954 13.4107 11.4854 13.5857 11.6904 13.6107C11.8954 13.6457 12.1654 13.3457 12.2904 13.3107C12.4204 13.2807 13.2154 13.1907 13.4104 12.1357C13.6354 11.0057 12.4104 10.6007 12.4104 10.5657H12.4054Z" fill="#009B3A" stroke="black" stroke-width="0.0125"/>
<path d="M12.996 10.7902C12.9994 10.8171 12.9997 10.8398 12.9971 10.8558C12.9944 10.8718 12.9887 10.8802 12.9809 10.8802C12.973 10.8802 12.9631 10.8718 12.9525 10.8558C12.9419 10.8398 12.931 10.8171 12.921 10.7902C12.9122 10.7666 12.9045 10.7406 12.8985 10.7147C12.8926 10.6887 12.8885 10.6636 12.8868 10.6418C12.8851 10.6198 12.8858 10.6018 12.8888 10.5894C12.8918 10.5768 12.8969 10.5703 12.9039 10.5703C12.9108 10.5703 12.9193 10.5768 12.9284 10.5894C12.9376 10.6018 12.9473 10.6198 12.9564 10.6418C12.9656 10.6636 12.974 10.6887 12.9809 10.7147C12.9879 10.7406 12.993 10.7666 12.996 10.7902Z" fill="#009B3A" stroke="black" stroke-width="0.0125"/>
<path d="M12.9554 10.8C12.9655 10.8205 12.9747 10.8411 12.9823 10.8606C12.9899 10.8801 12.9959 10.8982 12.9998 10.9138C13.0037 10.9295 13.0055 10.9423 13.0051 10.9517C13.0048 10.961 13.0023 10.9667 12.9977 10.9683C12.9931 10.97 12.9865 10.9676 12.9784 10.9612C12.9703 10.9549 12.9607 10.9448 12.9503 10.9315C12.9399 10.9182 12.9287 10.902 12.9176 10.8837C12.9065 10.8654 12.8955 10.8455 12.8854 10.825C12.8649 10.7837 12.8489 10.7428 12.841 10.7112C12.8331 10.6796 12.8338 10.6601 12.8431 10.6568C12.8524 10.6534 12.8695 10.6667 12.8905 10.6935C12.9115 10.7204 12.9349 10.7587 12.9554 10.8ZM12.8404 10.875C12.8766 10.8868 12.9096 10.9013 12.933 10.9158C12.9565 10.9304 12.9688 10.9438 12.9675 10.9538C12.9663 10.9637 12.9516 10.9693 12.9263 10.9695C12.901 10.9697 12.8669 10.9646 12.8304 10.955C12.7942 10.9433 12.7612 10.9288 12.7377 10.9142C12.7143 10.8997 12.702 10.8862 12.7032 10.8763C12.7045 10.8664 12.7191 10.8608 12.7445 10.8606C12.7697 10.8603 12.8039 10.8655 12.8404 10.875Z" fill="#009B3A" stroke="black" stroke-width="0.0125"/>
<path d="M12.8559 10.8351C12.894 10.8607 12.9287 10.8887 12.9523 10.9129C12.976 10.9371 12.9867 10.9556 12.982 10.9642C12.9774 10.9728 12.9578 10.9709 12.9276 10.9589C12.8974 10.9468 12.859 10.9257 12.8209 10.9001C12.8021 10.8874 12.7838 10.874 12.7673 10.8606C12.7507 10.8473 12.7362 10.8342 12.7245 10.8222C12.7008 10.798 12.6901 10.7796 12.6948 10.771C12.6994 10.7623 12.719 10.7642 12.7492 10.7763C12.7795 10.7883 12.8178 10.8094 12.8559 10.8351Z" fill="#009B3A" stroke="black" stroke-width="0.0125"/>
<path d="M12.9057 10.815C12.9363 10.8469 12.963 10.8801 12.98 10.9073C12.9969 10.9345 13.0027 10.9535 12.9961 10.9602C12.9895 10.9668 12.9709 10.9605 12.9446 10.9427C12.9183 10.9248 12.8863 10.8969 12.8557 10.865C12.825 10.8331 12.7983 10.7999 12.7813 10.7727C12.7644 10.7455 12.7586 10.7265 12.7652 10.7199C12.7718 10.7132 12.7903 10.7195 12.8167 10.7374C12.843 10.7552 12.875 10.7831 12.9057 10.815Z" fill="#009B3A" stroke="black" stroke-width="0.0125"/>
<path d="M12.9862 10.9597L12.9362 10.9897C12.9212 10.9897 12.9063 10.9747 12.8763 10.9897C12.8463 11.0047 12.8263 11.0347 12.8213 11.0497C12.8163 11.0647 12.8312 11.0747 12.8662 11.0547C12.9012 11.0397 12.9113 11.0097 12.9263 10.9997L12.9912 10.9647L13.0312 10.8997C13.0462 10.8797 13.0912 10.8497 13.1112 10.8097C13.1262 10.7797 13.1213 10.7547 13.1013 10.7647C13.0752 10.7799 13.0543 10.8025 13.0412 10.8297C13.0312 10.8497 13.0413 10.8797 13.0263 10.8997L12.9862 10.9597ZM13.3513 11.0797C13.3524 11.1493 13.3478 11.2146 13.3382 11.2615C13.3288 11.3083 13.3152 11.3327 13.3006 11.3294C13.2861 11.3261 13.2716 11.2953 13.2605 11.2438C13.2493 11.1923 13.2424 11.1243 13.2412 11.0547C13.2401 10.9852 13.2448 10.9198 13.2543 10.873C13.2637 10.8261 13.2773 10.8017 13.2918 10.805C13.3064 10.8083 13.3209 10.8391 13.3321 10.8907C13.3432 10.9422 13.3501 11.0102 13.3513 11.0797Z" fill="#009B3A" stroke="black" stroke-width="0.0125"/>
<path d="M13.2901 11.0753C13.3052 11.1456 13.3138 11.2133 13.3142 11.2635C13.3145 11.3137 13.3065 11.3423 13.2919 11.3429C13.2774 11.3436 13.2574 11.3163 13.2364 11.2671C13.2154 11.2178 13.1952 11.1506 13.1801 11.0803C13.1731 11.0474 13.1675 11.0148 13.1637 10.9843C13.1599 10.9539 13.1579 10.9263 13.1578 10.903C13.1578 10.8797 13.1596 10.8613 13.1633 10.8487C13.167 10.8361 13.1724 10.8296 13.1793 10.8296C13.1862 10.8296 13.1944 10.8361 13.2035 10.8487C13.2125 10.8613 13.2222 10.8797 13.2321 10.903C13.2419 10.9263 13.2516 10.9539 13.2607 10.9843C13.2698 11.0148 13.2781 11.0474 13.2851 11.0803L13.2901 11.0753Z" fill="#009B3A" stroke="black" stroke-width="0.0125"/>
<path d="M13.1009 11.1346C13.1265 11.1519 13.1514 11.1704 13.1742 11.1892C13.197 11.208 13.2173 11.2265 13.2338 11.2438C13.2502 11.2612 13.2627 11.277 13.2704 11.2902C13.2781 11.3036 13.2808 11.3141 13.2786 11.3213C13.2762 11.3286 13.2689 11.3323 13.257 11.3324C13.2451 11.3324 13.2288 11.3288 13.209 11.3216C13.1893 11.3145 13.1665 11.304 13.1419 11.2908C13.1174 11.2776 13.0915 11.2619 13.0659 11.2446C13.0403 11.2273 13.0154 11.2088 12.9926 11.19C12.9698 11.1713 12.9496 11.1527 12.9331 11.1354C12.9166 11.118 12.9041 11.1023 12.8964 11.089C12.8888 11.0757 12.886 11.0651 12.8883 11.0579C12.8906 11.0507 12.8979 11.0469 12.9098 11.0469C12.9218 11.0468 12.9381 11.0505 12.9578 11.0576C12.9776 11.0647 13.0004 11.0752 13.0249 11.0884C13.0495 11.1016 13.0753 11.1173 13.1009 11.1346Z" fill="#009B3A" stroke="black" stroke-width="0.0125"/>
<path d="M13.1407 11.0807C13.1849 11.1343 13.2236 11.1899 13.2482 11.2353C13.2729 11.2807 13.2816 11.3122 13.2723 11.3228C13.263 11.3334 13.2366 11.3223 13.1988 11.2919C13.161 11.2615 13.1149 11.2143 13.0707 11.1607C13.0279 11.1086 12.9906 11.0547 12.9669 11.0109C12.9432 10.9671 12.9351 10.9368 12.9444 10.9269C12.9537 10.9169 12.9796 10.9281 13.0164 10.9579C13.0532 10.9876 13.0979 11.0336 13.1407 11.0857V11.0807Z" fill="#009B3A" stroke="black" stroke-width="0.0125"/>
<path d="M13.2162 11.0748C13.2491 11.1362 13.2759 11.1976 13.2908 11.2457C13.3056 11.2937 13.3073 11.3245 13.2953 11.3311C13.2834 11.3377 13.2589 11.3197 13.2271 11.281C13.1954 11.2424 13.1591 11.1862 13.1262 11.1248C13.1098 11.0944 13.0948 11.0637 13.082 11.0344C13.0692 11.0051 13.0589 10.9778 13.0515 10.954C13.0367 10.9059 13.035 10.8752 13.047 10.8685C13.0589 10.8619 13.0834 10.8799 13.1152 10.9186C13.1469 10.9573 13.1832 11.0135 13.2162 11.0748Z" fill="#009B3A" stroke="black" stroke-width="0.0125"/>
<path d="M13.2804 11.3195L13.1904 11.3395C13.1754 11.3395 13.1604 11.3045 13.1154 11.3145C13.0704 11.3245 13.0304 11.3545 13.0154 11.3745C13.0054 11.3945 13.0204 11.4145 13.0754 11.4045C13.1354 11.3945 13.1554 11.3545 13.1854 11.3545C13.2104 11.3445 13.2554 11.3345 13.2854 11.3345C13.2954 11.3145 13.3354 11.2745 13.3604 11.2545C13.3854 11.2295 13.4604 11.2045 13.4954 11.1645C13.5304 11.1245 13.5304 11.0845 13.4954 11.0895C13.4571 11.1025 13.4227 11.1248 13.3954 11.1545C13.3704 11.1845 13.3754 11.2295 13.3504 11.2545L13.2804 11.3195ZM13.5354 11.5645C13.5242 11.6313 13.5082 11.6928 13.4909 11.7353C13.4736 11.7779 13.4565 11.7981 13.4432 11.7915C13.43 11.7848 13.4217 11.7519 13.4202 11.7C13.4188 11.6481 13.4242 11.5813 13.4354 11.5145C13.4409 11.4815 13.4477 11.4493 13.4553 11.4201C13.463 11.3907 13.4713 11.3648 13.4798 11.3437C13.4884 11.3227 13.497 11.3069 13.5052 11.2973C13.5134 11.2876 13.521 11.2843 13.5276 11.2876C13.5341 11.2909 13.5395 11.3007 13.5435 11.3164C13.5474 11.3321 13.5498 11.3534 13.5506 11.3791C13.5513 11.4048 13.5503 11.4344 13.5477 11.4663C13.5451 11.4981 13.5409 11.5315 13.5354 11.5645Z" fill="#009B3A" stroke="black" stroke-width="0.0125"/>
<path d="M13.4811 11.5498C13.4828 11.5846 13.483 11.6196 13.4817 11.6525C13.4804 11.6854 13.4777 11.7154 13.4737 11.7406C13.4697 11.7658 13.4645 11.7856 13.4585 11.7989C13.4524 11.8121 13.4457 11.8184 13.4387 11.8173C13.4316 11.8163 13.4245 11.8079 13.4177 11.7928C13.4108 11.7776 13.4045 11.756 13.3991 11.7294C13.3937 11.7028 13.3893 11.6717 13.3862 11.6382C13.3831 11.6046 13.3814 11.5694 13.3811 11.5348C13.3794 11.4999 13.3793 11.4649 13.3805 11.432C13.3818 11.3992 13.3845 11.3692 13.3885 11.3439C13.3925 11.3187 13.3977 11.2988 13.4037 11.2856C13.4098 11.2724 13.4165 11.2661 13.4236 11.2672C13.4306 11.2682 13.4377 11.2766 13.4446 11.2918C13.4514 11.3069 13.4577 11.3285 13.4631 11.3551C13.4685 11.3818 13.473 11.4128 13.4761 11.4464C13.4792 11.4799 13.4809 11.5151 13.4811 11.5498Z" fill="#009B3A" stroke="black" stroke-width="0.0125"/>
<path d="M13.2853 11.5702C13.3111 11.5926 13.3373 11.6181 13.3618 11.6447C13.3863 11.6714 13.4084 11.6984 13.4265 11.7236C13.4446 11.7489 13.458 11.7717 13.4659 11.7903C13.4738 11.8089 13.4757 11.8228 13.4717 11.8308C13.4677 11.8389 13.4578 11.8409 13.4427 11.8367C13.4277 11.8324 13.4079 11.8222 13.385 11.8066C13.3621 11.791 13.3366 11.7706 13.3107 11.747C13.2847 11.7233 13.2589 11.697 13.2353 11.6702C13.2095 11.6478 13.1833 11.6223 13.1588 11.5957C13.1343 11.569 13.1122 11.542 13.0941 11.5168C13.076 11.4915 13.0626 11.4687 13.0547 11.4501C13.0469 11.4315 13.0449 11.4176 13.0489 11.4096C13.0529 11.4016 13.0628 11.3996 13.0779 11.4038C13.0929 11.408 13.1127 11.4182 13.1356 11.4338C13.1585 11.4494 13.184 11.4698 13.21 11.4935C13.2359 11.5171 13.2617 11.5434 13.2853 11.5702Z" fill="#009B3A" stroke="black" stroke-width="0.0125"/>
<path d="M13.3351 11.5252C13.3517 11.5556 13.367 11.5866 13.3802 11.6164C13.3934 11.6462 13.4042 11.6741 13.412 11.6987C13.4198 11.7232 13.4244 11.7439 13.4256 11.7595C13.4268 11.7751 13.4245 11.7853 13.4189 11.7896C13.4133 11.7938 13.4046 11.7921 13.393 11.7844C13.3815 11.7766 13.3676 11.7632 13.3519 11.7446C13.3362 11.7261 13.3192 11.7029 13.3017 11.6764C13.2842 11.6499 13.2667 11.6206 13.2501 11.5902C13.2336 11.5597 13.2182 11.5287 13.205 11.4989C13.1918 11.4692 13.181 11.4412 13.1733 11.4166C13.1655 11.3921 13.1609 11.3714 13.1597 11.3558C13.1585 11.3402 13.1608 11.33 13.1663 11.3258C13.1719 11.3215 13.1807 11.3232 13.1922 11.331C13.2037 11.3387 13.2177 11.3522 13.2334 11.3707C13.249 11.3892 13.2661 11.4124 13.2836 11.4389C13.301 11.4654 13.3186 11.4947 13.3351 11.5252Z" fill="#009B3A" stroke="black" stroke-width="0.0125"/>
<path d="M13.4062 11.5342C13.4165 11.5665 13.4254 11.5989 13.4325 11.6296C13.4396 11.6603 13.4446 11.6887 13.4475 11.7131C13.4503 11.7376 13.4508 11.7577 13.449 11.7721C13.4472 11.7866 13.443 11.7952 13.4368 11.7975C13.4305 11.7998 13.4223 11.7957 13.4126 11.7855C13.403 11.7753 13.392 11.7591 13.3803 11.7379C13.3686 11.7167 13.3566 11.6909 13.3447 11.6619C13.3329 11.633 13.3215 11.6015 13.3112 11.5692C13.3006 11.5354 13.2912 11.5015 13.2839 11.4694C13.2765 11.4373 13.2712 11.4076 13.2682 11.3821C13.2624 11.3305 13.2665 11.2989 13.2797 11.2943C13.293 11.2897 13.3143 11.3123 13.339 11.3573C13.3636 11.4023 13.3896 11.4659 13.4112 11.5342H13.4062Z" fill="#009B3A" stroke="black" stroke-width="0.0125"/>
<path d="M13.4263 11.7897H13.3413C13.3263 11.7897 13.3163 11.7497 13.2713 11.7497C13.2327 11.7504 13.1955 11.7645 13.1663 11.7897C13.1463 11.8097 13.1613 11.8297 13.2163 11.8297C13.2713 11.8297 13.3013 11.8047 13.3313 11.7997H13.4313L13.5213 11.7397C13.5513 11.7197 13.6263 11.7097 13.6713 11.6747C13.7063 11.6447 13.7163 11.6047 13.6863 11.6047C13.6448 11.6099 13.6053 11.6254 13.5713 11.6497C13.5463 11.6697 13.5413 11.7147 13.5113 11.7347C13.4913 11.7447 13.4313 11.7897 13.4263 11.7847M13.5513 12.1047C13.5161 12.1608 13.4786 12.21 13.4471 12.2417C13.4156 12.2733 13.3927 12.2848 13.3834 12.2735C13.3741 12.2622 13.3793 12.2292 13.3976 12.1816C13.4159 12.134 13.4461 12.0758 13.4813 12.0197C13.5165 11.9637 13.554 11.9145 13.5855 11.8828C13.617 11.8512 13.6399 11.8397 13.6491 11.851C13.6584 11.8623 13.6533 11.8953 13.635 11.9429C13.6166 11.9905 13.5865 12.0487 13.5513 12.1047Z" fill="#009B3A"/>
<path d="M13.4263 11.7897H13.3413C13.3263 11.7897 13.3163 11.7497 13.2713 11.7497C13.2327 11.7504 13.1955 11.7645 13.1663 11.7897C13.1463 11.8097 13.1613 11.8297 13.2163 11.8297C13.2713 11.8297 13.3013 11.8047 13.3313 11.7997H13.4313L13.5213 11.7397C13.5513 11.7197 13.6263 11.7097 13.6713 11.6747C13.7063 11.6447 13.7163 11.6047 13.6863 11.6047C13.6448 11.6099 13.6053 11.6254 13.5713 11.6497C13.5463 11.6697 13.5413 11.7147 13.5113 11.7347C13.4913 11.7447 13.4313 11.7897 13.4263 11.7847M13.5513 12.1047C13.5161 12.1608 13.4786 12.21 13.4471 12.2417C13.4156 12.2733 13.3927 12.2848 13.3834 12.2735C13.3741 12.2622 13.3793 12.2292 13.3976 12.1816C13.4159 12.134 13.4461 12.0758 13.4813 12.0197C13.5165 11.9637 13.554 11.9145 13.5855 11.8828C13.617 11.8512 13.6399 11.8397 13.6491 11.851C13.6584 11.8623 13.6533 11.8953 13.635 11.9429C13.6166 11.9905 13.5865 12.0487 13.5513 12.1047Z" stroke="black" stroke-width="0.0125"/>
<path d="M13.5049 12.0647C13.4802 12.1289 13.4518 12.1875 13.4259 12.2276C13.4001 12.2678 13.3788 12.2863 13.3669 12.279C13.355 12.2717 13.3533 12.2392 13.3623 12.1887C13.3713 12.1383 13.3902 12.0739 13.4149 12.0097C13.4395 11.9456 13.4679 11.8871 13.4938 11.8469C13.5197 11.8067 13.5409 11.7882 13.5529 11.7955C13.5648 11.8028 13.5664 11.8353 13.5575 11.8858C13.5485 11.9363 13.5295 12.0006 13.5049 12.0647ZM13.3199 12.0047C13.3449 12.0703 13.3642 12.1371 13.3734 12.1905C13.3827 12.2439 13.3812 12.2795 13.3692 12.2894C13.3573 12.2994 13.3359 12.2829 13.3098 12.2435C13.2837 12.2042 13.2549 12.1453 13.2299 12.0797C13.2049 12.0142 13.1856 11.9474 13.1763 11.894C13.1671 11.8406 13.1686 11.805 13.1805 11.7951C13.1925 11.7851 13.2138 11.8016 13.24 11.8409C13.2661 11.8803 13.2949 11.9392 13.3199 12.0047Z" fill="#009B3A" stroke="black" stroke-width="0.0125"/>
<path d="M13.3804 11.9852C13.3867 12.0538 13.3875 12.1208 13.3825 12.1716C13.3776 12.2224 13.3674 12.2529 13.3541 12.2562C13.3409 12.2595 13.3257 12.2354 13.3118 12.1893C13.298 12.1432 13.2867 12.0788 13.2804 12.0102C13.2773 11.9763 13.2755 11.9424 13.2751 11.9104C13.2747 11.8784 13.2758 11.849 13.2782 11.8238C13.2807 11.7987 13.2844 11.7783 13.2893 11.7638C13.2942 11.7493 13.3001 11.741 13.3066 11.7393C13.3132 11.7377 13.3203 11.7428 13.3275 11.7542C13.3348 11.7657 13.3421 11.7834 13.3489 11.8062C13.3558 11.829 13.3621 11.8566 13.3675 11.8873C13.3729 11.918 13.3773 11.9513 13.3804 11.9852Z" fill="#009B3A" stroke="black" stroke-width="0.0125"/>
<path d="M13.451 12.0207C13.4445 12.0893 13.433 12.1549 13.419 12.203C13.405 12.2511 13.3898 12.2777 13.3765 12.2771C13.3632 12.2764 13.3531 12.2485 13.3483 12.1995C13.3435 12.1505 13.3445 12.0843 13.351 12.0157C13.3542 11.9817 13.3587 11.9481 13.3642 11.9168C13.3696 11.8855 13.376 11.8571 13.383 11.8333C13.3898 11.8095 13.3972 11.7907 13.4045 11.778C13.4118 11.7653 13.4189 11.7589 13.4255 11.7593C13.4387 11.7599 13.4489 11.7879 13.4536 11.8369C13.4584 11.8859 13.4575 11.952 13.451 12.0207Z" fill="#009B3A" stroke="black" stroke-width="0.0125"/>
<path d="M13.3656 12.2649C13.3656 12.2649 13.2956 12.2399 13.2856 12.2299C13.2706 12.2199 13.2806 12.1899 13.2356 12.1649C13.2002 12.1514 13.1611 12.1514 13.1256 12.1649C13.1006 12.1649 13.1056 12.1949 13.1556 12.2149C13.2056 12.2449 13.2456 12.2249 13.2706 12.2349L13.3606 12.2799C13.3856 12.2699 13.4406 12.2649 13.4706 12.2599C13.5006 12.2549 13.5756 12.2799 13.6306 12.2599C13.6756 12.2449 13.6956 12.2099 13.6656 12.1999C13.6279 12.1899 13.5883 12.1899 13.5506 12.1999C13.5156 12.2049 13.4956 12.2499 13.4606 12.2499C13.4356 12.2499 13.3656 12.2699 13.3606 12.2649M13.4106 12.6499C13.381 12.6781 13.3493 12.7053 13.3177 12.7294C13.2861 12.7536 13.2556 12.774 13.2284 12.7893C13.2012 12.8045 13.178 12.8141 13.1605 12.8175C13.1431 12.8207 13.1318 12.8177 13.1275 12.8084C13.1233 12.7991 13.1262 12.7839 13.136 12.7639C13.1458 12.7439 13.1623 12.7196 13.1842 12.6928C13.2061 12.6661 13.2329 12.6375 13.2626 12.6093C13.2923 12.5811 13.3241 12.5539 13.3556 12.5299C13.3857 12.5 13.4187 12.4707 13.452 12.4445C13.4853 12.4182 13.5179 12.3957 13.5471 12.3787C13.5764 12.3618 13.6014 12.3509 13.6202 12.347C13.6389 12.3431 13.6509 12.3463 13.6551 12.3563C13.6592 12.3663 13.6555 12.3828 13.6441 12.4045C13.6328 12.4263 13.6142 12.4525 13.5899 12.4812C13.5655 12.5099 13.5361 12.5401 13.5041 12.5694C13.4721 12.5987 13.4383 12.6263 13.4056 12.6499" fill="#009B3A"/>
<path d="M13.3656 12.2649C13.3656 12.2649 13.2956 12.2399 13.2856 12.2299C13.2706 12.2199 13.2806 12.1899 13.2356 12.1649C13.2002 12.1514 13.1611 12.1514 13.1256 12.1649C13.1006 12.1649 13.1056 12.1949 13.1556 12.2149C13.2056 12.2449 13.2456 12.2249 13.2706 12.2349L13.3606 12.2799C13.3856 12.2699 13.4406 12.2649 13.4706 12.2599C13.5006 12.2549 13.5756 12.2799 13.6306 12.2599C13.6756 12.2449 13.6956 12.2099 13.6656 12.1999C13.6279 12.1899 13.5883 12.1899 13.5506 12.1999C13.5156 12.2049 13.4956 12.2499 13.4606 12.2499C13.4356 12.2499 13.3656 12.2699 13.3606 12.2649M13.4106 12.6499C13.381 12.6781 13.3493 12.7053 13.3177 12.7294C13.2861 12.7536 13.2556 12.774 13.2284 12.7893C13.2012 12.8045 13.178 12.8141 13.1605 12.8175C13.1431 12.8207 13.1318 12.8177 13.1275 12.8084C13.1233 12.7991 13.1262 12.7839 13.136 12.7639C13.1458 12.7439 13.1623 12.7196 13.1842 12.6928C13.2061 12.6661 13.2329 12.6375 13.2626 12.6093C13.2923 12.5811 13.3241 12.5539 13.3556 12.5299C13.3857 12.5 13.4187 12.4707 13.452 12.4445C13.4853 12.4182 13.5179 12.3957 13.5471 12.3787C13.5764 12.3618 13.6014 12.3509 13.6202 12.347C13.6389 12.3431 13.6509 12.3463 13.6551 12.3563C13.6592 12.3663 13.6555 12.3828 13.6441 12.4045C13.6328 12.4263 13.6142 12.4525 13.5899 12.4812C13.5655 12.5099 13.5361 12.5401 13.5041 12.5694C13.4721 12.5987 13.4383 12.6263 13.4056 12.6499" stroke="black" stroke-width="0.0125"/>
<path d="M13.365 12.5951C13.3173 12.6558 13.2676 12.7087 13.2268 12.7422C13.186 12.7757 13.1576 12.7871 13.1476 12.7738C13.1377 12.7605 13.1471 12.7237 13.1738 12.6715C13.2005 12.6192 13.2423 12.5558 13.29 12.4951C13.3136 12.4651 13.338 12.4367 13.3617 12.4114C13.3854 12.3862 13.408 12.3647 13.4282 12.3481C13.4483 12.3315 13.4657 12.3201 13.4793 12.3147C13.4929 12.3093 13.5024 12.3099 13.5073 12.3164C13.5123 12.323 13.5125 12.3354 13.508 12.353C13.5035 12.3705 13.4944 12.3929 13.4812 12.4188C13.468 12.4447 13.4509 12.4735 13.431 12.5038C13.411 12.5341 13.3886 12.5651 13.365 12.5951Z" fill="#009B3A" stroke="black" stroke-width="0.0125"/>
<path d="M13.1856 12.46C13.1921 12.4998 13.1965 12.5432 13.1985 12.5867C13.2004 12.6302 13.1999 12.6725 13.1968 12.7101C13.1938 12.7477 13.1884 12.7796 13.1811 12.8031C13.1737 12.8266 13.1647 12.8411 13.1546 12.8452C13.1446 12.8494 13.1339 12.8432 13.1233 12.8272C13.1128 12.8111 13.1028 12.7857 13.0941 12.7529C13.0854 12.7202 13.0783 12.6811 13.0733 12.6388C13.0684 12.5966 13.0657 12.5525 13.0656 12.51C13.0591 12.4703 13.0547 12.4269 13.0527 12.3833C13.0508 12.3399 13.0513 12.2976 13.0543 12.2599C13.0574 12.2223 13.0628 12.1904 13.0701 12.1669C13.0774 12.1434 13.0865 12.129 13.0966 12.1248C13.1066 12.1206 13.1173 12.1268 13.1278 12.1429C13.1384 12.1589 13.1484 12.1844 13.1571 12.2171C13.1658 12.2499 13.1729 12.289 13.1779 12.3312C13.1828 12.3735 13.1855 12.4176 13.1856 12.46Z" fill="#009B3A" stroke="black" stroke-width="0.0125"/>
<path d="M13.2552 12.4594C13.2396 12.5182 13.2216 12.5692 13.2039 12.6051C13.1862 12.6409 13.1697 12.6596 13.1568 12.6585C13.144 12.6574 13.1354 12.6365 13.1324 12.5988C13.1294 12.5612 13.1322 12.5088 13.1402 12.4494C13.1458 12.4058 13.1541 12.3594 13.1646 12.314C13.175 12.2687 13.1872 12.2257 13.2002 12.1887C13.2132 12.1516 13.2267 12.1216 13.2394 12.101C13.2521 12.0804 13.2638 12.0699 13.2734 12.0703C13.283 12.0708 13.2904 12.0821 13.2948 12.1034C13.2992 12.1247 13.3006 12.1554 13.2988 12.193C13.297 12.2305 13.2921 12.2738 13.2846 12.3192C13.277 12.3647 13.2669 12.411 13.2552 12.4544" fill="#009B3A"/>
<path d="M13.2552 12.4594C13.2396 12.5182 13.2216 12.5692 13.2039 12.6051C13.1862 12.6409 13.1697 12.6596 13.1568 12.6585C13.144 12.6574 13.1354 12.6365 13.1324 12.5988C13.1294 12.5612 13.1322 12.5088 13.1402 12.4494C13.1458 12.4058 13.1541 12.3594 13.1646 12.314C13.175 12.2687 13.1872 12.2257 13.2002 12.1887C13.2132 12.1516 13.2267 12.1216 13.2394 12.101C13.2521 12.0804 13.2638 12.0699 13.2734 12.0703C13.283 12.0708 13.2904 12.0821 13.2948 12.1034C13.2992 12.1247 13.3006 12.1554 13.2988 12.193C13.297 12.2305 13.2921 12.2738 13.2846 12.3192C13.277 12.3647 13.2669 12.411 13.2552 12.4544" stroke="black" stroke-width="0.0125"/>
<path d="M13.3164 12.5202C13.3025 12.5635 13.2852 12.6092 13.2661 12.6534C13.2469 12.6975 13.2264 12.7389 13.2062 12.7739C13.1861 12.8088 13.167 12.8364 13.1505 12.8542C13.134 12.872 13.1207 12.8795 13.1116 12.876C13.1026 12.8726 13.098 12.8583 13.0985 12.8344C13.0989 12.8105 13.1042 12.7776 13.114 12.7387C13.1238 12.6998 13.1378 12.656 13.1548 12.6109C13.1717 12.5659 13.1911 12.5211 13.2114 12.4802C13.2252 12.4369 13.2425 12.3912 13.2616 12.3471C13.2808 12.3029 13.3014 12.2615 13.3215 12.2265C13.3416 12.1915 13.3607 12.164 13.3772 12.1462C13.3937 12.1284 13.407 12.1209 13.4161 12.1244C13.4252 12.1278 13.4297 12.1421 13.4292 12.166C13.4288 12.19 13.4235 12.2228 13.4137 12.2617C13.4039 12.3006 13.3899 12.3444 13.373 12.3895C13.356 12.4345 13.3366 12.4793 13.3164 12.5202Z" fill="#009B3A" stroke="black" stroke-width="0.0125"/>
<path d="M13.151 12.7647C13.1228 12.7431 13.0961 12.7197 13.071 12.6947C13.061 12.6797 13.076 12.6447 13.036 12.6047C12.996 12.5647 12.946 12.5547 12.916 12.5547C12.886 12.5597 12.886 12.5897 12.931 12.6347C12.981 12.6847 13.031 12.6747 13.051 12.6947C13.081 12.7147 13.121 12.7497 13.136 12.7747L13.266 12.7947C13.301 12.7947 13.376 12.8497 13.441 12.8497C13.491 12.8497 13.531 12.8247 13.501 12.7997C13.4629 12.7717 13.418 12.7545 13.371 12.7497C13.331 12.7497 13.296 12.7897 13.261 12.7797L13.146 12.7647M13.031 13.1297C12.9524 13.1426 12.8779 13.1472 12.8237 13.1428C12.7696 13.1382 12.7403 13.1249 12.7423 13.1057C12.7443 13.0865 12.7774 13.0629 12.8344 13.0402C12.8913 13.0175 12.9674 12.9976 13.046 12.9847C13.0849 12.9783 13.1232 12.9739 13.1588 12.9716C13.1943 12.9694 13.2264 12.9694 13.2532 12.9716C13.28 12.9738 13.301 12.9783 13.315 12.9846C13.329 12.991 13.3357 12.9992 13.3347 13.0087C13.3337 13.0182 13.3251 13.0289 13.3093 13.0401C13.2935 13.0514 13.2708 13.0629 13.2426 13.0742C13.2144 13.0854 13.1812 13.0961 13.1449 13.1056C13.1086 13.1151 13.0699 13.1233 13.031 13.1297Z" fill="#009B3A"/>
<path d="M13.151 12.7647C13.1228 12.7431 13.0961 12.7197 13.071 12.6947C13.061 12.6797 13.076 12.6447 13.036 12.6047C12.996 12.5647 12.946 12.5547 12.916 12.5547C12.886 12.5597 12.886 12.5897 12.931 12.6347C12.981 12.6847 13.031 12.6747 13.051 12.6947C13.081 12.7147 13.121 12.7497 13.136 12.7747L13.266 12.7947C13.301 12.7947 13.376 12.8497 13.441 12.8497C13.491 12.8497 13.531 12.8247 13.501 12.7997C13.4629 12.7717 13.418 12.7545 13.371 12.7497C13.331 12.7497 13.296 12.7897 13.261 12.7797L13.146 12.7647M13.031 13.1297C12.9524 13.1426 12.8779 13.1472 12.8237 13.1428C12.7696 13.1382 12.7403 13.1249 12.7423 13.1057C12.7443 13.0865 12.7774 13.0629 12.8344 13.0402C12.8913 13.0175 12.9674 12.9976 13.046 12.9847C13.0849 12.9783 13.1232 12.9739 13.1588 12.9716C13.1943 12.9694 13.2264 12.9694 13.2532 12.9716C13.28 12.9738 13.301 12.9783 13.315 12.9846C13.329 12.991 13.3357 12.9992 13.3347 13.0087C13.3337 13.0182 13.3251 13.0289 13.3093 13.0401C13.2935 13.0514 13.2708 13.0629 13.2426 13.0742C13.2144 13.0854 13.1812 13.0961 13.1449 13.1056C13.1086 13.1151 13.0699 13.1233 13.031 13.1297Z" stroke="black" stroke-width="0.0125"/>
<path d="M13.0257 13.0495C12.9464 13.08 12.8691 13.1025 12.8107 13.1119C12.7523 13.1212 12.7176 13.1168 12.7143 13.0996C12.711 13.0823 12.7393 13.0537 12.793 13.0199C12.8468 12.9861 12.9214 12.95 13.0007 12.9195C13.0828 12.8879 13.1629 12.8647 13.2233 12.8551C13.2838 12.8454 13.3196 12.85 13.3229 12.8679C13.3262 12.8858 13.2967 12.9155 13.241 12.9505C13.1853 12.9855 13.1078 13.0229 13.0257 13.0545" fill="#009B3A"/>
<path d="M13.0257 13.0495C12.9464 13.08 12.8691 13.1025 12.8107 13.1119C12.7523 13.1212 12.7176 13.1168 12.7143 13.0996C12.711 13.0823 12.7393 13.0537 12.793 13.0199C12.8468 12.9861 12.9214 12.95 13.0007 12.9195C13.0828 12.8879 13.1629 12.8647 13.2233 12.8551C13.2838 12.8454 13.3196 12.85 13.3229 12.8679C13.3262 12.8858 13.2967 12.9155 13.241 12.9505C13.1853 12.9855 13.1078 13.0229 13.0257 13.0545" stroke="black" stroke-width="0.0125"/>
<path d="M12.9213 12.8207C12.8892 12.8808 12.8547 12.9337 12.8235 12.9705C12.7923 13.0072 12.7663 13.0257 12.7499 13.0228C12.7335 13.0199 12.7277 12.9957 12.7334 12.9543C12.7391 12.913 12.756 12.857 12.7813 12.7957C12.7978 12.7559 12.8172 12.7151 12.8382 12.6764C12.8592 12.6377 12.8813 12.6019 12.9028 12.5718C12.9243 12.5417 12.9447 12.518 12.9625 12.5023C12.9804 12.4867 12.9951 12.4796 13.0058 12.4815C13.0164 12.4834 13.0227 12.4943 13.0241 12.5133C13.0255 12.5324 13.0221 12.5591 13.014 12.5917C13.0059 12.6242 12.9934 12.6616 12.9774 12.7012C12.9613 12.7409 12.9422 12.7817 12.9213 12.8207Z" fill="#009B3A" stroke="black" stroke-width="0.0125"/>
<path d="M12.9956 12.8603C12.936 12.9277 12.8728 12.9885 12.8199 13.0291C12.767 13.0698 12.7288 13.087 12.7135 13.0771C12.6982 13.0671 12.7073 13.0308 12.7386 12.9761C12.77 12.9213 12.821 12.8527 12.8806 12.7853C12.9101 12.7519 12.9408 12.7197 12.9709 12.6908C13.0011 12.6618 13.0301 12.6365 13.0563 12.6164C13.1092 12.5757 13.1474 12.5585 13.1627 12.5684C13.178 12.5784 13.1689 12.6147 13.1376 12.6695C13.1221 12.6965 13.1015 12.7273 13.0772 12.7601C13.0528 12.7928 13.0251 12.8269 12.9956 12.8603Z" fill="#009B3A" stroke="black" stroke-width="0.0125"/>
<path d="M13.0151 12.9553C12.979 12.9849 12.9406 13.0137 12.9026 13.0395C12.8646 13.0655 12.828 13.0878 12.7953 13.1051C12.7626 13.1224 12.7346 13.1342 12.7133 13.1396C12.692 13.1451 12.6778 13.1441 12.6719 13.1367C12.666 13.1292 12.6684 13.1156 12.679 13.0967C12.6895 13.0778 12.708 13.0541 12.7331 13.0273C12.7582 13.0005 12.7892 12.9712 12.8242 12.9415C12.859 12.9117 12.8969 12.8823 12.9351 12.8553C12.9966 12.8117 13.0557 12.7764 13.102 12.7558C13.1484 12.7351 13.179 12.7303 13.1886 12.7423C13.1982 12.7542 13.186 12.7821 13.1543 12.8211C13.1225 12.86 13.0732 12.9075 13.0151 12.9553Z" fill="#009B3A" stroke="black" stroke-width="0.0125"/>
<path d="M12.72 13.0855C12.706 13.0497 12.6944 13.0129 12.685 12.9755C12.68 12.9555 12.715 12.9355 12.7 12.8755C12.6831 12.8271 12.6494 12.7863 12.605 12.7605C12.58 12.7455 12.56 12.7705 12.58 12.8405C12.6 12.9105 12.65 12.9355 12.665 12.9705L12.705 13.0905L12.815 13.1855C12.845 13.2105 12.89 13.3055 12.95 13.3405C13 13.3755 13.05 13.3655 13.04 13.3305C13.0175 13.2827 12.9831 13.2413 12.94 13.2105C12.905 13.1805 12.85 13.1955 12.815 13.1705C12.795 13.1455 12.715 13.0905 12.715 13.0855" fill="#009B3A"/>
<path d="M12.72 13.0855C12.706 13.0497 12.6944 13.0129 12.685 12.9755C12.68 12.9555 12.715 12.9355 12.7 12.8755C12.6831 12.8271 12.6494 12.7863 12.605 12.7605C12.58 12.7455 12.56 12.7705 12.58 12.8405C12.6 12.9105 12.65 12.9355 12.665 12.9705L12.705 13.0905L12.815 13.1855C12.845 13.2105 12.89 13.3055 12.95 13.3405C13 13.3755 13.05 13.3655 13.04 13.3305C13.0175 13.2827 12.9831 13.2413 12.94 13.2105C12.905 13.1805 12.85 13.1955 12.815 13.1705C12.795 13.1455 12.715 13.0905 12.715 13.0855" stroke="black" stroke-width="0.0125"/>
<path d="M12.5412 13.4001C12.4747 13.3964 12.4155 13.3861 12.3732 13.371C12.3308 13.3558 12.3078 13.3365 12.3078 13.3163C12.3078 13.2961 12.3308 13.2761 12.3732 13.2596C12.4155 13.2431 12.4747 13.2309 12.5412 13.2251C12.6078 13.2288 12.6669 13.2391 12.7093 13.2542C12.7516 13.2694 12.7746 13.2887 12.7746 13.3089C12.7746 13.3291 12.7516 13.3491 12.7093 13.3656C12.6669 13.3821 12.6078 13.3943 12.5412 13.4001Z" fill="#009B3A" stroke="black" stroke-width="0.0125"/>
<path d="M12.501 13.1258C12.4487 13.1935 12.3914 13.2525 12.3418 13.2901C12.2921 13.3276 12.2541 13.3405 12.2362 13.3259C12.2183 13.3113 12.222 13.2705 12.2463 13.2123C12.2706 13.1541 12.3137 13.0835 12.366 13.0158C12.3914 12.9831 12.4182 12.9521 12.4449 12.9247C12.4716 12.8972 12.4977 12.8738 12.5217 12.8557C12.5456 12.8377 12.567 12.8255 12.5846 12.8196C12.6022 12.8137 12.6157 12.8145 12.6242 12.8217C12.6327 12.8289 12.6362 12.8425 12.6344 12.8617C12.6326 12.8809 12.6255 12.9053 12.6136 12.9335C12.6017 12.9618 12.5852 12.9933 12.565 13.0263C12.5448 13.0593 12.5214 13.0931 12.496 13.1258" fill="#009B3A"/>
<path d="M12.501 13.1258C12.4487 13.1935 12.3914 13.2525 12.3418 13.2901C12.2921 13.3276 12.2541 13.3405 12.2362 13.3259C12.2183 13.3113 12.222 13.2705 12.2463 13.2123C12.2706 13.1541 12.3137 13.0835 12.366 13.0158C12.3914 12.9831 12.4182 12.9521 12.4449 12.9247C12.4716 12.8972 12.4977 12.8738 12.5217 12.8557C12.5456 12.8377 12.567 12.8255 12.5846 12.8196C12.6022 12.8137 12.6157 12.8145 12.6242 12.8217C12.6327 12.8289 12.6362 12.8425 12.6344 12.8617C12.6326 12.8809 12.6255 12.9053 12.6136 12.9335C12.6017 12.9618 12.5852 12.9933 12.565 13.0263C12.5448 13.0593 12.5214 13.0931 12.496 13.1258" stroke="black" stroke-width="0.0125"/>
<path d="M12.5408 13.2646C12.4629 13.298 12.3851 13.3214 12.3244 13.3295C12.2637 13.3377 12.2251 13.33 12.2172 13.3081C12.2092 13.2863 12.2325 13.252 12.282 13.2129C12.3314 13.1737 12.4029 13.133 12.4808 13.0996C12.5587 13.0661 12.6365 13.0427 12.6972 13.0346C12.7579 13.0264 12.7965 13.0341 12.8044 13.056C12.8124 13.0779 12.7891 13.1121 12.7396 13.1513C12.6902 13.1904 12.6187 13.2311 12.5408 13.2646ZM12.6258 10.5946C12.66 10.6266 12.6884 10.6584 12.7052 10.6835C12.722 10.7087 12.7262 10.7255 12.7168 10.7305C12.7073 10.7355 12.685 10.7285 12.6543 10.7107C12.6236 10.6929 12.5867 10.6658 12.5508 10.6346C12.5309 10.6173 12.512 10.5993 12.4952 10.5817C12.4784 10.5642 12.4642 10.5475 12.4534 10.5326C12.4425 10.5178 12.4353 10.5051 12.4322 10.4955C12.4292 10.4859 12.4303 10.4795 12.4355 10.4767C12.4407 10.4739 12.4499 10.4748 12.4626 10.4793C12.4752 10.4839 12.491 10.4919 12.5088 10.503C12.5267 10.5141 12.5464 10.528 12.5665 10.5437C12.5866 10.5595 12.6068 10.5768 12.6258 10.5946ZM12.5308 10.6696C12.5722 10.6773 12.6093 10.6871 12.6364 10.6977C12.6636 10.7083 12.6792 10.7189 12.6809 10.728C12.6826 10.7371 12.6703 10.7442 12.6459 10.7481C12.6214 10.752 12.5863 10.7525 12.5458 10.7496C12.5175 10.7475 12.4876 10.7439 12.4582 10.7389C12.429 10.7339 12.4011 10.7277 12.3768 10.7207C12.3526 10.7139 12.3326 10.7064 12.3184 10.699C12.3042 10.6916 12.2962 10.6844 12.295 10.6781C12.2938 10.6717 12.2995 10.6663 12.3115 10.6623C12.3236 10.6583 12.3417 10.6558 12.3645 10.655C12.3873 10.6541 12.4142 10.655 12.443 10.6576C12.4718 10.6601 12.5019 10.6642 12.5308 10.6696Z" fill="#009B3A" stroke="black" stroke-width="0.0125"/>
<path d="M12.5709 10.6195C12.5964 10.6325 12.621 10.6461 12.6436 10.6597C12.666 10.6733 12.6859 10.6865 12.702 10.6987C12.7182 10.7109 12.7302 10.7217 12.7376 10.7306C12.7448 10.7395 12.7473 10.7462 12.7446 10.7505C12.742 10.7548 12.7344 10.7565 12.7222 10.7555C12.7101 10.7545 12.6936 10.7508 12.6738 10.7447C12.6539 10.7385 12.6311 10.7301 12.6066 10.7197C12.5821 10.7094 12.5564 10.6975 12.5309 10.6845C12.4796 10.6584 12.4324 10.6299 12.3998 10.6054C12.3672 10.5808 12.3519 10.5622 12.3572 10.5536C12.3626 10.5449 12.388 10.5471 12.4281 10.5594C12.4682 10.5718 12.5196 10.5934 12.5709 10.6195ZM11.1859 13.0995C11.1859 13.0995 11.4409 13.1545 11.6659 13.2345C11.8909 13.3195 12.2309 13.5945 12.3209 13.6145C12.4209 13.6145 12.5659 13.5795 12.6209 13.4345C12.4609 13.4745 12.3709 13.5395 12.2209 13.4595C12.1659 13.4395 11.9909 13.2795 11.7959 13.1945C11.6059 13.1095 11.2209 13.0145 11.2209 13.0145L11.1859 13.0995ZM11.4609 10.7745L11.7559 10.6195L11.4309 10.7045L11.3909 10.7595L11.4609 10.7745Z" fill="#009B3A" stroke="black" stroke-width="0.0125"/>
<path d="M11.7406 10.8495C11.6256 10.8245 11.4506 10.7845 11.3406 10.7795C11.4156 10.6945 11.5206 10.5445 11.5906 10.4595C11.5406 10.5445 11.4756 10.6595 11.4506 10.7345C11.5256 10.7795 11.6506 10.8145 11.7406 10.8445" fill="#009B3A"/>
<path d="M11.7406 10.8495C11.6256 10.8245 11.4506 10.7845 11.3406 10.7795C11.4156 10.6945 11.5206 10.5445 11.5906 10.4595C11.5406 10.5445 11.4756 10.6595 11.4506 10.7345C11.5256 10.7795 11.6506 10.8145 11.7406 10.8445" stroke="black" stroke-width="0.0125"/>
<path d="M11.4059 10.7956C11.4935 10.7263 11.5819 10.6579 11.6709 10.5906L11.3659 10.7256L11.3359 10.7906H11.4059" fill="#009B3A"/>
<path d="M11.4059 10.7956C11.4935 10.7263 11.5819 10.6579 11.6709 10.5906L11.3659 10.7256L11.3359 10.7906H11.4059" stroke="black" stroke-width="0.0125"/>
<path d="M11.6859 10.8457C11.5709 10.8207 11.3959 10.7807 11.2859 10.7707C11.3559 10.6857 11.4609 10.5357 11.5259 10.4407C11.4859 10.5307 11.4159 10.6457 11.3909 10.7307C11.4709 10.7757 11.5959 10.8107 11.6909 10.8457" fill="#009B3A"/>
<path d="M11.6859 10.8457C11.5709 10.8207 11.3959 10.7807 11.2859 10.7707C11.3559 10.6857 11.4609 10.5357 11.5259 10.4407C11.4859 10.5307 11.4159 10.6457 11.3909 10.7307C11.4709 10.7757 11.5959 10.8107 11.6909 10.8457" stroke="black" stroke-width="0.0125"/>
<path d="M11.3653 10.8097L11.6703 10.6797L11.3403 10.7347L11.2953 10.7847L11.3603 10.8097" fill="#009B3A"/>
<path d="M11.3653 10.8097L11.6703 10.6797L11.3403 10.7347L11.2953 10.7847L11.3603 10.8097" stroke="black" stroke-width="0.0125"/>
<path d="M11.6506 10.8496C11.5356 10.8346 11.3506 10.8146 11.2406 10.8196C11.3056 10.7196 11.3906 10.5546 11.4456 10.4546C11.4156 10.5496 11.3606 10.6746 11.3456 10.7596C11.4306 10.7996 11.5606 10.8196 11.6506 10.8446" fill="#009B3A"/>
<path d="M11.6506 10.8496C11.5356 10.8346 11.3506 10.8146 11.2406 10.8196C11.3056 10.7196 11.3906 10.5546 11.4456 10.4546C11.4156 10.5496 11.3606 10.6746 11.3456 10.7596C11.4306 10.7996 11.5606 10.8196 11.6506 10.8446" stroke="black" stroke-width="0.0125"/>
<path d="M11.3309 10.8093L11.5409 10.5593L11.2759 10.7543L11.2609 10.8193L11.3309 10.8093Z" fill="#009B3A" stroke="black" stroke-width="0.0125"/>
<path d="M11.6509 10.865C11.5259 10.865 11.3309 10.85 11.2109 10.865C11.2709 10.75 11.3459 10.565 11.3909 10.45C11.3709 10.555 11.3259 10.7 11.3209 10.795C11.4109 10.825 11.5509 10.845 11.6509 10.865Z" fill="#009B3A" stroke="black" stroke-width="0.0125"/>
<path d="M11.2906 10.87L11.5406 10.625L11.2356 10.8L11.2156 10.87H11.2906Z" fill="#009B3A" stroke="black" stroke-width="0.0125"/>
<path d="M11.5953 10.87C11.4603 10.87 11.2553 10.865 11.1203 10.88C11.2103 10.755 11.3303 10.55 11.4003 10.425C11.3503 10.54 11.2803 10.695 11.2503 10.8C11.3453 10.835 11.4903 10.85 11.5953 10.87Z" fill="#009B3A" stroke="black" stroke-width="0.0125"/>
<path d="M11.2003 10.8907L11.5303 10.6157L11.1603 10.8107L11.1203 10.8907H11.2003Z" fill="#009B3A" stroke="black" stroke-width="0.0125"/>
<path d="M11.5512 10.8802C11.4162 10.9002 11.2062 10.9202 11.0812 10.9552C11.1462 10.8202 11.2362 10.6052 11.2912 10.4702C11.2612 10.5902 11.2062 10.7502 11.1912 10.8602C11.2912 10.8802 11.4412 10.8752 11.5462 10.8802" fill="#009B3A"/>
<path d="M11.5512 10.8802C11.4162 10.9002 11.2062 10.9202 11.0812 10.9552C11.1462 10.8202 11.2362 10.6052 11.2912 10.4702C11.2612 10.5902 11.2062 10.7502 11.1912 10.8602C11.2912 10.8802 11.4412 10.8752 11.5462 10.8802" stroke="black" stroke-width="0.0125"/>
<path d="M11.1612 10.9452L11.4112 10.5952L11.0962 10.8802L11.0812 10.9652L11.1612 10.9452Z" fill="#009B3A" stroke="black" stroke-width="0.0125"/>
<path d="M11.47 10.92C11.34 10.935 11.13 10.945 11 10.97C11.075 10.84 11.175 10.63 11.24 10.5C11.2 10.615 11.14 10.775 11.12 10.885C11.22 10.91 11.37 10.91 11.47 10.92Z" fill="#009B3A" stroke="black" stroke-width="0.0125"/>
<path d="M11.1159 10.9796L11.4359 10.7046L11.0709 10.8996L11.0359 10.9796H11.1159Z" fill="#009B3A" stroke="black" stroke-width="0.0125"/>
<path d="M11.4356 10.935C11.3006 10.965 11.0906 11 10.9656 11.04C11.0256 10.905 11.1056 10.685 11.1556 10.55C11.1306 10.67 11.0856 10.83 11.0756 10.94C11.1756 10.955 11.3256 10.94 11.4356 10.935Z" fill="#009B3A" stroke="black" stroke-width="0.0125"/>
<path d="M11.0609 11.0007L11.2609 10.6157L10.9909 10.9457L10.9859 11.0307L11.0609 10.9957" fill="#009B3A"/>
<path d="M11.0609 11.0007L11.2609 10.6157L10.9909 10.9457L10.9859 11.0307L11.0609 10.9957" stroke="black" stroke-width="0.0125"/>
<path d="M11.4359 10.9555C11.2859 10.9955 11.0659 11.0455 10.9359 11.0955C10.9859 10.9405 11.0409 10.6955 11.0809 10.5405C11.0659 10.6755 11.0359 10.8555 11.0409 10.9805C11.1559 10.9905 11.3159 10.9655 11.4309 10.9555" fill="#009B3A"/>
<path d="M11.4359 10.9555C11.2859 10.9955 11.0659 11.0455 10.9359 11.0955C10.9859 10.9405 11.0409 10.6955 11.0809 10.5405C11.0659 10.6755 11.0359 10.8555 11.0409 10.9805C11.1559 10.9905 11.3159 10.9655 11.4309 10.9555" stroke="black" stroke-width="0.0125"/>
<path d="M11.0209 11.0846L11.2809 10.7046L10.9509 11.0096L10.9359 11.1096L11.0209 11.0846Z" fill="#009B3A" stroke="black" stroke-width="0.0125"/>
<path d="M11.3759 10.9997C11.2359 11.0447 11.0159 11.1047 10.8859 11.1647C10.9259 11.0047 10.9759 10.7597 11.0059 10.6047C11.0009 10.7397 10.9809 10.9197 10.9909 11.0397C11.1009 11.0447 11.2609 11.0097 11.3759 10.9997Z" fill="#009B3A" stroke="black" stroke-width="0.0125"/>
<path d="M10.9709 11.1402L11.1659 10.7202L10.8859 11.0802V11.1802L10.9709 11.1402Z" fill="#009B3A" stroke="black" stroke-width="0.0125"/>
<path d="M11.3203 11.0596C11.1803 11.0896 10.9553 11.1346 10.8203 11.1796C10.8753 11.0296 10.9453 10.7796 10.9903 10.6296C10.9703 10.7646 10.9353 10.9496 10.9353 11.0646C11.0453 11.0796 11.2053 11.0596 11.3203 11.0546" fill="#009B3A"/>
<path d="M11.3203 11.0596C11.1803 11.0896 10.9553 11.1346 10.8203 11.1796C10.8753 11.0296 10.9453 10.7796 10.9903 10.6296C10.9703 10.7646 10.9353 10.9496 10.9353 11.0646C11.0453 11.0796 11.2053 11.0596 11.3203 11.0546" stroke="black" stroke-width="0.0125"/>
<path d="M10.9209 11.1801L11.2409 10.8501L10.8659 11.0951L10.8359 11.1851L10.9209 11.1801Z" fill="#009B3A" stroke="black" stroke-width="0.0125"/>
<path d="M11.2609 11.1149C11.1159 11.1349 10.8959 11.1549 10.7609 11.1899C10.8259 11.0399 10.9109 10.7999 10.9609 10.6499C10.9309 10.7849 10.8859 10.9649 10.8759 11.0849C10.9859 11.1099 11.1459 11.1049 11.2609 11.1149Z" fill="#009B3A" stroke="black" stroke-width="0.0125"/>
<path d="M10.8613 11.1494L11.0763 10.7344L10.7812 11.0844V11.1794L10.8613 11.1444" fill="#009B3A"/>
<path d="M10.8613 11.1494L11.0763 10.7344L10.7812 11.0844V11.1794L10.8613 11.1444" stroke="black" stroke-width="0.0125"/>
<path d="M11.2762 11.0656C11.1262 11.1306 10.8762 11.2156 10.7312 11.2956C10.7812 11.1106 10.8312 10.8206 10.8612 10.6406C10.8612 10.7956 10.8362 11.0106 10.8462 11.1456C10.9712 11.1456 11.1462 11.0906 11.2762 11.0656Z" fill="#009B3A" stroke="black" stroke-width="0.0125"/>
<path d="M10.8309 11.27L11.0909 10.8L10.7459 11.2L10.7359 11.31L10.8309 11.27Z" fill="#009B3A" stroke="black" stroke-width="0.0125"/>
<path d="M11.2159 11.1247C11.0659 11.1947 10.8259 11.2947 10.6859 11.3797C10.7259 11.1997 10.7609 10.9047 10.7859 10.7297C10.7859 10.8797 10.7759 11.0947 10.7909 11.2297C10.9159 11.2147 11.0909 11.1547 11.2159 11.1247Z" fill="#009B3A" stroke="black" stroke-width="0.0125"/>
<path d="M10.7762 11.3395L10.9662 10.8345L10.6812 11.2845L10.6912 11.3995L10.7762 11.3395Z" fill="#009B3A" stroke="black" stroke-width="0.0125"/>
<path d="M11.1503 11.1649C11.0003 11.2399 10.7603 11.3399 10.6203 11.4299C10.6553 11.2449 10.6903 10.9549 10.7153 10.7749C10.7153 10.9249 10.7053 11.1399 10.7253 11.2749C10.8503 11.2599 11.0253 11.1949 11.1503 11.1649Z" fill="#009B3A" stroke="black" stroke-width="0.0125"/>
<path d="M10.7356 11.3996L11.0256 10.9546L10.6556 11.3196L10.6406 11.4296L10.7356 11.3996Z" fill="#009B3A" stroke="black" stroke-width="0.0125"/>
<path d="M11.135 11.1396C11 11.2496 10.785 11.4096 10.665 11.5296C10.665 11.3396 10.64 11.0546 10.625 10.8796C10.655 11.0246 10.69 11.2296 10.74 11.3546C10.86 11.3096 11.015 11.2046 11.14 11.1446" fill="#009B3A"/>
<path d="M11.135 11.1396C11 11.2496 10.785 11.4096 10.665 11.5296C10.665 11.3396 10.64 11.0546 10.625 10.8796C10.655 11.0246 10.69 11.2296 10.74 11.3546C10.86 11.3096 11.015 11.2046 11.14 11.1446" stroke="black" stroke-width="0.0125"/>
<path d="M10.7506 11.4256L10.7806 10.8906L10.6406 11.4106L10.6806 11.5106L10.7506 11.4256Z" fill="#009B3A" stroke="black" stroke-width="0.0125"/>
<path d="M11.1009 11.19C10.9609 11.3 10.7509 11.455 10.6259 11.575C10.6259 11.39 10.6009 11.1 10.5859 10.925C10.6209 11.075 10.6509 11.275 10.7009 11.4C10.8209 11.36 10.9759 11.25 11.1009 11.19Z" fill="#009B3A" stroke="black" stroke-width="0.0125"/>
<path d="M10.7156 11.5157L10.8506 10.9907L10.6156 11.4707L10.6306 11.5807L10.7156 11.5157Z" fill="#009B3A" stroke="black" stroke-width="0.0125"/>
<path d="M11.08 11.2007C10.955 11.3307 10.75 11.5207 10.635 11.6507C10.615 11.4657 10.56 11.1707 10.525 10.9907C10.575 11.1407 10.63 11.3457 10.695 11.4657C10.81 11.4107 10.965 11.2857 11.08 11.2057" fill="#009B3A"/>
<path d="M11.08 11.2007C10.955 11.3307 10.75 11.5207 10.635 11.6507C10.615 11.4657 10.56 11.1707 10.525 10.9907C10.575 11.1407 10.63 11.3457 10.695 11.4657C10.81 11.4107 10.965 11.2857 11.08 11.2057" stroke="black" stroke-width="0.0125"/>
<path d="M10.7162 11.5799L10.7412 11.0249L10.6062 11.5649L10.6462 11.6649L10.7162 11.5799Z" fill="#009B3A" stroke="black" stroke-width="0.0125"/>
<path d="M11.0409 11.2999C10.9059 11.4099 10.6909 11.5749 10.5609 11.6999C10.5609 11.5099 10.5259 11.2099 10.5109 11.0249C10.5459 11.1749 10.5859 11.3899 10.6359 11.5199C10.7609 11.4699 10.9209 11.3649 11.0409 11.2949" fill="#009B3A"/>
<path d="M11.0409 11.2999C10.9059 11.4099 10.6909 11.5749 10.5609 11.6999C10.5609 11.5099 10.5259 11.2099 10.5109 11.0249C10.5459 11.1749 10.5859 11.3899 10.6359 11.5199C10.7609 11.4699 10.9209 11.3649 11.0409 11.2949" stroke="black" stroke-width="0.0125"/>
<path d="M10.675 11.6454L10.865 11.1204L10.575 11.5854L10.585 11.7004L10.675 11.6454Z" fill="#009B3A" stroke="black" stroke-width="0.0125"/>
<path d="M11.0409 11.2995C10.9159 11.4245 10.7259 11.6195 10.6159 11.7545C10.5959 11.5645 10.5409 11.2645 10.5109 11.0845C10.5609 11.2345 10.6109 11.4445 10.6709 11.5645C10.7859 11.5045 10.9259 11.3795 11.0409 11.2995Z" fill="#009B3A" stroke="black" stroke-width="0.0125"/>
<path d="M10.6803 11.6704L10.6603 11.1204L10.5703 11.6704L10.6203 11.7654L10.6803 11.6704Z" fill="#009B3A" stroke="black" stroke-width="0.0125"/>
<path d="M10.9803 11.3396C10.8603 11.4696 10.6753 11.6646 10.5703 11.8046C10.5453 11.6046 10.4803 11.3146 10.4453 11.1296C10.4953 11.2796 10.5603 11.4896 10.6203 11.6096C10.7303 11.5496 10.8703 11.4196 10.9803 11.3396Z" fill="#009B3A" stroke="black" stroke-width="0.0125"/>
<path d="M10.6503 11.7255L10.7103 11.1655L10.5453 11.6955L10.5803 11.8055L10.6503 11.7255Z" fill="#009B3A" stroke="black" stroke-width="0.0125"/>
<path d="M10.9513 11.3595C10.8513 11.5045 10.6763 11.7095 10.5812 11.8595C10.5413 11.6695 10.4563 11.3845 10.4062 11.2095C10.4712 11.3495 10.5463 11.5495 10.6163 11.6645C10.7213 11.5945 10.8513 11.4545 10.9563 11.3645" fill="#009B3A"/>
<path d="M10.9513 11.3595C10.8513 11.5045 10.6763 11.7095 10.5813 11.8595C10.5413 11.6695 10.4563 11.3845 10.4062 11.2095C10.4712 11.3495 10.5463 11.5495 10.6163 11.6645C10.7213 11.5945 10.8513 11.4545 10.9563 11.3645" stroke="black" stroke-width="0.0125"/>
<path d="M10.6506 11.7806L10.6106 11.2156L10.5406 11.7756L10.5906 11.8756L10.6456 11.7756" fill="#009B3A"/>
<path d="M10.6506 11.7806L10.6106 11.2156L10.5406 11.7756L10.5906 11.8756L10.6456 11.7756" stroke="black" stroke-width="0.0125"/>
<path d="M10.9459 11.3956C10.8459 11.5456 10.6809 11.7606 10.5959 11.9156C10.5459 11.7256 10.4459 11.4406 10.3859 11.2656C10.4559 11.4056 10.5409 11.6056 10.6209 11.7156C10.7209 11.6406 10.8459 11.4906 10.9459 11.3956Z" fill="#009B3A" stroke="black" stroke-width="0.0125"/>
<path d="M10.6812 11.8306L10.7412 11.2656L10.5812 11.7956L10.6112 11.9106L10.6812 11.8306Z" fill="#009B3A" stroke="black" stroke-width="0.0125"/>
<path d="M10.9212 11.4503C10.8362 11.6053 10.6962 11.8503 10.6212 12.0153C10.5562 11.8353 10.4312 11.5653 10.3562 11.3953C10.4412 11.5253 10.5412 11.7103 10.6312 11.8153C10.7262 11.7253 10.8312 11.5553 10.9212 11.4453" fill="#009B3A"/>
<path d="M10.9212 11.4503C10.8362 11.6053 10.6962 11.8503 10.6212 12.0153C10.5562 11.8353 10.4312 11.5653 10.3562 11.3953C10.4412 11.5253 10.5412 11.7103 10.6312 11.8153C10.7262 11.7253 10.8312 11.5553 10.9212 11.4453" stroke="black" stroke-width="0.0125"/>
<path d="M10.6662 11.8806L10.5062 11.3406L10.5562 11.9056L10.6312 11.9856L10.6612 11.8806" fill="#009B3A"/>
<path d="M10.6662 11.8806L10.5062 11.3406L10.5562 11.9056L10.6312 11.9856L10.6612 11.8806" stroke="black" stroke-width="0.0125"/>
<path d="M10.9209 11.5095C10.8309 11.6695 10.6809 11.9095 10.6059 12.0745C10.5409 11.8945 10.4159 11.6245 10.3359 11.4595C10.4209 11.5895 10.5259 11.7745 10.6159 11.8745C10.7159 11.7845 10.8259 11.6195 10.9159 11.5095" fill="#009B3A"/>
<path d="M10.9209 11.5095C10.8309 11.6695 10.6809 11.9095 10.6059 12.0745C10.5409 11.8945 10.4159 11.6245 10.3359 11.4595C10.4209 11.5895 10.5259 11.7745 10.6159 11.8745C10.7159 11.7845 10.8259 11.6195 10.9159 11.5095" stroke="black" stroke-width="0.0125"/>
<path d="M10.6709 11.9805L10.6109 11.4155L10.5609 11.9805L10.6159 12.0805L10.6709 11.9805Z" fill="#009B3A" stroke="black" stroke-width="0.0125"/>
<path d="M10.9303 11.5604C10.8353 11.7154 10.6803 11.9554 10.6053 12.1154C10.5403 11.9354 10.4203 11.6654 10.3453 11.4954C10.4303 11.6254 10.5303 11.8154 10.6203 11.9154C10.7203 11.8304 10.8353 11.6654 10.9303 11.5604Z" fill="#009B3A" stroke="black" stroke-width="0.0125"/>
<path d="M10.6662 12.0251L10.5612 11.4751L10.5562 12.0351L10.6212 12.1251L10.6662 12.0251Z" fill="#009B3A" stroke="black" stroke-width="0.0125"/>
<path d="M10.8909 11.6394C10.7909 11.7894 10.6259 12.0144 10.5409 12.1744C10.4859 11.9894 10.3759 11.7044 10.3109 11.5344C10.3859 11.6694 10.4809 11.8644 10.5609 11.9744C10.6659 11.8944 10.7909 11.7394 10.8909 11.6394Z" fill="#009B3A" stroke="black" stroke-width="0.0125"/>
<path d="M10.6159 12.0853L10.6659 11.5203L10.5109 12.0553L10.5459 12.1653L10.6159 12.0853Z" fill="#009B3A" stroke="black" stroke-width="0.0125"/>
<path d="M10.8959 11.6496C10.8109 11.8146 10.6659 12.0646 10.5959 12.2296C10.5259 12.0546 10.3959 11.7896 10.3109 11.6296C10.4009 11.7496 10.5109 11.9296 10.6009 12.0296C10.7009 11.9346 10.8009 11.7646 10.8959 11.6546" fill="#009B3A"/>
<path d="M10.8959 11.6496C10.8109 11.8146 10.6659 12.0646 10.5959 12.2296C10.5259 12.0546 10.3959 11.7896 10.3109 11.6296C10.4009 11.7496 10.5109 11.9296 10.6009 12.0296C10.7009 11.9346 10.8009 11.7646 10.8959 11.6546" stroke="black" stroke-width="0.0125"/>
<path d="M10.6 12.1347L10.425 11.6047L10.49 12.1647L10.565 12.2447L10.595 12.1347" fill="#009B3A"/>
<path d="M10.6 12.1347L10.425 11.6047L10.49 12.1647L10.565 12.2447L10.595 12.1347" stroke="black" stroke-width="0.0125"/>
<path d="M10.8706 11.6953C10.8106 11.8753 10.7106 12.1453 10.6706 12.3303C10.5706 12.1703 10.3956 11.9403 10.2906 11.7953C10.3956 11.9003 10.5356 12.0553 10.6406 12.1303C10.7206 12.0153 10.8006 11.8303 10.8706 11.6953Z" fill="#009B3A" stroke="black" stroke-width="0.0125"/>
<path d="M10.7506 12.1748L10.5656 11.6548L10.6456 12.2148L10.7206 12.2848L10.7506 12.1748Z" fill="#009B3A" stroke="black" stroke-width="0.0125"/>
<path d="M10.8706 11.75C10.8106 11.93 10.7106 12.205 10.6706 12.385C10.5706 12.225 10.4006 12 10.2906 11.86C10.3956 11.96 10.5356 12.11 10.6406 12.19C10.7206 12.075 10.8006 11.885 10.8706 11.75Z" fill="#009B3A" stroke="black" stroke-width="0.0125"/>
<path d="M10.7509 12.2648L10.5109 11.7798L10.6509 12.3198L10.7359 12.3798L10.7559 12.2648" fill="#009B3A"/>
<path d="M10.7509 12.2648L10.5109 11.7798L10.6509 12.3198L10.7359 12.3798L10.7559 12.2648" stroke="black" stroke-width="0.0125"/>
<path d="M10.8506 11.7954C10.8156 11.9804 10.7506 12.2704 10.7256 12.4554C10.6106 12.3104 10.4106 12.1054 10.2906 11.9854C10.4056 12.0704 10.5606 12.2054 10.6756 12.2604C10.7406 12.1354 10.7956 11.9354 10.8506 11.7954Z" fill="#009B3A" stroke="black" stroke-width="0.0125"/>
<path d="M10.7706 12.3404L10.6406 11.7954L10.6606 12.3604L10.7306 12.4454L10.7706 12.3454" fill="#009B3A"/>
<path d="M10.7706 12.3404L10.6406 11.7954L10.6606 12.3604L10.7306 12.4454L10.7706 12.3454" stroke="black" stroke-width="0.0125"/>
<path d="M10.8506 11.8501C10.8306 12.0451 10.7906 12.3401 10.7906 12.5251C10.6606 12.4001 10.4456 12.2251 10.3156 12.1201C10.4356 12.1901 10.6006 12.3001 10.7206 12.3401C10.7706 12.2101 10.8106 12.0001 10.8506 11.8551" fill="#009B3A"/>
<path d="M10.8506 11.8501C10.8306 12.0451 10.7906 12.3401 10.7906 12.5251C10.6606 12.4001 10.4456 12.2251 10.3156 12.1201C10.4356 12.1901 10.6006 12.3001 10.7206 12.3401C10.7706 12.2101 10.8106 12.0001 10.8506 11.8551" stroke="black" stroke-width="0.0125"/>
<path d="M10.7762 12.3807L10.4312 11.9907L10.6912 12.4657L10.7912 12.4957L10.7762 12.3807Z" fill="#009B3A" stroke="black" stroke-width="0.0125"/>
<path d="M10.8603 11.9204C10.8403 12.1104 10.8003 12.4054 10.7953 12.5904C10.6653 12.4654 10.4503 12.2904 10.3203 12.1804C10.4453 12.2504 10.6103 12.3654 10.7253 12.4054C10.7803 12.2754 10.8153 12.0654 10.8603 11.9204Z" fill="#009B3A" stroke="black" stroke-width="0.0125"/>
<path d="M10.815 12.47L10.55 12L10.715 12.535L10.8 12.59L10.815 12.475" fill="#009B3A"/>
<path d="M10.815 12.47L10.55 12L10.715 12.535L10.8 12.59L10.815 12.475" stroke="black" stroke-width="0.0125"/>
<path d="M10.8753 12.0004C10.8603 12.1904 10.8353 12.4854 10.8353 12.6754C10.6788 12.5401 10.5152 12.4133 10.3453 12.2954C10.4753 12.3554 10.6453 12.4604 10.7603 12.4954C10.8103 12.3604 10.8403 12.1454 10.8753 11.9954" fill="#009B3A"/>
<path d="M10.8753 12.0004C10.8603 12.1904 10.8353 12.4854 10.8353 12.6754C10.6788 12.5401 10.5152 12.4133 10.3453 12.2954C10.4753 12.3554 10.6453 12.4604 10.7603 12.4954C10.8103 12.3604 10.8403 12.1454 10.8753 11.9954" stroke="black" stroke-width="0.0125"/>
<path d="M10.8503 12.5603L10.5203 12.1453L10.7603 12.6353L10.8503 12.6753V12.5603Z" fill="#009B3A" stroke="black" stroke-width="0.0125"/>
<path d="M10.88 12.0895C10.865 12.2795 10.84 12.5745 10.845 12.7645C10.71 12.6445 10.49 12.4845 10.35 12.3845C10.48 12.4495 10.65 12.5495 10.77 12.5845C10.82 12.4495 10.845 12.2345 10.88 12.0845" fill="#009B3A"/>
<path d="M10.88 12.0895C10.865 12.2795 10.84 12.5745 10.845 12.7645C10.71 12.6445 10.49 12.4845 10.35 12.3845C10.48 12.4495 10.65 12.5495 10.77 12.5845C10.82 12.4495 10.845 12.2345 10.88 12.0845" stroke="black" stroke-width="0.0125"/>
<path d="M10.875 12.6296L10.65 12.1296L10.775 12.6796L10.855 12.7446L10.875 12.6296Z" fill="#009B3A" stroke="black" stroke-width="0.0125"/>
<path d="M10.8853 12.1453C10.8953 12.3403 10.8953 12.6353 10.9153 12.8253C10.7467 12.7141 10.5732 12.6107 10.3953 12.5153C10.5253 12.5603 10.7003 12.6353 10.8253 12.6553C10.8603 12.5103 10.8653 12.3003 10.8853 12.1453Z" fill="#009B3A" stroke="black" stroke-width="0.0125"/>
<path d="M10.915 12.61L10.5 12.325L10.85 12.715L10.95 12.72L10.915 12.61Z" fill="#009B3A" stroke="black" stroke-width="0.0125"/>
<path d="M10.9 12.1655C10.915 12.3605 10.935 12.6555 10.965 12.8405C10.815 12.7455 10.575 12.6255 10.425 12.5505C10.56 12.5905 10.74 12.6605 10.865 12.6755C10.89 12.5305 10.885 12.3205 10.9 12.1655Z" fill="#009B3A" stroke="black" stroke-width="0.0125"/>
<path d="M10.9656 12.7157L10.6156 12.3157L10.8806 12.7957L10.9756 12.8307L10.9606 12.7157" fill="#009B3A"/>
<path d="M10.9656 12.7157L10.6156 12.3157L10.8806 12.7957L10.9756 12.8307L10.9606 12.7157" stroke="black" stroke-width="0.0125"/>
<path d="M10.93 12.2407C10.955 12.4307 10.98 12.7257 11.025 12.9107C10.875 12.8257 10.625 12.7207 10.475 12.6557C10.61 12.6857 10.795 12.7457 10.915 12.7557C10.935 12.6057 10.925 12.3957 10.93 12.2407Z" fill="#009B3A" stroke="black" stroke-width="0.0125"/>
<path d="M11.0306 12.7857L10.6156 12.4907L10.9656 12.8907L11.0656 12.8957L11.0306 12.7857Z" fill="#009B3A" stroke="black" stroke-width="0.0125"/>
<path d="M10.9456 12.3203C10.9806 12.5103 11.0306 12.8053 11.0806 12.9853C10.9256 12.9103 10.6706 12.8303 10.5156 12.7803C10.6556 12.7953 10.8406 12.8403 10.9656 12.8303C10.9756 12.6853 10.9506 12.4803 10.9456 12.3203Z" fill="#009B3A" stroke="black" stroke-width="0.0125"/>
<path d="M11.0812 12.8443L10.7312 12.4343L10.9912 12.9193L11.0912 12.9593L11.0812 12.8443Z" fill="#009B3A" stroke="black" stroke-width="0.0125"/>
<path d="M10.9659 12.3704C11.0209 12.5554 11.0959 12.8454 11.1659 13.0204C11.0009 12.9704 10.7459 12.9204 10.5859 12.8904C10.7259 12.8904 10.9109 12.9054 11.0359 12.8854C11.0359 12.7354 10.9859 12.5304 10.9659 12.3754" fill="#009B3A"/>
<path d="M10.9659 12.3704C11.0209 12.5554 11.0959 12.8454 11.1659 13.0204C11.0009 12.9704 10.7459 12.9204 10.5859 12.8904C10.7259 12.8904 10.9109 12.9054 11.0359 12.8854C11.0359 12.7354 10.9859 12.5304 10.9659 12.3754" stroke="black" stroke-width="0.0125"/>
<path d="M11.1006 12.8454L10.6156 12.7454L11.0706 12.9704L11.1656 12.9354L11.0956 12.8454" fill="#009B3A"/>
<path d="M11.1006 12.8454L10.6156 12.7454L11.0706 12.9704L11.1656 12.9354L11.0956 12.8454" stroke="black" stroke-width="0.0125"/>
<path d="M11.0006 12.4297C11.0506 12.6147 11.1256 12.8997 11.1906 13.0747C11.0306 13.0247 10.7756 12.9747 10.6156 12.9447C10.7556 12.9447 10.9406 12.9597 11.0656 12.9447C11.0656 12.7947 11.0156 12.5847 11.0006 12.4297Z" fill="#009B3A" stroke="black" stroke-width="0.0125"/>
<path d="M11.1756 12.8954L10.7156 12.6704L11.1256 13.0054L11.2256 12.9954L11.1756 12.8954Z" fill="#009B3A" stroke="black" stroke-width="0.0125"/>
<path d="M10.9759 12.4595C11.0659 12.6295 11.2009 12.8945 11.3009 13.0445C11.1309 13.0345 10.8709 13.0445 10.7109 13.0445C10.8459 13.0195 11.0309 12.9945 11.1459 12.9445C11.1109 12.7995 11.0259 12.6095 10.9759 12.4595Z" fill="#009B3A" stroke="black" stroke-width="0.0125"/>
<path d="M11.2503 12.9457L10.7703 12.8157L11.2203 13.0657L11.3103 13.0407L11.2453 12.9407" fill="#009B3A"/>
<path d="M11.2503 12.9457L10.7703 12.8157L11.2203 13.0657L11.3103 13.0407L11.2453 12.9407" stroke="black" stroke-width="0.0125"/>
<path d="M11.0206 12.5344C11.1156 12.6994 11.2506 12.9644 11.3556 13.1144C11.1856 13.1044 10.9256 13.1144 10.7656 13.1244C10.8956 13.0894 11.0856 13.0644 11.1956 13.0144C11.1656 12.8694 11.0756 12.6794 11.0256 12.5344" fill="#009B3A"/>
<path d="M11.0206 12.5344C11.1156 12.6994 11.2506 12.9644 11.3556 13.1144C11.1856 13.1044 10.9256 13.1144 10.7656 13.1244C10.8956 13.0894 11.0856 13.0644 11.1956 13.0144C11.1656 12.8694 11.0756 12.6794 11.0256 12.5344" stroke="black" stroke-width="0.0125"/>
<path d="M11.3059 12.9852L10.8609 12.7202L11.2509 13.0902H11.3509L11.3059 12.9852Z" fill="#009B3A" stroke="black" stroke-width="0.0125"/>
<path d="M11.0609 12.575C11.1659 12.73 11.3259 12.975 11.4409 13.12C11.246 13.1356 11.0522 13.164 10.8609 13.205C10.9909 13.155 11.1709 13.105 11.2809 13.04C11.2309 12.9 11.1259 12.715 11.0609 12.575Z" fill="#009B3A" stroke="black" stroke-width="0.0125"/>
<path d="M11.3409 13.0256L10.8609 13.0106L11.3359 13.1556L11.4209 13.1006L11.3409 13.0256ZM11.6209 10.6956L11.9659 10.6406L11.6209 10.6456L11.5609 10.6756L11.6209 10.6956Z" fill="#009B3A" stroke="black" stroke-width="0.0125"/>
<path d="M11.8112 10.7704C11.7112 10.7404 11.5612 10.6904 11.4562 10.6704L11.8262 10.4954C11.7512 10.5454 11.6362 10.6054 11.5762 10.6554C11.6362 10.6954 11.7412 10.7354 11.8112 10.7704Z" fill="#009B3A" stroke="black" stroke-width="0.0125"/>
<path d="M11.6006 10.7057L11.9406 10.6157L11.5906 10.6607L11.5406 10.6957L11.6056 10.7057" fill="#009B3A"/>
<path d="M11.6006 10.7057L11.9406 10.6157L11.5906 10.6607L11.5406 10.6957L11.6056 10.7057" stroke="black" stroke-width="0.0125"/>
<path d="M11.8259 10.7951C11.7059 10.7801 11.5259 10.7601 11.4109 10.7601C11.5009 10.6801 11.6209 10.5551 11.6959 10.4751C11.6459 10.5501 11.5659 10.6451 11.5309 10.7151C11.6109 10.7501 11.7359 10.7701 11.8259 10.7951Z" fill="#009B3A" stroke="black" stroke-width="0.0125"/>
<path d="M11.48 10.7297L11.83 10.6897L11.49 10.6797L11.425 10.7097L11.475 10.7297" fill="#009B3A"/>
<path d="M11.48 10.7297L11.83 10.6897L11.49 10.6797L11.425 10.7097L11.475 10.7297" stroke="black" stroke-width="0.0125"/>
<path d="M11.7359 10.805L11.3609 10.74L11.7059 10.55C11.6359 10.6 11.5359 10.67 11.4859 10.72C11.5509 10.75 11.6609 10.78 11.7359 10.805Z" fill="#009B3A" stroke="black" stroke-width="0.0125"/>
<path d="M11.4512 10.7302L11.7562 10.5952L11.4212 10.6852L11.3812 10.7252H11.4512" fill="#009B3A"/>
<path d="M11.4512 10.7302L11.7562 10.5952L11.4212 10.6852L11.3812 10.7252H11.4512" stroke="black" stroke-width="0.0125"/>
<path d="M11.7256 10.8447C11.6406 10.8097 11.5006 10.7447 11.4156 10.7197L11.6356 10.4797C11.5956 10.5447 11.5356 10.6297 11.5056 10.6997C11.5656 10.7497 11.6556 10.7997 11.7256 10.8447Z" fill="#009B3A" stroke="black" stroke-width="0.0125"/>
<path d="M11.465 10.7499L11.705 10.6499L11.445 10.6799L11.415 10.7299L11.465 10.7499ZM11.265 12.9799H10.775L11.275 13.1049L11.355 13.0549L11.265 12.9799Z" fill="#009B3A" stroke="black" stroke-width="0.0125"/>
<path d="M11.3562 13.0103L10.8562 12.8953L11.3362 13.1303L11.4362 13.1003L11.3562 13.0103Z" fill="#009B3A" stroke="black" stroke-width="0.0125"/>
<path d="M11.4406 13.0453L10.9406 13.0203L11.4406 13.1703L11.5256 13.1203L11.4406 13.0453Z" fill="#009B3A" stroke="black" stroke-width="0.0125"/>
<path d="M11.1259 12.6953C11.2509 12.8353 11.4459 13.0653 11.5809 13.1903C11.4159 13.2153 11.1659 13.2803 11.0109 13.3253C11.1309 13.2653 11.3109 13.1953 11.4109 13.1253C11.3409 12.9953 11.2109 12.8253 11.1259 12.6953Z" fill="#009B3A" stroke="black" stroke-width="0.0125"/>
<path d="M11.5062 13.0698L11.0062 12.9048L11.4762 13.1848L11.5762 13.1648L11.5062 13.0648" fill="#009B3A"/>
<path d="M11.5062 13.0698L11.0062 12.9048L11.4762 13.1848L11.5762 13.1648L11.5062 13.0648" stroke="black" stroke-width="0.0125"/>
<path d="M11.1703 12.7251C11.3103 12.8551 11.5203 13.0601 11.6703 13.1751C11.5103 13.2201 11.2703 13.3151 11.1203 13.3751C11.2353 13.3051 11.4003 13.2151 11.4903 13.1251C11.4103 13.0051 11.2653 12.8501 11.1703 12.7251Z" fill="#009B3A" stroke="black" stroke-width="0.0125"/>
<path d="M11.55 13.1001L11.075 13.1951L11.575 13.2251L11.645 13.1601L11.545 13.1001" fill="#009B3A"/>
<path d="M11.55 13.1001L11.075 13.1951L11.575 13.2251L11.645 13.1601L11.545 13.1001" stroke="black" stroke-width="0.0125"/>
<path d="M11.4509 13.0703L10.9609 13.1103L11.4659 13.1953L11.5459 13.1353L11.4459 13.0703" fill="#009B3A"/>
<path d="M11.4509 13.0703L10.9609 13.1103L11.4659 13.1953L11.5459 13.1353L11.4459 13.0703" stroke="black" stroke-width="0.0125"/>
<path d="M11.5413 13.1006L11.0312 13.0156L11.5312 13.2156L11.6213 13.1806L11.5413 13.0956V13.1006Z" fill="#009B3A" stroke="black" stroke-width="0.0125"/>
<path d="M11.625 13.125L11.125 13.135L11.635 13.25L11.715 13.195L11.625 13.125Z" fill="#009B3A" stroke="black" stroke-width="0.0125"/>
<path d="M11.2856 12.8004C11.4256 12.9304 11.6356 13.1404 11.7806 13.2604C11.6156 13.2954 11.3656 13.3804 11.2156 13.4304C11.3356 13.3654 11.5056 13.2854 11.6006 13.2054C11.5206 13.0804 11.3806 12.9204 11.2856 12.7954V12.8004Z" fill="#009B3A" stroke="black" stroke-width="0.0125"/>
<path d="M11.6959 13.1456L11.1859 13.0156L11.6759 13.2656L11.7709 13.2356L11.6959 13.1456Z" fill="#009B3A" stroke="black" stroke-width="0.0125"/>
<path d="M11.3312 12.825C11.4812 12.945 11.7112 13.135 11.8662 13.235C11.7062 13.29 11.4762 13.41 11.3362 13.48C11.4462 13.395 11.6012 13.295 11.6862 13.205C11.5962 13.085 11.4362 12.94 11.3362 12.825H11.3312Z" fill="#009B3A" stroke="black" stroke-width="0.0125"/>
<path d="M11.74 13.1704L11.275 13.3004H11.775L11.84 13.2254L11.74 13.1754V13.1704Z" fill="#009B3A" stroke="black" stroke-width="0.0125"/>
<path d="M12.3797 12.475L11.9997 12.21L11.6197 12.475L11.7647 12.055L11.4297 11.795H11.8597L11.9997 11.375L12.1397 11.795H12.5697L12.2347 12.055L12.3797 12.475Z" fill="#FEDF00" stroke="black" stroke-width="0.05"/>
</g>
</g>
</g>
<defs>
<clipPath id="clip0_69_9987">
<rect width="24" height="24" rx="12" fill="white"/>
</clipPath>
<clipPath id="clip1_69_9987">
<rect width="32" height="24" fill="white" transform="translate(-4)"/>
</clipPath>
</defs>
</svg>
