<svg width="24" height="24" viewBox="0 0 24 24" fill="none" xmlns="http://www.w3.org/2000/svg">
<g clip-path="url(#clip0_69_10466)">
<path d="M0 3.19995H24V24H0V3.19995Z" fill="#20603D"/>
<path d="M0 3.19995H24V18.8H0V3.19995Z" fill="#FAD201"/>
<path d="M0 -0.400146H24V12.1999H0V-0.400146Z" fill="#00A1DE"/>
<path d="M22.0666 7.90173L20.0566 8.01921L21.9666 8.65422L19.9966 8.24673L21.6791 9.35172L19.8791 8.44674L21.2141 9.95424L19.7116 8.61672L20.6166 10.4167L19.5091 8.73423L19.9141 10.7017L19.2816 8.79423L19.1641 10.8042L19.1391 7.87671L22.0666 7.90173Z" fill="#E5BE01"/>
<path d="M22.0666 7.90228L20.0566 7.78477L21.9666 7.14976L19.9966 7.55728L21.6791 6.45226L19.8791 7.35727L21.2141 5.84976L19.7116 7.18726L20.6166 5.38726L19.5091 7.06978L19.9141 5.10226L19.2816 7.00978L19.1641 4.99976L19.1391 7.92727L22.0666 7.90228Z" fill="#E5BE01"/>
<path d="M16.2608 7.90173L18.2708 8.01921L16.3608 8.65422L18.3308 8.24673L16.6483 9.35172L18.4483 8.44674L17.1133 9.95424L18.6158 8.61672L17.7108 10.4167L18.8183 8.73423L18.4133 10.7017L19.0458 8.79423L19.1633 10.8042L19.1883 7.87671L16.2608 7.90173Z" fill="#E5BE01"/>
<path d="M16.2608 7.90228L18.2708 7.78477L16.3608 7.14976L18.3308 7.55728L16.6483 6.45226L18.4483 7.35727L17.1133 5.84976L18.6158 7.18726L17.7108 5.38726L18.8183 7.06978L18.4133 5.10226L19.0458 7.00978L19.1633 4.99976L19.1883 7.92727L16.2608 7.90228Z" fill="#E5BE01"/>
<path d="M19.1645 8.75969C19.6381 8.75969 20.022 8.37578 20.022 7.9022C20.022 7.42859 19.6381 7.04468 19.1645 7.04468C18.6909 7.04468 18.307 7.42859 18.307 7.9022C18.307 8.37578 18.6909 8.75969 19.1645 8.75969Z" fill="#E5BE01" stroke="#00A1DE" stroke-width="0.283335"/>
</g>
<defs>
<clipPath id="clip0_69_10466">
<rect width="24" height="24" rx="12" fill="white"/>
</clipPath>
</defs>
</svg>
