<svg width="24" height="24" viewBox="0 0 24 24" fill="none" xmlns="http://www.w3.org/2000/svg">
<g clip-path="url(#clip0_69_10642)">
<g clip-path="url(#clip1_69_10642)">
<mask id="mask0_69_10642" style="mask-type:luminance" maskUnits="userSpaceOnUse" x="-4" y="0" width="32" height="24">
<path d="M28 0H-4V24H28V0Z" fill="white"/>
</mask>
<g mask="url(#mask0_69_10642)">
<mask id="mask1_69_10642" style="mask-type:luminance" maskUnits="userSpaceOnUse" x="-4" y="0" width="32" height="24">
<path d="M-4 0H27.9969V24H-4V0Z" fill="white"/>
</mask>
<g mask="url(#mask1_69_10642)">
<path fill-rule="evenodd" clip-rule="evenodd" d="M-6 0H30V24H-6V0Z" fill="#165D31"/>
<path fill-rule="evenodd" clip-rule="evenodd" d="M3.07064 6.80082C3.03312 7.3633 2.97688 8.3477 3.45968 8.45082C4.03628 8.50706 3.71752 7.47582 3.92844 7.2883C3.96596 7.19458 4.03628 7.19458 4.04096 7.31174V8.1883C4.04096 8.46958 4.22844 8.55394 4.36908 8.61018C4.51908 8.60082 4.6222 8.61018 4.67844 8.75082L4.75344 10.2649C4.75344 10.2649 5.10032 10.368 5.11908 9.41646C5.13312 8.85394 5.00656 8.3899 5.08156 8.28206C5.08156 8.17426 5.2222 8.16958 5.31596 8.22114C5.46596 8.32426 5.53156 8.4555 5.76596 8.40862C6.1222 8.3055 6.33784 8.13206 6.34252 7.86018C6.33548 7.59302 6.27988 7.32934 6.17844 7.08206C6.1972 7.03518 6.11284 6.90862 6.13156 6.86174C6.19252 6.9649 6.29096 6.9555 6.30972 6.86174C6.24876 6.6649 6.155 6.4727 6.005 6.39302C5.87844 6.2805 5.69096 6.29926 5.63 6.53362C5.59252 6.80082 5.72376 7.1149 5.91596 7.37738C5.95812 7.47582 6.0144 7.64458 5.99096 7.79458C5.88784 7.8555 5.78468 7.82738 5.69564 7.7383C5.69564 7.7383 5.4144 7.52738 5.4144 7.47582C5.4894 6.9977 5.42844 6.94146 5.38628 6.8055C5.35812 6.6227 5.26908 6.56174 5.19876 6.4399C5.12844 6.3649 5.03468 6.3649 4.98784 6.4399C4.86128 6.6555 4.9222 7.11958 5.01128 7.3305C5.07688 7.5227 5.17532 7.64458 5.12844 7.64458C5.09096 7.75238 5.01128 7.72426 4.95032 7.5977C4.88172 7.33134 4.84864 7.0571 4.85188 6.78206C4.82844 6.56646 4.80032 6.10706 4.655 5.98518C4.57064 5.8727 4.44408 5.92894 4.3972 6.03206C4.38484 6.24146 4.38952 6.45154 4.41128 6.66018C4.505 7.00706 4.53784 7.31646 4.58468 7.66802C4.59876 8.14146 4.31284 7.87426 4.32688 7.63518C4.3884 7.33466 4.3836 7.0243 4.31284 6.72582C4.26596 6.60394 4.2144 6.57582 4.0972 6.59458C4.00812 6.59458 3.77844 6.84302 3.71284 7.2649C3.71284 7.2649 3.65656 7.4805 3.63312 7.6727C3.60032 7.8883 3.45968 8.0477 3.35656 7.64458C3.2722 7.34926 3.21596 6.63206 3.07532 6.80082H3.07064Z" fill="white"/>
<path fill-rule="evenodd" clip-rule="evenodd" d="M4.64064 9.10305L3.14064 9.82493C3.15468 9.48273 3.84844 8.86869 4.32656 8.86401C4.63124 8.86869 4.55624 8.98117 4.63592 9.10305H4.64064Z" fill="white"/>
<path fill-rule="evenodd" clip-rule="evenodd" d="M4.37312 9.57128C3.5856 11.6104 6.22468 11.8963 6.52 9.65568C6.54812 9.56192 6.6606 9.47288 6.67936 9.62288C6.61844 11.6526 4.6356 11.7885 4.29812 11.151C4.21872 10.9316 4.17904 10.6999 4.18092 10.4666C4.13404 10.0682 3.92312 10.2229 3.89032 10.6166C3.85748 10.8369 3.86688 10.8979 3.86688 11.1088C3.97 12.7119 6.52468 12.0229 6.94188 10.701C7.16216 9.96972 6.90436 9.43068 7.02156 9.43068C7.27468 9.70256 7.63092 9.46816 7.7106 9.37444C7.74344 9.32756 7.8278 9.29472 7.88404 9.35568C8.08092 9.49628 8.4278 9.43068 8.5028 9.18224C8.545 8.9338 8.5778 8.68068 8.58716 8.42288C8.42312 8.46972 8.30592 8.50256 8.29188 8.57288L8.25904 8.78848C8.245 8.8588 8.10904 8.8588 8.09968 8.76972C8.03872 8.48848 7.7856 8.45568 7.63092 8.88692C7.53248 8.97128 7.345 8.99004 7.32624 8.86348C7.34968 8.57288 7.23248 8.53536 6.99812 8.67128L6.77312 6.97444C6.86688 6.97444 6.9606 7.04472 7.04968 6.93224C6.95592 6.62756 6.745 6.0088 6.6278 5.96192C6.57624 5.89628 6.52936 5.93848 6.45436 5.95724C6.33248 5.99472 6.22 6.09788 6.25748 6.30412C6.39812 7.18536 6.49188 7.85568 6.63716 8.7416C6.6606 8.84004 6.57624 8.976 6.46372 8.96192C6.27624 8.83536 6.22936 8.57756 5.90124 8.58692C5.66688 8.58692 5.40436 8.84472 5.37156 9.08848C5.32936 9.28536 5.31532 9.49628 5.37156 9.66504C5.5356 9.86192 5.73248 9.84316 5.90592 9.801C6.04656 9.74004 6.16376 9.59944 6.21532 9.63224C6.24812 9.67444 6.22 10.1432 5.545 10.4994C5.13716 10.6869 4.80904 10.7244 4.6356 10.3916C4.5278 10.1807 4.645 9.38848 4.37312 9.57128Z" fill="white"/>
<path fill-rule="evenodd" clip-rule="evenodd" d="M7.73564 7.49933C7.89032 7.44309 8.64032 6.58061 8.64032 6.58061L8.52784 6.48685C8.48564 6.45405 8.49032 6.41653 8.52784 6.38373C8.71532 6.27121 8.6544 6.03685 8.56064 5.92433C8.497 5.89333 8.427 5.87757 8.3562 5.87841C8.2854 5.87921 8.21576 5.89653 8.15284 5.92905C8.0216 6.05561 7.99348 6.25717 8.0966 6.37905C8.19504 6.42589 8.29348 6.52905 8.22784 6.58529C7.91848 6.91341 7.0794 7.48061 7.17784 7.49933C7.1966 7.52745 7.71692 7.52745 7.73096 7.49933H7.73564ZM3.18876 10.5462C2.90752 10.9962 2.88408 11.6665 3.03876 11.8681C3.12316 11.9619 3.25908 12.0041 3.35752 11.9712C3.53564 11.8962 3.61532 11.5353 3.57316 11.4087C3.5122 11.315 3.46532 11.3009 3.4044 11.3759C3.28252 11.6291 3.23096 11.4556 3.21692 11.315C3.20348 11.0768 3.21604 10.8379 3.2544 10.6025C3.2872 10.4056 3.2544 10.4619 3.18876 10.5462ZM15.2403 9.82905C14.9685 9.23841 14.5888 8.65717 14.4716 8.43685C14.1063 7.85937 13.7185 7.29645 13.3091 6.74933C13.0185 6.40245 13.7872 6.89465 13.2153 6.20089L12.7982 5.84933C12.7044 5.78373 12.4794 5.66185 12.4419 5.85873C12.4232 6.03685 12.4325 6.13061 12.4606 6.27589C12.4841 6.36965 12.6247 6.53373 12.695 6.62745C13.656 7.90033 14.5001 9.25741 15.2169 10.6822C15.3388 10.6212 15.3106 9.92745 15.2403 9.82905Z" fill="white"/>
<path fill-rule="evenodd" clip-rule="evenodd" d="M14.0444 11.7892C13.9882 11.8501 14.1757 12.108 14.4194 12.108C14.8226 12.0611 15.1788 11.8361 15.5069 11.2361C15.6402 11.0365 15.7253 10.8086 15.7554 10.5705C15.795 9.43253 15.7038 8.29381 15.4835 7.17669C15.4694 7.08297 15.4835 6.97045 15.4928 6.94233C15.521 6.90953 15.61 6.94233 15.6569 6.86265C15.7272 6.79233 15.4694 6.20637 15.3288 5.98609C15.2819 5.88297 15.2585 5.81733 15.1741 5.99545C15.0723 6.19201 15.0238 6.41181 15.0335 6.63297C15.2257 7.96889 15.2866 9.13609 15.4085 10.472C15.4226 10.6033 15.4038 10.7908 15.3147 10.8658C14.961 11.2596 14.5282 11.5743 14.0444 11.7892ZM19.5054 11.7845C19.2147 11.9533 19.2147 12.1455 19.4491 12.1501C19.8522 12.1033 20.3304 12.0705 20.6585 11.5736C20.7744 11.3395 20.8414 11.0844 20.8554 10.8236C20.9144 9.70317 20.8404 8.57969 20.635 7.47669C20.6257 7.38297 20.5835 7.16265 20.5976 7.13453C20.6257 7.06889 20.7569 7.13921 20.8038 7.06421C20.8694 6.99389 20.4616 6.46889 20.3163 6.24389C20.2694 6.14077 20.2507 6.07513 20.1616 6.25325C20.0672 6.45161 20.0377 6.67469 20.0772 6.89077C20.2928 8.34389 20.4522 9.43137 20.485 10.7158C20.4663 10.8377 20.4616 10.9033 20.4054 11.058C20.2788 11.2173 20.1382 11.4236 20.0069 11.522C19.8757 11.6158 19.5944 11.7095 19.5054 11.7845Z" fill="white"/>
<path fill-rule="evenodd" clip-rule="evenodd" d="M19.7208 10.4854C19.7208 10.1432 19.7254 9.85255 19.7161 9.59471C19.713 9.37639 19.6652 9.161 19.5754 8.96192C19.4911 8.76972 19.5426 8.61503 19.5004 8.40879C19.4629 8.20255 19.4723 7.89315 19.4161 7.65411C19.3973 7.56035 19.3504 7.25568 19.3645 7.22284C19.3879 7.15724 19.477 7.22284 19.5239 7.14784C19.5895 7.07756 19.2895 6.30411 19.1395 6.08379C19.0879 5.98535 18.9848 6.01815 18.8676 6.17755C18.7504 6.28535 18.7926 6.52443 18.8395 6.75411C19.1254 8.26815 19.3458 9.6416 19.2989 11.0807C19.2801 11.2026 19.7208 10.715 19.7208 10.4854ZM17.5786 8.61036C17.3958 8.601 17.0161 8.24944 16.9036 8.04784C16.8852 7.9986 16.8773 7.946 16.8805 7.89352C16.8838 7.84104 16.898 7.7898 16.9223 7.74316C16.9926 7.69628 17.0958 7.64943 17.1754 7.69627C17.1754 7.69627 17.2551 7.8088 17.2411 7.82284C17.3348 7.86972 17.3817 7.84627 17.3911 7.80411C17.3958 7.73379 17.3629 7.6916 17.3629 7.6166C17.4051 7.401 17.6442 7.36815 17.7379 7.50411C17.8036 7.58847 17.8317 7.76191 17.8364 7.87911C17.8364 7.94003 17.7426 7.86971 17.6817 7.87911C17.6301 7.89783 17.6161 7.96347 17.6114 8.01971C17.602 8.17443 17.5832 8.42284 17.5786 8.60568V8.61036ZM14.2129 10.8604C14.2598 10.401 14.1942 9.58067 14.1895 9.30879C14.1644 8.60959 14.1066 7.91196 14.0161 7.21816C13.9598 6.82444 14.1754 7.26035 14.1473 7.03068C14.077 6.6416 13.8614 6.37444 13.6036 6.02283C13.5239 5.90567 13.5239 5.88223 13.3973 6.05099C13.2567 6.36503 13.3786 6.58535 13.4161 6.83379C13.5989 7.64003 13.7067 8.38068 13.7582 9.1166C13.8122 9.88112 13.8185 10.6482 13.777 11.4135C13.9176 11.4182 14.1332 11.1932 14.2129 10.8604Z" fill="white"/>
<path fill-rule="evenodd" clip-rule="evenodd" d="M20.3439 10.1255C20.0204 9.5817 19.5376 9.00046 19.4064 8.78014C18.9717 8.17318 18.5152 7.58214 18.0376 7.0083C17.6392 6.58642 18.2251 6.93798 17.9626 6.60986C17.7423 6.37078 17.6814 6.2911 17.4892 6.14578C17.3954 6.08486 17.3392 5.96766 17.3017 6.16922C17.2867 6.34382 17.2836 6.51922 17.2923 6.69422C17.2923 6.7739 17.3767 6.92858 17.4517 7.02234C18.422 8.21766 19.486 9.43642 20.3392 10.9692C20.461 10.9083 20.4189 10.2192 20.3392 10.1255H20.3439Z" fill="white"/>
<path fill-rule="evenodd" clip-rule="evenodd" d="M5.74776 9.12667C5.72432 9.16887 5.67276 9.22043 5.69152 9.27199C5.72432 9.31887 5.75716 9.33295 5.8134 9.33295C5.86496 9.33295 5.93996 9.34699 5.95404 9.31887C5.98216 9.28607 6.00088 9.22511 5.98216 9.16419C5.92588 9.02355 5.77588 9.07983 5.74776 9.12667Z" fill="#165D31"/>
<path fill-rule="evenodd" clip-rule="evenodd" d="M16.6031 16.9926C17.0344 17.0113 17.3156 17.016 17.6953 17.0582L18.1453 17.0113C18.6422 16.9645 18.6609 17.7191 18.6609 17.7191C18.6609 18.1645 18.4875 18.1879 18.2672 18.2348C18.1406 18.2535 18.0797 18.1598 18.0094 18.066C17.9034 18.1 17.7904 18.1065 17.6812 18.0848C17.4984 18.0754 17.3203 18.0754 17.1422 18.0613C16.9547 18.0473 16.8516 18.0848 16.6594 18.066C16.6219 18.127 16.5656 18.2113 16.4531 18.1879C16.3594 18.1738 16.2422 17.9067 16.275 17.6957C16.3453 17.5457 16.3219 17.5973 16.3219 17.5317C14.5594 17.4848 12.7828 17.4051 11.0578 17.4285C9.7078 17.4332 8.37656 17.4895 7.04064 17.5457C6.32812 17.5363 5.78436 17.4238 5.40936 16.8754C5.44688 16.8754 7.22812 16.9738 7.74844 16.941C8.70936 16.9317 9.59064 16.852 10.5703 16.8238C12.5016 16.8567 14.4188 16.8567 16.35 16.9926C16.1625 16.866 16.1625 16.5707 16.4438 16.4957C16.4672 16.477 16.4812 16.641 16.5234 16.6363C16.7531 16.6223 16.65 16.9317 16.6031 16.9926ZM8.84064 6.34259C8.55 7.17699 9.00936 8.09571 9.32812 8.00667C9.56248 8.10039 9.70312 7.65979 9.79688 7.18167C9.8672 7.04571 9.91408 7.03167 9.94688 7.10199C9.93748 7.73947 9.99376 7.88479 10.1578 8.07699C10.5234 8.35823 10.8281 8.11447 10.8516 8.09103L11.1328 7.80511C11.1984 7.73479 11.2828 7.73479 11.3719 7.79103C11.4609 7.87071 11.4469 8.00667 11.6344 8.10039C11.7938 8.16603 12.1266 8.11915 12.2062 7.98323C12.3094 7.80039 12.3375 7.73947 12.3844 7.67383C12.4594 7.57539 12.5859 7.61759 12.5859 7.65039C12.5719 7.70667 12.4969 7.75823 12.5484 7.86135C12.6422 7.92699 12.6609 7.88479 12.7125 7.87071C12.9 7.77699 13.0406 7.37383 13.0406 7.37383C13.0453 7.22383 12.9609 7.23323 12.9047 7.27071L12.7594 7.36915C12.6656 7.38323 12.4922 7.44415 12.4031 7.30823C12.3141 7.14883 12.3141 6.91915 12.2484 6.75511C12.2484 6.74571 12.1266 6.49727 12.2391 6.48323C12.2953 6.49259 12.4125 6.52539 12.4312 6.42699C12.4875 6.32855 12.3094 6.05199 12.1828 5.91135C12.075 5.79415 11.925 5.78011 11.7797 5.90199C11.6766 5.99571 11.6906 6.09883 11.6719 6.19727C11.6541 6.26783 11.6533 6.34159 11.6696 6.41247C11.6859 6.48339 11.7188 6.54939 11.7656 6.60511C11.8688 6.80199 12.0516 7.05979 11.9906 7.42539C11.9906 7.42539 11.8828 7.59415 11.6953 7.57071C11.6156 7.55667 11.4891 7.52383 11.4234 7.01759C11.3719 6.64259 11.4328 6.10823 11.2734 5.85979C11.2125 5.70511 11.1703 5.55979 11.0297 5.81759C10.9922 5.92071 10.8281 6.07539 10.9453 6.38947C11.0562 6.67247 11.0886 6.98019 11.0391 7.28011C10.9688 7.38323 10.9547 7.41603 10.8656 7.51447C10.7438 7.65511 10.6078 7.61759 10.5047 7.56603C10.4109 7.50511 10.3359 7.47227 10.2891 7.26135C10.2984 6.93323 10.3172 6.39415 10.2562 6.28167C10.1672 6.10355 10.0219 6.16915 9.96092 6.22539C9.68208 6.53519 9.4954 6.91671 9.42188 7.32699C9.33748 7.59883 9.24844 7.51915 9.18748 7.41135C9.03748 7.27071 9.02344 6.15979 8.84064 6.34259Z" fill="white"/>
<path fill-rule="evenodd" clip-rule="evenodd" d="M9.72272 8.16121C9.85864 8.06745 9.79772 8.00185 9.9946 8.19873C10.2487 8.64833 10.3962 9.15029 10.4258 9.66589C10.4165 9.78777 10.5008 9.86277 10.543 9.83465C10.5618 9.55341 11.2508 9.15965 11.8836 9.10341C11.9774 9.07997 11.9305 8.89717 11.9446 8.80341C11.9071 8.45185 12.1415 8.13309 12.4696 8.10965C12.9196 8.17529 13.0696 8.41433 13.079 8.77529C13.0274 9.47841 12.2962 9.59557 11.8883 9.65185C11.8274 9.67529 11.7993 9.70341 11.8883 9.73621L13.604 9.74557L13.693 9.79245C13.7024 9.83933 13.6649 9.80185 13.5993 9.91433C13.5049 10.0801 13.4458 10.2637 13.4258 10.4534C12.9149 10.6222 12.3852 10.6878 11.8508 10.7581C11.6633 10.8518 11.5696 10.9784 11.6071 11.119C11.6727 11.2737 12.0852 11.4331 12.0852 11.4378C12.1649 11.4846 12.254 11.6018 12.0618 11.8409C11.2274 11.8034 10.5758 11.4472 10.3508 10.9456C10.2852 10.894 10.2102 10.9456 10.1633 11.0112C9.8352 11.4331 9.51648 11.8081 8.95864 12.0143C8.63052 12.0987 8.28832 11.9628 8.12896 11.7472C8.02116 11.6206 8.02584 11.4846 7.98832 11.4565C7.80552 11.5362 6.25864 12.1924 6.45552 11.8831C6.83052 11.4846 7.48676 11.1846 8.05864 10.7909C8.10084 10.655 8.17584 10.205 8.40084 10.0596C8.41488 10.0596 8.36804 10.3222 8.37272 10.4346C8.37272 10.5284 8.36332 10.5612 8.38208 10.5378C8.42428 10.5143 9.11804 9.96589 9.17896 9.79717C9.2446 9.70341 9.19304 9.45965 9.19304 9.45029C9.06176 9.11277 8.87896 9.08465 8.81332 8.91589C8.7524 8.69557 8.78052 8.44245 8.90708 8.36745C9.0196 8.26901 9.15084 8.27841 9.2774 8.39089C9.41804 8.51745 9.53988 8.76589 9.5774 8.94873C9.55396 9.01901 9.38988 8.90185 9.34304 8.93465C9.43324 9.03833 9.49324 9.16481 9.51648 9.30029C9.6102 9.68465 9.58208 9.83465 9.48832 10.0831C9.17896 10.7346 8.7852 10.9268 8.43832 11.1706C8.42896 11.1706 8.42428 11.3346 8.55084 11.4237C8.59772 11.4706 8.78052 11.494 8.99148 11.4237C9.44212 11.1734 9.80652 10.7927 10.0368 10.3315C10.0766 9.98061 10.0382 9.62521 9.92428 9.29089C9.78832 8.97685 9.62896 8.53153 9.62896 8.52217C9.62428 8.32529 9.63832 8.25965 9.72272 8.16121ZM5.23208 6.35185C5.42896 6.44557 5.80396 6.40341 5.7852 6.08465L5.77584 5.93933C5.73832 5.84557 5.62584 5.86901 5.6024 5.96277C5.59304 5.99557 5.61648 6.04717 5.58832 6.06121C5.5696 6.07997 5.50864 6.07057 5.50864 5.98153C5.50864 5.95341 5.48988 5.92529 5.47584 5.90653C5.46648 5.89717 5.45708 5.89717 5.43364 5.89717C5.40552 5.89717 5.40552 5.90185 5.39148 5.92529C5.38676 5.94873 5.3774 5.97217 5.3774 6.00029C5.3774 6.03309 5.35864 6.04245 5.33988 6.04717C5.31176 6.04717 5.31648 6.04717 5.29304 6.03777C5.28364 6.02373 5.2696 6.01901 5.2696 5.99089L5.25552 5.91589C5.24616 5.90185 5.2274 5.89245 5.20864 5.88777C5.10084 5.88777 5.09148 6.01433 5.10084 6.06121C5.09148 6.07057 5.08676 6.29089 5.23208 6.35185Z" fill="white"/>
<path fill-rule="evenodd" clip-rule="evenodd" d="M11.0188 8.79841C11.2157 8.89217 11.6891 8.84062 11.572 8.5359L11.5626 8.3859C11.5204 8.29218 11.4126 8.31562 11.3891 8.41406C11.3798 8.44218 11.4032 8.49373 11.3704 8.50777C11.3563 8.52653 11.2907 8.51717 11.2954 8.43277C11.2954 8.40465 11.2766 8.37186 11.2626 8.35309C11.2485 8.34841 11.2438 8.34374 11.2157 8.34374C11.1922 8.34374 11.1922 8.35309 11.1782 8.37653C11.1688 8.39997 11.1641 8.42341 11.1641 8.45153C11.1594 8.47965 11.1454 8.48905 11.122 8.49841C11.0985 8.49841 11.1032 8.49841 11.0844 8.48433C11.0704 8.47029 11.0563 8.46562 11.0563 8.44217L11.0422 8.36717C11.0329 8.3531 11.0141 8.34374 10.9954 8.33906C10.8876 8.33906 10.8782 8.46089 10.8829 8.50777C10.8782 8.51717 10.8735 8.74218 11.0235 8.79841H11.0188ZM14.3938 7.7859C14.5907 7.87966 14.961 7.83745 14.947 7.52341L14.9376 7.37341C14.8954 7.27965 14.7876 7.30309 14.7641 7.39685C14.7548 7.42965 14.7782 7.48122 14.7454 7.49998C14.7313 7.51406 14.6657 7.50465 14.6704 7.41561C14.6704 7.38745 14.6516 7.35933 14.6376 7.34061C14.6235 7.33121 14.6188 7.33121 14.5907 7.33121C14.5672 7.33121 14.5672 7.34062 14.5532 7.36406L14.5391 7.43433C14.5344 7.46718 14.5204 7.48121 14.497 7.48121C14.4735 7.48121 14.4782 7.48121 14.4594 7.47185C14.4454 7.45777 14.4313 7.4531 14.4313 7.42966C14.4313 7.40622 14.4266 7.36874 14.4172 7.34998C14.4079 7.3359 14.3891 7.33121 14.3704 7.32653C14.2626 7.32653 14.2532 7.44841 14.2579 7.49529C14.2532 7.50465 14.2485 7.72498 14.3985 7.7859H14.3938ZM16.1422 10.3312C15.8001 10.7203 15.9501 11.3625 16.0298 11.5031C16.1422 11.7281 16.2313 11.8734 16.4516 11.9859C16.6532 12.1312 16.8126 12.0422 16.897 11.9391C17.0985 11.7281 17.1032 11.1891 17.197 11.0859C17.2626 10.8891 17.4313 10.9219 17.511 11.0109C17.5856 11.1167 17.6855 11.2022 17.8016 11.2593C17.9891 11.4234 18.2141 11.4562 18.4391 11.3062C18.5891 11.2172 18.6876 11.1093 18.7766 10.8891C18.8704 10.6265 18.8235 9.40778 18.8001 8.6859L18.6032 7.67809C18.6032 7.66873 18.5798 7.19997 18.5563 7.09217C18.5563 7.04529 18.5422 7.03122 18.5891 7.0359C18.6407 7.08278 18.6454 7.08277 18.6829 7.09685C18.7298 7.10621 18.7766 7.01717 18.7438 6.94217L18.2751 6.0703C18.2376 6.03278 18.186 5.99529 18.1251 6.07965C18.0891 6.11221 18.0605 6.15202 18.0411 6.19646C18.0217 6.24094 18.012 6.28898 18.0126 6.33746C18.0266 6.54374 18.0594 6.75466 18.0735 6.9609L18.261 8.02029C18.322 8.77029 18.336 9.38906 18.397 10.1437C18.3876 10.4625 18.2891 10.7391 18.1954 10.7812C18.1954 10.7812 18.0548 10.8609 17.961 10.7719C17.8907 10.7437 17.6141 10.3078 17.6141 10.3078C17.4735 10.1812 17.3798 10.2141 17.2813 10.3078C17.0001 10.5797 16.8782 11.0765 16.686 11.4234C16.6391 11.5031 16.4985 11.5641 16.3485 11.4187C15.9641 10.8891 16.1891 10.1391 16.1422 10.3312ZM14.4829 5.93905C14.661 6.00933 14.7829 6.3703 14.7454 6.54842C14.7079 6.75934 14.6141 6.99373 14.5485 6.96561C14.4735 6.93749 14.5954 6.74997 14.5251 6.55309C14.4876 6.42185 14.2438 6.18749 14.272 6.12185C14.2251 5.97653 14.3751 5.9109 14.4829 5.93434V5.93905Z" fill="white"/>
<path fill-rule="evenodd" clip-rule="evenodd" d="M16.716 10.5475C16.7488 10.1162 16.6878 9.85372 16.6784 9.6006C16.6691 9.34748 16.3925 7.41624 16.3362 7.22872C16.266 6.86312 16.6034 7.18184 16.566 6.96624C16.4488 6.70372 16.1628 6.31468 16.0738 6.085C16.0175 5.99124 16.041 5.89748 15.9191 6.06156C15.8141 6.3492 15.7772 6.65724 15.8112 6.96156C16.1019 8.4756 16.3972 9.73184 16.3503 11.1709C16.491 11.1709 16.6456 10.8568 16.716 10.5475ZM19.7347 6.54904C19.8988 6.62872 19.9925 7.07872 19.9738 7.20528C19.941 7.43968 19.8566 7.6928 19.7956 7.66C19.7253 7.63184 19.8097 7.31312 19.7769 7.21468C19.7394 7.07404 19.5191 6.82092 19.5425 6.74592C19.4956 6.58656 19.6362 6.52092 19.7347 6.54904ZM7.74876 9.73184C7.90344 9.7928 7.9972 10.1209 7.98312 10.2147C7.94564 10.3881 7.86596 10.5756 7.805 10.5475C7.74408 10.5287 7.81908 10.2944 7.79096 10.2194C7.77688 10.0459 7.56124 9.95216 7.56596 9.87716C7.52844 9.73656 7.65968 9.71312 7.75344 9.73184H7.74876Z" fill="white"/>
<path fill-rule="evenodd" clip-rule="evenodd" d="M11.4783 10.2282C11.6752 10.2376 11.7736 10.3969 11.5908 10.4626C11.4033 10.5235 11.2299 10.575 11.2252 10.8376C11.2955 11.2126 11.1314 11.0813 11.0377 11.0344C10.9252 10.95 10.6064 10.7532 10.5596 10.3313C10.5549 10.2328 10.6346 10.1438 10.7611 10.1438C10.9486 10.1954 11.2299 10.2 11.4783 10.2282Z" fill="#165D31"/>
<path fill-rule="evenodd" clip-rule="evenodd" d="M3.62824 5.83047C3.85324 5.89607 3.86728 6.23359 3.85324 6.33203C3.8204 6.51015 3.74072 6.70231 3.68448 6.67891C3.61884 6.65547 3.68448 6.41171 3.65168 6.33671C3.61884 6.23359 3.42668 6.03671 3.4454 5.98047C3.40324 5.86327 3.53916 5.80703 3.62824 5.83047ZM8.12356 7.40547C7.9454 7.49919 7.8798 7.78047 7.9876 7.94919C8.09072 8.08983 8.25012 8.03827 8.26884 8.03827C8.44228 8.05703 8.5454 7.71483 8.5454 7.71483C8.5454 7.71483 8.55012 7.62107 8.34856 7.80391C8.25948 7.81795 8.2548 7.78515 8.23136 7.73827C8.20988 7.64903 8.21812 7.55523 8.2548 7.47107C8.2876 7.38671 8.22196 7.34919 8.12356 7.40547ZM9.43604 5.69919C9.34228 5.76015 9.16884 5.94295 9.16416 6.14919C9.15948 6.26639 9.13604 6.26639 9.21104 6.33671C9.27196 6.42107 9.32356 6.41639 9.43604 6.35547C9.46408 6.33779 9.48812 6.31451 9.50668 6.28711C9.52524 6.25967 9.53792 6.22867 9.54384 6.19607C9.57196 6.06483 9.40324 6.26171 9.38448 6.11171C9.34696 5.97107 9.4548 5.91483 9.55792 5.78359C9.55792 5.68983 9.55792 5.62891 9.43136 5.69919H9.43604ZM10.486 5.88671C10.4447 6.05739 10.4196 6.23159 10.411 6.40703C10.3829 6.53827 10.5517 6.59451 10.622 6.42575C10.7345 6.12107 10.7345 5.98983 10.7438 5.86327C10.711 5.66171 10.5751 5.66639 10.486 5.88671ZM17.1423 9.27575C17.161 9.25231 18.0798 8.60075 18.0798 8.60075C18.1736 8.56795 18.1501 8.93827 18.1079 8.93359C17.823 9.20819 17.4953 9.43459 17.1376 9.60391C17.0907 9.63671 17.0486 9.35547 17.1376 9.27575H17.1423ZM17.972 9.26639C18.136 9.34607 18.2017 9.81951 18.1829 9.94607C18.1829 10.1992 18.0282 10.3961 17.9626 10.3679C17.897 10.3351 17.972 10.0539 17.9392 9.95547C17.9017 9.81483 17.7657 9.55703 17.7892 9.48203C17.7423 9.32263 17.8736 9.23827 17.9767 9.26639H17.972ZM12.5345 11.3007C12.6105 11.212 12.6989 11.1347 12.797 11.0711C12.8907 11.0242 12.9751 11.1086 12.9704 11.1039C12.9845 11.1976 12.9142 11.2773 12.9376 11.3992C12.9564 11.4461 12.9704 11.5023 13.0595 11.4836C13.2048 11.3664 13.3407 11.357 13.4814 11.3523C13.5986 11.357 13.6032 11.5492 13.5282 11.5492C13.261 11.6055 13.1438 11.6805 12.9517 11.7507C12.8579 11.807 12.7829 11.7367 12.7829 11.732C12.7829 11.7273 12.7314 11.6805 12.7642 11.5586C12.7736 11.4648 12.736 11.4086 12.6517 11.4179C12.5954 11.4555 12.5392 11.4742 12.511 11.4039C12.497 11.357 12.4923 11.3289 12.5345 11.3007ZM18.9376 11.5539C18.9751 11.6007 19.0032 11.6476 18.9329 11.732L18.7595 11.882C18.7314 11.9289 18.7126 12.0133 18.8064 12.0367C18.9751 12.0836 19.3688 11.8257 19.3688 11.8211C19.4345 11.7742 19.4157 11.6805 19.4064 11.6805C19.3688 11.6383 19.2845 11.6664 19.2282 11.657C19.2001 11.657 19.111 11.6476 19.1532 11.5633C19.1847 11.5218 19.21 11.476 19.2282 11.4273C19.2517 11.3711 19.2282 11.3336 19.1345 11.3007C19.036 11.282 18.9938 11.2914 18.886 11.3007C18.8298 11.3101 18.811 11.3383 18.797 11.4086C18.8017 11.5164 18.8673 11.5117 18.9376 11.5492V11.5539Z" fill="white"/>
<path fill-rule="evenodd" clip-rule="evenodd" d="M12.5676 8.89165C12.5441 8.93853 12.4598 8.93853 12.38 8.89165C12.3004 8.84477 12.2535 8.76977 12.2816 8.72761C12.3098 8.68541 12.3894 8.68541 12.4691 8.72761C12.5488 8.76977 12.591 8.84949 12.5676 8.89165ZM8.39568 6.37917C8.3488 6.39321 8.2832 6.35105 8.25504 6.28541C8.22692 6.21977 8.241 6.16353 8.28788 6.14949C8.33476 6.13541 8.39568 6.18229 8.42848 6.24321C8.46132 6.30417 8.44256 6.36977 8.391 6.38385L8.39568 6.37917ZM16.6504 17.5776C17.091 17.5964 17.5035 17.5776 17.9394 17.601C18.0191 17.6714 17.9629 17.8354 17.9113 17.826L17.5457 17.812C17.541 17.6714 17.1848 17.6948 17.1941 17.8166C17.0019 17.8401 16.8285 17.812 16.6316 17.8026C16.5754 17.7323 16.5848 17.6057 16.6504 17.5776Z" fill="#165D31"/>
</g>
</g>
</g>
</g>
<defs>
<clipPath id="clip0_69_10642">
<rect width="24" height="24" rx="12" fill="white"/>
</clipPath>
<clipPath id="clip1_69_10642">
<rect width="32" height="24" fill="white" transform="translate(-4)"/>
</clipPath>
</defs>
</svg>
