<svg width="24" height="24" viewBox="0 0 24 24" fill="none" xmlns="http://www.w3.org/2000/svg">
<g clip-path="url(#clip0_69_11265)">
<path fill-rule="evenodd" clip-rule="evenodd" d="M0 20.6314L34.7133 2.80015L17.3566 -3.59985L0 2.80015V20.6314Z" fill="#0000D6"/>
<path fill-rule="evenodd" clip-rule="evenodd" d="M36 2.80005L0.956238 20.8L18.4781 27.2L36 20.8V2.80005Z" fill="#006000"/>
<path fill-rule="evenodd" clip-rule="evenodd" d="M36 2.80005H34.0698L0 19.8649V20.8H1.93008L36 3.77036V2.80005Z" fill="#FFCC00"/>
<path fill-rule="evenodd" clip-rule="evenodd" d="M5.31014 3.52002L5.72499 4.73291H7.0785L5.98515 5.47471L6.4035 6.68409L5.31014 5.94229L4.21679 6.6876L4.63514 5.47822L3.54179 4.72939H4.89179L5.31014 3.52002ZM12.0285 3.52002L12.4468 4.73291H13.8004L12.7035 5.47822L13.1254 6.6876L12.025 5.94229L10.9351 6.69111L11.3535 5.48174L10.2566 4.73291H11.6101L12.0285 3.52002ZM12.0285 8.6001L12.4468 9.813H13.8004L12.7035 10.5583L13.1254 11.7677L12.0285 11.0188L10.9387 11.7677L11.357 10.5583L10.2601 9.80946H11.6137L12.0285 8.6001ZM8.68866 6.08994L9.10701 7.29933H10.457L9.36717 8.04816L9.78201 9.25752L8.69217 8.50869L7.59531 9.25752L8.01717 8.04816L6.92031 7.29933H8.27382L8.68866 6.08994ZM5.31014 8.6001L5.72499 9.813H7.0785L5.98515 10.5583L6.4035 11.7677L5.31014 11.0188L4.21679 11.7677L4.63866 10.5583L3.53827 9.80946H4.88827L5.31014 8.6001Z" fill="white"/>
</g>
<defs>
<clipPath id="clip0_69_11265">
<rect width="24" height="24" rx="12" fill="white"/>
</clipPath>
</defs>
</svg>
