<svg width="24" height="24" viewBox="0 0 24 24" fill="none" xmlns="http://www.w3.org/2000/svg">
<g clip-path="url(#clip0_69_11172)">
<g clip-path="url(#clip1_69_11172)">
<mask id="mask0_69_11172" style="mask-type:luminance" maskUnits="userSpaceOnUse" x="0" y="0" width="32" height="24">
<path d="M32 0H0V24H32V0Z" fill="white"/>
</mask>
<g mask="url(#mask0_69_11172)">
<mask id="mask1_69_11172" style="mask-type:luminance" maskUnits="userSpaceOnUse" x="0" y="0" width="32" height="24">
<path d="M0 0H32V24H0V0Z" fill="white"/>
</mask>
<g mask="url(#mask1_69_11172)">
<path fill-rule="evenodd" clip-rule="evenodd" d="M-1 0H35V24H-1V0Z" fill="white"/>
<path fill-rule="evenodd" clip-rule="evenodd" d="M-1 0H35V12H-1V0Z" fill="#DF0000"/>
<path fill-rule="evenodd" clip-rule="evenodd" d="M8.76794 2.54639C8.00911 2.72636 7.32947 3.18897 6.84315 3.85656C6.35683 4.52413 6.09344 5.35604 6.0972 6.21257C6.10096 7.06914 6.37164 7.89818 6.86379 8.56053C7.35594 9.22289 8.03962 9.67823 8.79999 9.85008C8.36441 9.98916 7.90819 10.032 7.45757 9.9761C7.00693 9.92022 6.57073 9.76672 6.17396 9.52437C5.7772 9.28203 5.42769 8.95564 5.14549 8.5639C4.86328 8.17218 4.65392 7.72282 4.52942 7.24163C4.28215 6.27433 4.39198 5.2383 4.83491 4.36013C5.27783 3.48195 6.01782 2.83302 6.89305 2.55523C7.53404 2.35186 8.12696 2.34744 8.77195 2.54639H8.76794Z" fill="white"/>
<path fill-rule="evenodd" clip-rule="evenodd" d="M8.40118 5.81328L8.60414 6.47995L8.06568 6.07106L7.5355 6.48883L7.73017 5.81328L7.2 5.39994L7.85858 5.39105L8.06568 4.72439L8.27278 5.39105H8.92722L8.40118 5.81328ZM9.12603 8.12439L9.33313 8.79551L8.79467 8.38662L8.26035 8.79995L8.45917 8.12884L7.92899 7.71106L8.58757 7.70662L8.79053 7.0355L8.99763 7.70217H9.66035L9.12603 8.12439ZM11.5491 8.10662L11.7521 8.78217L11.2136 8.36884L10.6834 8.78217L10.8781 8.11106L10.3479 7.69773L11.0065 7.68884L11.2136 7.02217L11.4207 7.68884H12.0751L11.5491 8.10662ZM12.2698 5.81328L12.4728 6.48439L11.9343 6.0755L11.4041 6.48883L11.603 5.81772L11.0686 5.39994L11.7314 5.3955L11.9302 4.72439L12.1373 5.39105H12.8L12.2698 5.81328ZM10.3521 4.28884L10.5592 4.96439L10.0207 4.55105L9.48639 4.96883L9.6852 4.29329L9.15503 3.87551L9.80946 3.87106L10.0166 3.19995L10.2237 3.86662H10.8864L10.3521 4.28884Z" fill="white"/>
</g>
</g>
</g>
</g>
<defs>
<clipPath id="clip0_69_11172">
<rect width="24" height="24" rx="12" fill="white"/>
</clipPath>
<clipPath id="clip1_69_11172">
<rect width="24" height="24" fill="white"/>
</clipPath>
</defs>
</svg>
