<svg width="24" height="24" viewBox="0 0 24 24" fill="none" xmlns="http://www.w3.org/2000/svg">
<g clip-path="url(#clip0_69_11250)">
<path fill-rule="evenodd" clip-rule="evenodd" d="M-1.60001 -2.80005H34.4V21.2H-1.60001V-2.80005Z" fill="white"/>
<path fill-rule="evenodd" clip-rule="evenodd" d="M-1.60001 15.2H34.4V25.2H-1.60001V15.2Z" fill="#D50000"/>
<path fill-rule="evenodd" clip-rule="evenodd" d="M-1.64999 9.20117H34.35V15.1988H-1.64999V9.20117Z" fill="#0000BF"/>
<path fill-rule="evenodd" clip-rule="evenodd" d="M8.56057 6.46947C8.41993 8.63511 8.33557 9.82338 8.0086 10.3718C7.65001 10.9625 7.30549 11.3949 5.90977 11.9187C4.51759 11.3949 4.17307 10.9625 3.81445 10.3718C3.484 9.82338 3.40315 8.63511 3.26251 6.46947L3.46642 6.39918C3.88126 6.27261 4.19065 6.17065 4.41916 6.12495C4.7461 6.05464 5.02735 5.97729 5.90626 5.95972C6.78517 5.97378 7.06642 6.05815 7.39336 6.12847C7.61836 6.17768 7.94182 6.2691 8.35315 6.39918L8.56057 6.46947Z" fill="#D50000"/>
<path fill-rule="evenodd" clip-rule="evenodd" d="M8.35432 6.39918C8.2207 8.56128 8.1082 9.55269 7.93243 10.0273C7.59493 10.8429 7.06057 11.2894 5.90743 11.7148C4.75432 11.2894 4.21993 10.8429 3.87892 10.0273C3.70315 9.54918 3.59767 8.56128 3.46408 6.39564C3.87187 6.2691 4.18828 6.17065 4.41682 6.12495C4.74376 6.05464 5.02501 5.97378 5.90392 5.95972C6.78283 5.97378 7.06408 6.05464 7.39102 6.12495C7.71643 6.19903 8.03794 6.28938 8.35432 6.39564V6.39918Z" fill="#0000BF"/>
<path fill-rule="evenodd" clip-rule="evenodd" d="M5.9086 7.06006L5.96134 7.19014L6.20743 7.2253L6.04924 7.32022L6.20041 7.42216L5.97892 7.45732L5.9086 7.57684L5.83828 7.45381L5.62735 7.42567L5.76799 7.32022L5.62033 7.2253L5.85586 7.19014L5.9086 7.06006Z" fill="#FFDF00"/>
<path fill-rule="evenodd" clip-rule="evenodd" d="M7.85391 9.51396L7.71681 9.40848L7.62186 9.24676L7.43202 9.08154L7.33008 8.91631L7.14024 8.74404L7.04883 8.57881L6.94335 8.49795L6.88008 8.43114L6.70431 8.58232L6.6129 8.74756L6.49686 8.85303L6.36681 8.75107L6.27189 8.58232L5.90976 7.93896L5.54766 8.58232L5.45274 8.75107L5.32266 8.85303L5.20665 8.74756L5.11173 8.58232L4.93944 8.43114L4.87266 8.49441L4.77069 8.57881L4.67931 8.74404L4.48944 8.91631L4.3875 9.08154L4.19766 9.24676L4.10274 9.40848L3.96564 9.51396C4.04292 9.99786 4.27188 10.4447 4.61952 10.7901C4.99668 11.1129 5.43399 11.3579 5.90625 11.5108C6.38211 11.3613 6.82236 11.116 7.2 10.7901C7.40391 10.5792 7.78359 10.1116 7.85391 9.51396Z" fill="white"/>
<path fill-rule="evenodd" clip-rule="evenodd" d="M6.48398 6.14951L6.54023 6.27958L6.78632 6.31474L6.62459 6.40966L6.7793 6.51163L6.55781 6.54676L6.48749 6.66631L6.41717 6.54325L6.20624 6.51514L6.34685 6.40966L6.19922 6.31474L6.43124 6.27958L6.48749 6.14951H6.48398ZM5.32382 6.14951L5.38007 6.27958L5.62616 6.31123L5.46797 6.40615L5.61914 6.50809L5.39765 6.54325L5.32733 6.6628L5.25701 6.54325L5.04608 6.51163L5.18672 6.40615L5.03906 6.31123L5.27459 6.27607L5.32733 6.146L5.32382 6.14951Z" fill="#FFDF00"/>
<path fill-rule="evenodd" clip-rule="evenodd" d="M7.55158 10.3368H7.29142L7.04533 10.3192L6.75352 10.1785H6.42307L6.13828 10.3192L5.90977 10.3403L5.68477 10.3192L5.40001 10.1785H5.06602L4.7707 10.3192L4.52812 10.3403L4.26094 10.3368L4.13437 10.1188L4.13791 10.1118L4.53166 10.1785L4.77424 10.161L5.06602 10.0168H5.3965L5.68477 10.1575L5.90977 10.1785L6.13828 10.1575L6.42307 10.0168H6.75352L7.04884 10.1575L7.29142 10.1785L7.6711 10.1082L7.67815 10.1223L7.54807 10.3368H7.55158ZM4.51408 10.6707L4.77424 10.6532L5.06602 10.5125H5.3965L5.68477 10.6532L5.90977 10.6707L6.13477 10.6532L6.42307 10.5125H6.75352L7.04533 10.6532L7.309 10.6707L7.47775 10.4598H7.47424L7.29142 10.509L7.04884 10.4914L6.75703 10.3508H6.42658L6.13828 10.4914L5.91328 10.5125L5.68477 10.4914L5.40001 10.3508H5.06602L4.7707 10.4914L4.52812 10.5125L4.35235 10.4668V10.4739L4.51057 10.6707H4.51408Z" fill="#0000BF"/>
</g>
<defs>
<clipPath id="clip0_69_11250">
<rect width="24" height="24" rx="12" fill="white"/>
</clipPath>
</defs>
</svg>
