<svg width="24" height="24" viewBox="0 0 24 24" fill="none" xmlns="http://www.w3.org/2000/svg">
<g clip-path="url(#clip0_69_11239)">
<path d="M0 3.19995H24V25.2H0V3.19995Z" fill="#EE1C25"/>
<path d="M0 3.19995H24V15.2H0V3.19995Z" fill="#0B4EA2"/>
<path d="M0 -2.80005H24V9.19995H0V-2.80005Z" fill="white"/>
<path d="M8.73657 17.1044C7.12407 16.3282 4.81407 14.7832 4.81407 11.7344C4.81407 8.68193 4.96407 7.29443 4.96407 7.29443H12.5128C12.5128 7.29443 12.6591 8.68193 12.6591 11.7344C12.6591 14.7869 10.3491 16.3244 8.73657 17.1044Z" fill="white"/>
<path d="M8.7375 16.7C7.25625 15.9875 5.1375 14.57 5.1375 11.7725C5.1375 8.97495 5.2725 7.69995 5.2725 7.69995H12.2025C12.2025 7.69995 12.3337 8.97495 12.3337 11.7725C12.3375 14.5737 10.2187 15.9875 8.7375 16.7Z" fill="#EE1C25"/>
<path d="M9.0525 11.0369C9.45375 11.0444 10.2375 11.0594 10.9312 10.8269C10.9312 10.8269 10.9162 11.0781 10.9162 11.3669C10.9162 11.6556 10.935 11.9069 10.935 11.9069C10.2975 11.6931 9.50625 11.6894 9.0525 11.6931V13.2381H8.4225V11.6931C7.9725 11.6894 7.18125 11.6931 6.54375 11.9069C6.54375 11.9069 6.5625 11.6556 6.5625 11.3669C6.5625 11.0744 6.54375 10.8269 6.54375 10.8269C7.2375 11.0594 8.02125 11.0444 8.41875 11.0369V10.0656C8.055 10.0656 7.53 10.0806 6.93375 10.2794C6.93375 10.2794 6.9525 10.0319 6.9525 9.73939C6.9525 9.45064 6.93375 9.19938 6.93375 9.19938C7.53 9.39813 8.055 9.41688 8.41875 9.41313C8.4 8.79813 8.22 8.02563 8.22 8.02563C8.22 8.02563 8.59125 8.05189 8.7375 8.05189C8.8875 8.05189 9.255 8.02563 9.255 8.02563C9.255 8.02563 9.075 8.79813 9.05625 9.41313C9.42 9.41688 9.945 9.39813 10.5412 9.19938C10.5412 9.19938 10.5225 9.45064 10.5225 9.73939C10.5225 10.0319 10.5412 10.2794 10.5412 10.2794C10.0607 10.1244 9.55728 10.0522 9.0525 10.0656V11.0406V11.0369Z" fill="white"/>
<path d="M8.73843 13.0742C7.99218 13.0742 7.59468 14.1055 7.59468 14.1055C7.59468 14.1055 7.36968 13.618 6.76218 13.618C6.34968 13.618 6.04968 13.9817 5.85468 14.323C6.60468 15.5117 7.80093 16.2467 8.73843 16.7005C9.67593 16.2505 10.8759 15.5117 11.6222 14.323C11.4272 13.9855 11.1272 13.618 10.7147 13.618C10.1072 13.618 9.88218 14.1055 9.88218 14.1055C9.88218 14.1055 9.48843 13.0742 8.73843 13.0742Z" fill="#0B4EA2"/>
</g>
<defs>
<clipPath id="clip0_69_11239">
<rect width="24" height="24" rx="12" fill="white"/>
</clipPath>
</defs>
</svg>
