<svg width="24" height="24" viewBox="0 0 24 24" fill="none" xmlns="http://www.w3.org/2000/svg">
<g clip-path="url(#clip0_69_10550)">
<g clip-path="url(#clip1_69_10550)">
<mask id="mask0_69_10550" style="mask-type:luminance" maskUnits="userSpaceOnUse" x="-4" y="0" width="32" height="24">
<path d="M28 0H-4V24H28V0Z" fill="white"/>
</mask>
<g mask="url(#mask0_69_10550)">
<path fill-rule="evenodd" clip-rule="evenodd" d="M-4 12H28V24H-4V12Z" fill="#19B6EF"/>
<path fill-rule="evenodd" clip-rule="evenodd" d="M-4 0H28V12H-4V0Z" fill="white"/>
<path fill-rule="evenodd" clip-rule="evenodd" d="M11.8514 16.9597C14.4814 14.9997 17.3014 10.9997 13.9964 8.88968C13.3814 8.76968 12.6964 8.80468 12.3614 9.06968C12.1864 8.96968 12.0464 8.97968 11.8714 9.16468C11.7464 9.01468 11.6214 8.94468 11.3714 9.01968C11.132 8.89108 10.8694 8.81156 10.599 8.7858C10.3285 8.76004 10.0556 8.78856 9.79636 8.86968C6.90136 10.5897 8.67136 14.6997 11.8514 16.9547V16.9597Z" fill="#FFDD00" stroke="#7D6C00" stroke-width="0.3"/>
<path fill-rule="evenodd" clip-rule="evenodd" d="M16.6986 12.5052C16.6986 12.5052 16.9986 12.1052 17.0086 12.1052C17.3036 11.9352 17.3336 11.7102 17.3336 11.7102C17.6286 11.6202 17.5336 11.3752 17.5586 11.3452C17.6047 11.3 17.6361 11.2419 17.6486 11.1785C17.6611 11.1152 17.6541 11.0495 17.6286 10.9902C17.6286 10.9502 17.7286 10.5702 17.5886 10.5202C17.5936 10.1202 17.3486 10.1552 17.1486 10.4202C16.9386 10.4802 16.8936 10.6552 16.9686 10.8452C16.6936 10.8452 16.6836 11.2452 16.7636 11.4652C16.3986 11.4552 16.5986 11.8652 16.5886 11.8852C16.4686 11.9452 16.6836 12.5252 16.7036 12.5052H16.6986ZM14.3986 15.9152L14.5786 16.0252C14.6186 16.1652 14.7486 16.2552 14.8436 16.2302C14.8936 16.4452 15.1236 16.4152 15.2936 16.2902C15.4286 16.4902 15.5936 16.4902 15.8236 16.4252C16.0236 16.5752 16.2886 16.5102 16.4636 16.3552C16.6486 16.5052 16.7736 16.3952 16.8686 16.2302C17.0186 16.2702 17.1286 16.2452 17.1836 16.1002C17.4686 16.0752 17.3286 15.8052 17.0936 15.6902C17.2786 15.5302 17.4886 15.1902 17.1936 15.1402C17.1036 15.0752 16.9286 15.0902 16.7986 15.1502C16.7636 15.0002 16.5586 14.9652 16.3286 15.1302C16.2536 14.9652 15.9786 15.0452 15.8536 15.1602C15.6886 15.0202 15.4936 15.0202 15.2086 15.1802L14.3986 15.9152ZM14.3986 15.4802C14.4286 15.2902 14.2986 14.9502 14.4986 14.9202C14.4636 14.6052 14.5136 14.2552 14.8736 14.2852C14.9336 13.9902 14.9236 13.7152 15.2636 13.6752C15.2636 13.6752 15.5386 12.7202 15.8236 13.3802C15.9336 13.5752 15.9136 13.8902 15.6886 13.8302C15.7336 14.0652 15.6536 14.2752 15.3936 14.2652C15.5086 14.4352 15.4736 14.6602 15.3436 14.7652L14.3936 15.4802H14.3986ZM16.0536 14.2852L16.3536 14.2252C16.6536 14.0252 16.7786 13.9402 16.9286 14.1652C17.1836 14.1152 17.4286 14.1352 17.4186 14.3352C17.7186 14.3602 17.7186 14.5502 17.6836 14.7052C17.7336 14.9702 17.6136 15.3202 17.4336 14.8952C16.8386 14.5352 16.5036 14.5852 15.5686 14.7952L16.0536 14.2852ZM16.2086 13.9902C16.2186 13.9802 17.0836 13.7552 16.9936 13.4902C17.2386 13.4502 17.2886 13.2052 17.2936 13.2052C17.8086 13.0452 17.7786 12.7502 17.7786 12.7502C17.9236 12.5952 18.1786 12.4352 18.1236 12.1602C18.1386 11.8452 18.1686 11.6502 17.7436 11.8552C17.4286 11.8252 17.3186 12.0052 17.2286 12.2802C17.0786 12.1052 16.8386 12.3852 16.8086 12.6352C16.8086 12.6352 16.4236 13.0152 16.4236 13.0252L16.0986 13.6252L16.2086 13.9902Z" fill="#4FD46B" stroke="#3A9D4F" stroke-width="0.3" stroke-linejoin="round"/>
<path fill-rule="evenodd" clip-rule="evenodd" d="M16.2232 13.3192C16.0182 13.1642 15.9032 12.9742 15.9382 12.7892C15.8032 12.6042 15.7082 12.4942 15.8382 12.3292L15.7382 11.9542C15.4682 11.8542 15.5832 11.6292 15.6532 11.5492C15.5282 11.3742 15.5232 11.1892 15.6432 11.0292C15.6432 10.7042 15.8732 10.8292 16.0582 11.0292C16.0582 11.0292 16.3782 11.2542 16.1432 11.4542C16.3782 11.5392 16.4432 11.7392 16.3132 11.8242C16.5182 11.9142 16.5482 12.0992 16.4382 12.2242C16.6432 12.3842 16.5682 12.5942 16.6282 12.7792L16.2232 13.3192Z" fill="#4FD46B" stroke="#3A9D4F" stroke-width="0.3" stroke-linejoin="round"/>
<path fill-rule="evenodd" clip-rule="evenodd" d="M16.59 11.7993C16.58 11.7943 16.245 11.3643 16.34 11.3343C16.315 11.2043 16.215 11.0593 16.275 10.9293C16.11 10.7593 16.105 10.5643 16.235 10.4093C16.125 10.2593 16.175 10.0543 16.325 9.91934C16.275 9.66934 16.455 9.60934 16.61 9.56434C16.725 9.16434 16.91 9.26435 17.02 9.57435C17.18 9.71435 17.155 9.92435 17.1 10.0843C17.29 10.2093 17.175 10.3693 17.09 10.4343L16.59 11.8043V11.7993Z" fill="#4FD46B" stroke="#3A9D4F" stroke-width="0.3" stroke-linejoin="round"/>
<path fill-rule="evenodd" clip-rule="evenodd" d="M16.5371 9.65466L16.2521 9.36966C16.3271 9.21966 16.3871 8.95466 16.1721 8.82966C16.0521 8.54466 15.4621 8.18466 15.3671 8.86966C15.2771 8.66466 15.0871 8.45966 14.9521 8.69966C14.6421 8.43466 14.4771 8.51466 14.6371 8.84966C14.6371 8.84966 14.4921 9.07466 14.8671 9.24966C14.8971 9.27966 14.7471 9.65466 15.1971 9.66466C15.1121 9.79466 15.2471 9.97466 15.4271 9.96466C15.3021 10.1197 15.5171 10.2897 15.6521 10.2247C15.5971 10.3997 15.6021 10.4847 15.8471 10.5097L16.1221 10.8247L16.3471 11.1297L16.5371 9.65466Z" fill="#4FD46B" stroke="#3A9D4F" stroke-width="0.3" stroke-linejoin="round"/>
<path d="M16.715 12.3248C16.73 12.3098 17.265 11.0848 17.335 10.7148M16.77 10.1498C16.77 10.1498 16.86 11.1498 16.615 11.8798M15.13 9.14479C15.13 9.14479 16.225 10.1948 16.33 10.6298M15.895 9.02979C15.895 9.02979 15.965 9.89479 16.27 10.7448M17.82 12.1648C17.82 12.1648 16.73 13.0898 16.2 13.8998M16.79 15.3998C16.79 15.3998 15.35 15.5998 14.72 15.6148M16.32 16.0148C16.32 16.0148 14.53 15.9748 14.4 15.8448M15.425 13.6948C15.425 13.7148 14.515 15.2098 14.485 15.6948" stroke="#3A9D4F" stroke-width="0.275" stroke-linecap="round"/>
<path fill-rule="evenodd" clip-rule="evenodd" d="M11.8462 16.6703C9.95616 14.8903 8.02116 11.5503 9.94616 9.86026C10.2862 10.0503 10.6912 9.88026 11.2462 9.66026C11.4162 9.84526 11.6312 9.89026 11.8462 9.75026C11.9346 9.7937 12.0348 9.80698 12.1314 9.78798C12.228 9.76902 12.3158 9.7189 12.3812 9.64526C12.9312 9.96026 13.6262 10.1253 13.7912 9.81026C15.6812 11.6103 13.7612 14.9703 11.8412 16.6753L11.8462 16.6703Z" fill="#65C7FF" stroke="#7D6C00" stroke-width="0.3"/>
<path fill-rule="evenodd" clip-rule="evenodd" d="M11.8494 16.6196C10.9871 15.7857 10.272 14.812 9.73436 13.7396C9.83436 13.6546 9.87936 13.6296 9.92936 13.4896C10.2194 13.5296 10.3744 13.5396 10.7544 13.4696C10.8344 13.7596 10.8494 13.9996 11.0294 14.2396L11.4144 13.4896C11.6851 13.5582 11.9686 13.5582 12.2394 13.4896C12.3994 13.6996 12.3394 14.0246 12.6244 14.2696C12.7944 13.7696 12.9594 13.7396 13.1294 13.4696C13.3794 13.5596 13.5394 13.5196 13.7444 13.4546C13.8444 13.5796 13.7944 13.5746 13.9944 13.7546C13.4651 14.8341 12.7394 15.8057 11.8544 16.6196H11.8494Z" fill="#8FC753"/>
<path fill-rule="evenodd" clip-rule="evenodd" d="M9.63064 8.2157C9.63484 8.2401 9.63372 8.26518 9.62724 8.2891C9.62076 8.31302 9.60916 8.33526 9.5932 8.35422C9.57724 8.37318 9.55732 8.38842 9.53488 8.39886C9.5124 8.40934 9.48792 8.41474 9.46312 8.41474C9.43836 8.41474 9.41384 8.40934 9.3914 8.39886C9.36892 8.38842 9.349 8.37318 9.33304 8.35422C9.31708 8.33526 9.30548 8.31302 9.299 8.2891C9.29256 8.26518 9.2914 8.2401 9.29564 8.2157C9.29564 8.17062 9.31352 8.12738 9.3454 8.0955C9.37728 8.06362 9.42052 8.0457 9.46564 8.0457C9.51072 8.0457 9.55396 8.06362 9.58584 8.0955C9.61772 8.12738 9.63564 8.17062 9.63564 8.2157H9.63064ZM9.45564 7.8307C9.46184 7.85574 9.46228 7.8819 9.45688 7.90714C9.45148 7.93238 9.44044 7.95606 9.42452 7.97638C9.40864 7.9967 9.38832 8.01314 9.36512 8.02446C9.34192 8.03574 9.31644 8.04162 9.29064 8.04162C9.2648 8.04162 9.23936 8.03574 9.21616 8.02446C9.19296 8.01314 9.17264 7.9967 9.15672 7.97638C9.14084 7.95606 9.12976 7.93238 9.12436 7.90714C9.119 7.8819 9.1194 7.85574 9.12564 7.8307C9.13248 7.79122 9.15304 7.75546 9.18368 7.72966C9.21432 7.7039 9.25308 7.68974 9.29312 7.68974C9.33316 7.68974 9.37192 7.7039 9.4026 7.72966C9.43324 7.75546 9.4538 7.79122 9.46064 7.8307H9.45564ZM9.25564 7.4757C9.25984 7.5001 9.25872 7.52518 9.25224 7.5491C9.24576 7.57302 9.23416 7.59526 9.2182 7.61422C9.20224 7.63318 9.18232 7.64842 9.15988 7.65886C9.1374 7.66934 9.11292 7.67474 9.08812 7.67474C9.06336 7.67474 9.03884 7.66934 9.0164 7.65886C8.99392 7.64842 8.974 7.63318 8.95804 7.61422C8.94208 7.59526 8.93048 7.57302 8.924 7.5491C8.91756 7.52518 8.9164 7.5001 8.92064 7.4757C8.92748 7.43622 8.94804 7.40046 8.97868 7.37466C9.00932 7.3489 9.04808 7.33474 9.08812 7.33474C9.12816 7.33474 9.16692 7.3489 9.1976 7.37466C9.22824 7.40046 9.2488 7.43622 9.25564 7.4757ZM9.11564 7.1257C9.11984 7.1501 9.11872 7.17518 9.11224 7.1991C9.10576 7.22302 9.09416 7.24526 9.0782 7.26422C9.06224 7.28318 9.04232 7.29842 9.01988 7.30886C8.9974 7.31934 8.97292 7.32474 8.94812 7.32474C8.92336 7.32474 8.89884 7.31934 8.8764 7.30886C8.85392 7.29842 8.834 7.28318 8.81804 7.26422C8.80208 7.24526 8.79048 7.22302 8.784 7.1991C8.77756 7.17518 8.7764 7.1501 8.78064 7.1257C8.78748 7.08622 8.80804 7.05046 8.83868 7.02466C8.86932 6.9989 8.90808 6.98474 8.94812 6.98474C8.98816 6.98474 9.02692 6.9989 9.0576 7.02466C9.08824 7.05046 9.1088 7.08622 9.11564 7.1257ZM9.14064 6.7457C9.14484 6.7701 9.14372 6.79518 9.13724 6.8191C9.13076 6.84302 9.11916 6.86526 9.1032 6.88422C9.08724 6.90318 9.06732 6.91842 9.04488 6.92886C9.0224 6.93934 8.99792 6.94474 8.97312 6.94474C8.94836 6.94474 8.92384 6.93934 8.9014 6.92886C8.87892 6.91842 8.859 6.90318 8.84304 6.88422C8.82708 6.86526 8.81548 6.84302 8.809 6.8191C8.80256 6.79518 8.8014 6.7701 8.80564 6.7457C8.81248 6.70622 8.83304 6.67046 8.86368 6.64466C8.89432 6.6189 8.93308 6.60474 8.97312 6.60474C9.01316 6.60474 9.05192 6.6189 9.0826 6.64466C9.11324 6.67046 9.1338 6.70622 9.14064 6.7457ZM10.0206 6.1207C10.0248 6.1451 10.0237 6.17018 10.0172 6.1941C10.0108 6.21802 9.99916 6.24026 9.9832 6.25922C9.96724 6.27818 9.94732 6.29342 9.92488 6.30386C9.9024 6.31434 9.87792 6.31974 9.85312 6.31974C9.82836 6.31974 9.80384 6.31434 9.7814 6.30386C9.75892 6.29342 9.739 6.27818 9.72304 6.25922C9.70708 6.24026 9.69548 6.21802 9.689 6.1941C9.68256 6.17018 9.6814 6.1451 9.68564 6.1207C9.69248 6.08122 9.71304 6.04546 9.74368 6.01966C9.77432 5.9939 9.81308 5.97974 9.85312 5.97974C9.89316 5.97974 9.93192 5.9939 9.9626 6.01966C9.99324 6.04546 10.0138 6.08122 10.0206 6.1207Z" fill="white" stroke="black" stroke-width="0.1375"/>
<path fill-rule="evenodd" clip-rule="evenodd" d="M9.69 6.17944C9.69424 6.20384 9.69308 6.22888 9.6866 6.25284C9.68016 6.27676 9.66853 6.29896 9.65257 6.31792C9.63661 6.33688 9.61672 6.35212 9.59424 6.3626C9.57176 6.37304 9.54729 6.37848 9.52253 6.37848C9.49773 6.37848 9.47324 6.37304 9.45076 6.3626C9.42828 6.35212 9.4084 6.33688 9.39244 6.31792C9.37648 6.29896 9.36485 6.27676 9.3584 6.25284C9.35193 6.22888 9.35077 6.20384 9.35501 6.17944C9.36185 6.13996 9.38241 6.1042 9.41305 6.0784C9.44369 6.0526 9.48245 6.03848 9.52253 6.03848C9.56257 6.03848 9.60132 6.0526 9.63196 6.0784C9.6626 6.1042 9.68316 6.13996 9.69 6.17944ZM9.32501 6.39444C9.32925 6.41884 9.32809 6.44388 9.32161 6.46784C9.31517 6.49176 9.30352 6.51396 9.28756 6.53292C9.2716 6.55188 9.25173 6.56712 9.22925 6.5776C9.20677 6.58804 9.18228 6.59348 9.15748 6.59348C9.13272 6.59348 9.10825 6.58804 9.08577 6.5776C9.06329 6.56712 9.0434 6.55188 9.02744 6.53292C9.01148 6.51396 8.99985 6.49176 8.99341 6.46784C8.98693 6.44388 8.98576 6.41884 8.99 6.39444C8.99684 6.35496 9.0174 6.3192 9.04804 6.2934C9.07868 6.2676 9.11744 6.25348 9.15748 6.25348C9.19756 6.25348 9.23633 6.2676 9.26697 6.2934C9.29761 6.3192 9.31817 6.35496 9.32501 6.39444ZM10.445 6.12444C10.4512 6.14948 10.4516 6.1756 10.4462 6.20084C10.4409 6.22608 10.4298 6.24976 10.4139 6.27008C10.398 6.29044 10.3777 6.30688 10.3545 6.31816C10.3313 6.32948 10.3058 6.33536 10.28 6.33536C10.2542 6.33536 10.2287 6.32948 10.2055 6.31816C10.1823 6.30688 10.162 6.29044 10.1461 6.27008C10.1302 6.24976 10.1191 6.22608 10.1138 6.20084C10.1084 6.1756 10.1088 6.14948 10.115 6.12444C10.1241 6.08756 10.1454 6.05484 10.1752 6.03144C10.2052 6.00808 10.242 5.99536 10.28 5.99536C10.318 5.99536 10.3548 6.00808 10.3848 6.03144C10.4146 6.05484 10.4358 6.08756 10.445 6.12444ZM10.915 6.16444C10.9192 6.18884 10.9181 6.21388 10.9116 6.2378C10.9052 6.26176 10.8935 6.28396 10.8776 6.30292C10.8616 6.32188 10.8417 6.33712 10.8192 6.3476C10.7968 6.35804 10.7723 6.36348 10.7475 6.36348C10.7227 6.36348 10.6982 6.35804 10.6758 6.3476C10.6533 6.33712 10.6334 6.32188 10.6174 6.30292C10.6015 6.28396 10.5898 6.26176 10.5834 6.2378C10.5769 6.21388 10.5758 6.18884 10.58 6.16444C10.5868 6.12496 10.6074 6.0892 10.638 6.0634C10.6687 6.0376 10.7074 6.02348 10.7475 6.02348C10.7876 6.02348 10.8263 6.0376 10.857 6.0634C10.8876 6.0892 10.9082 6.12496 10.915 6.16444ZM11.325 6.13944C11.3312 6.16448 11.3316 6.1906 11.3262 6.21584C11.3209 6.24108 11.3098 6.26476 11.2939 6.28508C11.278 6.30544 11.2577 6.32188 11.2345 6.33316C11.2113 6.34448 11.1858 6.35036 11.16 6.35036C11.1342 6.35036 11.1087 6.34448 11.0855 6.33316C11.0623 6.32188 11.042 6.30544 11.0261 6.28508C11.0102 6.26476 10.9991 6.24108 10.9938 6.21584C10.9884 6.1906 10.9888 6.16448 10.995 6.13944C11.0018 6.09996 11.0224 6.0642 11.053 6.0384C11.0837 6.0126 11.1224 5.99848 11.1625 5.99848C11.2026 5.99848 11.2413 6.0126 11.272 6.0384C11.3026 6.0642 11.3232 6.09996 11.33 6.13944H11.325Z" fill="white" stroke="black" stroke-width="0.1375"/>
<path fill-rule="evenodd" clip-rule="evenodd" d="M12.2944 5.87531C12.2944 5.98935 12.2491 6.09871 12.1684 6.17935C12.0878 6.25999 11.9784 6.30531 11.8644 6.30531C11.7503 6.30531 11.641 6.25999 11.5603 6.17935C11.4797 6.09871 11.4344 5.98935 11.4344 5.87531C11.4344 5.76127 11.4797 5.65187 11.5603 5.57123C11.641 5.49059 11.7503 5.44531 11.8644 5.44531C11.9784 5.44531 12.0878 5.49059 12.1684 5.57123C12.2491 5.65187 12.2944 5.76127 12.2944 5.87531Z" fill="#FFDD00" stroke="#7D6C00" stroke-width="0.1375"/>
<path fill-rule="evenodd" clip-rule="evenodd" d="M12.7494 6.13461C12.7494 6.17969 12.7315 6.22293 12.6996 6.25481C12.6677 6.28669 12.6245 6.30461 12.5794 6.30461C12.5343 6.30461 12.491 6.28669 12.4592 6.25481C12.4273 6.22293 12.4094 6.17969 12.4094 6.13461C12.4162 6.09513 12.4368 6.05937 12.4674 6.03357C12.4981 6.00777 12.5368 5.99365 12.5769 5.99365C12.6169 5.99365 12.6557 6.00777 12.6863 6.03357C12.717 6.05937 12.7375 6.09513 12.7444 6.13461H12.7494ZM13.1794 6.16961C13.1856 6.19465 13.186 6.22077 13.1806 6.24601C13.1752 6.27125 13.1642 6.29493 13.1483 6.31525C13.1324 6.33561 13.112 6.35205 13.0888 6.36333C13.0656 6.37465 13.0402 6.38053 13.0144 6.38053C12.9886 6.38053 12.9631 6.37465 12.9399 6.36333C12.9167 6.35205 12.8964 6.33561 12.8805 6.31525C12.8646 6.29493 12.8535 6.27125 12.8481 6.24601C12.8427 6.22077 12.8432 6.19465 12.8494 6.16961C12.8562 6.13013 12.8768 6.09437 12.9074 6.06857C12.9381 6.04277 12.9768 6.02865 13.0169 6.02865C13.0569 6.02865 13.0957 6.04277 13.1263 6.06857C13.157 6.09437 13.1775 6.13013 13.1844 6.16961H13.1794ZM13.6044 6.14961C13.6086 6.17401 13.6074 6.19905 13.601 6.22297C13.5945 6.24693 13.5829 6.26913 13.567 6.28809C13.551 6.30705 13.5311 6.32229 13.5086 6.33277C13.4862 6.34321 13.4616 6.34865 13.4369 6.34865C13.4121 6.34865 13.3876 6.34321 13.3651 6.33277C13.3427 6.32229 13.3228 6.30705 13.3068 6.28809C13.2908 6.26913 13.2792 6.24693 13.2728 6.22297C13.2663 6.19905 13.2651 6.17401 13.2694 6.14961C13.2762 6.11013 13.2968 6.07437 13.3274 6.04857C13.3581 6.02277 13.3968 6.00865 13.4369 6.00865C13.4769 6.00865 13.5157 6.02277 13.5463 6.04857C13.577 6.07437 13.5975 6.11013 13.6044 6.14961ZM13.9594 6.13461C13.9636 6.15901 13.9624 6.18405 13.956 6.20797C13.9495 6.23193 13.9379 6.25413 13.922 6.27309C13.906 6.29205 13.8861 6.30729 13.8636 6.31777C13.8412 6.32821 13.8166 6.33365 13.7919 6.33365C13.7671 6.33365 13.7426 6.32821 13.7201 6.31777C13.6977 6.30729 13.6778 6.29205 13.6618 6.27309C13.6458 6.25413 13.6342 6.23193 13.6278 6.20797C13.6213 6.18405 13.6201 6.15901 13.6244 6.13461C13.6312 6.09513 13.6518 6.05937 13.6824 6.03357C13.7131 6.00777 13.7518 5.99365 13.7919 5.99365C13.8319 5.99365 13.8707 6.00777 13.9013 6.03357C13.932 6.05937 13.9525 6.09513 13.9594 6.13461ZM14.4044 6.18461C14.4086 6.20901 14.4074 6.23405 14.401 6.25797C14.3945 6.28193 14.3829 6.30413 14.367 6.32309C14.351 6.34205 14.3311 6.35729 14.3086 6.36777C14.2862 6.37821 14.2616 6.38365 14.2369 6.38365C14.2121 6.38365 14.1876 6.37821 14.1651 6.36777C14.1427 6.35729 14.1228 6.34205 14.1068 6.32309C14.0908 6.30413 14.0792 6.28193 14.0728 6.25797C14.0663 6.23405 14.0651 6.20901 14.0694 6.18461C14.0762 6.14513 14.0968 6.10937 14.1274 6.08357C14.1581 6.05777 14.1968 6.04365 14.2369 6.04365C14.2769 6.04365 14.3157 6.05777 14.3463 6.08357C14.377 6.10937 14.3975 6.14513 14.4044 6.18461ZM14.7544 6.40461C14.7586 6.42901 14.7574 6.45405 14.751 6.47797C14.7445 6.50193 14.7329 6.52413 14.717 6.54309C14.701 6.56205 14.6811 6.57729 14.6586 6.58777C14.6362 6.59821 14.6116 6.60365 14.5869 6.60365C14.5621 6.60365 14.5376 6.59821 14.5151 6.58777C14.4927 6.57729 14.4728 6.56205 14.4568 6.54309C14.4408 6.52413 14.4292 6.50193 14.4228 6.47797C14.4163 6.45405 14.4151 6.42901 14.4194 6.40461C14.4262 6.36513 14.4468 6.32937 14.4774 6.30357C14.5081 6.27777 14.5468 6.26365 14.5869 6.26365C14.6269 6.26365 14.6657 6.27777 14.6963 6.30357C14.727 6.32937 14.7475 6.36513 14.7544 6.40461Z" fill="white" stroke="black" stroke-width="0.1375"/>
<path fill-rule="evenodd" clip-rule="evenodd" d="M9.46877 7.58558L9.89876 8.41058H13.8588L14.3188 7.61558C14.0488 7.43058 13.8688 7.29058 13.4838 7.37558C13.2688 7.06558 13.0338 7.01058 12.6838 7.04058C12.5788 6.93558 12.4838 6.87058 12.3038 6.84058L11.4738 6.86558C11.2538 6.88558 11.0838 7.05558 11.0738 7.05558C10.7238 7.01058 10.3988 7.02058 10.3138 7.36558C9.98876 7.28558 9.76377 7.37558 9.46877 7.58558Z" fill="#E40000" stroke="#AC0000" stroke-width="0.3"/>
<path fill-rule="evenodd" clip-rule="evenodd" d="M14.9012 6.7645C14.9055 6.7889 14.9043 6.81394 14.8979 6.8379C14.8914 6.86182 14.8798 6.88402 14.8638 6.90298C14.8479 6.92194 14.828 6.93722 14.8055 6.94766C14.783 6.9581 14.7585 6.96354 14.7338 6.96354C14.709 6.96354 14.6845 6.9581 14.662 6.94766C14.6396 6.93722 14.6196 6.92194 14.6037 6.90298C14.5877 6.88402 14.5761 6.86182 14.5696 6.8379C14.5632 6.81394 14.562 6.7889 14.5662 6.7645C14.5731 6.72502 14.5936 6.68926 14.6243 6.66346C14.6549 6.63766 14.6937 6.62354 14.7338 6.62354C14.7738 6.62354 14.8126 6.63766 14.8432 6.66346C14.8738 6.68926 14.8944 6.72502 14.9012 6.7645ZM14.9312 7.1645C14.9355 7.1889 14.9343 7.21394 14.9279 7.2379C14.9214 7.26182 14.9098 7.28402 14.8938 7.30298C14.8779 7.32194 14.858 7.33722 14.8355 7.34766C14.813 7.3581 14.7885 7.36354 14.7638 7.36354C14.739 7.36354 14.7145 7.3581 14.692 7.34766C14.6696 7.33722 14.6496 7.32194 14.6337 7.30298C14.6177 7.28402 14.6061 7.26182 14.5996 7.2379C14.5932 7.21394 14.592 7.1889 14.5962 7.1645C14.6031 7.12502 14.6236 7.08926 14.6543 7.06346C14.6849 7.03766 14.7237 7.02354 14.7638 7.02354C14.8038 7.02354 14.8426 7.03766 14.8732 7.06346C14.9038 7.08926 14.9244 7.12502 14.9312 7.1645ZM14.8062 7.5245C14.8105 7.5489 14.8093 7.57394 14.8029 7.5979C14.7964 7.62182 14.7848 7.64402 14.7688 7.66298C14.7529 7.68194 14.733 7.69722 14.7105 7.70766C14.688 7.7181 14.6635 7.72354 14.6388 7.72354C14.614 7.72354 14.5895 7.7181 14.567 7.70766C14.5446 7.69722 14.5246 7.68194 14.5087 7.66298C14.4927 7.64402 14.4811 7.62182 14.4746 7.5979C14.4682 7.57394 14.467 7.5489 14.4712 7.5245C14.4781 7.48502 14.4986 7.44926 14.5293 7.42346C14.5599 7.39766 14.5987 7.38354 14.6388 7.38354C14.6788 7.38354 14.7176 7.39766 14.7482 7.42346C14.7788 7.44926 14.7994 7.48502 14.8062 7.5245ZM14.6562 7.8245C14.6562 7.86958 14.6383 7.91282 14.6064 7.9447C14.5746 7.97658 14.5313 7.9945 14.4862 7.9945C14.4412 7.9945 14.3979 7.97658 14.366 7.9447C14.3342 7.91282 14.3162 7.86958 14.3162 7.8245C14.3231 7.78502 14.3436 7.74926 14.3743 7.72346C14.4049 7.69766 14.4437 7.68353 14.4838 7.68353C14.5238 7.68353 14.5626 7.69766 14.5932 7.72346C14.6238 7.74926 14.6444 7.78502 14.6512 7.8245H14.6562ZM14.4712 8.1995C14.4755 8.2239 14.4743 8.24894 14.4679 8.2729C14.4614 8.29682 14.4498 8.31902 14.4338 8.33798C14.4179 8.35694 14.398 8.37222 14.3755 8.38266C14.353 8.3931 14.3285 8.39854 14.3038 8.39854C14.279 8.39854 14.2545 8.3931 14.232 8.38266C14.2096 8.37222 14.1896 8.35694 14.1737 8.33798C14.1577 8.31902 14.1461 8.29682 14.1396 8.2729C14.1332 8.24894 14.132 8.2239 14.1362 8.1995C14.1431 8.16002 14.1636 8.12426 14.1943 8.09846C14.2249 8.07266 14.2637 8.05853 14.3038 8.05853C14.3438 8.05853 14.3826 8.07266 14.4132 8.09846C14.4438 8.12426 14.4644 8.16002 14.4712 8.1995ZM12.1312 7.7195C12.1312 7.78578 12.1049 7.84938 12.058 7.89626C12.0112 7.94314 11.9476 7.9695 11.8812 7.9695C11.815 7.9695 11.7514 7.94314 11.7045 7.89626C11.6576 7.84938 11.6312 7.78578 11.6312 7.7195C11.6312 7.65318 11.6576 7.58958 11.7045 7.5427C11.7514 7.49582 11.815 7.4695 11.8812 7.4695C11.9476 7.4695 12.0112 7.49582 12.058 7.5427C12.1049 7.58958 12.1312 7.65318 12.1312 7.7195Z" fill="white" stroke="black" stroke-width="0.1375"/>
<path fill-rule="evenodd" clip-rule="evenodd" d="M12.1812 7.1501C12.1812 7.22966 12.1496 7.30598 12.0934 7.36222C12.0371 7.4185 11.9608 7.4501 11.8812 7.4501C11.8017 7.4501 11.7254 7.4185 11.6691 7.36222C11.6128 7.30598 11.5812 7.22966 11.5812 7.1501C11.5812 7.07054 11.6128 6.99422 11.6691 6.93798C11.7254 6.8817 11.8017 6.8501 11.8812 6.8501C11.9608 6.8501 12.0371 6.8817 12.0934 6.93798C12.1496 6.99422 12.1812 7.07054 12.1812 7.1501Z" fill="white" stroke="black" stroke-width="0.1375"/>
<path fill-rule="evenodd" clip-rule="evenodd" d="M12.1338 6.59959C12.1338 6.67119 12.1053 6.73987 12.0547 6.79051C12.004 6.84115 11.9354 6.86959 11.8638 6.86959C11.7922 6.86959 11.7235 6.84115 11.6728 6.79051C11.6222 6.73987 11.5938 6.67119 11.5938 6.59959C11.5938 6.52799 11.6222 6.45931 11.6728 6.40867C11.7235 6.35803 11.7922 6.32959 11.8638 6.32959C11.9354 6.32959 12.004 6.35803 12.0547 6.40867C12.1053 6.45931 12.1338 6.52799 12.1338 6.59959Z" fill="white" stroke="black" stroke-width="0.1375"/>
<path fill-rule="evenodd" clip-rule="evenodd" d="M11.7738 5.44933V5.23933L11.5938 5.23433L11.6038 5.07433H11.7538V4.93433H11.9788V5.05933H12.1538L12.1488 5.22933H11.9688V5.45433H11.7688L11.7738 5.44933Z" fill="#FFDD00" stroke="#7D6C00" stroke-width="0.1375"/>
<path d="M9.8796 8.41026C9.5246 7.81026 8.9996 6.99026 9.3296 6.63526C9.7746 6.13026 10.8246 6.58526 11.4946 6.29526C11.5446 6.86526 11.3846 7.81526 11.6396 8.01026L11.3996 8.22026C11.2496 8.03526 10.9796 7.78026 10.6396 8.23026C10.4396 8.06026 10.2246 8.09026 10.1196 8.31526C10.0196 8.33026 10.0246 8.37026 9.8796 8.41026ZM13.8796 8.38526C14.2396 7.78526 14.7596 6.97026 14.4346 6.61526C13.9846 6.11026 12.9346 6.56526 12.2696 6.27026C12.2196 6.84526 12.3796 7.79526 12.1196 7.99026L12.3596 8.20026C12.5946 7.87526 12.8796 7.86526 13.1246 8.21026C13.3196 8.04026 13.5196 8.06026 13.6446 8.29526C13.7446 8.31026 13.7346 8.34526 13.8846 8.38526H13.8796Z" stroke="#FFDD00" stroke-width="0.4125"/>
<path fill-rule="evenodd" clip-rule="evenodd" d="M9.86437 8.85483C11.1833 8.73467 12.5104 8.73467 13.8294 8.85483L13.9844 8.40483C12.5994 8.15483 11.6444 8.12483 9.83437 8.37483L9.86437 8.85483Z" fill="#FFDD00" stroke="#7D6C00" stroke-width="0.3"/>
<path fill-rule="evenodd" clip-rule="evenodd" d="M11.7062 16.4694L11.7362 16.2594C11.8812 16.2994 11.9862 16.2844 12.1062 16.2394L12.2262 16.0544L12.1362 15.9494C12.0562 15.9644 11.9862 16.0394 11.9362 16.1044C11.8562 16.1094 11.7862 16.0694 11.7062 16.0544L11.6312 15.7344C11.5562 15.6444 11.3962 15.6494 11.4312 15.8094L11.4462 15.9344C11.4762 16.0094 11.4912 16.1144 11.5412 16.1694V16.2994L11.7062 16.4694ZM11.7662 15.5544C11.6662 15.6044 11.5362 15.5144 11.4012 15.4594C11.2762 15.4544 11.1812 15.5594 11.0312 15.5244C11.0612 15.4444 11.1262 15.4294 11.1712 15.3844C11.1362 15.1794 11.2462 15.1094 11.2762 15.1094C11.3062 15.1094 11.4312 15.1394 11.4312 15.1394L11.5512 15.1544C11.6262 15.2894 11.7262 15.4044 11.7662 15.5544Z" fill="#C76E2E"/>
<path fill-rule="evenodd" clip-rule="evenodd" d="M11.0388 18.3006C11.3888 17.7306 13.8488 16.5806 16.1588 14.0906C13.8088 16.3556 12.3388 16.9106 10.4188 18.2906L11.0388 18.3056V18.3006Z" fill="#FFE100" stroke="#E9BF00" stroke-width="0.3"/>
<path fill-rule="evenodd" clip-rule="evenodd" d="M14.4194 15.6608C14.4194 15.7086 14.4004 15.7543 14.3666 15.7881C14.3329 15.8218 14.2871 15.8408 14.2394 15.8408C14.1916 15.8408 14.1458 15.8218 14.1121 15.7881C14.0783 15.7543 14.0594 15.7086 14.0594 15.6608C14.0594 15.6131 14.0783 15.5673 14.1121 15.5335C14.1458 15.4998 14.1916 15.4808 14.2394 15.4808C14.2871 15.4808 14.3329 15.4998 14.3666 15.5335C14.4004 15.5673 14.4194 15.6131 14.4194 15.6608ZM16.1394 13.9158C16.1394 13.9695 16.118 14.021 16.0801 14.059C16.0421 14.097 15.9906 14.1183 15.9369 14.1183C15.8832 14.1183 15.8317 14.097 15.7937 14.059C15.7557 14.021 15.7344 13.9695 15.7344 13.9158C15.7344 13.8628 15.7554 13.8119 15.793 13.7744C15.8305 13.7369 15.8813 13.7158 15.9344 13.7158C15.9874 13.7158 16.0383 13.7369 16.0758 13.7744C16.1133 13.8119 16.1344 13.8628 16.1344 13.9158H16.1394ZM16.7094 12.4358C16.7137 12.4616 16.7124 12.488 16.7055 12.5133C16.6986 12.5385 16.6862 12.562 16.6693 12.5819C16.6524 12.6019 16.6314 12.618 16.6076 12.629C16.5839 12.64 16.558 12.6457 16.5319 12.6457C16.5057 12.6457 16.4798 12.64 16.4561 12.629C16.4324 12.618 16.4113 12.6019 16.3944 12.5819C16.3775 12.562 16.3652 12.5385 16.3583 12.5133C16.3514 12.488 16.35 12.4616 16.3544 12.4358C16.3614 12.3938 16.3832 12.3558 16.4156 12.3283C16.4481 12.3008 16.4893 12.2857 16.5319 12.2857C16.5744 12.2857 16.6156 12.3008 16.6481 12.3283C16.6806 12.3558 16.7023 12.3938 16.7094 12.4358ZM16.1494 10.5158C16.1537 10.5416 16.1524 10.568 16.1455 10.5933C16.1386 10.6185 16.1262 10.642 16.1093 10.6619C16.0924 10.6819 16.0714 10.698 16.0476 10.709C16.0239 10.72 15.998 10.7257 15.9719 10.7257C15.9457 10.7257 15.9198 10.72 15.8961 10.709C15.8724 10.698 15.8513 10.6819 15.8344 10.6619C15.8175 10.642 15.8052 10.6185 15.7983 10.5933C15.7914 10.568 15.79 10.5416 15.7944 10.5158C15.8014 10.4738 15.8232 10.4358 15.8556 10.4083C15.8881 10.3808 15.9293 10.3657 15.9719 10.3657C16.0144 10.3657 16.0556 10.3808 16.0881 10.4083C16.1206 10.4358 16.1423 10.4738 16.1494 10.5158Z" fill="#9D4916" stroke="#68300E" stroke-width="0.1375"/>
<path fill-rule="evenodd" clip-rule="evenodd" d="M9.95624 13.4798V12.7198L9.88124 12.6598V12.4798L10.0212 12.4648L10.0462 11.6148L9.95624 11.5648L9.94624 11.4248C9.94624 11.4248 10.0462 11.4648 10.0462 11.4398L10.0712 11.2698C10.0712 11.2698 10.0062 11.2598 10.0062 11.2348C10.0062 11.2098 10.0862 11.1448 10.0862 11.1448C10.0862 11.1448 10.0462 11.1048 10.0362 11.0798L9.99624 10.9398L10.0362 10.7948L10.0112 10.7198L9.94624 10.6048L10.0362 10.5148L10.0112 10.3748C10.0281 10.3227 10.0535 10.2737 10.0862 10.2298C10.1012 10.2198 10.2012 10.0798 10.2012 10.0798L10.4212 10.0298L10.6762 10.0648L10.8162 10.1548L10.8412 10.3848C10.8412 10.3848 10.8162 10.5248 10.8062 10.5248L10.6912 10.5748C10.6912 10.5748 10.5612 10.5898 10.5462 10.5748C10.5312 10.5598 10.5862 10.7348 10.5862 10.7348V10.8848L10.5762 11.0798C10.5762 11.0798 10.5762 11.1698 10.5612 11.1798C10.5462 11.1898 10.5212 11.2298 10.5212 11.2298L10.5112 11.4298L10.7112 11.4798L10.7012 11.5948L10.5612 11.6048L10.5862 12.3898L10.7912 12.4248V12.6448L10.7012 12.6948L10.6762 13.4798H9.95624ZM13.0762 13.4948V12.7348L13.0012 12.6698V12.4898L13.1412 12.4798L13.1662 11.6298L13.0762 11.5798L13.0662 11.4398C13.0662 11.4398 13.1662 11.4748 13.1662 11.4498L13.1912 11.2848C13.1912 11.2848 13.1262 11.2698 13.1262 11.2448C13.1262 11.2198 13.2062 11.1548 13.2062 11.1548C13.2062 11.1548 13.1662 11.1198 13.1562 11.0898L13.1162 10.9498L13.1562 10.8098L13.1262 10.7348L13.0662 10.6198L13.1562 10.5298L13.1262 10.3848C13.1452 10.3341 13.1722 10.2868 13.2062 10.2448L13.3212 10.0948L13.5412 10.0398L13.7962 10.0798L13.9362 10.1698L13.9612 10.3998C13.9612 10.3998 13.9362 10.5398 13.9262 10.5398L13.8112 10.5898C13.8112 10.5898 13.6812 10.6048 13.6662 10.5898C13.6512 10.5748 13.7062 10.7448 13.7062 10.7448V10.8998L13.6912 11.0948C13.6912 11.0948 13.6912 11.1798 13.6812 11.1948L13.6412 11.2448L13.6312 11.4398L13.8312 11.4898L13.8212 11.6048L13.6812 11.6198L13.7062 12.3998L13.9112 12.4398V12.6598L13.8212 12.7098L13.7962 13.4948H13.0762ZM11.4962 13.5198V12.7598L11.4212 12.6998V12.5148L11.5612 12.5048L11.5862 11.6548L11.4962 11.6048L11.4862 11.4648C11.4862 11.4648 11.5862 11.5048 11.5862 11.4798L11.6112 11.3098C11.6112 11.3098 11.5512 11.2998 11.5512 11.2748C11.5512 11.2498 11.6262 11.1798 11.6262 11.1798C11.6262 11.1798 11.5862 11.1448 11.5762 11.1198L11.5362 10.9748L11.5762 10.8348L11.5512 10.7598L11.4862 10.6448L11.5762 10.5548L11.5512 10.4098C11.5678 10.3591 11.5932 10.3116 11.6262 10.2698C11.6412 10.2598 11.7412 10.1198 11.7412 10.1198L11.9612 10.0698L12.2162 10.1048L12.3562 10.1948L12.3862 10.4248C12.3862 10.4248 12.3562 10.5648 12.3462 10.5648L12.2312 10.6148C12.2312 10.6148 12.1012 10.6298 12.0912 10.6148C12.0812 10.5998 12.1262 10.7698 12.1262 10.7698V10.9248L12.1162 11.1198C12.1162 11.1198 12.1162 11.2098 12.1012 11.2198L12.0612 11.2698L12.0512 11.4648L12.2512 11.5148L12.2412 11.6298L12.1012 11.6448L12.1262 12.4298L12.3312 12.4648V12.6848L12.2412 12.7348L12.2162 13.5198H11.5012H11.4962Z" fill="white" stroke="#A9A9A9" stroke-width="0.1375"/>
<path fill-rule="evenodd" clip-rule="evenodd" d="M10.1488 13.4745V12.8745H10.4788V13.4995L10.1438 13.4745H10.1488ZM11.7188 13.5245L11.7338 12.9145H12.0338V13.5095L11.7188 13.5195V13.5245ZM13.2688 13.5095L13.2488 12.9345L13.5738 12.9245V13.5245L13.2738 13.5095H13.2688ZM10.2288 11.7095H10.4188V12.0145H10.2288V11.7095ZM11.7438 11.7195H12.0088V12.0195H11.7438V11.7195ZM13.2938 11.7445H13.5238V12.0295H13.2988L13.2938 11.7445Z" fill="black"/>
<path d="M10.3312 10.3501C10.5312 10.5801 10.5462 10.5801 10.5462 10.5801M11.8562 10.3501C11.8962 10.4251 11.9562 10.5901 12.0362 10.6051M13.5012 10.3851C13.5012 10.3851 13.5662 10.5651 13.6512 10.5901" stroke="#A8A8A8" stroke-width="0.1375"/>
<path fill-rule="evenodd" clip-rule="evenodd" d="M10.1106 9.70027C10.7106 9.50527 9.97056 9.12027 9.84556 9.70027C9.65556 9.73527 9.63056 9.87527 9.21056 9.81527C8.19056 11.4653 8.94556 14.1403 11.9156 16.9053C6.59556 12.3753 8.75556 9.02527 10.2306 9.15527C11.0306 9.20527 10.6306 10.2053 10.1106 9.70527V9.70027Z" fill="#B97700"/>
<path d="M10.2812 8.85067C10.2812 8.85067 10.7662 8.98567 10.7662 9.19067M10.7662 8.81567C10.7662 8.81567 11.1062 8.96567 11.1812 9.09567M13.4362 8.87067C13.4362 8.87067 13.0062 8.93067 12.9112 9.06067M12.7812 8.91067C12.7812 8.91067 12.5312 9.11567 12.5562 9.17567M12.7262 9.81067C12.6862 9.79567 12.5162 9.56567 12.5562 9.28567M11.0662 9.66067C11.0662 9.66067 11.1812 9.53067 11.1812 9.28567M11.8562 9.19067L11.8762 9.74067M12.3462 9.66067C12.3462 9.62567 12.4962 9.26567 12.3262 9.09567M11.3112 9.02067C11.3112 9.02067 11.1812 9.38067 11.2762 9.68067M12.2762 9.34067C12.2762 9.34067 12.0662 9.40067 11.9762 9.49067M11.3862 9.39567C11.3862 9.38067 11.6162 9.34567 11.6862 9.47567" stroke="#7D6C00" stroke-width="0.3"/>
<path fill-rule="evenodd" clip-rule="evenodd" d="M11.0306 15.0948C11.0406 15.0948 11.2206 15.0598 11.2206 14.9748C11.3106 14.9148 11.2456 14.7498 11.2456 14.7498L11.0756 14.7198L10.8456 14.4598C10.8356 14.3798 10.8606 14.3048 10.8106 14.2198C10.6506 14.2598 10.5606 14.3948 10.5106 14.5448C10.5456 14.5948 10.5506 14.6448 10.6256 14.6898C10.7006 14.6998 10.7506 14.6548 10.8206 14.6698C10.8556 14.7348 10.8456 14.7898 10.8606 14.8498C10.9556 14.9148 10.9756 15.0098 11.0306 15.0948ZM10.8256 13.9848V13.6748L10.6056 13.6648C10.5756 13.7148 10.5256 13.7348 10.4956 13.7748L10.3406 13.8548C10.4056 13.9298 10.4856 13.9748 10.5306 14.0148C10.6456 14.0448 10.7356 14.0448 10.8256 13.9848ZM10.1356 14.4398L10.0156 14.2398C10.0934 14.2183 10.1762 14.2236 10.2506 14.2548C10.2506 14.2548 10.3006 14.3798 10.2656 14.4248C10.2456 14.4698 10.1306 14.4498 10.1356 14.4398ZM11.9606 14.6448C11.9948 14.6302 12.0249 14.6076 12.0484 14.5789C12.0719 14.5501 12.0881 14.5161 12.0956 14.4798L11.8706 14.2248L11.6706 14.2198C11.6206 14.1698 11.5506 14.1598 11.4906 14.1598C11.4906 14.1598 11.5506 14.2598 11.6306 14.2748C11.6906 14.4048 11.9406 14.6448 11.9606 14.6448ZM12.1756 14.6748C12.1756 14.6698 12.3756 14.6048 12.4756 14.6098C12.4706 14.5298 12.6256 14.3448 12.6256 14.3448L12.9056 14.7098C12.8556 14.7498 12.7656 14.7398 12.6956 14.7498C12.6956 14.7498 12.5606 14.8798 12.5456 14.8848C12.5306 14.8898 12.2856 14.9498 12.1656 14.8748C12.1156 14.7748 12.1806 14.6598 12.1756 14.6748ZM12.3356 14.0348C12.3707 13.9105 12.3707 13.779 12.3356 13.6548H12.0156L11.8056 13.7548C11.8056 13.7548 11.8706 13.9648 11.9556 13.9448C11.9906 14.0498 12.1006 14.0248 12.1556 14.0648L12.3356 14.0348ZM13.5806 13.7148C13.5306 13.8498 13.5106 13.9898 13.5706 14.1148C13.6306 14.1298 13.7006 14.1648 13.7506 14.1548L14.0056 13.6948C13.8306 13.6398 13.6856 13.6448 13.5756 13.7148H13.5806Z" fill="#C76E2E"/>
<path fill-rule="evenodd" clip-rule="evenodd" d="M13.655 9.65959C13.055 9.46459 13.795 9.07459 13.92 9.65959C14.115 9.68959 14.14 9.83459 14.56 9.77459C15.575 11.4246 14.82 14.0996 11.85 16.8646C17.175 12.3346 15.01 8.98459 13.535 9.10959C12.735 9.15959 13.135 10.1596 13.655 9.65959Z" fill="#B97700"/>
<path fill-rule="evenodd" clip-rule="evenodd" d="M13.7165 14.2343C13.7065 14.2343 13.5665 14.3343 13.5665 14.3343L13.3565 14.4193L13.1365 14.4243L13.0865 14.2743L13.2565 14.1243C13.1165 14.0993 12.9715 14.1593 12.8565 14.2643C12.8565 14.2643 12.8565 14.4293 12.9565 14.5143C13.0115 14.5843 13.1815 14.7143 13.1815 14.7143C13.2276 14.7246 13.2752 14.7255 13.3216 14.7169C13.368 14.7083 13.4122 14.6904 13.4515 14.6643L13.7165 14.2343ZM12.5565 15.7393C12.6265 15.7593 13.1215 15.1043 13.1215 15.1043C13.0768 14.9867 12.9893 14.8903 12.8765 14.8343C12.8765 14.8343 12.6365 15.1193 12.6315 15.2143C12.5915 15.2993 12.4815 15.6293 12.5315 15.6743C12.5265 15.6843 12.5065 15.8193 12.5565 15.7393Z" fill="#C76E2E"/>
<path fill-rule="evenodd" clip-rule="evenodd" d="M9.31936 15.8702C8.57936 15.2252 7.57936 14.8702 6.18436 15.3552C6.55936 15.5152 6.96436 15.5702 7.30936 15.7502L9.31936 15.8702Z" fill="#006800" stroke="#004100" stroke-width="0.3" stroke-linejoin="round"/>
<path d="M7.16876 15.4155C8.63376 15.4455 9.05876 15.8105 8.98376 15.7505" stroke="#00A400" stroke-width="0.275" stroke-linecap="round"/>
<path fill-rule="evenodd" clip-rule="evenodd" d="M9.35063 15.9493C8.91063 16.0293 8.31063 16.4493 8.13063 16.4343C7.65563 16.3793 7.20563 16.1843 6.74563 16.0343C6.55563 15.9743 6.36063 16.0343 6.16563 16.0343C7.80563 15.2593 8.36563 15.3643 9.35063 15.9443V15.9493Z" fill="#006800" stroke="#004100" stroke-width="0.275" stroke-linejoin="round"/>
<path fill-rule="evenodd" clip-rule="evenodd" d="M8.26935 14.7999C8.26935 14.7999 7.71935 14.8799 7.47435 14.8949C7.23435 14.8799 6.87435 14.6549 6.48435 14.2449C6.28435 14.0149 5.81435 14.0449 5.81435 14.0449C6.84435 13.8249 7.64935 14.0349 8.26435 14.8049L8.26935 14.7999ZM7.51935 13.7399C6.77435 13.6899 5.84435 13.0249 5.63435 12.2299C5.63435 12.2399 5.90935 12.4049 5.86435 12.4449C7.08435 12.7549 7.16435 13.0049 7.51935 13.7399ZM8.76935 15.0149C8.87435 14.3399 8.90435 13.8949 8.58935 13.4949C8.32435 13.1949 8.25935 13.0099 8.06935 12.5799C8.01435 13.4699 7.81935 14.2049 8.76935 15.0149ZM7.59935 13.1499C8.14935 12.3449 8.24935 11.7349 8.15935 10.7749C8.14435 10.8499 7.95935 11.3249 7.94935 11.3249C7.12435 11.8399 7.48935 12.6499 7.59935 13.1499Z" fill="#006800" stroke="#004100" stroke-width="0.3" stroke-linejoin="round"/>
<path fill-rule="evenodd" clip-rule="evenodd" d="M7.11115 9.25C7.66115 10.055 7.58115 10.815 7.49115 11.775C7.47615 11.7 7.29115 11.225 7.28115 11.225C6.45615 10.71 7.00615 9.75 7.11115 9.25Z" fill="#006800" stroke="#004100" stroke-width="0.3" stroke-linejoin="round"/>
<path fill-rule="evenodd" clip-rule="evenodd" d="M7.56564 10.5C8.90564 9.82005 8.39064 8.96505 8.63564 8.30005C7.70564 8.99505 7.58564 9.73005 7.57064 10.5H7.56564Z" fill="#006800" stroke="#004100" stroke-width="0.3" stroke-linejoin="round"/>
<path d="M7.74935 10.33C7.91935 9.85505 8.24935 9.05005 8.28435 9.05005M7.34935 11.32C7.31935 10.985 7.14935 10.085 7.13435 9.99505" stroke="#00A400" stroke-width="0.275" stroke-linecap="round"/>
<path fill-rule="evenodd" clip-rule="evenodd" d="M7.41499 12.8249C6.66499 12.7749 5.86499 11.7599 5.64999 10.9699C5.64999 10.9799 5.92499 11.1399 5.87999 11.1799C6.94999 11.6599 7.05999 12.0899 7.41499 12.8249ZM7.19499 12.1249C6.64499 11.3199 6.54499 10.7099 6.62999 9.7499C6.64499 9.8249 6.82999 10.2999 6.84499 10.2999C7.66499 10.8149 7.29999 11.6249 7.19499 12.1249ZM7.68999 10.7099C9.07499 10.0949 8.64999 9.4499 9.05999 8.7749C8.12999 9.4649 7.70499 9.9449 7.68999 10.7099Z" fill="#006800" stroke="#004100" stroke-width="0.3" stroke-linejoin="round"/>
<path d="M7.75 10.5694C8.0644 10.2737 8.32196 9.92294 8.51 9.53442" stroke="#00A400" stroke-width="0.275" stroke-linecap="round"/>
<path fill-rule="evenodd" clip-rule="evenodd" d="M12.6783 18.3209L13.3483 18.3309C11.1133 16.2309 6.82327 15.3209 7.41827 11.4609C6.80327 15.6459 10.9233 16.0359 12.6783 18.3209Z" fill="#FFE100" stroke="#E9BF00" stroke-width="0.3"/>
<path fill-rule="evenodd" clip-rule="evenodd" d="M7.76936 10.6354C7.76936 10.6924 7.74672 10.7471 7.7064 10.7874C7.66608 10.8278 7.6114 10.8504 7.55436 10.8504C7.49736 10.8504 7.44268 10.8278 7.40236 10.7874C7.36204 10.7471 7.33936 10.6924 7.33936 10.6354C7.33936 10.5784 7.36204 10.5237 7.40236 10.4834C7.44268 10.4431 7.49736 10.4204 7.55436 10.4204C7.6114 10.4204 7.66608 10.4431 7.7064 10.4834C7.74672 10.5237 7.76936 10.5784 7.76936 10.6354ZM7.63936 11.8154C7.63936 11.8691 7.61804 11.9206 7.58008 11.9586C7.54208 11.9966 7.4906 12.0179 7.43688 12.0179C7.38316 12.0179 7.33168 11.9966 7.29368 11.9586C7.25572 11.9206 7.23436 11.8691 7.23436 11.8154C7.23436 11.7624 7.25544 11.7115 7.29296 11.674C7.33048 11.6365 7.38132 11.6154 7.43436 11.6154C7.4874 11.6154 7.53828 11.6365 7.5758 11.674C7.61332 11.7115 7.63436 11.7624 7.63436 11.8154H7.63936ZM7.82936 13.5004C7.82936 13.5241 7.82472 13.5475 7.81568 13.5693C7.80664 13.5911 7.79336 13.611 7.77664 13.6277C7.75992 13.6444 7.74008 13.6576 7.71824 13.6667C7.6964 13.6757 7.673 13.6804 7.64936 13.6804C7.62572 13.6804 7.60232 13.6757 7.58048 13.6667C7.55864 13.6576 7.5388 13.6444 7.52208 13.6277C7.5054 13.611 7.49212 13.5911 7.48308 13.5693C7.47404 13.5475 7.46936 13.5241 7.46936 13.5004C7.46936 13.4527 7.48832 13.4069 7.52208 13.3731C7.55584 13.3394 7.60164 13.3204 7.64936 13.3204C7.69712 13.3204 7.74288 13.3394 7.77664 13.3731C7.8104 13.4069 7.82936 13.4527 7.82936 13.5004ZM9.39436 15.3604C9.39436 15.4081 9.3754 15.4539 9.34164 15.4877C9.30788 15.5215 9.26212 15.5404 9.21436 15.5404C9.16664 15.5404 9.12084 15.5215 9.08708 15.4877C9.05332 15.4539 9.03436 15.4081 9.03436 15.3604C9.03436 15.3126 9.05332 15.2669 9.08708 15.2331C9.12084 15.1994 9.16664 15.1804 9.21436 15.1804C9.26212 15.1804 9.30788 15.1994 9.34164 15.2331C9.3754 15.2669 9.39436 15.3126 9.39436 15.3604ZM9.61936 15.8954C9.61936 15.9431 9.6004 15.9889 9.56664 16.0227C9.53288 16.0564 9.48712 16.0754 9.43936 16.0754C9.39164 16.0754 9.34584 16.0564 9.31208 16.0227C9.27832 15.9889 9.25936 15.9431 9.25936 15.8954C9.25936 15.8477 9.27832 15.8019 9.31208 15.7681C9.34584 15.7344 9.39164 15.7154 9.43936 15.7154C9.48712 15.7154 9.53288 15.7344 9.56664 15.7681C9.6004 15.8019 9.61936 15.8477 9.61936 15.8954Z" fill="#9D4916" stroke="#68300E" stroke-width="0.1375"/>
<path fill-rule="evenodd" clip-rule="evenodd" d="M10.4094 17.4495C10.3068 17.374 10.2243 17.2744 10.1694 17.1595L9.46937 17.0845L9.45937 17.4845L10.4094 17.4495Z" fill="white" stroke="black" stroke-width="0.1375"/>
<path fill-rule="evenodd" clip-rule="evenodd" d="M5.26437 16.98C5.67437 17.055 6.28937 16.94 6.48937 17.205C6.72937 17.475 5.73437 17.9 5.87437 18.135C6.18437 18.46 6.49937 18.325 6.84437 18.145C6.92937 17.97 6.99437 17.655 7.03437 17.56C6.90937 17.275 6.56937 17.13 6.65937 16.695C7.22437 16.485 8.31937 16.5 8.43937 16.585C8.52937 16.765 8.44437 16.845 8.46437 16.99C8.36937 17.175 8.12937 17.48 8.12937 17.645C8.72937 17.855 8.87937 17.615 9.41937 17.625C10.0494 17.635 10.4294 17.805 10.5694 17.555C10.4694 17.335 9.89437 17.515 9.67937 17.375C9.56937 17.34 9.49937 17.25 9.40437 17.155C9.30937 17.06 9.04437 17.055 9.00437 16.81C9.11437 16.3 9.85437 16.38 9.96937 16.3L11.8894 16.435C12.2394 16.425 12.4394 17.05 11.9644 17.235C11.4944 17.425 10.1094 16.96 9.50437 17.28C9.47437 17.15 9.03937 16.95 9.00937 16.945C8.82437 16.995 8.46437 16.98 8.46437 16.98C8.37937 17.14 8.27437 17.26 8.18937 17.425C7.78937 17.25 7.41437 17.56 6.97937 17.47L6.29937 17.545L5.86937 17.505L5.20937 17.695L5.67937 17.28L5.26437 16.98Z" fill="white" stroke="black" stroke-width="0.1375" stroke-linejoin="round"/>
<path fill-rule="evenodd" clip-rule="evenodd" d="M5.235 16.9002C5.235 16.9479 5.21604 16.9937 5.18228 17.0275C5.14852 17.0613 5.10272 17.0802 5.055 17.0802C5.00728 17.0802 4.96148 17.0613 4.92772 17.0275C4.89396 16.9937 4.875 16.9479 4.875 16.9002C4.875 16.8525 4.89396 16.8067 4.92772 16.7729C4.96148 16.7392 5.00728 16.7202 5.055 16.7202C5.10272 16.7202 5.14852 16.7392 5.18228 16.7729C5.21604 16.8067 5.235 16.8525 5.235 16.9002ZM5.185 17.8002C5.185 17.8479 5.16604 17.8937 5.13228 17.9275C5.09852 17.9613 5.05272 17.9802 5.005 17.9802C4.95728 17.9802 4.91148 17.9613 4.87772 17.9275C4.84396 17.8937 4.825 17.8479 4.825 17.8002C4.825 17.7518 4.84424 17.7054 4.87844 17.6712C4.91268 17.6369 4.95908 17.6177 5.00748 17.6177C5.05592 17.6177 5.10232 17.6369 5.13656 17.6712C5.17076 17.7054 5.19 17.7518 5.19 17.8002H5.185Z" fill="white" stroke="black" stroke-width="0.1375"/>
<path fill-rule="evenodd" clip-rule="evenodd" d="M13.3156 17.4545C13.4306 17.3495 13.5056 17.2795 13.5506 17.1645L14.2506 17.0845L14.2656 17.4845L13.3156 17.4545Z" fill="white" stroke="black" stroke-width="0.1375"/>
<path fill-rule="evenodd" clip-rule="evenodd" d="M18.4562 16.9797C18.0512 17.0547 17.4362 16.9447 17.2362 17.2047C16.9912 17.4797 17.9862 17.9047 17.8462 18.1347C17.5362 18.4647 17.2212 18.3297 16.8762 18.1497C16.7962 17.9747 16.7312 17.6597 16.6862 17.5647C16.8162 17.2747 17.1512 17.1347 17.0662 16.6997C16.4962 16.4847 15.4012 16.4997 15.2862 16.5847C15.1912 16.7697 15.2762 16.8497 15.2562 16.9947C15.3562 17.1747 15.5962 17.4847 15.5962 17.6447C14.9962 17.8597 14.8412 17.6147 14.3062 17.6297C13.6762 17.6397 13.2912 17.8047 13.1562 17.5547C13.2512 17.3397 13.8262 17.5147 14.0462 17.3797C14.1562 17.3397 14.2262 17.2547 14.3212 17.1547C14.4162 17.0547 14.6812 17.0547 14.7212 16.8147C14.6112 16.3047 13.8712 16.3797 13.7512 16.3047L11.8312 16.4347C11.4812 16.4247 11.2862 17.0497 11.7562 17.2397C12.2262 17.4297 13.6162 16.9597 14.2162 17.2797C14.2512 17.1497 14.6812 16.9547 14.7162 16.9447C14.8962 16.9997 15.2562 16.9797 15.2562 16.9797C15.3462 17.1447 15.4462 17.2647 15.5362 17.4297C15.9362 17.2497 16.3112 17.5647 16.7462 17.4697L17.4212 17.5447L17.8562 17.5097L18.5162 17.6947L18.0462 17.2847L18.4562 16.9847V16.9797Z" fill="white" stroke="black" stroke-width="0.1375" stroke-linejoin="round"/>
<path fill-rule="evenodd" clip-rule="evenodd" d="M18.4875 16.8998C18.4875 16.9482 18.5067 16.9946 18.541 17.0288C18.5752 17.063 18.6216 17.0823 18.67 17.0823C18.7184 17.0823 18.7648 17.063 18.799 17.0288C18.8333 16.9946 18.8525 16.9482 18.8525 16.8998C18.8525 16.8514 18.8333 16.805 18.799 16.7707C18.7648 16.7365 18.7184 16.7173 18.67 16.7173C18.6216 16.7173 18.5752 16.7365 18.541 16.7707C18.5067 16.805 18.4875 16.8514 18.4875 16.8998ZM18.5375 17.7998C18.5375 17.8475 18.5565 17.8933 18.5902 17.927C18.624 17.9608 18.6698 17.9798 18.7175 17.9798C18.7652 17.9798 18.811 17.9608 18.8448 17.927C18.8785 17.8933 18.8975 17.8475 18.8975 17.7998C18.8975 17.752 18.8785 17.7062 18.8448 17.6725C18.811 17.6387 18.7652 17.6198 18.7175 17.6198C18.6698 17.6198 18.624 17.6387 18.5902 17.6725C18.5565 17.7062 18.5375 17.752 18.5375 17.7998Z" fill="white" stroke="black" stroke-width="0.1375"/>
<path fill-rule="evenodd" clip-rule="evenodd" d="M11.8506 16.4643C11.6906 16.4343 11.6306 16.4443 11.5206 16.4343L11.2656 17.2243C11.6656 17.2593 12.0306 17.2593 12.0306 17.2593C11.7906 17.2093 11.8456 16.4693 11.8506 16.4643Z" fill="white"/>
<path d="M10.1688 17.0101V16.4751H10.2588V16.9251H10.5088V17.0101H10.1688Z" fill="black"/>
<path d="M10.5844 17.035V16.5H10.6794V17.035H10.5844Z" fill="black"/>
<path d="M10.9994 17.0755H10.8344V16.5505L10.9944 16.5405C11.051 16.5405 11.0927 16.5522 11.1194 16.5755C11.1527 16.6022 11.1694 16.6372 11.1694 16.6805C11.1694 16.7205 11.1477 16.7538 11.1044 16.7805C11.171 16.8038 11.2044 16.8522 11.2044 16.9255C11.2044 16.9755 11.1844 17.0138 11.1444 17.0405C11.111 17.0672 11.0644 17.0805 11.0044 17.0805L10.9994 17.0755ZM10.9344 16.6205V16.7455H10.9844C11.041 16.7455 11.0694 16.7222 11.0694 16.6755C11.0694 16.6388 11.041 16.6205 10.9844 16.6205H10.9344ZM10.9344 16.8205V16.9955H10.9844C11.0244 16.9955 11.0527 16.9888 11.0694 16.9755C11.0927 16.9655 11.1044 16.9438 11.1044 16.9105C11.1044 16.8772 11.096 16.8555 11.0794 16.8455C11.0627 16.8288 11.031 16.8205 10.9844 16.8205H10.9344Z" fill="black"/>
<path d="M11.4294 16.65V16.785H11.5994V16.87H11.4294V17.025H11.6794V17.11H11.3344V16.575H11.6694V16.66L11.4294 16.65Z" fill="black"/>
<path d="M12.1094 17.12L11.9694 16.895H11.8994V17.12H11.8094V16.585H11.8694L11.9494 16.575C12.0894 16.575 12.1594 16.6283 12.1594 16.735C12.1594 16.7683 12.151 16.7966 12.1344 16.82C12.111 16.8466 12.086 16.865 12.0594 16.875L12.2244 17.12H12.1094ZM11.8994 16.67V16.81H11.9444L12.0244 16.8C12.0477 16.79 12.0594 16.7683 12.0594 16.735C12.0594 16.7083 12.051 16.6883 12.0344 16.675C12.011 16.665 11.9777 16.66 11.9344 16.66H11.8994V16.67Z" fill="black"/>
<path d="M12.495 16.6503V17.1003H12.395V16.6503H12.225V16.5703H12.67V16.6503H12.495Z" fill="black"/>
<path d="M13.0338 17.0258L12.9938 16.9208H12.8088L12.7738 17.0258H12.6688L12.8838 16.4858H12.9238L13.1438 17.0258H13.0338ZM12.8988 16.6508L12.8438 16.8508H12.9688L12.8988 16.6508Z" fill="black"/>
<path d="M13.2188 16.9852L13.2488 16.9002C13.2888 16.9235 13.3254 16.9352 13.3588 16.9352C13.4154 16.9352 13.4438 16.9152 13.4438 16.8752L13.4238 16.8252L13.3438 16.7702L13.2588 16.7202L13.2238 16.6702L13.2188 16.6102C13.2188 16.5669 13.2321 16.5302 13.2588 16.5002C13.2921 16.4802 13.3304 16.4702 13.3738 16.4702C13.4371 16.4702 13.4854 16.4802 13.5188 16.5002L13.4838 16.5852C13.4504 16.5585 13.4138 16.5452 13.3738 16.5452C13.3538 16.5452 13.3371 16.5502 13.3238 16.5602C13.3138 16.5702 13.3088 16.5869 13.3088 16.6102C13.3088 16.6369 13.3421 16.6669 13.4088 16.7002C13.4488 16.7169 13.4771 16.7335 13.4938 16.7502L13.5238 16.8002L13.5338 16.8702C13.5338 16.9135 13.5171 16.9485 13.4838 16.9752C13.4504 17.0019 13.4054 17.0169 13.3488 17.0202C13.2954 17.0202 13.2521 17.0052 13.2188 16.9752V16.9852Z" fill="black"/>
<path d="M7.56437 15.9303C8.06937 15.9903 8.76937 15.9453 9.07437 15.9303M6.79937 14.2103C7.22937 14.5453 8.15437 14.7453 8.13937 14.7453M8.67437 14.8353C8.53437 14.1353 8.38437 13.9653 8.25937 13.5253M6.08437 12.7353C6.79937 13.0553 6.90937 13.2653 7.36437 13.5853M7.62437 12.8853C7.68437 12.0203 7.80437 11.7903 8.01937 11.5903M6.08437 11.4903C6.34437 11.7753 7.19437 12.6753 7.19437 12.6753M6.84437 10.6953C7.16437 10.9203 7.16437 11.7453 7.16437 11.7453" stroke="#00A400" stroke-width="0.275" stroke-linecap="round"/>
</g>
</g>
</g>
<defs>
<clipPath id="clip0_69_10550">
<rect width="24" height="24" rx="12" fill="white"/>
</clipPath>
<clipPath id="clip1_69_10550">
<rect width="32" height="24" fill="white" transform="translate(-4)"/>
</clipPath>
</defs>
</svg>
