<svg width="24" height="24" viewBox="0 0 24 24" fill="none" xmlns="http://www.w3.org/2000/svg">
<g clip-path="url(#clip0_69_10615)">
<path d="M0 -1.19995H24V24.8H0V-1.19995Z" fill="#12AD2B"/>
<path d="M0 7.94116H24V15.6624H0V7.94116Z" fill="#FFCE00"/>
<path d="M0 2.80005V20.8L9 11.8" fill="#D21034"/>
<path d="M13.1859 9.229L12.3913 11.6746L13.6141 12.0719" fill="black"/>
<path d="M13.1859 9.229L13.9806 11.6746L12.7578 12.0719" fill="black"/>
<path d="M15.6305 11.0056H13.059V12.2913" fill="black"/>
<path d="M15.6305 11.0056L13.5501 12.5171L12.7944 11.4769" fill="black"/>
<path d="M14.6977 13.8802L13.903 11.4346L12.6803 11.8319" fill="black"/>
<path d="M14.6977 13.88L12.6173 12.3686L13.373 11.3284" fill="black"/>
<path d="M11.6742 13.8812L13.7546 12.3697L12.9988 11.3296" fill="black"/>
<path d="M11.6742 13.8814L12.4688 11.4358L13.6916 11.8331" fill="black"/>
<path d="M10.7391 11.0066L12.8194 12.5181L13.5752 11.4779" fill="black"/>
<path d="M10.7391 11.0066H13.3105V12.2923" fill="black"/>
<path d="M19.8164 9.229L19.0218 11.6746L20.2446 12.0719" fill="black"/>
<path d="M19.8164 9.229L20.611 11.6746L19.3882 12.0719" fill="black"/>
<path d="M22.2609 11.0056H19.6895V12.2913" fill="black"/>
<path d="M22.2609 11.0056L20.1806 12.5171L19.4249 11.4769" fill="black"/>
<path d="M21.3281 13.8802L20.5335 11.4346L19.3107 11.8319" fill="black"/>
<path d="M21.3281 13.88L19.2478 12.3686L20.0035 11.3284" fill="black"/>
<path d="M18.3047 13.8812L20.385 12.3697L19.6293 11.3296" fill="black"/>
<path d="M18.3047 13.8814L19.0993 11.4358L20.3221 11.8331" fill="black"/>
<path d="M17.3695 11.0066L19.4499 12.5181L20.2056 11.4779" fill="black"/>
<path d="M17.3695 11.0066H19.941V12.2923" fill="black"/>
</g>
<defs>
<clipPath id="clip0_69_10615">
<rect width="24" height="24" rx="12" fill="white"/>
</clipPath>
</defs>
</svg>
