<svg width="24" height="24" viewBox="0 0 24 24" fill="none" xmlns="http://www.w3.org/2000/svg">
<g clip-path="url(#clip0_69_11186)">
<path fill-rule="evenodd" clip-rule="evenodd" d="M0 -0.000113487L13.7333 -8.53345L36 -0.000113487V11.9999H15.9984L0 -0.000113487Z" fill="#ED2939"/>
<path fill-rule="evenodd" clip-rule="evenodd" d="M0 24L13.7333 29.3333L36 24V12H15.9984L0 24Z" fill="#002395"/>
<path fill-rule="evenodd" clip-rule="evenodd" d="M0 0L15.9984 12L0 24V0Z" fill="white"/>
<path d="M8.07656 9.05615L8.08124 8.86867C8.08124 8.86867 7.9828 8.70927 8.1 8.54055C8.1 8.54055 7.85156 8.40927 7.91252 8.20303C7.91252 8.20303 7.68752 8.14679 7.70156 7.90303C7.70156 7.90303 7.4672 7.88899 7.43908 7.68271C7.43908 7.68271 7.2 7.72023 7.0922 7.52335C7.0922 7.52335 6.8578 7.57023 6.7922 7.40615C6.7922 7.40615 6.56248 7.48115 6.43124 7.28899C6.43124 7.28899 6.18748 7.38743 6.08908 7.20459C5.99064 7.38743 5.74688 7.28899 5.74688 7.28899C5.61564 7.48115 5.38592 7.40147 5.38592 7.40147C5.32032 7.56555 5.09064 7.51867 5.09064 7.51867C4.9828 7.72023 4.74376 7.67803 4.74376 7.67803C4.72032 7.88427 4.48124 7.90303 4.48124 7.90303C4.488 7.96939 4.471 8.03595 4.4332 8.09091C4.39544 8.14587 4.33936 8.18559 4.275 8.20303C4.33592 8.40459 4.08752 8.53583 4.08752 8.53583C4.20936 8.70927 4.11092 8.86399 4.11092 8.86399L4.10624 9.03743L8.07656 9.05615Z" fill="#FFFF00"/>
<path d="M8.08108 9.05584V8.86784C8.08108 8.86784 7.98436 8.70664 8.10256 8.54548C8.10256 8.54548 7.85536 8.41116 7.91448 8.20704C7.91448 8.20704 7.68881 8.15332 7.70493 7.90616C7.70493 7.90616 7.46308 7.89004 7.43624 7.68592C7.43624 7.68592 7.19977 7.72352 7.09769 7.52472C7.09769 7.52472 6.86124 7.56772 6.79676 7.40656C6.79676 7.40656 6.56569 7.48712 6.43133 7.29372C6.43133 7.29372 6.18953 7.39044 6.09281 7.20776C5.99069 7.39044 5.74889 7.29372 5.74889 7.29372C5.61989 7.48176 5.38885 7.40116 5.38885 7.40116C5.32433 7.56772 5.09329 7.52472 5.09329 7.52472C4.98581 7.72352 4.74397 7.68592 4.74397 7.68592C4.72249 7.88468 4.48069 7.9008 4.48069 7.9008C4.48957 7.96652 4.47429 8.0332 4.43773 8.08852C4.40117 8.14384 4.34577 8.18404 4.28185 8.20164C4.33557 8.4058 4.09377 8.53476 4.09377 8.53476C4.21197 8.70664 4.10989 8.86784 4.10989 8.86784V9.03976L8.08108 9.05584Z" stroke="black" stroke-width="0.0402979"/>
<path d="M7.9828 8.82172C7.35936 8.76076 6.6422 8.61076 6.08908 8.92484C5.71408 8.70452 5.19844 8.7186 4.7578 8.76076C4.51876 8.80764 4.23748 8.80764 3.98437 8.84516L3.94687 8.84984C3.49218 8.88264 3.07968 8.74672 2.68124 8.5686C2.8125 9.28108 2.94843 10.0076 3.01875 10.753C3.16875 11.8592 2.49843 12.7826 2.76562 13.8748C2.92968 14.3998 3.50624 14.7045 4.03124 14.7655C4.539 14.7975 5.04356 14.868 5.54064 14.9764C5.62908 14.9982 5.7154 15.028 5.79844 15.0655C5.91572 15.1167 6.02108 15.1917 6.1078 15.2858C6.38908 14.9905 6.81092 14.9061 7.21876 14.8639C7.95936 14.7748 8.87344 14.8217 9.32812 14.1514V14.1139C9.57656 13.7389 9.54376 13.1764 9.43592 12.7545C9.42656 12.6092 9.38908 12.478 9.36564 12.3374C8.91564 11.142 9.30468 9.79672 9.49688 8.58732C9.25416 8.70936 8.99532 8.79616 8.72812 8.84516C8.5172 8.87328 8.2828 8.86392 8.07188 8.84984L7.97812 8.8264" fill="#FF0000"/>
<path d="M8.91564 12.2577C8.91564 12.3327 8.9578 12.3984 8.97188 12.4687C9.06092 12.9937 9.14064 13.6874 8.60624 14.0109C8.00624 14.3859 7.22812 14.2265 6.53908 14.4281C6.39844 14.4656 6.21092 14.5921 6.1172 14.6812C6.05156 14.639 5.99064 14.5781 5.91092 14.5406C5.34376 14.2406 4.60312 14.339 3.96563 14.1749C3.64219 14.0765 3.30938 13.8234 3.225 13.4953C3.01875 12.6327 3.51563 11.8968 3.45938 11.039C3.42188 10.3827 3.30938 9.7593 3.15938 9.14526C3.66094 9.37962 4.23752 9.41714 4.8 9.30462C5.23388 9.22498 5.68124 9.2655 6.09376 9.42182C6.30936 9.32806 6.56248 9.28586 6.79688 9.26242C7.2328 9.3093 7.70624 9.3843 8.16092 9.3843C8.46564 9.36558 8.7422 9.28118 9.00468 9.16402C8.85 10.1765 8.54532 11.2359 8.91564 12.2577Z" fill="#80CFE1"/>
<path d="M8.01564 12.4592V11.5029H8.12812L6.675 10.5655L6.67032 10.0733H6.81092L6.07968 9.55762L5.3578 10.0733H5.49844V10.5655L4.05 11.5029H4.1672V12.4545H8.01564" fill="white"/>
<path d="M8.01896 12.4611V11.5048H8.1318L6.68088 10.5647L6.67552 10.0812H6.81524L6.0844 9.55469L5.35896 10.0758H5.49868L5.50404 10.5647L4.05312 11.5048H4.17136V12.4558H8.01896V12.4611Z" stroke="black" stroke-width="0.161191"/>
<path d="M8.46719 13.7107V14.0061H3.77499V13.7061H8.46247" fill="white"/>
<path d="M8.46853 13.7132V14.0086H3.77188V13.7078H8.46853V13.7132Z" stroke="black" stroke-width="0.161191"/>
<path d="M4.08436 13.692V12.6841H4.27188L4.26248 13.7013L4.27188 12.6889L4 12.6841V12.4639L8.19064 12.4732V12.6841H7.93752V13.706L7.9328 12.6841H8.12032L8.12968 13.6967" fill="white"/>
<path d="M4.08371 13.6919V12.6819H4.27179L4.26107 13.7027L4.27179 12.6927L4.00311 12.6819V12.467L8.19463 12.4724V12.6873H7.93671L7.94207 13.708L7.93131 12.6873H8.12479L8.13015 13.6973" stroke="black" stroke-width="0.161191"/>
<path d="M4.98836 13.4442V12.7405H4.41876V13.4389L4.983 13.4442" stroke="black" stroke-width="0.161191"/>
<path d="M4.57724 12.8848V13.2931H4.8352V12.8848H4.57188M7.7424 13.4435L7.737 12.7451H7.17816V13.4435H7.7424Z" stroke="black" stroke-width="0.161191"/>
<path d="M7.33084 12.8909V13.2992H7.58876V12.8909H7.33084ZM7.73924 12.3V11.6016H7.175V12.3H7.73924Z" stroke="black" stroke-width="0.161191"/>
<path d="M7.32596 11.7471V12.1554H7.58388V11.7471H7.32596ZM4.983 12.3004V11.5967H4.41876V12.2951H4.983V12.3004Z" stroke="black" stroke-width="0.161191"/>
<path d="M6.00128 12.3004V11.5967H5.43704V12.2951H6.00128M4.57188 11.7417V12.15H4.8298V11.7417H4.57188Z" stroke="black" stroke-width="0.161191"/>
<path d="M5.58752 11.7417V12.15H5.84544V11.7417H5.58752ZM6.78584 12.3004V11.602L6.2216 11.5967V12.2951L6.78584 12.3004Z" stroke="black" stroke-width="0.161191"/>
<path d="M6.37189 11.7405V12.1488H6.63521V11.7405H6.37189Z" stroke="black" stroke-width="0.161191"/>
<path d="M6.925 12.0842L6.93436 13.7061H5.29844L5.29376 12.0842H6.92032" fill="white"/>
<path d="M5.28812 12.5469H6.93248M5.49232 13.7074V12.5577M6.73364 13.7074V12.563M6.92708 12.0849L6.93248 13.7074H5.30424L5.29884 12.0849H6.92708ZM7.5236 11.3919L6.61004 10.7257H5.57292L4.65936 11.3919H7.5236ZM5.65352 10.167V10.5753H6.52408V10.167H5.65352Z" stroke="black" stroke-width="0.161191"/>
<path d="M6.08453 9.6936L6.56817 10.0374H5.60625L6.08989 9.6936M5.89105 10.2684V10.4726H6.28873V10.2684H5.89105Z" stroke="black" stroke-width="0.161191"/>
<path d="M8.03435 9.46875C8.17031 9.46875 8.20311 10.0312 8.20311 10.3125C8.32499 10.35 8.58279 10.5141 8.69999 10.6593H7.37811C7.49063 10.5141 7.74843 10.35 7.86563 10.3172C7.86563 10.0359 7.89375 9.46407 8.03435 9.47343" fill="white"/>
<path d="M6.44436 12.1281H6.5626L6.525 12.1979C6.525 12.1979 6.58408 12.2677 6.525 12.3537L6.55724 12.4074H6.44976L6.4766 12.3537C6.4766 12.3537 6.42288 12.257 6.4766 12.1925L6.44436 12.1334M8.035 9.46875C8.17472 9.46875 8.20696 10.0328 8.20696 10.3175C8.3252 10.3498 8.58852 10.5163 8.70136 10.6614H7.3794C7.49224 10.5163 7.75556 10.3498 7.86844 10.3175C7.86844 10.0328 7.90068 9.46875 8.035 9.46875ZM5.375 12.1281H5.49324L5.461 12.1925C5.461 12.1925 5.51472 12.2677 5.461 12.3537L5.49324 12.4074H5.375L5.40724 12.3537C5.40724 12.3537 5.35352 12.257 5.40724 12.1925L5.375 12.1281ZM5.6168 12.1281H5.73504L5.7028 12.1925C5.7028 12.1925 5.75652 12.2677 5.7028 12.3537L5.73504 12.4074H5.6168L5.64908 12.3537C5.64908 12.3537 5.59532 12.257 5.64908 12.1925L5.6168 12.1281ZM5.88552 12.1281H5.99836L5.96612 12.1925C5.96612 12.1925 6.01984 12.2677 5.96612 12.3537L5.99836 12.4074H5.88552L5.91236 12.3537C5.91236 12.3537 5.85864 12.257 5.91236 12.1925L5.88012 12.1281H5.88552ZM6.18108 12.1281H6.29928L6.26168 12.1979C6.26168 12.1979 6.3208 12.2677 6.26168 12.3537L6.29392 12.4074H6.18108L6.21332 12.3537C6.21332 12.3537 6.15956 12.257 6.21332 12.1925L6.18108 12.1334V12.1281ZM6.70768 12.1334H6.82592L6.78828 12.1979C6.78828 12.1979 6.8474 12.2677 6.78828 12.3537L6.82056 12.4074H6.71308L6.73992 12.3537C6.73992 12.3537 6.6862 12.257 6.73992 12.1925L6.70768 12.1334Z" stroke="black" stroke-width="0.161191"/>
<path d="M6.11721 15.7874C6.72657 15.7874 7.47657 15.6608 7.82813 15.4827L8.60157 15.4124L8.62033 16.3546C7.96409 16.7156 6.45469 16.7952 6.12189 16.7906C5.78909 16.7906 4.26093 16.7156 3.60001 16.3546L3.60938 15.4077L4.38281 15.478C4.93557 15.6921 5.52453 15.7972 6.11721 15.7874Z" fill="#FFFF00"/>
<path d="M6.12029 15.787C6.73289 15.787 7.47985 15.6634 7.83453 15.4807L8.60297 15.4163L8.61909 16.3564C7.96889 16.7164 6.45349 16.797 6.12569 16.7916C5.79249 16.7916 4.26097 16.7164 3.60001 16.351L3.61075 15.4109L4.38457 15.4807C4.73925 15.6634 5.51305 15.787 6.12029 15.787Z" stroke="black" stroke-width="0.0402979"/>
<path d="M1.61132 11.7656L2.291 11.9812L2.08476 13.0828L1.44257 13.1859C1.44257 13.1859 1.33476 12.6047 1.61132 11.7656Z" fill="#FFFF00"/>
<path d="M1.61728 11.7686L2.29437 11.9834L2.09017 13.0848L1.44532 13.1868C1.44532 13.1868 1.33784 12.6066 1.61728 11.7686Z" stroke="black" stroke-width="0.0402979"/>
<path d="M2.08594 13.0733L1.44376 13.1857L1.85157 12.6045L2.08594 13.0733Z" fill="#7E7E7E"/>
<path d="M2.09172 13.0736L1.44687 13.181L1.85527 12.6062L2.09172 13.0736Z" stroke="black" stroke-width="0.0402979"/>
<path d="M1.20538 12.5623L1.86163 12.6091C1.87569 13.1623 1.946 15.281 4.47724 15.3982L4.39756 16.1717C1.31788 16.1998 1.08351 13.5701 1.21007 12.5623" fill="#FFFF00"/>
<path d="M3.61667 16.33L4.39048 16.1634M1.20923 12.564L1.86483 12.6069C1.88095 13.1656 1.94544 15.2824 4.48184 15.4005L4.40124 16.1742C1.31671 16.2064 1.08564 13.574 1.20923 12.564Z" stroke="black" stroke-width="0.0402979"/>
<path d="M10.5656 11.7749L9.89064 11.9905L10.1062 13.0874L10.7531 13.1905C10.7531 13.1905 10.8562 12.614 10.5656 11.7749Z" fill="#FFFF00"/>
<path d="M10.5708 11.7734L9.89375 11.9883L10.1087 13.0897L10.7536 13.1971C10.7536 13.1971 10.861 12.6169 10.5708 11.7734Z" stroke="black" stroke-width="0.0402979"/>
<path d="M10.1047 13.0781L10.7469 13.1953L10.3344 12.614L10.1 13.0781" fill="#7E7E7E"/>
<path d="M10.1094 13.0792L10.7542 13.192L10.3404 12.6172L10.1094 13.0792Z" stroke="black" stroke-width="0.0402979"/>
<path d="M10.9828 12.5671L10.3266 12.614C10.3172 13.1671 10.2656 15.2859 7.73436 15.4031L7.82812 16.1718C10.9078 16.2093 11.1188 13.5749 10.9875 12.5671" fill="#FFFF00"/>
<path d="M8.60804 16.3292L7.83424 16.168M10.9832 12.5686L10.3276 12.6116C10.3169 13.1703 10.2739 15.2924 7.73752 15.4052L7.82348 16.1734C10.908 16.211 11.1176 13.5786 10.9832 12.574V12.5686Z" stroke="black" stroke-width="0.0402979"/>
<path d="M5.7108 16.2507C5.69208 16.2601 5.66392 16.2648 5.64052 16.2601L5.51864 16.2554L5.528 16.1007L5.64988 16.1101C5.67332 16.1101 5.69676 16.1148 5.70612 16.1242C5.72956 16.1335 5.73892 16.157 5.73892 16.1898C5.73892 16.2179 5.72488 16.2367 5.70612 16.2507M5.50456 16.4851L5.51392 16.3023L5.65456 16.3117C5.70144 16.3164 5.73892 16.3023 5.76236 16.2789C5.7858 16.2601 5.79988 16.232 5.79988 16.1945C5.80224 16.1777 5.80092 16.1607 5.79608 16.1445C5.7912 16.1283 5.78292 16.1134 5.77176 16.1007C5.74644 16.0761 5.71324 16.0611 5.678 16.0585L5.47176 16.0445L5.44364 16.4851H5.50456ZM5.9452 16.1242H6.0952L6.14676 16.1335C6.1702 16.1476 6.17956 16.1664 6.17956 16.1992C6.17956 16.2273 6.17488 16.2461 6.15612 16.2601C6.136 16.2709 6.11328 16.2757 6.09052 16.2742H5.9452V16.1242ZM5.9452 16.5085V16.3211L6.0858 16.3257C6.10924 16.3257 6.13268 16.3257 6.14208 16.3351C6.1608 16.3445 6.17488 16.3632 6.17488 16.3914V16.4992L6.18424 16.5132H6.25924V16.5039C6.25468 16.5015 6.25064 16.4981 6.24744 16.4941C6.2442 16.4901 6.24184 16.4854 6.24052 16.4804C6.23744 16.4681 6.23588 16.4556 6.2358 16.4429V16.382C6.2358 16.3539 6.22644 16.3351 6.21708 16.3257C6.20768 16.3128 6.1946 16.303 6.17956 16.2976C6.19832 16.2882 6.21708 16.2742 6.22644 16.2601C6.2358 16.2414 6.2452 16.2226 6.2452 16.1945C6.2452 16.1476 6.22176 16.1101 6.17956 16.0914C6.15296 16.0796 6.12428 16.0732 6.0952 16.0726H5.88424V16.5132H5.9452M6.41392 16.4195C6.3858 16.3849 6.3694 16.3422 6.36708 16.2976C6.36708 16.2367 6.37644 16.1898 6.40456 16.157C6.4188 16.1415 6.43624 16.1293 6.45568 16.1212C6.47508 16.1131 6.49604 16.1093 6.51708 16.1101C6.5374 16.1078 6.55804 16.1099 6.57748 16.1164C6.59688 16.1229 6.61468 16.1335 6.62956 16.1476C6.66236 16.1757 6.67644 16.2179 6.68112 16.2695C6.68476 16.3151 6.67496 16.3607 6.653 16.4007C6.62956 16.4382 6.59208 16.4617 6.5358 16.4617C6.47956 16.4617 6.44208 16.4523 6.40924 16.4195M6.33892 16.1429C6.3118 16.1898 6.2988 16.2435 6.30144 16.2976C6.30612 16.3632 6.32488 16.4195 6.36708 16.457C6.38916 16.4787 6.41568 16.4953 6.4448 16.5058C6.47392 16.5163 6.50496 16.5205 6.5358 16.5179C6.56784 16.5175 6.59932 16.5097 6.6278 16.4951C6.65628 16.4805 6.68096 16.4594 6.69988 16.4335C6.73308 16.3837 6.74948 16.3246 6.74676 16.2648C6.74512 16.2114 6.72528 16.1601 6.69052 16.1195C6.64832 16.0726 6.58736 16.0492 6.50768 16.0539C6.43268 16.0539 6.37644 16.0867 6.33892 16.1429ZM8.40144 15.5101C8.44832 15.5054 8.4858 15.5054 8.51864 15.5148C8.56552 15.5335 8.59832 15.5664 8.62176 15.6226L8.5608 15.632C8.55052 15.6053 8.5304 15.5835 8.50456 15.5711C8.47492 15.5588 8.44232 15.5556 8.4108 15.5617C8.39184 15.5649 8.37376 15.5719 8.35764 15.5824C8.34148 15.5929 8.32768 15.6066 8.31708 15.6226C8.29364 15.6554 8.28424 15.7023 8.29364 15.7632C8.2986 15.8089 8.31836 15.8517 8.34988 15.8851C8.378 15.9132 8.4202 15.9226 8.47176 15.9179C8.50828 15.9129 8.54164 15.8945 8.56552 15.8664C8.59364 15.8382 8.59832 15.8007 8.58892 15.7492L8.44832 15.7726L8.44364 15.7257L8.64052 15.6929L8.678 15.9273H8.6358L8.61236 15.8804L8.56552 15.9273C8.54208 15.9507 8.50924 15.9601 8.47176 15.9695C8.4194 15.9788 8.36548 15.967 8.32176 15.9367C8.297 15.9174 8.27636 15.8934 8.26108 15.866C8.24576 15.8386 8.23612 15.8085 8.23268 15.7773C8.22504 15.7455 8.224 15.7124 8.22964 15.6801C8.23528 15.6479 8.24748 15.6171 8.26552 15.5898C8.28176 15.5671 8.30276 15.5482 8.32704 15.5345C8.35132 15.5207 8.37832 15.5124 8.40612 15.5101M8.84676 15.4773L8.98736 15.4257C9.00612 15.4164 9.02488 15.4164 9.03892 15.4164C9.06708 15.4164 9.0858 15.4351 9.0952 15.4632C9.10456 15.4914 9.10456 15.5148 9.0952 15.5335C9.08112 15.5476 9.06236 15.5617 9.03424 15.5711L8.903 15.6179L8.84676 15.4773ZM8.98736 15.8382L8.92176 15.6648L9.053 15.6179C9.06912 15.61 9.08664 15.6052 9.10456 15.6039C9.128 15.6085 9.14676 15.6226 9.1608 15.6507L9.18892 15.7164L9.203 15.7492L9.21236 15.7632L9.28268 15.7351V15.7257C9.26864 15.7257 9.25924 15.7211 9.25456 15.707C9.2452 15.7023 9.24052 15.6882 9.2358 15.6742L9.21236 15.6179C9.203 15.5945 9.18892 15.5804 9.17956 15.5711C9.1648 15.5646 9.1488 15.5614 9.13268 15.5617L9.1608 15.5054C9.1608 15.4867 9.1608 15.4632 9.15144 15.4398C9.13268 15.3929 9.10456 15.3648 9.05768 15.3648C9.02732 15.363 8.99696 15.3678 8.96864 15.3789L8.77176 15.4492L8.93112 15.8617L8.98736 15.8429M9.503 15.6226L9.25456 15.257L9.52644 15.0789L9.55924 15.1257L9.33424 15.2664L9.40924 15.3789L9.6202 15.2476L9.64832 15.2898L9.43736 15.4211L9.52176 15.5476L9.75612 15.3976L9.78424 15.4445L9.503 15.6226ZM9.72332 14.9757L9.79364 14.8961C9.83112 14.8585 9.86392 14.8445 9.90144 14.8492C9.94364 14.8492 9.98112 14.8726 10.0233 14.9101C10.0531 14.935 10.0757 14.9674 10.0889 15.0039C10.0983 15.032 10.0936 15.0554 10.0889 15.0789C10.0805 15.0961 10.0694 15.1119 10.0561 15.1257L9.9858 15.2007L9.72332 14.9757ZM10.103 15.1445C10.1546 15.0882 10.1639 15.032 10.1358 14.957C10.1162 14.9191 10.0891 14.8856 10.0561 14.8585C10.0164 14.821 9.96524 14.7979 9.9108 14.7929C9.85456 14.7882 9.80768 14.807 9.76552 14.8539L9.64364 14.9851L9.98112 15.2804L10.103 15.1492M10.3655 14.807L9.97644 14.5726L10.0092 14.5257L10.3983 14.7554L10.3655 14.8023M10.5202 14.5398L10.0983 14.3711L10.2202 14.0757L10.2718 14.0945L10.1733 14.3382L10.2999 14.3851L10.3936 14.1648L10.4405 14.1835L10.3468 14.4085L10.4874 14.4648L10.5952 14.2211L10.6421 14.2398L10.5202 14.5398ZM10.7077 14.0242L10.2671 13.9304L10.2858 13.8601L10.6936 13.7195L10.3327 13.6398L10.3468 13.5882L10.7874 13.682L10.7733 13.7476L10.3655 13.8882L10.7264 13.9679L10.7124 14.0242M10.6749 13.4617L10.6796 13.4054C10.7077 13.4054 10.7264 13.4054 10.7452 13.3961C10.778 13.3773 10.7921 13.3445 10.8014 13.2976C10.8041 13.2756 10.8025 13.2534 10.7968 13.232C10.7874 13.1992 10.7686 13.1757 10.7358 13.1757C10.7077 13.1711 10.6889 13.1757 10.6796 13.1898C10.6655 13.2039 10.6561 13.2273 10.6468 13.2601L10.6233 13.3164C10.6139 13.3539 10.5999 13.382 10.5858 13.3961C10.5671 13.4242 10.5389 13.4335 10.5014 13.4289C10.4834 13.4279 10.4658 13.4233 10.4497 13.4152C10.4336 13.4071 10.4192 13.3958 10.4077 13.382C10.3796 13.3539 10.3702 13.3117 10.3749 13.2601C10.3796 13.2132 10.3936 13.1757 10.4218 13.1476C10.4452 13.1195 10.4827 13.1007 10.5342 13.1101L10.5296 13.1664C10.5061 13.1664 10.4827 13.1664 10.4733 13.1804C10.4452 13.1945 10.4311 13.2273 10.4264 13.2695C10.4264 13.3023 10.4264 13.3257 10.4452 13.3445C10.4592 13.3632 10.4733 13.3726 10.4921 13.3726C10.5155 13.3726 10.5342 13.3726 10.5436 13.3539L10.5764 13.2742L10.5952 13.2132C10.6046 13.1851 10.6186 13.1664 10.6327 13.1476C10.6561 13.1242 10.6889 13.1148 10.7264 13.1148C10.778 13.1195 10.8155 13.1429 10.8296 13.1804C10.8483 13.2179 10.8577 13.2554 10.853 13.307C10.8504 13.3533 10.8303 13.3968 10.7968 13.4289C10.7639 13.457 10.7264 13.4664 10.6749 13.4617ZM1.50613 13.4335L1.52019 13.4898C1.49207 13.4945 1.47332 13.5039 1.45925 13.5179C1.43582 13.5414 1.42644 13.5789 1.43582 13.6304C1.43904 13.6501 1.44537 13.669 1.45457 13.6867C1.47332 13.7195 1.50144 13.7335 1.53425 13.7289C1.55769 13.7242 1.57175 13.7148 1.58113 13.6961L1.59519 13.6211V13.5601C1.59519 13.5226 1.60457 13.4898 1.60925 13.4757C1.62332 13.4476 1.65144 13.4289 1.68894 13.4195C1.72644 13.4148 1.76394 13.4195 1.79207 13.4476C1.82488 13.4664 1.84363 13.5039 1.853 13.5507C1.86211 13.5918 1.85716 13.6347 1.83894 13.6726C1.82019 13.7101 1.79207 13.7289 1.7405 13.7382L1.73113 13.6867C1.74844 13.6805 1.76437 13.6709 1.778 13.6585C1.80144 13.6351 1.80613 13.6023 1.80144 13.5601C1.79207 13.5226 1.78269 13.4992 1.76394 13.4898C1.75611 13.4836 1.74703 13.4791 1.73733 13.4767C1.72763 13.4743 1.71753 13.4739 1.70769 13.4757C1.69735 13.4753 1.68715 13.4782 1.67867 13.4841C1.67019 13.4901 1.66391 13.4987 1.66082 13.5085L1.65613 13.5929L1.65144 13.6539C1.65125 13.68 1.64483 13.7057 1.63269 13.7289C1.62508 13.7441 1.61382 13.7572 1.59992 13.767C1.58601 13.7768 1.5699 13.783 1.553 13.7851C1.50613 13.7945 1.45925 13.7804 1.43582 13.7476C1.40717 13.7159 1.38771 13.677 1.37957 13.6351C1.37424 13.612 1.37357 13.5881 1.37759 13.5648C1.38162 13.5414 1.39025 13.5191 1.403 13.4992C1.41465 13.4821 1.42993 13.4677 1.44775 13.4572C1.46558 13.4467 1.48551 13.4402 1.50613 13.4382M1.478 14.0148L1.91394 13.8835L2.01238 14.1882L1.96082 14.207L1.87644 13.9585L1.74519 13.9961L1.82488 14.2304L1.77332 14.2445L1.69832 14.0101L1.54832 14.057L1.63269 14.3101L1.58582 14.3242L1.478 14.0148ZM1.67019 14.5445L2.06863 14.3335L2.1155 14.4085L1.83894 14.6945L2.23738 14.6289L2.27957 14.6992L1.88113 14.9101L1.853 14.8632L2.08738 14.7367L2.12957 14.7179L2.1905 14.6851L1.79207 14.7554L1.76394 14.7039L2.03582 14.4132L2.02175 14.4226L1.97488 14.4461C1.96141 14.4549 1.94731 14.4627 1.93269 14.4695L1.69832 14.5914L1.67019 14.5445ZM2.41082 15.1304C2.39207 15.1257 2.37332 15.1117 2.35457 15.0929L2.27019 15.0085L2.38269 14.9054L2.46707 14.9898C2.4811 15.003 2.49227 15.019 2.49988 15.0367C2.50925 15.0601 2.49988 15.0835 2.47644 15.107C2.453 15.1257 2.42957 15.1351 2.41082 15.1304ZM2.09207 15.1679L2.23269 15.0414L2.32644 15.1398C2.36394 15.1726 2.39675 15.1867 2.42957 15.1867C2.46438 15.1862 2.49779 15.1729 2.52332 15.1492C2.54699 15.1237 2.56035 15.0902 2.56082 15.0554C2.56082 15.0273 2.54675 14.9945 2.51863 14.9664L2.378 14.8257L2.04988 15.1257L2.09675 15.1726M2.4905 15.5242L2.72957 15.1492L3.01082 15.3179L2.98269 15.3648L2.74832 15.2242L2.678 15.3414L2.88894 15.4679L2.8655 15.5148L2.64988 15.3835L2.57019 15.5101L2.80457 15.6507L2.77644 15.6976L2.4905 15.5242ZM3.19363 15.4492L3.33894 15.4961L3.38582 15.5195C3.40457 15.5382 3.40925 15.5617 3.39519 15.5898C3.38582 15.6179 3.37644 15.6367 3.353 15.6414L3.28269 15.6367L3.14675 15.5898L3.19363 15.4492ZM3.07175 15.8195L3.13269 15.6414L3.26394 15.6835C3.28738 15.6882 3.31082 15.6976 3.3155 15.707C3.32957 15.7211 3.33425 15.7445 3.32957 15.7726L3.30613 15.8429L3.30144 15.8757V15.8898L3.37175 15.9132V15.9039L3.36238 15.8711L3.37175 15.8382L3.3905 15.782C3.39519 15.7539 3.39988 15.7351 3.3905 15.7257C3.3905 15.7117 3.37644 15.6976 3.36238 15.6835C3.38582 15.6835 3.40925 15.6742 3.42332 15.6601C3.43738 15.6461 3.45144 15.6273 3.45613 15.6039C3.47488 15.557 3.4655 15.5148 3.428 15.4867C3.4057 15.4683 3.38031 15.454 3.353 15.4445L3.15144 15.3835L3.01082 15.8007L3.07175 15.8195Z" fill="#009FC5"/>
<path d="M3.67986 8.23141C3.72673 8.10485 4.20953 7.76265 5.77985 7.91265C5.77985 7.91265 6.04705 8.07673 6.20173 8.05329C6.29549 8.04393 6.15485 8.06265 6.03297 7.96421C5.91581 7.87049 5.89237 7.66893 6.15953 7.67829C6.43141 7.68297 7.43925 7.73921 7.45797 7.83297C7.47673 7.92205 6.92361 7.95953 6.72205 7.95485C6.51581 7.95017 6.53453 8.05329 6.74081 8.04861C7.38297 8.02049 8.08141 7.79549 8.81737 8.32049C8.90641 8.38141 8.59704 8.39081 8.35796 8.29237C8.35796 8.29237 7.70173 8.32517 7.42049 8.27829C7.42049 8.27829 7.20953 8.45641 6.92361 8.43765C6.96113 8.53141 6.82049 8.86893 5.93925 8.61109C5.78925 8.65797 5.25953 8.74705 5.31581 8.58765C5.17517 8.58765 4.93141 8.63453 4.89393 8.55485C4.85641 8.47517 5.32517 8.35797 5.40953 8.27361C5.40953 8.27361 4.41581 8.28297 4.22829 8.21265C4.22829 8.21265 3.64236 8.34393 3.67986 8.23141Z" fill="#BC715F"/>
<path d="M3.99738 9.61869C4.01613 9.59057 4.02549 9.53429 4.07237 9.53901C4.16613 9.56245 4.23645 9.74525 4.35361 9.62805C4.40049 9.61869 4.41457 9.67493 4.44737 9.68429C4.47081 9.78273 4.55521 9.66085 4.61145 9.67025C4.74269 9.61401 4.89737 9.59993 5.05205 9.62337C5.05205 9.72649 4.97705 9.83429 4.88333 9.89057C4.88333 9.98429 4.97705 10.0499 4.97237 10.1484C4.95833 10.1859 4.97237 10.2421 4.91613 10.2562C4.84113 10.2421 4.77549 10.2375 4.71457 10.1953C4.70517 10.1906 4.70049 10.1765 4.68645 10.1812C4.67705 10.214 4.73333 10.2468 4.75205 10.2796C4.71457 10.3406 4.65833 10.2843 4.60677 10.2843C4.59269 10.3218 4.60677 10.364 4.56925 10.3875C4.50833 10.3875 4.49425 10.3171 4.45677 10.2843C4.41457 10.3265 4.48489 10.3499 4.49425 10.3827C4.46613 10.514 4.47081 10.6406 4.34425 10.7249L4.25521 10.7671C4.23177 10.7015 4.24581 10.6031 4.23177 10.5327C4.18489 10.6171 4.13801 10.6921 4.06769 10.7625C3.97394 10.7343 3.92706 10.6312 3.90831 10.5421C3.8892 10.493 3.88478 10.4394 3.8956 10.3878C3.90642 10.3362 3.93201 10.2888 3.96925 10.2515C3.94581 10.2046 3.85206 10.214 3.838 10.139C3.69738 10.0453 3.62706 10.2937 3.538 10.1671C3.5242 10.1046 3.5255 10.0396 3.5418 9.97765C3.55811 9.91569 3.58894 9.85853 3.63175 9.81085C3.60831 9.76401 3.54269 9.77337 3.50519 9.74525C3.42081 9.67025 3.29425 9.59525 3.30362 9.46401C3.42128 9.42141 3.54865 9.41333 3.67074 9.44073C3.79282 9.46817 3.90453 9.52989 3.99269 9.61869" fill="#008737"/>
<path d="M4.11991 9.60449C4.11523 9.71229 4.19023 9.63261 4.25115 9.69825C4.20427 9.67949 4.17147 9.77793 4.12459 9.72169L4.09647 9.74981C4.11523 9.78733 4.14335 9.79201 4.11523 9.83417C4.06835 9.85293 4.05427 9.78733 4.03083 9.76389C4.03083 9.75449 4.04023 9.73573 4.02147 9.72637C3.99335 9.74981 3.96522 9.75917 3.92772 9.75449C3.91835 9.73573 3.89491 9.70761 3.91835 9.68889C3.95585 9.64201 4.01211 9.70761 4.04023 9.67481C4.04491 9.64201 4.01679 9.60449 4.05427 9.58105C4.07771 9.58573 4.11051 9.57169 4.11991 9.60449ZM4.41051 9.69357C4.41523 9.71233 4.40115 9.74045 4.42927 9.75917C4.46679 9.74045 4.50427 9.75449 4.52303 9.78733C4.52303 9.80605 4.52771 9.83417 4.50427 9.84357L4.44803 9.82949C4.45271 9.82013 4.43395 9.81545 4.42927 9.80137C4.40583 9.79669 4.38711 9.81545 4.37303 9.82949C4.38711 9.84825 4.41991 9.86229 4.41051 9.88573C4.37771 9.91857 4.36367 9.85761 4.32615 9.87637C4.29803 9.86701 4.33083 9.81545 4.29335 9.79669C4.24647 9.79669 4.27927 9.87169 4.21835 9.84357C4.19959 9.82013 4.18083 9.78733 4.19959 9.76389C4.21347 9.75565 4.22963 9.75213 4.24567 9.75381C4.26171 9.75549 4.27679 9.76233 4.28867 9.77325C4.32615 9.73105 4.32615 9.58105 4.41523 9.69357M4.04959 9.84825C4.07303 9.88573 4.04023 9.93261 4.07303 9.97013C4.11991 9.87637 4.16679 9.98889 4.22303 9.97949C4.24179 10.0029 4.22771 10.0311 4.23239 10.0545C4.16211 10.0733 4.07771 10.0967 4.01679 10.0405L3.99803 10.0592C4.03551 10.092 4.06835 10.1342 4.04023 10.1905C3.98866 10.1998 3.90428 10.2045 3.88085 10.1483C3.86678 10.1014 3.91366 10.0733 3.86209 10.0357C3.82928 10.0826 3.82928 10.1389 3.75897 10.0967C3.73884 10.0857 3.72371 10.0675 3.71673 10.0456C3.70975 10.0238 3.71145 10.0001 3.72147 9.97949C3.76835 9.90449 3.85272 9.97949 3.89959 9.94669C3.90897 9.88105 3.88553 9.82481 3.94647 9.79201C3.99335 9.78261 4.01679 9.82013 4.04959 9.84825Z" fill="#FFFF00"/>
<path d="M4.24689 9.89046C4.22345 9.99826 4.14377 9.88578 4.10625 9.88106C4.15313 9.78734 4.18593 9.90918 4.24689 9.89046ZM4.50001 10.0076C4.44377 10.0217 4.45313 9.95138 4.42501 9.92326L4.44845 9.9045C4.46721 9.92794 4.48125 9.97482 4.50001 10.0076Z" fill="white"/>
<path d="M4.425 9.98371C4.43908 10.0212 4.38752 10.054 4.43436 10.0775L4.47188 10.0447C4.51408 10.054 4.55624 10.0634 4.58436 10.1009C4.61252 10.1806 4.5328 10.1806 4.49064 10.204H4.44376C4.45312 10.1759 4.42032 10.1666 4.41564 10.1572C4.40664 10.154 4.39684 10.1536 4.38764 10.1561C4.37844 10.1586 4.3702 10.1639 4.36408 10.1712C4.37344 10.2181 4.43436 10.265 4.37344 10.3072C4.3172 10.3072 4.2328 10.3259 4.23752 10.2509C4.21876 10.204 4.29376 10.1431 4.21408 10.1384C4.18592 10.1994 4.1578 10.2509 4.08752 10.1994L4.09688 10.115C4.16252 10.115 4.2422 10.129 4.27032 10.054C4.28908 10.0025 4.23752 9.95091 4.28436 9.91343C4.35468 9.89467 4.3922 9.94155 4.425 9.98371Z" fill="#FFFF00"/>
<path d="M4.37965 10.106C4.39369 10.1482 4.35153 10.1529 4.32809 10.1716C4.29997 10.1716 4.28121 10.1623 4.26245 10.1435C4.24841 10.0966 4.28589 10.0873 4.30933 10.0685C4.34213 10.0545 4.35621 10.092 4.37965 10.106Z" fill="black"/>
<path d="M4.33752 10.1342C4.3328 10.1436 4.31876 10.1389 4.30936 10.1436L4.3 10.0967C4.32344 10.0967 4.34688 10.1014 4.33752 10.1342Z" fill="white"/>
</g>
<defs>
<clipPath id="clip0_69_11186">
<rect width="24" height="24" rx="12" fill="white"/>
</clipPath>
</defs>
</svg>
