<svg width="24" height="24" viewBox="0 0 24 24" fill="none" xmlns="http://www.w3.org/2000/svg">
<g clip-path="url(#clip0_69_5650)">
<path d="M0 -0.400146H24V24.7999H0V-0.400146Z" fill="#3E5EB9"/>
<path d="M0 6.57495H24V17.825H0V6.57495Z" fill="#FFD900"/>
<path d="M0 7.69995H24V16.7H0V7.69995Z" fill="#B10C0C"/>
<path d="M20.5607 10.1433L19.4672 10.5303L20.5562 10.9128L21.6497 10.5303L20.5607 10.1433Z" fill="white" stroke="black" stroke-width="0.15"/>
<path d="M19.8358 10.3999H4.04532C3.96828 10.3999 3.90582 10.4573 3.90582 10.5282C3.90582 10.599 3.96828 10.6564 4.04532 10.6564H19.8358C19.9129 10.6564 19.9753 10.599 19.9753 10.5282C19.9753 10.4573 19.9129 10.3999 19.8358 10.3999Z" fill="#FFD900" stroke="black" stroke-width="0.15"/>
<path d="M19.5924 10.6564C19.6259 10.6554 19.6579 10.6419 19.682 10.6186C19.7061 10.5953 19.7207 10.5639 19.7229 10.5304C19.7218 10.4961 19.7077 10.4636 19.6835 10.4394C19.6592 10.4151 19.6267 10.401 19.5924 10.3999M19.4664 10.6564C19.4992 10.6543 19.53 10.6403 19.5532 10.6171C19.5764 10.5939 19.5903 10.5631 19.5924 10.5304C19.5914 10.4969 19.5779 10.465 19.5546 10.4408C19.5313 10.4167 19.4999 10.4021 19.4664 10.3999M19.3359 10.6564C19.3694 10.6554 19.4014 10.6419 19.4255 10.6186C19.4496 10.5953 19.4642 10.5639 19.4664 10.5304C19.4653 10.4961 19.4512 10.4636 19.427 10.4394C19.4027 10.4151 19.3702 10.401 19.3359 10.3999" fill="#FFD900"/>
<path d="M19.5924 10.6564C19.6259 10.6554 19.6579 10.6419 19.682 10.6186C19.7061 10.5953 19.7207 10.5639 19.7229 10.5304C19.7218 10.4961 19.7077 10.4636 19.6835 10.4394C19.6592 10.4151 19.6267 10.401 19.5924 10.3999M19.4664 10.6564C19.4992 10.6543 19.53 10.6403 19.5532 10.6171C19.5764 10.5939 19.5903 10.5631 19.5924 10.5304C19.5914 10.4969 19.5779 10.465 19.5546 10.4408C19.5313 10.4167 19.4999 10.4021 19.4664 10.3999M19.3359 10.6564C19.3694 10.6554 19.4014 10.6419 19.4255 10.6186C19.4496 10.5953 19.4642 10.5639 19.4664 10.5304C19.4653 10.4961 19.4512 10.4636 19.427 10.4394C19.4027 10.4151 19.3702 10.401 19.3359 10.3999" stroke="black" stroke-width="0.15"/>
<path d="M19.5118 10.9131L18.4183 11.3001L19.5073 11.6826L20.6008 11.3001L19.5118 10.9131Z" fill="white" stroke="black" stroke-width="0.15"/>
<path d="M18.787 11.1697H2.99656C2.91951 11.1697 2.85706 11.2271 2.85706 11.2979C2.85706 11.3688 2.91951 11.4262 2.99656 11.4262H18.787C18.8641 11.4262 18.9265 11.3688 18.9265 11.2979C18.9265 11.2271 18.8641 11.1697 18.787 11.1697Z" fill="#FFD900" stroke="black" stroke-width="0.15"/>
<path d="M18.5436 11.4262C18.5771 11.4251 18.6091 11.4117 18.6332 11.3884C18.6573 11.3651 18.6719 11.3336 18.6741 11.3002C18.673 11.2659 18.6589 11.2334 18.6347 11.2092C18.6104 11.1849 18.5779 11.1708 18.5436 11.1697M18.4176 11.4262C18.4503 11.424 18.4812 11.4101 18.5044 11.3869C18.5276 11.3637 18.5415 11.3329 18.5436 11.3002C18.5426 11.2667 18.5291 11.2347 18.5058 11.2106C18.4825 11.1865 18.4511 11.1719 18.4176 11.1697M18.2871 11.4262C18.3206 11.4251 18.3526 11.4117 18.3767 11.3884C18.4008 11.3651 18.4154 11.3336 18.4176 11.3002C18.4165 11.2659 18.4024 11.2334 18.3782 11.2092C18.3539 11.1849 18.3214 11.1708 18.2871 11.1697" fill="#FFD900"/>
<path d="M18.5436 11.4262C18.5771 11.4251 18.6091 11.4117 18.6332 11.3884C18.6573 11.3651 18.6719 11.3336 18.6741 11.3002C18.673 11.2659 18.6589 11.2334 18.6347 11.2092C18.6104 11.1849 18.5779 11.1708 18.5436 11.1697M18.4176 11.4262C18.4503 11.424 18.4812 11.4101 18.5044 11.3869C18.5276 11.3637 18.5415 11.3329 18.5436 11.3002C18.5426 11.2667 18.5291 11.2347 18.5058 11.2106C18.4825 11.1865 18.4511 11.1719 18.4176 11.1697M18.2871 11.4262C18.3206 11.4251 18.3526 11.4117 18.3767 11.3884C18.4008 11.3651 18.4154 11.3336 18.4176 11.3002C18.4165 11.2659 18.4024 11.2334 18.3782 11.2092C18.3539 11.1849 18.3214 11.1708 18.2871 11.1697" stroke="black" stroke-width="0.15"/>
<path d="M22.7386 12.0066H1.26011C1.15572 12.0066 1.07111 12.0932 1.07111 12.2001C1.07111 12.307 1.15572 12.3936 1.26011 12.3936H22.7386C22.843 12.3936 22.9276 12.307 22.9276 12.2001C22.9276 12.0932 22.843 12.0066 22.7386 12.0066Z" fill="#FFD900" stroke="black" stroke-width="0.165"/>
<path d="M18.3078 12.1996C17.0215 13.4858 15.3078 16.0583 11.8803 16.0583C8.88026 16.0583 6.73901 13.4858 5.45276 12.1996C6.73526 10.9133 8.88026 8.34082 11.8803 8.34082C15.3078 8.34082 17.0215 10.9133 18.3078 12.1996Z" fill="white" stroke="black" stroke-width="0.15"/>
<path d="M11.4303 9.68707C11.7753 10.0696 11.4865 10.2233 11.8503 10.2496C12.2328 10.2758 12.0153 10.6546 12.3378 10.6696C12.5628 10.6771 12.3153 11.5771 12.529 11.8696C12.7503 12.1808 12.934 11.9633 12.9415 12.1846C12.9415 12.4171 12.3415 12.3908 12.3303 13.1033C12.3115 13.5121 11.8203 13.5383 11.7978 13.8008C11.7678 14.0483 12.7653 14.1871 12.7503 14.4083C12.739 14.6333 11.674 14.5958 11.6253 14.8471C11.6028 15.0721 13.0878 15.2596 13.2078 15.9158C12.9828 15.9908 12.3565 16.0546 11.8803 16.0583C8.88026 16.0583 6.73901 13.4858 5.45276 12.1958C6.73901 10.9133 8.88026 8.34082 11.8803 8.34082C11.8803 8.34082 10.9915 9.15457 11.4303 9.68332V9.68707Z" fill="black"/>
<path d="M8.00977 11.8581V10.8276M8.63077 10.8276V11.8581M9.25177 10.8276V11.8581" stroke="white" stroke-width="1.035"/>
<path d="M8.00977 13.5725V12.542M8.63077 12.542V13.5725M9.25177 12.542V13.5725" stroke="white" stroke-width="1.035"/>
<path d="M9.88123 11.8581V10.8276M10.5022 10.8276V11.8581M11.1232 10.8276V11.8581" stroke="white" stroke-width="1.035"/>
<path d="M9.88123 13.5725V12.542M10.5022 12.542V13.5725M11.1232 12.542V13.5725" stroke="white" stroke-width="1.035"/>
<path d="M12.7266 11.8581V10.8276M13.3476 10.8276V11.8581M13.9686 10.8276V11.8581" stroke="black" stroke-width="1.035"/>
<path d="M12.7266 13.5725V12.542M13.3476 12.542V13.5725M13.9686 12.542V13.5725" stroke="black" stroke-width="1.035"/>
<path d="M14.5981 11.8581V10.8276M15.2191 10.8276V11.8581M15.8401 10.8276V11.8581" stroke="black" stroke-width="1.035"/>
<path d="M14.5981 13.5725V12.542M15.2191 12.542V13.5725M15.8401 12.542V13.5725" stroke="black" stroke-width="1.035"/>
<path d="M21.39 12.0501C21.195 12.3839 21.54 11.9376 22.38 12.5001C22.4654 12.5707 22.5354 12.658 22.5857 12.7567C22.636 12.8554 22.6656 12.9633 22.6725 13.0739C22.635 13.0476 22.6012 12.9876 22.56 12.9539C22.5 13.0139 22.62 13.2914 22.635 13.4226C22.5037 13.3476 22.515 13.3176 22.4737 13.2276C22.4812 13.3326 22.4475 13.6326 22.5037 13.7526C22.3987 13.7226 22.4062 13.6401 22.3537 13.6214C22.3912 13.7526 22.32 13.8914 22.3388 14.0414C22.2788 13.9814 22.2112 13.9326 22.185 13.9101C22.1775 13.9851 22.0688 14.1651 22.065 14.2326C22.0454 14.2201 22.0286 14.2036 22.0157 14.1842C22.0028 14.1649 21.9941 14.143 21.99 14.1201C21.871 14.262 21.7702 14.4182 21.69 14.5851C21.5138 14.4351 21.0675 14.0601 21.0075 13.8576C20.955 13.9701 20.88 14.0076 20.7375 14.0901C20.6775 13.7751 20.4562 13.4226 20.5725 13.1489C20.4937 13.1976 20.4174 13.2502 20.3438 13.3064C20.4108 13.0301 20.5403 12.7728 20.7224 12.5544C20.9044 12.336 21.1341 12.1622 21.3937 12.0464L21.39 12.0501Z" fill="#333333" stroke="black" stroke-width="0.125"/>
<path d="M20.6625 13.7188C20.745 13.5575 20.82 13.505 20.8725 13.4C20.9625 13.22 20.9775 13.07 21.06 13.0925C21.135 13.115 21.135 13.19 21.0337 13.37C20.9325 13.55 20.8837 13.5875 20.6625 13.7188ZM21.21 14.1013C21.2025 13.9813 21.2362 13.9288 21.2325 13.85C21.2175 13.7075 21.1612 13.6138 21.2362 13.6063C21.3112 13.6025 21.345 13.6475 21.345 13.7863C21.345 13.9288 21.3225 13.9663 21.21 14.1013ZM21.6262 14.3413C21.5925 14.1725 21.6187 14.0975 21.5962 13.985C21.5587 13.79 21.4875 13.6625 21.5587 13.6438C21.6262 13.625 21.6712 13.6888 21.6975 13.8875C21.72 14.0825 21.7087 14.1388 21.6262 14.345V14.3413ZM22.0575 13.1413C21.9562 13.0663 21.8962 13.0588 21.8325 13.01C21.72 12.92 21.66 12.83 21.6225 12.875C21.585 12.92 21.6112 12.9725 21.735 13.0513C21.8587 13.13 21.8925 13.1375 22.0575 13.1413ZM21.9862 13.7113C21.9337 13.5988 21.8737 13.5725 21.8437 13.5013C21.7837 13.3738 21.7837 13.265 21.7125 13.2913C21.6487 13.3213 21.6412 13.3775 21.7125 13.5013C21.7875 13.6213 21.825 13.6438 21.9825 13.7113H21.9862Z" fill="#B3B3B3"/>
<path d="M2.01706 12.3726C2.00206 12.2751 2.02456 12.2601 1.96456 12.1851C2.05456 12.2226 2.05456 12.3238 2.16331 12.2526C2.20081 12.2338 2.21956 12.2338 2.17081 12.1213C2.28331 12.1288 2.64706 12.2526 2.70706 12.2563C2.86081 12.2638 3.14204 12.0951 3.33704 12.3013C3.52454 12.4888 3.45704 12.6876 3.45704 12.9463C3.38204 12.9088 3.41954 12.8976 3.33704 12.8001C3.39704 13.0326 3.33704 13.4413 3.33704 13.6851C3.30704 13.6251 3.31079 13.6513 3.28079 13.5913C3.20579 13.8126 3.10829 13.8538 3.10829 14.1201C3.07829 14.0151 3.10829 14.0376 3.07454 13.9851C2.99956 14.1538 2.47456 14.2963 2.67706 14.4651C2.49706 14.3601 2.41456 14.3676 2.33956 14.2776C2.30206 14.2963 2.27206 14.3413 2.24206 14.3976C1.92331 14.2551 2.03581 13.9401 1.78831 13.7263C1.74331 13.8163 1.76206 13.8051 1.71331 13.9476C1.66831 13.7488 1.65331 13.6213 1.59706 13.4751C1.54831 13.5576 1.55206 13.5238 1.46206 13.6476C1.42456 13.4076 1.36831 13.3476 1.38706 13.1863C1.29706 13.2538 1.35706 13.2238 1.26331 13.3063C1.35331 12.6876 1.73581 12.2263 2.01331 12.3688L2.01706 12.3726Z" fill="#333333" stroke="black" stroke-width="0.1625"/>
<path d="M1.62659 13.389C1.70533 13.1865 1.77659 13.1265 1.83284 12.999C1.92659 12.7702 1.94159 12.5865 2.02034 12.6127C2.09534 12.6427 2.09533 12.7327 1.99033 12.9577C1.88533 13.1827 1.84033 13.2277 1.62659 13.389ZM1.93408 13.8877C1.96408 13.7077 2.01658 13.6477 2.03909 13.5277C2.07659 13.3252 2.05783 13.1752 2.12908 13.1827C2.20408 13.1902 2.21908 13.269 2.17034 13.4677C2.12159 13.674 2.08783 13.7227 1.93033 13.8877H1.93408ZM2.30159 14.2402C2.31284 14.0677 2.35408 13.9965 2.36158 13.884C2.37283 13.689 2.33158 13.5465 2.39908 13.5465C2.47408 13.5465 2.49658 13.6177 2.47408 13.8127C2.45158 14.0077 2.42909 14.0602 2.30159 14.2402ZM3.09659 13.1002C2.94658 12.9502 2.85658 12.9202 2.75908 12.8227C2.58658 12.6502 2.50033 12.4927 2.43658 12.549C2.37658 12.6052 2.41409 12.6877 2.59784 12.849C2.77784 13.0177 2.84158 13.0402 3.10034 13.1002H3.09659ZM3.00659 13.6852C2.90908 13.5352 2.83409 13.494 2.77034 13.3927C2.65784 13.224 2.62033 13.0777 2.55658 13.1115C2.49283 13.149 2.50783 13.224 2.62783 13.3927C2.75158 13.5577 2.79658 13.5877 3.00659 13.6852Z" fill="#B3B3B3"/>
<path d="M9.8018 9.02759C9.6218 9.37259 10.113 8.91509 10.8818 9.49259C11.0686 9.69251 11.1891 9.94529 11.2268 10.2163C11.0701 10.1663 10.9193 10.0996 10.7768 10.0176C10.7768 10.0176 11.1143 10.3626 11.1143 10.7526C10.9943 10.6776 10.9343 10.6888 10.8893 10.5988C10.8893 10.7226 11.0018 10.8051 11.0018 11.0001C10.9279 10.9406 10.8488 10.8879 10.7655 10.8426C10.878 11.0413 10.5593 11.4238 10.7205 11.5476C10.5852 11.529 10.4551 11.4828 10.3383 11.4118C10.2216 11.3409 10.1206 11.2467 10.0418 11.1351C9.9818 11.1726 9.9743 11.2363 9.97055 11.3076C9.9818 11.3113 9.5468 10.9813 9.58805 10.8576C9.5384 10.9196 9.50954 10.9957 9.50555 11.0751C9.34115 10.9381 9.21677 10.7593 9.14555 10.5576C9.07805 10.6476 9.07055 10.6476 8.9993 10.7451C8.9468 10.4188 8.9468 10.4301 9.0518 10.1526C8.97908 10.2027 8.909 10.2565 8.8418 10.3138C8.89664 10.0417 9.01118 9.78524 9.1772 9.56279C9.34322 9.34037 9.55655 9.15755 9.8018 9.02759Z" fill="#333333" stroke="black" stroke-width="0.125"/>
<path d="M9.35974 10.7071C9.38974 10.4708 9.44974 10.3846 9.47224 10.2271C9.50224 9.96459 9.46474 9.76209 9.56224 9.76959C9.65224 9.77709 9.68224 9.87459 9.63724 10.1446C9.58849 10.4108 9.54724 10.4746 9.36349 10.7108L9.35974 10.7071ZM9.85849 11.1421C9.83974 10.9471 9.87724 10.8571 9.86224 10.7296C9.84349 10.5046 9.77224 10.3471 9.85474 10.3358C9.93724 10.3208 9.98224 10.3958 9.98974 10.6283C9.99724 10.8533 9.97849 10.9171 9.85849 11.1421ZM10.6385 11.5021C10.5522 11.3258 10.4772 11.2771 10.4247 11.1646C10.3272 10.9658 10.3047 10.8083 10.2335 10.8346C10.1585 10.8646 10.1622 10.9471 10.271 11.1421C10.376 11.3296 10.4247 11.3708 10.6347 11.5021H10.6385ZM10.9047 9.94584C10.6872 9.83334 10.5785 9.83334 10.4397 9.75834C10.196 9.63084 10.0535 9.49209 10.0047 9.57084C9.95224 9.64584 10.0197 9.72459 10.271 9.84084C10.5222 9.95709 10.601 9.96084 10.901 9.94584H10.9047ZM10.9797 10.5946C10.8297 10.4671 10.7322 10.4446 10.631 10.3621C10.451 10.2121 10.3647 10.0733 10.3085 10.1296C10.2485 10.1896 10.286 10.2646 10.4735 10.4033C10.661 10.5421 10.7247 10.5571 10.9835 10.5946H10.9797Z" fill="#B3B3B3"/>
</g>
<defs>
<clipPath id="clip0_69_5650">
<rect width="24" height="24" rx="12" fill="white"/>
</clipPath>
</defs>
</svg>
