<svg width="24" height="24" viewBox="0 0 24 24" fill="none" xmlns="http://www.w3.org/2000/svg">
<g clip-path="url(#clip0_69_12216)">
<g clip-path="url(#clip1_69_12216)">
<mask id="mask0_69_12216" style="mask-type:luminance" maskUnits="userSpaceOnUse" x="-4" y="0" width="32" height="24">
<path d="M28 0H-4V24H28V0Z" fill="white"/>
</mask>
<g mask="url(#mask0_69_12216)">
<path d="M28 24V0H-4V24H28Z" fill="#000066"/>
<path d="M24.7238 9.98438C24.7238 13.1694 24.2138 16.6094 20.0738 18.2494C15.9438 16.6094 15.4388 13.1694 15.4188 9.98438H24.7238Z" fill="#8FC5FF" stroke="white" stroke-width="0.5375"/>
<path d="M20.0712 18.2344C21.6451 17.6834 22.9571 16.5657 23.7512 15.0994H23.3612C23.2462 15.0794 19.3912 14.7094 18.9262 14.5144C18.5312 14.3744 17.0062 14.6494 16.3062 14.9044C17.0795 16.4633 18.433 17.6571 20.0762 18.2294L20.0712 18.2344Z" fill="#366CC9" stroke="black" stroke-width="0.5375"/>
<path d="M17.18 16.2802H17.415C17.47 16.2802 17.47 16.2802 17.49 16.2202C17.51 16.1602 17.57 16.1802 17.61 16.2002C17.645 16.2202 17.725 16.2002 17.76 16.1602C17.805 16.1202 17.805 16.1202 17.845 16.1602C17.88 16.2002 17.9 16.1802 17.945 16.1602C17.96 16.1602 18.04 16.1202 18.06 16.0602C18.075 16.0052 18.135 15.9852 18.16 16.0252C18.175 16.0652 18.21 16.0652 18.255 16.0652C18.29 16.0652 18.29 16.0802 18.29 16.1402C18.29 16.1802 18.29 16.2002 18.39 16.1202C18.47 16.2002 18.49 16.1602 18.49 16.0802C18.49 16.0052 18.49 15.6902 18.45 15.6702C18.41 15.6502 18.39 15.5152 18.37 15.4202C18.37 15.2202 18.37 15.2202 18.175 15.1202C18.175 15.0702 18.135 15.0452 17.975 15.0452C18 15.0252 17.975 14.9702 17.94 14.9452C17.9 14.9302 17.9 14.9102 17.94 14.8302C17.98 14.8302 18.06 14.8302 18.075 14.7702C18.115 14.7352 18.235 14.7352 18.31 14.7702C18.39 14.8102 18.47 14.8102 18.605 14.7702L18.84 14.6552C18.94 14.5952 18.955 14.5752 18.955 14.5002C18.955 14.3002 18.9 14.1102 18.855 14.0102C18.805 13.9102 18.805 13.8102 18.72 13.6402C18.645 13.4802 18.645 13.4402 18.57 13.3452C18.525 13.3052 18.505 13.2852 18.505 13.2302C18.4992 13.153 18.4633 13.0812 18.405 13.0302C18.255 12.8952 18.215 12.4452 18.135 12.1152C18.095 11.9152 18.135 11.4652 18.06 11.3902C17.92 11.2902 17.86 11.3102 17.76 11.2752C17.685 11.1752 17.665 11.0002 17.59 10.8252C17.49 10.8452 17.43 10.9402 17.375 10.9752C17.315 11.0202 17.295 11.0202 17.295 11.1152C17.295 11.1952 17.235 11.3152 17.16 11.4652C17.08 11.6252 16.905 11.5652 16.765 11.7802C16.495 11.4502 16.495 11.3502 16.475 11.2552C16.475 11.1552 16.415 11.1352 16.26 11.0002V10.7002C16.12 10.6002 16.045 10.6252 15.985 10.7002C15.925 10.7602 15.885 10.8552 15.79 10.9002C15.75 10.9752 15.59 11.1302 15.475 11.3502C15.595 13.1052 15.985 14.8652 17.175 16.2752L17.18 16.2802Z" fill="#5D3100" stroke="black" stroke-width="0.05"/>
<path d="M24.7238 9.98448C24.7238 8.76948 24.6638 7.59448 24.6838 6.58448C23.213 6.01256 21.6468 5.72576 20.0688 5.73948C19.0338 5.73948 16.9988 5.89448 15.4588 6.57948C15.4938 7.59448 15.4188 8.76948 15.4188 9.97948L24.7238 9.98448Z" fill="#FFFF00" stroke="white" stroke-width="0.5375"/>
<path d="M15.675 11.3693C15.725 11.4493 15.82 11.5843 15.825 11.6693C15.865 11.5893 15.895 11.5593 15.9 11.5143C15.9 11.4643 15.965 11.3793 15.94 11.3293C15.92 11.2793 15.905 11.2443 15.96 11.2793C16.015 11.3143 16.005 11.3793 15.995 11.4693C15.96 11.7193 15.86 11.7693 15.845 11.9343C15.99 12.2843 15.88 12.4143 16.045 12.7643C16.07 12.7743 16.135 12.7493 16.155 12.7543C16.245 12.6943 16.305 12.7093 16.43 12.7393C16.55 12.7643 16.615 12.8493 16.615 12.9293C16.615 13.0093 16.615 13.0243 16.645 13.0693C16.67 13.1093 16.715 13.1843 16.71 13.2393C16.695 13.2893 16.715 13.3193 16.735 13.3393C16.75 13.3643 16.725 13.4293 16.715 13.4593C16.7 13.4893 16.705 13.5443 16.765 13.6193C16.825 13.6943 16.965 14.0143 16.965 14.1993C16.965 14.3943 16.98 14.4793 17.055 14.5143C17.13 14.5493 17.155 14.5793 17.145 14.6593C17.135 14.7343 17.18 15.1593 17.19 15.2293C17.195 15.2943 17.225 15.2793 17.26 15.3143C17.29 15.3493 17.31 15.3893 17.41 15.3893C17.515 15.3893 17.61 15.3793 17.67 15.3893C17.77 15.5143 17.82 15.6893 17.845 15.7943C17.87 15.9043 17.865 16.0443 17.895 16.0443C17.935 16.0443 17.97 16.0443 17.96 15.9193C17.95 15.7893 17.94 15.7693 17.895 15.6993C17.845 15.6343 17.82 15.5993 17.845 15.5643C17.87 15.5243 17.875 15.4643 17.87 15.4093C17.86 15.3593 17.84 15.2793 17.93 15.3793L18.065 15.5443C18.09 15.5743 18.1 15.6443 18.095 15.7093C18.09 15.7693 18.095 15.7943 18.14 15.7593C18.175 15.7293 18.215 15.7843 18.19 15.8493C18.175 15.9143 18.205 15.9543 18.265 15.9793C18.325 15.9993 18.35 16.0143 18.365 16.0593C18.38 16.0993 18.43 16.1243 18.43 16.0293C18.4251 15.9122 18.4049 15.7962 18.37 15.6843C18.345 15.6243 18.325 15.4943 18.32 15.4143C18.31 15.3393 18.3 15.3193 18.265 15.3093C18.23 15.2943 18.195 15.2593 18.19 15.2293C18.19 15.1943 18.155 15.1793 18.135 15.1793C18.11 15.1793 18.09 15.1643 18.075 15.1393C18.065 15.1093 18.05 15.1093 18.025 15.1093C18 15.1043 17.96 15.1193 17.945 15.0793C17.935 15.0393 17.915 14.9793 17.89 14.9493C17.865 14.9193 17.845 14.9043 17.84 14.7893C17.84 14.6743 17.84 14.6593 17.8 14.6193C17.76 14.5793 17.7 14.4693 17.675 14.4293C17.655 14.3793 17.625 14.3343 17.625 14.4293C17.625 14.5293 17.625 14.5793 17.69 14.6143C17.75 14.6493 17.765 14.6493 17.74 14.7043C17.71 14.7543 17.74 14.7893 17.75 14.8243C17.765 14.8593 17.78 14.8943 17.75 14.9243C17.72 14.9643 17.69 14.9543 17.695 14.8993C17.6952 14.8412 17.6797 14.7842 17.65 14.7343C17.63 14.6843 17.605 14.6543 17.575 14.6843C17.545 14.7043 17.52 14.6743 17.54 14.6543C17.565 14.6343 17.555 14.6193 17.54 14.6043C17.53 14.5943 17.52 14.5743 17.545 14.5443C17.57 14.5143 17.57 14.4993 17.555 14.4293C17.54 14.3593 17.43 13.9993 17.38 13.9193C17.33 13.8343 17.335 13.7793 17.395 13.8543C17.46 13.9343 17.52 14.0043 17.53 14.0743C17.53 14.1443 17.545 14.1843 17.565 14.2043C17.59 14.2293 17.6 14.2243 17.615 14.1643C17.615 14.1093 17.665 14.1293 17.595 14.0243C17.52 13.9193 17.39 13.7393 17.335 13.4143C17.285 13.0943 17.265 12.8893 17.215 12.8043C17.165 12.7143 17.15 12.6943 17.145 12.6143C17.14 12.5343 17.145 12.4493 17.11 12.3893C17.075 12.3293 17.05 12.3193 17.045 12.4093C17.04 12.4993 17.045 12.7093 17.075 12.7393C17.105 12.7743 17.085 12.8693 17.075 12.9143C17.065 12.9643 16.99 13.0193 17.16 13.1193C17.225 13.1643 17.21 13.2193 17.21 13.2493C17.195 13.2893 17.185 13.2843 17.15 13.2293C17.115 13.1743 17.08 13.1243 17.045 13.0993C17.01 13.0743 17 13.0493 17.01 12.9743C17.02 12.8993 17.025 12.8493 17.01 12.8243C16.99 12.8043 16.98 12.8193 16.965 12.8643C16.955 12.9043 16.95 13.0143 16.92 13.0443C16.895 13.0743 16.895 13.0543 16.88 12.9893C16.86 12.9243 16.885 12.8193 16.92 12.7043C16.955 12.5943 16.98 12.4643 16.95 12.3143C16.92 12.1643 16.93 12.1143 16.82 11.9893C16.7 11.8593 16.565 11.7393 16.515 11.5843C16.455 11.4243 16.445 11.2843 16.38 11.2143C16.3237 11.1423 16.2562 11.0798 16.18 11.0293V10.7943C16.18 10.7343 16.155 10.7043 16.09 10.7143C16.025 10.7243 15.98 10.7793 15.94 10.8543C15.9 10.9343 15.87 10.8993 15.81 11.0293C15.75 11.1593 15.68 11.2293 15.68 11.3693H15.675Z" fill="#CF6200"/>
<path d="M16.0415 12.8554C16.0915 12.8854 16.1265 12.9004 16.1915 12.8704C16.2465 12.8404 16.3165 12.7504 16.4065 12.8404C16.4826 12.9356 16.5248 13.0535 16.5265 13.1754C16.5265 13.2904 16.5265 13.5004 16.6565 13.6154C16.7865 13.7304 16.8515 13.8554 16.8565 14.0054C16.867 14.1571 16.8904 14.3076 16.9265 14.4554C16.9465 14.5154 16.9765 14.5854 17.0215 14.6304C17.0565 14.6704 17.0915 14.7854 17.0965 14.9054C17.1015 15.0304 17.0815 15.1104 17.0965 15.1754C17.1165 15.2354 17.0965 15.2854 17.0565 15.2604C17.0065 15.2354 16.9965 15.2104 16.9665 15.1604C16.9365 15.1104 16.9165 15.1154 16.9415 15.1954C16.9665 15.2754 17.0415 15.3454 17.1065 15.3454C17.1715 15.3454 17.1915 15.3504 17.2365 15.3954C17.2765 15.4354 17.2815 15.4554 17.3515 15.4554C17.4215 15.4554 17.4315 15.4554 17.5015 15.4754C17.5665 15.4904 17.5665 15.4854 17.6015 15.4754C17.6365 15.4604 17.6715 15.4954 17.6965 15.5604C17.7165 15.6254 17.7815 15.8104 17.7815 15.8604C17.7815 15.9104 17.7815 15.9604 17.8165 16.0104C17.8515 16.0654 17.8415 16.1104 17.8015 16.0854C17.7665 16.0554 17.7615 16.0604 17.7365 16.0704C17.7065 16.0804 17.6865 16.0604 17.6415 16.0304C17.6015 16.0104 17.6265 16.0154 17.5865 15.9554C17.5465 15.8904 17.5215 15.8704 17.5215 15.9204C17.5215 15.9704 17.5115 16.0204 17.4815 15.9904C17.4515 15.9654 17.4365 15.9654 17.4115 15.9904C17.3865 16.0204 17.3765 16.0404 17.3465 15.9904C17.3165 15.9404 17.2815 15.9404 17.2465 15.9254C17.2215 15.9204 17.2215 15.9204 17.2065 15.8754C17.1915 15.8254 17.1415 15.8154 17.1065 15.8154C17.0615 15.8154 17.0415 15.7954 17.0365 15.7654C17.0365 15.7354 17.0065 15.7154 16.9865 15.7004C16.9615 15.6854 16.9765 15.6504 16.9715 15.6154C16.9715 15.5804 16.9365 15.5904 16.9165 15.5854C16.8915 15.5754 16.8815 15.5804 16.8815 15.5254C16.8815 15.4754 16.8565 15.4604 16.8465 15.4254C16.8265 15.3854 16.8465 15.3504 16.8565 15.3154C16.8615 15.2654 16.8565 15.2454 16.8265 15.2154C16.7965 15.1754 16.8265 15.1404 16.7415 15.0654C16.6565 15.0004 16.6165 15.0604 16.5915 14.8954C16.5772 14.7009 16.5368 14.5092 16.4715 14.3254C16.4215 14.2754 16.3965 14.2254 16.3465 14.2104C16.2965 14.1954 16.2765 14.2104 16.2715 14.1104C16.2665 14.0104 16.2365 13.8904 16.1715 13.8304L16.0565 13.7204C16.0265 13.7004 16.0115 13.6504 16.0565 13.5704C16.1015 13.4804 16.0815 13.3604 16.0765 13.3054C16.0715 13.2554 16.0565 13.1754 16.0665 13.1154C16.0765 13.0554 16.0665 12.9804 16.0565 12.9404C16.0415 12.9054 16.0215 12.8904 16.0465 12.8554H16.0415ZM17.2665 11.4154C17.2001 11.5033 17.1209 11.5808 17.0315 11.6454C16.9365 11.7154 16.8165 11.7654 16.8815 11.8804C16.9515 11.9954 17.0065 12.0104 17.0165 12.0954C17.0315 12.1854 17.0565 12.2604 17.1165 12.2804C17.1915 12.3004 17.2165 12.2904 17.2165 12.4304C17.2165 12.5654 17.2165 12.6304 17.2765 12.6804C17.3365 12.7304 17.3265 12.7904 17.3565 12.9154C17.3865 13.0454 17.3865 13.3254 17.4665 13.5154C17.5415 13.7004 17.7315 14.0654 17.7065 14.1354C17.6865 14.2104 17.6665 14.2654 17.7415 14.3554C17.8265 14.4404 17.8765 14.5704 17.8915 14.6454C17.8915 14.7204 17.9065 14.7454 17.9915 14.7204C18.047 14.7064 18.0973 14.677 18.1365 14.6354C18.1615 14.6004 18.2165 14.6054 18.2915 14.6454C18.3665 14.6904 18.4815 14.7254 18.5515 14.6904C18.6165 14.6454 18.6515 14.5854 18.7115 14.5854C18.8065 14.5154 18.8415 14.3754 18.8615 14.3354C18.8815 14.2954 18.8665 14.2954 18.8265 14.2554C18.7865 14.2154 18.8065 14.1454 18.8015 14.0804C18.7915 14.0104 18.7665 13.9054 18.6865 13.7554C18.6065 13.6054 18.5515 13.4254 18.5015 13.3804C18.4515 13.3304 18.4215 13.2154 18.4165 13.1604C18.4115 13.1104 18.3465 13.0604 18.3065 13.0204C18.2615 12.9754 18.2265 12.9204 18.1765 12.6804C18.1265 12.4454 18.0965 12.2804 18.0965 12.2304C18.0965 12.1904 18.0865 12.1904 18.0465 12.1704C18.0065 12.1554 17.9865 12.0904 18.0065 12.0604C18.0115 12.0254 17.9865 11.9904 17.9715 11.9504C17.9615 11.9104 17.9715 11.8354 18.0015 11.7904C18.0265 11.7504 18.0215 11.6404 17.9965 11.5404C17.9715 11.4504 17.9415 11.3704 17.8315 11.3504C17.7265 11.3404 17.7015 11.3104 17.6665 11.2204C17.6165 11.1354 17.5765 10.9804 17.5665 10.9454C17.5565 10.9104 17.5315 10.9054 17.4515 10.9754C17.3715 11.0404 17.3415 11.0604 17.3415 11.1904C17.3415 11.2754 17.3615 11.3004 17.3865 11.3454C17.4115 11.3954 17.4215 11.4104 17.4365 11.5354C17.4565 11.6604 17.5715 11.8654 17.4265 11.9854C17.2765 12.0954 17.2965 12.1254 17.3015 12.2054C17.3115 12.2904 17.2615 12.3404 17.2365 12.2304C17.2065 12.1104 17.2365 12.0454 17.3165 11.9904C17.3965 11.9404 17.4715 11.8654 17.4165 11.7904C17.3685 11.6864 17.3397 11.5746 17.3315 11.4604C17.3265 11.3804 17.3165 11.3504 17.2665 11.4154Z" fill="#CF6200"/>
<path d="M16.0614 13.1406L16.0764 13.3056C16.0764 13.3606 16.0964 13.4806 16.0514 13.5656C16.0114 13.6506 16.0214 13.6956 16.0514 13.7206H16.0564C16.1414 13.6956 16.1564 13.6056 16.1314 13.5606C16.1206 13.5367 16.1159 13.5105 16.1177 13.4844C16.1194 13.4582 16.1276 13.4329 16.1414 13.4106C16.1664 13.3606 16.1664 13.3356 16.1414 13.3006C16.1164 13.2656 16.1164 13.2656 16.1414 13.1706C16.1714 13.0856 16.1064 13.0856 16.0614 13.1406ZM16.9314 14.4556C16.9164 14.3956 16.8564 14.1556 16.8564 14.0056C16.8514 13.8556 16.7814 13.7306 16.6564 13.6156C16.5564 13.5256 16.5364 13.3806 16.5264 13.2656C16.4514 13.2206 16.4264 13.2406 16.4314 13.3256C16.4314 13.4156 16.5314 13.4556 16.5164 13.5906C16.5014 13.7206 16.5014 13.6906 16.5664 13.7556C16.6214 13.8156 16.6514 13.8856 16.6164 13.9056C16.5814 13.9306 16.5814 13.9806 16.6264 13.9956C16.6764 14.0156 16.6764 14.0656 16.6714 14.1156C16.6664 14.1606 16.7164 14.1706 16.7364 14.2006C16.7664 14.2356 16.7664 14.3206 16.7364 14.3656C16.7164 14.4156 16.7114 14.4906 16.7564 14.4506C16.8064 14.4056 16.8264 14.4506 16.8614 14.5106C16.8914 14.5606 16.9214 14.5457 16.9614 14.5357C16.947 14.5102 16.9353 14.4834 16.9264 14.4556H16.9314ZM17.5814 15.6357C17.5614 15.6957 17.5264 15.6806 17.4964 15.6506C17.4664 15.6206 17.4314 15.6206 17.4464 15.5606C17.4564 15.5057 17.4464 15.4956 17.4114 15.4656L17.3964 15.4506H17.3564C17.2814 15.4506 17.2764 15.4356 17.2314 15.3906C17.2234 15.3836 17.215 15.3769 17.2064 15.3706V15.4106C17.2064 15.4657 17.2064 15.4506 17.1564 15.4706C17.1064 15.4856 17.1064 15.4156 17.0964 15.3706C17.0956 15.3605 17.094 15.3504 17.0914 15.3406C17.0554 15.3326 17.0224 15.3148 16.996 15.2892C16.9695 15.2636 16.9506 15.2312 16.9414 15.1956C16.9164 15.1156 16.9414 15.1106 16.9714 15.1607C17.0014 15.2106 17.0064 15.2256 17.0514 15.2606C17.0914 15.2857 17.1114 15.2356 17.0914 15.1756C17.0887 15.154 17.0887 15.1322 17.0914 15.1106C17.0839 15.09 17.0698 15.0725 17.0514 15.0606C16.9614 15.0257 16.9914 15.0206 16.9914 14.9506C17.0014 14.8856 16.9864 14.8856 16.9314 14.9206C16.8814 14.9556 16.8814 14.9207 16.8814 14.8106C16.8814 14.7106 16.8114 14.7106 16.7964 14.7806C16.7814 14.8556 16.7514 14.8056 16.7264 14.7056C16.7014 14.6056 16.6514 14.5756 16.6514 14.6756C16.6514 14.7606 16.6214 14.7757 16.5714 14.7356L16.5914 14.8906C16.6164 15.0556 16.6564 14.9906 16.7414 15.0656C16.8214 15.1356 16.7964 15.1756 16.8264 15.2106C16.8564 15.2456 16.8614 15.2706 16.8564 15.3106C16.8414 15.3506 16.8264 15.3856 16.8414 15.4206C16.8564 15.4606 16.8814 15.4706 16.8814 15.5256C16.8814 15.5756 16.8914 15.5707 16.9164 15.5856H16.9564L16.9914 15.5356C17.0564 15.4756 17.1414 15.5356 17.1764 15.6206C17.2064 15.6956 17.2414 15.7156 17.2914 15.6506C17.3414 15.5906 17.3214 15.6006 17.3714 15.6556C17.4214 15.7156 17.4414 15.7056 17.4414 15.7056C17.4414 15.7056 17.4914 15.6856 17.5314 15.7156C17.5664 15.7456 17.5814 15.7406 17.6514 15.6456C17.7164 15.5456 17.6214 15.5756 17.5914 15.6357H17.5814ZM17.7714 12.8456C17.7914 12.6956 17.7764 12.5506 17.8364 12.4956C17.9014 12.4456 17.9714 12.3306 17.9714 12.5656C17.9614 12.7956 17.9514 12.7806 17.9064 12.8356C17.8564 12.8906 17.8164 12.9056 17.8564 12.9906C17.9114 13.0756 17.9164 13.0906 17.9114 13.2206C17.9064 13.3556 17.9064 13.4156 17.9564 13.4806C18.0114 13.5506 18.0264 13.5506 18.0414 13.6306C18.0571 13.7162 18.099 13.7949 18.1614 13.8556C18.2214 13.9156 18.2914 14.0656 18.2964 14.1756C18.3064 14.2856 18.3964 14.3106 18.4864 14.3906C18.5764 14.4656 18.4664 14.5156 18.4014 14.4806C18.3314 14.4506 18.3564 14.4806 18.3164 14.5306C18.2764 14.5806 18.2664 14.5856 18.2314 14.5006C18.1964 14.4206 18.0814 14.3656 18.0264 14.3456C17.9714 14.3256 17.9264 14.2356 17.8764 14.1456C17.8563 14.1102 17.8282 14.08 17.7944 14.0574C17.7605 14.0348 17.7218 14.0205 17.6814 14.0156C17.7014 14.0706 17.7114 14.1156 17.7064 14.1356C17.6864 14.2106 17.6664 14.2656 17.7414 14.3556C17.8264 14.4406 17.8764 14.5706 17.8914 14.6456C17.8914 14.7206 17.9064 14.7456 17.9914 14.7206C18.0458 14.7041 18.0954 14.675 18.1364 14.6356C18.1614 14.6006 18.2164 14.6006 18.2914 14.6456C18.3664 14.6856 18.4814 14.7256 18.5514 14.6856C18.6164 14.6407 18.6514 14.5856 18.7114 14.5856C18.8064 14.5157 18.8414 14.3706 18.8614 14.3356C18.8814 14.2856 18.8664 14.2856 18.8264 14.2506C18.7864 14.2106 18.8064 14.1406 18.7964 14.0756C18.7964 14.0056 18.7664 13.9056 18.6864 13.7556C18.6014 13.6056 18.5514 13.4256 18.5014 13.3806C18.4514 13.3306 18.4164 13.2156 18.4164 13.1606C18.4064 13.1106 18.3464 13.0606 18.3064 13.0156C18.2614 12.9756 18.2214 12.9156 18.1764 12.6806C18.1414 12.4956 18.1064 12.3506 18.1014 12.2806C18.0514 12.3556 18.0164 12.3806 18.0014 12.3206C17.9764 12.2606 17.9564 12.2306 17.9264 12.2706C17.9014 12.3106 17.8914 12.2306 17.8914 12.1956C17.8914 12.1606 17.8914 12.1606 17.8464 12.1606C17.8064 12.1606 17.8464 12.1106 17.8314 12.0006C17.8164 11.9006 17.7964 11.8906 17.7864 12.0106C17.7714 12.1306 17.7014 12.2106 17.7314 12.2306C17.7564 12.2606 17.7414 12.3156 17.7164 12.3956C17.6945 12.4536 17.6945 12.5176 17.7164 12.5756C17.7364 12.6256 17.7064 12.7356 17.6964 12.8206C17.6814 12.9056 17.7514 12.9956 17.7714 12.8506V12.8456ZM16.5314 11.6356C16.4814 11.6356 16.4464 11.6856 16.4764 11.8356C16.4964 11.9356 16.4264 11.9156 16.3964 11.8656C16.3714 11.8156 16.3464 11.7156 16.2964 11.6306C16.2414 11.5456 16.2664 11.6856 16.2614 11.7706C16.2514 11.8556 16.3064 11.8556 16.3514 11.9206C16.4014 11.9906 16.3614 12.0156 16.3114 12.0156C16.2614 12.0156 16.2764 12.1256 16.2914 12.1956C16.3064 12.2706 16.2764 12.2856 16.2414 12.2256C16.1914 12.1606 16.2264 12.0756 16.2314 11.9556C16.2414 11.8406 16.2464 11.8656 16.1714 11.8406C16.0964 11.8106 16.1064 11.7956 16.1414 11.7306C16.1664 11.6606 16.1914 11.6306 16.1564 11.5956C16.1264 11.5606 16.1314 11.5406 16.1864 11.5356C16.2364 11.5256 16.2164 11.4856 16.2664 11.4756C16.3164 11.4606 16.3364 11.4756 16.3414 11.3906C16.3464 11.3156 16.3714 11.2756 16.4264 11.2956C16.4614 11.4106 16.5014 11.5856 16.5314 11.6356ZM17.2164 12.4356C17.2164 12.5756 17.2164 12.6356 17.2764 12.6856C17.3364 12.7356 17.3264 12.7956 17.3564 12.9206C17.3864 13.0506 17.3864 13.3306 17.4664 13.5206L17.5564 13.7206C17.5987 13.685 17.6328 13.6406 17.6564 13.5906C17.6714 13.5506 17.6114 13.4506 17.5664 13.3756C17.5164 13.2856 17.5714 13.2606 17.6164 13.1556C17.6664 13.0606 17.6164 13.0556 17.5364 13.0256C17.4664 13.0006 17.4664 12.9256 17.4264 12.8206C17.3864 12.7106 17.3914 12.6656 17.4164 12.6006C17.4414 12.5406 17.4264 12.4956 17.3714 12.4806C17.3164 12.4656 17.3314 12.4306 17.3514 12.3606C17.3714 12.2956 17.3864 12.2806 17.3014 12.2956C17.2414 12.3156 17.2264 12.3306 17.2064 12.3456L17.2164 12.4356Z" fill="#00B800"/>
<path d="M17.9957 12.7145C17.9857 12.7945 17.9857 12.8395 17.9657 12.8645C17.9457 12.8895 17.9607 12.9295 17.9807 12.9745C18.0057 13.0145 18.0107 13.0645 17.9957 13.1445C17.9757 13.2195 18.0057 13.2745 18.0457 13.2945C18.0857 13.3145 18.1057 13.2945 18.0957 13.3945C18.0914 13.4375 18.0969 13.4809 18.1116 13.5216C18.1263 13.5622 18.1499 13.5991 18.1807 13.6295C18.2307 13.6695 18.2657 13.7345 18.2557 13.7795C18.2557 13.8195 18.2907 13.8545 18.3407 13.8795C18.3907 13.8995 18.3807 13.9045 18.3807 13.9295C18.3807 13.9545 18.4007 13.9595 18.4507 13.9745C18.5007 13.9895 18.5507 14.0195 18.6107 14.0945C18.6707 14.1745 18.7607 14.2095 18.7457 14.1295C18.7307 14.0545 18.7457 13.9895 18.6657 13.9545C18.5807 13.9145 18.5207 13.7195 18.4907 13.5845C18.4538 13.4517 18.3852 13.3298 18.2907 13.2295C18.2757 13.1295 18.2907 13.0845 18.2307 13.0395C18.2049 13.0213 18.1838 12.9974 18.169 12.9696C18.1543 12.9418 18.1463 12.9109 18.1457 12.8795C18.1457 12.8395 18.1157 12.7795 18.0857 12.7595C18.0607 12.7445 18.0457 12.7145 18.0457 12.6695C18.0457 12.6295 18.0057 12.6345 17.9957 12.7195V12.7145Z" fill="#5D3100"/>
<path d="M17.6344 16.3495C17.8014 16.3239 17.9644 16.2769 18.1194 16.2095C18.2044 16.2645 18.3444 16.3395 18.4044 16.3395C18.2894 16.3645 18.2094 16.3545 18.1844 16.3295C18.1994 16.3645 18.2344 16.4245 18.2644 16.4295C18.1494 16.4295 18.0244 16.3995 17.9844 16.3595C17.8844 16.3995 17.7244 16.4095 17.6344 16.3495ZM17.8494 16.4995C17.8944 16.5145 18.1094 16.5495 18.1394 16.5495C18.0694 16.6095 18.1294 16.6695 18.2444 16.6595C18.1944 16.6695 18.1244 16.6895 18.1694 16.6995C18.322 16.6976 18.473 16.6671 18.6144 16.6095C18.5144 16.7345 18.0444 16.8495 17.8494 16.4995ZM18.0494 16.8045C18.1372 16.7827 18.2296 16.788 18.3144 16.8195C18.2444 16.8495 18.0894 16.8495 18.0444 16.8095L18.0494 16.8045Z" fill="#00D860"/>
<path d="M18.2644 16.8054C18.3644 16.7904 18.6644 16.8554 18.7644 16.7954C18.7294 16.8904 18.5494 16.9054 18.4794 16.8804C18.4144 16.8654 18.3544 16.8404 18.3094 16.8404C18.3394 16.8254 18.2994 16.8254 18.2594 16.8054H18.2644Z" fill="black"/>
<path d="M18.3688 16.9503C18.5206 16.9545 18.6723 16.9359 18.8188 16.8953C18.9038 16.9253 19.0888 16.9753 19.1288 16.9703C19.0438 17.0203 18.8788 16.9903 18.8288 16.9703C18.7553 17.0007 18.676 17.0147 18.5965 17.0112C18.5171 17.0078 18.4393 16.9869 18.3688 16.9503Z" fill="#00D860"/>
<path d="M18.5012 16.9952C18.6162 17.0202 18.7162 17.0052 18.8262 16.9702C18.8612 16.9802 18.9412 17.0002 19.0212 17.0002C19.0712 17.0252 19.1362 17.0652 19.2062 17.0752C19.0802 17.0924 18.9519 17.0805 18.8312 17.0402C18.6941 17.0363 18.5577 17.0619 18.4312 17.1152C18.4337 17.0915 18.4418 17.0686 18.4548 17.0486C18.4679 17.0286 18.4855 17.012 18.5062 17.0002L18.5012 16.9952Z" fill="#00D860"/>
<path d="M18.3708 16.4294C18.4558 16.4544 18.7808 16.4394 18.9358 16.3644C19.0058 16.3294 19.0458 16.3844 18.9708 16.4044C18.7108 16.5044 18.4958 16.5344 18.3458 16.4544C18.2858 16.4244 18.2758 16.3944 18.3708 16.4244V16.4294Z" fill="black"/>
<path d="M19.931 15.9907C19.536 16.1757 19.281 16.2307 18.736 16.0607C18.686 16.0507 18.651 16.0607 18.706 16.0957C18.8424 16.1547 18.985 16.1983 19.131 16.2257C19.201 16.2307 19.176 16.2607 19.131 16.2757C19.091 16.2857 19.081 16.3157 19.136 16.2957C19.191 16.2707 19.526 16.2607 19.661 16.3307C19.716 16.3657 19.731 16.3557 19.726 16.3307C19.721 16.3107 19.751 16.2957 19.796 16.2907C19.836 16.2857 19.866 16.2707 19.831 16.2607C19.796 16.2457 19.791 16.2357 19.816 16.2257C19.841 16.2107 19.846 16.1957 19.806 16.1907C19.771 16.1807 19.741 16.1707 19.776 16.1557C19.8174 16.1376 19.8612 16.1258 19.906 16.1207C19.916 16.0957 19.901 16.0207 19.931 15.9907Z" fill="#00D860"/>
<path d="M19.2814 16.0344C19.5915 16.039 19.8929 15.9326 20.1314 15.7344C20.2114 15.7844 20.3164 15.8344 20.3764 15.8444C20.4314 15.8544 20.4764 15.9044 20.3914 15.9044C20.3064 15.9044 20.1914 15.8694 20.1314 15.8444C19.8764 16.0006 19.58 16.0755 19.2814 16.0594C19.2264 16.0594 19.2114 16.0344 19.2814 16.0394V16.0344Z" fill="black"/>
<path d="M18.6138 14.8157C18.6938 14.8707 18.8288 14.9607 19.0038 14.9457C19.0884 15.0134 19.1851 15.0643 19.2888 15.0957C19.1688 15.1357 19.0388 15.1807 19.0088 15.2157C18.9588 15.1657 18.8838 15.1757 18.8688 15.1457C18.8188 15.1957 18.8238 15.2107 18.8588 15.2357C18.9723 15.2694 19.0905 15.2846 19.2088 15.2807C19.2688 15.2607 19.2938 15.3157 19.2388 15.3307C19.1038 15.3807 18.8388 15.3307 18.7488 15.1857C18.6488 15.0407 18.5738 14.9857 18.3238 15.1207C18.2988 15.0457 18.2988 15.0357 18.2488 15.0357C18.1988 15.0357 18.1088 14.9707 18.1788 14.9707C18.2488 14.9707 18.4488 14.9407 18.6138 14.8207V14.8157Z" fill="#00D860"/>
<path d="M18.6788 15.1497C18.6288 15.1547 18.5138 15.2197 18.4738 15.2247C18.4288 15.2347 18.3538 15.2947 18.4288 15.2947C18.5138 15.2947 18.6138 15.2097 18.6688 15.2097C18.7238 15.2097 18.7288 15.1347 18.6788 15.1447V15.1497ZM18.9288 15.3997C18.8938 15.4097 18.7638 15.4397 18.7288 15.4397C18.6938 15.4397 18.6538 15.4397 18.6588 15.4697C18.6638 15.4947 18.6738 15.5147 18.6138 15.5047C18.5638 15.4947 18.5188 15.5197 18.5088 15.5347C18.4938 15.5497 18.4838 15.5647 18.5388 15.5697C18.5888 15.5697 18.6188 15.5847 18.6838 15.5497C18.7438 15.5197 18.7988 15.4847 18.8638 15.4797C18.9288 15.4797 18.9938 15.3897 18.9238 15.4047L18.9288 15.3997Z" fill="#00D860"/>
<path d="M18.7454 15.5545C18.8004 15.5995 19.0754 15.6845 19.1704 15.6845C19.2704 15.6795 19.2554 15.7195 19.1804 15.7345C19.0954 15.747 19.0087 15.7415 18.926 15.7182C18.8432 15.695 18.7664 15.6545 18.7004 15.5995C18.6404 15.5495 18.7004 15.5295 18.7404 15.5545H18.7454Z" fill="black"/>
<path d="M20.0389 15.7005C19.8727 15.7473 19.6976 15.7525 19.5289 15.7155C19.4439 15.6855 19.3639 15.6855 19.4289 15.7455C19.4789 15.8005 19.6689 15.8355 19.7789 15.8105C19.3989 15.8955 19.2989 15.8905 19.2089 15.8755C19.0928 15.8613 18.9756 15.858 18.8589 15.8655C18.8031 15.8745 18.7459 15.8675 18.6939 15.8455C18.6589 15.8205 18.6489 15.7905 18.7489 15.8005C18.8489 15.8055 18.8639 15.7905 18.7789 15.7755C18.6889 15.7605 18.5739 15.7955 18.6889 15.8755C18.8089 15.9455 19.0589 15.8655 19.2239 15.9155C19.3681 15.953 19.5193 15.9553 19.6646 15.9223C19.8099 15.8892 19.9451 15.8217 20.0589 15.7255C20.0739 15.7155 20.1039 15.6755 20.0389 15.6955V15.7005ZM19.0089 15.3855C19.0189 15.4155 19.0189 15.4355 19.0089 15.4555C18.9989 15.4755 19.0039 15.5005 19.0339 15.4755C19.0639 15.4505 19.0839 15.4155 19.1239 15.4355C19.1589 15.4505 19.2389 15.4505 19.2739 15.4455C19.3139 15.4455 19.3239 15.4305 19.2739 15.4105C19.2281 15.3908 19.1788 15.3806 19.1289 15.3805C19.0989 15.3855 19.0589 15.3805 19.0339 15.3655C19.0089 15.3505 19.0039 15.3655 19.0089 15.3855Z" fill="#00D860"/>
<path d="M19.5501 15.4846C19.5101 15.4846 19.4301 15.4546 19.3951 15.4346C19.3551 15.4196 19.2951 15.4196 19.3351 15.4846C19.3801 15.5446 19.5651 15.5696 19.6351 15.5446C19.7001 15.5146 19.6751 15.4846 19.7351 15.5246C19.8051 15.5646 19.8701 15.5896 19.9201 15.5896C19.9701 15.5896 19.9851 15.5896 19.9351 15.5596C19.8851 15.5296 19.8551 15.5246 19.8451 15.4996C19.8351 15.4746 19.8351 15.4546 19.8901 15.4746C19.9401 15.4896 19.9901 15.5146 20.0301 15.4946C20.0701 15.4746 20.1401 15.4296 20.2051 15.4296L20.2151 15.3896C20.1251 15.3896 20.0651 15.4146 20.0401 15.4196C20.0201 15.4296 19.9701 15.4396 19.9201 15.4296C19.8701 15.4196 19.8101 15.4146 19.7951 15.4046C19.7751 15.3896 19.7801 15.3796 19.8201 15.3746C19.8601 15.3646 19.8701 15.3396 19.8201 15.3446C19.7701 15.3546 19.6101 15.3546 19.5301 15.3296C19.4551 15.3046 19.4201 15.2996 19.3901 15.3146C19.3551 15.3246 19.3601 15.3646 19.4051 15.3646C19.4551 15.3646 19.5651 15.3796 19.6051 15.4146C19.6351 15.4496 19.6351 15.4496 19.5951 15.4346C19.5501 15.4146 19.4701 15.4246 19.5501 15.4846Z" fill="#00D860"/>
<path d="M20.215 15.3907L20.2 15.4307C20.295 15.4307 20.52 15.4507 20.6 15.4957C20.67 15.4407 20.655 15.4207 20.7 15.4357C20.75 15.4507 20.82 15.4607 20.85 15.4507C20.8727 15.4377 20.8996 15.4341 20.925 15.4407C20.955 15.4407 21.025 15.4307 21.06 15.4107C21.1 15.3857 21.18 15.3607 21.225 15.3607C21.265 15.3607 21.325 15.3457 21.24 15.3307C21.16 15.3157 21.03 15.3457 20.99 15.3607C20.94 15.3757 20.815 15.3857 20.74 15.3857C20.665 15.3857 20.56 15.4207 20.475 15.4007C20.385 15.3807 20.265 15.3907 20.21 15.3907H20.215Z" fill="#00D860"/>
<path d="M21.3957 15.35C21.2457 15.46 21.0557 15.485 20.8407 15.5C20.7757 15.5 20.7957 15.52 20.8507 15.525C21.0807 15.55 21.3407 15.465 21.4307 15.375C21.4557 15.345 21.4507 15.305 21.3957 15.345V15.35Z" fill="black"/>
<path d="M20.3562 15.6104C20.48 15.629 20.602 15.6574 20.7212 15.6954C20.7812 15.6854 20.7962 15.6754 20.7862 15.6504C20.7712 15.6304 20.7662 15.6104 20.8712 15.6204H21.2462C21.2862 15.6054 21.3612 15.5454 21.3962 15.5454C21.3062 15.5454 20.9212 15.5654 20.8762 15.5604C20.8262 15.5604 20.8012 15.5604 20.7712 15.5804C20.7412 15.5954 20.7262 15.6054 20.6862 15.5854C20.6362 15.5704 20.5812 15.5504 20.5362 15.5804C20.5062 15.6004 20.4212 15.5804 20.3562 15.6104Z" fill="#00D860"/>
<path d="M21.2459 15.6195C21.2809 15.6045 21.3609 15.5445 21.3959 15.5395C21.4659 15.5345 21.5359 15.5595 21.5709 15.5695C21.6059 15.5795 21.646 15.5695 21.621 15.5395C21.601 15.5145 21.621 15.4595 21.721 15.4745C21.831 15.4845 21.8809 15.5045 21.9859 15.4945C22.0909 15.4845 22.131 15.5595 22.321 15.4845C22.311 15.5595 22.3459 15.5645 22.3809 15.5495C22.4159 15.5395 22.4559 15.5395 22.5159 15.5845C22.5809 15.6345 22.9509 15.6345 23.0359 15.6195C23.1259 15.6045 23.1659 15.6495 23.1009 15.6695C23.0359 15.6895 23.0209 15.7195 23.0359 15.7445C23.0509 15.7645 23.0659 15.7895 22.9859 15.7795C22.9009 15.7695 22.8859 15.7945 22.8509 15.8195C22.8109 15.8495 22.8009 15.8695 22.6859 15.8445C22.5759 15.8245 22.5509 15.8395 22.4909 15.8445C22.4309 15.8545 22.4159 15.8595 22.3509 15.8395C22.2627 15.8077 22.1671 15.8025 22.0759 15.8245C21.9959 15.8545 21.9409 15.8745 21.8659 15.8545C21.7909 15.8395 21.7909 15.8445 21.8359 15.8045C21.8759 15.7545 21.8859 15.7545 21.9759 15.7495C22.0659 15.7395 22.126 15.7145 22.071 15.6795C22.006 15.6445 21.9909 15.6495 21.9059 15.6845C21.8259 15.7245 21.7859 15.7545 21.6909 15.7045C21.6009 15.6545 21.5609 15.6595 21.4909 15.6795C21.4309 15.6945 21.3309 15.6545 21.2459 15.6195ZM21.5509 15.7695C21.4309 15.7895 21.4009 15.7145 21.2809 15.7245C21.2409 15.7345 21.1709 15.7845 21.2659 15.7745C21.3609 15.7695 21.4659 15.8195 21.5559 15.8145C21.6459 15.8095 21.6059 15.7645 21.5559 15.7695H21.5509ZM21.4209 15.8545C21.4759 15.8345 21.6009 15.8795 21.6609 15.8695C21.7159 15.8595 21.7609 15.8895 21.7009 15.9145C21.6409 15.9345 21.5159 15.8795 21.4509 15.8945C21.3959 15.9145 21.3309 15.8895 21.4159 15.8545H21.4209ZM20.2009 16.1895C20.2859 16.1895 20.5909 16.1745 20.7109 15.9245C20.7209 15.9045 20.7259 15.8945 20.7609 15.9245C20.7959 15.9495 20.9409 16.0295 21.2009 16.0545C21.2759 16.0545 21.3509 16.0945 21.2059 16.0895C21.0559 16.0795 20.8259 16.0395 20.7509 15.9895C20.6159 16.1945 20.3809 16.2195 20.2009 16.2145C20.0959 16.2145 20.1209 16.1845 20.2009 16.1895Z" fill="#00D860"/>
<path d="M20.8553 15.8406C20.8153 15.8956 20.6753 15.9906 20.6153 16.0006C20.5503 16.0006 20.3553 15.9906 20.3103 15.9706C20.2603 15.9556 20.2053 15.9556 20.2703 16.0056C20.3621 16.0553 20.4661 16.0778 20.5703 16.0706C20.6503 16.0556 20.7253 16.0306 20.7803 16.0706C20.8303 16.1006 20.9303 16.1606 20.9903 16.1506C21.0503 16.1356 21.1653 16.1356 21.2053 16.1506C21.2453 16.1706 21.3103 16.2306 21.2103 16.2006C21.1103 16.1656 21.0303 16.1906 20.9853 16.1706C21.0353 16.2406 21.1503 16.3556 21.2453 16.3556C21.2703 16.3556 21.2903 16.4006 21.2453 16.4206C21.2853 16.4406 21.3953 16.4656 21.4603 16.4056C21.4403 16.4306 21.4503 16.4406 21.4753 16.4506C21.5003 16.4606 21.5303 16.4806 21.4853 16.4906C21.4353 16.5006 21.3353 16.5056 21.3053 16.4906C21.4053 16.5556 21.6553 16.6606 21.9203 16.6056C21.9703 16.6006 22.0003 16.5756 21.9203 16.5806C21.7453 16.5806 21.7353 16.5806 21.7053 16.5656C21.6753 16.5456 21.6853 16.5306 21.7353 16.5156C21.8057 16.4974 21.8777 16.4857 21.9503 16.4806C22.0003 16.4806 22.0553 16.4656 21.9503 16.4656C21.8503 16.4656 21.7203 16.4656 21.6653 16.4456C21.6153 16.4306 21.5803 16.4006 21.6353 16.3656C21.6853 16.3306 21.7403 16.3406 21.7653 16.3156C21.6003 16.3156 21.3953 16.2156 21.5053 16.1356C21.5303 16.1206 21.5253 16.1156 21.4853 16.1106C21.408 16.0953 21.3326 16.0719 21.2603 16.0406C21.2103 16.0156 21.2403 15.9856 21.2853 15.9756C21.1853 15.9906 20.9853 15.9406 20.8553 15.8456V15.8406ZM22.3453 15.8406C22.2553 15.9056 22.0803 15.9406 22.0053 15.9406C21.9353 15.9406 21.9203 15.9606 21.9803 15.9656C22.0403 15.9706 22.1053 15.9856 22.1303 15.9756C22.1553 15.9656 22.1753 15.9656 22.2103 15.9856C22.2719 16.0061 22.3386 16.0061 22.4003 15.9856C22.4753 15.9656 22.5853 15.9556 22.6353 15.9556C22.6853 15.9606 22.7353 15.9606 22.6353 15.9356C22.5453 15.9106 22.3853 15.9256 22.3453 15.9356C22.3103 15.9456 22.2053 15.9356 22.2603 15.9256C22.3153 15.9106 22.3603 15.8756 22.3903 15.8556L22.3453 15.8406ZM22.2953 16.0406C22.2064 16.1068 22.1007 16.1466 21.9903 16.1556C22.0903 16.1956 22.1803 16.3056 22.2503 16.2956C22.2153 16.3206 22.1753 16.3456 22.1353 16.3556C22.2284 16.3713 22.324 16.3536 22.4053 16.3056C22.5553 16.3456 22.7553 16.3156 22.8203 16.2556C22.7203 16.2556 22.6053 16.2256 22.5503 16.1756C22.6003 16.1756 22.6453 16.1506 22.6653 16.1206C22.5503 16.1406 22.3653 16.0856 22.3003 16.0306L22.2953 16.0406Z" fill="#00D860"/>
<path d="M22.1338 16.35C22.1738 16.35 22.2188 16.32 22.2488 16.3C22.0548 16.3139 21.8613 16.2686 21.6938 16.17C21.5838 16.075 21.5838 16.15 21.6588 16.215C21.722 16.2746 21.7985 16.3184 21.8819 16.3427C21.9654 16.3671 22.0534 16.3713 22.1388 16.355L22.1338 16.35ZM22.4038 16.5851C22.3588 16.6101 22.1388 16.6301 22.0688 16.6101C21.9938 16.5951 21.9688 16.6001 21.9788 16.6351C21.9938 16.6651 22.0088 16.685 21.9488 16.675C21.8812 16.672 21.8135 16.6805 21.7488 16.7C21.6988 16.71 21.6488 16.7501 21.7388 16.7351C21.8338 16.7251 21.9138 16.705 21.9888 16.72C22.0538 16.735 22.2938 16.74 22.3388 16.72C22.3888 16.7 22.3588 16.705 22.3388 16.705C22.3138 16.705 22.3038 16.69 22.3388 16.67C22.3738 16.655 22.3938 16.6201 22.4038 16.5851ZM20.2888 16.295C20.1324 16.3495 19.9718 16.3913 19.8088 16.42C19.7088 16.465 19.6288 16.49 19.5788 16.49C19.6138 16.52 19.7538 16.5501 19.8038 16.5351C19.7738 16.5701 19.7038 16.6 19.6788 16.62C19.7638 16.605 19.8538 16.6301 19.8988 16.6351C19.796 16.6899 19.6798 16.7141 19.5638 16.705C19.5938 16.735 19.6288 16.77 19.6738 16.77C19.5843 16.796 19.4898 16.7994 19.3988 16.78C19.4288 16.83 19.4488 16.86 19.4888 16.87C19.4038 16.875 19.3038 16.89 19.2188 16.84C19.2838 16.93 19.4288 16.955 19.6488 16.93C19.8688 16.905 20.0488 16.81 20.0988 16.77C20.0088 16.78 19.8838 16.785 19.8288 16.77C19.9803 16.7297 20.1252 16.6673 20.2588 16.5851C20.2086 16.5847 20.1597 16.569 20.1188 16.54C20.2533 16.5467 20.3882 16.5333 20.5188 16.5C20.4481 16.4848 20.3857 16.4438 20.3438 16.3851C20.6204 16.4648 20.9128 16.4734 21.1938 16.4101C21.2338 16.4001 21.2338 16.345 21.1588 16.355C21.0188 16.365 20.7438 16.325 20.6688 16.29C20.7284 16.3325 20.7967 16.3615 20.8688 16.375C20.7438 16.415 20.5588 16.44 20.2888 16.29V16.295Z" fill="#00D860"/>
<path d="M19.6794 16.6205C19.7044 16.6005 19.7794 16.5705 19.8044 16.5355C19.7494 16.5505 19.6144 16.5205 19.5794 16.4855C19.6294 16.4855 19.7094 16.4655 19.8094 16.4205C19.6294 16.4155 19.5094 16.4155 19.4344 16.3755C19.3644 16.3355 19.2494 16.3555 19.1994 16.3655C19.1494 16.3705 19.1694 16.4505 19.3644 16.4305C19.2453 16.4838 19.1132 16.5012 18.9844 16.4805C19.0044 16.5505 19.0194 16.6155 18.9994 16.6555C19.1044 16.7155 19.3844 16.7905 19.5244 16.7805C19.3994 16.7355 19.3344 16.6855 19.4344 16.6705C19.5344 16.6605 19.5944 16.6405 19.6844 16.6205H19.6794Z" fill="#00D860"/>
<path d="M19.3646 16.9505C19.6046 16.9305 19.9346 16.9255 20.1946 16.7005C20.2596 16.6505 20.3046 16.6705 20.2396 16.7255C20.0094 16.9042 19.7305 17.0088 19.4396 17.0255C19.3046 17.0255 19.2446 16.9605 19.3646 16.9455V16.9505Z" fill="black"/>
<path d="M21.1857 16.5504C21.0949 16.5777 21.0005 16.5911 20.9057 16.5904C20.8508 16.5782 20.7937 16.5817 20.7407 16.6004C20.7007 16.6254 20.6957 16.6504 20.7507 16.6504L20.9157 16.6604C20.8806 16.6785 20.8498 16.7041 20.8257 16.7354C20.9157 16.7154 21.0607 16.7504 21.1057 16.7754C21.0886 16.779 21.0708 16.7791 21.0537 16.7756C21.0365 16.7722 21.0202 16.7653 21.0057 16.7554C21.1407 16.9054 21.5507 16.9054 21.6157 16.8754C21.5857 16.9004 21.5557 16.9254 21.5307 16.9254C21.6407 16.9504 21.7707 16.9454 21.9057 16.8754L21.6957 16.8654C21.7237 16.8376 21.758 16.8171 21.7957 16.8054C21.7457 16.7954 21.5857 16.8004 21.5457 16.8204C21.5606 16.7845 21.587 16.7546 21.6207 16.7354C21.4207 16.7354 21.1757 16.7354 21.0907 16.6854C21.2257 16.7054 21.3857 16.6204 21.4507 16.6204C21.3407 16.6204 21.2207 16.5954 21.1907 16.5454L21.1857 16.5504ZM20.6807 16.6504C20.5807 16.6754 20.4307 16.7204 20.3857 16.7404C20.3457 16.7654 20.3057 16.7754 20.3907 16.7754C20.4007 16.7737 20.4107 16.7721 20.4207 16.7704C20.3857 16.7704 20.3457 16.7704 20.4157 16.7454C20.4807 16.7254 20.5657 16.6804 20.6757 16.6604L20.6807 16.6504ZM20.4807 16.8954C20.5157 16.8954 20.6657 16.8954 20.7307 16.8454C20.7907 16.8854 20.9157 16.9554 20.9907 16.9554C21.0707 16.9554 21.0607 16.9754 20.9907 16.9854C20.8946 16.9823 20.8012 16.9529 20.7207 16.9004C20.6307 16.9354 20.5557 16.9054 20.4707 16.8954H20.4807ZM19.3007 17.5804C19.4625 17.6519 19.6425 17.6711 19.8157 17.6354C19.9057 17.7104 20.0807 17.7154 20.1757 17.6954C20.2757 17.6754 20.3607 17.6654 20.4707 17.6954C20.5707 17.7354 20.7907 17.7404 20.8557 17.7904L20.6507 17.7954C20.6207 17.8054 20.6357 17.8204 20.6907 17.8454C20.4923 17.8435 20.2971 17.8954 20.1257 17.9954C20.1514 17.9377 20.1936 17.8888 20.2469 17.855C20.3003 17.8212 20.3625 17.8039 20.4257 17.8054C20.3357 17.7754 20.0407 17.7704 19.9407 17.8304C19.9142 17.8015 19.8937 17.7675 19.8807 17.7304C19.7257 17.8154 19.4207 17.6854 19.2957 17.5804H19.3007ZM18.9007 17.2904C19.0332 17.2793 19.1598 17.2308 19.2657 17.1504C19.3007 17.1804 19.4407 17.2104 19.5907 17.1654C19.5607 17.1854 19.5557 17.2304 19.5657 17.2504C19.445 17.2616 19.3268 17.292 19.2157 17.3404C19.1557 17.3704 18.9657 17.3954 18.9057 17.3604C18.8457 17.3304 18.8457 17.3004 18.8957 17.2904H18.9007Z" fill="#00D860"/>
<path d="M19.5656 17.2546C19.4449 17.2658 19.3268 17.2962 19.2156 17.3446L19.2406 17.4296C19.489 17.3586 19.7479 17.3315 20.0056 17.3496C19.9256 17.3546 19.7806 17.4396 19.7006 17.4446C19.9006 17.4296 20.0906 17.4696 20.1406 17.4846C20.1906 17.4946 20.2056 17.5346 20.1656 17.5746C20.1256 17.6196 20.1106 17.6096 20.1906 17.6196C20.2706 17.6196 20.4406 17.6046 20.5156 17.5296C20.4806 17.4996 20.4056 17.5146 20.3806 17.4846C20.4311 17.4685 20.4773 17.4411 20.5156 17.4046C20.4387 17.4066 20.3617 17.4016 20.2856 17.3896C20.2456 17.3796 20.2106 17.3646 20.2656 17.3346C20.3034 17.3162 20.3374 17.2908 20.3656 17.2596C20.2656 17.2846 20.1106 17.3096 19.9756 17.2096C20.0256 17.2196 20.1406 17.2096 20.1806 17.1946C20.1475 17.1731 20.1098 17.1594 20.0706 17.1546C20.1706 17.1046 20.3706 17.0596 20.6356 17.1596C20.7543 17.1506 20.8737 17.1573 20.9906 17.1796C21.0406 17.1396 21.1206 17.0396 21.1656 17.0196C20.8656 17.0396 20.3256 16.9896 20.3406 16.8296C20.2406 16.9596 20.0156 17.0296 19.9206 17.0096C19.9106 17.0496 19.9506 17.1096 19.9856 17.1396C19.8856 17.1596 19.7106 17.1796 19.6306 17.1596C19.6806 17.2046 19.7606 17.2446 19.8106 17.2446C19.7106 17.2446 19.6506 17.2646 19.5656 17.2546Z" fill="#00D860"/>
<path d="M20.1844 17.6156C20.2744 17.6156 20.4344 17.6056 20.5144 17.5306C20.4794 17.5006 20.4044 17.5156 20.3794 17.4856C20.4298 17.4695 20.476 17.4421 20.5144 17.4056C20.7344 17.3856 20.9194 17.3956 21.0144 17.3706C21.1044 17.3456 21.3394 17.3556 21.3844 17.3456C21.1794 17.3806 21.1394 17.3956 21.1344 17.4306C21.1244 17.4656 21.1944 17.4856 21.2444 17.4856C21.1594 17.4856 21.0394 17.5806 21.0244 17.6206C20.9044 17.5506 20.8544 17.6306 20.8344 17.6606C20.7844 17.6406 20.6144 17.6456 20.5294 17.7206C20.4194 17.6856 20.3444 17.6706 20.2294 17.6856C20.3044 17.6706 20.2894 17.6206 20.1894 17.6156H20.1844ZM21.1594 17.0156C21.2294 17.0156 21.3794 17.0256 21.4344 17.0156C21.4009 17.0319 21.3704 17.0539 21.3444 17.0806C21.5194 17.0606 21.7544 17.0456 21.8244 17.0606C21.7344 17.0456 21.6494 17.1056 21.6044 17.1306C21.5644 17.1556 21.5894 17.1756 21.6494 17.1806C21.7094 17.1906 21.7844 17.2306 21.6794 17.2206C21.5794 17.2106 21.3594 17.2056 21.3094 17.2106C21.2594 17.2206 21.2294 17.1956 21.3094 17.1806C21.3634 17.1725 21.4158 17.1556 21.4644 17.1306C21.4044 17.1456 21.2894 17.1456 21.2494 17.1306C21.2094 17.1156 21.1944 17.1056 21.2344 17.0906C21.2794 17.0756 21.2494 17.0706 21.2044 17.0756C21.1594 17.0756 21.0544 17.1256 20.9894 17.1806C21.0544 17.1106 21.1194 17.0506 21.1594 17.0206V17.0156Z" fill="#00D860"/>
<path d="M20.3908 17.1357C20.4328 17.1842 20.4852 17.2229 20.5439 17.2488C20.6027 17.2747 20.6665 17.2873 20.7308 17.2857C20.7608 17.2857 20.8308 17.3307 20.7458 17.3357C20.5308 17.3457 20.4258 17.2907 20.3308 17.1557C20.3108 17.1257 20.3458 17.0857 20.3908 17.1357ZM21.6658 15.3557C21.7758 15.4057 22.0008 15.4557 22.1758 15.4507C22.2108 15.4507 22.2658 15.4807 22.1908 15.4857C22.0048 15.5084 21.8163 15.4735 21.6508 15.3857C21.6058 15.3607 21.6208 15.3357 21.6658 15.3557Z" fill="black"/>
<path d="M21.7744 15.3551C21.9494 15.3551 22.0794 15.3551 22.1244 15.4001C22.2244 15.3751 22.4094 15.3551 22.4444 15.3651C22.4844 15.3751 22.5344 15.3501 22.4394 15.3301C22.3394 15.3101 22.1294 15.3001 22.0594 15.3151C21.9894 15.3251 21.7744 15.3351 21.7094 15.3251C21.7344 15.3251 21.7544 15.3351 21.7744 15.3551ZM22.4444 15.4201C22.5244 15.3801 22.7594 15.4201 22.8294 15.3901C22.7794 15.4501 22.9944 15.4551 23.1794 15.4101C23.1094 15.4501 22.9544 15.4601 22.8894 15.4901C22.8244 15.5201 22.7894 15.4951 22.7394 15.4751C22.6476 15.4315 22.5454 15.4142 22.4444 15.4251V15.4201Z" fill="#00D860"/>
<path d="M23.1788 15.41C22.9938 15.45 22.7788 15.45 22.8288 15.39C22.7588 15.42 22.5288 15.38 22.4438 15.42C22.5338 15.37 22.5938 15.415 22.6538 15.31C22.6938 15.315 22.7838 15.32 22.8138 15.28C22.8638 15.295 22.9638 15.315 22.9888 15.345C23.0138 15.375 23.0538 15.335 23.0238 15.295C23.1088 15.265 23.0538 15.33 23.2488 15.28C23.2938 15.27 23.3888 15.25 23.4238 15.25C23.3474 15.3135 23.2634 15.3672 23.1738 15.41H23.1788Z" fill="#00D860"/>
<path d="M19.5788 14.5544L19.5438 10.2144C19.5438 10.0194 19.4438 10.0644 19.4438 10.2144V14.5144L19.5788 14.5544ZM20.9888 9.98438L21.1438 14.5544L21.1238 14.5944H21.0238L20.9288 9.98438H20.9888ZM22.3188 13.8544L22.2388 10.1394C22.2388 10.0194 22.1388 10.0394 22.1388 10.1594L22.2188 13.8544H22.3188Z" fill="#FFFF00" stroke="black" stroke-width="0.05"/>
<path d="M20.2094 10.7446L18.8394 10.7246C18.7794 10.9996 19.1144 10.9746 19.2294 10.9246C19.3844 11.0196 19.5044 11.0196 19.5794 10.9246C19.6994 11.0196 19.8544 10.9996 19.9144 10.9246C20.0694 11.0596 20.2444 10.9246 20.2094 10.7246V10.7446ZM20.3094 11.4096H18.9344C18.6844 11.6446 18.9944 11.7596 19.2694 11.6046C19.3094 11.6846 19.4644 11.7196 19.5794 11.6646C19.6994 11.7396 19.8544 11.6846 19.9294 11.6046C20.0694 11.6646 20.2444 11.6846 20.3244 11.4046L20.3094 11.4096ZM20.2644 12.2896H18.9344C18.9194 12.5046 19.1894 12.4846 19.2844 12.4246C19.3844 12.5846 19.6194 12.5446 19.6994 12.4446C19.8344 12.5446 19.9494 12.5246 20.0094 12.4446C20.1494 12.5646 20.2844 12.4046 20.2644 12.2896ZM20.3494 13.1496L18.8444 13.1296C18.7644 13.3796 18.9994 13.4246 19.0944 13.3646C19.1394 13.4996 19.3344 13.4646 19.3944 13.3646C19.4694 13.4246 19.5694 13.3846 19.6044 13.3246C19.6244 13.4596 19.8044 13.4796 19.9394 13.3646C20.2144 13.5596 20.4644 13.3246 20.3294 13.1496H20.3494ZM21.6594 12.7996H20.4294C20.4844 13.0296 20.6044 13.0896 20.7994 12.9496C20.9544 13.1096 21.1894 13.0496 21.2494 12.9746C21.5244 13.1896 21.6594 12.9346 21.6594 12.7746V12.7996ZM21.5394 11.9396L20.3294 11.8996C20.3494 12.2096 20.6444 12.1896 20.7994 12.0746C20.8994 12.2096 21.0944 12.1746 21.1894 12.0746C21.3244 12.2296 21.5794 12.1346 21.5394 11.9396ZM21.6994 10.9796H20.3994C20.3994 11.1946 20.6894 11.3096 20.9044 11.1146C20.9644 11.3696 21.1994 11.2896 21.2994 11.1946C21.4494 11.3896 21.7844 11.1546 21.6894 10.9946L21.6994 10.9796ZM21.6194 10.3296L20.4444 10.3546C20.4444 10.5496 20.7194 10.6296 20.8194 10.4696C20.8794 10.5696 21.0694 10.5496 21.1294 10.4696C21.2094 10.6096 21.3294 10.5096 21.3644 10.4696C21.5044 10.5696 21.6394 10.5096 21.6194 10.3346V10.3296ZM22.9694 10.7646L21.5594 10.7446C21.5594 10.8796 21.6994 10.9446 21.7944 10.8796C21.7944 11.0396 21.9944 11.0796 22.1294 10.9596C22.2044 11.0946 22.4594 11.1146 22.5594 10.9596C22.7544 11.1346 22.9894 10.9996 22.9494 10.7596L22.9694 10.7646ZM22.9494 11.9146H21.5794C21.5794 12.1146 21.7944 12.1696 21.9294 12.0746C21.9544 12.2296 22.1294 12.2496 22.2294 12.1546C22.3644 12.2896 22.5594 12.3046 22.6794 12.1546C22.8294 12.2096 22.9694 12.0746 22.9494 11.9196V11.9146ZM22.8694 12.9546H21.7744C21.7744 13.1496 22.0094 13.1496 22.1094 13.0546C22.2244 13.1896 22.3844 13.1896 22.4794 13.0896C22.6144 13.2096 22.8494 13.1696 22.8694 12.9546Z" fill="white" stroke="black" stroke-width="0.05"/>
<path d="M21.1252 14.6001C20.5402 14.6001 19.9352 14.6001 19.5252 14.5551C19.1152 14.5201 18.9952 14.4401 18.7052 14.2651L17.6002 13.6001C17.5052 13.5601 17.4102 13.6201 17.5452 13.7001L18.6402 14.4201C18.8896 14.5811 19.1137 14.7783 19.3052 15.0051C19.5402 15.2601 19.6952 15.2601 19.8102 15.2201C19.9302 15.1851 20.0852 15.1201 20.2602 15.1651C20.4202 15.2001 20.6502 15.2201 20.7702 15.2001C20.8702 15.3001 21.1202 15.2801 21.2602 15.2401C21.3952 15.2001 21.4952 15.2001 21.5902 15.2201H21.9252C22.0252 15.2201 22.2752 15.1651 22.4502 15.1851C22.6502 15.2201 22.8202 15.1851 22.9402 15.1851C23.0676 15.1521 23.2002 15.1453 23.3302 15.1651C23.4502 15.0851 23.4852 14.9851 23.5302 14.8901C23.6452 14.8701 23.6802 14.8501 23.7002 14.7901L23.8202 14.4801H23.8602V14.3601L23.7802 14.2451L23.8202 14.0451L23.9202 14.0101L23.8802 13.8101L22.1602 13.8551C22.0981 13.912 22.056 13.9874 22.0402 14.0701L21.5302 14.1451C21.4752 14.1651 21.4152 14.1651 21.3552 14.2451L21.1252 14.6001Z" fill="black" stroke="black" stroke-width="0.05"/>
<path d="M23.1794 13.8344L23.4294 12.8744C23.4694 12.7744 23.3744 12.7594 23.3344 12.8744L23.0844 13.8344H23.1794Z" fill="black" stroke="black" stroke-width="0.05"/>
<path d="M24.1756 12.7593C23.9606 12.8593 23.8456 12.9143 23.7456 12.8743C23.6456 12.8343 23.5306 12.8143 23.4556 12.8543C23.4563 12.861 23.4563 12.8676 23.4556 12.8743C23.385 13.1229 23.3133 13.3712 23.2406 13.6193C23.3906 13.6793 23.6706 13.6793 23.7256 13.6193C23.8056 13.5393 23.9806 13.5593 24.0756 13.5593C24.1356 13.4793 24.1556 13.3843 24.1356 13.3443C24.1156 13.3043 24.1356 13.2093 24.1356 13.1443C24.1356 13.0943 24.2156 12.8743 24.1756 12.7593Z" fill="white" stroke="black" stroke-width="0.05"/>
<path d="M19.2494 10.9194C18.8701 11.9071 18.3424 12.831 17.6844 13.6594M18.0744 13.8944C18.942 13.1946 19.6946 12.3628 20.3044 11.4294M18.9344 12.2694C18.8794 12.7994 18.7194 13.7344 18.6444 14.2244M19.1494 13.4444C18.9544 13.6394 18.6994 13.9494 18.4894 14.1244M20.9694 12.3844C20.8144 12.5444 20.6394 12.7344 20.4594 12.7794M21.0694 12.4294C21.2126 12.5926 21.3925 12.7195 21.5944 12.7994M20.9694 11.5844C20.7993 11.7349 20.6002 11.8489 20.3844 11.9194M21.0494 11.5994C21.1644 11.7144 21.2994 11.8494 21.4794 11.9344M20.4244 10.9744C20.6191 10.9163 20.7984 10.8155 20.9494 10.6794M21.0094 10.6794C21.1608 10.8194 21.3396 10.9267 21.5344 10.9944M20.4594 10.3444C20.6433 10.3135 20.81 10.2177 20.9294 10.0744M20.9894 10.0344C21.1244 10.1544 21.3794 10.3094 21.5194 10.3294M22.1444 10.4844C22.0644 10.5844 21.8494 10.7394 21.7144 10.7394M22.2394 10.4894C22.2994 10.5844 22.4544 10.7394 22.5544 10.7394M21.6144 11.9144C21.825 11.8354 22.0136 11.7068 22.1644 11.5394M22.2644 11.5594C22.3571 11.703 22.4821 11.8229 22.6294 11.9094M21.8294 12.9294C21.9094 12.9294 22.1244 12.8094 22.1794 12.6794M22.2994 12.6144C22.4071 12.7497 22.5394 12.8634 22.6894 12.9494M19.0344 13.1244C19.2844 13.0444 19.7794 12.7344 20.0344 12.4394M19.5644 12.8094C19.7594 12.9494 20.0144 13.1094 20.1894 13.1444M18.9744 12.2644C19.1474 12.1949 19.3065 12.095 19.4444 11.9694M19.5444 11.9494C19.5994 12.0294 20.0094 12.2844 20.1894 12.2844M19.4444 11.1344C19.2951 11.2479 19.13 11.3389 18.9544 11.4044M19.5444 11.1294C19.6794 11.2294 19.9744 11.4044 20.1444 11.4044M19.4494 10.3494C19.3344 10.4644 19.1394 10.6594 18.9794 10.7194M19.5494 10.3694C19.6244 10.5044 19.8594 10.6994 20.0144 10.7194M21.5794 11.2294C21.9544 11.8744 22.6144 12.6794 23.2794 13.1044M20.5294 10.5044C21.0744 11.2844 22.1294 12.9894 23.1444 13.6144M23.3444 12.9494C23.0824 13.3059 22.757 13.611 22.3844 13.8494M23.2594 13.1644C22.9294 12.6144 22.7544 11.9344 22.4794 11.0144M19.7444 13.4394L20.1344 14.6094M19.6644 13.4194L20.0344 14.5894M19.5694 13.3594L19.9194 14.5694M19.5294 13.3794L19.7994 14.5694M19.7994 14.5344H20.1344M20.0944 14.4144H19.7844M20.0544 14.3144H19.7444M20.0144 14.2194H19.6994M19.9494 14.1044H19.6994M19.6794 14.0044H19.9294M19.6594 13.9244H19.9094M19.6394 13.8244H19.8744M19.6244 13.7494H19.8344M19.5994 13.6494H19.7994M19.5794 13.5744H19.7794M19.5644 13.5144H19.7594M19.5594 13.4394H19.7394M19.2294 13.4394L18.9944 14.4144M19.2894 13.4394L19.0894 14.4544M19.3494 13.3994L19.1894 14.4744M19.4244 13.3744L19.3094 14.5144M19.4444 14.4344H19.0544M19.4444 14.3344H18.9944M19.4444 14.2194H19.0344M19.4244 14.1194H19.0544M19.4444 14.0194H19.0744M19.4444 13.9044H19.1144M19.4444 13.8044H19.1144M19.4244 13.7094H19.1344M19.4244 13.6094H19.1744M19.4244 13.5144H19.1894M19.4244 13.4544H19.2094M19.4094 14.5344V13.3794M20.6744 12.9894L19.8994 14.5744M20.7394 12.9744L20.0744 14.5944M20.7794 12.9544L20.2494 14.5944M20.8394 12.9944L20.4094 14.5944M20.4294 14.5394H19.9394M20.4644 14.3794H19.9994M20.4844 14.2644H20.0944M20.5644 14.1444H20.1744M20.5844 14.0294H20.2144M20.6244 13.9094H20.2744M20.6594 13.7744H20.3494M20.6794 13.6744H20.3894M20.7194 13.5594H20.4444M20.7444 13.4794H20.4844M20.7594 13.4044H20.4844M20.7394 13.3244H20.5444M20.7444 13.2644H20.5644M20.7594 13.1894H20.5994M20.7944 13.1094H20.6394M20.7894 13.0494H20.6544M21.3194 13.0294L21.6544 14.1294M21.3794 13.0494L21.7894 14.1094L22.1044 13.0744M21.4394 13.0494L21.9294 14.0894L22.1644 13.1094M22.0444 13.9894L21.4944 13.0294M22.0444 14.0094H21.6544M22.0044 13.8544H21.6144M21.9494 13.7344H21.5744M21.8694 13.5994H21.5344M21.7894 13.4794H21.4994M21.7144 13.3444H21.4594M21.6544 13.2094H21.4194M21.5744 13.0894H21.3794M22.0044 13.1094L21.6544 14.1244M22.2194 13.1494L22.0244 14.0694M21.6944 14.0094H22.0244M21.7344 13.8944H22.0644M21.7694 13.7544H22.0844M21.8344 13.6394H22.1244M21.8694 13.4994H22.1444M21.9094 13.3844H22.1594M21.9644 13.2444H22.1994M22.0044 13.1294H22.2044M22.3794 13.1494L22.5294 13.8494M22.4344 13.1094L22.6494 13.8344M22.5144 13.1094L22.7494 13.8344M22.6094 13.1494L22.8644 13.8344M22.8444 13.7744H22.5144M22.8094 13.6744H22.4944M22.7694 13.5794H22.4744M22.7244 13.4594H22.4344M22.6694 13.3594H22.3994M22.6344 13.2644H22.3844M22.5994 13.1644H22.3644" stroke="black" stroke-width="0.05"/>
<path d="M19.3812 14.9595C19.5362 14.8595 19.8062 14.8745 19.9462 14.9795C20.1112 14.8895 20.4062 14.9145 20.5412 15.0395C20.7512 14.8895 20.9262 14.8695 21.1262 15.0095C21.2148 14.9508 21.3191 14.9203 21.4253 14.922C21.5316 14.9238 21.6347 14.9578 21.7212 15.0195C21.9062 14.9345 22.1062 14.8645 22.2812 15.0495C22.1964 14.9924 22.095 14.9648 21.9928 14.9711C21.8906 14.9774 21.7934 15.0173 21.7162 15.0845C21.5412 14.9095 21.2312 14.9745 21.1262 15.0995C21.0894 15.0596 21.0446 15.0279 20.9946 15.0065C20.9447 14.9852 20.8908 14.9746 20.8365 14.9755C20.7822 14.9765 20.7287 14.9889 20.6796 15.012C20.6304 15.0351 20.5866 15.0683 20.5512 15.1095C20.3662 14.9595 20.0962 14.9495 19.9512 15.0595C19.8704 15 19.7769 14.9599 19.678 14.9426C19.5791 14.9252 19.4775 14.931 19.3812 14.9595Z" fill="#00B800"/>
<path d="M22.1559 14.7404C21.3509 14.8804 19.5859 14.7904 19.2059 14.6854C19.0709 14.6554 19.1059 14.6054 19.2209 14.6354C19.6659 14.7354 20.6159 14.7354 21.1359 14.7054L21.4459 14.2804C21.4959 14.2154 21.5159 14.2104 21.6209 14.1954L22.0559 14.1204V14.1804C22.0459 14.1954 22.0359 14.2104 22.0209 14.2154C22.0209 14.3154 22.0409 14.5704 22.0659 14.6654L22.1209 14.6504C22.1559 14.6404 22.1909 14.7354 22.1559 14.7404Z" fill="#CF6200"/>
<path d="M23.4814 14.7797H23.5914C23.6214 14.7797 23.6714 14.7547 23.6864 14.7047L23.7964 14.3897L23.7114 14.2647L23.7564 13.9997L23.8564 13.9547C23.8664 13.9397 23.8564 13.8747 23.8364 13.8547L22.2564 13.9047C22.2064 13.9047 22.1864 13.9047 22.1714 13.9697C22.1247 14.1812 22.1374 14.4014 22.2079 14.6061C22.2785 14.8108 22.4043 14.992 22.5714 15.1297C22.5964 15.1497 22.6314 15.1297 22.5864 15.0947C22.502 15.0101 22.4296 14.9142 22.3714 14.8097H22.6314C22.6514 14.8947 22.7164 15.0697 22.7314 15.1047C22.7414 15.1397 22.7714 15.1397 22.7514 15.0897C22.7214 14.9897 22.7014 14.8647 22.6864 14.8047H22.9514L22.9714 15.0647C22.9714 15.0997 23.0014 15.0997 23.0014 15.0597V14.7997L23.2414 14.7897L23.2214 15.0497C23.2164 15.0947 23.2364 15.1097 23.2464 15.0497L23.2814 14.7897L23.4464 14.7797C23.4464 14.8397 23.3914 14.9997 23.3764 15.0397C23.3614 15.0897 23.3864 15.0897 23.4014 15.0447C23.4357 14.9606 23.4625 14.8736 23.4814 14.7847V14.7797Z" fill="#CF6200"/>
<path d="M22.325 14.7393C22.3 14.6843 22.21 14.4843 22.205 14.3393H22.555C22.565 14.4443 22.595 14.6793 22.615 14.7343L22.325 14.7393ZM22.615 14.3293C22.62 14.4193 22.665 14.7043 22.675 14.7293H22.955L22.935 14.3243L22.615 14.3293ZM22.22 13.9793C22.2076 14.0788 22.2042 14.1792 22.21 14.2793L22.545 14.2643L22.515 13.9693L22.22 13.9793ZM22.585 13.9693L22.605 14.2693L22.935 14.2593L22.92 13.9593L22.585 13.9693ZM22.985 13.9543L22.995 14.2543L23.28 14.2493C23.28 14.1843 23.295 13.9893 23.29 13.9443L22.985 13.9543ZM23.345 13.9443L23.335 14.2443L23.645 14.2343C23.66 14.1693 23.69 13.9993 23.69 13.9343L23.345 13.9443ZM23.66 14.3043L23.33 14.3143L23.3 14.7143L23.615 14.7043C23.6593 14.6067 23.6977 14.5066 23.73 14.4043C23.705 14.3543 23.685 14.3393 23.66 14.3043ZM22.995 14.3243L23.005 14.7243L23.245 14.7143L23.275 14.3143L22.995 14.3243ZM21.645 14.2443L21.515 14.2643C21.4141 14.4139 21.309 14.5606 21.2 14.7043L21.665 14.6943L21.65 14.2443H21.645ZM21.705 14.2293L21.725 14.6893L22.005 14.6693L21.955 14.1893L21.705 14.2293Z" fill="black"/>
<path d="M20.3456 13.1496H18.8406V13.1096L20.3406 13.1296L20.3456 13.1496ZM21.5206 11.9396C21.5356 11.9396 21.5356 11.9396 21.5206 11.9396L20.3456 11.9196C20.3256 11.9196 20.3256 11.9196 20.3456 11.9196H21.5206V11.9396ZM20.2706 12.2696C20.2856 12.2696 20.2856 12.2896 20.2706 12.2896H18.9356C18.9206 12.2896 18.9356 12.2696 18.9356 12.2696H20.2706ZM20.3056 11.4096C20.3256 11.4096 20.3256 11.4296 20.3056 11.4296H18.9206C18.9006 11.4296 18.9006 11.4096 18.9206 11.4096H20.3056ZM20.2056 10.7246C20.2256 10.7246 20.2256 10.7446 20.2056 10.7446H18.8556C18.8406 10.7446 18.8556 10.7046 18.8556 10.7046L20.2256 10.7246H20.2056Z" fill="black"/>
<path d="M21.5206 11.9396C21.5356 11.9396 21.5356 11.9396 21.5206 11.9396ZM21.5206 11.9396L20.3456 11.9196M21.5206 11.9396V11.9196H20.3456M20.3456 11.9196C20.3256 11.9196 20.3256 11.9196 20.3456 11.9196ZM20.3456 13.1496H18.8406V13.1096L20.3406 13.1296L20.3456 13.1496ZM20.2706 12.2696C20.2856 12.2696 20.2856 12.2896 20.2706 12.2896H18.9356C18.9206 12.2896 18.9356 12.2696 18.9356 12.2696H20.2706ZM20.3056 11.4096C20.3256 11.4096 20.3256 11.4296 20.3056 11.4296H18.9206C18.9006 11.4296 18.9006 11.4096 18.9206 11.4096H20.3056ZM20.2056 10.7246C20.2256 10.7246 20.2256 10.7446 20.2056 10.7446H18.8556C18.8406 10.7446 18.8556 10.7046 18.8556 10.7046L20.2256 10.7246H20.2056Z" stroke="black" stroke-width="0.05"/>
<path d="M21.6156 10.3345L20.4406 10.3545" stroke="black" stroke-width="0.05"/>
<path d="M21.6744 11.0004C21.6944 11.0004 21.6944 11.0004 21.6744 11.0004H20.3994C20.3794 11.0004 20.3794 11.0004 20.3994 11.0004H21.6744ZM22.9444 11.9004V11.9204H21.5744C21.5344 11.9204 21.5344 11.9204 21.5744 11.9204H22.9494L22.9444 11.9004ZM22.9444 10.7454C22.9844 10.7454 22.9844 10.7654 22.9444 10.7654H21.5494C21.5294 10.7654 21.5294 10.7454 21.5494 10.7454H22.9594H22.9444ZM21.6494 12.7804C21.6694 12.7804 21.6694 12.8004 21.6494 12.8004H20.3994V12.7804H21.6494ZM22.8594 12.9554C22.8794 12.9554 22.8794 12.9554 22.8594 12.9554V12.9554Z" fill="black"/>
<path d="M21.6744 11.0004C21.6944 11.0004 21.6944 11.0004 21.6744 11.0004ZM21.6744 11.0004H20.3994M20.3994 11.0004C20.3794 11.0004 20.3794 11.0004 20.3994 11.0004ZM21.5744 11.9204H22.9444V11.9004L22.9494 11.9204H21.5744ZM21.5744 11.9204C21.5344 11.9204 21.5344 11.9204 21.5744 11.9204ZM22.8594 12.9554C22.8794 12.9554 22.8794 12.9554 22.8594 12.9554ZM22.8594 12.9554H21.7644M22.9444 10.7454C22.9844 10.7454 22.9844 10.7654 22.9444 10.7654H21.5494C21.5294 10.7654 21.5294 10.7454 21.5494 10.7454H22.9594H22.9444ZM21.6494 12.7804C21.6694 12.7804 21.6694 12.8004 21.6494 12.8004H20.3994V12.7804H21.6494Z" stroke="black" stroke-width="0.05"/>
<path d="M23.8638 13.1495C23.8856 13.0591 23.8856 12.9648 23.8638 12.8745C23.8246 12.8859 23.7829 12.8859 23.7438 12.8745C23.7246 12.8599 23.7046 12.8466 23.6838 12.8345C23.6781 12.9626 23.6528 13.0891 23.6088 13.2095C23.5488 13.2095 23.4088 13.2095 23.3538 13.1695L23.2938 13.3645C23.3909 13.3859 23.4916 13.3859 23.5888 13.3645C23.5888 13.4795 23.5688 13.5795 23.5088 13.6595C23.6088 13.6595 23.7088 13.6595 23.7238 13.5995C23.7838 13.5195 23.7838 13.3995 23.8038 13.3445L23.9038 13.3245L23.9988 13.2845L24.1338 13.2645V13.1495L24.1738 13.0695L23.8638 13.1695V13.1495Z" fill="#EF072D" stroke="black" stroke-width="0.05"/>
<path d="M19.014 6.54038C18.859 6.54038 18.504 6.54038 18.429 6.58038C18.369 6.62038 18.349 6.64038 18.469 6.66038C18.584 6.68038 18.799 6.76038 18.919 6.81538C19.034 6.89538 19.114 7.01538 19.114 7.20538C19.0705 7.4465 19.1036 7.69522 19.2085 7.91666C19.3134 8.1381 19.4848 8.32122 19.699 8.44038C19.719 8.46038 19.739 8.47538 19.719 8.55538L19.659 8.77038C19.659 8.81038 19.639 8.85038 19.699 8.83038C19.6372 8.93678 19.5705 9.04022 19.499 9.14038C19.189 9.10538 18.919 9.14038 18.919 9.49038C18.919 9.53538 18.919 9.57038 18.954 9.49038C19.014 9.41538 19.074 9.34038 19.209 9.30038C19.134 9.43538 19.094 9.55038 19.109 9.63038C19.109 9.69038 19.149 9.73038 19.189 9.63038C19.209 9.55038 19.289 9.47538 19.349 9.41538C19.384 9.39538 19.384 9.39538 19.364 9.45538C19.3556 9.5321 19.377 9.6091 19.424 9.67038C19.464 9.71038 19.484 9.69038 19.464 9.63038C19.464 9.55038 19.464 9.41538 19.564 9.38038C19.679 9.30038 19.794 9.33538 19.834 9.41538C19.894 9.51538 19.934 9.41538 19.874 9.33538C19.814 9.26038 19.759 9.16038 19.679 9.16038L19.879 8.83038C19.879 8.79038 19.914 8.77038 19.954 8.79038C19.954 8.81038 19.994 8.81038 20.009 8.75038L20.149 8.47538L20.264 8.44038L20.464 8.73038V8.85038C20.464 8.92538 20.384 9.10038 20.364 9.16038C20.129 9.16038 20.014 9.16038 19.934 9.30038C19.894 9.35538 19.954 9.37538 20.009 9.35538C20.0694 9.3193 20.1386 9.3003 20.209 9.30038C20.244 9.30038 20.264 9.33538 20.209 9.35538C20.069 9.41538 19.974 9.51538 19.974 9.65038C19.974 9.69038 20.009 9.71038 20.029 9.65038C20.0862 9.55434 20.1771 9.48306 20.284 9.45038C20.284 9.55038 20.304 9.71038 20.384 9.75038C20.439 9.78538 20.439 9.75038 20.424 9.69038C20.384 9.59038 20.424 9.49038 20.479 9.43538C20.579 9.32038 20.814 9.47538 20.874 9.51538C20.909 9.55038 20.949 9.57038 20.909 9.45538C20.889 9.32038 20.694 9.25538 20.519 9.22038L20.754 8.40038C20.854 8.46038 20.954 8.30038 21.104 8.36038C21.3664 8.47762 21.6161 8.62174 21.849 8.79038C21.929 8.85038 21.949 8.83038 21.984 8.79038C22.024 8.77038 22.084 8.79038 22.144 8.79038C22.179 8.81038 22.219 8.83038 22.164 8.71038C22.0514 8.5055 21.89 8.33198 21.694 8.20538C21.849 8.20538 22.044 8.20538 22.044 8.16538C22.044 8.12538 21.809 8.04538 21.714 8.04538C21.829 8.02438 21.9361 7.97254 22.024 7.89538C22.064 7.85038 22.024 7.83038 21.869 7.83038C21.459 7.83038 21.244 7.83038 21.029 7.71538C20.679 7.51538 20.459 7.28538 20.284 7.20538C20.209 7.15038 20.149 7.03038 20.089 6.93538C19.989 6.63538 19.989 6.48538 19.739 6.38538C19.484 6.28538 19.149 6.40538 19.014 6.54038Z" fill="black" stroke="black" stroke-width="0.05"/>
<path d="M19.0353 6.61985H18.7053L18.9953 6.69985C19.0553 6.69985 19.0353 6.75485 18.9953 6.73485C18.9553 6.71985 18.9203 6.73485 18.9553 6.77485C19.1553 6.91485 19.1903 6.97485 19.1553 7.49985L19.2503 7.57985C19.2903 7.57985 19.2703 7.61485 19.2503 7.59485C19.2303 7.57985 19.1503 7.59485 19.2103 7.63485C19.2703 7.67485 19.3103 7.67485 19.2503 7.67485C19.1903 7.67485 19.1353 7.71485 19.2503 7.69485C19.3503 7.69485 19.4053 7.73485 19.2503 7.75485C19.1353 7.75485 19.1703 7.79485 19.2503 7.79485C19.3853 7.79485 19.3503 7.82985 19.3103 7.82985C19.2703 7.82985 19.2503 7.86985 19.3503 7.86985H19.4853C19.5053 7.86985 19.5253 7.86985 19.4853 7.88985C19.4453 7.88985 19.4453 7.92985 19.5053 7.92985C19.5653 7.92985 19.6053 7.92985 19.5453 7.94985C19.5253 7.94985 19.4853 7.96985 19.5453 7.98985C19.6803 7.98985 19.6953 8.02485 19.6603 8.04485C19.6203 8.06485 19.6003 8.06485 19.6603 8.06485C19.7203 8.06485 19.7803 8.08485 19.7203 8.10485C19.6803 8.10485 19.6603 8.14485 19.7203 8.14485C19.7803 8.14485 19.8203 8.18485 19.7803 8.20485C19.7403 8.22485 19.7203 8.24485 19.7803 8.24485C19.8353 8.24485 19.8553 8.25985 19.8153 8.27985C19.7803 8.31985 19.7603 8.31985 19.7153 8.27985C19.7153 8.24485 19.6803 8.24485 19.6803 8.27985L19.6403 8.22485C19.6203 8.16485 19.5803 8.16485 19.5803 8.22485C19.5803 8.27985 19.5453 8.24485 19.5053 8.22485C19.5999 8.33333 19.7281 8.40701 19.8694 8.43417C20.0108 8.46137 20.1572 8.44049 20.2853 8.37485C20.3053 8.37485 20.3253 8.37485 20.3453 8.43985L20.4603 8.65485C20.4803 8.68985 20.5203 8.65485 20.5203 8.61485L20.6403 8.27985C20.6403 8.22485 20.7153 8.17985 20.6953 8.33985C20.7553 8.29985 20.9903 8.27985 21.1853 8.33985C21.3738 8.41525 21.5519 8.51437 21.7153 8.63485C21.7293 8.64565 21.7456 8.65309 21.7629 8.65657C21.7803 8.66001 21.7982 8.65945 21.8153 8.65485C21.8653 8.65485 21.8903 8.65485 21.7903 8.55485C21.6903 8.45485 21.7353 8.41985 21.7903 8.45485C21.8503 8.49485 21.8903 8.47485 21.8303 8.41985L21.6353 8.24485C21.6153 8.24485 21.6153 8.20485 21.5203 8.20485H21.2203C21.1853 8.20485 21.1453 8.20485 21.2653 8.24485C21.3803 8.27985 21.5953 8.43985 21.6553 8.47485C21.7153 8.51485 21.7353 8.59485 21.6353 8.51485C21.4125 8.36669 21.1785 8.23629 20.9353 8.12485C20.4053 8.18485 19.9753 8.24485 19.6603 7.90985C19.5053 7.73485 19.5053 7.35985 19.7603 7.20985C19.7203 7.16485 19.7203 7.12985 19.7403 7.12985V7.00985C19.7003 6.98985 19.6603 6.94985 19.6603 6.90985C19.6003 6.90985 19.5603 6.81485 19.4653 6.85485C19.3653 6.89485 19.3503 6.85485 19.3103 6.83485C19.2903 6.79485 19.2703 6.79485 19.2103 6.79485C19.1503 6.79485 19.1103 6.79485 19.1103 6.75485C19.1103 6.71985 19.1503 6.71985 19.2303 6.75485C19.3653 6.81485 19.4803 6.85485 19.5803 6.71985C19.6603 6.59985 19.5453 6.50485 19.3853 6.46485C19.2103 6.42485 19.0953 6.56485 19.0153 6.61985H19.0353Z" fill="white" stroke="black" stroke-width="0.05"/>
<path d="M19.8948 6.56031C19.8371 6.50827 19.7689 6.46907 19.6948 6.44531C19.6448 6.44531 19.6448 6.48531 19.6598 6.50531V6.62031C19.6998 6.64031 19.7198 6.68031 19.6598 6.68031C19.6198 6.72031 19.6598 6.85531 19.7198 6.81531H19.7598C19.7598 6.81531 19.7598 6.87531 19.7948 6.87531C19.8348 6.87531 19.7948 6.91531 19.7948 6.93531H19.8348C19.8748 6.93531 19.8548 7.01031 19.8148 7.03531C19.8748 7.03531 19.8948 7.03531 19.8948 7.07031C19.9148 7.11031 19.9748 7.13031 19.9748 7.18531C19.9748 7.24531 19.9748 7.24531 19.8948 7.22531C19.8148 7.20531 19.8148 7.22531 19.7948 7.26531C19.7798 7.30531 19.7598 7.32531 19.7948 7.32531C19.8348 7.32531 19.8748 7.34531 19.8148 7.36531C19.7598 7.38031 19.6998 7.36531 19.6798 7.42031C19.6798 7.48031 19.6798 7.50031 19.7198 7.48031L19.8548 7.40031L19.9548 7.42031C19.9948 7.44031 19.9548 7.52031 19.9148 7.48031C19.8748 7.44031 19.8348 7.48031 19.8148 7.50031L19.7148 7.54031C19.6798 7.54031 19.6398 7.54031 19.6648 7.64031C19.6648 7.91031 19.8748 8.10531 20.2648 8.10531H20.9148C20.7948 8.02531 20.7148 7.99031 20.6548 7.99031H20.5998C20.6198 7.97031 20.5998 7.93031 20.5798 7.93031C20.5598 7.93031 20.5198 7.89031 20.4798 7.93031L20.2848 8.03031C20.2448 8.03031 20.1848 8.03031 20.2448 7.99031L20.4248 7.91031C20.4598 7.91031 20.4398 7.87031 20.4398 7.87031C20.4398 7.87031 20.4398 7.81031 20.4998 7.83031C20.6198 7.91031 20.7948 8.01031 20.8498 8.01031C20.9098 8.01031 20.9298 7.97031 20.8898 7.95031C20.8548 7.93031 20.8348 7.89031 20.8348 7.87031C20.8348 7.85031 20.8548 7.83031 20.9348 7.87031C21.0098 7.93031 21.1248 7.97031 21.1848 7.99031C21.2448 8.01031 21.2848 8.01031 21.1848 7.95031L20.7348 7.61531C20.6748 7.56031 20.6748 7.61531 20.6948 7.65531C20.7148 7.69531 20.6398 7.71531 20.5948 7.67531C20.5598 7.63531 20.5398 7.61531 20.5948 7.59531C20.6548 7.58031 20.6398 7.56031 20.5798 7.49531C20.4998 7.44531 20.4798 7.44531 20.4998 7.49531C20.5198 7.56031 20.5198 7.59531 20.4598 7.58031C20.4048 7.56031 20.3448 7.52031 20.4048 7.50031C20.4398 7.46031 20.5048 7.44031 20.4048 7.38031C20.3048 7.32531 20.3648 7.38031 20.3448 7.42031C20.3248 7.46031 20.2648 7.46031 20.2448 7.42031C20.2248 7.38031 20.1898 7.36531 20.2098 7.34531C20.2248 7.32531 20.2248 7.30531 20.2648 7.34531C20.3048 7.38031 20.3448 7.34531 20.2848 7.28531C20.2248 7.22531 20.2098 7.24531 20.2248 7.28531C20.2448 7.32531 20.1898 7.36531 20.1098 7.28531C20.0698 7.26531 20.0698 7.22531 20.1098 7.20531C20.1498 7.20531 20.1498 7.18531 20.1098 7.15031C19.9748 6.91531 20.0298 6.73531 19.8748 6.56031H19.8948Z" fill="white" stroke="black" stroke-width="0.05"/>
<path d="M19.9007 6.60021C19.8907 6.62021 19.8857 6.61522 19.8607 6.63521C19.8357 6.65521 19.8257 6.71021 19.8757 6.70521C19.8895 6.70377 19.9029 6.69946 19.9149 6.69258C19.927 6.6857 19.9375 6.67637 19.9457 6.66521C19.9343 6.64241 19.9209 6.62065 19.9057 6.60021H19.9007ZM19.7507 6.47021C19.7057 6.51021 19.7007 6.53021 19.7207 6.53021C19.7457 6.53021 19.7357 6.53021 19.7207 6.56021C19.7007 6.58521 19.7507 6.60021 19.7707 6.57521C19.7957 6.55521 19.7957 6.55021 19.8057 6.57521C19.8107 6.60021 19.8557 6.57521 19.8707 6.56021C19.8357 6.52521 19.7857 6.49521 19.7457 6.47021H19.7507ZM19.6757 6.69021C19.6257 6.71521 19.6407 6.85021 19.7207 6.81021C19.7457 6.80022 19.7657 6.81021 19.7657 6.82521V6.86022C19.7982 6.84681 19.8272 6.82629 19.8507 6.80021C19.8957 6.74021 19.8507 6.75021 19.7807 6.75021C19.7107 6.75021 19.6957 6.73521 19.7607 6.69521C19.8207 6.65521 19.7757 6.63521 19.6957 6.64521C19.7057 6.66021 19.7007 6.67521 19.6757 6.69021ZM19.9707 6.99021C19.9307 6.94521 19.9557 6.93021 19.9957 6.90521C20.0036 6.90197 20.0104 6.89681 20.0157 6.89021L19.9807 6.76022C19.9657 6.77022 19.9407 6.81521 19.9307 6.83522C19.9207 6.87021 19.9107 6.89022 19.8807 6.88522C19.8457 6.87021 19.8157 6.90521 19.8107 6.94021H19.8357C19.8457 6.94521 19.8507 6.97021 19.8457 6.99021C19.9407 6.99021 19.9557 7.04521 19.9707 7.09021C19.9907 7.14021 20.0057 7.13521 20.0207 7.10521C20.0357 7.07521 20.0057 7.03021 19.9707 6.99021Z" fill="#CF6200"/>
<path d="M19.9944 7.51928C19.9744 7.55928 19.9744 7.55428 19.9194 7.55428C19.8694 7.55928 19.7994 7.56928 19.7694 7.59928C19.7544 7.61428 19.6594 7.62428 19.6594 7.66428C19.6594 7.70928 19.6594 7.73928 19.6994 7.74428C19.7394 7.74428 19.7494 7.75428 19.7344 7.78428C19.7144 7.81428 19.7044 7.85928 19.7744 7.86928C19.8444 7.86928 19.8994 7.85428 19.9144 7.88928C19.9344 7.93928 19.9144 7.99428 19.9294 8.02428C19.9394 8.04928 19.9894 8.05928 20.0644 8.08428C20.1144 8.09428 20.3044 8.10928 20.3644 8.09928C20.4144 8.08928 20.3944 8.05928 20.3394 8.05928C20.2794 8.04928 20.2394 8.03928 20.2244 7.99928C20.2094 7.95428 20.1994 7.93428 20.2344 7.89928C20.2644 7.85928 20.2944 7.83428 20.2744 7.77428C20.2594 7.71928 20.2244 7.64928 20.1594 7.62928C20.0944 7.60928 20.1144 7.51428 20.0444 7.50928C20.0194 7.50928 20.0044 7.50928 19.9944 7.51928Z" fill="#FFFF00"/>
<path d="M19.6644 8.06962C19.7244 8.07962 19.7694 8.09462 19.7244 8.10962C19.6794 8.12462 19.6494 8.14962 19.7094 8.15462C19.7694 8.15462 19.8244 8.18462 19.7744 8.19462C19.7244 8.20962 19.7244 8.24462 19.7794 8.24462C19.8344 8.24462 19.8644 8.26462 19.8244 8.29462C19.7794 8.31462 19.7544 8.32962 19.7244 8.28962C19.6994 8.24462 19.6844 8.23962 19.6794 8.26462C19.6694 8.29462 19.6544 8.27462 19.6344 8.22962C19.6194 8.18962 19.5744 8.16962 19.5844 8.20462C19.5994 8.23962 19.5544 8.24962 19.5094 8.22962C19.5504 8.27762 19.5995 8.31822 19.6544 8.34962C19.7144 8.32962 19.7844 8.34962 19.8044 8.34962C19.8344 8.34962 19.9094 8.36962 19.9544 8.39462C19.9994 8.41462 20.0294 8.37462 20.0094 8.32962C19.9894 8.27962 19.9894 8.29462 19.9694 8.32962C19.9394 8.34962 19.9394 8.31462 19.9394 8.25962C19.9394 8.21962 19.9094 8.22462 19.9044 8.25462C19.8944 8.27962 19.8694 8.23462 19.8794 8.20962C19.8944 8.18462 19.8794 8.16962 19.8594 8.17962C19.8344 8.18962 19.8344 8.17962 19.8294 8.12962C19.8244 8.07462 19.8044 8.07962 19.7994 8.10462C19.7944 8.12462 19.7694 8.09462 19.7344 8.05462C19.7094 8.02462 19.6844 8.04462 19.6294 8.05962L19.6644 8.06962Z" fill="#CF6200"/>
<path d="M20.2812 8.38962C20.0062 8.49962 19.8062 8.44962 19.6562 8.34962C19.7162 8.32962 19.7862 8.34962 19.8112 8.34962C19.8362 8.34962 19.9162 8.36962 19.9562 8.39462C19.9962 8.41462 20.0312 8.37462 20.0112 8.32962C20.0462 8.37962 20.0762 8.40962 20.1212 8.40462L20.2812 8.38962ZM19.6912 7.09962C19.6712 7.03962 19.6562 7.02962 19.6262 7.03462C19.5962 7.03462 19.5812 7.02962 19.5462 7.01462C19.5162 6.99962 19.4712 7.01462 19.4662 7.07962C19.4562 7.14462 19.4162 7.16962 19.3662 7.20962C19.3162 7.24462 19.2912 7.27462 19.2912 7.33962C19.2912 7.39962 19.2762 7.40962 19.2412 7.45962L19.1862 7.52462L19.2462 7.55962C19.2862 7.57962 19.2712 7.60462 19.2362 7.59462C19.2012 7.58462 19.1612 7.60462 19.2262 7.61462C19.2862 7.62962 19.3112 7.66462 19.2562 7.66462C19.1912 7.64962 19.1262 7.70462 19.2412 7.68962C19.3562 7.67962 19.3962 7.73462 19.2662 7.73462C19.1312 7.73462 19.1812 7.77962 19.2562 7.77962C19.3812 7.77962 19.3412 7.81462 19.3062 7.81462C19.2762 7.81462 19.2612 7.86462 19.3462 7.84962L19.3762 7.79962C19.3912 7.75962 19.4012 7.64462 19.4512 7.60962C19.4962 7.57962 19.5212 7.52462 19.5212 7.49462C19.5212 7.46462 19.5962 7.30962 19.6362 7.27462C19.6862 7.23962 19.7062 7.15962 19.6862 7.10462L19.6912 7.09962Z" fill="#FFFF00"/>
<path d="M19.5911 7.10975C19.5461 7.07475 19.4961 7.09975 19.4961 7.15975C19.4961 7.20975 19.4661 7.23475 19.4261 7.25975C19.4037 7.27131 19.384 7.28755 19.3685 7.30739C19.353 7.32723 19.3419 7.35023 19.3361 7.37475C19.3361 7.42475 19.3461 7.44975 19.3161 7.48975C19.2811 7.52475 19.2761 7.55475 19.2961 7.57975C19.3261 7.59975 19.3261 7.59975 19.3311 7.62975C19.3461 7.65975 19.4011 7.62975 19.4011 7.59475C19.4011 7.55975 19.4161 7.55975 19.4511 7.53975C19.4911 7.51975 19.5511 7.41975 19.5361 7.39475C19.5261 7.36975 19.4861 7.34475 19.5361 7.30975C19.5861 7.26975 19.6261 7.25975 19.6261 7.22975C19.6261 7.18975 19.6361 7.17975 19.6511 7.16475C19.6661 7.14975 19.6211 7.12975 19.5911 7.11475V7.10975Z" fill="#CF6200"/>
<path d="M19.5898 7.06037C19.5598 7.05037 19.5398 7.11537 19.5848 7.12537C19.6298 7.13537 19.6348 7.08037 19.5848 7.06537L19.5898 7.06037ZM19.5848 7.14537C19.5498 7.15037 19.5098 7.19537 19.5648 7.19537C19.6248 7.18537 19.6448 7.14537 19.5798 7.14537H19.5848ZM19.5148 7.23037C19.4798 7.24537 19.4898 7.29537 19.5398 7.26037C19.5898 7.22537 19.5998 7.18537 19.5148 7.23037ZM19.4648 7.30037C19.4298 7.31537 19.4298 7.36537 19.4848 7.33037C19.5348 7.30037 19.5498 7.25537 19.4648 7.30037Z" fill="black"/>
<path d="M19.3957 7.33471C19.3607 7.34971 19.3807 7.39471 19.4307 7.36471C19.4807 7.33471 19.4807 7.28971 19.3957 7.33471ZM19.4357 7.37971C19.3957 7.39471 19.4207 7.43971 19.4707 7.40971C19.5207 7.37971 19.5207 7.33471 19.4307 7.37971H19.4357Z" fill="black"/>
<path d="M19.3702 7.3955C19.3402 7.4155 19.3602 7.4555 19.4152 7.4255C19.4652 7.3955 19.4602 7.3505 19.3702 7.3955ZM19.4152 7.4455C19.3752 7.4605 19.3952 7.5055 19.4502 7.4755C19.5002 7.4405 19.5002 7.4005 19.4102 7.4455H19.4152Z" fill="black"/>
<path d="M19.3514 7.47534C19.3214 7.49034 19.3414 7.53534 19.3964 7.50534C19.4464 7.47534 19.4364 7.43034 19.3564 7.47534H19.3514Z" fill="black"/>
<path d="M19.3513 7.51523C19.3263 7.53523 19.3463 7.58523 19.4013 7.55023C19.4513 7.51523 19.4413 7.47523 19.3513 7.51523Z" fill="black"/>
<path d="M19.3299 7.94531C19.2949 7.94531 19.2699 8.00031 19.3149 8.01031C19.3599 8.02031 19.3699 8.02531 19.3699 8.05531C19.3699 8.08531 19.3849 8.14031 19.4299 8.14031C19.4799 8.14031 19.5199 8.09031 19.4799 8.07531C19.4349 8.06031 19.3999 8.04531 19.3949 8.00531C19.3949 7.97031 19.3549 7.94531 19.3299 7.94531Z" fill="#CF6200"/>
<path d="M20.575 7.65068L20.6 7.68068C20.635 7.70568 20.7 7.68068 20.685 7.65568C20.68 7.63568 20.645 7.55568 20.735 7.61568L21.195 7.94068C21.29 8.01068 21.225 8.02068 21.185 7.99568L20.935 7.88068C20.86 7.83568 20.85 7.85568 20.835 7.86568C20.835 7.88068 20.835 7.91068 20.865 7.93568C20.82 7.94068 20.75 7.93568 20.725 7.88568C20.7 7.82568 20.64 7.75568 20.595 7.70068C20.58 7.68068 20.575 7.66568 20.58 7.65568L20.575 7.65068Z" fill="#FFFF00"/>
<path d="M23.1002 15.9756C23.0352 16.0206 22.9502 16.0956 23.0052 16.2006L23.0252 16.1956C23.2691 15.8995 23.485 15.5815 23.6702 15.2456V15.2156C23.6022 15.2714 23.5264 15.3169 23.4452 15.3506C23.4752 15.4356 23.3302 15.5406 23.2602 15.5706C23.2902 15.6206 23.2802 15.7006 23.2102 15.7156C23.2252 15.7556 23.1752 15.7556 23.1102 15.7856C23.0552 15.8106 23.0252 15.8256 23.0052 15.8606C23.0352 15.8406 23.0852 15.8256 23.1052 15.8356C23.1252 15.8456 23.1352 15.8806 23.0902 15.8906C23.0502 15.9056 23.0202 15.9256 23.0002 15.9406C23.0652 15.9256 23.1602 15.9306 23.1002 15.9756Z" fill="#00D860"/>
<path d="M20.0892 7.55977C20.0092 7.49977 19.9892 7.53977 20.0092 7.55977C20.0292 7.57977 20.0092 7.63477 19.9542 7.65977H19.7542C19.7192 7.65977 19.6592 7.73477 19.7542 7.70977L20.0692 7.65977C20.1092 7.65977 20.1492 7.61477 20.0692 7.55977H20.0892ZM20.2242 7.67477C20.1692 7.61477 20.1492 7.63477 20.1692 7.67477C20.1892 7.71477 20.1492 7.73477 20.1092 7.73477L19.8342 7.80977C19.7592 7.80977 19.7592 7.86977 19.8542 7.86977C19.9542 7.86977 20.1492 7.76977 20.1692 7.76977C20.1892 7.76977 20.2092 7.71477 20.2242 7.73477C20.2442 7.75477 20.2842 7.73477 20.2242 7.67477ZM20.2842 7.82977L20.0892 7.92977C20.0292 7.92977 19.9892 7.98977 20.0892 7.98977C20.1892 7.98977 20.2892 7.88977 20.3242 7.86977L20.4042 7.82977C20.4042 7.82977 20.4792 7.80977 20.4042 7.75477C20.3242 7.69477 20.2442 7.75477 20.2842 7.77477C20.3242 7.79477 20.2842 7.82977 20.2842 7.82977Z" fill="black" stroke="black" stroke-width="0.05"/>
<path d="M19.4843 6.56069C19.3593 6.47569 19.2243 6.64569 19.3593 6.74069C19.4793 6.82569 19.6093 6.64069 19.4893 6.56069H19.4843Z" fill="black"/>
<path d="M19.3315 6.63428H19.3665C19.3665 6.67428 19.4015 6.73428 19.4565 6.71928C19.4115 6.75428 19.3265 6.70928 19.3315 6.63428ZM19.8115 8.48428C19.8515 8.49928 19.9815 8.50928 20.0315 8.50928L19.9715 8.61928C19.9565 8.65428 19.9515 8.65928 19.9465 8.60428C19.9465 8.55428 19.9165 8.51928 19.8915 8.57428L19.8415 8.67428C19.8265 8.69428 19.8065 8.69928 19.8115 8.64428C19.8215 8.58928 19.8165 8.52928 19.8115 8.48428Z" fill="white"/>
<path d="M24.7238 9.98448C24.7238 13.1695 24.2138 16.6095 20.0738 18.2495C15.9438 16.6095 15.4388 13.1695 15.4188 9.98448H24.7238ZM24.7238 9.98448C24.7238 8.76948 24.6638 7.59448 24.6838 6.58448C23.213 6.01256 21.6468 5.72576 20.0688 5.73948C19.0338 5.73948 16.9988 5.89448 15.4588 6.57948C15.4938 7.59448 15.4188 8.76948 15.4188 9.97948L24.7238 9.98448Z" stroke="black" stroke-width="0.15"/>
<path d="M-4 0H12V12H-4V0Z" fill="#012169"/>
<path d="M-2.125 0L3.975 4.525L10.05 0H12V1.55L6 6.025L12 10.475V12H10L4 7.525L-1.975 12H-4V10.5L1.975 6.05L-4 1.6V0H-2.125Z" fill="white"/>
<path d="M6.6 7.025L12 11V12L5.225 7.025H6.6ZM2 7.525L2.15 8.4L-2.65 12H-4L2 7.525ZM12 0V0.075L5.775 4.775L5.825 3.675L10.75 0H12ZM-4 0L1.975 4.4H0.475L-4 1.05V0Z" fill="#C8102E"/>
<path d="M2.025 0V12H6.025V0H2.025ZM-4 4V8H12V4H-4Z" fill="white"/>
<path d="M-4 4.825V7.225H12V4.825H-4ZM2.825 0V12H5.225V0H2.825Z" fill="#C8102E"/>
</g>
</g>
</g>
<defs>
<clipPath id="clip0_69_12216">
<rect width="24" height="24" rx="12" fill="white"/>
</clipPath>
<clipPath id="clip1_69_12216">
<rect width="32" height="24" fill="white" transform="translate(-4)"/>
</clipPath>
</defs>
</svg>
