<svg width="24" height="24" viewBox="0 0 24 24" fill="none" xmlns="http://www.w3.org/2000/svg">
<g clip-path="url(#clip0_69_12481)">
<g clip-path="url(#clip1_69_12481)">
<mask id="mask0_69_12481" style="mask-type:luminance" maskUnits="userSpaceOnUse" x="-4" y="0" width="32" height="24">
<path d="M28 0H-4V24H28V0Z" fill="white"/>
</mask>
<g mask="url(#mask0_69_12481)">
<path d="M28 24V0H-4V24H28Z" fill="#002868"/>
<path d="M25.5 8.72974V13.2297C25.5 16.2297 24 19.4597 20.25 21.2097C16.5 19.4597 15 16.2297 15 13.2297V8.72974H25.5Z" fill="#FCD116" stroke="black"/>
<path d="M25.5 8.72974V13.2297C25.5 16.2297 24 19.4597 20.25 21.2097C16.5 19.4597 15 16.2297 15 13.2297V8.72974H25.5Z" stroke="white" stroke-width="0.875"/>
<path d="M18.3544 13.6851C18.2194 13.9201 17.9844 13.9701 17.8044 13.8951C17.6194 13.8201 17.4494 13.3801 17.2594 13.1451C17.0794 12.9101 17.0294 13.0101 16.9094 12.8751C16.7345 12.7151 16.5309 12.5895 16.3094 12.5051C16.1444 12.4301 15.9744 12.3601 15.8594 12.0751C15.9101 11.9599 16.0032 11.8686 16.1194 11.8201C16.2144 11.7851 16.2894 11.6501 16.2994 11.5301C16.3144 11.4201 16.4144 11.2951 16.5494 11.2001C16.4844 11.2101 16.3544 11.1851 16.2944 11.1451C16.2394 11.0951 16.1444 11.1051 16.0894 11.1451C16.0294 11.1851 15.9594 11.1951 15.8594 11.1851C15.8994 11.1551 15.9694 11.0851 15.9744 11.0251C15.9794 10.9651 16.0544 10.9301 16.1994 10.9301C16.3394 10.9301 16.4294 10.7701 16.5444 10.7701C16.4644 10.7701 16.4794 10.6301 16.5244 10.6201C16.3244 10.5851 16.3494 10.4201 16.4294 10.4201C16.4244 10.4001 16.3994 10.3701 16.3044 10.3451C16.2194 10.3101 16.2594 10.2301 16.3294 10.1801C16.2694 10.0551 16.3244 9.96012 16.4244 9.88012C16.2844 9.87512 16.4394 9.68012 16.4744 9.57512C16.5144 9.47512 16.5294 9.46012 16.5744 9.52512C16.6244 9.58012 16.7394 9.71012 16.8694 9.75012C16.9944 9.78512 17.0694 9.85512 17.0944 9.96012C17.1194 10.0751 17.1694 10.1301 17.3044 10.1801C17.4494 10.2251 17.6444 10.3451 17.6194 10.6101C17.7139 10.6137 17.8048 10.6469 17.8794 10.7051" fill="#FCAD56"/>
<path d="M18.3544 13.6851C18.2194 13.9201 17.9844 13.9701 17.8044 13.8951C17.6194 13.8201 17.4494 13.3801 17.2594 13.1451C17.0794 12.9101 17.0294 13.0101 16.9094 12.8751C16.7345 12.7151 16.5309 12.5895 16.3094 12.5051C16.1444 12.4301 15.9744 12.3601 15.8594 12.0751C15.9101 11.9599 16.0032 11.8686 16.1194 11.8201C16.2144 11.7851 16.2894 11.6501 16.2994 11.5301C16.3144 11.4201 16.4144 11.2951 16.5494 11.2001C16.4844 11.2101 16.3544 11.1851 16.2944 11.1451C16.2394 11.0951 16.1444 11.1051 16.0894 11.1451C16.0294 11.1851 15.9594 11.1951 15.8594 11.1851C15.8994 11.1551 15.9694 11.0851 15.9744 11.0251C15.9794 10.9651 16.0544 10.9301 16.1994 10.9301C16.3394 10.9301 16.4294 10.7701 16.5444 10.7701C16.4644 10.7701 16.4794 10.6301 16.5244 10.6201C16.3244 10.5851 16.3494 10.4201 16.4294 10.4201C16.4244 10.4001 16.3994 10.3701 16.3044 10.3451C16.2194 10.3101 16.2594 10.2301 16.3294 10.1801C16.2694 10.0551 16.3244 9.96012 16.4244 9.88012C16.2844 9.87512 16.4394 9.68012 16.4744 9.57512C16.5144 9.47512 16.5294 9.46012 16.5744 9.52512C16.6244 9.58012 16.7394 9.71012 16.8694 9.75012C16.9944 9.78512 17.0694 9.85512 17.0944 9.96012C17.1194 10.0751 17.1694 10.1301 17.3044 10.1801C17.4494 10.2251 17.6444 10.3451 17.6194 10.6101C17.7139 10.6137 17.8048 10.6469 17.8794 10.7051" stroke="black" stroke-width="0.0375" stroke-linecap="round" stroke-linejoin="round"/>
<path d="M18.6991 10.3001C18.6985 10.3618 18.7122 10.4227 18.739 10.4783C18.766 10.5338 18.8053 10.5823 18.8541 10.6201C18.9491 10.6951 19.0291 10.7551 19.0091 10.8501C18.9941 10.9501 19.0291 11.0101 19.1091 11.0751C19.1991 11.1351 19.2591 11.2101 19.2391 11.3351C19.2191 11.4601 19.2291 11.5351 19.2791 11.6301C19.3291 11.7251 19.4191 11.8001 19.3791 11.9501C19.3391 12.1001 19.3591 12.3001 19.4091 12.4001C19.4591 12.4951 19.4091 12.5701 19.3241 12.7351C19.2341 12.9001 19.1841 12.9601 19.0041 13.0251C18.8191 13.0801 18.8041 13.1951 18.8041 13.3851C18.8041 13.5851 18.6741 13.6851 18.4291 13.6501C18.1791 13.8551 18.0241 13.6101 17.9591 13.3051C17.8941 13.0001 17.8891 12.6651 17.5191 12.4001C17.1541 12.1251 17.2991 11.6601 17.6041 11.4751C17.9091 11.2951 17.8741 10.7551 17.8341 10.4251C17.8041 10.0951 18.0241 9.9051 18.1941 9.7251C18.4191 9.8101 18.6991 10.1551 18.6991 10.3001Z" fill="#FFA1A1" stroke="black" stroke-width="0.0375" stroke-linecap="round" stroke-linejoin="round"/>
<path d="M18.1706 12.4299C18.1006 12.2699 18.0256 12.1049 18.2056 11.7549C18.3956 11.3999 18.2756 11.1299 18.2206 10.9499C18.1656 10.7749 18.1506 10.6099 18.2206 10.5349C18.2956 10.4699 18.3256 10.4249 18.3306 10.3049C18.3356 10.1949 18.4306 10.2299 18.4456 10.2849C18.4606 10.3399 18.4706 10.4349 18.3706 10.6049C18.2706 10.7799 18.6506 11.2049 18.4756 11.6599C18.3556 11.9799 18.5156 12.3849 18.5756 12.6699C18.6356 12.9549 18.6756 13.6199 18.2606 13.7199C18.5456 13.5849 18.2806 12.6949 18.1706 12.4299Z" fill="#F1B2DC" stroke="black" stroke-width="0.0375" stroke-linecap="round" stroke-linejoin="round"/>
<path d="M16.3156 12.3795C16.3806 12.3945 16.4156 12.3545 16.4356 12.3095C16.4556 12.2645 16.4706 12.2445 16.5356 12.2345C16.5956 12.2345 16.6956 12.2195 16.7206 12.1695C16.7406 12.1195 16.8156 12.1595 16.8806 12.0345C16.9456 11.9045 16.9856 11.7545 17.1556 11.6995M17.6206 10.6095C17.5556 10.6095 17.3756 10.6195 17.3006 10.7795M16.7806 9.83447C16.9306 9.87947 16.8706 9.97947 16.9456 10.0345C17.0806 10.1445 16.9556 10.2545 17.0706 10.2845C17.1856 10.3145 17.1756 10.3345 17.1506 10.4595C17.1106 10.6045 17.2506 10.6095 17.2006 10.7045M16.5506 11.1995C16.6406 11.1195 16.8556 11.0545 16.9056 10.9695M16.5456 10.7695C16.6756 10.7595 16.8506 10.8095 16.8756 10.7595M16.5256 10.6245C16.5906 10.6245 16.7206 10.5795 16.7456 10.4945M16.4306 10.4245C16.5056 10.4245 16.6006 10.4195 16.6956 10.3495M16.3306 10.1795C16.3856 10.1345 16.4856 10.1845 16.5806 10.1245M16.4256 9.87947C16.4706 9.87947 16.5656 9.86947 16.5656 9.92447" stroke="black" stroke-width="0.0375" stroke-linecap="round" stroke-linejoin="round"/>
<path d="M22.4062 11.0235C22.4062 11.0235 21.9688 10.6548 21.6062 10.4048C21.2438 10.1548 20.8062 9.84853 20.8062 9.78601C20.875 9.73601 21.2438 9.97353 21.75 10.2798C22.2625 10.5923 22.55 10.8985 22.55 10.8985L22.4062 11.0235ZM22.375 11.2735C22.375 11.2735 21.95 11.0173 21.5312 10.836C21.0938 10.6548 20.4375 10.6548 20.3688 10.5923C20.3688 10.5298 21.1312 10.4923 21.675 10.711C22.2312 10.9673 22.5188 11.1485 22.5188 11.1485L22.375 11.2735ZM22.3688 11.6985C22.3688 11.6985 21.9062 11.486 21.4562 11.386C21.0188 11.286 20.3938 11.3235 20.3188 11.2673C20.3188 11.2048 21.0938 11.0798 21.675 11.2673C22.2625 11.4485 22.5125 11.5735 22.5125 11.5735L22.3688 11.6985ZM22.3438 12.1298C22.3438 12.1298 21.9938 11.8923 21.5312 11.8423C21.0938 11.7985 20.5125 12.1298 20.4375 12.0673C20.4375 12.0048 20.9438 11.636 21.575 11.6985C22.1938 11.761 22.4875 12.0048 22.4875 12.0048L22.3438 12.1298ZM22.4875 10.7673C22.4875 10.7673 22.0438 10.361 22.0438 10.086C22.0438 9.84229 22.3125 9.46729 22.4312 9.46729C22.3688 9.59229 22.1625 9.84229 22.1625 10.086C22.1625 10.336 22.6312 10.6423 22.6312 10.6423L22.4875 10.7673Z" fill="#9E540A" stroke="black" stroke-width="0.034375" stroke-linecap="round" stroke-linejoin="round"/>
<path d="M22.486 10.7672C22.486 10.7672 22.5736 10.3609 22.5736 10.0859C22.5736 9.71717 22.311 9.37965 22.336 9.28589C22.4298 9.37965 22.6923 9.65465 22.6923 10.0859C22.6923 10.4609 22.6298 10.6422 22.6298 10.6422L22.486 10.7672Z" fill="#9E540A" stroke="black" stroke-width="0.034375" stroke-linecap="round" stroke-linejoin="round"/>
<path d="M22.5938 10.636C22.5938 10.5172 22.55 10.411 22.475 10.3297C22.375 10.211 22.225 10.1735 22.0688 10.1985C21.8812 10.2297 21.7312 10.3422 21.6375 10.5172C21.5125 10.7485 21.5 10.9985 21.4938 11.2422C21.4938 12.086 21.525 12.4297 21.55 13.261C21.5562 13.5047 21.6 14.0047 21.4875 14.3985C21.4438 14.5672 21.3938 14.7235 21.3188 14.886C21.3688 14.6797 21.3938 14.5735 21.4188 14.4172C21.4875 14.011 21.4688 13.6297 21.4562 13.2547C21.4312 12.486 21.3875 12.0922 21.3625 11.161C21.3562 10.8797 21.3812 10.6672 21.5125 10.4422C21.65 10.211 21.8875 10.0422 22.1562 10.0422C22.2688 10.0422 22.3625 10.061 22.4562 10.1172C22.6438 10.2172 22.7312 10.4235 22.7312 10.6297L22.5938 10.636Z" fill="#9E540A" stroke="#FCD116" stroke-width="0.1875" stroke-linecap="round" stroke-linejoin="round"/>
<path d="M22.5938 10.636C22.5938 10.5172 22.55 10.411 22.475 10.3297C22.375 10.211 22.225 10.1735 22.0688 10.1985C21.8812 10.2297 21.7312 10.3422 21.6375 10.5172C21.5125 10.7485 21.5 10.9985 21.4938 11.2422C21.4938 12.086 21.525 12.4297 21.55 13.261C21.5562 13.5047 21.6 14.0047 21.4875 14.3985C21.4438 14.5672 21.3938 14.7235 21.3188 14.886C21.3688 14.6797 21.3938 14.5735 21.4188 14.4172C21.4875 14.011 21.4688 13.6297 21.4562 13.2547C21.4312 12.486 21.3875 12.0922 21.3625 11.161C21.3562 10.8797 21.3812 10.6672 21.5125 10.4422C21.65 10.211 21.8875 10.0422 22.1562 10.0422C22.2688 10.0422 22.3625 10.061 22.4562 10.1172C22.6438 10.2172 22.7312 10.4235 22.7312 10.6297L22.5938 10.636Z" fill="#9E540A"/>
<path d="M22.6328 13.6486C22.6328 13.6486 22.4578 13.961 22.3266 14.186C22.1953 14.411 22.089 14.461 21.989 14.3923C21.8953 14.3236 21.9766 14.1423 22.0516 14.0548C22.1266 13.9673 22.5453 13.561 22.5453 13.561L22.6328 13.6486Z" fill="#9E540A" stroke="black" stroke-width="0.034375" stroke-linecap="round" stroke-linejoin="round"/>
<path d="M22.6748 13.6734C22.6748 13.6734 22.6061 14.0297 22.5498 14.2859C22.4998 14.5422 22.4123 14.6297 22.3061 14.5984C22.1936 14.5734 22.2123 14.3672 22.2561 14.2609C22.2998 14.1547 22.5623 13.6172 22.5623 13.6172L22.6748 13.6734Z" fill="#9E540A" stroke="black" stroke-width="0.034375" stroke-linecap="round" stroke-linejoin="round"/>
<path d="M22.7495 13.686V14.311C22.7495 14.5735 22.687 14.6798 22.5682 14.6735C22.4557 14.6673 22.4307 14.4673 22.4557 14.3485C22.4745 14.236 22.6307 13.6548 22.6307 13.6548L22.7495 13.686Z" fill="#9E540A" stroke="black" stroke-width="0.034375" stroke-linecap="round" stroke-linejoin="round"/>
<path d="M23.0938 11.0235C23.0938 11.0235 23.5312 10.6548 23.8938 10.4048C24.2562 10.1548 24.6938 9.84853 24.6938 9.78601C24.625 9.73601 24.2562 9.97353 23.75 10.2798C23.2375 10.5923 22.95 10.8985 22.95 10.8985L23.0938 11.0235ZM23.125 11.2735C23.125 11.2735 23.55 11.0173 23.9688 10.836C24.4062 10.6548 25.0625 10.6548 25.1312 10.5923C25.1312 10.5298 24.3688 10.4923 23.825 10.711C23.2688 10.9673 22.9812 11.1485 22.9812 11.1485L23.125 11.2735ZM23.1312 11.6985C23.1312 11.6985 23.5938 11.486 24.0438 11.386C24.4812 11.286 25.1062 11.3235 25.1812 11.2673C25.1812 11.2048 24.4062 11.0798 23.825 11.2673C23.2375 11.4485 22.9875 11.5735 22.9875 11.5735L23.1312 11.6985ZM23.1562 12.1298C23.1562 12.1298 23.5062 11.8923 23.9688 11.8423C24.4062 11.7985 24.9875 12.1298 25.0625 12.0673C25.0625 12.0048 24.5562 11.636 23.925 11.6985C23.3062 11.761 23.0125 12.0048 23.0125 12.0048L23.1562 12.1298ZM23.0125 10.7673C23.0125 10.7673 23.4562 10.361 23.4562 10.086C23.4562 9.84229 23.1875 9.46729 23.0688 9.46729C23.1312 9.59229 23.3375 9.84229 23.3375 10.086C23.3375 10.336 22.8688 10.6423 22.8688 10.6423L23.0125 10.7673Z" fill="#9E540A" stroke="black" stroke-width="0.034375" stroke-linecap="round" stroke-linejoin="round"/>
<path d="M23.014 10.7672C23.014 10.7672 22.9264 10.3609 22.9264 10.0859C22.9264 9.71717 23.189 9.37965 23.164 9.28589C23.0702 9.37965 22.8077 9.65465 22.8077 10.0859C22.8077 10.4609 22.8702 10.6422 22.8702 10.6422L23.014 10.7672Z" fill="#9E540A" stroke="black" stroke-width="0.034375" stroke-linecap="round" stroke-linejoin="round"/>
<path d="M22.9062 10.636C22.9062 10.5172 22.95 10.411 23.025 10.3297C23.125 10.211 23.275 10.1735 23.4312 10.1985C23.6188 10.2297 23.7688 10.3422 23.8625 10.5172C23.9875 10.7485 24 10.9985 24.0062 11.2422C24.0062 12.086 23.975 12.4297 23.95 13.261C23.9438 13.5047 23.9 14.0047 24.0125 14.3985C24.0562 14.5672 24.1062 14.7235 24.1812 14.886C24.1312 14.6797 24.1062 14.5735 24.0812 14.4172C24.0125 14.011 24.0312 13.6297 24.0438 13.2547C24.0688 12.486 24.1125 12.0922 24.1375 11.161C24.1438 10.8797 24.1188 10.6672 23.9875 10.4422C23.85 10.211 23.6125 10.0422 23.3438 10.0422C23.2312 10.0422 23.1375 10.061 23.0438 10.1172C22.8562 10.2172 22.7688 10.4235 22.7688 10.6297L22.9062 10.636Z" fill="#9E540A" stroke="#FCD116" stroke-width="0.1875" stroke-linecap="round" stroke-linejoin="round"/>
<path d="M22.9062 10.636C22.9062 10.5172 22.95 10.411 23.025 10.3297C23.125 10.211 23.275 10.1735 23.4312 10.1985C23.6188 10.2297 23.7688 10.3422 23.8625 10.5172C23.9875 10.7485 24 10.9985 24.0062 11.2422C24.0062 12.086 23.975 12.4297 23.95 13.261C23.9438 13.5047 23.9 14.0047 24.0125 14.3985C24.0562 14.5672 24.1062 14.7235 24.1812 14.886C24.1312 14.6797 24.1062 14.5735 24.0812 14.4172C24.0125 14.011 24.0312 13.6297 24.0438 13.2547C24.0688 12.486 24.1125 12.0922 24.1375 11.161C24.1438 10.8797 24.1188 10.6672 23.9875 10.4422C23.85 10.211 23.6125 10.0422 23.3438 10.0422C23.2312 10.0422 23.1375 10.061 23.0438 10.1172C22.8562 10.2172 22.7688 10.4235 22.7688 10.6297L22.9062 10.636Z" fill="#9E540A"/>
<path d="M22.8672 13.6486C22.8672 13.6486 23.0422 13.961 23.1734 14.186C23.3047 14.411 23.411 14.461 23.511 14.3923C23.6047 14.3236 23.5234 14.1423 23.4484 14.0548C23.3734 13.9673 22.9547 13.561 22.9547 13.561L22.8672 13.6486Z" fill="#9E540A" stroke="black" stroke-width="0.034375" stroke-linecap="round" stroke-linejoin="round"/>
<path d="M22.8252 13.6734C22.8252 13.6734 22.8939 14.0297 22.9502 14.2859C23.0002 14.5422 23.0877 14.6297 23.1939 14.5984C23.3064 14.5734 23.2877 14.3672 23.2439 14.2609C23.2002 14.1547 22.9377 13.6172 22.9377 13.6172L22.8252 13.6734Z" fill="#9E540A" stroke="black" stroke-width="0.034375" stroke-linecap="round" stroke-linejoin="round"/>
<path d="M22.7505 13.686V14.311C22.7505 14.5735 22.813 14.6798 22.9318 14.6735C23.0443 14.6673 23.0693 14.4673 23.0443 14.3485C23.0255 14.236 22.8693 13.6548 22.8693 13.6548L22.7505 13.686Z" fill="#9E540A" stroke="black" stroke-width="0.034375" stroke-linecap="round" stroke-linejoin="round"/>
<path d="M22.75 13.6796C22.4188 13.6734 22.3875 13.5546 22.3875 13.5546C22.3875 13.5546 22.3438 13.4046 22.3375 13.3108C22.3312 13.2984 22.2438 13.1108 22.2688 13.0296C22.2375 12.9546 22.1625 12.7734 22.2312 12.7421C22.2 12.6546 22.15 12.5546 22.1438 12.4608C22.1188 12.3921 22.0562 12.2421 22.1062 12.1921C22.1062 12.1921 21.9875 11.9421 22.0438 11.8796C22.0438 11.8796 21.9875 11.6358 22.0438 11.5734C22.0438 11.5734 22.0438 11.3234 22.1062 11.2608C22.1062 11.2608 22.1062 11.0171 22.1625 10.9546C22.1625 10.9671 22.3375 10.6108 22.75 10.6108L22.7438 11.1421H22.75V13.6796Z" fill="#9E540A" stroke="black" stroke-width="0.034375" stroke-linecap="round" stroke-linejoin="round"/>
<path d="M22.75 12.3172C22.2188 12.3109 22.1062 12.1922 22.1062 12.1922M22.75 12.0047C22.2188 12.0047 22.0438 11.8797 22.0438 11.8797M22.75 11.6985C22.2188 11.6922 22.0438 11.5735 22.0438 11.5735M22.75 11.3859C22.2188 11.3797 22.1062 11.2609 22.1062 11.2609M22.7438 11.1422C22.75 11.1422 22.3438 11.1422 22.2812 11.0797L22.1625 10.9609M22.75 13.4297C22.5938 13.4297 22.4188 13.4047 22.3375 13.3109M22.75 13.1797C22.4562 13.1797 22.2812 13.0609 22.2812 13.0609C22.2812 13.0609 22.275 13.0485 22.2688 13.0297M22.75 12.8735C22.3625 12.8672 22.2562 12.7859 22.2312 12.7422M22.75 12.6235C22.2188 12.6235 22.1625 12.4985 22.1625 12.4985L22.1438 12.4609" stroke="black" stroke-width="0.034375" stroke-linecap="round" stroke-linejoin="round"/>
<path d="M22.75 13.6796C23.0812 13.6734 23.1125 13.5546 23.1125 13.5546C23.1125 13.5546 23.1562 13.4046 23.1625 13.3108C23.1688 13.2984 23.2562 13.1108 23.2312 13.0296C23.2625 12.9546 23.3375 12.7734 23.2688 12.7421C23.3 12.6546 23.35 12.5546 23.3562 12.4608C23.3812 12.3921 23.4438 12.2421 23.3938 12.1921C23.3938 12.1921 23.5125 11.9421 23.4562 11.8796C23.4562 11.8796 23.5125 11.6358 23.4562 11.5734C23.4562 11.5734 23.4562 11.3234 23.3938 11.2608C23.3938 11.2608 23.3938 11.0171 23.3375 10.9546C23.3375 10.9671 23.1625 10.6108 22.75 10.6108L22.7562 11.1421H22.75V13.6796Z" fill="#9E540A" stroke="black" stroke-width="0.034375" stroke-linecap="round" stroke-linejoin="round"/>
<path d="M22.75 12.3172C23.2812 12.3109 23.3938 12.1922 23.3938 12.1922M22.75 12.0047C23.2812 12.0047 23.4562 11.8797 23.4562 11.8797M22.75 11.6985C23.2812 11.6922 23.4562 11.5735 23.4562 11.5735M22.75 11.3859C23.2812 11.3797 23.3938 11.2609 23.3938 11.2609M22.7562 11.1422C22.75 11.1422 23.1562 11.1422 23.2188 11.0797L23.3375 10.9609M22.75 13.4297C22.9062 13.4297 23.0812 13.4047 23.1625 13.3109M22.75 13.1797C23.0438 13.1797 23.2188 13.0609 23.2188 13.0609C23.2188 13.0609 23.225 13.0485 23.2312 13.0297M22.75 12.8735C23.1375 12.8672 23.2438 12.7859 23.2688 12.7422M22.75 12.6235C23.2812 12.6235 23.3375 12.4985 23.3375 12.4985L23.3562 12.4609" stroke="black" stroke-width="0.034375" stroke-linecap="round" stroke-linejoin="round"/>
<path d="M20.2482 19.4297C19.9795 19.6797 19.4608 19.5172 19.2982 19.4047C19.1295 19.4609 18.6795 19.2859 18.5608 19.0922C18.2358 19.1359 18.1232 18.6734 18.1795 18.5547C18.267 18.3797 18.1108 18.2672 18.2232 18.1484C18.3795 17.9984 18.1358 17.8547 18.2858 17.7547C18.4358 17.6484 18.2482 17.4734 18.3982 17.3609C18.5545 17.2422 18.317 17.0797 18.4795 16.9984C18.642 16.9172 18.4608 16.7047 18.5982 16.6234C18.7358 16.5422 18.517 16.3359 18.7045 16.2422C18.8858 16.1484 18.7232 15.9859 18.867 15.9172C19.0232 15.8359 18.8795 15.6672 19.0232 15.6109C19.1858 15.5422 19.067 15.3609 19.2045 15.3109C19.3232 15.2672 19.2482 15.1547 19.3232 15.0547H20.2482" fill="#009E49"/>
<path d="M20.2482 19.4297C19.9795 19.6797 19.4608 19.5172 19.2982 19.4047C19.1295 19.4609 18.6795 19.2859 18.5608 19.0922C18.2358 19.1359 18.1232 18.6734 18.1795 18.5547C18.267 18.3797 18.1108 18.2672 18.2232 18.1484C18.3795 17.9984 18.1358 17.8547 18.2858 17.7547C18.4358 17.6484 18.2482 17.4734 18.3982 17.3609C18.5545 17.2422 18.317 17.0797 18.4795 16.9984C18.642 16.9172 18.4608 16.7047 18.5982 16.6234C18.7358 16.5422 18.517 16.3359 18.7045 16.2422C18.8858 16.1484 18.7232 15.9859 18.867 15.9172C19.0232 15.8359 18.8795 15.6672 19.0232 15.6109C19.1858 15.5422 19.067 15.3609 19.2045 15.3109C19.3232 15.2672 19.2482 15.1547 19.3232 15.0547H20.2482" stroke="black" stroke-width="0.034375" stroke-linecap="round" stroke-linejoin="round"/>
<path d="M19.6282 15.0923C19.5032 15.2173 19.6532 15.311 19.5282 15.461C19.397 15.6173 19.5158 15.6985 19.4095 15.836C19.3032 15.9735 19.4595 16.0423 19.3408 16.1985C19.222 16.3485 19.3658 16.4423 19.2345 16.5673C19.1095 16.6985 19.2595 16.811 19.1282 16.9485C19.0032 17.0923 19.1532 17.186 19.0282 17.311C18.897 17.4423 19.047 17.5798 18.922 17.7048C18.797 17.836 18.947 17.9985 18.8032 18.1485C18.6658 18.2985 18.8282 18.4173 18.7158 18.5298C18.597 18.6485 18.7032 18.7673 18.622 18.8485C18.5408 18.9298 18.5282 19.0423 18.5595 19.0923M19.872 15.136C19.7595 15.2923 19.9345 15.361 19.8282 15.486C19.722 15.6173 19.872 15.661 19.7908 15.811C19.7095 15.961 19.8532 15.9985 19.747 16.1485C19.6408 16.2985 19.8032 16.4173 19.6908 16.5673C19.572 16.7173 19.747 16.7985 19.6408 16.9485C19.5408 17.1048 19.6908 17.186 19.597 17.2985C19.5032 17.4173 19.6658 17.5298 19.547 17.6735C19.4345 17.811 19.597 17.9173 19.5032 18.0423C19.4095 18.1735 19.5408 18.311 19.4595 18.4173C19.3782 18.5173 19.5158 18.6735 19.397 18.811C19.2845 18.9485 19.422 19.0423 19.3532 19.136C19.2845 19.2298 19.2282 19.3673 19.297 19.4048" stroke="black" stroke-width="0.034375" stroke-linecap="round" stroke-linejoin="round"/>
<path d="M20.2486 19.4297C20.5174 19.6797 21.0361 19.5172 21.1986 19.4047C21.3674 19.4609 21.8174 19.2859 21.9361 19.0922C22.2611 19.1359 22.3736 18.6734 22.3174 18.5547C22.2299 18.3797 22.3861 18.2672 22.2736 18.1484C22.1174 17.9984 22.3611 17.8547 22.2111 17.7547C22.0611 17.6484 22.2486 17.4734 22.0986 17.3609C21.9424 17.2422 22.1799 17.0797 22.0174 16.9984C21.8549 16.9172 22.0361 16.7047 21.8986 16.6234C21.7611 16.5422 21.9799 16.3359 21.7924 16.2422C21.6111 16.1484 21.7736 15.9859 21.6299 15.9172C21.4736 15.8359 21.6174 15.6672 21.4736 15.6109C21.3111 15.5422 21.4299 15.3609 21.2924 15.3109C21.1736 15.2672 21.2486 15.1547 21.1736 15.0547H20.2486" fill="#009E49"/>
<path d="M20.2486 19.4297C20.5174 19.6797 21.0361 19.5172 21.1986 19.4047C21.3674 19.4609 21.8174 19.2859 21.9361 19.0922C22.2611 19.1359 22.3736 18.6734 22.3174 18.5547C22.2299 18.3797 22.3861 18.2672 22.2736 18.1484C22.1174 17.9984 22.3611 17.8547 22.2111 17.7547C22.0611 17.6484 22.2486 17.4734 22.0986 17.3609C21.9424 17.2422 22.1799 17.0797 22.0174 16.9984C21.8549 16.9172 22.0361 16.7047 21.8986 16.6234C21.7611 16.5422 21.9799 16.3359 21.7924 16.2422C21.6111 16.1484 21.7736 15.9859 21.6299 15.9172C21.4736 15.8359 21.6174 15.6672 21.4736 15.6109C21.3111 15.5422 21.4299 15.3609 21.2924 15.3109C21.1736 15.2672 21.2486 15.1547 21.1736 15.0547H20.2486" stroke="black" stroke-width="0.034375" stroke-linecap="round" stroke-linejoin="round"/>
<path d="M20.8686 15.0923C20.9936 15.2173 20.8436 15.311 20.9686 15.461C21.0999 15.6173 20.9811 15.6985 21.0874 15.836C21.1936 15.9735 21.0374 16.0423 21.1561 16.1985C21.2749 16.3485 21.1311 16.4423 21.2624 16.5673C21.3874 16.6985 21.2374 16.811 21.3686 16.9485C21.4936 17.0923 21.3436 17.186 21.4686 17.311C21.5999 17.4423 21.4499 17.5798 21.5749 17.7048C21.6999 17.836 21.5499 17.9985 21.6936 18.1485C21.8311 18.2985 21.6686 18.4173 21.7811 18.5298C21.8999 18.6485 21.7936 18.7673 21.8749 18.8485C21.9561 18.9298 21.9686 19.0423 21.9374 19.0923M20.6249 15.136C20.7374 15.2923 20.5624 15.361 20.6686 15.486C20.7749 15.6173 20.6249 15.661 20.7061 15.811C20.7874 15.961 20.6436 15.9985 20.7499 16.1485C20.8561 16.2985 20.6936 16.4173 20.8061 16.5673C20.9249 16.7173 20.7499 16.7985 20.8561 16.9485C20.9561 17.1048 20.8061 17.186 20.8999 17.2985C20.9936 17.4173 20.8311 17.5298 20.9499 17.6735C21.0624 17.811 20.8999 17.9173 20.9936 18.0423C21.0874 18.1735 20.9561 18.311 21.0374 18.4173C21.1186 18.5173 20.9811 18.6735 21.0999 18.811C21.2124 18.9485 21.0749 19.0423 21.1436 19.136C21.2124 19.2298 21.2686 19.3673 21.1999 19.4048" stroke="black" stroke-width="0.034375" stroke-linecap="round" stroke-linejoin="round"/>
<path d="M20.2469 19.4297V15.0547" stroke="#009E49" stroke-width="0.034375" stroke-linecap="round" stroke-linejoin="round"/>
<path d="M20.248 15.2798C20.1918 15.5235 20.3293 15.736 20.248 15.9423C20.1668 16.1423 20.3043 16.2235 20.2605 16.386C20.2105 16.5485 20.3168 16.6673 20.248 16.8423C20.1793 17.0173 20.3418 17.1548 20.248 17.386C20.1543 17.611 20.3105 17.6673 20.248 17.8985C20.1793 18.161 20.3668 18.2985 20.248 18.486C20.1293 18.6735 20.3543 18.7173 20.2605 18.9298C20.1668 19.136 20.3168 19.2173 20.248 19.4298" stroke="black" stroke-width="0.034375" stroke-linecap="round" stroke-linejoin="round"/>
<path d="M20.3406 16.0674C20.3094 16.1361 20.4344 16.2986 20.3656 16.4236C20.2906 16.5424 20.4031 16.7299 20.3281 16.8799C20.2531 17.0299 20.4469 17.2174 20.3719 17.3924C20.2906 17.5674 20.4094 17.7861 20.3719 17.9486C20.3406 18.1111 20.4531 18.4236 20.3719 18.5361C20.2906 18.6549 20.4531 18.6861 20.3594 18.9736C20.2656 19.2611 20.2031 19.0174 20.2594 18.9299C20.3781 18.7361 20.1281 18.6736 20.2469 18.4861C20.3656 18.2986 20.1781 18.1611 20.2469 17.8986C20.3094 17.6674 20.1531 17.6111 20.2469 17.3861C20.3406 17.1549 20.1781 17.0174 20.2469 16.8424C20.3156 16.6674 20.2094 16.5486 20.2594 16.3861C20.3031 16.2236 20.1656 16.1424 20.2469 15.9424C20.3094 15.7424 20.3719 15.9986 20.3406 16.0674ZM19.8156 16.2674C19.7719 16.3424 19.8906 16.4861 19.7844 16.6299C19.7094 16.7299 19.8344 16.8486 19.7281 16.9924C19.6594 17.0924 19.7969 17.2174 19.7031 17.3611C19.6406 17.4424 19.7469 17.5986 19.6719 17.7174C19.5969 17.8424 19.7094 17.9424 19.5781 18.1049C19.5031 18.1924 19.6344 18.4111 19.5531 18.4799C19.4719 18.5486 19.5469 18.8174 19.4906 18.8549C19.4406 18.8986 19.4906 19.0924 19.3531 19.1361C19.4219 19.0424 19.2844 18.9486 19.3969 18.8111C19.5156 18.6736 19.3781 18.5174 19.4594 18.4174C19.5406 18.3111 19.4094 18.1736 19.5031 18.0424C19.5969 17.9174 19.4344 17.8111 19.5469 17.6736C19.6656 17.5299 19.5031 17.4174 19.5969 17.2986C19.6906 17.1861 19.5406 17.1049 19.6406 16.9486C19.7469 16.7986 19.5719 16.7174 19.6906 16.5674C19.8031 16.4174 19.6406 16.2986 19.7469 16.1486C19.8531 15.9986 19.7094 15.9611 19.7906 15.8111C19.9406 15.8674 19.8656 16.1924 19.8156 16.2674ZM19.5031 15.8611C19.4406 15.9611 19.5281 16.0799 19.4344 16.2049C19.3406 16.3361 19.4344 16.4986 19.3406 16.6049C19.2469 16.7049 19.3656 16.9049 19.2469 16.9861C19.1281 17.0674 19.2031 17.3111 19.1094 17.3924C19.0156 17.4736 19.1094 17.7049 19.0031 17.8236C18.8969 17.9424 18.9469 18.1861 18.8844 18.2424C18.8281 18.2986 18.9656 18.4174 18.8656 18.4986C18.7594 18.5799 18.7594 18.7424 18.6219 18.8486C18.7031 18.7674 18.5969 18.6486 18.7156 18.5299C18.8281 18.4174 18.6656 18.2986 18.8031 18.1486C18.9469 17.9986 18.7969 17.8361 18.9219 17.7049C19.0469 17.5799 18.8969 17.4424 19.0281 17.3111C19.1531 17.1861 19.0031 17.0924 19.1281 16.9486C19.2594 16.8111 19.1094 16.6986 19.2344 16.5674C19.3656 16.4424 19.2219 16.3486 19.3406 16.1986C19.4594 16.0424 19.3031 15.9736 19.4094 15.8361C19.4594 15.7736 19.4594 15.7174 19.4594 15.6674C19.5344 15.4736 19.5344 15.8111 19.5031 15.8611Z" fill="#FCD116" stroke="black" stroke-width="0.034375" stroke-linecap="round" stroke-linejoin="round"/>
<path d="M19.3781 15.1984C19.3781 13.8859 19.5594 13.4297 20.2469 13.4297C20.9344 13.4297 21.1156 13.8859 21.1156 15.1984H19.3781Z" fill="#CE1126" stroke="black" stroke-width="0.034375" stroke-linecap="round" stroke-linejoin="round"/>
<path d="M19.3781 15.1984C19.3781 13.8859 19.5594 13.4297 20.2469 13.4297C19.9344 13.4297 19.7406 13.6734 19.6906 13.8359C19.6344 13.9984 19.6656 13.9859 19.7344 13.9234C19.8031 13.8609 19.7719 13.9984 19.7094 14.0734C19.6531 14.1484 19.5969 14.3672 19.6781 14.2984C19.7594 14.2234 19.8219 14.3047 19.7344 14.4297C19.6469 14.5484 19.5719 14.8359 19.6594 14.7359C19.7469 14.6359 19.7656 14.7984 19.7094 14.8797C19.6594 14.9609 19.6656 15.0359 19.7094 14.9984C19.7594 14.9609 19.7531 15.1297 19.7094 15.1984H19.3781ZM20.5719 15.1734C20.5719 14.9797 20.5781 14.5234 20.4719 14.3734C20.3969 14.2547 20.3969 14.1297 20.4844 14.2672C20.5719 14.4047 20.6156 14.3359 20.5531 14.1984C20.4781 14.0234 20.3781 13.8297 20.4031 13.7922C20.4344 13.7484 20.4531 13.7672 20.5156 13.8609C20.5781 13.9547 20.5906 13.8172 20.5219 13.7234C20.4531 13.6359 20.4594 13.6172 20.6031 13.6797C20.8594 13.7859 20.9844 14.0922 20.9844 15.1234L20.5719 15.1734Z" fill="black" stroke="black" stroke-width="0.034375" stroke-linecap="round" stroke-linejoin="round"/>
<path d="M20.2484 15.3855C19.9734 15.3855 19.6734 15.3418 19.4734 15.2605C19.2358 15.1668 19.2234 15.0855 19.3046 14.9855C19.3671 14.9105 19.4921 14.9543 19.6171 15.0105C19.7358 15.0605 20.0734 15.098 20.2484 15.098C20.4234 15.098 20.7608 15.0605 20.8796 15.0043C21.0046 14.9543 21.1296 14.9105 21.1921 14.9855C21.2734 15.0855 21.2608 15.1668 21.0234 15.2605C20.8234 15.3418 20.5234 15.3855 20.2484 15.3855Z" fill="#CE1126" stroke="black" stroke-width="0.034375" stroke-linecap="round" stroke-linejoin="round"/>
<path d="M-4 0H12V12H-4V0Z" fill="#012169"/>
<path d="M-2.125 0L3.975 4.525L10.05 0H12V1.55L6 6.025L12 10.475V12H10L4 7.525L-1.975 12H-4V10.5L1.975 6.05L-4 1.6V0H-2.125Z" fill="white"/>
<path d="M6.6 7.025L12 11V12L5.225 7.025H6.6ZM2 7.525L2.15 8.4L-2.65 12H-4L2 7.525ZM12 0V0.075L5.775 4.775L5.825 3.675L10.75 0H12ZM-4 0L1.975 4.4H0.475L-4 1.05V0Z" fill="#C8102E"/>
<path d="M2.025 0V12H6.025V0H2.025ZM-4 4V8H12V4H-4Z" fill="white"/>
<path d="M-4 4.825V7.225H12V4.825H-4ZM2.825 0V12H5.225V0H2.825Z" fill="#C8102E"/>
</g>
</g>
</g>
<defs>
<clipPath id="clip0_69_12481">
<rect width="24" height="24" rx="12" fill="white"/>
</clipPath>
<clipPath id="clip1_69_12481">
<rect width="32" height="24" fill="white" transform="translate(-4)"/>
</clipPath>
</defs>
</svg>
