<svg width="24" height="24" viewBox="0 0 24 24" fill="none" xmlns="http://www.w3.org/2000/svg">
<g clip-path="url(#clip0_69_12119)">
<g clip-path="url(#clip1_69_12119)">
<mask id="mask0_69_12119" style="mask-type:luminance" maskUnits="userSpaceOnUse" x="-4" y="0" width="32" height="24">
<path d="M28 0H-4V24H28V0Z" fill="white"/>
</mask>
<g mask="url(#mask0_69_12119)">
<path d="M-4 0H28V24H-4V0Z" fill="#006600"/>
<path d="M-4 0H28V17.145H-4V0Z" fill="white"/>
<path d="M-4 0H28V6.855H-4V0Z" fill="#CC0000"/>
<path d="M11.0406 11.6797C11.0877 11.5998 11.1594 11.5373 11.2449 11.5015C11.3305 11.4657 11.4253 11.4585 11.5153 11.481C11.6053 11.5034 11.6855 11.5544 11.7442 11.6263C11.8028 11.6982 11.8366 11.787 11.8406 11.8797V13.5997H12.1606V11.8847C12.1646 11.792 12.1984 11.7032 12.257 11.6313C12.3157 11.5594 12.3959 11.5084 12.4859 11.486C12.5759 11.4635 12.6707 11.4707 12.7563 11.5065C12.8418 11.5423 12.9135 11.6048 12.9606 11.6847C13.0102 11.533 13.0231 11.3718 12.9984 11.2142C12.9736 11.0566 12.9119 10.9071 12.8183 10.7779C12.7246 10.6488 12.6017 10.5436 12.4595 10.4712C12.3174 10.3986 12.1601 10.3608 12.0006 10.3608C11.8411 10.3608 11.6838 10.3986 11.5417 10.4712C11.3995 10.5436 11.2766 10.6488 11.1829 10.7779C11.0893 10.9071 11.0276 11.0566 11.0028 11.2142C10.9781 11.3718 10.991 11.533 11.0406 11.6847" fill="#F8C300"/>
<path d="M11.2687 11.2354C11.4091 11.2063 11.5551 11.2221 11.686 11.2804C11.817 11.3387 11.9264 11.4366 11.9987 11.5604C12.0711 11.4366 12.1805 11.3387 12.3114 11.2804C12.4424 11.2221 12.5883 11.2063 12.7287 11.2354C12.7077 11.0565 12.6218 10.8915 12.4873 10.7718C12.3527 10.6521 12.1789 10.5859 11.9987 10.5859C11.8186 10.5859 11.6448 10.6521 11.5102 10.7718C11.3756 10.8915 11.2897 11.0565 11.2687 11.2354Z" fill="white"/>
<path d="M11.84 12.9155C11.8187 13.1592 11.7292 13.3919 11.5816 13.587C11.434 13.782 11.2343 13.9315 11.0056 14.0182C10.7769 14.1049 10.5283 14.1253 10.2885 14.077C10.0487 14.0288 9.82742 13.9139 9.64998 13.7455C9.57474 13.9375 9.4565 14.1098 9.30433 14.249C9.15218 14.3882 8.97018 14.4907 8.77222 14.5486C8.5743 14.6066 8.36574 14.6184 8.16254 14.5832C7.9593 14.548 7.76686 14.4666 7.59998 14.3455C7.72498 15.5955 9.59997 15.3405 9.73997 14.1255C10.325 15.1605 11.62 14.8605 12 13.5955L11.84 12.9155Z" fill="#F8C300"/>
<path d="M12.16 12.9155C12.1812 13.1592 12.2708 13.3919 12.4184 13.587C12.566 13.782 12.7656 13.9315 12.9944 14.0182C13.2231 14.1049 13.4716 14.1253 13.7114 14.077C13.9512 14.0288 14.1726 13.9139 14.35 13.7455C14.4252 13.9375 14.5435 14.1098 14.6956 14.249C14.8478 14.3882 15.0298 14.4907 15.2278 14.5486C15.4257 14.6066 15.6342 14.6184 15.8374 14.5832C16.0407 14.548 16.2331 14.4666 16.4 14.3455C16.275 15.5955 14.4 15.3405 14.26 14.1255C13.675 15.1605 12.38 14.8605 12 13.5955L12.16 12.9155Z" fill="#F8C300"/>
<path d="M10.59 15.1297C10.325 15.6947 9.80498 15.7897 9.34998 15.3347C9.34998 15.3347 9.52998 15.2047 9.72998 15.1697C9.68998 15.0147 9.76498 14.7947 9.87498 14.6797C10.0206 14.7752 10.1284 14.9184 10.18 15.0847C10.455 15.0497 10.59 15.1347 10.59 15.1347V15.1297Z" fill="#F8C300"/>
<path d="M12.6405 15.0669C12.2868 15.581 11.7583 15.5898 11.3837 15.0666C11.3837 15.0666 11.5825 14.9677 11.7855 14.9659C11.7714 14.8064 11.8813 14.6016 12.0086 14.5061C12.1367 14.6241 12.2196 14.783 12.2433 14.9555C12.5204 14.9659 12.6397 15.0718 12.6397 15.0718L12.6405 15.0669Z" fill="#F8C300"/>
<path d="M14.6521 15.3347C14.22 15.7849 13.6969 15.7082 13.4119 15.1313C13.4119 15.1313 13.624 15.0659 13.8247 15.0969C13.8365 14.9372 13.9781 14.7529 14.1191 14.6792C14.2264 14.8164 14.2827 14.9866 14.2782 15.1606C14.5499 15.2156 14.6505 15.3394 14.6505 15.3394L14.6521 15.3347Z" fill="#F8C300"/>
<path d="M8.67499 16.3906C10.8446 15.7448 13.1553 15.7448 15.325 16.3906" stroke="#F8C300" stroke-width="1.375"/>
<path d="M12.5176 8.9431L11.1625 7.95858H12.8374L11.4824 8.9431L12 7.3501L12.5176 8.9431Z" fill="#F8C300"/>
<path d="M10.1175 9.58661L8.76245 8.60209H10.4374L9.08237 9.58661L9.59993 7.99365L10.1175 9.58661Z" fill="#F8C300"/>
<path d="M8.36131 11.3415L7.00623 10.357H8.68119L7.32611 11.3415L7.84371 9.74854L8.36131 11.3415Z" fill="#F8C300"/>
<path d="M7.71757 13.7414L6.36249 12.7569H8.03745L6.68241 13.7414L7.19997 12.1484L7.71757 13.7414Z" fill="#F8C300"/>
<path d="M13.8824 9.58661L15.2375 8.60209H13.5626L14.9176 9.58661L14.4 7.99365L13.8824 9.58661Z" fill="#F8C300"/>
<path d="M15.6387 11.3415L16.9937 10.357H15.3188L16.6739 11.3415L16.1563 9.74854L15.6387 11.3415Z" fill="#F8C300"/>
<path d="M16.2825 13.7414L17.6375 12.7569H15.9626L17.3176 13.7414L16.8001 12.1484L16.2825 13.7414Z" fill="#F8C300"/>
</g>
</g>
</g>
<defs>
<clipPath id="clip0_69_12119">
<rect width="24" height="24" rx="12" fill="white"/>
</clipPath>
<clipPath id="clip1_69_12119">
<rect width="32" height="24" fill="white" transform="translate(-4)"/>
</clipPath>
</defs>
</svg>
