<svg width="24" height="24" viewBox="0 0 24 24" fill="none" xmlns="http://www.w3.org/2000/svg">
<g clip-path="url(#clip0_69_12191)">
<path d="M0 -1.19995H24V25.6H0V-1.19995Z" fill="#00247D"/>
<path d="M4.05374 16.4973C3.80249 16.4936 6.40874 15.1098 8.58749 13.3323C11.445 11.0036 17.5987 7.27983 19.41 6.67233C19.5975 6.60858 19.0237 6.99483 18.9487 7.11858C17.0175 9.40608 18.5587 13.7186 20.9737 15.8898C21.7012 16.4448 21.6637 16.4748 23.01 16.5273V16.6548L4.05374 16.4973ZM3.89624 16.7486C3.89624 16.7486 3.71249 16.8798 3.71249 16.9773C3.71249 17.0861 3.91874 17.2286 3.91874 17.2286L22.6125 17.4348L22.9575 17.2061L22.4775 16.9098L3.89624 16.7486Z" fill="#FED100"/>
<path d="M4.00499 7.29148L3.85499 7.74898L4.24499 7.46773L4.63124 7.74898L4.48499 7.29148L4.87124 7.01023H4.39124L4.24499 6.55273L4.09499 7.01023H3.61499L4.00499 7.29148ZM6.93374 9.44398L7.25624 9.20773H6.85499L6.73124 8.82898L6.60749 9.20773H6.20999L6.53249 9.44398L6.40874 9.82273L6.73124 9.58648L7.05749 9.82273L6.93374 9.44398ZM1.48874 9.93148L1.33874 9.47398L1.19249 9.93148H0.712494L1.09874 10.2127L0.952494 10.6702L1.33874 10.389L1.72874 10.6702L1.57874 10.2127L1.96874 9.93148H1.48874ZM4.41749 14.5177L4.24499 13.9852L4.07249 14.5177H3.50999L3.96374 14.844L3.79124 15.3802L4.24499 15.0502L4.69874 15.3802L4.52249 14.844L4.97624 14.5177H4.41749Z" fill="white"/>
</g>
<defs>
<clipPath id="clip0_69_12191">
<rect width="24" height="24" rx="12" fill="white"/>
</clipPath>
</defs>
</svg>
