<svg width="24" height="24" viewBox="0 0 24 24" fill="none" xmlns="http://www.w3.org/2000/svg">
<g clip-path="url(#clip0_69_12314)">
<g clip-path="url(#clip1_69_12314)">
<mask id="mask0_69_12314" style="mask-type:luminance" maskUnits="userSpaceOnUse" x="-4" y="0" width="32" height="24">
<path d="M28 0H-4V24H28V0Z" fill="white"/>
</mask>
<g mask="url(#mask0_69_12314)">
<path d="M-4 0H28V24H-4V0Z" fill="#00843D"/>
<path d="M13.8806 2.65063C14.2624 2.82957 14.6019 3.08736 14.8768 3.40702C15.1518 3.72667 15.3558 4.10096 15.4756 4.5052C15.5955 4.9094 15.6283 5.33444 15.572 5.75228C15.5156 6.17012 15.3714 6.57128 15.1488 6.92936C14.9262 7.28744 14.6303 7.59428 14.2805 7.82972C13.9308 8.06516 13.5351 8.2238 13.1196 8.29524C12.704 8.36672 12.2781 8.34932 11.8698 8.24424C11.4615 8.13916 11.08 7.94876 10.7506 7.68564C11.4051 7.96096 12.1362 7.994 12.8129 7.7788C13.4895 7.5636 14.0673 7.11428 14.4424 6.51148C14.8176 5.90868 14.9656 5.19188 14.8599 4.48976C14.7542 3.78766 14.4017 3.14623 13.8656 2.68062L13.8806 2.65063ZM11.0506 4.85064L11.3706 3.81063L10.4856 4.45564H11.5806L10.6906 3.81063L11.0506 4.85064ZM11.0506 3.32063L11.3706 2.28062L10.4856 2.92563H11.5806L10.6906 2.26562L11.0506 3.32063ZM12.5606 4.10064L12.8806 3.06062L11.9906 3.70563H13.0906L12.2006 3.06062L12.5606 4.10064ZM9.51064 5.61564L9.85564 4.57564L8.96564 5.21564H10.0656L9.17564 4.57564L9.51064 5.61564ZM11.0256 6.38564L11.3656 5.35064L10.4806 5.99064H11.5756L10.6856 5.35064L11.0256 6.38564Z" fill="white"/>
<path d="M0.331238 0H6.81124V24H0.331238V0Z" fill="#D22630"/>
<path d="M1.9 0H1.69L1.275 0.38L1.125 0.21H1.275L1.235 0.06H0.989997L0.479997 0.51V0.7H0.729997V0.55L0.839997 0.66L0.574997 0.89L0.699997 1L0.324997 1.34V1.59L0.949997 1.015L0.839997 0.885L1.085 0.655L0.874997 0.45L1.01 0.3L1.29 0.56L1.9 0ZM0.349997 0V0.435L0.474997 0.3V0.115H0.624997L0.764997 0H0.349997ZM1.48 0H1.33L1.35 0.115L1.48 0Z" fill="#383739"/>
<path d="M1.88124 0H1.69124L1.29124 0.38L1.10624 0.19H1.27624L1.23624 0.055H1.01124L0.516238 0.53V0.68H0.706238V0.49L0.876238 0.66L0.611238 0.89L0.726238 1L0.346238 1.38V1.57L0.916238 1L0.801238 0.89L1.06624 0.66L0.841238 0.455L1.03124 0.285L1.29124 0.55L1.86124 0H1.88124ZM0.331238 0V0.415L0.441238 0.285V0.095H0.611238L0.726238 0H0.331238ZM1.46124 0H1.37124V0.075L1.46124 0Z" fill="#FFC72C"/>
<path d="M0.329997 2.77979V3.02479L0.689997 3.36479L0.554997 3.47479L0.819997 3.72479L0.704997 3.81479V3.66479H0.479997V3.85478L0.989997 4.32978H1.24L1.275 4.13978H1.1L1.25 4.00478L1.665 4.38478L1.25 4.72478L1.1 4.58978H1.25L1.21 4.40478H0.964997L0.474997 4.91478V5.09978H0.724997V4.91478L0.834997 5.02478L0.569997 5.25478L0.699997 5.38478L0.324997 5.72478V5.95478L0.949997 5.38478L0.839997 5.25478L1.085 5.02478L0.874997 4.81978L1.01 4.68478L1.29 4.91478L1.915 4.34478L1.29 3.77978L1.01 4.04478L0.874997 3.90979L1.085 3.70478L0.834997 3.45478L0.949997 3.34979L0.349997 2.77979H0.329997ZM0.329997 3.90979V4.81978L0.459997 4.66978V4.47978H0.609997L0.744997 4.36478L0.609997 4.24978H0.459997V4.06478L0.329997 3.90979ZM1.37 4.23478V4.47978L1.5 4.36478L1.37 4.23478Z" fill="#383739"/>
<path d="M0.331238 2.81396V3.00396L0.706238 3.36396L0.596238 3.47396L0.861238 3.72396L0.691238 3.85397V3.68396H0.501238V3.83396L0.991238 4.30898H1.21624L1.25624 4.17398H1.06624L1.27624 3.98396L1.71124 4.36398L1.27624 4.74398L1.08624 4.55398H1.25624L1.21624 4.43898H0.991238L0.501238 4.88898V5.04398H0.691238V4.85398L0.861238 5.02398L0.596238 5.25398L0.706238 5.38398L0.331238 5.74398V5.93398L0.896238 5.36398L0.781238 5.25398L1.04624 5.02398L0.821238 4.81898L1.01124 4.64898L1.29124 4.91398L1.88124 4.36398L1.27624 3.81396L0.991238 4.07898L0.821238 3.92896L1.04624 3.72396L0.781238 3.47396L0.916238 3.36396L0.331238 2.81396ZM0.331238 3.94896V4.77898L0.441238 4.66898V4.47898H0.611238L0.726238 4.36398L0.611238 4.26898H0.441238V4.07898L0.331238 3.94896ZM1.38624 4.26898V4.43898L1.48624 4.36398L1.38624 4.26898Z" fill="#FFC72C"/>
<path d="M0.329997 7.29541V7.56041L0.689997 7.90041L0.554997 8.01541L0.819997 8.24041L0.704997 8.35541V8.20541H0.479997V8.39041L0.989997 8.84041H1.24L1.275 8.69041H1.1L1.25 8.54041L1.665 8.90041L1.25 9.28041L1.1 9.11041H1.25L1.21 8.94041H0.964997L0.454997 9.41041V9.60041H0.719997V9.45041L0.834997 9.54541L0.569997 9.79041L0.699997 9.90041L0.324997 10.2454V10.4904L0.949997 9.92041L0.839997 9.79041L1.085 9.54041L0.874997 9.35541L1.01 9.20541L1.29 9.45041L1.915 8.88041L1.29 8.31541L1.01 8.58041L0.874997 8.43041L1.085 8.24041L0.834997 7.99041L0.949997 7.88041L0.349997 7.31541L0.329997 7.29541ZM0.329997 8.43041V9.31541L0.459997 9.18541V8.99541H0.609997L0.744997 8.88041L0.609997 8.75041H0.459997V8.58041L0.329997 8.43041ZM1.37 8.75041V9.00041L1.5 8.86541L1.37 8.75041Z" fill="#383739"/>
<path d="M0.331238 7.31567V7.50067L0.706238 7.88067L0.601238 8.00067L0.866238 8.22567L0.696238 8.37567V8.19067H0.501238V8.37567L0.991238 8.81067H1.21624L1.25624 8.68067H1.06624L1.27624 8.49067L1.71124 8.87067L1.27624 9.26567L1.08624 9.07567H1.25624L1.21624 8.94567H0.991238L0.501238 9.41567V9.56567H0.691238V9.38067L0.861238 9.53067L0.596238 9.77567L0.706238 9.89067L0.331238 10.2657V10.4557L0.896238 9.89067L0.781238 9.77567L1.04624 9.52567L0.821238 9.34067L1.01124 9.15067L1.29124 9.45067L1.88124 8.88567L1.27624 8.36067L0.991238 8.62067L0.821238 8.45067L1.04624 8.26567L0.781238 8.01567L0.916238 7.90567L0.331238 7.31567ZM0.331238 8.44567V9.29567L0.441238 9.16567V8.97567H0.611238L0.726238 8.88067L0.611238 8.77067H0.441238V8.58067L0.331238 8.46567V8.44567ZM1.38624 8.78567V8.95567L1.48624 8.86567L1.38624 8.78567Z" fill="#FFC72C"/>
<path d="M0.329997 11.8097V12.0397L0.689997 12.3797L0.554997 12.4897L0.819997 12.7397L0.704997 12.8497V12.6997H0.479997V12.8897L0.989997 13.3397H1.24L1.275 13.1697H1.1L1.25 13.0397L1.665 13.3997L1.25 13.7547L1.1 13.6047H1.25L1.21 13.4347H0.964997L0.454997 13.9097V14.0997H0.719997V13.9497L0.834997 14.0397L0.569997 14.2897L0.699997 14.3997L0.324997 14.7397V14.9897L0.949997 14.4147L0.839997 14.2797L1.085 14.0347L0.874997 13.8447L1.01 13.6947L1.29 13.9597L1.915 13.3947L1.29 12.8247L1.01 13.0747L0.874997 12.9397L1.085 12.7497L0.834997 12.4847L0.949997 12.3747L0.349997 11.8047L0.329997 11.8097ZM0.329997 12.9447V13.8347L0.459997 13.6847V13.5097H0.609997L0.749997 13.3997L0.614997 13.2647H0.464997V13.0997L0.329997 12.9447ZM1.37 13.2647V13.5147L1.5 13.3797L1.37 13.2647Z" fill="#383739"/>
<path d="M0.329997 11.8296V12.0196L0.704997 12.3946L0.594997 12.4946L0.859997 12.7346L0.689997 12.8846V12.6996H0.499997V12.8696L0.989997 13.3196H1.215L1.255 13.1896H1.065L1.275 12.9996L1.71 13.3796L1.275 13.7796L1.085 13.5846H1.255L1.215 13.4546H0.989997L0.499997 13.9046V14.0796H0.689997V13.8896L0.859997 14.0396L0.594997 14.2896L0.699997 14.3996L0.324997 14.7796V14.9646L0.894997 14.3996L0.779997 14.2846L1.045 14.0396L0.819997 13.8496L1.01 13.6646L1.29 13.9446L1.88 13.3796L1.275 12.8496L0.989997 13.1146L0.819997 12.9446L1.045 12.7546L0.779997 12.4896L0.914997 12.3796L0.329997 11.8296ZM0.329997 12.9646V13.8146L0.439997 13.6796V13.4996H0.609997L0.724997 13.3996L0.609997 13.2896H0.439997V13.0996L0.329997 12.9896V12.9646ZM1.385 13.3046V13.4746L1.485 13.3746L1.385 13.3046Z" fill="#FFC72C"/>
<path d="M0.329997 16.3296V16.5546L0.689997 16.8946L0.554997 17.0096L0.819997 17.2546L0.704997 17.3496V17.1996H0.479997V17.3846L0.989997 17.8596H1.24L1.275 17.6896H1.1L1.25 17.5396L1.665 17.9146L1.25 18.2746L1.1 18.1246H1.25L1.21 17.9546H0.964997L0.454997 18.4246V18.6146H0.719997V18.4446L0.834997 18.5546L0.569997 18.8046L0.699997 18.9146L0.324997 19.2546V19.4846L0.949997 18.9146L0.839997 18.8046L1.085 18.5546L0.874997 18.3496L1.01 18.2146L1.29 18.4796L1.915 17.9146L1.29 17.3496L1.01 17.5946L0.874997 17.4596L1.085 17.2546L0.834997 17.0046L0.949997 16.8996L0.329997 16.3296ZM0.329997 17.4596V18.3496L0.459997 18.1996V18.0296H0.609997L0.744997 17.8946L0.609997 17.7846H0.459997V17.5946L0.329997 17.4596ZM1.37 17.7846V18.0096L1.5 17.8946L1.37 17.7846Z" fill="#383739"/>
<path d="M0.331238 16.3501V16.5351L0.701238 16.9001L0.591238 17.0151L0.856238 17.2601L0.686238 17.4101V17.2201H0.501238V17.3901L0.991238 17.8401H1.21624L1.25624 17.7101H1.06624L1.27624 17.5251L1.71124 17.9001L1.27624 18.3001L1.08624 18.1101H1.25624L1.21624 17.9751H0.991238L0.501238 18.4301V18.6001H0.691238V18.4101L0.861238 18.5601L0.596238 18.8101L0.706238 18.9201L0.331238 19.3001V19.4701L0.896238 18.9001L0.781238 18.8001L1.04624 18.5551L0.821238 18.3501L1.01124 18.1801L1.29124 18.4451L1.88124 17.8951L1.27624 17.3451L0.991238 17.6151L0.821238 17.4651L1.04624 17.2551L0.781238 17.0051L0.916238 16.8951L0.331238 16.3501ZM0.331238 17.4801V18.3301L0.441238 18.2151V18.0301H0.611238L0.726238 17.9151L0.611238 17.8201H0.441238V17.6301L0.331238 17.5001V17.4801ZM1.38624 17.8001V17.9901L1.48624 17.8951L1.38624 17.8001Z" fill="#FFC72C"/>
<path d="M5.225 0H5.45L5.83 0.38L6.02 0.19H5.87L5.905 0.04H6.15L6.66 0.49V0.68H6.4V0.53L6.285 0.645L6.55 0.87L6.42 0.985L6.8 1.325V1.57L6.17 1L6.28 0.87L6.035 0.645L6.245 0.435L6.11 0.285L5.83 0.565L5.225 0ZM6.81 0V0.435L6.66 0.3V0.115H6.51L6.375 0H6.81ZM5.62 0H5.77L5.755 0.115L5.62 0Z" fill="#383739"/>
<path d="M5.26 0H5.41L5.85 0.38L6.035 0.19H5.865L5.905 0.055H6.13L6.625 0.53V0.68H6.435V0.49L6.285 0.66L6.53 0.89L6.415 1.02L6.795 1.38V1.57L6.225 1L6.34 0.89L6.075 0.66L6.3 0.455L6.11 0.285L5.865 0.565L5.25 0H5.26ZM6.81 0V0.415L6.68 0.285V0.095H6.51L6.41 0H6.81ZM5.64 0H5.755V0.075L5.64 0Z" fill="#FFC72C"/>
<path d="M6.81 2.77979V3.02479L6.435 3.36479L6.565 3.47479L6.3 3.72479L6.415 3.81479V3.66479H6.64V3.85478L6.13 4.32978H5.885L5.85 4.13978H6L5.85 4.00478L5.45 4.38478L5.83 4.72478L6 4.58978H5.85L5.885 4.40478H6.135L6.64 4.89478V5.08478H6.4V4.91478L6.285 5.02478L6.55 5.25478L6.42 5.38478L6.8 5.72478V5.95478L6.175 5.38478L6.285 5.25478L6.04 5.02478L6.25 4.81978L6.115 4.68478L5.835 4.91478L5.2 4.34478L5.825 3.77978L6.105 4.04478L6.24 3.90979L6.03 3.70478L6.28 3.45478L6.165 3.34479L6.79 2.77979H6.81ZM6.81 3.90979V4.81978L6.66 4.66978V4.47978H6.51L6.375 4.36478L6.51 4.24978H6.66V4.06478L6.81 3.90979ZM5.755 4.23478L5.77 4.36478L5.755 4.47978L5.62 4.36478L5.755 4.23478Z" fill="#383739"/>
<path d="M6.80876 2.81567V3.00567L6.39376 3.34567L6.50876 3.46067L6.25876 3.70567L6.40876 3.83567V3.66567H6.60376V3.81567L6.10876 4.29069H5.88376L5.84876 4.15569H6.03376L5.82876 3.97067L5.39376 4.34569L5.82876 4.72569L6.01876 4.53569H5.84876L5.88376 4.42069H6.10876L6.60376 4.87569V5.02569H6.41376V4.84069L6.26376 5.01069L6.50876 5.23569L6.39376 5.36569L6.77376 5.72569V5.91569L6.19876 5.35069L6.31376 5.23569L6.04876 5.01069L6.27376 4.80069L6.08876 4.63069L5.82376 4.89569L5.21876 4.34569L5.81876 3.79567L6.10376 4.06569L6.27376 3.91567L6.04876 3.70567L6.31376 3.45567L6.18376 3.34567L6.80876 2.81567ZM6.80876 3.95067V4.78069L6.67876 4.67069V4.48069H6.50876L6.40876 4.36569L6.50876 4.27069H6.67876V4.08069L6.80876 3.95067ZM5.73376 4.27069L5.75376 4.37069V4.44069L5.63876 4.36569L5.73376 4.27069Z" fill="#FFC72C"/>
<path d="M6.81124 7.29541V7.56041L6.43624 7.90041L6.56624 8.01541L6.30124 8.24041L6.41624 8.35541V8.20541H6.64124V8.39041L6.13124 8.84041H5.88624L5.83124 8.69041H5.98124L5.83124 8.54041L5.45124 8.88041L5.83124 9.26041L6.00124 9.09041H5.85124L5.88624 8.92041H6.13624L6.64124 9.39041V9.58041H6.40124V9.43041L6.28624 9.52541L6.55124 9.77041L6.42124 9.88541L6.80124 10.2254V10.4704L6.17124 9.90041L6.28124 9.77041L6.03624 9.52041L6.24624 9.33541L6.11124 9.18541L5.83124 9.45041L5.20624 8.88041L5.83124 8.31541L6.11124 8.58041L6.24624 8.43041L6.03624 8.24041L6.28624 7.99041L6.17124 7.88041L6.79624 7.31541L6.81124 7.29541ZM6.81124 8.43041V9.31541L6.66124 9.18541V8.99541H6.51124L6.37624 8.88041L6.51124 8.75041H6.66124V8.58041L6.81124 8.43041ZM5.75624 8.75041L5.77124 8.86541L5.75624 8.99541L5.62124 8.86541L5.75624 8.75041Z" fill="#383739"/>
<path d="M6.80876 7.31567V7.50067L6.40876 7.88067L6.52876 7.99567L6.27876 8.22067L6.42876 8.37067V8.18567H6.62376V8.37067L6.12876 8.80567H5.90376L5.86376 8.67567H6.05376L5.82876 8.50567L5.39376 8.88067L5.82876 9.28067L6.01876 9.09067H5.84876L5.88376 8.95567H6.10876L6.60376 9.43067V9.58067H6.41376V9.39067L6.26376 9.54067L6.50876 9.79067L6.39376 9.90067L6.77376 10.2807V10.4707L6.19876 9.90067L6.31376 9.79067L6.04876 9.54067L6.27376 9.35567L6.08876 9.16567L5.82376 9.45067L5.21876 8.88067L5.81876 8.35567L6.10376 8.61567L6.27376 8.44567L6.04876 8.26067L6.31376 8.01067L6.18376 7.90067L6.80876 7.31567ZM6.80876 8.44567V9.29567L6.67876 9.16567V8.97567H6.50876L6.40876 8.88067L6.50876 8.77067H6.67876V8.58067L6.80876 8.46567V8.44567ZM5.73376 8.78567L5.75376 8.86567V8.95567L5.63876 8.86567L5.73376 8.78567Z" fill="#FFC72C"/>
<path d="M6.81 11.8093V12.0393L6.435 12.3793L6.565 12.4893L6.3 12.7393L6.415 12.8493V12.6993H6.64V12.8893L6.13 13.3393H5.885L5.85 13.1693H6L5.85 13.0393L5.45 13.3993L5.83 13.7543L6 13.6043H5.85L5.885 13.4343H6.135L6.64 13.9093V14.0993H6.4V13.9493L6.285 14.0393L6.55 14.2893L6.42 14.3993L6.8 14.7393V14.9893L6.175 14.4193L6.285 14.2843L6.04 14.0393L6.25 13.8493L6.115 13.6993L5.835 13.9643L5.2 13.3993L5.825 12.8293L6.105 13.0793L6.24 12.9443L6.03 12.7543L6.28 12.4893L6.165 12.3793L6.79 11.8093H6.81ZM6.81 12.9443V13.8343L6.66 13.6843V13.5093H6.51L6.375 13.3993L6.51 13.2643H6.66V13.0993L6.81 12.9443ZM5.755 13.2643L5.77 13.3793L5.755 13.5093L5.62 13.3793L5.755 13.2643Z" fill="#383739"/>
<path d="M6.80876 11.8296V12.0196L6.40876 12.3946L6.52876 12.4946L6.27876 12.7346L6.42876 12.8846V12.6996H6.62376V12.8696L6.12876 13.3196H5.90376L5.86376 13.1896H6.05376L5.84876 12.9996L5.41376 13.3796L5.84876 13.7796L6.03376 13.5846H5.86376L5.90376 13.4546H6.12876L6.62376 13.9046V14.0796H6.43376V13.8896L6.28376 14.0396L6.52876 14.2896L6.41376 14.3996L6.79376 14.7796V14.9646L6.22376 14.3996L6.33876 14.2846L6.07376 14.0396L6.29876 13.8496L6.10876 13.6646L5.84876 13.9446L5.24376 13.3796L5.84376 12.8496L6.12876 13.1146L6.29876 12.9446L6.07376 12.7546L6.33876 12.4896L6.20376 12.3796L6.80876 11.8296ZM6.80876 12.9646V13.8146L6.67876 13.6796V13.4996H6.50876L6.40876 13.3996L6.50876 13.2896H6.67876V13.0996L6.80876 12.9896V12.9646ZM5.73376 13.3046L5.75376 13.3796V13.4746L5.63876 13.3746L5.73376 13.3046Z" fill="#FFC72C"/>
<path d="M6.80936 16.3296V16.5546L6.43436 16.8946L6.56436 17.0096L6.29936 17.2546L6.41436 17.3496V17.1996H6.63936V17.3846L6.12936 17.8596H5.88436L5.84936 17.6896H5.99936L5.84936 17.5396L5.44936 17.9146L5.82936 18.2746L5.99936 18.1246H5.84936L5.88436 17.9546H6.13436L6.63936 18.4246V18.6146H6.39936V18.4446L6.28436 18.5546L6.54936 18.8046L6.41936 18.9146L6.79936 19.2546V19.4846L6.17436 18.9146L6.28436 18.8046L6.03936 18.5546L6.24936 18.3496L6.11436 18.2146L5.83436 18.4796L5.20936 17.9146L5.83436 17.3496L6.11436 17.5946L6.24936 17.4596L6.03936 17.2546L6.28936 17.0046L6.17436 16.8946L6.80936 16.3296ZM6.80936 17.4596V18.3496L6.65936 18.1996V18.0296H6.50936L6.37436 17.8946L6.50936 17.7846H6.65936V17.5946L6.80936 17.4596ZM5.75436 17.7846L5.76936 17.8946L5.75436 18.0096L5.61936 17.8946L5.75436 17.7846Z" fill="#383739"/>
<path d="M6.80876 16.3501V16.5351L6.39876 16.9001L6.51376 17.0151L6.26376 17.2601L6.41376 17.4101V17.2201H6.60876V17.3901L6.11376 17.8401H5.88876L5.85376 17.7101H6.03876L5.83376 17.5251L5.39876 17.9001L5.83376 18.3001L6.02376 18.1101H5.84876L5.88376 17.9751H6.10876L6.60376 18.4301V18.6001H6.41376V18.4101L6.26376 18.5601L6.50876 18.8101L6.39376 18.9201L6.77376 19.3001V19.4701L6.19876 18.9001L6.31376 18.8001L6.04876 18.5551L6.27376 18.3501L6.08876 18.1801L5.82376 18.4451L5.21876 17.8951L5.81876 17.3451L6.10376 17.6151L6.27376 17.4651L6.04876 17.2551L6.31376 17.0051L6.18376 16.8951L6.80876 16.3501ZM6.80876 17.4801V18.3301L6.67876 18.2151V18.0301H6.50876L6.40876 17.9151L6.50876 17.8201H6.67876V17.6301L6.80876 17.5001V17.4801ZM5.73376 17.8001L5.75376 17.9001V17.9901L5.63876 17.8951L5.73376 17.8001Z" fill="#FFC72C"/>
<path d="M0.840643 21.2407C0.875643 21.3757 0.990643 21.4707 1.03064 21.6207C1.06564 21.4707 1.10564 21.3357 1.08064 21.1857C1.04564 21.0707 0.950644 20.9957 0.950644 20.8657C0.840644 20.9557 0.820643 21.0907 0.840643 21.2407ZM0.820644 21.8107C0.914284 21.9337 1.03836 22.0302 1.18064 22.0907C1.14064 21.9807 1.18064 21.9007 1.25564 21.8107C1.31064 21.7107 1.35064 21.6207 1.29064 21.4857C1.26836 21.5462 1.23808 21.6033 1.20064 21.6557C1.13704 21.7308 1.09704 21.823 1.08564 21.9207C1.01064 21.8657 0.990644 21.7907 0.950644 21.7157C0.891804 21.6038 0.801403 21.5116 0.690643 21.4507C0.725643 21.5807 0.740644 21.6957 0.820644 21.8107ZM1.33064 22.1857L1.29064 22.3757L1.08564 22.2257C0.990643 22.1257 0.875644 22.0907 0.800644 21.9757C0.801764 22.0464 0.819604 22.1159 0.852604 22.1784C0.885604 22.241 0.932883 22.2948 0.990643 22.3357L1.39064 22.5857C1.37064 22.4507 1.42564 22.3357 1.46064 22.2057C1.47272 22.1533 1.47224 22.0988 1.4592 22.0467C1.44616 21.9945 1.42096 21.9462 1.38564 21.9057C1.38564 21.9957 1.35064 22.0907 1.33064 22.1657V22.1857ZM1.59564 22.6207L1.74564 22.8857C1.61564 22.8457 1.50064 22.7707 1.37064 22.6957C1.23564 22.6207 1.08564 22.5857 0.950644 22.4707C0.981204 22.5786 1.0392 22.6767 1.11892 22.7556C1.19864 22.8344 1.2974 22.8913 1.40564 22.9207C1.57564 22.9607 1.70564 22.9407 1.89564 23.0207C1.87184 22.8882 1.828 22.76 1.76564 22.6407L1.65064 22.3757C1.6226 22.4102 1.60304 22.4508 1.59348 22.4942C1.58392 22.5376 1.58468 22.5826 1.59564 22.6257V22.6207ZM2.08564 22.9807C2.13372 23.0574 2.19868 23.1224 2.27564 23.1707C2.08564 23.1707 1.93564 23.0707 1.74564 23.0557C1.63564 23.0557 1.52064 23.0957 1.40564 23.0757C1.55564 23.1707 1.69064 23.2657 1.85564 23.2657C2.06564 23.3007 2.27564 23.2657 2.52064 23.2657C2.41896 23.1899 2.33528 23.0926 2.27564 22.9807C2.18064 22.8307 2.08564 22.7307 1.91564 22.7157L2.10564 22.9807H2.08564ZM2.75064 23.2807C2.42564 23.3407 2.10564 23.4157 1.76564 23.4157C2.12124 23.5639 2.51992 23.571 2.88064 23.4357C3.07064 23.3757 3.24064 23.3207 3.39064 23.3357C3.61564 23.3357 3.88064 23.4507 4.18564 23.7557L4.30064 23.6607C4.08828 23.4834 3.83828 23.3571 3.56964 23.2912C3.301 23.2254 3.02088 23.2218 2.75064 23.2807Z" fill="#FFC72C"/>
<path d="M1.13936 2.81442L0.60936 2.49942V1.73942L1.13936 1.41442V0.999425L1.61436 0.719425H2.01436L2.76436 0.284424H4.35436L5.10936 0.719425H5.48936L6.01936 0.999425V1.41442L6.52936 1.73942V2.48942L6.01936 2.81442V3.21442L5.52436 3.51443H5.12436L4.37436 3.92942H2.78436L2.02936 3.51443H1.64936L1.11936 3.21442L1.13936 2.81442Z" fill="#383739"/>
<path d="M2.76624 0.300049L2.01624 0.735049H1.63624L1.14124 1.02005V1.42005L0.631241 1.74005V2.49005L1.14124 2.79505V3.21505L1.63624 3.49505H2.01124L2.76624 3.91005H4.35624L5.11124 3.49505H5.49124L5.98124 3.21505V2.79505L6.49124 2.49505V1.74005L5.98124 1.41505V1.02005L5.49124 0.735049H5.11124L4.35624 0.300049H2.76624ZM2.80624 0.470049H4.31624L5.07624 0.890049H5.45124L5.83124 1.09505V1.51005L6.34124 1.83505V2.40005L5.81124 2.72005V3.12005L5.45124 3.34505H5.07624L4.31624 3.76005H2.80624L2.05124 3.35005H1.67124L1.29124 3.12505V2.72505L0.781241 2.40005V1.83505L1.31124 1.51005V1.10005L1.69124 0.895049H2.06624L2.80624 0.470049Z" fill="#00843D"/>
<path d="M3.56 2.11521V0.470215H2.805L2.065 0.905215H1.69L1.31 1.09521V1.51021L0.800003 1.83521V2.10021H3.56V3.74021H4.315L5.075 3.32521H5.45L5.79 3.12021V2.70021L6.32 2.38021V2.11521H3.56Z" fill="#FFC72C"/>
<path d="M0.800003 2.11558V2.38058L1.33 2.70058V3.12058L1.67 3.30558H2.07L2.82 3.74058H3.56V2.10058H6.32V1.83558L5.79 1.51058V1.13558L5.45 0.900576H5.075L4.315 0.465576H3.565V2.11558H0.800003Z" fill="white"/>
<path d="M1.93436 1.06005L1.80436 0.925049L1.68936 1.00005L1.81936 1.13505L1.63436 1.23005H2.00936L2.30936 1.53005L2.40936 1.41505L2.10436 1.13505V0.945049L1.93436 1.06005Z" fill="#383739"/>
<path d="M2.53876 1.00062L2.40876 0.890625L2.29376 0.965625L2.42376 1.07562L2.23376 1.17562H2.61376L2.91376 1.47562L3.01376 1.36062L2.72876 1.07562V0.890625L2.53876 1.00062ZM1.89376 1.38062L1.76376 1.26562L1.63376 1.36562L1.76376 1.47562L1.59376 1.57062H1.97376L2.27376 1.87062L2.36876 1.75562L2.06876 1.47562V1.28562L1.89376 1.38062Z" fill="#383739"/>
<path d="M3.56 0.470215H3.24L3.07 0.620215H2.73L2.5 0.755215L2.56 0.890215L2.765 0.775215H2.865L3.2 1.15521L3.56 0.945215V0.470215Z" fill="#383739"/>
<path d="M1.79936 0.944785L1.91436 1.05979L1.81936 1.11479L1.70936 1.01979L1.79936 0.944785ZM2.10436 0.984785V1.13479L2.38936 1.41479L2.31436 1.49479L2.01436 1.20979H1.70936L2.08436 0.959785L2.10436 0.984785ZM2.40436 0.904785L2.51936 1.00479L2.42436 1.07479L2.31436 0.964785L2.40436 0.904785ZM2.70936 0.904785V1.09979L2.99436 1.36479L2.91936 1.45979L2.61936 1.13979H2.31436L2.68936 0.909785L2.70936 0.904785Z" fill="#D22630"/>
<path d="M1.76376 1.30021L1.87876 1.40021L1.77876 1.45521L1.66876 1.36021L1.76376 1.30021ZM2.04876 1.30021V1.50021L2.34876 1.76021L2.27376 1.84021L1.97376 1.55521H1.67376L2.04876 1.30021ZM3.55876 0.470215H3.23876L3.06876 0.660215H2.74876L2.51876 0.760215L2.55876 0.870215L2.74876 0.750215H2.87876L3.17876 1.13021L3.55876 0.940215V0.470215Z" fill="#D22630"/>
<path d="M1.93436 3.17495L1.80436 3.28995L1.68936 3.21495L1.81936 3.09995L1.63436 2.98495H2.00936L2.30936 2.69995L2.40936 2.81495L2.09936 3.09995V3.28995L1.93436 3.17495Z" fill="#383739"/>
<path d="M2.53876 3.21584L2.40876 3.34584L2.29376 3.27084L2.42376 3.15584L2.23376 3.04584H2.61376L2.91376 2.76084L3.01376 2.85584L2.72876 3.13584V3.32584L2.53876 3.21584ZM1.89376 2.83584L1.76376 2.95084L1.63376 2.87084L1.76376 2.76084L1.59376 2.64584H1.97376L2.27376 2.36084L2.36876 2.46084L2.06876 2.74084V2.93084L1.89376 2.83584Z" fill="#383739"/>
<path d="M3.56 3.76104H3.24L3.07 3.59104H2.73L2.5 3.47604L2.56 3.32604L2.765 3.44104H2.865L3.2 3.06104L3.58 3.29104L3.56 3.76104Z" fill="#383739"/>
<path d="M1.79936 3.27021L1.91436 3.15521L1.81936 3.10021L1.70936 3.21521L1.79936 3.27021ZM2.10436 3.25021V3.08021L2.38936 2.79521L2.31436 2.72021L2.01436 3.00521H1.70936L2.08436 3.25521L2.10436 3.25021ZM2.40436 3.32521L2.51936 3.21521L2.42436 3.15521L2.31436 3.27021L2.40436 3.32521ZM2.70936 3.30521V3.12021L2.99436 2.85521L2.91936 2.78021L2.61936 3.06021H2.31436L2.68936 3.31021L2.70936 3.30521Z" fill="#D22630"/>
<path d="M1.76376 2.92964L1.87876 2.81464L1.77876 2.75964L1.66876 2.86964L1.76376 2.92964ZM2.04876 2.90964V2.73964L2.34876 2.45464L2.27376 2.37964L1.97376 2.66464H1.67376L2.04876 2.90964ZM3.55876 3.73964H3.23876L3.06876 3.56964H2.74876L2.51876 3.45964L2.55876 3.35964L2.74876 3.45964H2.87876L3.19876 3.07964L3.55876 3.28964V3.73964Z" fill="#D22630"/>
<path d="M1.72376 1.58589L1.57376 1.53589L1.36876 1.66589V1.70089L1.04376 2.11589L1.36876 2.51589V2.55089L1.55376 2.70089L1.72376 2.65089L1.63376 2.57089V2.45589L1.66876 2.42089H1.83876V1.81589H1.64876L1.63376 1.77589V1.65089L1.72376 1.58589Z" fill="#383739"/>
<path d="M1.38248 1.68005L1.57248 1.55005L1.68752 1.58505L1.61248 1.64505V1.77505L1.64748 1.83505H1.81748V2.40005H1.64748L1.61248 2.45505V2.59005L1.68752 2.62505L1.57248 2.68505L1.38248 2.55005V2.51505L1.06248 2.11505L1.38248 1.70005V1.68005Z" fill="#D22630"/>
<path d="M5.18436 1.06005L5.31936 0.925049L5.42936 1.00005L5.31936 1.13505L5.46936 1.23005H5.10936L4.80936 1.53005L4.70936 1.41505L5.01436 1.13505V0.945049L5.18436 1.06005Z" fill="#383739"/>
<path d="M4.58 1.00062L4.715 0.890625L4.825 0.965625L4.715 1.07562L4.865 1.17562H4.5L4.2 1.47562L4.1 1.36062L4.405 1.07562V0.890625L4.58 1.00062ZM5.225 1.38062L5.355 1.26562L5.49 1.36562L5.355 1.47562L5.525 1.57062H5.15L4.865 1.89062L4.77 1.77563L5.07 1.49562V1.30062L5.225 1.38062Z" fill="#383739"/>
<path d="M3.55936 0.470215H3.87936L4.06936 0.620215H4.38936L4.63936 0.755215L4.57936 0.890215L4.35436 0.775215H4.25936L3.91936 1.15521L3.55936 0.945215V0.470215Z" fill="#383739"/>
<path d="M5.31812 0.944785L5.20312 1.05979L5.29812 1.11479L5.41312 1.01979L5.31812 0.944785ZM5.03312 0.984785V1.13479L4.73312 1.41479L4.80812 1.49479L5.10812 1.20979H5.40812L5.03312 0.959785V0.984785ZM4.69312 0.904785L4.57812 1.00479L4.67812 1.07479L4.78812 0.964785L4.69312 0.904785ZM4.40812 0.904785V1.09979L4.12812 1.36479L4.20312 1.45979L4.50312 1.13979H4.80312L4.42812 0.909785L4.40812 0.904785Z" fill="#D22630"/>
<path d="M5.35436 1.3001L5.24436 1.4001L5.33436 1.4551L5.44936 1.3601L5.35436 1.3001ZM5.07436 1.3001V1.5001L4.76936 1.7601L4.84436 1.8401L5.14436 1.5551H5.44936L5.07436 1.3001ZM3.55936 0.475098H3.87936L4.04936 0.665098H4.37436L4.59936 0.765098L4.55936 0.875098L4.37436 0.760098H4.25936L3.91936 1.1401L3.55936 0.950098V0.475098Z" fill="#D22630"/>
<path d="M5.18436 3.17495L5.31936 3.28995L5.42936 3.21495L5.31936 3.09995L5.46936 2.98495H5.10936L4.80936 2.69995L4.70936 2.81495L5.01436 3.09995V3.28995L5.18436 3.17495Z" fill="#383739"/>
<path d="M4.58 3.21584L4.715 3.34584L4.825 3.27084L4.715 3.15584L4.865 3.04584H4.5L4.2 2.76084L4.1 2.85584L4.405 3.13584V3.32584L4.58 3.21584ZM5.225 2.83584L5.35 2.95084L5.485 2.87084L5.35 2.76084L5.52 2.64584H5.15L4.85 2.36084L4.75 2.46084L5.05 2.74084V2.93084L5.225 2.83584Z" fill="#383739"/>
<path d="M3.55936 3.76104H3.87936L4.06936 3.59104H4.38936L4.63936 3.47604L4.57936 3.32604L4.35436 3.44104H4.25936L3.91936 3.06104L3.55936 3.29104V3.76104Z" fill="#383739"/>
<path d="M5.31812 3.27022L5.19812 3.15021L5.29812 3.10021L5.41312 3.21521L5.31812 3.27022ZM5.03312 3.25021V3.08021L4.73312 2.79521L4.80812 2.72021L5.10812 3.00521H5.40812L5.03312 3.25021ZM4.71312 3.32521L4.59812 3.21521L4.69312 3.15521L4.80812 3.27022L4.71312 3.32521ZM4.42812 3.30521V3.12021L4.12812 2.87021L4.19812 2.80021L4.49812 3.08522H4.79812L4.42312 3.33521L4.42812 3.30521Z" fill="#D22630"/>
<path d="M5.35436 2.92964L5.24436 2.81464L5.33436 2.75964L5.44936 2.86964L5.35436 2.92964ZM5.07436 2.90964V2.73964L4.76936 2.45464L4.84436 2.37964L5.14436 2.66464H5.44936L5.07436 2.90964ZM3.55936 3.73964H3.87936L4.04936 3.56964H4.37436L4.59936 3.45964L4.55936 3.35964L4.37436 3.45964H4.25936L3.91936 3.07964L3.55936 3.28964V3.73964Z" fill="#D22630"/>
<path d="M5.39312 1.58589L5.54312 1.53589L5.75312 1.66589V1.70089L6.07312 2.11589L5.75312 2.51589V2.55089L5.56312 2.70089L5.39312 2.65089L5.48812 2.57089V2.45589L5.44812 2.42089H5.27812V1.81589H5.46812L5.48812 1.77589V1.65089L5.39312 1.58589Z" fill="#383739"/>
<path d="M5.735 1.68005L5.545 1.55005L5.43 1.58505L5.505 1.64505V1.77505L5.47 1.83505H5.3V2.40005H5.47L5.505 2.45505V2.59005L5.43 2.62505L5.545 2.68505L5.735 2.55005V2.51505L6.055 2.11505L5.735 1.70005V1.68005Z" fill="#D22630"/>
<path d="M1.44624 2.45572L1.37124 2.38072V2.35072L1.18124 2.12072L1.37124 1.89572V1.85072L1.44624 1.77572L1.61624 1.91072H1.51624L1.65124 2.04072H1.95124L2.20124 1.85072V1.36072H2.78624L3.48624 0.925723V0.815723L3.37124 0.755723L3.24124 0.855723V0.905723L3.14124 0.775723L3.33624 0.625723L3.54124 0.490723H3.61624L3.80624 0.625723H3.84624L4.03624 0.775723L3.93624 0.905723L3.92124 0.855723L3.78624 0.755723H3.75124L3.63624 0.830723V0.950723L4.33624 1.38572H4.94124V1.87572L5.16624 2.06572H5.46624L5.60124 1.93572H5.52624L5.67624 1.80072L5.75624 1.87572V1.91572L5.94124 2.14072L5.75624 2.36572V2.40572L5.67624 2.48072L5.52624 2.35072H5.60124L5.47124 2.21572H5.17124L4.94124 2.40572V2.89572H4.31624L3.61624 3.31072V3.42572L3.73124 3.50072H3.75124L3.88124 3.42572V3.37072L3.98124 3.50072L3.80624 3.63572H3.78624L3.58124 3.78572H3.50124L3.31124 3.63572H3.27124L3.08624 3.48572L3.19624 3.37072V3.42572L3.33124 3.50072H3.35124L3.46124 3.42572V3.31072L2.76124 2.89572H2.17624V2.40072L1.93124 2.21072H1.63124L1.50124 2.35072H1.59624L1.44624 2.45572Z" fill="#383739"/>
<path d="M3.56 3.5001L3.655 3.5501L3.56 3.6101V3.5001ZM3.335 3.5901L3.525 3.7401H3.56V3.6301L3.45 3.5501L3.565 3.4701V3.2501L2.81 2.8001H2.26V2.3451L1.98 2.1151H1.545L1.445 2.2501L1.335 2.1151H1.2L1.385 2.3251V2.3601L1.445 2.4401L1.555 2.3401H1.505V2.3251L1.635 2.1751H1.955L2.22 2.3601V2.8551H2.785L3.505 3.2901V3.4201L3.39 3.4951H3.335L3.22 3.4201V3.3851L3.145 3.4601L3.295 3.5901H3.335ZM1.445 2.0051L1.52 2.1001H1.35L1.445 2.0051ZM3.56 0.625098L3.485 0.680098L3.56 0.735098V0.625098ZM5.6 2.1351L5.675 2.2101L5.775 2.1151L5.6 2.1351ZM3.785 0.625098L3.6 0.475098H3.56V0.585098L3.675 0.685098L3.56 0.755098V0.950098L4.315 1.4001H4.865V1.8951L5.15 2.1001H5.585L5.675 1.9851L5.79 2.1001H5.925L5.735 1.9101V1.8501L5.675 1.8001L5.565 1.8901H5.62L5.49 2.0601H5.165L4.92 1.8701V1.3601H4.32L3.62 0.945098V0.815098L3.73 0.735098H3.785L3.9 0.815098V0.850098L3.975 0.755098L3.825 0.625098H3.785Z" fill="#FFC72C"/>
<path d="M3.56 3.6101L3.485 3.5551L3.56 3.4951V3.6101ZM1.52 2.1151L1.445 2.2151L1.345 2.1151H1.52ZM3.785 3.5901L3.6 3.7401H3.56V3.6301L3.675 3.5551L3.56 3.4751V3.2501L4.315 2.8001H4.865V2.3451L5.15 2.1151H5.585L5.675 2.2501L5.79 2.1151H5.925L5.735 2.3251V2.3601L5.675 2.4401L5.565 2.3401H5.62V2.3251L5.49 2.1751H5.165L4.92 2.3601V2.8551H4.32L3.6 3.2901V3.4201L3.71 3.4951H3.77L3.88 3.4201V3.3851L3.955 3.4601L3.805 3.5901H3.785ZM5.675 2.0051L5.6 2.1001H5.77L5.675 2.0051ZM3.335 0.625098L3.525 0.475098H3.56V0.585098L3.445 0.685098L3.56 0.755098V0.950098L2.805 1.4001H2.255V1.8951L1.975 2.0851H1.54L1.44 1.9701L1.33 2.0851H1.2L1.385 1.8951V1.8401L1.445 1.7801L1.555 1.8801H1.505L1.635 2.0451H1.955L2.22 1.8551V1.3651H2.785L3.525 0.950098V0.820098L3.41 0.740098H3.35L3.235 0.820098V0.855098L3.16 0.760098L3.31 0.630098H3.35L3.335 0.625098ZM3.56 0.755098L3.655 0.700098L3.56 0.645098V0.755098Z" fill="white"/>
<path d="M3.55936 2.11438V0.984375L2.80436 1.43438H2.27436V1.88938L2.00936 2.09938H3.55936V3.22937L4.31436 2.77938H4.84936V2.34438L5.11436 2.11438H3.55936Z" fill="#00843D"/>
<path d="M2.00936 2.11438L2.27436 2.34438V2.77938H2.80436L3.55936 3.22937V2.09938H5.10936L4.84436 1.88938V1.43938H4.31436L3.56436 0.984375V2.11438H2.00936Z" fill="#D22630"/>
<path d="M2.76436 1.56933L2.63436 1.43433L2.51936 1.53433L2.63436 1.64433L2.48436 1.73933H2.83936L3.13936 2.03933L3.23936 1.92933L2.93936 1.64433V1.44933L2.76436 1.56933ZM4.35436 2.66433L4.48436 2.77933L4.61936 2.69933L4.48436 2.58933L4.63436 2.47433H4.31436L3.99436 2.18933L3.89936 2.28933L4.19936 2.56933V2.75933L4.35436 2.66433ZM2.76436 2.66433L2.63436 2.77933L2.51936 2.69933L2.63436 2.58933L2.48436 2.47433H2.83936L3.13936 2.18933L3.23936 2.28933L2.93936 2.56933V2.75933L2.76436 2.66433ZM4.35436 1.56433L4.48436 1.43433L4.61936 1.53433L4.48436 1.64433L4.63436 1.73933H4.31436L3.99436 2.03933L3.89936 1.92933L4.19936 1.64433V1.44933L4.35436 1.56433Z" fill="#383739"/>
<path d="M4.48376 2.7601L4.37376 2.6451L4.46876 2.5901L4.57876 2.7001L4.48376 2.7601ZM4.20376 2.7401V2.5701L3.90376 2.2851L3.97376 2.2101L4.27376 2.4951H4.57876L4.20376 2.7401ZM2.61376 1.4751L2.72876 1.5701L2.62876 1.6251L2.51876 1.5301L2.61376 1.4751ZM2.89876 1.4751V1.6651L3.19876 1.9301L3.12376 2.0051L2.82376 1.7201H2.52376L2.89876 1.4951V1.4751Z" fill="#D22630"/>
<path d="M4.48376 1.4751L4.37376 1.5701L4.46876 1.6251L4.57876 1.5301L4.48376 1.4751ZM4.20376 1.4751V1.6651L3.90376 1.9301L3.97376 2.0051L4.27376 1.7201H4.57876L4.20376 1.4751ZM2.61376 2.7751L2.72876 2.6651L2.62876 2.6101L2.51876 2.7201L2.61376 2.7751ZM2.89876 2.7601V2.5901L3.19876 2.3051L3.12376 2.2301L2.82376 2.5151H2.52376L2.89876 2.7601Z" fill="#00843D"/>
<path d="M4.34876 2.11558L3.56376 2.65058L2.76876 2.12058L3.56876 1.59058L4.34876 2.11558Z" fill="#383739"/>
<path d="M3.56124 1.60474L2.80624 2.09974H4.31624L3.56624 1.60474V2.60474L4.31624 2.11474H2.80624L3.56124 2.60974V1.60474Z" fill="white"/>
<path d="M3.77064 2.28479V2.43479H3.37064V2.28479H3.09064V1.92979H3.37064V1.77979H3.75064V1.92979H4.03564V2.29979L3.77064 2.28479Z" fill="#383739"/>
<path d="M3.37064 1.80005V1.95005H3.09064V2.10005H3.56064V1.80005H3.37064ZM3.56064 2.10005H4.03564V1.95005H3.75064V1.80005H3.56064V2.10005ZM3.09064 2.11505V2.28505H3.37064V2.42005H3.56064V2.12005L3.09064 2.11505ZM3.56064 2.41505H3.75064V2.28505H4.03564V2.11505H3.56064V2.41505Z" fill="#D22630"/>
<path d="M4.91936 8.145V7.92H5.56436V7.67H6.18936V5.575H5.56436V5.325H4.91936V5.1H4.27936V4.875H2.83936V5.1H2.19936V5.33H1.54936V5.575H0.934357V7.675H1.54936V7.935H2.19936V8.125H2.83936V8.355H4.27936V8.125L4.91936 8.145Z" fill="#383739"/>
<path d="M2.85876 4.89526V5.10026H2.23376V5.33026H1.59876V5.57526H0.968758V7.65526H1.59876V7.88026H2.23876V8.13026H2.88376V8.35526H4.28376V8.12526H4.92376V7.90026H5.56876V7.65026H6.19876V5.57526H5.55876V5.35026H4.87876V5.12026H4.23376V4.90026L2.85876 4.89526ZM3.04876 5.06526H4.08876V5.29026H4.72876V5.52026H5.37376V5.76526H6.01876V7.48526H5.37376V7.75026H4.72876V7.93526H4.08876V8.16526H3.02876V7.93526H2.38876V7.75026H1.74376V7.50026H1.11876V5.78526H1.74876V5.53526H2.39376V5.29026H3.03376L3.04876 5.06526Z" fill="#FFC72C"/>
<path d="M2.42376 7.93447V7.70947H1.76376V7.48447H1.11876V5.78447H1.76376V5.53447H2.42376V5.30947H3.06876V5.08447H4.08876V5.28947H4.72876V5.51947H5.37376V5.76447H6.01876V7.46447H5.37376V7.68947H4.69376V7.93947H4.04876V8.18447H3.02876V7.93447H2.42376Z" fill="#D22630"/>
<path d="M2.55936 5.4801L2.38936 5.3501V5.5951L2.23936 5.6901V5.5401L2.08936 5.6901L1.93436 5.5401V5.6901L1.74436 5.5901V5.8001L1.61436 5.9151V5.7851L1.42436 5.8951L1.27436 5.7851V5.9151L1.09936 5.8001V6.4651H0.909363V6.8051H1.09936V7.4651L1.26936 7.3501V7.5001L1.43936 7.3701L1.60936 7.5001V7.3501L1.73936 7.4651V7.6901L1.92936 7.5801V7.7301L2.07936 7.5801L2.22936 7.7301V7.5601L2.37936 7.6551V7.9001L2.55436 7.7651V7.9351L2.72436 7.7851L2.87436 7.9351V7.7501L3.02436 7.8601V8.1251L3.25436 7.9201V8.1451L3.55436 7.9551L3.85436 8.1451V7.9351L4.08436 8.1251V7.8801L4.23436 7.7651V7.9351L4.38436 7.7851L4.57436 7.9351V7.7501L4.72436 7.8801V7.6301L4.87436 7.5401V7.6901L5.02936 7.5401L5.17936 7.6901V7.5601L5.36936 7.6701V7.4501L5.49936 7.3351V7.4851L5.68936 7.3551L5.83936 7.4901V7.3401L6.01436 7.4501V6.8101H6.19936V6.4851H6.01436V5.8251L5.84436 5.9401V5.8001L5.66936 5.9151L5.49936 5.8001V5.9351L5.36936 5.8201V5.6151L5.17936 5.7051V5.5551L5.02936 5.7051L4.87936 5.5551V5.7051L4.72936 5.6151V5.3651L4.55436 5.5001V5.3301L4.40436 5.4801L4.21436 5.3301V5.5001L4.08436 5.3851V5.1401L3.85936 5.3301V5.1001L3.55936 5.2901L3.25436 5.1001V5.2901L3.02436 5.1001V5.3501L2.87436 5.4601V5.2901L2.72436 5.4401L2.55436 5.2901L2.55936 5.4801Z" fill="#383739"/>
<path d="M1.28936 5.9501V5.8001L1.43936 5.9151L1.59436 5.8001V5.9501L1.74436 5.8201V7.4251L1.59436 7.3151V7.4451L1.44436 7.3301L1.29436 7.4451V7.3151L1.11936 7.4251V6.7651H0.934357V6.4801H1.11936V5.8201L1.28936 5.9501ZM2.57936 5.3501L2.72936 5.4801L2.85936 5.3501V5.5201L3.02936 5.3851V7.8501L2.85936 7.7351V7.9051L2.72936 7.7701L2.57936 7.9051V7.7351L2.40936 7.8651V5.4101L2.57936 5.5251V5.3501ZM4.54436 5.3501L4.40936 5.4801L4.25936 5.3501V5.5201L4.08936 5.3851V7.8501L4.25936 7.7351V7.9051L4.40936 7.7701L4.54436 7.9051V7.7351L4.71436 7.8651V5.4101L4.54436 5.5251V5.3501ZM5.82936 5.9501V5.8001L5.67936 5.9151L5.52936 5.8001V5.9501L5.37436 5.8201V7.4251L5.52436 7.3151V7.4451L5.67436 7.3301L5.82436 7.4451V7.3151L5.99936 7.4251V6.7651H6.18936V6.4801H5.99936V5.8201L5.82936 5.9501Z" fill="#00843D"/>
<path d="M1.95064 5.5951L2.08564 5.7051L2.22064 5.5951V5.7251L2.41064 5.6151V7.6351L2.22064 7.5201V7.6701L2.08564 7.5401L1.95564 7.6701V7.5201L1.76564 7.6351V5.6151L1.95564 5.7251L1.95064 5.5951ZM3.27564 5.3451L3.05064 5.1601V8.1101L3.27564 7.9001V8.1251L3.56064 7.9351L3.84564 8.1251V7.8801L4.07064 8.0701V5.1801L3.84564 5.3651V5.1001L3.56064 5.2901L3.27564 5.1001V5.3451ZM5.16564 5.5951L5.03564 5.7051L4.90564 5.5951V5.7251L4.71564 5.6151V7.6351L4.90564 7.5201V7.6701L5.03564 7.5401L5.18564 7.6701V7.5201L5.35564 7.6351V5.6151L5.16564 5.7251V5.5951Z" fill="#FFC72C"/>
<path d="M1.36936 6.33021L1.44436 6.37021C1.45936 6.37021 1.49936 6.37021 1.51936 6.33021C1.57436 6.27521 1.57436 6.16021 1.57436 6.08521L1.47936 6.18021L1.44436 6.08521L1.38436 6.18021L1.30936 6.08521C1.30936 6.16021 1.30936 6.27521 1.36936 6.33521V6.33021ZM2.04936 6.16021L1.98936 6.10521V6.00521L1.87936 6.12521L2.06436 6.31021L2.29436 6.12521L2.17936 6.01021V6.10521L2.12436 6.16021V5.97021L2.21936 5.89521L2.08436 5.78521L1.95436 5.89521L2.04936 5.99521V6.16021ZM2.66936 5.97021L2.63436 5.91521V5.80021L2.49936 5.91521L2.72936 6.12521L2.91936 5.93521L2.80436 5.80021V5.91521L2.76436 5.95521V5.76521L2.86436 5.70521L2.72936 5.59521L2.59436 5.70521L2.66936 5.78521V5.97021Z" fill="#383739"/>
<path d="M1.44312 6.12635L1.47812 6.20135L1.55312 6.12635C1.55312 6.21635 1.53812 6.29635 1.50312 6.31135C1.49612 6.32067 1.48708 6.32823 1.47668 6.33343C1.46624 6.33863 1.45476 6.34135 1.44312 6.34135C1.43148 6.34135 1.42 6.33863 1.4096 6.33343C1.39916 6.32823 1.39012 6.32067 1.38312 6.31135C1.34812 6.29635 1.32812 6.21635 1.32812 6.12635L1.40312 6.20135L1.44312 6.12635ZM2.74312 5.76635V6.01135L2.82312 5.91635V5.86135L2.89812 5.93635L2.70812 6.12635L2.51812 5.93635L2.61812 5.86135V5.93635L2.68812 6.03135V5.78135L2.61312 5.73135L2.72812 5.63135L2.82312 5.73135L2.74312 5.76635Z" fill="white"/>
<path d="M2.10376 5.97031V6.20031L2.19876 6.12531V6.04531L2.27376 6.12531L2.08376 6.31031L1.89376 6.12531L1.97376 6.04531V6.12531L2.04876 6.20031V5.97031L1.97376 5.89531L2.08376 5.82031L2.18376 5.89531L2.10376 5.97031Z" fill="#D22630"/>
<path d="M5.74936 6.33021L5.67436 6.37021C5.65936 6.37021 5.63936 6.37021 5.62436 6.33021C5.54436 6.27521 5.54436 6.16021 5.54436 6.08521L5.63936 6.18021L5.67436 6.08521L5.73436 6.18021L5.80936 6.08521C5.80936 6.16021 5.80936 6.27521 5.75436 6.33521L5.74936 6.33021ZM5.08936 6.16021L5.12936 6.10521V6.00521L5.24436 6.12521L5.05436 6.31021L4.82436 6.12521L4.93936 6.01021V6.10521L4.99436 6.16021V5.97021L4.90436 5.89521L5.03436 5.78521L5.16436 5.89521L5.08936 5.99521V6.16021ZM4.44936 5.97021L4.48436 5.91521V5.80021L4.61936 5.91521L4.40936 6.12521L4.18436 5.93521L4.31436 5.80021V5.91521L4.35436 5.95521V5.76521L4.27936 5.70521L4.40936 5.59521L4.54436 5.70521L4.44436 5.78521L4.44936 5.97021Z" fill="#383739"/>
<path d="M5.67376 6.12635L5.63876 6.20135L5.56376 6.12635C5.56376 6.21635 5.58376 6.29635 5.61876 6.31135C5.6258 6.31975 5.6346 6.32651 5.64452 6.33115C5.65444 6.33579 5.66528 6.33819 5.67624 6.33819C5.6872 6.33819 5.69804 6.33579 5.70796 6.33115C5.71792 6.32651 5.72672 6.31975 5.73376 6.31135C5.76876 6.29635 5.78876 6.21635 5.78876 6.12635L5.73376 6.20135L5.67376 6.12635ZM4.37376 5.76635V6.01135L4.29876 5.91635V5.86135L4.21876 5.93635L4.40876 6.12635L4.59876 5.93635L4.50376 5.86135V5.93635L4.42876 6.03135V5.78135L4.50376 5.73135L4.40876 5.63135L4.29876 5.73135L4.37376 5.76635Z" fill="white"/>
<path d="M5.01564 5.97031V6.20031L4.94064 6.12531V6.04531L4.86564 6.12531L5.05564 6.31031L5.24564 6.12531L5.14564 6.04531V6.12531L5.07564 6.20031V5.97031L5.15064 5.89531L5.03564 5.82031L4.94064 5.89531L5.01564 5.97031Z" fill="#D22630"/>
<path d="M3.805 6.05053L3.75 5.93553L3.92 5.78553L3.75 5.65053V5.74553L3.695 5.80053V5.61553L3.845 5.51553L3.56 5.29053L3.275 5.48053L3.425 5.61553V5.78553L3.375 5.72553V5.63053L3.2 5.76553L3.39 5.91553L3.315 6.01053L3.805 6.05053Z" fill="#383739"/>
<path d="M3.34876 6.0313L3.40876 5.9313L3.21876 5.7813L3.35376 5.6913V5.7463L3.44376 5.8413V5.6163L3.31376 5.5163L3.56376 5.3313L3.80376 5.5213L3.67376 5.6163V5.8613L3.76876 5.7613V5.7113L3.89876 5.8013L3.70876 5.9513L3.78376 6.0513L3.34876 6.0313Z" fill="#D22630"/>
<path d="M3.42812 5.52005L3.55812 5.61505L3.69312 5.51505L3.55812 5.42505L3.42812 5.52005Z" fill="#383739"/>
<path d="M3.56064 5.44531L3.65564 5.52031L3.56064 5.57531L3.46564 5.52031L3.56064 5.44531Z" fill="#00843D"/>
<path d="M1.36936 6.91465C1.37844 6.90357 1.38988 6.89465 1.40288 6.88857C1.41584 6.88249 1.43004 6.87945 1.44436 6.87965C1.45936 6.87965 1.49936 6.87965 1.51936 6.91465C1.57436 6.97465 1.57436 7.08465 1.57436 7.16465L1.47936 7.08465L1.44436 7.15965L1.38436 7.08465L1.30936 7.15965C1.30936 7.08465 1.30936 6.97465 1.36936 6.91465ZM2.04936 7.08465L1.98936 7.14465V7.23965L1.87936 7.12465L2.06436 6.93465L2.29436 7.12465L2.17936 7.23965V7.13965L2.12436 7.08965V7.27465L2.21936 7.34965L2.08436 7.46465L1.95436 7.34965L2.04936 7.25465V7.08465ZM2.66936 7.27465L2.63436 7.32965V7.44465L2.49936 7.32965L2.72936 7.12465L2.91936 7.32965L2.80436 7.44465V7.32965L2.76436 7.29465V7.48465L2.86436 7.53965L2.72936 7.65465L2.59436 7.53965L2.66936 7.46465V7.27465Z" fill="#383739"/>
<path d="M1.44312 7.12479L1.47812 7.04979L1.55312 7.12479C1.55312 7.02979 1.53812 6.95479 1.50312 6.93479C1.49612 6.92547 1.48708 6.91791 1.47668 6.91271C1.46624 6.90751 1.45476 6.90479 1.44312 6.90479C1.43148 6.90479 1.42 6.90751 1.4096 6.91271C1.39916 6.91791 1.39012 6.92547 1.38312 6.93479C1.34812 6.95479 1.32812 7.02979 1.32812 7.12479L1.40312 7.04979L1.44312 7.12479ZM2.74312 7.48479V7.23479L2.82312 7.33479V7.40979L2.89812 7.32979L2.70812 7.14479L2.51812 7.32979L2.61812 7.40979V7.32979L2.68812 7.23979V7.48479L2.61312 7.53979L2.72812 7.63479L2.82312 7.53979L2.74312 7.48479Z" fill="white"/>
<path d="M2.10376 7.27433V7.04933L2.19876 7.12433V7.19933L2.27376 7.12433L2.08376 6.93433L1.89376 7.12433L1.97376 7.19933V7.12433L2.04876 7.04933V7.27433L1.97376 7.34933L2.08376 7.42433L2.18376 7.34933L2.10376 7.27433Z" fill="#D22630"/>
<path d="M5.74936 6.91465C5.74032 6.90357 5.72888 6.89465 5.71588 6.88857C5.70288 6.88249 5.68872 6.87945 5.67436 6.87965C5.65936 6.87965 5.63936 6.87965 5.62436 6.91465C5.54436 6.97465 5.54436 7.08465 5.54436 7.16465L5.63936 7.08465L5.67436 7.15965L5.73436 7.08465L5.80936 7.15965C5.80936 7.08465 5.80936 6.97465 5.75436 6.91465H5.74936ZM5.08936 7.08465L5.12936 7.14465V7.23965L5.24436 7.12465L5.05436 6.93465L4.82436 7.12465L4.93936 7.23965V7.13965L4.99436 7.08965V7.27465L4.90436 7.34965L5.03436 7.46465L5.16436 7.34965L5.08936 7.25465V7.08465ZM4.44936 7.27465L4.48436 7.32965V7.44465L4.61936 7.32965L4.40936 7.12465L4.18436 7.32965L4.31436 7.44465V7.32965L4.35436 7.29465V7.48465L4.27936 7.53965L4.40936 7.65465L4.54436 7.53965L4.44436 7.46465L4.44936 7.27465Z" fill="#383739"/>
<path d="M5.67376 7.12455L5.63876 7.04955L5.56376 7.12455C5.56376 7.02955 5.58376 6.95455 5.61876 6.93455C5.6258 6.92615 5.6346 6.91939 5.64452 6.91475C5.65444 6.91011 5.66528 6.90771 5.67624 6.90771C5.6872 6.90771 5.69804 6.91011 5.70796 6.91475C5.71792 6.91939 5.72672 6.92615 5.73376 6.93455C5.76876 6.95455 5.78876 7.02955 5.78876 7.12455L5.73376 7.04955L5.67376 7.12455ZM4.37376 7.48455V7.23455L4.29876 7.33455V7.40955L4.21876 7.32955L4.40876 7.14455L4.59876 7.32955L4.50376 7.40955V7.32955L4.42876 7.23955V7.48455L4.50376 7.53955L4.40876 7.63455L4.29876 7.53955L4.37376 7.48455Z" fill="white"/>
<path d="M5.01564 7.27433V7.04933L4.94064 7.12433V7.19933L4.86564 7.12433L5.05564 6.93433L5.24564 7.12433L5.14564 7.19933V7.12433L5.07564 7.04933V7.27433L5.15064 7.34933L5.03564 7.42433L4.94064 7.34933L5.01564 7.27433Z" fill="#D22630"/>
<path d="M3.805 7.22021L3.75 7.31521L3.92 7.46521L3.75 7.59521V7.50021L3.695 7.45021V7.63522L3.845 7.73021L3.56 7.93521L3.275 7.75021L3.425 7.61521V7.45021L3.375 7.50521V7.60521L3.2 7.47021L3.39 7.32021L3.315 7.22021H3.805Z" fill="#383739"/>
<path d="M3.34876 7.23901L3.40876 7.31401L3.21876 7.46401L3.35376 7.55901V7.49901L3.44376 7.40901V7.63401L3.31376 7.72901L3.56376 7.91901L3.80376 7.72901L3.67376 7.62901V7.40901L3.76876 7.49901V7.55901L3.89876 7.45901L3.70876 7.30901L3.78376 7.23901H3.34876Z" fill="#D22630"/>
<path d="M3.42812 7.74928L3.55812 7.63428L3.69312 7.72928L3.55812 7.82428L3.42812 7.74928Z" fill="#383739"/>
<path d="M3.56064 7.80041L3.65564 7.73041L3.56064 7.67041L3.46564 7.73041L3.56064 7.80041Z" fill="#00843D"/>
<path d="M5.82936 6.52041H5.56436V6.42541H4.69436L4.08936 6.04541H3.02936L2.42936 6.42541H1.54936V6.54041H1.28436V6.73041H1.54936V6.86041H2.41936L3.02436 7.24041H4.08436L4.68436 6.86041H5.55936V6.74541H5.82436L5.82936 6.52041Z" fill="#383739"/>
<path d="M3.02936 6.05041L2.42936 6.42541H1.57936V6.54041H1.30936V6.71041H1.57436V6.82041H2.42436L3.02936 7.20041H4.08936L4.68936 6.82041H5.54936V6.71041H5.83436V6.54041H5.54936V6.42541H4.69936L4.09436 6.04541L3.02936 6.05041ZM3.02936 6.10041H4.06936L4.63936 6.46541V6.51541H5.23936V6.74541H4.61936V6.80541L4.06936 7.14541H3.04936L2.48436 6.80541V6.74541H1.87936V6.52041H2.49936V6.46541L3.02936 6.10041Z" fill="#D22630"/>
<path d="M4.07 6.1001L4.6 6.4801V6.5201H5.225V6.7101H4.6V6.7851L4.07 7.1451H3.05L2.52 6.7851V6.7301H1.9V6.5401H2.525V6.4651L3.05 6.1001H4.07Z" fill="#D22630"/>
<path d="M2.78564 6.81942L3.01064 7.00942L3.16064 6.87942L3.09064 6.81942L3.01064 6.85942L2.96064 6.81942L3.82564 6.15942H3.65564L2.78564 6.81942ZM3.29564 7.08442H3.46564L4.33564 6.42442L4.11064 6.23442L3.96064 6.36942L4.05064 6.42442L4.11064 6.38442L4.16564 6.42442L3.29564 7.08442ZM3.67564 7.08442H3.82564L2.95564 6.42442L3.01064 6.38442L3.09064 6.42442L3.16564 6.36942L3.01564 6.25442L2.78564 6.42442L3.67564 7.08442ZM4.16564 6.81942L4.11064 6.85942L4.05064 6.81942L3.95564 6.87942L4.10564 6.98942L4.33564 6.81942L3.46564 6.15942H3.27564L4.16564 6.81942ZM2.61564 6.63442L2.76564 6.72942L2.91564 6.62942L2.76564 6.51942L2.61564 6.63442ZM3.41064 6.61442L3.56064 6.72942L3.71064 6.62942L3.56064 6.51942L3.41064 6.61442ZM4.51064 6.61442L4.35564 6.72942L4.20564 6.62942L4.35564 6.51942L4.51064 6.61442Z" fill="#383739"/>
<path d="M4.31624 6.81969L4.11124 6.96969L3.97624 6.87969L4.05124 6.83969L4.11124 6.87969L4.18624 6.81969L3.33624 6.17969H3.46624L4.31624 6.81969ZM3.78624 7.06969H3.65624L2.80624 6.42469L3.01124 6.27469L3.14624 6.36969L3.09124 6.40469L3.01124 6.36969L2.93624 6.42469L3.78624 7.06969ZM3.46624 7.06969H3.33624L4.18624 6.42469L4.11124 6.36969L4.05124 6.40469L3.97624 6.36969L4.11124 6.26969L4.30124 6.42469L3.46624 7.06969ZM3.65624 6.17969H3.78624L2.93624 6.81969L3.01124 6.87969L3.09124 6.83969L3.14124 6.87969L3.01124 6.97469L2.82624 6.82469L3.65624 6.17969Z" fill="#FFC72C"/>
<path d="M2.76436 6.53906L2.87936 6.63406L2.76436 6.70906L2.63436 6.63406L2.76436 6.53906ZM3.56436 6.53906L3.69436 6.63406L3.55936 6.70906L3.42936 6.63406L3.56436 6.53906ZM4.35436 6.53906L4.23936 6.63406L4.35436 6.70906L4.48436 6.63406L4.35436 6.53906Z" fill="#00843D"/>
<path d="M0.820641 10.9607L0.76564 11.0557L0.87564 11.1307L0.76564 11.2257L0.820641 11.3007L0.95064 11.3207L1.06564 11.2257L1.38564 11.4157V11.2657L1.20064 11.1307L1.38564 11.0157V10.8507L1.06564 11.0407L0.95064 10.9657L0.820641 10.9607ZM0.820641 10.3957L0.76564 10.4907L0.87564 10.5657L0.76564 10.6607L0.820641 10.7357L0.95064 10.7557L1.06564 10.6557L1.38564 10.8457V10.6957L1.20064 10.5657L1.38564 10.4507V10.2807L1.06564 10.4707L0.95064 10.3957H0.820641ZM0.820641 11.8707L0.76564 11.7907L0.87564 11.7007L0.76564 11.6207L0.820641 11.5307H0.95064L1.06564 11.6057L1.38564 11.4157V11.5857L1.20064 11.7007L1.38564 11.8307V11.9807L1.06564 11.7907L0.95064 11.8907L0.820641 11.8707ZM6.30064 10.9607L6.36064 11.0557L6.24564 11.1307L6.36064 11.2257L6.30064 11.3007L6.17064 11.3207L6.05564 11.2257L5.73564 11.4157V11.2657L5.92564 11.1307L5.73564 11.0157V10.8507L6.05564 11.0407L6.17064 10.9657L6.30064 10.9607ZM6.30064 10.3957L6.36064 10.4907L6.24564 10.5657L6.36064 10.6607L6.30064 10.7357L6.17064 10.7557L6.05564 10.6557L5.73564 10.8457V10.6957L5.92564 10.5657L5.73564 10.4507V10.2807L6.05564 10.4707L6.17064 10.3957H6.30064ZM6.30064 11.8707L6.36064 11.7907L6.24564 11.7007L6.36064 11.6207L6.30064 11.5307H6.17064L6.05064 11.6007L5.73064 11.4107V11.5807L5.92064 11.6957L5.73064 11.8257V11.9757L6.05064 11.7857L6.16564 11.8857L6.30064 11.8707ZM5.07564 9.45067V9.67567H5.24564V9.79067H5.41564V9.60067H5.26564V9.45067H5.07564ZM5.56564 9.82567V10.0157H5.75564V10.1107H5.90564V9.92067H5.75564V9.82567H5.56564ZM2.05064 9.45067V9.67567H1.88064V9.79067H1.71064V9.60067H1.86064V9.45067H2.05064ZM5.07564 12.8507V12.6257H5.24564V12.5257H5.41564V12.7207H5.26564V12.8707L5.07564 12.8507ZM2.05064 12.8507V12.6257H1.88064V12.5257H1.71064V12.7207H1.86064V12.8707L2.05064 12.8507ZM5.56564 12.4707V12.2507H5.75564V12.1357H5.90564V12.3257H5.75564V12.4757L5.56564 12.4707ZM1.55064 9.82567V10.0157H1.36564V10.1107H1.21564V9.92067H1.36564V9.82567H1.55064ZM1.55064 12.4907V12.2657H1.36564V12.1507H1.21564V12.3407H1.36564V12.4907H1.55064ZM4.20064 9.45067L4.06564 9.31567L3.93564 9.43067L4.04564 9.54567L3.89564 9.67567H4.10564L4.18064 9.60067L4.25564 9.67567H4.50564L4.35064 9.55067L4.46564 9.43567L4.33064 9.32067L4.20064 9.45067ZM3.55564 9.45067L3.42564 9.31567L3.29064 9.43067L3.40564 9.54567L3.27064 9.67567H3.48064L3.55564 9.60067L3.63064 9.67567H3.84064L3.70564 9.54567L3.82064 9.43067L3.69064 9.31567L3.55564 9.45067ZM2.93064 9.45067L3.06564 9.31567L3.18064 9.43067L3.06564 9.54567L3.21564 9.67567H3.00564L2.93064 9.60067L2.85564 9.67567H2.61064L2.76064 9.54567L2.65064 9.43067L2.78064 9.31567L2.91564 9.45067H2.93064ZM4.18064 12.8507L4.06564 13.0007L3.93564 12.8707L4.04564 12.7757L3.89564 12.6257H4.10564L4.18064 12.7007L4.25564 12.6257H4.50564L4.35064 12.7757L4.46564 12.8707L4.33064 13.0007L4.18064 12.8507ZM3.55564 12.8507L3.42564 13.0007L3.29064 12.8707L3.40564 12.7757L3.27064 12.6257H3.48064L3.55564 12.7007L3.63064 12.6257H3.84064L3.70564 12.7757L3.82064 12.8707L3.69064 13.0007L3.55564 12.8507ZM2.93064 12.8507L3.06564 13.0007L3.18064 12.8707L3.06564 12.7757L3.21564 12.6257H3.00564L2.93064 12.7007L2.85564 12.6257H2.61064L2.76064 12.7757L2.65064 12.8707L2.78064 13.0007L2.91564 12.8707L2.93064 12.8507Z" fill="#383739"/>
<path d="M1.37124 11.2645V11.3945L1.07124 11.2045L0.951242 11.3045H0.841242L0.781242 11.2245L0.896242 11.1295L0.781242 11.0545L0.841242 10.9795H0.951242L1.06624 11.0745L1.36624 10.8845V10.9995L1.16124 11.1295L1.37124 11.2645ZM1.37124 10.6945V10.8295L1.07124 10.6395L0.951242 10.7345H0.841242L0.781242 10.6595L0.896242 10.5595L0.781242 10.4895L0.841242 10.4145H0.951242L1.06624 10.5045L1.36624 10.3195V10.4295L1.16124 10.5645L1.37124 10.6945ZM1.37124 11.5645V11.4495L1.07124 11.6395L0.951242 11.5295H0.841242L0.781242 11.6045L0.901242 11.6995L0.786242 11.7895L0.846242 11.8495H0.951242L1.06624 11.7745L1.36624 11.9595V11.8295L1.16124 11.6995L1.37124 11.5645ZM5.75624 11.2645V11.3945L6.05624 11.2045L6.19124 11.3045H6.28124L6.34124 11.2245L6.22624 11.1295L6.34124 11.0545L6.28124 10.9795H6.20624L6.07624 11.0745L5.77624 10.8845V10.9995L5.98124 11.1295L5.75624 11.2645ZM5.75624 10.6945V10.8295L6.05624 10.6395L6.19124 10.7345H6.28124L6.34124 10.6595L6.22624 10.5595L6.34124 10.4895L6.28124 10.4145H6.20624L6.07624 10.5045L5.77624 10.3195V10.4295L5.98124 10.5645L5.75624 10.6945ZM5.75624 11.5645V11.4495L6.05624 11.6395L6.19124 11.5295H6.28124L6.34124 11.6045L6.22624 11.6995L6.34124 11.7895L6.28124 11.8495H6.20624L6.07624 11.7745L5.77624 11.9595V11.8295L5.98124 11.6995L5.75624 11.5645ZM5.26124 9.44947V9.59947H5.41124V9.74947H5.26124V9.63947H5.07624V9.44947H5.26124ZM5.77124 9.82447V9.95947H5.90624V10.1095H5.77124V10.0145H5.60124V9.82447H5.77124ZM1.86124 9.44947V9.59947H1.71124V9.74947H1.84124V9.63947H2.03124V9.44947H1.86124ZM5.26124 12.8295V12.6595H5.41124V12.5095H5.26124V12.6045H5.07624V12.7945L5.26124 12.8295ZM1.89624 12.8295V12.6595H1.74624V12.5095H1.88124V12.6045H2.06624V12.7945L1.89624 12.8295ZM5.77124 12.4545V12.3045H5.90624V12.1545H5.77124V12.2645H5.60124V12.4545H5.77124ZM1.38624 9.82447V9.97447H1.23624V10.1245H1.37124V10.0145H1.54124V9.82447H1.38624ZM1.38624 12.4745V12.3245H1.23624V12.1695H1.37124V12.2845H1.54124V12.4695L1.38624 12.4745ZM4.07124 9.33447L4.18624 9.46947L4.31624 9.33447L4.43124 9.42947L4.31624 9.54447L4.45124 9.65447H4.26124L4.18624 9.57947L4.11124 9.65447H3.94124L4.07124 9.54447L3.95624 9.42947L4.07124 9.33447ZM3.43124 9.33447L3.56124 9.46947L3.69624 9.33447L3.78624 9.42947L3.67624 9.54447L3.80624 9.65447H3.63624L3.56124 9.57947L3.48624 9.65447H3.29624L3.44624 9.54447L3.33624 9.42947L3.43124 9.33447ZM3.05124 9.33447L2.93624 9.46947L2.80624 9.33447L2.69124 9.42947L2.80624 9.54447L2.69124 9.65447H2.84124L2.94124 9.57947L3.01124 9.65447H3.18624L3.05124 9.54947L3.16624 9.43447L3.05124 9.33447ZM4.07124 12.9645L4.18624 12.8495L4.31624 12.9645L4.43124 12.8645L4.31624 12.7745L4.45124 12.6445H4.26124L4.18624 12.7195L4.11124 12.6445H3.94124L4.07124 12.7745L3.95624 12.8695L4.07124 12.9645ZM3.43124 12.9645L3.56124 12.8495L3.69624 12.9645L3.78624 12.8645L3.67624 12.7745L3.80624 12.6445H3.63624L3.56124 12.7195L3.48624 12.6445H3.29624L3.44624 12.7745L3.33624 12.8695L3.43124 12.9645ZM3.05124 12.9645L2.93624 12.8495L2.80624 12.9645L2.69124 12.8645L2.80624 12.7745L2.69124 12.6445H2.84124L2.94124 12.7195L3.01124 12.6445H3.18624L3.05124 12.7745L3.16624 12.8695L3.05124 12.9645Z" fill="#00843D"/>
<path d="M1.85876 12.2656V12.6456H5.25876V12.2656H5.75376V10.0156H5.25876V9.64062H1.85876V10.0156H1.36876V12.2656H1.85876Z" fill="#383739"/>
<path d="M1.87936 9.65562V10.0356H1.38436V12.2456H1.85936V12.6256H5.25936V12.2456H5.75436V10.0156H5.25936V9.64062H1.85936L1.87936 9.65562ZM2.10436 9.80562H5.01436V10.1656L5.14936 10.2456H5.59936V12.0206H5.14936L5.01436 12.1156V12.4706H2.10436V12.1006L1.97436 12.0256H1.51936V10.2506H1.96936L2.10436 10.1706V9.79562V9.80562Z" fill="#FFC72C"/>
<path d="M2.12436 9.82495V10.15L2.55936 9.82495H2.12436ZM4.57936 9.82495L4.99436 10.15V9.82495H4.57936ZM1.55436 10.26V10.585L1.95436 10.285L1.55436 10.26ZM5.16436 10.26L5.58436 10.585V10.26H5.16436ZM5.58436 11.7L5.16436 12H5.58436V11.7ZM1.53436 11.7V12H1.95436L1.53436 11.7ZM2.10436 12.13V12.455H2.55436L2.10436 12.13ZM4.99436 12.13L4.55936 12.455H4.99436V12.13Z" fill="#D22630"/>
<path d="M4.54564 9.82433L5.58564 10.5843V11.6793L4.54564 12.4293H2.58064L1.54064 11.6793V10.5793L2.58064 9.80933L4.54564 9.82433Z" fill="#00843D"/>
<path d="M1.78376 11.7907L1.66876 11.6607L1.78376 11.5307L1.66876 11.3957L1.78376 11.2657L1.66876 11.1307L1.78376 11.0007L1.66876 10.8657L1.78376 10.7357L1.66876 10.6207L1.78376 10.4707H5.33376L5.44876 10.6207L5.33376 10.7357L5.44876 10.8657L5.33376 11.0007L5.44876 11.1307L5.33376 11.2657L5.44876 11.3957L5.33376 11.5307L5.44876 11.6607L5.33376 11.7907H1.78376ZM4.23876 9.99572L4.08876 9.86572L3.95376 9.98072L3.82376 9.86572L3.69376 9.98072L3.55876 9.86572L3.42876 9.98072L3.29376 9.86572L3.16376 9.98072L3.02876 9.86572L2.89876 9.99572V12.2657L3.02876 12.3957L3.16376 12.2857L3.29376 12.3957L3.42876 12.2857L3.55876 12.3957L3.69376 12.2857L3.82376 12.3957L3.95376 12.2857L4.08876 12.3957L4.21876 12.2857L4.23876 9.99572Z" fill="#383739"/>
<path d="M3.93936 10.0149L3.82436 9.8999L3.69436 9.9999V12.2649L3.82436 12.3799L3.93936 12.2649V10.0149ZM3.42936 10.0149L3.29436 9.8999L3.18436 9.9999V12.2649L3.29436 12.3799L3.42936 12.2649V10.0149Z" fill="#FFC72C"/>
<path d="M1.79936 11.7907L1.68936 11.6607L1.80436 11.5457H5.31936L5.42936 11.6607L5.31936 11.7907H1.79936ZM5.31936 11.0157L5.42936 11.1307L5.31936 11.2657H1.79936L1.68436 11.1307L1.79936 11.0157H5.31936ZM5.31936 10.7357L5.42936 10.6207L5.31936 10.4907H1.79936L1.68436 10.6207L1.79936 10.7357H5.31936Z" fill="#FFC72C"/>
<path d="M4.19936 10.0149L4.08936 9.8999L3.95436 9.9999V12.2649L4.08936 12.3799L4.20436 12.2649L4.19936 10.0149ZM3.18436 10.0149L3.04936 9.8999L2.93436 9.9999V12.2649L3.04936 12.3799L3.18436 12.2649V10.0149Z" fill="#D22630"/>
<path d="M1.80064 11.5296L1.69064 11.3946L1.80564 11.2796H5.32064L5.43064 11.3946L5.32064 11.5296H1.80064ZM1.80064 10.9996L1.69064 10.8646L1.80564 10.7546H5.32064L5.43064 10.8646L5.32064 10.9996H1.80064Z" fill="#D22630"/>
<path d="M3.69688 12.2854L3.56188 12.3804L3.44688 12.2654V10.0154L3.56188 9.92041L3.69688 10.0204V12.2854Z" fill="#D22630"/>
<path d="M4.75 10.0344H2.37V10.2244H2.05V12.0394H2.35V12.2244H4.73V12.0394H5.075V10.2244H4.77V10.0344H4.75Z" fill="#383739"/>
<path d="M2.39064 10.0494V10.2444H2.09064V12.0194H2.39064V12.2094H2.61564L2.12564 11.7894V10.4694L2.61564 10.0544H2.37064L2.39064 10.0494ZM4.49064 10.0494L4.98064 10.4894V11.8094L4.50564 12.1894H4.75564V11.9994H5.05564V10.2244H4.75564V10.0344H4.50564L4.49064 10.0494Z" fill="#D22630"/>
<path d="M2.64936 10.05L2.15936 10.49V11.79L2.65436 12.21H4.46936L4.95936 11.79V10.47L4.46936 10.055L2.64936 10.05ZM2.68936 10.13H4.42936L4.90436 10.505V11.755L4.42936 12.13H2.68936L2.21936 11.755V10.525L2.68936 10.13Z" fill="#00843D"/>
<path d="M3.14564 11.7756L3.22064 11.8106L3.24064 11.9106L3.14064 11.9806L3.29564 12.1156H3.14564L3.05064 12.0156L2.95564 12.1156H2.80564L2.93564 11.9806L2.84064 11.9056V11.8106L2.94064 11.7756L3.03064 11.8506L3.14564 11.7756ZM3.65564 11.7756L3.73064 11.8106L3.75064 11.9106L3.65564 11.9806L3.80564 12.1156H3.65564L3.56064 12.0156L3.46564 12.1156H3.33564L3.46564 11.9806L3.37064 11.9056V11.8106L3.47064 11.7756L3.56064 11.8506L3.65564 11.7756ZM3.97564 11.7756L3.90064 11.8106L3.88064 11.9106L3.98064 11.9806L3.84564 12.1156H3.97564L4.07564 12.0156L4.16564 12.1156H4.31564L4.16564 11.9806L4.26064 11.9056V11.8106L4.16564 11.7756L4.07064 11.8506L3.97564 11.7756ZM3.15064 10.5006L3.22564 10.4656L3.24564 10.3706L3.14564 10.2756L3.30064 10.1456H3.15064L3.05564 10.2406L2.96064 10.1406H2.81064L2.94064 10.2756L2.84564 10.3706V10.4656L2.94564 10.5006L3.03564 10.4106L3.15064 10.5006ZM3.66064 10.5006L3.73564 10.4656L3.75564 10.3706L3.66064 10.2756L3.81064 10.1456H3.66064L3.56564 10.2406L3.47064 10.1406H3.34064L3.47064 10.2756L3.37564 10.3706V10.4656L3.47564 10.5006L3.56564 10.4106L3.66064 10.5006ZM3.98064 10.5006L3.90564 10.4656L3.88564 10.3706L3.98564 10.2756L3.85064 10.1456H3.98064L4.08064 10.2406L4.17064 10.1406H4.32064L4.17064 10.2756L4.26564 10.3706V10.4656L4.17064 10.5006L4.07564 10.4106L3.98064 10.5006ZM4.89064 10.6356L4.81564 10.7106L4.89064 10.7656V10.8806L4.75564 10.7856L4.68064 10.8606H4.58564L4.55064 10.7856L4.62564 10.7106L4.55064 10.6356L4.58564 10.5606H4.68564L4.75564 10.6356L4.89064 10.5406V10.6356ZM4.89064 11.0706L4.81564 11.1256L4.89064 11.2006V11.3006L4.75564 11.2006L4.68064 11.2756H4.58564L4.55064 11.2006L4.62564 11.1256L4.55064 11.0506L4.58564 10.9956H4.68564L4.75564 11.0506L4.89064 10.9556V11.0706ZM4.89064 11.6356L4.81564 11.5606L4.89064 11.4856V11.3906L4.75564 11.4856L4.68064 11.4106H4.58564L4.55064 11.4856L4.62564 11.5606L4.55064 11.6356L4.58564 11.6956H4.68564L4.75564 11.6356L4.89064 11.7356V11.6356ZM2.24064 10.6356L2.34064 10.7106L2.24064 10.7656V10.8806L2.37564 10.7856L2.45064 10.8606H2.54564L2.58564 10.7856L2.50564 10.7106L2.58564 10.6356L2.54564 10.5606H2.45064L2.37564 10.6356L2.24064 10.5406V10.6356ZM2.24064 11.0706L2.34064 11.1256L2.24064 11.2006V11.3006L2.37564 11.2006L2.45064 11.2756H2.54564L2.58564 11.2006L2.50564 11.1256L2.58564 11.0506L2.54564 10.9956H2.45064L2.37564 11.0506L2.24064 10.9556V11.0706ZM2.24064 11.6356L2.34064 11.5606L2.24064 11.4856V11.3906L2.37564 11.4856L2.45064 11.4106H2.54564L2.58564 11.4856L2.50564 11.5606L2.58564 11.6356L2.54564 11.6956H2.45064L2.37564 11.6356L2.24064 11.7356V11.6356Z" fill="#00843D"/>
<path d="M2.68876 10.1499L2.25376 10.5249L2.36876 10.6249L2.44376 10.5449H2.55876L2.59376 10.6399L2.51876 10.7149L2.59376 10.7899L2.55876 10.8649H2.42376L2.34876 10.8099L2.21876 10.9049V10.9399L2.34876 11.0399L2.42376 10.9599L2.53876 10.9799L2.57876 11.0549L2.49876 11.1299L2.57876 11.2049L2.53876 11.3049H2.42376L2.34876 11.2249L2.21876 11.3399V11.3549L2.34876 11.4699L2.42376 11.3949H2.53876L2.57876 11.4899L2.49876 11.5649L2.57876 11.6399L2.53876 11.7149H2.42376L2.34876 11.6599L2.23376 11.7549L2.66876 12.1299H2.76876L2.91876 11.9799L2.81876 11.9049V11.7899L2.93376 11.7549L3.03376 11.8299L3.12376 11.7549L3.22376 11.7899L3.23876 11.9049L3.13876 11.9799L3.29376 12.1149L3.42876 11.9799L3.32876 11.9049V11.7899L3.44376 11.7549L3.54376 11.8299L3.63376 11.7549L3.73376 11.7899L3.74876 11.9049L3.65376 11.9799L3.78376 12.1149L3.93376 11.9799L3.84376 11.9049V11.7899L3.95376 11.7549L4.05376 11.8299L4.14376 11.7549L4.24376 11.7899L4.25876 11.9049L4.16376 11.9799L4.31376 12.1149H4.41376L4.84376 11.7349L4.72876 11.6599L4.65376 11.7349L4.54376 11.7149L4.50376 11.6399L4.57876 11.5649L4.50376 11.4899L4.54376 11.4149L4.65376 11.3949L4.72876 11.4699L4.86376 11.3549V11.3399L4.72876 11.2249L4.65376 11.2999H4.54876L4.50876 11.2049L4.58376 11.1299L4.50876 11.0549L4.54876 10.9799H4.65876L4.73376 11.0349L4.86876 10.9399V10.9049L4.73376 10.8049L4.65876 10.8849L4.54876 10.8649L4.50876 10.7899L4.58376 10.7149L4.50876 10.6399L4.54876 10.5649L4.65876 10.5449L4.73376 10.6199L4.84876 10.5249L4.41376 10.1499H4.31876L4.16876 10.2799L4.26376 10.3749V10.4899L4.14876 10.5249L4.05376 10.4499L3.95876 10.5249L3.86876 10.4899L3.84876 10.3749L3.94376 10.2799L3.80876 10.1499L3.65876 10.2799L3.75376 10.3749V10.4899L3.63876 10.5249L3.54376 10.4499L3.44876 10.5249L3.35876 10.4899L3.33876 10.3749L3.43376 10.2799L3.29876 10.1499L3.14876 10.2799L3.24376 10.3749V10.4899L3.12876 10.5249L3.03376 10.4499L2.93876 10.5249L2.84376 10.4899L2.82876 10.3749L2.92376 10.2799L2.77376 10.1499H2.68876ZM2.23876 11.0949V11.1849L2.28876 11.1349L2.23876 11.0949Z" fill="#D22630"/>
<path d="M3.04936 12.0549L2.97436 12.1149H3.12436L3.04936 12.0549ZM3.55936 12.0549L3.48436 12.1149H3.63436L3.55936 12.0549ZM4.06936 12.0549L3.99436 12.1149H4.14436L4.06936 12.0549ZM2.96936 10.1649L3.04936 10.2249L3.12436 10.1499L2.96936 10.1649ZM3.48436 10.1649L3.55936 10.2249L3.63436 10.1499L3.48436 10.1649ZM3.99436 10.1649L4.06936 10.2249L4.14436 10.1499L3.99436 10.1649ZM4.88436 10.6749L4.82436 10.7149L4.88436 10.7549V10.6749ZM4.88436 11.0949L4.82436 11.1299L4.88436 11.1849V11.0949ZM4.88436 11.5299L4.82436 11.5649L4.88436 11.6049V11.5299ZM2.23436 10.6599V10.7549L2.29436 10.7149L2.23436 10.6599ZM2.23436 11.0949V11.1849L2.29436 11.1349L2.23436 11.0949ZM2.23436 11.5099V11.6049L2.29436 11.5649L2.23436 11.5099Z" fill="white"/>
<path d="M3.99876 11V10.85H3.84376V10.675H3.27376V10.845H3.12376V10.995H2.91876V11.28H3.12376V11.43H3.27376V11.605H3.84876V11.415H3.99876V11.28H4.20876V11H3.99876Z" fill="#383739"/>
<path d="M3.55936 10.7V10.865L3.31436 11V11.13H2.93436V11.015H3.12436V10.865H3.29436V10.675L3.55936 10.7ZM3.55936 11.585V11.395L3.80936 11.265V11.15H4.18436V11.265H3.99436V11.415H3.82436V11.585H3.55936Z" fill="#FFC72C"/>
<path d="M3.80436 11.13V11L3.55936 10.865V10.675H3.82436V10.865H3.97436V11.015H4.18436V11.13H3.80436ZM2.93436 11.13H3.31436V11.265L3.56436 11.415V11.585H3.29436V11.395H3.14436V11.265H2.93436V11.13Z" fill="white"/>
<path d="M3.33436 11.1503V11.2653L3.55936 11.3953V11.1453L3.33436 11.1503Z" fill="#D22630"/>
<path d="M3.55936 10.8843L3.33436 11.0143V11.1293H3.55936V10.8843Z" fill="#00843D"/>
<path d="M3.78436 11.1293V11.0143L3.55936 10.8843V11.1343L3.78436 11.1293Z" fill="#D22630"/>
<path d="M3.55936 11.3999L3.78436 11.2649V11.1499H3.55936V11.3999Z" fill="#00843D"/>
<path d="M1.50064 14.1504V14.6254H1.06564V15.0454H0.615639V16.2504H1.06564V16.6854H1.48064V17.1404H3.10564L3.39064 17.3304L3.26064 17.4054H2.69064L2.63564 17.3504H3.18564L3.03564 17.2004H2.27564L2.61564 17.5554H3.31564L3.56564 17.3854L3.80564 17.5354H4.50564L4.84564 17.1804H4.09064L3.94064 17.3304H4.47064L4.43064 17.3854H3.84564L3.71064 17.2904L3.99564 17.1204H5.62064V16.6704H6.05564V16.2504H6.50564V15.0504H6.05564V14.6304H5.64064V14.1604H4.01564L3.73064 13.9704L3.86564 13.8954H4.43064L4.48564 13.9504H3.93564L4.09064 14.1004H4.84564L4.50564 13.7454H3.80564L3.56064 13.8954L3.31564 13.7454H2.61564L2.27564 14.1204H3.03064L3.18064 13.9504H2.65564L2.69064 13.8954H3.27564L3.41064 13.9904L3.12564 14.1604L1.50064 14.1504Z" fill="#D22630"/>
<path d="M4 17.12H5.6V16.67H6.02V16.235H6.47V15.06H6.02V14.625H5.585V14.175H3.975L3.3 13.75H2.62L2.32 14.075H3.02L3.13 13.96H2.62L2.695 13.865H3.28L4.04 14.34H5.45V14.79H5.9V15.225H6.36V16.06H5.9V16.495H5.45V16.965H4.065L3.31 17.415H2.705L2.63 17.325H3.14L3.025 17.21H2.325L2.625 17.53H3.325L4 17.12ZM3.07 16.97H1.69V16.5H1.25V16.065H0.800002V15.23H1.25V14.8H1.665V14.365H3.05L3.805 13.895H4.41L4.485 13.99H3.975L4.09 14.105H4.79L4.5 13.75H3.8L3.14 14.17H1.515V14.62H1.1V15.055H0.650002V16.23H1.1V16.665H1.54V17.115H3.165L3.825 17.53H4.505L4.805 17.21H4.105L3.995 17.325H4.505L4.43 17.42H3.845L3.07 16.97Z" fill="#FFC72C"/>
<path d="M5.30064 16.3645V16.8145H4.01564L3.56564 17.0995L3.10564 16.8195H1.82064V16.3695H1.38564V15.9295H0.915642V15.3645H1.36564V14.9295H1.80564V14.4795H3.09064L3.54064 14.2095L3.99564 14.4745H5.28064V14.9245H5.71564V15.3645H6.20564V15.9295H5.75564V16.3645H5.30064Z" fill="#00843D"/>
<path d="M1.99064 16.1999V16.6299H2.71064L1.99064 16.1549V16.1999ZM1.99064 15.0999V14.6499H2.71064L1.99064 15.1199V15.0999ZM5.13064 16.1999V16.6299H4.41064L5.13064 16.1549V16.1999ZM5.13064 15.0999V14.6499H4.41064L5.13064 15.1199V15.0999Z" fill="#383739"/>
<path d="M2.00936 16.2155L2.65436 16.6305H2.00936V16.2155ZM2.00936 15.0805L2.65436 14.6655H2.00936V15.0805ZM5.10936 16.2155L4.46936 16.6305H5.10936V16.2155ZM5.10936 15.0805L4.46936 14.6655H5.10936V15.0805Z" fill="#D22630"/>
<path d="M2.90124 15.5146V15.3046H2.82624L2.44624 15.0796L2.06624 15.3046H1.99124V15.5346H1.80624V15.7996H1.99124V16.0246H2.06624L2.44624 16.2496L2.82624 16.0246H2.90124V15.7996H3.16624V15.4996L2.90124 15.5146Z" fill="#383739"/>
<path d="M2.42752 15.0796L2.80752 15.2896H2.08752L2.42752 15.0796ZM2.80752 16.0046L2.42752 16.2146L2.08752 16.0046H2.80752ZM2.71248 15.5346V15.7596H2.27752V15.5346H2.71248Z" fill="#D22630"/>
<path d="M2.88188 15.7797V15.9847H2.44688V15.7797H2.88188ZM2.43188 15.7797V15.9847H1.99188V15.7797H2.43188ZM3.14688 15.5297V15.7597H2.73188V15.5347L3.14688 15.5297ZM2.25688 15.5297V15.7597H1.82188V15.5347L2.25688 15.5297ZM2.88188 15.3047V15.5147H2.44688V15.3247L2.88188 15.3047ZM2.43188 15.3047V15.5147H1.99188V15.3247L2.43188 15.3047Z" fill="#FFC72C"/>
<path d="M2.145 15.589V15.704H1.95V15.589H2.145ZM2.315 15.364V15.474H2.125V15.364H2.315ZM2.765 15.364V15.474H2.58V15.364H2.765ZM2.58 15.589V15.704H2.39V15.589H2.58ZM3.03 15.589V15.704H2.84V15.589H3.03ZM2.765 15.814V15.929H2.58V15.814H2.765ZM2.315 15.814V15.929H2.125V15.814H2.315Z" fill="#383739"/>
<path d="M2.125 15.6093H1.95V15.6843H2.12L2.125 15.6093ZM2.315 15.3843H2.125V15.4593H2.315V15.3843ZM2.75 15.3843H2.58V15.4593H2.75V15.3843ZM2.56 15.6093H2.425V15.6843H2.575L2.56 15.6093ZM3.01 15.6093H2.86V15.6843H3.01V15.6093ZM2.75 15.8343H2.58V15.9093H2.75V15.8343ZM2.295 15.8343H2.145V15.9093H2.295V15.8343Z" fill="white"/>
<path d="M4.22 15.5146V15.3046H4.3L4.675 15.0796L5.055 15.3046H5.15V15.5346H5.32V15.7996H5.13V16.0246H5.075L4.695 16.2496L4.315 16.0246H4.24V15.7996H3.975V15.4996L4.22 15.5146Z" fill="#383739"/>
<path d="M4.69564 15.0796L4.31564 15.2896H5.01564L4.69564 15.0796ZM4.31564 16.0046L4.65564 16.2146L5.01564 16.0046H4.31564ZM4.39064 15.5346V15.7596H4.82564V15.5346H4.39064Z" fill="#D22630"/>
<path d="M4.24 15.7797V15.9847H4.675V15.7797H4.24ZM4.69 15.7797V15.9847H5.13V15.7797H4.69ZM3.975 15.5297V15.7597H4.41V15.5347L3.975 15.5297ZM4.865 15.5297V15.7597H5.3V15.5347L4.865 15.5297ZM4.24 15.3047V15.5147H4.675V15.3247L4.24 15.3047ZM4.69 15.3047V15.5147H5.13V15.3247L4.69 15.3047Z" fill="#FFC72C"/>
<path d="M5.00064 15.589V15.704H5.18564V15.589H5.00064ZM4.81064 15.364V15.474H4.99564V15.364H4.81064ZM4.35564 15.364V15.474H4.54564V15.364H4.35564ZM4.54564 15.589V15.704H4.73064V15.589H4.54564ZM4.09064 15.589V15.704H4.28064V15.589H4.09064ZM4.35564 15.814V15.929H4.54564V15.814H4.35564ZM4.80564 15.814V15.929H4.99564V15.814H4.80564Z" fill="#383739"/>
<path d="M4.99936 15.6093H5.16436V15.6843H4.99936V15.6093ZM4.82436 15.3843H4.97436V15.4593H4.82436V15.3843ZM4.37436 15.3843H4.54436V15.4593H4.37436V15.3843ZM4.55936 15.6093H4.70936V15.6843H4.55936V15.6093ZM4.10936 15.6093H4.25936V15.6843H4.12936L4.10936 15.6093ZM4.37436 15.8343H4.54436V15.9093H4.37436V15.8343ZM4.82436 15.8343H4.97436V15.9093H4.82436V15.8343Z" fill="white"/>
<path d="M4.015 15.1355V15.3655H3.94L3.56 15.6105L3.185 15.3605H3.1V15.1355H2.875V14.8905H3.1V14.6655H3.18L3.555 14.4155L3.935 14.6655H4.01V14.8905H4.235V15.1205L4.015 15.1355Z" fill="#383739"/>
<path d="M3.55876 15.5909L3.89876 15.3659H3.21876L3.55876 15.5909ZM3.89876 14.6509L3.55876 14.4609L3.21876 14.6509H3.89876Z" fill="#FFC72C"/>
<path d="M4 14.8905V14.6655H3.58V14.8905H4ZM3.56 14.8905V14.6655H3.125V14.8905H3.56ZM4.22 15.1205V14.9305H3.785V15.1205H4.22ZM3.77 15.1205V14.9305H3.37V15.1205H3.77ZM3.335 15.1205V14.9305H2.9V15.1205H3.335ZM3.995 15.3455V15.1355H3.58V15.3455H3.995ZM3.56 15.3455V15.1355H3.125V15.3455H3.56Z" fill="#D22630"/>
<path d="M3.42936 14.7202V14.8352H3.23936V14.7402L3.42936 14.7202ZM3.87936 14.7202V14.8352H3.69936V14.7402L3.87936 14.7202ZM3.19936 14.9502V15.0802H3.00936V14.9302L3.19936 14.9502ZM3.65436 14.9502V15.0802H3.46436V14.9302L3.65436 14.9502ZM4.10436 14.9502V15.0802H3.91936V14.9302L4.10436 14.9502ZM3.42936 15.1952V15.3052H3.23936V15.2002L3.42936 15.1952ZM3.87936 15.1952V15.3052H3.69936V15.2002L3.87936 15.1952Z" fill="#383739"/>
<path d="M3.40936 14.7407H3.25936V14.8157H3.40936V14.7407ZM3.85936 14.7407H3.70936V14.8157H3.85936V14.7407ZM3.18436 14.9657H3.03436V15.0657H3.18436V14.9657ZM3.63436 14.9657H3.48436V15.0657H3.63436V14.9657ZM4.08936 14.9657H3.93936V15.0657H4.08936V14.9657ZM3.40936 15.1957H3.25936V15.2907H3.40936V15.1957ZM3.85936 15.1957H3.70936V15.2907H3.85936V15.1957Z" fill="white"/>
<path d="M4.015 16.3993V16.6493H3.94L3.56 16.8743L3.185 16.6493H3.1V16.3993H2.875V16.1543H3.1V15.9293H3.18L3.555 15.6843L3.935 15.9343H4.01V16.1543H4.235V16.4043L4.015 16.3993Z" fill="#383739"/>
<path d="M3.55876 16.8551L3.89876 16.6501H3.21876L3.55876 16.8551ZM3.89876 15.9101L3.55876 15.7251L3.21876 15.9101H3.89876Z" fill="#FFC72C"/>
<path d="M4 16.155V15.95H3.58V16.155H4ZM3.56 16.155V15.95H3.125V16.155H3.56ZM4.22 16.385V16.175H3.785V16.385H4.22ZM3.77 16.385V16.175H3.37V16.385H3.77ZM3.335 16.385V16.175H2.9V16.385H3.335ZM3.995 16.63V16.405H3.58V16.63H3.995ZM3.56 16.63V16.405H3.125V16.63H3.56Z" fill="#D22630"/>
<path d="M3.42936 15.9844V16.1194H3.23936V15.9844H3.42936ZM3.87936 15.9844V16.1194H3.69936V15.9844H3.87936ZM3.19936 16.2494V16.3644H3.00936V16.2494H3.19936ZM3.65436 16.2494V16.3644H3.46436V16.2494H3.65436ZM4.10436 16.2494V16.3644H3.91936V16.2494H4.10436ZM3.42936 16.4394V16.5544H3.23936V16.4394H3.42936ZM3.87936 16.4394V16.5544H3.69936V16.4394H3.87936Z" fill="#383739"/>
<path d="M3.40936 16.0046H3.25936V16.1046H3.40936V16.0046ZM3.85936 16.0046H3.70936V16.1046H3.85936V16.0046ZM3.18436 16.2546H3.03436V16.3296H3.18436V16.2546ZM3.63436 16.2546H3.48436V16.3296H3.63436V16.2546ZM4.08936 16.2546H3.93936V16.3296H4.08936V16.2546ZM3.40936 16.4796H3.25936V16.5546H3.40936V16.4796ZM3.85936 16.4796H3.70936V16.5546H3.85936V16.4796Z" fill="white"/>
<path d="M1.1 19.1799L2.8 18.2749H4.315L6.015 19.1799V20.6749L4.315 21.5599H2.805L1.105 20.6749L1.1 19.1799Z" fill="#383739"/>
<path d="M2.79876 18.2954L1.11876 19.1804V20.6554L2.80376 21.5604H4.31376L5.99876 20.6554V19.1804L4.33376 18.3004L2.79876 18.2954ZM2.82376 18.4054H4.31376L5.90376 19.2554V20.5804L4.31376 21.4304H2.83876L1.25376 20.5804V19.2504L2.82376 18.4054Z" fill="#00843D"/>
<path d="M3.55936 19.92V21.43H4.31436L5.88436 20.58V19.935H3.55936V18.425H2.80436L1.23436 19.255V19.92H3.55936Z" fill="#FFC72C"/>
<path d="M3.55936 19.92V21.43H2.80436L1.23436 20.58V19.935H3.55936V18.425H4.31436L5.88436 19.255V19.92H3.55936Z" fill="white"/>
<path d="M3.695 21.335V20.9L3.56 21L3.43 20.9V21.335H2.975L3.275 21.11V20.81L2.825 20.525H2.525V19.315H2.805L3.255 19.03V18.73L3 18.5H3.45V18.935L3.585 18.86L3.715 18.935V18.52H4.17L3.87 18.745V19.045L4.32 19.33H4.645V20.54H4.32L3.87 20.825V21.125L4.17 21.355L3.695 21.335Z" fill="#383739"/>
<path d="M3.71064 18.5203V18.9703L3.56064 18.8803V19.0103L4.26064 19.4453H4.48564V19.9203H4.60064V19.3503H4.30064L3.82564 19.0503V18.7103L4.09064 18.5203H3.71064ZM2.54064 19.9353V20.5053H2.80564L3.27564 20.8053V21.1303L3.01064 21.3153H3.39064V20.8653L3.54064 20.9553V20.8253L2.84064 20.3903H2.61564V19.9403L2.54064 19.9353Z" fill="#FFC72C"/>
<path d="M3.03064 18.5203L3.29564 18.7103V19.0503L2.82564 19.3303H2.54064V19.9003H2.63564V19.4653H2.86064L3.56064 19.0303V18.9003L3.41064 18.9903V18.5203H3.03064ZM4.48564 19.9353V20.3903H4.26064L3.56064 20.8253V20.9553L3.71064 20.8653V21.3153H4.09064L3.82564 21.1303V20.7853L4.30064 20.4853H4.60064V19.9203L4.48564 19.9353Z" fill="white"/>
<path d="M2.65 20.3698H2.86L3.56 20.8248L4.26 20.3748H4.47V19.4648H4.26L3.56 19.0298L2.86 19.4648H2.67L2.65 20.3698Z" fill="#D22630"/>
<path d="M4.03624 20.1451H4.18624V20.0701H4.07124V19.9351H4.32124V20.2601H4.09124V20.4851H3.61624V20.1651H3.82624V20.2951H3.75124V20.3551H3.94124V20.2401L3.07124 19.7101H2.92124V19.7651H3.03124V19.9001H2.80624V19.5801H3.03124V19.3501H3.50624V19.6701H3.31624V19.5401H3.37124V19.4851H3.18624V19.5951L4.03624 20.1451ZM3.95624 19.5951V19.4851H3.75124V19.5401H3.82624V19.6701H3.61624V19.3501H4.09124V19.5801H4.31624V19.9001H4.07124V19.7651H4.18624V19.7101H4.03624L3.18624 20.2201V20.3351H3.37124V20.2751H3.30124V20.1501H3.51124V20.4701H3.03624V20.2451H2.81124V19.9251H3.05624V20.0551H2.94124V20.1301H3.09124L3.95624 19.5951Z" fill="#383739"/>
<path d="M3.97564 20.2207V20.3707H3.75064V20.2757H3.82564V20.1857H3.65564V20.4657H4.09064V20.2407H4.31564V19.9507H4.13064V20.0507H4.22064V20.1607H4.05064L3.16564 19.5907V19.4607H3.41064V19.5557H3.33564V19.6507H3.52564V19.3657H3.07064V19.5907H2.84064V19.8757H3.03064V19.7807H2.93564V19.6857H3.10564L3.97564 20.2207ZM4.03564 19.6907H4.22064V19.7907H4.09064V19.8807H4.31564V19.6007H4.09064V19.3757H3.65564V19.6607H3.82564V19.5607H3.75064V19.4707H4.00064V19.6207L3.10564 20.1707H2.93564V20.0507H3.05064V19.9557H2.86064V20.2407H3.07064V20.4657H3.50564V20.1857H3.33564V20.2757H3.41064V20.3757H3.16064V20.2257L4.03564 19.6907Z" fill="white"/>
<path d="M5.52564 19.9954V20.4654H5.33564V20.3004H5.13064V20.4704H4.92064V20.0004H5.11064V20.1704H5.32064V20.0004L5.52564 19.9954ZM4.81064 20.6154V21.0904H4.62064V20.9204H4.41064V21.0904H4.22064V20.6154H4.41064V20.7854H4.60064V20.6154H4.81064ZM5.52564 19.8654V19.3704H5.33564V19.5404H5.13064V19.3704H4.92064V19.8454H5.11064V19.6704H5.32064V19.8604L5.52564 19.8654ZM1.59564 19.9954V20.4654H1.78564V20.3004H1.99064V20.4704H2.20064V20.0004H2.01064V20.1704H1.80564V20.0004L1.59564 19.9954ZM1.59564 19.8454V19.3704H1.78564V19.5404H1.99064V19.3704H2.20064V19.8454H2.01064V19.6704H1.80564V19.8604L1.59564 19.8454ZM4.81064 19.2204V18.7454H4.62064V18.9154H4.41064V18.7504H4.22064V19.2254H4.41064V19.0504H4.60064V19.2404L4.81064 19.2204ZM2.31064 20.6204V21.0904H2.50064V20.9204H2.71064V21.0904H2.92064V20.6154H2.73064V20.7854H2.52064V20.6154L2.31064 20.6204ZM2.31064 19.2204V18.7454H2.50064V18.9154H2.71064V18.7504H2.92064V19.2254H2.73064V19.0504H2.52064V19.2404L2.31064 19.2204ZM4.92064 18.9004V19.2554H5.58564L4.92064 18.9004ZM2.20064 20.9504V20.5754H1.54064L2.20064 20.9504ZM2.20064 18.8754V19.2504H1.54064L2.20064 18.8754ZM4.92064 20.9504V20.5754H5.58564L4.92064 20.9504Z" fill="#383739"/>
<path d="M5.33564 20.2756V20.4656H5.50564V20.0156H5.33564V20.1856H5.11064V20.0156H4.92064V20.4456H5.11064V20.2756H5.33564ZM4.62064 20.9006V21.0906H4.79064V20.6406H4.62064V20.8056H4.39064V20.6356H4.22064V21.0706H4.39064V20.9006H4.62064ZM5.33564 19.5606V19.3906H5.50564V19.8256H5.33564V19.6506H5.11064V19.8406H4.92064V19.3856H5.11064V19.5556L5.33564 19.5606ZM1.78564 20.2756V20.4656H1.61564V20.0156H1.78564V20.1856H2.01064V20.0156H2.20064V20.4456H2.01064V20.2756H1.78564ZM1.78564 19.5606V19.3906H1.61564V19.8256H1.78564V19.6506H2.01064V19.8406H2.20064V19.3856H2.01064V19.5556L1.78564 19.5606ZM4.62064 18.9356V18.7656H4.79064V19.2006H4.62064V19.0306H4.39064V19.2206H4.22064V18.7706H4.39064V18.9356H4.62064ZM2.50064 20.9006V21.0906H2.33064V20.6406H2.50064V20.8056H2.73064V20.6356H2.92064V21.0706H2.73064V20.9006H2.50064ZM2.50064 18.9356V18.7656H2.33064V19.2006H2.50064V19.0306H2.73064V19.2206H2.92064V18.7706H2.73064V18.9356H2.50064Z" fill="#D22630"/>
<path d="M4.93876 18.9155V19.2405H5.50376L4.93876 18.9155ZM1.59376 20.6155L2.15876 20.9155V20.6155H1.59376Z" fill="#FFC72C"/>
<path d="M2.18064 18.9155L1.61564 19.2405H2.18064V18.9155ZM4.94064 20.6155V20.9155L5.50564 20.6155H4.94064Z" fill="white"/>
<path d="M6.28 21.2407C6.245 21.3757 6.13 21.4707 6.11 21.6207C6.06 21.4707 6.02 21.3357 6.06 21.1857C6.06 21.0707 6.17 20.9957 6.19 20.8657C6.28 20.9557 6.3 21.0907 6.28 21.2407ZM6.3 21.8107C6.21192 21.931 6.095 22.0273 5.96 22.0907C5.98 21.9807 5.925 21.9007 5.865 21.8107C5.81 21.7107 5.77 21.6207 5.83 21.4857C5.85384 21.5464 5.8858 21.6036 5.925 21.6557C5.98 21.7307 6.035 21.8057 6.035 21.9207C6.11 21.8657 6.135 21.7907 6.17 21.7157C6.23016 21.6031 6.3224 21.5109 6.435 21.4507C6.395 21.5807 6.375 21.6957 6.3 21.8107ZM5.81 22.1857L5.83 22.3757L6.035 22.2257C6.135 22.1257 6.245 22.0907 6.32 21.9757C6.31756 22.046 6.2992 22.1148 6.26632 22.1771C6.23344 22.2394 6.18684 22.2936 6.13 22.3357L5.755 22.5857C5.755 22.4507 5.715 22.3357 5.655 22.2057C5.64612 22.1514 5.6506 22.0956 5.668 22.0434C5.6854 21.9911 5.71528 21.9439 5.755 21.9057C5.755 21.9957 5.77 22.0907 5.81 22.1657V22.1857ZM5.525 22.6207L5.375 22.8857C5.505 22.8457 5.625 22.7707 5.755 22.6957C5.885 22.6207 6.035 22.5857 6.17 22.4707C6.11 22.7157 5.94 22.8457 5.72 22.9207C5.565 22.9607 5.415 22.9407 5.22 23.0207C5.24536 22.8879 5.29088 22.7598 5.355 22.6407L5.49 22.3757C5.525 22.4507 5.545 22.5257 5.525 22.6257V22.6207ZM5.035 22.9807C4.98688 23.0574 4.92196 23.1224 4.845 23.1707C5.035 23.1707 5.185 23.0707 5.375 23.0557C5.49 23.0557 5.6 23.0957 5.715 23.0757C5.585 23.1707 5.43 23.2657 5.265 23.2657C5.055 23.3007 4.845 23.2657 4.615 23.2657C4.73 23.1857 4.79 23.0757 4.845 22.9807C4.945 22.8307 5.035 22.7307 5.205 22.7157C5.13 22.7907 5.09 22.9057 5.035 22.9807ZM4.375 23.2807C4.695 23.3407 5.015 23.4157 5.355 23.4157C4.9994 23.5639 4.60068 23.571 4.24 23.4357C4.05 23.3757 3.88 23.3207 3.73 23.3357C3.525 23.3357 3.24 23.4507 2.935 23.7557L2.825 23.6607C3.26 23.2807 3.825 23.1857 4.375 23.2807Z" fill="#FFC72C"/>
</g>
</g>
</g>
<defs>
<clipPath id="clip0_69_12314">
<rect width="24" height="24" rx="12" fill="white"/>
</clipPath>
<clipPath id="clip1_69_12314">
<rect width="32" height="24" fill="white" transform="translate(-4)"/>
</clipPath>
</defs>
</svg>
