<svg width="24" height="24" viewBox="0 0 24 24" fill="none" xmlns="http://www.w3.org/2000/svg">
<g clip-path="url(#clip0_69_12298)">
<g clip-path="url(#clip1_69_12298)">
<mask id="mask0_69_12298" style="mask-type:luminance" maskUnits="userSpaceOnUse" x="-4" y="0" width="32" height="24">
<path d="M28 0H-4V24H28V0Z" fill="white"/>
</mask>
<g mask="url(#mask0_69_12298)">
<path d="M-4 0H28V24H-4V0Z" fill="#E70013"/>
<path d="M12.0013 5.95952C10.408 5.95288 8.87736 6.57945 7.74604 7.7014C6.61472 8.82332 5.97544 10.3487 5.9688 11.942C5.96216 13.5353 6.58876 15.066 7.71068 16.1973C8.8326 17.3286 10.358 17.9679 11.9513 17.9745C13.5446 17.9811 15.0752 17.3546 16.2066 16.2326C17.3379 15.1107 17.9772 13.5853 17.9838 11.992C17.9904 10.3987 17.3638 8.86805 16.2419 7.73676C15.12 6.60544 13.5946 5.96612 12.0013 5.95952ZM15.6013 14.6495C15.0383 15.4111 14.2493 15.9757 13.3467 16.2628C12.4442 16.5499 11.474 16.5449 10.5744 16.2485C9.67488 15.9521 8.8918 15.3794 8.33664 14.612C7.78152 13.8446 7.48268 12.9216 7.48268 11.9745C7.48268 11.0274 7.78152 10.1044 8.33664 9.33701C8.8918 8.56961 9.67488 7.99693 10.5744 7.70053C11.474 7.40413 12.4442 7.39913 13.3467 7.68625C14.2493 7.97333 15.0383 8.53789 15.6013 9.29953C15.0841 8.83373 14.443 8.52785 13.7556 8.41889C13.0682 8.30993 12.3639 8.40261 11.728 8.68564C11.0922 8.96868 10.552 9.43 10.1729 10.0137C9.79384 10.5974 9.59208 11.2785 9.59208 11.9745C9.59208 12.6705 9.79384 13.3516 10.1729 13.9353C10.552 14.519 11.0922 14.9803 11.728 15.2634C12.3639 15.5464 13.0682 15.6391 13.7556 15.5301C14.443 15.4212 15.0841 15.1153 15.6013 14.6495ZM15.3663 13.5645L13.4963 12.9595L12.3413 14.5495V12.5845L10.4713 11.9745L12.3413 11.3645V9.39953L13.4963 10.9895L15.3663 10.3845L14.2113 11.9745L15.3663 13.5645Z" fill="white"/>
</g>
</g>
</g>
<defs>
<clipPath id="clip0_69_12298">
<rect width="24" height="24" rx="12" fill="white"/>
</clipPath>
<clipPath id="clip1_69_12298">
<rect width="32" height="24" fill="white" transform="translate(-4)"/>
</clipPath>
</defs>
</svg>
