<svg width="24" height="24" viewBox="0 0 24 24" fill="none" xmlns="http://www.w3.org/2000/svg">
<g clip-path="url(#clip0_69_12530)">
<g clip-path="url(#clip1_69_12530)">
<mask id="mask0_69_12530" style="mask-type:luminance" maskUnits="userSpaceOnUse" x="-4" y="0" width="32" height="24">
<path d="M28 0H-4V24H28V0Z" fill="white"/>
</mask>
<g mask="url(#mask0_69_12530)">
<path d="M-4 0H28V24H-4V0Z" fill="#009FCA"/>
<path fill-rule="evenodd" clip-rule="evenodd" d="M25.6644 6.1349H27.0494L25.9344 6.8949L26.3594 8.1299L25.2444 7.3649L24.1344 8.1299L24.5594 6.8949L23.4444 6.1349H24.8194L25.2444 4.8999L25.6644 6.1349ZM22.2044 15.9749H23.5844L22.4694 16.7349L22.8944 17.9699L21.7794 17.2049L20.6644 17.9699L21.0944 16.7349L19.9794 15.9749H21.3494L21.7744 14.7399L22.2044 15.9749ZM25.6644 13.7449H27.0494L25.9344 14.5049L26.3594 15.7399L25.2444 14.9749L24.1344 15.7399L24.5594 14.5049L23.4444 13.7449H24.8194L25.2444 12.5099L25.6644 13.7449ZM10.7894 20.8849H12.1694L11.0494 21.6399L11.4794 22.8699L10.3644 22.1099L9.24936 22.8699L9.67936 21.6399L8.55936 20.8749H9.93936L10.3644 19.6449L10.7894 20.8849ZM13.9194 17.0599H12.5394L13.6544 16.2949L13.2294 15.0649L14.3444 15.8249L15.4594 15.0649L15.0294 16.2949L16.1444 17.0599H14.7694L14.3444 18.2899L13.9194 17.0599ZM17.9844 11.4349H16.5994L17.7144 10.6749L17.2894 9.4399L18.4044 10.2049L19.5194 9.4399L19.0894 10.6749L20.2044 11.4349H18.8294L18.4044 12.6699L17.9844 11.4349ZM21.3994 10.2699H20.0194L21.1394 9.5049L20.7094 8.2749L21.8244 9.0349L22.9394 8.2749L22.5094 9.5049L23.6294 10.2699H22.2494L21.8244 11.4999L21.3994 10.2699ZM17.9844 19.9999H16.5994L17.7144 19.2399L17.2994 17.9999L18.4144 18.7599L19.5294 17.9999L19.0994 19.2349L20.2144 19.9949H18.8394L18.4144 21.2299L17.9844 19.9999ZM13.9194 20.9949H12.5394L13.6544 20.2349L13.2294 18.9999L14.3444 19.7599L15.4594 18.9999L15.0294 20.2299L16.1494 20.9999H14.7744L14.3494 22.2349L13.9194 20.9949Z" fill="#FFF40D"/>
<path d="M-4 0H12V12H-4V0Z" fill="#012169"/>
<path d="M-2.125 0L3.975 4.525L10.05 0H12V1.55L6 6.025L12 10.475V12H10L4 7.525L-1.975 12H-4V10.5L1.975 6.05L-4 1.6V0H-2.125Z" fill="white"/>
<path d="M6.6 7.025L12 11V12L5.225 7.025H6.6ZM2 7.525L2.15 8.4L-2.65 12H-4L2 7.525ZM12 0V0.075L5.775 4.775L5.825 3.675L10.75 0H12ZM-4 0L1.975 4.4H0.475L-4 1.05V0Z" fill="#C8102E"/>
<path d="M2.025 0V12H6.025V0H2.025ZM-4 4V8H12V4H-4Z" fill="white"/>
<path d="M-4 4.825V7.225H12V4.825H-4ZM2.825 0V12H5.225V0H2.825Z" fill="#C8102E"/>
</g>
</g>
</g>
<defs>
<clipPath id="clip0_69_12530">
<rect width="24" height="24" rx="12" fill="white"/>
</clipPath>
<clipPath id="clip1_69_12530">
<rect width="32" height="24" fill="white" transform="translate(-4)"/>
</clipPath>
</defs>
</svg>
