<svg width="24" height="24" viewBox="0 0 24 24" fill="none" xmlns="http://www.w3.org/2000/svg">
<g clip-path="url(#clip0_69_12088)">
<path d="M0 0.000244141H26.8V26.8002H0V0.000244141Z" fill="#FF0000"/>
<path d="M0 -3.59985H13.5V11.8001H0V-3.59985Z" fill="#000095"/>
<path d="M5.77502 7.55885L5.68127 7.91885L6.03377 8.01635L5.96627 7.7501L5.77502 7.55885ZM7.53377 7.7501L7.46627 8.01635L7.81877 7.91885L7.72502 7.55885L7.53377 7.7501ZM5.96627 6.8501L5.77502 7.04135L5.84627 7.3001L5.96627 6.8501Z" fill="white"/>
<path d="M5.84627 7.30005L5.77502 7.5588L5.96627 7.75005L5.84627 7.30005Z" fill="white"/>
<path d="M5.7759 7.04126L5.51715 7.30001L5.7759 7.55876L5.84715 7.30001L5.7759 7.04126ZM6.3009 8.08376L6.49215 8.27501L6.7509 8.20376L6.3009 8.08376ZM7.00965 8.27501L7.36965 8.36876L7.46715 8.01626L7.2009 8.08376L7.00965 8.27501Z" fill="white"/>
<path d="M7.19909 8.08399L7.46534 8.01649L7.53284 7.75024L7.19909 8.08399ZM6.03284 8.01649L6.13034 8.36899L6.49034 8.27524L6.29909 8.08399L6.03284 8.01649ZM6.74909 8.20399L7.00784 8.27524L7.19909 8.08399L6.74909 8.20399Z" fill="white"/>
<path d="M6.49127 8.27548L6.75002 8.53423L7.00877 8.27548L6.75002 8.20423L6.49127 8.27548ZM6.03377 6.58423L5.68127 6.68173L5.77502 7.04173L5.96627 6.85048L6.03377 6.58423ZM5.96627 7.75048L6.03377 8.01673L6.30002 8.08423L5.96627 7.75048ZM7.65377 7.30048L7.72502 7.04173L7.53377 6.85048L7.65377 7.30048Z" fill="white"/>
<path d="M6.30091 6.51611L6.03466 6.58361L5.96716 6.84986L6.30091 6.51611ZM7.53466 6.84986L7.46716 6.58361L7.20091 6.51611L7.53466 6.84986ZM7.72591 7.55861L7.98466 7.29986L7.72591 7.04111L7.65466 7.29986L7.72591 7.55861Z" fill="white"/>
<path d="M7.53284 6.85048L7.19909 6.51673L6.74909 6.39673L6.29909 6.51673L5.96534 6.85048L5.84534 7.30048L5.96534 7.75048L6.29909 8.08423L6.74909 8.20423L7.19909 8.08423L7.53284 7.75048L7.65284 7.30048L7.53284 6.85048Z" fill="white"/>
<path d="M7.53284 7.7502L7.72409 7.55895L7.65284 7.3002L7.53284 7.7502ZM7.72409 7.04145L7.81784 6.68145L7.46534 6.58395L7.53284 6.8502L7.72409 7.04145ZM7.46534 6.58395L7.36784 6.23145L7.00784 6.3252L7.19909 6.51645L7.46534 6.58395ZM6.49034 6.3252L6.13034 6.23145L6.03284 6.58395L6.29909 6.51645L6.49034 6.3252ZM6.74909 6.39645L6.49034 6.3252L6.29909 6.51645L6.74909 6.39645Z" fill="white"/>
<path d="M7.00969 6.32491L6.75094 6.06616L6.49219 6.32491L6.75094 6.39616L7.00969 6.32491Z" fill="white"/>
<path d="M7.2009 6.51645L7.00965 6.3252L6.7509 6.39645L7.2009 6.51645ZM6.49215 8.2752L6.13215 8.36895L6.3009 8.99145L6.7509 8.53394L6.49215 8.2752ZM6.3009 8.99145L6.7509 10.6752L7.2009 8.99145L6.7509 8.53394L6.3009 8.99145ZM6.03465 8.01645L5.68215 7.91895L5.51715 8.53394L6.13215 8.36895L6.03465 8.01645Z" fill="white"/>
<path d="M5.51626 8.53399L5.06626 10.2252L6.30001 8.99149L6.13126 8.36899L5.51626 8.53399ZM5.06626 7.75024L3.82501 8.99149L5.51626 8.53399L5.68126 7.91899L5.06626 7.75024Z" fill="white"/>
<path d="M5.77595 7.5589L5.5172 7.30015L5.0672 7.75015L5.6822 7.9189L5.77595 7.5589ZM5.77595 7.0414L5.6822 6.6814L5.0672 6.85015L5.5172 7.30015L5.77595 7.0414Z" fill="white"/>
<path d="M5.06625 6.8501L3.375 7.3001L5.06625 7.7501L5.51625 7.3001L5.06625 6.8501ZM8.44125 7.7501L7.81875 7.91885L7.98375 8.53385L9.675 8.99135L8.44125 7.7501Z" fill="white"/>
<path d="M7.46625 8.0163L7.36875 8.3688L7.98375 8.5338L7.81875 7.9188L7.46625 8.0163ZM7.00875 8.27505L6.75 8.5338L7.2 8.9913L7.36875 8.3688L7.00875 8.27505ZM7.725 7.5588L7.81875 7.9188L8.44125 7.75005L7.98375 7.30005L7.725 7.5588Z" fill="white"/>
<path d="M7.20001 8.99116L8.44126 10.2249L7.98376 8.53366L7.36876 8.36866L7.20001 8.99116ZM7.46626 6.58366L7.81876 6.68116L7.98376 6.06616L7.36876 6.23116L7.46626 6.58366Z" fill="white"/>
<path d="M8.44126 6.85024L9.67501 5.61649L7.98376 6.06649L7.81876 6.68149L8.44126 6.85024ZM7.98376 6.06649L8.44126 4.37524L7.20001 5.61649L7.36876 6.23149L7.98376 6.06649ZM8.44126 7.75024L10.125 7.30024L8.44126 6.85024L7.98376 7.30024L8.44126 7.75024Z" fill="white"/>
<path d="M7.72595 7.04149L7.9847 7.30024L8.4422 6.85024L7.8197 6.68149L7.72595 7.04149ZM6.30095 5.61649L5.0672 4.37524L5.5172 6.06649L6.1322 6.23149L6.30095 5.61649Z" fill="white"/>
<path d="M6.03465 6.58366L6.13215 6.23116L5.51715 6.06616L5.68215 6.68116L6.03465 6.58366Z" fill="white"/>
<path d="M5.51626 6.0662L3.82501 5.61621L5.06626 6.84995L5.68126 6.6812L5.51626 6.0662ZM7.00876 6.32495L7.36876 6.2312L7.20001 5.61621L6.75001 6.0662L7.00876 6.32495Z" fill="white"/>
<path d="M7.19999 5.6163L6.74999 3.92505L6.29999 5.6163L6.74999 6.0663L7.19999 5.6163Z" fill="white"/>
<path d="M6.49123 6.32495L6.74998 6.0662L6.29998 5.61621L6.13123 6.2312L6.49123 6.32495Z" fill="white"/>
<path d="M6.74907 9.21654C7.80738 9.21654 8.66532 8.3586 8.66532 7.30029C8.66532 6.24198 7.80738 5.38403 6.74907 5.38403C5.69076 5.38403 4.83282 6.24198 4.83282 7.30029C4.83282 8.3586 5.69076 9.21654 6.74907 9.21654Z" fill="#000095"/>
<path d="M6.74905 8.99164C7.6831 8.99164 8.4403 8.23444 8.4403 7.30039C8.4403 6.36634 7.6831 5.60913 6.74905 5.60913C5.815 5.60913 5.0578 6.36634 5.0578 7.30039C5.0578 8.23444 5.815 8.99164 6.74905 8.99164Z" fill="white"/>
</g>
<defs>
<clipPath id="clip0_69_12088">
<rect width="24" height="24" rx="12" fill="white"/>
</clipPath>
</defs>
</svg>
