<svg width="24" height="24" viewBox="0 0 24 24" fill="none" xmlns="http://www.w3.org/2000/svg">
<g clip-path="url(#clip0_69_12143)">
<g clip-path="url(#clip1_69_12143)">
<mask id="mask0_69_12143" style="mask-type:luminance" maskUnits="userSpaceOnUse" x="-4" y="0" width="32" height="24">
<path d="M28 0H-4V24H28V0Z" fill="white"/>
</mask>
<g mask="url(#mask0_69_12143)">
<mask id="mask1_69_12143" style="mask-type:luminance" maskUnits="userSpaceOnUse" x="-4" y="0" width="32" height="24">
<path d="M-4 0H28V24H-4V0Z" fill="white"/>
</mask>
<g mask="url(#mask1_69_12143)">
<path fill-rule="evenodd" clip-rule="evenodd" d="M-6 0H30V24H-6V0Z" fill="#0099FF"/>
<path fill-rule="evenodd" clip-rule="evenodd" d="M-6 0H30L-6 24V0Z" fill="#009900"/>
<path fill-rule="evenodd" clip-rule="evenodd" d="M-6 24H2L30 5V0H22L-6 19V24Z" fill="black"/>
<path fill-rule="evenodd" clip-rule="evenodd" d="M-6 18.3L21.44 0H24.14L-6 20.1V18.3ZM-0.14 24L30 3.9V5.7L2.56 24H-0.14Z" fill="#FFFF00"/>
</g>
</g>
</g>
</g>
<defs>
<clipPath id="clip0_69_12143">
<rect width="24" height="24" rx="12" fill="white"/>
</clipPath>
<clipPath id="clip1_69_12143">
<rect width="32" height="24" fill="white" transform="translate(-4)"/>
</clipPath>
</defs>
</svg>
