<svg width="24" height="24" viewBox="0 0 24 24" fill="none" xmlns="http://www.w3.org/2000/svg">
<g clip-path="url(#clip0_69_12543)">
<g clip-path="url(#clip1_69_12543)">
<mask id="mask0_69_12543" style="mask-type:luminance" maskUnits="userSpaceOnUse" x="-4" y="0" width="32" height="24">
<path d="M28 0H-4V24H28V0Z" fill="white"/>
</mask>
<g mask="url(#mask0_69_12543)">
<mask id="mask1_69_12543" style="mask-type:luminance" maskUnits="userSpaceOnUse" x="-4" y="0" width="32" height="24">
<path d="M-4 0H27.9969V24H-4V0Z" fill="white"/>
</mask>
<g mask="url(#mask1_69_12543)">
<path fill-rule="evenodd" clip-rule="evenodd" d="M-6 16.0032H30V20.0016H-6V16.0032Z" fill="#FFE700"/>
<path fill-rule="evenodd" clip-rule="evenodd" d="M-6 12H30V15.9984H-6V12Z" fill="black"/>
<path fill-rule="evenodd" clip-rule="evenodd" d="M-6 8.00146H30V11.9999H-6V8.00146Z" fill="#DE3908"/>
<path fill-rule="evenodd" clip-rule="evenodd" d="M-6 4.00317H30V8.00161H-6V4.00317Z" fill="#FFE700"/>
<path fill-rule="evenodd" clip-rule="evenodd" d="M-6 0H30V3.99844H-6V0Z" fill="black"/>
<path fill-rule="evenodd" clip-rule="evenodd" d="M15.7344 12.0001C15.7344 12.9909 15.3408 13.9412 14.6402 14.6418C13.9395 15.3424 12.9893 15.736 11.9984 15.736C11.0076 15.736 10.0574 15.3424 9.35672 14.6418C8.65612 13.9412 8.26252 12.9909 8.26248 12.0001C8.26248 11.0092 8.65612 10.059 9.35672 9.35836C10.0574 8.65776 11.0076 8.26416 11.9984 8.26416C12.9893 8.26416 13.9395 8.65776 14.6402 9.35836C15.3408 10.059 15.7344 11.0092 15.7344 12.0001Z" fill="#FFFDFF" stroke="black" stroke-width="0.117188"/>
<path fill-rule="evenodd" clip-rule="evenodd" d="M11.3438 9.13601L11.1 8.69073C11.1938 8.59697 11.3484 8.52197 11.6016 8.52197L11.5734 9.01417L11.3391 9.13601H11.3438Z" fill="#DE3108" stroke="black" stroke-width="0.117188"/>
<path fill-rule="evenodd" clip-rule="evenodd" d="M11.5797 9.01477L11.6125 8.52257C11.6125 8.52257 12.1141 8.49445 12.3859 8.82257L12.1188 9.20693L11.575 9.01946L11.5797 9.01477Z" fill="#FFE700" stroke="black" stroke-width="0.117188"/>
<path fill-rule="evenodd" clip-rule="evenodd" d="M12.1219 9.2015L12.3703 8.81714C12.5344 8.99058 12.6047 9.11242 12.6281 9.29994C12.6328 9.30462 12.2391 9.39838 12.2391 9.3937L12.1219 9.2015Z" fill="#DE3108" stroke="black" stroke-width="0.117188"/>
<path fill-rule="evenodd" clip-rule="evenodd" d="M11.4661 15.5198C11.4661 15.5198 11.9302 14.9901 12.8302 15.1026C12.6942 14.8823 12.2536 14.9104 12.2536 14.9104C12.2536 14.9104 12.1224 13.8792 12.2255 13.823C12.3286 13.7667 12.788 13.8276 12.788 13.8276C12.8442 13.8276 12.9474 13.6683 12.863 13.5651C12.7833 13.462 12.5442 13.073 12.6426 12.9933C12.7411 12.9183 13.2708 13.0401 13.2708 13.0401L11.7708 11.1183C11.7708 11.1183 11.6161 10.3917 11.9255 10.0401C12.2958 9.73543 12.2536 9.40263 12.2442 9.40731C12.1926 9.06983 11.6817 8.83075 11.3348 9.14011C11.1333 9.38387 11.2692 9.57139 11.2692 9.57139C11.2692 9.57139 10.7302 9.71671 10.7114 9.81043C10.688 9.90419 11.3161 9.79639 11.3161 9.79639L11.2552 10.223C11.2552 10.223 10.0364 11.3292 10.9739 12.2854L11.002 12.248C11.002 12.248 11.3302 12.6511 11.6724 12.7401C12.0005 13.0683 11.9676 13.0214 11.9676 13.0214C11.9676 13.0214 12.0286 13.5417 11.9676 13.6448C11.888 13.6214 11.063 13.5886 10.9411 13.6354C10.8286 13.673 10.4067 13.6495 10.5098 14.3433L10.6645 13.9917C10.6645 13.9917 10.6505 14.2401 10.7536 14.3292C10.7348 14.0667 10.852 13.8886 10.852 13.8886C10.852 13.8886 10.8708 14.1792 10.9364 14.2167C11.002 14.2636 11.002 13.748 11.3583 13.7948C11.7052 13.837 11.963 13.823 11.963 13.823C11.963 13.823 12.0802 14.8261 12.0426 14.9198C11.7895 14.8589 11.1802 14.9433 11.1426 15.098C11.4989 15.0745 11.663 15.1167 11.663 15.1167C11.663 15.1167 11.377 15.3745 11.4661 15.5198Z" fill="black" stroke="black" stroke-width="0.105469" stroke-linecap="round" stroke-linejoin="round"/>
<path fill-rule="evenodd" clip-rule="evenodd" d="M11.6076 10.0686C11.6076 10.0686 10.7217 11.0436 11.106 11.789C11.1248 11.6858 11.1154 11.6202 11.1295 11.6249C11.106 11.6108 11.2373 11.714 11.2279 11.6952C11.2279 11.639 11.1904 11.5218 11.1904 11.5218L11.3076 11.5546L11.2373 11.4233L11.4107 11.4421C11.4107 11.4421 11.3498 11.2827 11.3686 11.2827L11.5092 11.2921C11.256 10.8421 11.4951 10.4671 11.6076 10.064V10.0686Z" fill="#9CA69C" stroke="#9CA69C" stroke-width="0.105469" stroke-linecap="round" stroke-linejoin="round"/>
<path fill-rule="evenodd" clip-rule="evenodd" d="M11.9145 9.22974C11.9145 9.22974 11.9614 9.56726 11.7739 9.66098C11.7504 9.68442 11.6333 9.72194 11.652 9.79226C11.6708 9.88598 11.7223 9.86726 11.7926 9.8485C11.9848 9.8157 12.2098 9.40786 11.9145 9.22974Z" fill="#9CA69C" stroke="#9CA69C" stroke-width="0.117188"/>
<path fill-rule="evenodd" clip-rule="evenodd" d="M11.5875 9.51563C11.5875 9.53427 11.5801 9.55215 11.5669 9.56535C11.5537 9.57851 11.5358 9.58591 11.5172 9.58591C11.4985 9.58591 11.4806 9.57851 11.4675 9.56535C11.4543 9.55215 11.4469 9.53427 11.4469 9.51563C11.4469 9.49695 11.4543 9.47907 11.4675 9.46591C11.4806 9.45271 11.4985 9.44531 11.5172 9.44531C11.5358 9.44531 11.5537 9.45271 11.5669 9.46591C11.5801 9.47907 11.5875 9.49695 11.5875 9.51563Z" fill="white"/>
<path fill-rule="evenodd" clip-rule="evenodd" d="M11.3004 9.79688C11.2536 9.83907 11.0098 10.0922 11.2536 10.1859C11.502 10.1203 11.4317 10.0734 11.4879 10.0172C11.4879 9.89999 11.366 9.87187 11.3004 9.80155V9.79688Z" fill="#DE3108" stroke="black" stroke-width="0.117188"/>
<path fill-rule="evenodd" clip-rule="evenodd" d="M11.8397 12.2109C11.8257 12.2672 11.7694 12.4735 11.8444 12.6328C12.06 12.5391 12.1585 12.5672 12.2288 12.6141C12.0554 12.4735 11.985 12.4125 11.8397 12.2109Z" fill="#9CA69C" stroke="#9CA69C" stroke-width="0.105469" stroke-linecap="round" stroke-linejoin="round"/>
<path fill-rule="evenodd" clip-rule="evenodd" d="M12.2062 13.1765L12.2156 13.6546C12.2156 13.6546 12.3844 13.6828 12.4594 13.6546C12.5344 13.6265 12.4594 13.3265 12.2062 13.1765Z" fill="white" stroke="white" stroke-width="0.105469" stroke-linecap="round" stroke-linejoin="round"/>
<path fill-rule="evenodd" clip-rule="evenodd" d="M13.4068 13.2369C13.4068 13.2369 13.1021 12.4963 12.3193 12.3088C11.5365 12.1213 11.6396 11.2869 11.7006 11.2354C11.7381 11.1651 11.7615 11.0525 11.9865 11.1604C12.2115 11.2682 13.2521 11.7885 13.4021 11.8166C13.5521 11.8447 13.4209 13.2557 13.4115 13.2369H13.4068Z" fill="#9CA69C" stroke="black" stroke-width="0.117188"/>
<path fill-rule="evenodd" clip-rule="evenodd" d="M12.6672 12.3048C12.6531 12.3142 13.7125 12.9329 13.3938 13.4626C13.6938 13.261 13.6 12.9142 13.6 12.9142C13.6 12.9142 13.8438 13.5563 13.2438 13.8704C13.3094 13.9267 13.3516 13.9173 13.3516 13.9173L13.2484 14.0157C13.2484 14.0157 13.2016 14.0954 13.6047 13.8985C13.4969 13.9876 13.4875 14.0532 13.4875 14.0532C13.4875 14.0532 13.5156 14.1376 13.7781 13.9079C13.5672 14.1376 13.5203 14.2548 13.5203 14.2501C14.0969 14.2032 15.3484 12.3282 13.1266 11.7798L13.225 11.8829L12.6625 12.3048H12.6672Z" fill="#DE3108" stroke="black" stroke-width="0.105469" stroke-linejoin="round"/>
<path fill-rule="evenodd" clip-rule="evenodd" d="M12.7122 12.1223C12.8528 12.2254 12.9044 12.2629 12.9231 12.3098C12.7919 12.2817 12.6747 12.2911 12.6747 12.2911C12.6747 12.2911 12.3888 12.0192 12.3372 11.9957C12.2997 11.9957 12.0747 11.8551 12.0747 11.8551C11.9669 11.7989 11.8638 11.4192 12.2716 11.527C12.428 11.6086 12.5892 11.6806 12.7544 11.7426L13.256 11.902L13.5466 12.2254C13.5466 12.2254 13.031 11.9723 12.9653 11.9676C13.106 12.0801 13.1856 12.2395 13.1856 12.2395C13.0216 12.1926 12.881 12.1457 12.7122 12.1223Z" fill="white" stroke="black" stroke-width="0.105469" stroke-linecap="round" stroke-linejoin="round"/>
<path d="M10.7062 9.83949C10.7062 9.83949 11.1984 9.71761 11.2594 9.73633" stroke="white" stroke-width="0.105469" stroke-linecap="round"/>
<path fill-rule="evenodd" clip-rule="evenodd" d="M-6 20.0015H30V23.9999H-6V20.0015Z" fill="#DE3908"/>
</g>
</g>
</g>
</g>
<defs>
<clipPath id="clip0_69_12543">
<rect width="24" height="24" rx="12" fill="white"/>
</clipPath>
<clipPath id="clip1_69_12543">
<rect width="32" height="24" fill="white" transform="translate(-4)"/>
</clipPath>
</defs>
</svg>
