<svg width="24" height="24" viewBox="0 0 24 24" fill="none" xmlns="http://www.w3.org/2000/svg">
<g clip-path="url(#clip0_69_12603)">
<g clip-path="url(#clip1_69_12603)">
<mask id="mask0_69_12603" style="mask-type:luminance" maskUnits="userSpaceOnUse" x="-4" y="0" width="32" height="24">
<path d="M28 0H-4V24H28V0Z" fill="white"/>
</mask>
<g mask="url(#mask0_69_12603)">
<path fill-rule="evenodd" clip-rule="evenodd" d="M-4 0H28V24H-4V0Z" fill="#4B92DB"/>
<path d="M13.8873 17.6097C13.8002 17.7042 13.7049 17.7905 13.6023 17.8677C12.9663 17.2077 12.2163 16.4817 11.5053 16.4817C11.0643 16.4817 10.7493 16.8177 10.3773 17.0517C9.86428 17.3817 9.15928 17.5677 8.55628 17.3247C8.21524 17.2079 7.9124 17.0005 7.68028 16.7247C7.9356 16.884 8.225 16.9806 8.5248 17.0067C8.8246 17.0328 9.12628 16.9875 9.40528 16.8747C9.99628 16.6287 10.6023 16.3017 11.2773 16.3017C12.2733 16.3017 13.2213 16.9767 13.8873 17.6097ZM6.51928 15.5397C7.17928 16.2897 8.25628 16.0497 9.13528 16.2357C9.25828 16.2657 9.37528 16.3047 9.50728 16.2837C9.40228 16.2177 9.26128 16.2087 9.14128 16.1637C8.45728 15.9057 8.35228 15.1737 7.97728 14.6727C8.45728 14.9907 8.85028 15.4227 9.29728 15.8337C9.61236 16.0943 9.99344 16.2625 10.3983 16.3197C10.3023 16.3557 10.1763 16.3497 10.0683 16.3737C9.34828 16.5537 8.55028 16.8357 7.78228 16.5837C7.24672 16.4052 6.79728 16.0328 6.52228 15.5397H6.51928ZM5.46328 13.7997C5.87428 14.7327 6.90928 14.8077 7.59328 15.3777C7.71596 15.4867 7.85204 15.5794 7.99828 15.6537L8.00728 15.6477C7.83816 15.5003 7.6862 15.3343 7.55428 15.1527C7.16128 14.5827 7.29028 13.8027 6.98728 13.1967C7.26872 13.5096 7.50228 13.8624 7.68028 14.2437C7.93528 14.8497 8.02228 15.5427 8.59528 16.0047C7.97428 15.8007 7.26028 15.8397 6.70528 15.4767C6.11728 15.0927 5.57428 14.4867 5.46328 13.8027V13.7997ZM5.02228 11.9157C5.08228 12.7377 5.95228 13.1757 6.37228 13.8507C6.46228 13.9947 6.55228 14.1447 6.68128 14.2587C6.66028 14.1717 6.59128 14.0937 6.54928 14.0097C6.41156 13.7065 6.35668 13.3721 6.39028 13.0407C6.42928 12.6207 6.60328 12.2307 6.53728 11.7897C6.89728 12.5667 6.78028 13.5357 6.98728 14.3727C7.03528 14.5587 7.14628 14.7207 7.21528 14.8977C6.86428 14.6277 6.40228 14.3877 6.01528 14.0877C5.62944 13.8104 5.32824 13.4313 5.14528 12.9927C5.02748 12.6467 4.98552 12.2794 5.02228 11.9157ZM5.04628 10.4037C5.08828 10.2207 5.12128 10.0317 5.19928 9.86374C5.04928 10.6377 5.56528 11.1957 5.73928 11.8677C5.80528 12.1197 5.82928 12.3867 5.93128 12.6237C5.94028 12.6267 5.94928 12.6177 5.95528 12.6117C5.70028 11.8977 6.07528 11.2377 6.43528 10.6767C6.52348 10.5228 6.58632 10.3557 6.62128 10.1817C6.66028 10.5057 6.59128 10.8777 6.53128 11.2107C6.45628 11.6397 6.30928 12.0417 6.19228 12.4557C6.12892 12.7256 6.1238 13.0058 6.17728 13.2777L6.13828 13.2477C5.86828 12.7497 5.33428 12.3597 5.17528 11.8137C5.02328 11.3601 4.97912 10.8774 5.04628 10.4037ZM5.33128 9.56974C5.34108 9.01866 5.54264 8.48826 5.90128 8.06974C5.91028 8.06374 5.91928 8.05474 5.93128 8.05774C5.55328 8.62774 5.89828 9.35374 5.84728 10.0047L5.79928 10.6707C5.80528 10.6767 5.80528 10.6977 5.82328 10.6887C5.84728 10.6137 5.85328 10.5357 5.86528 10.4577C5.95528 9.91774 6.42928 9.54574 6.82828 9.16774C6.92056 9.08062 6.99232 8.97406 7.03828 8.85574C7.00528 9.12574 6.93028 9.39874 6.81028 9.64174C6.50128 10.2657 5.90728 10.7697 5.79928 11.4807C5.74828 10.7997 5.33128 10.2927 5.33128 9.56974ZM6.32128 7.59274C6.49376 7.38538 6.7232 7.2331 6.98128 7.15474C6.48628 7.49374 6.51328 8.09674 6.36328 8.60074C6.30928 8.78374 6.22828 8.95774 6.18328 9.14674L6.19828 9.15874C6.28668 8.93182 6.42512 8.72778 6.60328 8.56174C6.94828 8.23774 7.46728 8.03974 7.63828 7.56274C7.62928 8.22574 7.06528 8.72974 6.54928 9.11974C6.3196 9.29306 6.1328 9.51678 6.00328 9.77374C6.02128 9.59374 6.03328 9.43774 6.01528 9.26074C5.96128 8.68174 5.92528 8.03074 6.32428 7.59274H6.32128ZM8.31628 6.47974C7.95328 6.80074 7.71028 7.21174 7.42828 7.58074C7.19728 7.88974 6.87628 8.07874 6.60328 8.33674C6.75328 8.03074 6.77728 7.67674 6.96628 7.37974C7.28728 6.86974 7.82128 6.67174 8.31628 6.47974Z" fill="white"/>
<path d="M10.119 17.6097C10.206 17.7042 10.3014 17.7905 10.404 17.8677C11.04 17.2077 11.79 16.4817 12.501 16.4817C12.942 16.4817 13.257 16.8177 13.629 17.0517C14.142 17.3817 14.847 17.5677 15.45 17.3247C15.791 17.2079 16.0938 17.0005 16.326 16.7247C16.0706 16.884 15.7812 16.9806 15.4815 17.0067C15.1817 17.0328 14.88 16.9875 14.601 16.8747C14.01 16.6287 13.404 16.3017 12.729 16.3017C11.733 16.3017 10.785 16.9767 10.119 17.6097ZM17.487 15.5397C16.827 16.2897 15.75 16.0497 14.871 16.2357C14.748 16.2657 14.631 16.3047 14.499 16.2837C14.604 16.2177 14.745 16.2087 14.865 16.1637C15.549 15.9057 15.654 15.1737 16.029 14.6727C15.549 14.9907 15.156 15.4227 14.709 15.8337C14.3939 16.0943 14.0128 16.2625 13.608 16.3197C13.704 16.3557 13.83 16.3497 13.938 16.3737C14.658 16.5537 15.456 16.8357 16.224 16.5837C16.7595 16.4052 17.209 16.0328 17.484 15.5397H17.487ZM18.543 13.7997C18.132 14.7327 17.097 14.8077 16.413 15.3777C16.2903 15.4867 16.1542 15.5794 16.008 15.6537L15.999 15.6477C16.1681 15.5003 16.32 15.3343 16.452 15.1527C16.845 14.5827 16.716 13.8027 17.019 13.1967C16.7375 13.5096 16.504 13.8624 16.326 14.2437C16.071 14.8497 15.984 15.5427 15.411 16.0047C16.032 15.8007 16.746 15.8397 17.301 15.4767C17.889 15.0927 18.432 14.4867 18.543 13.8027V13.7997ZM18.984 11.9157C18.924 12.7377 18.054 13.1757 17.634 13.8507C17.544 13.9947 17.454 14.1447 17.325 14.2587C17.346 14.1717 17.415 14.0937 17.457 14.0097C17.5947 13.7065 17.6496 13.3721 17.616 13.0407C17.577 12.6207 17.403 12.2307 17.469 11.7897C17.109 12.5667 17.226 13.5357 17.019 14.3727C16.971 14.5587 16.86 14.7207 16.791 14.8977C17.142 14.6277 17.604 14.3877 17.991 14.0877C18.3768 13.8104 18.678 13.4313 18.861 12.9927C18.9788 12.6467 19.0207 12.2794 18.984 11.9157ZM18.96 10.4037C18.918 10.2207 18.885 10.0317 18.807 9.86374C18.957 10.6377 18.441 11.1957 18.267 11.8677C18.201 12.1197 18.177 12.3867 18.075 12.6237C18.066 12.6267 18.057 12.6177 18.051 12.6117C18.306 11.8977 17.931 11.2377 17.571 10.6767C17.4828 10.5228 17.42 10.3557 17.385 10.1817C17.346 10.5057 17.415 10.8777 17.475 11.2107C17.55 11.6397 17.697 12.0417 17.814 12.4557C17.8773 12.7256 17.8824 13.0058 17.829 13.2777L17.868 13.2477C18.138 12.7497 18.672 12.3597 18.831 11.8137C18.983 11.3601 19.0271 10.8774 18.96 10.4037ZM18.675 9.56974C18.6652 9.01866 18.4636 8.48826 18.105 8.06974C18.096 8.06374 18.087 8.05474 18.075 8.05774C18.453 8.62774 18.108 9.35374 18.159 10.0047L18.207 10.6707C18.201 10.6767 18.201 10.6977 18.183 10.6887C18.159 10.6137 18.153 10.5357 18.141 10.4577C18.051 9.91774 17.577 9.54574 17.178 9.16774C17.0857 9.08062 17.014 8.97406 16.968 8.85574C17.001 9.12574 17.076 9.39874 17.196 9.64174C17.505 10.2657 18.099 10.7697 18.207 11.4807C18.258 10.7997 18.675 10.2927 18.675 9.56974ZM17.685 7.59274C17.5125 7.38538 17.283 7.2331 17.025 7.15474C17.52 7.49374 17.493 8.09674 17.643 8.60074C17.697 8.78374 17.778 8.95774 17.823 9.14674L17.808 9.15874C17.7196 8.93182 17.5811 8.72778 17.403 8.56174C17.058 8.23774 16.539 8.03974 16.368 7.56274C16.377 8.22574 16.941 8.72974 17.457 9.11974C17.6867 9.29306 17.8735 9.51678 18.003 9.77374C17.985 9.59374 17.973 9.43774 17.991 9.26074C18.045 8.68174 18.081 8.03074 17.682 7.59274H17.685ZM15.69 6.47974C16.053 6.80074 16.296 7.21174 16.578 7.58074C16.809 7.88974 17.13 8.07874 17.403 8.33674C17.253 8.03074 17.229 7.67674 17.04 7.37974C16.719 6.86974 16.185 6.67174 15.69 6.47974Z" fill="white"/>
<path d="M16.4512 13.0997L16.3462 13.0397C16.1182 13.5084 15.816 13.9372 15.4512 14.3097L14.8262 13.6797C15.1284 13.3677 15.3767 13.0078 15.5612 12.6147L15.4562 12.5547C15.2756 12.9389 15.0323 13.2904 14.7362 13.5947L14.1662 13.0247C14.4076 12.7754 14.6038 12.4861 14.7462 12.1697L14.6412 12.1097C14.5041 12.4167 14.3146 12.6976 14.0812 12.9397L13.4562 12.3147C13.6281 12.1318 13.7638 11.918 13.8562 11.6847L13.7512 11.6247C13.6638 11.847 13.5349 12.0506 13.3712 12.2247L12.7962 11.6547C12.9576 11.4751 13.0529 11.2458 13.0662 11.0047H13.8762C13.8702 11.217 13.8279 11.4266 13.7512 11.6247L13.8562 11.6847C13.9424 11.468 13.9898 11.2378 13.9962 11.0047H14.8862C14.8772 11.386 14.7922 11.7616 14.6362 12.1097L14.7462 12.1697C14.9101 11.8027 14.9985 11.4065 15.0062 11.0047H15.8162C15.8073 11.541 15.6846 12.0693 15.4562 12.5547L15.5612 12.6147C15.7977 12.1104 15.9238 11.5616 15.9312 11.0047H16.8262C16.8179 11.7101 16.654 12.4049 16.3462 13.0397L16.4512 13.0997C16.7784 12.4301 16.9494 11.695 16.9512 10.9497C16.9518 10.3139 16.8296 9.68404 16.5912 9.09468L16.4812 9.14468C16.7053 9.69956 16.824 10.2913 16.8312 10.8897H15.9362C15.9309 10.4101 15.8377 9.93564 15.6612 9.48968L15.5512 9.53968C15.7227 9.96948 15.8142 10.427 15.8212 10.8897H15.0012C14.9956 10.5373 14.9279 10.1886 14.8012 9.85968L14.6912 9.90968C14.8112 10.2228 14.8754 10.5544 14.8812 10.8897H14.0012C13.9955 10.6746 13.955 10.4618 13.8812 10.2597L13.7712 10.3097C13.8383 10.496 13.8754 10.6918 13.8812 10.8897H13.0712C13.0579 10.6486 12.9626 10.4193 12.8012 10.2397L13.3762 9.66468C13.55 9.849 13.6844 10.0668 13.7712 10.3047L13.8812 10.2597C13.7888 10.0069 13.6459 9.77552 13.4612 9.57968L14.0912 8.94968C14.3565 9.22588 14.5639 9.55224 14.7012 9.90968L14.8112 9.85968C14.6662 9.48876 14.4486 9.15052 14.1712 8.86468L14.7462 8.29468C15.0943 8.65428 15.3678 9.07908 15.5512 9.54468L15.6612 9.49468C15.47 9.01564 15.1863 8.579 14.8262 8.20968L15.4562 7.57968C15.897 8.02924 16.2453 8.56096 16.4812 9.14468L16.5912 9.09468C16.3418 8.48036 15.9711 7.92256 15.5012 7.45468C15.031 6.98184 14.4696 6.60932 13.8512 6.35968L13.8112 6.47468C14.3946 6.70916 14.9262 7.05568 15.3762 7.49468L14.7462 8.12468C14.383 7.77272 13.9552 7.49428 13.4862 7.30468L13.4362 7.41468C13.8926 7.59948 14.3086 7.8712 14.6612 8.21468L14.0912 8.78468C13.8169 8.51948 13.4945 8.30904 13.1412 8.16468L13.1012 8.27468C13.4356 8.41304 13.741 8.6132 14.0012 8.86468L13.3762 9.49468C13.2014 9.32948 12.9982 9.19736 12.7762 9.10468L12.7312 9.21968C12.938 9.30524 13.1276 9.42716 13.2912 9.57968L12.7112 10.1497C12.5317 9.98828 12.3024 9.89304 12.0612 9.87968V9.06968C12.2899 9.07692 12.5153 9.12608 12.7262 9.21468L12.7712 9.10468C12.5461 9.00988 12.3054 8.95732 12.0612 8.94968V8.05968C12.4162 8.06528 12.7672 8.13648 13.0962 8.26968L13.1412 8.15968C12.7979 8.02028 12.4318 7.94568 12.0612 7.93968V7.12968C12.533 7.13696 12.9992 7.23192 13.4362 7.40968L13.4762 7.29968C13.0262 7.11804 12.5465 7.0214 12.0612 7.01468V6.11968C12.6596 6.12692 13.2514 6.2456 13.8062 6.46968L13.8462 6.35468C13.2593 6.121 12.633 6.0022 12.0012 6.00468C11.2341 6.00316 10.4772 6.18124 9.79124 6.52468L9.84124 6.62468C10.4942 6.30072 11.2124 6.12976 11.9412 6.12468V7.01468C11.3563 7.02176 10.7805 7.1602 10.2562 7.41968L10.3112 7.51968C10.8187 7.26984 11.3756 7.1366 11.9412 7.12968V7.93968C11.5077 7.94772 11.0812 8.05008 10.6912 8.23968L10.7412 8.34468C11.1159 8.164 11.5254 8.06676 11.9412 8.05968V8.94968C11.6693 8.95856 11.4021 9.02324 11.1562 9.13968L11.2062 9.23968C11.4372 9.13368 11.6872 9.07584 11.9412 9.06968V9.87968C11.8209 9.88636 11.7026 9.9134 11.5912 9.95968L11.6412 10.0597C11.7559 10.0149 11.8782 9.99284 12.0012 9.99468C12.1255 9.9942 12.2487 10.0183 12.3636 10.0654C12.4786 10.1126 12.5831 10.182 12.6712 10.2697C12.761 10.3586 12.832 10.4645 12.8801 10.5813C12.9282 10.6981 12.9524 10.8234 12.9512 10.9497C12.9512 11.2016 12.8512 11.4433 12.673 11.6214C12.4948 11.7996 12.2532 11.8997 12.0012 11.8997C11.8766 11.8995 11.7533 11.8747 11.6383 11.8266C11.5233 11.7786 11.419 11.7082 11.3312 11.6197C11.2427 11.532 11.1724 11.4276 11.1243 11.3126C11.0763 11.1977 11.0514 11.0743 11.0512 10.9497C11.0508 10.8242 11.0753 10.6999 11.1234 10.584C11.1714 10.4681 11.2421 10.363 11.3312 10.2747C11.4201 10.1866 11.5254 10.117 11.6412 10.0697L11.5862 9.96468C11.4764 10.0109 11.375 10.0751 11.2862 10.1547L10.7162 9.57968C10.8623 9.44228 11.0294 9.32916 11.2112 9.24468L11.1562 9.14468C10.9638 9.23284 10.7866 9.35096 10.6312 9.49468L10.0012 8.86468C10.2194 8.65536 10.4692 8.4816 10.7412 8.34968L10.6912 8.24968C10.4083 8.38684 10.1485 8.56736 9.92124 8.78468L9.34624 8.19968C9.63068 7.92432 9.95624 7.69492 10.3112 7.51968L10.2612 7.41968C9.89364 7.5998 9.55628 7.83596 9.26124 8.11968L8.63124 7.48468C8.98936 7.13696 9.39924 6.84684 9.84624 6.62468L9.79124 6.51968C8.82604 7.00496 8.04504 7.79124 7.56624 8.75968L7.66624 8.80968C7.89228 8.35248 8.18928 7.93396 8.54624 7.56968L9.18124 8.20468C8.8856 8.50856 8.6408 8.858 8.45624 9.23968L8.55624 9.29468C8.735 8.92204 8.97308 8.58096 9.26124 8.28468L9.83624 8.85468C9.60332 9.09632 9.41236 9.37516 9.27124 9.67968L9.37124 9.73468C9.50848 9.4406 9.69444 9.1718 9.92124 8.93968L10.5512 9.56968C10.3872 9.74164 10.2552 9.9414 10.1612 10.1597L10.2662 10.2197C10.3528 10.0108 10.4764 9.8194 10.6312 9.65468L11.2062 10.2247C11.0441 10.4058 10.9489 10.6369 10.9362 10.8797H10.1262C10.1326 10.653 10.18 10.4294 10.2662 10.2197L10.1662 10.1597C10.0684 10.3876 10.0141 10.6318 10.0062 10.8797H9.11624C9.12324 10.4842 9.21172 10.0944 9.37624 9.73468L9.27624 9.68468C9.10116 10.0593 9.0058 10.4662 8.99624 10.8797H8.18624C8.19524 10.3304 8.32316 9.78972 8.56124 9.29468L8.45624 9.23968C8.21012 9.75184 8.07872 10.3115 8.07124 10.8797H7.17624C7.185 10.163 7.35416 9.45744 7.67124 8.81468L7.56624 8.75968C7.2308 9.43744 7.05628 10.1835 7.05624 10.9397C7.0562 11.4118 7.12352 11.8816 7.25624 12.3347L7.37124 12.3047C7.247 11.8806 7.18136 11.4416 7.17624 10.9997H8.07124C8.07536 11.3673 8.13092 11.7325 8.23624 12.0847L8.35124 12.0547C8.24712 11.7125 8.1916 11.3574 8.18624 10.9997H9.00124C9.00604 11.2916 9.0532 11.5813 9.14124 11.8597L9.26124 11.8297C9.17432 11.5613 9.12716 11.2817 9.12124 10.9997H10.0012C10.0076 11.2078 10.0464 11.4136 10.1162 11.6097L10.2312 11.5797C10.1643 11.3934 10.1272 11.1976 10.1212 10.9997H10.9312C10.9446 11.2408 11.0398 11.4701 11.2012 11.6497L10.6262 12.2247C10.452 12.0388 10.3176 11.8194 10.2312 11.5797L10.1162 11.6097C10.2092 11.8704 10.3557 12.1089 10.5462 12.3097L9.91124 12.9397C9.60992 12.6245 9.38424 12.245 9.25124 11.8297L9.13124 11.8597C9.27204 12.2966 9.5116 12.6952 9.83124 13.0247L9.26124 13.5997C8.8412 13.1658 8.53092 12.6378 8.35624 12.0597L8.24124 12.0897C8.42092 12.6884 8.74156 13.2354 9.17624 13.6847L8.55124 14.3147C8.00128 13.7527 7.59776 13.0642 7.37624 12.3097L7.25624 12.3397C7.48948 13.1338 7.91944 13.8561 8.50624 14.4397C8.90288 14.8382 9.36448 15.1662 9.87124 15.4097L9.93124 15.3047C9.45096 15.0768 9.01172 14.771 8.63124 14.3997L9.26124 13.7697C9.58416 14.0808 9.95788 14.3345 10.3662 14.5197L10.4262 14.4197C10.0267 14.2386 9.66132 13.99 9.34624 13.6847L9.91624 13.1147C10.1804 13.3686 10.4888 13.5719 10.8262 13.7147L10.8862 13.6097C10.558 13.4727 10.2579 13.276 10.0012 13.0297L10.6312 12.3997C10.8325 12.5885 11.0709 12.7332 11.3312 12.8247L11.3862 12.7197C11.1368 12.6335 10.9085 12.4954 10.7162 12.3147L11.2912 11.7397C11.4708 11.9011 11.7002 11.9964 11.9412 12.0097V12.8197C11.754 12.814 11.5686 12.7803 11.3912 12.7197L11.3262 12.8197C11.5236 12.8919 11.7312 12.9324 11.9412 12.9397V13.8297C11.5788 13.8235 11.2209 13.7489 10.8862 13.6097L10.8262 13.7097C11.1792 13.8602 11.5576 13.9417 11.9412 13.9497V14.7597C11.4182 14.7518 10.9025 14.6361 10.4262 14.4197L10.3662 14.5197C10.8606 14.7478 11.397 14.8704 11.9412 14.8797V15.7697C11.2455 15.7622 10.5596 15.6036 9.93124 15.3047L9.87124 15.4047C10.536 15.7238 11.2639 15.8895 12.0012 15.8897C12.7912 15.8897 13.5512 15.7047 14.2312 15.3597L14.1712 15.2497C13.517 15.5824 12.7951 15.7603 12.0612 15.7697V14.8747C12.652 14.8664 13.2332 14.7245 13.7612 14.4597L13.7112 14.3547C13.1986 14.6112 12.6344 14.748 12.0612 14.7547V13.9547C12.5064 13.9447 12.9437 13.8353 13.3412 13.6347L13.2862 13.5297C12.9052 13.7193 12.4868 13.8218 12.0612 13.8297V12.9397C12.3441 12.9319 12.622 12.8637 12.8762 12.7397L12.8262 12.6297C12.5877 12.7468 12.3269 12.8116 12.0612 12.8197V12.0097C12.3024 11.9964 12.5317 11.9011 12.7112 11.7397L13.2862 12.3147C13.1478 12.4423 12.9911 12.5485 12.8212 12.6297L12.8762 12.7397C13.0574 12.6519 13.2243 12.5373 13.3712 12.3997L14.0012 13.0247C13.7899 13.2283 13.5488 13.3986 13.2862 13.5297L13.3362 13.6347C13.6116 13.499 13.8645 13.3219 14.0862 13.1097L14.6562 13.6797C14.3759 13.9519 14.0555 14.1795 13.7062 14.3547L13.7662 14.4597C14.1248 14.2791 14.4536 14.0447 14.7412 13.7647L15.3662 14.3947C15.0137 14.7388 14.6107 15.0271 14.1712 15.2497L14.2312 15.3597C14.699 15.122 15.126 14.8114 15.4962 14.4397C15.8871 14.0494 16.2099 13.5965 16.4512 13.0997Z" fill="white"/>
<path d="M12.285 9.80067H12.255V9.83567H12.285V9.80067ZM12.21 9.75067H12.25V9.78067H12.21V9.75067ZM12.14 9.74067L12.17 9.74567L12.175 9.71567H12.14V9.74067ZM12.11 9.73067H12.075V9.69567L12.115 9.70067L12.11 9.73067ZM11.82 9.69067H11.86V9.72067H11.82V9.69067ZM11.735 9.75067L11.77 9.75567V9.72567H11.74L11.735 9.75067ZM11.735 9.80067L11.7 9.78567V9.75567L11.745 9.77067L11.735 9.80067ZM11.665 9.83567V9.80567L11.69 9.80067L11.695 9.83067L11.665 9.83567ZM7.73496 12.9157V12.8907H7.70996V12.9407H7.74996V13.0057H7.77996V12.9307L7.73496 12.9157ZM8.10996 13.3657L8.05996 13.3157L8.01496 13.2607L7.99496 13.2107L7.95996 13.1207L8.03496 13.1607L8.05996 13.2307L8.09496 13.2557L8.12996 13.3307L8.10996 13.3657ZM9.14496 14.7207L9.13996 14.6757L9.09496 14.6157L9.15996 14.6257L9.21996 14.6807L9.24996 14.7457L9.20996 14.7657L9.19496 14.7357L9.14496 14.7207ZM11.845 10.1257H11.795L11.78 10.0157L11.81 9.99567V9.94067H11.635V9.88567L11.655 9.87067L11.615 9.85567L11.585 9.89567L11.575 9.94067L11.525 9.95067V9.97567H11.49V10.0407L11.35 10.1557L11.07 10.1457C11.055 10.1957 11.005 10.1457 11.005 10.1457C10.99 10.1107 10.925 10.1457 10.925 10.1457C10.925 10.1957 10.825 10.1157 10.825 10.1157L10.655 9.99067C10.555 9.90067 10.405 10.0157 10.4 10.0407C10.4 10.1107 10.285 10.0557 10.285 10.0557C10.285 10.0557 10.185 10.0257 10.17 10.0657C10.155 10.1057 10.09 10.0957 10.09 10.0957L10.08 10.1157L10.03 10.1257L10.02 10.1557L9.95996 10.1657H10.11C10.15 10.1557 10.095 10.2507 10.07 10.2457H9.99996L9.97496 10.2757H9.90996L9.87996 10.3157L9.78496 10.3107C9.78496 10.3107 9.73496 10.3557 9.73496 10.3707C9.73996 10.3857 9.72496 10.4307 9.70996 10.4307C9.69496 10.4307 9.66496 10.4807 9.67496 10.4907C9.68496 10.5057 9.64496 10.5557 9.64496 10.5557L9.63496 10.6057L9.60496 10.6207V10.7557L9.54496 10.7957V10.8557L9.45496 10.9557L9.46496 11.0307L9.38996 11.1157L9.39996 11.1957L9.35496 11.2107L9.34496 11.2457L9.32496 11.3507L9.37496 11.3557C9.39996 11.3457 9.39496 11.4207 9.37496 11.4357C9.35496 11.4457 9.29996 11.4657 9.32996 11.4857C9.35996 11.5057 9.24996 11.5007 9.24996 11.4707C9.24996 11.4357 9.18996 11.4107 9.17496 11.4207C9.15996 11.4307 9.13496 11.3757 9.13496 11.3757C9.08496 11.3257 8.91496 11.3807 8.91496 11.3807L8.88996 11.4657C8.83496 11.4707 8.79996 11.5657 8.79996 11.5657C8.74996 11.5807 8.71996 11.6357 8.73496 11.6507C8.74996 11.6657 8.70996 11.6707 8.70996 11.6707V11.7807L8.68496 11.8157V11.9407C8.71996 11.9407 8.71496 11.9907 8.71496 11.9907C8.66496 12.0007 8.67496 12.0657 8.67496 12.0657L8.56996 12.1007L8.54996 12.1307H8.41996L8.38496 12.1607L8.34996 12.1257H8.09996L8.08996 12.1007L8.03996 12.0907V12.0357H7.95996L7.94496 12.0707L7.86496 12.0757C7.86996 12.1257 7.78496 12.2007 7.77496 12.1807C7.76496 12.1607 7.70996 12.1057 7.73496 12.0957C7.76444 12.0869 7.79452 12.0802 7.82496 12.0757V12.0407L7.63996 12.0357L7.61996 12.0657L7.54496 12.0707V12.1507L7.50996 12.1607C7.48496 12.1757 7.51496 12.2307 7.51496 12.2307C7.54996 12.2657 7.51496 12.3257 7.51496 12.3257C7.47996 12.3557 7.53496 12.4107 7.53496 12.4107C7.57496 12.4207 7.50996 12.4507 7.50996 12.4507C7.51996 12.5007 7.54996 12.5157 7.54996 12.5157C7.51996 12.5657 7.56996 12.5907 7.56996 12.5907L7.57496 12.6757L7.60996 12.6957V12.7557L7.62996 12.7907H7.70996V12.6607C7.63496 12.5807 7.76496 12.5607 7.76996 12.5907C7.77496 12.6207 7.82996 12.6407 7.82996 12.6407C7.83996 12.7157 7.92996 12.7607 7.94996 12.6807C7.97496 12.6057 7.99996 12.6507 8.00996 12.6857C8.02496 12.7257 8.11996 12.8107 8.11996 12.8107H8.19496L8.20496 12.8807C8.28996 12.8757 8.31496 12.8807 8.34996 13.0007C8.35836 13.0341 8.37448 13.0651 8.39708 13.0912C8.41964 13.1172 8.44804 13.1376 8.47996 13.1507L8.54996 13.1457C8.54996 13.0807 8.61996 13.1557 8.61996 13.1857C8.61996 13.2157 8.75496 13.3307 8.75496 13.3307L8.88996 13.3607L9.01496 13.4607L9.10996 13.4507H9.14996C9.17496 13.3657 9.29496 13.4557 9.29996 13.4857C9.30996 13.5157 9.38996 13.5707 9.39996 13.5457C9.40996 13.5207 9.46496 13.5357 9.47496 13.6107C9.48496 13.6857 9.52496 13.6707 9.52496 13.6707L9.80496 13.6657L9.90496 13.5807L10.16 13.5757C10.29 13.5707 10.21 13.3907 10.185 13.3907C10.14 13.3557 10.2 13.2107 10.2 13.2107L9.83496 12.8707C9.74996 12.8707 9.82496 12.7507 9.82496 12.7507C9.88996 12.7107 9.80996 12.6407 9.80996 12.6407C9.81996 12.5807 9.77496 12.5107 9.77496 12.5107C9.68496 12.4507 9.70996 12.3357 9.70996 12.3357V12.2507C9.63496 12.1807 9.73996 12.1707 9.73996 12.1707C9.77496 12.1107 9.71496 12.0657 9.71496 12.0657V12.0007L9.62996 11.9907L9.61996 11.7507L9.43996 11.4957C9.40496 11.4857 9.42996 11.4207 9.42996 11.4207C9.47996 11.3957 9.41996 11.3357 9.41996 11.3357V11.2257L9.51996 11.2157L9.54496 11.1757H9.59496V11.0457C9.61496 10.9757 9.67496 11.0107 9.67496 11.0107L9.74496 11.0157L9.78496 10.9407L9.79496 10.8807H9.74496C9.67996 10.8407 9.70996 10.7107 9.70996 10.7107C9.80996 10.5657 9.91496 10.6507 9.91496 10.6507L9.98496 10.6457C10.09 10.7157 9.99496 10.8457 9.99496 10.8457C9.97496 10.8757 9.98496 10.9707 9.98496 10.9707L10.01 11.1357L9.94496 11.1857C9.89496 11.2207 9.89496 11.2907 9.94996 11.3057C9.98996 11.3107 9.97496 11.4057 9.91496 11.3407C9.82496 11.3407 9.96496 11.4207 9.92496 11.4007C10.015 11.4507 9.99496 11.3607 9.99496 11.3607L10.115 11.2657C10.165 11.2307 10.24 11.3407 10.24 11.3557C10.24 11.3707 10.44 11.3607 10.44 11.3607C10.49 11.3957 10.515 11.4907 10.515 11.4907C10.565 11.4157 10.685 11.4857 10.6 11.5257C10.68 11.5757 10.68 11.6207 10.68 11.6207C10.745 11.6007 10.745 11.6507 10.745 11.6657L10.765 11.5907C10.69 11.5357 10.865 11.5157 10.815 11.6157L10.785 11.6607L10.835 11.7007V11.8157C10.95 11.8057 10.92 11.6707 10.92 11.6707L10.97 11.6607C10.97 11.6107 11.005 11.6407 11.005 11.6407C10.97 11.4707 11.085 11.4407 11.085 11.4407C11.15 11.4207 11.155 11.2857 11.155 11.2857C11.105 11.2657 11.135 11.1957 11.185 11.2557C11.235 11.3157 11.155 11.1357 11.155 11.1357L11.115 11.1007L11.06 11.0957L11.055 11.0407H10.965L10.95 11.1107L10.915 11.1207L10.905 11.1007L10.89 11.1507H10.8L10.795 11.0957L10.845 11.0807L10.87 11.0507L10.885 10.9657H10.95L11.035 10.9407C11.035 10.8557 11.085 10.8757 11.085 10.8757L11.115 10.9007L11.16 10.9357V10.9657L11.135 10.9807L11.13 11.0207L11.145 11.0807H11.18C11.195 10.9957 11.3 10.9957 11.33 11.0507L11.36 10.9757C11.29 10.9407 11.36 10.8857 11.38 10.9107C11.4 10.9357 11.445 10.8457 11.445 10.8457C11.445 10.8457 11.48 10.8957 11.445 10.8307C11.41 10.7707 11.47 10.7407 11.47 10.7407C11.46 10.6807 11.535 10.6907 11.535 10.6907L11.54 10.6057H11.47C11.455 10.6757 11.395 10.6107 11.425 10.5957C11.455 10.5807 11.485 10.5507 11.485 10.5507V10.5007L11.515 10.4907L11.52 10.4407H11.595L11.66 10.4107L11.675 10.3857L11.745 10.3807L11.845 10.2907L11.835 10.2507C11.775 10.2507 11.835 10.2007 11.835 10.2007L11.845 10.1257Z" fill="white"/>
<path d="M9.83504 11.1304L9.74504 11.1204L9.75004 11.1554H9.77504C9.81504 11.2254 9.78004 11.3954 9.78004 11.3954C9.78004 11.3954 9.72004 11.4004 9.71004 11.3704C9.70004 11.3404 9.67504 11.4354 9.69504 11.4554C9.71504 11.4704 9.78504 11.4554 9.79504 11.5054C9.79504 11.5654 9.83504 11.4754 9.83504 11.4754V11.1254V11.1304Z" fill="white"/>
<path d="M9.83376 11.5603L9.86376 11.5553L9.86876 11.5203L9.79376 11.5703L9.74376 11.5403V11.6603L9.82376 11.7653L9.85376 11.6953L9.86376 11.6503L9.82876 11.6353L9.83376 11.5603ZM9.87376 11.8803V11.8303H9.83876V11.8753L9.87376 11.8803ZM9.82876 12.1203V12.0853L9.78876 12.0903V12.1253L9.82876 12.1203ZM9.88876 11.9653C9.89472 11.9653 9.90044 11.9629 9.90468 11.9587C9.90888 11.9545 9.91124 11.9487 9.91124 11.9427C9.91124 11.9368 9.90888 11.9311 9.90468 11.9269C9.90044 11.9226 9.89472 11.9203 9.88876 11.9203C9.88564 11.9201 9.88256 11.9208 9.87972 11.9221C9.87692 11.9234 9.87444 11.9253 9.87248 11.9277C9.87056 11.9302 9.8692 11.933 9.86856 11.9361C9.86792 11.9391 9.86796 11.9423 9.86876 11.9453C9.86876 11.9553 9.87876 11.9653 9.88876 11.9653Z" fill="white"/>
<path d="M9.92624 12.0698C9.93728 12.0698 9.94624 12.0608 9.94624 12.0498C9.94624 12.0387 9.93728 12.0298 9.92624 12.0298C9.9152 12.0298 9.90623 12.0387 9.90623 12.0498C9.90623 12.0608 9.9152 12.0698 9.92624 12.0698Z" fill="white"/>
<path d="M9.92624 11.49C9.93728 11.49 9.94624 11.481 9.94624 11.47C9.94624 11.4589 9.93728 11.45 9.92624 11.45C9.9152 11.45 9.90623 11.4589 9.90623 11.47C9.90623 11.481 9.9152 11.49 9.92624 11.49Z" fill="white"/>
<path d="M11.6206 10.7251L11.5706 10.7201L11.5556 10.7451H11.5306V10.7851H11.5556L11.5606 10.8151L11.5406 10.8351L11.5306 10.8601L11.4906 10.8701L11.4006 10.9551V10.9951L11.3706 11.0301L11.3406 11.1101H11.2406L11.2156 11.2051L11.2306 11.2802L11.3206 11.3151L11.3306 11.2651L11.3606 11.2501L11.3656 11.2001L11.3856 11.1651L11.4156 11.1301L11.4256 11.0901L11.4756 11.0601L11.5356 11.0451L11.5606 11.0151L11.5706 10.9551V10.9101L11.5956 10.8801L11.6556 10.8551V10.7551H11.6256L11.6206 10.7251ZM11.7606 11.0701V10.9951L11.7506 10.9301L11.6756 10.8951L11.6256 10.9451L11.6106 11.0151V11.0651L11.5606 11.0751L11.5506 11.2101L11.5106 11.2251L11.5156 11.2751L11.4656 11.2901L11.4056 11.3052L11.3956 11.3701L11.3556 11.3951L11.3356 11.4601L11.3106 11.6052C11.3106 11.6052 11.3606 11.6901 11.3806 11.6501C11.4056 11.6101 11.4456 11.6001 11.4456 11.6001L11.4606 11.5701H11.5956C11.6056 11.5201 11.6706 11.5401 11.6706 11.5651C11.6706 11.5901 11.7206 11.5651 11.7206 11.5651L11.7556 11.5151H11.8106L11.8156 11.4501L11.8406 11.4351V11.3501C11.9206 11.3251 11.9106 11.2501 11.9106 11.2501L11.9306 11.2251L11.9206 11.1901C11.8806 11.1751 11.9006 11.1401 11.9256 11.1501C11.9506 11.1601 11.8906 11.1001 11.8906 11.1001C11.8606 11.1301 11.8406 11.0751 11.8406 11.0751H11.7606V11.0701ZM11.8406 11.6802C11.8406 11.7402 11.7606 11.7601 11.7606 11.7601L11.7106 11.7451L11.6756 11.7201V11.6501L11.7156 11.6451L11.7256 11.6751L11.8406 11.6802ZM12.1106 11.3552C12.1206 11.4052 12.1206 11.2851 12.1406 11.2901C12.1606 11.2951 12.1456 11.2201 12.1456 11.2201L12.0556 11.2851C12.1006 11.2901 12.1056 11.3352 12.1106 11.3552ZM12.3756 11.0951C12.3956 11.1401 12.3906 11.2051 12.4656 11.2551C12.4906 11.2701 12.4506 11.3051 12.4256 11.2901C12.3879 11.2522 12.3544 11.2102 12.3256 11.1651V11.1001C12.3456 11.0601 12.3656 11.0751 12.3756 11.0951ZM12.3906 12.6451L12.4056 12.6701L12.4406 12.6201L12.4106 12.6052L12.3756 12.6302L12.3906 12.6451ZM12.9706 12.4802L13.0106 12.4552L12.9956 12.4251L12.9556 12.4501L12.9706 12.4802ZM14.4156 13.5302L14.4606 13.5552V13.6401C14.5256 13.7001 14.7206 13.6502 14.7206 13.6352L14.7106 13.4451L14.6856 13.4201L14.6806 13.2951C14.7006 13.2301 14.5806 13.1352 14.5756 13.1552C14.5656 13.1752 14.5006 13.1552 14.5006 13.1802C14.5006 13.2002 14.4606 13.3002 14.4806 13.3352C14.5006 13.3702 14.4656 13.3702 14.4606 13.4052C14.4556 13.4402 14.4056 13.5052 14.4106 13.5352L14.4156 13.5302ZM14.3056 13.3302C14.2956 13.3702 14.2556 13.3902 14.2406 13.3802C14.2206 13.3602 14.2656 13.4001 14.2756 13.4201C14.2856 13.4401 14.3156 13.4401 14.3256 13.4201C14.3356 13.4001 14.3256 13.3552 14.3406 13.3352C14.3506 13.3152 14.3106 13.3102 14.3056 13.3352V13.3302ZM14.0706 12.4001H14.1056V12.5001H14.0706V12.4001ZM14.5906 11.4302C14.5656 11.4002 14.6906 11.3451 14.7106 11.4101C14.7306 11.4701 14.7106 11.4602 14.6906 11.4552C14.6706 11.4502 14.6206 11.4702 14.5906 11.4302ZM14.6956 10.7501V10.7801L14.7456 10.7901L14.7506 10.7601L14.6956 10.7501ZM14.4706 10.8301L14.5106 10.8551H14.5256L14.5556 10.8351V10.8451L14.5856 10.8351L14.5756 10.8101V10.7951L14.5556 10.8001L14.5206 10.8251L14.4856 10.8001L14.4706 10.8301ZM14.7506 9.60012H14.6756C14.6756 9.60012 14.7006 9.61012 14.6256 9.54512C14.5606 9.48012 14.5156 9.56012 14.5156 9.56012L14.4356 9.57012V9.65012L14.3956 9.66512V9.71512H14.4556C14.4556 9.71512 14.4556 9.77012 14.4706 9.74512C14.4856 9.72012 14.6106 9.75012 14.6006 9.81512C14.5956 9.84012 14.7256 9.90512 14.7106 9.98512C14.7756 9.99512 14.7606 10.0601 14.7606 10.0601L14.8456 10.0701L14.8706 10.0201L14.8956 10.0251V9.99512L14.8406 9.98012L14.8306 9.81512L14.7956 9.79012L14.8056 9.75012L14.7656 9.73512L14.7856 9.67012L14.7506 9.60012ZM14.9656 10.1151H14.9256L14.8356 10.1251L14.7856 10.2251C14.7856 10.2251 14.8106 10.2401 14.8356 10.2751C14.8506 10.3101 14.8606 10.5151 14.8006 10.5501C14.7406 10.5851 14.8056 10.5651 14.8056 10.5651L14.7956 10.6801C14.8106 10.7301 14.8356 10.7051 14.8506 10.6801C14.8656 10.6551 14.8806 10.6501 14.9006 10.6251C14.9206 10.6001 14.9506 10.5501 14.9556 10.5151C14.9606 10.4801 14.9856 10.4251 14.9706 10.4101C14.9556 10.3951 14.9856 10.3251 14.9856 10.3251C14.9856 10.3251 15.0056 10.2851 14.9856 10.2451C14.9656 10.2051 14.9906 10.1551 15.0056 10.1351L14.9656 10.1151ZM15.0256 10.3251L15.0306 10.2851H15.0606V10.3251H15.0256ZM15.0256 10.4651L15.0006 10.4501L15.0156 10.4201L15.0406 10.4351L15.0256 10.4651ZM14.9806 10.0651L14.9606 10.0151C14.9606 10.0151 14.9606 9.97512 14.9706 9.95512C14.9806 9.93512 14.9506 9.91512 14.9356 9.90512C14.9206 9.90512 14.9256 9.86512 14.9206 9.84512C14.9206 9.82512 14.8806 9.81012 14.8806 9.81012L14.8706 9.71512C14.8706 9.70012 14.8256 9.68012 14.8406 9.66512L14.8806 9.62012C14.8956 9.61012 14.8656 9.54012 14.8906 9.55512C14.9156 9.57012 14.9156 9.59512 14.9256 9.61512C14.9356 9.63512 14.9256 9.70512 14.9456 9.72012C14.9706 9.73512 14.9456 9.79012 14.9806 9.79012C15.0206 9.79012 14.9956 9.88512 14.9956 9.88512C14.9956 9.88512 14.9856 9.95512 15.0106 9.96012C15.0356 9.96512 15.0206 10.0851 15.0206 10.0851L14.9806 10.0601V10.0651ZM14.6606 9.24012C14.6756 9.26012 14.7056 9.27512 14.7056 9.29512C14.7056 9.31512 14.6956 9.33012 14.7256 9.33512C14.7556 9.34012 14.7756 9.33512 14.7856 9.35512C14.7956 9.38012 14.7956 9.42512 14.7856 9.44512C14.7856 9.46512 14.7956 9.49512 14.8206 9.49512C14.8456 9.49512 14.8506 9.49512 14.8506 9.51512C14.8506 9.53012 14.8806 9.46012 14.8806 9.46012C14.8556 9.44012 14.8306 9.39512 14.8306 9.39512L14.8106 9.31012C14.8106 9.30012 14.7756 9.29012 14.7606 9.28512C14.7456 9.28512 14.7206 9.23512 14.7206 9.23512L14.6606 9.24012ZM14.7106 9.19512C14.6956 9.17512 14.6806 9.16012 14.6606 9.15012C14.6406 9.14012 14.6256 9.13012 14.6056 9.13012C14.5998 9.12988 14.5942 9.1282 14.5893 9.12524C14.5843 9.12228 14.5802 9.11812 14.5772 9.1132C14.5742 9.10824 14.5726 9.10264 14.5723 9.09688C14.572 9.09108 14.5732 9.08536 14.5756 9.08012C14.5856 9.06012 14.5606 9.05012 14.5606 9.03012C14.5606 9.01012 14.5756 9.01012 14.6006 9.02512C14.6256 9.04012 14.6206 9.04512 14.6406 9.07012C14.6606 9.09512 14.6706 9.12012 14.6906 9.11512C14.7106 9.11012 14.7256 9.16012 14.7406 9.14512C14.7656 9.13012 14.7606 9.18012 14.7606 9.18012L14.7106 9.19512ZM14.1256 9.76512C14.1506 9.79512 13.9756 9.78512 13.9756 9.76512C13.9756 9.74512 13.9906 9.67512 14.0356 9.69012C14.0806 9.70512 14.0856 9.60012 14.0856 9.60012C14.0856 9.60012 14.0456 9.60512 14.0806 9.58512C14.1156 9.56512 14.0806 9.53512 14.0656 9.52012L14.0356 9.48012H14.1056C14.1356 9.46012 14.1456 9.36512 14.1456 9.36512C14.2056 9.38512 14.2356 9.34012 14.2356 9.34012L14.2656 9.40012C14.2856 9.42512 14.2156 9.43512 14.2406 9.45012C14.2656 9.46512 14.2756 9.51012 14.2656 9.52512C14.2556 9.54012 14.2006 9.52512 14.2006 9.51012C14.2006 9.49512 14.1806 9.53512 14.2006 9.56012C14.2206 9.58512 14.1756 9.62012 14.1656 9.62012C14.1556 9.62012 14.0906 9.63012 14.1456 9.66012C14.1956 9.69012 14.2606 9.67512 14.2606 9.67512C14.2606 9.67512 14.3056 9.67512 14.3206 9.69512C14.3356 9.72012 14.3156 9.72512 14.2906 9.72512L14.1406 9.71512C14.1406 9.71512 14.1106 9.75012 14.1256 9.76512ZM13.8056 9.81512C13.8306 9.81012 13.8906 9.80512 13.9056 9.81512C13.9106 9.83512 13.8656 9.85512 13.8656 9.85512L13.8056 9.86512C13.7856 9.84012 13.7806 9.81512 13.8056 9.81512ZM14.4506 9.39012C14.4906 9.37012 14.5756 9.37012 14.5706 9.34012C14.5656 9.30512 14.6206 9.29512 14.6206 9.29512L14.6356 9.35512L14.6806 9.39012V9.44012L14.6456 9.45012C14.5906 9.46512 14.6256 9.49012 14.6256 9.49012H14.5006L14.4856 9.44012L14.4456 9.39012H14.4506ZM14.2506 9.11512C14.2856 9.11512 14.2456 9.23012 14.3256 9.22012C14.4056 9.21012 14.3256 9.25512 14.3906 9.26012C14.4506 9.26512 14.4356 9.21512 14.4556 9.18012C14.4756 9.14512 14.4656 9.12512 14.4306 9.11512C14.3956 9.10512 14.3956 9.10512 14.3806 9.06512C14.3756 9.02512 14.3306 9.01512 14.3306 9.01512L14.3206 8.95512L14.2556 8.99512L14.1906 9.08012C14.1906 9.14512 14.2256 9.11512 14.2556 9.11512H14.2506ZM14.3856 9.54012L14.4006 9.51012L14.4306 9.52512L14.4156 9.55512L14.3856 9.54012ZM14.3356 9.49012H14.3656V9.53012H14.3356V9.49012ZM14.3606 8.82012V8.86512H14.3356L14.3306 8.82512L14.3606 8.82012ZM14.2756 9.29012H14.3056V9.31512H14.2756V9.29012ZM14.1956 9.29012V9.26012H14.2456V9.28512L14.1956 9.29012ZM13.7856 9.78012L13.7556 9.76512L13.7706 9.73012L13.8006 9.74512L13.7856 9.78012ZM13.6256 9.68512V9.65512H13.6756V9.68012L13.6256 9.68512ZM12.7606 9.67512L12.6506 9.68012V9.71012H12.7656L12.7606 9.67512ZM12.5806 9.72012L12.5706 9.67512L12.6006 9.67012L12.6106 9.71512L12.5806 9.72012ZM12.5606 9.75012L12.5506 9.72512L12.5656 9.72012L12.5756 9.74512L12.5606 9.75012ZM12.8106 9.66512L12.8056 9.70012L12.8556 9.70512C12.8556 9.70512 12.8806 9.72512 12.8806 9.74012C12.8806 9.75512 12.9156 9.77012 12.9356 9.77012C12.9556 9.77012 13.0106 9.73012 13.0106 9.73012C13.0106 9.73012 13.0356 9.66012 13.0156 9.66512C12.9956 9.67012 12.9556 9.70012 12.9506 9.67012C12.9506 9.64012 12.8856 9.65512 12.8856 9.65512L12.8056 9.66512H12.8106ZM13.0606 9.61512C13.0606 9.62512 13.0456 9.64512 13.0756 9.65012C13.1056 9.65512 13.1606 9.63012 13.1656 9.66012C13.1706 9.69012 13.1706 9.71012 13.2156 9.72512C13.2441 9.73732 13.2746 9.74412 13.3056 9.74512L13.4056 9.73512C13.4056 9.73512 13.4706 9.75012 13.4856 9.76012C13.5406 9.82012 13.5756 9.83512 13.5906 9.81012C13.6056 9.78512 13.5906 9.72512 13.5806 9.71012C13.5806 9.68512 13.5056 9.59012 13.4806 9.61012C13.4556 9.63012 13.4506 9.61012 13.4056 9.62512C13.3606 9.64012 13.2656 9.63012 13.2606 9.61012C13.2606 9.59012 13.1856 9.58012 13.1856 9.56012C13.1856 9.54012 13.1356 9.51012 13.1406 9.54512C13.1456 9.57512 13.1056 9.59012 13.0956 9.58012C13.0856 9.57012 13.0556 9.61012 13.0556 9.61012L13.0606 9.61512ZM14.2056 8.96512L14.2406 8.85012C14.1906 8.84012 14.2006 8.78512 14.2006 8.78512C14.1956 8.73512 14.1256 8.68512 14.1006 8.70512C14.0756 8.72012 14.0856 8.60012 14.0856 8.60012C14.0856 8.60012 14.1306 8.57012 14.1506 8.58512C14.1706 8.60012 13.9806 8.33012 13.9406 8.35512C13.9006 8.38012 13.8106 8.33012 13.8156 8.28512C13.8206 8.23512 13.6356 8.08512 13.6356 8.08512C13.6356 8.08512 13.5756 8.04512 13.5656 8.07512C13.5556 8.10512 13.5356 8.12512 13.5656 8.14512C13.5956 8.16012 13.5906 8.12012 13.6256 8.15512C13.6606 8.19012 13.7256 8.23512 13.7006 8.26512C13.6756 8.29512 13.6506 8.30512 13.6506 8.30512L13.6806 8.34512H13.7356L13.7456 8.43012C13.7456 8.43012 13.8056 8.46012 13.8206 8.49512C13.8356 8.53012 13.8356 8.55012 13.8206 8.57512C13.8056 8.59512 13.7756 8.62512 13.7806 8.66512C13.7856 8.70012 13.8306 8.71512 13.8306 8.71512H13.8656L13.8956 8.73512V8.80012C13.9356 8.79012 14.0006 8.85012 13.9956 8.88012C13.9956 8.91512 14.0056 8.89512 14.0556 8.93012C14.1056 8.96512 14.0906 8.97012 14.1256 9.00012C14.1606 9.02512 14.1906 9.01012 14.2056 8.96012V8.96512Z" fill="white"/>
<path d="M13.375 8.27947C13.375 8.25947 13.36 8.18947 13.39 8.19447C13.42 8.19447 13.4 8.19447 13.44 8.20947C13.48 8.22447 13.475 8.18447 13.475 8.18447H13.53L13.6 8.23447L13.59 8.28447H13.54C13.515 8.24947 13.465 8.26447 13.475 8.29947C13.485 8.33447 13.45 8.39947 13.43 8.40447C13.41 8.40947 13.345 8.40947 13.35 8.37947L13.375 8.27947ZM13.335 8.14447V8.09947C13.335 8.09947 13.335 8.05947 13.305 8.05947C13.275 8.05947 13.235 8.02947 13.245 8.00947C13.255 7.98947 13.16 7.96947 13.16 7.96947C13.16 7.96947 13.075 7.88947 13.11 7.89947C13.135 7.90947 13.12 7.86447 13.12 7.86447C13.12 7.86447 13.06 7.87447 13.045 7.86447C13.03 7.86447 13.035 7.81447 13.035 7.81447C13.035 7.81447 12.975 7.80447 12.975 7.81447C12.975 7.82447 12.995 7.83447 13.005 7.86447C13.015 7.89447 13.01 7.94447 13.055 7.95447C13.105 7.96447 13.11 7.97447 13.115 7.99447C13.12 8.01447 13.175 8.01947 13.175 8.01947L13.215 8.03947L13.335 8.13947V8.14447ZM12.8 7.62447L12.785 7.58447L12.745 7.57447V7.62447H12.8ZM12.785 7.41447C12.735 7.37447 12.855 7.44447 12.855 7.44447C12.895 7.44447 12.92 7.47447 12.92 7.48947C12.92 7.50447 12.97 7.49947 12.97 7.49947L12.975 7.46447L12.935 7.41447L12.9 7.38947C12.9 7.38947 12.85 7.38447 12.85 7.36947C12.85 7.35447 12.8 7.42947 12.78 7.41447H12.785ZM13.7 7.44447C13.685 7.48947 13.68 7.54947 13.655 7.54947C13.63 7.54947 13.64 7.61447 13.64 7.61447L13.725 7.61947C13.745 7.62447 13.745 7.67447 13.745 7.67447C13.82 7.67447 13.85 7.77447 13.845 7.79947C13.83 7.82447 13.87 7.82447 13.87 7.82447C13.87 7.82447 13.87 7.90447 13.86 7.92447C13.85 7.94447 13.925 7.95947 13.945 7.98947C13.965 8.01947 13.935 8.11947 13.92 8.12447C13.905 8.13447 13.96 8.14947 13.955 8.17447C13.95 8.19947 13.97 8.17447 13.975 8.21447L13.99 8.33947L14.06 8.34447C14.07 8.27947 14.2 8.27447 14.22 8.28447C14.305 8.31447 14.37 8.44447 14.37 8.47447C14.37 8.50447 14.315 8.50947 14.315 8.50947L14.325 8.65947C14.41 8.68447 14.475 8.80947 14.47 8.82447C14.46 8.84447 14.53 8.83947 14.53 8.83947C14.54 8.74947 14.625 8.77947 14.63 8.80947C14.63 8.83947 14.65 8.90947 14.65 8.90947L14.675 8.94947L14.71 8.98447H14.76L14.78 9.01447L14.84 9.02447C14.84 9.02447 14.895 9.08447 14.9 9.09947C14.905 9.11447 14.98 9.10947 15 9.11447C15.02 9.11447 15.05 9.13447 15.055 9.15947C15.06 9.18447 15.09 9.22447 15.09 9.22447C15.09 9.22447 15.15 9.23947 15.155 9.25947L15.185 9.32447L15.235 9.36447L15.24 9.41447H15.295L15.31 9.47947L15.4 9.47447L15.45 9.43947C15.4963 9.41659 15.5359 9.38215 15.565 9.33947C15.57 9.31447 15.58 9.23947 15.63 9.25447C15.68 9.26947 15.645 9.14447 15.645 9.14447C15.645 9.14447 15.575 9.09447 15.58 9.06947C15.585 9.04447 15.51 8.99447 15.515 8.96947C15.52 8.95447 15.45 8.90947 15.455 8.88947C15.46 8.86947 15.42 8.81447 15.42 8.81447L15.35 8.74947L15.34 8.69947H15.28L15.16 8.54947L15.165 8.50947H15.13V8.44947L15.095 8.42947H15.045L14.93 8.30447L14.92 8.24947H14.87L14.88 8.14447C14.915 8.09447 14.895 8.00947 14.895 8.00947C14.895 8.00947 14.825 8.04447 14.79 8.02947C14.755 8.01447 14.805 7.97947 14.805 7.97947V7.93947L14.775 7.90947C14.775 7.90947 14.69 7.91947 14.685 7.90447L14.665 7.82447L14.66 7.73947L14.625 7.72447L14.62 7.68947L14.565 7.69447V7.63447L14.535 7.62447L14.505 7.60947L14.5 7.54947L14.39 7.54447L14.355 7.49447L14.315 7.43447L14.19 7.42447L14.16 7.39447L14.11 7.38447L14.075 7.36947L14.06 7.39447H13.96V7.42947C13.91 7.45447 13.71 7.42947 13.71 7.44947L13.7 7.44447ZM14.225 7.30947C14.215 7.27447 14.325 7.23447 14.35 7.26447C14.375 7.29447 14.445 7.29947 14.45 7.45447C14.455 7.50447 14.365 7.39947 14.365 7.39947L14.29 7.37447C14.25 7.36447 14.23 7.33947 14.225 7.31447V7.30947ZM12.76 7.37447L12.735 7.35947L12.755 7.31447L12.78 7.32947L12.76 7.37447ZM12.505 6.87447L12.44 6.80947V6.75947L12.42 6.73447L12.4 6.66447L12.335 6.64447L12.27 6.66947L12.2 6.71447L12.125 6.72447L12.085 6.77447L12.245 6.78447L12.275 6.83447L12.39 6.84447L12.465 6.91947C12.53 6.94447 12.545 6.90947 12.505 6.87447ZM12.495 6.62447C12.485 6.58447 12.42 6.68447 12.485 6.70447C12.55 6.72447 12.615 6.70447 12.615 6.70447L12.63 6.67447L12.88 6.67947C12.9 6.65947 12.91 6.62947 12.91 6.62947C12.91 6.62947 12.97 6.60947 12.995 6.61947C13.02 6.62947 12.995 6.54947 12.975 6.55947C12.95 6.56947 12.9 6.55947 12.9 6.55947H12.81C12.805 6.52947 12.725 6.54447 12.72 6.55947C12.715 6.58447 12.685 6.58947 12.685 6.58947L12.57 6.59947C12.56 6.62947 12.5 6.64947 12.495 6.62947V6.62447ZM12 7.48447C12.075 7.50947 12.105 7.48447 12.11 7.46947C12.115 7.44947 12.12 7.44447 12.15 7.43947C12.18 7.43447 12.145 7.37447 12.115 7.37947C12.085 7.37947 12.055 7.36947 12.05 7.34447C12.045 7.31447 11.995 7.24947 11.99 7.29947C11.985 7.34947 11.955 7.34947 11.96 7.38947C11.965 7.42447 11.98 7.47447 12 7.48447ZM11.425 7.53947C11.425 7.51947 11.525 7.51947 11.54 7.53447C11.555 7.54947 11.545 7.57447 11.59 7.57447C11.635 7.57447 11.615 7.60447 11.61 7.62447C11.61 7.63447 11.56 7.62947 11.55 7.61447C11.55 7.59947 11.47 7.59447 11.47 7.59447C11.47 7.59447 11.43 7.56447 11.425 7.53947ZM13.125 6.45447L13.085 6.48447L13.06 6.45947L13.035 6.48447L13.07 6.51947L13.08 6.52947L13.09 6.51947L13.14 6.47947L13.125 6.45447ZM12.85 6.36447L12.815 6.34447L12.8 6.36947L12.84 6.39447H12.855L12.91 6.35947L12.895 6.33447L12.85 6.36447ZM12.685 7.40447H12.68L12.63 7.39947V7.42947H12.67L12.7 7.47947L12.725 7.46447L12.69 7.41447L12.685 7.40447ZM11.035 8.81447L11.04 8.86947H11.115C11.145 8.86947 11.09 8.83447 11.09 8.83447C11.09 8.83447 11.03 8.83947 11.04 8.81447H11.035ZM11.135 8.81447L11.15 8.79447L11.18 8.81947L11.16 8.83947L11.135 8.81447ZM10.225 7.86947L10.245 7.84947L10.275 7.87947L10.255 7.89947L10.225 7.86947ZM11.675 14.3845L11.625 14.3595L11.61 14.3845L11.64 14.3995L11.63 14.4095L11.65 14.4345L11.675 14.4095L11.69 14.3945L11.675 14.3845ZM11.285 14.0195L11.265 13.9945L11.235 14.0195L11.22 14.0345L11.24 14.0445L11.275 14.0695L11.29 14.0445L11.27 14.0295L11.285 14.0195ZM14.995 13.0595C14.99 13.0345 14.96 13.0245 14.955 13.0195L14.945 13.0495L14.955 13.0545L14.96 13.0795L14.955 13.0895L14.975 13.1095C14.995 13.0945 15 13.0745 14.995 13.0595ZM15.045 12.9595H14.995V12.9145L15.045 12.9245V12.9595ZM16.195 12.5695C16.22 12.5545 16.245 12.5295 16.245 12.5895C16.24 12.6445 16.215 12.6245 16.195 12.6445C16.18 12.6645 16.165 12.5895 16.195 12.5695ZM16.45 12.3545C16.4499 12.3528 16.4499 12.3512 16.45 12.3495C16.4494 12.3372 16.446 12.3252 16.44 12.3145L16.415 12.3295L16.42 12.3495C16.42 12.3595 16.42 12.3695 16.43 12.3745C16.435 12.3795 16.44 12.3795 16.45 12.3745L16.445 12.3495L16.45 12.3545ZM16.385 12.3795L16.405 12.4395L16.43 12.4295C16.424 12.4098 16.419 12.3898 16.415 12.3695L16.385 12.3795ZM16.275 12.4995H16.245C16.245 12.5195 16.245 12.5495 16.27 12.5495L16.28 12.5245L16.275 12.4995ZM16.145 11.8995C16.1444 11.8939 16.1422 11.8885 16.1386 11.8841C16.1351 11.8797 16.1304 11.8764 16.125 11.8745C16.105 11.8645 16.07 11.8795 16.05 11.8945L16.065 11.9195C16.085 11.9045 16.11 11.8995 16.115 11.8995L16.145 11.8945V11.8995ZM14.76 10.2795C14.74 10.2995 14.695 10.3095 14.695 10.3095L14.68 10.3595L14.66 10.3845V10.4345C14.66 10.4695 14.61 10.4895 14.61 10.4895L14.59 10.5145H14.455C14.405 10.4945 14.44 10.4345 14.47 10.4395C14.5 10.4445 14.465 10.3545 14.465 10.3545L14.505 10.3495C14.505 10.3495 14.505 10.2595 14.525 10.2595C14.54 10.2595 14.52 10.2295 14.5 10.2095C14.48 10.1945 14.45 10.1445 14.435 10.1495H14.335L14.32 10.1795L14.265 10.1895L14.26 10.2395C14.23 10.2795 14.11 10.3545 14.16 10.2295L14.18 10.1945V10.1495H14.09C14.09 10.1495 14.04 10.1295 14.04 10.1095V10.0645L13.935 9.94947L13.81 9.93447L13.8 9.90947L13.725 9.89947C13.635 9.84947 13.555 9.89447 13.575 9.96947C13.585 10.0445 13.61 10.0745 13.56 10.0745C13.51 10.0745 13.5 10.0345 13.5 10.0345C13.5 10.0345 13.46 10.0195 13.46 10.0395C13.46 10.0595 13.445 10.0995 13.46 10.1195C13.475 10.1395 13.44 10.1695 13.425 10.1545C13.41 10.1395 13.375 10.0945 13.38 10.0795C13.39 10.0645 13.31 9.96947 13.39 9.95447C13.47 9.93947 13.39 9.89447 13.415 9.88447L13.455 9.86447H13.495L13.52 9.84447L13.455 9.83447L13.415 9.82947L13.34 9.82447C13.2981 9.84959 13.2663 9.88847 13.25 9.93447C13.21 10.0095 13.115 9.90447 13.15 9.86447C13.185 9.82447 13.04 9.85947 13.015 9.87947C12.99 9.89947 12.915 9.88947 12.915 9.88947C12.9 9.93447 12.83 9.88447 12.85 9.85447C12.87 9.82447 12.87 9.80447 12.87 9.80447L12.845 9.79447L12.815 9.85447C12.75 9.85447 12.73 9.89447 12.74 9.91947C12.755 9.94447 12.72 9.91447 12.71 9.94947C12.705 9.98447 12.72 9.98447 12.745 9.99947C12.775 10.0145 12.73 10.0145 12.75 10.0395C12.77 10.0645 12.83 10.0395 12.8 10.0745C12.76 10.1095 12.695 10.0945 12.695 10.0945C12.69 10.1445 12.595 10.1295 12.585 10.1145L12.5 10.0095L12.4 10.0045C12.395 9.93447 12.45 9.96947 12.47 9.91447C12.49 9.85947 12.5 9.76447 12.5 9.76447C12.5 9.76447 12.42 9.76447 12.415 9.78447C12.41 9.80947 12.36 9.82947 12.36 9.82947C12.36 9.82947 12.32 9.84447 12.335 9.86447C12.35 9.88447 12.305 9.89447 12.305 9.89447C12.305 9.89447 12.31 9.92447 12.3 9.93947C12.26 9.97947 12.16 9.93947 12.145 9.92947L12.085 9.90447L12.025 9.86447L11.955 9.89447L11.935 9.91447H11.86L11.855 9.97447L11.99 9.98947L12 10.1145L11.945 10.0945H11.91L11.895 10.0645H11.865V10.1695L11.895 10.1945L11.92 10.2195L11.97 10.2245L11.98 10.2895H12.105L12.12 10.3195H12.195L12.34 10.4695L12.33 10.5195L12.305 10.5295C12.315 10.5645 12.24 10.5445 12.24 10.5445V10.5745L12.275 10.5795L12.31 10.5995L12.36 10.5145C12.41 10.4795 12.44 10.5295 12.445 10.5645C12.445 10.5895 12.42 10.5845 12.42 10.5845V10.6595L12.45 10.6695C12.5 10.7295 12.43 10.7645 12.43 10.7645L12.415 10.8145C12.4 10.8595 12.345 10.8495 12.345 10.8495L12.325 10.8795L12.265 10.8945L12.385 10.9095C12.395 10.8695 12.425 10.8595 12.435 10.8795C12.455 10.8995 12.455 10.9345 12.455 10.9345L12.485 10.9395L12.48 10.9945L12.51 11.0045V11.1695L12.545 11.2095C12.605 11.1845 12.605 11.2245 12.575 11.2445C12.545 11.2645 12.565 11.3545 12.565 11.3545L12.54 11.3795V11.4195L12.51 11.4395V11.4995C12.46 11.4745 12.4 11.4845 12.385 11.4995C12.335 11.4695 12.245 11.4795 12.245 11.4995C12.275 11.5445 12.21 11.5495 12.21 11.5495L12.175 11.5945C12.2 11.6445 12.15 11.6495 12.15 11.6495V11.7495L12.09 11.7995V11.9345C12.09 11.9695 12.17 11.9745 12.185 11.9545C12.2 11.9345 12.26 11.9945 12.26 11.9945H12.305L12.315 11.9045L12.285 11.8895V11.7395L12.335 11.6895C12.395 11.6645 12.375 11.8145 12.375 11.8295C12.375 11.8895 12.405 11.8795 12.425 11.8695C12.475 11.8495 12.44 11.9295 12.4 11.9195C12.36 11.9195 12.385 11.9695 12.385 11.9695L12.41 11.9845L12.36 12.0195L12.325 12.0645L12.275 12.0495L12.215 12.0445L12.195 12.0095L12.16 12.0045L12.155 12.0745L12.13 12.1045L12.07 12.1645C12.15 12.1645 12.06 12.2195 12.04 12.2195C12.085 12.2345 12.035 12.2795 11.92 12.2445V12.2795L11.88 12.2845L11.915 12.3295H11.955L11.94 12.4195C11.94 12.4845 11.775 12.4395 11.76 12.4195V12.5195H11.725L11.73 12.5795V12.6645L11.78 12.6545V12.6895L11.915 12.6945L12.11 12.4895L12.225 12.4645C12.235 12.4145 12.285 12.4745 12.285 12.4745C12.335 12.4695 12.345 12.5045 12.345 12.5045L12.41 12.5145C12.46 12.5295 12.43 12.5345 12.435 12.5545C12.435 12.5845 12.465 12.5745 12.465 12.5745L12.475 12.5095L12.505 12.5145L12.475 12.4795L12.42 12.4545L12.36 12.4295C12.32 12.3745 12.37 12.3795 12.41 12.3895H12.475C12.475 12.3895 12.55 12.4895 12.55 12.5145C12.55 12.5395 12.585 12.5445 12.585 12.5445H12.63L12.645 12.5745H12.69L12.705 12.6045H12.795V12.5595L12.715 12.5445L12.71 12.4945L12.65 12.4795C12.63 12.3945 12.665 12.3695 12.69 12.4095H12.72L12.71 12.3395L12.745 12.3295L12.735 12.2195L12.705 12.2095V12.1745L12.83 12.1795C12.82 12.1145 12.83 12.0845 12.83 12.0845H12.87V12.1095L13.025 12.1245L13.135 11.9995C13.13 11.9895 13.145 11.9845 13.135 11.9745C13.115 11.9595 13.095 11.9745 13.07 11.9595C13.045 11.9445 13.07 11.8595 13.07 11.8345C13.06 11.8145 13.15 11.7845 13.135 11.8345C13.12 11.8745 13.135 11.8995 13.135 11.8995C13.2 11.8345 13.255 11.8995 13.25 11.9195C13.25 11.9345 13.285 11.9495 13.31 11.9345C13.335 11.9195 13.365 11.9795 13.36 12.0095C13.345 12.0395 13.26 12.0345 13.25 12.0045C13.25 11.9745 13.23 11.9845 13.22 11.9995C13.21 12.0145 13.17 12.0245 13.14 12.0095C13.1376 12.0066 13.1359 12.0032 13.135 11.9995L13.025 12.1245H13.03C13.09 12.1595 13.06 12.2045 13.04 12.2145C13.02 12.2245 12.99 12.2245 12.99 12.2245L12.975 12.2445L12.845 12.2545L12.835 12.3045C12.775 12.2995 12.75 12.3695 12.765 12.4045C12.78 12.4395 12.765 12.4695 12.765 12.4695L12.815 12.4945L12.89 12.4745C12.9 12.4245 12.94 12.4145 12.98 12.3845C13.02 12.3545 13.085 12.4345 13.065 12.4795C13.045 12.5195 13.045 12.5345 13.045 12.5345L13.05 12.5845L13 12.5995L12.96 12.6195V12.6445H12.82L12.8 12.6695L12.735 12.6745L12.715 12.7095H12.665C12.665 12.7095 12.595 12.7495 12.625 12.7895C12.655 12.8295 12.5 12.8245 12.465 12.7695C12.455 12.8195 12.4 12.7695 12.4 12.7695L12.345 12.7595L12.34 12.6845C12.33 12.6345 12.235 12.6345 12.24 12.6695C12.24 12.7045 12.06 12.6845 12.06 12.6845L12 12.7095L11.945 12.7445L11.94 12.7695L11.85 12.7795L11.81 12.7995L11.795 12.7695H11.755L11.715 12.8195C11.615 12.8295 11.515 12.8895 11.52 12.9195C11.53 12.9395 11.48 12.9695 11.48 12.9695L11.435 12.9795L11.405 13.0295L11.345 13.0445L11.335 13.1545L11.305 13.1745V13.2195L11.27 13.2295V13.2545H11.22L11.25 13.3345L11.29 13.3545C11.36 13.3645 11.33 13.4545 11.33 13.4545H11.37L11.39 13.5095L11.43 13.5945C11.445 13.6545 11.49 13.6395 11.51 13.6345C11.53 13.6295 11.55 13.6945 11.55 13.6945L11.75 13.6995C11.75 13.6995 11.74 13.7195 11.775 13.7295C11.81 13.7395 12.04 13.7495 12.05 13.7345C12.04 13.6895 12.175 13.6795 12.23 13.7195C12.28 13.7595 12.36 13.7345 12.36 13.7345L12.435 13.8245L12.485 13.9395L12.57 13.9645L12.63 13.9795L12.65 14.0645H12.695L12.71 14.1245C12.76 14.1645 12.695 14.2495 12.695 14.2495V14.3645L12.735 14.3845L12.73 14.4245L12.795 14.4895H12.87L13.055 14.6945L13.205 14.7445L13.23 14.8245L13.27 14.8195L13.3 14.7945L13.42 14.7895L13.48 14.7295L13.545 14.7195L14.095 14.2495L14.045 14.2195V14.1095C14.14 14.0445 14.145 13.9245 14.06 13.9145C13.995 13.9095 14.025 13.8395 14.085 13.8295L14.12 13.8145V13.7695L14.235 13.6645V13.5845L13.985 13.3745C13.875 13.3345 13.985 13.0895 14.06 13.0945C14.135 13.0995 14.055 12.7245 14.055 12.7245L14.015 12.7045L14.025 12.5795H13.97L13.88 12.6995L13.855 12.7795C13.845 12.8845 13.535 12.8645 13.52 12.8495C13.505 12.8345 13.4 12.7895 13.4 12.7895C13.4 12.7895 13.32 12.7245 13.305 12.7395C13.29 12.7645 13.22 12.7195 13.22 12.7345C13.22 12.7495 13.155 12.6945 13.155 12.6945L13.055 12.6595L13.13 12.6445L13.115 12.5845L13.245 12.6495C13.26 12.6695 13.325 12.6645 13.325 12.6645L13.345 12.6895C13.345 12.6895 13.385 12.6895 13.41 12.7145C13.435 12.7495 13.565 12.7245 13.565 12.7245L13.6 12.7545L13.655 12.7745H13.81L13.815 12.6795L13.845 12.6495V12.5895L13.875 12.5595V12.5095L13.905 12.4995L13.91 12.3895L13.935 12.3845V12.1395L13.86 12.0695C13.855 12.0945 13.775 12.0945 13.775 12.0945C13.775 12.0945 13.755 12.1295 13.74 12.1295C13.725 12.1295 13.76 12.1795 13.75 12.2045C13.74 12.2345 13.7 12.2345 13.7 12.2345L13.625 12.2545L13.605 12.2795H13.525L13.515 12.2145L13.605 12.1895L13.655 12.1645L13.68 12.1145C13.685 12.0645 13.745 12.0695 13.745 12.0695C13.745 12.0695 13.86 11.9695 13.865 11.9295C13.87 11.8795 13.91 11.7545 13.98 11.7545H14.11C14.16 11.7345 14.145 11.6695 14.145 11.6695L14.21 11.6595L14.22 11.6945C14.22 11.6945 14.31 11.7045 14.32 11.6945C14.33 11.6745 14.35 11.6445 14.37 11.6545C14.4 11.6695 14.48 11.6195 14.48 11.6195C14.48 11.5845 14.61 11.5995 14.61 11.5995L14.625 11.5495C14.625 11.5495 14.54 11.4345 14.525 11.4345C14.51 11.4345 14.425 11.3645 14.42 11.3895C14.34 11.3695 14.345 11.2595 14.345 11.2595L14.315 11.1895C14.315 11.1495 14.24 11.0645 14.225 11.0745C14.2136 11.0679 14.2041 11.0584 14.1975 11.047C14.1909 11.0356 14.1874 11.0227 14.1874 11.0095C14.1874 10.9963 14.1909 10.9834 14.1975 10.972C14.2041 10.9606 14.2136 10.9511 14.225 10.9445C14.245 10.9445 14.295 10.8695 14.295 10.8695L14.32 10.7995L14.405 10.7745L14.415 10.7095L14.365 10.7045C14.365 10.7045 14.415 10.6095 14.445 10.6095C14.475 10.6095 14.635 10.6095 14.645 10.5995C14.665 10.5895 14.695 10.5095 14.695 10.4995C14.695 10.4795 14.735 10.4745 14.745 10.4695C14.765 10.4695 14.795 10.4245 14.81 10.4045C14.82 10.3845 14.785 10.2545 14.76 10.2795Z" fill="white"/>
<path d="M12 12.1005C12.005 12.1005 12.015 12.1255 12.03 12.1205C12.045 12.1205 12.055 12.1505 12.035 12.1505C12.025 12.1505 12.025 12.1655 12.025 12.1755C12.025 12.1805 12.025 12.2005 12.01 12.2155C12 12.2255 11.99 12.2155 11.975 12.2105C11.96 12.2005 11.95 12.2005 11.93 12.2005C11.915 12.2005 11.93 12.2305 11.93 12.2305C11.93 12.2305 11.85 12.2305 11.865 12.2155C11.88 12.2055 11.895 12.2005 11.885 12.1955C11.875 12.1855 11.885 12.1805 11.885 12.1655C11.885 12.1505 11.92 12.1555 11.91 12.1455C11.9 12.1355 11.91 12.0905 11.93 12.1155L11.94 12.0905C11.93 12.0755 11.94 12.0755 11.915 12.0655C11.89 12.0555 11.91 12.0155 11.91 12.0155V11.9805C11.92 11.9455 11.995 11.9405 12 11.9755V12.0305L12.025 12.0405C12.025 12.0405 12.02 12.0605 12 12.0605C11.98 12.0605 12 12.0705 11.99 12.0855L12 12.1055V12.1005ZM11.75 12.1405C11.765 12.1205 11.79 12.0205 11.82 12.0505C11.85 12.0805 11.87 12.0505 11.87 12.0505C11.87 12.0505 11.885 12.0655 11.875 12.1005C11.87 12.1255 11.86 12.1555 11.845 12.1605C11.825 12.1605 11.81 12.1755 11.785 12.1805C11.765 12.1805 11.755 12.1405 11.755 12.1405H11.75Z" fill="white"/>
</g>
</g>
</g>
<defs>
<clipPath id="clip0_69_12603">
<rect width="24" height="24" rx="12" fill="white"/>
</clipPath>
<clipPath id="clip1_69_12603">
<rect width="32" height="24" fill="white" transform="translate(-4)"/>
</clipPath>
</defs>
</svg>
