<svg width="24" height="24" viewBox="0 0 24 24" fill="none" xmlns="http://www.w3.org/2000/svg">
<g clip-path="url(#clip0_69_12641)">
<g clip-path="url(#clip1_69_12641)">
<mask id="mask0_69_12641" style="mask-type:luminance" maskUnits="userSpaceOnUse" x="0" y="0" width="32" height="24">
<path d="M32 0H0V24H32V0Z" fill="white"/>
</mask>
<g mask="url(#mask0_69_12641)">
<path d="M0 0H32V24H0V0Z" fill="white"/>
<path d="M13.3 2.66553H32V5.33554H13.3V2.66553ZM13.3 8.00054H32V10.6655H13.3V8.00054ZM0 13.3355H32V16.0005H0V13.3355ZM0 18.6655H32V21.3355H0V18.6655Z" fill="#0038A8"/>
<path d="M6.37028 7.96875L6.81028 8.62875C4.99164 9.94875 6.09164 10.7114 4.81564 11.1221C5.60764 10.3594 4.68364 10.2861 5.35828 8.65807" fill="#FCD116"/>
<path d="M6.37028 7.96875L6.81028 8.62875C4.99164 9.94875 6.09164 10.7114 4.81564 11.1221C5.60764 10.3594 4.68364 10.2861 5.35828 8.65807" stroke="black" stroke-width="0.22" stroke-miterlimit="20" stroke-linecap="square"/>
<path d="M6.04764 8.15942C5.05028 9.8021 5.69564 10.7114 4.81564 11.1368" stroke="black" stroke-width="0.22" stroke-miterlimit="20"/>
<path d="M6.66439 6.66406H7.54439L6.66439 11.504L5.78439 6.66406H6.66439Z" fill="#FCD116"/>
<path d="M6.66439 6.66406H7.54439L6.66439 11.504M6.66439 6.66406H5.78439L6.66439 11.504M6.66439 6.66406V11.504" stroke="black" stroke-width="0.22" stroke-miterlimit="20"/>
<path d="M5.53373 7.38075L5.37817 8.15859C3.1588 7.80595 3.39733 9.12307 2.20468 8.51119C3.30399 8.53191 2.70248 7.82671 4.33073 7.15259" fill="#FCD116"/>
<path d="M5.53373 7.38075L5.37817 8.15859C3.1588 7.80595 3.39733 9.12307 2.20468 8.51119C3.30399 8.53191 2.70248 7.82671 4.33073 7.15259" stroke="black" stroke-width="0.22" stroke-miterlimit="20" stroke-linecap="square"/>
<path d="M5.16808 7.28687C3.3013 7.74319 3.11463 8.84251 2.19162 8.52103" stroke="black" stroke-width="0.22" stroke-miterlimit="20"/>
<path d="M6.66284 6.66448L7.28508 7.28672L3.24045 10.0869L6.0406 6.04224L6.66284 6.66448Z" fill="#FCD116"/>
<path d="M6.66284 6.66448L7.28508 7.28672L3.24045 10.0869M6.66284 6.66448L6.0406 6.04224L3.24045 10.0869M6.66284 6.66448L3.24045 10.0869" stroke="black" stroke-width="0.22" stroke-miterlimit="20"/>
<path d="M5.35937 6.37202L4.69937 6.81202C3.37939 4.99338 2.61672 6.09338 2.20605 4.81738C2.96872 5.60938 3.04205 4.68538 4.67005 5.36002" fill="#FCD116"/>
<path d="M5.35937 6.37202L4.69937 6.81202C3.37939 4.99338 2.61672 6.09338 2.20605 4.81738C2.96872 5.60938 3.04205 4.68538 4.67005 5.36002" stroke="black" stroke-width="0.22" stroke-miterlimit="20" stroke-linecap="square"/>
<path d="M5.16875 6.04938C3.52607 5.05202 2.61674 5.69738 2.19141 4.81738" stroke="black" stroke-width="0.22" stroke-miterlimit="20"/>
<path d="M6.6656 6.66613V7.54613L1.82559 6.66613L6.6656 5.78613V6.66613Z" fill="#FCD116"/>
<path d="M6.6656 6.66613V7.54613L1.82559 6.66613M6.6656 6.66613V5.78613L1.82559 6.66613M6.6656 6.66613H1.82559" stroke="black" stroke-width="0.22" stroke-miterlimit="20"/>
<path d="M5.9507 5.53363L5.1729 5.37807C5.5255 3.15871 4.20838 3.39724 4.82026 2.20459C4.79954 3.3039 5.50474 2.70239 6.17886 4.33063" fill="#FCD116"/>
<path d="M5.9507 5.53363L5.1729 5.37807C5.5255 3.15871 4.20838 3.39724 4.82026 2.20459C4.79954 3.3039 5.50474 2.70239 6.17886 4.33063" stroke="black" stroke-width="0.22" stroke-miterlimit="20" stroke-linecap="square"/>
<path d="M6.04138 5.17128C5.58506 3.30451 4.48574 3.11784 4.80722 2.19482" stroke="black" stroke-width="0.22" stroke-miterlimit="20"/>
<path d="M6.66515 6.66458L6.04292 7.28682L3.24277 3.24219L7.28744 6.04234L6.66515 6.66458Z" fill="#FCD116"/>
<path d="M6.66515 6.66458L6.04292 7.28682L3.24277 3.24219M6.66515 6.66458L7.28743 6.04234L3.24277 3.24219M6.66515 6.66458L3.24277 3.24219" stroke="black" stroke-width="0.22" stroke-miterlimit="20"/>
<path d="M6.9609 5.36108L6.5209 4.70108C8.33958 3.3811 7.23958 2.61843 8.51558 2.20776C7.72358 2.97043 8.64758 3.04376 7.9729 4.67176" fill="#FCD116"/>
<path d="M6.9609 5.36108L6.5209 4.70108C8.33958 3.3811 7.23958 2.61843 8.51558 2.20776C7.72358 2.97043 8.64758 3.04376 7.9729 4.67176" stroke="black" stroke-width="0.22" stroke-miterlimit="20" stroke-linecap="square"/>
<path d="M7.2836 5.17045C8.28092 3.52778 7.6356 2.61845 8.5156 2.19312" stroke="black" stroke-width="0.22" stroke-miterlimit="20"/>
<path d="M6.66693 6.66569H5.78693L6.66693 1.82568L7.54693 6.66569H6.66693Z" fill="#FCD116"/>
<path d="M6.66693 6.66569H5.78693L6.66693 1.82568M6.66693 6.66569H7.54693L6.66693 1.82568M6.66693 6.66569V1.82568" stroke="black" stroke-width="0.22" stroke-miterlimit="20"/>
<path d="M7.79767 5.94933L7.95323 5.17153C10.1726 5.52413 9.93407 4.20701 11.1267 4.81889C10.0274 4.79817 10.6289 5.50337 9.00071 6.17749" fill="#FCD116"/>
<path d="M7.79767 5.94933L7.95323 5.17153C10.1726 5.52413 9.93407 4.20701 11.1267 4.81889C10.0274 4.79817 10.6289 5.50337 9.00071 6.17749" stroke="black" stroke-width="0.22" stroke-miterlimit="20" stroke-linecap="square"/>
<path d="M8.1633 6.04312C10.0301 5.5868 10.2167 4.48748 11.1397 4.80896" stroke="black" stroke-width="0.22" stroke-miterlimit="20"/>
<path d="M6.66835 6.66531L6.04611 6.04307L10.0908 3.24292L7.29063 7.28759L6.66835 6.66531Z" fill="#FCD116"/>
<path d="M6.66835 6.66531L6.04611 6.04307L10.0908 3.24292M6.66835 6.66531L7.29063 7.28759L10.0908 3.24292M6.66835 6.66531L10.0908 3.24292" stroke="black" stroke-width="0.22" stroke-miterlimit="20"/>
<path d="M7.97189 6.95807L8.63189 6.51807C9.95189 8.33675 10.7145 7.23675 11.1252 8.51271C10.3625 7.72075 10.2892 8.64471 8.66121 7.97007" fill="#FCD116"/>
<path d="M7.97189 6.95807L8.63189 6.51807C9.95189 8.33675 10.7145 7.23675 11.1252 8.51271C10.3625 7.72075 10.2892 8.64471 8.66121 7.97007" stroke="black" stroke-width="0.22" stroke-miterlimit="20" stroke-linecap="square"/>
<path d="M8.16251 7.28076C9.80519 8.27808 10.7145 7.63276 11.1399 8.51272" stroke="black" stroke-width="0.22" stroke-miterlimit="20"/>
<path d="M6.66562 6.66394V5.78394L11.5056 6.66394L6.66562 7.54394V6.66394Z" fill="#FCD116"/>
<path d="M6.66562 6.66394V5.78394L11.5056 6.66394M6.66562 6.66394V7.54394L11.5056 6.66394M6.66562 6.66394H11.5056" stroke="black" stroke-width="0.22" stroke-miterlimit="20"/>
<path d="M7.3805 7.79614L8.15834 7.9517C7.8057 10.1711 9.12282 9.93254 8.51094 11.1252C8.53166 10.0259 7.82646 10.6274 7.15234 8.99918" fill="#FCD116"/>
<path d="M7.3805 7.79614L8.15834 7.9517C7.8057 10.1711 9.12282 9.93254 8.51094 11.1252C8.53166 10.0259 7.82646 10.6274 7.15234 8.99918" stroke="black" stroke-width="0.22" stroke-miterlimit="20" stroke-linecap="square"/>
<path d="M7.28986 8.15869C7.74618 10.0255 8.84546 10.2121 8.52398 11.1351" stroke="black" stroke-width="0.22" stroke-miterlimit="20"/>
<path d="M6.666 6.66521L7.28824 6.04297L10.0884 10.0876L6.04376 7.28749L6.666 6.66521Z" fill="#FCD116"/>
<path d="M6.666 6.66521L7.28824 6.04297L10.0884 10.0876M6.666 6.66521L6.04376 7.28749L10.0884 10.0876M6.666 6.66521L10.0884 10.0876" stroke="black" stroke-width="0.22" stroke-miterlimit="20"/>
<path d="M6.66645 8.27844C7.55749 8.27844 8.27981 7.55612 8.27981 6.66508C8.27981 5.77408 7.55749 5.05176 6.66645 5.05176C5.77545 5.05176 5.05313 5.77408 5.05313 6.66508C5.05313 7.55612 5.77545 8.27844 6.66645 8.27844Z" fill="#FCD116" stroke="black" stroke-width="0.22" stroke-miterlimit="20"/>
<path d="M7.8558 6.02034C7.75312 6.13766 7.69448 5.93234 7.3278 5.93234C6.96116 5.93234 6.90248 6.15234 6.8438 6.10834C6.78516 6.06434 7.1518 5.80034 7.26912 5.78566C7.38648 5.77102 7.7238 5.88834 7.8558 6.02034ZM7.43048 6.15234C7.53312 6.24034 7.44512 6.43102 7.34248 6.43102C7.2398 6.43102 7.04916 6.25502 7.13716 6.13766" fill="black"/>
<path d="M6.94687 6.28515C6.96155 6.10919 7.10819 6.07983 7.34287 6.07983C7.57751 6.07983 7.68019 6.25583 7.76819 6.29983C7.66551 6.29983 7.57751 6.15315 7.34287 6.15315C7.10819 6.15315 7.10819 6.15315 6.94687 6.29983M6.99087 6.32915C7.04955 6.24115 7.12287 6.41715 7.28419 6.41715C7.44551 6.41715 7.53351 6.37315 7.63619 6.29983C7.73887 6.22651 7.48951 6.47583 7.32819 6.47583C7.16687 6.47583 6.94687 6.38783 6.99087 6.32915Z" fill="black"/>
<path d="M7.48839 6.41634C7.67907 6.31366 7.56171 6.16702 7.48839 6.1377C7.51771 6.16702 7.63507 6.31366 7.48839 6.41634ZM6.66707 7.29634C6.75507 7.29634 6.78439 7.26702 6.90175 7.26702C7.01907 7.26702 7.29775 7.42834 7.45907 7.36966C7.12175 7.50166 7.25375 7.41366 6.66707 7.41366H6.59375M7.51771 7.50166C7.45907 7.39898 7.47375 7.42834 7.35639 7.26702C7.47375 7.35498 7.50307 7.39898 7.51771 7.50166ZM6.66707 7.64834C7.03375 7.64834 6.97507 7.57498 7.45907 7.36966C7.10707 7.41366 7.03375 7.53098 6.66707 7.53098H6.59375M6.66707 7.10566C6.76975 7.10566 6.79907 7.03234 6.91639 7.03234C7.03375 7.03234 7.19507 7.07634 7.26839 7.13502C7.28307 7.14966 7.22439 7.01766 7.10707 7.00302C6.98975 6.98834 7.03375 6.79766 6.90175 6.76834C6.90175 6.82702 6.94575 6.81234 6.96039 6.90034C6.96039 6.97366 6.82839 6.97366 6.79907 6.90034C6.82839 7.01766 6.74039 7.01766 6.66707 7.01766" fill="black"/>
<path d="M5.47852 6.02034C5.5812 6.13766 5.63988 5.93234 6.00652 5.93234C6.3732 5.93234 6.43184 6.15234 6.49052 6.10834C6.5492 6.06434 6.18252 5.80034 6.0652 5.78566C5.94788 5.77102 5.61052 5.88834 5.47852 6.02034ZM5.90388 6.15234C5.8012 6.24034 5.8892 6.43102 5.99188 6.43102C6.09452 6.43102 6.2852 6.25502 6.1972 6.13766" fill="black"/>
<path d="M6.38758 6.28515C6.3729 6.10919 6.22622 6.07983 5.99158 6.07983C5.7569 6.07983 5.65422 6.25583 5.56622 6.29983C5.6689 6.29983 5.7569 6.15315 5.99158 6.15315C6.22622 6.15315 6.22622 6.15315 6.38758 6.29983M6.34358 6.32915C6.2849 6.24115 6.21158 6.41715 6.05022 6.41715C5.8889 6.41715 5.8009 6.37315 5.69822 6.29983C5.59558 6.22651 5.8449 6.47583 6.00622 6.47583C6.16758 6.47583 6.38758 6.38783 6.34358 6.32915Z" fill="black"/>
<path d="M5.84606 6.41634C5.65542 6.31366 5.77274 6.16702 5.84606 6.1377C5.81674 6.16702 5.69942 6.31366 5.84606 6.41634ZM6.66738 7.29634C6.57938 7.29634 6.55006 7.26702 6.43274 7.26702C6.31538 7.26702 6.03674 7.42834 5.87542 7.36966C6.21274 7.50166 6.08074 7.41366 6.66738 7.41366H6.74074M5.81674 7.50166C5.87542 7.39898 5.86074 7.42834 5.97806 7.26702C5.86074 7.35498 5.83142 7.39898 5.81674 7.50166ZM6.66738 7.64834C6.30074 7.64834 6.35938 7.57498 5.87542 7.36966C6.22738 7.41366 6.30074 7.53098 6.66738 7.53098H6.74074M6.66738 7.10566C6.56474 7.10566 6.53538 7.03234 6.41806 7.03234C6.30074 7.03234 6.13938 7.07634 6.06606 7.13502C6.05138 7.14966 6.11006 7.01766 6.22738 7.00302C6.34474 6.98834 6.30074 6.79766 6.43274 6.76834C6.43274 6.82702 6.38874 6.81234 6.37406 6.90034C6.37406 6.97366 6.50606 6.97366 6.53538 6.90034C6.50606 7.01766 6.59406 7.01766 6.66738 7.01766" fill="black"/>
<path d="M6.66664 7.77979C6.59332 7.77979 6.40264 7.82379 6.66664 7.82379C6.93064 7.82379 6.73996 7.77979 6.66664 7.77979Z" fill="black"/>
</g>
</g>
</g>
<defs>
<clipPath id="clip0_69_12641">
<rect width="24" height="24" rx="12" fill="white"/>
</clipPath>
<clipPath id="clip1_69_12641">
<rect width="32" height="24" fill="white"/>
</clipPath>
</defs>
</svg>
