<svg width="24" height="24" viewBox="0 0 24 24" fill="none" xmlns="http://www.w3.org/2000/svg">
<g clip-path="url(#clip0_69_12698)">
<path d="M0 15.2H24V24.4H0V15.2Z" fill="#1EB53A"/>
<path d="M0 -0.400146H24V9.19985H0V-0.400146Z" fill="#0099B5"/>
<path d="M0 8.95972H24V15.4397H0V8.95972Z" fill="#CE1126"/>
<path d="M0 9.31934H24V15.0793H0V9.31934Z" fill="white"/>
<path d="M5.04047 8.23942C6.23339 8.23942 7.20047 7.27237 7.20047 6.07943C7.20047 4.8865 6.23339 3.91943 5.04047 3.91943C3.84752 3.91943 2.88046 4.8865 2.88046 6.07943C2.88046 7.27237 3.84752 8.23942 5.04047 8.23942Z" fill="white"/>
<path d="M5.76001 8.23942C6.95296 8.23942 7.92001 7.27237 7.92001 6.07943C7.92001 4.8865 6.95296 3.91943 5.76001 3.91943C4.56709 3.91943 3.60001 4.8865 3.60001 6.07943C3.60001 7.27237 4.56709 8.23942 5.76001 8.23942Z" fill="#0099B5"/>
<path d="M9.79305 7.37646L9.65625 7.78686L9.86505 7.85886" fill="white"/>
<path d="M9.79368 7.37646L9.93048 7.78686L9.72168 7.85886" fill="white"/>
<path d="M10.2048 7.67518L9.77221 7.67188L9.76825 7.89271" fill="white"/>
<path d="M10.2046 7.67529L9.85656 7.93221L9.72357 7.75587" fill="white"/>
<path d="M9.38211 7.67529L9.73017 7.93221L9.86316 7.75587" fill="white"/>
<path d="M9.38196 7.67518L9.81453 7.67188L9.81849 7.89271" fill="white"/>
<path d="M10.0471 8.15753L9.91658 7.74512L9.70532 7.80959" fill="white"/>
<path d="M10.0482 8.15742L9.69626 7.90581L9.82286 7.72485" fill="white"/>
<path d="M9.53857 8.15742L9.89047 7.90581L9.76384 7.72485" fill="white"/>
<path d="M9.53958 8.15753L9.67014 7.74512L9.88137 7.80959" fill="white"/>
<path d="M9.79305 5.64917L9.65625 6.05957L9.86505 6.13157" fill="white"/>
<path d="M9.79368 5.64917L9.93048 6.05957L9.72168 6.13157" fill="white"/>
<path d="M10.2048 5.94786L9.77221 5.94458L9.76825 6.16541" fill="white"/>
<path d="M10.2046 5.94775L9.85656 6.20468L9.72357 6.02835" fill="white"/>
<path d="M9.38211 5.94775L9.73017 6.20468L9.86316 6.02835" fill="white"/>
<path d="M9.38196 5.94786L9.81453 5.94458L9.81849 6.16541" fill="white"/>
<path d="M10.0471 6.43024L9.91658 6.01782L9.70532 6.0823" fill="white"/>
<path d="M10.0482 6.4299L9.69626 6.17829L9.82286 5.99731" fill="white"/>
<path d="M9.53857 6.4299L9.89047 6.17829L9.76384 5.99731" fill="white"/>
<path d="M9.53958 6.43024L9.67014 6.01782L9.88137 6.0823" fill="white"/>
<path d="M9.79305 3.92065L9.65625 4.33105L9.86505 4.40305" fill="white"/>
<path d="M9.79368 3.92065L9.93048 4.33105L9.72168 4.40305" fill="white"/>
<path d="M10.2048 4.21935L9.77221 4.21606L9.76825 4.43689" fill="white"/>
<path d="M10.2046 4.21924L9.85656 4.47616L9.72357 4.29983" fill="white"/>
<path d="M9.38211 4.21924L9.73017 4.47616L9.86316 4.29983" fill="white"/>
<path d="M9.38196 4.21935L9.81453 4.21606L9.81849 4.43689" fill="white"/>
<path d="M10.0471 4.70173L9.91658 4.28931L9.70532 4.35379" fill="white"/>
<path d="M10.0482 4.70139L9.69626 4.44978L9.82286 4.2688" fill="white"/>
<path d="M9.53857 4.70139L9.89047 4.44978L9.76384 4.2688" fill="white"/>
<path d="M9.53958 4.70173L9.67014 4.28931L9.88137 4.35379" fill="white"/>
<path d="M11.5204 7.37646L11.3836 7.78686L11.5924 7.85886" fill="white"/>
<path d="M11.521 7.37646L11.6578 7.78686L11.449 7.85886" fill="white"/>
<path d="M11.9321 7.67518L11.4995 7.67188L11.4956 7.89271" fill="white"/>
<path d="M11.9319 7.67529L11.5839 7.93221L11.4509 7.75587" fill="white"/>
<path d="M11.1094 7.67529L11.4575 7.93221L11.5905 7.75587" fill="white"/>
<path d="M11.1093 7.67518L11.5419 7.67188L11.5458 7.89271" fill="white"/>
<path d="M11.7745 8.15753L11.6439 7.74512L11.4327 7.80959" fill="white"/>
<path d="M11.7755 8.15742L11.4236 7.90581L11.5502 7.72485" fill="white"/>
<path d="M11.2659 8.15742L11.6178 7.90581L11.4912 7.72485" fill="white"/>
<path d="M11.2669 8.15753L11.3975 7.74512L11.6087 7.80959" fill="white"/>
<path d="M11.5204 5.64917L11.3836 6.05957L11.5924 6.13157" fill="white"/>
<path d="M11.521 5.64917L11.6578 6.05957L11.449 6.13157" fill="white"/>
<path d="M11.9321 5.94786L11.4995 5.94458L11.4956 6.16541" fill="white"/>
<path d="M11.9319 5.94775L11.5839 6.20468L11.4509 6.02835" fill="white"/>
<path d="M11.1094 5.94775L11.4575 6.20468L11.5905 6.02835" fill="white"/>
<path d="M11.1093 5.94786L11.5419 5.94458L11.5458 6.16541" fill="white"/>
<path d="M11.7745 6.43024L11.6439 6.01782L11.4327 6.0823" fill="white"/>
<path d="M11.7755 6.4299L11.4236 6.17829L11.5502 5.99731" fill="white"/>
<path d="M11.2659 6.4299L11.6178 6.17829L11.4912 5.99731" fill="white"/>
<path d="M11.2669 6.43024L11.3975 6.01782L11.6087 6.0823" fill="white"/>
<path d="M11.5204 3.92065L11.3836 4.33105L11.5924 4.40305" fill="white"/>
<path d="M11.521 3.92065L11.6578 4.33105L11.449 4.40305" fill="white"/>
<path d="M11.9321 4.21935L11.4995 4.21606L11.4956 4.43689" fill="white"/>
<path d="M11.9319 4.21924L11.5839 4.47616L11.4509 4.29983" fill="white"/>
<path d="M11.1094 4.21924L11.4575 4.47616L11.5905 4.29983" fill="white"/>
<path d="M11.1093 4.21935L11.5419 4.21606L11.5458 4.43689" fill="white"/>
<path d="M11.7745 4.70173L11.6439 4.28931L11.4327 4.35379" fill="white"/>
<path d="M11.7755 4.70139L11.4236 4.44978L11.5502 4.2688" fill="white"/>
<path d="M11.2659 4.70139L11.6178 4.44978L11.4912 4.2688" fill="white"/>
<path d="M11.2669 4.70173L11.3975 4.28931L11.6087 4.35379" fill="white"/>
<path d="M13.2477 7.37646L13.1109 7.78686L13.3197 7.85886" fill="white"/>
<path d="M13.2484 7.37646L13.3852 7.78686L13.1764 7.85886" fill="white"/>
<path d="M13.6595 7.67518L13.2269 7.67188L13.2229 7.89271" fill="white"/>
<path d="M13.6593 7.67529L13.3112 7.93221L13.1783 7.75587" fill="white"/>
<path d="M12.8368 7.67529L13.1849 7.93221L13.3178 7.75587" fill="white"/>
<path d="M12.8366 7.67518L13.2692 7.67188L13.2732 7.89271" fill="white"/>
<path d="M13.5018 8.15753L13.3713 7.74512L13.16 7.80959" fill="white"/>
<path d="M13.5028 8.15742L13.1509 7.90581L13.2775 7.72485" fill="white"/>
<path d="M12.9932 8.15742L13.3451 7.90581L13.2185 7.72485" fill="white"/>
<path d="M12.9943 8.15753L13.1248 7.74512L13.3361 7.80959" fill="white"/>
<path d="M13.2477 5.64917L13.1109 6.05957L13.3197 6.13157" fill="white"/>
<path d="M13.2484 5.64917L13.3852 6.05957L13.1764 6.13157" fill="white"/>
<path d="M13.6595 5.94786L13.2269 5.94458L13.2229 6.16541" fill="white"/>
<path d="M13.6593 5.94775L13.3112 6.20468L13.1783 6.02835" fill="white"/>
<path d="M12.8368 5.94775L13.1849 6.20468L13.3178 6.02835" fill="white"/>
<path d="M12.8366 5.94786L13.2692 5.94458L13.2732 6.16541" fill="white"/>
<path d="M13.5018 6.43024L13.3713 6.01782L13.16 6.0823" fill="white"/>
<path d="M13.5028 6.4299L13.1509 6.17829L13.2775 5.99731" fill="white"/>
<path d="M12.9932 6.4299L13.3451 6.17829L13.2185 5.99731" fill="white"/>
<path d="M12.9943 6.43024L13.1248 6.01782L13.3361 6.0823" fill="white"/>
<path d="M13.2477 3.92065L13.1109 4.33105L13.3197 4.40305" fill="white"/>
<path d="M13.2484 3.92065L13.3852 4.33105L13.1764 4.40305" fill="white"/>
<path d="M13.6595 4.21935L13.2269 4.21606L13.2229 4.43689" fill="white"/>
<path d="M13.6593 4.21924L13.3112 4.47616L13.1783 4.29983" fill="white"/>
<path d="M12.8368 4.21924L13.1849 4.47616L13.3178 4.29983" fill="white"/>
<path d="M12.8366 4.21935L13.2692 4.21606L13.2732 4.43689" fill="white"/>
<path d="M13.5018 4.70173L13.3713 4.28931L13.16 4.35379" fill="white"/>
<path d="M13.5028 4.70139L13.1509 4.44978L13.2775 4.2688" fill="white"/>
<path d="M12.9932 4.70139L13.3451 4.44978L13.2185 4.2688" fill="white"/>
<path d="M12.9943 4.70173L13.1248 4.28931L13.3361 4.35379" fill="white"/>
<path d="M6.33602 7.37646L6.19922 7.78686L6.40802 7.85886" fill="white"/>
<path d="M6.33662 7.37646L6.47342 7.78686L6.26462 7.85886" fill="white"/>
<path d="M6.74775 7.67518L6.31515 7.67188L6.31119 7.89271" fill="white"/>
<path d="M6.74756 7.67529L6.39953 7.93221L6.26651 7.75587" fill="white"/>
<path d="M5.92508 7.67529L6.27311 7.93221L6.4061 7.75587" fill="white"/>
<path d="M5.9249 7.67518L6.3575 7.67188L6.36143 7.89271" fill="white"/>
<path d="M6.59011 8.15753L6.45955 7.74512L6.24832 7.80959" fill="white"/>
<path d="M6.59116 8.15742L6.23926 7.90581L6.36586 7.72485" fill="white"/>
<path d="M6.08151 8.15742L6.43341 7.90581L6.30681 7.72485" fill="white"/>
<path d="M6.08255 8.15753L6.21308 7.74512L6.42434 7.80959" fill="white"/>
<path d="M8.06337 7.37646L7.92657 7.78686L8.13538 7.85886" fill="white"/>
<path d="M8.06397 7.37646L8.20077 7.78686L7.99197 7.85886" fill="white"/>
<path d="M8.4751 7.67518L8.0425 7.67188L8.03857 7.89271" fill="white"/>
<path d="M8.47492 7.67529L8.12689 7.93221L7.9939 7.75587" fill="white"/>
<path d="M7.65244 7.67529L8.00047 7.93221L8.13349 7.75587" fill="white"/>
<path d="M7.65225 7.67518L8.08485 7.67188L8.08881 7.89271" fill="white"/>
<path d="M8.31744 8.15753L8.18691 7.74512L7.97565 7.80959" fill="white"/>
<path d="M8.31848 8.15742L7.96658 7.90581L8.09318 7.72485" fill="white"/>
<path d="M7.80884 8.15742L8.16074 7.90581L8.03414 7.72485" fill="white"/>
<path d="M7.80991 8.15753L7.94047 7.74512L8.1517 7.80959" fill="white"/>
<path d="M8.06337 5.64917L7.92657 6.05957L8.13538 6.13157" fill="white"/>
<path d="M8.06397 5.64917L8.20077 6.05957L7.99197 6.13157" fill="white"/>
<path d="M8.4751 5.94786L8.0425 5.94458L8.03857 6.16541" fill="white"/>
<path d="M8.47492 5.94775L8.12689 6.20468L7.9939 6.02835" fill="white"/>
<path d="M7.65244 5.94775L8.00047 6.20468L8.13349 6.02835" fill="white"/>
<path d="M7.65225 5.94786L8.08485 5.94458L8.08881 6.16541" fill="white"/>
<path d="M8.31744 6.43024L8.18691 6.01782L7.97565 6.0823" fill="white"/>
<path d="M8.31848 6.4299L7.96658 6.17829L8.09318 5.99731" fill="white"/>
<path d="M7.80884 6.4299L8.16074 6.17829L8.03414 5.99731" fill="white"/>
<path d="M7.80991 6.43024L7.94047 6.01782L8.1517 6.0823" fill="white"/>
</g>
<defs>
<clipPath id="clip0_69_12698">
<rect width="24" height="24" rx="12" fill="white"/>
</clipPath>
</defs>
</svg>
