<svg width="24" height="24" viewBox="0 0 24 24" fill="none" xmlns="http://www.w3.org/2000/svg">
<g clip-path="url(#clip0_69_12846)">
<g clip-path="url(#clip1_69_12846)">
<mask id="mask0_69_12846" style="mask-type:luminance" maskUnits="userSpaceOnUse" x="-4" y="0" width="32" height="24">
<path d="M28 0H-4V24H28V0Z" fill="white"/>
</mask>
<g mask="url(#mask0_69_12846)">
<path d="M-4 0H28V24H-4V0Z" fill="#CF142B"/>
<path d="M-4 0H28V16H-4V0Z" fill="#00247D"/>
<path d="M-4 0H28V8H-4V0Z" fill="#FFCC00"/>
<path d="M13.4235 8.72559L12.9614 9.61891L13.4816 9.89343L13.4235 8.72559Z" fill="white"/>
<path d="M13.4233 8.72607L13.552 9.72359L12.9693 9.80359L13.4233 8.72607Z" fill="white"/>
<path d="M14.2387 9.57046L13.2462 9.40698L13.1459 9.98658L14.2387 9.57046Z" fill="white"/>
<path d="M14.2395 9.57003L13.3306 10.0007L13.0744 9.47119L14.2395 9.57003Z" fill="white"/>
<path d="M12.369 9.23975L13.0758 9.95535L13.4976 9.54539L12.369 9.23975Z" fill="white"/>
<path d="M12.3685 9.23999L13.357 9.42579L13.2531 10.0048L12.3685 9.23999Z" fill="white"/>
<path d="M13.6897 10.6081L13.5385 9.61377L12.9563 9.69749L13.6897 10.6081Z" fill="white"/>
<path d="M13.6884 10.6076L12.9979 9.87627L13.4223 9.46899L13.6884 10.6076Z" fill="white"/>
<path d="M12.5322 10.4045L13.4312 9.95342L13.1717 9.42554L12.5322 10.4045Z" fill="white"/>
<path d="M12.5334 10.4049L13.0155 9.52222L13.534 9.80002L12.5334 10.4049Z" fill="white"/>
<path d="M16.1004 9.69849L15.3606 10.3799L15.7556 10.8158L16.1004 9.69849Z" fill="white"/>
<path d="M16.0996 9.69849L15.8794 10.6799L15.3044 10.5558L16.0996 9.69849Z" fill="white"/>
<path d="M16.5782 10.7731L15.7016 10.28L15.4091 10.7904L16.5782 10.7731Z" fill="white"/>
<path d="M16.578 10.7738L15.5766 10.8677L15.517 10.2825L16.578 10.7738Z" fill="white"/>
<path d="M14.9323 9.82104L15.3518 10.7352L15.8884 10.4943L14.9323 9.82104Z" fill="white"/>
<path d="M14.9333 9.82104L15.7986 10.3337L15.5029 10.8422L14.9333 9.82104Z" fill="white"/>
<path d="M15.7047 11.5594L15.9027 10.5734L15.327 10.4529L15.7047 11.5594Z" fill="white"/>
<path d="M15.7046 11.5594L15.3059 10.636L15.844 10.3984L15.7046 11.5594Z" fill="white"/>
<path d="M14.6873 10.9712L15.6863 10.8548L15.623 10.27L14.6873 10.9712Z" fill="white"/>
<path d="M14.6877 10.9709L15.4427 10.3064L15.8349 10.7448L14.6877 10.9709Z" fill="white"/>
<path d="M18.2803 11.5298L17.3521 11.9171L17.5742 12.4617L18.2803 11.5298Z" fill="white"/>
<path d="M18.279 11.5295L17.7365 12.3764L17.2386 12.0631L18.279 11.5295Z" fill="white"/>
<path d="M18.3629 12.7028L17.7078 11.9397L17.2584 12.3192L18.3629 12.7028Z" fill="white"/>
<path d="M18.3621 12.7035L17.389 12.4492L17.5331 11.8789L18.3621 12.7035Z" fill="white"/>
<path d="M17.1406 11.2454L17.2221 12.2478L17.8087 12.205L17.1406 11.2454Z" fill="white"/>
<path d="M17.1406 11.2451L17.7784 12.0228L17.3266 12.3995L17.1406 11.2451Z" fill="white"/>
<path d="M17.2714 13.1432L17.7948 12.2843L17.2949 11.9741L17.2714 13.1432Z" fill="white"/>
<path d="M17.2723 13.1428L17.2135 12.1388L17.8004 12.0996L17.2723 13.1428Z" fill="white"/>
<path d="M16.5166 12.2429L17.4952 12.4753L17.6357 11.9041L16.5166 12.2429Z" fill="white"/>
<path d="M16.5178 12.2429L17.4545 11.8767L17.6732 12.4228L16.5178 12.2429Z" fill="white"/>
<path d="M19.7026 13.9944L18.6979 14.0408L18.7203 14.6286L19.7026 13.9944Z" fill="white"/>
<path d="M19.7036 13.9946L18.9042 14.6049L18.5435 14.1402L19.7036 13.9946Z" fill="white"/>
<path d="M19.3792 15.1238L19.0246 14.1826L18.4725 14.3856L19.3792 15.1238Z" fill="white"/>
<path d="M19.3802 15.1231L18.5527 14.5513L18.8832 14.0647L19.3802 15.1231Z" fill="white"/>
<path d="M18.728 13.3379L18.4616 14.3078L19.0276 14.4681L18.728 13.3379Z" fill="white"/>
<path d="M18.7283 13.3386L19.0616 14.2876L18.5082 14.487L18.7283 13.3386Z" fill="white"/>
<path d="M18.2044 15.1667L18.99 14.5385L18.6264 14.0762L18.2044 15.1667Z" fill="white"/>
<path d="M18.205 15.1663L18.4931 14.2026L19.058 14.3666L18.205 15.1663Z" fill="white"/>
<path d="M17.8015 14.0615L18.6416 14.6145L18.969 14.1258L17.8015 14.0615Z" fill="white"/>
<path d="M17.8017 14.0618L18.8072 14.0381L18.8258 14.626L17.8017 14.0618Z" fill="white"/>
<path d="M4.29324 13.9961L5.09272 14.6064L5.4534 14.1417L4.29324 13.9961Z" fill="white"/>
<path d="M4.29428 13.9958L5.29896 14.0423L5.2766 14.6301L4.29428 13.9958Z" fill="white"/>
<path d="M5.26856 13.3386L4.93524 14.2876L5.48864 14.487L5.26856 13.3386Z" fill="white"/>
<path d="M5.26893 13.3379L5.53525 14.3078L4.96933 14.4681L5.26893 13.3379Z" fill="white"/>
<path d="M4.61984 15.1263L5.44728 14.5545L5.1168 14.0679L4.61984 15.1263Z" fill="white"/>
<path d="M4.62076 15.127L4.9754 14.1858L5.52752 14.3888L4.62076 15.127Z" fill="white"/>
<path d="M6.19519 14.0618L5.18967 14.0381L5.17099 14.626L6.19519 14.0618Z" fill="white"/>
<path d="M6.19544 14.0615L5.35532 14.6145L5.02792 14.1258L6.19544 14.0615Z" fill="white"/>
<path d="M5.79191 15.1663L5.50379 14.2026L4.93887 14.3666L5.79191 15.1663Z" fill="white"/>
<path d="M5.79249 15.1667L5.00693 14.5385L5.37053 14.0762L5.79249 15.1667Z" fill="white"/>
<path d="M5.72095 11.5281L6.26351 12.375L6.76135 12.0617L5.72095 11.5281Z" fill="white"/>
<path d="M5.71967 11.5283L6.64791 11.9156L6.42583 12.4603L5.71967 11.5283Z" fill="white"/>
<path d="M6.86252 11.2437L6.22476 12.0214L6.67656 12.398L6.86252 11.2437Z" fill="white"/>
<path d="M6.86249 11.2439L6.78101 12.2464L6.19437 12.2035L6.86249 11.2439Z" fill="white"/>
<path d="M5.63788 12.7018L6.611 12.4475L6.46688 11.8772L5.63788 12.7018Z" fill="white"/>
<path d="M5.63712 12.7014L6.29224 11.9382L6.74164 12.3178L5.63712 12.7014Z" fill="white"/>
<path d="M7.48532 12.2414L6.5486 11.8752L6.32996 12.4213L7.48532 12.2414Z" fill="white"/>
<path d="M7.48657 12.2415L6.50797 12.4737L6.36749 11.9026L7.48657 12.2415Z" fill="white"/>
<path d="M6.73081 13.1414L6.78965 12.1373L6.20273 12.0981L6.73081 13.1414Z" fill="white"/>
<path d="M6.73172 13.1415L6.2084 12.2825L6.7082 11.9724L6.73172 13.1415Z" fill="white"/>
<path d="M7.90045 9.69849L8.12065 10.6799L8.69561 10.5558L7.90045 9.69849Z" fill="white"/>
<path d="M7.89957 9.69849L8.63937 10.3799L8.24441 10.8158L7.89957 9.69849Z" fill="white"/>
<path d="M9.06981 9.82104L8.20453 10.3337L8.50025 10.8422L9.06981 9.82104Z" fill="white"/>
<path d="M9.07081 9.82104L8.65141 10.7352L8.11481 10.4943L9.07081 9.82104Z" fill="white"/>
<path d="M7.422 10.7721L8.4234 10.866L8.48304 10.2808L7.422 10.7721Z" fill="white"/>
<path d="M7.42175 10.7716L8.29839 10.2786L8.59087 10.7889L7.42175 10.7716Z" fill="white"/>
<path d="M9.31547 10.9709L8.56047 10.3064L8.16827 10.7448L9.31547 10.9709Z" fill="white"/>
<path d="M9.31577 10.9712L8.31677 10.8548L8.38009 10.27L9.31577 10.9712Z" fill="white"/>
<path d="M8.29852 11.5594L8.69724 10.636L8.15912 10.3984L8.29852 11.5594Z" fill="white"/>
<path d="M8.29837 11.5594L8.10037 10.5734L8.67609 10.4529L8.29837 11.5594Z" fill="white"/>
<path d="M10.5767 8.72437L10.448 9.72185L11.0307 9.80189L10.5767 8.72437Z" fill="white"/>
<path d="M10.5765 8.72388L11.0386 9.6172L10.5184 9.89172L10.5765 8.72388Z" fill="white"/>
<path d="M11.6346 9.23999L10.6461 9.42579L10.7501 10.0048L11.6346 9.23999Z" fill="white"/>
<path d="M11.6342 9.23975L10.9274 9.95535L10.5055 9.54539L11.6342 9.23975Z" fill="white"/>
<path d="M9.76053 9.57003L10.6694 10.0007L10.9256 9.47119L9.76053 9.57003Z" fill="white"/>
<path d="M9.76135 9.57046L10.7538 9.40698L10.8541 9.98658L9.76135 9.57046Z" fill="white"/>
<path d="M11.4697 10.4049L10.9876 9.52222L10.4691 9.80002L11.4697 10.4049Z" fill="white"/>
<path d="M11.4709 10.4045L10.5719 9.95342L10.8315 9.42554L11.4709 10.4045Z" fill="white"/>
<path d="M10.3116 10.6091L11.0021 9.87774L10.5777 9.47046L10.3116 10.6091Z" fill="white"/>
<path d="M10.3103 10.6096L10.4615 9.61523L11.0437 9.69895L10.3103 10.6096Z" fill="white"/>
</g>
</g>
</g>
<defs>
<clipPath id="clip0_69_12846">
<rect width="24" height="24" rx="12" fill="white"/>
</clipPath>
<clipPath id="clip1_69_12846">
<rect width="32" height="24" fill="white" transform="translate(-4)"/>
</clipPath>
</defs>
</svg>
