<svg width="24" height="24" viewBox="0 0 24 24" fill="none" xmlns="http://www.w3.org/2000/svg">
<g clip-path="url(#clip0_69_12947)">
<g clip-path="url(#clip1_69_12947)">
<mask id="mask0_69_12947" style="mask-type:luminance" maskUnits="userSpaceOnUse" x="-4" y="0" width="32" height="24">
<path d="M28 0H-4V24H28V0Z" fill="white"/>
</mask>
<g mask="url(#mask0_69_12947)">
<path d="M-4 0H28V24H-4V0Z" fill="#000066"/>
<path d="M-4 0H12V12H-4V0Z" fill="#012169"/>
<path d="M-2.125 0L3.975 4.525L10.05 0H12V1.55L6 6.025L12 10.475V12H10L4 7.525L-1.975 12H-4V10.5L1.975 6.05L-4 1.6V0H-2.125Z" fill="white"/>
<path d="M6.6 7.025L12 11V12L5.225 7.025H6.6ZM2 7.525L2.15 8.4L-2.65 12H-4L2 7.525ZM12 0V0.075L5.775 4.775L5.825 3.675L10.75 0H12ZM-4 0L1.975 4.4H0.475L-4 1.05V0Z" fill="#C8102E"/>
<path d="M2.025 0V12H6.025V0H2.025ZM-4 4V8H12V4H-4Z" fill="white"/>
<path d="M-4 4.825V7.225H12V4.825H-4ZM2.825 0V12H5.225V0H2.825Z" fill="#C8102E"/>
<path d="M15.2057 5.10983L24.9083 5.07495L24.8889 13.7159C24.8889 13.7159 25.2299 15.0333 20.8203 17.0289C22.4051 16.8661 24.1333 15.1767 24.1333 15.1767C24.1333 15.1767 24.8347 14.2738 25.1795 14.7776C25.5205 15.2813 25.8421 15.537 26.094 15.7347C26.3459 15.9284 26.5435 16.4709 26.1676 16.8661C25.7879 17.2652 25.195 17.3156 25.0323 16.8312C24.7804 16.9591 23.2343 18.8307 20.0647 18.9198C16.8408 18.8656 15.0778 16.8119 15.0778 16.8119C15.0778 16.8119 14.6477 17.4977 14.0316 16.9591C13.4387 16.2539 13.8882 15.8044 13.8882 15.8044C13.8882 15.8044 14.3919 15.5177 14.5392 15.3201C14.7717 15.0488 14.8453 14.6885 15.2367 14.6885C15.7094 14.7272 15.8876 15.1031 15.8876 15.1031C15.8876 15.1031 17.5073 16.8119 19.2549 17.0289C15.3141 15.138 15.1669 13.9677 15.1863 13.681L15.2057 5.11371V5.10983Z" fill="white"/>
<path d="M15.438 5.34648L24.6911 5.29224V13.6076C24.7105 14.6926 22.8893 15.7892 20.0452 17.1919C17.1119 15.6807 15.4186 14.7624 15.4031 13.5883L15.438 5.34648Z" fill="#006129" stroke="black" stroke-width="0.184055"/>
<path d="M16.6969 6.57552L17.2394 5.77344L17.7935 6.5794" stroke="#FFC72C" stroke-width="0.184055"/>
<path d="M17.3545 6.27254C17.3545 6.3013 17.3431 6.3289 17.3228 6.34926C17.3024 6.36962 17.2748 6.38102 17.2461 6.38102C17.2173 6.38102 17.1897 6.36962 17.1693 6.34926C17.149 6.3289 17.1376 6.3013 17.1376 6.27254C17.1376 6.24378 17.149 6.21618 17.1693 6.19582C17.1897 6.17546 17.2173 6.16406 17.2461 6.16406C17.2748 6.16406 17.3024 6.17546 17.3228 6.19582C17.3431 6.21618 17.3545 6.24378 17.3545 6.27254Z" fill="#FFC72C" stroke="black" stroke-width="0.0871841"/>
<path d="M16.7991 7.167H17.6477C17.6477 7.167 17.6593 7.05852 17.5586 6.99264C18.0042 6.93064 17.8879 6.54316 18.2561 6.51992C18.3335 6.53152 18.0623 6.68652 18.0623 6.68652C18.0623 6.68652 17.8414 6.84152 17.9461 6.92288C18.0235 6.98876 18.0623 6.88416 18.0701 6.80664C18.0817 6.72916 18.4304 6.6788 18.38 6.45792C18.2987 6.2758 17.8104 6.58192 17.8104 6.58192L17.4617 6.57804C17.4385 6.53928 17.3455 6.38428 17.2447 6.38428C17.1285 6.38428 17.0432 6.57804 17.0432 6.57804H16.2566C16.2566 6.57804 16.2295 6.7834 16.6286 6.82216C16.7177 6.9384 16.7875 6.9694 16.8689 7.0004C16.8146 7.043 16.7991 7.09728 16.7991 7.167Z" fill="#FFC72C"/>
<path d="M16.8611 6.99652H17.5663M16.7991 7.167H17.6477C17.6477 7.167 17.6593 7.05852 17.5586 6.99264C18.0042 6.93064 17.8879 6.54316 18.2561 6.51992C18.3335 6.53152 18.0623 6.68652 18.0623 6.68652C18.0623 6.68652 17.8414 6.84152 17.9461 6.92288C18.0235 6.98876 18.0623 6.88416 18.0701 6.80664C18.0817 6.72916 18.4304 6.6788 18.38 6.45792C18.2987 6.2758 17.8104 6.58192 17.8104 6.58192L17.4617 6.57804C17.4385 6.53928 17.3455 6.38428 17.2447 6.38428C17.1285 6.38428 17.0432 6.57804 17.0432 6.57804H16.2566C16.2566 6.57804 16.2295 6.7834 16.6286 6.82216C16.7177 6.9384 16.7875 6.9694 16.8689 7.0004C16.8146 7.043 16.7991 7.09728 16.7991 7.167Z" stroke="black" stroke-width="0.0871841"/>
<path d="M16.5406 6.58276C16.5406 6.58276 16.5949 6.91212 16.8584 6.98964L16.5406 6.58276Z" fill="#FFC72C"/>
<path d="M16.5406 6.58276C16.5406 6.58276 16.5949 6.91212 16.8584 6.98964" stroke="black" stroke-width="0.0871841"/>
<path d="M16.4974 6.57521C16.5206 6.45125 16.571 6.42797 16.6214 6.26525C16.6292 6.11025 16.4974 6.12962 16.5362 6.03274C16.6059 5.92038 16.571 5.81577 16.4393 5.73438C16.4664 5.87777 16.2688 6.01338 16.2688 6.12962C16.2688 6.24585 16.3695 6.22261 16.3579 6.40085C16.3657 6.50161 16.3308 6.47837 16.3192 6.57521H16.4974Z" fill="url(#paint0_linear_69_12947)" stroke="black" stroke-width="0.0871841"/>
<path d="M17.3453 5.79603C17.3453 5.82275 17.3347 5.84839 17.3158 5.86727C17.2969 5.88619 17.2712 5.89679 17.2445 5.89679C17.2178 5.89679 17.1922 5.88619 17.1733 5.86727C17.1544 5.84839 17.1438 5.82275 17.1438 5.79603C17.1438 5.76931 17.1544 5.74371 17.1733 5.72483C17.1922 5.70591 17.2178 5.69531 17.2445 5.69531C17.2712 5.69531 17.2969 5.70591 17.3158 5.72483C17.3347 5.74371 17.3453 5.76931 17.3453 5.79603Z" fill="#FFC72C" stroke="black" stroke-width="0.0871841"/>
<path d="M16.6656 8.17562L17.2081 7.37354L17.7622 8.1795" stroke="#FFC72C" stroke-width="0.184055"/>
<path d="M17.3232 7.87264C17.3232 7.9014 17.3118 7.929 17.2914 7.94936C17.2711 7.96972 17.2435 7.98112 17.2147 7.98112C17.1859 7.98112 17.1583 7.96972 17.138 7.94936C17.1176 7.929 17.1062 7.9014 17.1062 7.87264C17.1062 7.84388 17.1176 7.81628 17.138 7.79592C17.1583 7.77556 17.1859 7.76416 17.2147 7.76416C17.2435 7.76416 17.2711 7.77556 17.2914 7.79592C17.3118 7.81628 17.3232 7.84388 17.3232 7.87264Z" fill="#FFC72C" stroke="black" stroke-width="0.0871841"/>
<path d="M16.7678 8.7671H17.6164C17.6164 8.7671 17.628 8.65862 17.5273 8.59274C17.9729 8.53074 17.8566 8.14325 18.2248 8.12001C18.3023 8.13161 18.031 8.28661 18.031 8.28661C18.031 8.28661 17.8102 8.44162 17.9148 8.52298C17.9923 8.58886 18.031 8.48426 18.0388 8.40674C18.0504 8.32926 18.3991 8.2789 18.3488 8.05802C18.2674 7.8759 17.7792 8.18202 17.7792 8.18202L17.4304 8.17813C17.4072 8.13937 17.3142 7.98438 17.2134 7.98438C17.0972 7.98438 17.012 8.17813 17.012 8.17813H16.2254C16.2254 8.17813 16.1982 8.38349 16.5973 8.42225C16.6864 8.53849 16.7562 8.5695 16.8376 8.6005C16.7833 8.6431 16.7678 8.69738 16.7678 8.7671Z" fill="#FFC72C"/>
<path d="M16.8298 8.59662H17.535M16.7678 8.7671H17.6164C17.6164 8.7671 17.628 8.65862 17.5273 8.59274C17.9729 8.53074 17.8566 8.14325 18.2248 8.12001C18.3023 8.13161 18.031 8.28661 18.031 8.28661C18.031 8.28661 17.8102 8.44162 17.9148 8.52298C17.9923 8.58886 18.031 8.48426 18.0388 8.40674C18.0504 8.32926 18.3991 8.2789 18.3488 8.05802C18.2674 7.8759 17.7792 8.18202 17.7792 8.18202L17.4304 8.17813C17.4072 8.13937 17.3142 7.98438 17.2134 7.98438C17.0972 7.98438 17.012 8.17813 17.012 8.17813H16.2254C16.2254 8.17813 16.1982 8.38349 16.5973 8.42225C16.6864 8.53849 16.7562 8.5695 16.8376 8.6005C16.7833 8.6431 16.7678 8.69738 16.7678 8.7671Z" stroke="black" stroke-width="0.0871841"/>
<path d="M16.5094 8.18286C16.5094 8.18286 16.5637 8.51222 16.8272 8.58974L16.5094 8.18286Z" fill="#FFC72C"/>
<path d="M16.5094 8.18286C16.5094 8.18286 16.5637 8.51222 16.8272 8.58974" stroke="black" stroke-width="0.0871841"/>
<path d="M16.4661 8.17531C16.4894 8.05135 16.5397 8.02807 16.5901 7.86535C16.5979 7.71035 16.4661 7.72971 16.5049 7.63283C16.5746 7.52047 16.5397 7.41587 16.408 7.33447C16.4351 7.47787 16.2375 7.61347 16.2375 7.72971C16.2375 7.84595 16.3383 7.82271 16.3267 8.00095C16.3344 8.10171 16.2995 8.07847 16.2879 8.17531H16.4661Z" fill="url(#paint1_linear_69_12947)" stroke="black" stroke-width="0.0871841"/>
<path d="M17.3139 7.39613C17.3139 7.42285 17.3033 7.44849 17.2844 7.46737C17.2655 7.48629 17.2399 7.49689 17.2132 7.49689C17.1865 7.49689 17.1609 7.48629 17.1419 7.46737C17.1231 7.44849 17.1124 7.42285 17.1124 7.39613C17.1124 7.36941 17.1231 7.34381 17.1419 7.32493C17.1609 7.30601 17.1865 7.29541 17.2132 7.29541C17.2399 7.29541 17.2655 7.30601 17.2844 7.32493C17.3033 7.34381 17.3139 7.36941 17.3139 7.39613Z" fill="#FFC72C" stroke="black" stroke-width="0.0871841"/>
<path d="M16.6531 9.75203L17.1956 8.94995L17.7497 9.75591" stroke="#FFC72C" stroke-width="0.184055"/>
<path d="M17.3107 9.44906C17.3107 9.47782 17.2993 9.50542 17.2789 9.52578C17.2586 9.54614 17.231 9.55754 17.2022 9.55754C17.1735 9.55754 17.1459 9.54614 17.1255 9.52578C17.1052 9.50542 17.0938 9.47782 17.0938 9.44906C17.0938 9.4203 17.1052 9.3927 17.1255 9.37234C17.1459 9.35198 17.1735 9.34058 17.2022 9.34058C17.231 9.34058 17.2586 9.35198 17.2789 9.37234C17.2993 9.3927 17.3107 9.4203 17.3107 9.44906Z" fill="#FFC72C" stroke="black" stroke-width="0.0871841"/>
<path d="M16.7554 10.3438H17.604C17.604 10.3438 17.6156 10.2353 17.5149 10.1694C17.9605 10.1074 17.8442 9.71992 18.2124 9.69668C18.2898 9.70832 18.0186 9.86328 18.0186 9.86328C18.0186 9.86328 17.7978 10.0183 17.9024 10.0997C17.9798 10.1655 18.0186 10.0609 18.0264 9.9834C18.038 9.90592 18.3867 9.85555 18.3364 9.63467C18.255 9.45255 17.7668 9.75868 17.7668 9.75868L17.418 9.7548C17.3948 9.71604 17.3018 9.56104 17.201 9.56104C17.0848 9.56104 16.9995 9.7548 16.9995 9.7548H16.2129C16.2129 9.7548 16.1858 9.96016 16.5849 9.99892C16.674 10.1152 16.7438 10.1462 16.8252 10.1772C16.7709 10.2198 16.7554 10.274 16.7554 10.3438Z" fill="#FFC72C"/>
<path d="M16.8174 10.1733H17.5226M16.7554 10.3438H17.604C17.604 10.3438 17.6156 10.2353 17.5149 10.1694C17.9605 10.1074 17.8442 9.71992 18.2124 9.69668C18.2898 9.70832 18.0186 9.86328 18.0186 9.86328C18.0186 9.86328 17.7978 10.0183 17.9024 10.0997C17.9798 10.1655 18.0186 10.0609 18.0264 9.9834C18.038 9.90592 18.3867 9.85555 18.3364 9.63467C18.255 9.45255 17.7668 9.75868 17.7668 9.75868L17.418 9.7548C17.3948 9.71604 17.3018 9.56104 17.201 9.56104C17.0848 9.56104 16.9995 9.7548 16.9995 9.7548H16.2129C16.2129 9.7548 16.1858 9.96016 16.5849 9.99892C16.674 10.1152 16.7438 10.1462 16.8252 10.1772C16.7709 10.2198 16.7554 10.274 16.7554 10.3438Z" stroke="black" stroke-width="0.0871841"/>
<path d="M16.4968 9.75928C16.4968 9.75928 16.5511 10.0886 16.8145 10.1662L16.4968 9.75928Z" fill="#FFC72C"/>
<path d="M16.4968 9.75928C16.4968 9.75928 16.5511 10.0886 16.8145 10.1662" stroke="black" stroke-width="0.0871841"/>
<path d="M16.4536 9.75173C16.4769 9.62777 16.5272 9.60449 16.5776 9.44177C16.5853 9.28677 16.4536 9.30613 16.4923 9.20929C16.5621 9.09689 16.5272 8.99229 16.3955 8.91089C16.4226 9.05429 16.225 9.18989 16.225 9.30613C16.225 9.42237 16.3257 9.39913 16.3141 9.57737C16.3219 9.67813 16.287 9.65489 16.2753 9.75173H16.4536Z" fill="url(#paint2_linear_69_12947)" stroke="black" stroke-width="0.0871841"/>
<path d="M17.3015 8.97259C17.3015 8.99931 17.2909 9.02491 17.272 9.04379C17.2531 9.06271 17.2275 9.07331 17.2007 9.07331C17.174 9.07331 17.1484 9.06271 17.1295 9.04379C17.1106 9.02491 17.1 8.99931 17.1 8.97259C17.1 8.94587 17.1106 8.92023 17.1295 8.90135C17.1484 8.88243 17.174 8.87183 17.2007 8.87183C17.2275 8.87183 17.2531 8.88243 17.272 8.90135C17.2909 8.92023 17.3015 8.94587 17.3015 8.97259Z" fill="#FFC72C" stroke="black" stroke-width="0.0871841"/>
<path d="M17.6875 11.4615L18.2299 10.6594L18.7841 11.4654" stroke="#FFC72C" stroke-width="0.184055"/>
<path d="M18.3452 11.1585C18.3452 11.1873 18.3337 11.2149 18.3134 11.2352C18.2931 11.2556 18.2655 11.267 18.2367 11.267C18.2079 11.267 18.1803 11.2556 18.16 11.2352C18.1396 11.2149 18.1282 11.1873 18.1282 11.1585C18.1282 11.1298 18.1396 11.1022 18.16 11.0818C18.1803 11.0615 18.2079 11.05 18.2367 11.05C18.2655 11.05 18.2931 11.0615 18.3134 11.0818C18.3337 11.1022 18.3452 11.1298 18.3452 11.1585Z" fill="#FFC72C" stroke="black" stroke-width="0.0871841"/>
<path d="M17.7898 12.053H18.6384C18.6384 12.053 18.65 11.9445 18.5493 11.8786C18.9949 11.8166 18.8786 11.4291 19.2467 11.4059C19.3243 11.4175 19.053 11.5725 19.053 11.5725C19.053 11.5725 18.8321 11.7275 18.9367 11.8089C19.0143 11.8747 19.053 11.7701 19.0607 11.6926C19.0724 11.6151 19.4211 11.5647 19.3707 11.3439C19.2894 11.1617 18.8011 11.4679 18.8011 11.4679L18.4524 11.464C18.4291 11.4253 18.3361 11.2703 18.2354 11.2703C18.1192 11.2703 18.0339 11.464 18.0339 11.464H17.2473C17.2473 11.464 17.2202 11.6694 17.6193 11.7081C17.7084 11.8243 17.7782 11.8553 17.8595 11.8863C17.8053 11.929 17.7898 11.9832 17.7898 12.053Z" fill="#FFC72C"/>
<path d="M17.8518 11.8825H18.557M17.7898 12.053H18.6384C18.6384 12.053 18.65 11.9445 18.5493 11.8786C18.9949 11.8166 18.8786 11.4291 19.2467 11.4059C19.3243 11.4175 19.053 11.5725 19.053 11.5725C19.053 11.5725 18.8321 11.7275 18.9367 11.8089C19.0143 11.8747 19.053 11.7701 19.0607 11.6926C19.0724 11.6151 19.4211 11.5647 19.3707 11.3439C19.2894 11.1617 18.8011 11.4679 18.8011 11.4679L18.4524 11.464C18.4291 11.4253 18.3361 11.2703 18.2354 11.2703C18.1192 11.2703 18.0339 11.464 18.0339 11.464H17.2473C17.2473 11.464 17.2202 11.6694 17.6193 11.7081C17.7084 11.8243 17.7782 11.8553 17.8595 11.8863C17.8053 11.929 17.7898 11.9832 17.7898 12.053Z" stroke="black" stroke-width="0.0871841"/>
<path d="M17.5312 11.4688C17.5312 11.4688 17.5855 11.7981 17.849 11.8756L17.5312 11.4688Z" fill="#FFC72C"/>
<path d="M17.5312 11.4688C17.5312 11.4688 17.5855 11.7981 17.849 11.8756" stroke="black" stroke-width="0.0871841"/>
<path d="M17.488 11.4612C17.5113 11.3372 17.5616 11.314 17.612 11.1512C17.6198 10.9962 17.488 11.0156 17.5268 10.9187C17.5965 10.8064 17.5616 10.7017 17.4299 10.6204C17.457 10.7637 17.2594 10.8994 17.2594 11.0156C17.2594 11.1318 17.3602 11.1086 17.3485 11.2868C17.3563 11.3876 17.3214 11.3643 17.3098 11.4612H17.488Z" fill="url(#paint3_linear_69_12947)" stroke="black" stroke-width="0.0871841"/>
<path d="M18.3359 10.6821C18.3359 10.7088 18.3253 10.7344 18.3064 10.7533C18.2875 10.7722 18.2619 10.7828 18.2352 10.7828C18.2084 10.7828 18.1828 10.7722 18.1639 10.7533C18.145 10.7344 18.1344 10.7088 18.1344 10.6821C18.1344 10.6553 18.145 10.6297 18.1639 10.6108C18.1828 10.5919 18.2084 10.5813 18.2352 10.5813C18.2619 10.5813 18.2875 10.5919 18.3064 10.6108C18.3253 10.6297 18.3359 10.6553 18.3359 10.6821Z" fill="#FFC72C" stroke="black" stroke-width="0.0871841"/>
<path d="M16.5188 12.86L17.0613 12.0579L17.6154 12.8639" stroke="#FFC72C" stroke-width="0.184055"/>
<path d="M17.1764 12.557C17.1764 12.5858 17.1649 12.6134 17.1446 12.6337C17.1242 12.654 17.0966 12.6655 17.0679 12.6655C17.0391 12.6655 17.0115 12.654 16.9912 12.6337C16.9708 12.6134 16.9594 12.5858 16.9594 12.557C16.9594 12.5282 16.9708 12.5006 16.9912 12.4802C17.0115 12.4599 17.0391 12.4485 17.0679 12.4485C17.0966 12.4485 17.1242 12.4599 17.1446 12.4802C17.1649 12.5006 17.1764 12.5282 17.1764 12.557Z" fill="#FFC72C" stroke="black" stroke-width="0.0871841"/>
<path d="M16.621 13.4514H17.4696C17.4696 13.4514 17.4812 13.3429 17.3805 13.2771C17.8261 13.2151 17.7098 12.8275 18.0779 12.8043C18.1554 12.8159 17.8842 12.9709 17.8842 12.9709C17.8842 12.9709 17.6633 13.1259 17.768 13.2073C17.8454 13.2732 17.8842 13.1685 17.892 13.0911C17.9036 13.0135 18.2523 12.9632 18.2019 12.7423C18.1206 12.5602 17.6323 12.8663 17.6323 12.8663L17.2836 12.8624C17.2604 12.8237 17.1674 12.6687 17.0666 12.6687C16.9504 12.6687 16.8651 12.8624 16.8651 12.8624H16.0785C16.0785 12.8624 16.0514 13.0678 16.4505 13.1065C16.5396 13.2228 16.6094 13.2538 16.6907 13.2848C16.6365 13.3274 16.621 13.3817 16.621 13.4514Z" fill="#FFC72C"/>
<path d="M16.683 13.2809H17.3882M16.621 13.4514H17.4696C17.4696 13.4514 17.4812 13.3429 17.3805 13.2771C17.8261 13.2151 17.7098 12.8275 18.0779 12.8043C18.1554 12.8159 17.8842 12.9709 17.8842 12.9709C17.8842 12.9709 17.6633 13.1259 17.768 13.2073C17.8454 13.2732 17.8842 13.1685 17.892 13.0911C17.9036 13.0135 18.2523 12.9632 18.2019 12.7423C18.1206 12.5602 17.6323 12.8663 17.6323 12.8663L17.2836 12.8624C17.2604 12.8237 17.1674 12.6687 17.0666 12.6687C16.9504 12.6687 16.8651 12.8624 16.8651 12.8624H16.0785C16.0785 12.8624 16.0514 13.0678 16.4505 13.1065C16.5396 13.2228 16.6094 13.2538 16.6907 13.2848C16.6365 13.3274 16.621 13.3817 16.621 13.4514Z" stroke="black" stroke-width="0.0871841"/>
<path d="M16.3624 12.8672C16.3624 12.8672 16.4167 13.1965 16.6802 13.274L16.3624 12.8672Z" fill="#FFC72C"/>
<path d="M16.3624 12.8672C16.3624 12.8672 16.4167 13.1965 16.6802 13.274" stroke="black" stroke-width="0.0871841"/>
<path d="M16.3193 12.8596C16.3425 12.7356 16.3929 12.7124 16.4433 12.5496C16.4511 12.3946 16.3193 12.414 16.3581 12.3172C16.4278 12.2048 16.3929 12.1002 16.2612 12.0188C16.2883 12.1622 16.0907 12.2978 16.0907 12.414C16.0907 12.5303 16.1914 12.507 16.1798 12.6853C16.1875 12.786 16.1527 12.7628 16.1411 12.8596H16.3193Z" fill="url(#paint4_linear_69_12947)" stroke="black" stroke-width="0.0871841"/>
<path d="M17.1672 12.0805C17.1672 12.1072 17.1566 12.1328 17.1377 12.1517C17.1188 12.1706 17.0931 12.1812 17.0664 12.1812C17.0397 12.1812 17.0141 12.1706 16.9952 12.1517C16.9763 12.1328 16.9657 12.1072 16.9657 12.0805C16.9657 12.0538 16.9763 12.0281 16.9952 12.0093C17.0141 11.9904 17.0397 11.9797 17.0664 11.9797C17.0931 11.9797 17.1188 11.9904 17.1377 12.0093C17.1566 12.0281 17.1672 12.0538 17.1672 12.0805Z" fill="#FFC72C" stroke="black" stroke-width="0.0871841"/>
<path d="M16.55 14.5116L17.0925 13.7095L17.6466 14.5155" stroke="#FFC72C" stroke-width="0.184055"/>
<path d="M17.2076 14.2086C17.2076 14.2374 17.1962 14.265 17.1758 14.2853C17.1554 14.3057 17.1278 14.3171 17.0991 14.3171C17.0703 14.3171 17.0427 14.3057 17.0224 14.2853C17.002 14.265 16.9906 14.2374 16.9906 14.2086C16.9906 14.1798 17.002 14.1522 17.0224 14.1319C17.0427 14.1115 17.0703 14.1001 17.0991 14.1001C17.1278 14.1001 17.1554 14.1115 17.1758 14.1319C17.1962 14.1522 17.2076 14.1798 17.2076 14.2086Z" fill="#FFC72C" stroke="black" stroke-width="0.0871841"/>
<path d="M16.6522 15.103H17.5008C17.5008 15.103 17.5124 14.9945 17.4117 14.9287C17.8573 14.8667 17.7411 14.4792 18.1092 14.4559C18.1867 14.4676 17.9154 14.6226 17.9154 14.6226C17.9154 14.6226 17.6946 14.7776 17.7992 14.8589C17.8767 14.9248 17.9154 14.8202 17.9232 14.7427C17.9348 14.6652 18.2836 14.6148 18.2332 14.3939C18.1518 14.2118 17.6636 14.5179 17.6636 14.5179L17.3148 14.514C17.2916 14.4753 17.1986 14.3203 17.0978 14.3203C16.9816 14.3203 16.8964 14.514 16.8964 14.514H16.1098C16.1098 14.514 16.0826 14.7194 16.4818 14.7582C16.5709 14.8744 16.6406 14.9054 16.722 14.9364C16.6678 14.979 16.6522 15.0333 16.6522 15.103Z" fill="#FFC72C"/>
<path d="M16.7142 14.9325H17.4195M16.6522 15.103H17.5008C17.5008 15.103 17.5124 14.9945 17.4117 14.9287C17.8573 14.8667 17.7411 14.4792 18.1092 14.4559C18.1867 14.4676 17.9154 14.6226 17.9154 14.6226C17.9154 14.6226 17.6946 14.7776 17.7992 14.8589C17.8767 14.9248 17.9154 14.8202 17.9232 14.7427C17.9348 14.6652 18.2836 14.6148 18.2332 14.3939C18.1518 14.2118 17.6636 14.5179 17.6636 14.5179L17.3148 14.514C17.2916 14.4753 17.1986 14.3203 17.0978 14.3203C16.9816 14.3203 16.8964 14.514 16.8964 14.514H16.1098C16.1098 14.514 16.0826 14.7194 16.4818 14.7582C16.5709 14.8744 16.6406 14.9054 16.722 14.9364C16.6678 14.979 16.6522 15.0333 16.6522 15.103Z" stroke="black" stroke-width="0.0871841"/>
<path d="M16.3938 14.5188C16.3938 14.5188 16.448 14.8482 16.7115 14.9256L16.3938 14.5188Z" fill="#FFC72C"/>
<path d="M16.3938 14.5188C16.3938 14.5188 16.448 14.8482 16.7115 14.9256" stroke="black" stroke-width="0.0871841"/>
<path d="M16.3504 14.5113C16.3737 14.3873 16.4241 14.364 16.4744 14.2012C16.4822 14.0462 16.3504 14.0656 16.3892 13.9688C16.4589 13.8564 16.4241 13.7518 16.2923 13.6704C16.3194 13.8138 16.1218 13.9494 16.1218 14.0656C16.1218 14.1819 16.2226 14.1586 16.2109 14.3369C16.2187 14.4376 16.1838 14.4144 16.1722 14.5113H16.3504Z" fill="url(#paint5_linear_69_12947)" stroke="black" stroke-width="0.0871841"/>
<path d="M17.1983 13.7321C17.1983 13.7588 17.1877 13.7845 17.1688 13.8033C17.1499 13.8222 17.1243 13.8329 17.0976 13.8329C17.0709 13.8329 17.0452 13.8222 17.0263 13.8033C17.0074 13.7845 16.9968 13.7588 16.9968 13.7321C16.9968 13.7054 17.0074 13.6797 17.0263 13.6609C17.0452 13.642 17.0709 13.6313 17.0976 13.6313C17.1243 13.6313 17.1499 13.642 17.1688 13.6609C17.1877 13.6797 17.1983 13.7054 17.1983 13.7321Z" fill="#FFC72C" stroke="black" stroke-width="0.0871841"/>
<path d="M22.3656 6.60213L22.9081 5.80005L23.4622 6.60601" stroke="#FFC72C" stroke-width="0.184055"/>
<path d="M23.0233 6.29915C23.0233 6.32791 23.0118 6.35551 22.9915 6.37587C22.9712 6.39623 22.9436 6.40763 22.9148 6.40763C22.886 6.40763 22.8584 6.39623 22.8381 6.37587C22.8177 6.35551 22.8063 6.32791 22.8063 6.29915C22.8063 6.27039 22.8177 6.24279 22.8381 6.22243C22.8584 6.20207 22.886 6.19067 22.9148 6.19067C22.9436 6.19067 22.9712 6.20207 22.9915 6.22243C23.0118 6.24279 23.0233 6.27039 23.0233 6.29915Z" fill="#FFC72C" stroke="black" stroke-width="0.0871841"/>
<path d="M22.4679 7.19361H23.3165C23.3165 7.19361 23.3281 7.08513 23.2274 7.01925C23.673 6.95725 23.5567 6.56977 23.9248 6.54653C24.0024 6.55817 23.7311 6.71313 23.7311 6.71313C23.7311 6.71313 23.5102 6.86813 23.6149 6.94953C23.6924 7.01537 23.7311 6.91077 23.7388 6.83325C23.7505 6.75577 24.0992 6.70541 24.0488 6.48453C23.9675 6.30241 23.4792 6.60853 23.4792 6.60853L23.1305 6.60465C23.1072 6.56589 23.0143 6.41089 22.9135 6.41089C22.7973 6.41089 22.712 6.60465 22.712 6.60465H21.9254C21.9254 6.60465 21.8983 6.81001 22.2974 6.84877C22.3865 6.96501 22.4563 6.99601 22.5376 7.02701C22.4834 7.06965 22.4679 7.12389 22.4679 7.19361Z" fill="#FFC72C"/>
<path d="M22.5299 7.02313H23.2351M22.4679 7.19361H23.3165C23.3165 7.19361 23.3281 7.08513 23.2274 7.01925C23.673 6.95725 23.5567 6.56977 23.9248 6.54653C24.0024 6.55817 23.7311 6.71313 23.7311 6.71313C23.7311 6.71313 23.5102 6.86813 23.6149 6.94953C23.6924 7.01537 23.7311 6.91077 23.7388 6.83325C23.7505 6.75577 24.0992 6.70541 24.0488 6.48453C23.9675 6.30241 23.4792 6.60853 23.4792 6.60853L23.1305 6.60465C23.1072 6.56589 23.0143 6.41089 22.9135 6.41089C22.7973 6.41089 22.712 6.60465 22.712 6.60465H21.9254C21.9254 6.60465 21.8983 6.81001 22.2974 6.84877C22.3865 6.96501 22.4563 6.99601 22.5376 7.02701C22.4834 7.06965 22.4679 7.12389 22.4679 7.19361Z" stroke="black" stroke-width="0.0871841"/>
<path d="M22.2094 6.60938C22.2094 6.60938 22.2636 6.93874 22.5271 7.01626L22.2094 6.60938Z" fill="#FFC72C"/>
<path d="M22.2094 6.60938C22.2094 6.60938 22.2636 6.93874 22.5271 7.01626" stroke="black" stroke-width="0.0871841"/>
<path d="M22.1661 6.60183C22.1893 6.47787 22.2397 6.45459 22.2901 6.29187C22.2979 6.13687 22.1661 6.15623 22.2049 6.05939C22.2746 5.94699 22.2397 5.84239 22.108 5.76099C22.1351 5.90439 21.9375 6.03999 21.9375 6.15623C21.9375 6.27247 22.0382 6.24923 22.0266 6.42747C22.0343 6.52823 21.9995 6.50499 21.9879 6.60183H22.1661Z" fill="url(#paint6_linear_69_12947)" stroke="black" stroke-width="0.0871841"/>
<path d="M23.014 5.82268C23.014 5.8494 23.0034 5.875 22.9845 5.89388C22.9656 5.9128 22.94 5.9234 22.9133 5.9234C22.8865 5.9234 22.8609 5.9128 22.842 5.89388C22.8231 5.875 22.8125 5.8494 22.8125 5.82268C22.8125 5.79596 22.8231 5.77032 22.842 5.75144C22.8609 5.73252 22.8865 5.72192 22.9133 5.72192C22.94 5.72192 22.9656 5.73252 22.9845 5.75144C23.0034 5.77032 23.014 5.79596 23.014 5.82268Z" fill="#FFC72C" stroke="black" stroke-width="0.0871841"/>
<path d="M22.3093 8.17244L22.8518 7.37036L23.4059 8.17632" stroke="#FFC72C" stroke-width="0.184055"/>
<path d="M22.967 7.86951C22.967 7.89827 22.9556 7.92587 22.9352 7.94623C22.9149 7.96655 22.8873 7.97799 22.8585 7.97799C22.8297 7.97799 22.8021 7.96655 22.7818 7.94623C22.7614 7.92587 22.75 7.89827 22.75 7.86951C22.75 7.84071 22.7614 7.81315 22.7818 7.79279C22.8021 7.77243 22.8297 7.76099 22.8585 7.76099C22.8873 7.76099 22.9149 7.77243 22.9352 7.79279C22.9556 7.81315 22.967 7.84071 22.967 7.86951Z" fill="#FFC72C" stroke="black" stroke-width="0.0871841"/>
<path d="M22.4116 8.76392H23.2602C23.2602 8.76392 23.2719 8.65544 23.1711 8.58956C23.6167 8.52756 23.5005 8.14008 23.8686 8.11684C23.9461 8.12844 23.6748 8.28344 23.6748 8.28344C23.6748 8.28344 23.454 8.43844 23.5586 8.5198C23.6361 8.58568 23.6748 8.48108 23.6826 8.40356C23.6942 8.32608 24.043 8.27568 23.9926 8.05484C23.9112 7.87272 23.423 8.17884 23.423 8.17884L23.0742 8.17496C23.051 8.1362 22.958 7.9812 22.8573 7.9812C22.741 7.9812 22.6558 8.17496 22.6558 8.17496H21.8692C21.8692 8.17496 21.842 8.38032 22.2412 8.41908C22.3303 8.53532 22.4 8.56632 22.4814 8.59732C22.4272 8.63992 22.4116 8.6942 22.4116 8.76392Z" fill="#FFC72C"/>
<path d="M22.4736 8.59344H23.1789M22.4116 8.76392H23.2602C23.2602 8.76392 23.2719 8.65544 23.1711 8.58956C23.6167 8.52756 23.5005 8.14008 23.8686 8.11684C23.9461 8.12844 23.6748 8.28344 23.6748 8.28344C23.6748 8.28344 23.454 8.43844 23.5586 8.5198C23.6361 8.58568 23.6748 8.48108 23.6826 8.40356C23.6942 8.32608 24.043 8.27568 23.9926 8.05484C23.9112 7.87272 23.423 8.17884 23.423 8.17884L23.0742 8.17496C23.051 8.1362 22.958 7.9812 22.8573 7.9812C22.741 7.9812 22.6558 8.17496 22.6558 8.17496H21.8692C21.8692 8.17496 21.842 8.38032 22.2412 8.41908C22.3303 8.53532 22.4 8.56632 22.4814 8.59732C22.4272 8.63992 22.4116 8.6942 22.4116 8.76392Z" stroke="black" stroke-width="0.0871841"/>
<path d="M22.1531 8.17969C22.1531 8.17969 22.2073 8.50905 22.4708 8.58657L22.1531 8.17969Z" fill="#FFC72C"/>
<path d="M22.1531 8.17969C22.1531 8.17969 22.2073 8.50905 22.4708 8.58657" stroke="black" stroke-width="0.0871841"/>
<path d="M22.1099 8.17214C22.1331 8.04814 22.1835 8.0249 22.2339 7.86218C22.2416 7.70718 22.1099 7.72654 22.1486 7.62966C22.2183 7.5173 22.1835 7.4127 22.0517 7.3313C22.0789 7.47466 21.8812 7.6103 21.8812 7.72654C21.8812 7.84278 21.982 7.81954 21.9703 7.99778C21.9781 8.09854 21.9432 8.0753 21.9316 8.17214H22.1099Z" fill="url(#paint7_linear_69_12947)" stroke="black" stroke-width="0.0871841"/>
<path d="M22.9577 7.39296C22.9577 7.41968 22.9471 7.44532 22.9282 7.4642C22.9093 7.48312 22.8837 7.49372 22.857 7.49372C22.8303 7.49372 22.8046 7.48312 22.7857 7.4642C22.7669 7.44532 22.7562 7.41968 22.7562 7.39296C22.7562 7.36624 22.7669 7.34064 22.7857 7.32172C22.8046 7.30284 22.8303 7.29224 22.857 7.29224C22.8837 7.29224 22.9093 7.30284 22.9282 7.32172C22.9471 7.34064 22.9577 7.36624 22.9577 7.39296Z" fill="#FFC72C" stroke="black" stroke-width="0.0871841"/>
<path d="M22.2406 9.78011L22.7831 8.97803L23.3372 9.78399" stroke="#FFC72C" stroke-width="0.184055"/>
<path d="M22.8983 9.47713C22.8983 9.50593 22.8868 9.53349 22.8665 9.55385C22.8462 9.57421 22.8186 9.58565 22.7898 9.58565C22.761 9.58565 22.7334 9.57421 22.7131 9.55385C22.6927 9.53349 22.6813 9.50593 22.6813 9.47713C22.6813 9.44837 22.6927 9.42077 22.7131 9.40041C22.7334 9.38009 22.761 9.36865 22.7898 9.36865C22.8186 9.36865 22.8462 9.38009 22.8665 9.40041C22.8868 9.42077 22.8983 9.44837 22.8983 9.47713Z" fill="#FFC72C" stroke="black" stroke-width="0.0871841"/>
<path d="M22.3429 10.3718H23.1915C23.1915 10.3718 23.2031 10.2633 23.1024 10.1974C23.548 10.1354 23.4317 9.74795 23.7998 9.72471C23.8774 9.73635 23.6061 9.89135 23.6061 9.89135C23.6061 9.89135 23.3852 10.0463 23.4899 10.1277C23.5674 10.1936 23.6061 10.089 23.6138 10.0115C23.6255 9.93395 23.9742 9.88359 23.9238 9.66271C23.8425 9.48059 23.3542 9.78671 23.3542 9.78671L23.0055 9.78283C22.9822 9.74407 22.8893 9.58911 22.7885 9.58911C22.6723 9.58911 22.587 9.78283 22.587 9.78283H21.8004C21.8004 9.78283 21.7733 9.98819 22.1724 10.027C22.2615 10.1432 22.3313 10.1742 22.4126 10.2052C22.3584 10.2478 22.3429 10.3021 22.3429 10.3718Z" fill="#FFC72C"/>
<path d="M22.4049 10.2013H23.1101M22.3429 10.3718H23.1915C23.1915 10.3718 23.2031 10.2633 23.1024 10.1974C23.548 10.1354 23.4317 9.74795 23.7998 9.72471C23.8774 9.73635 23.6061 9.89135 23.6061 9.89135C23.6061 9.89135 23.3852 10.0463 23.4899 10.1277C23.5674 10.1936 23.6061 10.089 23.6138 10.0115C23.6255 9.93395 23.9742 9.88359 23.9238 9.66271C23.8425 9.48059 23.3542 9.78671 23.3542 9.78671L23.0055 9.78283C22.9822 9.74407 22.8893 9.58911 22.7885 9.58911C22.6723 9.58911 22.587 9.78283 22.587 9.78283H21.8004C21.8004 9.78283 21.7733 9.98819 22.1724 10.027C22.2615 10.1432 22.3313 10.1742 22.4126 10.2052C22.3584 10.2478 22.3429 10.3021 22.3429 10.3718Z" stroke="black" stroke-width="0.0871841"/>
<path d="M22.0844 9.7876C22.0844 9.7876 22.1386 10.117 22.4021 10.1944L22.0844 9.7876Z" fill="#FFC72C"/>
<path d="M22.0844 9.7876C22.0844 9.7876 22.1386 10.117 22.4021 10.1944" stroke="black" stroke-width="0.0871841"/>
<path d="M22.0411 9.77981C22.0644 9.6558 22.1147 9.63257 22.1651 9.46981C22.1729 9.31481 22.0411 9.33416 22.0799 9.23732C22.1496 9.12492 22.1147 9.02032 21.983 8.93896C22.0101 9.08232 21.8125 9.21792 21.8125 9.33416C21.8125 9.45044 21.9133 9.42716 21.9017 9.6054C21.9094 9.70616 21.8745 9.68292 21.8629 9.77981H22.0411Z" fill="url(#paint8_linear_69_12947)" stroke="black" stroke-width="0.0871841"/>
<path d="M22.889 9.00066C22.889 9.02738 22.8783 9.05298 22.8595 9.0719C22.8406 9.09078 22.8149 9.10138 22.7882 9.10138C22.7615 9.10138 22.7359 9.09078 22.717 9.0719C22.6981 9.05298 22.6875 9.02738 22.6875 9.00066C22.6875 8.97394 22.6981 8.9483 22.717 8.92942C22.7359 8.9105 22.7615 8.8999 22.7882 8.8999C22.8149 8.8999 22.8406 8.9105 22.8595 8.92942C22.8783 8.9483 22.889 8.97394 22.889 9.00066Z" fill="#FFC72C" stroke="black" stroke-width="0.0871841"/>
<path d="M22.3219 11.3568L22.8644 10.5547L23.4185 11.3606" stroke="#FFC72C" stroke-width="0.184055"/>
<path d="M22.9795 11.0538C22.9795 11.0826 22.9681 11.1102 22.9477 11.1305C22.9273 11.1509 22.8997 11.1623 22.871 11.1623C22.8422 11.1623 22.8146 11.1509 22.7943 11.1305C22.7739 11.1102 22.7625 11.0826 22.7625 11.0538C22.7625 11.025 22.7739 10.9974 22.7943 10.9771C22.8146 10.9568 22.8422 10.9453 22.871 10.9453C22.8997 10.9453 22.9273 10.9568 22.9477 10.9771C22.9681 10.9974 22.9795 11.025 22.9795 11.0538Z" fill="#FFC72C" stroke="black" stroke-width="0.0871841"/>
<path d="M22.4241 11.9482H23.2727C23.2727 11.9482 23.2843 11.8397 23.1836 11.7738C23.6292 11.7118 23.5129 11.3244 23.8811 11.3011C23.9585 11.3128 23.6873 11.4678 23.6873 11.4678C23.6873 11.4678 23.4664 11.6227 23.5711 11.7041C23.6485 11.77 23.6873 11.6654 23.6951 11.5879C23.7067 11.5104 24.0554 11.46 24.005 11.2391C23.9237 11.057 23.4354 11.3631 23.4354 11.3631L23.0867 11.3592C23.0635 11.3205 22.9705 11.1655 22.8697 11.1655C22.7535 11.1655 22.6682 11.3592 22.6682 11.3592H21.8816C21.8816 11.3592 21.8545 11.5646 22.2536 11.6034C22.3427 11.7196 22.4125 11.7506 22.4939 11.7816C22.4396 11.8242 22.4241 11.8785 22.4241 11.9482Z" fill="#FFC72C"/>
<path d="M22.4861 11.7777H23.1913M22.4241 11.9482H23.2727C23.2727 11.9482 23.2843 11.8397 23.1836 11.7738C23.6292 11.7118 23.5129 11.3244 23.8811 11.3011C23.9585 11.3128 23.6873 11.4678 23.6873 11.4678C23.6873 11.4678 23.4664 11.6227 23.5711 11.7041C23.6485 11.77 23.6873 11.6654 23.6951 11.5879C23.7067 11.5104 24.0554 11.46 24.005 11.2391C23.9237 11.057 23.4354 11.3631 23.4354 11.3631L23.0867 11.3592C23.0635 11.3205 22.9705 11.1655 22.8697 11.1655C22.7535 11.1655 22.6682 11.3592 22.6682 11.3592H21.8816C21.8816 11.3592 21.8545 11.5646 22.2536 11.6034C22.3427 11.7196 22.4125 11.7506 22.4939 11.7816C22.4396 11.8242 22.4241 11.8785 22.4241 11.9482Z" stroke="black" stroke-width="0.0871841"/>
<path d="M22.1656 11.364C22.1656 11.364 22.2199 11.6934 22.4834 11.7709L22.1656 11.364Z" fill="#FFC72C"/>
<path d="M22.1656 11.364C22.1656 11.364 22.2199 11.6934 22.4834 11.7709" stroke="black" stroke-width="0.0871841"/>
<path d="M22.1224 11.3565C22.1456 11.2325 22.196 11.2092 22.2464 11.0465C22.2542 10.8915 22.1224 10.9108 22.1612 10.814C22.2309 10.7016 22.196 10.597 22.0643 10.5156C22.0914 10.659 21.8938 10.7946 21.8938 10.9108C21.8938 11.0271 21.9945 11.0038 21.9829 11.1821C21.9907 11.2828 21.9558 11.2596 21.9442 11.3565H22.1224Z" fill="url(#paint9_linear_69_12947)" stroke="black" stroke-width="0.0871841"/>
<path d="M22.9703 10.5773C22.9703 10.604 22.9597 10.6296 22.9408 10.6486C22.9219 10.6674 22.8962 10.678 22.8695 10.678C22.8428 10.678 22.8172 10.6674 22.7983 10.6486C22.7794 10.6296 22.7688 10.604 22.7688 10.5773C22.7688 10.5506 22.7794 10.525 22.7983 10.5061C22.8172 10.4872 22.8428 10.4766 22.8695 10.4766C22.8962 10.4766 22.9219 10.4872 22.9408 10.5061C22.9597 10.525 22.9703 10.5506 22.9703 10.5773Z" fill="#FFC72C" stroke="black" stroke-width="0.0871841"/>
<path d="M22.3031 12.9381L22.8456 12.136L23.3997 12.942" stroke="#FFC72C" stroke-width="0.184055"/>
<path d="M22.9608 12.6351C22.9608 12.6639 22.9493 12.6915 22.929 12.7118C22.9086 12.7322 22.8811 12.7436 22.8523 12.7436C22.8235 12.7436 22.7959 12.7322 22.7755 12.7118C22.7552 12.6915 22.7438 12.6639 22.7438 12.6351C22.7438 12.6063 22.7552 12.5787 22.7755 12.5584C22.7959 12.5381 22.8235 12.5266 22.8523 12.5266C22.8811 12.5266 22.9086 12.5381 22.929 12.5584C22.9493 12.5787 22.9608 12.6063 22.9608 12.6351Z" fill="#FFC72C" stroke="black" stroke-width="0.0871841"/>
<path d="M22.4054 13.5295H23.254C23.254 13.5295 23.2657 13.421 23.1649 13.3552C23.6105 13.2932 23.4943 12.9057 23.8624 12.8824C23.9399 12.8941 23.6686 13.0491 23.6686 13.0491C23.6686 13.0491 23.4478 13.2041 23.5524 13.2854C23.6299 13.3513 23.6686 13.2467 23.6764 13.1692C23.688 13.0917 24.0367 13.0413 23.9864 12.8204C23.905 12.6383 23.4168 12.9444 23.4168 12.9444L23.068 12.9405C23.0448 12.9018 22.9518 12.7468 22.851 12.7468C22.7348 12.7468 22.6495 12.9405 22.6495 12.9405H21.8629C21.8629 12.9405 21.8358 13.1459 22.2349 13.1847C22.3241 13.3009 22.3938 13.3319 22.4752 13.3629C22.4209 13.4055 22.4054 13.4598 22.4054 13.5295Z" fill="#FFC72C"/>
<path d="M22.4674 13.3591H23.1727M22.4054 13.5295H23.254C23.254 13.5295 23.2657 13.421 23.1649 13.3552C23.6105 13.2932 23.4943 12.9057 23.8624 12.8824C23.9399 12.8941 23.6686 13.0491 23.6686 13.0491C23.6686 13.0491 23.4478 13.2041 23.5524 13.2854C23.6299 13.3513 23.6686 13.2467 23.6764 13.1692C23.688 13.0917 24.0367 13.0413 23.9864 12.8204C23.905 12.6383 23.4168 12.9444 23.4168 12.9444L23.068 12.9405C23.0448 12.9018 22.9518 12.7468 22.851 12.7468C22.7348 12.7468 22.6495 12.9405 22.6495 12.9405H21.8629C21.8629 12.9405 21.8358 13.1459 22.2349 13.1847C22.3241 13.3009 22.3938 13.3319 22.4752 13.3629C22.4209 13.4055 22.4054 13.4598 22.4054 13.5295Z" stroke="black" stroke-width="0.0871841"/>
<path d="M22.1469 12.9453C22.1469 12.9453 22.2011 13.2747 22.4646 13.3522L22.1469 12.9453Z" fill="#FFC72C"/>
<path d="M22.1469 12.9453C22.1469 12.9453 22.2011 13.2747 22.4646 13.3522" stroke="black" stroke-width="0.0871841"/>
<path d="M22.1036 12.9378C22.1269 12.8138 22.1772 12.7905 22.2276 12.6278C22.2354 12.4728 22.1036 12.4922 22.1424 12.3953C22.2121 12.2829 22.1772 12.1783 22.0455 12.0969C22.0726 12.2403 21.875 12.3759 21.875 12.4922C21.875 12.6084 21.9758 12.5852 21.9641 12.7634C21.9719 12.8641 21.937 12.8409 21.9254 12.9378H22.1036Z" fill="url(#paint10_linear_69_12947)" stroke="black" stroke-width="0.0871841"/>
<path d="M22.9515 12.1586C22.9515 12.1853 22.9409 12.211 22.922 12.2299C22.9031 12.2487 22.8775 12.2594 22.8508 12.2594C22.824 12.2594 22.7984 12.2487 22.7795 12.2299C22.7606 12.211 22.75 12.1853 22.75 12.1586C22.75 12.1319 22.7606 12.1063 22.7795 12.0874C22.7984 12.0685 22.824 12.0579 22.8508 12.0579C22.8775 12.0579 22.9031 12.0685 22.922 12.0874C22.9409 12.1063 22.9515 12.1319 22.9515 12.1586Z" fill="#FFC72C" stroke="black" stroke-width="0.0871841"/>
<path d="M22.3093 14.5272L22.8518 13.7251L23.4059 14.5311" stroke="#FFC72C" stroke-width="0.184055"/>
<path d="M22.967 14.2242C22.967 14.253 22.9556 14.2806 22.9352 14.3009C22.9149 14.3213 22.8873 14.3327 22.8585 14.3327C22.8297 14.3327 22.8021 14.3213 22.7818 14.3009C22.7614 14.2806 22.75 14.253 22.75 14.2242C22.75 14.1954 22.7614 14.1678 22.7818 14.1475C22.8021 14.1271 22.8297 14.1157 22.8585 14.1157C22.8873 14.1157 22.9149 14.1271 22.9352 14.1475C22.9556 14.1678 22.967 14.1954 22.967 14.2242Z" fill="#FFC72C" stroke="black" stroke-width="0.0871841"/>
<path d="M22.4116 15.1187H23.2602C23.2602 15.1187 23.2719 15.0102 23.1711 14.9443C23.6167 14.8823 23.5005 14.4948 23.8686 14.4716C23.9461 14.4832 23.6748 14.6382 23.6748 14.6382C23.6748 14.6382 23.454 14.7932 23.5586 14.8746C23.6361 14.9404 23.6748 14.8358 23.6826 14.7583C23.6942 14.6808 24.043 14.6305 23.9926 14.4096C23.9112 14.2275 23.423 14.5336 23.423 14.5336L23.0742 14.5297C23.051 14.4909 22.958 14.3359 22.8573 14.3359C22.741 14.3359 22.6558 14.5297 22.6558 14.5297H21.8692C21.8692 14.5297 21.842 14.7351 22.2412 14.7738C22.3303 14.8901 22.4 14.9211 22.4814 14.9521C22.4272 14.9947 22.4116 15.0489 22.4116 15.1187Z" fill="#FFC72C"/>
<path d="M22.4736 14.9482H23.1789M22.4116 15.1187H23.2602C23.2602 15.1187 23.2719 15.0102 23.1711 14.9443C23.6167 14.8823 23.5005 14.4948 23.8686 14.4716C23.9461 14.4832 23.6748 14.6382 23.6748 14.6382C23.6748 14.6382 23.454 14.7932 23.5586 14.8746C23.6361 14.9404 23.6748 14.8358 23.6826 14.7583C23.6942 14.6808 24.043 14.6305 23.9926 14.4096C23.9112 14.2275 23.423 14.5336 23.423 14.5336L23.0742 14.5297C23.051 14.4909 22.958 14.3359 22.8573 14.3359C22.741 14.3359 22.6558 14.5297 22.6558 14.5297H21.8692C21.8692 14.5297 21.842 14.7351 22.2412 14.7738C22.3303 14.8901 22.4 14.9211 22.4814 14.9521C22.4272 14.9947 22.4116 15.0489 22.4116 15.1187Z" stroke="black" stroke-width="0.0871841"/>
<path d="M22.1531 14.5344C22.1531 14.5344 22.2073 14.8638 22.4708 14.9413L22.1531 14.5344Z" fill="#FFC72C"/>
<path d="M22.1531 14.5344C22.1531 14.5344 22.2073 14.8638 22.4708 14.9413" stroke="black" stroke-width="0.0871841"/>
<path d="M22.1099 14.5269C22.1331 14.4029 22.1835 14.3796 22.2339 14.2169C22.2416 14.0619 22.1099 14.0813 22.1486 13.9844C22.2183 13.872 22.1835 13.7674 22.0517 13.686C22.0789 13.8294 21.8812 13.965 21.8812 14.0813C21.8812 14.1975 21.982 14.1743 21.9703 14.3525C21.9781 14.4533 21.9432 14.43 21.9316 14.5269H22.1099Z" fill="url(#paint11_linear_69_12947)" stroke="black" stroke-width="0.0871841"/>
<path d="M22.9577 13.7477C22.9577 13.7745 22.9471 13.8001 22.9282 13.8189C22.9093 13.8379 22.8837 13.8485 22.857 13.8485C22.8303 13.8485 22.8046 13.8379 22.7857 13.8189C22.7669 13.8001 22.7562 13.7745 22.7562 13.7477C22.7562 13.721 22.7669 13.6954 22.7857 13.6765C22.8046 13.6576 22.8303 13.647 22.857 13.647C22.8837 13.647 22.9093 13.6576 22.9282 13.6765C22.9471 13.6954 22.9577 13.721 22.9577 13.7477Z" fill="#FFC72C" stroke="black" stroke-width="0.0871841"/>
<path d="M20.6093 15.2735C20.6093 15.2735 20.8302 15.785 21.0821 15.4673C21.3339 15.1573 21.2448 15.0217 21.2448 15.0217L20.6791 14.7156L20.5125 15.0643L20.6093 15.2735Z" fill="#FFC72C" stroke="black" stroke-width="0.0871841"/>
<path d="M21.0981 15.2091C21.0981 15.2091 21.1369 15.213 21.164 15.1587C21.195 15.1045 21.0981 15.0813 21.0517 15.0193L21.0051 15.1161L21.0981 15.2091ZM19.8195 15.0696L19.3235 15.3409C19.3235 15.3409 19.0755 15.3912 19.06 15.3409C19.0406 15.2944 19.0639 15.2517 19.1956 15.244C19.3235 15.2401 19.6722 14.9185 19.6722 14.9185L19.8195 15.0735V15.0696ZM19.8272 6.23887L19.8427 6.41711C19.8504 6.47911 19.7458 6.61083 19.7419 6.60307C19.7342 6.59535 19.6838 6.61083 19.6916 6.64571C19.6955 6.68447 19.7691 6.69607 19.7691 6.69607C19.7691 6.69607 19.7419 6.82395 19.7691 6.83171C19.8001 6.83559 19.6916 6.99443 19.7691 7.03707C19.8504 7.07971 19.9861 7.13783 20.0481 7.12619C20.1101 7.11071 20.0481 7.36255 20.0481 7.36255L19.8737 7.73067L20.8191 7.63379L20.6254 7.32379C20.6254 7.32379 20.5324 7.25795 20.5557 7.07971C20.5828 6.90531 20.544 6.09935 20.544 6.09935L19.8698 6.00635L19.8272 6.23887ZM19.6528 7.64155C19.6528 7.64155 19.3467 7.78103 19.3583 8.16079C19.2808 8.52887 19.2382 8.89699 19.2382 8.89699C19.2382 8.89699 18.874 9.30775 18.7655 9.45887C18.6531 9.60611 18.4865 9.90447 18.4284 9.98583C18.3664 10.0633 18.1261 10.3268 18.13 10.4275C18.1377 10.5244 18.0757 10.9623 18.316 11.0088C18.378 11.0359 18.5756 10.5051 18.5756 10.5051C18.5756 10.5051 18.5872 10.2803 18.5175 10.2338C18.4516 10.1951 18.6647 10.0478 18.6647 10.0478L19.1685 9.67195C19.2615 9.59447 19.5133 9.31547 19.5133 9.31547L19.6528 7.64155Z" fill="#FFC6B5" stroke="black" stroke-width="0.0871841"/>
<path d="M20.0066 7.35093C20.0066 7.35093 20.0841 7.56793 20.2623 7.52917C20.4405 7.49041 20.6498 7.32769 20.6498 7.32769C20.6498 7.32769 20.8164 7.31993 20.8397 7.34705C20.8629 7.37029 21.2891 7.78105 21.2737 7.90889C21.262 8.04065 21.0799 8.00189 21.0102 8.08713C20.9443 8.17241 20.8319 8.38937 20.8629 8.55213C20.8939 8.70713 20.9869 8.91637 20.9753 8.99773C20.9637 9.07525 20.8978 9.10237 20.8978 9.14497C20.8978 9.18373 20.952 9.26121 20.952 9.33873C20.952 9.42009 20.8745 9.53633 20.8901 9.61773C20.9017 9.69521 20.9055 9.92769 20.9055 9.92769L20.8901 11.0126C20.8901 11.0126 20.952 11.0475 20.9559 11.1095C20.9637 11.1676 21.3744 12.954 21.3744 12.954C21.3744 12.954 21.355 13.0121 21.3124 13.0043C21.2698 12.9966 21.479 13.2794 21.4829 13.3608C21.4907 13.4383 21.6999 14.066 21.6921 14.1513C21.6883 14.2365 21.6534 14.4303 21.6379 14.4342C21.6185 14.4419 21.7735 14.8294 21.7464 14.8875C21.7231 14.9495 21.4751 14.9456 21.4751 14.9456L21.4054 14.9301C21.4054 14.9301 21.4093 15.0115 21.3628 15.0192C21.3124 15.0231 20.952 14.9999 20.952 14.9999C20.952 14.9999 20.8474 15.1587 20.7854 15.1549C20.7234 15.1471 20.6421 15.0386 20.6265 15.0541C20.6072 15.0735 20.6808 15.1781 20.6653 15.2091C20.6421 15.2401 20.3321 15.306 20.2701 15.1587C20.2081 15.0115 20.3088 15.0502 20.2856 15.0192C20.2701 14.9882 20.1306 14.9069 20.0841 14.9301C20.0453 14.9572 20.1965 14.9921 20.1887 15.0541C20.1848 15.1161 20.0531 15.2091 20.0066 15.2091C19.9562 15.2091 19.8399 14.9805 19.6656 15.0038C19.4951 15.0309 19.3866 15.0735 19.3866 15.0735C19.3866 15.0735 19.1812 15.1587 19.096 15.1394C19.0107 15.1239 18.972 15.0541 18.972 15.0192C18.972 14.9805 19.034 14.8216 19.0301 14.7712C19.0224 14.7248 18.972 14.6744 18.972 14.6008C18.972 14.5233 19.1154 14.2753 19.1154 14.2753L19.1076 13.1438C19.1076 13.1438 18.9797 13.1438 18.972 13.0663C18.9681 12.9888 19.1696 11.28 19.2045 11.1676L19.313 10.6639C19.313 10.6639 19.22 10.7104 19.2122 10.6639C19.2083 10.6252 19.4912 9.64873 19.4912 9.64873C19.4912 9.64873 19.5377 9.16049 19.5377 9.03261C19.5377 8.90473 19.5145 8.72649 19.5145 8.72649C19.5145 8.72649 19.2626 8.61801 19.2549 8.45525C19.2316 8.19565 19.4951 8.05229 19.5261 7.96701L19.6501 7.61829C19.6501 7.61829 19.7857 7.38581 20.0066 7.35093Z" fill="white" stroke="black" stroke-width="0.0871841"/>
<path d="M19.9135 15.1469C19.9135 15.1469 19.3168 15.4569 19.2315 15.484C19.1463 15.5073 19.0921 15.3794 19.1773 15.3562C19.2625 15.329 19.3982 15.3174 19.3982 15.3174C19.3982 15.3174 19.1967 15.1585 19.2044 15.1508L19.4834 15.05C19.4912 15.05 19.5687 15.205 19.6229 15.1973C19.6999 15.1599 19.7726 15.1145 19.8399 15.0617L19.9135 15.1469Z" fill="#FFC72C" stroke="black" stroke-width="0.0871841"/>
<path d="M20.75 15.3164C20.8081 15.3901 20.8275 15.5141 20.9592 15.4404C21.0871 15.3668 20.8934 15.2312 20.8934 15.2312L20.75 15.3164Z" fill="#FFC6B5" stroke="black" stroke-width="0.0871841"/>
<path d="M20.9872 15.305C20.9872 15.305 21.0492 15.3554 21.1035 15.2973C21.1577 15.243 20.995 15.1268 20.995 15.1268L20.9136 15.2198L20.9872 15.305ZM21.2507 7.93896C21.2585 7.93896 21.4522 8.5434 21.4793 8.6984C21.5026 8.8534 21.5839 9.46564 21.5529 9.55088C21.5219 9.63612 21.2081 10.0469 21.1732 10.1515C21.1345 10.2561 20.9136 10.6552 20.9136 10.6552C20.9136 10.6552 20.8593 11.0504 20.8361 11.066C20.809 11.0853 20.8981 11.1822 20.8903 11.2132C20.8787 11.2519 20.7121 11.4224 20.6385 11.4069C20.561 11.3876 20.4447 11.3023 20.4447 11.221C20.4331 11.1434 20.4447 10.8761 20.5029 10.8102C20.5571 10.7404 20.8477 10.0624 20.8632 10.0197C20.8826 9.97324 21.1267 9.43852 21.1345 9.3494C21.1422 9.2564 21.057 9.04328 20.9717 8.96576C20.778 8.39616 20.8555 8.0552 21.2507 7.93896Z" fill="#FFC6B5" stroke="black" stroke-width="0.0871841"/>
<path d="M19.8043 6.20327C19.8043 6.20327 19.9438 6.22263 20.0174 6.18003C20.091 6.13739 20.1763 6.11803 20.2383 6.20327C20.3003 6.28851 20.3429 6.28075 20.3429 6.28075C20.3429 6.28075 20.2499 6.51327 20.3429 6.53651C20.432 6.55975 20.4785 6.55975 20.4824 6.59075C20.4901 6.62175 20.4049 6.68763 20.4281 6.71863C20.4514 6.74963 20.494 6.78451 20.5018 6.81163C20.5056 6.83487 20.4475 6.93947 20.463 6.96663C20.4824 6.98987 20.5405 7.08675 20.5754 7.08675C20.6141 7.08675 20.587 7.24171 20.6994 7.20299C20.8079 7.16423 20.804 7.06735 20.804 7.06735C20.804 7.06735 20.9202 7.05187 20.9512 6.94723C20.9784 6.84263 21.052 6.81551 21.052 6.81551C21.052 6.81551 21.1992 6.73799 21.0055 6.61399C21.0055 5.75379 20.4398 5.84679 20.4398 5.84679C20.4398 5.84679 20.3739 5.69179 20.2615 5.71115C20.153 5.73055 20.1453 5.85839 20.0678 5.84679C19.9864 5.83515 19.967 5.78091 19.9632 5.78479C19.9554 5.79255 19.8856 5.91651 19.8856 5.94367C19.8856 5.97467 19.6725 5.90491 19.6919 6.05991C19.7113 6.22263 19.8159 6.21491 19.8082 6.20327H19.8043Z" fill="#9C5100" stroke="black" stroke-width="0.0871841"/>
<path d="M20.8025 7.59033C20.8025 7.59033 20.2562 7.93909 20.2678 8.06309M20.9265 7.65233C20.9265 7.65233 20.8025 7.78797 20.7948 7.78797M21.0893 7.79957C21.0893 7.79957 20.818 8.02045 20.8607 8.15993M19.8145 7.55933C19.8145 7.55933 19.7331 7.72597 19.7525 7.78021C19.7679 7.83445 19.9075 8.04369 19.9229 8.17157C19.9423 8.30333 19.9229 8.39245 19.9229 8.39245M19.6711 7.86545C19.6711 7.86545 19.6944 8.05921 19.7331 8.09793C19.7718 8.13669 19.8687 8.30333 19.8803 8.36917M19.6207 8.68305C19.6207 8.68305 19.7835 8.76053 19.9307 8.45445M20.1671 8.24133C20.1632 8.24133 20.0508 8.53969 20.2484 8.65205C20.4422 8.76441 20.5933 8.74893 20.6747 8.71793C20.7638 8.69081 20.8568 8.63269 20.8568 8.63269M20.0818 8.60941C20.0818 8.60941 20.0935 9.01241 20.6902 9.41153M20.1089 8.98917C20.1089 8.98917 20.1012 9.34565 20.3337 9.50453M19.9849 8.57069C19.9849 8.57069 19.8067 9.10153 19.6633 9.15189M19.9307 8.95817C19.9307 8.95817 19.9229 9.33789 19.8726 9.47353M19.8261 9.56653C19.8261 9.56653 19.9462 9.72153 20.0818 9.70601C20.2174 9.69437 20.2755 9.53553 20.3647 9.55877C20.4577 9.58589 20.5429 9.65953 20.756 9.64013M20.4499 9.79901C20.4499 9.79901 20.4499 10.1129 20.5081 10.1438C20.5623 10.1748 20.5352 10.4616 20.5352 10.4616M19.7021 9.65177C19.7021 9.65177 19.6943 9.94625 19.6595 10.0509C19.6207 10.1555 19.5471 10.3337 19.5626 10.4887M19.3262 10.6592C19.3572 10.6476 19.4619 10.5546 19.4619 10.5546M19.5161 10.6205C19.5161 10.6205 19.2526 11.7519 19.3262 12.4262M19.5781 10.6786C19.5781 10.6786 19.4425 11.5233 19.5045 11.686M19.5122 10.6515L20.0276 10.6902M20.1012 10.6205C20.1012 10.6205 20.2407 10.698 20.4383 10.6825M20.0392 11.0351C20.0392 11.0351 20.0159 12.4804 19.9772 12.802M20.7948 11.3644C20.7948 11.3644 20.9537 12.6354 21.0467 12.7516M20.4887 11.5233C20.4887 11.5233 20.5855 12.647 20.6437 12.7478M19.0938 13.1391C19.0938 13.1391 19.2875 13.0771 19.458 12.895C19.6517 13.1585 19.9539 12.9066 19.9539 12.9066C19.9539 12.9066 20.4189 13.2244 20.6282 12.8679C20.9498 13.0771 21.1087 12.8369 21.1087 12.8369C21.1087 12.8369 21.2249 13.0151 21.3101 12.9958M20.8025 13.1198C20.8025 13.1198 21.0389 14.2434 21.3954 14.5612" stroke="black" stroke-width="0.0871841"/>
<path d="M19.5713 13.0033C19.5713 13.0033 19.5984 13.941 19.6526 14.6036M19.5247 14.065C19.5247 14.065 19.4937 14.6772 19.4589 14.7237M19.1644 14.7818C19.1644 14.7818 19.2303 15.0492 19.5674 14.8012C19.9045 14.5571 19.9123 14.8942 19.9239 14.9291C19.9355 14.9678 19.9897 15.2313 20.1176 15.0104M20.3889 14.6501C20.3889 14.6501 20.3346 15.1925 20.8189 14.7973C21.3033 14.3982 21.3847 14.7895 21.4002 14.9135M20.3966 5.99365C20.3966 5.99365 20.354 6.26489 20.6407 6.23777C20.602 6.38889 20.7182 6.43537 20.7182 6.43537M20.9275 6.60201C20.9352 6.60201 21.0592 6.67949 20.9275 6.78025M20.5129 6.81509C20.5129 6.81509 20.5748 6.89261 20.6407 6.87325C20.7105 6.85385 20.8189 6.93909 20.8189 6.93909C20.8189 6.93909 20.9119 6.97009 20.9236 6.95073M20.137 7.04761C20.137 7.04761 20.3462 7.12897 20.4857 6.79961M19.7534 6.69885L19.8735 6.70661M18.3894 10.5737L18.4011 10.8411M18.1376 10.5505C18.1376 10.5505 18.3119 10.8411 18.2925 10.9922" stroke="black" stroke-width="0.0871841"/>
<path d="M19.7688 6.82349H19.8812L19.7843 6.86613M20.4508 11.1556C20.4508 11.1556 20.5786 11.1401 20.5748 11.357C20.6561 11.0858 20.8228 11.0819 20.8228 11.0819" stroke="black" stroke-width="0.0871841" stroke-linejoin="round"/>
<path d="M19.925 6.47887C19.9444 6.47887 20.0103 6.45563 20.0219 6.47499C20.0374 6.49051 19.9483 6.50599 19.925 6.47887Z" stroke="black" stroke-width="0.164681" stroke-linejoin="round"/>
<path d="M20.0092 17.3003C21.6266 17.2237 23.1504 16.5188 24.256 15.3358C24.2405 15.3203 24.6009 14.8165 24.8876 14.8863C25.1744 14.9599 25.589 15.8046 26.0927 15.9868C26.3446 16.382 26.023 16.7423 25.9144 16.8121C25.806 16.8857 25.3177 17.0833 25.248 16.7966C25.1744 16.506 25.031 16.5641 25.031 16.5641C25.031 16.5641 22.7254 18.8115 20.0634 18.7224C17.3123 18.7379 15.0416 16.5602 15.0416 16.5602L14.844 16.7772C14.844 16.7772 14.627 17.0097 14.5185 16.9942C14.41 16.9748 13.9412 16.6687 13.9063 16.3626C13.8676 16.0565 14.193 15.8589 14.193 15.8589C14.193 15.8589 14.9874 15.2466 15.0765 14.925C15.2586 14.7429 15.5996 15.049 15.5996 15.049C15.5996 15.049 17.6882 17.4437 20.0092 17.2964V17.3003Z" fill="#FFC72C" stroke="black" stroke-width="0.184055"/>
<path d="M14.1438 15.9055C14.1438 15.9055 14.3569 15.8513 14.4344 15.9404C14.5119 16.0295 15.0544 16.5604 15.0544 16.5604" stroke="black" stroke-width="0.184055"/>
<path d="M14.6295 16.1574L14.4125 16.3163C14.4125 16.3163 14.955 16.4248 14.831 16.7813M25.8976 15.8901C25.8976 15.8901 25.7929 15.832 25.6263 15.956C25.4558 16.0838 25.0335 16.5566 25.0335 16.5566" stroke="black" stroke-width="0.184055"/>
<path d="M16.886 16.4794C16.8705 16.5181 16.8317 16.4794 16.8007 16.4871C16.7232 16.4871 16.6535 16.5414 16.5837 16.5801L15.8708 16.9947C15.8475 16.987 15.8514 16.9676 15.8591 16.9482L16.0529 16.057C16.0606 16.0067 16.0761 15.9408 16.0258 15.902C16.0064 15.8865 16.0374 15.8594 16.0529 15.8865L16.4171 16.1461C16.4055 16.181 16.3823 16.1539 16.3629 16.1423C16.3125 16.0919 16.2505 16.1384 16.2544 16.2004L16.1226 16.7855C16.2854 16.6925 16.4481 16.5995 16.6109 16.4987C16.6651 16.4755 16.7077 16.398 16.6496 16.3515C16.6264 16.336 16.5876 16.3011 16.6264 16.2934L16.886 16.4794ZM17.1417 17.7193C17.134 17.7426 17.1223 17.7465 17.103 17.7309L16.6767 17.4985C16.6806 17.4713 16.6922 17.4675 16.7116 17.483C16.7504 17.5101 16.8123 17.5217 16.8433 17.4752L16.9983 17.1923L17.2153 16.7971C17.2463 16.7467 17.2115 16.6886 17.165 16.6693C17.1495 16.6615 17.1262 16.6537 17.1456 16.6383C17.1533 16.6266 17.1766 16.6499 17.1882 16.6537L17.5989 16.8785C17.5951 16.9017 17.5835 16.9056 17.5641 16.8901C17.5253 16.863 17.4633 16.8514 17.4323 16.8979L17.2773 17.1807L17.0603 17.576C17.0293 17.6225 17.0642 17.6845 17.1107 17.7038L17.1417 17.7193ZM18.7924 17.3319L18.6762 17.6573C18.6258 17.6535 18.6607 17.5915 18.6452 17.5605C18.6375 17.4863 18.6074 17.4161 18.559 17.3594C18.5105 17.3027 18.446 17.262 18.3739 17.2427C18.2577 17.2117 18.1414 17.2699 18.0717 17.3629C17.9705 17.5007 17.9113 17.6649 17.9012 17.8356C17.8977 17.8843 17.9073 17.933 17.9291 17.9766C17.9509 18.0203 17.9841 18.0572 18.0252 18.0836C18.0935 18.1262 18.1734 18.1465 18.2538 18.1417L18.3352 17.8976C18.3468 17.8433 18.2887 17.8085 18.2461 17.7968C18.2383 17.7813 18.2538 17.7581 18.2732 17.7775L18.6994 17.9325C18.6994 17.9828 18.6374 17.9247 18.6025 17.9479C18.5522 17.9673 18.5483 18.0293 18.5251 18.0758L18.4747 18.2231C18.2809 18.2347 18.0872 18.1959 17.9167 18.0991C17.7578 17.9983 17.6455 17.8007 17.6803 17.607C17.7036 17.4403 17.8082 17.2853 17.9593 17.2117C18.0988 17.1342 18.2693 17.1381 18.4165 17.1962C18.4941 17.2233 18.5638 17.2737 18.6258 17.328C18.6645 17.3783 18.7343 17.3783 18.7653 17.3241L18.7924 17.3319ZM19.486 18.4478C19.486 18.4633 19.486 18.4827 19.4627 18.4711L18.9745 18.3974C18.9745 18.3781 18.9745 18.3625 18.9978 18.3742C19.0365 18.3819 19.0985 18.3819 19.114 18.3354C19.1373 18.2696 19.1411 18.1998 19.1528 18.1339L19.238 17.5682C19.2496 17.5295 19.238 17.483 19.1954 17.4675C19.1683 17.4559 19.145 17.4559 19.1179 17.4481C19.1179 17.4326 19.1179 17.4171 19.1411 17.4249L19.6294 17.5023C19.6294 17.5178 19.6294 17.5333 19.6061 17.5256C19.5674 17.514 19.5093 17.5179 19.4899 17.5643C19.4666 17.6263 19.4627 17.6961 19.4511 17.7619L19.3659 18.3277C19.3543 18.3664 19.3659 18.4168 19.4124 18.4323L19.4899 18.4478H19.486ZM20.8112 18.1301L20.7918 18.4749L19.9161 18.5175C19.9122 18.4982 19.9161 18.4865 19.9394 18.4904C19.982 18.4904 20.0401 18.4711 20.0479 18.4207L20.0362 18.1649L20.0091 17.6457C20.013 17.5953 19.9704 17.5566 19.92 17.5605C19.9045 17.5527 19.8619 17.576 19.8657 17.5488C19.858 17.5256 19.8929 17.5372 19.9045 17.5333L20.3927 17.5062C20.3927 17.5295 20.3927 17.5411 20.3656 17.5372C20.323 17.5372 20.2649 17.545 20.2493 17.5992C20.2455 17.6728 20.2532 17.7465 20.2571 17.8201L20.2842 18.3625C20.2842 18.4052 20.323 18.4478 20.3695 18.4401C20.4392 18.4362 20.5128 18.4401 20.5826 18.4207C20.6795 18.3935 20.7298 18.2967 20.7569 18.2076C20.7763 18.1843 20.7569 18.1223 20.7957 18.1301H20.8112ZM21.4893 17.2853C21.4661 17.2853 21.4777 17.3163 21.4699 17.3319C21.4312 17.6225 21.3963 17.9131 21.3537 18.1998C21.3459 18.2657 21.3304 18.3393 21.2684 18.3703C21.2452 18.3819 21.2645 18.4168 21.2878 18.3974L21.5784 18.3083C21.5745 18.2618 21.5164 18.3083 21.4854 18.2967C21.4195 18.2967 21.4079 18.2153 21.4195 18.1649C21.4195 18.1262 21.4273 18.0952 21.4312 18.0603L21.7644 17.9596C21.807 18.0138 21.8535 18.0642 21.8923 18.1223C21.9233 18.1766 21.8535 18.1998 21.8148 18.2114C21.7915 18.2114 21.807 18.2502 21.8264 18.2347L22.2643 18.1029C22.2643 18.0526 22.2023 18.1029 22.1751 18.0642C22.0899 18.0061 22.0318 17.9208 21.9659 17.8433L21.4893 17.2853ZM21.4893 17.6341L21.7218 17.9169L21.4389 18.0022L21.4893 17.6341ZM22.985 16.6344L23.1129 16.8669C23.0741 16.9056 23.0509 16.8243 23.016 16.8126C22.9871 16.7873 22.9509 16.7718 22.9126 16.7683C22.8743 16.7649 22.8359 16.7736 22.8029 16.7933L22.7254 16.8359L23.1051 17.545C23.1245 17.6031 23.1981 17.6147 23.2485 17.5837C23.264 17.5682 23.2833 17.5605 23.2872 17.5876C23.2252 17.6263 23.1516 17.6612 23.0857 17.6961L22.8339 17.8317C22.8145 17.8123 22.8261 17.8007 22.8494 17.7929C22.8631 17.788 22.8754 17.7799 22.8853 17.7693C22.8953 17.7587 22.9027 17.746 22.9069 17.732C22.911 17.7181 22.9118 17.7033 22.9092 17.689C22.9067 17.6747 22.9007 17.6612 22.892 17.6496L22.5161 16.9521C22.4464 16.9909 22.3611 17.0219 22.3418 17.1071C22.3224 17.1652 22.3495 17.2311 22.3495 17.2776C22.3301 17.3009 22.3224 17.2699 22.3108 17.2543L22.2061 17.0529L22.985 16.6344ZM23.5779 16.2818L23.8181 16.6034C23.8723 16.5646 23.9188 16.5026 23.9033 16.4329C23.9111 16.3786 23.8336 16.3166 23.8607 16.2779C23.8762 16.2701 23.8878 16.3089 23.8995 16.3205L24.1785 16.6886C24.1397 16.7274 24.1165 16.646 24.0777 16.6344C24.0235 16.5956 23.9498 16.5763 23.8917 16.6189C23.8491 16.6344 23.853 16.6576 23.8801 16.6847C23.9421 16.7661 24.0041 16.8553 24.0738 16.9366C24.1126 16.9754 24.1668 16.9366 24.2017 16.9056C24.2947 16.8436 24.3761 16.7429 24.3722 16.6266C24.3799 16.5724 24.3451 16.5181 24.3451 16.4716C24.3683 16.4445 24.3722 16.4871 24.3838 16.5026L24.5155 16.7351L23.8336 17.2505C23.8065 17.2311 23.8336 17.2156 23.853 17.204C23.9149 17.1652 23.8956 17.0839 23.853 17.0412L23.4112 16.4639C23.3725 16.4135 23.3027 16.4406 23.2679 16.4755C23.2485 16.4987 23.2291 16.4561 23.2562 16.4523L23.8956 15.9679L24.0699 16.2004C24.0312 16.2391 23.9925 16.15 23.9498 16.1461C23.8646 16.0997 23.7638 16.1345 23.6941 16.1927L23.574 16.2818" fill="black"/>
</g>
</g>
</g>
<defs>
<linearGradient id="paint0_linear_69_12947" x1="16.3774" y1="6.33921" x2="15.9366" y2="6.27426" gradientUnits="userSpaceOnUse">
<stop stop-color="#FF0000"/>
<stop offset="1" stop-color="#FFFF00"/>
</linearGradient>
<linearGradient id="paint1_linear_69_12947" x1="16.3461" y1="7.93931" x2="15.9053" y2="7.87435" gradientUnits="userSpaceOnUse">
<stop stop-color="#FF0000"/>
<stop offset="1" stop-color="#FFFF00"/>
</linearGradient>
<linearGradient id="paint2_linear_69_12947" x1="16.3335" y1="9.51573" x2="15.8928" y2="9.45077" gradientUnits="userSpaceOnUse">
<stop stop-color="#FF0000"/>
<stop offset="1" stop-color="#FFFF00"/>
</linearGradient>
<linearGradient id="paint3_linear_69_12947" x1="17.368" y1="11.2252" x2="16.9272" y2="11.1602" gradientUnits="userSpaceOnUse">
<stop stop-color="#FF0000"/>
<stop offset="1" stop-color="#FFFF00"/>
</linearGradient>
<linearGradient id="paint4_linear_69_12947" x1="16.1993" y1="12.6236" x2="15.7585" y2="12.5586" gradientUnits="userSpaceOnUse">
<stop stop-color="#FF0000"/>
<stop offset="1" stop-color="#FFFF00"/>
</linearGradient>
<linearGradient id="paint5_linear_69_12947" x1="16.2304" y1="14.2752" x2="15.7897" y2="14.2103" gradientUnits="userSpaceOnUse">
<stop stop-color="#FF0000"/>
<stop offset="1" stop-color="#FFFF00"/>
</linearGradient>
<linearGradient id="paint6_linear_69_12947" x1="22.0461" y1="6.36583" x2="21.6053" y2="6.30087" gradientUnits="userSpaceOnUse">
<stop stop-color="#FF0000"/>
<stop offset="1" stop-color="#FFFF00"/>
</linearGradient>
<linearGradient id="paint7_linear_69_12947" x1="21.9898" y1="7.93614" x2="21.5491" y2="7.87114" gradientUnits="userSpaceOnUse">
<stop stop-color="#FF0000"/>
<stop offset="1" stop-color="#FFFF00"/>
</linearGradient>
<linearGradient id="paint8_linear_69_12947" x1="21.9211" y1="9.54376" x2="21.4803" y2="9.4788" gradientUnits="userSpaceOnUse">
<stop stop-color="#FF0000"/>
<stop offset="1" stop-color="#FFFF00"/>
</linearGradient>
<linearGradient id="paint9_linear_69_12947" x1="22.0024" y1="11.1204" x2="21.5616" y2="11.0555" gradientUnits="userSpaceOnUse">
<stop stop-color="#FF0000"/>
<stop offset="1" stop-color="#FFFF00"/>
</linearGradient>
<linearGradient id="paint10_linear_69_12947" x1="21.9836" y1="12.7017" x2="21.5428" y2="12.6368" gradientUnits="userSpaceOnUse">
<stop stop-color="#FF0000"/>
<stop offset="1" stop-color="#FFFF00"/>
</linearGradient>
<linearGradient id="paint11_linear_69_12947" x1="21.9898" y1="14.2909" x2="21.5491" y2="14.2259" gradientUnits="userSpaceOnUse">
<stop stop-color="#FF0000"/>
<stop offset="1" stop-color="#FFFF00"/>
</linearGradient>
<clipPath id="clip0_69_12947">
<rect width="24" height="24" rx="12" fill="white"/>
</clipPath>
<clipPath id="clip1_69_12947">
<rect width="32" height="24" fill="white" transform="translate(-4)"/>
</clipPath>
</defs>
</svg>
