<svg width="24" height="24" viewBox="0 0 24 24" fill="none" xmlns="http://www.w3.org/2000/svg">
<g clip-path="url(#clip0_69_13073)">
<path d="M0 -1.19995H24V25.6H0V-1.19995Z" fill="white"/>
<path d="M7.66167 15.0126C7.66167 15.0126 7.64292 14.8776 7.89417 14.7839C8.14167 14.6864 8.16417 14.3264 8.11167 14.0864C8.11167 14.0864 7.98417 14.3114 7.82292 14.3901C7.82292 14.3901 7.56792 14.5251 7.55292 14.7801C7.55292 14.7801 7.55292 14.8739 7.53417 14.9489C7.52292 14.9864 7.40667 14.6264 7.62417 14.3564C7.84917 14.0826 7.90917 13.8576 7.73292 13.4189C7.73292 13.4189 7.71417 13.6814 7.54167 13.8351C7.36542 13.9851 7.34292 14.0001 7.34667 14.3601C7.34667 14.3601 7.34667 14.4876 7.28292 14.5289C7.28292 14.5289 7.14792 14.3301 7.11042 14.1989C7.07292 14.0676 7.05792 14.0114 7.21542 13.8614C7.21542 13.8614 7.71042 13.5351 7.35417 12.8339C7.35417 12.8339 7.34292 13.0739 7.16667 13.2164C6.99792 13.3626 7.00917 13.4564 7.00167 13.7039C6.99417 13.9551 6.97917 13.9364 6.96042 13.9739C6.96042 13.9739 6.64167 13.3889 6.88542 13.0814C7.12917 12.7701 7.26792 12.7064 6.99792 12.1289C6.99792 12.1289 7.00917 12.4289 6.79167 12.5714C6.57792 12.7214 6.62667 13.0589 6.62667 13.0589C6.62667 13.0589 6.64167 13.1901 6.59667 13.2839C6.59667 13.2839 6.29292 12.6876 6.58167 12.3689C6.82917 12.0951 6.84417 11.9039 6.71292 11.5214C6.71292 11.5214 6.69792 11.6976 6.56292 11.7951C6.42417 11.8926 6.31542 11.9864 6.34167 12.3576C6.34167 12.3576 6.35292 12.6201 6.31917 12.6951C6.31917 12.6951 6.19167 12.4551 6.15417 12.3014C6.11667 12.1439 6.10542 12.0539 6.19917 11.9001C6.29292 11.7464 6.66792 11.3001 6.22167 10.6626C6.22167 10.6626 6.21042 10.8689 6.09417 11.0564C5.98167 11.2439 6.03417 11.4651 6.05667 11.6339C6.08292 11.8026 6.00042 11.9676 6.00042 11.9676C6.00042 11.9676 5.80542 11.6114 5.85042 11.2026C5.88792 10.7901 5.72292 10.4526 5.34417 10.2126C5.34417 10.2126 5.07042 10.8501 5.44542 11.1764C5.44542 11.1764 5.76417 11.4914 5.84667 11.8739C5.84667 11.8739 5.60292 11.8514 5.38542 11.4239C5.16417 10.9964 4.71042 11.0639 4.68042 11.0601C4.68042 11.0601 4.75542 11.7201 5.45292 11.9076C5.45292 11.9076 5.90292 11.9826 5.98542 12.3126C5.98542 12.3126 6.06042 12.5376 6.09042 12.6576C6.09042 12.6576 5.94792 12.6014 5.81667 12.4064C5.68542 12.2189 5.70417 12.1926 5.26167 12.1476C5.26167 12.1476 5.08542 12.1289 4.99167 12.0014C4.99167 12.0014 5.17917 12.6989 5.65542 12.6951C5.65542 12.6951 6.09042 12.6464 6.33042 13.2201L6.22167 13.1451C6.15792 13.1039 5.99667 13.0214 5.67792 13.0589C5.35917 13.0964 5.26917 13.0439 5.19042 13.0214C5.19042 13.0214 5.51292 13.6101 5.96667 13.4339C6.42417 13.2576 6.64167 13.8989 6.64917 13.9101C6.64917 13.9101 6.58542 13.8651 6.50667 13.7864C6.42417 13.7076 6.25917 13.6101 5.94417 13.7114C5.94417 13.7114 5.71542 13.7976 5.48292 13.7264C5.48292 13.7264 5.70792 14.1576 6.22542 14.0826C6.36162 14.0558 6.50298 14.0799 6.62259 14.1504C6.7422 14.2209 6.83172 14.3329 6.87417 14.4651C6.87417 14.4651 6.80667 14.4276 6.76167 14.3901C6.71292 14.3526 6.53667 14.2514 6.16167 14.3601C5.78667 14.4726 5.65167 14.3451 5.65167 14.3451C5.65167 14.3451 5.85792 14.7201 6.25917 14.7689C6.25917 14.7689 6.48417 14.7651 6.57417 14.7314C6.66792 14.6939 6.91917 14.6376 7.09167 14.8889C7.09167 14.8889 7.04292 14.8964 6.97167 14.8626C6.97167 14.8626 6.70917 14.7689 6.50292 14.9376C6.50292 14.9376 6.32292 15.1214 6.06792 15.0876C6.06792 15.0876 6.39792 15.4064 6.92292 15.1364C6.92292 15.1364 7.09917 15.0089 7.23042 15.1064C7.36167 15.2076 7.66167 15.0089 7.66167 15.0089V15.0126Z" fill="#369443" stroke="#010002" stroke-width="0.1875" stroke-miterlimit="10"/>
<path d="M10.5825 7.08858C10.5825 7.08858 10.5225 6.54483 10.9575 6.48858C11.1828 6.44919 11.4144 6.46461 11.6325 6.53358L11.8388 6.93108L11.7638 7.20108L11.4863 7.32857C11.4863 7.32857 11.535 6.91608 11.1563 6.90858C11.0588 6.90858 11.0063 6.94608 10.8525 6.91983C10.6988 6.89358 10.6163 7.06233 10.5825 7.08858Z" fill="#F4C53D" stroke="#010002" stroke-width="0.1875" stroke-miterlimit="10"/>
<path d="M13.6434 8.43523C13.5759 8.51773 13.3172 8.54773 13.3172 8.54773C13.3172 8.54773 13.5834 8.75398 13.6997 9.04648C13.8122 9.33523 10.6097 9.04648 10.6097 9.04648C10.6097 9.04648 10.7522 8.94898 10.8459 8.76148C10.8459 8.76148 10.7034 8.81398 10.5609 8.67148C10.5609 8.67148 10.6659 8.70898 10.8047 8.49898C10.8047 8.49898 11.0109 8.23648 11.1572 8.16148C11.1572 8.16148 11.0897 8.20648 10.9284 8.11648C10.9284 8.11648 11.2059 8.07898 11.3034 7.61023C11.3034 7.61023 11.3222 7.50523 11.4272 7.34773C11.5322 7.19773 11.5097 7.38148 11.7047 7.14523C11.7047 7.14523 11.7947 6.98023 11.7159 6.88273C11.6409 6.77773 11.5547 6.81523 11.3934 6.71773C11.2284 6.62023 11.1572 6.56773 11.2134 6.41773C11.2697 6.26773 11.4122 6.29023 11.4347 6.29023C11.4572 6.29023 11.4647 6.15897 11.6409 6.06897C11.8172 5.97897 12.2934 6.02022 12.3609 6.05772C12.4359 6.09522 12.7172 6.18147 12.8859 6.60148C13.0509 7.02148 12.8409 7.17898 13.2909 7.81648C13.2909 7.81648 13.1109 7.85398 12.9947 7.81648C12.9947 7.81648 13.2309 8.23648 13.6434 8.43523Z" fill="#F4C53D" stroke="#010002" stroke-width="0.1875" stroke-miterlimit="10"/>
<path d="M11.6638 6.65778C11.2888 6.63903 11.4351 6.29028 11.4351 6.29028" stroke="#010002" stroke-width="0.1875" stroke-miterlimit="10"/>
<path d="M12.3014 6.70702C12.3014 6.70702 12.2377 6.67702 12.1814 6.60202C12.1064 6.50077 11.9302 6.45202 11.8402 6.54952C11.8402 6.54952 11.7464 6.65452 11.6602 6.66202C11.6602 6.66202 11.7577 6.68827 11.8214 6.74827C11.8852 6.80827 11.9527 6.85327 12.0502 6.83827C12.1477 6.82702 12.1627 6.77452 12.2077 6.74452C12.2564 6.71452 12.3014 6.70702 12.3014 6.70702Z" fill="#F4C53D" stroke="#010002" stroke-width="0.1875" stroke-miterlimit="10"/>
<path d="M7.60549 15.8182C7.60549 15.8182 7.59799 15.5782 7.89799 15.5632L8.77924 16.7895C8.77924 16.7895 8.74549 16.8682 8.34799 16.8607C8.34799 16.8607 8.30299 16.8607 8.28049 16.9057C8.24674 16.9807 7.60549 15.8182 7.60549 15.8182Z" fill="#369443" stroke="#010002" stroke-width="0.1875" stroke-miterlimit="10"/>
<path d="M8.57449 14.3897C8.57449 14.3897 8.29279 14.873 7.95235 14.8808C7.95235 14.8808 7.3669 14.8097 7.20148 14.9627C7.08574 15.0694 6.96775 15.1575 6.91921 15.4302C6.87178 15.7028 7.01236 15.7616 7.04566 15.7734C7.04566 15.7734 7.07164 15.9682 7.26415 15.9174C7.26415 15.9174 7.27543 16.1206 7.6153 16.023C7.95574 15.9253 8.09689 15.9563 8.16295 15.6176C8.23012 15.2783 8.29165 15.284 8.35207 15.2433C8.43337 15.1885 8.58637 15.1372 8.69983 15.0717C8.80147 15.013 9.19213 14.8142 9.32536 14.799C9.45862 14.7832 9.42925 14.3349 9.42925 14.3349H9.08488L8.91832 14.0893L8.57395 14.3897H8.57449ZM9.65845 11.9654C9.65845 11.9654 9.31408 12.246 9.02503 11.9654C9.02503 11.9654 8.90872 12.1055 8.67499 12.0648C8.4424 12.0236 8.40343 11.9011 8.38141 11.8311C8.38141 11.8311 8.1793 11.9485 8.00881 11.8554C7.83943 11.7628 7.83943 11.6222 7.83943 11.6222C7.83943 11.6222 7.54306 11.6809 7.39117 11.4799C7.23931 11.2795 7.33189 11.0808 7.41376 11.0571C7.41376 11.0571 7.09366 11.1412 7.00615 10.8662C6.98284 10.8049 6.97924 10.7377 6.99583 10.6742C7.01242 10.6106 7.04839 10.5539 7.09873 10.5117C7.09873 10.5117 6.42466 10.5083 6.148 10.2972C6.148 10.2972 5.91823 10.1526 6.05542 10.0008C6.05542 10.0008 5.44852 9.90366 5.29666 9.66204C5.29666 9.66204 5.23003 9.59541 5.25205 9.47856C5.25205 9.47856 5.25601 9.4125 5.32261 9.40854C5.32261 9.40854 4.63048 9.30129 4.43062 9.0732C4.43062 9.0732 4.33465 8.96817 4.38262 8.82762C4.38262 8.82762 4.39279 8.7909 4.40917 8.76552C4.40917 8.76552 3.77911 8.63283 3.46861 8.35224C3.46861 8.35224 3.28906 8.19249 3.38167 7.97793C3.38167 7.97793 2.32875 7.69002 2.57264 7.22595C2.57264 7.22595 2.08034 7.06617 2.23616 6.62187C2.23616 6.62187 1.82911 6.41523 2.00638 6.08779C2.17632 5.77446 2.69854 6.14255 3.31618 6.31362C3.31618 6.31362 4.98952 6.83979 5.81323 6.9798L8.15389 10.4648L9.51958 10.991L9.65791 11.9654H9.65845Z" fill="#F4C53D" stroke="#010002" stroke-width="0.188188"/>
<path d="M9.67549 9.39872C9.67549 9.39872 9.45586 9.23387 9.06463 9.42752C9.06463 9.42752 8.93308 9.51842 8.82922 9.41906C8.80669 9.39755 8.7892 9.37133 8.77804 9.34229C8.76685 9.31322 8.76226 9.28205 8.7646 9.251C8.76691 9.21995 8.77609 9.1898 8.79145 9.16274C8.80684 9.13565 8.82802 9.11234 8.85349 9.09443C9.14536 8.87819 9.25321 8.22953 8.80945 7.96022C8.80945 7.96022 8.16586 7.57859 5.80429 6.97787C5.80429 6.97787 5.60668 6.92255 5.50054 6.9491C5.44921 6.96218 5.40235 6.98894 5.36497 7.02653C5.32762 7.06409 5.3011 7.11107 5.28826 7.16249C5.28826 7.16249 5.18215 7.46342 5.5378 7.63559C5.5378 7.63559 5.69815 7.709 5.86357 7.7564C5.86357 7.7564 5.68177 7.71689 5.60386 7.89641C5.53048 8.06804 5.63773 8.24363 5.97082 8.35655C5.97082 8.35655 6.06115 8.39156 6.18931 8.42261C6.18931 8.42261 5.90422 8.50445 6.04141 8.73479C6.04141 8.73479 6.16336 8.97644 6.59467 9.01934C6.59467 9.01934 6.27286 9.05435 6.49984 9.36032C6.49984 9.36032 6.59974 9.52802 6.9142 9.59012C6.9142 9.59012 6.67597 9.59801 6.79567 9.81197C6.91648 10.0265 7.19932 10.1473 7.4782 10.1671C7.4782 10.1671 7.62895 10.175 7.73452 10.1513C7.73452 10.1513 7.46917 10.284 7.62499 10.5058C7.62499 10.5058 7.73962 10.6639 8.02639 10.656C8.02639 10.656 7.95244 10.9044 8.16247 10.9981C8.32618 11.0715 8.46226 10.9541 8.46226 10.9541C8.46226 10.9541 8.40691 11.22 8.64574 11.3137C8.64574 11.3137 8.76484 11.3753 8.94268 11.3137C8.94268 11.3137 9.07819 11.618 9.56146 11.404C10.0447 11.1912 9.67549 9.39929 9.67549 9.39929V9.39872ZM9.70372 12.1617C9.70372 12.1617 9.63316 12.5422 9.07141 13.021C9.07141 13.021 8.63782 13.4032 8.64856 13.8435C8.65984 14.2924 8.57122 14.3426 8.4007 14.4945C8.4007 14.4945 8.75242 14.5221 8.92237 14.2879C8.92237 14.2879 8.91502 14.6774 8.86309 14.713C8.86309 14.713 8.97373 14.7197 9.13351 14.5453C9.13351 14.5453 9.22948 14.4437 9.3187 14.4047C9.3187 14.4047 9.21481 14.674 9.29611 14.9235C9.29611 14.9235 9.32206 14.8259 9.45925 14.783C9.45925 14.783 9.70768 14.7322 9.80365 14.3737C9.80365 14.3737 9.86632 14.1365 10.2553 13.9254C10.2553 13.9254 10.6956 13.7594 10.6844 13.5426C10.6731 13.3253 9.70429 12.1617 9.70429 12.1617H9.70372Z" fill="#F4C53D" stroke="#010002" stroke-width="0.188188"/>
<path d="M11.744 17.0681C11.744 17.0681 11.643 17.513 11.2924 17.4774C11.2924 17.4774 11.0445 17.4537 11.0632 17.0404C11.0632 17.0404 10.6968 17.2358 10.6375 16.7525C10.6375 16.7525 10.3044 16.8299 10.3084 16.3782C10.3084 16.3782 9.99784 16.4324 10.0346 16.031C10.0346 16.031 9.69751 16.1214 9.69751 15.7431C9.69751 15.7431 8.90938 15.6121 10.5522 14.1138L12.0179 14.9866L11.744 17.0681Z" fill="#F4C53D" stroke="#010002" stroke-width="0.188188" stroke-miterlimit="10"/>
<path d="M11.9082 15.0698C11.9082 15.0698 11.6637 15.2866 11.4898 14.9625C11.4898 14.9625 11.2527 14.9513 11.216 14.7717C11.216 14.7717 11.0235 14.7525 10.9863 14.5691C10.9863 14.5691 10.7237 14.5419 10.7311 14.3201C10.7311 14.3201 10.2534 14.2828 10.7311 13.742C11.2087 13.2011 12.0188 14.6396 12.0188 14.6396L11.9082 15.0698ZM12.1803 14.9355C12.4174 14.9355 12.6856 16.4146 12.6162 17.3061C12.5907 17.6295 12.4174 17.8938 12.1803 17.8938C11.9432 17.8938 11.7704 17.6295 11.7456 17.3061C11.6756 16.4146 11.9438 14.9355 12.1803 14.9355Z" fill="#F4C53D" stroke="#010002" stroke-width="0.188188"/>
<path d="M12.1797 15.4093C12.3606 15.4093 12.5072 15.1919 12.5072 14.9238C12.5072 14.6556 12.3606 14.4382 12.1797 14.4382C11.9989 14.4382 11.8523 14.6556 11.8523 14.9238C11.8523 15.1919 11.9989 15.4093 12.1797 15.4093Z" fill="#F4C53D" stroke="#010002" stroke-width="0.188188"/>
<path d="M11.0636 17.0394C11.0636 17.0394 11.1009 16.2564 11.7795 15.1335M10.6379 16.7515C10.6379 16.7515 10.5324 16.2993 11.4893 14.9618C11.4893 14.9618 11.3781 14.6428 11.7185 14.4379M10.3088 16.3772C10.3088 16.3772 10.2789 15.8877 11.2155 14.771C11.2155 14.771 11.1325 14.4831 11.4718 14.2528M10.035 16.03C10.035 16.03 10.07 15.5354 10.9857 14.5683C10.9857 14.5683 10.9405 14.2725 11.268 14.089M9.69849 15.742C9.69849 15.742 9.76455 15.1769 10.7305 14.3194C10.7305 14.3194 10.6972 14.0969 11.019 13.8711" stroke="#010002" stroke-width="0.188188" stroke-miterlimit="10"/>
<path d="M2.23596 6.62183C2.23596 6.62183 2.99417 7.06106 5.35743 7.50029M2.57244 7.22594C2.57244 7.22594 4.62576 7.89551 5.58213 7.97792M3.38091 7.97792C3.38091 7.97792 4.58568 8.35619 5.99652 8.59499M4.40898 8.76605C4.40898 8.76605 5.76957 9.09293 6.41994 9.14714M5.32242 9.40853C5.32242 9.40853 6.47358 9.64847 6.76488 9.67727M6.05523 10.0008C6.05523 10.0008 6.89529 10.1283 7.22952 10.1216M7.09854 10.5111C7.09854 10.5111 7.43841 10.4953 7.60158 10.4682M7.413 11.0571C7.413 11.0571 7.70205 10.9791 7.872 10.8702M7.8387 11.6222C7.8387 11.6222 8.06112 11.5364 8.1684 11.3026M8.38122 11.8311C8.38122 11.8311 8.55285 11.6769 8.56416 11.5053M9.02484 11.9654C9.02484 11.9654 8.96046 11.9095 9.0045 11.6679M8.94183 11.3133C8.94183 11.3133 8.90796 11.2445 8.91927 11.135M7.72803 7.85315C7.72803 7.85315 8.11644 8.00897 8.24574 8.2235C8.37558 8.43803 8.29035 8.64638 8.24574 8.76548C8.22372 8.8259 7.94991 9.35375 8.27172 9.73598M7.7331 10.1504C7.7331 10.1504 7.73538 10.1487 7.872 10.1052M6.91338 9.58919C6.91338 9.58919 7.14483 9.63548 7.37235 9.63773M6.59325 9.01784C6.59325 9.01784 6.86538 9.0455 7.12113 9.04157M6.18846 8.42168C6.18846 8.42168 6.58083 8.49959 6.79143 8.50352M5.86272 7.75661C5.86272 7.75661 6.34656 7.89437 6.70617 7.94348M7.50558 8.22803C7.50558 8.22803 7.15782 8.55152 7.57617 8.85188C7.57617 8.85188 7.40229 9.12455 7.75005 9.4091M7.65747 9.54347C7.65747 9.54347 7.60551 10.064 8.24235 10.064C8.24235 10.064 8.11983 10.5275 8.73465 10.5122C8.73465 10.5122 8.80464 10.8826 9.2484 10.8081M8.27115 14.8814C8.27115 14.8814 8.17008 14.904 7.95159 14.8814M7.33734 15.1541C7.33734 15.1541 7.03023 15.1072 7.0449 15.774M7.52253 15.3059C7.52253 15.3059 7.24476 15.2709 7.26282 15.9179M10.2025 13.7472C10.2025 13.7472 10.0693 13.7743 9.97668 13.8798C9.88467 13.9849 9.70683 13.9651 9.70683 13.9651C9.70683 13.9651 9.8028 13.8872 9.83667 13.6924C9.86943 13.4976 9.97725 13.4389 9.97725 13.4389M9.6594 13.2549C9.6594 13.2549 9.52617 13.282 9.43356 13.387C9.34098 13.4926 9.16314 13.4728 9.16314 13.4728C9.16314 13.4728 9.25911 13.3949 9.29301 13.2001C9.32631 13.0053 9.43356 12.9466 9.43356 12.9466M9.56739 14.0108C9.56739 14.0108 9.45108 14.0351 9.37035 14.1266C9.28962 14.2186 9.13437 14.2017 9.13437 14.2017C9.13437 14.2017 9.21903 14.1339 9.24726 13.9634C9.27663 13.7935 9.37035 13.7421 9.37035 13.7421" stroke="#010002" stroke-width="0.188188"/>
<path d="M15.6949 14.3897C15.6949 14.3897 15.9766 14.873 16.3171 14.8808C16.3171 14.8808 16.9025 14.8097 17.0679 14.9627C17.1837 15.0694 17.3017 15.1575 17.3502 15.4302C17.3976 15.7028 17.2571 15.7616 17.2238 15.7734C17.2238 15.7734 17.1978 15.9682 17.0053 15.9174C17.0053 15.9174 16.994 16.1206 16.6541 16.023C16.3137 15.9253 16.1726 15.9563 16.1065 15.6176C16.0393 15.2783 15.9778 15.284 15.9174 15.2433C15.8361 15.1885 15.6831 15.1372 15.5696 15.0717C15.468 15.013 15.0773 14.8142 14.9441 14.799C14.8108 14.7832 14.8402 14.3349 14.8402 14.3349H15.1846L15.3511 14.0893L15.6955 14.3897H15.6949ZM14.611 11.9654C14.611 11.9654 14.9553 12.246 15.2444 11.9654C15.2444 11.9654 15.3607 12.1055 15.5944 12.0648C15.827 12.0236 15.866 11.9011 15.888 11.8311C15.888 11.8311 16.0901 11.9485 16.2606 11.8554C16.43 11.7628 16.43 11.6222 16.43 11.6222C16.43 11.6222 16.7264 11.6809 16.8782 11.4799C17.0301 11.2795 16.9375 11.0808 16.8557 11.0571C16.8557 11.0571 17.1758 11.1412 17.2633 10.8662C17.2866 10.8049 17.2902 10.7377 17.2736 10.6742C17.257 10.6106 17.221 10.5539 17.1707 10.5117C17.1707 10.5117 17.8448 10.5083 18.1214 10.2972C18.1214 10.2972 18.3512 10.1526 18.214 10.0008C18.214 10.0008 18.8209 9.90366 18.9728 9.66204C18.9728 9.66204 19.0394 9.59541 19.0174 9.47856C19.0174 9.47856 19.0134 9.4125 18.9468 9.40854C18.9468 9.40854 19.639 9.30129 19.8388 9.0732C19.8388 9.0732 19.9348 8.96817 19.8868 8.82762C19.8868 8.82762 19.8766 8.7909 19.8603 8.76552C19.8603 8.76552 20.4903 8.63283 20.8008 8.35224C20.8008 8.35224 20.9804 8.19249 20.8878 7.97793C20.8878 7.97793 21.9407 7.69002 21.6968 7.22595C21.6968 7.22595 22.1891 7.06617 22.0333 6.62187C22.0333 6.62187 22.4403 6.41523 22.263 6.08779C22.0931 5.77446 21.5709 6.14255 20.9533 6.31362C20.9533 6.31362 19.2799 6.83979 18.4562 6.9798L16.1155 10.4648L14.7498 10.991L14.6115 11.9654H14.611Z" fill="#F4C53D" stroke="#010002" stroke-width="0.188188"/>
<path d="M14.594 9.39872C14.594 9.39872 14.8137 9.23387 15.2049 9.42752C15.2049 9.42752 15.3365 9.51842 15.4403 9.41906C15.4628 9.39755 15.4803 9.37133 15.4915 9.34229C15.5027 9.31322 15.5073 9.28205 15.505 9.251C15.5026 9.21995 15.4934 9.1898 15.4781 9.16274C15.4627 9.13565 15.4415 9.11234 15.416 9.09443C15.1242 8.87819 15.0164 8.22953 15.4601 7.96022C15.4601 7.96022 16.1037 7.57859 18.4653 6.97787C18.4653 6.97787 18.6629 6.92255 18.769 6.9491C18.8204 6.96218 18.8672 6.98894 18.9046 7.02653C18.9419 7.06409 18.9684 7.11107 18.9813 7.16249C18.9813 7.16249 19.0874 7.46342 18.7317 7.63559C18.7317 7.63559 18.5714 7.709 18.406 7.7564C18.406 7.7564 18.5878 7.71689 18.6657 7.89641C18.7391 8.06804 18.6318 8.24363 18.2987 8.35655C18.2987 8.35655 18.2084 8.39156 18.0802 8.42261C18.0802 8.42261 18.3653 8.50445 18.2282 8.73479C18.2282 8.73479 18.1062 8.97644 17.6749 9.01934C17.6749 9.01934 17.9967 9.05435 17.7697 9.36032C17.7697 9.36032 17.6698 9.52802 17.3553 9.59012C17.3553 9.59012 17.5936 9.59801 17.4739 9.81197C17.3531 10.0265 17.0702 10.1473 16.7913 10.1671C16.7913 10.1671 16.6406 10.175 16.535 10.1513C16.535 10.1513 16.8004 10.284 16.6445 10.5058C16.6445 10.5058 16.5299 10.6639 16.2431 10.656C16.2431 10.656 16.3171 10.9044 16.1071 10.9981C15.9434 11.0715 15.8073 10.9541 15.8073 10.9541C15.8073 10.9541 15.8626 11.22 15.6238 11.3137C15.6238 11.3137 15.5047 11.3753 15.3269 11.3137C15.3269 11.3137 15.1914 11.618 14.7081 11.404C14.2248 11.1912 14.594 9.39929 14.594 9.39929V9.39872ZM14.5658 12.1617C14.5658 12.1617 14.6364 12.5422 15.1981 13.021C15.1981 13.021 15.6317 13.4032 15.621 13.8435C15.6097 14.2924 15.6983 14.3426 15.8688 14.4945C15.8688 14.4945 15.5171 14.5221 15.3472 14.2879C15.3472 14.2879 15.3545 14.6774 15.4065 14.713C15.4065 14.713 15.2958 14.7197 15.136 14.5453C15.136 14.5453 15.0401 14.4437 14.9509 14.4047C14.9509 14.4047 15.0547 14.674 14.9735 14.9235C14.9735 14.9235 14.9475 14.8259 14.8103 14.783C14.8103 14.783 14.5619 14.7322 14.4659 14.3737C14.4659 14.3737 14.4032 14.1365 14.0143 13.9254C14.0143 13.9254 13.5739 13.7594 13.5852 13.5426C13.5965 13.3253 14.5653 12.1617 14.5653 12.1617H14.5658Z" fill="#F4C53D" stroke="#010002" stroke-width="0.188188"/>
<path d="M12.5254 17.0681C12.5254 17.0681 12.6265 17.513 12.9771 17.4774C12.9771 17.4774 13.2249 17.4537 13.2063 17.0404C13.2063 17.0404 13.5727 17.2358 13.6319 16.7525C13.6319 16.7525 13.965 16.8299 13.9611 16.3782C13.9611 16.3782 14.2716 16.4324 14.2349 16.031C14.2349 16.031 14.572 16.1214 14.572 15.7431C14.572 15.7431 15.3601 15.6121 13.7172 14.1138L12.2516 14.9866L12.5254 17.0681Z" fill="#F4C53D" stroke="#010002" stroke-width="0.188188" stroke-miterlimit="10"/>
<path d="M12.3614 15.0698C12.3614 15.0698 12.6059 15.2866 12.7798 14.9625C12.7798 14.9625 13.0169 14.9513 13.0536 14.7717C13.0536 14.7717 13.2461 14.7525 13.2834 14.5691C13.2834 14.5691 13.5459 14.5419 13.5386 14.3201C13.5386 14.3201 14.0162 14.2828 13.5386 13.742C13.0609 13.2011 12.2508 14.6396 12.2508 14.6396L12.3614 15.0698ZM12.0893 14.9355C11.8522 14.9355 11.584 16.4146 11.6535 17.3061C11.6789 17.6295 11.8522 17.8938 12.0893 17.8938C12.3264 17.8938 12.4992 17.6295 12.524 17.3061C12.594 16.4146 12.3259 14.9355 12.0893 14.9355Z" fill="#F4C53D" stroke="#010002" stroke-width="0.188188"/>
<path d="M12.0898 15.4093C11.9089 15.4093 11.7623 15.1919 11.7623 14.9238C11.7623 14.6556 11.9089 14.4382 12.0898 14.4382C12.2706 14.4382 12.4172 14.6556 12.4172 14.9238C12.4172 15.1919 12.2706 15.4093 12.0898 15.4093Z" fill="#F4C53D" stroke="#010002" stroke-width="0.188188"/>
<path d="M13.206 17.0394C13.206 17.0394 13.1687 16.2564 12.4901 15.1335M13.6317 16.7515C13.6317 16.7515 13.7372 16.2993 12.7803 14.9618C12.7803 14.9618 12.8915 14.6428 12.5511 14.4379M13.9608 16.3772C13.9608 16.3772 13.9907 15.8877 13.0541 14.771C13.0541 14.771 13.1371 14.4831 12.7978 14.2528M14.2346 16.03C14.2346 16.03 14.1996 15.5354 13.2839 14.5683C13.2839 14.5683 13.3291 14.2725 13.0016 14.089M14.5711 15.742C14.5711 15.742 14.505 15.1769 13.5391 14.3194C13.5391 14.3194 13.5724 14.0969 13.2506 13.8711" stroke="#010002" stroke-width="0.188188" stroke-miterlimit="10"/>
<path d="M22.0335 6.62183C22.0335 6.62183 21.2754 7.06106 18.9121 7.50029M21.6971 7.22594C21.6971 7.22594 19.6437 7.89551 18.6874 7.97792M20.8886 7.97792C20.8886 7.97792 19.6838 8.35619 18.273 8.59499M19.8606 8.76605C19.8606 8.76605 18.5 9.09293 17.8496 9.14714M18.9471 9.40853C18.9471 9.40853 17.796 9.64847 17.5046 9.67727M18.2143 10.0008C18.2143 10.0008 17.3742 10.1283 17.04 10.1216M17.171 10.5111C17.171 10.5111 16.8311 10.4953 16.668 10.4682M16.8565 11.0571C16.8565 11.0571 16.5675 10.9791 16.3975 10.8702M16.4308 11.6222C16.4308 11.6222 16.2084 11.5364 16.1011 11.3026M15.8883 11.8311C15.8883 11.8311 15.7167 11.6769 15.7054 11.5053M15.2447 11.9654C15.2447 11.9654 15.309 11.9095 15.265 11.6679M15.3277 11.3133C15.3277 11.3133 15.3615 11.2445 15.3503 11.135M16.5415 7.85315C16.5415 7.85315 16.1531 8.00897 16.0238 8.2235C15.8939 8.43803 15.9792 8.64638 16.0238 8.76548C16.0458 8.8259 16.3196 9.35375 15.9978 9.73598M16.5364 10.1504C16.5364 10.1504 16.5342 10.1487 16.3975 10.1052M17.3562 9.58919C17.3562 9.58919 17.1247 9.63548 16.8972 9.63773M17.6763 9.01784C17.6763 9.01784 17.4041 9.0455 17.1484 9.04157M18.081 8.42168C18.081 8.42168 17.6887 8.49959 17.4781 8.50352M18.4068 7.75661C18.4068 7.75661 17.923 7.89437 17.5633 7.94348M16.7639 8.22803C16.7639 8.22803 17.1117 8.55152 16.6934 8.85188C16.6934 8.85188 16.8672 9.12455 16.5195 9.4091M16.6121 9.54347C16.6121 9.54347 16.664 10.064 16.0272 10.064C16.0272 10.064 16.1497 10.5275 15.5349 10.5122C15.5349 10.5122 15.4649 10.8826 15.0211 10.8081M15.9984 14.8814C15.9984 14.8814 16.0994 14.904 16.3179 14.8814M16.9322 15.1541C16.9322 15.1541 17.2393 15.1072 17.2246 15.774M16.747 15.3059C16.747 15.3059 17.0247 15.2709 17.0067 15.9179M14.067 13.7472C14.067 13.7472 14.2002 13.7743 14.2928 13.8798C14.3849 13.9849 14.5627 13.9651 14.5627 13.9651C14.5627 13.9651 14.4667 13.8872 14.4328 13.6924C14.4001 13.4976 14.2923 13.4389 14.2923 13.4389M14.6101 13.2549C14.6101 13.2549 14.7434 13.282 14.8359 13.387C14.9285 13.4926 15.1064 13.4728 15.1064 13.4728C15.1064 13.4728 15.0104 13.3949 14.9765 13.2001C14.9432 13.0053 14.8359 12.9466 14.8359 12.9466M14.7021 14.0108C14.7021 14.0108 14.8185 14.0351 14.8992 14.1266C14.9799 14.2186 15.1352 14.2017 15.1352 14.2017C15.1352 14.2017 15.0505 14.1339 15.0222 13.9634C14.9929 13.7935 14.8992 13.7421 14.8992 13.7421" stroke="#010002" stroke-width="0.188188"/>
<path d="M17.4755 12.7995L16.9393 15.1132L16.718 14.9557L17.243 12.7357L16.8755 12.7432L17.7418 11.157L17.798 12.9832L17.4755 12.7995ZM18.863 13.287L17.2505 15.192L17.078 14.997L18.683 13.1145L18.3568 12.942L19.8268 11.967L19.0655 13.6095L18.863 13.287Z" fill="#0081C6" stroke="#010002" stroke-width="0.1875" stroke-miterlimit="10"/>
<path d="M18.4715 12.2747L17.0278 15.0497L16.8065 14.9184L18.2578 12.1509L17.9053 12.0609L19.1315 10.7634L18.7378 12.5447L18.4715 12.2747ZM16.6715 15.8972L16.5628 16.3359L16.8628 16.6359L16.4428 18.3984L16.0678 17.8997L15.5203 18.1547L15.9365 16.3922L16.3265 16.2797L16.424 15.8409C16.424 15.8409 16.544 15.7959 16.6715 15.8972Z" fill="#0081C6" stroke="#010002" stroke-width="0.1875" stroke-miterlimit="10"/>
<path d="M16.7733 15.6049L16.5596 16.0024L16.7733 16.3661L15.9333 17.9599L15.6971 17.3749L15.1008 17.4724L15.9408 15.8824H16.3421L16.5483 15.4849C16.5483 15.4849 16.6983 15.4849 16.7733 15.6049Z" fill="#0081C6" stroke="#010002" stroke-width="0.1875" stroke-miterlimit="10"/>
<path d="M16.8066 15.7212L16.2441 16.4412L16.3716 16.8462L15.2128 18.1962L15.1078 17.5737L14.5078 17.5287L15.6628 16.1787L16.0528 16.2725L16.6528 15.5075C16.6528 15.5075 16.8178 15.59 16.8066 15.7212ZM2.45531 14.0337C2.59031 13.9775 2.68781 13.925 2.68781 13.7825C2.68781 13.745 2.66906 13.67 2.63156 13.5537L1.72406 10.775C1.69369 10.6736 1.65609 10.5746 1.61156 10.4787C1.57031 10.4037 1.49156 10.37 1.38281 10.3287H2.53406C2.41031 10.385 2.29406 10.43 2.29781 10.565C2.29781 10.6137 2.31281 10.685 2.33906 10.7787L3.03657 12.9537L3.73032 10.7787C3.75438 10.7099 3.76827 10.6378 3.77157 10.565C3.77157 10.4262 3.65157 10.3775 3.53532 10.325H4.65282C4.55157 10.3662 4.46532 10.4 4.42782 10.4787C4.38228 10.5759 4.34346 10.6762 4.31157 10.7787L3.40407 13.55C3.37902 13.6245 3.36021 13.701 3.34782 13.7787C3.34782 13.7787 3.30657 13.955 3.58032 14.03H2.45531V14.0337ZM21.7791 13.7487V10.61C21.7791 10.5575 21.7678 10.5162 21.7491 10.4862C21.7303 10.4562 21.6553 10.3737 21.5428 10.3287H22.5816C22.4983 10.3588 22.4263 10.4138 22.3753 10.4862C22.3566 10.5162 22.3491 10.5575 22.3491 10.61V13.7487C22.3491 13.805 22.3566 13.8462 22.3753 13.8762C22.3941 13.9062 22.4691 13.9812 22.5816 14.0337H21.5428C21.6553 13.9812 21.7303 13.9062 21.7491 13.8762C21.7678 13.8462 21.7791 13.805 21.7791 13.7487Z" fill="#0081C6" stroke="#010002" stroke-width="0.1875" stroke-miterlimit="10"/>
<path d="M12.18 14.8175C12.18 14.8175 14.9625 13.5838 14.9663 10.7375H9.3938C9.4013 13.5875 12.18 14.8175 12.18 14.8175Z" fill="white" stroke="#010002" stroke-width="0.1875"/>
<path d="M9.82495 10.7379V12.5566C9.82495 12.5566 10.035 12.9804 10.2525 13.2429V10.7379H9.82495ZM10.68 10.7379V13.7379C10.68 13.7379 10.95 14.0004 11.1075 14.1279V10.7379H10.68ZM11.5387 10.7379V14.4466C11.5387 14.4466 11.8425 14.6416 11.9662 14.7091V10.7341H11.5387V10.7379ZM14.5387 10.7379V12.5566C14.5387 12.5566 14.325 12.9804 14.1075 13.2429V10.7379H14.5387ZM13.68 10.7379V13.7379C13.68 13.7379 13.4137 14.0004 13.2525 14.1279V10.7379H13.68ZM12.825 10.7379V14.4466C12.825 14.4466 12.5175 14.6416 12.3937 14.7091V10.7341H12.825V10.7379Z" fill="#A60032" stroke="#010002" stroke-width="0.1875"/>
<path d="M14.9663 8.66718C14.9663 8.66718 13.6013 9.37968 12.18 8.60718C10.7588 9.37968 9.3938 8.66718 9.3938 8.66718V10.7372H14.9663V8.66718Z" fill="#162667" stroke="#010002" stroke-width="0.1875" stroke-miterlimit="10"/>
</g>
<defs>
<clipPath id="clip0_69_13073">
<rect width="24" height="24" rx="12" fill="white"/>
</clipPath>
</defs>
</svg>
