<svg width="24" height="24" viewBox="0 0 24 24" fill="none" xmlns="http://www.w3.org/2000/svg">
<g clip-path="url(#clip0_69_12828)">
<path d="M0 3.19995H24V21.2L12 27.6L0 21.2V3.19995Z" fill="#009543"/>
<path d="M0 3.20005L12 -3.19995L24 3.20005V12.2H0V3.20005Z" fill="#D21034"/>
<mask id="mask0_69_12828" style="mask-type:luminance" maskUnits="userSpaceOnUse" x="0" y="3" width="24" height="19">
<path d="M0 3.19995V21.2L11.2 13.8105H24V10.5895H11.2L0 3.19995Z" fill="white"/>
</mask>
<g mask="url(#mask0_69_12828)">
<path d="M0 3.19995L11.2 10.5895H24V13.8105H11.2L0 21.2" fill="black"/>
<path d="M0 3.19995L11.2 10.5895H24V13.8105H11.2L0 21.2" stroke="#FDCE12" stroke-width="11.6559"/>
<path d="M0 3.19995L11.2 10.5895H24M24 13.8105H11.2L0 21.2" stroke="black" stroke-width="6.35776"/>
</g>
<path d="M3.22685 13.9247V14.9479C4.1174 14.9479 5.86814 14.2658 5.86814 12.0641C5.86814 9.86239 3.99992 9.45312 3.44285 9.45312C2.88202 9.45312 1.15781 9.85479 1.15781 11.651C1.15781 13.4548 2.85171 13.6215 3.18518 13.6215C3.51866 13.6215 4.76918 13.3184 4.62518 11.9693C4.58786 12.2986 4.4303 12.6025 4.18277 12.8228C3.93521 13.043 3.61508 13.1642 3.2837 13.163C2.37423 13.163 1.80581 12.4885 1.80581 11.8215C1.80581 11.1546 2.35907 10.2603 3.31781 10.2603C4.27655 10.2603 4.97762 11.1129 4.97762 11.9693C4.97762 12.8295 4.30307 13.9209 3.22685 13.9209V13.9247Z" fill="#FDCE12"/>
<path d="M2.4422 12.5863L2.49525 12.6241C2.49525 12.6241 2.91968 11.6578 4.05274 10.9719C3.90874 11.0477 3.15082 11.4267 2.4422 12.5863Z" fill="#FDCE12" stroke="#FDCE12" stroke-width="0.101053"/>
<path d="M2.55111 12.4199C2.55111 12.4199 2.42227 12.1546 2.53595 12.0334C2.64963 11.9159 2.60037 12.3479 2.60037 12.3479L2.64963 12.2759C2.64963 12.2759 2.57384 11.95 2.65721 11.8818C2.74437 11.8098 2.70269 12.1963 2.70269 12.1963L2.75574 12.1281C2.75574 12.1281 2.6989 11.8098 2.78227 11.7491C2.86942 11.6885 2.81637 12.0523 2.81637 12.0523L2.877 11.9765C2.877 11.9765 2.83153 11.6734 2.93385 11.6014C3.03616 11.5294 2.94521 11.8894 2.94521 11.8894L3.01342 11.8136C3.01342 11.8136 2.98311 11.537 3.07027 11.4725C3.15742 11.4119 3.08542 11.7378 3.08542 11.7378L3.14605 11.6696C3.14605 11.6696 3.12712 11.4119 3.21049 11.3513C3.29764 11.2906 3.21805 11.5976 3.21805 11.5976L3.28249 11.537C3.28249 11.537 3.26731 11.2755 3.37342 11.2262C3.47953 11.1769 3.35449 11.4687 3.35449 11.4687L3.43027 11.4081C3.43027 11.4081 3.4492 11.1049 3.54016 11.0784C3.63112 11.0481 3.50227 11.3437 3.50227 11.3437L3.56668 11.2906C3.56668 11.2906 3.60079 11.0329 3.69931 11.0026C3.80164 10.9685 3.63868 11.2376 3.63868 11.2376L3.70312 11.1883C3.70312 11.1883 3.77512 10.9306 3.86986 10.9003C3.96079 10.8738 3.77131 11.1466 3.77131 11.1466L3.83575 11.1011C3.83575 11.1011 3.93805 10.8662 4.02523 10.851C4.10479 10.8359 3.92668 11.0443 3.92668 11.0443L4.00627 10.9988C4.00627 10.9988 4.1389 10.7563 4.18816 10.8283C4.23364 10.9041 3.99868 11.014 3.99868 11.014L3.9229 11.0595C3.9229 11.0595 4.20712 10.923 4.24123 10.9913C4.27531 11.0595 3.8509 11.1049 3.8509 11.1049L3.78268 11.1504C3.78268 11.1504 4.0669 11.0746 4.03279 11.1466C3.9949 11.2186 3.71449 11.2035 3.71449 11.2035L3.65005 11.2489C3.65005 11.2489 3.93427 11.1807 3.89638 11.2489C3.85849 11.3096 3.58186 11.3058 3.58186 11.3058L3.51364 11.3626C3.51364 11.3626 3.79027 11.2868 3.74857 11.374C3.71068 11.4574 3.39238 11.4536 3.39238 11.4536L3.31657 11.5294C3.31657 11.5294 3.60838 11.427 3.58186 11.5066C3.55912 11.5824 3.22564 11.6203 3.22564 11.6203L3.14986 11.6961C3.14986 11.6961 3.46438 11.5938 3.36964 11.6885C3.27868 11.787 3.04753 11.8098 3.04753 11.8098L2.96037 11.9235C2.96037 11.9235 3.27112 11.734 3.22564 11.8401C3.18394 11.9462 2.877 12.0182 2.877 12.0182L2.81637 12.094C2.81637 12.094 3.09679 11.931 3.06649 12.0182C3.03994 12.113 2.74058 12.2077 2.74058 12.2077L2.69132 12.2759C2.69132 12.2759 3.02101 12.0788 2.99448 12.1811C2.96416 12.2797 2.64963 12.3517 2.64963 12.3517L2.61174 12.4161C2.61174 12.4161 2.9149 12.238 2.9149 12.3251C2.92248 12.4085 2.55869 12.4919 2.55869 12.4919L2.55111 12.4199Z" fill="#FDCE12"/>
<path d="M4.24687 12.5863L4.19383 12.6241C4.19383 12.6241 3.76942 11.6578 2.63635 10.9719C2.78035 11.0477 3.53824 11.4267 4.24687 12.5863Z" fill="#FDCE12" stroke="#FDCE12" stroke-width="0.101053"/>
<path d="M4.13795 12.4199C4.13795 12.4199 4.2668 12.1546 4.1531 12.0334C4.03943 11.9159 4.08869 12.3479 4.08869 12.3479L4.03943 12.2759C4.03943 12.2759 4.11521 11.95 4.03184 11.8818C3.94469 11.8098 3.98639 12.1963 3.98639 12.1963L3.93332 12.1281C3.93332 12.1281 3.99017 11.8098 3.9068 11.7491C3.81965 11.6885 3.87269 12.0523 3.87269 12.0523L3.81206 11.9765C3.81206 11.9765 3.85754 11.6734 3.75521 11.6014C3.65291 11.5294 3.74384 11.8894 3.74384 11.8894L3.67565 11.8136C3.67565 11.8136 3.70595 11.537 3.6188 11.4725C3.53165 11.4119 3.60365 11.7378 3.60365 11.7378L3.54302 11.6696C3.54302 11.6696 3.56195 11.4119 3.47858 11.3513C3.39143 11.2906 3.47102 11.5976 3.47102 11.5976L3.40658 11.537C3.40658 11.537 3.42173 11.2755 3.31565 11.2262C3.20954 11.1769 3.33458 11.4687 3.33458 11.4687L3.2588 11.4081C3.2588 11.4081 3.23984 11.1049 3.14891 11.0784C3.05795 11.0481 3.1868 11.3437 3.1868 11.3437L3.12236 11.2906C3.12236 11.2906 3.08828 11.0329 2.98974 11.0026C2.88742 10.9685 3.05036 11.2376 3.05036 11.2376L2.98595 11.1883C2.98595 11.1883 2.91395 10.9306 2.81921 10.9003C2.72827 10.8738 2.91774 11.1466 2.91774 11.1466L2.85332 11.1011C2.85332 11.1011 2.751 10.8662 2.66384 10.851C2.58427 10.8359 2.76237 11.0443 2.76237 11.0443L2.68279 10.9988C2.68279 10.9988 2.55016 10.7563 2.5009 10.8283C2.45542 10.9041 2.69037 11.014 2.69037 11.014L2.76616 11.0595C2.76616 11.0595 2.48195 10.923 2.44784 10.9913C2.41374 11.0595 2.83816 11.1049 2.83816 11.1049L2.90637 11.1504C2.90637 11.1504 2.62216 11.0746 2.65627 11.1466C2.69416 11.2186 2.97458 11.2035 2.97458 11.2035L3.03902 11.2489C3.03902 11.2489 2.75479 11.1807 2.79269 11.2489C2.83058 11.3096 3.10721 11.3058 3.10721 11.3058L3.17543 11.3626C3.17543 11.3626 2.89879 11.2868 2.94048 11.374C2.97837 11.4574 3.29669 11.4536 3.29669 11.4536L3.37247 11.5294C3.37247 11.5294 3.08069 11.427 3.10721 11.5066C3.12995 11.5824 3.46343 11.6203 3.46343 11.6203L3.53921 11.6961C3.53921 11.6961 3.22469 11.5938 3.31943 11.6885C3.41039 11.787 3.64154 11.8098 3.64154 11.8098L3.72869 11.9235C3.72869 11.9235 3.41795 11.734 3.46343 11.8401C3.5051 11.9462 3.81206 12.0182 3.81206 12.0182L3.87269 12.094C3.87269 12.094 3.59228 11.931 3.62258 12.0182C3.6491 12.113 3.94847 12.2077 3.94847 12.2077L3.99776 12.2759C3.99776 12.2759 3.66806 12.0788 3.69458 12.1811C3.72491 12.2797 4.03943 12.3517 4.03943 12.3517L4.07732 12.4161C4.07732 12.4161 3.77417 12.238 3.77417 12.3251C3.76658 12.4085 4.13039 12.4919 4.13039 12.4919L4.13795 12.4199Z" fill="#FDCE12"/>
</g>
<defs>
<clipPath id="clip0_69_12828">
<rect width="24" height="24" rx="12" fill="white"/>
</clipPath>
</defs>
</svg>
