<svg width="24" height="24" viewBox="0 0 24 24" fill="none" xmlns="http://www.w3.org/2000/svg">
<g clip-path="url(#clip0_69_10543)">
<path fill-rule="evenodd" clip-rule="evenodd" d="M0 0H24V24H0V0Z" fill="#CE1126"/>
<path fill-rule="evenodd" clip-rule="evenodd" d="M0 0H12.8V12H0V0Z" fill="#002B7F"/>
<path fill-rule="evenodd" clip-rule="evenodd" d="M7.20403 11.1962L6.36977 10.659L5.56776 11.2L5.82972 10.2445L5.06398 9.66126L6.05139 9.6037L6.37783 8.69808L6.73249 9.61905L7.69975 9.64591L6.934 10.2714L7.20403 11.1962ZM7.05894 4.84153L6.38992 4.43093L5.74509 4.83002L5.92242 4.06254L5.33401 3.5752L6.11587 3.5138L6.40605 2.80005L6.70428 3.51764L7.47405 3.58287L6.88161 4.09708L7.05894 4.84153ZM4.11688 7.12476L3.47205 6.70265L2.79899 7.12476L3.00856 6.38031L2.39999 5.88913L3.17381 5.85076L3.45592 5.12166L3.72998 5.84692L4.5199 5.88913L3.91537 6.3688L4.11688 7.12476ZM10.0252 6.61823L9.40453 6.23449L8.8 6.61823L8.97733 5.91599L8.4131 5.46318L9.15063 5.40562L9.40453 4.74559L9.68664 5.4133L10.4 5.45167L9.84785 5.92367L10.0252 6.61823ZM8.28816 8.28365L7.87305 8.03806L7.45793 8.29132L7.56675 7.81933L7.19597 7.50083L7.6796 7.46245L7.86498 7.01732L8.06247 7.46245L8.54206 7.50083L8.17531 7.81933L8.28816 8.28365Z" fill="white"/>
</g>
<defs>
<clipPath id="clip0_69_10543">
<rect width="24" height="24" rx="12" fill="white"/>
</clipPath>
</defs>
</svg>
