<svg width="24" height="24" viewBox="0 0 24 24" fill="none" xmlns="http://www.w3.org/2000/svg">
<g clip-path="url(#clip0_69_8132)">
<g clip-path="url(#clip1_69_8132)">
<mask id="mask0_69_8132" style="mask-type:luminance" maskUnits="userSpaceOnUse" x="-4" y="0" width="32" height="24">
<path d="M28 0H-4V24H28V0Z" fill="white"/>
</mask>
<g mask="url(#mask0_69_8132)">
<path d="M-4 0H28V24H-4V0Z" fill="#244AA5"/>
<path d="M8.64935 11.24C8.64935 11.24 8.70935 11.2 8.72935 11.195C8.75435 11.195 8.82935 11.165 8.82935 11.165C8.82935 11.165 8.87935 11.14 8.90435 11.14C8.93435 11.14 8.98435 11.17 9.00435 11.195C9.01935 11.22 9.10435 11.265 9.10435 11.265C9.10435 11.265 9.16435 11.285 9.17935 11.265C9.18935 11.245 9.21435 11.23 9.24435 11.23C9.26935 11.23 9.27435 11.205 9.27435 11.185C9.27435 11.165 9.28435 11.14 9.30435 11.115C9.32935 11.09 9.36935 11.075 9.36935 11.075C9.36935 11.075 9.42935 11.05 9.43435 11.015C9.44435 10.98 9.49935 10.955 9.53435 10.95C9.56935 10.95 9.53435 10.93 9.62435 10.94C9.70935 10.95 9.72435 10.92 9.72435 10.895C9.72935 10.87 9.72435 10.845 9.77935 10.845C9.83435 10.855 9.85935 10.855 9.85935 10.825C9.85935 10.795 9.90935 10.775 9.82435 10.755C9.73435 10.73 9.74435 10.75 9.73435 10.705C9.73435 10.67 9.73435 10.675 9.67935 10.67C9.61935 10.665 9.64935 10.635 9.64435 10.605C9.63935 10.575 9.62435 10.555 9.61435 10.54C9.59935 10.52 9.56935 10.52 9.56935 10.49C9.56935 10.46 9.56435 10.44 9.53435 10.44C9.49935 10.44 9.48435 10.44 9.48435 10.415C9.48435 10.385 9.49435 10.365 9.52435 10.365C9.55935 10.365 9.57435 10.335 9.57435 10.305C9.56435 10.275 9.56435 10.21 9.56435 10.21L9.60935 10.16C9.60935 10.16 9.73935 10.055 9.74935 10.035C9.75935 10.015 9.80435 9.99995 9.82435 10.04C9.84435 10.08 9.85435 10.09 9.87435 10.11C9.88935 10.13 9.93935 10.115 9.94935 10.095C9.95935 10.075 9.96435 9.99995 9.99435 9.95995C10.0244 9.92495 10.0444 9.90495 10.0494 9.86995C10.0544 9.83495 10.0744 9.80995 10.1094 9.80995C10.1394 9.80995 10.1594 9.76495 10.1594 9.73995C10.1594 9.71495 10.1794 9.68995 10.2194 9.67995C10.2594 9.67495 10.2844 9.64995 10.2994 9.68995C10.3144 9.72995 10.3294 9.72495 10.3544 9.73995C10.3844 9.75495 10.4244 9.76995 10.4444 9.75495C10.4694 9.73495 10.4794 9.70495 10.5094 9.71995C10.5394 9.73995 10.5594 9.71995 10.5694 9.68495L10.5844 9.58995C10.5844 9.58995 10.5894 9.56495 10.6394 9.56495C10.6894 9.56495 10.6544 9.53495 10.6794 9.51495C10.7094 9.49495 10.7094 9.47495 10.7444 9.48495C10.7794 9.49995 10.8344 9.46995 10.8094 9.43495C10.7794 9.40495 10.7194 9.35495 10.7544 9.31495C10.7894 9.27495 10.8044 9.21495 10.7694 9.20495C10.7344 9.19995 10.6794 9.20995 10.6744 9.17495C10.6694 9.13495 10.6544 9.10495 10.6994 9.09995C10.7394 9.09495 10.8094 9.09495 10.8344 9.07495C10.8544 9.05495 10.9244 9.03995 10.9244 8.98495C10.9244 8.92495 10.9444 8.91995 10.9544 8.88495C10.9594 8.85495 10.9594 8.78495 10.9294 8.75495C10.8994 8.71995 10.8594 8.67495 10.8544 8.65495C10.8444 8.63495 10.8194 8.60495 10.7744 8.58995C10.7344 8.57995 10.6944 8.56995 10.6944 8.53995C10.6944 8.50495 10.7244 8.54495 10.7244 8.45995C10.7244 8.37495 10.6694 8.35995 10.6694 8.35995L10.5844 8.30995C10.5844 8.30995 10.4344 8.26995 10.3944 8.26995C10.3544 8.26995 10.3044 8.22995 10.3494 8.19995C10.3994 8.17495 10.4094 8.12495 10.3944 8.08995C10.3744 8.05495 10.3644 8.02495 10.2994 8.00995C10.2344 7.99495 10.2194 7.97995 10.2494 7.93995C10.2744 7.90495 10.2844 7.87495 10.3194 7.90495C10.3494 7.92995 10.4094 7.93995 10.4544 7.91995C10.5044 7.89995 10.5194 7.87995 10.5444 7.90495C10.5644 7.92495 10.5944 7.94495 10.6294 7.91495C10.6644 7.87995 10.7294 7.87495 10.7594 7.88995C10.7844 7.90995 10.8594 7.90495 10.8794 7.88995C10.8994 7.87995 10.9494 7.83995 10.9494 7.82495C10.9494 7.80995 10.9794 7.76495 11.0044 7.74995C11.0344 7.72995 11.0694 7.67995 11.0994 7.67995C11.1294 7.67995 11.1394 7.64495 11.1394 7.62995C11.1394 7.60495 11.1644 7.55995 11.1694 7.54495C11.1694 7.52995 11.2294 7.50495 11.2694 7.54495C11.3144 7.56995 11.3694 7.58495 11.3694 7.58495C11.3694 7.58495 11.4194 7.59495 11.4544 7.58495C11.4702 7.57523 11.4883 7.57007 11.5069 7.57007C11.5254 7.57007 11.5436 7.57523 11.5594 7.58495C11.6044 7.61495 11.6594 7.61495 11.6594 7.61495L11.6744 7.54995C11.6744 7.52995 11.6844 7.48995 11.6594 7.47495C11.6394 7.45995 11.6094 7.43995 11.6544 7.40495C11.7044 7.37495 11.7044 7.37995 11.7494 7.37995L11.8594 7.38495C11.8944 7.38495 11.9494 7.41995 11.9494 7.44995C11.9494 7.47995 11.9744 7.49995 11.9994 7.51995C12.0294 7.53495 12.0644 7.54995 12.0494 7.57995C12.0444 7.60495 12.0444 7.62995 12.0794 7.61995C12.1144 7.61495 12.1244 7.63495 12.1244 7.66495C12.1244 7.68995 12.1344 7.70495 12.1744 7.71495C12.2044 7.72495 12.2244 7.74995 12.2244 7.77495C12.2244 7.79995 12.2144 7.81995 12.2244 7.84495L12.2744 7.91495C12.2744 7.91495 12.3394 7.98995 12.2544 7.94995C12.1744 7.91495 12.1544 7.89995 12.1294 7.89995L12.0794 7.92495L12.0144 7.93495C11.9844 7.93495 11.9544 7.99495 12.0044 8.00495C12.0494 8.01495 12.0644 8.02495 12.0644 8.06495C12.0644 8.10495 12.0494 8.08995 12.0244 8.11495C12.0044 8.14495 11.9844 8.12495 11.9444 8.12495C11.9044 8.12495 11.8944 8.15995 11.8944 8.18995C11.8944 8.21995 11.9094 8.21995 11.9244 8.23995C11.9444 8.26995 11.9744 8.27495 12.0044 8.24995C12.0294 8.22495 12.0544 8.20495 12.0694 8.25495C12.0894 8.30495 12.1144 8.30495 12.1444 8.30495C12.1794 8.30495 12.1944 8.30495 12.2244 8.28495C12.2494 8.26995 12.2844 8.28495 12.2894 8.32995C12.2994 8.36995 12.3244 8.37995 12.3544 8.39495C12.3844 8.40995 12.4044 8.41995 12.4044 8.44495C12.4144 8.47495 12.4294 8.48495 12.4594 8.46995C12.4894 8.44995 12.5344 8.43995 12.5544 8.46495L12.5994 8.52495V8.57995L12.7144 8.61995L12.7244 8.66995C12.7244 8.68495 12.7444 8.69995 12.7744 8.68995H12.8544C12.8544 8.68995 12.8944 8.67495 12.8944 8.63995C12.8944 8.60995 12.9094 8.59995 12.9444 8.59995C12.9694 8.59995 13.0344 8.62495 13.0494 8.58995C13.0694 8.55995 13.1194 8.54995 13.1594 8.56495L13.3094 8.62495C13.3094 8.62495 13.2944 8.62495 13.3294 8.67995C13.3644 8.73495 13.4294 8.73495 13.4294 8.73495C13.4294 8.73495 13.4294 8.78495 13.4444 8.80495C13.4544 8.82495 13.5094 8.83495 13.5344 8.81495C13.5644 8.79495 13.6044 8.76495 13.6394 8.76495C13.6744 8.76495 13.6994 8.76495 13.6994 8.74495C13.6994 8.72495 13.6644 8.70995 13.6644 8.67495C13.6644 8.63995 13.6994 8.64495 13.7044 8.60995C13.7094 8.57995 13.7444 8.60995 13.7694 8.62995C13.7944 8.64995 13.8194 8.66995 13.8194 8.68995C13.8194 8.71495 13.8694 8.78995 13.8944 8.79995C13.9244 8.80995 13.9994 8.81495 14.0244 8.78995C14.0444 8.75995 14.1044 8.74995 14.0994 8.81495C14.0944 8.87995 14.0794 8.88495 14.1194 8.90495C14.1594 8.92495 14.1694 9.00495 14.1344 9.02495C14.0994 9.04495 14.0844 9.04995 14.0844 9.08495C14.0844 9.11995 14.0744 9.16495 14.1044 9.18495C14.1344 9.20995 14.1544 9.22495 14.1544 9.24495C14.1544 9.26995 14.1844 9.36495 14.1844 9.36495C14.1844 9.36495 14.2044 9.45995 14.1944 9.47995C14.1944 9.50495 14.1794 9.53995 14.2294 9.53495C14.2794 9.52995 14.2944 9.52995 14.2944 9.56995C14.2944 9.60995 14.3144 9.62995 14.2844 9.64495C14.2544 9.66495 14.2344 9.71495 14.2644 9.72495C14.2944 9.73495 14.3144 9.75495 14.3244 9.77495C14.3294 9.79495 14.3744 9.83495 14.4044 9.80995C14.4344 9.78995 14.4394 9.77995 14.4644 9.77495C14.4844 9.76995 14.5044 9.75495 14.4794 9.72495C14.4594 9.69995 14.4494 9.67495 14.4744 9.65495C14.4994 9.63995 14.5094 9.58995 14.5094 9.58995C14.5094 9.58995 14.5444 9.53995 14.5844 9.58995C14.6244 9.63995 14.6344 9.61995 14.6594 9.61995C14.6844 9.61995 14.6994 9.64495 14.6994 9.66995C14.6994 9.69995 14.7594 9.69495 14.7594 9.73495L14.7694 9.88495C14.7694 9.88495 14.7694 9.93995 14.8044 9.95995C14.8394 9.98495 14.8344 9.98995 14.8144 10.01C14.7994 10.04 14.8044 10.085 14.8044 10.11C14.8044 10.135 14.8144 10.135 14.7894 10.16C14.7594 10.18 14.7444 10.21 14.7644 10.24C14.7794 10.27 14.7744 10.29 14.8194 10.33C14.8694 10.365 14.8644 10.38 14.8644 10.41C14.8644 10.435 14.9094 10.475 14.9094 10.5C14.9094 10.525 14.9444 10.56 14.9744 10.565C15.0044 10.57 15.0344 10.615 15.0344 10.645L15.0394 10.74C15.0394 10.74 15.0394 10.755 15.0694 10.755C15.1044 10.755 15.1294 10.795 15.1394 10.755C15.1494 10.705 15.1894 10.705 15.2094 10.69C15.2294 10.675 15.2794 10.66 15.3044 10.675C15.3294 10.69 15.3544 10.69 15.3794 10.69L15.5094 10.695C15.5094 10.695 15.5394 10.695 15.5594 10.735C15.5744 10.775 15.6244 10.825 15.5994 10.845C15.5694 10.87 15.5694 10.91 15.5994 10.91C15.6294 10.91 15.6744 10.91 15.6744 10.935C15.6744 10.965 15.6744 10.985 15.7094 10.97C15.7344 10.955 15.7544 10.95 15.7644 10.97C15.7794 10.99 15.7994 10.99 15.8294 11.005C15.8594 11.025 15.8694 11.01 15.8894 10.99C15.9044 10.97 15.9744 10.95 15.9744 10.95C15.9744 10.95 16.0644 10.925 16.0994 10.935L16.1844 10.97C16.1844 10.97 16.2044 11.02 16.1944 11.055C16.1844 11.085 16.1694 11.08 16.1844 11.13C16.1944 11.18 16.1694 11.18 16.1494 11.18C16.1244 11.17 16.0994 11.17 16.0994 11.215C16.0994 11.255 16.0794 11.265 16.0794 11.305C16.0794 11.345 16.0794 11.335 16.0544 11.355C16.0344 11.37 16.0244 11.395 16.0594 11.405C16.0944 11.405 16.0844 11.445 16.0844 11.465L16.0794 11.535C16.0794 11.535 16.0794 11.56 16.0444 11.56C16.0094 11.56 15.9694 11.56 15.9644 11.585C15.9544 11.61 15.9144 11.65 15.9494 11.68C15.9894 11.705 15.9794 11.72 15.9544 11.73C15.9344 11.745 15.9144 11.795 15.9644 11.81C16.0094 11.83 16.0044 11.845 15.9744 11.865C15.9444 11.885 15.8894 11.905 15.8894 11.935C15.8894 11.965 15.8744 11.965 15.8394 11.97C15.8044 11.975 15.7894 12.02 15.8294 12.07C15.8694 12.125 15.8794 12.12 15.9094 12.12C15.9394 12.12 15.9394 12.07 15.9394 12.07L16.0644 12.08C16.0944 12.08 16.1344 12.08 16.1594 12.065C16.1844 12.045 16.2444 12.02 16.2444 12.065C16.2444 12.115 16.2594 12.115 16.2844 12.13C16.3144 12.155 16.3194 12.135 16.3444 12.17C16.3694 12.2 16.3744 12.17 16.3944 12.135C16.4094 12.1 16.4444 12.065 16.4744 12.105C16.4994 12.15 16.4994 12.135 16.5344 12.135C16.5694 12.135 16.5844 12.155 16.5844 12.18C16.5844 12.205 16.6144 12.205 16.6594 12.2C16.6994 12.2 16.7044 12.225 16.7194 12.25C16.7344 12.275 16.7444 12.27 16.7694 12.27C16.7894 12.27 16.8144 12.27 16.8294 12.25C16.8493 12.23 16.8694 12.2 16.8944 12.235C16.9194 12.265 16.9644 12.26 16.9744 12.225C16.9894 12.185 17.0394 12.155 17.0694 12.195C17.0994 12.24 17.1194 12.24 17.1494 12.245C17.1794 12.245 17.2194 12.245 17.2344 12.275C17.2544 12.305 17.3094 12.345 17.2694 12.375C17.2294 12.41 17.1844 12.45 17.2194 12.465C17.2507 12.4726 17.2788 12.4901 17.2994 12.515C17.3244 12.535 17.3994 12.55 17.4344 12.555C17.4694 12.555 17.4944 12.565 17.5344 12.53C17.5794 12.5 17.6194 12.5 17.6144 12.545C17.6094 12.585 17.6294 12.635 17.6294 12.635C17.6294 12.635 17.6594 12.705 17.6594 12.73C17.6594 12.755 17.6544 12.76 17.7094 12.795C17.7594 12.825 17.7494 12.845 17.7944 12.815C17.8344 12.785 17.8444 12.765 17.8444 12.74V12.655C17.8444 12.655 17.9044 12.645 17.9244 12.63C17.9494 12.61 18.0394 12.565 18.0644 12.585C18.0894 12.605 18.1144 12.6 18.1394 12.59C18.1644 12.58 18.2094 12.58 18.2344 12.58C18.2544 12.58 18.2944 12.585 18.3444 12.55C18.3894 12.51 18.3894 12.52 18.4194 12.55C18.4444 12.575 18.4444 12.605 18.4294 12.63C18.4094 12.65 18.4294 12.695 18.4694 12.695C18.5094 12.695 18.5194 12.72 18.5194 12.745L18.5344 12.83C18.5344 12.85 18.5344 12.865 18.6044 12.88C18.6644 12.895 18.6544 12.93 18.6644 12.96C18.6794 12.985 18.6794 13.01 18.6444 13.01C18.6094 13.01 18.5944 13.025 18.5944 13.05C18.5844 13.075 18.5344 13.085 18.5344 13.085L18.4844 13.075C18.4844 13.075 18.4444 13.075 18.4294 13.095C18.4094 13.12 18.3794 13.16 18.3994 13.195C18.4244 13.235 18.4244 13.255 18.3994 13.275C18.3794 13.29 18.3644 13.37 18.3444 13.355C18.3194 13.335 18.2944 13.355 18.2694 13.37C18.2444 13.38 18.2494 13.455 18.2944 13.48C18.3444 13.51 18.3544 13.545 18.3544 13.545L18.4044 13.625C18.4044 13.625 18.3894 13.64 18.3794 13.67C18.3644 13.695 18.3294 13.75 18.3644 13.76C18.3994 13.77 18.3844 13.83 18.3494 13.83C18.3144 13.83 18.2744 13.81 18.2694 13.855C18.2644 13.9 18.2444 13.885 18.2094 13.88C18.1744 13.88 18.0894 13.855 18.0644 13.895C18.0394 13.94 18.0344 13.955 17.9944 13.95C17.9544 13.95 17.9694 14.015 17.9844 14.04L18.0344 14.105C18.0344 14.105 18.0694 14.13 18.0694 14.185C18.0694 14.235 18.0444 14.235 18.0194 14.195C17.9994 14.16 17.9544 14.165 17.9494 14.205C17.9444 14.25 17.9344 14.315 17.8994 14.315C17.8544 14.315 17.8394 14.325 17.8194 14.345C17.8044 14.365 17.7744 14.405 17.7744 14.425C17.7744 14.445 17.7694 14.47 17.7394 14.475C17.7094 14.48 17.7044 14.535 17.7044 14.535C17.7044 14.535 17.6344 14.55 17.6294 14.575C17.6244 14.6 17.6344 14.645 17.5794 14.65C17.557 14.6526 17.5354 14.6603 17.5164 14.6724C17.4973 14.6845 17.4813 14.7008 17.4694 14.72C17.4494 14.745 17.4444 14.77 17.4694 14.795C17.4944 14.82 17.5094 14.905 17.5394 14.92C17.5644 14.935 17.5894 14.945 17.5844 14.985C17.5794 15.03 17.5444 15.06 17.5894 15.06C17.6394 15.06 17.6644 15.07 17.6494 15.11C17.6294 15.145 17.6294 15.15 17.5994 15.165C17.5594 15.185 17.5444 15.185 17.5444 15.225C17.5444 15.265 17.5544 15.27 17.5244 15.285C17.4944 15.3 17.4944 15.32 17.4944 15.355C17.4944 15.39 17.4844 15.375 17.4494 15.41C17.4144 15.45 17.3694 15.45 17.3394 15.44C17.3094 15.43 17.3044 15.43 17.2994 15.395C17.2944 15.365 17.2444 15.365 17.2144 15.37C17.1844 15.37 17.1444 15.405 17.1444 15.405C17.1444 15.405 17.0944 15.44 17.1144 15.465C17.1394 15.49 17.1244 15.535 17.0844 15.53C17.0444 15.525 16.9544 15.57 16.9244 15.525C16.8944 15.475 16.8144 15.445 16.7994 15.51C16.7894 15.57 16.8344 15.565 16.8294 15.63C16.8294 15.695 16.8144 15.695 16.7894 15.715C16.7694 15.735 16.7694 15.755 16.7594 15.78C16.7594 15.805 16.7494 15.865 16.7894 15.885C16.8294 15.91 16.8494 15.965 16.8494 16C16.8494 16.03 16.8494 16.065 16.8894 16.065C16.9294 16.065 16.9644 16.055 16.9694 16.02C16.9744 15.985 17.0544 15.96 17.0644 16.035C17.0644 16.11 17.0644 16.15 17.0994 16.18C17.1244 16.21 17.1494 16.255 17.1744 16.27C17.1944 16.285 17.2344 16.42 17.2344 16.42C17.1794 16.435 17.1644 16.51 17.1294 16.52C17.1094 16.53 17.0844 16.52 17.0644 16.535C17.0544 16.55 17.0544 16.57 17.0344 16.575C16.9894 16.595 16.9994 16.53 16.9444 16.555C16.8994 16.575 16.8944 16.63 16.8294 16.605C16.7944 16.595 16.7744 16.455 16.7644 16.425L16.7094 16.335C16.6694 16.275 16.5944 16.335 16.5694 16.315C16.5294 16.29 16.5444 16.245 16.4844 16.24C16.3644 16.23 16.4494 16.315 16.3994 16.33C16.2994 16.365 16.2994 16.24 16.2294 16.3C16.2044 16.32 16.2794 16.335 16.2594 16.37C16.2444 16.4 16.1744 16.45 16.1744 16.485C16.1844 16.535 16.2344 16.55 16.2494 16.585C16.2994 16.7 16.2244 16.775 16.1144 16.685C16.0544 16.64 16.0394 16.55 15.9494 16.56C15.9244 16.56 15.9194 16.58 15.8994 16.585C15.8744 16.585 15.8594 16.565 15.8344 16.57C15.7994 16.585 15.8344 16.61 15.8244 16.63C15.8244 16.63 15.7744 16.665 15.7744 16.68C15.7444 16.71 15.7544 16.74 15.7144 16.77C15.6844 16.795 15.6594 16.78 15.6244 16.82C15.5894 16.855 15.5844 16.915 15.5394 16.95C15.5144 16.97 15.4994 16.895 15.4694 16.945L15.4594 16.965C15.4494 16.98 15.4494 16.985 15.4594 17C15.5194 17.12 15.3894 17.16 15.3494 17.245C15.3344 17.28 15.3794 17.31 15.3644 17.34L15.2894 17.425C15.2894 17.435 15.2794 17.465 15.2694 17.475C15.2594 17.485 15.2194 17.475 15.2194 17.495C15.2194 17.515 15.2594 17.53 15.2694 17.54C15.2794 17.555 15.2594 17.575 15.2694 17.58C15.3294 17.645 15.2944 17.625 15.3244 17.68C15.3294 17.69 15.3494 17.675 15.3594 17.695C15.3644 17.715 15.3394 17.715 15.3494 17.735C15.3494 17.745 15.3994 17.805 15.3994 17.805C15.3994 17.825 15.3094 17.865 15.2894 17.865C15.2344 17.865 15.3394 17.755 15.2494 17.755C15.2094 17.755 15.2044 17.84 15.1994 17.855H15.1494C15.0894 17.855 15.0494 17.925 15.0294 17.93C15.0144 17.935 14.9794 17.92 14.9544 17.93C14.9344 17.93 14.9044 17.955 14.8844 17.955C14.8694 17.955 14.8644 17.945 14.8494 17.935C14.8244 17.92 14.7744 17.915 14.7494 17.905C14.7294 17.905 14.6994 17.925 14.6894 17.92C14.6744 17.91 14.7044 17.87 14.6594 17.85L14.6244 17.765C14.6394 17.715 14.6544 17.665 14.6494 17.61C14.6394 17.555 14.5494 17.51 14.5294 17.46C14.5143 17.43 14.4994 17.34 14.4644 17.32C14.4263 17.2908 14.3954 17.2531 14.3744 17.21C14.3744 17.2 14.3894 17.18 14.3744 17.16C14.3594 17.145 14.3344 17.135 14.3244 17.11C14.3194 17.09 14.3244 17.02 14.2994 17.005C14.2744 16.99 14.0994 16.965 14.0494 16.96C14.0294 16.96 14.0144 16.96 13.9994 16.945L13.9694 16.91L13.9194 16.92C13.9044 16.92 13.8794 16.91 13.8694 16.92C13.8144 16.955 13.7994 17.005 13.7444 17.05C13.6894 17.09 13.6294 17.09 13.5744 17.135C13.5394 17.165 13.5144 17.24 13.4794 17.275C13.4644 17.29 13.4444 17.275 13.4394 17.28C13.4094 17.315 13.3694 17.34 13.3394 17.37C13.3344 17.38 13.3394 17.39 13.3294 17.395L13.2644 17.415H13.2044C13.1794 17.425 13.1794 17.455 13.0794 17.475L13.0544 17.49L13.0244 17.515H12.9794C12.9544 17.515 12.9394 17.54 12.9194 17.54C12.8694 17.55 12.7794 17.515 12.7394 17.535C12.7144 17.54 12.6494 17.62 12.6244 17.625C12.6094 17.63 12.5944 17.625 12.5744 17.62L12.5444 17.73L12.4244 17.835C12.4094 17.85 12.4044 17.87 12.3844 17.885C12.3744 17.9 12.3544 17.91 12.3344 17.91C12.3144 17.91 12.2794 17.89 12.2544 17.89C12.2144 17.88 12.0894 17.875 12.0544 17.885C12.0094 17.89 12.0244 18.005 11.9244 18.015L11.7594 18.035C11.7544 18.035 11.7194 18.015 11.6844 18.02C11.6694 18.025 11.6294 18.07 11.6294 18.08V18.105L11.6394 18.125C11.6194 18.15 11.5694 18.19 11.5544 18.225L11.5344 18.245C11.5244 18.255 11.4544 18.28 11.4494 18.29C11.4344 18.33 11.4994 18.37 11.4894 18.385C11.4744 18.435 11.4044 18.485 11.3794 18.535C11.3744 18.555 11.4044 18.62 11.4044 18.64C11.3944 18.705 11.3744 18.785 11.3794 18.845L11.3894 18.93L11.4244 18.955L11.5144 19.135C11.5294 19.245 11.3644 19.205 11.4644 19.315C11.4744 19.335 11.4844 19.35 11.5044 19.365L11.6444 19.48C11.6444 19.5 11.5444 19.515 11.5294 19.53C11.4794 19.58 11.4444 19.66 11.3994 19.71C11.3694 19.735 11.3494 19.705 11.3094 19.775C11.2994 19.8 11.3094 19.855 11.2944 19.875C11.2694 19.895 11.2544 19.865 11.2294 19.875C11.2194 19.875 11.2144 19.91 11.2044 19.915C11.1794 19.94 10.9444 20.065 10.9244 20.05C10.9144 20.045 10.8994 20.005 10.8994 19.995C10.8994 19.98 10.8794 19.95 10.8694 19.945C10.8094 19.895 10.7194 19.88 10.6594 19.945C10.6444 19.96 10.6444 19.985 10.6244 19.995L10.5244 20.075L10.4994 20.1C10.4744 20.1 10.4194 20.035 10.3994 20.015C10.3794 19.985 10.2994 19.915 10.2944 19.88C10.2944 19.76 10.1994 19.635 10.1644 19.52H10.2194C10.2844 19.475 10.2694 19.37 10.3844 19.41C10.3994 19.39 10.3994 19.37 10.4244 19.36C10.4344 19.35 10.4544 19.345 10.4594 19.335C10.4994 19.275 10.5444 19.045 10.5044 18.985C10.4694 18.935 10.4294 18.935 10.4044 18.85C10.3944 18.825 10.4044 18.8 10.4044 18.77L10.3544 18.615C10.3444 18.6 10.3194 18.59 10.3194 18.58L10.3094 18.425C10.2744 18.315 10.1394 18.25 10.1344 18.235L10.0844 18.15C10.0644 18.115 10.0644 18.1 10.0544 18.07C10.0494 18.055 10.0244 18.04 10.0244 18.025C10.0244 17.995 10.1044 17.94 10.0994 17.89C10.0994 17.875 10.0494 17.825 10.0594 17.8C10.0694 17.77 10.1194 17.71 10.1194 17.675C10.1194 17.635 10.0394 17.545 10.0294 17.505C10.0244 17.48 10.0594 17.465 10.0494 17.45C10.0394 17.43 9.95935 17.355 9.94935 17.335C9.93435 17.32 9.97435 17.3 9.94935 17.27C9.91935 17.245 9.94435 17.25 9.93435 17.23C9.92435 17.205 9.89935 17.18 9.88435 17.155C9.87435 17.13 9.80435 16.88 9.80935 16.865C9.79435 16.85 9.77435 16.835 9.76435 16.815L9.74435 16.755C9.74435 16.755 9.66435 16.73 9.64935 16.705C9.63935 16.69 9.63435 16.625 9.61435 16.595C9.60435 16.58 9.58935 16.585 9.57935 16.575C9.56935 16.565 9.56935 16.55 9.56435 16.54C9.53935 16.51 9.49435 16.54 9.46435 16.42C9.41435 16.39 9.37935 16.37 9.34435 16.33L9.32435 16.31C9.29435 16.3 9.24935 16.295 9.22435 16.275C9.20935 16.275 9.13435 16.275 9.12435 16.265L9.10435 16.225C9.06435 16.22 8.99435 16.225 8.95935 16.195C8.93435 16.17 8.92935 16.055 8.87935 16.07C8.87283 16.068 8.86591 16.068 8.85935 16.07C8.82435 16.02 8.71435 16.02 8.66935 15.99C8.65935 15.985 8.61935 15.99 8.61935 15.98L8.62435 15.915L8.56935 15.845C8.52435 15.835 8.53935 15.83 8.51935 15.815C8.44435 15.815 8.43435 15.825 8.38935 15.865C8.37935 15.875 8.35435 15.88 8.33935 15.885C8.31435 15.9 8.30935 15.945 8.27435 15.925L8.24435 15.9C8.22435 15.88 8.21435 15.89 8.20435 15.86C8.14435 15.825 7.97935 15.935 7.94435 15.86C7.91435 15.845 7.89435 15.86 7.86935 15.84C7.85935 15.83 7.90435 15.69 7.78435 15.64L7.86435 15.585C7.87435 15.57 7.86435 15.545 7.86435 15.535C7.86435 15.51 7.87935 15.465 7.87435 15.45C7.87435 15.435 7.85435 15.42 7.84935 15.4C7.83935 15.385 7.84935 15.36 7.83935 15.34L7.79935 15.32C7.76935 15.295 7.73935 15.28 7.71435 15.25L7.69435 15.225C7.67435 15.21 7.60435 15.185 7.60435 15.155C7.60435 15.145 7.62435 15.14 7.62435 15.13C7.62935 15.115 7.62435 15.1 7.63935 15.09C7.66935 15.04 7.74435 15.065 7.73435 14.98C7.72935 14.94 7.69935 14.91 7.69435 14.87C7.67935 14.86 7.67935 14.845 7.66935 14.835C7.59435 14.83 7.60435 14.755 7.57935 14.735C7.50435 14.685 7.44435 14.715 7.52935 14.615C7.53935 14.58 7.45435 14.525 7.43935 14.51C7.40935 14.48 7.42435 14.415 7.40935 14.385C7.40935 14.37 7.35435 14.34 7.33935 14.32L7.31435 14.27V14.265C7.32935 14.25 7.32435 14.225 7.31435 14.215C7.30935 14.2 7.28435 14.205 7.27935 14.195C7.20935 14.135 7.12935 14.105 7.03435 14.07C7.00935 14.06 7.01935 14.04 6.99435 14.03L6.84435 13.97C6.83435 13.97 6.82435 13.915 6.81435 13.895L6.76935 13.845C6.76935 13.795 6.73935 13.795 6.69935 13.765V13.735L6.72935 13.63C6.73435 13.61 6.75935 13.59 6.75435 13.57L6.73435 13.455C6.69435 13.355 6.64935 13.365 6.67435 13.23C6.67435 13.2 6.66935 13.185 6.68935 13.16L6.69935 13.145L6.75935 13.1C6.77935 13.07 6.79435 13.005 6.81935 12.985L6.90935 12.925C6.91935 12.915 6.92935 12.88 6.92435 12.865C6.90435 12.855 6.88435 12.86 6.86435 12.855C6.85435 12.855 6.82935 12.835 6.80935 12.835C6.80435 12.825 6.79435 12.82 6.79435 12.81L6.78435 12.8C6.75935 12.8 6.73435 12.785 6.71435 12.775C6.68935 12.765 6.65435 12.765 6.62935 12.75C6.57935 12.725 6.52935 12.65 6.48435 12.64C6.42435 12.625 6.38435 12.645 6.32435 12.65C6.28935 12.65 6.28935 12.63 6.25935 12.62C6.21935 12.605 6.24935 12.64 6.15935 12.61C6.14435 12.6 6.15935 12.57 6.15935 12.56H6.10935C6.03935 12.54 6.06435 12.47 6.04435 12.425C6.03935 12.415 6.00435 12.415 5.99435 12.415C5.98435 12.415 5.98435 12.405 5.98435 12.405L5.99435 12.4C6.00435 12.38 5.95935 12.33 5.95935 12.32C5.96435 12.305 6.05935 12.29 6.06935 12.29C6.07435 12.275 6.06435 12.265 6.05935 12.255C6.05935 12.23 6.07435 12.195 6.08435 12.17V12.16C6.05435 12.145 6.04935 12.125 6.02435 12.11C6.02435 12.095 6.03935 12.09 6.04435 12.075C6.08935 11.95 6.15935 12.05 6.21935 11.935C6.22435 11.925 6.24435 11.9 6.24935 11.88H6.25935C6.26935 11.88 6.28935 11.89 6.29935 11.88C6.30935 11.87 6.32435 11.87 6.33935 11.865H6.36435C6.47435 11.845 6.44935 11.805 6.51435 11.76C6.53435 11.745 6.58435 11.74 6.60435 11.73C6.62935 11.745 6.66435 11.78 6.70935 11.8C6.74435 11.81 6.85935 11.835 6.87935 11.85C6.90435 11.86 6.90935 11.89 6.92935 11.9C6.99435 11.94 6.95435 11.88 7.01935 11.89C7.08435 11.905 7.13435 11.96 7.19435 11.985L7.24435 11.98C7.25935 11.975 7.35935 11.955 7.36935 11.96L7.40935 11.975C7.42435 11.98 7.43435 11.95 7.44935 11.95C7.48935 11.96 7.48935 11.975 7.54935 11.97C7.54935 11.97 7.57935 11.805 7.60935 11.8C7.62435 11.795 7.66935 11.835 7.67935 11.84C7.69935 11.845 7.67935 11.805 7.67935 11.805C7.66935 11.79 7.63935 11.69 7.64435 11.68C7.64435 11.68 7.66935 11.69 7.68435 11.685C7.71435 11.675 7.75935 11.665 7.78435 11.64L7.83435 11.565C7.83935 11.555 7.82435 11.525 7.83435 11.515L7.87935 11.485C7.89935 11.465 7.89935 11.435 7.92935 11.42C8.02935 11.41 8.06435 11.33 8.15935 11.32H8.18935L8.20935 11.35C8.20935 11.355 8.27435 11.395 8.28435 11.39C8.29435 11.39 8.29935 11.375 8.30935 11.37C8.32435 11.375 8.37935 11.345 8.38435 11.325C8.38435 11.325 8.37435 11.31 8.37935 11.295C8.40431 11.2728 8.43107 11.2527 8.45935 11.235H8.52935C8.53935 11.245 8.53935 11.265 8.55435 11.265H8.61435C8.62435 11.265 8.62935 11.24 8.64935 11.24Z" fill="#D0A650"/>
<path d="M13.5944 3.67041L14.3994 6.15042L12.2894 4.61542H14.8994L12.7894 6.15042L13.5894 3.67041H13.5944ZM16.7344 4.22542L17.5344 6.70542L15.4294 5.17042H18.0344L15.9244 6.70542L16.7344 4.22542ZM19.7294 5.31542L20.5294 7.79542L18.4244 6.26042H21.0294L18.9194 7.80042L19.7294 5.32042V5.31542ZM10.4044 3.67041L9.59938 6.15042L11.7094 4.61542H9.09938L11.2094 6.15042L10.4094 3.67041H10.4044ZM7.26438 4.22542L6.46438 6.70542L8.56938 5.17042H5.96438L8.07438 6.70542L7.26438 4.22542ZM4.28438 5.31542L5.09438 7.79542L2.98438 6.26042H5.58938L3.47938 7.79542L4.28438 5.31542Z" fill="white"/>
</g>
</g>
</g>
<defs>
<clipPath id="clip0_69_8132">
<rect width="24" height="24" rx="12" fill="white"/>
</clipPath>
<clipPath id="clip1_69_8132">
<rect width="32" height="24" fill="white" transform="translate(-4)"/>
</clipPath>
</defs>
</svg>
