<svg width="24" height="24" viewBox="0 0 24 24" fill="none" xmlns="http://www.w3.org/2000/svg">
<g clip-path="url(#clip0_69_13174)">
<path d="M0 -2H36.8V26.4H0V-2Z" fill="#006400"/>
<path d="M-0.086731 5.76636H36.8376V18.6206H-0.086731V5.76636Z" fill="#FFD200"/>
<path d="M-0.086731 8.3374H36.8376V16.05H-0.086731V8.3374Z" fill="#D40000"/>
<path d="M-0.086731 10.9075H36.8376V13.4783H-0.086731V10.9075Z" fill="black"/>
<path d="M-0.086731 3.19531V21.1913L12.2214 12.1933L-0.086731 3.19531Z" fill="black" stroke="black" stroke-width="2.89326"/>
<path d="M-0.086731 3.19531V21.1913L12.2214 12.1933L-0.086731 3.19531Z" fill="white"/>
<path d="M4.59455 7.66846L7.03418 14.9825L0.65155 10.4621H8.54192L2.1549 14.9825L4.59455 7.66846Z" fill="#D40000"/>
<path d="M3.55236 14.0663L3.98313 13.9892L4.77876 13.9592L5.07327 13.9849L5.73264 14.092L5.781 14.0277V13.565L5.86011 13.1665L5.99199 12.7637L6.13704 12.4424L6.32166 12.1082L6.62058 12.181H6.69969L6.70851 12.1253L6.07551 11.5983L5.41614 11.1055L4.46226 10.4114L4.37436 10.39L4.27326 9.66156L4.19853 9.44304L4.09743 9.35736L3.9084 9.29736L3.69741 9.30594L3.60069 9.35736L3.39849 9.4002L3.29301 9.41733L3.22266 9.49875L3.21387 9.60159L3.50838 9.61014L3.58311 9.64014L3.57432 9.67014L3.40728 9.69156L3.32817 9.71727L3.42048 9.78582L3.51717 9.82011L3.64026 9.86295L3.66663 9.94866L3.67542 11.0541L3.60948 11.2255L3.58752 11.5469L3.68421 11.9325L3.43806 12.2067L3.29739 12.4509L3.27102 12.6009L3.19629 12.7509L3.1875 12.8451L3.23586 12.948L3.42486 13.5564L3.52158 14.0577L3.55236 14.0663Z" fill="#FFCC00"/>
<path d="M3.78154 9.27924C3.70243 9.27924 3.66727 9.28782 3.59254 9.32637C3.53062 9.36093 3.4615 9.38142 3.39034 9.38637C3.28042 9.38637 3.19252 9.4635 3.19252 9.56205V9.62631L3.35077 9.62202C3.81673 9.63489 3.39472 9.67773 3.35956 9.68202C3.24526 9.70344 3.38593 9.79341 3.52219 9.84054C3.66727 9.88338 3.65848 9.85767 3.65848 10.4833C3.65848 10.9931 3.65848 11.066 3.6145 11.1817C3.55738 11.353 3.55738 11.6101 3.6145 11.7815C3.6409 11.8501 3.65848 11.9101 3.65848 11.9229C3.65848 11.9315 3.58813 12.0129 3.50461 12.1072C3.35077 12.2786 3.25846 12.4542 3.25846 12.5785C3.25297 12.6185 3.23791 12.6566 3.21451 12.6899C3.15736 12.7627 3.15736 12.887 3.2101 12.9341C3.26725 12.9856 3.50023 13.8682 3.50461 14.0353C3.50461 14.0953 3.5134 14.0953 3.86947 14.0267C4.15957 13.971 4.84093 13.9582 5.18818 14.001C5.34643 14.0224 5.53105 14.0567 5.59699 14.0696C5.80798 14.1253 5.79919 14.1339 5.79919 13.8853C5.80081 13.4938 5.87683 13.1059 6.02338 12.7413C6.10738 12.5336 6.20884 12.3329 6.32668 12.1414C6.32668 12.1414 6.40582 12.15 6.50251 12.1757C6.68275 12.2186 6.73549 12.2143 6.73549 12.1329C6.73549 12.09 6.54649 11.9358 5.61898 11.2331C5.24488 10.9346 4.85923 10.6502 4.4629 10.3804C4.43653 10.3804 4.41013 10.3676 4.40575 10.3504L4.33981 9.94338C4.30903 9.73344 4.26508 9.52776 4.2475 9.48492C4.18597 9.35637 4.06726 9.29211 3.86947 9.27924C3.84016 9.27834 3.81085 9.27834 3.78154 9.27924ZM3.78595 9.32208H3.87385C4.16398 9.33924 4.21672 9.41634 4.29586 9.92196C4.31722 10.0557 4.3348 10.19 4.3486 10.3247C4.3486 10.359 4.30903 10.4018 4.20793 10.4661C4.04158 10.5799 3.89347 10.7171 3.76837 10.8732L3.71122 10.9503L3.69802 10.7703V10.2647C3.71122 9.89196 3.69802 9.85767 3.57496 9.81483C3.47386 9.78057 3.34198 9.74628 3.37714 9.72486C3.42109 9.69915 3.46507 9.71628 3.57055 9.68628C3.6145 9.67773 3.61012 9.68202 3.60133 9.64773C3.59254 9.59202 3.53098 9.56205 3.36835 9.5706C3.23647 9.57918 3.2233 9.57489 3.23209 9.5406C3.24967 9.47205 3.31999 9.42921 3.42988 9.41634C3.49717 9.40875 3.5626 9.38991 3.62329 9.36066C3.67237 9.33189 3.72871 9.31707 3.78595 9.31779V9.32208ZM4.44091 10.4275H4.45849C4.53322 10.4404 6.69154 12.0857 6.69154 12.1329C6.69154 12.15 6.67396 12.1629 6.64759 12.1629C6.63001 12.1629 6.08053 12.0129 5.42995 11.8287C4.39255 11.5287 4.24309 11.4859 4.19914 11.4302C4.16857 11.3925 4.15156 11.3461 4.15078 11.2981C4.14997 11.2501 4.16542 11.2031 4.19476 11.1645C4.21585 11.1396 4.23088 11.1103 4.23871 11.0788C4.23871 11.0274 4.12882 11.1559 4.10683 11.2288C4.08487 11.3145 4.12882 11.4602 4.19476 11.5073C4.22113 11.5287 4.41892 11.593 4.63432 11.6573C5.00356 11.7601 5.02993 11.773 5.04754 11.833C5.09149 11.9743 4.93762 12.1414 4.71784 12.1886C4.63543 12.2078 4.55776 12.2428 4.48927 12.2914C4.26121 12.4755 4.00642 12.6257 3.73321 12.737C3.7156 12.7499 3.69364 12.8185 3.68044 12.8827C3.65407 13.0241 3.64528 13.0455 3.60133 13.0455C3.57934 13.0455 3.57496 13.0327 3.59254 12.9856C3.62329 12.8998 3.61891 12.797 3.58813 12.797C3.56617 12.797 3.55738 12.827 3.55738 12.8741C3.55738 12.917 3.54418 12.9684 3.5266 12.9813C3.50461 13.007 3.50023 12.9898 3.50902 12.8827C3.51781 12.8099 3.5134 12.7542 3.50461 12.7542C3.48265 12.7542 3.44308 12.8613 3.42988 12.9556C3.42109 13.0113 3.42109 13.0113 3.40351 12.9427C3.39034 12.8913 3.39472 12.857 3.43429 12.7927C3.45925 12.7462 3.47422 12.6952 3.47824 12.6428C3.47824 12.5871 3.52219 12.5314 3.7288 12.33C3.86068 12.1972 4.02331 12.0301 4.08046 11.9572C4.18156 11.8372 4.18597 11.8287 4.18156 11.7044C4.18156 11.6359 4.17277 11.5716 4.16398 11.563C4.13761 11.5373 4.10245 11.6744 4.12003 11.7472C4.12882 11.8158 4.12003 11.8372 3.97495 12.0043C3.87061 12.1208 3.76057 12.2323 3.64528 12.3385C3.47386 12.4928 3.4123 12.5785 3.4123 12.6556C3.4123 12.6813 3.39472 12.7413 3.36835 12.797C3.34198 12.8527 3.33319 12.9084 3.34198 12.9213C3.35077 12.9341 3.34198 12.9341 3.32878 12.9213C3.30682 12.8998 3.30682 12.8656 3.3244 12.7927C3.33445 12.7565 3.33745 12.7187 3.33319 12.6813C3.3112 12.6385 3.28042 12.6899 3.26725 12.797C3.25846 12.857 3.24526 12.9041 3.23209 12.8956C3.20131 12.8784 3.2101 12.767 3.24967 12.707C3.27163 12.677 3.29362 12.6085 3.30682 12.5528C3.33757 12.3943 3.40792 12.2657 3.56176 12.0943C3.61105 12.0421 3.65797 11.9877 3.70243 11.9315L3.65848 11.7901C3.5995 11.599 3.59647 11.3957 3.64969 11.2031C3.70681 11.0403 3.82111 10.8775 4.00135 10.7018C4.17718 10.5347 4.3486 10.4318 4.44091 10.4275ZM5.10028 11.8072C5.10583 11.8068 5.11144 11.8072 5.11678 11.8083C5.12209 11.8094 5.12698 11.8113 5.13115 11.8137C5.13529 11.8161 5.13859 11.8191 5.14087 11.8224C5.14312 11.8257 5.14426 11.8293 5.14423 11.833C5.14153 11.838 5.13649 11.8423 5.1298 11.8455C5.12308 11.8486 5.11507 11.8502 5.10688 11.8502C5.09866 11.8502 5.09065 11.8486 5.08396 11.8455C5.07724 11.8423 5.0722 11.838 5.0695 11.833C5.06929 11.827 5.07223 11.8212 5.07784 11.8165C5.08342 11.8118 5.09137 11.8086 5.10028 11.8072ZM5.21017 11.8201C5.21572 11.8197 5.22133 11.8201 5.22667 11.8212C5.23198 11.8223 5.23687 11.8241 5.24104 11.8265C5.24518 11.829 5.24851 11.8319 5.25076 11.8353C5.25301 11.8386 5.25415 11.8422 5.25412 11.8458C5.25142 11.8508 5.24638 11.8552 5.23969 11.8583C5.233 11.8614 5.22499 11.8631 5.21677 11.8631C5.20855 11.8631 5.20054 11.8614 5.19385 11.8583C5.18716 11.8552 5.18209 11.8508 5.17939 11.8458C5.17918 11.8399 5.18212 11.8341 5.18773 11.8294C5.19334 11.8247 5.20126 11.8214 5.21017 11.8201ZM5.32447 11.8415C5.33002 11.8411 5.33563 11.8415 5.34094 11.8426C5.34628 11.8437 5.35117 11.8455 5.35531 11.848C5.35948 11.8504 5.36278 11.8534 5.36503 11.8567C5.36731 11.86 5.36845 11.8636 5.36842 11.8672C5.36572 11.8723 5.36068 11.8766 5.35396 11.8797C5.34727 11.8828 5.33926 11.8845 5.33104 11.8845C5.32285 11.8845 5.31484 11.8828 5.30812 11.8797C5.30143 11.8766 5.29639 11.8723 5.29369 11.8672C5.29345 11.8613 5.29639 11.8555 5.302 11.8508C5.30761 11.8461 5.31556 11.8428 5.32447 11.8415ZM5.42995 11.863C5.4355 11.8625 5.44114 11.8629 5.44645 11.864C5.45176 11.8651 5.45668 11.8669 5.46082 11.8694C5.46496 11.8718 5.46829 11.8748 5.47054 11.8781C5.47279 11.8814 5.47396 11.885 5.4739 11.8886C5.4712 11.8937 5.46616 11.8981 5.45947 11.9011C5.45278 11.9042 5.44477 11.9059 5.43655 11.9059C5.42833 11.9059 5.42032 11.9042 5.41363 11.9011C5.40694 11.8981 5.4019 11.8937 5.3992 11.8886C5.39896 11.8827 5.4019 11.8769 5.40751 11.8722C5.41312 11.8675 5.42104 11.8642 5.42995 11.863ZM5.15302 11.8886C5.15857 11.8882 5.16421 11.8886 5.16952 11.8897C5.17483 11.8908 5.17972 11.8927 5.18389 11.8951C5.18803 11.8975 5.19136 11.9005 5.19361 11.9038C5.19586 11.9071 5.19703 11.9107 5.19697 11.9143C5.19427 11.9194 5.18923 11.9238 5.18254 11.9269C5.17585 11.9299 5.16784 11.9316 5.15962 11.9316C5.1514 11.9316 5.14339 11.9299 5.1367 11.9269C5.13001 11.9238 5.12494 11.9194 5.12224 11.9143C5.12203 11.9084 5.12497 11.9026 5.13058 11.8979C5.13619 11.8933 5.14411 11.89 5.15302 11.8886ZM5.25853 11.9058C5.26408 11.9054 5.26969 11.9058 5.275 11.9069C5.28034 11.908 5.28523 11.9098 5.28937 11.9122C5.29354 11.9146 5.29684 11.9176 5.29912 11.9209C5.30137 11.9243 5.30251 11.9279 5.30248 11.9315C5.29978 11.9365 5.29474 11.9409 5.28805 11.944C5.28133 11.9471 5.27332 11.9488 5.26513 11.9488C5.25691 11.9488 5.2489 11.9471 5.24218 11.944C5.23549 11.9409 5.23045 11.9365 5.22775 11.9315C5.22751 11.9256 5.23045 11.9197 5.23606 11.9151C5.24167 11.9104 5.24962 11.9071 5.25853 11.9058ZM5.4871 11.9143C5.49265 11.914 5.49826 11.9143 5.5036 11.9154C5.50891 11.9165 5.5138 11.9184 5.51797 11.9208C5.52211 11.9232 5.52544 11.9262 5.52769 11.9295C5.52994 11.9329 5.53108 11.9364 5.53105 11.9401C5.52835 11.9451 5.52331 11.9495 5.51662 11.9526C5.50993 11.9557 5.50192 11.9573 5.4937 11.9573C5.48548 11.9573 5.47747 11.9557 5.47078 11.9526C5.46409 11.9495 5.45902 11.9451 5.45632 11.9401C5.45611 11.9341 5.45905 11.9283 5.46466 11.9236C5.47027 11.919 5.47819 11.9157 5.4871 11.9143ZM5.36842 11.9143C5.37397 11.914 5.37958 11.9143 5.38492 11.9154C5.39023 11.9165 5.39512 11.9184 5.39929 11.9208C5.40343 11.9232 5.40673 11.9262 5.40901 11.9295C5.41126 11.9329 5.4124 11.9364 5.41237 11.9401C5.40967 11.9451 5.40463 11.9495 5.39794 11.9526C5.39122 11.9557 5.38321 11.9573 5.37502 11.9573C5.3668 11.9573 5.35879 11.9557 5.3521 11.9526C5.34538 11.9495 5.34034 11.9451 5.33764 11.9401C5.33743 11.9341 5.34037 11.9283 5.34598 11.9236C5.35159 11.919 5.35951 11.9157 5.36842 11.9143ZM5.5882 11.9401C5.59261 11.9401 5.75086 11.9743 5.93986 12.0258L6.28714 12.1243L6.2212 12.24C6.18436 12.3019 6.14917 12.3648 6.11569 12.4285C6.07174 12.5142 6.06295 12.5142 5.85196 12.4671C5.62336 12.4157 5.26291 12.3685 4.89367 12.3385L4.54201 12.3085L4.67389 12.2614C4.75351 12.2315 4.8313 12.1972 4.90687 12.1586C4.99477 12.1114 5.02993 12.1029 5.16622 12.1157C5.36401 12.1286 5.49589 12.09 5.54863 12.0129L5.59261 11.9401H5.5882ZM5.20138 11.9658C5.20693 11.9654 5.21254 11.9657 5.21788 11.9668C5.22319 11.968 5.22808 11.9698 5.23225 11.9722C5.23639 11.9746 5.23972 11.9776 5.24197 11.9809C5.24422 11.9842 5.24536 11.9878 5.24533 11.9915C5.24263 11.9965 5.23759 12.0009 5.2309 12.004C5.22421 12.0071 5.2162 12.0088 5.20798 12.0088C5.19976 12.0088 5.19175 12.0071 5.18506 12.004C5.17834 12.0009 5.1733 11.9965 5.1706 11.9915C5.17039 11.9855 5.17333 11.9797 5.17894 11.9751C5.18455 11.9704 5.19247 11.9671 5.20138 11.9658ZM5.44753 11.9658C5.45308 11.9654 5.45872 11.9657 5.46403 11.9668C5.46934 11.968 5.47426 11.9698 5.4784 11.9722C5.48254 11.9746 5.48587 11.9776 5.48812 11.9809C5.49037 11.9842 5.49154 11.9878 5.49151 11.9915C5.48818 11.9957 5.48314 11.9992 5.47693 12.0016C5.47072 12.0041 5.46361 12.0054 5.45632 12.0054C5.44906 12.0054 5.44195 12.0041 5.43574 12.0016C5.42953 11.9992 5.42449 11.9957 5.42116 11.9915C5.42095 11.9855 5.42389 11.9797 5.4295 11.9751C5.43508 11.9704 5.44303 11.9671 5.45194 11.9658H5.44753ZM5.09587 11.9658C5.10142 11.9654 5.10706 11.9657 5.11237 11.9668C5.11768 11.968 5.1226 11.9698 5.12674 11.9722C5.13088 11.9746 5.13421 11.9776 5.13646 11.9809C5.13871 11.9842 5.13988 11.9878 5.13985 11.9915C5.13715 11.9965 5.13208 12.0009 5.12539 12.004C5.1187 12.0071 5.11069 12.0088 5.10247 12.0088C5.09425 12.0088 5.08624 12.0071 5.07955 12.004C5.07286 12.0009 5.06782 11.9965 5.06512 11.9915C5.06626 11.9863 5.06983 11.9815 5.07535 11.9776C5.08084 11.9738 5.08801 11.9712 5.09587 11.9701V11.9658ZM5.32885 11.9743C5.33902 11.9735 5.34928 11.9753 5.3575 11.9793C5.36569 11.9833 5.37118 11.9892 5.3728 11.9958C5.3701 12.0008 5.36506 12.0052 5.35837 12.0083C5.35168 12.0114 5.34367 12.013 5.33545 12.013C5.32723 12.013 5.31922 12.0114 5.31253 12.0083C5.30584 12.0052 5.30077 12.0008 5.29807 11.9958C5.29924 11.9906 5.30281 11.9857 5.3083 11.9819C5.31382 11.9781 5.32099 11.9755 5.32885 11.9743ZM5.03872 12.0215C5.0443 12.0211 5.04991 12.0214 5.05522 12.0226C5.06056 12.0237 5.06545 12.0255 5.06959 12.0279C5.07376 12.0304 5.07706 12.0333 5.07931 12.0367C5.08159 12.04 5.08273 12.0436 5.0827 12.0472C5.08 12.0522 5.07493 12.0566 5.06824 12.0597C5.06155 12.0628 5.05354 12.0644 5.04532 12.0644C5.0371 12.0644 5.02909 12.0628 5.0224 12.0597C5.01571 12.0566 5.01067 12.0522 5.00797 12.0472C5.00773 12.0412 5.01067 12.0355 5.01628 12.0308C5.02189 12.0261 5.02984 12.0228 5.03872 12.0215ZM5.14864 12.0215C5.15479 12.021 5.16103 12.0214 5.16688 12.0228C5.17273 12.0241 5.17801 12.0263 5.18227 12.0292C5.18656 12.0322 5.18971 12.0357 5.19151 12.0396C5.19331 12.0434 5.19367 12.0475 5.19259 12.0515C5.18989 12.0565 5.18485 12.0609 5.17813 12.064C5.17144 12.0671 5.16343 12.0687 5.15521 12.0687C5.14702 12.0687 5.13901 12.0671 5.13229 12.064C5.1256 12.0609 5.12056 12.0565 5.11786 12.0515C5.11762 12.0455 5.12056 12.0397 5.12617 12.035C5.13178 12.0304 5.13973 12.0271 5.14864 12.0258V12.0215ZM5.26291 12.0301C5.27308 12.0292 5.28334 12.031 5.29156 12.035C5.29975 12.039 5.30524 12.0449 5.30689 12.0515C5.30419 12.0565 5.29912 12.0609 5.29243 12.064C5.28574 12.0671 5.27773 12.0687 5.26951 12.0687C5.26129 12.0687 5.25328 12.0671 5.24659 12.064C5.2399 12.0609 5.23486 12.0565 5.23216 12.0515C5.2333 12.0463 5.23687 12.0415 5.24239 12.0376C5.24788 12.0338 5.25505 12.0312 5.26291 12.0301ZM5.386 12.0301C5.39155 12.0296 5.39716 12.03 5.4025 12.0311C5.40781 12.0322 5.4127 12.034 5.41687 12.0365C5.42101 12.0389 5.42434 12.0419 5.42659 12.0452C5.42884 12.0485 5.42998 12.0521 5.42995 12.0558C5.42725 12.0608 5.42221 12.0652 5.41552 12.0683C5.40883 12.0714 5.40082 12.073 5.3926 12.073C5.38438 12.073 5.37637 12.0714 5.36968 12.0683C5.36299 12.0652 5.35792 12.0608 5.35522 12.0558C5.35501 12.0498 5.35795 12.044 5.36356 12.0393C5.36917 12.0346 5.37709 12.0314 5.386 12.0301ZM4.49365 12.3771C5.01256 12.3905 5.52907 12.4508 6.03658 12.5571C6.04096 12.5614 6.01021 12.6642 5.96185 12.7885L5.87392 13.0455C5.86954 13.0669 5.83876 13.0669 5.76403 13.0584C5.3992 13.0027 4.34422 13.007 3.93979 13.0669C3.70681 13.1012 3.67606 13.0969 3.69364 13.0498L3.73759 12.8998L3.76396 12.7842L4.00135 12.6642C4.15957 12.5855 4.30969 12.4922 4.4497 12.3857H4.48927L4.49365 12.3771ZM3.30682 12.9856C3.31999 12.9856 3.34636 12.9984 3.37714 13.0198C3.42109 13.0455 3.47386 13.0669 3.49582 13.0669C3.61012 13.0669 3.67165 13.2255 3.76837 13.7525L3.80353 13.9411C3.81232 13.9839 3.80353 13.9925 3.70243 14.0139C3.57934 14.0396 3.54859 14.0439 3.54859 14.0267C3.54859 13.9839 3.4255 13.4397 3.37276 13.2469C3.34648 13.162 3.32302 13.0762 3.30241 12.9898C3.30307 12.9895 3.30385 12.9892 3.3046 12.9892C3.30538 12.9892 3.30613 12.9895 3.30682 12.9898V12.9856ZM4.564 13.0712H4.69147L4.64752 13.1141C4.57279 13.1998 4.53763 13.2041 4.48486 13.1484C4.46635 13.1297 4.45144 13.1079 4.44091 13.0841C4.44091 13.0755 4.49806 13.0669 4.564 13.0669V13.0712ZM4.83214 13.0712H5.0695L5.01676 13.1227C4.95523 13.1912 4.95082 13.1912 4.88488 13.1227L4.83214 13.0669V13.0712ZM5.19259 13.0712H5.24974C5.28049 13.0712 5.33764 13.0712 5.3728 13.0798L5.43874 13.0927L5.37721 13.1484C5.34205 13.1784 5.31127 13.2041 5.30689 13.1998L5.24533 13.1312L5.19259 13.0669V13.0712ZM5.56621 13.0841L5.61898 13.0969C5.64973 13.1055 5.71567 13.1098 5.76403 13.1141H5.85196L5.78602 13.1698C5.76214 13.1915 5.73556 13.2102 5.70688 13.2255C5.7025 13.2255 5.66293 13.1912 5.63215 13.1527L5.56621 13.0841ZM4.23871 13.0884H4.2475C4.25191 13.0969 4.2343 13.1312 4.20355 13.1612L4.15957 13.2212L4.09366 13.1698L4.02772 13.1141L4.1332 13.1012L4.23871 13.0884ZM4.33981 13.0969L4.41013 13.1569L4.48048 13.2212L4.3486 13.2298L4.21672 13.2341L4.27828 13.1698L4.33981 13.0969ZM5.13106 13.0969C5.14423 13.0969 5.15302 13.1012 5.16622 13.1098C5.1892 13.1309 5.20849 13.1555 5.22337 13.1827C5.24095 13.2169 5.23654 13.2255 5.17939 13.2255L5.0695 13.2041L5.01676 13.1912L5.07391 13.1355C5.10028 13.1098 5.11786 13.0927 5.13544 13.0927L5.13106 13.0969ZM4.7662 13.0969C4.78819 13.0969 4.81015 13.1098 4.83652 13.1527C4.8673 13.1998 4.8673 13.1998 4.74862 13.1998H4.62994L4.69147 13.1441C4.72225 13.1141 4.74862 13.1012 4.7662 13.1012V13.0969ZM5.51347 13.1055L5.56621 13.1569C5.62777 13.2126 5.63656 13.2469 5.59261 13.2426L5.46952 13.2298L5.3728 13.2212L5.44315 13.1655L5.51347 13.1055ZM3.96616 13.1355C3.97495 13.1355 4.01014 13.1569 4.03651 13.1869L4.08925 13.2426L3.97936 13.2598L3.82552 13.2812C3.79474 13.2898 3.80353 13.2683 3.86947 13.2126C3.91342 13.1698 3.95737 13.1355 3.96616 13.1355ZM3.80353 13.1355H3.82111C3.85627 13.1441 3.85627 13.1527 3.79474 13.2126L3.7288 13.2769L3.70681 13.2212C3.68923 13.1784 3.69364 13.1655 3.73321 13.1484C3.75571 13.1402 3.7795 13.1359 3.80353 13.1355ZM5.82556 13.2126C5.83438 13.2126 5.83438 13.2212 5.82556 13.2383C5.81677 13.2726 5.77723 13.2812 5.77723 13.2469C5.77723 13.2383 5.7904 13.2255 5.80798 13.2169H5.82118L5.82556 13.2126ZM4.88488 13.2812C5.22337 13.2812 5.56621 13.2898 5.64973 13.2983C5.78602 13.3155 5.79919 13.3198 5.79919 13.3712C5.79919 13.4311 5.78161 13.4354 5.59699 13.4055C5.54425 13.3926 5.32006 13.3755 5.10466 13.3583C4.68664 13.3337 4.26712 13.348 3.85189 13.4012C3.76837 13.4097 3.74638 13.4012 3.74638 13.3755C3.74638 13.3198 4.19476 13.2812 4.88488 13.2812ZM4.43212 13.4055H4.66948L4.61674 13.4611C4.5508 13.5297 4.54642 13.5297 4.48486 13.4611L4.43212 13.4055ZM4.73983 13.4055L4.80136 13.4654L4.86289 13.534L4.73542 13.5383H4.60795L4.67389 13.4697L4.73542 13.4055H4.73983ZM4.83214 13.4055H5.0695L5.01676 13.4611C4.95523 13.5297 4.95082 13.5297 4.88488 13.4611L4.83214 13.4055ZM4.26949 13.4055C4.27828 13.4055 4.26949 13.4269 4.23871 13.4697C4.20793 13.5083 4.17718 13.5383 4.17277 13.5383C4.16398 13.5383 4.1332 13.5126 4.10683 13.4826L4.05409 13.4269H4.1332C4.17343 13.4271 4.21345 13.4213 4.25191 13.4097C4.2577 13.4086 4.26367 13.4086 4.26949 13.4097V13.4055ZM4.35739 13.4269L4.41454 13.4783L4.48048 13.534L4.36618 13.5426L4.23871 13.5511L4.30024 13.4869L4.35739 13.4269ZM5.12224 13.4269L5.1838 13.4954C5.25412 13.5683 5.24974 13.5726 5.09149 13.5426L5.01676 13.5297L5.0695 13.4783L5.12224 13.4269ZM5.21017 13.4269H5.31568C5.42995 13.4269 5.44315 13.444 5.37721 13.504C5.32447 13.5469 5.32447 13.5469 5.26291 13.4826L5.21017 13.4269ZM3.86506 13.4483C3.91783 13.4483 3.91342 13.4526 3.84748 13.5169C3.79912 13.564 3.79474 13.564 3.77716 13.5297C3.76396 13.4869 3.80353 13.4526 3.86506 13.4483ZM5.57062 13.4569C5.5882 13.4569 5.62336 13.4569 5.65855 13.4654L5.75965 13.4826L5.7025 13.534L5.64973 13.5854L5.6014 13.5254L5.55742 13.4569H5.57062ZM3.98815 13.4783C4.00135 13.4783 4.01452 13.4869 4.03651 13.5083C4.08046 13.5511 4.08046 13.5511 4.0453 13.5683C4.01122 13.5792 3.97564 13.585 3.93979 13.5854H3.86947L3.92662 13.5254C3.95737 13.4954 3.97057 13.4826 3.98374 13.4783H3.98815ZM5.4871 13.4911C5.50468 13.4911 5.51788 13.4997 5.53984 13.534L5.57941 13.5854H5.4871C5.42557 13.5854 5.3992 13.5769 5.3992 13.5597C5.40799 13.5426 5.42995 13.5169 5.45632 13.504L5.4871 13.4911ZM5.76844 13.5469C5.77723 13.5469 5.77723 13.5554 5.77723 13.5683C5.77723 13.6111 5.73766 13.6411 5.72008 13.6111C5.71567 13.5983 5.72446 13.5769 5.74204 13.564L5.76844 13.5469ZM4.62994 13.5983C5.01235 13.5983 5.43436 13.624 5.68492 13.6668L5.75524 13.6797V13.8682C5.75524 14.0096 5.74645 14.0567 5.72446 14.0567L5.50468 14.0139C4.99639 13.9299 4.47856 13.9155 3.96616 13.971L3.86506 13.9839L3.83869 13.8253C3.82777 13.7717 3.82189 13.7172 3.82111 13.6625C3.82111 13.6625 3.92221 13.6411 4.04089 13.6282C4.18597 13.6068 4.40134 13.5983 4.62994 13.5983Z" fill="black"/>
<path d="M5.39918 12.5269C5.2673 12.5269 5.17499 12.6169 5.17499 12.7497C5.17499 12.9553 5.41235 13.0582 5.55302 12.9125C5.69369 12.7668 5.59697 12.5269 5.39918 12.5269ZM5.39918 12.5783C5.42225 12.5783 5.44514 12.5827 5.46647 12.5913C5.4878 12.5999 5.50718 12.6126 5.5235 12.6285C5.53982 12.6444 5.55278 12.6633 5.56163 12.6841C5.57045 12.7049 5.57501 12.7272 5.57501 12.7497C5.57501 12.8782 5.42993 12.9639 5.31125 12.9082C5.19257 12.8439 5.20136 12.6469 5.32883 12.5954C5.34956 12.5859 5.37191 12.58 5.39477 12.5783H5.39918Z" fill="black"/>
<path d="M4.51557 12.5024C4.38369 12.5024 4.29138 12.5924 4.29138 12.7253C4.29138 12.9309 4.52874 13.0337 4.66941 12.8881C4.81008 12.7424 4.71336 12.5024 4.51557 12.5024ZM4.51557 12.5539C4.53864 12.5539 4.5615 12.5583 4.58286 12.5669C4.60419 12.5755 4.62357 12.5882 4.63989 12.6041C4.65621 12.62 4.66917 12.6389 4.67802 12.6597C4.68684 12.6805 4.6914 12.7028 4.6914 12.7253C4.6914 12.8538 4.54632 12.9395 4.42764 12.8838C4.30896 12.8195 4.31775 12.6224 4.44522 12.571C4.46595 12.5614 4.4883 12.5556 4.51116 12.5539H4.51557Z" fill="black"/>
<path d="M3.78046 9.42096C3.76213 9.42204 3.74479 9.43008 3.73183 9.44352C3.71884 9.45696 3.71113 9.47487 3.71014 9.4938C3.71014 9.51486 3.71824 9.53505 3.73267 9.54993C3.7471 9.56484 3.76666 9.57318 3.78706 9.57318C3.80746 9.57318 3.82702 9.56484 3.84145 9.54993C3.85588 9.53505 3.86398 9.51486 3.86398 9.4938C3.8635 9.48324 3.86089 9.47286 3.85636 9.46338C3.8518 9.4539 3.84541 9.44547 3.83758 9.43863C3.82975 9.43179 3.82063 9.42669 3.81082 9.42366C3.80098 9.42063 3.79066 9.4197 3.78046 9.42096ZM3.78487 9.44667C3.79885 9.44667 3.81226 9.45162 3.82216 9.46047C3.83206 9.46932 3.83761 9.48129 3.83761 9.4938C3.83761 9.50631 3.83206 9.51828 3.82216 9.52713C3.81226 9.53598 3.79885 9.54093 3.78487 9.54093C3.77086 9.54093 3.75745 9.53598 3.74755 9.52713C3.73768 9.51828 3.73213 9.50631 3.73213 9.4938C3.73213 9.48762 3.73348 9.48147 3.73612 9.47577C3.73879 9.47004 3.74266 9.46485 3.74755 9.46047C3.75247 9.45609 3.75829 9.45261 3.76468 9.45027C3.77107 9.4479 3.77794 9.44667 3.78487 9.44667Z" fill="black"/>
</g>
<defs>
<clipPath id="clip0_69_13174">
<rect width="24" height="24" rx="12" fill="white"/>
</clipPath>
</defs>
</svg>
