<svg width="24" height="24" viewBox="0 0 24 24" fill="none" xmlns="http://www.w3.org/2000/svg">
<g clip-path="url(#clip0_69_13146)">
<path fill-rule="evenodd" clip-rule="evenodd" d="M-2.79999 -0.800049H24V24.7999H-2.79999V-0.800049Z" fill="#198A00"/>
<path fill-rule="evenodd" clip-rule="evenodd" d="M18.4 10.3999H21.6V25.5999H18.4V10.3999Z" fill="#EF7D00"/>
<path fill-rule="evenodd" clip-rule="evenodd" d="M15.2 10.3999H18.4V25.5999H15.2V10.3999Z" fill="black"/>
<path fill-rule="evenodd" clip-rule="evenodd" d="M12.0035 10.3999H15.2V25.5999H12L12.0035 10.3999Z" fill="#DE2010"/>
<path fill-rule="evenodd" clip-rule="evenodd" d="M19.4776 5.95752C19.4776 5.95752 20.6729 5.43643 20.7854 5.32861C20.8382 5.3933 20.3073 6.04736 19.2772 6.28815C20.2124 6.06533 21.0104 5.35377 21.1757 5.37533C21.2214 5.38611 21.2108 6.06892 19.0663 6.66189C20.5499 6.26658 21.4112 5.53346 21.4007 5.61252C21.4112 5.63049 21.253 6.18752 19.9557 6.62236C20.3179 6.53611 21.3022 5.92517 21.2917 6.04377C21.3233 6.09049 20.3425 7.38064 18.5636 6.96017C19.9839 7.33752 20.9015 6.4283 21.0315 6.44627C21.0596 6.44986 20.7714 7.2369 18.9854 7.2872C19.8397 7.19737 19.5936 7.28361 19.5936 7.28361C19.5936 7.28361 19.0909 7.68611 18.4792 7.41299C18.9573 7.54596 19.01 7.55314 19.0206 7.59267C18.989 7.65017 18.5987 7.72922 18.2155 7.52081C18.5214 7.65017 18.7956 7.67172 18.7991 7.71846C18.7956 7.73284 18.6022 7.84784 18.4265 7.76517C18.2542 7.68611 16.6581 6.68346 16.6581 6.68346L19.3792 5.91799L19.4776 5.95392V5.95752ZM16.2784 8.6744C16.0394 8.6744 16.0323 8.89002 16.0323 8.89002C16.0323 8.89002 16.0147 8.90799 16.0253 9.01219L16.085 8.91878C16.1132 8.92237 16.2221 8.95469 16.3944 8.81814C16.2362 8.98705 16.3311 9.04814 16.3311 9.04814C16.3311 9.04814 16.296 9.18111 16.4155 9.20628C16.3804 9.15237 16.4015 9.10564 16.4015 9.10564C16.4015 9.10564 16.5702 9.08767 16.5596 8.87922C16.5632 9.06969 16.6651 9.11643 16.6651 9.11643C16.6651 9.11643 16.6651 9.22064 16.7741 9.23143C16.7179 9.17752 16.7284 9.09487 16.7284 9.09487C16.7284 9.09487 16.869 8.98705 16.753 8.80737C16.8233 8.76422 16.8831 8.64564 16.8831 8.64564C16.8831 8.64564 16.7846 8.60252 16.739 8.56658C16.7179 8.51987 16.739 8.26111 16.739 8.26111L16.6757 7.9269L16.5069 8.44799C16.514 8.37611 16.5175 8.6744 16.2784 8.6744Z" fill="#EF7D00" stroke="black" stroke-width="0.117188" stroke-linejoin="round"/>
<path fill-rule="evenodd" clip-rule="evenodd" d="M17.4586 7.92335C17.4657 7.92694 17.6379 8.12459 17.8067 8.1138C17.87 8.05991 17.6766 7.94491 17.6766 7.91615C17.7469 7.98085 18.0317 8.23241 18.218 8.14256C18.2883 8.03474 18.0844 8.05271 17.8594 7.76162C18.0176 7.86944 18.4114 8.10303 18.5977 8.01318C18.6715 7.92694 18.1864 7.65741 18.0211 7.44897L17.5993 7.22974L17.0297 7.70771L17.4621 7.92335H17.4586Z" fill="#EF7D00" stroke="black" stroke-width="0.117188" stroke-linejoin="round"/>
<path fill-rule="evenodd" clip-rule="evenodd" d="M16.8164 6.28774C16.8164 6.28774 17.0098 6.17274 17.7867 6.23024C17.8711 6.24102 18.3141 6.07571 18.4582 6.0254C18.6832 5.98227 19.4074 5.82415 19.5973 5.67321C19.7379 5.65524 19.5621 5.92837 19.3863 5.99665C19.2035 6.0793 18.5391 6.31649 18.3 6.28415C18.5848 6.28774 18.4266 6.52493 17.9555 6.41352C18.1805 6.5429 18.0961 6.56446 18.0961 6.56446C18.0961 6.56446 17.6988 6.58603 17.5933 6.49259C17.8606 6.5968 17.7481 6.63634 17.7481 6.63634C17.7481 6.63634 17.4773 6.66149 17.3508 6.6004C17.5441 6.66149 17.4457 6.69742 17.4457 6.69742C17.4457 6.69742 17.2875 6.72619 17.1574 6.67587C17.0238 6.62915 16.8269 6.29134 16.8164 6.29134V6.28774Z" fill="#EF7D00" stroke="black" stroke-width="0.117188" stroke-linecap="round" stroke-linejoin="round"/>
<path fill-rule="evenodd" clip-rule="evenodd" d="M17.1252 8.03457L17.1533 8.55928L17.1252 8.6024C17.1146 8.61678 16.7631 8.5449 16.8088 8.81801C16.8088 8.93301 16.8088 8.96178 16.8861 9.02287C16.8685 8.95098 16.8721 8.89707 16.8721 8.89707C16.8721 8.89707 16.974 8.95819 17.0689 8.78928C17.0021 8.95457 17.0479 9.01569 17.0654 9.01928C17.0795 9.04801 17.0373 9.18098 17.1709 9.1774C17.1181 9.12707 17.1428 9.05522 17.1428 9.05522C17.1428 9.05522 17.2834 9.03366 17.2342 8.77848C17.2834 8.72819 17.3045 8.77848 17.3045 8.77848C17.3045 8.77848 17.3185 8.92943 17.4416 8.89707C17.4943 8.92943 17.431 9.01207 17.431 9.01207C17.431 9.01207 17.5189 9.01207 17.5471 8.94022C17.5717 8.86116 17.6033 8.72457 17.4592 8.66707C17.4416 8.61319 17.5154 8.60957 17.5154 8.60957C17.5154 8.60957 17.6068 8.64193 17.635 8.68866C17.6631 8.73537 17.6525 8.56645 17.5365 8.5449C17.3959 8.5449 17.3889 8.51254 17.3889 8.50895L17.3537 8.0166L17.1252 8.03457Z" fill="#EF7D00" stroke="black" stroke-width="0.117188" stroke-linejoin="round"/>
<path fill-rule="evenodd" clip-rule="evenodd" d="M17.6136 8.47999C17.6136 8.45484 17.3746 8.12422 17.4379 8.08469C17.4976 8.09546 17.5961 8.2464 17.6804 8.19611C17.6558 8.1386 17.582 8.17093 17.5011 8.01999C17.4168 7.84749 17.4062 7.59234 17.1144 7.31563C17.3043 7.61031 17.7261 7.78281 17.7472 7.69654C17.7683 7.61031 17.3711 7.28687 17.3921 7.20781C17.4695 7.36593 17.8632 7.72531 18.1515 7.69654C18.1726 7.62469 17.916 7.48813 17.8492 7.35875C17.6629 7.22937 17.1671 6.79452 17.1601 6.6939C17.0729 6.54233 16.9541 6.41226 16.8121 6.31297C16.799 6.2946 16.7895 6.27387 16.784 6.25187C16.6715 5.98234 16.8191 5.8925 16.907 5.88172C16.9773 5.87093 16.9984 5.88172 17.0476 5.85656L16.8683 5.78468C16.9492 5.84578 17.1496 5.79187 17.1074 5.96437C17.1953 5.92843 17.3851 5.69843 16.8929 5.64812C16.7312 5.46125 16.0738 5.35343 15.9086 6.17281C15.9226 6.18359 15.9296 6.19437 15.9719 6.22312C15.7609 6.1225 15.2019 6.04343 15.0015 6.0075C14.4531 5.84937 13.8871 5.46125 13.8344 5.50797C13.764 5.5439 14.1648 5.92484 14.1437 5.93203C13.831 5.75002 13.5082 5.58683 13.1769 5.44328C12.966 5.36422 12.7586 5.17734 12.7375 5.21328C12.6601 5.375 13.0715 5.78468 13.1488 5.8314C13.2261 5.87812 13.8273 6.16562 13.8168 6.16922C12.9097 5.74875 12.7621 5.66968 12.7129 5.62297C12.632 5.605 12.4386 5.33547 12.3859 5.35343C12.3543 5.38218 12.414 5.80625 12.8465 6.00031C12.9168 6.05062 13.7746 6.36328 13.7675 6.38843C13.7675 6.39562 12.7832 5.97515 12.748 5.95718C12.5582 5.88531 12.3261 5.61937 12.284 5.64812C12.2418 5.67687 12.3894 5.96437 12.5793 6.05422C12.6812 6.09734 13.0644 6.2914 13.409 6.41359C13.43 6.42437 12.7867 6.16562 12.4773 6.03625C12.3367 5.95718 12.2734 5.85656 12.2523 5.87812C12.2171 5.89968 12.3015 6.32375 13.2965 6.56093C13.3211 6.57531 13.648 6.48547 13.6304 6.49625C13.4478 6.54317 13.2622 6.57679 13.075 6.59687C13.0644 6.62562 13.1382 6.77655 13.6515 6.74781C13.7148 6.74422 14.0734 6.61484 14.0418 6.64C13.871 6.70663 13.6974 6.76538 13.5215 6.81611C13.4898 6.81611 13.3246 6.83766 13.3175 6.85202C13.3105 6.88078 13.4406 6.98861 13.7148 7.00296C13.9609 7.01734 14.425 6.85202 14.4179 6.86281C14.4039 6.87361 13.9679 7.02813 13.9574 7.03531C13.9398 7.04611 13.7816 7.05328 13.7746 7.06766C13.7605 7.09999 14.0066 7.33361 14.7273 7.08202C14.657 7.18266 14.3054 7.25093 14.3054 7.2689C14.3054 7.28328 14.3828 7.35875 14.5058 7.38749C14.5656 7.40187 14.65 7.39828 14.7273 7.38749C14.8679 7.35875 15.0086 7.30484 15.1949 7.12875C15.216 7.18266 14.7344 7.43422 14.7554 7.45578C14.8609 7.5564 15.209 7.44499 15.23 7.43063C15.2546 7.41984 15.898 7.04611 15.898 6.99937C15.9086 7.05687 15.0648 7.52766 15.0754 7.54563C15.1281 7.63187 15.4164 7.54202 15.4269 7.53125L15.8066 7.32281C15.8171 7.31922 15.3918 7.57437 15.4269 7.61749C15.4094 7.7864 16.0949 7.50249 16.1476 7.46654C16.1722 7.4486 15.8171 7.62469 15.8171 7.70734C15.9332 7.90499 16.2988 7.8439 16.355 7.80078C16.3832 7.77922 16.3199 7.94452 16.341 7.93016C16.3842 7.88493 16.4198 7.8327 16.4465 7.77563C16.4394 7.83313 16.3972 7.91937 16.3761 8.01999C16.3515 8.11702 16.3445 8.23202 16.3129 8.35063C16.3058 8.40093 16.5379 8.2464 16.5027 7.87625C16.5238 8.07031 16.4324 8.42969 16.457 8.45125C16.5027 8.48719 16.6398 8.27158 16.6539 8.12422C16.6925 8.19611 16.7769 8.35063 16.8507 8.38654C16.8437 8.27516 16.8507 8.27875 16.8156 8.17093C16.8367 8.0236 16.8402 7.82234 16.8437 7.59234C17.0406 7.97687 17.1215 8.14219 17.0652 8.43687C17.125 8.46202 17.2164 8.22843 17.2094 8.11343C17.2313 8.20981 17.282 8.29681 17.3544 8.36247C17.4269 8.42813 17.5174 8.46919 17.6136 8.47999Z" fill="#EF7D00" stroke="black" stroke-width="0.128906" stroke-linecap="round" stroke-linejoin="round"/>
<path fill-rule="evenodd" clip-rule="evenodd" d="M14.3367 6.03296C14.3367 6.03296 14.1996 6.13718 14.0344 6.12999C14.0766 6.30249 14.4211 6.16952 14.4211 6.16952C14.4211 6.16952 14.2559 6.35999 14.1363 6.38874C14.2067 6.44984 14.509 6.42827 14.5582 6.39952C14.6074 6.36718 14.6988 6.24859 14.6988 6.24859C14.6988 6.24859 14.3894 6.61515 14.3473 6.61155C14.3367 6.65468 14.6672 6.6403 14.734 6.57562C14.8043 6.51093 14.9801 6.41749 14.9801 6.41749C14.9801 6.41749 14.5231 6.74093 14.5055 6.74093C14.6742 6.78405 15.0152 6.68343 15.2332 6.54687C14.9098 6.76608 14.8817 6.80561 14.7164 6.88108C14.8641 6.91343 14.9379 7.01405 15.4301 6.79484C15.7113 6.65827 15.8731 6.40671 15.8731 6.40671C15.6584 6.66557 15.4015 6.88445 15.1137 7.05358C15.0961 7.08952 15.4442 7.24046 15.8836 6.76967" fill="#EF7D00"/>
<path d="M14.3367 6.03296C14.3367 6.03296 14.1996 6.13718 14.0344 6.12999C14.0766 6.30249 14.4211 6.16952 14.4211 6.16952C14.4211 6.16952 14.2559 6.35999 14.1363 6.38874C14.2067 6.44984 14.509 6.42827 14.5582 6.39952C14.6074 6.36718 14.6988 6.24859 14.6988 6.24859C14.6988 6.24859 14.3894 6.61515 14.3473 6.61155C14.3367 6.65468 14.6672 6.6403 14.734 6.57562C14.8043 6.51093 14.9801 6.41749 14.9801 6.41749C14.9801 6.41749 14.5231 6.74093 14.5055 6.74093C14.6742 6.78405 15.0152 6.68343 15.2332 6.54687C14.9098 6.76608 14.8817 6.80561 14.7164 6.88108C14.8641 6.91343 14.9379 7.01405 15.4301 6.79484C15.7113 6.65827 15.8731 6.40671 15.8731 6.40671C15.6584 6.66557 15.4015 6.88445 15.1137 7.05358C15.0961 7.08952 15.4442 7.24046 15.8836 6.76967" stroke="black" stroke-width="0.128906" stroke-linecap="round" stroke-linejoin="round"/>
<path fill-rule="evenodd" clip-rule="evenodd" d="M16.7273 7.04985C16.7273 7.04985 16.759 7.19362 16.8785 7.30141C16.9981 7.40924 17.0051 7.51703 17.0051 7.51703M16.6711 6.11548C16.6711 6.11548 16.7098 6.24845 16.8328 6.3311C16.9594 6.41017 17.1492 6.66891 17.1598 6.71565C17.1738 6.76953 17.2477 7.16844 17.2406 7.21156M15.9117 6.31314C15.9187 6.36704 15.7359 6.61142 15.9891 6.9025C15.757 7.19 15.757 7.22594 15.757 7.22594C15.757 7.22594 15.8871 7.29783 16.1156 7.09656C16.4953 7.57094 16.3687 7.78656 16.3687 7.78656" fill="#EF7D00"/>
<path d="M16.7273 7.04985C16.7273 7.04985 16.759 7.19362 16.8785 7.30141C16.9981 7.40924 17.0051 7.51703 17.0051 7.51703M16.6711 6.11548C16.6711 6.11548 16.7098 6.24845 16.8328 6.3311C16.9594 6.41017 17.1492 6.66891 17.1598 6.71565C17.1738 6.76953 17.2477 7.16844 17.2406 7.21156M15.9117 6.31314C15.9187 6.36704 15.7359 6.61142 15.9891 6.9025C15.757 7.19 15.757 7.22594 15.757 7.22594C15.757 7.22594 15.8871 7.29783 16.1156 7.09656C16.4953 7.57094 16.3687 7.78656 16.3687 7.78656" stroke="black" stroke-width="0.128906" stroke-linecap="round"/>
<path fill-rule="evenodd" clip-rule="evenodd" d="M16.3363 7.45246C16.3363 7.45246 16.3012 7.40214 16.3645 7.21167C16.4207 7.28355 16.484 7.29435 16.5086 7.31949C16.5367 7.35185 16.825 7.39138 16.8391 7.58902" fill="#EF7D00"/>
<path d="M16.3363 7.45246C16.3363 7.45246 16.3012 7.40214 16.3645 7.21167C16.4207 7.28355 16.484 7.29435 16.5086 7.31949C16.5367 7.35185 16.825 7.39138 16.8391 7.58902" stroke="black" stroke-width="0.128906" stroke-linecap="round" stroke-linejoin="round"/>
<path fill-rule="evenodd" clip-rule="evenodd" d="M16.6757 5.66624C16.6757 5.65187 16.616 5.52249 16.4016 5.68062C16.5176 5.6878 16.6301 5.75608 16.6757 5.66624Z" fill="#EF7D00" stroke="black" stroke-width="0.128906"/>
<path fill-rule="evenodd" clip-rule="evenodd" d="M18.7207 6.24146C18.7313 6.24864 19.3606 6.38521 19.5715 6.31692C19.3043 6.68349 18.7664 6.43552 18.7664 6.43552C19.0301 6.51458 19.0407 6.50739 19.125 6.58646C19.1532 6.65833 18.6399 6.62239 18.4747 6.52536C18.9422 6.67631 18.9528 6.66911 18.9668 6.72302C18.9879 6.80567 18.2004 6.70146 18.1336 6.59724C18.3446 6.76255 18.4571 6.7949 18.5731 6.87037C18.4324 6.93505 18.1688 6.99972 17.6872 6.65114C18.3199 7.24052 18.893 7.20458 18.9844 7.30878C18.7629 7.64302 17.9051 7.11114 17.5114 6.84161C17.1176 6.57208 18.3727 7.49208 18.4887 7.4777C18.4324 7.56755 18.0176 7.48849 17.9895 7.44175" fill="#EF7D00"/>
<path d="M18.7207 6.24146C18.7313 6.24864 19.3606 6.38521 19.5715 6.31692C19.3043 6.68349 18.7664 6.43552 18.7664 6.43552C19.0301 6.51458 19.0407 6.50739 19.125 6.58646C19.1532 6.65833 18.6399 6.62239 18.4747 6.52536C18.9422 6.67631 18.9528 6.66911 18.9668 6.72302C18.9879 6.80567 18.2004 6.70146 18.1336 6.59724C18.3446 6.76255 18.4571 6.7949 18.5731 6.87037C18.4324 6.93505 18.1688 6.99972 17.6872 6.65114C18.3199 7.24052 18.893 7.20458 18.9844 7.30878C18.7629 7.64302 17.9051 7.11114 17.5114 6.84161C17.1176 6.57208 18.3727 7.49208 18.4887 7.4777C18.4324 7.56755 18.0176 7.48849 17.9895 7.44175" stroke="black" stroke-width="0.128906" stroke-linejoin="round"/>
<path fill-rule="evenodd" clip-rule="evenodd" d="M18.8836 6.85962C18.8133 6.87041 18.5918 6.87041 18.5602 6.86321L18.8836 6.85962Z" fill="#EF7D00"/>
<path d="M18.8836 6.85962C18.8133 6.87041 18.5918 6.87041 18.5602 6.86321" stroke="black" stroke-width="0.128906" stroke-linecap="round"/>
<path fill-rule="evenodd" clip-rule="evenodd" d="M14.1516 5.93579C14.1516 5.93579 14.6297 6.19454 14.8336 6.17657C14.7947 6.21014 14.7491 6.23466 14.7 6.24845C14.7492 6.27001 14.8898 6.34548 15.1007 6.29876L14.9847 6.40657C14.9847 6.40657 15.1676 6.47845 15.3715 6.37064C15.3365 6.41325 15.3036 6.45763 15.273 6.5036L15.4172 6.51439" fill="#EF7D00"/>
<path d="M14.1516 5.93579C14.1516 5.93579 14.6297 6.19454 14.8336 6.17657C14.7947 6.21014 14.7491 6.23466 14.7 6.24845C14.7492 6.27001 14.8898 6.34548 15.1007 6.29876L14.9847 6.40657C14.9847 6.40657 15.1676 6.47845 15.3715 6.37064C15.3365 6.41325 15.3036 6.45763 15.273 6.5036L15.4172 6.51439" stroke="black" stroke-width="0.128906" stroke-linecap="round" stroke-linejoin="round"/>
</g>
<defs>
<clipPath id="clip0_69_13146">
<rect width="24" height="24" rx="12" fill="white"/>
</clipPath>
</defs>
</svg>
