<svg width="24" height="24" viewBox="0 0 24 24" fill="none" xmlns="http://www.w3.org/2000/svg">
<path opacity="0.2" d="M12 24C18.6274 24 24 18.6274 24 12C24 5.37258 18.6274 0 12 0C5.37258 0 0 5.37258 0 12C0 18.6274 5.37258 24 12 24Z" fill="#F3BA2F"/>
<path fill-rule="evenodd" clip-rule="evenodd" d="M9.49142 10.9684L12.0014 8.45956L14.5124 10.9705L15.972 9.50986L12.0014 5.53832L8.03075 9.50884L9.49142 10.9684ZM5.53857 12.0001L6.99871 10.54L8.45884 12.0001L6.99871 13.4602L5.53857 12.0001ZM12.0013 15.5412L9.49137 13.0313L8.02866 14.4898L8.0307 14.4919L12.0013 18.4614L15.972 14.4898L15.973 14.4888L14.5123 13.0302L12.0013 15.5412ZM15.5414 12.0006L17.0015 10.5405L18.4616 12.0006L17.0015 13.4607L15.5414 12.0006ZM12.0014 10.5173L13.4825 11.9993H13.4835L13.4825 12.0003L12.0014 13.4824L10.5203 12.0024L10.5183 11.9993L10.5203 11.9973L10.7796 11.738L10.9062 11.6125L12.0014 10.5173Z" fill="#F3BA2F"/>
</svg>
