<svg width="24" height="24" viewBox="0 0 24 24" fill="none" xmlns="http://www.w3.org/2000/svg">
<path opacity="0.2" d="M23.64 14.9031C22.0372 21.3317 15.5257 25.2437 9.09637 23.641C2.66999 22.0382 -1.24238 15.5267 0.360743 9.09847C1.96274 2.6691 8.47387 -1.24365 14.9014 0.359098C21.3304 1.96185 25.2424 8.4741 23.6396 14.9031H23.64Z" fill="#F7931A"/>
<path fill-rule="evenodd" clip-rule="evenodd" d="M15.6141 10.6059C15.7759 9.52274 14.9512 8.94043 13.8234 8.55197L14.1893 7.08462L13.2958 6.86202L12.9397 8.2907C12.7051 8.23219 12.464 8.17699 12.2243 8.12229L12.583 6.6842L11.6903 6.46161L11.3243 7.92844C11.1299 7.88418 10.9391 7.84042 10.7539 7.79438L10.7549 7.7898L9.52316 7.48224L9.28556 8.43622C9.28556 8.43622 9.94825 8.58809 9.93426 8.5975C10.296 8.68781 10.3616 8.9272 10.3505 9.11698L9.93375 10.7886C9.95868 10.795 9.99099 10.8041 10.0266 10.8184L9.93248 10.795L9.34814 13.1367C9.30387 13.2466 9.19168 13.4114 8.93882 13.3488C8.94772 13.3618 8.2896 13.1868 8.2896 13.1868L7.84619 14.2094L9.00877 14.4992C9.14002 14.5321 9.26968 14.5659 9.39791 14.5994L9.39801 14.5994C9.48101 14.6211 9.56342 14.6426 9.64527 14.6635L9.27563 16.1479L10.1678 16.3705L10.5341 14.9022C10.7776 14.9683 11.0142 15.0294 11.2457 15.0869L10.8809 16.5484L11.774 16.7709L12.1437 15.2896C13.6667 15.5778 14.8123 15.4616 15.2938 14.0843C15.6823 12.9751 15.2748 12.3353 14.4734 11.9179C15.057 11.7828 15.4966 11.3989 15.6139 10.6059H15.6141ZM13.5731 13.4676C13.3196 14.4856 11.7258 14.0644 10.9972 13.8718L10.9972 13.8718C10.9319 13.8546 10.8736 13.8391 10.8239 13.8268L11.3144 11.8606C11.3752 11.8757 11.4495 11.8924 11.5338 11.9113C12.2875 12.0805 13.8322 12.4271 13.5734 13.4676H13.5731ZM11.6853 10.999C12.2932 11.1612 13.6183 11.5147 13.8492 10.5899C14.0852 9.64386 12.7966 9.35871 12.1673 9.21945C12.0966 9.20379 12.0342 9.18998 11.9832 9.17728L11.5385 10.9606C11.5806 10.9711 11.63 10.9842 11.6853 10.999Z" fill="#F7931A"/>
</svg>
