<svg width="24" height="24" viewBox="0 0 24 24" fill="none" xmlns="http://www.w3.org/2000/svg">
<path opacity="0.2" d="M23.9349 12.0004C23.9349 18.593 18.5908 23.9373 11.9983 23.9373C5.40576 23.9373 0.0615234 18.593 0.0615234 12.0004C0.0615234 5.40799 5.40576 0.0637436 11.9983 0.0637436C18.5907 0.0637436 23.9349 5.40799 23.9349 12.0004Z" fill="#AF48FF"/>
<g opacity="0.8">
<path d="M11.96 6.46167L11.8862 6.71227V13.9841L11.96 14.0577L15.3355 12.0624L11.96 6.46167Z" fill="#882BFF"/>
<path d="M11.96 6.46161L8.58447 12.0624L11.96 14.0576V10.5281V6.46161Z" fill="#882BFF"/>
<path d="M11.96 15.1558L11.9185 15.2065V17.7969L11.96 17.9182L15.3375 13.1616L11.96 15.1558Z" fill="#882BFF"/>
<path d="M11.96 17.9182V15.1558L8.58447 13.1616L11.96 17.9182Z" fill="#882BFF"/>
<path d="M11.96 14.0578L15.3354 12.0626L11.96 10.5283V14.0578Z" fill="#882BFF"/>
<path d="M8.58447 12.0623L11.9599 14.0576V10.5281L8.58447 12.0623Z" fill="#882BFF"/>
</g>
</svg>
