<svg width="24" height="24" viewBox="0 0 24 24" fill="none" xmlns="http://www.w3.org/2000/svg">
<path opacity="0.2" d="M23.9349 12.0003C23.9349 18.5928 18.5908 23.9371 11.9983 23.9371C5.40576 23.9371 0.0615234 18.5928 0.0615234 12.0003C0.0615234 5.40784 5.40576 0.0635986 11.9983 0.0635986C18.5907 0.0635986 23.9349 5.40784 23.9349 12.0003Z" fill="#00A478"/>
<path d="M10.7742 11.7911V9.70285H7.94189V7.87238H15.8566V9.72863H13.0242V11.7911H10.7742Z" fill="#00A478"/>
<path fill-rule="evenodd" clip-rule="evenodd" d="M6.72412 12.0232C6.72412 11.3271 9.00059 10.7599 11.8329 10.7599C14.6653 10.7599 16.9418 11.3271 16.9418 12.0232C16.9418 12.7192 14.6653 13.2864 11.8329 13.2864C9.00059 13.2864 6.72412 12.7192 6.72412 12.0232ZM16.5183 12.0231C16.333 11.7653 14.7977 10.9661 11.833 10.9661C8.86825 10.9661 7.33296 11.7395 7.14767 12.0231C7.33296 12.281 8.86825 12.6677 11.833 12.6677C14.8241 12.6677 16.333 12.281 16.5183 12.0231Z" fill="#00A478"/>
<path d="M13.0243 12.4357V10.9919C12.6537 10.9661 12.2567 10.9403 11.8596 10.9403C11.489 10.9403 11.1449 10.9403 10.8008 10.9661V12.4099C11.1184 12.4099 11.489 12.4357 11.8596 12.4357C12.2567 12.4614 12.6537 12.4614 13.0243 12.4357Z" fill="#00A478"/>
<path d="M11.8327 13.2867C11.4622 13.2867 11.118 13.2867 10.7739 13.2609V17.1023H12.9975V13.2352C12.6269 13.2609 12.2298 13.2867 11.8327 13.2867Z" fill="#00A478"/>
</svg>
