<svg width="25" height="16" viewBox="0 0 25 16" fill="none" xmlns="http://www.w3.org/2000/svg">
<g clip-path="url(#clip0_135_3926)">
<path d="M0.5 2C0.5 0.895431 1.39543 0 2.5 0H22.5C23.6046 0 24.5 0.895431 24.5 2V14C24.5 15.1046 23.6046 16 22.5 16H2.5C1.39543 16 0.5 15.1046 0.5 14V2Z" fill="#171A2F"/>
<path d="M21.1548 5.01752H19.8975C19.5174 5.01752 19.225 5.13448 19.0495 5.51459L16.6519 10.9824H18.3478C18.3478 10.9824 18.6402 10.2514 18.6986 10.076C18.8741 10.076 20.5407 10.076 20.7747 10.076C20.8331 10.2807 20.9793 10.9532 20.9793 10.9532H22.4998L21.1548 5.01752ZM19.1665 8.84793C19.3127 8.49705 19.8097 7.18126 19.8097 7.18126C19.8097 7.2105 19.9559 6.83038 20.0144 6.6257L20.1314 7.15202C20.1314 7.15202 20.453 8.58477 20.5115 8.87717H19.1665V8.84793Z" fill="#3362AB"/>
<path d="M16.7692 9.02338C16.7692 10.2514 15.6581 11.0702 13.933 11.0702C13.202 11.0702 12.5002 10.924 12.1201 10.7485L12.354 9.40349L12.5587 9.49121C13.085 9.72513 13.4359 9.81285 14.0792 9.81285C14.547 9.81285 15.0441 9.63741 15.0441 9.22806C15.0441 8.9649 14.8394 8.78946 14.1961 8.49706C13.5821 8.20466 12.7634 7.73683 12.7634 6.88887C12.7634 5.71928 13.9037 4.92981 15.5119 4.92981C16.126 4.92981 16.6523 5.04677 16.9739 5.19297L16.74 6.47952L16.623 6.36256C16.3306 6.2456 15.9505 6.12864 15.395 6.12864C14.7809 6.15788 14.4885 6.42104 14.4885 6.65496C14.4885 6.91811 14.8394 7.12279 15.395 7.38595C16.3306 7.82455 16.7692 8.32162 16.7692 9.02338Z" fill="#3362AB"/>
<path d="M2.5 5.07604L2.52924 4.95908H5.04386C5.39474 4.95908 5.65789 5.07603 5.74561 5.45615L6.30117 8.08773C5.74561 6.68422 4.45906 5.54387 2.5 5.07604Z" fill="#F9B50B"/>
<path d="M9.83939 5.01752L7.29553 10.9532H5.57039L4.1084 5.98243C5.16103 6.65495 6.03822 7.70758 6.35986 8.43857L6.5353 9.05261L8.11425 4.98828H9.83939V5.01752Z" fill="#3362AB"/>
<path d="M10.5117 4.98828H12.1199L11.0965 10.9532H9.48828L10.5117 4.98828Z" fill="#3362AB"/>
</g>
<defs>
<clipPath id="clip0_135_3926">
<rect width="24" height="16" fill="white" transform="translate(0.5)"/>
</clipPath>
</defs>
</svg>
