<svg width="24" height="24" viewBox="0 0 24 24" fill="none" xmlns="http://www.w3.org/2000/svg">
<path d="M12.0001 20.3078C16.5883 20.3078 20.3078 16.5883 20.3078 12.0001C20.3078 7.41187 16.5883 3.69239 12.0001 3.69239C7.41186 3.69239 3.69238 7.41187 3.69238 12.0001C3.69238 16.5883 7.41186 20.3078 12.0001 20.3078Z" fill="white"/>
<path d="M18.925 16.4515H15.6462V12L12.0003 15.5974L8.35435 12V16.4515H5.07562H4.9707C6.43957 18.7548 9.03632 20.3077 12.0003 20.3077C14.9643 20.3077 17.561 18.7807 19.0299 16.4515H18.925Z" fill="#4C4C4C"/>
<path d="M6.62759 14.5563V7.71126L12.0001 13.0265L17.3726 7.71126V14.5563H19.8622C20.1505 13.7266 20.3078 12.845 20.3078 11.9116C20.3078 7.37419 16.5863 3.69239 12.0001 3.69239C7.41381 3.69239 3.69238 7.37419 3.69238 11.9116C3.69238 12.845 3.84963 13.7266 4.13791 14.5563H6.62759Z" fill="#FF6B01"/>
<path opacity="0.1" d="M23.9349 12.0002C23.9349 18.5928 18.5908 23.9371 11.9983 23.9371C5.40576 23.9371 0.0615234 18.5928 0.0615234 12.0002C0.0615234 5.40776 5.40576 0.0635185 11.9983 0.0635185C18.5907 0.0635185 23.9349 5.40776 23.9349 12.0002Z" fill="#BEBEBE"/>
</svg>
